  0
SECTION
  2
HEADER
  9
$ANGBASE
  50
0.0
  9
$ANGDIR
  70
1
  9
$MEASUREMENT
  70
0
  0
ENDSEC
  0
SECTION
  2
TABLES
  0
TABLE
  2
LTYPE
  70
4
  0
LTYPE
  5
40F
  2
CONTINUOUS
  70
0
  3
Solid line
  72
65
  73
0
  40
0.0
  0
LTYPE
  5
410
  2
DASHDOT
 70
0
  3
Dash Dot ____ _ ____ _
 72
65
 73
4
 40
2.0
 49
1.25
 49
-0.25
 49
0.25
 49
-0.25
  0
LTYPE
  5
411
  2
DASHED
 70
0
  3
Dashed __ __ __ __ __
 72
65
 73
2
 40
0.75
 49
0.5
 49
-0.25
  0
LTYPE
  5
43B
  2
DOTTED
 70
0
  3
Dotted .  .  .  .
 72
65
 73
2
 40
0.2
 49
0.0
 49
-0.2
  0
ENDTAB
  0
TABLE
  2
STYLE
  70
4
  0
STYLE
  2
KICAD
  70
0
  40
0
  41
1
  42
1
  50
0
  71
0
  3
isocp.shx
  0
STYLE
  2
KICADB
  70
0
  40
0
  41
1
  42
1
  50
0
  71
0
  3
isocp.shx
  0
STYLE
  2
KICADI
  70
0
  40
0
  41
1
  42
1
  50
15
  71
0
  3
isocp.shx
  0
STYLE
  2
KICADBI
  70
0
  40
0
  41
1
  42
1
  50
15
  71
0
  3
isocp.shx
  0
ENDTAB
  0
TABLE
  2
LAYER
  70
1
  0
LAYER
  2
BLACK
  70
0
  62
7
  6
CONTINUOUS
  0
ENDTAB
  0
ENDSEC
  0
SECTION
  2
ENTITIES
0
LINE
8
BLACK
6
CONTINUOUS
10
4.3503937007874018
20
-2.0649606299212597
11
4.3629453543307086
21
-2.0656184251968503
0
LINE
8
BLACK
6
CONTINUOUS
10
4.3629453543307086
20
-2.0656184251968503
11
4.3753594881889759
21
-2.0675846456692915
0
LINE
8
BLACK
6
CONTINUOUS
10
4.3753594881889759
20
-2.0675846456692915
11
4.3875000787401577
21
-2.0708377165354328
0
LINE
8
BLACK
6
CONTINUOUS
10
4.3875000787401577
20
-2.0708377165354328
11
4.3992341338582674
21
-2.0753419685039369
0
LINE
8
BLACK
6
CONTINUOUS
10
4.3992341338582674
20
-2.0753419685039369
11
4.4104330708661417
21
-2.0810481496062994
0
LINE
8
BLACK
6
CONTINUOUS
10
4.4104330708661417
20
-2.0810481496062994
11
4.4209742125984253
21
-2.0878936220472442
0
LINE
8
BLACK
6
CONTINUOUS
10
4.4209742125984253
20
-2.0878936220472442
11
4.4307420472440944
21
-2.095803464566929
0
LINE
8
BLACK
6
CONTINUOUS
10
4.4307420472440944
20
-2.095803464566929
11
4.4396296062992127
21
-2.1046910236220473
0
LINE
8
BLACK
6
CONTINUOUS
10
4.4396296062992127
20
-2.1046910236220473
11
4.4475394488188975
21
-2.1144588582677164
0
LINE
8
BLACK
6
CONTINUOUS
10
4.4475394488188975
20
-2.1144588582677164
11
4.4543849212598428
21
-2.125
0
LINE
8
BLACK
6
CONTINUOUS
10
4.4543849212598428
20
-2.125
11
4.4600911023622043
21
-2.1361989370078738
0
LINE
8
BLACK
6
CONTINUOUS
10
4.4600911023622043
20
-2.1361989370078738
11
4.4645953543307089
21
-2.147932992125984
0
LINE
8
BLACK
6
CONTINUOUS
10
4.4645953543307089
20
-2.147932992125984
11
4.4678484251968502
21
-2.1600735826771653
0
LINE
8
BLACK
6
CONTINUOUS
10
4.4678484251968502
20
-2.1600735826771653
11
4.4698146456692909
21
-2.172487716535433
0
LINE
8
BLACK
6
CONTINUOUS
10
4.4698146456692909
20
-2.172487716535433
11
4.4704724409448815
21
-2.1850393700787403
0
LINE
8
BLACK
6
CONTINUOUS
10
4.4704724409448815
20
-2.1850393700787403
11
4.4704724409448815
21
-4.1535433070866139
0
LINE
8
BLACK
6
CONTINUOUS
10
4.4704724409448815
20
-4.1535433070866139
11
4.4698146456692909
21
-4.1660949606299216
0
LINE
8
BLACK
6
CONTINUOUS
10
4.4698146456692909
20
-4.1660949606299216
11
4.4678484251968502
21
-4.1785090944881889
0
LINE
8
BLACK
6
CONTINUOUS
10
4.4678484251968502
20
-4.1785090944881889
11
4.4645953543307089
21
-4.1906496850393697
0
LINE
8
BLACK
6
CONTINUOUS
10
4.4645953543307089
20
-4.1906496850393697
11
4.4600911023622043
21
-4.2023837401574804
0
LINE
8
BLACK
6
CONTINUOUS
10
4.4600911023622043
20
-4.2023837401574804
11
4.4543849212598428
21
-4.2135826771653546
0
LINE
8
BLACK
6
CONTINUOUS
10
4.4543849212598428
20
-4.2135826771653546
11
4.4475394488188975
21
-4.2241238188976373
0
LINE
8
BLACK
6
CONTINUOUS
10
4.4475394488188975
20
-4.2241238188976373
11
4.4396296062992127
21
-4.2338916535433073
0
LINE
8
BLACK
6
CONTINUOUS
10
4.4396296062992127
20
-4.2338916535433073
11
4.4307420472440944
21
-4.2427792125984247
0
LINE
8
BLACK
6
CONTINUOUS
10
4.4307420472440944
20
-4.2427792125984247
11
4.4209742125984253
21
-4.2506890551181105
0
LINE
8
BLACK
6
CONTINUOUS
10
4.4209742125984253
20
-4.2506890551181105
11
4.4104330708661417
21
-4.2575345275590548
0
LINE
8
BLACK
6
CONTINUOUS
10
4.4104330708661417
20
-4.2575345275590548
11
4.3992341338582674
21
-4.2632407086614172
0
LINE
8
BLACK
6
CONTINUOUS
10
4.3992341338582674
20
-4.2632407086614172
11
4.3875000787401577
21
-4.2677449606299209
0
LINE
8
BLACK
6
CONTINUOUS
10
4.3875000787401577
20
-4.2677449606299209
11
4.3753594881889759
21
-4.2709980314960632
0
LINE
8
BLACK
6
CONTINUOUS
10
4.3753594881889759
20
-4.2709980314960632
11
4.3629453543307086
21
-4.2729642519685038
0
LINE
8
BLACK
6
CONTINUOUS
10
4.3629453543307086
20
-4.2729642519685038
11
4.3503937007874018
21
-4.2736220472440944
0
LINE
8
BLACK
6
CONTINUOUS
10
4.3503937007874018
20
-4.2736220472440944
11
2.0275590551181102
21
-4.2736220472440944
0
LINE
8
BLACK
6
CONTINUOUS
10
2.0275590551181102
20
-4.2736220472440944
11
2.015007401574803
21
-4.2729642519685038
0
LINE
8
BLACK
6
CONTINUOUS
10
2.015007401574803
20
-4.2729642519685038
11
2.0025932677165352
21
-4.2709980314960632
0
LINE
8
BLACK
6
CONTINUOUS
10
2.0025932677165352
20
-4.2709980314960632
11
1.9904526771653543
21
-4.2677449606299209
0
LINE
8
BLACK
6
CONTINUOUS
10
1.9904526771653543
20
-4.2677449606299209
11
1.9787186220472441
21
-4.2632407086614172
0
LINE
8
BLACK
6
CONTINUOUS
10
1.9787186220472441
20
-4.2632407086614172
11
1.9675196850393701
21
-4.2575345275590548
0
LINE
8
BLACK
6
CONTINUOUS
10
1.9675196850393701
20
-4.2575345275590548
11
1.9569785433070865
21
-4.2506890551181105
0
LINE
8
BLACK
6
CONTINUOUS
10
1.9569785433070865
20
-4.2506890551181105
11
1.9472107086614172
21
-4.2427792125984247
0
LINE
8
BLACK
6
CONTINUOUS
10
1.9472107086614172
20
-4.2427792125984247
11
1.9383231496062991
21
-4.2338916535433073
0
LINE
8
BLACK
6
CONTINUOUS
10
1.9383231496062991
20
-4.2338916535433073
11
1.9304133070866141
21
-4.2241238188976373
0
LINE
8
BLACK
6
CONTINUOUS
10
1.9304133070866141
20
-4.2241238188976373
11
1.9235678346456693
21
-4.2135826771653546
0
LINE
8
BLACK
6
CONTINUOUS
10
1.9235678346456693
20
-4.2135826771653546
11
1.9178616535433071
21
-4.2023837401574804
0
LINE
8
BLACK
6
CONTINUOUS
10
1.9178616535433071
20
-4.2023837401574804
11
1.9133574015748032
21
-4.1906496850393697
0
LINE
8
BLACK
6
CONTINUOUS
10
1.9133574015748032
20
-4.1906496850393697
11
1.9101043307086614
21
-4.1785090944881889
0
LINE
8
BLACK
6
CONTINUOUS
10
1.9101043307086614
20
-4.1785090944881889
11
1.9081381102362205
21
-4.1660949606299216
0
LINE
8
BLACK
6
CONTINUOUS
10
1.9081381102362205
20
-4.1660949606299216
11
1.9074803149606299
21
-4.1535433070866139
0
LINE
8
BLACK
6
CONTINUOUS
10
1.9074803149606299
20
-4.1535433070866139
11
1.9074803149606299
21
-3.5433070866141732
0
LINE
8
BLACK
6
CONTINUOUS
10
1.9074803149606299
20
-3.5433070866141732
11
1.9081083464566928
21
-3.5361287007874016
0
LINE
8
BLACK
6
CONTINUOUS
10
1.9081083464566928
20
-3.5361287007874016
11
1.9099733464566928
21
-3.5291684645669292
0
LINE
8
BLACK
6
CONTINUOUS
10
1.9099733464566928
20
-3.5291684645669292
11
1.913018622047244
21
-3.5226377952755903
0
LINE
8
BLACK
6
CONTINUOUS
10
1.913018622047244
20
-3.5226377952755903
11
1.9171516929133858
21
-3.5167351574803147
0
LINE
8
BLACK
6
CONTINUOUS
10
1.9171516929133858
20
-3.5167351574803147
11
1.9222469685039369
21
-3.5116398818897636
0
LINE
8
BLACK
6
CONTINUOUS
10
1.9222469685039369
20
-3.5116398818897636
11
1.9281496062992125
21
-3.5075068110236218
0
LINE
8
BLACK
6
CONTINUOUS
10
1.9281496062992125
20
-3.5075068110236218
11
1.9346802755905512
21
-3.5044615354330708
0
LINE
8
BLACK
6
CONTINUOUS
10
1.9346802755905512
20
-3.5044615354330708
11
1.9416405118110236
21
-3.5025965354330708
0
LINE
8
BLACK
6
CONTINUOUS
10
1.9416405118110236
20
-3.5025965354330708
11
1.9488188976377951
21
-3.5019685039370079
0
LINE
8
BLACK
6
CONTINUOUS
10
1.9488188976377951
20
-3.5019685039370079
11
2.0669291338582676
21
-3.5019685039370079
0
LINE
8
BLACK
6
CONTINUOUS
10
2.0669291338582676
20
-3.5019685039370079
11
2.070201338582677
21
-3.5019685039370079
0
LINE
8
BLACK
6
CONTINUOUS
10
2.070201338582677
20
-3.5019685039370079
11
2.0766463385826772
21
-3.5008320866141731
0
LINE
8
BLACK
6
CONTINUOUS
10
2.0766463385826772
20
-3.5008320866141731
11
2.0827961023622046
21
-3.4985937401574803
0
LINE
8
BLACK
6
CONTINUOUS
10
2.0827961023622046
20
-3.4985937401574803
11
2.0884637401574802
21
-3.4953215354330709
0
LINE
8
BLACK
6
CONTINUOUS
10
2.0884637401574802
20
-3.4953215354330709
11
2.0934770866141732
21
-3.4911148818897635
0
LINE
8
BLACK
6
CONTINUOUS
10
2.0934770866141732
20
-3.4911148818897635
11
2.0976837401574802
21
-3.4861015354330709
0
LINE
8
BLACK
6
CONTINUOUS
10
2.0976837401574802
20
-3.4861015354330709
11
2.1009559448818895
21
-3.4804338976377953
0
LINE
8
BLACK
6
CONTINUOUS
10
2.1009559448818895
20
-3.4804338976377953
11
2.1031942913385828
21
-3.4742841338582675
0
LINE
8
BLACK
6
CONTINUOUS
10
2.1031942913385828
20
-3.4742841338582675
11
2.1043307086614171
21
-3.4678391338582677
0
LINE
8
BLACK
6
CONTINUOUS
10
2.1043307086614171
20
-3.4678391338582677
11
2.1043307086614171
21
-3.4645669291338583
0
LINE
8
BLACK
6
CONTINUOUS
10
2.1043307086614171
20
-3.4645669291338583
11
2.1043307086614171
21
-2.8740157480314958
0
LINE
8
BLACK
6
CONTINUOUS
10
2.1043307086614171
20
-2.8740157480314958
11
2.1043307086614171
21
-2.8707435433070865
0
LINE
8
BLACK
6
CONTINUOUS
10
2.1043307086614171
20
-2.8707435433070865
11
2.1031942913385828
21
-2.8642985433070867
0
LINE
8
BLACK
6
CONTINUOUS
10
2.1031942913385828
20
-2.8642985433070867
11
2.1009559448818895
21
-2.8581487795275589
0
LINE
8
BLACK
6
CONTINUOUS
10
2.1009559448818895
20
-2.8581487795275589
11
2.0976837401574802
21
-2.8524811417322833
0
LINE
8
BLACK
6
CONTINUOUS
10
2.0976837401574802
20
-2.8524811417322833
11
2.0934770866141732
21
-2.8474677952755907
0
LINE
8
BLACK
6
CONTINUOUS
10
2.0934770866141732
20
-2.8474677952755907
11
2.0884637401574802
21
-2.8432611417322833
0
LINE
8
BLACK
6
CONTINUOUS
10
2.0884637401574802
20
-2.8432611417322833
11
2.0827961023622046
21
-2.8399889370078739
0
LINE
8
BLACK
6
CONTINUOUS
10
2.0827961023622046
20
-2.8399889370078739
11
2.0766463385826772
21
-2.8377505905511811
0
LINE
8
BLACK
6
CONTINUOUS
10
2.0766463385826772
20
-2.8377505905511811
11
2.070201338582677
21
-2.8366141732283463
0
LINE
8
BLACK
6
CONTINUOUS
10
2.070201338582677
20
-2.8366141732283463
11
2.0669291338582676
21
-2.8366141732283463
0
LINE
8
BLACK
6
CONTINUOUS
10
2.0669291338582676
20
-2.8366141732283463
11
1.9488188976377951
21
-2.8366141732283463
0
LINE
8
BLACK
6
CONTINUOUS
10
1.9488188976377951
20
-2.8366141732283463
11
1.9416405118110236
21
-2.8359861417322834
0
LINE
8
BLACK
6
CONTINUOUS
10
1.9416405118110236
20
-2.8359861417322834
11
1.9346802755905512
21
-2.8341211417322834
0
LINE
8
BLACK
6
CONTINUOUS
10
1.9346802755905512
20
-2.8341211417322834
11
1.9281496062992125
21
-2.8310758661417323
0
LINE
8
BLACK
6
CONTINUOUS
10
1.9281496062992125
20
-2.8310758661417323
11
1.9222469685039369
21
-2.8269427952755906
0
LINE
8
BLACK
6
CONTINUOUS
10
1.9222469685039369
20
-2.8269427952755906
11
1.9171516929133858
21
-2.8218475196850394
0
LINE
8
BLACK
6
CONTINUOUS
10
1.9171516929133858
20
-2.8218475196850394
11
1.913018622047244
21
-2.8159448818897639
0
LINE
8
BLACK
6
CONTINUOUS
10
1.913018622047244
20
-2.8159448818897639
11
1.9099733464566928
21
-2.8094142125984249
0
LINE
8
BLACK
6
CONTINUOUS
10
1.9099733464566928
20
-2.8094142125984249
11
1.9081083464566928
21
-2.8024539763779526
0
LINE
8
BLACK
6
CONTINUOUS
10
1.9081083464566928
20
-2.8024539763779526
11
1.9074803149606299
21
-2.795275590551181
0
LINE
8
BLACK
6
CONTINUOUS
10
1.9074803149606299
20
-2.795275590551181
11
1.9074803149606299
21
-2.1850393700787403
0
LINE
8
BLACK
6
CONTINUOUS
10
1.9074803149606299
20
-2.1850393700787403
11
1.9081381102362205
21
-2.172487716535433
0
LINE
8
BLACK
6
CONTINUOUS
10
1.9081381102362205
20
-2.172487716535433
11
1.9101043307086614
21
-2.1600735826771653
0
LINE
8
BLACK
6
CONTINUOUS
10
1.9101043307086614
20
-2.1600735826771653
11
1.9133574015748032
21
-2.147932992125984
0
LINE
8
BLACK
6
CONTINUOUS
10
1.9133574015748032
20
-2.147932992125984
11
1.9178616535433071
21
-2.1361989370078738
0
LINE
8
BLACK
6
CONTINUOUS
10
1.9178616535433071
20
-2.1361989370078738
11
1.9235678346456693
21
-2.125
0
LINE
8
BLACK
6
CONTINUOUS
10
1.9235678346456693
20
-2.125
11
1.9304133070866141
21
-2.1144588582677164
0
LINE
8
BLACK
6
CONTINUOUS
10
1.9304133070866141
20
-2.1144588582677164
11
1.9383231496062991
21
-2.1046910236220473
0
LINE
8
BLACK
6
CONTINUOUS
10
1.9383231496062991
20
-2.1046910236220473
11
1.9472107086614172
21
-2.095803464566929
0
LINE
8
BLACK
6
CONTINUOUS
10
1.9472107086614172
20
-2.095803464566929
11
1.9569785433070865
21
-2.0878936220472442
0
LINE
8
BLACK
6
CONTINUOUS
10
1.9569785433070865
20
-2.0878936220472442
11
1.9675196850393701
21
-2.0810481496062994
0
LINE
8
BLACK
6
CONTINUOUS
10
1.9675196850393701
20
-2.0810481496062994
11
1.9787186220472441
21
-2.0753419685039369
0
LINE
8
BLACK
6
CONTINUOUS
10
1.9787186220472441
20
-2.0753419685039369
11
1.9904526771653543
21
-2.0708377165354328
0
LINE
8
BLACK
6
CONTINUOUS
10
1.9904526771653543
20
-2.0708377165354328
11
2.0025932677165352
21
-2.0675846456692915
0
LINE
8
BLACK
6
CONTINUOUS
10
2.0025932677165352
20
-2.0675846456692915
11
2.015007401574803
21
-2.0656184251968503
0
LINE
8
BLACK
6
CONTINUOUS
10
2.015007401574803
20
-2.0656184251968503
11
2.0275590551181102
21
-2.0649606299212597
0
LINE
8
BLACK
6
CONTINUOUS
10
2.0275590551181102
20
-2.0649606299212597
11
4.3503937007874018
21
-2.0649606299212597
0
LINE
8
BLACK
6
CONTINUOUS
10
2.0275590551181102
20
-2.0688976377952755
11
2.0210366929133858
21
-2.0688976377952755
0
LINE
8
BLACK
6
CONTINUOUS
10
2.0210366929133858
20
-2.0688976377952755
11
2.008073937007874
21
-2.0703581889763778
0
LINE
8
BLACK
6
CONTINUOUS
10
2.008073937007874
20
-2.0703581889763778
11
1.9953562598425196
21
-2.0732609448818895
0
LINE
8
BLACK
6
CONTINUOUS
10
1.9953562598425196
20
-2.0732609448818895
11
1.9830435039370078
21
-2.0775693307086613
0
LINE
8
BLACK
6
CONTINUOUS
10
1.9830435039370078
20
-2.0775693307086613
11
1.9712905905511811
21
-2.0832292519685041
0
LINE
8
BLACK
6
CONTINUOUS
10
1.9712905905511811
20
-2.0832292519685041
11
1.9602452755905511
21
-2.0901694881889763
0
LINE
8
BLACK
6
CONTINUOUS
10
1.9602452755905511
20
-2.0901694881889763
11
1.9500464566929134
21
-2.0983027559055119
0
LINE
8
BLACK
6
CONTINUOUS
10
1.9500464566929134
20
-2.0983027559055119
11
1.9408224409448818
21
-2.1075267716535433
0
LINE
8
BLACK
6
CONTINUOUS
10
1.9408224409448818
20
-2.1075267716535433
11
1.9326891732283464
21
-2.1177255905511809
0
LINE
8
BLACK
6
CONTINUOUS
10
1.9326891732283464
20
-2.1177255905511809
11
1.925748937007874
21
-2.1287709055118111
0
LINE
8
BLACK
6
CONTINUOUS
10
1.925748937007874
20
-2.1287709055118111
11
1.9200890157480315
21
-2.1405238188976377
0
LINE
8
BLACK
6
CONTINUOUS
10
1.9200890157480315
20
-2.1405238188976377
11
1.9157806299212599
21
-2.1528365748031497
0
LINE
8
BLACK
6
CONTINUOUS
10
1.9157806299212599
20
-2.1528365748031497
11
1.9128778740157479
21
-2.165554251968504
0
LINE
8
BLACK
6
CONTINUOUS
10
1.9128778740157479
20
-2.165554251968504
11
1.9114173228346456
21
-2.1785170078740155
0
LINE
8
BLACK
6
CONTINUOUS
10
1.9114173228346456
20
-2.1785170078740155
11
1.9114173228346456
21
-2.1850393700787403
0
LINE
8
BLACK
6
CONTINUOUS
10
1.9114173228346456
20
-2.1850393700787403
11
1.9114173228346456
21
-2.795275590551181
0
LINE
8
BLACK
6
CONTINUOUS
10
1.9114173228346456
20
-2.795275590551181
11
1.9114173228346456
21
-2.7985477952755904
0
LINE
8
BLACK
6
CONTINUOUS
10
1.9114173228346456
20
-2.7985477952755904
11
1.9125537401574804
21
-2.8049927952755906
0
LINE
8
BLACK
6
CONTINUOUS
10
1.9125537401574804
20
-2.8049927952755906
11
1.9147920866141732
21
-2.811142559055118
0
LINE
8
BLACK
6
CONTINUOUS
10
1.9147920866141732
20
-2.811142559055118
11
1.9180642913385826
21
-2.8168101968503936
0
LINE
8
BLACK
6
CONTINUOUS
10
1.9180642913385826
20
-2.8168101968503936
11
1.9222709448818898
21
-2.8218235433070866
0
LINE
8
BLACK
6
CONTINUOUS
10
1.9222709448818898
20
-2.8218235433070866
11
1.9272842913385826
21
-2.8260301968503936
0
LINE
8
BLACK
6
CONTINUOUS
10
1.9272842913385826
20
-2.8260301968503936
11
1.9329519291338582
21
-2.8293024015748029
0
LINE
8
BLACK
6
CONTINUOUS
10
1.9329519291338582
20
-2.8293024015748029
11
1.9391016929133857
21
-2.8315407480314958
0
LINE
8
BLACK
6
CONTINUOUS
10
1.9391016929133857
20
-2.8315407480314958
11
1.9455466929133858
21
-2.8326771653543306
0
LINE
8
BLACK
6
CONTINUOUS
10
1.9455466929133858
20
-2.8326771653543306
11
1.9488188976377951
21
-2.8326771653543306
0
LINE
8
BLACK
6
CONTINUOUS
10
1.9488188976377951
20
-2.8326771653543306
11
2.0669291338582676
21
-2.8326771653543306
0
LINE
8
BLACK
6
CONTINUOUS
10
2.0669291338582676
20
-2.8326771653543306
11
2.0741075196850391
21
-2.8333051968503935
0
LINE
8
BLACK
6
CONTINUOUS
10
2.0741075196850391
20
-2.8333051968503935
11
2.081067755905512
21
-2.8351701968503935
0
LINE
8
BLACK
6
CONTINUOUS
10
2.081067755905512
20
-2.8351701968503935
11
2.0875984251968505
21
-2.838215472440945
0
LINE
8
BLACK
6
CONTINUOUS
10
2.0875984251968505
20
-2.838215472440945
11
2.093501062992126
21
-2.8423485433070868
0
LINE
8
BLACK
6
CONTINUOUS
10
2.093501062992126
20
-2.8423485433070868
11
2.0985963385826771
21
-2.8474438188976379
0
LINE
8
BLACK
6
CONTINUOUS
10
2.0985963385826771
20
-2.8474438188976379
11
2.1027294094488189
21
-2.8533464566929134
0
LINE
8
BLACK
6
CONTINUOUS
10
2.1027294094488189
20
-2.8533464566929134
11
2.1057746850393699
21
-2.8598771259842519
0
LINE
8
BLACK
6
CONTINUOUS
10
2.1057746850393699
20
-2.8598771259842519
11
2.1076396850393699
21
-2.8668373622047243
0
LINE
8
BLACK
6
CONTINUOUS
10
2.1076396850393699
20
-2.8668373622047243
11
2.1082677165354329
21
-2.8740157480314958
0
LINE
8
BLACK
6
CONTINUOUS
10
2.1082677165354329
20
-2.8740157480314958
11
2.1082677165354329
21
-3.4645669291338583
0
LINE
8
BLACK
6
CONTINUOUS
10
2.1082677165354329
20
-3.4645669291338583
11
2.1076396850393699
21
-3.4717453149606299
0
LINE
8
BLACK
6
CONTINUOUS
10
2.1076396850393699
20
-3.4717453149606299
11
2.1057746850393699
21
-3.4787055511811023
0
LINE
8
BLACK
6
CONTINUOUS
10
2.1057746850393699
20
-3.4787055511811023
11
2.1027294094488189
21
-3.4852362204724407
0
LINE
8
BLACK
6
CONTINUOUS
10
2.1027294094488189
20
-3.4852362204724407
11
2.0985963385826771
21
-3.4911388582677163
0
LINE
8
BLACK
6
CONTINUOUS
10
2.0985963385826771
20
-3.4911388582677163
11
2.093501062992126
21
-3.4962341338582674
0
LINE
8
BLACK
6
CONTINUOUS
10
2.093501062992126
20
-3.4962341338582674
11
2.0875984251968505
21
-3.5003672047244092
0
LINE
8
BLACK
6
CONTINUOUS
10
2.0875984251968505
20
-3.5003672047244092
11
2.081067755905512
21
-3.5034124803149607
0
LINE
8
BLACK
6
CONTINUOUS
10
2.081067755905512
20
-3.5034124803149607
11
2.0741075196850391
21
-3.5052774803149607
0
LINE
8
BLACK
6
CONTINUOUS
10
2.0741075196850391
20
-3.5052774803149607
11
2.0669291338582676
21
-3.5059055118110236
0
LINE
8
BLACK
6
CONTINUOUS
10
2.0669291338582676
20
-3.5059055118110236
11
1.9488188976377951
21
-3.5059055118110236
0
LINE
8
BLACK
6
CONTINUOUS
10
1.9488188976377951
20
-3.5059055118110236
11
1.9455466929133858
21
-3.5059055118110236
0
LINE
8
BLACK
6
CONTINUOUS
10
1.9455466929133858
20
-3.5059055118110236
11
1.9391016929133857
21
-3.5070419291338584
0
LINE
8
BLACK
6
CONTINUOUS
10
1.9391016929133857
20
-3.5070419291338584
11
1.9329519291338582
21
-3.5092802755905512
0
LINE
8
BLACK
6
CONTINUOUS
10
1.9329519291338582
20
-3.5092802755905512
11
1.9272842913385826
21
-3.5125524803149606
0
LINE
8
BLACK
6
CONTINUOUS
10
1.9272842913385826
20
-3.5125524803149606
11
1.9222709448818898
21
-3.5167591338582675
0
LINE
8
BLACK
6
CONTINUOUS
10
1.9222709448818898
20
-3.5167591338582675
11
1.9180642913385826
21
-3.5217724803149606
0
LINE
8
BLACK
6
CONTINUOUS
10
1.9180642913385826
20
-3.5217724803149606
11
1.9147920866141732
21
-3.5274401181102362
0
LINE
8
BLACK
6
CONTINUOUS
10
1.9147920866141732
20
-3.5274401181102362
11
1.9125537401574804
21
-3.5335898818897635
0
LINE
8
BLACK
6
CONTINUOUS
10
1.9125537401574804
20
-3.5335898818897635
11
1.9114173228346456
21
-3.5400348818897638
0
LINE
8
BLACK
6
CONTINUOUS
10
1.9114173228346456
20
-3.5400348818897638
11
1.9114173228346456
21
-3.5433070866141732
0
LINE
8
BLACK
6
CONTINUOUS
10
1.9114173228346456
20
-3.5433070866141732
11
1.9114173228346456
21
-4.1535433070866139
0
LINE
8
BLACK
6
CONTINUOUS
10
1.9114173228346456
20
-4.1535433070866139
11
1.9114173228346456
21
-4.1600656692913383
0
LINE
8
BLACK
6
CONTINUOUS
10
1.9114173228346456
20
-4.1600656692913383
11
1.9128778740157479
21
-4.1730284251968506
0
LINE
8
BLACK
6
CONTINUOUS
10
1.9128778740157479
20
-4.1730284251968506
11
1.9157806299212599
21
-4.1857461023622049
0
LINE
8
BLACK
6
CONTINUOUS
10
1.9157806299212599
20
-4.1857461023622049
11
1.9200890157480315
21
-4.1980588582677161
0
LINE
8
BLACK
6
CONTINUOUS
10
1.9200890157480315
20
-4.1980588582677161
11
1.925748937007874
21
-4.209811771653543
0
LINE
8
BLACK
6
CONTINUOUS
10
1.925748937007874
20
-4.209811771653543
11
1.9326891732283464
21
-4.2208570866141732
0
LINE
8
BLACK
6
CONTINUOUS
10
1.9326891732283464
20
-4.2208570866141732
11
1.9408224409448818
21
-4.2310559055118109
0
LINE
8
BLACK
6
CONTINUOUS
10
1.9408224409448818
20
-4.2310559055118109
11
1.9500464566929134
21
-4.2402799212598428
0
LINE
8
BLACK
6
CONTINUOUS
10
1.9500464566929134
20
-4.2402799212598428
11
1.9602452755905511
21
-4.2484131889763779
0
LINE
8
BLACK
6
CONTINUOUS
10
1.9602452755905511
20
-4.2484131889763779
11
1.9712905905511811
21
-4.2553534251968506
0
LINE
8
BLACK
6
CONTINUOUS
10
1.9712905905511811
20
-4.2553534251968506
11
1.9830435039370078
21
-4.2610133464566928
0
LINE
8
BLACK
6
CONTINUOUS
10
1.9830435039370078
20
-4.2610133464566928
11
1.9953562598425196
21
-4.2653217322834642
0
LINE
8
BLACK
6
CONTINUOUS
10
1.9953562598425196
20
-4.2653217322834642
11
2.008073937007874
21
-4.2682244881889764
0
LINE
8
BLACK
6
CONTINUOUS
10
2.008073937007874
20
-4.2682244881889764
11
2.0210366929133858
21
-4.2696850393700787
0
LINE
8
BLACK
6
CONTINUOUS
10
2.0210366929133858
20
-4.2696850393700787
11
2.0275590551181102
21
-4.2696850393700787
0
LINE
8
BLACK
6
CONTINUOUS
10
2.0275590551181102
20
-4.2696850393700787
11
4.3503937007874018
21
-4.2696850393700787
0
LINE
8
BLACK
6
CONTINUOUS
10
4.3503937007874018
20
-4.2696850393700787
11
4.3569160629921262
21
-4.2696850393700787
0
LINE
8
BLACK
6
CONTINUOUS
10
4.3569160629921262
20
-4.2696850393700787
11
4.3698788188976376
21
-4.2682244881889764
0
LINE
8
BLACK
6
CONTINUOUS
10
4.3698788188976376
20
-4.2682244881889764
11
4.382596496062992
21
-4.2653217322834642
0
LINE
8
BLACK
6
CONTINUOUS
10
4.382596496062992
20
-4.2653217322834642
11
4.394909251968504
21
-4.2610133464566928
0
LINE
8
BLACK
6
CONTINUOUS
10
4.394909251968504
20
-4.2610133464566928
11
4.406662165354331
21
-4.2553534251968506
0
LINE
8
BLACK
6
CONTINUOUS
10
4.406662165354331
20
-4.2553534251968506
11
4.4177074803149603
21
-4.2484131889763779
0
LINE
8
BLACK
6
CONTINUOUS
10
4.4177074803149603
20
-4.2484131889763779
11
4.4279062992125979
21
-4.2402799212598428
0
LINE
8
BLACK
6
CONTINUOUS
10
4.4279062992125979
20
-4.2402799212598428
11
4.4371303149606298
21
-4.2310559055118109
0
LINE
8
BLACK
6
CONTINUOUS
10
4.4371303149606298
20
-4.2310559055118109
11
4.4452635826771649
21
-4.2208570866141732
0
LINE
8
BLACK
6
CONTINUOUS
10
4.4452635826771649
20
-4.2208570866141732
11
4.4522038188976376
21
-4.209811771653543
0
LINE
8
BLACK
6
CONTINUOUS
10
4.4522038188976376
20
-4.209811771653543
11
4.4578637401574799
21
-4.1980588582677161
0
LINE
8
BLACK
6
CONTINUOUS
10
4.4578637401574799
20
-4.1980588582677161
11
4.4621721259842522
21
-4.1857461023622049
0
LINE
8
BLACK
6
CONTINUOUS
10
4.4621721259842522
20
-4.1857461023622049
11
4.4650748818897634
21
-4.1730284251968506
0
LINE
8
BLACK
6
CONTINUOUS
10
4.4650748818897634
20
-4.1730284251968506
11
4.4665354330708658
21
-4.1600656692913383
0
LINE
8
BLACK
6
CONTINUOUS
10
4.4665354330708658
20
-4.1600656692913383
11
4.4665354330708658
21
-4.1535433070866139
0
LINE
8
BLACK
6
CONTINUOUS
10
4.4665354330708658
20
-4.1535433070866139
11
4.4665354330708658
21
-2.1850393700787403
0
LINE
8
BLACK
6
CONTINUOUS
10
4.4665354330708658
20
-2.1850393700787403
11
4.4665354330708658
21
-2.1785170078740155
0
LINE
8
BLACK
6
CONTINUOUS
10
4.4665354330708658
20
-2.1785170078740155
11
4.4650748818897634
21
-2.165554251968504
0
LINE
8
BLACK
6
CONTINUOUS
10
4.4650748818897634
20
-2.165554251968504
11
4.4621721259842522
21
-2.1528365748031497
0
LINE
8
BLACK
6
CONTINUOUS
10
4.4621721259842522
20
-2.1528365748031497
11
4.4578637401574799
21
-2.1405238188976377
0
LINE
8
BLACK
6
CONTINUOUS
10
4.4578637401574799
20
-2.1405238188976377
11
4.4522038188976376
21
-2.1287709055118111
0
LINE
8
BLACK
6
CONTINUOUS
10
4.4522038188976376
20
-2.1287709055118111
11
4.4452635826771649
21
-2.1177255905511809
0
LINE
8
BLACK
6
CONTINUOUS
10
4.4452635826771649
20
-2.1177255905511809
11
4.4371303149606298
21
-2.1075267716535433
0
LINE
8
BLACK
6
CONTINUOUS
10
4.4371303149606298
20
-2.1075267716535433
11
4.4279062992125979
21
-2.0983027559055119
0
LINE
8
BLACK
6
CONTINUOUS
10
4.4279062992125979
20
-2.0983027559055119
11
4.4177074803149603
21
-2.0901694881889763
0
LINE
8
BLACK
6
CONTINUOUS
10
4.4177074803149603
20
-2.0901694881889763
11
4.406662165354331
21
-2.0832292519685041
0
LINE
8
BLACK
6
CONTINUOUS
10
4.406662165354331
20
-2.0832292519685041
11
4.394909251968504
21
-2.0775693307086613
0
LINE
8
BLACK
6
CONTINUOUS
10
4.394909251968504
20
-2.0775693307086613
11
4.382596496062992
21
-2.0732609448818895
0
LINE
8
BLACK
6
CONTINUOUS
10
4.382596496062992
20
-2.0732609448818895
11
4.3698788188976376
21
-2.0703581889763778
0
LINE
8
BLACK
6
CONTINUOUS
10
4.3698788188976376
20
-2.0703581889763778
11
4.3569160629921262
21
-2.0688976377952755
0
LINE
8
BLACK
6
CONTINUOUS
10
4.3569160629921262
20
-2.0688976377952755
11
4.3503937007874018
21
-2.0688976377952755
0
LINE
8
BLACK
6
CONTINUOUS
10
4.3503937007874018
20
-2.0688976377952755
11
2.0275590551181102
21
-2.0688976377952755
  0
ENDSEC
  0
EOF
