  0
SECTION
  2
HEADER
  9
$ANGBASE
  50
0.0
  9
$ANGDIR
  70
1
  9
$MEASUREMENT
  70
0
  0
ENDSEC
  0
SECTION
  2
TABLES
  0
TABLE
  2
LTYPE
  70
4
  0
LTYPE
  5
40F
  2
CONTINUOUS
  70
0
  3
Solid line
  72
65
  73
0
  40
0.0
  0
LTYPE
  5
410
  2
DASHDOT
 70
0
  3
Dash Dot ____ _ ____ _
 72
65
 73
4
 40
2.0
 49
1.25
 49
-0.25
 49
0.25
 49
-0.25
  0
LTYPE
  5
411
  2
DASHED
 70
0
  3
Dashed __ __ __ __ __
 72
65
 73
2
 40
0.75
 49
0.5
 49
-0.25
  0
LTYPE
  5
43B
  2
DOTTED
 70
0
  3
Dotted .  .  .  .
 72
65
 73
2
 40
0.2
 49
0.0
 49
-0.2
  0
ENDTAB
  0
TABLE
  2
STYLE
  70
4
  0
STYLE
  2
KICAD
  70
0
  40
0
  41
1
  42
1
  50
0
  71
0
  3
isocp.shx
  0
STYLE
  2
KICADB
  70
0
  40
0
  41
1
  42
1
  50
0
  71
0
  3
isocp.shx
  0
STYLE
  2
KICADI
  70
0
  40
0
  41
1
  42
1
  50
15
  71
0
  3
isocp.shx
  0
STYLE
  2
KICADBI
  70
0
  40
0
  41
1
  42
1
  50
15
  71
0
  3
isocp.shx
  0
ENDTAB
  0
TABLE
  2
LAYER
  70
1
  0
LAYER
  2
BLACK
  70
0
  62
7
  6
CONTINUOUS
  0
ENDTAB
  0
ENDSEC
  0
SECTION
  2
ENTITIES
0
LINE
8
BLACK
6
CONTINUOUS
10
4.3467541732283461
20
-3.793478031496063
11
4.3468894094488189
21
-3.7935914960629922
0
LINE
8
BLACK
6
CONTINUOUS
10
4.3468894094488189
20
-3.7935914960629922
11
4.3470647637795272
21
-3.7936116929133856
0
LINE
8
BLACK
6
CONTINUOUS
10
4.3470647637795272
20
-3.7936116929133856
11
4.3508142913385823
21
-3.7954864566929132
0
LINE
8
BLACK
6
CONTINUOUS
10
4.3508142913385823
20
-3.7954864566929132
11
4.3515233464566929
21
-3.7960123622047242
0
LINE
8
BLACK
6
CONTINUOUS
10
4.3515233464566929
20
-3.7960123622047242
11
4.3515816929133857
21
-3.7960395669291338
0
LINE
8
BLACK
6
CONTINUOUS
10
4.3515816929133857
20
-3.7960395669291338
11
4.3534564566929133
21
-3.7979143307086614
0
LINE
8
BLACK
6
CONTINUOUS
10
4.3534564566929133
20
-3.7979143307086614
11
4.3540446456692914
21
-3.7987543700787403
0
LINE
8
BLACK
6
CONTINUOUS
10
4.3540446456692914
20
-3.7987543700787403
11
4.3542206692913386
21
-3.8007664566929131
0
LINE
8
BLACK
6
CONTINUOUS
10
4.3542206692913386
20
-3.8007664566929131
11
4.3530621653543307
21
-3.8024210236220473
0
LINE
8
BLACK
6
CONTINUOUS
10
4.3530621653543307
20
-3.8024210236220473
11
4.3511111811023619
21
-3.8029437401574802
0
LINE
8
BLACK
6
CONTINUOUS
10
4.3511111811023619
20
-3.8029437401574802
11
4.3492806299212594
21
-3.8020901574803148
0
LINE
8
BLACK
6
CONTINUOUS
10
4.3492806299212594
20
-3.8020901574803148
11
4.3477446850393697
21
-3.8005542125984251
0
LINE
8
BLACK
6
CONTINUOUS
10
4.3477446850393697
20
-3.8005542125984251
11
4.3450472047244091
21
-3.7992054724409448
0
LINE
8
BLACK
6
CONTINUOUS
10
4.3450472047244091
20
-3.7992054724409448
11
4.3370674803149605
21
-3.7992054724409448
0
LINE
8
BLACK
6
CONTINUOUS
10
4.3370674803149605
20
-3.7992054724409448
11
4.3343699999999998
21
-3.8005542125984251
0
LINE
8
BLACK
6
CONTINUOUS
10
4.3343699999999998
20
-3.8005542125984251
11
4.333172874015748
21
-3.8017513385826769
0
LINE
8
BLACK
6
CONTINUOUS
10
4.333172874015748
20
-3.8017513385826769
11
4.3318241338582677
21
-3.8044488188976375
0
LINE
8
BLACK
6
CONTINUOUS
10
4.3318241338582677
20
-3.8044488188976375
11
4.3318241338582677
21
-3.8070221259842518
0
LINE
8
BLACK
6
CONTINUOUS
10
4.3318241338582677
20
-3.8070221259842518
11
4.3333269291338583
21
-3.8115305511811024
0
LINE
8
BLACK
6
CONTINUOUS
10
4.3333269291338583
20
-3.8115305511811024
11
4.3553312204724408
21
-3.8335348818897637
0
LINE
8
BLACK
6
CONTINUOUS
10
4.3553312204724408
20
-3.8335348818897637
11
4.3557009842519685
21
-3.8340629133858268
0
LINE
8
BLACK
6
CONTINUOUS
10
4.3557009842519685
20
-3.8340629133858268
11
4.3558004724409445
21
-3.8341464173228346
0
LINE
8
BLACK
6
CONTINUOUS
10
4.3558004724409445
20
-3.8341464173228346
11
4.3558142519685035
21
-3.8342247244094487
0
LINE
8
BLACK
6
CONTINUOUS
10
4.3558142519685035
20
-3.8342247244094487
11
4.3559194488188977
21
-3.8343749212598426
0
LINE
8
BLACK
6
CONTINUOUS
10
4.3559194488188977
20
-3.8343749212598426
11
4.3559968897637793
21
-3.8352604724409449
0
LINE
8
BLACK
6
CONTINUOUS
10
4.3559968897637793
20
-3.8352604724409449
11
4.3561512204724409
21
-3.8361355511811022
0
LINE
8
BLACK
6
CONTINUOUS
10
4.3561512204724409
20
-3.8361355511811022
11
4.3560837007874014
21
-3.8362524803149607
0
LINE
8
BLACK
6
CONTINUOUS
10
4.3560837007874014
20
-3.8362524803149607
11
4.3560954724409449
21
-3.8363870472440942
0
LINE
8
BLACK
6
CONTINUOUS
10
4.3560954724409449
20
-3.8363870472440942
11
4.3555855905511809
21
-3.8371151968503936
0
LINE
8
BLACK
6
CONTINUOUS
10
4.3555855905511809
20
-3.8371151968503936
11
4.3551412992125984
21
-3.8378847244094487
0
LINE
8
BLACK
6
CONTINUOUS
10
4.3551412992125984
20
-3.8378847244094487
11
4.3550144094488186
21
-3.8379308661417322
0
LINE
8
BLACK
6
CONTINUOUS
10
4.3550144094488186
20
-3.8379308661417322
11
4.3549369291338582
21
-3.8380415748031496
0
LINE
8
BLACK
6
CONTINUOUS
10
4.3549369291338582
20
-3.8380415748031496
11
4.3540783858267718
21
-3.8382715748031497
0
LINE
8
BLACK
6
CONTINUOUS
10
4.3540783858267718
20
-3.8382715748031497
11
4.3532433070866139
21
-3.8385755511811022
0
LINE
8
BLACK
6
CONTINUOUS
10
4.3532433070866139
20
-3.8385755511811022
11
4.3288713779527557
21
-3.8385755511811022
0
LINE
8
BLACK
6
CONTINUOUS
10
4.3288713779527557
20
-3.8385755511811022
11
4.3278614566929132
21
-3.8383974803149608
0
LINE
8
BLACK
6
CONTINUOUS
10
4.3278614566929132
20
-3.8383974803149608
11
4.3263142125984251
21
-3.8370991732283461
0
LINE
8
BLACK
6
CONTINUOUS
10
4.3263142125984251
20
-3.8370991732283461
11
4.3259634645669287
21
-3.8351100393700785
0
LINE
8
BLACK
6
CONTINUOUS
10
4.3259634645669287
20
-3.8351100393700785
11
4.3269733858267712
21
-3.833360866141732
0
LINE
8
BLACK
6
CONTINUOUS
10
4.3269733858267712
20
-3.833360866141732
11
4.3288713779527557
21
-3.8326700393700786
0
LINE
8
BLACK
6
CONTINUOUS
10
4.3288713779527557
20
-3.8326700393700786
11
4.3461147244094489
21
-3.8326700393700786
0
LINE
8
BLACK
6
CONTINUOUS
10
4.3461147244094489
20
-3.8326700393700786
11
4.3286582283464563
21
-3.8152135039370076
0
LINE
8
BLACK
6
CONTINUOUS
10
4.3286582283464563
20
-3.8152135039370076
11
4.3280700393700791
21
-3.8143734645669292
0
LINE
8
BLACK
6
CONTINUOUS
10
4.3280700393700791
20
-3.8143734645669292
11
4.3280546456692912
21
-3.8141975984251966
0
LINE
8
BLACK
6
CONTINUOUS
10
4.3280546456692912
20
-3.8141975984251966
11
4.3279449212598422
21
-3.8140593307086612
0
LINE
8
BLACK
6
CONTINUOUS
10
4.3279449212598422
20
-3.8140593307086612
11
4.3260701574803146
21
-3.8084350393700785
0
LINE
8
BLACK
6
CONTINUOUS
10
4.3260701574803146
20
-3.8084350393700785
11
4.3259406692913389
21
-3.8075618503937005
0
LINE
8
BLACK
6
CONTINUOUS
10
4.3259406692913389
20
-3.8075618503937005
11
4.3259186220472436
21
-3.8075012992125985
0
LINE
8
BLACK
6
CONTINUOUS
10
4.3259186220472436
20
-3.8075012992125985
11
4.3259186220472436
21
-3.8037517716535434
0
LINE
8
BLACK
6
CONTINUOUS
10
4.3259186220472436
20
-3.8037517716535434
11
4.3260966929133859
21
-3.8027418503937005
0
LINE
8
BLACK
6
CONTINUOUS
10
4.3260966929133859
20
-3.8027418503937005
11
4.3262101574803147
21
-3.8026065748031495
0
LINE
8
BLACK
6
CONTINUOUS
10
4.3262101574803147
20
-3.8026065748031495
11
4.3262303543307086
21
-3.8024312598425194
0
LINE
8
BLACK
6
CONTINUOUS
10
4.3262303543307086
20
-3.8024312598425194
11
4.3281051181102361
21
-3.7986817322834643
0
LINE
8
BLACK
6
CONTINUOUS
10
4.3281051181102361
20
-3.7986817322834643
11
4.3286310236220471
21
-3.7979726377952754
0
LINE
8
BLACK
6
CONTINUOUS
10
4.3286310236220471
20
-3.7979726377952754
11
4.3286582283464563
21
-3.7979143307086614
0
LINE
8
BLACK
6
CONTINUOUS
10
4.3286582283464563
20
-3.7979143307086614
11
4.3305329921259839
21
-3.7960395669291338
0
LINE
8
BLACK
6
CONTINUOUS
10
4.3305329921259839
20
-3.7960395669291338
11
4.331256062992126
21
-3.7955332677165354
0
LINE
8
BLACK
6
CONTINUOUS
10
4.331256062992126
20
-3.7955332677165354
11
4.3313003937007872
21
-3.7954864566929132
0
LINE
8
BLACK
6
CONTINUOUS
10
4.3313003937007872
20
-3.7954864566929132
11
4.3350499212598423
21
-3.7936116929133856
0
LINE
8
BLACK
6
CONTINUOUS
10
4.3350499212598423
20
-3.7936116929133856
11
4.3360328346456694
21
-3.7933193307086612
0
LINE
8
BLACK
6
CONTINUOUS
10
4.3360328346456694
20
-3.7933193307086612
11
4.3362045275590546
21
-3.7933603149606299
0
LINE
8
BLACK
6
CONTINUOUS
10
4.3362045275590546
20
-3.7933603149606299
11
4.3363704330708659
21
-3.7932999606299211
0
LINE
8
BLACK
6
CONTINUOUS
10
4.3363704330708659
20
-3.7932999606299211
11
4.3457442519685037
21
-3.7932999606299211
0
LINE
8
BLACK
6
CONTINUOUS
10
4.3457442519685037
20
-3.7932999606299211
11
4.3467541732283461
21
-3.793478031496063
0
LINE
8
BLACK
6
CONTINUOUS
10
4.3705033858267717
20
-3.7943547244094487
11
4.3711942125984251
21
-3.7962527165354332
0
LINE
8
BLACK
6
CONTINUOUS
10
4.3711942125984251
20
-3.7962527165354332
11
4.3711942125984251
21
-3.8238949999999998
0
LINE
8
BLACK
6
CONTINUOUS
10
4.3711942125984251
20
-3.8238949999999998
11
4.3726970078740157
21
-3.8284034251968504
0
LINE
8
BLACK
6
CONTINUOUS
10
4.3726970078740157
20
-3.8284034251968504
11
4.3754607874015745
21
-3.8311672440944879
0
LINE
8
BLACK
6
CONTINUOUS
10
4.3754607874015745
20
-3.8311672440944879
11
4.3799691732283463
21
-3.8326700393700786
0
LINE
8
BLACK
6
CONTINUOUS
10
4.3799691732283463
20
-3.8326700393700786
11
4.3832395669291335
21
-3.8326700393700786
0
LINE
8
BLACK
6
CONTINUOUS
10
4.3832395669291335
20
-3.8326700393700786
11
4.384249488188976
21
-3.8328481102362204
0
LINE
8
BLACK
6
CONTINUOUS
10
4.384249488188976
20
-3.8328481102362204
11
4.3857967322834641
21
-3.8341464173228346
0
LINE
8
BLACK
6
CONTINUOUS
10
4.3857967322834641
20
-3.8341464173228346
11
4.3861474803149605
21
-3.8361355511811022
0
LINE
8
BLACK
6
CONTINUOUS
10
4.3861474803149605
20
-3.8361355511811022
11
4.385137559055118
21
-3.8378847244094487
0
LINE
8
BLACK
6
CONTINUOUS
10
4.385137559055118
20
-3.8378847244094487
11
4.3832395669291335
21
-3.8385755511811022
0
LINE
8
BLACK
6
CONTINUOUS
10
4.3832395669291335
20
-3.8385755511811022
11
4.3794900393700784
21
-3.8385755511811022
0
LINE
8
BLACK
6
CONTINUOUS
10
4.3794900393700784
20
-3.8385755511811022
11
4.3786206299212598
21
-3.8384222440944882
0
LINE
8
BLACK
6
CONTINUOUS
10
4.3786206299212598
20
-3.8384222440944882
11
4.3785562598425196
21
-3.8384240157480316
0
LINE
8
BLACK
6
CONTINUOUS
10
4.3785562598425196
20
-3.8384240157480316
11
4.3729320078740157
21
-3.836549251968504
0
LINE
8
BLACK
6
CONTINUOUS
10
4.3729320078740157
20
-3.836549251968504
11
4.3720302362204722
21
-3.8360609448818899
0
LINE
8
BLACK
6
CONTINUOUS
10
4.3720302362204722
20
-3.8360609448818899
11
4.371937834645669
21
-3.8359105511811022
0
LINE
8
BLACK
6
CONTINUOUS
10
4.371937834645669
20
-3.8359105511811022
11
4.3717778346456688
21
-3.8358359448818895
0
LINE
8
BLACK
6
CONTINUOUS
10
4.3717778346456688
20
-3.8358359448818895
11
4.3680283070866137
21
-3.8320863779527556
0
LINE
8
BLACK
6
CONTINUOUS
10
4.3680283070866137
20
-3.8320863779527556
11
4.3674400787401577
21
-3.8312463385826772
0
LINE
8
BLACK
6
CONTINUOUS
10
4.3674400787401577
20
-3.8312463385826772
11
4.3674246850393699
21
-3.8310703937007875
0
LINE
8
BLACK
6
CONTINUOUS
10
4.3674246850393699
20
-3.8310703937007875
11
4.3673149999999996
21
-3.8309322047244092
0
LINE
8
BLACK
6
CONTINUOUS
10
4.3673149999999996
20
-3.8309322047244092
11
4.3654402362204721
21
-3.8253079133858265
0
LINE
8
BLACK
6
CONTINUOUS
10
4.3654402362204721
20
-3.8253079133858265
11
4.3653107480314963
21
-3.8244347244094485
0
LINE
8
BLACK
6
CONTINUOUS
10
4.3653107480314963
20
-3.8244347244094485
11
4.3652887007874011
21
-3.8243741732283465
0
LINE
8
BLACK
6
CONTINUOUS
10
4.3652887007874011
20
-3.8243741732283465
11
4.3652887007874011
21
-3.7962527165354332
0
LINE
8
BLACK
6
CONTINUOUS
10
4.3652887007874011
20
-3.7962527165354332
11
4.3654667716535434
21
-3.7952427952755903
0
LINE
8
BLACK
6
CONTINUOUS
10
4.3654667716535434
20
-3.7952427952755903
11
4.3667650787401575
21
-3.7936955511811021
0
LINE
8
BLACK
6
CONTINUOUS
10
4.3667650787401575
20
-3.7936955511811021
11
4.3687542125984251
21
-3.7933448031496062
0
LINE
8
BLACK
6
CONTINUOUS
10
4.3687542125984251
20
-3.7933448031496062
11
4.3705033858267717
21
-3.7943547244094487
0
LINE
8
BLACK
6
CONTINUOUS
10
2.722363464566929
20
-3.7466276377952754
11
2.7239107086614172
21
-3.7479259448818896
0
LINE
8
BLACK
6
CONTINUOUS
10
2.7239107086614172
20
-3.7479259448818896
11
2.7242614566929135
21
-3.7499150787401576
0
LINE
8
BLACK
6
CONTINUOUS
10
2.7242614566929135
20
-3.7499150787401576
11
2.7232515354330706
21
-3.7516642519685037
0
LINE
8
BLACK
6
CONTINUOUS
10
2.7232515354330706
20
-3.7516642519685037
11
2.7213535433070866
21
-3.7523550787401576
0
LINE
8
BLACK
6
CONTINUOUS
10
2.7213535433070866
20
-3.7523550787401576
11
2.7034887795275591
21
-3.7523550787401576
0
LINE
8
BLACK
6
CONTINUOUS
10
2.7034887795275591
20
-3.7523550787401576
11
2.7123271259842521
21
-3.7624560236220472
0
LINE
8
BLACK
6
CONTINUOUS
10
2.7123271259842521
20
-3.7624560236220472
11
2.7125570078740155
21
-3.762835866141732
0
LINE
8
BLACK
6
CONTINUOUS
10
2.7125570078740155
20
-3.762835866141732
11
2.7126621259842518
21
-3.76292405511811
0
LINE
8
BLACK
6
CONTINUOUS
10
2.7126621259842518
20
-3.76292405511811
11
2.7126833464566928
21
-3.7630446062992124
0
LINE
8
BLACK
6
CONTINUOUS
10
2.7126833464566928
20
-3.7630446062992124
11
2.7128581496062991
21
-3.7633333464566929
0
LINE
8
BLACK
6
CONTINUOUS
10
2.7128581496062991
20
-3.7633333464566929
11
2.7128746062992124
21
-3.7641291732283464
0
LINE
8
BLACK
6
CONTINUOUS
10
2.7128746062992124
20
-3.7641291732283464
11
2.7130128740157478
21
-3.7649131889763781
0
LINE
8
BLACK
6
CONTINUOUS
10
2.7130128740157478
20
-3.7649131889763781
11
2.7128950787401576
21
-3.7651171653543307
0
LINE
8
BLACK
6
CONTINUOUS
10
2.7128950787401576
20
-3.7651171653543307
11
2.7128999606299211
21
-3.7653527165354328
0
LINE
8
BLACK
6
CONTINUOUS
10
2.7128999606299211
20
-3.7653527165354328
11
2.7124009448818898
21
-3.7659729921259841
0
LINE
8
BLACK
6
CONTINUOUS
10
2.7124009448818898
20
-3.7659729921259841
11
2.7120029527559053
21
-3.7666623622047242
0
LINE
8
BLACK
6
CONTINUOUS
10
2.7120029527559053
20
-3.7666623622047242
11
2.7117815748031497
21
-3.7667429133858268
0
LINE
8
BLACK
6
CONTINUOUS
10
2.7117815748031497
20
-3.7667429133858268
11
2.7116339370078739
21
-3.7669264960629922
0
LINE
8
BLACK
6
CONTINUOUS
10
2.7116339370078739
20
-3.7669264960629922
11
2.7108529527559053
21
-3.7670809055118109
0
LINE
8
BLACK
6
CONTINUOUS
10
2.7108529527559053
20
-3.7670809055118109
11
2.7101049606299212
21
-3.7673531889763781
0
LINE
8
BLACK
6
CONTINUOUS
10
2.7101049606299212
20
-3.7673531889763781
11
2.7051777165354332
21
-3.7673531889763781
0
LINE
8
BLACK
6
CONTINUOUS
10
2.7051777165354332
20
-3.7673531889763781
11
2.7024802362204725
21
-3.7687019291338584
0
LINE
8
BLACK
6
CONTINUOUS
10
2.7024802362204725
20
-3.7687019291338584
11
2.7012831102362203
21
-3.7698990551181102
0
LINE
8
BLACK
6
CONTINUOUS
10
2.7012831102362203
20
-3.7698990551181102
11
2.6999343700787399
21
-3.7725965354330708
0
LINE
8
BLACK
6
CONTINUOUS
10
2.6999343700787399
20
-3.7725965354330708
11
2.6999343700787399
21
-3.7805762598425194
0
LINE
8
BLACK
6
CONTINUOUS
10
2.6999343700787399
20
-3.7805762598425194
11
2.7012831102362203
21
-3.7832737401574801
0
LINE
8
BLACK
6
CONTINUOUS
10
2.7012831102362203
20
-3.7832737401574801
11
2.7024802362204725
21
-3.7844709055118111
0
LINE
8
BLACK
6
CONTINUOUS
10
2.7024802362204725
20
-3.7844709055118111
11
2.7051777165354332
21
-3.7858196456692914
0
LINE
8
BLACK
6
CONTINUOUS
10
2.7051777165354332
20
-3.7858196456692914
11
2.7150322047244093
21
-3.7858196456692914
0
LINE
8
BLACK
6
CONTINUOUS
10
2.7150322047244093
20
-3.7858196456692914
11
2.7177296456692912
21
-3.7844709055118111
0
LINE
8
BLACK
6
CONTINUOUS
10
2.7177296456692912
20
-3.7844709055118111
11
2.7192655905511809
21
-3.782934960629921
0
LINE
8
BLACK
6
CONTINUOUS
10
2.7192655905511809
20
-3.782934960629921
11
2.7201056299212598
21
-3.7823467322834645
0
LINE
8
BLACK
6
CONTINUOUS
10
2.7201056299212598
20
-3.7823467322834645
11
2.7221177559055119
21
-3.7821706692913386
0
LINE
8
BLACK
6
CONTINUOUS
10
2.7221177559055119
20
-3.7821706692913386
11
2.7237722834645668
21
-3.7833291732283465
0
LINE
8
BLACK
6
CONTINUOUS
10
2.7237722834645668
20
-3.7833291732283465
11
2.7242950393700789
21
-3.7852801574803148
0
LINE
8
BLACK
6
CONTINUOUS
10
2.7242950393700789
20
-3.7852801574803148
11
2.7234414566929135
21
-3.7871107480314961
0
LINE
8
BLACK
6
CONTINUOUS
10
2.7234414566929135
20
-3.7871107480314961
11
2.7215667322834647
21
-3.7889855118110236
0
LINE
8
BLACK
6
CONTINUOUS
10
2.7215667322834647
20
-3.7889855118110236
11
2.7208435433070863
21
-3.7894918897637795
0
LINE
8
BLACK
6
CONTINUOUS
10
2.7208435433070863
20
-3.7894918897637795
11
2.7207992913385826
21
-3.7895386614173225
0
LINE
8
BLACK
6
CONTINUOUS
10
2.7207992913385826
20
-3.7895386614173225
11
2.7170497637795274
21
-3.7914134251968501
0
LINE
8
BLACK
6
CONTINUOUS
10
2.7170497637795274
20
-3.7914134251968501
11
2.7160668110236221
21
-3.7917057874015749
0
LINE
8
BLACK
6
CONTINUOUS
10
2.7160668110236221
20
-3.7917057874015749
11
2.715895118110236
21
-3.7916647637795275
0
LINE
8
BLACK
6
CONTINUOUS
10
2.715895118110236
20
-3.7916647637795275
11
2.7157292519685039
21
-3.791725157480315
0
LINE
8
BLACK
6
CONTINUOUS
10
2.7157292519685039
20
-3.791725157480315
11
2.7044806692913386
21
-3.791725157480315
0
LINE
8
BLACK
6
CONTINUOUS
10
2.7044806692913386
20
-3.791725157480315
11
2.7034707480314961
21
-3.7915470866141732
0
LINE
8
BLACK
6
CONTINUOUS
10
2.7034707480314961
20
-3.7915470866141732
11
2.7033354724409446
21
-3.7914335826771652
0
LINE
8
BLACK
6
CONTINUOUS
10
2.7033354724409446
20
-3.7914335826771652
11
2.703160157480315
21
-3.7914134251968501
0
LINE
8
BLACK
6
CONTINUOUS
10
2.703160157480315
20
-3.7914134251968501
11
2.6994106299212599
21
-3.7895386614173225
0
LINE
8
BLACK
6
CONTINUOUS
10
2.6994106299212599
20
-3.7895386614173225
11
2.6987014960629923
21
-3.7890126771653541
0
LINE
8
BLACK
6
CONTINUOUS
10
2.6987014960629923
20
-3.7890126771653541
11
2.6986431889763778
21
-3.7889855118110236
0
LINE
8
BLACK
6
CONTINUOUS
10
2.6986431889763778
20
-3.7889855118110236
11
2.6967684251968502
21
-3.7871107086614173
0
LINE
8
BLACK
6
CONTINUOUS
10
2.6967684251968502
20
-3.7871107086614173
11
2.6962621259842519
21
-3.7863876377952757
0
LINE
8
BLACK
6
CONTINUOUS
10
2.6962621259842519
20
-3.7863876377952757
11
2.6962153543307088
21
-3.7863433464566927
0
LINE
8
BLACK
6
CONTINUOUS
10
2.6962153543307088
20
-3.7863433464566927
11
2.6943405905511812
21
-3.7825938188976376
0
LINE
8
BLACK
6
CONTINUOUS
10
2.6943405905511812
20
-3.7825938188976376
11
2.6940482283464569
21
-3.7816108661417323
0
LINE
8
BLACK
6
CONTINUOUS
10
2.6940482283464569
20
-3.7816108661417323
11
2.694089212598425
21
-3.7814391732283466
0
LINE
8
BLACK
6
CONTINUOUS
10
2.694089212598425
20
-3.7814391732283466
11
2.6940288582677163
21
-3.781273307086614
0
LINE
8
BLACK
6
CONTINUOUS
10
2.6940288582677163
20
-3.781273307086614
11
2.6940288582677163
21
-3.7718994881889762
0
LINE
8
BLACK
6
CONTINUOUS
10
2.6940288582677163
20
-3.7718994881889762
11
2.6942069291338582
21
-3.7708895669291338
0
LINE
8
BLACK
6
CONTINUOUS
10
2.6942069291338582
20
-3.7708895669291338
11
2.6943203937007874
21
-3.7707542913385828
0
LINE
8
BLACK
6
CONTINUOUS
10
2.6943203937007874
20
-3.7707542913385828
11
2.6943405905511812
21
-3.7705789763779527
0
LINE
8
BLACK
6
CONTINUOUS
10
2.6943405905511812
20
-3.7705789763779527
11
2.6962153543307088
21
-3.7668294488188976
0
LINE
8
BLACK
6
CONTINUOUS
10
2.6962153543307088
20
-3.7668294488188976
11
2.6967412598425198
21
-3.7661203543307087
0
LINE
8
BLACK
6
CONTINUOUS
10
2.6967412598425198
20
-3.7661203543307087
11
2.696768464566929
21
-3.7660620472440942
0
LINE
8
BLACK
6
CONTINUOUS
10
2.696768464566929
20
-3.7660620472440942
11
2.6986432283464565
21
-3.7641872834645667
0
LINE
8
BLACK
6
CONTINUOUS
10
2.6986432283464565
20
-3.7641872834645667
11
2.6993662992125982
21
-3.7636809842519683
0
LINE
8
BLACK
6
CONTINUOUS
10
2.6993662992125982
20
-3.7636809842519683
11
2.6994106299212599
21
-3.7636341732283465
0
LINE
8
BLACK
6
CONTINUOUS
10
2.6994106299212599
20
-3.7636341732283465
11
2.703160157480315
21
-3.7617594094488189
0
LINE
8
BLACK
6
CONTINUOUS
10
2.703160157480315
20
-3.7617594094488189
11
2.7037238188976378
21
-3.7615917322834647
0
LINE
8
BLACK
6
CONTINUOUS
10
2.7037238188976378
20
-3.7615917322834647
11
2.6947594488188975
21
-3.7513467322834644
0
LINE
8
BLACK
6
CONTINUOUS
10
2.6947594488188975
20
-3.7513467322834644
11
2.6945295275590548
21
-3.7509668503937008
0
LINE
8
BLACK
6
CONTINUOUS
10
2.6945295275590548
20
-3.7509668503937008
11
2.6944244488188978
21
-3.7508787007874016
0
LINE
8
BLACK
6
CONTINUOUS
10
2.6944244488188978
20
-3.7508787007874016
11
2.694403188976378
21
-3.7507581102362204
0
LINE
8
BLACK
6
CONTINUOUS
10
2.694403188976378
20
-3.7507581102362204
11
2.6942284251968505
21
-3.7504694094488187
0
LINE
8
BLACK
6
CONTINUOUS
10
2.6942284251968505
20
-3.7504694094488187
11
2.694211929133858
21
-3.7496735433070865
0
LINE
8
BLACK
6
CONTINUOUS
10
2.694211929133858
20
-3.7496735433070865
11
2.6940737007874014
21
-3.7488895669291336
0
LINE
8
BLACK
6
CONTINUOUS
10
2.6940737007874014
20
-3.7488895669291336
11
2.6941914566929133
21
-3.7486855511811021
0
LINE
8
BLACK
6
CONTINUOUS
10
2.6941914566929133
20
-3.7486855511811021
11
2.6941866141732285
21
-3.7484500787401576
0
LINE
8
BLACK
6
CONTINUOUS
10
2.6941866141732285
20
-3.7484500787401576
11
2.6946855511811023
21
-3.7478298031496062
0
LINE
8
BLACK
6
CONTINUOUS
10
2.6946855511811023
20
-3.7478298031496062
11
2.6950836220472438
21
-3.7471403937007874
0
LINE
8
BLACK
6
CONTINUOUS
10
2.6950836220472438
20
-3.7471403937007874
11
2.6953049606299211
21
-3.7470598031496061
0
LINE
8
BLACK
6
CONTINUOUS
10
2.6953049606299211
20
-3.7470598031496061
11
2.6954526377952757
21
-3.7468762598425198
0
LINE
8
BLACK
6
CONTINUOUS
10
2.6954526377952757
20
-3.7468762598425198
11
2.6962335826771655
21
-3.746721811023622
0
LINE
8
BLACK
6
CONTINUOUS
10
2.6962335826771655
20
-3.746721811023622
11
2.6969816141732283
21
-3.7464495669291336
0
LINE
8
BLACK
6
CONTINUOUS
10
2.6969816141732283
20
-3.7464495669291336
11
2.7213535433070866
21
-3.7464495669291336
0
LINE
8
BLACK
6
CONTINUOUS
10
2.7213535433070866
20
-3.7464495669291336
11
2.722363464566929
21
-3.7466276377952754
0
LINE
8
BLACK
6
CONTINUOUS
10
2.7386136220472439
20
-3.7475043307086615
11
2.7393044488188978
21
-3.7494023228346456
0
LINE
8
BLACK
6
CONTINUOUS
10
2.7393044488188978
20
-3.7494023228346456
11
2.7393044488188978
21
-3.7770446062992127
0
LINE
8
BLACK
6
CONTINUOUS
10
2.7393044488188978
20
-3.7770446062992127
11
2.7408072440944879
21
-3.7815530314960628
0
LINE
8
BLACK
6
CONTINUOUS
10
2.7408072440944879
20
-3.7815530314960628
11
2.7435710236220472
21
-3.7843168503937008
0
LINE
8
BLACK
6
CONTINUOUS
10
2.7435710236220472
20
-3.7843168503937008
11
2.748079409448819
21
-3.7858196456692914
0
LINE
8
BLACK
6
CONTINUOUS
10
2.748079409448819
20
-3.7858196456692914
11
2.7513498031496062
21
-3.7858196456692914
0
LINE
8
BLACK
6
CONTINUOUS
10
2.7513498031496062
20
-3.7858196456692914
11
2.7523597244094486
21
-3.7859977165354328
0
LINE
8
BLACK
6
CONTINUOUS
10
2.7523597244094486
20
-3.7859977165354328
11
2.7539069685039368
21
-3.787296023622047
0
LINE
8
BLACK
6
CONTINUOUS
10
2.7539069685039368
20
-3.787296023622047
11
2.7542577165354332
21
-3.789285157480315
0
LINE
8
BLACK
6
CONTINUOUS
10
2.7542577165354332
20
-3.789285157480315
11
2.7532477952755903
21
-3.7910343307086611
0
LINE
8
BLACK
6
CONTINUOUS
10
2.7532477952755903
20
-3.7910343307086611
11
2.7513498031496062
21
-3.791725157480315
0
LINE
8
BLACK
6
CONTINUOUS
10
2.7513498031496062
20
-3.791725157480315
11
2.7476002755905511
21
-3.791725157480315
0
LINE
8
BLACK
6
CONTINUOUS
10
2.7476002755905511
20
-3.791725157480315
11
2.746730866141732
21
-3.7915718503937006
0
LINE
8
BLACK
6
CONTINUOUS
10
2.746730866141732
20
-3.7915718503937006
11
2.7466664960629918
21
-3.791573622047244
0
LINE
8
BLACK
6
CONTINUOUS
10
2.7466664960629918
20
-3.791573622047244
11
2.7410422440944879
21
-3.7896988582677165
0
LINE
8
BLACK
6
CONTINUOUS
10
2.7410422440944879
20
-3.7896988582677165
11
2.7401404724409448
21
-3.7892105511811023
0
LINE
8
BLACK
6
CONTINUOUS
10
2.7401404724409448
20
-3.7892105511811023
11
2.7400480708661417
21
-3.7890601574803147
0
LINE
8
BLACK
6
CONTINUOUS
10
2.7400480708661417
20
-3.7890601574803147
11
2.7398880708661415
21
-3.7889855511811024
0
LINE
8
BLACK
6
CONTINUOUS
10
2.7398880708661415
20
-3.7889855511811024
11
2.7361385433070864
21
-3.7852359842519685
0
LINE
8
BLACK
6
CONTINUOUS
10
2.7361385433070864
20
-3.7852359842519685
11
2.7355503149606299
21
-3.7843959448818896
0
LINE
8
BLACK
6
CONTINUOUS
10
2.7355503149606299
20
-3.7843959448818896
11
2.7355349212598425
21
-3.7842199999999999
0
LINE
8
BLACK
6
CONTINUOUS
10
2.7355349212598425
20
-3.7842199999999999
11
2.7354252362204723
21
-3.7840818110236221
0
LINE
8
BLACK
6
CONTINUOUS
10
2.7354252362204723
20
-3.7840818110236221
11
2.7335504724409447
21
-3.7784575196850394
0
LINE
8
BLACK
6
CONTINUOUS
10
2.7335504724409447
20
-3.7784575196850394
11
2.7334209842519686
21
-3.7775843307086614
0
LINE
8
BLACK
6
CONTINUOUS
10
2.7334209842519686
20
-3.7775843307086614
11
2.7333989370078742
21
-3.7775237795275589
0
LINE
8
BLACK
6
CONTINUOUS
10
2.7333989370078742
20
-3.7775237795275589
11
2.7333989370078742
21
-3.7494023228346456
0
LINE
8
BLACK
6
CONTINUOUS
10
2.7333989370078742
20
-3.7494023228346456
11
2.7335770078740156
21
-3.7483924015748031
0
LINE
8
BLACK
6
CONTINUOUS
10
2.7335770078740156
20
-3.7483924015748031
11
2.7348753149606297
21
-3.746845157480315
0
LINE
8
BLACK
6
CONTINUOUS
10
2.7348753149606297
20
-3.746845157480315
11
2.7368644488188978
21
-3.7464944094488186
0
LINE
8
BLACK
6
CONTINUOUS
10
2.7368644488188978
20
-3.7464944094488186
11
2.7386136220472439
21
-3.7475043307086615
0
LINE
8
BLACK
6
CONTINUOUS
10
4.3905511811023619
20
-3.4649606299212596
11
4.3922214960629917
21
-3.4656525196850394
0
LINE
8
BLACK
6
CONTINUOUS
10
4.3922214960629917
20
-3.4656525196850394
11
4.3929133858267715
21
-3.4673228346456693
0
LINE
8
BLACK
6
CONTINUOUS
10
4.3929133858267715
20
-3.4673228346456693
11
4.3929133858267715
21
-3.7720472440944879
0
LINE
8
BLACK
6
CONTINUOUS
10
4.3929133858267715
20
-3.7720472440944879
11
4.3922214960629917
21
-3.7737175590551182
0
LINE
8
BLACK
6
CONTINUOUS
10
4.3922214960629917
20
-3.7737175590551182
11
4.3905511811023619
21
-3.7744094488188975
0
LINE
8
BLACK
6
CONTINUOUS
10
4.3905511811023619
20
-3.7744094488188975
11
4.1858267716535433
21
-3.7744094488188975
0
LINE
8
BLACK
6
CONTINUOUS
10
4.1858267716535433
20
-3.7744094488188975
11
4.1841564566929135
21
-3.7737175590551182
0
LINE
8
BLACK
6
CONTINUOUS
10
4.1841564566929135
20
-3.7737175590551182
11
4.1834645669291337
21
-3.7720472440944879
0
LINE
8
BLACK
6
CONTINUOUS
10
4.1834645669291337
20
-3.7720472440944879
11
4.1834645669291337
21
-3.5696850393700785
0
LINE
8
BLACK
6
CONTINUOUS
10
4.1834645669291337
20
-3.5696850393700785
11
4.1841564566929135
21
-3.5680147244094487
0
LINE
8
BLACK
6
CONTINUOUS
10
4.1841564566929135
20
-3.5680147244094487
11
4.1858267716535433
21
-3.5673228346456693
0
LINE
8
BLACK
6
CONTINUOUS
10
4.1858267716535433
20
-3.5673228346456693
11
4.285826771653543
21
-3.5673228346456693
0
LINE
8
BLACK
6
CONTINUOUS
10
4.285826771653543
20
-3.5673228346456693
11
4.285826771653543
21
-3.4673228346456693
0
LINE
8
BLACK
6
CONTINUOUS
10
4.285826771653543
20
-3.4673228346456693
11
4.2865186614173227
21
-3.4656525196850394
0
LINE
8
BLACK
6
CONTINUOUS
10
4.2865186614173227
20
-3.4656525196850394
11
4.2881889763779526
21
-3.4649606299212596
0
LINE
8
BLACK
6
CONTINUOUS
10
4.2881889763779526
20
-3.4649606299212596
11
4.3905511811023619
21
-3.4649606299212596
0
LINE
8
BLACK
6
CONTINUOUS
10
4.2905511811023622
20
-3.4696850393700789
11
4.2905511811023622
21
-3.5696850393700785
0
LINE
8
BLACK
6
CONTINUOUS
10
4.2905511811023622
20
-3.5696850393700785
11
4.2898592913385825
21
-3.5713553543307084
0
LINE
8
BLACK
6
CONTINUOUS
10
4.2898592913385825
20
-3.5713553543307084
11
4.2881889763779526
21
-3.5720472440944881
0
LINE
8
BLACK
6
CONTINUOUS
10
4.2881889763779526
20
-3.5720472440944881
11
4.188188976377953
21
-3.5720472440944881
0
LINE
8
BLACK
6
CONTINUOUS
10
4.188188976377953
20
-3.5720472440944881
11
4.188188976377953
21
-3.7696850393700787
0
LINE
8
BLACK
6
CONTINUOUS
10
4.188188976377953
20
-3.7696850393700787
11
4.3881889763779522
21
-3.7696850393700787
0
LINE
8
BLACK
6
CONTINUOUS
10
4.3881889763779522
20
-3.7696850393700787
11
4.3881889763779522
21
-3.4696850393700789
0
LINE
8
BLACK
6
CONTINUOUS
10
4.3881889763779522
20
-3.4696850393700789
11
4.2905511811023622
21
-3.4696850393700789
0
LINE
8
BLACK
6
CONTINUOUS
10
2.4430088976377951
20
-3.6825816535433069
11
2.4437007874015748
21
-3.6842519685039368
0
LINE
8
BLACK
6
CONTINUOUS
10
2.4437007874015748
20
-3.6842519685039368
11
2.4437007874015748
21
-3.734251968503937
0
LINE
8
BLACK
6
CONTINUOUS
10
2.4437007874015748
20
-3.734251968503937
11
2.4937007874015746
21
-3.734251968503937
0
LINE
8
BLACK
6
CONTINUOUS
10
2.4937007874015746
20
-3.734251968503937
11
2.4953711023622045
21
-3.7349438582677164
0
LINE
8
BLACK
6
CONTINUOUS
10
2.4953711023622045
20
-3.7349438582677164
11
2.4960629921259843
21
-3.7366141732283462
0
LINE
8
BLACK
6
CONTINUOUS
10
2.4960629921259843
20
-3.7366141732283462
11
2.4953711023622045
21
-3.7382844881889761
0
LINE
8
BLACK
6
CONTINUOUS
10
2.4953711023622045
20
-3.7382844881889761
11
2.4937007874015746
21
-3.7389763779527558
0
LINE
8
BLACK
6
CONTINUOUS
10
2.4937007874015746
20
-3.7389763779527558
11
2.4413385826771652
21
-3.7389763779527558
0
LINE
8
BLACK
6
CONTINUOUS
10
2.4413385826771652
20
-3.7389763779527558
11
2.4396682677165353
21
-3.7382844881889761
0
LINE
8
BLACK
6
CONTINUOUS
10
2.4396682677165353
20
-3.7382844881889761
11
2.438976377952756
21
-3.7366141732283462
0
LINE
8
BLACK
6
CONTINUOUS
10
2.438976377952756
20
-3.7366141732283462
11
2.438976377952756
21
-3.6842519685039368
0
LINE
8
BLACK
6
CONTINUOUS
10
2.438976377952756
20
-3.6842519685039368
11
2.4396682677165353
21
-3.6825816535433069
0
LINE
8
BLACK
6
CONTINUOUS
10
2.4396682677165353
20
-3.6825816535433069
11
2.4413385826771652
21
-3.6818897637795276
0
LINE
8
BLACK
6
CONTINUOUS
10
2.4413385826771652
20
-3.6818897637795276
11
2.4430088976377951
21
-3.6825816535433069
0
LINE
8
BLACK
6
CONTINUOUS
10
2.7460629921259843
20
-3.5295275590551181
11
2.7477333070866141
21
-3.5302194488188974
0
LINE
8
BLACK
6
CONTINUOUS
10
2.7477333070866141
20
-3.5302194488188974
11
2.7484251968503934
21
-3.5318897637795277
0
LINE
8
BLACK
6
CONTINUOUS
10
2.7484251968503934
20
-3.5318897637795277
11
2.7484251968503934
21
-3.7366141732283462
0
LINE
8
BLACK
6
CONTINUOUS
10
2.7484251968503934
20
-3.7366141732283462
11
2.7477333070866141
21
-3.7382844881889761
0
LINE
8
BLACK
6
CONTINUOUS
10
2.7477333070866141
20
-3.7382844881889761
11
2.7460629921259843
21
-3.7389763779527558
0
LINE
8
BLACK
6
CONTINUOUS
10
2.7460629921259843
20
-3.7389763779527558
11
2.5437007874015749
21
-3.7389763779527558
0
LINE
8
BLACK
6
CONTINUOUS
10
2.5437007874015749
20
-3.7389763779527558
11
2.542030472440945
21
-3.7382844881889761
0
LINE
8
BLACK
6
CONTINUOUS
10
2.542030472440945
20
-3.7382844881889761
11
2.5413385826771653
21
-3.7366141732283462
0
LINE
8
BLACK
6
CONTINUOUS
10
2.5413385826771653
20
-3.7366141732283462
11
2.5413385826771653
21
-3.6366141732283466
0
LINE
8
BLACK
6
CONTINUOUS
10
2.5413385826771653
20
-3.6366141732283466
11
2.4413385826771652
21
-3.6366141732283466
0
LINE
8
BLACK
6
CONTINUOUS
10
2.4413385826771652
20
-3.6366141732283466
11
2.4396682677165353
21
-3.6359222834645668
0
LINE
8
BLACK
6
CONTINUOUS
10
2.4396682677165353
20
-3.6359222834645668
11
2.438976377952756
21
-3.6342519685039369
0
LINE
8
BLACK
6
CONTINUOUS
10
2.438976377952756
20
-3.6342519685039369
11
2.438976377952756
21
-3.5318897637795277
0
LINE
8
BLACK
6
CONTINUOUS
10
2.438976377952756
20
-3.5318897637795277
11
2.4396682677165353
21
-3.5302194488188974
0
LINE
8
BLACK
6
CONTINUOUS
10
2.4396682677165353
20
-3.5302194488188974
11
2.4413385826771652
21
-3.5295275590551181
0
LINE
8
BLACK
6
CONTINUOUS
10
2.4413385826771652
20
-3.5295275590551181
11
2.7460629921259843
21
-3.5295275590551181
0
LINE
8
BLACK
6
CONTINUOUS
10
2.4437007874015748
20
-3.5342519685039369
11
2.4437007874015748
21
-3.6318897637795273
0
LINE
8
BLACK
6
CONTINUOUS
10
2.4437007874015748
20
-3.6318897637795273
11
2.5437007874015749
21
-3.6318897637795273
0
LINE
8
BLACK
6
CONTINUOUS
10
2.5437007874015749
20
-3.6318897637795273
11
2.5453711023622048
21
-3.6325816535433071
0
LINE
8
BLACK
6
CONTINUOUS
10
2.5453711023622048
20
-3.6325816535433071
11
2.5460629921259841
21
-3.6342519685039369
0
LINE
8
BLACK
6
CONTINUOUS
10
2.5460629921259841
20
-3.6342519685039369
11
2.5460629921259841
21
-3.734251968503937
0
LINE
8
BLACK
6
CONTINUOUS
10
2.5460629921259841
20
-3.734251968503937
11
2.7437007874015746
21
-3.734251968503937
0
LINE
8
BLACK
6
CONTINUOUS
10
2.7437007874015746
20
-3.734251968503937
11
2.7437007874015746
21
-3.5342519685039369
0
LINE
8
BLACK
6
CONTINUOUS
10
2.7437007874015746
20
-3.5342519685039369
11
2.4437007874015748
21
-3.5342519685039369
0
LINE
8
BLACK
6
CONTINUOUS
10
4.2398592913385826
20
-3.4656525196850394
11
4.2405511811023624
21
-3.4673228346456693
0
LINE
8
BLACK
6
CONTINUOUS
10
4.2405511811023624
20
-3.4673228346456693
11
4.2398592913385826
21
-3.4689931496062991
0
LINE
8
BLACK
6
CONTINUOUS
10
4.2398592913385826
20
-3.4689931496062991
11
4.2381889763779528
21
-3.4696850393700789
0
LINE
8
BLACK
6
CONTINUOUS
10
4.2381889763779528
20
-3.4696850393700789
11
4.188188976377953
21
-3.4696850393700789
0
LINE
8
BLACK
6
CONTINUOUS
10
4.188188976377953
20
-3.4696850393700789
11
4.188188976377953
21
-3.5196850393700787
0
LINE
8
BLACK
6
CONTINUOUS
10
4.188188976377953
20
-3.5196850393700787
11
4.1874970866141732
21
-3.5213553543307086
0
LINE
8
BLACK
6
CONTINUOUS
10
4.1874970866141732
20
-3.5213553543307086
11
4.1858267716535433
21
-3.5220472440944883
0
LINE
8
BLACK
6
CONTINUOUS
10
4.1858267716535433
20
-3.5220472440944883
11
4.1841564566929135
21
-3.5213553543307086
0
LINE
8
BLACK
6
CONTINUOUS
10
4.1841564566929135
20
-3.5213553543307086
11
4.1834645669291337
21
-3.5196850393700787
0
LINE
8
BLACK
6
CONTINUOUS
10
4.1834645669291337
20
-3.5196850393700787
11
4.1834645669291337
21
-3.4673228346456693
0
LINE
8
BLACK
6
CONTINUOUS
10
4.1834645669291337
20
-3.4673228346456693
11
4.1841564566929135
21
-3.4656525196850394
0
LINE
8
BLACK
6
CONTINUOUS
10
4.1841564566929135
20
-3.4656525196850394
11
4.1858267716535433
21
-3.4649606299212596
0
LINE
8
BLACK
6
CONTINUOUS
10
4.1858267716535433
20
-3.4649606299212596
11
4.2381889763779528
21
-3.4649606299212596
0
LINE
8
BLACK
6
CONTINUOUS
10
4.2381889763779528
20
-3.4649606299212596
11
4.2398592913385826
21
-3.4656525196850394
0
CIRCLE
8
BLACK
10
4.3307086614173231
20
-2.204724409448819
40
0.0541338582677165
0
CIRCLE
8
BLACK
10
2.0472440944881889
20
-2.204724409448819
40
0.0541338582677165
0
CIRCLE
8
BLACK
10
2.0472440944881889
20
-4.1338582677165352
40
0.0541338582677165
0
CIRCLE
8
BLACK
10
4.3307086614173231
20
-4.1338582677165352
40
0.0541338582677165
0
CIRCLE
8
BLACK
10
2.2389763779527558
20
-2.2547244094488188
40
0.02
0
CIRCLE
8
BLACK
10
2.2389763779527558
20
-2.1547244094488187
40
0.02
0
CIRCLE
8
BLACK
10
2.3389763779527559
20
-2.2547244094488188
40
0.02
0
CIRCLE
8
BLACK
10
2.3389763779527559
20
-2.1547244094488187
40
0.02
0
CIRCLE
8
BLACK
10
2.438976377952756
20
-2.2547244094488188
40
0.02
0
CIRCLE
8
BLACK
10
2.438976377952756
20
-2.1547244094488187
40
0.02
0
CIRCLE
8
BLACK
10
2.5389763779527557
20
-2.2547244094488188
40
0.02
0
CIRCLE
8
BLACK
10
2.5389763779527557
20
-2.1547244094488187
40
0.02
0
CIRCLE
8
BLACK
10
2.6389763779527557
20
-2.2547244094488188
40
0.02
0
CIRCLE
8
BLACK
10
2.6389763779527557
20
-2.1547244094488187
40
0.02
0
CIRCLE
8
BLACK
10
2.7389763779527558
20
-2.2547244094488188
40
0.02
0
CIRCLE
8
BLACK
10
2.7389763779527558
20
-2.1547244094488187
40
0.02
0
CIRCLE
8
BLACK
10
2.8389763779527559
20
-2.2547244094488188
40
0.02
0
CIRCLE
8
BLACK
10
2.8389763779527559
20
-2.1547244094488187
40
0.02
0
CIRCLE
8
BLACK
10
2.938976377952756
20
-2.2547244094488188
40
0.02
0
CIRCLE
8
BLACK
10
2.938976377952756
20
-2.1547244094488187
40
0.02
0
CIRCLE
8
BLACK
10
3.0389763779527557
20
-2.2547244094488188
40
0.02
0
CIRCLE
8
BLACK
10
3.0389763779527557
20
-2.1547244094488187
40
0.02
0
CIRCLE
8
BLACK
10
3.1389763779527557
20
-2.2547244094488188
40
0.02
0
CIRCLE
8
BLACK
10
3.1389763779527557
20
-2.1547244094488187
40
0.02
0
CIRCLE
8
BLACK
10
3.2389763779527558
20
-2.2547244094488188
40
0.02
0
CIRCLE
8
BLACK
10
3.2389763779527558
20
-2.1547244094488187
40
0.02
0
CIRCLE
8
BLACK
10
3.3389763779527559
20
-2.2547244094488188
40
0.02
0
CIRCLE
8
BLACK
10
3.3389763779527559
20
-2.1547244094488187
40
0.02
0
CIRCLE
8
BLACK
10
3.438976377952756
20
-2.2547244094488188
40
0.02
0
CIRCLE
8
BLACK
10
3.438976377952756
20
-2.1547244094488187
40
0.02
0
CIRCLE
8
BLACK
10
3.5389763779527557
20
-2.2547244094488188
40
0.02
0
CIRCLE
8
BLACK
10
3.5389763779527557
20
-2.1547244094488187
40
0.02
0
CIRCLE
8
BLACK
10
3.6389763779527557
20
-2.2547244094488188
40
0.02
0
CIRCLE
8
BLACK
10
3.6389763779527557
20
-2.1547244094488187
40
0.02
0
CIRCLE
8
BLACK
10
3.7389763779527558
20
-2.2547244094488188
40
0.02
0
CIRCLE
8
BLACK
10
3.7389763779527558
20
-2.1547244094488187
40
0.02
0
CIRCLE
8
BLACK
10
3.8389763779527559
20
-2.2547244094488188
40
0.02
0
CIRCLE
8
BLACK
10
3.8389763779527559
20
-2.1547244094488187
40
0.02
0
CIRCLE
8
BLACK
10
3.938976377952756
20
-2.2547244094488188
40
0.02
0
CIRCLE
8
BLACK
10
3.938976377952756
20
-2.1547244094488187
40
0.02
0
CIRCLE
8
BLACK
10
4.0389763779527561
20
-2.2547244094488188
40
0.02
0
CIRCLE
8
BLACK
10
4.0389763779527561
20
-2.1547244094488187
40
0.02
0
CIRCLE
8
BLACK
10
4.1389763779527557
20
-2.2547244094488188
40
0.02
0
CIRCLE
8
BLACK
10
4.1389763779527557
20
-2.1547244094488187
40
0.02
0
CIRCLE
8
BLACK
10
3.6594488188976375
20
-3.6644488188976378
40
0.0059055118110236
0
CIRCLE
8
BLACK
10
3.693569566929134
20
-3.6644488188976378
40
0.0059055118110236
0
CIRCLE
8
BLACK
10
3.7276902755905512
20
-3.6644488188976378
40
0.0059055118110236
0
CIRCLE
8
BLACK
10
3.7618110236220472
20
-3.6644488188976378
40
0.0059055118110236
0
CIRCLE
8
BLACK
10
3.6594488188976375
20
-3.6303280708661418
40
0.0059055118110236
0
CIRCLE
8
BLACK
10
3.693569566929134
20
-3.6303280708661418
40
0.0059055118110236
0
CIRCLE
8
BLACK
10
3.7276902755905512
20
-3.6303280708661418
40
0.0059055118110236
0
CIRCLE
8
BLACK
10
3.7618110236220472
20
-3.6303280708661418
40
0.0059055118110236
0
CIRCLE
8
BLACK
10
3.6594488188976375
20
-3.5962073622047241
40
0.0059055118110236
0
CIRCLE
8
BLACK
10
3.693569566929134
20
-3.5962073622047241
40
0.0059055118110236
0
CIRCLE
8
BLACK
10
3.7276902755905512
20
-3.5962073622047241
40
0.0059055118110236
0
CIRCLE
8
BLACK
10
3.7618110236220472
20
-3.5962073622047241
40
0.0059055118110236
0
CIRCLE
8
BLACK
10
3.6594488188976375
20
-3.5620866141732281
40
0.0059055118110236
0
CIRCLE
8
BLACK
10
3.693569566929134
20
-3.5620866141732281
40
0.0059055118110236
0
CIRCLE
8
BLACK
10
3.7276902755905512
20
-3.5620866141732281
40
0.0059055118110236
0
CIRCLE
8
BLACK
10
3.7618110236220472
20
-3.5620866141732281
40
0.0059055118110236
0
CIRCLE
8
BLACK
10
2.4937007874015746
20
-3.6842519685039368
40
0.0196850393700787
0
CIRCLE
8
BLACK
10
2.4937007874015746
20
-3.5842519685039371
40
0.0196850393700787
0
CIRCLE
8
BLACK
10
2.5937007874015747
20
-3.6842519685039368
40
0.0196850393700787
0
CIRCLE
8
BLACK
10
2.5937007874015747
20
-3.5842519685039371
40
0.0196850393700787
0
CIRCLE
8
BLACK
10
2.6937007874015748
20
-3.6842519685039368
40
0.0196850393700787
0
CIRCLE
8
BLACK
10
2.6937007874015748
20
-3.5842519685039371
40
0.0196850393700787
0
CIRCLE
8
BLACK
10
4.2381889763779528
20
-3.5196850393700787
40
0.0196850393700787
0
CIRCLE
8
BLACK
10
4.3381889763779524
20
-3.5196850393700787
40
0.0196850393700787
0
CIRCLE
8
BLACK
10
4.2381889763779528
20
-3.6196850393700788
40
0.0196850393700787
0
CIRCLE
8
BLACK
10
4.3381889763779524
20
-3.6196850393700788
40
0.0196850393700787
0
CIRCLE
8
BLACK
10
4.2381889763779528
20
-3.7196850393700784
40
0.0196850393700787
0
CIRCLE
8
BLACK
10
4.3381889763779524
20
-3.7196850393700784
40
0.0196850393700787
  0
ENDSEC
  0
EOF
