  0
SECTION
  2
HEADER
  9
$ANGBASE
  50
0.0
  9
$ANGDIR
  70
1
  9
$MEASUREMENT
  70
0
  0
ENDSEC
  0
SECTION
  2
TABLES
  0
TABLE
  2
LTYPE
  70
4
  0
LTYPE
  5
40F
  2
CONTINUOUS
  70
0
  3
Solid line
  72
65
  73
0
  40
0.0
  0
LTYPE
  5
410
  2
DASHDOT
 70
0
  3
Dash Dot ____ _ ____ _
 72
65
 73
4
 40
2.0
 49
1.25
 49
-0.25
 49
0.25
 49
-0.25
  0
LTYPE
  5
411
  2
DASHED
 70
0
  3
Dashed __ __ __ __ __
 72
65
 73
2
 40
0.75
 49
0.5
 49
-0.25
  0
LTYPE
  5
43B
  2
DOTTED
 70
0
  3
Dotted .  .  .  .
 72
65
 73
2
 40
0.2
 49
0.0
 49
-0.2
  0
ENDTAB
  0
TABLE
  2
STYLE
  70
4
  0
STYLE
  2
KICAD
  70
0
  40
0
  41
1
  42
1
  50
0
  71
0
  3
isocp.shx
  0
STYLE
  2
KICADB
  70
0
  40
0
  41
1
  42
1
  50
0
  71
0
  3
isocp.shx
  0
STYLE
  2
KICADI
  70
0
  40
0
  41
1
  42
1
  50
15
  71
0
  3
isocp.shx
  0
STYLE
  2
KICADBI
  70
0
  40
0
  41
1
  42
1
  50
15
  71
0
  3
isocp.shx
  0
ENDTAB
  0
TABLE
  2
LAYER
  70
1
  0
LAYER
  2
BLACK
  70
0
  62
7
  6
CONTINUOUS
  0
ENDTAB
  0
ENDSEC
  0
SECTION
  2
ENTITIES
0
LINE
8
BLACK
6
CONTINUOUS
10
2.0681823622047242
20
-4.0106244094488188
11
2.0818485433070864
21
-4.0137436220472438
0
LINE
8
BLACK
6
CONTINUOUS
10
2.0818485433070864
20
-4.0137436220472438
11
2.0950795275590552
21
-4.0183733070866143
0
LINE
8
BLACK
6
CONTINUOUS
10
2.0950795275590552
20
-4.0183733070866143
11
2.1077089370078741
21
-4.0244553543307084
0
LINE
8
BLACK
6
CONTINUOUS
10
2.1077089370078741
20
-4.0244553543307084
11
2.1195779921259841
21
-4.0319131496062992
0
LINE
8
BLACK
6
CONTINUOUS
10
2.1195779921259841
20
-4.0319131496062992
11
2.1305374015748031
21
-4.0406529921259837
0
LINE
8
BLACK
6
CONTINUOUS
10
2.1305374015748031
20
-4.0406529921259837
11
2.1404493700787399
21
-4.050564960629921
0
LINE
8
BLACK
6
CONTINUOUS
10
2.1404493700787399
20
-4.050564960629921
11
2.1491892125984253
21
-4.0615243700787405
0
LINE
8
BLACK
6
CONTINUOUS
10
2.1491892125984253
20
-4.0615243700787405
11
2.1566470078740156
21
-4.0733934251968504
0
LINE
8
BLACK
6
CONTINUOUS
10
2.1566470078740156
20
-4.0733934251968504
11
2.1627290551181102
21
-4.0860228346456688
0
LINE
8
BLACK
6
CONTINUOUS
10
2.1627290551181102
20
-4.0860228346456688
11
2.1673587401574803
21
-4.0992538188976377
0
LINE
8
BLACK
6
CONTINUOUS
10
2.1673587401574803
20
-4.0992538188976377
11
2.1704779527559053
21
-4.1129199999999999
0
LINE
8
BLACK
6
CONTINUOUS
10
2.1704779527559053
20
-4.1129199999999999
11
2.172047440944882
21
-4.1268494488188976
0
LINE
8
BLACK
6
CONTINUOUS
10
2.172047440944882
20
-4.1268494488188976
11
2.172047440944882
21
-4.1408670866141728
0
LINE
8
BLACK
6
CONTINUOUS
10
2.172047440944882
20
-4.1408670866141728
11
2.1704779527559053
21
-4.1547965354330705
0
LINE
8
BLACK
6
CONTINUOUS
10
2.1704779527559053
20
-4.1547965354330705
11
2.1673587401574803
21
-4.1684627165354327
0
LINE
8
BLACK
6
CONTINUOUS
10
2.1673587401574803
20
-4.1684627165354327
11
2.1627290551181102
21
-4.1816937007874015
0
LINE
8
BLACK
6
CONTINUOUS
10
2.1627290551181102
20
-4.1816937007874015
11
2.1566470078740156
21
-4.19432311023622
0
LINE
8
BLACK
6
CONTINUOUS
10
2.1566470078740156
20
-4.19432311023622
11
2.1491892125984253
21
-4.2061921653543308
0
LINE
8
BLACK
6
CONTINUOUS
10
2.1491892125984253
20
-4.2061921653543308
11
2.1404493700787399
21
-4.2171515748031494
0
LINE
8
BLACK
6
CONTINUOUS
10
2.1404493700787399
20
-4.2171515748031494
11
2.1305374015748031
21
-4.2270635433070867
0
LINE
8
BLACK
6
CONTINUOUS
10
2.1305374015748031
20
-4.2270635433070867
11
2.1195779921259841
21
-4.2358033858267712
0
LINE
8
BLACK
6
CONTINUOUS
10
2.1195779921259841
20
-4.2358033858267712
11
2.1077089370078741
21
-4.2432611811023619
0
LINE
8
BLACK
6
CONTINUOUS
10
2.1077089370078741
20
-4.2432611811023619
11
2.0950795275590552
21
-4.2493432283464569
0
LINE
8
BLACK
6
CONTINUOUS
10
2.0950795275590552
20
-4.2493432283464569
11
2.0818485433070864
21
-4.2539729133858266
0
LINE
8
BLACK
6
CONTINUOUS
10
2.0818485433070864
20
-4.2539729133858266
11
2.0681823622047242
21
-4.2570921259842516
0
LINE
8
BLACK
6
CONTINUOUS
10
2.0681823622047242
20
-4.2570921259842516
11
2.0542529133858269
21
-4.2586616141732279
0
LINE
8
BLACK
6
CONTINUOUS
10
2.0542529133858269
20
-4.2586616141732279
11
2.0402352755905513
21
-4.2586616141732279
0
LINE
8
BLACK
6
CONTINUOUS
10
2.0402352755905513
20
-4.2586616141732279
11
2.0263058267716536
21
-4.2570921259842516
0
LINE
8
BLACK
6
CONTINUOUS
10
2.0263058267716536
20
-4.2570921259842516
11
2.0126396456692914
21
-4.2539729133858266
0
LINE
8
BLACK
6
CONTINUOUS
10
2.0126396456692914
20
-4.2539729133858266
11
1.9994086614173228
21
-4.2493432283464569
0
LINE
8
BLACK
6
CONTINUOUS
10
1.9994086614173228
20
-4.2493432283464569
11
1.9867792519685039
21
-4.2432611811023619
0
LINE
8
BLACK
6
CONTINUOUS
10
1.9867792519685039
20
-4.2432611811023619
11
1.9749101968503937
21
-4.2358033858267712
0
LINE
8
BLACK
6
CONTINUOUS
10
1.9749101968503937
20
-4.2358033858267712
11
1.9639507874015747
21
-4.2270635433070867
0
LINE
8
BLACK
6
CONTINUOUS
10
1.9639507874015747
20
-4.2270635433070867
11
1.9540388188976376
21
-4.2171515748031494
0
LINE
8
BLACK
6
CONTINUOUS
10
1.9540388188976376
20
-4.2171515748031494
11
1.9452989763779527
21
-4.2061921653543308
0
LINE
8
BLACK
6
CONTINUOUS
10
1.9452989763779527
20
-4.2061921653543308
11
1.9378411811023621
21
-4.19432311023622
0
LINE
8
BLACK
6
CONTINUOUS
10
1.9378411811023621
20
-4.19432311023622
11
1.9317591338582676
21
-4.1816937007874015
0
LINE
8
BLACK
6
CONTINUOUS
10
1.9317591338582676
20
-4.1816937007874015
11
1.9271294488188977
21
-4.1684627165354327
0
LINE
8
BLACK
6
CONTINUOUS
10
1.9271294488188977
20
-4.1684627165354327
11
1.9240102362204723
21
-4.1547965354330705
0
LINE
8
BLACK
6
CONTINUOUS
10
1.9240102362204723
20
-4.1547965354330705
11
1.922440748031496
21
-4.1408670866141728
0
LINE
8
BLACK
6
CONTINUOUS
10
1.922440748031496
20
-4.1408670866141728
11
1.922440748031496
21
-4.1271700787401571
0
LINE
8
BLACK
6
CONTINUOUS
10
1.922440748031496
20
-4.1271700787401571
11
1.922440748031496
21
-4.1268494488188976
0
LINE
8
BLACK
6
CONTINUOUS
10
1.922440748031496
20
-4.1268494488188976
11
1.9240102362204723
21
-4.1129199999999999
0
LINE
8
BLACK
6
CONTINUOUS
10
1.9240102362204723
20
-4.1129199999999999
11
1.9271294488188977
21
-4.0992538188976377
0
LINE
8
BLACK
6
CONTINUOUS
10
1.9271294488188977
20
-4.0992538188976377
11
1.9317591338582676
21
-4.0860228346456688
0
LINE
8
BLACK
6
CONTINUOUS
10
1.9317591338582676
20
-4.0860228346456688
11
1.9378411811023621
21
-4.0733934251968504
0
LINE
8
BLACK
6
CONTINUOUS
10
1.9378411811023621
20
-4.0733934251968504
11
1.9452989763779527
21
-4.0615243700787405
0
LINE
8
BLACK
6
CONTINUOUS
10
1.9452989763779527
20
-4.0615243700787405
11
1.9540388188976376
21
-4.050564960629921
0
LINE
8
BLACK
6
CONTINUOUS
10
1.9540388188976376
20
-4.050564960629921
11
1.9639507874015747
21
-4.0406529921259837
0
LINE
8
BLACK
6
CONTINUOUS
10
1.9639507874015747
20
-4.0406529921259837
11
1.9749101968503937
21
-4.0319131496062992
0
LINE
8
BLACK
6
CONTINUOUS
10
1.9749101968503937
20
-4.0319131496062992
11
1.9867792519685039
21
-4.0244553543307084
0
LINE
8
BLACK
6
CONTINUOUS
10
1.9867792519685039
20
-4.0244553543307084
11
1.9994086614173228
21
-4.0183733070866143
0
LINE
8
BLACK
6
CONTINUOUS
10
1.9994086614173228
20
-4.0183733070866143
11
2.0126396456692914
21
-4.0137436220472438
0
LINE
8
BLACK
6
CONTINUOUS
10
2.0126396456692914
20
-4.0137436220472438
11
2.0263058267716536
21
-4.0106244094488188
0
LINE
8
BLACK
6
CONTINUOUS
10
2.0263058267716536
20
-4.0106244094488188
11
2.0402352755905513
21
-4.0090549212598425
0
LINE
8
BLACK
6
CONTINUOUS
10
2.0402352755905513
20
-4.0090549212598425
11
2.0542529133858269
21
-4.0090549212598425
0
LINE
8
BLACK
6
CONTINUOUS
10
2.0542529133858269
20
-4.0090549212598425
11
2.0681823622047242
21
-4.0106244094488188
0
LINE
8
BLACK
6
CONTINUOUS
10
1.9281496062992125
20
-4.1405464566929133
11
1.9296473228346456
21
-4.1538387795275593
0
LINE
8
BLACK
6
CONTINUOUS
10
1.9296473228346456
20
-4.1538387795275593
11
1.9326238188976377
21
-4.1668798031496062
0
LINE
8
BLACK
6
CONTINUOUS
10
1.9326238188976377
20
-4.1668798031496062
11
1.9370417716535433
21
-4.1795055511811023
0
LINE
8
BLACK
6
CONTINUOUS
10
1.9370417716535433
20
-4.1795055511811023
11
1.942845590551181
21
-4.1915572834645669
0
LINE
8
BLACK
6
CONTINUOUS
10
1.942845590551181
20
-4.1915572834645669
11
1.9499622440944882
21
-4.2028834251968501
0
LINE
8
BLACK
6
CONTINUOUS
10
1.9499622440944882
20
-4.2028834251968501
11
1.9583023228346457
21
-4.2133414960629922
0
LINE
8
BLACK
6
CONTINUOUS
10
1.9583023228346457
20
-4.2133414960629922
11
1.9677608661417323
21
-4.2228000393700791
0
LINE
8
BLACK
6
CONTINUOUS
10
1.9677608661417323
20
-4.2228000393700791
11
1.978218937007874
21
-4.2311401181102362
0
LINE
8
BLACK
6
CONTINUOUS
10
1.978218937007874
20
-4.2311401181102362
11
1.9895450787401574
21
-4.2382567716535435
0
LINE
8
BLACK
6
CONTINUOUS
10
1.9895450787401574
20
-4.2382567716535435
11
2.0015968110236222
21
-4.2440605905511806
0
LINE
8
BLACK
6
CONTINUOUS
10
2.0015968110236222
20
-4.2440605905511806
11
2.0142225590551179
21
-4.2484785433070869
0
LINE
8
BLACK
6
CONTINUOUS
10
2.0142225590551179
20
-4.2484785433070869
11
2.0272635826771652
21
-4.2514550393700787
0
LINE
8
BLACK
6
CONTINUOUS
10
2.0272635826771652
20
-4.2514550393700787
11
2.0405559055118108
21
-4.252952755905512
0
LINE
8
BLACK
6
CONTINUOUS
10
2.0405559055118108
20
-4.252952755905512
11
2.053932283464567
21
-4.252952755905512
0
LINE
8
BLACK
6
CONTINUOUS
10
2.053932283464567
20
-4.252952755905512
11
2.0672246062992126
21
-4.2514550393700787
0
LINE
8
BLACK
6
CONTINUOUS
10
2.0672246062992126
20
-4.2514550393700787
11
2.0802656299212599
21
-4.2484785433070869
0
LINE
8
BLACK
6
CONTINUOUS
10
2.0802656299212599
20
-4.2484785433070869
11
2.092891377952756
21
-4.2440605905511806
0
LINE
8
BLACK
6
CONTINUOUS
10
2.092891377952756
20
-4.2440605905511806
11
2.1049431102362206
21
-4.2382567716535435
0
LINE
8
BLACK
6
CONTINUOUS
10
2.1049431102362206
20
-4.2382567716535435
11
2.1162692519685038
21
-4.2311401181102362
0
LINE
8
BLACK
6
CONTINUOUS
10
2.1162692519685038
20
-4.2311401181102362
11
2.1267273228346455
21
-4.2228000393700791
0
LINE
8
BLACK
6
CONTINUOUS
10
2.1267273228346455
20
-4.2228000393700791
11
2.1361858661417323
21
-4.2133414960629922
0
LINE
8
BLACK
6
CONTINUOUS
10
2.1361858661417323
20
-4.2133414960629922
11
2.1445259448818899
21
-4.2028834251968501
0
LINE
8
BLACK
6
CONTINUOUS
10
2.1445259448818899
20
-4.2028834251968501
11
2.1516425984251968
21
-4.1915572834645669
0
LINE
8
BLACK
6
CONTINUOUS
10
2.1516425984251968
20
-4.1915572834645669
11
2.1574464173228347
21
-4.1795055511811023
0
LINE
8
BLACK
6
CONTINUOUS
10
2.1574464173228347
20
-4.1795055511811023
11
2.1618643700787401
21
-4.1668798031496062
0
LINE
8
BLACK
6
CONTINUOUS
10
2.1618643700787401
20
-4.1668798031496062
11
2.1648408661417324
21
-4.1538387795275593
0
LINE
8
BLACK
6
CONTINUOUS
10
2.1648408661417324
20
-4.1538387795275593
11
2.1663385826771653
21
-4.1405464566929133
0
LINE
8
BLACK
6
CONTINUOUS
10
2.1663385826771653
20
-4.1405464566929133
11
2.1663385826771653
21
-4.1271700787401571
0
LINE
8
BLACK
6
CONTINUOUS
10
2.1663385826771653
20
-4.1271700787401571
11
2.1648408661417324
21
-4.113877755905512
0
LINE
8
BLACK
6
CONTINUOUS
10
2.1648408661417324
20
-4.113877755905512
11
2.1618643700787401
21
-4.1008367322834642
0
LINE
8
BLACK
6
CONTINUOUS
10
2.1618643700787401
20
-4.1008367322834642
11
2.1574464173228347
21
-4.088210984251968
0
LINE
8
BLACK
6
CONTINUOUS
10
2.1574464173228347
20
-4.088210984251968
11
2.1516425984251968
21
-4.0761592519685035
0
LINE
8
BLACK
6
CONTINUOUS
10
2.1516425984251968
20
-4.0761592519685035
11
2.1445259448818899
21
-4.0648331102362203
0
LINE
8
BLACK
6
CONTINUOUS
10
2.1445259448818899
20
-4.0648331102362203
11
2.1361858661417323
21
-4.054375039370079
0
LINE
8
BLACK
6
CONTINUOUS
10
2.1361858661417323
20
-4.054375039370079
11
2.1267273228346455
21
-4.0449164960629922
0
LINE
8
BLACK
6
CONTINUOUS
10
2.1267273228346455
20
-4.0449164960629922
11
2.1162692519685038
21
-4.0365764173228342
0
LINE
8
BLACK
6
CONTINUOUS
10
2.1162692519685038
20
-4.0365764173228342
11
2.1049431102362206
21
-4.0294597637795277
0
LINE
8
BLACK
6
CONTINUOUS
10
2.1049431102362206
20
-4.0294597637795277
11
2.092891377952756
21
-4.0236559448818898
0
LINE
8
BLACK
6
CONTINUOUS
10
2.092891377952756
20
-4.0236559448818898
11
2.0802656299212599
21
-4.0192379921259844
0
LINE
8
BLACK
6
CONTINUOUS
10
2.0802656299212599
20
-4.0192379921259844
11
2.0672246062992126
21
-4.0162614960629917
0
LINE
8
BLACK
6
CONTINUOUS
10
2.0672246062992126
20
-4.0162614960629917
11
2.053932283464567
21
-4.0147637795275593
0
LINE
8
BLACK
6
CONTINUOUS
10
2.053932283464567
20
-4.0147637795275593
11
2.0405559055118108
21
-4.0147637795275593
0
LINE
8
BLACK
6
CONTINUOUS
10
2.0405559055118108
20
-4.0147637795275593
11
2.0272635826771652
21
-4.0162614960629917
0
LINE
8
BLACK
6
CONTINUOUS
10
2.0272635826771652
20
-4.0162614960629917
11
2.0142225590551179
21
-4.0192379921259844
0
LINE
8
BLACK
6
CONTINUOUS
10
2.0142225590551179
20
-4.0192379921259844
11
2.0015968110236222
21
-4.0236559448818898
0
LINE
8
BLACK
6
CONTINUOUS
10
2.0015968110236222
20
-4.0236559448818898
11
1.9895450787401574
21
-4.0294597637795277
0
LINE
8
BLACK
6
CONTINUOUS
10
1.9895450787401574
20
-4.0294597637795277
11
1.978218937007874
21
-4.0365764173228342
0
LINE
8
BLACK
6
CONTINUOUS
10
1.978218937007874
20
-4.0365764173228342
11
1.9677608661417323
21
-4.0449164960629922
0
LINE
8
BLACK
6
CONTINUOUS
10
1.9677608661417323
20
-4.0449164960629922
11
1.9583023228346457
21
-4.054375039370079
0
LINE
8
BLACK
6
CONTINUOUS
10
1.9583023228346457
20
-4.054375039370079
11
1.9499622440944882
21
-4.0648331102362203
0
LINE
8
BLACK
6
CONTINUOUS
10
1.9499622440944882
20
-4.0648331102362203
11
1.942845590551181
21
-4.0761592519685035
0
LINE
8
BLACK
6
CONTINUOUS
10
1.942845590551181
20
-4.0761592519685035
11
1.9370417716535433
21
-4.088210984251968
0
LINE
8
BLACK
6
CONTINUOUS
10
1.9370417716535433
20
-4.088210984251968
11
1.9326238188976377
21
-4.1008367322834642
0
LINE
8
BLACK
6
CONTINUOUS
10
1.9326238188976377
20
-4.1008367322834642
11
1.9296473228346456
21
-4.113877755905512
0
LINE
8
BLACK
6
CONTINUOUS
10
1.9296473228346456
20
-4.113877755905512
11
1.9281496062992125
21
-4.1271700787401571
0
LINE
8
BLACK
6
CONTINUOUS
10
1.9281496062992125
20
-4.1271700787401571
11
1.9281496062992125
21
-4.1405464566929133
0
LINE
8
BLACK
6
CONTINUOUS
10
4.3516469291338584
20
-4.0106244094488188
11
4.3653131102362206
21
-4.0137436220472438
0
LINE
8
BLACK
6
CONTINUOUS
10
4.3653131102362206
20
-4.0137436220472438
11
4.3785440944881886
21
-4.0183733070866143
0
LINE
8
BLACK
6
CONTINUOUS
10
4.3785440944881886
20
-4.0183733070866143
11
4.3911735039370079
21
-4.0244553543307084
0
LINE
8
BLACK
6
CONTINUOUS
10
4.3911735039370079
20
-4.0244553543307084
11
4.4030425590551179
21
-4.0319131496062992
0
LINE
8
BLACK
6
CONTINUOUS
10
4.4030425590551179
20
-4.0319131496062992
11
4.4140019685039373
21
-4.0406529921259837
0
LINE
8
BLACK
6
CONTINUOUS
10
4.4140019685039373
20
-4.0406529921259837
11
4.4239139370078737
21
-4.050564960629921
0
LINE
8
BLACK
6
CONTINUOUS
10
4.4239139370078737
20
-4.050564960629921
11
4.4326537795275591
21
-4.0615243700787405
0
LINE
8
BLACK
6
CONTINUOUS
10
4.4326537795275591
20
-4.0615243700787405
11
4.4401115748031499
21
-4.0733934251968504
0
LINE
8
BLACK
6
CONTINUOUS
10
4.4401115748031499
20
-4.0733934251968504
11
4.446193622047244
21
-4.0860228346456688
0
LINE
8
BLACK
6
CONTINUOUS
10
4.446193622047244
20
-4.0860228346456688
11
4.4508233070866137
21
-4.0992538188976377
0
LINE
8
BLACK
6
CONTINUOUS
10
4.4508233070866137
20
-4.0992538188976377
11
4.4539425196850395
21
-4.1129199999999999
0
LINE
8
BLACK
6
CONTINUOUS
10
4.4539425196850395
20
-4.1129199999999999
11
4.4555120078740158
21
-4.1268494488188976
0
LINE
8
BLACK
6
CONTINUOUS
10
4.4555120078740158
20
-4.1268494488188976
11
4.4555120078740158
21
-4.1408670866141728
0
LINE
8
BLACK
6
CONTINUOUS
10
4.4555120078740158
20
-4.1408670866141728
11
4.4539425196850395
21
-4.1547965354330705
0
LINE
8
BLACK
6
CONTINUOUS
10
4.4539425196850395
20
-4.1547965354330705
11
4.4508233070866137
21
-4.1684627165354327
0
LINE
8
BLACK
6
CONTINUOUS
10
4.4508233070866137
20
-4.1684627165354327
11
4.446193622047244
21
-4.1816937007874015
0
LINE
8
BLACK
6
CONTINUOUS
10
4.446193622047244
20
-4.1816937007874015
11
4.4401115748031499
21
-4.19432311023622
0
LINE
8
BLACK
6
CONTINUOUS
10
4.4401115748031499
20
-4.19432311023622
11
4.4326537795275591
21
-4.2061921653543308
0
LINE
8
BLACK
6
CONTINUOUS
10
4.4326537795275591
20
-4.2061921653543308
11
4.4239139370078737
21
-4.2171515748031494
0
LINE
8
BLACK
6
CONTINUOUS
10
4.4239139370078737
20
-4.2171515748031494
11
4.4140019685039373
21
-4.2270635433070867
0
LINE
8
BLACK
6
CONTINUOUS
10
4.4140019685039373
20
-4.2270635433070867
11
4.4030425590551179
21
-4.2358033858267712
0
LINE
8
BLACK
6
CONTINUOUS
10
4.4030425590551179
20
-4.2358033858267712
11
4.3911735039370079
21
-4.2432611811023619
0
LINE
8
BLACK
6
CONTINUOUS
10
4.3911735039370079
20
-4.2432611811023619
11
4.3785440944881886
21
-4.2493432283464569
0
LINE
8
BLACK
6
CONTINUOUS
10
4.3785440944881886
20
-4.2493432283464569
11
4.3653131102362206
21
-4.2539729133858266
0
LINE
8
BLACK
6
CONTINUOUS
10
4.3653131102362206
20
-4.2539729133858266
11
4.3516469291338584
21
-4.2570921259842516
0
LINE
8
BLACK
6
CONTINUOUS
10
4.3516469291338584
20
-4.2570921259842516
11
4.3377174803149607
21
-4.2586616141732279
0
LINE
8
BLACK
6
CONTINUOUS
10
4.3377174803149607
20
-4.2586616141732279
11
4.3236998425196846
21
-4.2586616141732279
0
LINE
8
BLACK
6
CONTINUOUS
10
4.3236998425196846
20
-4.2586616141732279
11
4.309770393700787
21
-4.2570921259842516
0
LINE
8
BLACK
6
CONTINUOUS
10
4.309770393700787
20
-4.2570921259842516
11
4.2961042125984248
21
-4.2539729133858266
0
LINE
8
BLACK
6
CONTINUOUS
10
4.2961042125984248
20
-4.2539729133858266
11
4.2828732283464568
21
-4.2493432283464569
0
LINE
8
BLACK
6
CONTINUOUS
10
4.2828732283464568
20
-4.2493432283464569
11
4.2702438188976375
21
-4.2432611811023619
0
LINE
8
BLACK
6
CONTINUOUS
10
4.2702438188976375
20
-4.2432611811023619
11
4.2583747637795275
21
-4.2358033858267712
0
LINE
8
BLACK
6
CONTINUOUS
10
4.2583747637795275
20
-4.2358033858267712
11
4.2474153543307089
21
-4.2270635433070867
0
LINE
8
BLACK
6
CONTINUOUS
10
4.2474153543307089
20
-4.2270635433070867
11
4.2375033858267717
21
-4.2171515748031494
0
LINE
8
BLACK
6
CONTINUOUS
10
4.2375033858267717
20
-4.2171515748031494
11
4.2287635433070863
21
-4.2061921653543308
0
LINE
8
BLACK
6
CONTINUOUS
10
4.2287635433070863
20
-4.2061921653543308
11
4.2213057480314964
21
-4.19432311023622
0
LINE
8
BLACK
6
CONTINUOUS
10
4.2213057480314964
20
-4.19432311023622
11
4.2152237007874014
21
-4.1816937007874015
0
LINE
8
BLACK
6
CONTINUOUS
10
4.2152237007874014
20
-4.1816937007874015
11
4.2105940157480317
21
-4.1684627165354327
0
LINE
8
BLACK
6
CONTINUOUS
10
4.2105940157480317
20
-4.1684627165354327
11
4.2074748031496059
21
-4.1547965354330705
0
LINE
8
BLACK
6
CONTINUOUS
10
4.2074748031496059
20
-4.1547965354330705
11
4.2059053149606296
21
-4.1408670866141728
0
LINE
8
BLACK
6
CONTINUOUS
10
4.2059053149606296
20
-4.1408670866141728
11
4.2059053149606296
21
-4.1271700787401571
0
LINE
8
BLACK
6
CONTINUOUS
10
4.2059053149606296
20
-4.1271700787401571
11
4.2059053149606296
21
-4.1268494488188976
0
LINE
8
BLACK
6
CONTINUOUS
10
4.2059053149606296
20
-4.1268494488188976
11
4.2074748031496059
21
-4.1129199999999999
0
LINE
8
BLACK
6
CONTINUOUS
10
4.2074748031496059
20
-4.1129199999999999
11
4.2105940157480317
21
-4.0992538188976377
0
LINE
8
BLACK
6
CONTINUOUS
10
4.2105940157480317
20
-4.0992538188976377
11
4.2152237007874014
21
-4.0860228346456688
0
LINE
8
BLACK
6
CONTINUOUS
10
4.2152237007874014
20
-4.0860228346456688
11
4.2213057480314964
21
-4.0733934251968504
0
LINE
8
BLACK
6
CONTINUOUS
10
4.2213057480314964
20
-4.0733934251968504
11
4.2287635433070863
21
-4.0615243700787405
0
LINE
8
BLACK
6
CONTINUOUS
10
4.2287635433070863
20
-4.0615243700787405
11
4.2375033858267717
21
-4.050564960629921
0
LINE
8
BLACK
6
CONTINUOUS
10
4.2375033858267717
20
-4.050564960629921
11
4.2474153543307089
21
-4.0406529921259837
0
LINE
8
BLACK
6
CONTINUOUS
10
4.2474153543307089
20
-4.0406529921259837
11
4.2583747637795275
21
-4.0319131496062992
0
LINE
8
BLACK
6
CONTINUOUS
10
4.2583747637795275
20
-4.0319131496062992
11
4.2702438188976375
21
-4.0244553543307084
0
LINE
8
BLACK
6
CONTINUOUS
10
4.2702438188976375
20
-4.0244553543307084
11
4.2828732283464568
21
-4.0183733070866143
0
LINE
8
BLACK
6
CONTINUOUS
10
4.2828732283464568
20
-4.0183733070866143
11
4.2961042125984248
21
-4.0137436220472438
0
LINE
8
BLACK
6
CONTINUOUS
10
4.2961042125984248
20
-4.0137436220472438
11
4.309770393700787
21
-4.0106244094488188
0
LINE
8
BLACK
6
CONTINUOUS
10
4.309770393700787
20
-4.0106244094488188
11
4.3236998425196846
21
-4.0090549212598425
0
LINE
8
BLACK
6
CONTINUOUS
10
4.3236998425196846
20
-4.0090549212598425
11
4.3377174803149607
21
-4.0090549212598425
0
LINE
8
BLACK
6
CONTINUOUS
10
4.3377174803149607
20
-4.0090549212598425
11
4.3516469291338584
21
-4.0106244094488188
0
LINE
8
BLACK
6
CONTINUOUS
10
4.2116141732283463
20
-4.1405464566929133
11
4.2131118897637796
21
-4.1538387795275593
0
LINE
8
BLACK
6
CONTINUOUS
10
4.2131118897637796
20
-4.1538387795275593
11
4.2160883858267715
21
-4.1668798031496062
0
LINE
8
BLACK
6
CONTINUOUS
10
4.2160883858267715
20
-4.1668798031496062
11
4.2205063385826769
21
-4.1795055511811023
0
LINE
8
BLACK
6
CONTINUOUS
10
4.2205063385826769
20
-4.1795055511811023
11
4.2263101574803148
21
-4.1915572834645669
0
LINE
8
BLACK
6
CONTINUOUS
10
4.2263101574803148
20
-4.1915572834645669
11
4.2334268110236222
21
-4.2028834251968501
0
LINE
8
BLACK
6
CONTINUOUS
10
4.2334268110236222
20
-4.2028834251968501
11
4.2417668897637792
21
-4.2133414960629922
0
LINE
8
BLACK
6
CONTINUOUS
10
4.2417668897637792
20
-4.2133414960629922
11
4.2512254330708661
21
-4.2228000393700791
0
LINE
8
BLACK
6
CONTINUOUS
10
4.2512254330708661
20
-4.2228000393700791
11
4.2616835039370073
21
-4.2311401181102362
0
LINE
8
BLACK
6
CONTINUOUS
10
4.2616835039370073
20
-4.2311401181102362
11
4.2730096456692914
21
-4.2382567716535435
0
LINE
8
BLACK
6
CONTINUOUS
10
4.2730096456692914
20
-4.2382567716535435
11
4.285061377952756
21
-4.2440605905511806
0
LINE
8
BLACK
6
CONTINUOUS
10
4.285061377952756
20
-4.2440605905511806
11
4.2976871259842522
21
-4.2484785433070869
0
LINE
8
BLACK
6
CONTINUOUS
10
4.2976871259842522
20
-4.2484785433070869
11
4.310728149606299
21
-4.2514550393700787
0
LINE
8
BLACK
6
CONTINUOUS
10
4.310728149606299
20
-4.2514550393700787
11
4.324020472440945
21
-4.252952755905512
0
LINE
8
BLACK
6
CONTINUOUS
10
4.324020472440945
20
-4.252952755905512
11
4.3373968503937004
21
-4.252952755905512
0
LINE
8
BLACK
6
CONTINUOUS
10
4.3373968503937004
20
-4.252952755905512
11
4.3506891732283464
21
-4.2514550393700787
0
LINE
8
BLACK
6
CONTINUOUS
10
4.3506891732283464
20
-4.2514550393700787
11
4.3637301968503932
21
-4.2484785433070869
0
LINE
8
BLACK
6
CONTINUOUS
10
4.3637301968503932
20
-4.2484785433070869
11
4.3763559448818894
21
-4.2440605905511806
0
LINE
8
BLACK
6
CONTINUOUS
10
4.3763559448818894
20
-4.2440605905511806
11
4.388407677165354
21
-4.2382567716535435
0
LINE
8
BLACK
6
CONTINUOUS
10
4.388407677165354
20
-4.2382567716535435
11
4.399733818897638
21
-4.2311401181102362
0
LINE
8
BLACK
6
CONTINUOUS
10
4.399733818897638
20
-4.2311401181102362
11
4.4101918897637793
21
-4.2228000393700791
0
LINE
8
BLACK
6
CONTINUOUS
10
4.4101918897637793
20
-4.2228000393700791
11
4.4196504330708661
21
-4.2133414960629922
0
LINE
8
BLACK
6
CONTINUOUS
10
4.4196504330708661
20
-4.2133414960629922
11
4.4279905118110232
21
-4.2028834251968501
0
LINE
8
BLACK
6
CONTINUOUS
10
4.4279905118110232
20
-4.2028834251968501
11
4.4351071653543306
21
-4.1915572834645669
0
LINE
8
BLACK
6
CONTINUOUS
10
4.4351071653543306
20
-4.1915572834645669
11
4.4409109842519685
21
-4.1795055511811023
0
LINE
8
BLACK
6
CONTINUOUS
10
4.4409109842519685
20
-4.1795055511811023
11
4.4453289370078739
21
-4.1668798031496062
0
LINE
8
BLACK
6
CONTINUOUS
10
4.4453289370078739
20
-4.1668798031496062
11
4.4483054330708658
21
-4.1538387795275593
0
LINE
8
BLACK
6
CONTINUOUS
10
4.4483054330708658
20
-4.1538387795275593
11
4.4498031496062991
21
-4.1405464566929133
0
LINE
8
BLACK
6
CONTINUOUS
10
4.4498031496062991
20
-4.1405464566929133
11
4.4498031496062991
21
-4.1271700787401571
0
LINE
8
BLACK
6
CONTINUOUS
10
4.4498031496062991
20
-4.1271700787401571
11
4.4483054330708658
21
-4.113877755905512
0
LINE
8
BLACK
6
CONTINUOUS
10
4.4483054330708658
20
-4.113877755905512
11
4.4453289370078739
21
-4.1008367322834642
0
LINE
8
BLACK
6
CONTINUOUS
10
4.4453289370078739
20
-4.1008367322834642
11
4.4409109842519685
21
-4.088210984251968
0
LINE
8
BLACK
6
CONTINUOUS
10
4.4409109842519685
20
-4.088210984251968
11
4.4351071653543306
21
-4.0761592519685035
0
LINE
8
BLACK
6
CONTINUOUS
10
4.4351071653543306
20
-4.0761592519685035
11
4.4279905118110232
21
-4.0648331102362203
0
LINE
8
BLACK
6
CONTINUOUS
10
4.4279905118110232
20
-4.0648331102362203
11
4.4196504330708661
21
-4.054375039370079
0
LINE
8
BLACK
6
CONTINUOUS
10
4.4196504330708661
20
-4.054375039370079
11
4.4101918897637793
21
-4.0449164960629922
0
LINE
8
BLACK
6
CONTINUOUS
10
4.4101918897637793
20
-4.0449164960629922
11
4.399733818897638
21
-4.0365764173228342
0
LINE
8
BLACK
6
CONTINUOUS
10
4.399733818897638
20
-4.0365764173228342
11
4.388407677165354
21
-4.0294597637795277
0
LINE
8
BLACK
6
CONTINUOUS
10
4.388407677165354
20
-4.0294597637795277
11
4.3763559448818894
21
-4.0236559448818898
0
LINE
8
BLACK
6
CONTINUOUS
10
4.3763559448818894
20
-4.0236559448818898
11
4.3637301968503932
21
-4.0192379921259844
0
LINE
8
BLACK
6
CONTINUOUS
10
4.3637301968503932
20
-4.0192379921259844
11
4.3506891732283464
21
-4.0162614960629917
0
LINE
8
BLACK
6
CONTINUOUS
10
4.3506891732283464
20
-4.0162614960629917
11
4.3373968503937004
21
-4.0147637795275593
0
LINE
8
BLACK
6
CONTINUOUS
10
4.3373968503937004
20
-4.0147637795275593
11
4.324020472440945
21
-4.0147637795275593
0
LINE
8
BLACK
6
CONTINUOUS
10
4.324020472440945
20
-4.0147637795275593
11
4.310728149606299
21
-4.0162614960629917
0
LINE
8
BLACK
6
CONTINUOUS
10
4.310728149606299
20
-4.0162614960629917
11
4.2976871259842522
21
-4.0192379921259844
0
LINE
8
BLACK
6
CONTINUOUS
10
4.2976871259842522
20
-4.0192379921259844
11
4.285061377952756
21
-4.0236559448818898
0
LINE
8
BLACK
6
CONTINUOUS
10
4.285061377952756
20
-4.0236559448818898
11
4.2730096456692914
21
-4.0294597637795277
0
LINE
8
BLACK
6
CONTINUOUS
10
4.2730096456692914
20
-4.0294597637795277
11
4.2616835039370073
21
-4.0365764173228342
0
LINE
8
BLACK
6
CONTINUOUS
10
4.2616835039370073
20
-4.0365764173228342
11
4.2512254330708661
21
-4.0449164960629922
0
LINE
8
BLACK
6
CONTINUOUS
10
4.2512254330708661
20
-4.0449164960629922
11
4.2417668897637792
21
-4.054375039370079
0
LINE
8
BLACK
6
CONTINUOUS
10
4.2417668897637792
20
-4.054375039370079
11
4.2334268110236222
21
-4.0648331102362203
0
LINE
8
BLACK
6
CONTINUOUS
10
4.2334268110236222
20
-4.0648331102362203
11
4.2263101574803148
21
-4.0761592519685035
0
LINE
8
BLACK
6
CONTINUOUS
10
4.2263101574803148
20
-4.0761592519685035
11
4.2205063385826769
21
-4.088210984251968
0
LINE
8
BLACK
6
CONTINUOUS
10
4.2205063385826769
20
-4.088210984251968
11
4.2160883858267715
21
-4.1008367322834642
0
LINE
8
BLACK
6
CONTINUOUS
10
4.2160883858267715
20
-4.1008367322834642
11
4.2131118897637796
21
-4.113877755905512
0
LINE
8
BLACK
6
CONTINUOUS
10
4.2131118897637796
20
-4.113877755905512
11
4.2116141732283463
21
-4.1271700787401571
0
LINE
8
BLACK
6
CONTINUOUS
10
4.2116141732283463
20
-4.1271700787401571
11
4.2116141732283463
21
-4.1405464566929133
0
LINE
8
BLACK
6
CONTINUOUS
10
4.4094317716535434
20
-3.447909566929134
11
4.4099644488188972
21
-3.4484422440944882
0
LINE
8
BLACK
6
CONTINUOUS
10
4.4099644488188972
20
-3.4484422440944882
11
4.4100393700787404
21
-3.4488188976377954
0
LINE
8
BLACK
6
CONTINUOUS
10
4.4100393700787404
20
-3.4488188976377954
11
4.4100393700787404
21
-3.7893700787401574
0
LINE
8
BLACK
6
CONTINUOUS
10
4.4100393700787404
20
-3.7893700787401574
11
4.4099644488188972
21
-3.7897467322834646
0
LINE
8
BLACK
6
CONTINUOUS
10
4.4099644488188972
20
-3.7897467322834646
11
4.4094317716535434
21
-3.7902794094488188
0
LINE
8
BLACK
6
CONTINUOUS
10
4.4094317716535434
20
-3.7902794094488188
11
4.4090551181102358
21
-3.7903543307086611
0
LINE
8
BLACK
6
CONTINUOUS
10
4.4090551181102358
20
-3.7903543307086611
11
4.1688976377952756
21
-3.7903543307086611
0
LINE
8
BLACK
6
CONTINUOUS
10
4.1688976377952756
20
-3.7903543307086611
11
4.1685209842519688
21
-3.7902794094488188
0
LINE
8
BLACK
6
CONTINUOUS
10
4.1685209842519688
20
-3.7902794094488188
11
4.1679883070866142
21
-3.7897467322834646
0
LINE
8
BLACK
6
CONTINUOUS
10
4.1679883070866142
20
-3.7897467322834646
11
4.1679133858267718
21
-3.7893700787401574
0
LINE
8
BLACK
6
CONTINUOUS
10
4.1679133858267718
20
-3.7893700787401574
11
4.1679133858267718
21
-3.4488188976377954
0
LINE
8
BLACK
6
CONTINUOUS
10
4.1679133858267718
20
-3.4488188976377954
11
4.1679883070866142
21
-3.4484422440944882
0
LINE
8
BLACK
6
CONTINUOUS
10
4.1679883070866142
20
-3.4484422440944882
11
4.1685209842519688
21
-3.447909566929134
0
LINE
8
BLACK
6
CONTINUOUS
10
4.1685209842519688
20
-3.447909566929134
11
4.1688976377952756
21
-3.4478346456692912
0
LINE
8
BLACK
6
CONTINUOUS
10
4.1688976377952756
20
-3.4478346456692912
11
4.4090551181102358
21
-3.4478346456692912
0
LINE
8
BLACK
6
CONTINUOUS
10
4.4090551181102358
20
-3.4478346456692912
11
4.4094317716535434
21
-3.447909566929134
0
LINE
8
BLACK
6
CONTINUOUS
10
4.1698818897637793
20
-3.4498031496062991
11
4.1698818897637793
21
-3.7883858267716533
0
LINE
8
BLACK
6
CONTINUOUS
10
4.1698818897637793
20
-3.7883858267716533
11
4.408070866141732
21
-3.7883858267716533
0
LINE
8
BLACK
6
CONTINUOUS
10
4.408070866141732
20
-3.7883858267716533
11
4.408070866141732
21
-3.4498031496062991
0
LINE
8
BLACK
6
CONTINUOUS
10
4.408070866141732
20
-3.4498031496062991
11
4.1698818897637793
21
-3.4498031496062991
0
LINE
8
BLACK
6
CONTINUOUS
10
2.7637624803149605
20
-3.5124764960629919
11
2.7642951574803147
21
-3.5130091732283462
0
LINE
8
BLACK
6
CONTINUOUS
10
2.7642951574803147
20
-3.5130091732283462
11
2.7643700787401575
21
-3.5133858267716533
0
LINE
8
BLACK
6
CONTINUOUS
10
2.7643700787401575
20
-3.5133858267716533
11
2.7643700787401575
21
-3.753543307086614
0
LINE
8
BLACK
6
CONTINUOUS
10
2.7643700787401575
20
-3.753543307086614
11
2.7642951574803147
21
-3.7539199606299212
0
LINE
8
BLACK
6
CONTINUOUS
10
2.7642951574803147
20
-3.7539199606299212
11
2.7637624803149605
21
-3.7544526377952754
0
LINE
8
BLACK
6
CONTINUOUS
10
2.7637624803149605
20
-3.7544526377952754
11
2.7633858267716533
21
-3.7545275590551181
0
LINE
8
BLACK
6
CONTINUOUS
10
2.7633858267716533
20
-3.7545275590551181
11
2.4228346456692913
21
-3.7545275590551181
0
LINE
8
BLACK
6
CONTINUOUS
10
2.4228346456692913
20
-3.7545275590551181
11
2.4224579921259841
21
-3.7544526377952754
0
LINE
8
BLACK
6
CONTINUOUS
10
2.4224579921259841
20
-3.7544526377952754
11
2.4219253149606299
21
-3.7539199606299212
0
LINE
8
BLACK
6
CONTINUOUS
10
2.4219253149606299
20
-3.7539199606299212
11
2.4218503937007871
21
-3.753543307086614
0
LINE
8
BLACK
6
CONTINUOUS
10
2.4218503937007871
20
-3.753543307086614
11
2.4218503937007871
21
-3.5133858267716533
0
LINE
8
BLACK
6
CONTINUOUS
10
2.4218503937007871
20
-3.5133858267716533
11
2.4219253149606299
21
-3.5130091732283462
0
LINE
8
BLACK
6
CONTINUOUS
10
2.4219253149606299
20
-3.5130091732283462
11
2.4224579921259841
21
-3.5124764960629919
0
LINE
8
BLACK
6
CONTINUOUS
10
2.4224579921259841
20
-3.5124764960629919
11
2.4228346456692913
21
-3.5124015748031496
0
LINE
8
BLACK
6
CONTINUOUS
10
2.4228346456692913
20
-3.5124015748031496
11
2.7633858267716533
21
-3.5124015748031496
0
LINE
8
BLACK
6
CONTINUOUS
10
2.7633858267716533
20
-3.5124015748031496
11
2.7637624803149605
21
-3.5124764960629919
0
LINE
8
BLACK
6
CONTINUOUS
10
2.423818897637795
20
-3.5143700787401575
11
2.423818897637795
21
-3.7525590551181103
0
LINE
8
BLACK
6
CONTINUOUS
10
2.423818897637795
20
-3.7525590551181103
11
2.7624015748031496
21
-3.7525590551181103
0
LINE
8
BLACK
6
CONTINUOUS
10
2.7624015748031496
20
-3.7525590551181103
11
2.7624015748031496
21
-3.5143700787401575
0
LINE
8
BLACK
6
CONTINUOUS
10
2.7624015748031496
20
-3.5143700787401575
11
2.423818897637795
21
-3.5143700787401575
0
LINE
8
BLACK
6
CONTINUOUS
10
2.0681823622047242
20
-2.0814905511811022
11
2.0818485433070864
21
-2.0846097637795276
0
LINE
8
BLACK
6
CONTINUOUS
10
2.0818485433070864
20
-2.0846097637795276
11
2.0950795275590552
21
-2.0892394488188977
0
LINE
8
BLACK
6
CONTINUOUS
10
2.0950795275590552
20
-2.0892394488188977
11
2.1077089370078741
21
-2.0953214960629922
0
LINE
8
BLACK
6
CONTINUOUS
10
2.1077089370078741
20
-2.0953214960629922
11
2.1195779921259841
21
-2.1027792913385825
0
LINE
8
BLACK
6
CONTINUOUS
10
2.1195779921259841
20
-2.1027792913385825
11
2.1305374015748031
21
-2.1115191338582675
0
LINE
8
BLACK
6
CONTINUOUS
10
2.1305374015748031
20
-2.1115191338582675
11
2.1404493700787399
21
-2.1214311023622048
0
LINE
8
BLACK
6
CONTINUOUS
10
2.1404493700787399
20
-2.1214311023622048
11
2.1491892125984253
21
-2.1323905118110238
0
LINE
8
BLACK
6
CONTINUOUS
10
2.1491892125984253
20
-2.1323905118110238
11
2.1566470078740156
21
-2.1442595669291338
0
LINE
8
BLACK
6
CONTINUOUS
10
2.1566470078740156
20
-2.1442595669291338
11
2.1627290551181102
21
-2.1568889763779526
0
LINE
8
BLACK
6
CONTINUOUS
10
2.1627290551181102
20
-2.1568889763779526
11
2.1673587401574803
21
-2.1701199606299211
0
LINE
8
BLACK
6
CONTINUOUS
10
2.1673587401574803
20
-2.1701199606299211
11
2.1704779527559053
21
-2.1837861417322832
0
LINE
8
BLACK
6
CONTINUOUS
10
2.1704779527559053
20
-2.1837861417322832
11
2.172047440944882
21
-2.1977155905511809
0
LINE
8
BLACK
6
CONTINUOUS
10
2.172047440944882
20
-2.1977155905511809
11
2.172047440944882
21
-2.2117332283464566
0
LINE
8
BLACK
6
CONTINUOUS
10
2.172047440944882
20
-2.2117332283464566
11
2.1704779527559053
21
-2.2256626771653543
0
LINE
8
BLACK
6
CONTINUOUS
10
2.1704779527559053
20
-2.2256626771653543
11
2.1673587401574803
21
-2.2393288582677164
0
LINE
8
BLACK
6
CONTINUOUS
10
2.1673587401574803
20
-2.2393288582677164
11
2.1627290551181102
21
-2.2525598425196849
0
LINE
8
BLACK
6
CONTINUOUS
10
2.1627290551181102
20
-2.2525598425196849
11
2.1566470078740156
21
-2.2651892519685037
0
LINE
8
BLACK
6
CONTINUOUS
10
2.1566470078740156
20
-2.2651892519685037
11
2.1491892125984253
21
-2.2770583070866142
0
LINE
8
BLACK
6
CONTINUOUS
10
2.1491892125984253
20
-2.2770583070866142
11
2.1404493700787399
21
-2.2880177165354332
0
LINE
8
BLACK
6
CONTINUOUS
10
2.1404493700787399
20
-2.2880177165354332
11
2.1305374015748031
21
-2.29792968503937
0
LINE
8
BLACK
6
CONTINUOUS
10
2.1305374015748031
20
-2.29792968503937
11
2.1195779921259841
21
-2.306669527559055
0
LINE
8
BLACK
6
CONTINUOUS
10
2.1195779921259841
20
-2.306669527559055
11
2.1077089370078741
21
-2.3141273228346457
0
LINE
8
BLACK
6
CONTINUOUS
10
2.1077089370078741
20
-2.3141273228346457
11
2.0950795275590552
21
-2.3202093700787403
0
LINE
8
BLACK
6
CONTINUOUS
10
2.0950795275590552
20
-2.3202093700787403
11
2.0818485433070864
21
-2.3248390551181104
0
LINE
8
BLACK
6
CONTINUOUS
10
2.0818485433070864
20
-2.3248390551181104
11
2.0681823622047242
21
-2.3279582677165354
0
LINE
8
BLACK
6
CONTINUOUS
10
2.0681823622047242
20
-2.3279582677165354
11
2.0542529133858269
21
-2.3295277559055116
0
LINE
8
BLACK
6
CONTINUOUS
10
2.0542529133858269
20
-2.3295277559055116
11
2.0402352755905513
21
-2.3295277559055116
0
LINE
8
BLACK
6
CONTINUOUS
10
2.0402352755905513
20
-2.3295277559055116
11
2.0263058267716536
21
-2.3279582677165354
0
LINE
8
BLACK
6
CONTINUOUS
10
2.0263058267716536
20
-2.3279582677165354
11
2.0126396456692914
21
-2.3248390551181104
0
LINE
8
BLACK
6
CONTINUOUS
10
2.0126396456692914
20
-2.3248390551181104
11
1.9994086614173228
21
-2.3202093700787403
0
LINE
8
BLACK
6
CONTINUOUS
10
1.9994086614173228
20
-2.3202093700787403
11
1.9867792519685039
21
-2.3141273228346457
0
LINE
8
BLACK
6
CONTINUOUS
10
1.9867792519685039
20
-2.3141273228346457
11
1.9749101968503937
21
-2.306669527559055
0
LINE
8
BLACK
6
CONTINUOUS
10
1.9749101968503937
20
-2.306669527559055
11
1.9639507874015747
21
-2.29792968503937
0
LINE
8
BLACK
6
CONTINUOUS
10
1.9639507874015747
20
-2.29792968503937
11
1.9540388188976376
21
-2.2880177165354332
0
LINE
8
BLACK
6
CONTINUOUS
10
1.9540388188976376
20
-2.2880177165354332
11
1.9452989763779527
21
-2.2770583070866142
0
LINE
8
BLACK
6
CONTINUOUS
10
1.9452989763779527
20
-2.2770583070866142
11
1.9378411811023621
21
-2.2651892519685037
0
LINE
8
BLACK
6
CONTINUOUS
10
1.9378411811023621
20
-2.2651892519685037
11
1.9317591338582676
21
-2.2525598425196849
0
LINE
8
BLACK
6
CONTINUOUS
10
1.9317591338582676
20
-2.2525598425196849
11
1.9271294488188977
21
-2.2393288582677164
0
LINE
8
BLACK
6
CONTINUOUS
10
1.9271294488188977
20
-2.2393288582677164
11
1.9240102362204723
21
-2.2256626771653543
0
LINE
8
BLACK
6
CONTINUOUS
10
1.9240102362204723
20
-2.2256626771653543
11
1.922440748031496
21
-2.2117332283464566
0
LINE
8
BLACK
6
CONTINUOUS
10
1.922440748031496
20
-2.2117332283464566
11
1.922440748031496
21
-2.1980362204724408
0
LINE
8
BLACK
6
CONTINUOUS
10
1.922440748031496
20
-2.1980362204724408
11
1.922440748031496
21
-2.1977155905511809
0
LINE
8
BLACK
6
CONTINUOUS
10
1.922440748031496
20
-2.1977155905511809
11
1.9240102362204723
21
-2.1837861417322832
0
LINE
8
BLACK
6
CONTINUOUS
10
1.9240102362204723
20
-2.1837861417322832
11
1.9271294488188977
21
-2.1701199606299211
0
LINE
8
BLACK
6
CONTINUOUS
10
1.9271294488188977
20
-2.1701199606299211
11
1.9317591338582676
21
-2.1568889763779526
0
LINE
8
BLACK
6
CONTINUOUS
10
1.9317591338582676
20
-2.1568889763779526
11
1.9378411811023621
21
-2.1442595669291338
0
LINE
8
BLACK
6
CONTINUOUS
10
1.9378411811023621
20
-2.1442595669291338
11
1.9452989763779527
21
-2.1323905118110238
0
LINE
8
BLACK
6
CONTINUOUS
10
1.9452989763779527
20
-2.1323905118110238
11
1.9540388188976376
21
-2.1214311023622048
0
LINE
8
BLACK
6
CONTINUOUS
10
1.9540388188976376
20
-2.1214311023622048
11
1.9639507874015747
21
-2.1115191338582675
0
LINE
8
BLACK
6
CONTINUOUS
10
1.9639507874015747
20
-2.1115191338582675
11
1.9749101968503937
21
-2.1027792913385825
0
LINE
8
BLACK
6
CONTINUOUS
10
1.9749101968503937
20
-2.1027792913385825
11
1.9867792519685039
21
-2.0953214960629922
0
LINE
8
BLACK
6
CONTINUOUS
10
1.9867792519685039
20
-2.0953214960629922
11
1.9994086614173228
21
-2.0892394488188977
0
LINE
8
BLACK
6
CONTINUOUS
10
1.9994086614173228
20
-2.0892394488188977
11
2.0126396456692914
21
-2.0846097637795276
0
LINE
8
BLACK
6
CONTINUOUS
10
2.0126396456692914
20
-2.0846097637795276
11
2.0263058267716536
21
-2.0814905511811022
0
LINE
8
BLACK
6
CONTINUOUS
10
2.0263058267716536
20
-2.0814905511811022
11
2.0402352755905513
21
-2.0799210629921259
0
LINE
8
BLACK
6
CONTINUOUS
10
2.0402352755905513
20
-2.0799210629921259
11
2.0542529133858269
21
-2.0799210629921259
0
LINE
8
BLACK
6
CONTINUOUS
10
2.0542529133858269
20
-2.0799210629921259
11
2.0681823622047242
21
-2.0814905511811022
0
LINE
8
BLACK
6
CONTINUOUS
10
1.9281496062992125
20
-2.2114125984251967
11
1.9296473228346456
21
-2.2247049212598426
0
LINE
8
BLACK
6
CONTINUOUS
10
1.9296473228346456
20
-2.2247049212598426
11
1.9326238188976377
21
-2.2377459448818895
0
LINE
8
BLACK
6
CONTINUOUS
10
1.9326238188976377
20
-2.2377459448818895
11
1.9370417716535433
21
-2.2503716929133857
0
LINE
8
BLACK
6
CONTINUOUS
10
1.9370417716535433
20
-2.2503716929133857
11
1.942845590551181
21
-2.2624234251968502
0
LINE
8
BLACK
6
CONTINUOUS
10
1.942845590551181
20
-2.2624234251968502
11
1.9499622440944882
21
-2.2737495669291339
0
LINE
8
BLACK
6
CONTINUOUS
10
1.9499622440944882
20
-2.2737495669291339
11
1.9583023228346457
21
-2.2842076377952756
0
LINE
8
BLACK
6
CONTINUOUS
10
1.9583023228346457
20
-2.2842076377952756
11
1.9677608661417323
21
-2.293666181102362
0
LINE
8
BLACK
6
CONTINUOUS
10
1.9677608661417323
20
-2.293666181102362
11
1.978218937007874
21
-2.3020062598425195
0
LINE
8
BLACK
6
CONTINUOUS
10
1.978218937007874
20
-2.3020062598425195
11
1.9895450787401574
21
-2.3091229133858269
0
LINE
8
BLACK
6
CONTINUOUS
10
1.9895450787401574
20
-2.3091229133858269
11
2.0015968110236222
21
-2.3149267322834644
0
LINE
8
BLACK
6
CONTINUOUS
10
2.0015968110236222
20
-2.3149267322834644
11
2.0142225590551179
21
-2.3193446850393702
0
LINE
8
BLACK
6
CONTINUOUS
10
2.0142225590551179
20
-2.3193446850393702
11
2.0272635826771652
21
-2.3223211811023621
0
LINE
8
BLACK
6
CONTINUOUS
10
2.0272635826771652
20
-2.3223211811023621
11
2.0405559055118108
21
-2.3238188976377954
0
LINE
8
BLACK
6
CONTINUOUS
10
2.0405559055118108
20
-2.3238188976377954
11
2.053932283464567
21
-2.3238188976377954
0
LINE
8
BLACK
6
CONTINUOUS
10
2.053932283464567
20
-2.3238188976377954
11
2.0672246062992126
21
-2.3223211811023621
0
LINE
8
BLACK
6
CONTINUOUS
10
2.0672246062992126
20
-2.3223211811023621
11
2.0802656299212599
21
-2.3193446850393702
0
LINE
8
BLACK
6
CONTINUOUS
10
2.0802656299212599
20
-2.3193446850393702
11
2.092891377952756
21
-2.3149267322834644
0
LINE
8
BLACK
6
CONTINUOUS
10
2.092891377952756
20
-2.3149267322834644
11
2.1049431102362206
21
-2.3091229133858269
0
LINE
8
BLACK
6
CONTINUOUS
10
2.1049431102362206
20
-2.3091229133858269
11
2.1162692519685038
21
-2.3020062598425195
0
LINE
8
BLACK
6
CONTINUOUS
10
2.1162692519685038
20
-2.3020062598425195
11
2.1267273228346455
21
-2.293666181102362
0
LINE
8
BLACK
6
CONTINUOUS
10
2.1267273228346455
20
-2.293666181102362
11
2.1361858661417323
21
-2.2842076377952756
0
LINE
8
BLACK
6
CONTINUOUS
10
2.1361858661417323
20
-2.2842076377952756
11
2.1445259448818899
21
-2.2737495669291339
0
LINE
8
BLACK
6
CONTINUOUS
10
2.1445259448818899
20
-2.2737495669291339
11
2.1516425984251968
21
-2.2624234251968502
0
LINE
8
BLACK
6
CONTINUOUS
10
2.1516425984251968
20
-2.2624234251968502
11
2.1574464173228347
21
-2.2503716929133857
0
LINE
8
BLACK
6
CONTINUOUS
10
2.1574464173228347
20
-2.2503716929133857
11
2.1618643700787401
21
-2.2377459448818895
0
LINE
8
BLACK
6
CONTINUOUS
10
2.1618643700787401
20
-2.2377459448818895
11
2.1648408661417324
21
-2.2247049212598426
0
LINE
8
BLACK
6
CONTINUOUS
10
2.1648408661417324
20
-2.2247049212598426
11
2.1663385826771653
21
-2.2114125984251967
0
LINE
8
BLACK
6
CONTINUOUS
10
2.1663385826771653
20
-2.2114125984251967
11
2.1663385826771653
21
-2.1980362204724408
0
LINE
8
BLACK
6
CONTINUOUS
10
2.1663385826771653
20
-2.1980362204724408
11
2.1648408661417324
21
-2.1847438976377953
0
LINE
8
BLACK
6
CONTINUOUS
10
2.1648408661417324
20
-2.1847438976377953
11
2.1618643700787401
21
-2.171702874015748
0
LINE
8
BLACK
6
CONTINUOUS
10
2.1618643700787401
20
-2.171702874015748
11
2.1574464173228347
21
-2.1590771259842518
0
LINE
8
BLACK
6
CONTINUOUS
10
2.1574464173228347
20
-2.1590771259842518
11
2.1516425984251968
21
-2.1470253937007873
0
LINE
8
BLACK
6
CONTINUOUS
10
2.1516425984251968
20
-2.1470253937007873
11
2.1445259448818899
21
-2.1356992519685041
0
LINE
8
BLACK
6
CONTINUOUS
10
2.1445259448818899
20
-2.1356992519685041
11
2.1361858661417323
21
-2.1252411811023624
0
LINE
8
BLACK
6
CONTINUOUS
10
2.1361858661417323
20
-2.1252411811023624
11
2.1267273228346455
21
-2.1157826377952755
0
LINE
8
BLACK
6
CONTINUOUS
10
2.1267273228346455
20
-2.1157826377952755
11
2.1162692519685038
21
-2.107442559055118
0
LINE
8
BLACK
6
CONTINUOUS
10
2.1162692519685038
20
-2.107442559055118
11
2.1049431102362206
21
-2.1003259055118111
0
LINE
8
BLACK
6
CONTINUOUS
10
2.1049431102362206
20
-2.1003259055118111
11
2.092891377952756
21
-2.0945220866141732
0
LINE
8
BLACK
6
CONTINUOUS
10
2.092891377952756
20
-2.0945220866141732
11
2.0802656299212599
21
-2.0901041338582678
0
LINE
8
BLACK
6
CONTINUOUS
10
2.0802656299212599
20
-2.0901041338582678
11
2.0672246062992126
21
-2.0871276377952754
0
LINE
8
BLACK
6
CONTINUOUS
10
2.0672246062992126
20
-2.0871276377952754
11
2.053932283464567
21
-2.0856299212598426
0
LINE
8
BLACK
6
CONTINUOUS
10
2.053932283464567
20
-2.0856299212598426
11
2.0405559055118108
21
-2.0856299212598426
0
LINE
8
BLACK
6
CONTINUOUS
10
2.0405559055118108
20
-2.0856299212598426
11
2.0272635826771652
21
-2.0871276377952754
0
LINE
8
BLACK
6
CONTINUOUS
10
2.0272635826771652
20
-2.0871276377952754
11
2.0142225590551179
21
-2.0901041338582678
0
LINE
8
BLACK
6
CONTINUOUS
10
2.0142225590551179
20
-2.0901041338582678
11
2.0015968110236222
21
-2.0945220866141732
0
LINE
8
BLACK
6
CONTINUOUS
10
2.0015968110236222
20
-2.0945220866141732
11
1.9895450787401574
21
-2.1003259055118111
0
LINE
8
BLACK
6
CONTINUOUS
10
1.9895450787401574
20
-2.1003259055118111
11
1.978218937007874
21
-2.107442559055118
0
LINE
8
BLACK
6
CONTINUOUS
10
1.978218937007874
20
-2.107442559055118
11
1.9677608661417323
21
-2.1157826377952755
0
LINE
8
BLACK
6
CONTINUOUS
10
1.9677608661417323
20
-2.1157826377952755
11
1.9583023228346457
21
-2.1252411811023624
0
LINE
8
BLACK
6
CONTINUOUS
10
1.9583023228346457
20
-2.1252411811023624
11
1.9499622440944882
21
-2.1356992519685041
0
LINE
8
BLACK
6
CONTINUOUS
10
1.9499622440944882
20
-2.1356992519685041
11
1.942845590551181
21
-2.1470253937007873
0
LINE
8
BLACK
6
CONTINUOUS
10
1.942845590551181
20
-2.1470253937007873
11
1.9370417716535433
21
-2.1590771259842518
0
LINE
8
BLACK
6
CONTINUOUS
10
1.9370417716535433
20
-2.1590771259842518
11
1.9326238188976377
21
-2.171702874015748
0
LINE
8
BLACK
6
CONTINUOUS
10
1.9326238188976377
20
-2.171702874015748
11
1.9296473228346456
21
-2.1847438976377953
0
LINE
8
BLACK
6
CONTINUOUS
10
1.9296473228346456
20
-2.1847438976377953
11
1.9281496062992125
21
-2.1980362204724408
0
LINE
8
BLACK
6
CONTINUOUS
10
1.9281496062992125
20
-2.1980362204724408
11
1.9281496062992125
21
-2.2114125984251967
0
LINE
8
BLACK
6
CONTINUOUS
10
4.3516469291338584
20
-2.0814905511811022
11
4.3653131102362206
21
-2.0846097637795276
0
LINE
8
BLACK
6
CONTINUOUS
10
4.3653131102362206
20
-2.0846097637795276
11
4.3785440944881886
21
-2.0892394488188977
0
LINE
8
BLACK
6
CONTINUOUS
10
4.3785440944881886
20
-2.0892394488188977
11
4.3911735039370079
21
-2.0953214960629922
0
LINE
8
BLACK
6
CONTINUOUS
10
4.3911735039370079
20
-2.0953214960629922
11
4.4030425590551179
21
-2.1027792913385825
0
LINE
8
BLACK
6
CONTINUOUS
10
4.4030425590551179
20
-2.1027792913385825
11
4.4140019685039373
21
-2.1115191338582675
0
LINE
8
BLACK
6
CONTINUOUS
10
4.4140019685039373
20
-2.1115191338582675
11
4.4239139370078737
21
-2.1214311023622048
0
LINE
8
BLACK
6
CONTINUOUS
10
4.4239139370078737
20
-2.1214311023622048
11
4.4326537795275591
21
-2.1323905118110238
0
LINE
8
BLACK
6
CONTINUOUS
10
4.4326537795275591
20
-2.1323905118110238
11
4.4401115748031499
21
-2.1442595669291338
0
LINE
8
BLACK
6
CONTINUOUS
10
4.4401115748031499
20
-2.1442595669291338
11
4.446193622047244
21
-2.1568889763779526
0
LINE
8
BLACK
6
CONTINUOUS
10
4.446193622047244
20
-2.1568889763779526
11
4.4508233070866137
21
-2.1701199606299211
0
LINE
8
BLACK
6
CONTINUOUS
10
4.4508233070866137
20
-2.1701199606299211
11
4.4539425196850395
21
-2.1837861417322832
0
LINE
8
BLACK
6
CONTINUOUS
10
4.4539425196850395
20
-2.1837861417322832
11
4.4555120078740158
21
-2.1977155905511809
0
LINE
8
BLACK
6
CONTINUOUS
10
4.4555120078740158
20
-2.1977155905511809
11
4.4555120078740158
21
-2.2117332283464566
0
LINE
8
BLACK
6
CONTINUOUS
10
4.4555120078740158
20
-2.2117332283464566
11
4.4539425196850395
21
-2.2256626771653543
0
LINE
8
BLACK
6
CONTINUOUS
10
4.4539425196850395
20
-2.2256626771653543
11
4.4508233070866137
21
-2.2393288582677164
0
LINE
8
BLACK
6
CONTINUOUS
10
4.4508233070866137
20
-2.2393288582677164
11
4.446193622047244
21
-2.2525598425196849
0
LINE
8
BLACK
6
CONTINUOUS
10
4.446193622047244
20
-2.2525598425196849
11
4.4401115748031499
21
-2.2651892519685037
0
LINE
8
BLACK
6
CONTINUOUS
10
4.4401115748031499
20
-2.2651892519685037
11
4.4326537795275591
21
-2.2770583070866142
0
LINE
8
BLACK
6
CONTINUOUS
10
4.4326537795275591
20
-2.2770583070866142
11
4.4239139370078737
21
-2.2880177165354332
0
LINE
8
BLACK
6
CONTINUOUS
10
4.4239139370078737
20
-2.2880177165354332
11
4.4140019685039373
21
-2.29792968503937
0
LINE
8
BLACK
6
CONTINUOUS
10
4.4140019685039373
20
-2.29792968503937
11
4.4030425590551179
21
-2.306669527559055
0
LINE
8
BLACK
6
CONTINUOUS
10
4.4030425590551179
20
-2.306669527559055
11
4.3911735039370079
21
-2.3141273228346457
0
LINE
8
BLACK
6
CONTINUOUS
10
4.3911735039370079
20
-2.3141273228346457
11
4.3785440944881886
21
-2.3202093700787403
0
LINE
8
BLACK
6
CONTINUOUS
10
4.3785440944881886
20
-2.3202093700787403
11
4.3653131102362206
21
-2.3248390551181104
0
LINE
8
BLACK
6
CONTINUOUS
10
4.3653131102362206
20
-2.3248390551181104
11
4.3516469291338584
21
-2.3279582677165354
0
LINE
8
BLACK
6
CONTINUOUS
10
4.3516469291338584
20
-2.3279582677165354
11
4.3377174803149607
21
-2.3295277559055116
0
LINE
8
BLACK
6
CONTINUOUS
10
4.3377174803149607
20
-2.3295277559055116
11
4.3236998425196846
21
-2.3295277559055116
0
LINE
8
BLACK
6
CONTINUOUS
10
4.3236998425196846
20
-2.3295277559055116
11
4.309770393700787
21
-2.3279582677165354
0
LINE
8
BLACK
6
CONTINUOUS
10
4.309770393700787
20
-2.3279582677165354
11
4.2961042125984248
21
-2.3248390551181104
0
LINE
8
BLACK
6
CONTINUOUS
10
4.2961042125984248
20
-2.3248390551181104
11
4.2828732283464568
21
-2.3202093700787403
0
LINE
8
BLACK
6
CONTINUOUS
10
4.2828732283464568
20
-2.3202093700787403
11
4.2702438188976375
21
-2.3141273228346457
0
LINE
8
BLACK
6
CONTINUOUS
10
4.2702438188976375
20
-2.3141273228346457
11
4.2583747637795275
21
-2.306669527559055
0
LINE
8
BLACK
6
CONTINUOUS
10
4.2583747637795275
20
-2.306669527559055
11
4.2474153543307089
21
-2.29792968503937
0
LINE
8
BLACK
6
CONTINUOUS
10
4.2474153543307089
20
-2.29792968503937
11
4.2375033858267717
21
-2.2880177165354332
0
LINE
8
BLACK
6
CONTINUOUS
10
4.2375033858267717
20
-2.2880177165354332
11
4.2287635433070863
21
-2.2770583070866142
0
LINE
8
BLACK
6
CONTINUOUS
10
4.2287635433070863
20
-2.2770583070866142
11
4.2213057480314964
21
-2.2651892519685037
0
LINE
8
BLACK
6
CONTINUOUS
10
4.2213057480314964
20
-2.2651892519685037
11
4.2152237007874014
21
-2.2525598425196849
0
LINE
8
BLACK
6
CONTINUOUS
10
4.2152237007874014
20
-2.2525598425196849
11
4.2105940157480317
21
-2.2393288582677164
0
LINE
8
BLACK
6
CONTINUOUS
10
4.2105940157480317
20
-2.2393288582677164
11
4.2074748031496059
21
-2.2256626771653543
0
LINE
8
BLACK
6
CONTINUOUS
10
4.2074748031496059
20
-2.2256626771653543
11
4.2059053149606296
21
-2.2117332283464566
0
LINE
8
BLACK
6
CONTINUOUS
10
4.2059053149606296
20
-2.2117332283464566
11
4.2059053149606296
21
-2.1980362204724408
0
LINE
8
BLACK
6
CONTINUOUS
10
4.2059053149606296
20
-2.1980362204724408
11
4.2059053149606296
21
-2.1977155905511809
0
LINE
8
BLACK
6
CONTINUOUS
10
4.2059053149606296
20
-2.1977155905511809
11
4.2074748031496059
21
-2.1837861417322832
0
LINE
8
BLACK
6
CONTINUOUS
10
4.2074748031496059
20
-2.1837861417322832
11
4.2105940157480317
21
-2.1701199606299211
0
LINE
8
BLACK
6
CONTINUOUS
10
4.2105940157480317
20
-2.1701199606299211
11
4.2152237007874014
21
-2.1568889763779526
0
LINE
8
BLACK
6
CONTINUOUS
10
4.2152237007874014
20
-2.1568889763779526
11
4.2213057480314964
21
-2.1442595669291338
0
LINE
8
BLACK
6
CONTINUOUS
10
4.2213057480314964
20
-2.1442595669291338
11
4.2287635433070863
21
-2.1323905118110238
0
LINE
8
BLACK
6
CONTINUOUS
10
4.2287635433070863
20
-2.1323905118110238
11
4.2375033858267717
21
-2.1214311023622048
0
LINE
8
BLACK
6
CONTINUOUS
10
4.2375033858267717
20
-2.1214311023622048
11
4.2474153543307089
21
-2.1115191338582675
0
LINE
8
BLACK
6
CONTINUOUS
10
4.2474153543307089
20
-2.1115191338582675
11
4.2583747637795275
21
-2.1027792913385825
0
LINE
8
BLACK
6
CONTINUOUS
10
4.2583747637795275
20
-2.1027792913385825
11
4.2702438188976375
21
-2.0953214960629922
0
LINE
8
BLACK
6
CONTINUOUS
10
4.2702438188976375
20
-2.0953214960629922
11
4.2828732283464568
21
-2.0892394488188977
0
LINE
8
BLACK
6
CONTINUOUS
10
4.2828732283464568
20
-2.0892394488188977
11
4.2961042125984248
21
-2.0846097637795276
0
LINE
8
BLACK
6
CONTINUOUS
10
4.2961042125984248
20
-2.0846097637795276
11
4.309770393700787
21
-2.0814905511811022
0
LINE
8
BLACK
6
CONTINUOUS
10
4.309770393700787
20
-2.0814905511811022
11
4.3236998425196846
21
-2.0799210629921259
0
LINE
8
BLACK
6
CONTINUOUS
10
4.3236998425196846
20
-2.0799210629921259
11
4.3377174803149607
21
-2.0799210629921259
0
LINE
8
BLACK
6
CONTINUOUS
10
4.3377174803149607
20
-2.0799210629921259
11
4.3516469291338584
21
-2.0814905511811022
0
LINE
8
BLACK
6
CONTINUOUS
10
4.2116141732283463
20
-2.2114125984251967
11
4.2131118897637796
21
-2.2247049212598426
0
LINE
8
BLACK
6
CONTINUOUS
10
4.2131118897637796
20
-2.2247049212598426
11
4.2160883858267715
21
-2.2377459448818895
0
LINE
8
BLACK
6
CONTINUOUS
10
4.2160883858267715
20
-2.2377459448818895
11
4.2205063385826769
21
-2.2503716929133857
0
LINE
8
BLACK
6
CONTINUOUS
10
4.2205063385826769
20
-2.2503716929133857
11
4.2263101574803148
21
-2.2624234251968502
0
LINE
8
BLACK
6
CONTINUOUS
10
4.2263101574803148
20
-2.2624234251968502
11
4.2334268110236222
21
-2.2737495669291339
0
LINE
8
BLACK
6
CONTINUOUS
10
4.2334268110236222
20
-2.2737495669291339
11
4.2417668897637792
21
-2.2842076377952756
0
LINE
8
BLACK
6
CONTINUOUS
10
4.2417668897637792
20
-2.2842076377952756
11
4.2512254330708661
21
-2.293666181102362
0
LINE
8
BLACK
6
CONTINUOUS
10
4.2512254330708661
20
-2.293666181102362
11
4.2616835039370073
21
-2.3020062598425195
0
LINE
8
BLACK
6
CONTINUOUS
10
4.2616835039370073
20
-2.3020062598425195
11
4.2730096456692914
21
-2.3091229133858269
0
LINE
8
BLACK
6
CONTINUOUS
10
4.2730096456692914
20
-2.3091229133858269
11
4.285061377952756
21
-2.3149267322834644
0
LINE
8
BLACK
6
CONTINUOUS
10
4.285061377952756
20
-2.3149267322834644
11
4.2976871259842522
21
-2.3193446850393702
0
LINE
8
BLACK
6
CONTINUOUS
10
4.2976871259842522
20
-2.3193446850393702
11
4.310728149606299
21
-2.3223211811023621
0
LINE
8
BLACK
6
CONTINUOUS
10
4.310728149606299
20
-2.3223211811023621
11
4.324020472440945
21
-2.3238188976377954
0
LINE
8
BLACK
6
CONTINUOUS
10
4.324020472440945
20
-2.3238188976377954
11
4.3373968503937004
21
-2.3238188976377954
0
LINE
8
BLACK
6
CONTINUOUS
10
4.3373968503937004
20
-2.3238188976377954
11
4.3506891732283464
21
-2.3223211811023621
0
LINE
8
BLACK
6
CONTINUOUS
10
4.3506891732283464
20
-2.3223211811023621
11
4.3637301968503932
21
-2.3193446850393702
0
LINE
8
BLACK
6
CONTINUOUS
10
4.3637301968503932
20
-2.3193446850393702
11
4.3763559448818894
21
-2.3149267322834644
0
LINE
8
BLACK
6
CONTINUOUS
10
4.3763559448818894
20
-2.3149267322834644
11
4.388407677165354
21
-2.3091229133858269
0
LINE
8
BLACK
6
CONTINUOUS
10
4.388407677165354
20
-2.3091229133858269
11
4.399733818897638
21
-2.3020062598425195
0
LINE
8
BLACK
6
CONTINUOUS
10
4.399733818897638
20
-2.3020062598425195
11
4.4101918897637793
21
-2.293666181102362
0
LINE
8
BLACK
6
CONTINUOUS
10
4.4101918897637793
20
-2.293666181102362
11
4.4196504330708661
21
-2.2842076377952756
0
LINE
8
BLACK
6
CONTINUOUS
10
4.4196504330708661
20
-2.2842076377952756
11
4.4279905118110232
21
-2.2737495669291339
0
LINE
8
BLACK
6
CONTINUOUS
10
4.4279905118110232
20
-2.2737495669291339
11
4.4351071653543306
21
-2.2624234251968502
0
LINE
8
BLACK
6
CONTINUOUS
10
4.4351071653543306
20
-2.2624234251968502
11
4.4409109842519685
21
-2.2503716929133857
0
LINE
8
BLACK
6
CONTINUOUS
10
4.4409109842519685
20
-2.2503716929133857
11
4.4453289370078739
21
-2.2377459448818895
0
LINE
8
BLACK
6
CONTINUOUS
10
4.4453289370078739
20
-2.2377459448818895
11
4.4483054330708658
21
-2.2247049212598426
0
LINE
8
BLACK
6
CONTINUOUS
10
4.4483054330708658
20
-2.2247049212598426
11
4.4498031496062991
21
-2.2114125984251967
0
LINE
8
BLACK
6
CONTINUOUS
10
4.4498031496062991
20
-2.2114125984251967
11
4.4498031496062991
21
-2.1980362204724408
0
LINE
8
BLACK
6
CONTINUOUS
10
4.4498031496062991
20
-2.1980362204724408
11
4.4483054330708658
21
-2.1847438976377953
0
LINE
8
BLACK
6
CONTINUOUS
10
4.4483054330708658
20
-2.1847438976377953
11
4.4453289370078739
21
-2.171702874015748
0
LINE
8
BLACK
6
CONTINUOUS
10
4.4453289370078739
20
-2.171702874015748
11
4.4409109842519685
21
-2.1590771259842518
0
LINE
8
BLACK
6
CONTINUOUS
10
4.4409109842519685
20
-2.1590771259842518
11
4.4351071653543306
21
-2.1470253937007873
0
LINE
8
BLACK
6
CONTINUOUS
10
4.4351071653543306
20
-2.1470253937007873
11
4.4279905118110232
21
-2.1356992519685041
0
LINE
8
BLACK
6
CONTINUOUS
10
4.4279905118110232
20
-2.1356992519685041
11
4.4196504330708661
21
-2.1252411811023624
0
LINE
8
BLACK
6
CONTINUOUS
10
4.4196504330708661
20
-2.1252411811023624
11
4.4101918897637793
21
-2.1157826377952755
0
LINE
8
BLACK
6
CONTINUOUS
10
4.4101918897637793
20
-2.1157826377952755
11
4.399733818897638
21
-2.107442559055118
0
LINE
8
BLACK
6
CONTINUOUS
10
4.399733818897638
20
-2.107442559055118
11
4.388407677165354
21
-2.1003259055118111
0
LINE
8
BLACK
6
CONTINUOUS
10
4.388407677165354
20
-2.1003259055118111
11
4.3763559448818894
21
-2.0945220866141732
0
LINE
8
BLACK
6
CONTINUOUS
10
4.3763559448818894
20
-2.0945220866141732
11
4.3637301968503932
21
-2.0901041338582678
0
LINE
8
BLACK
6
CONTINUOUS
10
4.3637301968503932
20
-2.0901041338582678
11
4.3506891732283464
21
-2.0871276377952754
0
LINE
8
BLACK
6
CONTINUOUS
10
4.3506891732283464
20
-2.0871276377952754
11
4.3373968503937004
21
-2.0856299212598426
0
LINE
8
BLACK
6
CONTINUOUS
10
4.3373968503937004
20
-2.0856299212598426
11
4.324020472440945
21
-2.0856299212598426
0
LINE
8
BLACK
6
CONTINUOUS
10
4.324020472440945
20
-2.0856299212598426
11
4.310728149606299
21
-2.0871276377952754
0
LINE
8
BLACK
6
CONTINUOUS
10
4.310728149606299
20
-2.0871276377952754
11
4.2976871259842522
21
-2.0901041338582678
0
LINE
8
BLACK
6
CONTINUOUS
10
4.2976871259842522
20
-2.0901041338582678
11
4.285061377952756
21
-2.0945220866141732
0
LINE
8
BLACK
6
CONTINUOUS
10
4.285061377952756
20
-2.0945220866141732
11
4.2730096456692914
21
-2.1003259055118111
0
LINE
8
BLACK
6
CONTINUOUS
10
4.2730096456692914
20
-2.1003259055118111
11
4.2616835039370073
21
-2.107442559055118
0
LINE
8
BLACK
6
CONTINUOUS
10
4.2616835039370073
20
-2.107442559055118
11
4.2512254330708661
21
-2.1157826377952755
0
LINE
8
BLACK
6
CONTINUOUS
10
4.2512254330708661
20
-2.1157826377952755
11
4.2417668897637792
21
-2.1252411811023624
0
LINE
8
BLACK
6
CONTINUOUS
10
4.2417668897637792
20
-2.1252411811023624
11
4.2334268110236222
21
-2.1356992519685041
0
LINE
8
BLACK
6
CONTINUOUS
10
4.2334268110236222
20
-2.1356992519685041
11
4.2263101574803148
21
-2.1470253937007873
0
LINE
8
BLACK
6
CONTINUOUS
10
4.2263101574803148
20
-2.1470253937007873
11
4.2205063385826769
21
-2.1590771259842518
0
LINE
8
BLACK
6
CONTINUOUS
10
4.2205063385826769
20
-2.1590771259842518
11
4.2160883858267715
21
-2.171702874015748
0
LINE
8
BLACK
6
CONTINUOUS
10
4.2160883858267715
20
-2.171702874015748
11
4.2131118897637796
21
-2.1847438976377953
0
LINE
8
BLACK
6
CONTINUOUS
10
4.2131118897637796
20
-2.1847438976377953
11
4.2116141732283463
21
-2.1980362204724408
0
LINE
8
BLACK
6
CONTINUOUS
10
4.2116141732283463
20
-2.1980362204724408
11
4.2116141732283463
21
-2.2114125984251967
0
CIRCLE
8
BLACK
10
4.3307086614173231
20
-2.204724409448819
40
0.0541338582677165
0
CIRCLE
8
BLACK
10
2.0472440944881889
20
-2.204724409448819
40
0.0541338582677165
0
CIRCLE
8
BLACK
10
2.0472440944881889
20
-4.1338582677165352
40
0.0541338582677165
0
CIRCLE
8
BLACK
10
4.3307086614173231
20
-4.1338582677165352
40
0.0541338582677165
0
CIRCLE
8
BLACK
10
2.2389763779527558
20
-2.2547244094488188
40
0.02
0
CIRCLE
8
BLACK
10
2.2389763779527558
20
-2.1547244094488187
40
0.02
0
CIRCLE
8
BLACK
10
2.3389763779527559
20
-2.2547244094488188
40
0.02
0
CIRCLE
8
BLACK
10
2.3389763779527559
20
-2.1547244094488187
40
0.02
0
CIRCLE
8
BLACK
10
2.438976377952756
20
-2.2547244094488188
40
0.02
0
CIRCLE
8
BLACK
10
2.438976377952756
20
-2.1547244094488187
40
0.02
0
CIRCLE
8
BLACK
10
2.5389763779527557
20
-2.2547244094488188
40
0.02
0
CIRCLE
8
BLACK
10
2.5389763779527557
20
-2.1547244094488187
40
0.02
0
CIRCLE
8
BLACK
10
2.6389763779527557
20
-2.2547244094488188
40
0.02
0
CIRCLE
8
BLACK
10
2.6389763779527557
20
-2.1547244094488187
40
0.02
0
CIRCLE
8
BLACK
10
2.7389763779527558
20
-2.2547244094488188
40
0.02
0
CIRCLE
8
BLACK
10
2.7389763779527558
20
-2.1547244094488187
40
0.02
0
CIRCLE
8
BLACK
10
2.8389763779527559
20
-2.2547244094488188
40
0.02
0
CIRCLE
8
BLACK
10
2.8389763779527559
20
-2.1547244094488187
40
0.02
0
CIRCLE
8
BLACK
10
2.938976377952756
20
-2.2547244094488188
40
0.02
0
CIRCLE
8
BLACK
10
2.938976377952756
20
-2.1547244094488187
40
0.02
0
CIRCLE
8
BLACK
10
3.0389763779527557
20
-2.2547244094488188
40
0.02
0
CIRCLE
8
BLACK
10
3.0389763779527557
20
-2.1547244094488187
40
0.02
0
CIRCLE
8
BLACK
10
3.1389763779527557
20
-2.2547244094488188
40
0.02
0
CIRCLE
8
BLACK
10
3.1389763779527557
20
-2.1547244094488187
40
0.02
0
CIRCLE
8
BLACK
10
3.2389763779527558
20
-2.2547244094488188
40
0.02
0
CIRCLE
8
BLACK
10
3.2389763779527558
20
-2.1547244094488187
40
0.02
0
CIRCLE
8
BLACK
10
3.3389763779527559
20
-2.2547244094488188
40
0.02
0
CIRCLE
8
BLACK
10
3.3389763779527559
20
-2.1547244094488187
40
0.02
0
CIRCLE
8
BLACK
10
3.438976377952756
20
-2.2547244094488188
40
0.02
0
CIRCLE
8
BLACK
10
3.438976377952756
20
-2.1547244094488187
40
0.02
0
CIRCLE
8
BLACK
10
3.5389763779527557
20
-2.2547244094488188
40
0.02
0
CIRCLE
8
BLACK
10
3.5389763779527557
20
-2.1547244094488187
40
0.02
0
CIRCLE
8
BLACK
10
3.6389763779527557
20
-2.2547244094488188
40
0.02
0
CIRCLE
8
BLACK
10
3.6389763779527557
20
-2.1547244094488187
40
0.02
0
CIRCLE
8
BLACK
10
3.7389763779527558
20
-2.2547244094488188
40
0.02
0
CIRCLE
8
BLACK
10
3.7389763779527558
20
-2.1547244094488187
40
0.02
0
CIRCLE
8
BLACK
10
3.8389763779527559
20
-2.2547244094488188
40
0.02
0
CIRCLE
8
BLACK
10
3.8389763779527559
20
-2.1547244094488187
40
0.02
0
CIRCLE
8
BLACK
10
3.938976377952756
20
-2.2547244094488188
40
0.02
0
CIRCLE
8
BLACK
10
3.938976377952756
20
-2.1547244094488187
40
0.02
0
CIRCLE
8
BLACK
10
4.0389763779527561
20
-2.2547244094488188
40
0.02
0
CIRCLE
8
BLACK
10
4.0389763779527561
20
-2.1547244094488187
40
0.02
0
CIRCLE
8
BLACK
10
4.1389763779527557
20
-2.2547244094488188
40
0.02
0
CIRCLE
8
BLACK
10
4.1389763779527557
20
-2.1547244094488187
40
0.02
0
CIRCLE
8
BLACK
10
2.3992125984251969
20
-4.0944881889763778
40
0.0236220472440945
0
CIRCLE
8
BLACK
10
2.3992125984251969
20
-4.1929133858267713
40
0.0236220472440945
0
CIRCLE
8
BLACK
10
2.5960629921259843
20
-3.8976377952755903
40
0.0236220472440945
0
CIRCLE
8
BLACK
10
2.7929133858267714
20
-4.0944881889763778
40
0.0236220472440945
0
CIRCLE
8
BLACK
10
2.7929133858267714
20
-4.1929133858267713
40
0.0236220472440945
0
LINE
8
BLACK
6
CONTINUOUS
10
2.4069353149606298
20
-3.9188589763779529
11
2.4057596062992124
21
-3.9216974015748032
0
LINE
8
BLACK
6
CONTINUOUS
10
2.4057596062992124
20
-3.9216974015748032
11
2.4035871653543306
21
-3.923869842519685
0
LINE
8
BLACK
6
CONTINUOUS
10
2.4035871653543306
20
-3.923869842519685
11
2.4007487401574803
21
-3.9250455511811024
0
LINE
8
BLACK
6
CONTINUOUS
10
2.4007487401574803
20
-3.9250455511811024
11
2.3976764566929134
21
-3.9250455511811024
0
LINE
8
BLACK
6
CONTINUOUS
10
2.3976764566929134
20
-3.9250455511811024
11
2.3948380314960631
21
-3.923869842519685
0
LINE
8
BLACK
6
CONTINUOUS
10
2.3948380314960631
20
-3.923869842519685
11
2.3926655905511809
21
-3.9216974015748032
0
LINE
8
BLACK
6
CONTINUOUS
10
2.3926655905511809
20
-3.9216974015748032
11
2.3914898818897639
21
-3.9188589763779529
0
LINE
8
BLACK
6
CONTINUOUS
10
2.3914898818897639
20
-3.9188589763779529
11
2.3913385826771654
21
-3.917322834645669
0
LINE
8
BLACK
6
CONTINUOUS
10
2.3913385826771654
20
-3.917322834645669
11
2.3913385826771654
21
-3.8779527559055116
0
LINE
8
BLACK
6
CONTINUOUS
10
2.3913385826771654
20
-3.8779527559055116
11
2.3914898818897639
21
-3.8764166141732281
0
LINE
8
BLACK
6
CONTINUOUS
10
2.3914898818897639
20
-3.8764166141732281
11
2.3926655905511809
21
-3.8735781889763778
0
LINE
8
BLACK
6
CONTINUOUS
10
2.3926655905511809
20
-3.8735781889763778
11
2.3948380314960631
21
-3.8714057480314961
0
LINE
8
BLACK
6
CONTINUOUS
10
2.3948380314960631
20
-3.8714057480314961
11
2.3976764566929134
21
-3.8702300393700786
0
LINE
8
BLACK
6
CONTINUOUS
10
2.3976764566929134
20
-3.8702300393700786
11
2.4007487401574803
21
-3.8702300393700786
0
LINE
8
BLACK
6
CONTINUOUS
10
2.4007487401574803
20
-3.8702300393700786
11
2.4035871653543306
21
-3.8714057480314961
0
LINE
8
BLACK
6
CONTINUOUS
10
2.4035871653543306
20
-3.8714057480314961
11
2.4057596062992124
21
-3.8735781889763778
0
LINE
8
BLACK
6
CONTINUOUS
10
2.4057596062992124
20
-3.8735781889763778
11
2.4069353149606298
21
-3.8764166141732281
0
LINE
8
BLACK
6
CONTINUOUS
10
2.4069353149606298
20
-3.8764166141732281
11
2.4070866141732283
21
-3.8779527559055116
0
LINE
8
BLACK
6
CONTINUOUS
10
2.4070866141732283
20
-3.8779527559055116
11
2.4070866141732283
21
-3.917322834645669
0
LINE
8
BLACK
6
CONTINUOUS
10
2.4070866141732283
20
-3.917322834645669
11
2.4069353149606298
21
-3.9188589763779529
0
LINE
8
BLACK
6
CONTINUOUS
10
2.5132511023622048
20
-3.9134728346456691
11
2.5121870866141731
21
-3.9174438188976377
0
LINE
8
BLACK
6
CONTINUOUS
10
2.5121870866141731
20
-3.9174438188976377
11
2.5101315354330707
21
-3.9210041338582675
0
LINE
8
BLACK
6
CONTINUOUS
10
2.5101315354330707
20
-3.9210041338582675
11
2.5072246062992125
21
-3.9239110629921261
0
LINE
8
BLACK
6
CONTINUOUS
10
2.5072246062992125
20
-3.9239110629921261
11
2.5036642913385827
21
-3.9259666141732281
0
LINE
8
BLACK
6
CONTINUOUS
10
2.5036642913385827
20
-3.9259666141732281
11
2.4996933070866141
21
-3.9270306299212598
0
LINE
8
BLACK
6
CONTINUOUS
10
2.4996933070866141
20
-3.9270306299212598
11
2.4955822834645667
21
-3.9270306299212598
0
LINE
8
BLACK
6
CONTINUOUS
10
2.4955822834645667
20
-3.9270306299212598
11
2.4916112992125985
21
-3.9259666141732281
0
LINE
8
BLACK
6
CONTINUOUS
10
2.4916112992125985
20
-3.9259666141732281
11
2.4880509842519682
21
-3.9239110629921261
0
LINE
8
BLACK
6
CONTINUOUS
10
2.4880509842519682
20
-3.9239110629921261
11
2.4851440551181101
21
-3.9210041338582675
0
LINE
8
BLACK
6
CONTINUOUS
10
2.4851440551181101
20
-3.9210041338582675
11
2.4830885039370076
21
-3.9174438188976377
0
LINE
8
BLACK
6
CONTINUOUS
10
2.4830885039370076
20
-3.9174438188976377
11
2.4820244881889764
21
-3.9134728346456691
0
LINE
8
BLACK
6
CONTINUOUS
10
2.4820244881889764
20
-3.9134728346456691
11
2.4818897637795274
21
-3.9114173228346454
0
LINE
8
BLACK
6
CONTINUOUS
10
2.4818897637795274
20
-3.9114173228346454
11
2.4818897637795274
21
-3.8838582677165352
0
LINE
8
BLACK
6
CONTINUOUS
10
2.4818897637795274
20
-3.8838582677165352
11
2.4820244881889764
21
-3.8818027559055119
0
LINE
8
BLACK
6
CONTINUOUS
10
2.4820244881889764
20
-3.8818027559055119
11
2.4830885039370076
21
-3.8778317716535433
0
LINE
8
BLACK
6
CONTINUOUS
10
2.4830885039370076
20
-3.8778317716535433
11
2.4851440551181101
21
-3.8742714566929135
0
LINE
8
BLACK
6
CONTINUOUS
10
2.4851440551181101
20
-3.8742714566929135
11
2.4880509842519682
21
-3.8713645275590549
0
LINE
8
BLACK
6
CONTINUOUS
10
2.4880509842519682
20
-3.8713645275590549
11
2.4916112992125985
21
-3.8693089763779525
0
LINE
8
BLACK
6
CONTINUOUS
10
2.4916112992125985
20
-3.8693089763779525
11
2.4955822834645667
21
-3.8682449606299212
0
LINE
8
BLACK
6
CONTINUOUS
10
2.4955822834645667
20
-3.8682449606299212
11
2.4996933070866141
21
-3.8682449606299212
0
LINE
8
BLACK
6
CONTINUOUS
10
2.4996933070866141
20
-3.8682449606299212
11
2.5036642913385827
21
-3.8693089763779525
0
LINE
8
BLACK
6
CONTINUOUS
10
2.5036642913385827
20
-3.8693089763779525
11
2.5072246062992125
21
-3.8713645275590549
0
LINE
8
BLACK
6
CONTINUOUS
10
2.5072246062992125
20
-3.8713645275590549
11
2.5101315354330707
21
-3.8742714566929135
0
LINE
8
BLACK
6
CONTINUOUS
10
2.5101315354330707
20
-3.8742714566929135
11
2.5121870866141731
21
-3.8778317716535433
0
LINE
8
BLACK
6
CONTINUOUS
10
2.5121870866141731
20
-3.8778317716535433
11
2.5132511023622048
21
-3.8818027559055119
0
LINE
8
BLACK
6
CONTINUOUS
10
2.5132511023622048
20
-3.8818027559055119
11
2.5133858267716533
21
-3.8838582677165352
0
LINE
8
BLACK
6
CONTINUOUS
10
2.5133858267716533
20
-3.8838582677165352
11
2.5133858267716533
21
-3.9114173228346454
0
LINE
8
BLACK
6
CONTINUOUS
10
2.5133858267716533
20
-3.9114173228346454
11
2.5132511023622048
21
-3.9134728346456691
0
LINE
8
BLACK
6
CONTINUOUS
10
2.6172841732283465
20
-4.0867654724409448
11
2.6201225984251968
21
-4.0879411811023623
0
LINE
8
BLACK
6
CONTINUOUS
10
2.6201225984251968
20
-4.0879411811023623
11
2.6222950393700786
21
-4.0901136220472436
0
LINE
8
BLACK
6
CONTINUOUS
10
2.6222950393700786
20
-4.0901136220472436
11
2.623470748031496
21
-4.0929520472440943
0
LINE
8
BLACK
6
CONTINUOUS
10
2.623470748031496
20
-4.0929520472440943
11
2.623470748031496
21
-4.0960243307086612
0
LINE
8
BLACK
6
CONTINUOUS
10
2.623470748031496
20
-4.0960243307086612
11
2.6222950393700786
21
-4.098862755905512
0
LINE
8
BLACK
6
CONTINUOUS
10
2.6222950393700786
20
-4.098862755905512
11
2.6201225984251968
21
-4.1010351968503933
0
LINE
8
BLACK
6
CONTINUOUS
10
2.6201225984251968
20
-4.1010351968503933
11
2.6172841732283465
21
-4.1022109055118108
0
LINE
8
BLACK
6
CONTINUOUS
10
2.6172841732283465
20
-4.1022109055118108
11
2.6157480314960631
21
-4.1023622047244093
0
LINE
8
BLACK
6
CONTINUOUS
10
2.6157480314960631
20
-4.1023622047244093
11
2.5763779527559056
21
-4.1023622047244093
0
LINE
8
BLACK
6
CONTINUOUS
10
2.5763779527559056
20
-4.1023622047244093
11
2.5748418110236222
21
-4.1022109055118108
0
LINE
8
BLACK
6
CONTINUOUS
10
2.5748418110236222
20
-4.1022109055118108
11
2.5720033858267715
21
-4.1010351968503933
0
LINE
8
BLACK
6
CONTINUOUS
10
2.5720033858267715
20
-4.1010351968503933
11
2.5698309448818897
21
-4.098862755905512
0
LINE
8
BLACK
6
CONTINUOUS
10
2.5698309448818897
20
-4.098862755905512
11
2.5686552362204722
21
-4.0960243307086612
0
LINE
8
BLACK
6
CONTINUOUS
10
2.5686552362204722
20
-4.0960243307086612
11
2.5686552362204722
21
-4.0929520472440943
0
LINE
8
BLACK
6
CONTINUOUS
10
2.5686552362204722
20
-4.0929520472440943
11
2.5698309448818897
21
-4.0901136220472436
0
LINE
8
BLACK
6
CONTINUOUS
10
2.5698309448818897
20
-4.0901136220472436
11
2.5720033858267715
21
-4.0879411811023623
0
LINE
8
BLACK
6
CONTINUOUS
10
2.5720033858267715
20
-4.0879411811023623
11
2.5748418110236222
21
-4.0867654724409448
0
LINE
8
BLACK
6
CONTINUOUS
10
2.5748418110236222
20
-4.0867654724409448
11
2.5763779527559056
21
-4.0866141732283463
0
LINE
8
BLACK
6
CONTINUOUS
10
2.5763779527559056
20
-4.0866141732283463
11
2.6157480314960631
21
-4.0866141732283463
0
LINE
8
BLACK
6
CONTINUOUS
10
2.6157480314960631
20
-4.0866141732283463
11
2.6172841732283465
21
-4.0867654724409448
0
LINE
8
BLACK
6
CONTINUOUS
10
2.7851906692913384
20
-3.8764166141732281
11
2.7863663779527559
21
-3.8735781889763778
0
LINE
8
BLACK
6
CONTINUOUS
10
2.7863663779527559
20
-3.8735781889763778
11
2.7885388188976377
21
-3.8714057480314961
0
LINE
8
BLACK
6
CONTINUOUS
10
2.7885388188976377
20
-3.8714057480314961
11
2.791377244094488
21
-3.8702300393700786
0
LINE
8
BLACK
6
CONTINUOUS
10
2.791377244094488
20
-3.8702300393700786
11
2.7944495275590548
21
-3.8702300393700786
0
LINE
8
BLACK
6
CONTINUOUS
10
2.7944495275590548
20
-3.8702300393700786
11
2.7972879527559056
21
-3.8714057480314961
0
LINE
8
BLACK
6
CONTINUOUS
10
2.7972879527559056
20
-3.8714057480314961
11
2.7994603937007874
21
-3.8735781889763778
0
LINE
8
BLACK
6
CONTINUOUS
10
2.7994603937007874
20
-3.8735781889763778
11
2.8006361023622048
21
-3.8764166141732281
0
LINE
8
BLACK
6
CONTINUOUS
10
2.8006361023622048
20
-3.8764166141732281
11
2.8007874015748029
21
-3.8779527559055116
0
LINE
8
BLACK
6
CONTINUOUS
10
2.8007874015748029
20
-3.8779527559055116
11
2.8007874015748029
21
-3.917322834645669
0
LINE
8
BLACK
6
CONTINUOUS
10
2.8007874015748029
20
-3.917322834645669
11
2.8006361023622048
21
-3.9188589763779529
0
LINE
8
BLACK
6
CONTINUOUS
10
2.8006361023622048
20
-3.9188589763779529
11
2.7994603937007874
21
-3.9216974015748032
0
LINE
8
BLACK
6
CONTINUOUS
10
2.7994603937007874
20
-3.9216974015748032
11
2.7972879527559056
21
-3.923869842519685
0
LINE
8
BLACK
6
CONTINUOUS
10
2.7972879527559056
20
-3.923869842519685
11
2.7944495275590548
21
-3.9250455511811024
0
LINE
8
BLACK
6
CONTINUOUS
10
2.7944495275590548
20
-3.9250455511811024
11
2.791377244094488
21
-3.9250455511811024
0
LINE
8
BLACK
6
CONTINUOUS
10
2.791377244094488
20
-3.9250455511811024
11
2.7885388188976377
21
-3.923869842519685
0
LINE
8
BLACK
6
CONTINUOUS
10
2.7885388188976377
20
-3.923869842519685
11
2.7863663779527559
21
-3.9216974015748032
0
LINE
8
BLACK
6
CONTINUOUS
10
2.7863663779527559
20
-3.9216974015748032
11
2.7851906692913384
21
-3.9188589763779529
0
LINE
8
BLACK
6
CONTINUOUS
10
2.7851906692913384
20
-3.9188589763779529
11
2.7850393700787399
21
-3.917322834645669
0
LINE
8
BLACK
6
CONTINUOUS
10
2.7850393700787399
20
-3.917322834645669
11
2.7850393700787399
21
-3.8779527559055116
0
LINE
8
BLACK
6
CONTINUOUS
10
2.7850393700787399
20
-3.8779527559055116
11
2.7851906692913384
21
-3.8764166141732281
0
LINE
8
BLACK
6
CONTINUOUS
10
2.6788748818897639
20
-3.8818027559055119
11
2.6799388976377951
21
-3.8778317716535433
0
LINE
8
BLACK
6
CONTINUOUS
10
2.6799388976377951
20
-3.8778317716535433
11
2.6819944488188976
21
-3.8742714566929135
0
LINE
8
BLACK
6
CONTINUOUS
10
2.6819944488188976
20
-3.8742714566929135
11
2.6849013779527557
21
-3.8713645275590549
0
LINE
8
BLACK
6
CONTINUOUS
10
2.6849013779527557
20
-3.8713645275590549
11
2.6884616929133855
21
-3.8693089763779525
0
LINE
8
BLACK
6
CONTINUOUS
10
2.6884616929133855
20
-3.8693089763779525
11
2.6924326771653542
21
-3.8682449606299212
0
LINE
8
BLACK
6
CONTINUOUS
10
2.6924326771653542
20
-3.8682449606299212
11
2.6965437007874016
21
-3.8682449606299212
0
LINE
8
BLACK
6
CONTINUOUS
10
2.6965437007874016
20
-3.8682449606299212
11
2.7005146850393702
21
-3.8693089763779525
0
LINE
8
BLACK
6
CONTINUOUS
10
2.7005146850393702
20
-3.8693089763779525
11
2.704075
21
-3.8713645275590549
0
LINE
8
BLACK
6
CONTINUOUS
10
2.704075
20
-3.8713645275590549
11
2.7069819291338582
21
-3.8742714566929135
0
LINE
8
BLACK
6
CONTINUOUS
10
2.7069819291338582
20
-3.8742714566929135
11
2.7090374803149606
21
-3.8778317716535433
0
LINE
8
BLACK
6
CONTINUOUS
10
2.7090374803149606
20
-3.8778317716535433
11
2.7101014960629919
21
-3.8818027559055119
0
LINE
8
BLACK
6
CONTINUOUS
10
2.7101014960629919
20
-3.8818027559055119
11
2.7102362204724408
21
-3.8838582677165352
0
LINE
8
BLACK
6
CONTINUOUS
10
2.7102362204724408
20
-3.8838582677165352
11
2.7102362204724408
21
-3.9114173228346454
0
LINE
8
BLACK
6
CONTINUOUS
10
2.7102362204724408
20
-3.9114173228346454
11
2.7101014960629919
21
-3.9134728346456691
0
LINE
8
BLACK
6
CONTINUOUS
10
2.7101014960629919
20
-3.9134728346456691
11
2.7090374803149606
21
-3.9174438188976377
0
LINE
8
BLACK
6
CONTINUOUS
10
2.7090374803149606
20
-3.9174438188976377
11
2.7069819291338582
21
-3.9210041338582675
0
LINE
8
BLACK
6
CONTINUOUS
10
2.7069819291338582
20
-3.9210041338582675
11
2.704075
21
-3.9239110629921261
0
LINE
8
BLACK
6
CONTINUOUS
10
2.704075
20
-3.9239110629921261
11
2.7005146850393702
21
-3.9259666141732281
0
LINE
8
BLACK
6
CONTINUOUS
10
2.7005146850393702
20
-3.9259666141732281
11
2.6965437007874016
21
-3.9270306299212598
0
LINE
8
BLACK
6
CONTINUOUS
10
2.6965437007874016
20
-3.9270306299212598
11
2.6924326771653542
21
-3.9270306299212598
0
LINE
8
BLACK
6
CONTINUOUS
10
2.6924326771653542
20
-3.9270306299212598
11
2.6884616929133855
21
-3.9259666141732281
0
LINE
8
BLACK
6
CONTINUOUS
10
2.6884616929133855
20
-3.9259666141732281
11
2.6849013779527557
21
-3.9239110629921261
0
LINE
8
BLACK
6
CONTINUOUS
10
2.6849013779527557
20
-3.9239110629921261
11
2.6819944488188976
21
-3.9210041338582675
0
LINE
8
BLACK
6
CONTINUOUS
10
2.6819944488188976
20
-3.9210041338582675
11
2.6799388976377951
21
-3.9174438188976377
0
LINE
8
BLACK
6
CONTINUOUS
10
2.6799388976377951
20
-3.9174438188976377
11
2.6788748818897639
21
-3.9134728346456691
0
LINE
8
BLACK
6
CONTINUOUS
10
2.6788748818897639
20
-3.9134728346456691
11
2.6787401574803149
21
-3.9114173228346454
0
LINE
8
BLACK
6
CONTINUOUS
10
2.6787401574803149
20
-3.9114173228346454
11
2.6787401574803149
21
-3.8838582677165352
0
LINE
8
BLACK
6
CONTINUOUS
10
2.6787401574803149
20
-3.8838582677165352
11
2.6788748818897639
21
-3.8818027559055119
0
CIRCLE
8
BLACK
10
3.6594488188976375
20
-3.6644488188976378
40
0.0059055118110236
0
CIRCLE
8
BLACK
10
3.693569566929134
20
-3.6644488188976378
40
0.0059055118110236
0
CIRCLE
8
BLACK
10
3.7276902755905512
20
-3.6644488188976378
40
0.0059055118110236
0
CIRCLE
8
BLACK
10
3.7618110236220472
20
-3.6644488188976378
40
0.0059055118110236
0
CIRCLE
8
BLACK
10
3.6594488188976375
20
-3.6303280708661418
40
0.0059055118110236
0
CIRCLE
8
BLACK
10
3.693569566929134
20
-3.6303280708661418
40
0.0059055118110236
0
CIRCLE
8
BLACK
10
3.7276902755905512
20
-3.6303280708661418
40
0.0059055118110236
0
CIRCLE
8
BLACK
10
3.7618110236220472
20
-3.6303280708661418
40
0.0059055118110236
0
CIRCLE
8
BLACK
10
3.6594488188976375
20
-3.5962073622047241
40
0.0059055118110236
0
CIRCLE
8
BLACK
10
3.693569566929134
20
-3.5962073622047241
40
0.0059055118110236
0
CIRCLE
8
BLACK
10
3.7276902755905512
20
-3.5962073622047241
40
0.0059055118110236
0
CIRCLE
8
BLACK
10
3.7618110236220472
20
-3.5962073622047241
40
0.0059055118110236
0
CIRCLE
8
BLACK
10
3.6594488188976375
20
-3.5620866141732281
40
0.0059055118110236
0
CIRCLE
8
BLACK
10
3.693569566929134
20
-3.5620866141732281
40
0.0059055118110236
0
CIRCLE
8
BLACK
10
3.7276902755905512
20
-3.5620866141732281
40
0.0059055118110236
0
CIRCLE
8
BLACK
10
3.7618110236220472
20
-3.5620866141732281
40
0.0059055118110236
0
CIRCLE
8
BLACK
10
3.1535433070866139
20
-4.0944881889763778
40
0.0236220472440945
0
CIRCLE
8
BLACK
10
3.1535433070866139
20
-4.1929133858267713
40
0.0236220472440945
0
CIRCLE
8
BLACK
10
3.3503937007874014
20
-3.8976377952755903
40
0.0236220472440945
0
CIRCLE
8
BLACK
10
3.5472440944881889
20
-4.0944881889763778
40
0.0236220472440945
0
CIRCLE
8
BLACK
10
3.5472440944881889
20
-4.1929133858267713
40
0.0236220472440945
0
LINE
8
BLACK
6
CONTINUOUS
10
3.1612660236220473
20
-3.9188589763779529
11
3.1600903149606299
21
-3.9216974015748032
0
LINE
8
BLACK
6
CONTINUOUS
10
3.1600903149606299
20
-3.9216974015748032
11
3.1579178740157481
21
-3.923869842519685
0
LINE
8
BLACK
6
CONTINUOUS
10
3.1579178740157481
20
-3.923869842519685
11
3.1550794488188973
21
-3.9250455511811024
0
LINE
8
BLACK
6
CONTINUOUS
10
3.1550794488188973
20
-3.9250455511811024
11
3.1520071653543305
21
-3.9250455511811024
0
LINE
8
BLACK
6
CONTINUOUS
10
3.1520071653543305
20
-3.9250455511811024
11
3.1491687401574802
21
-3.923869842519685
0
LINE
8
BLACK
6
CONTINUOUS
10
3.1491687401574802
20
-3.923869842519685
11
3.1469962992125984
21
-3.9216974015748032
0
LINE
8
BLACK
6
CONTINUOUS
10
3.1469962992125984
20
-3.9216974015748032
11
3.1458205905511809
21
-3.9188589763779529
0
LINE
8
BLACK
6
CONTINUOUS
10
3.1458205905511809
20
-3.9188589763779529
11
3.1456692913385824
21
-3.917322834645669
0
LINE
8
BLACK
6
CONTINUOUS
10
3.1456692913385824
20
-3.917322834645669
11
3.1456692913385824
21
-3.8779527559055116
0
LINE
8
BLACK
6
CONTINUOUS
10
3.1456692913385824
20
-3.8779527559055116
11
3.1458205905511809
21
-3.8764166141732281
0
LINE
8
BLACK
6
CONTINUOUS
10
3.1458205905511809
20
-3.8764166141732281
11
3.1469962992125984
21
-3.8735781889763778
0
LINE
8
BLACK
6
CONTINUOUS
10
3.1469962992125984
20
-3.8735781889763778
11
3.1491687401574802
21
-3.8714057480314961
0
LINE
8
BLACK
6
CONTINUOUS
10
3.1491687401574802
20
-3.8714057480314961
11
3.1520071653543305
21
-3.8702300393700786
0
LINE
8
BLACK
6
CONTINUOUS
10
3.1520071653543305
20
-3.8702300393700786
11
3.1550794488188973
21
-3.8702300393700786
0
LINE
8
BLACK
6
CONTINUOUS
10
3.1550794488188973
20
-3.8702300393700786
11
3.1579178740157481
21
-3.8714057480314961
0
LINE
8
BLACK
6
CONTINUOUS
10
3.1579178740157481
20
-3.8714057480314961
11
3.1600903149606299
21
-3.8735781889763778
0
LINE
8
BLACK
6
CONTINUOUS
10
3.1600903149606299
20
-3.8735781889763778
11
3.1612660236220473
21
-3.8764166141732281
0
LINE
8
BLACK
6
CONTINUOUS
10
3.1612660236220473
20
-3.8764166141732281
11
3.1614173228346454
21
-3.8779527559055116
0
LINE
8
BLACK
6
CONTINUOUS
10
3.1614173228346454
20
-3.8779527559055116
11
3.1614173228346454
21
-3.917322834645669
0
LINE
8
BLACK
6
CONTINUOUS
10
3.1614173228346454
20
-3.917322834645669
11
3.1612660236220473
21
-3.9188589763779529
0
LINE
8
BLACK
6
CONTINUOUS
10
3.2675818110236219
20
-3.9134728346456691
11
3.2665177952755906
21
-3.9174438188976377
0
LINE
8
BLACK
6
CONTINUOUS
10
3.2665177952755906
20
-3.9174438188976377
11
3.2644622440944882
21
-3.9210041338582675
0
LINE
8
BLACK
6
CONTINUOUS
10
3.2644622440944882
20
-3.9210041338582675
11
3.26155531496063
21
-3.9239110629921261
0
LINE
8
BLACK
6
CONTINUOUS
10
3.26155531496063
20
-3.9239110629921261
11
3.2579949999999998
21
-3.9259666141732281
0
LINE
8
BLACK
6
CONTINUOUS
10
3.2579949999999998
20
-3.9259666141732281
11
3.2540240157480316
21
-3.9270306299212598
0
LINE
8
BLACK
6
CONTINUOUS
10
3.2540240157480316
20
-3.9270306299212598
11
3.2499129921259842
21
-3.9270306299212598
0
LINE
8
BLACK
6
CONTINUOUS
10
3.2499129921259842
20
-3.9270306299212598
11
3.2459420078740155
21
-3.9259666141732281
0
LINE
8
BLACK
6
CONTINUOUS
10
3.2459420078740155
20
-3.9259666141732281
11
3.2423816929133857
21
-3.9239110629921261
0
LINE
8
BLACK
6
CONTINUOUS
10
3.2423816929133857
20
-3.9239110629921261
11
3.2394747637795276
21
-3.9210041338582675
0
LINE
8
BLACK
6
CONTINUOUS
10
3.2394747637795276
20
-3.9210041338582675
11
3.2374192125984251
21
-3.9174438188976377
0
LINE
8
BLACK
6
CONTINUOUS
10
3.2374192125984251
20
-3.9174438188976377
11
3.2363551968503934
21
-3.9134728346456691
0
LINE
8
BLACK
6
CONTINUOUS
10
3.2363551968503934
20
-3.9134728346456691
11
3.2362204724409449
21
-3.9114173228346454
0
LINE
8
BLACK
6
CONTINUOUS
10
3.2362204724409449
20
-3.9114173228346454
11
3.2362204724409449
21
-3.8838582677165352
0
LINE
8
BLACK
6
CONTINUOUS
10
3.2362204724409449
20
-3.8838582677165352
11
3.2363551968503934
21
-3.8818027559055119
0
LINE
8
BLACK
6
CONTINUOUS
10
3.2363551968503934
20
-3.8818027559055119
11
3.2374192125984251
21
-3.8778317716535433
0
LINE
8
BLACK
6
CONTINUOUS
10
3.2374192125984251
20
-3.8778317716535433
11
3.2394747637795276
21
-3.8742714566929135
0
LINE
8
BLACK
6
CONTINUOUS
10
3.2394747637795276
20
-3.8742714566929135
11
3.2423816929133857
21
-3.8713645275590549
0
LINE
8
BLACK
6
CONTINUOUS
10
3.2423816929133857
20
-3.8713645275590549
11
3.2459420078740155
21
-3.8693089763779525
0
LINE
8
BLACK
6
CONTINUOUS
10
3.2459420078740155
20
-3.8693089763779525
11
3.2499129921259842
21
-3.8682449606299212
0
LINE
8
BLACK
6
CONTINUOUS
10
3.2499129921259842
20
-3.8682449606299212
11
3.2540240157480316
21
-3.8682449606299212
0
LINE
8
BLACK
6
CONTINUOUS
10
3.2540240157480316
20
-3.8682449606299212
11
3.2579949999999998
21
-3.8693089763779525
0
LINE
8
BLACK
6
CONTINUOUS
10
3.2579949999999998
20
-3.8693089763779525
11
3.26155531496063
21
-3.8713645275590549
0
LINE
8
BLACK
6
CONTINUOUS
10
3.26155531496063
20
-3.8713645275590549
11
3.2644622440944882
21
-3.8742714566929135
0
LINE
8
BLACK
6
CONTINUOUS
10
3.2644622440944882
20
-3.8742714566929135
11
3.2665177952755906
21
-3.8778317716535433
0
LINE
8
BLACK
6
CONTINUOUS
10
3.2665177952755906
20
-3.8778317716535433
11
3.2675818110236219
21
-3.8818027559055119
0
LINE
8
BLACK
6
CONTINUOUS
10
3.2675818110236219
20
-3.8818027559055119
11
3.2677165354330708
21
-3.8838582677165352
0
LINE
8
BLACK
6
CONTINUOUS
10
3.2677165354330708
20
-3.8838582677165352
11
3.2677165354330708
21
-3.9114173228346454
0
LINE
8
BLACK
6
CONTINUOUS
10
3.2677165354330708
20
-3.9114173228346454
11
3.2675818110236219
21
-3.9134728346456691
0
LINE
8
BLACK
6
CONTINUOUS
10
3.3716148818897635
20
-4.0867654724409448
11
3.3744533070866143
21
-4.0879411811023623
0
LINE
8
BLACK
6
CONTINUOUS
10
3.3744533070866143
20
-4.0879411811023623
11
3.3766257480314961
21
-4.0901136220472436
0
LINE
8
BLACK
6
CONTINUOUS
10
3.3766257480314961
20
-4.0901136220472436
11
3.3778014566929131
21
-4.0929520472440943
0
LINE
8
BLACK
6
CONTINUOUS
10
3.3778014566929131
20
-4.0929520472440943
11
3.3778014566929131
21
-4.0960243307086612
0
LINE
8
BLACK
6
CONTINUOUS
10
3.3778014566929131
20
-4.0960243307086612
11
3.3766257480314961
21
-4.098862755905512
0
LINE
8
BLACK
6
CONTINUOUS
10
3.3766257480314961
20
-4.098862755905512
11
3.3744533070866143
21
-4.1010351968503933
0
LINE
8
BLACK
6
CONTINUOUS
10
3.3744533070866143
20
-4.1010351968503933
11
3.3716148818897635
21
-4.1022109055118108
0
LINE
8
BLACK
6
CONTINUOUS
10
3.3716148818897635
20
-4.1022109055118108
11
3.3700787401574801
21
-4.1023622047244093
0
LINE
8
BLACK
6
CONTINUOUS
10
3.3700787401574801
20
-4.1023622047244093
11
3.3307086614173227
21
-4.1023622047244093
0
LINE
8
BLACK
6
CONTINUOUS
10
3.3307086614173227
20
-4.1023622047244093
11
3.3291725196850392
21
-4.1022109055118108
0
LINE
8
BLACK
6
CONTINUOUS
10
3.3291725196850392
20
-4.1022109055118108
11
3.326334094488189
21
-4.1010351968503933
0
LINE
8
BLACK
6
CONTINUOUS
10
3.326334094488189
20
-4.1010351968503933
11
3.3241616535433072
21
-4.098862755905512
0
LINE
8
BLACK
6
CONTINUOUS
10
3.3241616535433072
20
-4.098862755905512
11
3.3229859448818897
21
-4.0960243307086612
0
LINE
8
BLACK
6
CONTINUOUS
10
3.3229859448818897
20
-4.0960243307086612
11
3.3229859448818897
21
-4.0929520472440943
0
LINE
8
BLACK
6
CONTINUOUS
10
3.3229859448818897
20
-4.0929520472440943
11
3.3241616535433072
21
-4.0901136220472436
0
LINE
8
BLACK
6
CONTINUOUS
10
3.3241616535433072
20
-4.0901136220472436
11
3.326334094488189
21
-4.0879411811023623
0
LINE
8
BLACK
6
CONTINUOUS
10
3.326334094488189
20
-4.0879411811023623
11
3.3291725196850392
21
-4.0867654724409448
0
LINE
8
BLACK
6
CONTINUOUS
10
3.3291725196850392
20
-4.0867654724409448
11
3.3307086614173227
21
-4.0866141732283463
0
LINE
8
BLACK
6
CONTINUOUS
10
3.3307086614173227
20
-4.0866141732283463
11
3.3700787401574801
21
-4.0866141732283463
0
LINE
8
BLACK
6
CONTINUOUS
10
3.3700787401574801
20
-4.0866141732283463
11
3.3716148818897635
21
-4.0867654724409448
0
LINE
8
BLACK
6
CONTINUOUS
10
3.5395213779527559
20
-3.8764166141732281
11
3.5406970866141729
21
-3.8735781889763778
0
LINE
8
BLACK
6
CONTINUOUS
10
3.5406970866141729
20
-3.8735781889763778
11
3.5428695275590552
21
-3.8714057480314961
0
LINE
8
BLACK
6
CONTINUOUS
10
3.5428695275590552
20
-3.8714057480314961
11
3.5457079527559054
21
-3.8702300393700786
0
LINE
8
BLACK
6
CONTINUOUS
10
3.5457079527559054
20
-3.8702300393700786
11
3.5487802362204723
21
-3.8702300393700786
0
LINE
8
BLACK
6
CONTINUOUS
10
3.5487802362204723
20
-3.8702300393700786
11
3.5516186614173226
21
-3.8714057480314961
0
LINE
8
BLACK
6
CONTINUOUS
10
3.5516186614173226
20
-3.8714057480314961
11
3.5537911023622049
21
-3.8735781889763778
0
LINE
8
BLACK
6
CONTINUOUS
10
3.5537911023622049
20
-3.8735781889763778
11
3.5549668110236219
21
-3.8764166141732281
0
LINE
8
BLACK
6
CONTINUOUS
10
3.5549668110236219
20
-3.8764166141732281
11
3.5551181102362204
21
-3.8779527559055116
0
LINE
8
BLACK
6
CONTINUOUS
10
3.5551181102362204
20
-3.8779527559055116
11
3.5551181102362204
21
-3.917322834645669
0
LINE
8
BLACK
6
CONTINUOUS
10
3.5551181102362204
20
-3.917322834645669
11
3.5549668110236219
21
-3.9188589763779529
0
LINE
8
BLACK
6
CONTINUOUS
10
3.5549668110236219
20
-3.9188589763779529
11
3.5537911023622049
21
-3.9216974015748032
0
LINE
8
BLACK
6
CONTINUOUS
10
3.5537911023622049
20
-3.9216974015748032
11
3.5516186614173226
21
-3.923869842519685
0
LINE
8
BLACK
6
CONTINUOUS
10
3.5516186614173226
20
-3.923869842519685
11
3.5487802362204723
21
-3.9250455511811024
0
LINE
8
BLACK
6
CONTINUOUS
10
3.5487802362204723
20
-3.9250455511811024
11
3.5457079527559054
21
-3.9250455511811024
0
LINE
8
BLACK
6
CONTINUOUS
10
3.5457079527559054
20
-3.9250455511811024
11
3.5428695275590552
21
-3.923869842519685
0
LINE
8
BLACK
6
CONTINUOUS
10
3.5428695275590552
20
-3.923869842519685
11
3.5406970866141729
21
-3.9216974015748032
0
LINE
8
BLACK
6
CONTINUOUS
10
3.5406970866141729
20
-3.9216974015748032
11
3.5395213779527559
21
-3.9188589763779529
0
LINE
8
BLACK
6
CONTINUOUS
10
3.5395213779527559
20
-3.9188589763779529
11
3.5393700787401574
21
-3.917322834645669
0
LINE
8
BLACK
6
CONTINUOUS
10
3.5393700787401574
20
-3.917322834645669
11
3.5393700787401574
21
-3.8779527559055116
0
LINE
8
BLACK
6
CONTINUOUS
10
3.5393700787401574
20
-3.8779527559055116
11
3.5395213779527559
21
-3.8764166141732281
0
LINE
8
BLACK
6
CONTINUOUS
10
3.4332055905511809
20
-3.8818027559055119
11
3.4342696062992126
21
-3.8778317716535433
0
LINE
8
BLACK
6
CONTINUOUS
10
3.4342696062992126
20
-3.8778317716535433
11
3.4363251574803151
21
-3.8742714566929135
0
LINE
8
BLACK
6
CONTINUOUS
10
3.4363251574803151
20
-3.8742714566929135
11
3.4392320866141732
21
-3.8713645275590549
0
LINE
8
BLACK
6
CONTINUOUS
10
3.4392320866141732
20
-3.8713645275590549
11
3.442792401574803
21
-3.8693089763779525
0
LINE
8
BLACK
6
CONTINUOUS
10
3.442792401574803
20
-3.8693089763779525
11
3.4467633858267717
21
-3.8682449606299212
0
LINE
8
BLACK
6
CONTINUOUS
10
3.4467633858267717
20
-3.8682449606299212
11
3.4508744094488186
21
-3.8682449606299212
0
LINE
8
BLACK
6
CONTINUOUS
10
3.4508744094488186
20
-3.8682449606299212
11
3.4548453937007872
21
-3.8693089763779525
0
LINE
8
BLACK
6
CONTINUOUS
10
3.4548453937007872
20
-3.8693089763779525
11
3.4584057086614171
21
-3.8713645275590549
0
LINE
8
BLACK
6
CONTINUOUS
10
3.4584057086614171
20
-3.8713645275590549
11
3.4613126377952756
21
-3.8742714566929135
0
LINE
8
BLACK
6
CONTINUOUS
10
3.4613126377952756
20
-3.8742714566929135
11
3.4633681889763777
21
-3.8778317716535433
0
LINE
8
BLACK
6
CONTINUOUS
10
3.4633681889763777
20
-3.8778317716535433
11
3.4644322047244094
21
-3.8818027559055119
0
LINE
8
BLACK
6
CONTINUOUS
10
3.4644322047244094
20
-3.8818027559055119
11
3.4645669291338583
21
-3.8838582677165352
0
LINE
8
BLACK
6
CONTINUOUS
10
3.4645669291338583
20
-3.8838582677165352
11
3.4645669291338583
21
-3.9114173228346454
0
LINE
8
BLACK
6
CONTINUOUS
10
3.4645669291338583
20
-3.9114173228346454
11
3.4644322047244094
21
-3.9134728346456691
0
LINE
8
BLACK
6
CONTINUOUS
10
3.4644322047244094
20
-3.9134728346456691
11
3.4633681889763777
21
-3.9174438188976377
0
LINE
8
BLACK
6
CONTINUOUS
10
3.4633681889763777
20
-3.9174438188976377
11
3.4613126377952756
21
-3.9210041338582675
0
LINE
8
BLACK
6
CONTINUOUS
10
3.4613126377952756
20
-3.9210041338582675
11
3.4584057086614171
21
-3.9239110629921261
0
LINE
8
BLACK
6
CONTINUOUS
10
3.4584057086614171
20
-3.9239110629921261
11
3.4548453937007872
21
-3.9259666141732281
0
LINE
8
BLACK
6
CONTINUOUS
10
3.4548453937007872
20
-3.9259666141732281
11
3.4508744094488186
21
-3.9270306299212598
0
LINE
8
BLACK
6
CONTINUOUS
10
3.4508744094488186
20
-3.9270306299212598
11
3.4467633858267717
21
-3.9270306299212598
0
LINE
8
BLACK
6
CONTINUOUS
10
3.4467633858267717
20
-3.9270306299212598
11
3.442792401574803
21
-3.9259666141732281
0
LINE
8
BLACK
6
CONTINUOUS
10
3.442792401574803
20
-3.9259666141732281
11
3.4392320866141732
21
-3.9239110629921261
0
LINE
8
BLACK
6
CONTINUOUS
10
3.4392320866141732
20
-3.9239110629921261
11
3.4363251574803151
21
-3.9210041338582675
0
LINE
8
BLACK
6
CONTINUOUS
10
3.4363251574803151
20
-3.9210041338582675
11
3.4342696062992126
21
-3.9174438188976377
0
LINE
8
BLACK
6
CONTINUOUS
10
3.4342696062992126
20
-3.9174438188976377
11
3.4332055905511809
21
-3.9134728346456691
0
LINE
8
BLACK
6
CONTINUOUS
10
3.4332055905511809
20
-3.9134728346456691
11
3.4330708661417324
21
-3.9114173228346454
0
LINE
8
BLACK
6
CONTINUOUS
10
3.4330708661417324
20
-3.9114173228346454
11
3.4330708661417324
21
-3.8838582677165352
0
LINE
8
BLACK
6
CONTINUOUS
10
3.4330708661417324
20
-3.8838582677165352
11
3.4332055905511809
21
-3.8818027559055119
0
CIRCLE
8
BLACK
10
2.4937007874015746
20
-3.6842519685039368
40
0.0196850393700787
0
CIRCLE
8
BLACK
10
2.4937007874015746
20
-3.5842519685039371
40
0.0196850393700787
0
CIRCLE
8
BLACK
10
2.5937007874015747
20
-3.6842519685039368
40
0.0196850393700787
0
CIRCLE
8
BLACK
10
2.5937007874015747
20
-3.5842519685039371
40
0.0196850393700787
0
CIRCLE
8
BLACK
10
2.6937007874015748
20
-3.6842519685039368
40
0.0196850393700787
0
CIRCLE
8
BLACK
10
2.6937007874015748
20
-3.5842519685039371
40
0.0196850393700787
0
CIRCLE
8
BLACK
10
4.2381889763779528
20
-3.5196850393700787
40
0.0196850393700787
0
CIRCLE
8
BLACK
10
4.3381889763779524
20
-3.5196850393700787
40
0.0196850393700787
0
CIRCLE
8
BLACK
10
4.2381889763779528
20
-3.6196850393700788
40
0.0196850393700787
0
CIRCLE
8
BLACK
10
4.3381889763779524
20
-3.6196850393700788
40
0.0196850393700787
0
CIRCLE
8
BLACK
10
4.2381889763779528
20
-3.7196850393700784
40
0.0196850393700787
0
CIRCLE
8
BLACK
10
4.3381889763779524
20
-3.7196850393700784
40
0.0196850393700787
  0
ENDSEC
  0
EOF
