  0
SECTION
  2
HEADER
  9
$ANGBASE
  50
0.0
  9
$ANGDIR
  70
1
  9
$MEASUREMENT
  70
0
  0
ENDSEC
  0
SECTION
  2
TABLES
  0
TABLE
  2
LTYPE
  70
4
  0
LTYPE
  5
40F
  2
CONTINUOUS
  70
0
  3
Solid line
  72
65
  73
0
  40
0.0
  0
LTYPE
  5
410
  2
DASHDOT
 70
0
  3
Dash Dot ____ _ ____ _
 72
65
 73
4
 40
2.0
 49
1.25
 49
-0.25
 49
0.25
 49
-0.25
  0
LTYPE
  5
411
  2
DASHED
 70
0
  3
Dashed __ __ __ __ __
 72
65
 73
2
 40
0.75
 49
0.5
 49
-0.25
  0
LTYPE
  5
43B
  2
DOTTED
 70
0
  3
Dotted .  .  .  .
 72
65
 73
2
 40
0.2
 49
0.0
 49
-0.2
  0
ENDTAB
  0
TABLE
  2
STYLE
  70
4
  0
STYLE
  2
KICAD
  70
0
  40
0
  41
1
  42
1
  50
0
  71
0
  3
isocp.shx
  0
STYLE
  2
KICADB
  70
0
  40
0
  41
1
  42
1
  50
0
  71
0
  3
isocp.shx
  0
STYLE
  2
KICADI
  70
0
  40
0
  41
1
  42
1
  50
15
  71
0
  3
isocp.shx
  0
STYLE
  2
KICADBI
  70
0
  40
0
  41
1
  42
1
  50
15
  71
0
  3
isocp.shx
  0
ENDTAB
  0
TABLE
  2
LAYER
  70
1
  0
LAYER
  2
BLACK
  70
0
  62
7
  6
CONTINUOUS
  0
ENDTAB
  0
ENDSEC
  0
SECTION
  2
ENTITIES
0
LINE
8
BLACK
6
CONTINUOUS
10
2.0612396456692914
20
-4.0096442519685036
11
2.0750592125984251
21
-4.0119922834645667
0
LINE
8
BLACK
6
CONTINUOUS
10
2.0750592125984251
20
-4.0119922834645667
11
2.0885289763779529
21
-4.0158728346456689
0
LINE
8
BLACK
6
CONTINUOUS
10
2.0885289763779529
20
-4.0158728346456689
11
2.1014795669291337
21
-4.0212371653543304
0
LINE
8
BLACK
6
CONTINUOUS
10
2.1014795669291337
20
-4.0212371653543304
11
2.1137481102362203
21
-4.0280177559055117
0
LINE
8
BLACK
6
CONTINUOUS
10
2.1137481102362203
20
-4.0280177559055117
11
2.1251803149606299
21
-4.0361293307086612
0
LINE
8
BLACK
6
CONTINUOUS
10
2.1251803149606299
20
-4.0361293307086612
11
2.1356324409448817
21
-4.0454699212598424
0
LINE
8
BLACK
6
CONTINUOUS
10
2.1356324409448817
20
-4.0454699212598424
11
2.1449730314960629
21
-4.0559220472440947
0
LINE
8
BLACK
6
CONTINUOUS
10
2.1449730314960629
20
-4.0559220472440947
11
2.1530846062992124
21
-4.0673542519685038
0
LINE
8
BLACK
6
CONTINUOUS
10
2.1530846062992124
20
-4.0673542519685038
11
2.1598651968503937
21
-4.0796227952755908
0
LINE
8
BLACK
6
CONTINUOUS
10
2.1598651968503937
20
-4.0796227952755908
11
2.1652295275590552
21
-4.0925733858267712
0
LINE
8
BLACK
6
CONTINUOUS
10
2.1652295275590552
20
-4.0925733858267712
11
2.1691100787401574
21
-4.1060431496062995
0
LINE
8
BLACK
6
CONTINUOUS
10
2.1691100787401574
20
-4.1060431496062995
11
2.1714581102362205
21
-4.1198627165354331
0
LINE
8
BLACK
6
CONTINUOUS
10
2.1714581102362205
20
-4.1198627165354331
11
2.1722440944881889
21
-4.1338582677165352
0
LINE
8
BLACK
6
CONTINUOUS
10
2.1722440944881889
20
-4.1338582677165352
11
2.1714581102362205
21
-4.1478538188976373
0
LINE
8
BLACK
6
CONTINUOUS
10
2.1714581102362205
20
-4.1478538188976373
11
2.1691100787401574
21
-4.1616733858267718
0
LINE
8
BLACK
6
CONTINUOUS
10
2.1691100787401574
20
-4.1616733858267718
11
2.1652295275590552
21
-4.1751431496062992
0
LINE
8
BLACK
6
CONTINUOUS
10
2.1652295275590552
20
-4.1751431496062992
11
2.1598651968503937
21
-4.1880937401574805
0
LINE
8
BLACK
6
CONTINUOUS
10
2.1598651968503937
20
-4.1880937401574805
11
2.1530846062992124
21
-4.2003622834645666
0
LINE
8
BLACK
6
CONTINUOUS
10
2.1530846062992124
20
-4.2003622834645666
11
2.1449730314960629
21
-4.2117944881889766
0
LINE
8
BLACK
6
CONTINUOUS
10
2.1449730314960629
20
-4.2117944881889766
11
2.1356324409448817
21
-4.222246614173228
0
LINE
8
BLACK
6
CONTINUOUS
10
2.1356324409448817
20
-4.222246614173228
11
2.1251803149606299
21
-4.2315872047244092
0
LINE
8
BLACK
6
CONTINUOUS
10
2.1251803149606299
20
-4.2315872047244092
11
2.1137481102362203
21
-4.2396987795275587
0
LINE
8
BLACK
6
CONTINUOUS
10
2.1137481102362203
20
-4.2396987795275587
11
2.1014795669291337
21
-4.24647937007874
0
LINE
8
BLACK
6
CONTINUOUS
10
2.1014795669291337
20
-4.24647937007874
11
2.0885289763779529
21
-4.2518437007874015
0
LINE
8
BLACK
6
CONTINUOUS
10
2.0885289763779529
20
-4.2518437007874015
11
2.0750592125984251
21
-4.2557242519685037
0
LINE
8
BLACK
6
CONTINUOUS
10
2.0750592125984251
20
-4.2557242519685037
11
2.0612396456692914
21
-4.2580722834645668
0
LINE
8
BLACK
6
CONTINUOUS
10
2.0612396456692914
20
-4.2580722834645668
11
2.0472440944881889
21
-4.2588582677165352
0
LINE
8
BLACK
6
CONTINUOUS
10
2.0472440944881889
20
-4.2588582677165352
11
2.0332485433070864
21
-4.2580722834645668
0
LINE
8
BLACK
6
CONTINUOUS
10
2.0332485433070864
20
-4.2580722834645668
11
2.0194289763779527
21
-4.2557242519685037
0
LINE
8
BLACK
6
CONTINUOUS
10
2.0194289763779527
20
-4.2557242519685037
11
2.0059592125984254
21
-4.2518437007874015
0
LINE
8
BLACK
6
CONTINUOUS
10
2.0059592125984254
20
-4.2518437007874015
11
1.993008622047244
21
-4.24647937007874
0
LINE
8
BLACK
6
CONTINUOUS
10
1.993008622047244
20
-4.24647937007874
11
1.9807400787401575
21
-4.2396987795275587
0
LINE
8
BLACK
6
CONTINUOUS
10
1.9807400787401575
20
-4.2396987795275587
11
1.9693078740157479
21
-4.2315872047244092
0
LINE
8
BLACK
6
CONTINUOUS
10
1.9693078740157479
20
-4.2315872047244092
11
1.9588557480314961
21
-4.222246614173228
0
LINE
8
BLACK
6
CONTINUOUS
10
1.9588557480314961
20
-4.222246614173228
11
1.9495151574803149
21
-4.2117944881889766
0
LINE
8
BLACK
6
CONTINUOUS
10
1.9495151574803149
20
-4.2117944881889766
11
1.9414035826771654
21
-4.2003622834645666
0
LINE
8
BLACK
6
CONTINUOUS
10
1.9414035826771654
20
-4.2003622834645666
11
1.9346229921259841
21
-4.1880937401574805
0
LINE
8
BLACK
6
CONTINUOUS
10
1.9346229921259841
20
-4.1880937401574805
11
1.9292586614173228
21
-4.1751431496062992
0
LINE
8
BLACK
6
CONTINUOUS
10
1.9292586614173228
20
-4.1751431496062992
11
1.9253781102362204
21
-4.1616733858267718
0
LINE
8
BLACK
6
CONTINUOUS
10
1.9253781102362204
20
-4.1616733858267718
11
1.9230300787401575
21
-4.1478538188976373
0
LINE
8
BLACK
6
CONTINUOUS
10
1.9230300787401575
20
-4.1478538188976373
11
1.9222440944881889
21
-4.1338582677165352
0
LINE
8
BLACK
6
CONTINUOUS
10
1.9222440944881889
20
-4.1338582677165352
11
1.9230300787401575
21
-4.1198627165354331
0
LINE
8
BLACK
6
CONTINUOUS
10
1.9230300787401575
20
-4.1198627165354331
11
1.9253781102362204
21
-4.1060431496062995
0
LINE
8
BLACK
6
CONTINUOUS
10
1.9253781102362204
20
-4.1060431496062995
11
1.9292586614173228
21
-4.0925733858267712
0
LINE
8
BLACK
6
CONTINUOUS
10
1.9292586614173228
20
-4.0925733858267712
11
1.9346229921259841
21
-4.0796227952755908
0
LINE
8
BLACK
6
CONTINUOUS
10
1.9346229921259841
20
-4.0796227952755908
11
1.9414035826771654
21
-4.0673542519685038
0
LINE
8
BLACK
6
CONTINUOUS
10
1.9414035826771654
20
-4.0673542519685038
11
1.9495151574803149
21
-4.0559220472440947
0
LINE
8
BLACK
6
CONTINUOUS
10
1.9495151574803149
20
-4.0559220472440947
11
1.9588557480314961
21
-4.0454699212598424
0
LINE
8
BLACK
6
CONTINUOUS
10
1.9588557480314961
20
-4.0454699212598424
11
1.9693078740157479
21
-4.0361293307086612
0
LINE
8
BLACK
6
CONTINUOUS
10
1.9693078740157479
20
-4.0361293307086612
11
1.9807400787401575
21
-4.0280177559055117
0
LINE
8
BLACK
6
CONTINUOUS
10
1.9807400787401575
20
-4.0280177559055117
11
1.993008622047244
21
-4.0212371653543304
0
LINE
8
BLACK
6
CONTINUOUS
10
1.993008622047244
20
-4.0212371653543304
11
2.0059592125984254
21
-4.0158728346456689
0
LINE
8
BLACK
6
CONTINUOUS
10
2.0059592125984254
20
-4.0158728346456689
11
2.0194289763779527
21
-4.0119922834645667
0
LINE
8
BLACK
6
CONTINUOUS
10
2.0194289763779527
20
-4.0119922834645667
11
2.0332485433070864
21
-4.0096442519685036
0
LINE
8
BLACK
6
CONTINUOUS
10
2.0332485433070864
20
-4.0096442519685036
11
2.0472440944881889
21
-4.0088582677165352
0
LINE
8
BLACK
6
CONTINUOUS
10
2.0472440944881889
20
-4.0088582677165352
11
2.0612396456692914
21
-4.0096442519685036
0
LINE
8
BLACK
6
CONTINUOUS
10
1.9287120078740156
20
-4.1472136220472438
11
1.9309526377952755
21
-4.1604010236220468
0
LINE
8
BLACK
6
CONTINUOUS
10
1.9309526377952755
20
-4.1604010236220468
11
1.9346556692913386
21
-4.1732546456692914
0
LINE
8
BLACK
6
CONTINUOUS
10
1.9346556692913386
20
-4.1732546456692914
11
1.9397746062992125
21
-4.1856128346456689
0
LINE
8
BLACK
6
CONTINUOUS
10
1.9397746062992125
20
-4.1856128346456689
11
1.9462450393700788
21
-4.1973201968503933
0
LINE
8
BLACK
6
CONTINUOUS
10
1.9462450393700788
20
-4.1973201968503933
11
1.9539855905511812
21
-4.2082294488188978
0
LINE
8
BLACK
6
CONTINUOUS
10
1.9539855905511812
20
-4.2082294488188978
11
1.9628988976377952
21
-4.2182034645669289
0
LINE
8
BLACK
6
CONTINUOUS
10
1.9628988976377952
20
-4.2182034645669289
11
1.9728729133858267
21
-4.2271167716535434
0
LINE
8
BLACK
6
CONTINUOUS
10
1.9728729133858267
20
-4.2271167716535434
11
1.9837821653543306
21
-4.234857322834646
0
LINE
8
BLACK
6
CONTINUOUS
10
1.9837821653543306
20
-4.234857322834646
11
1.9954895275590552
21
-4.2413277559055116
0
LINE
8
BLACK
6
CONTINUOUS
10
1.9954895275590552
20
-4.2413277559055116
11
2.0078477165354331
21
-4.2464466929133859
0
LINE
8
BLACK
6
CONTINUOUS
10
2.0078477165354331
20
-4.2464466929133859
11
2.0207013385826773
21
-4.2501497244094484
0
LINE
8
BLACK
6
CONTINUOUS
10
2.0207013385826773
20
-4.2501497244094484
11
2.0338887401574803
21
-4.2523903543307089
0
LINE
8
BLACK
6
CONTINUOUS
10
2.0338887401574803
20
-4.2523903543307089
11
2.0472440944881889
21
-4.2531403937007877
0
LINE
8
BLACK
6
CONTINUOUS
10
2.0472440944881889
20
-4.2531403937007877
11
2.0605994488188975
21
-4.2523903543307089
0
LINE
8
BLACK
6
CONTINUOUS
10
2.0605994488188975
20
-4.2523903543307089
11
2.0737868503937009
21
-4.2501497244094484
0
LINE
8
BLACK
6
CONTINUOUS
10
2.0737868503937009
20
-4.2501497244094484
11
2.0866404724409446
21
-4.2464466929133859
0
LINE
8
BLACK
6
CONTINUOUS
10
2.0866404724409446
20
-4.2464466929133859
11
2.0989986614173226
21
-4.2413277559055116
0
LINE
8
BLACK
6
CONTINUOUS
10
2.0989986614173226
20
-4.2413277559055116
11
2.1107060236220474
21
-4.234857322834646
0
LINE
8
BLACK
6
CONTINUOUS
10
2.1107060236220474
20
-4.234857322834646
11
2.1216152755905511
21
-4.2271167716535434
0
LINE
8
BLACK
6
CONTINUOUS
10
2.1216152755905511
20
-4.2271167716535434
11
2.1315892913385825
21
-4.2182034645669289
0
LINE
8
BLACK
6
CONTINUOUS
10
2.1315892913385825
20
-4.2182034645669289
11
2.1405025984251966
21
-4.2082294488188978
0
LINE
8
BLACK
6
CONTINUOUS
10
2.1405025984251966
20
-4.2082294488188978
11
2.1482431496062993
21
-4.1973201968503933
0
LINE
8
BLACK
6
CONTINUOUS
10
2.1482431496062993
20
-4.1973201968503933
11
2.1547135826771653
21
-4.1856128346456689
0
LINE
8
BLACK
6
CONTINUOUS
10
2.1547135826771653
20
-4.1856128346456689
11
2.1598325196850392
21
-4.1732546456692914
0
LINE
8
BLACK
6
CONTINUOUS
10
2.1598325196850392
20
-4.1732546456692914
11
2.1635355511811025
21
-4.1604010236220468
0
LINE
8
BLACK
6
CONTINUOUS
10
2.1635355511811025
20
-4.1604010236220468
11
2.1657761811023621
21
-4.1472136220472438
0
LINE
8
BLACK
6
CONTINUOUS
10
2.1657761811023621
20
-4.1472136220472438
11
2.1665262204724409
21
-4.1338582677165352
0
LINE
8
BLACK
6
CONTINUOUS
10
2.1665262204724409
20
-4.1338582677165352
11
2.1657761811023621
21
-4.1205029133858266
0
LINE
8
BLACK
6
CONTINUOUS
10
2.1657761811023621
20
-4.1205029133858266
11
2.1635355511811025
21
-4.1073155118110236
0
LINE
8
BLACK
6
CONTINUOUS
10
2.1635355511811025
20
-4.1073155118110236
11
2.1598325196850392
21
-4.094461889763779
0
LINE
8
BLACK
6
CONTINUOUS
10
2.1598325196850392
20
-4.094461889763779
11
2.1547135826771653
21
-4.0821037007874015
0
LINE
8
BLACK
6
CONTINUOUS
10
2.1547135826771653
20
-4.0821037007874015
11
2.1482431496062993
21
-4.0703963385826771
0
LINE
8
BLACK
6
CONTINUOUS
10
2.1482431496062993
20
-4.0703963385826771
11
2.1405025984251966
21
-4.0594870866141735
0
LINE
8
BLACK
6
CONTINUOUS
10
2.1405025984251966
20
-4.0594870866141735
11
2.1315892913385825
21
-4.0495130708661415
0
LINE
8
BLACK
6
CONTINUOUS
10
2.1315892913385825
20
-4.0495130708661415
11
2.1216152755905511
21
-4.0405997637795279
0
LINE
8
BLACK
6
CONTINUOUS
10
2.1216152755905511
20
-4.0405997637795279
11
2.1107060236220474
21
-4.0328592125984253
0
LINE
8
BLACK
6
CONTINUOUS
10
2.1107060236220474
20
-4.0328592125984253
11
2.0989986614173226
21
-4.0263887795275588
0
LINE
8
BLACK
6
CONTINUOUS
10
2.0989986614173226
20
-4.0263887795275588
11
2.0866404724409446
21
-4.0212698425196853
0
LINE
8
BLACK
6
CONTINUOUS
10
2.0866404724409446
20
-4.0212698425196853
11
2.0737868503937009
21
-4.017566811023622
0
LINE
8
BLACK
6
CONTINUOUS
10
2.0737868503937009
20
-4.017566811023622
11
2.0605994488188975
21
-4.0153261811023624
0
LINE
8
BLACK
6
CONTINUOUS
10
2.0605994488188975
20
-4.0153261811023624
11
2.0472440944881889
21
-4.0145761417322836
0
LINE
8
BLACK
6
CONTINUOUS
10
2.0472440944881889
20
-4.0145761417322836
11
2.0338887401574803
21
-4.0153261811023624
0
LINE
8
BLACK
6
CONTINUOUS
10
2.0338887401574803
20
-4.0153261811023624
11
2.0207013385826773
21
-4.017566811023622
0
LINE
8
BLACK
6
CONTINUOUS
10
2.0207013385826773
20
-4.017566811023622
11
2.0078477165354331
21
-4.0212698425196853
0
LINE
8
BLACK
6
CONTINUOUS
10
2.0078477165354331
20
-4.0212698425196853
11
1.9954895275590552
21
-4.0263887795275588
0
LINE
8
BLACK
6
CONTINUOUS
10
1.9954895275590552
20
-4.0263887795275588
11
1.9837821653543306
21
-4.0328592125984253
0
LINE
8
BLACK
6
CONTINUOUS
10
1.9837821653543306
20
-4.0328592125984253
11
1.9728729133858267
21
-4.0405997637795279
0
LINE
8
BLACK
6
CONTINUOUS
10
1.9728729133858267
20
-4.0405997637795279
11
1.9628988976377952
21
-4.0495130708661415
0
LINE
8
BLACK
6
CONTINUOUS
10
1.9628988976377952
20
-4.0495130708661415
11
1.9539855905511812
21
-4.0594870866141735
0
LINE
8
BLACK
6
CONTINUOUS
10
1.9539855905511812
20
-4.0594870866141735
11
1.9462450393700788
21
-4.0703963385826771
0
LINE
8
BLACK
6
CONTINUOUS
10
1.9462450393700788
20
-4.0703963385826771
11
1.9397746062992125
21
-4.0821037007874015
0
LINE
8
BLACK
6
CONTINUOUS
10
1.9397746062992125
20
-4.0821037007874015
11
1.9346556692913386
21
-4.094461889763779
0
LINE
8
BLACK
6
CONTINUOUS
10
1.9346556692913386
20
-4.094461889763779
11
1.9309526377952755
21
-4.1073155118110236
0
LINE
8
BLACK
6
CONTINUOUS
10
1.9309526377952755
20
-4.1073155118110236
11
1.9287120078740156
21
-4.1205029133858266
0
LINE
8
BLACK
6
CONTINUOUS
10
1.9287120078740156
20
-4.1205029133858266
11
1.9279619685039369
21
-4.1338582677165352
0
LINE
8
BLACK
6
CONTINUOUS
10
1.9279619685039369
20
-4.1338582677165352
11
1.9287120078740156
21
-4.1472136220472438
0
LINE
8
BLACK
6
CONTINUOUS
10
4.3447042125984252
20
-4.0096442519685036
11
4.3585237795275589
21
-4.0119922834645667
0
LINE
8
BLACK
6
CONTINUOUS
10
4.3585237795275589
20
-4.0119922834645667
11
4.3719935433070862
21
-4.0158728346456689
0
LINE
8
BLACK
6
CONTINUOUS
10
4.3719935433070862
20
-4.0158728346456689
11
4.3849441338582675
21
-4.0212371653543304
0
LINE
8
BLACK
6
CONTINUOUS
10
4.3849441338582675
20
-4.0212371653543304
11
4.3972126771653546
21
-4.0280177559055117
0
LINE
8
BLACK
6
CONTINUOUS
10
4.3972126771653546
20
-4.0280177559055117
11
4.4086448818897637
21
-4.0361293307086612
0
LINE
8
BLACK
6
CONTINUOUS
10
4.4086448818897637
20
-4.0361293307086612
11
4.4190970078740159
21
-4.0454699212598424
0
LINE
8
BLACK
6
CONTINUOUS
10
4.4190970078740159
20
-4.0454699212598424
11
4.4284375984251971
21
-4.0559220472440947
0
LINE
8
BLACK
6
CONTINUOUS
10
4.4284375984251971
20
-4.0559220472440947
11
4.4365491732283466
21
-4.0673542519685038
0
LINE
8
BLACK
6
CONTINUOUS
10
4.4365491732283466
20
-4.0673542519685038
11
4.443329763779527
21
-4.0796227952755908
0
LINE
8
BLACK
6
CONTINUOUS
10
4.443329763779527
20
-4.0796227952755908
11
4.4486940944881885
21
-4.0925733858267712
0
LINE
8
BLACK
6
CONTINUOUS
10
4.4486940944881885
20
-4.0925733858267712
11
4.4525746456692916
21
-4.1060431496062995
0
LINE
8
BLACK
6
CONTINUOUS
10
4.4525746456692916
20
-4.1060431496062995
11
4.4549226771653538
21
-4.1198627165354331
0
LINE
8
BLACK
6
CONTINUOUS
10
4.4549226771653538
20
-4.1198627165354331
11
4.4557086614173231
21
-4.1338582677165352
0
LINE
8
BLACK
6
CONTINUOUS
10
4.4557086614173231
20
-4.1338582677165352
11
4.4549226771653538
21
-4.1478538188976373
0
LINE
8
BLACK
6
CONTINUOUS
10
4.4549226771653538
20
-4.1478538188976373
11
4.4525746456692916
21
-4.1616733858267718
0
LINE
8
BLACK
6
CONTINUOUS
10
4.4525746456692916
20
-4.1616733858267718
11
4.4486940944881885
21
-4.1751431496062992
0
LINE
8
BLACK
6
CONTINUOUS
10
4.4486940944881885
20
-4.1751431496062992
11
4.443329763779527
21
-4.1880937401574805
0
LINE
8
BLACK
6
CONTINUOUS
10
4.443329763779527
20
-4.1880937401574805
11
4.4365491732283466
21
-4.2003622834645666
0
LINE
8
BLACK
6
CONTINUOUS
10
4.4365491732283466
20
-4.2003622834645666
11
4.4284375984251971
21
-4.2117944881889766
0
LINE
8
BLACK
6
CONTINUOUS
10
4.4284375984251971
20
-4.2117944881889766
11
4.4190970078740159
21
-4.222246614173228
0
LINE
8
BLACK
6
CONTINUOUS
10
4.4190970078740159
20
-4.222246614173228
11
4.4086448818897637
21
-4.2315872047244092
0
LINE
8
BLACK
6
CONTINUOUS
10
4.4086448818897637
20
-4.2315872047244092
11
4.3972126771653546
21
-4.2396987795275587
0
LINE
8
BLACK
6
CONTINUOUS
10
4.3972126771653546
20
-4.2396987795275587
11
4.3849441338582675
21
-4.24647937007874
0
LINE
8
BLACK
6
CONTINUOUS
10
4.3849441338582675
20
-4.24647937007874
11
4.3719935433070862
21
-4.2518437007874015
0
LINE
8
BLACK
6
CONTINUOUS
10
4.3719935433070862
20
-4.2518437007874015
11
4.3585237795275589
21
-4.2557242519685037
0
LINE
8
BLACK
6
CONTINUOUS
10
4.3585237795275589
20
-4.2557242519685037
11
4.3447042125984252
21
-4.2580722834645668
0
LINE
8
BLACK
6
CONTINUOUS
10
4.3447042125984252
20
-4.2580722834645668
11
4.3307086614173231
21
-4.2588582677165352
0
LINE
8
BLACK
6
CONTINUOUS
10
4.3307086614173231
20
-4.2588582677165352
11
4.3167131102362202
21
-4.2580722834645668
0
LINE
8
BLACK
6
CONTINUOUS
10
4.3167131102362202
20
-4.2580722834645668
11
4.3028935433070865
21
-4.2557242519685037
0
LINE
8
BLACK
6
CONTINUOUS
10
4.3028935433070865
20
-4.2557242519685037
11
4.2894237795275592
21
-4.2518437007874015
0
LINE
8
BLACK
6
CONTINUOUS
10
4.2894237795275592
20
-4.2518437007874015
11
4.2764731889763778
21
-4.24647937007874
0
LINE
8
BLACK
6
CONTINUOUS
10
4.2764731889763778
20
-4.24647937007874
11
4.2642046456692908
21
-4.2396987795275587
0
LINE
8
BLACK
6
CONTINUOUS
10
4.2642046456692908
20
-4.2396987795275587
11
4.2527724409448817
21
-4.2315872047244092
0
LINE
8
BLACK
6
CONTINUOUS
10
4.2527724409448817
20
-4.2315872047244092
11
4.2423203149606294
21
-4.222246614173228
0
LINE
8
BLACK
6
CONTINUOUS
10
4.2423203149606294
20
-4.222246614173228
11
4.2329797244094491
21
-4.2117944881889766
0
LINE
8
BLACK
6
CONTINUOUS
10
4.2329797244094491
20
-4.2117944881889766
11
4.2248681496062988
21
-4.2003622834645666
0
LINE
8
BLACK
6
CONTINUOUS
10
4.2248681496062988
20
-4.2003622834645666
11
4.2180875590551183
21
-4.1880937401574805
0
LINE
8
BLACK
6
CONTINUOUS
10
4.2180875590551183
20
-4.1880937401574805
11
4.2127232283464568
21
-4.1751431496062992
0
LINE
8
BLACK
6
CONTINUOUS
10
4.2127232283464568
20
-4.1751431496062992
11
4.2088426771653547
21
-4.1616733858267718
0
LINE
8
BLACK
6
CONTINUOUS
10
4.2088426771653547
20
-4.1616733858267718
11
4.2064946456692915
21
-4.1478538188976373
0
LINE
8
BLACK
6
CONTINUOUS
10
4.2064946456692915
20
-4.1478538188976373
11
4.2057086614173231
21
-4.1338582677165352
0
LINE
8
BLACK
6
CONTINUOUS
10
4.2057086614173231
20
-4.1338582677165352
11
4.2064946456692915
21
-4.1198627165354331
0
LINE
8
BLACK
6
CONTINUOUS
10
4.2064946456692915
20
-4.1198627165354331
11
4.2088426771653547
21
-4.1060431496062995
0
LINE
8
BLACK
6
CONTINUOUS
10
4.2088426771653547
20
-4.1060431496062995
11
4.2127232283464568
21
-4.0925733858267712
0
LINE
8
BLACK
6
CONTINUOUS
10
4.2127232283464568
20
-4.0925733858267712
11
4.2180875590551183
21
-4.0796227952755908
0
LINE
8
BLACK
6
CONTINUOUS
10
4.2180875590551183
20
-4.0796227952755908
11
4.2248681496062988
21
-4.0673542519685038
0
LINE
8
BLACK
6
CONTINUOUS
10
4.2248681496062988
20
-4.0673542519685038
11
4.2329797244094491
21
-4.0559220472440947
0
LINE
8
BLACK
6
CONTINUOUS
10
4.2329797244094491
20
-4.0559220472440947
11
4.2423203149606294
21
-4.0454699212598424
0
LINE
8
BLACK
6
CONTINUOUS
10
4.2423203149606294
20
-4.0454699212598424
11
4.2527724409448817
21
-4.0361293307086612
0
LINE
8
BLACK
6
CONTINUOUS
10
4.2527724409448817
20
-4.0361293307086612
11
4.2642046456692908
21
-4.0280177559055117
0
LINE
8
BLACK
6
CONTINUOUS
10
4.2642046456692908
20
-4.0280177559055117
11
4.2764731889763778
21
-4.0212371653543304
0
LINE
8
BLACK
6
CONTINUOUS
10
4.2764731889763778
20
-4.0212371653543304
11
4.2894237795275592
21
-4.0158728346456689
0
LINE
8
BLACK
6
CONTINUOUS
10
4.2894237795275592
20
-4.0158728346456689
11
4.3028935433070865
21
-4.0119922834645667
0
LINE
8
BLACK
6
CONTINUOUS
10
4.3028935433070865
20
-4.0119922834645667
11
4.3167131102362202
21
-4.0096442519685036
0
LINE
8
BLACK
6
CONTINUOUS
10
4.3167131102362202
20
-4.0096442519685036
11
4.3307086614173231
21
-4.0088582677165352
0
LINE
8
BLACK
6
CONTINUOUS
10
4.3307086614173231
20
-4.0088582677165352
11
4.3447042125984252
21
-4.0096442519685036
0
LINE
8
BLACK
6
CONTINUOUS
10
4.2121765748031494
20
-4.1472136220472438
11
4.2144172047244091
21
-4.1604010236220468
0
LINE
8
BLACK
6
CONTINUOUS
10
4.2144172047244091
20
-4.1604010236220468
11
4.2181202362204724
21
-4.1732546456692914
0
LINE
8
BLACK
6
CONTINUOUS
10
4.2181202362204724
20
-4.1732546456692914
11
4.2232391732283467
21
-4.1856128346456689
0
LINE
8
BLACK
6
CONTINUOUS
10
4.2232391732283467
20
-4.1856128346456689
11
4.2297096062992123
21
-4.1973201968503933
0
LINE
8
BLACK
6
CONTINUOUS
10
4.2297096062992123
20
-4.1973201968503933
11
4.2374501574803149
21
-4.2082294488188978
0
LINE
8
BLACK
6
CONTINUOUS
10
4.2374501574803149
20
-4.2082294488188978
11
4.2463634645669295
21
-4.2182034645669289
0
LINE
8
BLACK
6
CONTINUOUS
10
4.2463634645669295
20
-4.2182034645669289
11
4.2563374803149605
21
-4.2271167716535434
0
LINE
8
BLACK
6
CONTINUOUS
10
4.2563374803149605
20
-4.2271167716535434
11
4.2672467322834642
21
-4.234857322834646
0
LINE
8
BLACK
6
CONTINUOUS
10
4.2672467322834642
20
-4.234857322834646
11
4.2789540944881885
21
-4.2413277559055116
0
LINE
8
BLACK
6
CONTINUOUS
10
4.2789540944881885
20
-4.2413277559055116
11
4.2913122834645669
21
-4.2464466929133859
0
LINE
8
BLACK
6
CONTINUOUS
10
4.2913122834645669
20
-4.2464466929133859
11
4.3041659055118107
21
-4.2501497244094484
0
LINE
8
BLACK
6
CONTINUOUS
10
4.3041659055118107
20
-4.2501497244094484
11
4.3173533070866137
21
-4.2523903543307089
0
LINE
8
BLACK
6
CONTINUOUS
10
4.3173533070866137
20
-4.2523903543307089
11
4.3307086614173231
21
-4.2531403937007877
0
LINE
8
BLACK
6
CONTINUOUS
10
4.3307086614173231
20
-4.2531403937007877
11
4.3440640157480317
21
-4.2523903543307089
0
LINE
8
BLACK
6
CONTINUOUS
10
4.3440640157480317
20
-4.2523903543307089
11
4.3572514173228347
21
-4.2501497244094484
0
LINE
8
BLACK
6
CONTINUOUS
10
4.3572514173228347
20
-4.2501497244094484
11
4.3701050393700784
21
-4.2464466929133859
0
LINE
8
BLACK
6
CONTINUOUS
10
4.3701050393700784
20
-4.2464466929133859
11
4.3824632283464569
21
-4.2413277559055116
0
LINE
8
BLACK
6
CONTINUOUS
10
4.3824632283464569
20
-4.2413277559055116
11
4.3941705905511812
21
-4.234857322834646
0
LINE
8
BLACK
6
CONTINUOUS
10
4.3941705905511812
20
-4.234857322834646
11
4.4050798425196849
21
-4.2271167716535434
0
LINE
8
BLACK
6
CONTINUOUS
10
4.4050798425196849
20
-4.2271167716535434
11
4.4150538582677168
21
-4.2182034645669289
0
LINE
8
BLACK
6
CONTINUOUS
10
4.4150538582677168
20
-4.2182034645669289
11
4.4239671653543304
21
-4.2082294488188978
0
LINE
8
BLACK
6
CONTINUOUS
10
4.4239671653543304
20
-4.2082294488188978
11
4.4317077165354331
21
-4.1973201968503933
0
LINE
8
BLACK
6
CONTINUOUS
10
4.4317077165354331
20
-4.1973201968503933
11
4.4381781496062995
21
-4.1856128346456689
0
LINE
8
BLACK
6
CONTINUOUS
10
4.4381781496062995
20
-4.1856128346456689
11
4.443297086614173
21
-4.1732546456692914
0
LINE
8
BLACK
6
CONTINUOUS
10
4.443297086614173
20
-4.1732546456692914
11
4.4470001181102363
21
-4.1604010236220468
0
LINE
8
BLACK
6
CONTINUOUS
10
4.4470001181102363
20
-4.1604010236220468
11
4.4492407480314959
21
-4.1472136220472438
0
LINE
8
BLACK
6
CONTINUOUS
10
4.4492407480314959
20
-4.1472136220472438
11
4.4499907874015747
21
-4.1338582677165352
0
LINE
8
BLACK
6
CONTINUOUS
10
4.4499907874015747
20
-4.1338582677165352
11
4.4492407480314959
21
-4.1205029133858266
0
LINE
8
BLACK
6
CONTINUOUS
10
4.4492407480314959
20
-4.1205029133858266
11
4.4470001181102363
21
-4.1073155118110236
0
LINE
8
BLACK
6
CONTINUOUS
10
4.4470001181102363
20
-4.1073155118110236
11
4.443297086614173
21
-4.094461889763779
0
LINE
8
BLACK
6
CONTINUOUS
10
4.443297086614173
20
-4.094461889763779
11
4.4381781496062995
21
-4.0821037007874015
0
LINE
8
BLACK
6
CONTINUOUS
10
4.4381781496062995
20
-4.0821037007874015
11
4.4317077165354331
21
-4.0703963385826771
0
LINE
8
BLACK
6
CONTINUOUS
10
4.4317077165354331
20
-4.0703963385826771
11
4.4239671653543304
21
-4.0594870866141735
0
LINE
8
BLACK
6
CONTINUOUS
10
4.4239671653543304
20
-4.0594870866141735
11
4.4150538582677168
21
-4.0495130708661415
0
LINE
8
BLACK
6
CONTINUOUS
10
4.4150538582677168
20
-4.0495130708661415
11
4.4050798425196849
21
-4.0405997637795279
0
LINE
8
BLACK
6
CONTINUOUS
10
4.4050798425196849
20
-4.0405997637795279
11
4.3941705905511812
21
-4.0328592125984253
0
LINE
8
BLACK
6
CONTINUOUS
10
4.3941705905511812
20
-4.0328592125984253
11
4.3824632283464569
21
-4.0263887795275588
0
LINE
8
BLACK
6
CONTINUOUS
10
4.3824632283464569
20
-4.0263887795275588
11
4.3701050393700784
21
-4.0212698425196853
0
LINE
8
BLACK
6
CONTINUOUS
10
4.3701050393700784
20
-4.0212698425196853
11
4.3572514173228347
21
-4.017566811023622
0
LINE
8
BLACK
6
CONTINUOUS
10
4.3572514173228347
20
-4.017566811023622
11
4.3440640157480317
21
-4.0153261811023624
0
LINE
8
BLACK
6
CONTINUOUS
10
4.3440640157480317
20
-4.0153261811023624
11
4.3307086614173231
21
-4.0145761417322836
0
LINE
8
BLACK
6
CONTINUOUS
10
4.3307086614173231
20
-4.0145761417322836
11
4.3173533070866137
21
-4.0153261811023624
0
LINE
8
BLACK
6
CONTINUOUS
10
4.3173533070866137
20
-4.0153261811023624
11
4.3041659055118107
21
-4.017566811023622
0
LINE
8
BLACK
6
CONTINUOUS
10
4.3041659055118107
20
-4.017566811023622
11
4.2913122834645669
21
-4.0212698425196853
0
LINE
8
BLACK
6
CONTINUOUS
10
4.2913122834645669
20
-4.0212698425196853
11
4.2789540944881885
21
-4.0263887795275588
0
LINE
8
BLACK
6
CONTINUOUS
10
4.2789540944881885
20
-4.0263887795275588
11
4.2672467322834642
21
-4.0328592125984253
0
LINE
8
BLACK
6
CONTINUOUS
10
4.2672467322834642
20
-4.0328592125984253
11
4.2563374803149605
21
-4.0405997637795279
0
LINE
8
BLACK
6
CONTINUOUS
10
4.2563374803149605
20
-4.0405997637795279
11
4.2463634645669295
21
-4.0495130708661415
0
LINE
8
BLACK
6
CONTINUOUS
10
4.2463634645669295
20
-4.0495130708661415
11
4.2374501574803149
21
-4.0594870866141735
0
LINE
8
BLACK
6
CONTINUOUS
10
4.2374501574803149
20
-4.0594870866141735
11
4.2297096062992123
21
-4.0703963385826771
0
LINE
8
BLACK
6
CONTINUOUS
10
4.2297096062992123
20
-4.0703963385826771
11
4.2232391732283467
21
-4.0821037007874015
0
LINE
8
BLACK
6
CONTINUOUS
10
4.2232391732283467
20
-4.0821037007874015
11
4.2181202362204724
21
-4.094461889763779
0
LINE
8
BLACK
6
CONTINUOUS
10
4.2181202362204724
20
-4.094461889763779
11
4.2144172047244091
21
-4.1073155118110236
0
LINE
8
BLACK
6
CONTINUOUS
10
4.2144172047244091
20
-4.1073155118110236
11
4.2121765748031494
21
-4.1205029133858266
0
LINE
8
BLACK
6
CONTINUOUS
10
4.2121765748031494
20
-4.1205029133858266
11
4.2114265354330707
21
-4.1338582677165352
0
LINE
8
BLACK
6
CONTINUOUS
10
4.2114265354330707
20
-4.1338582677165352
11
4.2121765748031494
21
-4.1472136220472438
0
LINE
8
BLACK
6
CONTINUOUS
10
3.680314960629921
20
-3.8179133858267718
11
3.6806102362204722
21
-3.8180356692913384
0
LINE
8
BLACK
6
CONTINUOUS
10
3.6806102362204722
20
-3.8180356692913384
11
3.6809055118110234
21
-3.8179133858267718
0
LINE
8
BLACK
6
CONTINUOUS
10
3.6809055118110234
20
-3.8179133858267718
11
3.7580708661417321
21
-3.8179133858267718
0
LINE
8
BLACK
6
CONTINUOUS
10
3.7580708661417321
20
-3.8179133858267718
11
3.7587668503937008
21
-3.8182016535433072
0
LINE
8
BLACK
6
CONTINUOUS
10
3.7587668503937008
20
-3.8182016535433072
11
3.7590551181102363
21
-3.8188976377952755
0
LINE
8
BLACK
6
CONTINUOUS
10
3.7590551181102363
20
-3.8188976377952755
11
3.7590551181102363
21
-3.9527559055118111
0
LINE
8
BLACK
6
CONTINUOUS
10
3.7590551181102363
20
-3.9527559055118111
11
3.7587668503937008
21
-3.9534518897637794
0
LINE
8
BLACK
6
CONTINUOUS
10
3.7587668503937008
20
-3.9534518897637794
11
3.7580708661417321
21
-3.9537401574803148
0
LINE
8
BLACK
6
CONTINUOUS
10
3.7580708661417321
20
-3.9537401574803148
11
3.6809055118110234
21
-3.9537401574803148
0
LINE
8
BLACK
6
CONTINUOUS
10
3.6809055118110234
20
-3.9537401574803148
11
3.6806102362204722
21
-3.9536178346456694
0
LINE
8
BLACK
6
CONTINUOUS
10
3.6806102362204722
20
-3.9536178346456694
11
3.680314960629921
21
-3.9537401574803148
0
LINE
8
BLACK
6
CONTINUOUS
10
3.680314960629921
20
-3.9537401574803148
11
3.6031496062992123
21
-3.9537401574803148
0
LINE
8
BLACK
6
CONTINUOUS
10
3.6031496062992123
20
-3.9537401574803148
11
3.6024536220472441
21
-3.9534518897637794
0
LINE
8
BLACK
6
CONTINUOUS
10
3.6024536220472441
20
-3.9534518897637794
11
3.6021653543307086
21
-3.9527559055118111
0
LINE
8
BLACK
6
CONTINUOUS
10
3.6021653543307086
20
-3.9527559055118111
11
3.6021653543307086
21
-3.8188976377952755
0
LINE
8
BLACK
6
CONTINUOUS
10
3.6021653543307086
20
-3.8188976377952755
11
3.6024536220472441
21
-3.8182016535433072
0
LINE
8
BLACK
6
CONTINUOUS
10
3.6024536220472441
20
-3.8182016535433072
11
3.6031496062992123
21
-3.8179133858267718
0
LINE
8
BLACK
6
CONTINUOUS
10
3.6031496062992123
20
-3.8179133858267718
11
3.680314960629921
21
-3.8179133858267718
0
LINE
8
BLACK
6
CONTINUOUS
10
3.6818897637795276
20
-3.8198818897637796
11
3.6818897637795276
21
-3.951771653543307
0
LINE
8
BLACK
6
CONTINUOUS
10
3.6818897637795276
20
-3.951771653543307
11
3.7570866141732284
21
-3.951771653543307
0
LINE
8
BLACK
6
CONTINUOUS
10
3.7570866141732284
20
-3.951771653543307
11
3.7570866141732284
21
-3.8198818897637796
0
LINE
8
BLACK
6
CONTINUOUS
10
3.7570866141732284
20
-3.8198818897637796
11
3.6818897637795276
21
-3.8198818897637796
0
LINE
8
BLACK
6
CONTINUOUS
10
3.6041338582677165
20
-3.8198818897637796
11
3.6041338582677165
21
-3.951771653543307
0
LINE
8
BLACK
6
CONTINUOUS
10
3.6041338582677165
20
-3.951771653543307
11
3.6793307086614173
21
-3.951771653543307
0
LINE
8
BLACK
6
CONTINUOUS
10
3.6793307086614173
20
-3.951771653543307
11
3.6793307086614173
21
-3.8198818897637796
0
LINE
8
BLACK
6
CONTINUOUS
10
3.6793307086614173
20
-3.8198818897637796
11
3.6041338582677165
21
-3.8198818897637796
0
LINE
8
BLACK
6
CONTINUOUS
10
3.8277559055118111
20
-3.7383858267716534
11
3.8284518897637794
21
-3.7386740944881889
0
LINE
8
BLACK
6
CONTINUOUS
10
3.8284518897637794
20
-3.7386740944881889
11
3.8287401574803148
21
-3.7393700787401576
0
LINE
8
BLACK
6
CONTINUOUS
10
3.8287401574803148
20
-3.7393700787401576
11
3.8287401574803148
21
-3.8155511811023621
0
LINE
8
BLACK
6
CONTINUOUS
10
3.8287401574803148
20
-3.8155511811023621
11
3.8484251968503935
21
-3.8155511811023621
0
LINE
8
BLACK
6
CONTINUOUS
10
3.8484251968503935
20
-3.8155511811023621
11
3.8491211811023622
21
-3.8158394488188976
0
LINE
8
BLACK
6
CONTINUOUS
10
3.8491211811023622
20
-3.8158394488188976
11
3.8494094488188977
21
-3.8165354330708658
0
LINE
8
BLACK
6
CONTINUOUS
10
3.8494094488188977
20
-3.8165354330708658
11
3.8494094488188977
21
-3.9503937007874015
0
LINE
8
BLACK
6
CONTINUOUS
10
3.8494094488188977
20
-3.9503937007874015
11
3.8491211811023622
21
-3.9510896850393702
0
LINE
8
BLACK
6
CONTINUOUS
10
3.8491211811023622
20
-3.9510896850393702
11
3.8484251968503935
21
-3.9513779527559056
0
LINE
8
BLACK
6
CONTINUOUS
10
3.8484251968503935
20
-3.9513779527559056
11
3.7712598425196848
21
-3.9513779527559056
0
LINE
8
BLACK
6
CONTINUOUS
10
3.7712598425196848
20
-3.9513779527559056
11
3.7705638582677166
21
-3.9510896850393702
0
LINE
8
BLACK
6
CONTINUOUS
10
3.7705638582677166
20
-3.9510896850393702
11
3.7702755905511811
21
-3.9503937007874015
0
LINE
8
BLACK
6
CONTINUOUS
10
3.7702755905511811
20
-3.9503937007874015
11
3.7702755905511811
21
-3.81751968503937
0
LINE
8
BLACK
6
CONTINUOUS
10
3.7702755905511811
20
-3.81751968503937
11
3.6938976377952755
21
-3.81751968503937
0
LINE
8
BLACK
6
CONTINUOUS
10
3.6938976377952755
20
-3.81751968503937
11
3.6932016535433072
21
-3.8172314173228346
0
LINE
8
BLACK
6
CONTINUOUS
10
3.6932016535433072
20
-3.8172314173228346
11
3.6929133858267718
21
-3.8165354330708658
0
LINE
8
BLACK
6
CONTINUOUS
10
3.6929133858267718
20
-3.8165354330708658
11
3.6929133858267718
21
-3.7393700787401576
0
LINE
8
BLACK
6
CONTINUOUS
10
3.6929133858267718
20
-3.7393700787401576
11
3.6932016535433072
21
-3.7386740944881889
0
LINE
8
BLACK
6
CONTINUOUS
10
3.6932016535433072
20
-3.7386740944881889
11
3.6938976377952755
21
-3.7383858267716534
0
LINE
8
BLACK
6
CONTINUOUS
10
3.6938976377952755
20
-3.7383858267716534
11
3.8277559055118111
21
-3.7383858267716534
0
LINE
8
BLACK
6
CONTINUOUS
10
3.8277559055118111
20
-3.81751968503937
11
3.772244094488189
21
-3.81751968503937
0
LINE
8
BLACK
6
CONTINUOUS
10
3.772244094488189
20
-3.81751968503937
11
3.772244094488189
21
-3.9494094488188973
0
LINE
8
BLACK
6
CONTINUOUS
10
3.772244094488189
20
-3.9494094488188973
11
3.8474409448818898
21
-3.9494094488188973
0
LINE
8
BLACK
6
CONTINUOUS
10
3.8474409448818898
20
-3.9494094488188973
11
3.8474409448818898
21
-3.81751968503937
0
LINE
8
BLACK
6
CONTINUOUS
10
3.8474409448818898
20
-3.81751968503937
11
3.8277559055118111
21
-3.81751968503937
0
LINE
8
BLACK
6
CONTINUOUS
10
3.6948818897637796
20
-3.7403543307086613
11
3.6948818897637796
21
-3.8155511811023621
0
LINE
8
BLACK
6
CONTINUOUS
10
3.6948818897637796
20
-3.8155511811023621
11
3.826771653543307
21
-3.8155511811023621
0
LINE
8
BLACK
6
CONTINUOUS
10
3.826771653543307
20
-3.8155511811023621
11
3.826771653543307
21
-3.7403543307086613
0
LINE
8
BLACK
6
CONTINUOUS
10
3.826771653543307
20
-3.7403543307086613
11
3.6948818897637796
21
-3.7403543307086613
0
LINE
8
BLACK
6
CONTINUOUS
10
4.0738188976377954
20
-3.6456692913385824
11
4.0745148818897636
21
-3.6459575590551179
0
LINE
8
BLACK
6
CONTINUOUS
10
4.0745148818897636
20
-3.6459575590551179
11
4.0748031496062991
21
-3.6466535433070866
0
LINE
8
BLACK
6
CONTINUOUS
10
4.0748031496062991
20
-3.6466535433070866
11
4.0750914173228345
21
-3.6459575590551179
0
LINE
8
BLACK
6
CONTINUOUS
10
4.0750914173228345
20
-3.6459575590551179
11
4.0757874015748028
21
-3.6456692913385824
0
LINE
8
BLACK
6
CONTINUOUS
10
4.0757874015748028
20
-3.6456692913385824
11
4.1505905511811019
21
-3.6456692913385824
0
LINE
8
BLACK
6
CONTINUOUS
10
4.1505905511811019
20
-3.6456692913385824
11
4.151286535433071
21
-3.6459575590551179
0
LINE
8
BLACK
6
CONTINUOUS
10
4.151286535433071
20
-3.6459575590551179
11
4.1515748031496065
21
-3.6466535433070866
0
LINE
8
BLACK
6
CONTINUOUS
10
4.1515748031496065
20
-3.6466535433070866
11
4.1515748031496065
21
-3.7789370078740157
0
LINE
8
BLACK
6
CONTINUOUS
10
4.1515748031496065
20
-3.7789370078740157
11
4.151286535433071
21
-3.7796329921259844
0
LINE
8
BLACK
6
CONTINUOUS
10
4.151286535433071
20
-3.7796329921259844
11
4.1510658267716538
21
-3.7797244094488187
0
LINE
8
BLACK
6
CONTINUOUS
10
4.1510658267716538
20
-3.7797244094488187
11
4.1527559055118113
21
-3.7797244094488187
0
LINE
8
BLACK
6
CONTINUOUS
10
4.1527559055118113
20
-3.7797244094488187
11
4.1534518897637795
21
-3.7800126771653542
0
LINE
8
BLACK
6
CONTINUOUS
10
4.1534518897637795
20
-3.7800126771653542
11
4.153740157480315
21
-3.7807086614173229
0
LINE
8
BLACK
6
CONTINUOUS
10
4.153740157480315
20
-3.7807086614173229
11
4.153740157480315
21
-3.9145669291338581
0
LINE
8
BLACK
6
CONTINUOUS
10
4.153740157480315
20
-3.9145669291338581
11
4.1534518897637795
21
-3.9152629133858268
0
LINE
8
BLACK
6
CONTINUOUS
10
4.1534518897637795
20
-3.9152629133858268
11
4.1527559055118113
21
-3.9155511811023622
0
LINE
8
BLACK
6
CONTINUOUS
10
4.1527559055118113
20
-3.9155511811023622
11
4.0755905511811026
21
-3.9155511811023622
0
LINE
8
BLACK
6
CONTINUOUS
10
4.0755905511811026
20
-3.9155511811023622
11
4.0748945669291334
21
-3.9152629133858268
0
LINE
8
BLACK
6
CONTINUOUS
10
4.0748945669291334
20
-3.9152629133858268
11
4.0748031496062991
21
-3.9150421653543308
0
LINE
8
BLACK
6
CONTINUOUS
10
4.0748031496062991
20
-3.9150421653543308
11
4.0747117322834647
21
-3.9152629133858268
0
LINE
8
BLACK
6
CONTINUOUS
10
4.0747117322834647
20
-3.9152629133858268
11
4.0740157480314956
21
-3.9155511811023622
0
LINE
8
BLACK
6
CONTINUOUS
10
4.0740157480314956
20
-3.9155511811023622
11
3.9968503937007873
21
-3.9155511811023622
0
LINE
8
BLACK
6
CONTINUOUS
10
3.9968503937007873
20
-3.9155511811023622
11
3.9961544094488186
21
-3.9152629133858268
0
LINE
8
BLACK
6
CONTINUOUS
10
3.9961544094488186
20
-3.9152629133858268
11
3.9958661417322832
21
-3.9145669291338581
0
LINE
8
BLACK
6
CONTINUOUS
10
3.9958661417322832
20
-3.9145669291338581
11
3.9958661417322832
21
-3.7807086614173229
0
LINE
8
BLACK
6
CONTINUOUS
10
3.9958661417322832
20
-3.7807086614173229
11
3.9961544094488186
21
-3.7800126771653542
0
LINE
8
BLACK
6
CONTINUOUS
10
3.9961544094488186
20
-3.7800126771653542
11
3.9968503937007873
21
-3.7797244094488187
0
LINE
8
BLACK
6
CONTINUOUS
10
3.9968503937007873
20
-3.7797244094488187
11
3.9985404724409448
21
-3.7797244094488187
0
LINE
8
BLACK
6
CONTINUOUS
10
3.9985404724409448
20
-3.7797244094488187
11
3.9983197637795276
21
-3.7796329921259844
0
LINE
8
BLACK
6
CONTINUOUS
10
3.9983197637795276
20
-3.7796329921259844
11
3.9980314960629921
21
-3.7789370078740157
0
LINE
8
BLACK
6
CONTINUOUS
10
3.9980314960629921
20
-3.7789370078740157
11
3.9980314960629921
21
-3.6466535433070866
0
LINE
8
BLACK
6
CONTINUOUS
10
3.9980314960629921
20
-3.6466535433070866
11
3.9983197637795276
21
-3.6459575590551179
0
LINE
8
BLACK
6
CONTINUOUS
10
3.9983197637795276
20
-3.6459575590551179
11
3.9990157480314958
21
-3.6456692913385824
0
LINE
8
BLACK
6
CONTINUOUS
10
3.9990157480314958
20
-3.6456692913385824
11
4.0738188976377954
21
-3.6456692913385824
0
LINE
8
BLACK
6
CONTINUOUS
10
4.0765748031496063
20
-3.7816929133858266
11
4.0765748031496063
21
-3.9135826771653544
0
LINE
8
BLACK
6
CONTINUOUS
10
4.0765748031496063
20
-3.9135826771653544
11
4.1517716535433067
21
-3.9135826771653544
0
LINE
8
BLACK
6
CONTINUOUS
10
4.1517716535433067
20
-3.9135826771653544
11
4.1517716535433067
21
-3.7816929133858266
0
LINE
8
BLACK
6
CONTINUOUS
10
4.1517716535433067
20
-3.7816929133858266
11
4.0765748031496063
21
-3.7816929133858266
0
LINE
8
BLACK
6
CONTINUOUS
10
3.997834645669291
20
-3.7816929133858266
11
3.997834645669291
21
-3.9135826771653544
0
LINE
8
BLACK
6
CONTINUOUS
10
3.997834645669291
20
-3.9135826771653544
11
4.0730314960629919
21
-3.9135826771653544
0
LINE
8
BLACK
6
CONTINUOUS
10
4.0730314960629919
20
-3.9135826771653544
11
4.0730314960629919
21
-3.7816929133858266
0
LINE
8
BLACK
6
CONTINUOUS
10
4.0730314960629919
20
-3.7816929133858266
11
3.997834645669291
21
-3.7816929133858266
0
LINE
8
BLACK
6
CONTINUOUS
10
4.0745148818897636
20
-3.7796329921259844
11
4.0741549212598427
21
-3.7797820472440944
0
LINE
8
BLACK
6
CONTINUOUS
10
4.0741549212598427
20
-3.7797820472440944
11
4.0747117322834647
21
-3.7800126771653542
0
LINE
8
BLACK
6
CONTINUOUS
10
4.0747117322834647
20
-3.7800126771653542
11
4.0748031496062991
21
-3.7802333858267714
0
LINE
8
BLACK
6
CONTINUOUS
10
4.0748031496062991
20
-3.7802333858267714
11
4.0748945669291334
21
-3.7800126771653542
0
LINE
8
BLACK
6
CONTINUOUS
10
4.0748945669291334
20
-3.7800126771653542
11
4.0754513385826767
21
-3.7797820472440944
0
LINE
8
BLACK
6
CONTINUOUS
10
4.0754513385826767
20
-3.7797820472440944
11
4.0750914173228345
21
-3.7796329921259844
0
LINE
8
BLACK
6
CONTINUOUS
10
4.0750914173228345
20
-3.7796329921259844
11
4.0748031496062991
21
-3.7789370078740157
0
LINE
8
BLACK
6
CONTINUOUS
10
4.0748031496062991
20
-3.7789370078740157
11
4.0745148818897636
21
-3.7796329921259844
0
LINE
8
BLACK
6
CONTINUOUS
10
4.0767716535433074
20
-3.6476377952755903
11
4.0767716535433074
21
-3.7779527559055119
0
LINE
8
BLACK
6
CONTINUOUS
10
4.0767716535433074
20
-3.7779527559055119
11
4.1496062992125982
21
-3.7779527559055119
0
LINE
8
BLACK
6
CONTINUOUS
10
4.1496062992125982
20
-3.7779527559055119
11
4.1496062992125982
21
-3.6476377952755903
0
LINE
8
BLACK
6
CONTINUOUS
10
4.1496062992125982
20
-3.6476377952755903
11
4.0767716535433074
21
-3.6476377952755903
0
LINE
8
BLACK
6
CONTINUOUS
10
4.
20
-3.6476377952755903
11
4.
21
-3.7779527559055119
0
LINE
8
BLACK
6
CONTINUOUS
10
4.
20
-3.7779527559055119
11
4.0728346456692917
21
-3.7779527559055119
0
LINE
8
BLACK
6
CONTINUOUS
10
4.0728346456692917
20
-3.7779527559055119
11
4.0728346456692917
21
-3.6476377952755903
0
LINE
8
BLACK
6
CONTINUOUS
10
4.0728346456692917
20
-3.6476377952755903
11
4.
21
-3.6476377952755903
0
LINE
8
BLACK
6
CONTINUOUS
10
3.5826771653543306
20
-3.7547244094488188
11
3.5833731496062993
21
-3.7550126771653543
0
LINE
8
BLACK
6
CONTINUOUS
10
3.5833731496062993
20
-3.7550126771653543
11
3.5836614173228347
21
-3.755708661417323
0
LINE
8
BLACK
6
CONTINUOUS
10
3.5836614173228347
20
-3.755708661417323
11
3.5836614173228347
21
-3.8328740157480312
0
LINE
8
BLACK
6
CONTINUOUS
10
3.5836614173228347
20
-3.8328740157480312
11
3.5835390944881889
21
-3.8331692913385824
0
LINE
8
BLACK
6
CONTINUOUS
10
3.5835390944881889
20
-3.8331692913385824
11
3.5836614173228347
21
-3.8334645669291336
0
LINE
8
BLACK
6
CONTINUOUS
10
3.5836614173228347
20
-3.8334645669291336
11
3.5836614173228347
21
-3.9106299212598423
0
LINE
8
BLACK
6
CONTINUOUS
10
3.5836614173228347
20
-3.9106299212598423
11
3.5833731496062993
21
-3.911325905511811
0
LINE
8
BLACK
6
CONTINUOUS
10
3.5833731496062993
20
-3.911325905511811
11
3.5826771653543306
21
-3.9116141732283465
0
LINE
8
BLACK
6
CONTINUOUS
10
3.5826771653543306
20
-3.9116141732283465
11
3.4488188976377954
21
-3.9116141732283465
0
LINE
8
BLACK
6
CONTINUOUS
10
3.4488188976377954
20
-3.9116141732283465
11
3.4481229133858267
21
-3.911325905511811
0
LINE
8
BLACK
6
CONTINUOUS
10
3.4481229133858267
20
-3.911325905511811
11
3.4478346456692912
21
-3.9106299212598423
0
LINE
8
BLACK
6
CONTINUOUS
10
3.4478346456692912
20
-3.9106299212598423
11
3.4478346456692912
21
-3.8334645669291336
0
LINE
8
BLACK
6
CONTINUOUS
10
3.4478346456692912
20
-3.8334645669291336
11
3.4479569291338583
21
-3.8331692913385824
0
LINE
8
BLACK
6
CONTINUOUS
10
3.4479569291338583
20
-3.8331692913385824
11
3.4478346456692912
21
-3.8328740157480312
0
LINE
8
BLACK
6
CONTINUOUS
10
3.4478346456692912
20
-3.8328740157480312
11
3.4478346456692912
21
-3.755708661417323
0
LINE
8
BLACK
6
CONTINUOUS
10
3.4478346456692912
20
-3.755708661417323
11
3.4481229133858267
21
-3.7550126771653543
0
LINE
8
BLACK
6
CONTINUOUS
10
3.4481229133858267
20
-3.7550126771653543
11
3.4488188976377954
21
-3.7547244094488188
0
LINE
8
BLACK
6
CONTINUOUS
10
3.4488188976377954
20
-3.7547244094488188
11
3.5826771653543306
21
-3.7547244094488188
0
LINE
8
BLACK
6
CONTINUOUS
10
3.4498031496062991
20
-3.8344488188976378
11
3.4498031496062991
21
-3.9096456692913386
0
LINE
8
BLACK
6
CONTINUOUS
10
3.4498031496062991
20
-3.9096456692913386
11
3.5816929133858268
21
-3.9096456692913386
0
LINE
8
BLACK
6
CONTINUOUS
10
3.5816929133858268
20
-3.9096456692913386
11
3.5816929133858268
21
-3.8344488188976378
0
LINE
8
BLACK
6
CONTINUOUS
10
3.5816929133858268
20
-3.8344488188976378
11
3.4498031496062991
21
-3.8344488188976378
0
LINE
8
BLACK
6
CONTINUOUS
10
3.4498031496062991
20
-3.7566929133858267
11
3.4498031496062991
21
-3.8318897637795275
0
LINE
8
BLACK
6
CONTINUOUS
10
3.4498031496062991
20
-3.8318897637795275
11
3.5816929133858268
21
-3.8318897637795275
0
LINE
8
BLACK
6
CONTINUOUS
10
3.5816929133858268
20
-3.8318897637795275
11
3.5816929133858268
21
-3.7566929133858267
0
LINE
8
BLACK
6
CONTINUOUS
10
3.5816929133858268
20
-3.7566929133858267
11
3.4498031496062991
21
-3.7566929133858267
0
LINE
8
BLACK
6
CONTINUOUS
10
2.8513779527559056
20
-3.4427165354330707
11
2.8520739370078738
21
-3.4430048031496061
0
LINE
8
BLACK
6
CONTINUOUS
10
2.8520739370078738
20
-3.4430048031496061
11
2.8523622047244093
21
-3.4437007874015748
0
LINE
8
BLACK
6
CONTINUOUS
10
2.8523622047244093
20
-3.4437007874015748
11
2.8523622047244093
21
-3.5757874015748032
0
LINE
8
BLACK
6
CONTINUOUS
10
2.8523622047244093
20
-3.5757874015748032
11
2.8525590551181104
21
-3.5757874015748032
0
LINE
8
BLACK
6
CONTINUOUS
10
2.8525590551181104
20
-3.5757874015748032
11
2.8528543307086616
21
-3.5759096850393699
0
LINE
8
BLACK
6
CONTINUOUS
10
2.8528543307086616
20
-3.5759096850393699
11
2.8531496062992123
21
-3.5757874015748032
0
LINE
8
BLACK
6
CONTINUOUS
10
2.8531496062992123
20
-3.5757874015748032
11
2.8533464566929134
21
-3.5757874015748032
0
LINE
8
BLACK
6
CONTINUOUS
10
2.8533464566929134
20
-3.5757874015748032
11
2.8533464566929134
21
-3.4437007874015748
0
LINE
8
BLACK
6
CONTINUOUS
10
2.8533464566929134
20
-3.4437007874015748
11
2.8536347244094489
21
-3.4430048031496061
0
LINE
8
BLACK
6
CONTINUOUS
10
2.8536347244094489
20
-3.4430048031496061
11
2.8543307086614171
21
-3.4427165354330707
0
LINE
8
BLACK
6
CONTINUOUS
10
2.8543307086614171
20
-3.4427165354330707
11
2.9291338582677167
21
-3.4427165354330707
0
LINE
8
BLACK
6
CONTINUOUS
10
2.9291338582677167
20
-3.4427165354330707
11
2.9298298425196849
21
-3.4430048031496061
0
LINE
8
BLACK
6
CONTINUOUS
10
2.9298298425196849
20
-3.4430048031496061
11
2.9301181102362204
21
-3.4437007874015748
0
LINE
8
BLACK
6
CONTINUOUS
10
2.9301181102362204
20
-3.4437007874015748
11
2.9301181102362204
21
-3.5757874015748032
0
LINE
8
BLACK
6
CONTINUOUS
10
2.9301181102362204
20
-3.5757874015748032
11
2.930314960629921
21
-3.5757874015748032
0
LINE
8
BLACK
6
CONTINUOUS
10
2.930314960629921
20
-3.5757874015748032
11
2.9310109448818897
21
-3.5760756692913387
0
LINE
8
BLACK
6
CONTINUOUS
10
2.9310109448818897
20
-3.5760756692913387
11
2.9312992125984252
21
-3.576771653543307
0
LINE
8
BLACK
6
CONTINUOUS
10
2.9312992125984252
20
-3.576771653543307
11
2.9312992125984252
21
-3.7106299212598426
0
LINE
8
BLACK
6
CONTINUOUS
10
2.9312992125984252
20
-3.7106299212598426
11
2.9310109448818897
21
-3.7113259055118109
0
LINE
8
BLACK
6
CONTINUOUS
10
2.9310109448818897
20
-3.7113259055118109
11
2.930314960629921
21
-3.7116141732283463
0
LINE
8
BLACK
6
CONTINUOUS
10
2.930314960629921
20
-3.7116141732283463
11
2.9301181102362204
21
-3.7116141732283463
0
LINE
8
BLACK
6
CONTINUOUS
10
2.9301181102362204
20
-3.7116141732283463
11
2.9301181102362204
21
-3.8437007874015747
0
LINE
8
BLACK
6
CONTINUOUS
10
2.9301181102362204
20
-3.8437007874015747
11
2.9298298425196849
21
-3.8443967716535434
0
LINE
8
BLACK
6
CONTINUOUS
10
2.9298298425196849
20
-3.8443967716535434
11
2.9291338582677167
21
-3.8446850393700784
0
LINE
8
BLACK
6
CONTINUOUS
10
2.9291338582677167
20
-3.8446850393700784
11
2.8543307086614171
21
-3.8446850393700784
0
LINE
8
BLACK
6
CONTINUOUS
10
2.8543307086614171
20
-3.8446850393700784
11
2.8536347244094489
21
-3.8443967716535434
0
LINE
8
BLACK
6
CONTINUOUS
10
2.8536347244094489
20
-3.8443967716535434
11
2.8533464566929134
21
-3.8437007874015747
0
LINE
8
BLACK
6
CONTINUOUS
10
2.8533464566929134
20
-3.8437007874015747
11
2.8533464566929134
21
-3.7116141732283463
0
LINE
8
BLACK
6
CONTINUOUS
10
2.8533464566929134
20
-3.7116141732283463
11
2.8531496062992123
21
-3.7116141732283463
0
LINE
8
BLACK
6
CONTINUOUS
10
2.8531496062992123
20
-3.7116141732283463
11
2.8528543307086616
21
-3.7114918503937009
0
LINE
8
BLACK
6
CONTINUOUS
10
2.8528543307086616
20
-3.7114918503937009
11
2.8525590551181104
21
-3.7116141732283463
0
LINE
8
BLACK
6
CONTINUOUS
10
2.8525590551181104
20
-3.7116141732283463
11
2.8523622047244093
21
-3.7116141732283463
0
LINE
8
BLACK
6
CONTINUOUS
10
2.8523622047244093
20
-3.7116141732283463
11
2.8523622047244093
21
-3.8437007874015747
0
LINE
8
BLACK
6
CONTINUOUS
10
2.8523622047244093
20
-3.8437007874015747
11
2.8520739370078738
21
-3.8443967716535434
0
LINE
8
BLACK
6
CONTINUOUS
10
2.8520739370078738
20
-3.8443967716535434
11
2.8513779527559056
21
-3.8446850393700784
0
LINE
8
BLACK
6
CONTINUOUS
10
2.8513779527559056
20
-3.8446850393700784
11
2.776574803149606
21
-3.8446850393700784
0
LINE
8
BLACK
6
CONTINUOUS
10
2.776574803149606
20
-3.8446850393700784
11
2.7758788188976378
21
-3.8443967716535434
0
LINE
8
BLACK
6
CONTINUOUS
10
2.7758788188976378
20
-3.8443967716535434
11
2.7755905511811023
21
-3.8437007874015747
0
LINE
8
BLACK
6
CONTINUOUS
10
2.7755905511811023
20
-3.8437007874015747
11
2.7755905511811023
21
-3.7116141732283463
0
LINE
8
BLACK
6
CONTINUOUS
10
2.7755905511811023
20
-3.7116141732283463
11
2.7753937007874017
21
-3.7116141732283463
0
LINE
8
BLACK
6
CONTINUOUS
10
2.7753937007874017
20
-3.7116141732283463
11
2.774697716535433
21
-3.7113259055118109
0
LINE
8
BLACK
6
CONTINUOUS
10
2.774697716535433
20
-3.7113259055118109
11
2.7744094488188975
21
-3.7106299212598426
0
LINE
8
BLACK
6
CONTINUOUS
10
2.7744094488188975
20
-3.7106299212598426
11
2.7744094488188975
21
-3.576771653543307
0
LINE
8
BLACK
6
CONTINUOUS
10
2.7744094488188975
20
-3.576771653543307
11
2.774697716535433
21
-3.5760756692913387
0
LINE
8
BLACK
6
CONTINUOUS
10
2.774697716535433
20
-3.5760756692913387
11
2.7753937007874017
21
-3.5757874015748032
0
LINE
8
BLACK
6
CONTINUOUS
10
2.7753937007874017
20
-3.5757874015748032
11
2.7755905511811023
21
-3.5757874015748032
0
LINE
8
BLACK
6
CONTINUOUS
10
2.7755905511811023
20
-3.5757874015748032
11
2.7755905511811023
21
-3.4437007874015748
0
LINE
8
BLACK
6
CONTINUOUS
10
2.7755905511811023
20
-3.4437007874015748
11
2.7758788188976378
21
-3.4430048031496061
0
LINE
8
BLACK
6
CONTINUOUS
10
2.7758788188976378
20
-3.4430048031496061
11
2.776574803149606
21
-3.4427165354330707
0
LINE
8
BLACK
6
CONTINUOUS
10
2.776574803149606
20
-3.4427165354330707
11
2.8513779527559056
21
-3.4427165354330707
0
LINE
8
BLACK
6
CONTINUOUS
10
2.8553149606299213
20
-3.7124015748031494
11
2.8553149606299213
21
-3.8427165354330706
0
LINE
8
BLACK
6
CONTINUOUS
10
2.8553149606299213
20
-3.8427165354330706
11
2.9281496062992125
21
-3.8427165354330706
0
LINE
8
BLACK
6
CONTINUOUS
10
2.9281496062992125
20
-3.8427165354330706
11
2.9281496062992125
21
-3.7124015748031494
0
LINE
8
BLACK
6
CONTINUOUS
10
2.9281496062992125
20
-3.7124015748031494
11
2.8553149606299213
21
-3.7124015748031494
0
LINE
8
BLACK
6
CONTINUOUS
10
2.7775590551181102
20
-3.7124015748031494
11
2.7775590551181102
21
-3.8427165354330706
0
LINE
8
BLACK
6
CONTINUOUS
10
2.7775590551181102
20
-3.8427165354330706
11
2.8503937007874014
21
-3.8427165354330706
0
LINE
8
BLACK
6
CONTINUOUS
10
2.8503937007874014
20
-3.8427165354330706
11
2.8503937007874014
21
-3.7124015748031494
0
LINE
8
BLACK
6
CONTINUOUS
10
2.8503937007874014
20
-3.7124015748031494
11
2.7775590551181102
21
-3.7124015748031494
0
LINE
8
BLACK
6
CONTINUOUS
10
2.8541338582677165
20
-3.5777559055118111
11
2.8541338582677165
21
-3.7096456692913384
0
LINE
8
BLACK
6
CONTINUOUS
10
2.8541338582677165
20
-3.7096456692913384
11
2.9293307086614173
21
-3.7096456692913384
0
LINE
8
BLACK
6
CONTINUOUS
10
2.9293307086614173
20
-3.7096456692913384
11
2.9293307086614173
21
-3.5777559055118111
0
LINE
8
BLACK
6
CONTINUOUS
10
2.9293307086614173
20
-3.5777559055118111
11
2.8541338582677165
21
-3.5777559055118111
0
LINE
8
BLACK
6
CONTINUOUS
10
2.7763779527559054
20
-3.5777559055118111
11
2.7763779527559054
21
-3.7096456692913384
0
LINE
8
BLACK
6
CONTINUOUS
10
2.7763779527559054
20
-3.7096456692913384
11
2.8515748031496062
21
-3.7096456692913384
0
LINE
8
BLACK
6
CONTINUOUS
10
2.8515748031496062
20
-3.7096456692913384
11
2.8515748031496062
21
-3.5777559055118111
0
LINE
8
BLACK
6
CONTINUOUS
10
2.8515748031496062
20
-3.5777559055118111
11
2.7763779527559054
21
-3.5777559055118111
0
LINE
8
BLACK
6
CONTINUOUS
10
2.8553149606299213
20
-3.4446850393700785
11
2.8553149606299213
21
-3.5749999999999997
0
LINE
8
BLACK
6
CONTINUOUS
10
2.8553149606299213
20
-3.5749999999999997
11
2.9281496062992125
21
-3.5749999999999997
0
LINE
8
BLACK
6
CONTINUOUS
10
2.9281496062992125
20
-3.5749999999999997
11
2.9281496062992125
21
-3.4446850393700785
0
LINE
8
BLACK
6
CONTINUOUS
10
2.9281496062992125
20
-3.4446850393700785
11
2.8553149606299213
21
-3.4446850393700785
0
LINE
8
BLACK
6
CONTINUOUS
10
2.7775590551181102
20
-3.4446850393700785
11
2.7775590551181102
21
-3.5749999999999997
0
LINE
8
BLACK
6
CONTINUOUS
10
2.7775590551181102
20
-3.5749999999999997
11
2.8503937007874014
21
-3.5749999999999997
0
LINE
8
BLACK
6
CONTINUOUS
10
2.8503937007874014
20
-3.5749999999999997
11
2.8503937007874014
21
-3.4446850393700785
0
LINE
8
BLACK
6
CONTINUOUS
10
2.8503937007874014
20
-3.4446850393700785
11
2.7775590551181102
21
-3.4446850393700785
0
LINE
8
BLACK
6
CONTINUOUS
10
2.3248031496062991
20
-3.4387795275590549
11
2.3254991338582678
21
-3.4390677952755904
0
LINE
8
BLACK
6
CONTINUOUS
10
2.3254991338582678
20
-3.4390677952755904
11
2.3257874015748032
21
-3.4397637795275591
0
LINE
8
BLACK
6
CONTINUOUS
10
2.3257874015748032
20
-3.4397637795275591
11
2.3257874015748032
21
-3.5718503937007875
0
LINE
8
BLACK
6
CONTINUOUS
10
2.3257874015748032
20
-3.5718503937007875
11
2.3259842519685039
21
-3.5718503937007875
0
LINE
8
BLACK
6
CONTINUOUS
10
2.3259842519685039
20
-3.5718503937007875
11
2.3266802362204726
21
-3.5721386614173229
0
LINE
8
BLACK
6
CONTINUOUS
10
2.3266802362204726
20
-3.5721386614173229
11
2.326771653543307
21
-3.5723593700787402
0
LINE
8
BLACK
6
CONTINUOUS
10
2.326771653543307
20
-3.5723593700787402
11
2.3268630708661417
21
-3.5721386614173229
0
LINE
8
BLACK
6
CONTINUOUS
10
2.3268630708661417
20
-3.5721386614173229
11
2.32755905511811
21
-3.5718503937007875
0
LINE
8
BLACK
6
CONTINUOUS
10
2.32755905511811
20
-3.5718503937007875
11
2.3277559055118111
21
-3.5718503937007875
0
LINE
8
BLACK
6
CONTINUOUS
10
2.3277559055118111
20
-3.5718503937007875
11
2.3277559055118111
21
-3.4397637795275591
0
LINE
8
BLACK
6
CONTINUOUS
10
2.3277559055118111
20
-3.4397637795275591
11
2.3280441732283466
21
-3.4390677952755904
0
LINE
8
BLACK
6
CONTINUOUS
10
2.3280441732283466
20
-3.4390677952755904
11
2.3287401574803148
21
-3.4387795275590549
0
LINE
8
BLACK
6
CONTINUOUS
10
2.3287401574803148
20
-3.4387795275590549
11
2.4035433070866139
21
-3.4387795275590549
0
LINE
8
BLACK
6
CONTINUOUS
10
2.4035433070866139
20
-3.4387795275590549
11
2.4042392913385826
21
-3.4390677952755904
0
LINE
8
BLACK
6
CONTINUOUS
10
2.4042392913385826
20
-3.4390677952755904
11
2.4045275590551181
21
-3.4397637795275591
0
LINE
8
BLACK
6
CONTINUOUS
10
2.4045275590551181
20
-3.4397637795275591
11
2.4045275590551181
21
-3.5718503937007875
0
LINE
8
BLACK
6
CONTINUOUS
10
2.4045275590551181
20
-3.5718503937007875
11
2.4047244094488187
21
-3.5718503937007875
0
LINE
8
BLACK
6
CONTINUOUS
10
2.4047244094488187
20
-3.5718503937007875
11
2.4054203937007874
21
-3.5721386614173229
0
LINE
8
BLACK
6
CONTINUOUS
10
2.4054203937007874
20
-3.5721386614173229
11
2.4057086614173229
21
-3.5728346456692912
0
LINE
8
BLACK
6
CONTINUOUS
10
2.4057086614173229
20
-3.5728346456692912
11
2.4057086614173229
21
-3.7066929133858268
0
LINE
8
BLACK
6
CONTINUOUS
10
2.4057086614173229
20
-3.7066929133858268
11
2.4054203937007874
21
-3.7073888976377951
0
LINE
8
BLACK
6
CONTINUOUS
10
2.4054203937007874
20
-3.7073888976377951
11
2.4047244094488187
21
-3.7076771653543306
0
LINE
8
BLACK
6
CONTINUOUS
10
2.4047244094488187
20
-3.7076771653543306
11
2.4045275590551181
21
-3.7076771653543306
0
LINE
8
BLACK
6
CONTINUOUS
10
2.4045275590551181
20
-3.7076771653543306
11
2.4045275590551181
21
-3.839763779527559
0
LINE
8
BLACK
6
CONTINUOUS
10
2.4045275590551181
20
-3.839763779527559
11
2.4042392913385826
21
-3.8404597637795277
0
LINE
8
BLACK
6
CONTINUOUS
10
2.4042392913385826
20
-3.8404597637795277
11
2.4035433070866139
21
-3.8407480314960627
0
LINE
8
BLACK
6
CONTINUOUS
10
2.4035433070866139
20
-3.8407480314960627
11
2.3287401574803148
21
-3.8407480314960627
0
LINE
8
BLACK
6
CONTINUOUS
10
2.3287401574803148
20
-3.8407480314960627
11
2.3280441732283466
21
-3.8404597637795277
0
LINE
8
BLACK
6
CONTINUOUS
10
2.3280441732283466
20
-3.8404597637795277
11
2.3277559055118111
21
-3.839763779527559
0
LINE
8
BLACK
6
CONTINUOUS
10
2.3277559055118111
20
-3.839763779527559
11
2.3277559055118111
21
-3.7076771653543306
0
LINE
8
BLACK
6
CONTINUOUS
10
2.3277559055118111
20
-3.7076771653543306
11
2.32755905511811
21
-3.7076771653543306
0
LINE
8
BLACK
6
CONTINUOUS
10
2.32755905511811
20
-3.7076771653543306
11
2.3268630708661417
21
-3.7073888976377951
0
LINE
8
BLACK
6
CONTINUOUS
10
2.3268630708661417
20
-3.7073888976377951
11
2.326771653543307
21
-3.7071681496062991
0
LINE
8
BLACK
6
CONTINUOUS
10
2.326771653543307
20
-3.7071681496062991
11
2.3266802362204726
21
-3.7073888976377951
0
LINE
8
BLACK
6
CONTINUOUS
10
2.3266802362204726
20
-3.7073888976377951
11
2.3259842519685039
21
-3.7076771653543306
0
LINE
8
BLACK
6
CONTINUOUS
10
2.3259842519685039
20
-3.7076771653543306
11
2.3257874015748032
21
-3.7076771653543306
0
LINE
8
BLACK
6
CONTINUOUS
10
2.3257874015748032
20
-3.7076771653543306
11
2.3257874015748032
21
-3.839763779527559
0
LINE
8
BLACK
6
CONTINUOUS
10
2.3257874015748032
20
-3.839763779527559
11
2.3254991338582678
21
-3.8404597637795277
0
LINE
8
BLACK
6
CONTINUOUS
10
2.3254991338582678
20
-3.8404597637795277
11
2.3248031496062991
21
-3.8407480314960627
0
LINE
8
BLACK
6
CONTINUOUS
10
2.3248031496062991
20
-3.8407480314960627
11
2.25
21
-3.8407480314960627
0
LINE
8
BLACK
6
CONTINUOUS
10
2.25
20
-3.8407480314960627
11
2.2493040157480313
21
-3.8404597637795277
0
LINE
8
BLACK
6
CONTINUOUS
10
2.2493040157480313
20
-3.8404597637795277
11
2.2490157480314958
21
-3.839763779527559
0
LINE
8
BLACK
6
CONTINUOUS
10
2.2490157480314958
20
-3.839763779527559
11
2.2490157480314958
21
-3.7076771653543306
0
LINE
8
BLACK
6
CONTINUOUS
10
2.2490157480314958
20
-3.7076771653543306
11
2.2488188976377952
21
-3.7076771653543306
0
LINE
8
BLACK
6
CONTINUOUS
10
2.2488188976377952
20
-3.7076771653543306
11
2.2481229133858269
21
-3.7073888976377951
0
LINE
8
BLACK
6
CONTINUOUS
10
2.2481229133858269
20
-3.7073888976377951
11
2.2478346456692915
21
-3.7066929133858268
0
LINE
8
BLACK
6
CONTINUOUS
10
2.2478346456692915
20
-3.7066929133858268
11
2.2478346456692915
21
-3.5728346456692912
0
LINE
8
BLACK
6
CONTINUOUS
10
2.2478346456692915
20
-3.5728346456692912
11
2.2481229133858269
21
-3.5721386614173229
0
LINE
8
BLACK
6
CONTINUOUS
10
2.2481229133858269
20
-3.5721386614173229
11
2.2488188976377952
21
-3.5718503937007875
0
LINE
8
BLACK
6
CONTINUOUS
10
2.2488188976377952
20
-3.5718503937007875
11
2.2490157480314958
21
-3.5718503937007875
0
LINE
8
BLACK
6
CONTINUOUS
10
2.2490157480314958
20
-3.5718503937007875
11
2.2490157480314958
21
-3.4397637795275591
0
LINE
8
BLACK
6
CONTINUOUS
10
2.2490157480314958
20
-3.4397637795275591
11
2.2493040157480313
21
-3.4390677952755904
0
LINE
8
BLACK
6
CONTINUOUS
10
2.2493040157480313
20
-3.4390677952755904
11
2.25
21
-3.4387795275590549
0
LINE
8
BLACK
6
CONTINUOUS
10
2.25
20
-3.4387795275590549
11
2.3248031496062991
21
-3.4387795275590549
0
LINE
8
BLACK
6
CONTINUOUS
10
2.329724409448819
20
-3.7084645669291336
11
2.329724409448819
21
-3.8387795275590548
0
LINE
8
BLACK
6
CONTINUOUS
10
2.329724409448819
20
-3.8387795275590548
11
2.4025590551181102
21
-3.8387795275590548
0
LINE
8
BLACK
6
CONTINUOUS
10
2.4025590551181102
20
-3.8387795275590548
11
2.4025590551181102
21
-3.7084645669291336
0
LINE
8
BLACK
6
CONTINUOUS
10
2.4025590551181102
20
-3.7084645669291336
11
2.329724409448819
21
-3.7084645669291336
0
LINE
8
BLACK
6
CONTINUOUS
10
2.2509842519685037
20
-3.7084645669291336
11
2.2509842519685037
21
-3.8387795275590548
0
LINE
8
BLACK
6
CONTINUOUS
10
2.2509842519685037
20
-3.8387795275590548
11
2.3238188976377954
21
-3.8387795275590548
0
LINE
8
BLACK
6
CONTINUOUS
10
2.3238188976377954
20
-3.8387795275590548
11
2.3238188976377954
21
-3.7084645669291336
0
LINE
8
BLACK
6
CONTINUOUS
10
2.3238188976377954
20
-3.7084645669291336
11
2.2509842519685037
21
-3.7084645669291336
0
LINE
8
BLACK
6
CONTINUOUS
10
2.3285433070866142
20
-3.5738188976377954
11
2.3285433070866142
21
-3.7057086614173227
0
LINE
8
BLACK
6
CONTINUOUS
10
2.3285433070866142
20
-3.7057086614173227
11
2.403740157480315
21
-3.7057086614173227
0
LINE
8
BLACK
6
CONTINUOUS
10
2.403740157480315
20
-3.7057086614173227
11
2.403740157480315
21
-3.5738188976377954
0
LINE
8
BLACK
6
CONTINUOUS
10
2.403740157480315
20
-3.5738188976377954
11
2.3285433070866142
21
-3.5738188976377954
0
LINE
8
BLACK
6
CONTINUOUS
10
2.2498031496062993
20
-3.5738188976377954
11
2.2498031496062993
21
-3.7057086614173227
0
LINE
8
BLACK
6
CONTINUOUS
10
2.2498031496062993
20
-3.7057086614173227
11
2.3249999999999997
21
-3.7057086614173227
0
LINE
8
BLACK
6
CONTINUOUS
10
2.3249999999999997
20
-3.7057086614173227
11
2.3249999999999997
21
-3.5738188976377954
0
LINE
8
BLACK
6
CONTINUOUS
10
2.3249999999999997
20
-3.5738188976377954
11
2.2498031496062993
21
-3.5738188976377954
0
LINE
8
BLACK
6
CONTINUOUS
10
2.329724409448819
20
-3.4407480314960628
11
2.329724409448819
21
-3.571062992125984
0
LINE
8
BLACK
6
CONTINUOUS
10
2.329724409448819
20
-3.571062992125984
11
2.4025590551181102
21
-3.571062992125984
0
LINE
8
BLACK
6
CONTINUOUS
10
2.4025590551181102
20
-3.571062992125984
11
2.4025590551181102
21
-3.4407480314960628
0
LINE
8
BLACK
6
CONTINUOUS
10
2.4025590551181102
20
-3.4407480314960628
11
2.329724409448819
21
-3.4407480314960628
0
LINE
8
BLACK
6
CONTINUOUS
10
2.2509842519685037
20
-3.4407480314960628
11
2.2509842519685037
21
-3.571062992125984
0
LINE
8
BLACK
6
CONTINUOUS
10
2.2509842519685037
20
-3.571062992125984
11
2.3238188976377954
21
-3.571062992125984
0
LINE
8
BLACK
6
CONTINUOUS
10
2.3238188976377954
20
-3.571062992125984
11
2.3238188976377954
21
-3.4407480314960628
0
LINE
8
BLACK
6
CONTINUOUS
10
2.3238188976377954
20
-3.4407480314960628
11
2.2509842519685037
21
-3.4407480314960628
0
LINE
8
BLACK
6
CONTINUOUS
10
4.409448818897638
20
-3.4478346456692912
11
4.4101448031496062
21
-3.4481229133858267
0
LINE
8
BLACK
6
CONTINUOUS
10
4.4101448031496062
20
-3.4481229133858267
11
4.4104330708661417
21
-3.4488188976377954
0
LINE
8
BLACK
6
CONTINUOUS
10
4.4104330708661417
20
-3.4488188976377954
11
4.4104330708661417
21
-3.7893700787401574
0
LINE
8
BLACK
6
CONTINUOUS
10
4.4104330708661417
20
-3.7893700787401574
11
4.4101448031496062
21
-3.7900660629921261
0
LINE
8
BLACK
6
CONTINUOUS
10
4.4101448031496062
20
-3.7900660629921261
11
4.409448818897638
21
-3.7903543307086611
0
LINE
8
BLACK
6
CONTINUOUS
10
4.409448818897638
20
-3.7903543307086611
11
4.1673228346456694
21
-3.7903543307086611
0
LINE
8
BLACK
6
CONTINUOUS
10
4.1673228346456694
20
-3.7903543307086611
11
4.1666268503937003
21
-3.7900660629921261
0
LINE
8
BLACK
6
CONTINUOUS
10
4.1666268503937003
20
-3.7900660629921261
11
4.1663385826771648
21
-3.7893700787401574
0
LINE
8
BLACK
6
CONTINUOUS
10
4.1663385826771648
20
-3.7893700787401574
11
4.1663385826771648
21
-3.4488188976377954
0
LINE
8
BLACK
6
CONTINUOUS
10
4.1663385826771648
20
-3.4488188976377954
11
4.1666268503937003
21
-3.4481229133858267
0
LINE
8
BLACK
6
CONTINUOUS
10
4.1666268503937003
20
-3.4481229133858267
11
4.1673228346456694
21
-3.4478346456692912
0
LINE
8
BLACK
6
CONTINUOUS
10
4.1673228346456694
20
-3.4478346456692912
11
4.409448818897638
21
-3.4478346456692912
0
LINE
8
BLACK
6
CONTINUOUS
10
4.1683070866141732
20
-3.4498031496062991
11
4.1683070866141732
21
-3.7883858267716533
0
LINE
8
BLACK
6
CONTINUOUS
10
4.1683070866141732
20
-3.7883858267716533
11
4.4084645669291334
21
-3.7883858267716533
0
LINE
8
BLACK
6
CONTINUOUS
10
4.4084645669291334
20
-3.7883858267716533
11
4.4084645669291334
21
-3.4498031496062991
0
LINE
8
BLACK
6
CONTINUOUS
10
4.4084645669291334
20
-3.4498031496062991
11
4.1683070866141732
21
-3.4498031496062991
0
LINE
8
BLACK
6
CONTINUOUS
10
2.7633858267716533
20
-3.5120078740157479
11
2.764081811023622
21
-3.5122961417322833
0
LINE
8
BLACK
6
CONTINUOUS
10
2.764081811023622
20
-3.5122961417322833
11
2.7643700787401575
21
-3.512992125984252
0
LINE
8
BLACK
6
CONTINUOUS
10
2.7643700787401575
20
-3.512992125984252
11
2.7643700787401575
21
-3.7551181102362206
0
LINE
8
BLACK
6
CONTINUOUS
10
2.7643700787401575
20
-3.7551181102362206
11
2.764081811023622
21
-3.7558140944881888
0
LINE
8
BLACK
6
CONTINUOUS
10
2.764081811023622
20
-3.7558140944881888
11
2.7633858267716533
21
-3.7561023622047243
0
LINE
8
BLACK
6
CONTINUOUS
10
2.7633858267716533
20
-3.7561023622047243
11
2.4228346456692913
21
-3.7561023622047243
0
LINE
8
BLACK
6
CONTINUOUS
10
2.4228346456692913
20
-3.7561023622047243
11
2.4221386614173226
21
-3.7558140944881888
0
LINE
8
BLACK
6
CONTINUOUS
10
2.4221386614173226
20
-3.7558140944881888
11
2.4218503937007871
21
-3.7551181102362206
0
LINE
8
BLACK
6
CONTINUOUS
10
2.4218503937007871
20
-3.7551181102362206
11
2.4218503937007871
21
-3.512992125984252
0
LINE
8
BLACK
6
CONTINUOUS
10
2.4218503937007871
20
-3.512992125984252
11
2.4221386614173226
21
-3.5122961417322833
0
LINE
8
BLACK
6
CONTINUOUS
10
2.4221386614173226
20
-3.5122961417322833
11
2.4228346456692913
21
-3.5120078740157479
0
LINE
8
BLACK
6
CONTINUOUS
10
2.4228346456692913
20
-3.5120078740157479
11
2.7633858267716533
21
-3.5120078740157479
0
LINE
8
BLACK
6
CONTINUOUS
10
2.423818897637795
20
-3.5139763779527557
11
2.423818897637795
21
-3.7541338582677164
0
LINE
8
BLACK
6
CONTINUOUS
10
2.423818897637795
20
-3.7541338582677164
11
2.7624015748031496
21
-3.7541338582677164
0
LINE
8
BLACK
6
CONTINUOUS
10
2.7624015748031496
20
-3.7541338582677164
11
2.7624015748031496
21
-3.5139763779527557
0
LINE
8
BLACK
6
CONTINUOUS
10
2.7624015748031496
20
-3.5139763779527557
11
2.423818897637795
21
-3.5139763779527557
0
LINE
8
BLACK
6
CONTINUOUS
10
3.6183070866141733
20
-3.4143700787401574
11
3.6190030708661416
21
-3.4146583464566929
0
LINE
8
BLACK
6
CONTINUOUS
10
3.6190030708661416
20
-3.4146583464566929
11
3.619291338582677
21
-3.4153543307086611
0
LINE
8
BLACK
6
CONTINUOUS
10
3.619291338582677
20
-3.4153543307086611
11
3.619291338582677
21
-3.4894488188976376
0
LINE
8
BLACK
6
CONTINUOUS
10
3.619291338582677
20
-3.4894488188976376
11
3.8334645669291336
21
-3.4894488188976376
0
LINE
8
BLACK
6
CONTINUOUS
10
3.8334645669291336
20
-3.4894488188976376
11
3.8341605511811023
21
-3.489737086614173
0
LINE
8
BLACK
6
CONTINUOUS
10
3.8341605511811023
20
-3.489737086614173
11
3.8344488188976378
21
-3.4904330708661417
0
LINE
8
BLACK
6
CONTINUOUS
10
3.8344488188976378
20
-3.4904330708661417
11
3.8344488188976378
21
-3.7361023622047242
0
LINE
8
BLACK
6
CONTINUOUS
10
3.8344488188976378
20
-3.7361023622047242
11
3.8341605511811023
21
-3.736798346456693
0
LINE
8
BLACK
6
CONTINUOUS
10
3.8341605511811023
20
-3.736798346456693
11
3.8334645669291336
21
-3.7370866141732284
0
LINE
8
BLACK
6
CONTINUOUS
10
3.8334645669291336
20
-3.7370866141732284
11
3.5877952755905511
21
-3.7370866141732284
0
LINE
8
BLACK
6
CONTINUOUS
10
3.5877952755905511
20
-3.7370866141732284
11
3.5870992913385824
21
-3.736798346456693
0
LINE
8
BLACK
6
CONTINUOUS
10
3.5870992913385824
20
-3.736798346456693
11
3.586811023622047
21
-3.7361023622047242
0
LINE
8
BLACK
6
CONTINUOUS
10
3.586811023622047
20
-3.7361023622047242
11
3.586811023622047
21
-3.4911417322834644
0
LINE
8
BLACK
6
CONTINUOUS
10
3.586811023622047
20
-3.4911417322834644
11
3.4860236220472438
21
-3.4911417322834644
0
LINE
8
BLACK
6
CONTINUOUS
10
3.4860236220472438
20
-3.4911417322834644
11
3.4853276377952755
21
-3.4908534645669289
0
LINE
8
BLACK
6
CONTINUOUS
10
3.4853276377952755
20
-3.4908534645669289
11
3.4850393700787401
21
-3.4901574803149606
0
LINE
8
BLACK
6
CONTINUOUS
10
3.4850393700787401
20
-3.4901574803149606
11
3.4850393700787401
21
-3.4153543307086611
0
LINE
8
BLACK
6
CONTINUOUS
10
3.4850393700787401
20
-3.4153543307086611
11
3.4853276377952755
21
-3.4146583464566929
0
LINE
8
BLACK
6
CONTINUOUS
10
3.4853276377952755
20
-3.4146583464566929
11
3.4860236220472438
21
-3.4143700787401574
0
LINE
8
BLACK
6
CONTINUOUS
10
3.4860236220472438
20
-3.4143700787401574
11
3.6183070866141733
21
-3.4143700787401574
0
LINE
8
BLACK
6
CONTINUOUS
10
3.5887795275590548
20
-3.4914173228346455
11
3.5887795275590548
21
-3.7351181102362205
0
LINE
8
BLACK
6
CONTINUOUS
10
3.5887795275590548
20
-3.7351181102362205
11
3.8324803149606299
21
-3.7351181102362205
0
LINE
8
BLACK
6
CONTINUOUS
10
3.8324803149606299
20
-3.7351181102362205
11
3.8324803149606299
21
-3.4914173228346455
0
LINE
8
BLACK
6
CONTINUOUS
10
3.8324803149606299
20
-3.4914173228346455
11
3.5887795275590548
21
-3.4914173228346455
0
LINE
8
BLACK
6
CONTINUOUS
10
3.487007874015748
20
-3.4163385826771653
11
3.487007874015748
21
-3.4891732283464565
0
LINE
8
BLACK
6
CONTINUOUS
10
3.487007874015748
20
-3.4891732283464565
11
3.6173228346456692
21
-3.4891732283464565
0
LINE
8
BLACK
6
CONTINUOUS
10
3.6173228346456692
20
-3.4891732283464565
11
3.6173228346456692
21
-3.4163385826771653
0
LINE
8
BLACK
6
CONTINUOUS
10
3.6173228346456692
20
-3.4163385826771653
11
3.487007874015748
21
-3.4163385826771653
0
LINE
8
BLACK
6
CONTINUOUS
10
4.1503937007874017
20
-3.3445866141732283
11
4.1510896850393699
21
-3.3448748818897638
0
LINE
8
BLACK
6
CONTINUOUS
10
4.1510896850393699
20
-3.3448748818897638
11
4.1513779527559054
21
-3.345570866141732
0
LINE
8
BLACK
6
CONTINUOUS
10
4.1513779527559054
20
-3.345570866141732
11
4.1513779527559054
21
-3.4794291338582677
0
LINE
8
BLACK
6
CONTINUOUS
10
4.1513779527559054
20
-3.4794291338582677
11
4.1510896850393699
21
-3.4801251181102359
0
LINE
8
BLACK
6
CONTINUOUS
10
4.1510896850393699
20
-3.4801251181102359
11
4.1503937007874017
21
-3.4804133858267714
0
LINE
8
BLACK
6
CONTINUOUS
10
4.1503937007874017
20
-3.4804133858267714
11
4.1501968503937006
21
-3.4804133858267714
0
LINE
8
BLACK
6
CONTINUOUS
10
4.1501968503937006
20
-3.4804133858267714
11
4.1501968503937006
21
-3.6124999999999998
0
LINE
8
BLACK
6
CONTINUOUS
10
4.1501968503937006
20
-3.6124999999999998
11
4.1499085826771651
21
-3.6131959842519685
0
LINE
8
BLACK
6
CONTINUOUS
10
4.1499085826771651
20
-3.6131959842519685
11
4.1492125984251969
21
-3.613484251968504
0
LINE
8
BLACK
6
CONTINUOUS
10
4.1492125984251969
20
-3.613484251968504
11
4.0744094488188978
21
-3.613484251968504
0
LINE
8
BLACK
6
CONTINUOUS
10
4.0744094488188978
20
-3.613484251968504
11
4.0737134645669286
21
-3.6131959842519685
0
LINE
8
BLACK
6
CONTINUOUS
10
4.0737134645669286
20
-3.6131959842519685
11
4.0734251968503932
21
-3.6124999999999998
0
LINE
8
BLACK
6
CONTINUOUS
10
4.0734251968503932
20
-3.6124999999999998
11
4.0734251968503932
21
-3.4809224015748033
0
LINE
8
BLACK
6
CONTINUOUS
10
4.0734251968503932
20
-3.4809224015748033
11
4.073228346456693
21
-3.4810039370078738
0
LINE
8
BLACK
6
CONTINUOUS
10
4.073228346456693
20
-3.4810039370078738
11
4.0728346456692917
21
-3.4810039370078738
0
LINE
8
BLACK
6
CONTINUOUS
10
4.0728346456692917
20
-3.4810039370078738
11
4.0728346456692917
21
-3.6124999999999998
0
LINE
8
BLACK
6
CONTINUOUS
10
4.0728346456692917
20
-3.6124999999999998
11
4.0725463779527562
21
-3.6131959842519685
0
LINE
8
BLACK
6
CONTINUOUS
10
4.0725463779527562
20
-3.6131959842519685
11
4.0718503937007871
21
-3.613484251968504
0
LINE
8
BLACK
6
CONTINUOUS
10
4.0718503937007871
20
-3.613484251968504
11
3.997047244094488
21
-3.613484251968504
0
LINE
8
BLACK
6
CONTINUOUS
10
3.997047244094488
20
-3.613484251968504
11
3.9963512598425197
21
-3.6131959842519685
0
LINE
8
BLACK
6
CONTINUOUS
10
3.9963512598425197
20
-3.6131959842519685
11
3.9960629921259843
21
-3.6124999999999998
0
LINE
8
BLACK
6
CONTINUOUS
10
3.9960629921259843
20
-3.6124999999999998
11
3.9960629921259843
21
-3.4810039370078738
0
LINE
8
BLACK
6
CONTINUOUS
10
3.9960629921259843
20
-3.4810039370078738
11
3.9953670078740156
21
-3.4807156692913384
0
LINE
8
BLACK
6
CONTINUOUS
10
3.9953670078740156
20
-3.4807156692913384
11
3.9950787401574801
21
-3.4800196850393701
0
LINE
8
BLACK
6
CONTINUOUS
10
3.9950787401574801
20
-3.4800196850393701
11
3.9950787401574801
21
-3.3461614173228345
0
LINE
8
BLACK
6
CONTINUOUS
10
3.9950787401574801
20
-3.3461614173228345
11
3.9953670078740156
21
-3.3454654330708662
0
LINE
8
BLACK
6
CONTINUOUS
10
3.9953670078740156
20
-3.3454654330708662
11
3.9960629921259843
21
-3.3451771653543307
0
LINE
8
BLACK
6
CONTINUOUS
10
3.9960629921259843
20
-3.3451771653543307
11
4.0724071653543303
21
-3.3451771653543307
0
LINE
8
BLACK
6
CONTINUOUS
10
4.0724071653543303
20
-3.3451771653543307
11
4.0725323622047247
21
-3.3448748818897638
0
LINE
8
BLACK
6
CONTINUOUS
10
4.0725323622047247
20
-3.3448748818897638
11
4.073228346456693
21
-3.3445866141732283
0
LINE
8
BLACK
6
CONTINUOUS
10
4.073228346456693
20
-3.3445866141732283
11
4.1503937007874017
21
-3.3445866141732283
0
LINE
8
BLACK
6
CONTINUOUS
10
4.0753937007874015
20
-3.4812007874015749
11
4.0753937007874015
21
-3.6115157480314961
0
LINE
8
BLACK
6
CONTINUOUS
10
4.0753937007874015
20
-3.6115157480314961
11
4.1482283464566931
21
-3.6115157480314961
0
LINE
8
BLACK
6
CONTINUOUS
10
4.1482283464566931
20
-3.6115157480314961
11
4.1482283464566931
21
-3.4812007874015749
0
LINE
8
BLACK
6
CONTINUOUS
10
4.1482283464566931
20
-3.4812007874015749
11
4.0753937007874015
21
-3.4812007874015749
0
LINE
8
BLACK
6
CONTINUOUS
10
3.9980314960629921
20
-3.4812007874015749
11
3.9980314960629921
21
-3.6115157480314961
0
LINE
8
BLACK
6
CONTINUOUS
10
3.9980314960629921
20
-3.6115157480314961
11
4.0708661417322833
21
-3.6115157480314961
0
LINE
8
BLACK
6
CONTINUOUS
10
4.0708661417322833
20
-3.6115157480314961
11
4.0708661417322833
21
-3.4812007874015749
0
LINE
8
BLACK
6
CONTINUOUS
10
4.0708661417322833
20
-3.4812007874015749
11
3.9980314960629921
21
-3.4812007874015749
0
LINE
8
BLACK
6
CONTINUOUS
10
3.997047244094488
20
-3.3471456692913386
11
3.997047244094488
21
-3.4790354330708659
0
LINE
8
BLACK
6
CONTINUOUS
10
3.997047244094488
20
-3.4790354330708659
11
4.0722440944881892
21
-3.4790354330708659
0
LINE
8
BLACK
6
CONTINUOUS
10
4.0722440944881892
20
-3.4790354330708659
11
4.0722440944881892
21
-3.3471456692913386
0
LINE
8
BLACK
6
CONTINUOUS
10
4.0722440944881892
20
-3.3471456692913386
11
3.997047244094488
21
-3.3471456692913386
0
LINE
8
BLACK
6
CONTINUOUS
10
4.0742125984251967
20
-3.3465551181102362
11
4.0742125984251967
21
-3.4784448818897635
0
LINE
8
BLACK
6
CONTINUOUS
10
4.0742125984251967
20
-3.4784448818897635
11
4.1494094488188979
21
-3.4784448818897635
0
LINE
8
BLACK
6
CONTINUOUS
10
4.1494094488188979
20
-3.4784448818897635
11
4.1494094488188979
21
-3.3465551181102362
0
LINE
8
BLACK
6
CONTINUOUS
10
4.1494094488188979
20
-3.3465551181102362
11
4.0742125984251967
21
-3.3465551181102362
0
LINE
8
BLACK
6
CONTINUOUS
10
3.9724409448818898
20
-3.3649606299212595
11
3.9731369291338581
21
-3.365248897637795
0
LINE
8
BLACK
6
CONTINUOUS
10
3.9731369291338581
20
-3.365248897637795
11
3.9734251968503935
21
-3.3659448818897637
0
LINE
8
BLACK
6
CONTINUOUS
10
3.9734251968503935
20
-3.3659448818897637
11
3.9734251968503935
21
-3.4427165354330707
0
LINE
8
BLACK
6
CONTINUOUS
10
3.9734251968503935
20
-3.4427165354330707
11
3.9741211811023622
21
-3.4430048031496061
0
LINE
8
BLACK
6
CONTINUOUS
10
3.9741211811023622
20
-3.4430048031496061
11
3.9744094488188977
21
-3.4437007874015748
0
LINE
8
BLACK
6
CONTINUOUS
10
3.9744094488188977
20
-3.4437007874015748
11
3.9744094488188977
21
-3.5208661417322835
0
LINE
8
BLACK
6
CONTINUOUS
10
3.9744094488188977
20
-3.5208661417322835
11
3.9741211811023622
21
-3.5215621259842518
0
LINE
8
BLACK
6
CONTINUOUS
10
3.9741211811023622
20
-3.5215621259842518
11
3.9739004330708663
21
-3.5216535433070866
0
LINE
8
BLACK
6
CONTINUOUS
10
3.9739004330708663
20
-3.5216535433070866
11
3.9741211811023622
21
-3.5217449606299214
0
LINE
8
BLACK
6
CONTINUOUS
10
3.9741211811023622
20
-3.5217449606299214
11
3.9744094488188977
21
-3.5224409448818896
0
LINE
8
BLACK
6
CONTINUOUS
10
3.9744094488188977
20
-3.5224409448818896
11
3.9744094488188977
21
-3.5996062992125983
0
LINE
8
BLACK
6
CONTINUOUS
10
3.9744094488188977
20
-3.5996062992125983
11
3.9741211811023622
21
-3.600302283464567
0
LINE
8
BLACK
6
CONTINUOUS
10
3.9741211811023622
20
-3.600302283464567
11
3.9734251968503935
21
-3.6005905511811025
0
LINE
8
BLACK
6
CONTINUOUS
10
3.9734251968503935
20
-3.6005905511811025
11
3.8395669291338583
21
-3.6005905511811025
0
LINE
8
BLACK
6
CONTINUOUS
10
3.8395669291338583
20
-3.6005905511811025
11
3.8388709448818896
21
-3.600302283464567
0
LINE
8
BLACK
6
CONTINUOUS
10
3.8388709448818896
20
-3.600302283464567
11
3.8385826771653542
21
-3.5996062992125983
0
LINE
8
BLACK
6
CONTINUOUS
10
3.8385826771653542
20
-3.5996062992125983
11
3.8385826771653542
21
-3.5224409448818896
0
LINE
8
BLACK
6
CONTINUOUS
10
3.8385826771653542
20
-3.5224409448818896
11
3.8388709448818896
21
-3.5217449606299214
0
LINE
8
BLACK
6
CONTINUOUS
10
3.8388709448818896
20
-3.5217449606299214
11
3.8390916535433068
21
-3.5216535433070866
0
LINE
8
BLACK
6
CONTINUOUS
10
3.8390916535433068
20
-3.5216535433070866
11
3.8388709448818896
21
-3.5215621259842518
0
LINE
8
BLACK
6
CONTINUOUS
10
3.8388709448818896
20
-3.5215621259842518
11
3.8385826771653542
21
-3.5208661417322835
0
LINE
8
BLACK
6
CONTINUOUS
10
3.8385826771653542
20
-3.5208661417322835
11
3.8385826771653542
21
-3.4440944881889761
0
LINE
8
BLACK
6
CONTINUOUS
10
3.8385826771653542
20
-3.4440944881889761
11
3.8378866929133859
21
-3.4438062204724407
0
LINE
8
BLACK
6
CONTINUOUS
10
3.8378866929133859
20
-3.4438062204724407
11
3.8375984251968505
21
-3.4431102362204724
0
LINE
8
BLACK
6
CONTINUOUS
10
3.8375984251968505
20
-3.4431102362204724
11
3.8375984251968505
21
-3.3659448818897637
0
LINE
8
BLACK
6
CONTINUOUS
10
3.8375984251968505
20
-3.3659448818897637
11
3.8378866929133859
21
-3.365248897637795
0
LINE
8
BLACK
6
CONTINUOUS
10
3.8378866929133859
20
-3.365248897637795
11
3.8385826771653542
21
-3.3649606299212595
0
LINE
8
BLACK
6
CONTINUOUS
10
3.8385826771653542
20
-3.3649606299212595
11
3.9724409448818898
21
-3.3649606299212595
0
LINE
8
BLACK
6
CONTINUOUS
10
3.840551181102362
20
-3.5234251968503938
11
3.840551181102362
21
-3.5986220472440946
0
LINE
8
BLACK
6
CONTINUOUS
10
3.840551181102362
20
-3.5986220472440946
11
3.9724409448818898
21
-3.5986220472440946
0
LINE
8
BLACK
6
CONTINUOUS
10
3.9724409448818898
20
-3.5986220472440946
11
3.9724409448818898
21
-3.5234251968503938
0
LINE
8
BLACK
6
CONTINUOUS
10
3.9724409448818898
20
-3.5234251968503938
11
3.840551181102362
21
-3.5234251968503938
0
LINE
8
BLACK
6
CONTINUOUS
10
3.840551181102362
20
-3.4446850393700785
11
3.840551181102362
21
-3.5198818897637794
0
LINE
8
BLACK
6
CONTINUOUS
10
3.840551181102362
20
-3.5198818897637794
11
3.9724409448818898
21
-3.5198818897637794
0
LINE
8
BLACK
6
CONTINUOUS
10
3.9724409448818898
20
-3.5198818897637794
11
3.9724409448818898
21
-3.4446850393700785
0
LINE
8
BLACK
6
CONTINUOUS
10
3.9724409448818898
20
-3.4446850393700785
11
3.840551181102362
21
-3.4446850393700785
0
LINE
8
BLACK
6
CONTINUOUS
10
3.8395669291338583
20
-3.3669291338582674
11
3.8395669291338583
21
-3.4421259842519683
0
LINE
8
BLACK
6
CONTINUOUS
10
3.8395669291338583
20
-3.4421259842519683
11
3.9714566929133857
21
-3.4421259842519683
0
LINE
8
BLACK
6
CONTINUOUS
10
3.9714566929133857
20
-3.4421259842519683
11
3.9714566929133857
21
-3.3669291338582674
0
LINE
8
BLACK
6
CONTINUOUS
10
3.9714566929133857
20
-3.3669291338582674
11
3.8395669291338583
21
-3.3669291338582674
0
LINE
8
BLACK
6
CONTINUOUS
10
2.8230314960629919
20
-3.2844488188976375
11
2.8237274803149606
21
-3.284737086614173
0
LINE
8
BLACK
6
CONTINUOUS
10
2.8237274803149606
20
-3.284737086614173
11
2.824015748031496
21
-3.2854330708661417
0
LINE
8
BLACK
6
CONTINUOUS
10
2.824015748031496
20
-3.2854330708661417
11
2.824015748031496
21
-3.4192913385826773
0
LINE
8
BLACK
6
CONTINUOUS
10
2.824015748031496
20
-3.4192913385826773
11
2.8237274803149606
21
-3.4199873228346456
0
LINE
8
BLACK
6
CONTINUOUS
10
2.8237274803149606
20
-3.4199873228346456
11
2.8230314960629919
21
-3.420275590551181
0
LINE
8
BLACK
6
CONTINUOUS
10
2.8230314960629919
20
-3.420275590551181
11
2.7458661417322836
21
-3.420275590551181
0
LINE
8
BLACK
6
CONTINUOUS
10
2.7458661417322836
20
-3.420275590551181
11
2.7451701574803149
21
-3.4199873228346456
0
LINE
8
BLACK
6
CONTINUOUS
10
2.7451701574803149
20
-3.4199873228346456
11
2.7448818897637794
21
-3.4192913385826773
0
LINE
8
BLACK
6
CONTINUOUS
10
2.7448818897637794
20
-3.4192913385826773
11
2.7448818897637794
21
-3.2854330708661417
0
LINE
8
BLACK
6
CONTINUOUS
10
2.7448818897637794
20
-3.2854330708661417
11
2.7451701574803149
21
-3.284737086614173
0
LINE
8
BLACK
6
CONTINUOUS
10
2.7451701574803149
20
-3.284737086614173
11
2.7458661417322836
21
-3.2844488188976375
0
LINE
8
BLACK
6
CONTINUOUS
10
2.7458661417322836
20
-3.2844488188976375
11
2.8230314960629919
21
-3.2844488188976375
0
LINE
8
BLACK
6
CONTINUOUS
10
2.7468503937007873
20
-3.2864173228346454
11
2.7468503937007873
21
-3.4183070866141732
0
LINE
8
BLACK
6
CONTINUOUS
10
2.7468503937007873
20
-3.4183070866141732
11
2.8220472440944881
21
-3.4183070866141732
0
LINE
8
BLACK
6
CONTINUOUS
10
2.8220472440944881
20
-3.4183070866141732
11
2.8220472440944881
21
-3.2864173228346454
0
LINE
8
BLACK
6
CONTINUOUS
10
2.8220472440944881
20
-3.2864173228346454
11
2.7468503937007873
21
-3.2864173228346454
0
LINE
8
BLACK
6
CONTINUOUS
10
3.357388897637795
20
-3.3367055905511811
11
3.3576771653543305
21
-3.3374015748031494
0
LINE
8
BLACK
6
CONTINUOUS
10
3.3576771653543305
20
-3.3374015748031494
11
3.3576771653543305
21
-3.4122047244094489
0
LINE
8
BLACK
6
CONTINUOUS
10
3.3576771653543305
20
-3.4122047244094489
11
3.357388897637795
21
-3.4129007086614171
0
LINE
8
BLACK
6
CONTINUOUS
10
3.357388897637795
20
-3.4129007086614171
11
3.3566929133858268
21
-3.4131889763779526
0
LINE
8
BLACK
6
CONTINUOUS
10
3.3566929133858268
20
-3.4131889763779526
11
3.2244094488188977
21
-3.4131889763779526
0
LINE
8
BLACK
6
CONTINUOUS
10
3.2244094488188977
20
-3.4131889763779526
11
3.223713464566929
21
-3.4129007086614171
0
LINE
8
BLACK
6
CONTINUOUS
10
3.223713464566929
20
-3.4129007086614171
11
3.2234251968503935
21
-3.4122047244094489
0
LINE
8
BLACK
6
CONTINUOUS
10
3.2234251968503935
20
-3.4122047244094489
11
3.2234251968503935
21
-3.3374015748031494
0
LINE
8
BLACK
6
CONTINUOUS
10
3.2234251968503935
20
-3.3374015748031494
11
3.223713464566929
21
-3.3367055905511811
0
LINE
8
BLACK
6
CONTINUOUS
10
3.223713464566929
20
-3.3367055905511811
11
3.2244094488188977
21
-3.3364173228346456
0
LINE
8
BLACK
6
CONTINUOUS
10
3.2244094488188977
20
-3.3364173228346456
11
3.223713464566929
21
-3.3361290551181102
0
LINE
8
BLACK
6
CONTINUOUS
10
3.223713464566929
20
-3.3361290551181102
11
3.2234251968503935
21
-3.3354330708661415
0
LINE
8
BLACK
6
CONTINUOUS
10
3.2234251968503935
20
-3.3354330708661415
11
3.2234251968503935
21
-3.2606299212598424
0
LINE
8
BLACK
6
CONTINUOUS
10
3.2234251968503935
20
-3.2606299212598424
11
3.223713464566929
21
-3.2599339370078741
0
LINE
8
BLACK
6
CONTINUOUS
10
3.223713464566929
20
-3.2599339370078741
11
3.2244094488188977
21
-3.2596456692913387
0
LINE
8
BLACK
6
CONTINUOUS
10
3.2244094488188977
20
-3.2596456692913387
11
3.3566929133858268
21
-3.2596456692913387
0
LINE
8
BLACK
6
CONTINUOUS
10
3.3566929133858268
20
-3.2596456692913387
11
3.357388897637795
21
-3.2599339370078741
0
LINE
8
BLACK
6
CONTINUOUS
10
3.357388897637795
20
-3.2599339370078741
11
3.3576771653543305
21
-3.2606299212598424
0
LINE
8
BLACK
6
CONTINUOUS
10
3.3576771653543305
20
-3.2606299212598424
11
3.3576771653543305
21
-3.3354330708661415
0
LINE
8
BLACK
6
CONTINUOUS
10
3.3576771653543305
20
-3.3354330708661415
11
3.357388897637795
21
-3.3361290551181102
0
LINE
8
BLACK
6
CONTINUOUS
10
3.357388897637795
20
-3.3361290551181102
11
3.3566929133858268
21
-3.3364173228346456
0
LINE
8
BLACK
6
CONTINUOUS
10
3.3566929133858268
20
-3.3364173228346456
11
3.357388897637795
21
-3.3367055905511811
0
LINE
8
BLACK
6
CONTINUOUS
10
3.2253937007874014
20
-3.3383858267716535
11
3.2253937007874014
21
-3.4112204724409447
0
LINE
8
BLACK
6
CONTINUOUS
10
3.2253937007874014
20
-3.4112204724409447
11
3.3557086614173226
21
-3.4112204724409447
0
LINE
8
BLACK
6
CONTINUOUS
10
3.3557086614173226
20
-3.4112204724409447
11
3.3557086614173226
21
-3.3383858267716535
0
LINE
8
BLACK
6
CONTINUOUS
10
3.3557086614173226
20
-3.3383858267716535
11
3.2253937007874014
21
-3.3383858267716535
0
LINE
8
BLACK
6
CONTINUOUS
10
3.2253937007874014
20
-3.2616141732283466
11
3.2253937007874014
21
-3.3344488188976378
0
LINE
8
BLACK
6
CONTINUOUS
10
3.2253937007874014
20
-3.3344488188976378
11
3.3557086614173226
21
-3.3344488188976378
0
LINE
8
BLACK
6
CONTINUOUS
10
3.3557086614173226
20
-3.3344488188976378
11
3.3557086614173226
21
-3.2616141732283466
0
LINE
8
BLACK
6
CONTINUOUS
10
3.3557086614173226
20
-3.2616141732283466
11
3.2253937007874014
21
-3.2616141732283466
0
LINE
8
BLACK
6
CONTINUOUS
10
3.015748031496063
20
-2.9289370078740156
11
3.0164440157480312
21
-2.929225275590551
0
LINE
8
BLACK
6
CONTINUOUS
10
3.0164440157480312
20
-2.929225275590551
11
3.0167322834645667
21
-2.9299212598425197
0
LINE
8
BLACK
6
CONTINUOUS
10
3.0167322834645667
20
-2.9299212598425197
11
3.0167322834645667
21
-3.0070866141732284
0
LINE
8
BLACK
6
CONTINUOUS
10
3.0167322834645667
20
-3.0070866141732284
11
3.0164440157480312
21
-3.0077825984251967
0
LINE
8
BLACK
6
CONTINUOUS
10
3.0164440157480312
20
-3.0077825984251967
11
3.015748031496063
21
-3.0080708661417321
0
LINE
8
BLACK
6
CONTINUOUS
10
3.015748031496063
20
-3.0080708661417321
11
3.0147637795275588
21
-3.0080708661417321
0
LINE
8
BLACK
6
CONTINUOUS
10
3.0147637795275588
20
-3.0080708661417321
11
3.0147637795275588
21
-3.1692913385826773
0
LINE
8
BLACK
6
CONTINUOUS
10
3.0147637795275588
20
-3.1692913385826773
11
3.0144755118110234
21
-3.1699873228346456
0
LINE
8
BLACK
6
CONTINUOUS
10
3.0144755118110234
20
-3.1699873228346456
11
3.0137795275590551
21
-3.170275590551181
0
LINE
8
BLACK
6
CONTINUOUS
10
3.0137795275590551
20
-3.170275590551181
11
2.9807902362204723
21
-3.170275590551181
0
LINE
8
BLACK
6
CONTINUOUS
10
2.9807902362204723
20
-3.170275590551181
11
2.9810109448818896
21
-3.1703670078740158
0
LINE
8
BLACK
6
CONTINUOUS
10
2.9810109448818896
20
-3.1703670078740158
11
2.981299212598425
21
-3.1710629921259841
0
LINE
8
BLACK
6
CONTINUOUS
10
2.981299212598425
20
-3.1710629921259841
11
2.981299212598425
21
-3.2482283464566928
0
LINE
8
BLACK
6
CONTINUOUS
10
2.981299212598425
20
-3.2482283464566928
11
2.9810109448818896
21
-3.2489243307086615
0
LINE
8
BLACK
6
CONTINUOUS
10
2.9810109448818896
20
-3.2489243307086615
11
2.9807901968503936
21
-3.2490157480314958
0
LINE
8
BLACK
6
CONTINUOUS
10
2.9807901968503936
20
-3.2490157480314958
11
2.9810109448818896
21
-3.2491071653543306
0
LINE
8
BLACK
6
CONTINUOUS
10
2.9810109448818896
20
-3.2491071653543306
11
2.981299212598425
21
-3.2498031496062993
0
LINE
8
BLACK
6
CONTINUOUS
10
2.981299212598425
20
-3.2498031496062993
11
2.981299212598425
21
-3.3265748031496063
0
LINE
8
BLACK
6
CONTINUOUS
10
2.981299212598425
20
-3.3265748031496063
11
3.0196850393700787
21
-3.3265748031496063
0
LINE
8
BLACK
6
CONTINUOUS
10
3.0196850393700787
20
-3.3265748031496063
11
3.020381023622047
21
-3.3268630708661417
0
LINE
8
BLACK
6
CONTINUOUS
10
3.020381023622047
20
-3.3268630708661417
11
3.0206692913385824
21
-3.32755905511811
0
LINE
8
BLACK
6
CONTINUOUS
10
3.0206692913385824
20
-3.32755905511811
11
3.0206692913385824
21
-3.4047244094488187
0
LINE
8
BLACK
6
CONTINUOUS
10
3.0206692913385824
20
-3.4047244094488187
11
3.020381023622047
21
-3.4054203937007874
0
LINE
8
BLACK
6
CONTINUOUS
10
3.020381023622047
20
-3.4054203937007874
11
3.0196850393700787
21
-3.4057086614173229
0
LINE
8
BLACK
6
CONTINUOUS
10
3.0196850393700787
20
-3.4057086614173229
11
2.8858267716535431
21
-3.4057086614173229
0
LINE
8
BLACK
6
CONTINUOUS
10
2.8858267716535431
20
-3.4057086614173229
11
2.8851307874015748
21
-3.4054203937007874
0
LINE
8
BLACK
6
CONTINUOUS
10
2.8851307874015748
20
-3.4054203937007874
11
2.8848425196850394
21
-3.4047244094488187
0
LINE
8
BLACK
6
CONTINUOUS
10
2.8848425196850394
20
-3.4047244094488187
11
2.8848425196850394
21
-3.3279527559055118
0
LINE
8
BLACK
6
CONTINUOUS
10
2.8848425196850394
20
-3.3279527559055118
11
2.8464566929133857
21
-3.3279527559055118
0
LINE
8
BLACK
6
CONTINUOUS
10
2.8464566929133857
20
-3.3279527559055118
11
2.8457607086614174
21
-3.3276644881889763
0
LINE
8
BLACK
6
CONTINUOUS
10
2.8457607086614174
20
-3.3276644881889763
11
2.8454724409448819
21
-3.3269685039370076
0
LINE
8
BLACK
6
CONTINUOUS
10
2.8454724409448819
20
-3.3269685039370076
11
2.8454724409448819
21
-3.2498031496062993
0
LINE
8
BLACK
6
CONTINUOUS
10
2.8454724409448819
20
-3.2498031496062993
11
2.8457607086614174
21
-3.2491071653543306
0
LINE
8
BLACK
6
CONTINUOUS
10
2.8457607086614174
20
-3.2491071653543306
11
2.8459814173228346
21
-3.2490157480314958
0
LINE
8
BLACK
6
CONTINUOUS
10
2.8459814173228346
20
-3.2490157480314958
11
2.8457607086614174
21
-3.2489243307086615
0
LINE
8
BLACK
6
CONTINUOUS
10
2.8457607086614174
20
-3.2489243307086615
11
2.8454724409448819
21
-3.2482283464566928
0
LINE
8
BLACK
6
CONTINUOUS
10
2.8454724409448819
20
-3.2482283464566928
11
2.8454724409448819
21
-3.1710629921259841
0
LINE
8
BLACK
6
CONTINUOUS
10
2.8454724409448819
20
-3.1710629921259841
11
2.8457607086614174
21
-3.1703670078740158
0
LINE
8
BLACK
6
CONTINUOUS
10
2.8457607086614174
20
-3.1703670078740158
11
2.8464566929133857
21
-3.1700787401574804
0
LINE
8
BLACK
6
CONTINUOUS
10
2.8464566929133857
20
-3.1700787401574804
11
2.8794459842519684
21
-3.1700787401574804
0
LINE
8
BLACK
6
CONTINUOUS
10
2.8794459842519684
20
-3.1700787401574804
11
2.8792252755905512
21
-3.1699873228346456
0
LINE
8
BLACK
6
CONTINUOUS
10
2.8792252755905512
20
-3.1699873228346456
11
2.8789370078740157
21
-3.1692913385826773
0
LINE
8
BLACK
6
CONTINUOUS
10
2.8789370078740157
20
-3.1692913385826773
11
2.8789370078740157
21
-3.0078740157480315
0
LINE
8
BLACK
6
CONTINUOUS
10
2.8789370078740157
20
-3.0078740157480315
11
2.8792252755905512
21
-3.0071780314960628
0
LINE
8
BLACK
6
CONTINUOUS
10
2.8792252755905512
20
-3.0071780314960628
11
2.8799212598425195
21
-3.0068897637795273
0
LINE
8
BLACK
6
CONTINUOUS
10
2.8799212598425195
20
-3.0068897637795273
11
2.8809055118110236
21
-3.0068897637795273
0
LINE
8
BLACK
6
CONTINUOUS
10
2.8809055118110236
20
-3.0068897637795273
11
2.8809055118110236
21
-2.9299212598425197
0
LINE
8
BLACK
6
CONTINUOUS
10
2.8809055118110236
20
-2.9299212598425197
11
2.8811937795275591
21
-2.929225275590551
0
LINE
8
BLACK
6
CONTINUOUS
10
2.8811937795275591
20
-2.929225275590551
11
2.8818897637795273
21
-2.9289370078740156
0
LINE
8
BLACK
6
CONTINUOUS
10
2.8818897637795273
20
-2.9289370078740156
11
3.015748031496063
21
-2.9289370078740156
0
LINE
8
BLACK
6
CONTINUOUS
10
2.8868110236220472
20
-3.3285433070866142
11
2.8868110236220472
21
-3.403740157480315
0
LINE
8
BLACK
6
CONTINUOUS
10
2.8868110236220472
20
-3.403740157480315
11
3.0187007874015745
21
-3.403740157480315
0
LINE
8
BLACK
6
CONTINUOUS
10
3.0187007874015745
20
-3.403740157480315
11
3.0187007874015745
21
-3.3285433070866142
0
LINE
8
BLACK
6
CONTINUOUS
10
3.0187007874015745
20
-3.3285433070866142
11
2.8868110236220472
21
-3.3285433070866142
0
LINE
8
BLACK
6
CONTINUOUS
10
2.8474409448818898
20
-3.2507874015748031
11
2.8474409448818898
21
-3.3259842519685039
0
LINE
8
BLACK
6
CONTINUOUS
10
2.8474409448818898
20
-3.3259842519685039
11
2.9793307086614171
21
-3.3259842519685039
0
LINE
8
BLACK
6
CONTINUOUS
10
2.9793307086614171
20
-3.3259842519685039
11
2.9793307086614171
21
-3.2507874015748031
0
LINE
8
BLACK
6
CONTINUOUS
10
2.9793307086614171
20
-3.2507874015748031
11
2.8474409448818898
21
-3.2507874015748031
0
LINE
8
BLACK
6
CONTINUOUS
10
2.8474409448818898
20
-3.1720472440944882
11
2.8474409448818898
21
-3.2472440944881891
0
LINE
8
BLACK
6
CONTINUOUS
10
2.8474409448818898
20
-3.2472440944881891
11
2.9793307086614171
21
-3.2472440944881891
0
LINE
8
BLACK
6
CONTINUOUS
10
2.9793307086614171
20
-3.2472440944881891
11
2.9793307086614171
21
-3.1720472440944882
0
LINE
8
BLACK
6
CONTINUOUS
10
2.9793307086614171
20
-3.1720472440944882
11
2.8474409448818898
21
-3.1720472440944882
0
LINE
8
BLACK
6
CONTINUOUS
10
2.8809055118110236
20
-3.0088582677165352
11
2.8809055118110236
21
-3.1683070866141732
0
LINE
8
BLACK
6
CONTINUOUS
10
2.8809055118110236
20
-3.1683070866141732
11
3.0127952755905509
21
-3.1683070866141732
0
LINE
8
BLACK
6
CONTINUOUS
10
3.0127952755905509
20
-3.1683070866141732
11
3.0127952755905509
21
-3.0088582677165352
0
LINE
8
BLACK
6
CONTINUOUS
10
3.0127952755905509
20
-3.0088582677165352
11
2.8809055118110236
21
-3.0088582677165352
0
LINE
8
BLACK
6
CONTINUOUS
10
2.8828740157480315
20
-2.9309055118110234
11
2.8828740157480315
21
-3.0061023622047243
0
LINE
8
BLACK
6
CONTINUOUS
10
2.8828740157480315
20
-3.0061023622047243
11
3.0147637795275588
21
-3.0061023622047243
0
LINE
8
BLACK
6
CONTINUOUS
10
3.0147637795275588
20
-3.0061023622047243
11
3.0147637795275588
21
-2.9309055118110234
0
LINE
8
BLACK
6
CONTINUOUS
10
3.0147637795275588
20
-2.9309055118110234
11
2.8828740157480315
21
-2.9309055118110234
0
LINE
8
BLACK
6
CONTINUOUS
10
3.6814960629921258
20
-3.2505905511811024
11
3.6821920472440945
21
-3.2508788188976379
0
LINE
8
BLACK
6
CONTINUOUS
10
3.6821920472440945
20
-3.2508788188976379
11
3.68248031496063
21
-3.2515748031496061
0
LINE
8
BLACK
6
CONTINUOUS
10
3.68248031496063
20
-3.2515748031496061
11
3.68248031496063
21
-3.2527559055118109
0
LINE
8
BLACK
6
CONTINUOUS
10
3.68248031496063
20
-3.2527559055118109
11
3.6827685826771654
21
-3.2520599212598427
0
LINE
8
BLACK
6
CONTINUOUS
10
3.6827685826771654
20
-3.2520599212598427
11
3.6834645669291337
21
-3.2517716535433072
0
LINE
8
BLACK
6
CONTINUOUS
10
3.6834645669291337
20
-3.2517716535433072
11
3.7582677165354328
21
-3.2517716535433072
0
LINE
8
BLACK
6
CONTINUOUS
10
3.7582677165354328
20
-3.2517716535433072
11
3.7589637007874015
21
-3.2520599212598427
0
LINE
8
BLACK
6
CONTINUOUS
10
3.7589637007874015
20
-3.2520599212598427
11
3.7592519685039369
21
-3.2527559055118109
0
LINE
8
BLACK
6
CONTINUOUS
10
3.7592519685039369
20
-3.2527559055118109
11
3.7592519685039369
21
-3.38503937007874
0
LINE
8
BLACK
6
CONTINUOUS
10
3.7592519685039369
20
-3.38503937007874
11
3.7589637007874015
21
-3.3857353543307087
0
LINE
8
BLACK
6
CONTINUOUS
10
3.7589637007874015
20
-3.3857353543307087
11
3.7582677165354328
21
-3.3860236220472442
0
LINE
8
BLACK
6
CONTINUOUS
10
3.7582677165354328
20
-3.3860236220472442
11
3.6834645669291337
21
-3.3860236220472442
0
LINE
8
BLACK
6
CONTINUOUS
10
3.6834645669291337
20
-3.3860236220472442
11
3.6827685826771654
21
-3.3857353543307087
0
LINE
8
BLACK
6
CONTINUOUS
10
3.6827685826771654
20
-3.3857353543307087
11
3.68248031496063
21
-3.38503937007874
0
LINE
8
BLACK
6
CONTINUOUS
10
3.68248031496063
20
-3.38503937007874
11
3.68248031496063
21
-3.3838582677165352
0
LINE
8
BLACK
6
CONTINUOUS
10
3.68248031496063
20
-3.3838582677165352
11
3.6821920472440945
21
-3.3845542519685039
0
LINE
8
BLACK
6
CONTINUOUS
10
3.6821920472440945
20
-3.3845542519685039
11
3.6814960629921258
21
-3.3848425196850394
0
LINE
8
BLACK
6
CONTINUOUS
10
3.6814960629921258
20
-3.3848425196850394
11
3.6066929133858268
21
-3.3848425196850394
0
LINE
8
BLACK
6
CONTINUOUS
10
3.6066929133858268
20
-3.3848425196850394
11
3.6059969291338581
21
-3.3845542519685039
0
LINE
8
BLACK
6
CONTINUOUS
10
3.6059969291338581
20
-3.3845542519685039
11
3.6057086614173226
21
-3.3838582677165352
0
LINE
8
BLACK
6
CONTINUOUS
10
3.6057086614173226
20
-3.3838582677165352
11
3.6057086614173226
21
-3.2515748031496061
0
LINE
8
BLACK
6
CONTINUOUS
10
3.6057086614173226
20
-3.2515748031496061
11
3.6059969291338581
21
-3.2508788188976379
0
LINE
8
BLACK
6
CONTINUOUS
10
3.6059969291338581
20
-3.2508788188976379
11
3.6066929133858268
21
-3.2505905511811024
0
LINE
8
BLACK
6
CONTINUOUS
10
3.6066929133858268
20
-3.2505905511811024
11
3.6814960629921258
21
-3.2505905511811024
0
LINE
8
BLACK
6
CONTINUOUS
10
3.6844488188976379
20
-3.2537401574803151
11
3.6844488188976379
21
-3.3840551181102363
0
LINE
8
BLACK
6
CONTINUOUS
10
3.6844488188976379
20
-3.3840551181102363
11
3.7572834645669291
21
-3.3840551181102363
0
LINE
8
BLACK
6
CONTINUOUS
10
3.7572834645669291
20
-3.3840551181102363
11
3.7572834645669291
21
-3.2537401574803151
0
LINE
8
BLACK
6
CONTINUOUS
10
3.7572834645669291
20
-3.2537401574803151
11
3.6844488188976379
21
-3.2537401574803151
0
LINE
8
BLACK
6
CONTINUOUS
10
3.6076771653543305
20
-3.2525590551181103
11
3.6076771653543305
21
-3.3828740157480315
0
LINE
8
BLACK
6
CONTINUOUS
10
3.6076771653543305
20
-3.3828740157480315
11
3.6805118110236221
21
-3.3828740157480315
0
LINE
8
BLACK
6
CONTINUOUS
10
3.6805118110236221
20
-3.3828740157480315
11
3.6805118110236221
21
-3.2525590551181103
0
LINE
8
BLACK
6
CONTINUOUS
10
3.6805118110236221
20
-3.2525590551181103
11
3.6076771653543305
21
-3.2525590551181103
0
LINE
8
BLACK
6
CONTINUOUS
10
2.7145669291338583
20
-3.0344488188976375
11
2.7152629133858266
21
-3.034737086614173
0
LINE
8
BLACK
6
CONTINUOUS
10
2.7152629133858266
20
-3.034737086614173
11
2.715551181102362
21
-3.0354330708661417
0
LINE
8
BLACK
6
CONTINUOUS
10
2.715551181102362
20
-3.0354330708661417
11
2.715551181102362
21
-3.3622047244094486
0
LINE
8
BLACK
6
CONTINUOUS
10
2.715551181102362
20
-3.3622047244094486
11
2.7152629133858266
21
-3.3629007086614173
0
LINE
8
BLACK
6
CONTINUOUS
10
2.7152629133858266
20
-3.3629007086614173
11
2.7145669291338583
21
-3.3631889763779528
0
LINE
8
BLACK
6
CONTINUOUS
10
2.7145669291338583
20
-3.3631889763779528
11
2.4114173228346458
21
-3.3631889763779528
0
LINE
8
BLACK
6
CONTINUOUS
10
2.4114173228346458
20
-3.3631889763779528
11
2.4107213385826771
21
-3.3629007086614173
0
LINE
8
BLACK
6
CONTINUOUS
10
2.4107213385826771
20
-3.3629007086614173
11
2.4104330708661417
21
-3.3622047244094486
0
LINE
8
BLACK
6
CONTINUOUS
10
2.4104330708661417
20
-3.3622047244094486
11
2.4104330708661417
21
-3.0354330708661417
0
LINE
8
BLACK
6
CONTINUOUS
10
2.4104330708661417
20
-3.0354330708661417
11
2.4107213385826771
21
-3.034737086614173
0
LINE
8
BLACK
6
CONTINUOUS
10
2.4107213385826771
20
-3.034737086614173
11
2.4114173228346458
21
-3.0344488188976375
0
LINE
8
BLACK
6
CONTINUOUS
10
2.4114173228346458
20
-3.0344488188976375
11
2.7145669291338583
21
-3.0344488188976375
0
LINE
8
BLACK
6
CONTINUOUS
10
2.4124015748031495
20
-3.0364173228346454
11
2.4124015748031495
21
-3.3612204724409449
0
LINE
8
BLACK
6
CONTINUOUS
10
2.4124015748031495
20
-3.3612204724409449
11
2.7135826771653542
21
-3.3612204724409449
0
LINE
8
BLACK
6
CONTINUOUS
10
2.7135826771653542
20
-3.3612204724409449
11
2.7135826771653542
21
-3.0364173228346454
0
LINE
8
BLACK
6
CONTINUOUS
10
2.7135826771653542
20
-3.0364173228346454
11
2.4124015748031495
21
-3.0364173228346454
0
LINE
8
BLACK
6
CONTINUOUS
10
3.9763779527559056
20
-3.1909448818897639
11
3.9770739370078738
21
-3.1912331496062993
0
LINE
8
BLACK
6
CONTINUOUS
10
3.9770739370078738
20
-3.1912331496062993
11
3.9773622047244093
21
-3.1919291338582676
0
LINE
8
BLACK
6
CONTINUOUS
10
3.9773622047244093
20
-3.1919291338582676
11
3.9773622047244093
21
-3.3533464566929134
0
LINE
8
BLACK
6
CONTINUOUS
10
3.9773622047244093
20
-3.3533464566929134
11
3.9770739370078738
21
-3.3540424409448817
0
LINE
8
BLACK
6
CONTINUOUS
10
3.9770739370078738
20
-3.3540424409448817
11
3.9763779527559056
21
-3.3543307086614171
0
LINE
8
BLACK
6
CONTINUOUS
10
3.9763779527559056
20
-3.3543307086614171
11
3.8425196850393699
21
-3.3543307086614171
0
LINE
8
BLACK
6
CONTINUOUS
10
3.8425196850393699
20
-3.3543307086614171
11
3.8418237007874017
21
-3.3540424409448817
0
LINE
8
BLACK
6
CONTINUOUS
10
3.8418237007874017
20
-3.3540424409448817
11
3.8415354330708662
21
-3.3533464566929134
0
LINE
8
BLACK
6
CONTINUOUS
10
3.8415354330708662
20
-3.3533464566929134
11
3.8415354330708662
21
-3.1919291338582676
0
LINE
8
BLACK
6
CONTINUOUS
10
3.8415354330708662
20
-3.1919291338582676
11
3.8418237007874017
21
-3.1912331496062993
0
LINE
8
BLACK
6
CONTINUOUS
10
3.8418237007874017
20
-3.1912331496062993
11
3.8425196850393699
21
-3.1909448818897639
0
LINE
8
BLACK
6
CONTINUOUS
10
3.8425196850393699
20
-3.1909448818897639
11
3.9763779527559056
21
-3.1909448818897639
0
LINE
8
BLACK
6
CONTINUOUS
10
3.8435039370078741
20
-3.1929133858267718
11
3.8435039370078741
21
-3.3523622047244093
0
LINE
8
BLACK
6
CONTINUOUS
10
3.8435039370078741
20
-3.3523622047244093
11
3.9753937007874014
21
-3.3523622047244093
0
LINE
8
BLACK
6
CONTINUOUS
10
3.9753937007874014
20
-3.3523622047244093
11
3.9753937007874014
21
-3.1929133858267718
0
LINE
8
BLACK
6
CONTINUOUS
10
3.9753937007874014
20
-3.1929133858267718
11
3.8435039370078741
21
-3.1929133858267718
0
LINE
8
BLACK
6
CONTINUOUS
10
2.8220472440944881
20
-3.1466535433070866
11
2.8227432283464564
21
-3.146941811023622
0
LINE
8
BLACK
6
CONTINUOUS
10
2.8227432283464564
20
-3.146941811023622
11
2.8230314960629919
21
-3.1476377952755903
0
LINE
8
BLACK
6
CONTINUOUS
10
2.8230314960629919
20
-3.1476377952755903
11
2.8230314960629919
21
-3.2814960629921259
0
LINE
8
BLACK
6
CONTINUOUS
10
2.8230314960629919
20
-3.2814960629921259
11
2.8227432283464564
21
-3.2821920472440946
0
LINE
8
BLACK
6
CONTINUOUS
10
2.8227432283464564
20
-3.2821920472440946
11
2.8220472440944881
21
-3.2824803149606296
0
LINE
8
BLACK
6
CONTINUOUS
10
2.8220472440944881
20
-3.2824803149606296
11
2.7448818897637794
21
-3.2824803149606296
0
LINE
8
BLACK
6
CONTINUOUS
10
2.7448818897637794
20
-3.2824803149606296
11
2.7441859055118107
21
-3.2821920472440946
0
LINE
8
BLACK
6
CONTINUOUS
10
2.7441859055118107
20
-3.2821920472440946
11
2.7438976377952757
21
-3.2814960629921259
0
LINE
8
BLACK
6
CONTINUOUS
10
2.7438976377952757
20
-3.2814960629921259
11
2.7438976377952757
21
-3.1476377952755903
0
LINE
8
BLACK
6
CONTINUOUS
10
2.7438976377952757
20
-3.1476377952755903
11
2.7441859055118107
21
-3.146941811023622
0
LINE
8
BLACK
6
CONTINUOUS
10
2.7441859055118107
20
-3.146941811023622
11
2.7448818897637794
21
-3.1466535433070866
0
LINE
8
BLACK
6
CONTINUOUS
10
2.7448818897637794
20
-3.1466535433070866
11
2.8220472440944881
21
-3.1466535433070866
0
LINE
8
BLACK
6
CONTINUOUS
10
2.7458661417322836
20
-3.1486220472440944
11
2.7458661417322836
21
-3.2805118110236218
0
LINE
8
BLACK
6
CONTINUOUS
10
2.7458661417322836
20
-3.2805118110236218
11
2.821062992125984
21
-3.2805118110236218
0
LINE
8
BLACK
6
CONTINUOUS
10
2.821062992125984
20
-3.2805118110236218
11
2.821062992125984
21
-3.1486220472440944
0
LINE
8
BLACK
6
CONTINUOUS
10
2.821062992125984
20
-3.1486220472440944
11
2.7458661417322836
21
-3.1486220472440944
0
LINE
8
BLACK
6
CONTINUOUS
10
3.9763779527559056
20
-3.1100393700787401
11
3.9770739370078738
21
-3.1103276377952755
0
LINE
8
BLACK
6
CONTINUOUS
10
3.9770739370078738
20
-3.1103276377952755
11
3.9773622047244093
21
-3.1110236220472438
0
LINE
8
BLACK
6
CONTINUOUS
10
3.9773622047244093
20
-3.1110236220472438
11
3.9773622047244093
21
-3.1881889763779525
0
LINE
8
BLACK
6
CONTINUOUS
10
3.9773622047244093
20
-3.1881889763779525
11
3.9770739370078738
21
-3.1888849606299212
0
LINE
8
BLACK
6
CONTINUOUS
10
3.9770739370078738
20
-3.1888849606299212
11
3.9763779527559056
21
-3.1891732283464567
0
LINE
8
BLACK
6
CONTINUOUS
10
3.9763779527559056
20
-3.1891732283464567
11
3.8425196850393699
21
-3.1891732283464567
0
LINE
8
BLACK
6
CONTINUOUS
10
3.8425196850393699
20
-3.1891732283464567
11
3.8418237007874017
21
-3.1888849606299212
0
LINE
8
BLACK
6
CONTINUOUS
10
3.8418237007874017
20
-3.1888849606299212
11
3.8415354330708662
21
-3.1881889763779525
0
LINE
8
BLACK
6
CONTINUOUS
10
3.8415354330708662
20
-3.1881889763779525
11
3.8415354330708662
21
-3.1110236220472438
0
LINE
8
BLACK
6
CONTINUOUS
10
3.8415354330708662
20
-3.1110236220472438
11
3.8418237007874017
21
-3.1103276377952755
0
LINE
8
BLACK
6
CONTINUOUS
10
3.8418237007874017
20
-3.1103276377952755
11
3.8425196850393699
21
-3.1100393700787401
0
LINE
8
BLACK
6
CONTINUOUS
10
3.8425196850393699
20
-3.1100393700787401
11
3.9763779527559056
21
-3.1100393700787401
0
LINE
8
BLACK
6
CONTINUOUS
10
3.8435039370078741
20
-3.112007874015748
11
3.8435039370078741
21
-3.1872047244094488
0
LINE
8
BLACK
6
CONTINUOUS
10
3.8435039370078741
20
-3.1872047244094488
11
3.9753937007874014
21
-3.1872047244094488
0
LINE
8
BLACK
6
CONTINUOUS
10
3.9753937007874014
20
-3.1872047244094488
11
3.9753937007874014
21
-3.112007874015748
0
LINE
8
BLACK
6
CONTINUOUS
10
3.9753937007874014
20
-3.112007874015748
11
3.8435039370078741
21
-3.112007874015748
0
LINE
8
BLACK
6
CONTINUOUS
10
2.368503937007874
20
-3.0255905511811023
11
2.3691999212598422
21
-3.0258788188976378
0
LINE
8
BLACK
6
CONTINUOUS
10
2.3691999212598422
20
-3.0258788188976378
11
2.3694881889763777
21
-3.026574803149606
0
LINE
8
BLACK
6
CONTINUOUS
10
2.3694881889763777
20
-3.026574803149606
11
2.3694881889763777
21
-3.1013779527559056
0
LINE
8
BLACK
6
CONTINUOUS
10
2.3694881889763777
20
-3.1013779527559056
11
2.3701841732283464
21
-3.101666220472441
0
LINE
8
BLACK
6
CONTINUOUS
10
2.3701841732283464
20
-3.101666220472441
11
2.3704724409448819
21
-3.1023622047244093
0
LINE
8
BLACK
6
CONTINUOUS
10
2.3704724409448819
20
-3.1023622047244093
11
2.3704724409448819
21
-3.1771653543307088
0
LINE
8
BLACK
6
CONTINUOUS
10
2.3704724409448819
20
-3.1771653543307088
11
2.3701841732283464
21
-3.1778613385826771
0
LINE
8
BLACK
6
CONTINUOUS
10
2.3701841732283464
20
-3.1778613385826771
11
2.3694881889763777
21
-3.1781496062992125
0
LINE
8
BLACK
6
CONTINUOUS
10
2.3694881889763777
20
-3.1781496062992125
11
2.2372047244094486
21
-3.1781496062992125
0
LINE
8
BLACK
6
CONTINUOUS
10
2.2372047244094486
20
-3.1781496062992125
11
2.2365087401574804
21
-3.1778613385826771
0
LINE
8
BLACK
6
CONTINUOUS
10
2.2365087401574804
20
-3.1778613385826771
11
2.2362204724409449
21
-3.1771653543307088
0
LINE
8
BLACK
6
CONTINUOUS
10
2.2362204724409449
20
-3.1771653543307088
11
2.2362204724409449
21
-3.1023622047244093
0
LINE
8
BLACK
6
CONTINUOUS
10
2.2362204724409449
20
-3.1023622047244093
11
2.2355244881889762
21
-3.1020739370078738
0
LINE
8
BLACK
6
CONTINUOUS
10
2.2355244881889762
20
-3.1020739370078738
11
2.2352362204724407
21
-3.1013779527559056
0
LINE
8
BLACK
6
CONTINUOUS
10
2.2352362204724407
20
-3.1013779527559056
11
2.2352362204724407
21
-3.026574803149606
0
LINE
8
BLACK
6
CONTINUOUS
10
2.2352362204724407
20
-3.026574803149606
11
2.2355244881889762
21
-3.0258788188976378
0
LINE
8
BLACK
6
CONTINUOUS
10
2.2355244881889762
20
-3.0258788188976378
11
2.2362204724409449
21
-3.0255905511811023
0
LINE
8
BLACK
6
CONTINUOUS
10
2.2362204724409449
20
-3.0255905511811023
11
2.368503937007874
21
-3.0255905511811023
0
LINE
8
BLACK
6
CONTINUOUS
10
2.2381889763779528
20
-3.1033464566929134
11
2.2381889763779528
21
-3.1761811023622046
0
LINE
8
BLACK
6
CONTINUOUS
10
2.2381889763779528
20
-3.1761811023622046
11
2.368503937007874
21
-3.1761811023622046
0
LINE
8
BLACK
6
CONTINUOUS
10
2.368503937007874
20
-3.1761811023622046
11
2.368503937007874
21
-3.1033464566929134
0
LINE
8
BLACK
6
CONTINUOUS
10
2.368503937007874
20
-3.1033464566929134
11
2.2381889763779528
21
-3.1033464566929134
0
LINE
8
BLACK
6
CONTINUOUS
10
2.2372047244094486
20
-3.0275590551181102
11
2.2372047244094486
21
-3.1003937007874014
0
LINE
8
BLACK
6
CONTINUOUS
10
2.2372047244094486
20
-3.1003937007874014
11
2.3675196850393698
21
-3.1003937007874014
0
LINE
8
BLACK
6
CONTINUOUS
10
2.3675196850393698
20
-3.1003937007874014
11
2.3675196850393698
21
-3.0275590551181102
0
LINE
8
BLACK
6
CONTINUOUS
10
2.3675196850393698
20
-3.0275590551181102
11
2.2372047244094486
21
-3.0275590551181102
0
LINE
8
BLACK
6
CONTINUOUS
10
2.8523622047244093
20
-2.9417322834645669
11
2.853058188976378
21
-2.9420205511811024
0
LINE
8
BLACK
6
CONTINUOUS
10
2.853058188976378
20
-2.9420205511811024
11
2.8533464566929134
21
-2.9427165354330707
0
LINE
8
BLACK
6
CONTINUOUS
10
2.8533464566929134
20
-2.9427165354330707
11
2.8533464566929134
21
-3.0198818897637794
0
LINE
8
BLACK
6
CONTINUOUS
10
2.8533464566929134
20
-3.0198818897637794
11
2.8532241338582676
21
-3.0201771653543306
0
LINE
8
BLACK
6
CONTINUOUS
10
2.8532241338582676
20
-3.0201771653543306
11
2.8533464566929134
21
-3.0204724409448818
0
LINE
8
BLACK
6
CONTINUOUS
10
2.8533464566929134
20
-3.0204724409448818
11
2.8533464566929134
21
-3.0976377952755905
0
LINE
8
BLACK
6
CONTINUOUS
10
2.8533464566929134
20
-3.0976377952755905
11
2.853058188976378
21
-3.0983337795275592
0
LINE
8
BLACK
6
CONTINUOUS
10
2.853058188976378
20
-3.0983337795275592
11
2.8523622047244093
21
-3.0986220472440946
0
LINE
8
BLACK
6
CONTINUOUS
10
2.8523622047244093
20
-3.0986220472440946
11
2.7185039370078741
21
-3.0986220472440946
0
LINE
8
BLACK
6
CONTINUOUS
10
2.7185039370078741
20
-3.0986220472440946
11
2.7178079527559054
21
-3.0983337795275592
0
LINE
8
BLACK
6
CONTINUOUS
10
2.7178079527559054
20
-3.0983337795275592
11
2.7175196850393699
21
-3.0976377952755905
0
LINE
8
BLACK
6
CONTINUOUS
10
2.7175196850393699
20
-3.0976377952755905
11
2.7175196850393699
21
-3.0204724409448818
0
LINE
8
BLACK
6
CONTINUOUS
10
2.7175196850393699
20
-3.0204724409448818
11
2.717641968503937
21
-3.0201771653543306
0
LINE
8
BLACK
6
CONTINUOUS
10
2.717641968503937
20
-3.0201771653543306
11
2.7175196850393699
21
-3.0198818897637794
0
LINE
8
BLACK
6
CONTINUOUS
10
2.7175196850393699
20
-3.0198818897637794
11
2.7175196850393699
21
-2.9427165354330707
0
LINE
8
BLACK
6
CONTINUOUS
10
2.7175196850393699
20
-2.9427165354330707
11
2.7178079527559054
21
-2.9420205511811024
0
LINE
8
BLACK
6
CONTINUOUS
10
2.7178079527559054
20
-2.9420205511811024
11
2.7185039370078741
21
-2.9417322834645669
0
LINE
8
BLACK
6
CONTINUOUS
10
2.7185039370078741
20
-2.9417322834645669
11
2.8523622047244093
21
-2.9417322834645669
0
LINE
8
BLACK
6
CONTINUOUS
10
2.7194881889763778
20
-3.0214566929133859
11
2.7194881889763778
21
-3.0966535433070868
0
LINE
8
BLACK
6
CONTINUOUS
10
2.7194881889763778
20
-3.0966535433070868
11
2.8513779527559056
21
-3.0966535433070868
0
LINE
8
BLACK
6
CONTINUOUS
10
2.8513779527559056
20
-3.0966535433070868
11
2.8513779527559056
21
-3.0214566929133859
0
LINE
8
BLACK
6
CONTINUOUS
10
2.8513779527559056
20
-3.0214566929133859
11
2.7194881889763778
21
-3.0214566929133859
0
LINE
8
BLACK
6
CONTINUOUS
10
2.7194881889763778
20
-2.9437007874015748
11
2.7194881889763778
21
-3.0188976377952756
0
LINE
8
BLACK
6
CONTINUOUS
10
2.7194881889763778
20
-3.0188976377952756
11
2.8513779527559056
21
-3.0188976377952756
0
LINE
8
BLACK
6
CONTINUOUS
10
2.8513779527559056
20
-3.0188976377952756
11
2.8513779527559056
21
-2.9437007874015748
0
LINE
8
BLACK
6
CONTINUOUS
10
2.8513779527559056
20
-2.9437007874015748
11
2.7194881889763778
21
-2.9437007874015748
0
LINE
8
BLACK
6
CONTINUOUS
10
3.3533464566929134
20
-2.843307086614173
11
3.3540424409448817
21
-2.8435953543307084
0
LINE
8
BLACK
6
CONTINUOUS
10
3.3540424409448817
20
-2.8435953543307084
11
3.3543307086614171
21
-2.8442913385826771
0
LINE
8
BLACK
6
CONTINUOUS
10
3.3543307086614171
20
-2.8442913385826771
11
3.3543307086614171
21
-2.9765748031496062
0
LINE
8
BLACK
6
CONTINUOUS
10
3.3543307086614171
20
-2.9765748031496062
11
3.3540424409448817
21
-2.9772707874015749
0
LINE
8
BLACK
6
CONTINUOUS
10
3.3540424409448817
20
-2.9772707874015749
11
3.3533464566929134
21
-2.9775590551181104
0
LINE
8
BLACK
6
CONTINUOUS
10
3.3533464566929134
20
-2.9775590551181104
11
3.2834645669291338
21
-2.9775590551181104
0
LINE
8
BLACK
6
CONTINUOUS
10
3.2834645669291338
20
-2.9775590551181104
11
3.2834645669291338
21
-3.0543307086614173
0
LINE
8
BLACK
6
CONTINUOUS
10
3.2834645669291338
20
-3.0543307086614173
11
3.2831762992125983
21
-3.0550266929133856
0
LINE
8
BLACK
6
CONTINUOUS
10
3.2831762992125983
20
-3.0550266929133856
11
3.2824803149606296
21
-3.055314960629921
0
LINE
8
BLACK
6
CONTINUOUS
10
3.2824803149606296
20
-3.055314960629921
11
3.1486220472440944
21
-3.055314960629921
0
LINE
8
BLACK
6
CONTINUOUS
10
3.1486220472440944
20
-3.055314960629921
11
3.1479260629921257
21
-3.0550266929133856
0
LINE
8
BLACK
6
CONTINUOUS
10
3.1479260629921257
20
-3.0550266929133856
11
3.1476377952755903
21
-3.0543307086614173
0
LINE
8
BLACK
6
CONTINUOUS
10
3.1476377952755903
20
-3.0543307086614173
11
3.1476377952755903
21
-2.9771653543307086
0
LINE
8
BLACK
6
CONTINUOUS
10
3.1476377952755903
20
-2.9771653543307086
11
3.1479260629921257
21
-2.9764693700787399
0
LINE
8
BLACK
6
CONTINUOUS
10
3.1479260629921257
20
-2.9764693700787399
11
3.1486220472440944
21
-2.9761811023622045
0
LINE
8
BLACK
6
CONTINUOUS
10
3.1486220472440944
20
-2.9761811023622045
11
3.2775590551181102
21
-2.9761811023622045
0
LINE
8
BLACK
6
CONTINUOUS
10
3.2775590551181102
20
-2.9761811023622045
11
3.2775590551181102
21
-2.8442913385826771
0
LINE
8
BLACK
6
CONTINUOUS
10
3.2775590551181102
20
-2.8442913385826771
11
3.2778473228346456
21
-2.8435953543307084
0
LINE
8
BLACK
6
CONTINUOUS
10
3.2778473228346456
20
-2.8435953543307084
11
3.2785433070866139
21
-2.843307086614173
0
LINE
8
BLACK
6
CONTINUOUS
10
3.2785433070866139
20
-2.843307086614173
11
3.3533464566929134
21
-2.843307086614173
0
LINE
8
BLACK
6
CONTINUOUS
10
3.1496062992125982
20
-2.9781496062992123
11
3.1496062992125982
21
-3.0533464566929132
0
LINE
8
BLACK
6
CONTINUOUS
10
3.1496062992125982
20
-3.0533464566929132
11
3.2814960629921259
21
-3.0533464566929132
0
LINE
8
BLACK
6
CONTINUOUS
10
3.2814960629921259
20
-3.0533464566929132
11
3.2814960629921259
21
-2.9781496062992123
0
LINE
8
BLACK
6
CONTINUOUS
10
3.2814960629921259
20
-2.9781496062992123
11
3.1496062992125982
21
-2.9781496062992123
0
LINE
8
BLACK
6
CONTINUOUS
10
3.2795275590551181
20
-2.8452755905511808
11
3.2795275590551181
21
-2.9755905511811025
0
LINE
8
BLACK
6
CONTINUOUS
10
3.2795275590551181
20
-2.9755905511811025
11
3.3523622047244093
21
-2.9755905511811025
0
LINE
8
BLACK
6
CONTINUOUS
10
3.3523622047244093
20
-2.9755905511811025
11
3.3523622047244093
21
-2.8452755905511808
0
LINE
8
BLACK
6
CONTINUOUS
10
3.3523622047244093
20
-2.8452755905511808
11
3.2795275590551181
21
-2.8452755905511808
0
LINE
8
BLACK
6
CONTINUOUS
10
3.5297244094488187
20
-2.9783464566929134
11
3.5304203937007874
21
-2.9786347244094489
0
LINE
8
BLACK
6
CONTINUOUS
10
3.5304203937007874
20
-2.9786347244094489
11
3.5307086614173229
21
-2.9793307086614171
0
LINE
8
BLACK
6
CONTINUOUS
10
3.5307086614173229
20
-2.9793307086614171
11
3.5307086614173229
21
-3.0541338582677167
0
LINE
8
BLACK
6
CONTINUOUS
10
3.5307086614173229
20
-3.0541338582677167
11
3.5304203937007874
21
-3.0548298425196849
0
LINE
8
BLACK
6
CONTINUOUS
10
3.5304203937007874
20
-3.0548298425196849
11
3.5297244094488187
21
-3.0551181102362204
0
LINE
8
BLACK
6
CONTINUOUS
10
3.5297244094488187
20
-3.0551181102362204
11
3.3974409448818896
21
-3.0551181102362204
0
LINE
8
BLACK
6
CONTINUOUS
10
3.3974409448818896
20
-3.0551181102362204
11
3.3967449606299214
21
-3.0548298425196849
0
LINE
8
BLACK
6
CONTINUOUS
10
3.3967449606299214
20
-3.0548298425196849
11
3.3964566929133859
21
-3.0541338582677167
0
LINE
8
BLACK
6
CONTINUOUS
10
3.3964566929133859
20
-3.0541338582677167
11
3.3964566929133859
21
-2.9793307086614171
0
LINE
8
BLACK
6
CONTINUOUS
10
3.3964566929133859
20
-2.9793307086614171
11
3.3967449606299214
21
-2.9786347244094489
0
LINE
8
BLACK
6
CONTINUOUS
10
3.3967449606299214
20
-2.9786347244094489
11
3.3974409448818896
21
-2.9783464566929134
0
LINE
8
BLACK
6
CONTINUOUS
10
3.3974409448818896
20
-2.9783464566929134
11
3.5297244094488187
21
-2.9783464566929134
0
LINE
8
BLACK
6
CONTINUOUS
10
3.3984251968503938
20
-2.9803149606299213
11
3.3984251968503938
21
-3.0531496062992125
0
LINE
8
BLACK
6
CONTINUOUS
10
3.3984251968503938
20
-3.0531496062992125
11
3.528740157480315
21
-3.0531496062992125
0
LINE
8
BLACK
6
CONTINUOUS
10
3.528740157480315
20
-3.0531496062992125
11
3.528740157480315
21
-2.9803149606299213
0
LINE
8
BLACK
6
CONTINUOUS
10
3.528740157480315
20
-2.9803149606299213
11
3.3984251968503938
21
-2.9803149606299213
0
LINE
8
BLACK
6
CONTINUOUS
10
2.5700787401574803
20
-2.8966535433070866
11
2.5707747244094485
21
-2.896941811023622
0
LINE
8
BLACK
6
CONTINUOUS
10
2.5707747244094485
20
-2.896941811023622
11
2.5708661417322833
21
-2.8971625196850392
0
LINE
8
BLACK
6
CONTINUOUS
10
2.5708661417322833
20
-2.8971625196850392
11
2.5709575590551181
21
-2.896941811023622
0
LINE
8
BLACK
6
CONTINUOUS
10
2.5709575590551181
20
-2.896941811023622
11
2.5716535433070864
21
-2.8966535433070866
0
LINE
8
BLACK
6
CONTINUOUS
10
2.5716535433070864
20
-2.8966535433070866
11
2.6488188976377951
21
-2.8966535433070866
0
LINE
8
BLACK
6
CONTINUOUS
10
2.6488188976377951
20
-2.8966535433070866
11
2.6495148818897638
21
-2.896941811023622
0
LINE
8
BLACK
6
CONTINUOUS
10
2.6495148818897638
20
-2.896941811023622
11
2.6498031496062993
21
-2.8976377952755903
0
LINE
8
BLACK
6
CONTINUOUS
10
2.6498031496062993
20
-2.8976377952755903
11
2.6498031496062993
21
-3.0314960629921259
0
LINE
8
BLACK
6
CONTINUOUS
10
2.6498031496062993
20
-3.0314960629921259
11
2.6495148818897638
21
-3.0321920472440946
0
LINE
8
BLACK
6
CONTINUOUS
10
2.6495148818897638
20
-3.0321920472440946
11
2.6488188976377951
21
-3.0324803149606296
0
LINE
8
BLACK
6
CONTINUOUS
10
2.6488188976377951
20
-3.0324803149606296
11
2.5716535433070864
21
-3.0324803149606296
0
LINE
8
BLACK
6
CONTINUOUS
10
2.5716535433070864
20
-3.0324803149606296
11
2.5709575590551181
21
-3.0321920472440946
0
LINE
8
BLACK
6
CONTINUOUS
10
2.5709575590551181
20
-3.0321920472440946
11
2.5708661417322833
21
-3.0319712992125982
0
LINE
8
BLACK
6
CONTINUOUS
10
2.5708661417322833
20
-3.0319712992125982
11
2.5707747244094485
21
-3.0321920472440946
0
LINE
8
BLACK
6
CONTINUOUS
10
2.5707747244094485
20
-3.0321920472440946
11
2.5700787401574803
21
-3.0324803149606296
0
LINE
8
BLACK
6
CONTINUOUS
10
2.5700787401574803
20
-3.0324803149606296
11
2.4929133858267716
21
-3.0324803149606296
0
LINE
8
BLACK
6
CONTINUOUS
10
2.4929133858267716
20
-3.0324803149606296
11
2.4922174015748033
21
-3.0321920472440946
0
LINE
8
BLACK
6
CONTINUOUS
10
2.4922174015748033
20
-3.0321920472440946
11
2.4919291338582679
21
-3.0314960629921259
0
LINE
8
BLACK
6
CONTINUOUS
10
2.4919291338582679
20
-3.0314960629921259
11
2.4919291338582679
21
-2.8976377952755903
0
LINE
8
BLACK
6
CONTINUOUS
10
2.4919291338582679
20
-2.8976377952755903
11
2.4922174015748033
21
-2.896941811023622
0
LINE
8
BLACK
6
CONTINUOUS
10
2.4922174015748033
20
-2.896941811023622
11
2.4929133858267716
21
-2.8966535433070866
0
LINE
8
BLACK
6
CONTINUOUS
10
2.4929133858267716
20
-2.8966535433070866
11
2.5700787401574803
21
-2.8966535433070866
0
LINE
8
BLACK
6
CONTINUOUS
10
2.5726377952755906
20
-2.8986220472440944
11
2.5726377952755906
21
-3.0305118110236218
0
LINE
8
BLACK
6
CONTINUOUS
10
2.5726377952755906
20
-3.0305118110236218
11
2.6478346456692914
21
-3.0305118110236218
0
LINE
8
BLACK
6
CONTINUOUS
10
2.6478346456692914
20
-3.0305118110236218
11
2.6478346456692914
21
-2.8986220472440944
0
LINE
8
BLACK
6
CONTINUOUS
10
2.6478346456692914
20
-2.8986220472440944
11
2.5726377952755906
21
-2.8986220472440944
0
LINE
8
BLACK
6
CONTINUOUS
10
2.4938976377952757
20
-2.8986220472440944
11
2.4938976377952757
21
-3.0305118110236218
0
LINE
8
BLACK
6
CONTINUOUS
10
2.4938976377952757
20
-3.0305118110236218
11
2.5690944881889761
21
-3.0305118110236218
0
LINE
8
BLACK
6
CONTINUOUS
10
2.5690944881889761
20
-3.0305118110236218
11
2.5690944881889761
21
-2.8986220472440944
0
LINE
8
BLACK
6
CONTINUOUS
10
2.5690944881889761
20
-2.8986220472440944
11
2.4938976377952757
21
-2.8986220472440944
0
LINE
8
BLACK
6
CONTINUOUS
10
3.2362204724409449
20
-2.7222440944881887
11
3.2369164566929132
21
-2.7225323622047242
0
LINE
8
BLACK
6
CONTINUOUS
10
3.2369164566929132
20
-2.7225323622047242
11
3.2372047244094486
21
-2.7232283464566929
0
LINE
8
BLACK
6
CONTINUOUS
10
3.2372047244094486
20
-2.7232283464566929
11
3.2372047244094486
21
-2.8553149606299213
0
LINE
8
BLACK
6
CONTINUOUS
10
3.2372047244094486
20
-2.8553149606299213
11
3.2755905511811023
21
-2.8553149606299213
0
LINE
8
BLACK
6
CONTINUOUS
10
3.2755905511811023
20
-2.8553149606299213
11
3.2762865354330706
21
-2.8556032283464567
0
LINE
8
BLACK
6
CONTINUOUS
10
3.2762865354330706
20
-2.8556032283464567
11
3.276574803149606
21
-2.856299212598425
0
LINE
8
BLACK
6
CONTINUOUS
10
3.276574803149606
20
-2.856299212598425
11
3.276574803149606
21
-2.9744094488188977
0
LINE
8
BLACK
6
CONTINUOUS
10
3.276574803149606
20
-2.9744094488188977
11
3.2762865354330706
21
-2.9751054330708659
0
LINE
8
BLACK
6
CONTINUOUS
10
3.2762865354330706
20
-2.9751054330708659
11
3.2755905511811023
21
-2.9753937007874014
0
LINE
8
BLACK
6
CONTINUOUS
10
3.2755905511811023
20
-2.9753937007874014
11
3.1614173228346454
21
-2.9753937007874014
0
LINE
8
BLACK
6
CONTINUOUS
10
3.1614173228346454
20
-2.9753937007874014
11
3.1607213385826771
21
-2.9751054330708659
0
LINE
8
BLACK
6
CONTINUOUS
10
3.1607213385826771
20
-2.9751054330708659
11
3.1604330708661417
21
-2.9744094488188977
0
LINE
8
BLACK
6
CONTINUOUS
10
3.1604330708661417
20
-2.9744094488188977
11
3.1604330708661417
21
-2.856299212598425
0
LINE
8
BLACK
6
CONTINUOUS
10
3.1604330708661417
20
-2.856299212598425
11
3.1605961023622045
21
-2.8559055118110237
0
LINE
8
BLACK
6
CONTINUOUS
10
3.1605961023622045
20
-2.8559055118110237
11
3.1604330708661417
21
-2.8555118110236219
0
LINE
8
BLACK
6
CONTINUOUS
10
3.1604330708661417
20
-2.8555118110236219
11
3.1604330708661417
21
-2.7232283464566929
0
LINE
8
BLACK
6
CONTINUOUS
10
3.1604330708661417
20
-2.7232283464566929
11
3.1607213385826771
21
-2.7225323622047242
0
LINE
8
BLACK
6
CONTINUOUS
10
3.1607213385826771
20
-2.7225323622047242
11
3.1614173228346454
21
-2.7222440944881887
0
LINE
8
BLACK
6
CONTINUOUS
10
3.1614173228346454
20
-2.7222440944881887
11
3.2362204724409449
21
-2.7222440944881887
0
LINE
8
BLACK
6
CONTINUOUS
10
3.1624015748031495
20
-2.8572834645669292
11
3.1624015748031495
21
-2.9734251968503935
0
LINE
8
BLACK
6
CONTINUOUS
10
3.1624015748031495
20
-2.9734251968503935
11
3.2746062992125982
21
-2.9734251968503935
0
LINE
8
BLACK
6
CONTINUOUS
10
3.2746062992125982
20
-2.9734251968503935
11
3.2746062992125982
21
-2.8572834645669292
0
LINE
8
BLACK
6
CONTINUOUS
10
3.2746062992125982
20
-2.8572834645669292
11
3.1624015748031495
21
-2.8572834645669292
0
LINE
8
BLACK
6
CONTINUOUS
10
3.1624015748031495
20
-2.7242125984251966
11
3.1624015748031495
21
-2.8545275590551182
0
LINE
8
BLACK
6
CONTINUOUS
10
3.1624015748031495
20
-2.8545275590551182
11
3.2352362204724407
21
-2.8545275590551182
0
LINE
8
BLACK
6
CONTINUOUS
10
3.2352362204724407
20
-2.8545275590551182
11
3.2352362204724407
21
-2.7242125984251966
0
LINE
8
BLACK
6
CONTINUOUS
10
3.2352362204724407
20
-2.7242125984251966
11
3.1624015748031495
21
-2.7242125984251966
0
LINE
8
BLACK
6
CONTINUOUS
10
3.4803149606299213
20
-2.718307086614173
11
3.4810109448818896
21
-2.7185953543307084
0
LINE
8
BLACK
6
CONTINUOUS
10
3.4810109448818896
20
-2.7185953543307084
11
3.481299212598425
21
-2.7192913385826771
0
LINE
8
BLACK
6
CONTINUOUS
10
3.481299212598425
20
-2.7192913385826771
11
3.481299212598425
21
-2.8515748031496062
0
LINE
8
BLACK
6
CONTINUOUS
10
3.481299212598425
20
-2.8515748031496062
11
3.4810109448818896
21
-2.8522707874015749
0
LINE
8
BLACK
6
CONTINUOUS
10
3.4810109448818896
20
-2.8522707874015749
11
3.4807902362204723
21
-2.8523622047244093
0
LINE
8
BLACK
6
CONTINUOUS
10
3.4807902362204723
20
-2.8523622047244093
11
3.5206692913385824
21
-2.8523622047244093
0
LINE
8
BLACK
6
CONTINUOUS
10
3.5206692913385824
20
-2.8523622047244093
11
3.5213652755905511
21
-2.8526504724409447
0
LINE
8
BLACK
6
CONTINUOUS
10
3.5213652755905511
20
-2.8526504724409447
11
3.5216535433070866
21
-2.8533464566929134
0
LINE
8
BLACK
6
CONTINUOUS
10
3.5216535433070866
20
-2.8533464566929134
11
3.5216535433070866
21
-2.9714566929133857
0
LINE
8
BLACK
6
CONTINUOUS
10
3.5216535433070866
20
-2.9714566929133857
11
3.5213652755905511
21
-2.9721526771653544
0
LINE
8
BLACK
6
CONTINUOUS
10
3.5213652755905511
20
-2.9721526771653544
11
3.5206692913385824
21
-2.9724409448818898
0
LINE
8
BLACK
6
CONTINUOUS
10
3.5206692913385824
20
-2.9724409448818898
11
3.4064960629921259
21
-2.9724409448818898
0
LINE
8
BLACK
6
CONTINUOUS
10
3.4064960629921259
20
-2.9724409448818898
11
3.4058000787401572
21
-2.9721526771653544
0
LINE
8
BLACK
6
CONTINUOUS
10
3.4058000787401572
20
-2.9721526771653544
11
3.4055118110236218
21
-2.9714566929133857
0
LINE
8
BLACK
6
CONTINUOUS
10
3.4055118110236218
20
-2.9714566929133857
11
3.4055118110236218
21
-2.8533464566929134
0
LINE
8
BLACK
6
CONTINUOUS
10
3.4055118110236218
20
-2.8533464566929134
11
3.4058000787401572
21
-2.8526504724409447
0
LINE
8
BLACK
6
CONTINUOUS
10
3.4058000787401572
20
-2.8526504724409447
11
3.4060207874015749
21
-2.8525590551181104
0
LINE
8
BLACK
6
CONTINUOUS
10
3.4060207874015749
20
-2.8525590551181104
11
3.4055118110236218
21
-2.8525590551181104
0
LINE
8
BLACK
6
CONTINUOUS
10
3.4055118110236218
20
-2.8525590551181104
11
3.4048158267716535
21
-2.8522707874015749
0
LINE
8
BLACK
6
CONTINUOUS
10
3.4048158267716535
20
-2.8522707874015749
11
3.4045275590551181
21
-2.8515748031496062
0
LINE
8
BLACK
6
CONTINUOUS
10
3.4045275590551181
20
-2.8515748031496062
11
3.4045275590551181
21
-2.7192913385826771
0
LINE
8
BLACK
6
CONTINUOUS
10
3.4045275590551181
20
-2.7192913385826771
11
3.4048158267716535
21
-2.7185953543307084
0
LINE
8
BLACK
6
CONTINUOUS
10
3.4048158267716535
20
-2.7185953543307084
11
3.4055118110236218
21
-2.718307086614173
0
LINE
8
BLACK
6
CONTINUOUS
10
3.4055118110236218
20
-2.718307086614173
11
3.4803149606299213
21
-2.718307086614173
0
LINE
8
BLACK
6
CONTINUOUS
10
3.4074803149606296
20
-2.8543307086614171
11
3.4074803149606296
21
-2.9704724409448819
0
LINE
8
BLACK
6
CONTINUOUS
10
3.4074803149606296
20
-2.9704724409448819
11
3.5196850393700787
21
-2.9704724409448819
0
LINE
8
BLACK
6
CONTINUOUS
10
3.5196850393700787
20
-2.9704724409448819
11
3.5196850393700787
21
-2.8543307086614171
0
LINE
8
BLACK
6
CONTINUOUS
10
3.5196850393700787
20
-2.8543307086614171
11
3.4074803149606296
21
-2.8543307086614171
0
LINE
8
BLACK
6
CONTINUOUS
10
3.4064960629921259
20
-2.7202755905511808
11
3.4064960629921259
21
-2.8505905511811025
0
LINE
8
BLACK
6
CONTINUOUS
10
3.4064960629921259
20
-2.8505905511811025
11
3.4793307086614171
21
-2.8505905511811025
0
LINE
8
BLACK
6
CONTINUOUS
10
3.4793307086614171
20
-2.8505905511811025
11
3.4793307086614171
21
-2.7202755905511808
0
LINE
8
BLACK
6
CONTINUOUS
10
3.4793307086614171
20
-2.7202755905511808
11
3.4064960629921259
21
-2.7202755905511808
0
LINE
8
BLACK
6
CONTINUOUS
10
2.7214566929133857
20
-2.5992125984251966
11
2.7221526771653544
21
-2.599500866141732
0
LINE
8
BLACK
6
CONTINUOUS
10
2.7221526771653544
20
-2.599500866141732
11
2.7224409448818898
21
-2.6001968503937007
0
LINE
8
BLACK
6
CONTINUOUS
10
2.7224409448818898
20
-2.6001968503937007
11
2.7224409448818898
21
-2.6773622047244094
0
LINE
8
BLACK
6
CONTINUOUS
10
2.7224409448818898
20
-2.6773622047244094
11
2.7221526771653544
21
-2.6780581889763777
0
LINE
8
BLACK
6
CONTINUOUS
10
2.7221526771653544
20
-2.6780581889763777
11
2.7214566929133857
21
-2.6783464566929132
0
LINE
8
BLACK
6
CONTINUOUS
10
2.7214566929133857
20
-2.6783464566929132
11
2.5875984251968505
21
-2.6783464566929132
0
LINE
8
BLACK
6
CONTINUOUS
10
2.5875984251968505
20
-2.6783464566929132
11
2.5869024409448818
21
-2.6780581889763777
0
LINE
8
BLACK
6
CONTINUOUS
10
2.5869024409448818
20
-2.6780581889763777
11
2.5866141732283463
21
-2.6773622047244094
0
LINE
8
BLACK
6
CONTINUOUS
10
2.5866141732283463
20
-2.6773622047244094
11
2.5866141732283463
21
-2.6001968503937007
0
LINE
8
BLACK
6
CONTINUOUS
10
2.5866141732283463
20
-2.6001968503937007
11
2.5869024409448818
21
-2.599500866141732
0
LINE
8
BLACK
6
CONTINUOUS
10
2.5869024409448818
20
-2.599500866141732
11
2.5875984251968505
21
-2.5992125984251966
0
LINE
8
BLACK
6
CONTINUOUS
10
2.5875984251968505
20
-2.5992125984251966
11
2.7214566929133857
21
-2.5992125984251966
0
LINE
8
BLACK
6
CONTINUOUS
10
2.5885826771653542
20
-2.6011811023622045
11
2.5885826771653542
21
-2.6763779527559053
0
LINE
8
BLACK
6
CONTINUOUS
10
2.5885826771653542
20
-2.6763779527559053
11
2.7204724409448819
21
-2.6763779527559053
0
LINE
8
BLACK
6
CONTINUOUS
10
2.7204724409448819
20
-2.6763779527559053
11
2.7204724409448819
21
-2.6011811023622045
0
LINE
8
BLACK
6
CONTINUOUS
10
2.7204724409448819
20
-2.6011811023622045
11
2.5885826771653542
21
-2.6011811023622045
0
LINE
8
BLACK
6
CONTINUOUS
10
2.7204724409448819
20
-2.3549212598425195
11
2.7211684251968502
21
-2.355209527559055
0
LINE
8
BLACK
6
CONTINUOUS
10
2.7211684251968502
20
-2.355209527559055
11
2.7214566929133857
21
-2.3559055118110237
0
LINE
8
BLACK
6
CONTINUOUS
10
2.7214566929133857
20
-2.3559055118110237
11
2.7214566929133857
21
-2.4330708661417324
0
LINE
8
BLACK
6
CONTINUOUS
10
2.7214566929133857
20
-2.4330708661417324
11
2.7214566929133857
21
-2.5944881889763778
0
LINE
8
BLACK
6
CONTINUOUS
10
2.7214566929133857
20
-2.5944881889763778
11
2.7211684251968502
21
-2.5951841732283465
0
LINE
8
BLACK
6
CONTINUOUS
10
2.7211684251968502
20
-2.5951841732283465
11
2.7204724409448819
21
-2.5954724409448819
0
LINE
8
BLACK
6
CONTINUOUS
10
2.7204724409448819
20
-2.5954724409448819
11
2.5866141732283463
21
-2.5954724409448819
0
LINE
8
BLACK
6
CONTINUOUS
10
2.5866141732283463
20
-2.5954724409448819
11
2.585918188976378
21
-2.5951841732283465
0
LINE
8
BLACK
6
CONTINUOUS
10
2.585918188976378
20
-2.5951841732283465
11
2.5856299212598426
21
-2.5944881889763778
0
LINE
8
BLACK
6
CONTINUOUS
10
2.5856299212598426
20
-2.5944881889763778
11
2.5856299212598426
21
-2.4330708661417324
0
LINE
8
BLACK
6
CONTINUOUS
10
2.5856299212598426
20
-2.4330708661417324
11
2.5856299212598426
21
-2.3559055118110237
0
LINE
8
BLACK
6
CONTINUOUS
10
2.5856299212598426
20
-2.3559055118110237
11
2.585918188976378
21
-2.355209527559055
0
LINE
8
BLACK
6
CONTINUOUS
10
2.585918188976378
20
-2.355209527559055
11
2.5866141732283463
21
-2.3549212598425195
0
LINE
8
BLACK
6
CONTINUOUS
10
2.5866141732283463
20
-2.3549212598425195
11
2.7204724409448819
21
-2.3549212598425195
0
LINE
8
BLACK
6
CONTINUOUS
10
2.5875984251968505
20
-2.4340551181102361
11
2.5875984251968505
21
-2.5935039370078741
0
LINE
8
BLACK
6
CONTINUOUS
10
2.5875984251968505
20
-2.5935039370078741
11
2.7194881889763778
21
-2.5935039370078741
0
LINE
8
BLACK
6
CONTINUOUS
10
2.7194881889763778
20
-2.5935039370078741
11
2.7194881889763778
21
-2.4340551181102361
0
LINE
8
BLACK
6
CONTINUOUS
10
2.7194881889763778
20
-2.4340551181102361
11
2.5875984251968505
21
-2.4340551181102361
0
LINE
8
BLACK
6
CONTINUOUS
10
2.5875984251968505
20
-2.3568897637795274
11
2.5875984251968505
21
-2.4320866141732282
0
LINE
8
BLACK
6
CONTINUOUS
10
2.5875984251968505
20
-2.4320866141732282
11
2.7194881889763778
21
-2.4320866141732282
0
LINE
8
BLACK
6
CONTINUOUS
10
2.7194881889763778
20
-2.4320866141732282
11
2.7194881889763778
21
-2.3568897637795274
0
LINE
8
BLACK
6
CONTINUOUS
10
2.7194881889763778
20
-2.3568897637795274
11
2.5875984251968505
21
-2.3568897637795274
0
LINE
8
BLACK
6
CONTINUOUS
10
3.3003937007874016
20
-2.3287401574803148
11
3.3010896850393698
21
-2.3290284251968503
0
LINE
8
BLACK
6
CONTINUOUS
10
3.3010896850393698
20
-2.3290284251968503
11
3.3013779527559053
21
-2.329724409448819
0
LINE
8
BLACK
6
CONTINUOUS
10
3.3013779527559053
20
-2.329724409448819
11
3.3013779527559053
21
-2.330511811023622
0
LINE
8
BLACK
6
CONTINUOUS
10
3.3013779527559053
20
-2.330511811023622
11
3.4622047244094487
21
-2.330511811023622
0
LINE
8
BLACK
6
CONTINUOUS
10
3.4622047244094487
20
-2.330511811023622
11
3.4626799999999998
21
-2.3307086614173227
0
LINE
8
BLACK
6
CONTINUOUS
10
3.4626799999999998
20
-2.3307086614173227
11
3.5946850393700784
21
-2.3307086614173227
0
LINE
8
BLACK
6
CONTINUOUS
10
3.5946850393700784
20
-2.3307086614173227
11
3.5953810236220471
21
-2.3309969291338581
0
LINE
8
BLACK
6
CONTINUOUS
10
3.5953810236220471
20
-2.3309969291338581
11
3.5956692913385826
21
-2.3316929133858268
0
LINE
8
BLACK
6
CONTINUOUS
10
3.5956692913385826
20
-2.3316929133858268
11
3.5956692913385826
21
-2.4064960629921259
0
LINE
8
BLACK
6
CONTINUOUS
10
3.5956692913385826
20
-2.4064960629921259
11
3.5954654330708662
21
-2.4069881889763778
0
LINE
8
BLACK
6
CONTINUOUS
10
3.5954654330708662
20
-2.4069881889763778
11
3.5956692913385826
21
-2.4074803149606301
0
LINE
8
BLACK
6
CONTINUOUS
10
3.5956692913385826
20
-2.4074803149606301
11
3.5956692913385826
21
-2.4822834645669292
0
LINE
8
BLACK
6
CONTINUOUS
10
3.5956692913385826
20
-2.4822834645669292
11
3.5953810236220471
21
-2.4829794488188974
0
LINE
8
BLACK
6
CONTINUOUS
10
3.5953810236220471
20
-2.4829794488188974
11
3.5946850393700784
21
-2.4832677165354329
0
LINE
8
BLACK
6
CONTINUOUS
10
3.5946850393700784
20
-2.4832677165354329
11
3.4624015748031494
21
-2.4832677165354329
0
LINE
8
BLACK
6
CONTINUOUS
10
3.4624015748031494
20
-2.4832677165354329
11
3.461811023622047
21
-2.4830231102362204
0
LINE
8
BLACK
6
CONTINUOUS
10
3.461811023622047
20
-2.4830231102362204
11
3.461811023622047
21
-2.5403543307086616
0
LINE
8
BLACK
6
CONTINUOUS
10
3.461811023622047
20
-2.5403543307086616
11
3.4615227559055119
21
-2.5410503149606298
0
LINE
8
BLACK
6
CONTINUOUS
10
3.4615227559055119
20
-2.5410503149606298
11
3.4608267716535432
21
-2.5413385826771653
0
LINE
8
BLACK
6
CONTINUOUS
10
3.4608267716535432
20
-2.5413385826771653
11
3.3285433070866142
21
-2.5413385826771653
0
LINE
8
BLACK
6
CONTINUOUS
10
3.3285433070866142
20
-2.5413385826771653
11
3.328248031496063
21
-2.5412162598425194
0
LINE
8
BLACK
6
CONTINUOUS
10
3.328248031496063
20
-2.5412162598425194
11
3.3279527559055118
21
-2.5413385826771653
0
LINE
8
BLACK
6
CONTINUOUS
10
3.3279527559055118
20
-2.5413385826771653
11
3.1956692913385827
21
-2.5413385826771653
0
LINE
8
BLACK
6
CONTINUOUS
10
3.1956692913385827
20
-2.5413385826771653
11
3.194973307086614
21
-2.5410503149606298
0
LINE
8
BLACK
6
CONTINUOUS
10
3.194973307086614
20
-2.5410503149606298
11
3.1946850393700785
21
-2.5403543307086616
0
LINE
8
BLACK
6
CONTINUOUS
10
3.1946850393700785
20
-2.5403543307086616
11
3.1946850393700785
21
-2.465551181102362
0
LINE
8
BLACK
6
CONTINUOUS
10
3.1946850393700785
20
-2.465551181102362
11
3.194973307086614
21
-2.4648551968503938
0
LINE
8
BLACK
6
CONTINUOUS
10
3.194973307086614
20
-2.4648551968503938
11
3.1956692913385827
21
-2.4645669291338583
0
LINE
8
BLACK
6
CONTINUOUS
10
3.1956692913385827
20
-2.4645669291338583
11
3.2232283464566929
21
-2.4645669291338583
0
LINE
8
BLACK
6
CONTINUOUS
10
3.2232283464566929
20
-2.4645669291338583
11
3.2225323622047242
21
-2.4642786614173229
0
LINE
8
BLACK
6
CONTINUOUS
10
3.2225323622047242
20
-2.4642786614173229
11
3.2222440944881887
21
-2.4635826771653542
0
LINE
8
BLACK
6
CONTINUOUS
10
3.2222440944881887
20
-2.4635826771653542
11
3.2222440944881887
21
-2.329724409448819
0
LINE
8
BLACK
6
CONTINUOUS
10
3.2222440944881887
20
-2.329724409448819
11
3.2225323622047242
21
-2.3290284251968503
0
LINE
8
BLACK
6
CONTINUOUS
10
3.2225323622047242
20
-2.3290284251968503
11
3.2232283464566929
21
-2.3287401574803148
0
LINE
8
BLACK
6
CONTINUOUS
10
3.2232283464566929
20
-2.3287401574803148
11
3.3003937007874016
21
-2.3287401574803148
0
LINE
8
BLACK
6
CONTINUOUS
10
3.3295275590551179
20
-2.4665354330708662
11
3.3295275590551179
21
-2.5393700787401574
0
LINE
8
BLACK
6
CONTINUOUS
10
3.3295275590551179
20
-2.5393700787401574
11
3.4598425196850391
21
-2.5393700787401574
0
LINE
8
BLACK
6
CONTINUOUS
10
3.4598425196850391
20
-2.5393700787401574
11
3.4598425196850391
21
-2.4665354330708662
0
LINE
8
BLACK
6
CONTINUOUS
10
3.4598425196850391
20
-2.4665354330708662
11
3.3295275590551179
21
-2.4665354330708662
0
LINE
8
BLACK
6
CONTINUOUS
10
3.1966535433070864
20
-2.4665354330708662
11
3.1966535433070864
21
-2.5393700787401574
0
LINE
8
BLACK
6
CONTINUOUS
10
3.1966535433070864
20
-2.5393700787401574
11
3.3269685039370076
21
-2.5393700787401574
0
LINE
8
BLACK
6
CONTINUOUS
10
3.3269685039370076
20
-2.5393700787401574
11
3.3269685039370076
21
-2.4665354330708662
0
LINE
8
BLACK
6
CONTINUOUS
10
3.3269685039370076
20
-2.4665354330708662
11
3.1966535433070864
21
-2.4665354330708662
0
LINE
8
BLACK
6
CONTINUOUS
10
3.4633858267716535
20
-2.4084645669291338
11
3.4633858267716535
21
-2.481299212598425
0
LINE
8
BLACK
6
CONTINUOUS
10
3.4633858267716535
20
-2.481299212598425
11
3.5937007874015747
21
-2.481299212598425
0
LINE
8
BLACK
6
CONTINUOUS
10
3.5937007874015747
20
-2.481299212598425
11
3.5937007874015747
21
-2.4084645669291338
0
LINE
8
BLACK
6
CONTINUOUS
10
3.5937007874015747
20
-2.4084645669291338
11
3.4633858267716535
21
-2.4084645669291338
0
LINE
8
BLACK
6
CONTINUOUS
10
3.301771653543307
20
-2.3324803149606299
11
3.301771653543307
21
-2.4643700787401572
0
LINE
8
BLACK
6
CONTINUOUS
10
3.301771653543307
20
-2.4643700787401572
11
3.461220472440945
21
-2.4643700787401572
0
LINE
8
BLACK
6
CONTINUOUS
10
3.461220472440945
20
-2.4643700787401572
11
3.461220472440945
21
-2.3324803149606299
0
LINE
8
BLACK
6
CONTINUOUS
10
3.461220472440945
20
-2.3324803149606299
11
3.301771653543307
21
-2.3324803149606299
0
LINE
8
BLACK
6
CONTINUOUS
10
3.2242125984251966
20
-2.3307086614173227
11
3.2242125984251966
21
-2.4625984251968505
0
LINE
8
BLACK
6
CONTINUOUS
10
3.2242125984251966
20
-2.4625984251968505
11
3.2994094488188974
21
-2.4625984251968505
0
LINE
8
BLACK
6
CONTINUOUS
10
3.2994094488188974
20
-2.4625984251968505
11
3.2994094488188974
21
-2.3307086614173227
0
LINE
8
BLACK
6
CONTINUOUS
10
3.2994094488188974
20
-2.3307086614173227
11
3.2242125984251966
21
-2.3307086614173227
0
LINE
8
BLACK
6
CONTINUOUS
10
3.4633858267716535
20
-2.3326771653543306
11
3.4633858267716535
21
-2.4055118110236218
0
LINE
8
BLACK
6
CONTINUOUS
10
3.4633858267716535
20
-2.4055118110236218
11
3.5937007874015747
21
-2.4055118110236218
0
LINE
8
BLACK
6
CONTINUOUS
10
3.5937007874015747
20
-2.4055118110236218
11
3.5937007874015747
21
-2.3326771653543306
0
LINE
8
BLACK
6
CONTINUOUS
10
3.5937007874015747
20
-2.3326771653543306
11
3.4633858267716535
21
-2.3326771653543306
0
LINE
8
BLACK
6
CONTINUOUS
10
4.1236220472440941
20
-2.3596456692913383
11
4.1243180314960632
21
-2.3599339370078738
0
LINE
8
BLACK
6
CONTINUOUS
10
4.1243180314960632
20
-2.3599339370078738
11
4.1246062992125987
21
-2.3606299212598425
0
LINE
8
BLACK
6
CONTINUOUS
10
4.1246062992125987
20
-2.3606299212598425
11
4.1246062992125987
21
-2.4929133858267716
0
LINE
8
BLACK
6
CONTINUOUS
10
4.1246062992125987
20
-2.4929133858267716
11
4.1243180314960632
21
-2.4936093700787403
0
LINE
8
BLACK
6
CONTINUOUS
10
4.1243180314960632
20
-2.4936093700787403
11
4.1236220472440941
21
-2.4938976377952757
0
LINE
8
BLACK
6
CONTINUOUS
10
4.1236220472440941
20
-2.4938976377952757
11
4.048818897637795
21
-2.4938976377952757
0
LINE
8
BLACK
6
CONTINUOUS
10
4.048818897637795
20
-2.4938976377952757
11
4.0481229133858267
21
-2.4936093700787403
0
LINE
8
BLACK
6
CONTINUOUS
10
4.0481229133858267
20
-2.4936093700787403
11
4.0478346456692913
21
-2.4929133858267716
0
LINE
8
BLACK
6
CONTINUOUS
10
4.0478346456692913
20
-2.4929133858267716
11
4.0478346456692913
21
-2.3606299212598425
0
LINE
8
BLACK
6
CONTINUOUS
10
4.0478346456692913
20
-2.3606299212598425
11
4.0481229133858267
21
-2.3599339370078738
0
LINE
8
BLACK
6
CONTINUOUS
10
4.0481229133858267
20
-2.3599339370078738
11
4.048818897637795
21
-2.3596456692913383
0
LINE
8
BLACK
6
CONTINUOUS
10
4.048818897637795
20
-2.3596456692913383
11
4.1236220472440941
21
-2.3596456692913383
0
LINE
8
BLACK
6
CONTINUOUS
10
4.0498031496062987
20
-2.3616141732283462
11
4.0498031496062987
21
-2.4919291338582679
0
LINE
8
BLACK
6
CONTINUOUS
10
4.0498031496062987
20
-2.4919291338582679
11
4.1226377952755904
21
-2.4919291338582679
0
LINE
8
BLACK
6
CONTINUOUS
10
4.1226377952755904
20
-2.4919291338582679
11
4.1226377952755904
21
-2.3616141732283462
0
LINE
8
BLACK
6
CONTINUOUS
10
4.1226377952755904
20
-2.3616141732283462
11
4.0498031496062987
21
-2.3616141732283462
0
LINE
8
BLACK
6
CONTINUOUS
10
3.9909448818897637
20
-2.359251968503937
11
3.9916408661417324
21
-2.3595402362204725
0
LINE
8
BLACK
6
CONTINUOUS
10
3.9916408661417324
20
-2.3595402362204725
11
3.9919291338582674
21
-2.3602362204724407
0
LINE
8
BLACK
6
CONTINUOUS
10
3.9919291338582674
20
-2.3602362204724407
11
3.9919291338582674
21
-2.4925196850393698
0
LINE
8
BLACK
6
CONTINUOUS
10
3.9919291338582674
20
-2.4925196850393698
11
3.9916408661417324
21
-2.4932156692913385
0
LINE
8
BLACK
6
CONTINUOUS
10
3.9916408661417324
20
-2.4932156692913385
11
3.9909448818897637
21
-2.493503937007874
0
LINE
8
BLACK
6
CONTINUOUS
10
3.9909448818897637
20
-2.493503937007874
11
3.9161417322834646
21
-2.493503937007874
0
LINE
8
BLACK
6
CONTINUOUS
10
3.9161417322834646
20
-2.493503937007874
11
3.9154457480314959
21
-2.4932156692913385
0
LINE
8
BLACK
6
CONTINUOUS
10
3.9154457480314959
20
-2.4932156692913385
11
3.9151574803149605
21
-2.4925196850393698
0
LINE
8
BLACK
6
CONTINUOUS
10
3.9151574803149605
20
-2.4925196850393698
11
3.9151574803149605
21
-2.3602362204724407
0
LINE
8
BLACK
6
CONTINUOUS
10
3.9151574803149605
20
-2.3602362204724407
11
3.9154457480314959
21
-2.3595402362204725
0
LINE
8
BLACK
6
CONTINUOUS
10
3.9154457480314959
20
-2.3595402362204725
11
3.9161417322834646
21
-2.359251968503937
0
LINE
8
BLACK
6
CONTINUOUS
10
3.9161417322834646
20
-2.359251968503937
11
3.9909448818897637
21
-2.359251968503937
0
LINE
8
BLACK
6
CONTINUOUS
10
3.9171259842519683
20
-2.3612204724409449
11
3.9171259842519683
21
-2.4915354330708661
0
LINE
8
BLACK
6
CONTINUOUS
10
3.9171259842519683
20
-2.4915354330708661
11
3.9899606299212595
21
-2.4915354330708661
0
LINE
8
BLACK
6
CONTINUOUS
10
3.9899606299212595
20
-2.4915354330708661
11
3.9899606299212595
21
-2.3612204724409449
0
LINE
8
BLACK
6
CONTINUOUS
10
3.9899606299212595
20
-2.3612204724409449
11
3.9171259842519683
21
-2.3612204724409449
0
LINE
8
BLACK
6
CONTINUOUS
10
4.3447042125984252
20
-2.0805103937007874
11
4.3585237795275589
21
-2.0828584251968505
0
LINE
8
BLACK
6
CONTINUOUS
10
4.3585237795275589
20
-2.0828584251968505
11
4.3719935433070862
21
-2.0867389763779527
0
LINE
8
BLACK
6
CONTINUOUS
10
4.3719935433070862
20
-2.0867389763779527
11
4.3849441338582675
21
-2.0921033070866142
0
LINE
8
BLACK
6
CONTINUOUS
10
4.3849441338582675
20
-2.0921033070866142
11
4.3972126771653546
21
-2.098883897637795
0
LINE
8
BLACK
6
CONTINUOUS
10
4.3972126771653546
20
-2.098883897637795
11
4.4086448818897637
21
-2.106995472440945
0
LINE
8
BLACK
6
CONTINUOUS
10
4.4086448818897637
20
-2.106995472440945
11
4.4190970078740159
21
-2.1163360629921257
0
LINE
8
BLACK
6
CONTINUOUS
10
4.4190970078740159
20
-2.1163360629921257
11
4.4284375984251971
21
-2.126788188976378
0
LINE
8
BLACK
6
CONTINUOUS
10
4.4284375984251971
20
-2.126788188976378
11
4.4365491732283466
21
-2.1382203937007875
0
LINE
8
BLACK
6
CONTINUOUS
10
4.4365491732283466
20
-2.1382203937007875
11
4.443329763779527
21
-2.1504889370078741
0
LINE
8
BLACK
6
CONTINUOUS
10
4.443329763779527
20
-2.1504889370078741
11
4.4486940944881885
21
-2.163439527559055
0
LINE
8
BLACK
6
CONTINUOUS
10
4.4486940944881885
20
-2.163439527559055
11
4.4525746456692916
21
-2.1769092913385828
0
LINE
8
BLACK
6
CONTINUOUS
10
4.4525746456692916
20
-2.1769092913385828
11
4.4549226771653538
21
-2.1907288582677165
0
LINE
8
BLACK
6
CONTINUOUS
10
4.4549226771653538
20
-2.1907288582677165
11
4.4557086614173231
21
-2.204724409448819
0
LINE
8
BLACK
6
CONTINUOUS
10
4.4557086614173231
20
-2.204724409448819
11
4.4549226771653538
21
-2.2187199606299211
0
LINE
8
BLACK
6
CONTINUOUS
10
4.4549226771653538
20
-2.2187199606299211
11
4.4525746456692916
21
-2.2325395275590552
0
LINE
8
BLACK
6
CONTINUOUS
10
4.4525746456692916
20
-2.2325395275590552
11
4.4486940944881885
21
-2.2460092913385825
0
LINE
8
BLACK
6
CONTINUOUS
10
4.4486940944881885
20
-2.2460092913385825
11
4.443329763779527
21
-2.2589598818897638
0
LINE
8
BLACK
6
CONTINUOUS
10
4.443329763779527
20
-2.2589598818897638
11
4.4365491732283466
21
-2.2712284251968504
0
LINE
8
BLACK
6
CONTINUOUS
10
4.4365491732283466
20
-2.2712284251968504
11
4.4284375984251971
21
-2.28266062992126
0
LINE
8
BLACK
6
CONTINUOUS
10
4.4284375984251971
20
-2.28266062992126
11
4.4190970078740159
21
-2.2931127559055118
0
LINE
8
BLACK
6
CONTINUOUS
10
4.4190970078740159
20
-2.2931127559055118
11
4.4086448818897637
21
-2.302453346456693
0
LINE
8
BLACK
6
CONTINUOUS
10
4.4086448818897637
20
-2.302453346456693
11
4.3972126771653546
21
-2.3105649212598425
0
LINE
8
BLACK
6
CONTINUOUS
10
4.3972126771653546
20
-2.3105649212598425
11
4.3849441338582675
21
-2.3173455118110238
0
LINE
8
BLACK
6
CONTINUOUS
10
4.3849441338582675
20
-2.3173455118110238
11
4.3719935433070862
21
-2.3227098425196848
0
LINE
8
BLACK
6
CONTINUOUS
10
4.3719935433070862
20
-2.3227098425196848
11
4.3585237795275589
21
-2.3265903937007875
0
LINE
8
BLACK
6
CONTINUOUS
10
4.3585237795275589
20
-2.3265903937007875
11
4.3447042125984252
21
-2.3289384251968501
0
LINE
8
BLACK
6
CONTINUOUS
10
4.3447042125984252
20
-2.3289384251968501
11
4.3307086614173231
21
-2.329724409448819
0
LINE
8
BLACK
6
CONTINUOUS
10
4.3307086614173231
20
-2.329724409448819
11
4.3167131102362202
21
-2.3289384251968501
0
LINE
8
BLACK
6
CONTINUOUS
10
4.3167131102362202
20
-2.3289384251968501
11
4.3028935433070865
21
-2.3265903937007875
0
LINE
8
BLACK
6
CONTINUOUS
10
4.3028935433070865
20
-2.3265903937007875
11
4.2894237795275592
21
-2.3227098425196848
0
LINE
8
BLACK
6
CONTINUOUS
10
4.2894237795275592
20
-2.3227098425196848
11
4.2764731889763778
21
-2.3173455118110238
0
LINE
8
BLACK
6
CONTINUOUS
10
4.2764731889763778
20
-2.3173455118110238
11
4.2642046456692908
21
-2.3105649212598425
0
LINE
8
BLACK
6
CONTINUOUS
10
4.2642046456692908
20
-2.3105649212598425
11
4.2527724409448817
21
-2.302453346456693
0
LINE
8
BLACK
6
CONTINUOUS
10
4.2527724409448817
20
-2.302453346456693
11
4.2423203149606294
21
-2.2931127559055118
0
LINE
8
BLACK
6
CONTINUOUS
10
4.2423203149606294
20
-2.2931127559055118
11
4.2329797244094491
21
-2.28266062992126
0
LINE
8
BLACK
6
CONTINUOUS
10
4.2329797244094491
20
-2.28266062992126
11
4.2248681496062988
21
-2.2712284251968504
0
LINE
8
BLACK
6
CONTINUOUS
10
4.2248681496062988
20
-2.2712284251968504
11
4.2180875590551183
21
-2.2589598818897638
0
LINE
8
BLACK
6
CONTINUOUS
10
4.2180875590551183
20
-2.2589598818897638
11
4.2127232283464568
21
-2.2460092913385825
0
LINE
8
BLACK
6
CONTINUOUS
10
4.2127232283464568
20
-2.2460092913385825
11
4.2104330708661415
21
-2.2380599212598424
0
LINE
8
BLACK
6
CONTINUOUS
10
4.2104330708661415
20
-2.2380599212598424
11
4.2104330708661415
21
-2.3236220472440943
0
LINE
8
BLACK
6
CONTINUOUS
10
4.2104330708661415
20
-2.3236220472440943
11
4.210144803149606
21
-2.324318031496063
0
LINE
8
BLACK
6
CONTINUOUS
10
4.210144803149606
20
-2.324318031496063
11
4.2094488188976378
21
-2.3246062992125984
0
LINE
8
BLACK
6
CONTINUOUS
10
4.2094488188976378
20
-2.3246062992125984
11
2.1700787401574804
21
-2.3246062992125984
0
LINE
8
BLACK
6
CONTINUOUS
10
2.1700787401574804
20
-2.3246062992125984
11
2.1693827559055117
21
-2.324318031496063
0
LINE
8
BLACK
6
CONTINUOUS
10
2.1693827559055117
20
-2.324318031496063
11
2.1690944881889762
21
-2.3236220472440943
0
LINE
8
BLACK
6
CONTINUOUS
10
2.1690944881889762
20
-2.3236220472440943
11
2.1690944881889762
21
-2.232593622047244
0
LINE
8
BLACK
6
CONTINUOUS
10
2.1690944881889762
20
-2.232593622047244
11
2.1652295275590552
21
-2.2460092913385825
0
LINE
8
BLACK
6
CONTINUOUS
10
2.1652295275590552
20
-2.2460092913385825
11
2.1598651968503937
21
-2.2589598818897638
0
LINE
8
BLACK
6
CONTINUOUS
10
2.1598651968503937
20
-2.2589598818897638
11
2.1530846062992124
21
-2.2712284251968504
0
LINE
8
BLACK
6
CONTINUOUS
10
2.1530846062992124
20
-2.2712284251968504
11
2.1449730314960629
21
-2.28266062992126
0
LINE
8
BLACK
6
CONTINUOUS
10
2.1449730314960629
20
-2.28266062992126
11
2.1356324409448817
21
-2.2931127559055118
0
LINE
8
BLACK
6
CONTINUOUS
10
2.1356324409448817
20
-2.2931127559055118
11
2.1251803149606299
21
-2.302453346456693
0
LINE
8
BLACK
6
CONTINUOUS
10
2.1251803149606299
20
-2.302453346456693
11
2.1137481102362203
21
-2.3105649212598425
0
LINE
8
BLACK
6
CONTINUOUS
10
2.1137481102362203
20
-2.3105649212598425
11
2.1014795669291337
21
-2.3173455118110238
0
LINE
8
BLACK
6
CONTINUOUS
10
2.1014795669291337
20
-2.3173455118110238
11
2.0885289763779529
21
-2.3227098425196848
0
LINE
8
BLACK
6
CONTINUOUS
10
2.0885289763779529
20
-2.3227098425196848
11
2.0750592125984251
21
-2.3265903937007875
0
LINE
8
BLACK
6
CONTINUOUS
10
2.0750592125984251
20
-2.3265903937007875
11
2.0612396456692914
21
-2.3289384251968501
0
LINE
8
BLACK
6
CONTINUOUS
10
2.0612396456692914
20
-2.3289384251968501
11
2.0472440944881889
21
-2.329724409448819
0
LINE
8
BLACK
6
CONTINUOUS
10
2.0472440944881889
20
-2.329724409448819
11
2.0332485433070864
21
-2.3289384251968501
0
LINE
8
BLACK
6
CONTINUOUS
10
2.0332485433070864
20
-2.3289384251968501
11
2.0194289763779527
21
-2.3265903937007875
0
LINE
8
BLACK
6
CONTINUOUS
10
2.0194289763779527
20
-2.3265903937007875
11
2.0059592125984254
21
-2.3227098425196848
0
LINE
8
BLACK
6
CONTINUOUS
10
2.0059592125984254
20
-2.3227098425196848
11
1.993008622047244
21
-2.3173455118110238
0
LINE
8
BLACK
6
CONTINUOUS
10
1.993008622047244
20
-2.3173455118110238
11
1.9807400787401575
21
-2.3105649212598425
0
LINE
8
BLACK
6
CONTINUOUS
10
1.9807400787401575
20
-2.3105649212598425
11
1.9693078740157479
21
-2.302453346456693
0
LINE
8
BLACK
6
CONTINUOUS
10
1.9693078740157479
20
-2.302453346456693
11
1.9588557480314961
21
-2.2931127559055118
0
LINE
8
BLACK
6
CONTINUOUS
10
1.9588557480314961
20
-2.2931127559055118
11
1.9495151574803149
21
-2.28266062992126
0
LINE
8
BLACK
6
CONTINUOUS
10
1.9495151574803149
20
-2.28266062992126
11
1.9414035826771654
21
-2.2712284251968504
0
LINE
8
BLACK
6
CONTINUOUS
10
1.9414035826771654
20
-2.2712284251968504
11
1.9346229921259841
21
-2.2589598818897638
0
LINE
8
BLACK
6
CONTINUOUS
10
1.9346229921259841
20
-2.2589598818897638
11
1.9292586614173228
21
-2.2460092913385825
0
LINE
8
BLACK
6
CONTINUOUS
10
1.9292586614173228
20
-2.2460092913385825
11
1.9253781102362204
21
-2.2325395275590552
0
LINE
8
BLACK
6
CONTINUOUS
10
1.9253781102362204
20
-2.2325395275590552
11
1.9230300787401575
21
-2.2187199606299211
0
LINE
8
BLACK
6
CONTINUOUS
10
1.9230300787401575
20
-2.2187199606299211
11
1.9222440944881889
21
-2.204724409448819
0
LINE
8
BLACK
6
CONTINUOUS
10
1.9222440944881889
20
-2.204724409448819
11
1.9230300787401575
21
-2.1907288582677165
0
LINE
8
BLACK
6
CONTINUOUS
10
1.9230300787401575
20
-2.1907288582677165
11
1.9253781102362204
21
-2.1769092913385828
0
LINE
8
BLACK
6
CONTINUOUS
10
1.9253781102362204
20
-2.1769092913385828
11
1.9292586614173228
21
-2.163439527559055
0
LINE
8
BLACK
6
CONTINUOUS
10
1.9292586614173228
20
-2.163439527559055
11
1.9346229921259841
21
-2.1504889370078741
0
LINE
8
BLACK
6
CONTINUOUS
10
1.9346229921259841
20
-2.1504889370078741
11
1.9414035826771654
21
-2.1382203937007875
0
LINE
8
BLACK
6
CONTINUOUS
10
1.9414035826771654
20
-2.1382203937007875
11
1.9495151574803149
21
-2.126788188976378
0
LINE
8
BLACK
6
CONTINUOUS
10
1.9495151574803149
20
-2.126788188976378
11
1.9588557480314961
21
-2.1163360629921257
0
LINE
8
BLACK
6
CONTINUOUS
10
1.9588557480314961
20
-2.1163360629921257
11
1.9693078740157479
21
-2.106995472440945
0
LINE
8
BLACK
6
CONTINUOUS
10
1.9693078740157479
20
-2.106995472440945
11
1.9807400787401575
21
-2.098883897637795
0
LINE
8
BLACK
6
CONTINUOUS
10
1.9807400787401575
20
-2.098883897637795
11
1.993008622047244
21
-2.0921033070866142
0
LINE
8
BLACK
6
CONTINUOUS
10
1.993008622047244
20
-2.0921033070866142
11
2.0059592125984254
21
-2.0867389763779527
0
LINE
8
BLACK
6
CONTINUOUS
10
2.0059592125984254
20
-2.0867389763779527
11
2.0194289763779527
21
-2.0828584251968505
0
LINE
8
BLACK
6
CONTINUOUS
10
2.0194289763779527
20
-2.0828584251968505
11
2.0332485433070864
21
-2.0805103937007874
0
LINE
8
BLACK
6
CONTINUOUS
10
2.0332485433070864
20
-2.0805103937007874
11
2.0472440944881889
21
-2.079724409448819
0
LINE
8
BLACK
6
CONTINUOUS
10
2.0472440944881889
20
-2.079724409448819
11
2.0612396456692914
21
-2.0805103937007874
0
LINE
8
BLACK
6
CONTINUOUS
10
2.0612396456692914
20
-2.0805103937007874
11
2.0750592125984251
21
-2.0828584251968505
0
LINE
8
BLACK
6
CONTINUOUS
10
2.0750592125984251
20
-2.0828584251968505
11
2.0885289763779529
21
-2.0867389763779527
0
LINE
8
BLACK
6
CONTINUOUS
10
2.0885289763779529
20
-2.0867389763779527
11
2.1014795669291337
21
-2.0921033070866142
0
LINE
8
BLACK
6
CONTINUOUS
10
2.1014795669291337
20
-2.0921033070866142
11
2.1137481102362203
21
-2.098883897637795
0
LINE
8
BLACK
6
CONTINUOUS
10
2.1137481102362203
20
-2.098883897637795
11
2.1251803149606299
21
-2.106995472440945
0
LINE
8
BLACK
6
CONTINUOUS
10
2.1251803149606299
20
-2.106995472440945
11
2.1356324409448817
21
-2.1163360629921257
0
LINE
8
BLACK
6
CONTINUOUS
10
2.1356324409448817
20
-2.1163360629921257
11
2.1449730314960629
21
-2.126788188976378
0
LINE
8
BLACK
6
CONTINUOUS
10
2.1449730314960629
20
-2.126788188976378
11
2.1530846062992124
21
-2.1382203937007875
0
LINE
8
BLACK
6
CONTINUOUS
10
2.1530846062992124
20
-2.1382203937007875
11
2.1598651968503937
21
-2.1504889370078741
0
LINE
8
BLACK
6
CONTINUOUS
10
2.1598651968503937
20
-2.1504889370078741
11
2.1652295275590552
21
-2.163439527559055
0
LINE
8
BLACK
6
CONTINUOUS
10
2.1652295275590552
20
-2.163439527559055
11
2.1690944881889762
21
-2.1768551574803148
0
LINE
8
BLACK
6
CONTINUOUS
10
2.1690944881889762
20
-2.1768551574803148
11
2.1690944881889762
21
-2.0854330708661415
0
LINE
8
BLACK
6
CONTINUOUS
10
2.1690944881889762
20
-2.0854330708661415
11
2.1693827559055117
21
-2.0847370866141732
0
LINE
8
BLACK
6
CONTINUOUS
10
2.1693827559055117
20
-2.0847370866141732
11
2.1700787401574804
21
-2.0844488188976378
0
LINE
8
BLACK
6
CONTINUOUS
10
2.1700787401574804
20
-2.0844488188976378
11
4.2094488188976378
21
-2.0844488188976378
0
LINE
8
BLACK
6
CONTINUOUS
10
4.2094488188976378
20
-2.0844488188976378
11
4.210144803149606
21
-2.0847370866141732
0
LINE
8
BLACK
6
CONTINUOUS
10
4.210144803149606
20
-2.0847370866141732
11
4.2104330708661415
21
-2.0854330708661415
0
LINE
8
BLACK
6
CONTINUOUS
10
4.2104330708661415
20
-2.0854330708661415
11
4.2104330708661415
21
-2.1713888582677163
0
LINE
8
BLACK
6
CONTINUOUS
10
4.2104330708661415
20
-2.1713888582677163
11
4.2127232283464568
21
-2.163439527559055
0
LINE
8
BLACK
6
CONTINUOUS
10
4.2127232283464568
20
-2.163439527559055
11
4.2180875590551183
21
-2.1504889370078741
0
LINE
8
BLACK
6
CONTINUOUS
10
4.2180875590551183
20
-2.1504889370078741
11
4.2248681496062988
21
-2.1382203937007875
0
LINE
8
BLACK
6
CONTINUOUS
10
4.2248681496062988
20
-2.1382203937007875
11
4.2329797244094491
21
-2.126788188976378
0
LINE
8
BLACK
6
CONTINUOUS
10
4.2329797244094491
20
-2.126788188976378
11
4.2423203149606294
21
-2.1163360629921257
0
LINE
8
BLACK
6
CONTINUOUS
10
4.2423203149606294
20
-2.1163360629921257
11
4.2527724409448817
21
-2.106995472440945
0
LINE
8
BLACK
6
CONTINUOUS
10
4.2527724409448817
20
-2.106995472440945
11
4.2642046456692908
21
-2.098883897637795
0
LINE
8
BLACK
6
CONTINUOUS
10
4.2642046456692908
20
-2.098883897637795
11
4.2764731889763778
21
-2.0921033070866142
0
LINE
8
BLACK
6
CONTINUOUS
10
4.2764731889763778
20
-2.0921033070866142
11
4.2894237795275592
21
-2.0867389763779527
0
LINE
8
BLACK
6
CONTINUOUS
10
4.2894237795275592
20
-2.0867389763779527
11
4.3028935433070865
21
-2.0828584251968505
0
LINE
8
BLACK
6
CONTINUOUS
10
4.3028935433070865
20
-2.0828584251968505
11
4.3167131102362202
21
-2.0805103937007874
0
LINE
8
BLACK
6
CONTINUOUS
10
4.3167131102362202
20
-2.0805103937007874
11
4.3307086614173231
21
-2.079724409448819
0
LINE
8
BLACK
6
CONTINUOUS
10
4.3307086614173231
20
-2.079724409448819
11
4.3447042125984252
21
-2.0805103937007874
0
LINE
8
BLACK
6
CONTINUOUS
10
4.3173533070866137
20
-2.0861923228346457
11
4.3041659055118107
21
-2.0884329527559053
0
LINE
8
BLACK
6
CONTINUOUS
10
4.3041659055118107
20
-2.0884329527559053
11
4.2913122834645669
21
-2.0921359842519687
0
LINE
8
BLACK
6
CONTINUOUS
10
4.2913122834645669
20
-2.0921359842519687
11
4.2789540944881885
21
-2.0972549212598426
0
LINE
8
BLACK
6
CONTINUOUS
10
4.2789540944881885
20
-2.0972549212598426
11
4.2672467322834642
21
-2.1037253543307086
0
LINE
8
BLACK
6
CONTINUOUS
10
4.2672467322834642
20
-2.1037253543307086
11
4.2563374803149605
21
-2.1114659055118108
0
LINE
8
BLACK
6
CONTINUOUS
10
4.2563374803149605
20
-2.1114659055118108
11
4.2463634645669295
21
-2.1203792125984253
0
LINE
8
BLACK
6
CONTINUOUS
10
4.2463634645669295
20
-2.1203792125984253
11
4.2374501574803149
21
-2.1303532283464568
0
LINE
8
BLACK
6
CONTINUOUS
10
4.2374501574803149
20
-2.1303532283464568
11
4.2297096062992123
21
-2.1412624803149605
0
LINE
8
BLACK
6
CONTINUOUS
10
4.2297096062992123
20
-2.1412624803149605
11
4.2232391732283467
21
-2.1529698425196848
0
LINE
8
BLACK
6
CONTINUOUS
10
4.2232391732283467
20
-2.1529698425196848
11
4.2181202362204724
21
-2.1653280314960628
0
LINE
8
BLACK
6
CONTINUOUS
10
4.2181202362204724
20
-2.1653280314960628
11
4.2144172047244091
21
-2.178181653543307
0
LINE
8
BLACK
6
CONTINUOUS
10
4.2144172047244091
20
-2.178181653543307
11
4.2121765748031494
21
-2.19136905511811
0
LINE
8
BLACK
6
CONTINUOUS
10
4.2121765748031494
20
-2.19136905511811
11
4.2114265354330707
21
-2.204724409448819
0
LINE
8
BLACK
6
CONTINUOUS
10
4.2114265354330707
20
-2.204724409448819
11
4.2121765748031494
21
-2.2180797637795275
0
LINE
8
BLACK
6
CONTINUOUS
10
4.2121765748031494
20
-2.2180797637795275
11
4.2144172047244091
21
-2.2312671653543306
0
LINE
8
BLACK
6
CONTINUOUS
10
4.2144172047244091
20
-2.2312671653543306
11
4.2181202362204724
21
-2.2441207874015747
0
LINE
8
BLACK
6
CONTINUOUS
10
4.2181202362204724
20
-2.2441207874015747
11
4.2232391732283467
21
-2.2564789763779527
0
LINE
8
BLACK
6
CONTINUOUS
10
4.2232391732283467
20
-2.2564789763779527
11
4.2297096062992123
21
-2.268186338582677
0
LINE
8
BLACK
6
CONTINUOUS
10
4.2297096062992123
20
-2.268186338582677
11
4.2374501574803149
21
-2.2790955905511812
0
LINE
8
BLACK
6
CONTINUOUS
10
4.2374501574803149
20
-2.2790955905511812
11
4.2463634645669295
21
-2.2890696062992126
0
LINE
8
BLACK
6
CONTINUOUS
10
4.2463634645669295
20
-2.2890696062992126
11
4.2563374803149605
21
-2.2979829133858267
0
LINE
8
BLACK
6
CONTINUOUS
10
4.2563374803149605
20
-2.2979829133858267
11
4.2672467322834642
21
-2.3057234645669289
0
LINE
8
BLACK
6
CONTINUOUS
10
4.2672467322834642
20
-2.3057234645669289
11
4.2789540944881885
21
-2.3121938976377954
0
LINE
8
BLACK
6
CONTINUOUS
10
4.2789540944881885
20
-2.3121938976377954
11
4.2913122834645669
21
-2.3173128346456693
0
LINE
8
BLACK
6
CONTINUOUS
10
4.2913122834645669
20
-2.3173128346456693
11
4.3041659055118107
21
-2.3210158661417322
0
LINE
8
BLACK
6
CONTINUOUS
10
4.3041659055118107
20
-2.3210158661417322
11
4.3173533070866137
21
-2.3232564960629922
0
LINE
8
BLACK
6
CONTINUOUS
10
4.3173533070866137
20
-2.3232564960629922
11
4.3307086614173231
21
-2.324006535433071
0
LINE
8
BLACK
6
CONTINUOUS
10
4.3307086614173231
20
-2.324006535433071
11
4.3440640157480317
21
-2.3232564960629922
0
LINE
8
BLACK
6
CONTINUOUS
10
4.3440640157480317
20
-2.3232564960629922
11
4.3572514173228347
21
-2.3210158661417322
0
LINE
8
BLACK
6
CONTINUOUS
10
4.3572514173228347
20
-2.3210158661417322
11
4.3701050393700784
21
-2.3173128346456693
0
LINE
8
BLACK
6
CONTINUOUS
10
4.3701050393700784
20
-2.3173128346456693
11
4.3824632283464569
21
-2.3121938976377954
0
LINE
8
BLACK
6
CONTINUOUS
10
4.3824632283464569
20
-2.3121938976377954
11
4.3941705905511812
21
-2.3057234645669289
0
LINE
8
BLACK
6
CONTINUOUS
10
4.3941705905511812
20
-2.3057234645669289
11
4.4050798425196849
21
-2.2979829133858267
0
LINE
8
BLACK
6
CONTINUOUS
10
4.4050798425196849
20
-2.2979829133858267
11
4.4150538582677168
21
-2.2890696062992126
0
LINE
8
BLACK
6
CONTINUOUS
10
4.4150538582677168
20
-2.2890696062992126
11
4.4239671653543304
21
-2.2790955905511812
0
LINE
8
BLACK
6
CONTINUOUS
10
4.4239671653543304
20
-2.2790955905511812
11
4.4317077165354331
21
-2.268186338582677
0
LINE
8
BLACK
6
CONTINUOUS
10
4.4317077165354331
20
-2.268186338582677
11
4.4381781496062995
21
-2.2564789763779527
0
LINE
8
BLACK
6
CONTINUOUS
10
4.4381781496062995
20
-2.2564789763779527
11
4.443297086614173
21
-2.2441207874015747
0
LINE
8
BLACK
6
CONTINUOUS
10
4.443297086614173
20
-2.2441207874015747
11
4.4470001181102363
21
-2.2312671653543306
0
LINE
8
BLACK
6
CONTINUOUS
10
4.4470001181102363
20
-2.2312671653543306
11
4.4492407480314959
21
-2.2180797637795275
0
LINE
8
BLACK
6
CONTINUOUS
10
4.4492407480314959
20
-2.2180797637795275
11
4.4499907874015747
21
-2.204724409448819
0
LINE
8
BLACK
6
CONTINUOUS
10
4.4499907874015747
20
-2.204724409448819
11
4.4492407480314959
21
-2.19136905511811
0
LINE
8
BLACK
6
CONTINUOUS
10
4.4492407480314959
20
-2.19136905511811
11
4.4470001181102363
21
-2.178181653543307
0
LINE
8
BLACK
6
CONTINUOUS
10
4.4470001181102363
20
-2.178181653543307
11
4.443297086614173
21
-2.1653280314960628
0
LINE
8
BLACK
6
CONTINUOUS
10
4.443297086614173
20
-2.1653280314960628
11
4.4381781496062995
21
-2.1529698425196848
0
LINE
8
BLACK
6
CONTINUOUS
10
4.4381781496062995
20
-2.1529698425196848
11
4.4317077165354331
21
-2.1412624803149605
0
LINE
8
BLACK
6
CONTINUOUS
10
4.4317077165354331
20
-2.1412624803149605
11
4.4239671653543304
21
-2.1303532283464568
0
LINE
8
BLACK
6
CONTINUOUS
10
4.4239671653543304
20
-2.1303532283464568
11
4.4150538582677168
21
-2.1203792125984253
0
LINE
8
BLACK
6
CONTINUOUS
10
4.4150538582677168
20
-2.1203792125984253
11
4.4050798425196849
21
-2.1114659055118108
0
LINE
8
BLACK
6
CONTINUOUS
10
4.4050798425196849
20
-2.1114659055118108
11
4.3941705905511812
21
-2.1037253543307086
0
LINE
8
BLACK
6
CONTINUOUS
10
4.3941705905511812
20
-2.1037253543307086
11
4.3824632283464569
21
-2.0972549212598426
0
LINE
8
BLACK
6
CONTINUOUS
10
4.3824632283464569
20
-2.0972549212598426
11
4.3701050393700784
21
-2.0921359842519687
0
LINE
8
BLACK
6
CONTINUOUS
10
4.3701050393700784
20
-2.0921359842519687
11
4.3572514173228347
21
-2.0884329527559053
0
LINE
8
BLACK
6
CONTINUOUS
10
4.3572514173228347
20
-2.0884329527559053
11
4.3440640157480317
21
-2.0861923228346457
0
LINE
8
BLACK
6
CONTINUOUS
10
4.3440640157480317
20
-2.0861923228346457
11
4.3307086614173231
21
-2.0854422834645669
0
LINE
8
BLACK
6
CONTINUOUS
10
4.3307086614173231
20
-2.0854422834645669
11
4.3173533070866137
21
-2.0861923228346457
0
LINE
8
BLACK
6
CONTINUOUS
10
2.1710629921259841
20
-2.0864173228346456
11
2.1710629921259841
21
-2.1884033464566928
0
LINE
8
BLACK
6
CONTINUOUS
10
2.1710629921259841
20
-2.1884033464566928
11
2.1714581102362205
21
-2.1907288582677165
0
LINE
8
BLACK
6
CONTINUOUS
10
2.1714581102362205
20
-2.1907288582677165
11
2.1722440944881889
21
-2.204724409448819
0
LINE
8
BLACK
6
CONTINUOUS
10
2.1722440944881889
20
-2.204724409448819
11
2.1714581102362205
21
-2.2187199606299211
0
LINE
8
BLACK
6
CONTINUOUS
10
2.1714581102362205
20
-2.2187199606299211
11
2.1710629921259841
21
-2.221045433070866
0
LINE
8
BLACK
6
CONTINUOUS
10
2.1710629921259841
20
-2.221045433070866
11
2.1710629921259841
21
-2.3226377952755906
0
LINE
8
BLACK
6
CONTINUOUS
10
2.1710629921259841
20
-2.3226377952755906
11
4.2084645669291341
21
-2.3226377952755906
0
LINE
8
BLACK
6
CONTINUOUS
10
4.2084645669291341
20
-2.3226377952755906
11
4.2084645669291341
21
-2.2303140944881887
0
LINE
8
BLACK
6
CONTINUOUS
10
4.2084645669291341
20
-2.2303140944881887
11
4.2064946456692915
21
-2.2187199606299211
0
LINE
8
BLACK
6
CONTINUOUS
10
4.2064946456692915
20
-2.2187199606299211
11
4.2057086614173231
21
-2.204724409448819
0
LINE
8
BLACK
6
CONTINUOUS
10
4.2057086614173231
20
-2.204724409448819
11
4.2064946456692915
21
-2.1907288582677165
0
LINE
8
BLACK
6
CONTINUOUS
10
4.2064946456692915
20
-2.1907288582677165
11
4.2084645669291341
21
-2.17913468503937
0
LINE
8
BLACK
6
CONTINUOUS
10
4.2084645669291341
20
-2.17913468503937
11
4.2084645669291341
21
-2.0864173228346456
0
LINE
8
BLACK
6
CONTINUOUS
10
4.2084645669291341
20
-2.0864173228346456
11
2.1710629921259841
21
-2.0864173228346456
0
LINE
8
BLACK
6
CONTINUOUS
10
1.9287120078740156
20
-2.2180797637795275
11
1.9309526377952755
21
-2.2312671653543306
0
LINE
8
BLACK
6
CONTINUOUS
10
1.9309526377952755
20
-2.2312671653543306
11
1.9346556692913386
21
-2.2441207874015747
0
LINE
8
BLACK
6
CONTINUOUS
10
1.9346556692913386
20
-2.2441207874015747
11
1.9397746062992125
21
-2.2564789763779527
0
LINE
8
BLACK
6
CONTINUOUS
10
1.9397746062992125
20
-2.2564789763779527
11
1.9462450393700788
21
-2.268186338582677
0
LINE
8
BLACK
6
CONTINUOUS
10
1.9462450393700788
20
-2.268186338582677
11
1.9539855905511812
21
-2.2790955905511812
0
LINE
8
BLACK
6
CONTINUOUS
10
1.9539855905511812
20
-2.2790955905511812
11
1.9628988976377952
21
-2.2890696062992126
0
LINE
8
BLACK
6
CONTINUOUS
10
1.9628988976377952
20
-2.2890696062992126
11
1.9728729133858267
21
-2.2979829133858267
0
LINE
8
BLACK
6
CONTINUOUS
10
1.9728729133858267
20
-2.2979829133858267
11
1.9837821653543306
21
-2.3057234645669289
0
LINE
8
BLACK
6
CONTINUOUS
10
1.9837821653543306
20
-2.3057234645669289
11
1.9954895275590552
21
-2.3121938976377954
0
LINE
8
BLACK
6
CONTINUOUS
10
1.9954895275590552
20
-2.3121938976377954
11
2.0078477165354331
21
-2.3173128346456693
0
LINE
8
BLACK
6
CONTINUOUS
10
2.0078477165354331
20
-2.3173128346456693
11
2.0207013385826773
21
-2.3210158661417322
0
LINE
8
BLACK
6
CONTINUOUS
10
2.0207013385826773
20
-2.3210158661417322
11
2.0338887401574803
21
-2.3232564960629922
0
LINE
8
BLACK
6
CONTINUOUS
10
2.0338887401574803
20
-2.3232564960629922
11
2.0472440944881889
21
-2.324006535433071
0
LINE
8
BLACK
6
CONTINUOUS
10
2.0472440944881889
20
-2.324006535433071
11
2.0605994488188975
21
-2.3232564960629922
0
LINE
8
BLACK
6
CONTINUOUS
10
2.0605994488188975
20
-2.3232564960629922
11
2.0737868503937009
21
-2.3210158661417322
0
LINE
8
BLACK
6
CONTINUOUS
10
2.0737868503937009
20
-2.3210158661417322
11
2.0866404724409446
21
-2.3173128346456693
0
LINE
8
BLACK
6
CONTINUOUS
10
2.0866404724409446
20
-2.3173128346456693
11
2.0989986614173226
21
-2.3121938976377954
0
LINE
8
BLACK
6
CONTINUOUS
10
2.0989986614173226
20
-2.3121938976377954
11
2.1107060236220474
21
-2.3057234645669289
0
LINE
8
BLACK
6
CONTINUOUS
10
2.1107060236220474
20
-2.3057234645669289
11
2.1216152755905511
21
-2.2979829133858267
0
LINE
8
BLACK
6
CONTINUOUS
10
2.1216152755905511
20
-2.2979829133858267
11
2.1315892913385825
21
-2.2890696062992126
0
LINE
8
BLACK
6
CONTINUOUS
10
2.1315892913385825
20
-2.2890696062992126
11
2.1405025984251966
21
-2.2790955905511812
0
LINE
8
BLACK
6
CONTINUOUS
10
2.1405025984251966
20
-2.2790955905511812
11
2.1482431496062993
21
-2.268186338582677
0
LINE
8
BLACK
6
CONTINUOUS
10
2.1482431496062993
20
-2.268186338582677
11
2.1547135826771653
21
-2.2564789763779527
0
LINE
8
BLACK
6
CONTINUOUS
10
2.1547135826771653
20
-2.2564789763779527
11
2.1598325196850392
21
-2.2441207874015747
0
LINE
8
BLACK
6
CONTINUOUS
10
2.1598325196850392
20
-2.2441207874015747
11
2.1635355511811025
21
-2.2312671653543306
0
LINE
8
BLACK
6
CONTINUOUS
10
2.1635355511811025
20
-2.2312671653543306
11
2.1657761811023621
21
-2.2180797637795275
0
LINE
8
BLACK
6
CONTINUOUS
10
2.1657761811023621
20
-2.2180797637795275
11
2.1665262204724409
21
-2.204724409448819
0
LINE
8
BLACK
6
CONTINUOUS
10
2.1665262204724409
20
-2.204724409448819
11
2.1657761811023621
21
-2.19136905511811
0
LINE
8
BLACK
6
CONTINUOUS
10
2.1657761811023621
20
-2.19136905511811
11
2.1635355511811025
21
-2.178181653543307
0
LINE
8
BLACK
6
CONTINUOUS
10
2.1635355511811025
20
-2.178181653543307
11
2.1598325196850392
21
-2.1653280314960628
0
LINE
8
BLACK
6
CONTINUOUS
10
2.1598325196850392
20
-2.1653280314960628
11
2.1547135826771653
21
-2.1529698425196848
0
LINE
8
BLACK
6
CONTINUOUS
10
2.1547135826771653
20
-2.1529698425196848
11
2.1482431496062993
21
-2.1412624803149605
0
LINE
8
BLACK
6
CONTINUOUS
10
2.1482431496062993
20
-2.1412624803149605
11
2.1405025984251966
21
-2.1303532283464568
0
LINE
8
BLACK
6
CONTINUOUS
10
2.1405025984251966
20
-2.1303532283464568
11
2.1315892913385825
21
-2.1203792125984253
0
LINE
8
BLACK
6
CONTINUOUS
10
2.1315892913385825
20
-2.1203792125984253
11
2.1216152755905511
21
-2.1114659055118108
0
LINE
8
BLACK
6
CONTINUOUS
10
2.1216152755905511
20
-2.1114659055118108
11
2.1107060236220474
21
-2.1037253543307086
0
LINE
8
BLACK
6
CONTINUOUS
10
2.1107060236220474
20
-2.1037253543307086
11
2.0989986614173226
21
-2.0972549212598426
0
LINE
8
BLACK
6
CONTINUOUS
10
2.0989986614173226
20
-2.0972549212598426
11
2.0866404724409446
21
-2.0921359842519687
0
LINE
8
BLACK
6
CONTINUOUS
10
2.0866404724409446
20
-2.0921359842519687
11
2.0737868503937009
21
-2.0884329527559053
0
LINE
8
BLACK
6
CONTINUOUS
10
2.0737868503937009
20
-2.0884329527559053
11
2.0605994488188975
21
-2.0861923228346457
0
LINE
8
BLACK
6
CONTINUOUS
10
2.0605994488188975
20
-2.0861923228346457
11
2.0472440944881889
21
-2.0854422834645669
0
LINE
8
BLACK
6
CONTINUOUS
10
2.0472440944881889
20
-2.0854422834645669
11
2.0338887401574803
21
-2.0861923228346457
0
LINE
8
BLACK
6
CONTINUOUS
10
2.0338887401574803
20
-2.0861923228346457
11
2.0207013385826773
21
-2.0884329527559053
0
LINE
8
BLACK
6
CONTINUOUS
10
2.0207013385826773
20
-2.0884329527559053
11
2.0078477165354331
21
-2.0921359842519687
0
LINE
8
BLACK
6
CONTINUOUS
10
2.0078477165354331
20
-2.0921359842519687
11
1.9954895275590552
21
-2.0972549212598426
0
LINE
8
BLACK
6
CONTINUOUS
10
1.9954895275590552
20
-2.0972549212598426
11
1.9837821653543306
21
-2.1037253543307086
0
LINE
8
BLACK
6
CONTINUOUS
10
1.9837821653543306
20
-2.1037253543307086
11
1.9728729133858267
21
-2.1114659055118108
0
LINE
8
BLACK
6
CONTINUOUS
10
1.9728729133858267
20
-2.1114659055118108
11
1.9628988976377952
21
-2.1203792125984253
0
LINE
8
BLACK
6
CONTINUOUS
10
1.9628988976377952
20
-2.1203792125984253
11
1.9539855905511812
21
-2.1303532283464568
0
LINE
8
BLACK
6
CONTINUOUS
10
1.9539855905511812
20
-2.1303532283464568
11
1.9462450393700788
21
-2.1412624803149605
0
LINE
8
BLACK
6
CONTINUOUS
10
1.9462450393700788
20
-2.1412624803149605
11
1.9397746062992125
21
-2.1529698425196848
0
LINE
8
BLACK
6
CONTINUOUS
10
1.9397746062992125
20
-2.1529698425196848
11
1.9346556692913386
21
-2.1653280314960628
0
LINE
8
BLACK
6
CONTINUOUS
10
1.9346556692913386
20
-2.1653280314960628
11
1.9309526377952755
21
-2.178181653543307
0
LINE
8
BLACK
6
CONTINUOUS
10
1.9309526377952755
20
-2.178181653543307
11
1.9287120078740156
21
-2.19136905511811
0
LINE
8
BLACK
6
CONTINUOUS
10
1.9287120078740156
20
-2.19136905511811
11
1.9279619685039369
21
-2.204724409448819
0
LINE
8
BLACK
6
CONTINUOUS
10
1.9279619685039369
20
-2.204724409448819
11
1.9287120078740156
21
-2.2180797637795275
  0
ENDSEC
  0
EOF
