  0
SECTION
  2
HEADER
  9
$ANGBASE
  50
0.0
  9
$ANGDIR
  70
1
  9
$MEASUREMENT
  70
0
  0
ENDSEC
  0
SECTION
  2
TABLES
  0
TABLE
  2
LTYPE
  70
4
  0
LTYPE
  5
40F
  2
CONTINUOUS
  70
0
  3
Solid line
  72
65
  73
0
  40
0.0
  0
LTYPE
  5
410
  2
DASHDOT
 70
0
  3
Dash Dot ____ _ ____ _
 72
65
 73
4
 40
2.0
 49
1.25
 49
-0.25
 49
0.25
 49
-0.25
  0
LTYPE
  5
411
  2
DASHED
 70
0
  3
Dashed __ __ __ __ __
 72
65
 73
2
 40
0.75
 49
0.5
 49
-0.25
  0
LTYPE
  5
43B
  2
DOTTED
 70
0
  3
Dotted .  .  .  .
 72
65
 73
2
 40
0.2
 49
0.0
 49
-0.2
  0
ENDTAB
  0
TABLE
  2
STYLE
  70
4
  0
STYLE
  2
KICAD
  70
0
  40
0
  41
1
  42
1
  50
0
  71
0
  3
isocp.shx
  0
STYLE
  2
KICADB
  70
0
  40
0
  41
1
  42
1
  50
0
  71
0
  3
isocp.shx
  0
STYLE
  2
KICADI
  70
0
  40
0
  41
1
  42
1
  50
15
  71
0
  3
isocp.shx
  0
STYLE
  2
KICADBI
  70
0
  40
0
  41
1
  42
1
  50
15
  71
0
  3
isocp.shx
  0
ENDTAB
  0
TABLE
  2
LAYER
  70
1
  0
LAYER
  2
BLACK
  70
0
  62
7
  6
CONTINUOUS
  0
ENDTAB
  0
ENDSEC
  0
SECTION
  2
ENTITIES
0
LINE
8
BLACK
6
CONTINUOUS
10
2.0612396456692914
20
-4.0096442519685036
11
2.0750592125984251
21
-4.0119922834645667
0
LINE
8
BLACK
6
CONTINUOUS
10
2.0750592125984251
20
-4.0119922834645667
11
2.0885289763779529
21
-4.0158728346456689
0
LINE
8
BLACK
6
CONTINUOUS
10
2.0885289763779529
20
-4.0158728346456689
11
2.1014795669291337
21
-4.0212371653543304
0
LINE
8
BLACK
6
CONTINUOUS
10
2.1014795669291337
20
-4.0212371653543304
11
2.1137481102362203
21
-4.0280177559055117
0
LINE
8
BLACK
6
CONTINUOUS
10
2.1137481102362203
20
-4.0280177559055117
11
2.1251803149606299
21
-4.0361293307086612
0
LINE
8
BLACK
6
CONTINUOUS
10
2.1251803149606299
20
-4.0361293307086612
11
2.1356324409448817
21
-4.0454699212598424
0
LINE
8
BLACK
6
CONTINUOUS
10
2.1356324409448817
20
-4.0454699212598424
11
2.1449730314960629
21
-4.0559220472440947
0
LINE
8
BLACK
6
CONTINUOUS
10
2.1449730314960629
20
-4.0559220472440947
11
2.1530846062992124
21
-4.0673542519685038
0
LINE
8
BLACK
6
CONTINUOUS
10
2.1530846062992124
20
-4.0673542519685038
11
2.1598651968503937
21
-4.0796227952755908
0
LINE
8
BLACK
6
CONTINUOUS
10
2.1598651968503937
20
-4.0796227952755908
11
2.1652295275590552
21
-4.0925733858267712
0
LINE
8
BLACK
6
CONTINUOUS
10
2.1652295275590552
20
-4.0925733858267712
11
2.1691100787401574
21
-4.1060431496062995
0
LINE
8
BLACK
6
CONTINUOUS
10
2.1691100787401574
20
-4.1060431496062995
11
2.1714581102362205
21
-4.1198627165354331
0
LINE
8
BLACK
6
CONTINUOUS
10
2.1714581102362205
20
-4.1198627165354331
11
2.1722440944881889
21
-4.1338582677165352
0
LINE
8
BLACK
6
CONTINUOUS
10
2.1722440944881889
20
-4.1338582677165352
11
2.1714581102362205
21
-4.1478538188976373
0
LINE
8
BLACK
6
CONTINUOUS
10
2.1714581102362205
20
-4.1478538188976373
11
2.1691100787401574
21
-4.1616733858267718
0
LINE
8
BLACK
6
CONTINUOUS
10
2.1691100787401574
20
-4.1616733858267718
11
2.1652295275590552
21
-4.1751431496062992
0
LINE
8
BLACK
6
CONTINUOUS
10
2.1652295275590552
20
-4.1751431496062992
11
2.1598651968503937
21
-4.1880937401574805
0
LINE
8
BLACK
6
CONTINUOUS
10
2.1598651968503937
20
-4.1880937401574805
11
2.1530846062992124
21
-4.2003622834645666
0
LINE
8
BLACK
6
CONTINUOUS
10
2.1530846062992124
20
-4.2003622834645666
11
2.1449730314960629
21
-4.2117944881889766
0
LINE
8
BLACK
6
CONTINUOUS
10
2.1449730314960629
20
-4.2117944881889766
11
2.1356324409448817
21
-4.222246614173228
0
LINE
8
BLACK
6
CONTINUOUS
10
2.1356324409448817
20
-4.222246614173228
11
2.1251803149606299
21
-4.2315872047244092
0
LINE
8
BLACK
6
CONTINUOUS
10
2.1251803149606299
20
-4.2315872047244092
11
2.1137481102362203
21
-4.2396987795275587
0
LINE
8
BLACK
6
CONTINUOUS
10
2.1137481102362203
20
-4.2396987795275587
11
2.1014795669291337
21
-4.24647937007874
0
LINE
8
BLACK
6
CONTINUOUS
10
2.1014795669291337
20
-4.24647937007874
11
2.0885289763779529
21
-4.2518437007874015
0
LINE
8
BLACK
6
CONTINUOUS
10
2.0885289763779529
20
-4.2518437007874015
11
2.0750592125984251
21
-4.2557242519685037
0
LINE
8
BLACK
6
CONTINUOUS
10
2.0750592125984251
20
-4.2557242519685037
11
2.0612396456692914
21
-4.2580722834645668
0
LINE
8
BLACK
6
CONTINUOUS
10
2.0612396456692914
20
-4.2580722834645668
11
2.0472440944881889
21
-4.2588582677165352
0
LINE
8
BLACK
6
CONTINUOUS
10
2.0472440944881889
20
-4.2588582677165352
11
2.0332485433070864
21
-4.2580722834645668
0
LINE
8
BLACK
6
CONTINUOUS
10
2.0332485433070864
20
-4.2580722834645668
11
2.0194289763779527
21
-4.2557242519685037
0
LINE
8
BLACK
6
CONTINUOUS
10
2.0194289763779527
20
-4.2557242519685037
11
2.0059592125984254
21
-4.2518437007874015
0
LINE
8
BLACK
6
CONTINUOUS
10
2.0059592125984254
20
-4.2518437007874015
11
1.993008622047244
21
-4.24647937007874
0
LINE
8
BLACK
6
CONTINUOUS
10
1.993008622047244
20
-4.24647937007874
11
1.9807400787401575
21
-4.2396987795275587
0
LINE
8
BLACK
6
CONTINUOUS
10
1.9807400787401575
20
-4.2396987795275587
11
1.9693078740157479
21
-4.2315872047244092
0
LINE
8
BLACK
6
CONTINUOUS
10
1.9693078740157479
20
-4.2315872047244092
11
1.9588557480314961
21
-4.222246614173228
0
LINE
8
BLACK
6
CONTINUOUS
10
1.9588557480314961
20
-4.222246614173228
11
1.9495151574803149
21
-4.2117944881889766
0
LINE
8
BLACK
6
CONTINUOUS
10
1.9495151574803149
20
-4.2117944881889766
11
1.9414035826771654
21
-4.2003622834645666
0
LINE
8
BLACK
6
CONTINUOUS
10
1.9414035826771654
20
-4.2003622834645666
11
1.9346229921259841
21
-4.1880937401574805
0
LINE
8
BLACK
6
CONTINUOUS
10
1.9346229921259841
20
-4.1880937401574805
11
1.9292586614173228
21
-4.1751431496062992
0
LINE
8
BLACK
6
CONTINUOUS
10
1.9292586614173228
20
-4.1751431496062992
11
1.9253781102362204
21
-4.1616733858267718
0
LINE
8
BLACK
6
CONTINUOUS
10
1.9253781102362204
20
-4.1616733858267718
11
1.9230300787401575
21
-4.1478538188976373
0
LINE
8
BLACK
6
CONTINUOUS
10
1.9230300787401575
20
-4.1478538188976373
11
1.9222440944881889
21
-4.1338582677165352
0
LINE
8
BLACK
6
CONTINUOUS
10
1.9222440944881889
20
-4.1338582677165352
11
1.9230300787401575
21
-4.1198627165354331
0
LINE
8
BLACK
6
CONTINUOUS
10
1.9230300787401575
20
-4.1198627165354331
11
1.9253781102362204
21
-4.1060431496062995
0
LINE
8
BLACK
6
CONTINUOUS
10
1.9253781102362204
20
-4.1060431496062995
11
1.9292586614173228
21
-4.0925733858267712
0
LINE
8
BLACK
6
CONTINUOUS
10
1.9292586614173228
20
-4.0925733858267712
11
1.9346229921259841
21
-4.0796227952755908
0
LINE
8
BLACK
6
CONTINUOUS
10
1.9346229921259841
20
-4.0796227952755908
11
1.9414035826771654
21
-4.0673542519685038
0
LINE
8
BLACK
6
CONTINUOUS
10
1.9414035826771654
20
-4.0673542519685038
11
1.9495151574803149
21
-4.0559220472440947
0
LINE
8
BLACK
6
CONTINUOUS
10
1.9495151574803149
20
-4.0559220472440947
11
1.9588557480314961
21
-4.0454699212598424
0
LINE
8
BLACK
6
CONTINUOUS
10
1.9588557480314961
20
-4.0454699212598424
11
1.9693078740157479
21
-4.0361293307086612
0
LINE
8
BLACK
6
CONTINUOUS
10
1.9693078740157479
20
-4.0361293307086612
11
1.9807400787401575
21
-4.0280177559055117
0
LINE
8
BLACK
6
CONTINUOUS
10
1.9807400787401575
20
-4.0280177559055117
11
1.993008622047244
21
-4.0212371653543304
0
LINE
8
BLACK
6
CONTINUOUS
10
1.993008622047244
20
-4.0212371653543304
11
2.0059592125984254
21
-4.0158728346456689
0
LINE
8
BLACK
6
CONTINUOUS
10
2.0059592125984254
20
-4.0158728346456689
11
2.0194289763779527
21
-4.0119922834645667
0
LINE
8
BLACK
6
CONTINUOUS
10
2.0194289763779527
20
-4.0119922834645667
11
2.0332485433070864
21
-4.0096442519685036
0
LINE
8
BLACK
6
CONTINUOUS
10
2.0332485433070864
20
-4.0096442519685036
11
2.0472440944881889
21
-4.0088582677165352
0
LINE
8
BLACK
6
CONTINUOUS
10
2.0472440944881889
20
-4.0088582677165352
11
2.0612396456692914
21
-4.0096442519685036
0
LINE
8
BLACK
6
CONTINUOUS
10
1.9287120078740156
20
-4.1472136220472438
11
1.9309526377952755
21
-4.1604010236220468
0
LINE
8
BLACK
6
CONTINUOUS
10
1.9309526377952755
20
-4.1604010236220468
11
1.9346556692913386
21
-4.1732546456692914
0
LINE
8
BLACK
6
CONTINUOUS
10
1.9346556692913386
20
-4.1732546456692914
11
1.9397746062992125
21
-4.1856128346456689
0
LINE
8
BLACK
6
CONTINUOUS
10
1.9397746062992125
20
-4.1856128346456689
11
1.9462450393700788
21
-4.1973201968503933
0
LINE
8
BLACK
6
CONTINUOUS
10
1.9462450393700788
20
-4.1973201968503933
11
1.9539855905511812
21
-4.2082294488188978
0
LINE
8
BLACK
6
CONTINUOUS
10
1.9539855905511812
20
-4.2082294488188978
11
1.9628988976377952
21
-4.2182034645669289
0
LINE
8
BLACK
6
CONTINUOUS
10
1.9628988976377952
20
-4.2182034645669289
11
1.9728729133858267
21
-4.2271167716535434
0
LINE
8
BLACK
6
CONTINUOUS
10
1.9728729133858267
20
-4.2271167716535434
11
1.9837821653543306
21
-4.234857322834646
0
LINE
8
BLACK
6
CONTINUOUS
10
1.9837821653543306
20
-4.234857322834646
11
1.9954895275590552
21
-4.2413277559055116
0
LINE
8
BLACK
6
CONTINUOUS
10
1.9954895275590552
20
-4.2413277559055116
11
2.0078477165354331
21
-4.2464466929133859
0
LINE
8
BLACK
6
CONTINUOUS
10
2.0078477165354331
20
-4.2464466929133859
11
2.0207013385826773
21
-4.2501497244094484
0
LINE
8
BLACK
6
CONTINUOUS
10
2.0207013385826773
20
-4.2501497244094484
11
2.0338887401574803
21
-4.2523903543307089
0
LINE
8
BLACK
6
CONTINUOUS
10
2.0338887401574803
20
-4.2523903543307089
11
2.0472440944881889
21
-4.2531403937007877
0
LINE
8
BLACK
6
CONTINUOUS
10
2.0472440944881889
20
-4.2531403937007877
11
2.0605994488188975
21
-4.2523903543307089
0
LINE
8
BLACK
6
CONTINUOUS
10
2.0605994488188975
20
-4.2523903543307089
11
2.0737868503937009
21
-4.2501497244094484
0
LINE
8
BLACK
6
CONTINUOUS
10
2.0737868503937009
20
-4.2501497244094484
11
2.0866404724409446
21
-4.2464466929133859
0
LINE
8
BLACK
6
CONTINUOUS
10
2.0866404724409446
20
-4.2464466929133859
11
2.0989986614173226
21
-4.2413277559055116
0
LINE
8
BLACK
6
CONTINUOUS
10
2.0989986614173226
20
-4.2413277559055116
11
2.1107060236220474
21
-4.234857322834646
0
LINE
8
BLACK
6
CONTINUOUS
10
2.1107060236220474
20
-4.234857322834646
11
2.1216152755905511
21
-4.2271167716535434
0
LINE
8
BLACK
6
CONTINUOUS
10
2.1216152755905511
20
-4.2271167716535434
11
2.1315892913385825
21
-4.2182034645669289
0
LINE
8
BLACK
6
CONTINUOUS
10
2.1315892913385825
20
-4.2182034645669289
11
2.1405025984251966
21
-4.2082294488188978
0
LINE
8
BLACK
6
CONTINUOUS
10
2.1405025984251966
20
-4.2082294488188978
11
2.1482431496062993
21
-4.1973201968503933
0
LINE
8
BLACK
6
CONTINUOUS
10
2.1482431496062993
20
-4.1973201968503933
11
2.1547135826771653
21
-4.1856128346456689
0
LINE
8
BLACK
6
CONTINUOUS
10
2.1547135826771653
20
-4.1856128346456689
11
2.1598325196850392
21
-4.1732546456692914
0
LINE
8
BLACK
6
CONTINUOUS
10
2.1598325196850392
20
-4.1732546456692914
11
2.1635355511811025
21
-4.1604010236220468
0
LINE
8
BLACK
6
CONTINUOUS
10
2.1635355511811025
20
-4.1604010236220468
11
2.1657761811023621
21
-4.1472136220472438
0
LINE
8
BLACK
6
CONTINUOUS
10
2.1657761811023621
20
-4.1472136220472438
11
2.1665262204724409
21
-4.1338582677165352
0
LINE
8
BLACK
6
CONTINUOUS
10
2.1665262204724409
20
-4.1338582677165352
11
2.1657761811023621
21
-4.1205029133858266
0
LINE
8
BLACK
6
CONTINUOUS
10
2.1657761811023621
20
-4.1205029133858266
11
2.1635355511811025
21
-4.1073155118110236
0
LINE
8
BLACK
6
CONTINUOUS
10
2.1635355511811025
20
-4.1073155118110236
11
2.1598325196850392
21
-4.094461889763779
0
LINE
8
BLACK
6
CONTINUOUS
10
2.1598325196850392
20
-4.094461889763779
11
2.1547135826771653
21
-4.0821037007874015
0
LINE
8
BLACK
6
CONTINUOUS
10
2.1547135826771653
20
-4.0821037007874015
11
2.1482431496062993
21
-4.0703963385826771
0
LINE
8
BLACK
6
CONTINUOUS
10
2.1482431496062993
20
-4.0703963385826771
11
2.1405025984251966
21
-4.0594870866141735
0
LINE
8
BLACK
6
CONTINUOUS
10
2.1405025984251966
20
-4.0594870866141735
11
2.1315892913385825
21
-4.0495130708661415
0
LINE
8
BLACK
6
CONTINUOUS
10
2.1315892913385825
20
-4.0495130708661415
11
2.1216152755905511
21
-4.0405997637795279
0
LINE
8
BLACK
6
CONTINUOUS
10
2.1216152755905511
20
-4.0405997637795279
11
2.1107060236220474
21
-4.0328592125984253
0
LINE
8
BLACK
6
CONTINUOUS
10
2.1107060236220474
20
-4.0328592125984253
11
2.0989986614173226
21
-4.0263887795275588
0
LINE
8
BLACK
6
CONTINUOUS
10
2.0989986614173226
20
-4.0263887795275588
11
2.0866404724409446
21
-4.0212698425196853
0
LINE
8
BLACK
6
CONTINUOUS
10
2.0866404724409446
20
-4.0212698425196853
11
2.0737868503937009
21
-4.017566811023622
0
LINE
8
BLACK
6
CONTINUOUS
10
2.0737868503937009
20
-4.017566811023622
11
2.0605994488188975
21
-4.0153261811023624
0
LINE
8
BLACK
6
CONTINUOUS
10
2.0605994488188975
20
-4.0153261811023624
11
2.0472440944881889
21
-4.0145761417322836
0
LINE
8
BLACK
6
CONTINUOUS
10
2.0472440944881889
20
-4.0145761417322836
11
2.0338887401574803
21
-4.0153261811023624
0
LINE
8
BLACK
6
CONTINUOUS
10
2.0338887401574803
20
-4.0153261811023624
11
2.0207013385826773
21
-4.017566811023622
0
LINE
8
BLACK
6
CONTINUOUS
10
2.0207013385826773
20
-4.017566811023622
11
2.0078477165354331
21
-4.0212698425196853
0
LINE
8
BLACK
6
CONTINUOUS
10
2.0078477165354331
20
-4.0212698425196853
11
1.9954895275590552
21
-4.0263887795275588
0
LINE
8
BLACK
6
CONTINUOUS
10
1.9954895275590552
20
-4.0263887795275588
11
1.9837821653543306
21
-4.0328592125984253
0
LINE
8
BLACK
6
CONTINUOUS
10
1.9837821653543306
20
-4.0328592125984253
11
1.9728729133858267
21
-4.0405997637795279
0
LINE
8
BLACK
6
CONTINUOUS
10
1.9728729133858267
20
-4.0405997637795279
11
1.9628988976377952
21
-4.0495130708661415
0
LINE
8
BLACK
6
CONTINUOUS
10
1.9628988976377952
20
-4.0495130708661415
11
1.9539855905511812
21
-4.0594870866141735
0
LINE
8
BLACK
6
CONTINUOUS
10
1.9539855905511812
20
-4.0594870866141735
11
1.9462450393700788
21
-4.0703963385826771
0
LINE
8
BLACK
6
CONTINUOUS
10
1.9462450393700788
20
-4.0703963385826771
11
1.9397746062992125
21
-4.0821037007874015
0
LINE
8
BLACK
6
CONTINUOUS
10
1.9397746062992125
20
-4.0821037007874015
11
1.9346556692913386
21
-4.094461889763779
0
LINE
8
BLACK
6
CONTINUOUS
10
1.9346556692913386
20
-4.094461889763779
11
1.9309526377952755
21
-4.1073155118110236
0
LINE
8
BLACK
6
CONTINUOUS
10
1.9309526377952755
20
-4.1073155118110236
11
1.9287120078740156
21
-4.1205029133858266
0
LINE
8
BLACK
6
CONTINUOUS
10
1.9287120078740156
20
-4.1205029133858266
11
1.9279619685039369
21
-4.1338582677165352
0
LINE
8
BLACK
6
CONTINUOUS
10
1.9279619685039369
20
-4.1338582677165352
11
1.9287120078740156
21
-4.1472136220472438
0
LINE
8
BLACK
6
CONTINUOUS
10
4.3447042125984252
20
-4.0096442519685036
11
4.3585237795275589
21
-4.0119922834645667
0
LINE
8
BLACK
6
CONTINUOUS
10
4.3585237795275589
20
-4.0119922834645667
11
4.3719935433070862
21
-4.0158728346456689
0
LINE
8
BLACK
6
CONTINUOUS
10
4.3719935433070862
20
-4.0158728346456689
11
4.3849441338582675
21
-4.0212371653543304
0
LINE
8
BLACK
6
CONTINUOUS
10
4.3849441338582675
20
-4.0212371653543304
11
4.3972126771653546
21
-4.0280177559055117
0
LINE
8
BLACK
6
CONTINUOUS
10
4.3972126771653546
20
-4.0280177559055117
11
4.4086448818897637
21
-4.0361293307086612
0
LINE
8
BLACK
6
CONTINUOUS
10
4.4086448818897637
20
-4.0361293307086612
11
4.4190970078740159
21
-4.0454699212598424
0
LINE
8
BLACK
6
CONTINUOUS
10
4.4190970078740159
20
-4.0454699212598424
11
4.4284375984251971
21
-4.0559220472440947
0
LINE
8
BLACK
6
CONTINUOUS
10
4.4284375984251971
20
-4.0559220472440947
11
4.4365491732283466
21
-4.0673542519685038
0
LINE
8
BLACK
6
CONTINUOUS
10
4.4365491732283466
20
-4.0673542519685038
11
4.443329763779527
21
-4.0796227952755908
0
LINE
8
BLACK
6
CONTINUOUS
10
4.443329763779527
20
-4.0796227952755908
11
4.4486940944881885
21
-4.0925733858267712
0
LINE
8
BLACK
6
CONTINUOUS
10
4.4486940944881885
20
-4.0925733858267712
11
4.4525746456692916
21
-4.1060431496062995
0
LINE
8
BLACK
6
CONTINUOUS
10
4.4525746456692916
20
-4.1060431496062995
11
4.4549226771653538
21
-4.1198627165354331
0
LINE
8
BLACK
6
CONTINUOUS
10
4.4549226771653538
20
-4.1198627165354331
11
4.4557086614173231
21
-4.1338582677165352
0
LINE
8
BLACK
6
CONTINUOUS
10
4.4557086614173231
20
-4.1338582677165352
11
4.4549226771653538
21
-4.1478538188976373
0
LINE
8
BLACK
6
CONTINUOUS
10
4.4549226771653538
20
-4.1478538188976373
11
4.4525746456692916
21
-4.1616733858267718
0
LINE
8
BLACK
6
CONTINUOUS
10
4.4525746456692916
20
-4.1616733858267718
11
4.4486940944881885
21
-4.1751431496062992
0
LINE
8
BLACK
6
CONTINUOUS
10
4.4486940944881885
20
-4.1751431496062992
11
4.443329763779527
21
-4.1880937401574805
0
LINE
8
BLACK
6
CONTINUOUS
10
4.443329763779527
20
-4.1880937401574805
11
4.4365491732283466
21
-4.2003622834645666
0
LINE
8
BLACK
6
CONTINUOUS
10
4.4365491732283466
20
-4.2003622834645666
11
4.4284375984251971
21
-4.2117944881889766
0
LINE
8
BLACK
6
CONTINUOUS
10
4.4284375984251971
20
-4.2117944881889766
11
4.4190970078740159
21
-4.222246614173228
0
LINE
8
BLACK
6
CONTINUOUS
10
4.4190970078740159
20
-4.222246614173228
11
4.4086448818897637
21
-4.2315872047244092
0
LINE
8
BLACK
6
CONTINUOUS
10
4.4086448818897637
20
-4.2315872047244092
11
4.3972126771653546
21
-4.2396987795275587
0
LINE
8
BLACK
6
CONTINUOUS
10
4.3972126771653546
20
-4.2396987795275587
11
4.3849441338582675
21
-4.24647937007874
0
LINE
8
BLACK
6
CONTINUOUS
10
4.3849441338582675
20
-4.24647937007874
11
4.3719935433070862
21
-4.2518437007874015
0
LINE
8
BLACK
6
CONTINUOUS
10
4.3719935433070862
20
-4.2518437007874015
11
4.3585237795275589
21
-4.2557242519685037
0
LINE
8
BLACK
6
CONTINUOUS
10
4.3585237795275589
20
-4.2557242519685037
11
4.3447042125984252
21
-4.2580722834645668
0
LINE
8
BLACK
6
CONTINUOUS
10
4.3447042125984252
20
-4.2580722834645668
11
4.3307086614173231
21
-4.2588582677165352
0
LINE
8
BLACK
6
CONTINUOUS
10
4.3307086614173231
20
-4.2588582677165352
11
4.3167131102362202
21
-4.2580722834645668
0
LINE
8
BLACK
6
CONTINUOUS
10
4.3167131102362202
20
-4.2580722834645668
11
4.3028935433070865
21
-4.2557242519685037
0
LINE
8
BLACK
6
CONTINUOUS
10
4.3028935433070865
20
-4.2557242519685037
11
4.2894237795275592
21
-4.2518437007874015
0
LINE
8
BLACK
6
CONTINUOUS
10
4.2894237795275592
20
-4.2518437007874015
11
4.2764731889763778
21
-4.24647937007874
0
LINE
8
BLACK
6
CONTINUOUS
10
4.2764731889763778
20
-4.24647937007874
11
4.2642046456692908
21
-4.2396987795275587
0
LINE
8
BLACK
6
CONTINUOUS
10
4.2642046456692908
20
-4.2396987795275587
11
4.2527724409448817
21
-4.2315872047244092
0
LINE
8
BLACK
6
CONTINUOUS
10
4.2527724409448817
20
-4.2315872047244092
11
4.2423203149606294
21
-4.222246614173228
0
LINE
8
BLACK
6
CONTINUOUS
10
4.2423203149606294
20
-4.222246614173228
11
4.2329797244094491
21
-4.2117944881889766
0
LINE
8
BLACK
6
CONTINUOUS
10
4.2329797244094491
20
-4.2117944881889766
11
4.2248681496062988
21
-4.2003622834645666
0
LINE
8
BLACK
6
CONTINUOUS
10
4.2248681496062988
20
-4.2003622834645666
11
4.2180875590551183
21
-4.1880937401574805
0
LINE
8
BLACK
6
CONTINUOUS
10
4.2180875590551183
20
-4.1880937401574805
11
4.2127232283464568
21
-4.1751431496062992
0
LINE
8
BLACK
6
CONTINUOUS
10
4.2127232283464568
20
-4.1751431496062992
11
4.2088426771653547
21
-4.1616733858267718
0
LINE
8
BLACK
6
CONTINUOUS
10
4.2088426771653547
20
-4.1616733858267718
11
4.2064946456692915
21
-4.1478538188976373
0
LINE
8
BLACK
6
CONTINUOUS
10
4.2064946456692915
20
-4.1478538188976373
11
4.2057086614173231
21
-4.1338582677165352
0
LINE
8
BLACK
6
CONTINUOUS
10
4.2057086614173231
20
-4.1338582677165352
11
4.2064946456692915
21
-4.1198627165354331
0
LINE
8
BLACK
6
CONTINUOUS
10
4.2064946456692915
20
-4.1198627165354331
11
4.2088426771653547
21
-4.1060431496062995
0
LINE
8
BLACK
6
CONTINUOUS
10
4.2088426771653547
20
-4.1060431496062995
11
4.2127232283464568
21
-4.0925733858267712
0
LINE
8
BLACK
6
CONTINUOUS
10
4.2127232283464568
20
-4.0925733858267712
11
4.2180875590551183
21
-4.0796227952755908
0
LINE
8
BLACK
6
CONTINUOUS
10
4.2180875590551183
20
-4.0796227952755908
11
4.2248681496062988
21
-4.0673542519685038
0
LINE
8
BLACK
6
CONTINUOUS
10
4.2248681496062988
20
-4.0673542519685038
11
4.2329797244094491
21
-4.0559220472440947
0
LINE
8
BLACK
6
CONTINUOUS
10
4.2329797244094491
20
-4.0559220472440947
11
4.2423203149606294
21
-4.0454699212598424
0
LINE
8
BLACK
6
CONTINUOUS
10
4.2423203149606294
20
-4.0454699212598424
11
4.2527724409448817
21
-4.0361293307086612
0
LINE
8
BLACK
6
CONTINUOUS
10
4.2527724409448817
20
-4.0361293307086612
11
4.2642046456692908
21
-4.0280177559055117
0
LINE
8
BLACK
6
CONTINUOUS
10
4.2642046456692908
20
-4.0280177559055117
11
4.2764731889763778
21
-4.0212371653543304
0
LINE
8
BLACK
6
CONTINUOUS
10
4.2764731889763778
20
-4.0212371653543304
11
4.2894237795275592
21
-4.0158728346456689
0
LINE
8
BLACK
6
CONTINUOUS
10
4.2894237795275592
20
-4.0158728346456689
11
4.3028935433070865
21
-4.0119922834645667
0
LINE
8
BLACK
6
CONTINUOUS
10
4.3028935433070865
20
-4.0119922834645667
11
4.3167131102362202
21
-4.0096442519685036
0
LINE
8
BLACK
6
CONTINUOUS
10
4.3167131102362202
20
-4.0096442519685036
11
4.3307086614173231
21
-4.0088582677165352
0
LINE
8
BLACK
6
CONTINUOUS
10
4.3307086614173231
20
-4.0088582677165352
11
4.3447042125984252
21
-4.0096442519685036
0
LINE
8
BLACK
6
CONTINUOUS
10
4.2121765748031494
20
-4.1472136220472438
11
4.2144172047244091
21
-4.1604010236220468
0
LINE
8
BLACK
6
CONTINUOUS
10
4.2144172047244091
20
-4.1604010236220468
11
4.2181202362204724
21
-4.1732546456692914
0
LINE
8
BLACK
6
CONTINUOUS
10
4.2181202362204724
20
-4.1732546456692914
11
4.2232391732283467
21
-4.1856128346456689
0
LINE
8
BLACK
6
CONTINUOUS
10
4.2232391732283467
20
-4.1856128346456689
11
4.2297096062992123
21
-4.1973201968503933
0
LINE
8
BLACK
6
CONTINUOUS
10
4.2297096062992123
20
-4.1973201968503933
11
4.2374501574803149
21
-4.2082294488188978
0
LINE
8
BLACK
6
CONTINUOUS
10
4.2374501574803149
20
-4.2082294488188978
11
4.2463634645669295
21
-4.2182034645669289
0
LINE
8
BLACK
6
CONTINUOUS
10
4.2463634645669295
20
-4.2182034645669289
11
4.2563374803149605
21
-4.2271167716535434
0
LINE
8
BLACK
6
CONTINUOUS
10
4.2563374803149605
20
-4.2271167716535434
11
4.2672467322834642
21
-4.234857322834646
0
LINE
8
BLACK
6
CONTINUOUS
10
4.2672467322834642
20
-4.234857322834646
11
4.2789540944881885
21
-4.2413277559055116
0
LINE
8
BLACK
6
CONTINUOUS
10
4.2789540944881885
20
-4.2413277559055116
11
4.2913122834645669
21
-4.2464466929133859
0
LINE
8
BLACK
6
CONTINUOUS
10
4.2913122834645669
20
-4.2464466929133859
11
4.3041659055118107
21
-4.2501497244094484
0
LINE
8
BLACK
6
CONTINUOUS
10
4.3041659055118107
20
-4.2501497244094484
11
4.3173533070866137
21
-4.2523903543307089
0
LINE
8
BLACK
6
CONTINUOUS
10
4.3173533070866137
20
-4.2523903543307089
11
4.3307086614173231
21
-4.2531403937007877
0
LINE
8
BLACK
6
CONTINUOUS
10
4.3307086614173231
20
-4.2531403937007877
11
4.3440640157480317
21
-4.2523903543307089
0
LINE
8
BLACK
6
CONTINUOUS
10
4.3440640157480317
20
-4.2523903543307089
11
4.3572514173228347
21
-4.2501497244094484
0
LINE
8
BLACK
6
CONTINUOUS
10
4.3572514173228347
20
-4.2501497244094484
11
4.3701050393700784
21
-4.2464466929133859
0
LINE
8
BLACK
6
CONTINUOUS
10
4.3701050393700784
20
-4.2464466929133859
11
4.3824632283464569
21
-4.2413277559055116
0
LINE
8
BLACK
6
CONTINUOUS
10
4.3824632283464569
20
-4.2413277559055116
11
4.3941705905511812
21
-4.234857322834646
0
LINE
8
BLACK
6
CONTINUOUS
10
4.3941705905511812
20
-4.234857322834646
11
4.4050798425196849
21
-4.2271167716535434
0
LINE
8
BLACK
6
CONTINUOUS
10
4.4050798425196849
20
-4.2271167716535434
11
4.4150538582677168
21
-4.2182034645669289
0
LINE
8
BLACK
6
CONTINUOUS
10
4.4150538582677168
20
-4.2182034645669289
11
4.4239671653543304
21
-4.2082294488188978
0
LINE
8
BLACK
6
CONTINUOUS
10
4.4239671653543304
20
-4.2082294488188978
11
4.4317077165354331
21
-4.1973201968503933
0
LINE
8
BLACK
6
CONTINUOUS
10
4.4317077165354331
20
-4.1973201968503933
11
4.4381781496062995
21
-4.1856128346456689
0
LINE
8
BLACK
6
CONTINUOUS
10
4.4381781496062995
20
-4.1856128346456689
11
4.443297086614173
21
-4.1732546456692914
0
LINE
8
BLACK
6
CONTINUOUS
10
4.443297086614173
20
-4.1732546456692914
11
4.4470001181102363
21
-4.1604010236220468
0
LINE
8
BLACK
6
CONTINUOUS
10
4.4470001181102363
20
-4.1604010236220468
11
4.4492407480314959
21
-4.1472136220472438
0
LINE
8
BLACK
6
CONTINUOUS
10
4.4492407480314959
20
-4.1472136220472438
11
4.4499907874015747
21
-4.1338582677165352
0
LINE
8
BLACK
6
CONTINUOUS
10
4.4499907874015747
20
-4.1338582677165352
11
4.4492407480314959
21
-4.1205029133858266
0
LINE
8
BLACK
6
CONTINUOUS
10
4.4492407480314959
20
-4.1205029133858266
11
4.4470001181102363
21
-4.1073155118110236
0
LINE
8
BLACK
6
CONTINUOUS
10
4.4470001181102363
20
-4.1073155118110236
11
4.443297086614173
21
-4.094461889763779
0
LINE
8
BLACK
6
CONTINUOUS
10
4.443297086614173
20
-4.094461889763779
11
4.4381781496062995
21
-4.0821037007874015
0
LINE
8
BLACK
6
CONTINUOUS
10
4.4381781496062995
20
-4.0821037007874015
11
4.4317077165354331
21
-4.0703963385826771
0
LINE
8
BLACK
6
CONTINUOUS
10
4.4317077165354331
20
-4.0703963385826771
11
4.4239671653543304
21
-4.0594870866141735
0
LINE
8
BLACK
6
CONTINUOUS
10
4.4239671653543304
20
-4.0594870866141735
11
4.4150538582677168
21
-4.0495130708661415
0
LINE
8
BLACK
6
CONTINUOUS
10
4.4150538582677168
20
-4.0495130708661415
11
4.4050798425196849
21
-4.0405997637795279
0
LINE
8
BLACK
6
CONTINUOUS
10
4.4050798425196849
20
-4.0405997637795279
11
4.3941705905511812
21
-4.0328592125984253
0
LINE
8
BLACK
6
CONTINUOUS
10
4.3941705905511812
20
-4.0328592125984253
11
4.3824632283464569
21
-4.0263887795275588
0
LINE
8
BLACK
6
CONTINUOUS
10
4.3824632283464569
20
-4.0263887795275588
11
4.3701050393700784
21
-4.0212698425196853
0
LINE
8
BLACK
6
CONTINUOUS
10
4.3701050393700784
20
-4.0212698425196853
11
4.3572514173228347
21
-4.017566811023622
0
LINE
8
BLACK
6
CONTINUOUS
10
4.3572514173228347
20
-4.017566811023622
11
4.3440640157480317
21
-4.0153261811023624
0
LINE
8
BLACK
6
CONTINUOUS
10
4.3440640157480317
20
-4.0153261811023624
11
4.3307086614173231
21
-4.0145761417322836
0
LINE
8
BLACK
6
CONTINUOUS
10
4.3307086614173231
20
-4.0145761417322836
11
4.3173533070866137
21
-4.0153261811023624
0
LINE
8
BLACK
6
CONTINUOUS
10
4.3173533070866137
20
-4.0153261811023624
11
4.3041659055118107
21
-4.017566811023622
0
LINE
8
BLACK
6
CONTINUOUS
10
4.3041659055118107
20
-4.017566811023622
11
4.2913122834645669
21
-4.0212698425196853
0
LINE
8
BLACK
6
CONTINUOUS
10
4.2913122834645669
20
-4.0212698425196853
11
4.2789540944881885
21
-4.0263887795275588
0
LINE
8
BLACK
6
CONTINUOUS
10
4.2789540944881885
20
-4.0263887795275588
11
4.2672467322834642
21
-4.0328592125984253
0
LINE
8
BLACK
6
CONTINUOUS
10
4.2672467322834642
20
-4.0328592125984253
11
4.2563374803149605
21
-4.0405997637795279
0
LINE
8
BLACK
6
CONTINUOUS
10
4.2563374803149605
20
-4.0405997637795279
11
4.2463634645669295
21
-4.0495130708661415
0
LINE
8
BLACK
6
CONTINUOUS
10
4.2463634645669295
20
-4.0495130708661415
11
4.2374501574803149
21
-4.0594870866141735
0
LINE
8
BLACK
6
CONTINUOUS
10
4.2374501574803149
20
-4.0594870866141735
11
4.2297096062992123
21
-4.0703963385826771
0
LINE
8
BLACK
6
CONTINUOUS
10
4.2297096062992123
20
-4.0703963385826771
11
4.2232391732283467
21
-4.0821037007874015
0
LINE
8
BLACK
6
CONTINUOUS
10
4.2232391732283467
20
-4.0821037007874015
11
4.2181202362204724
21
-4.094461889763779
0
LINE
8
BLACK
6
CONTINUOUS
10
4.2181202362204724
20
-4.094461889763779
11
4.2144172047244091
21
-4.1073155118110236
0
LINE
8
BLACK
6
CONTINUOUS
10
4.2144172047244091
20
-4.1073155118110236
11
4.2121765748031494
21
-4.1205029133858266
0
LINE
8
BLACK
6
CONTINUOUS
10
4.2121765748031494
20
-4.1205029133858266
11
4.2114265354330707
21
-4.1338582677165352
0
LINE
8
BLACK
6
CONTINUOUS
10
4.2114265354330707
20
-4.1338582677165352
11
4.2121765748031494
21
-4.1472136220472438
0
LINE
8
BLACK
6
CONTINUOUS
10
4.4090551181102358
20
-3.4478346456692912
11
4.4097511023622049
21
-3.4481229133858267
0
LINE
8
BLACK
6
CONTINUOUS
10
4.4097511023622049
20
-3.4481229133858267
11
4.4100393700787404
21
-3.4488188976377954
0
LINE
8
BLACK
6
CONTINUOUS
10
4.4100393700787404
20
-3.4488188976377954
11
4.4100393700787404
21
-3.7893700787401574
0
LINE
8
BLACK
6
CONTINUOUS
10
4.4100393700787404
20
-3.7893700787401574
11
4.4097511023622049
21
-3.7900660629921261
0
LINE
8
BLACK
6
CONTINUOUS
10
4.4097511023622049
20
-3.7900660629921261
11
4.4090551181102358
21
-3.7903543307086611
0
LINE
8
BLACK
6
CONTINUOUS
10
4.4090551181102358
20
-3.7903543307086611
11
4.1688976377952756
21
-3.7903543307086611
0
LINE
8
BLACK
6
CONTINUOUS
10
4.1688976377952756
20
-3.7903543307086611
11
4.1682016535433073
21
-3.7900660629921261
0
LINE
8
BLACK
6
CONTINUOUS
10
4.1682016535433073
20
-3.7900660629921261
11
4.1679133858267718
21
-3.7893700787401574
0
LINE
8
BLACK
6
CONTINUOUS
10
4.1679133858267718
20
-3.7893700787401574
11
4.1679133858267718
21
-3.4488188976377954
0
LINE
8
BLACK
6
CONTINUOUS
10
4.1679133858267718
20
-3.4488188976377954
11
4.1682016535433073
21
-3.4481229133858267
0
LINE
8
BLACK
6
CONTINUOUS
10
4.1682016535433073
20
-3.4481229133858267
11
4.1688976377952756
21
-3.4478346456692912
0
LINE
8
BLACK
6
CONTINUOUS
10
4.1688976377952756
20
-3.4478346456692912
11
4.4090551181102358
21
-3.4478346456692912
0
LINE
8
BLACK
6
CONTINUOUS
10
4.1698818897637793
20
-3.4498031496062991
11
4.1698818897637793
21
-3.7883858267716533
0
LINE
8
BLACK
6
CONTINUOUS
10
4.1698818897637793
20
-3.7883858267716533
11
4.408070866141732
21
-3.7883858267716533
0
LINE
8
BLACK
6
CONTINUOUS
10
4.408070866141732
20
-3.7883858267716533
11
4.408070866141732
21
-3.4498031496062991
0
LINE
8
BLACK
6
CONTINUOUS
10
4.408070866141732
20
-3.4498031496062991
11
4.1698818897637793
21
-3.4498031496062991
0
LINE
8
BLACK
6
CONTINUOUS
10
2.7633858267716533
20
-3.5124015748031496
11
2.764081811023622
21
-3.5126898425196851
0
LINE
8
BLACK
6
CONTINUOUS
10
2.764081811023622
20
-3.5126898425196851
11
2.7643700787401575
21
-3.5133858267716533
0
LINE
8
BLACK
6
CONTINUOUS
10
2.7643700787401575
20
-3.5133858267716533
11
2.7643700787401575
21
-3.753543307086614
0
LINE
8
BLACK
6
CONTINUOUS
10
2.7643700787401575
20
-3.753543307086614
11
2.764081811023622
21
-3.7542392913385827
0
LINE
8
BLACK
6
CONTINUOUS
10
2.764081811023622
20
-3.7542392913385827
11
2.7633858267716533
21
-3.7545275590551181
0
LINE
8
BLACK
6
CONTINUOUS
10
2.7633858267716533
20
-3.7545275590551181
11
2.4228346456692913
21
-3.7545275590551181
0
LINE
8
BLACK
6
CONTINUOUS
10
2.4228346456692913
20
-3.7545275590551181
11
2.4221386614173226
21
-3.7542392913385827
0
LINE
8
BLACK
6
CONTINUOUS
10
2.4221386614173226
20
-3.7542392913385827
11
2.4218503937007871
21
-3.753543307086614
0
LINE
8
BLACK
6
CONTINUOUS
10
2.4218503937007871
20
-3.753543307086614
11
2.4218503937007871
21
-3.5133858267716533
0
LINE
8
BLACK
6
CONTINUOUS
10
2.4218503937007871
20
-3.5133858267716533
11
2.4221386614173226
21
-3.5126898425196851
0
LINE
8
BLACK
6
CONTINUOUS
10
2.4221386614173226
20
-3.5126898425196851
11
2.4228346456692913
21
-3.5124015748031496
0
LINE
8
BLACK
6
CONTINUOUS
10
2.4228346456692913
20
-3.5124015748031496
11
2.7633858267716533
21
-3.5124015748031496
0
LINE
8
BLACK
6
CONTINUOUS
10
2.423818897637795
20
-3.5143700787401575
11
2.423818897637795
21
-3.7525590551181103
0
LINE
8
BLACK
6
CONTINUOUS
10
2.423818897637795
20
-3.7525590551181103
11
2.7624015748031496
21
-3.7525590551181103
0
LINE
8
BLACK
6
CONTINUOUS
10
2.7624015748031496
20
-3.7525590551181103
11
2.7624015748031496
21
-3.5143700787401575
0
LINE
8
BLACK
6
CONTINUOUS
10
2.7624015748031496
20
-3.5143700787401575
11
2.423818897637795
21
-3.5143700787401575
0
LINE
8
BLACK
6
CONTINUOUS
10
2.0612396456692914
20
-2.0805103937007874
11
2.0750592125984251
21
-2.0828584251968505
0
LINE
8
BLACK
6
CONTINUOUS
10
2.0750592125984251
20
-2.0828584251968505
11
2.0885289763779529
21
-2.0867389763779527
0
LINE
8
BLACK
6
CONTINUOUS
10
2.0885289763779529
20
-2.0867389763779527
11
2.1014795669291337
21
-2.0921033070866142
0
LINE
8
BLACK
6
CONTINUOUS
10
2.1014795669291337
20
-2.0921033070866142
11
2.1137481102362203
21
-2.098883897637795
0
LINE
8
BLACK
6
CONTINUOUS
10
2.1137481102362203
20
-2.098883897637795
11
2.1251803149606299
21
-2.106995472440945
0
LINE
8
BLACK
6
CONTINUOUS
10
2.1251803149606299
20
-2.106995472440945
11
2.1356324409448817
21
-2.1163360629921257
0
LINE
8
BLACK
6
CONTINUOUS
10
2.1356324409448817
20
-2.1163360629921257
11
2.1449730314960629
21
-2.126788188976378
0
LINE
8
BLACK
6
CONTINUOUS
10
2.1449730314960629
20
-2.126788188976378
11
2.1530846062992124
21
-2.1382203937007875
0
LINE
8
BLACK
6
CONTINUOUS
10
2.1530846062992124
20
-2.1382203937007875
11
2.1598651968503937
21
-2.1504889370078741
0
LINE
8
BLACK
6
CONTINUOUS
10
2.1598651968503937
20
-2.1504889370078741
11
2.1652295275590552
21
-2.163439527559055
0
LINE
8
BLACK
6
CONTINUOUS
10
2.1652295275590552
20
-2.163439527559055
11
2.1691100787401574
21
-2.1769092913385828
0
LINE
8
BLACK
6
CONTINUOUS
10
2.1691100787401574
20
-2.1769092913385828
11
2.1714581102362205
21
-2.1907288582677165
0
LINE
8
BLACK
6
CONTINUOUS
10
2.1714581102362205
20
-2.1907288582677165
11
2.1722440944881889
21
-2.204724409448819
0
LINE
8
BLACK
6
CONTINUOUS
10
2.1722440944881889
20
-2.204724409448819
11
2.1714581102362205
21
-2.2187199606299211
0
LINE
8
BLACK
6
CONTINUOUS
10
2.1714581102362205
20
-2.2187199606299211
11
2.1691100787401574
21
-2.2325395275590552
0
LINE
8
BLACK
6
CONTINUOUS
10
2.1691100787401574
20
-2.2325395275590552
11
2.1652295275590552
21
-2.2460092913385825
0
LINE
8
BLACK
6
CONTINUOUS
10
2.1652295275590552
20
-2.2460092913385825
11
2.1598651968503937
21
-2.2589598818897638
0
LINE
8
BLACK
6
CONTINUOUS
10
2.1598651968503937
20
-2.2589598818897638
11
2.1530846062992124
21
-2.2712284251968504
0
LINE
8
BLACK
6
CONTINUOUS
10
2.1530846062992124
20
-2.2712284251968504
11
2.1449730314960629
21
-2.28266062992126
0
LINE
8
BLACK
6
CONTINUOUS
10
2.1449730314960629
20
-2.28266062992126
11
2.1356324409448817
21
-2.2931127559055118
0
LINE
8
BLACK
6
CONTINUOUS
10
2.1356324409448817
20
-2.2931127559055118
11
2.1251803149606299
21
-2.302453346456693
0
LINE
8
BLACK
6
CONTINUOUS
10
2.1251803149606299
20
-2.302453346456693
11
2.1137481102362203
21
-2.3105649212598425
0
LINE
8
BLACK
6
CONTINUOUS
10
2.1137481102362203
20
-2.3105649212598425
11
2.1014795669291337
21
-2.3173455118110238
0
LINE
8
BLACK
6
CONTINUOUS
10
2.1014795669291337
20
-2.3173455118110238
11
2.0885289763779529
21
-2.3227098425196848
0
LINE
8
BLACK
6
CONTINUOUS
10
2.0885289763779529
20
-2.3227098425196848
11
2.0750592125984251
21
-2.3265903937007875
0
LINE
8
BLACK
6
CONTINUOUS
10
2.0750592125984251
20
-2.3265903937007875
11
2.0612396456692914
21
-2.3289384251968501
0
LINE
8
BLACK
6
CONTINUOUS
10
2.0612396456692914
20
-2.3289384251968501
11
2.0472440944881889
21
-2.329724409448819
0
LINE
8
BLACK
6
CONTINUOUS
10
2.0472440944881889
20
-2.329724409448819
11
2.0332485433070864
21
-2.3289384251968501
0
LINE
8
BLACK
6
CONTINUOUS
10
2.0332485433070864
20
-2.3289384251968501
11
2.0194289763779527
21
-2.3265903937007875
0
LINE
8
BLACK
6
CONTINUOUS
10
2.0194289763779527
20
-2.3265903937007875
11
2.0059592125984254
21
-2.3227098425196848
0
LINE
8
BLACK
6
CONTINUOUS
10
2.0059592125984254
20
-2.3227098425196848
11
1.993008622047244
21
-2.3173455118110238
0
LINE
8
BLACK
6
CONTINUOUS
10
1.993008622047244
20
-2.3173455118110238
11
1.9807400787401575
21
-2.3105649212598425
0
LINE
8
BLACK
6
CONTINUOUS
10
1.9807400787401575
20
-2.3105649212598425
11
1.9693078740157479
21
-2.302453346456693
0
LINE
8
BLACK
6
CONTINUOUS
10
1.9693078740157479
20
-2.302453346456693
11
1.9588557480314961
21
-2.2931127559055118
0
LINE
8
BLACK
6
CONTINUOUS
10
1.9588557480314961
20
-2.2931127559055118
11
1.9495151574803149
21
-2.28266062992126
0
LINE
8
BLACK
6
CONTINUOUS
10
1.9495151574803149
20
-2.28266062992126
11
1.9414035826771654
21
-2.2712284251968504
0
LINE
8
BLACK
6
CONTINUOUS
10
1.9414035826771654
20
-2.2712284251968504
11
1.9346229921259841
21
-2.2589598818897638
0
LINE
8
BLACK
6
CONTINUOUS
10
1.9346229921259841
20
-2.2589598818897638
11
1.9292586614173228
21
-2.2460092913385825
0
LINE
8
BLACK
6
CONTINUOUS
10
1.9292586614173228
20
-2.2460092913385825
11
1.9253781102362204
21
-2.2325395275590552
0
LINE
8
BLACK
6
CONTINUOUS
10
1.9253781102362204
20
-2.2325395275590552
11
1.9230300787401575
21
-2.2187199606299211
0
LINE
8
BLACK
6
CONTINUOUS
10
1.9230300787401575
20
-2.2187199606299211
11
1.9222440944881889
21
-2.204724409448819
0
LINE
8
BLACK
6
CONTINUOUS
10
1.9222440944881889
20
-2.204724409448819
11
1.9230300787401575
21
-2.1907288582677165
0
LINE
8
BLACK
6
CONTINUOUS
10
1.9230300787401575
20
-2.1907288582677165
11
1.9253781102362204
21
-2.1769092913385828
0
LINE
8
BLACK
6
CONTINUOUS
10
1.9253781102362204
20
-2.1769092913385828
11
1.9292586614173228
21
-2.163439527559055
0
LINE
8
BLACK
6
CONTINUOUS
10
1.9292586614173228
20
-2.163439527559055
11
1.9346229921259841
21
-2.1504889370078741
0
LINE
8
BLACK
6
CONTINUOUS
10
1.9346229921259841
20
-2.1504889370078741
11
1.9414035826771654
21
-2.1382203937007875
0
LINE
8
BLACK
6
CONTINUOUS
10
1.9414035826771654
20
-2.1382203937007875
11
1.9495151574803149
21
-2.126788188976378
0
LINE
8
BLACK
6
CONTINUOUS
10
1.9495151574803149
20
-2.126788188976378
11
1.9588557480314961
21
-2.1163360629921257
0
LINE
8
BLACK
6
CONTINUOUS
10
1.9588557480314961
20
-2.1163360629921257
11
1.9693078740157479
21
-2.106995472440945
0
LINE
8
BLACK
6
CONTINUOUS
10
1.9693078740157479
20
-2.106995472440945
11
1.9807400787401575
21
-2.098883897637795
0
LINE
8
BLACK
6
CONTINUOUS
10
1.9807400787401575
20
-2.098883897637795
11
1.993008622047244
21
-2.0921033070866142
0
LINE
8
BLACK
6
CONTINUOUS
10
1.993008622047244
20
-2.0921033070866142
11
2.0059592125984254
21
-2.0867389763779527
0
LINE
8
BLACK
6
CONTINUOUS
10
2.0059592125984254
20
-2.0867389763779527
11
2.0194289763779527
21
-2.0828584251968505
0
LINE
8
BLACK
6
CONTINUOUS
10
2.0194289763779527
20
-2.0828584251968505
11
2.0332485433070864
21
-2.0805103937007874
0
LINE
8
BLACK
6
CONTINUOUS
10
2.0332485433070864
20
-2.0805103937007874
11
2.0472440944881889
21
-2.079724409448819
0
LINE
8
BLACK
6
CONTINUOUS
10
2.0472440944881889
20
-2.079724409448819
11
2.0612396456692914
21
-2.0805103937007874
0
LINE
8
BLACK
6
CONTINUOUS
10
1.9287120078740156
20
-2.2180797637795275
11
1.9309526377952755
21
-2.2312671653543306
0
LINE
8
BLACK
6
CONTINUOUS
10
1.9309526377952755
20
-2.2312671653543306
11
1.9346556692913386
21
-2.2441207874015747
0
LINE
8
BLACK
6
CONTINUOUS
10
1.9346556692913386
20
-2.2441207874015747
11
1.9397746062992125
21
-2.2564789763779527
0
LINE
8
BLACK
6
CONTINUOUS
10
1.9397746062992125
20
-2.2564789763779527
11
1.9462450393700788
21
-2.268186338582677
0
LINE
8
BLACK
6
CONTINUOUS
10
1.9462450393700788
20
-2.268186338582677
11
1.9539855905511812
21
-2.2790955905511812
0
LINE
8
BLACK
6
CONTINUOUS
10
1.9539855905511812
20
-2.2790955905511812
11
1.9628988976377952
21
-2.2890696062992126
0
LINE
8
BLACK
6
CONTINUOUS
10
1.9628988976377952
20
-2.2890696062992126
11
1.9728729133858267
21
-2.2979829133858267
0
LINE
8
BLACK
6
CONTINUOUS
10
1.9728729133858267
20
-2.2979829133858267
11
1.9837821653543306
21
-2.3057234645669289
0
LINE
8
BLACK
6
CONTINUOUS
10
1.9837821653543306
20
-2.3057234645669289
11
1.9954895275590552
21
-2.3121938976377954
0
LINE
8
BLACK
6
CONTINUOUS
10
1.9954895275590552
20
-2.3121938976377954
11
2.0078477165354331
21
-2.3173128346456693
0
LINE
8
BLACK
6
CONTINUOUS
10
2.0078477165354331
20
-2.3173128346456693
11
2.0207013385826773
21
-2.3210158661417322
0
LINE
8
BLACK
6
CONTINUOUS
10
2.0207013385826773
20
-2.3210158661417322
11
2.0338887401574803
21
-2.3232564960629922
0
LINE
8
BLACK
6
CONTINUOUS
10
2.0338887401574803
20
-2.3232564960629922
11
2.0472440944881889
21
-2.324006535433071
0
LINE
8
BLACK
6
CONTINUOUS
10
2.0472440944881889
20
-2.324006535433071
11
2.0605994488188975
21
-2.3232564960629922
0
LINE
8
BLACK
6
CONTINUOUS
10
2.0605994488188975
20
-2.3232564960629922
11
2.0737868503937009
21
-2.3210158661417322
0
LINE
8
BLACK
6
CONTINUOUS
10
2.0737868503937009
20
-2.3210158661417322
11
2.0866404724409446
21
-2.3173128346456693
0
LINE
8
BLACK
6
CONTINUOUS
10
2.0866404724409446
20
-2.3173128346456693
11
2.0989986614173226
21
-2.3121938976377954
0
LINE
8
BLACK
6
CONTINUOUS
10
2.0989986614173226
20
-2.3121938976377954
11
2.1107060236220474
21
-2.3057234645669289
0
LINE
8
BLACK
6
CONTINUOUS
10
2.1107060236220474
20
-2.3057234645669289
11
2.1216152755905511
21
-2.2979829133858267
0
LINE
8
BLACK
6
CONTINUOUS
10
2.1216152755905511
20
-2.2979829133858267
11
2.1315892913385825
21
-2.2890696062992126
0
LINE
8
BLACK
6
CONTINUOUS
10
2.1315892913385825
20
-2.2890696062992126
11
2.1405025984251966
21
-2.2790955905511812
0
LINE
8
BLACK
6
CONTINUOUS
10
2.1405025984251966
20
-2.2790955905511812
11
2.1482431496062993
21
-2.268186338582677
0
LINE
8
BLACK
6
CONTINUOUS
10
2.1482431496062993
20
-2.268186338582677
11
2.1547135826771653
21
-2.2564789763779527
0
LINE
8
BLACK
6
CONTINUOUS
10
2.1547135826771653
20
-2.2564789763779527
11
2.1598325196850392
21
-2.2441207874015747
0
LINE
8
BLACK
6
CONTINUOUS
10
2.1598325196850392
20
-2.2441207874015747
11
2.1635355511811025
21
-2.2312671653543306
0
LINE
8
BLACK
6
CONTINUOUS
10
2.1635355511811025
20
-2.2312671653543306
11
2.1657761811023621
21
-2.2180797637795275
0
LINE
8
BLACK
6
CONTINUOUS
10
2.1657761811023621
20
-2.2180797637795275
11
2.1665262204724409
21
-2.204724409448819
0
LINE
8
BLACK
6
CONTINUOUS
10
2.1665262204724409
20
-2.204724409448819
11
2.1657761811023621
21
-2.19136905511811
0
LINE
8
BLACK
6
CONTINUOUS
10
2.1657761811023621
20
-2.19136905511811
11
2.1635355511811025
21
-2.178181653543307
0
LINE
8
BLACK
6
CONTINUOUS
10
2.1635355511811025
20
-2.178181653543307
11
2.1598325196850392
21
-2.1653280314960628
0
LINE
8
BLACK
6
CONTINUOUS
10
2.1598325196850392
20
-2.1653280314960628
11
2.1547135826771653
21
-2.1529698425196848
0
LINE
8
BLACK
6
CONTINUOUS
10
2.1547135826771653
20
-2.1529698425196848
11
2.1482431496062993
21
-2.1412624803149605
0
LINE
8
BLACK
6
CONTINUOUS
10
2.1482431496062993
20
-2.1412624803149605
11
2.1405025984251966
21
-2.1303532283464568
0
LINE
8
BLACK
6
CONTINUOUS
10
2.1405025984251966
20
-2.1303532283464568
11
2.1315892913385825
21
-2.1203792125984253
0
LINE
8
BLACK
6
CONTINUOUS
10
2.1315892913385825
20
-2.1203792125984253
11
2.1216152755905511
21
-2.1114659055118108
0
LINE
8
BLACK
6
CONTINUOUS
10
2.1216152755905511
20
-2.1114659055118108
11
2.1107060236220474
21
-2.1037253543307086
0
LINE
8
BLACK
6
CONTINUOUS
10
2.1107060236220474
20
-2.1037253543307086
11
2.0989986614173226
21
-2.0972549212598426
0
LINE
8
BLACK
6
CONTINUOUS
10
2.0989986614173226
20
-2.0972549212598426
11
2.0866404724409446
21
-2.0921359842519687
0
LINE
8
BLACK
6
CONTINUOUS
10
2.0866404724409446
20
-2.0921359842519687
11
2.0737868503937009
21
-2.0884329527559053
0
LINE
8
BLACK
6
CONTINUOUS
10
2.0737868503937009
20
-2.0884329527559053
11
2.0605994488188975
21
-2.0861923228346457
0
LINE
8
BLACK
6
CONTINUOUS
10
2.0605994488188975
20
-2.0861923228346457
11
2.0472440944881889
21
-2.0854422834645669
0
LINE
8
BLACK
6
CONTINUOUS
10
2.0472440944881889
20
-2.0854422834645669
11
2.0338887401574803
21
-2.0861923228346457
0
LINE
8
BLACK
6
CONTINUOUS
10
2.0338887401574803
20
-2.0861923228346457
11
2.0207013385826773
21
-2.0884329527559053
0
LINE
8
BLACK
6
CONTINUOUS
10
2.0207013385826773
20
-2.0884329527559053
11
2.0078477165354331
21
-2.0921359842519687
0
LINE
8
BLACK
6
CONTINUOUS
10
2.0078477165354331
20
-2.0921359842519687
11
1.9954895275590552
21
-2.0972549212598426
0
LINE
8
BLACK
6
CONTINUOUS
10
1.9954895275590552
20
-2.0972549212598426
11
1.9837821653543306
21
-2.1037253543307086
0
LINE
8
BLACK
6
CONTINUOUS
10
1.9837821653543306
20
-2.1037253543307086
11
1.9728729133858267
21
-2.1114659055118108
0
LINE
8
BLACK
6
CONTINUOUS
10
1.9728729133858267
20
-2.1114659055118108
11
1.9628988976377952
21
-2.1203792125984253
0
LINE
8
BLACK
6
CONTINUOUS
10
1.9628988976377952
20
-2.1203792125984253
11
1.9539855905511812
21
-2.1303532283464568
0
LINE
8
BLACK
6
CONTINUOUS
10
1.9539855905511812
20
-2.1303532283464568
11
1.9462450393700788
21
-2.1412624803149605
0
LINE
8
BLACK
6
CONTINUOUS
10
1.9462450393700788
20
-2.1412624803149605
11
1.9397746062992125
21
-2.1529698425196848
0
LINE
8
BLACK
6
CONTINUOUS
10
1.9397746062992125
20
-2.1529698425196848
11
1.9346556692913386
21
-2.1653280314960628
0
LINE
8
BLACK
6
CONTINUOUS
10
1.9346556692913386
20
-2.1653280314960628
11
1.9309526377952755
21
-2.178181653543307
0
LINE
8
BLACK
6
CONTINUOUS
10
1.9309526377952755
20
-2.178181653543307
11
1.9287120078740156
21
-2.19136905511811
0
LINE
8
BLACK
6
CONTINUOUS
10
1.9287120078740156
20
-2.19136905511811
11
1.9279619685039369
21
-2.204724409448819
0
LINE
8
BLACK
6
CONTINUOUS
10
1.9279619685039369
20
-2.204724409448819
11
1.9287120078740156
21
-2.2180797637795275
0
LINE
8
BLACK
6
CONTINUOUS
10
4.3447042125984252
20
-2.0805103937007874
11
4.3585237795275589
21
-2.0828584251968505
0
LINE
8
BLACK
6
CONTINUOUS
10
4.3585237795275589
20
-2.0828584251968505
11
4.3719935433070862
21
-2.0867389763779527
0
LINE
8
BLACK
6
CONTINUOUS
10
4.3719935433070862
20
-2.0867389763779527
11
4.3849441338582675
21
-2.0921033070866142
0
LINE
8
BLACK
6
CONTINUOUS
10
4.3849441338582675
20
-2.0921033070866142
11
4.3972126771653546
21
-2.098883897637795
0
LINE
8
BLACK
6
CONTINUOUS
10
4.3972126771653546
20
-2.098883897637795
11
4.4086448818897637
21
-2.106995472440945
0
LINE
8
BLACK
6
CONTINUOUS
10
4.4086448818897637
20
-2.106995472440945
11
4.4190970078740159
21
-2.1163360629921257
0
LINE
8
BLACK
6
CONTINUOUS
10
4.4190970078740159
20
-2.1163360629921257
11
4.4284375984251971
21
-2.126788188976378
0
LINE
8
BLACK
6
CONTINUOUS
10
4.4284375984251971
20
-2.126788188976378
11
4.4365491732283466
21
-2.1382203937007875
0
LINE
8
BLACK
6
CONTINUOUS
10
4.4365491732283466
20
-2.1382203937007875
11
4.443329763779527
21
-2.1504889370078741
0
LINE
8
BLACK
6
CONTINUOUS
10
4.443329763779527
20
-2.1504889370078741
11
4.4486940944881885
21
-2.163439527559055
0
LINE
8
BLACK
6
CONTINUOUS
10
4.4486940944881885
20
-2.163439527559055
11
4.4525746456692916
21
-2.1769092913385828
0
LINE
8
BLACK
6
CONTINUOUS
10
4.4525746456692916
20
-2.1769092913385828
11
4.4549226771653538
21
-2.1907288582677165
0
LINE
8
BLACK
6
CONTINUOUS
10
4.4549226771653538
20
-2.1907288582677165
11
4.4557086614173231
21
-2.204724409448819
0
LINE
8
BLACK
6
CONTINUOUS
10
4.4557086614173231
20
-2.204724409448819
11
4.4549226771653538
21
-2.2187199606299211
0
LINE
8
BLACK
6
CONTINUOUS
10
4.4549226771653538
20
-2.2187199606299211
11
4.4525746456692916
21
-2.2325395275590552
0
LINE
8
BLACK
6
CONTINUOUS
10
4.4525746456692916
20
-2.2325395275590552
11
4.4486940944881885
21
-2.2460092913385825
0
LINE
8
BLACK
6
CONTINUOUS
10
4.4486940944881885
20
-2.2460092913385825
11
4.443329763779527
21
-2.2589598818897638
0
LINE
8
BLACK
6
CONTINUOUS
10
4.443329763779527
20
-2.2589598818897638
11
4.4365491732283466
21
-2.2712284251968504
0
LINE
8
BLACK
6
CONTINUOUS
10
4.4365491732283466
20
-2.2712284251968504
11
4.4284375984251971
21
-2.28266062992126
0
LINE
8
BLACK
6
CONTINUOUS
10
4.4284375984251971
20
-2.28266062992126
11
4.4190970078740159
21
-2.2931127559055118
0
LINE
8
BLACK
6
CONTINUOUS
10
4.4190970078740159
20
-2.2931127559055118
11
4.4086448818897637
21
-2.302453346456693
0
LINE
8
BLACK
6
CONTINUOUS
10
4.4086448818897637
20
-2.302453346456693
11
4.3972126771653546
21
-2.3105649212598425
0
LINE
8
BLACK
6
CONTINUOUS
10
4.3972126771653546
20
-2.3105649212598425
11
4.3849441338582675
21
-2.3173455118110238
0
LINE
8
BLACK
6
CONTINUOUS
10
4.3849441338582675
20
-2.3173455118110238
11
4.3719935433070862
21
-2.3227098425196848
0
LINE
8
BLACK
6
CONTINUOUS
10
4.3719935433070862
20
-2.3227098425196848
11
4.3585237795275589
21
-2.3265903937007875
0
LINE
8
BLACK
6
CONTINUOUS
10
4.3585237795275589
20
-2.3265903937007875
11
4.3447042125984252
21
-2.3289384251968501
0
LINE
8
BLACK
6
CONTINUOUS
10
4.3447042125984252
20
-2.3289384251968501
11
4.3307086614173231
21
-2.329724409448819
0
LINE
8
BLACK
6
CONTINUOUS
10
4.3307086614173231
20
-2.329724409448819
11
4.3167131102362202
21
-2.3289384251968501
0
LINE
8
BLACK
6
CONTINUOUS
10
4.3167131102362202
20
-2.3289384251968501
11
4.3028935433070865
21
-2.3265903937007875
0
LINE
8
BLACK
6
CONTINUOUS
10
4.3028935433070865
20
-2.3265903937007875
11
4.2894237795275592
21
-2.3227098425196848
0
LINE
8
BLACK
6
CONTINUOUS
10
4.2894237795275592
20
-2.3227098425196848
11
4.2764731889763778
21
-2.3173455118110238
0
LINE
8
BLACK
6
CONTINUOUS
10
4.2764731889763778
20
-2.3173455118110238
11
4.2642046456692908
21
-2.3105649212598425
0
LINE
8
BLACK
6
CONTINUOUS
10
4.2642046456692908
20
-2.3105649212598425
11
4.2527724409448817
21
-2.302453346456693
0
LINE
8
BLACK
6
CONTINUOUS
10
4.2527724409448817
20
-2.302453346456693
11
4.2423203149606294
21
-2.2931127559055118
0
LINE
8
BLACK
6
CONTINUOUS
10
4.2423203149606294
20
-2.2931127559055118
11
4.2329797244094491
21
-2.28266062992126
0
LINE
8
BLACK
6
CONTINUOUS
10
4.2329797244094491
20
-2.28266062992126
11
4.2248681496062988
21
-2.2712284251968504
0
LINE
8
BLACK
6
CONTINUOUS
10
4.2248681496062988
20
-2.2712284251968504
11
4.2180875590551183
21
-2.2589598818897638
0
LINE
8
BLACK
6
CONTINUOUS
10
4.2180875590551183
20
-2.2589598818897638
11
4.2127232283464568
21
-2.2460092913385825
0
LINE
8
BLACK
6
CONTINUOUS
10
4.2127232283464568
20
-2.2460092913385825
11
4.2088426771653547
21
-2.2325395275590552
0
LINE
8
BLACK
6
CONTINUOUS
10
4.2088426771653547
20
-2.2325395275590552
11
4.2064946456692915
21
-2.2187199606299211
0
LINE
8
BLACK
6
CONTINUOUS
10
4.2064946456692915
20
-2.2187199606299211
11
4.2057086614173231
21
-2.204724409448819
0
LINE
8
BLACK
6
CONTINUOUS
10
4.2057086614173231
20
-2.204724409448819
11
4.2064946456692915
21
-2.1907288582677165
0
LINE
8
BLACK
6
CONTINUOUS
10
4.2064946456692915
20
-2.1907288582677165
11
4.2088426771653547
21
-2.1769092913385828
0
LINE
8
BLACK
6
CONTINUOUS
10
4.2088426771653547
20
-2.1769092913385828
11
4.2127232283464568
21
-2.163439527559055
0
LINE
8
BLACK
6
CONTINUOUS
10
4.2127232283464568
20
-2.163439527559055
11
4.2180875590551183
21
-2.1504889370078741
0
LINE
8
BLACK
6
CONTINUOUS
10
4.2180875590551183
20
-2.1504889370078741
11
4.2248681496062988
21
-2.1382203937007875
0
LINE
8
BLACK
6
CONTINUOUS
10
4.2248681496062988
20
-2.1382203937007875
11
4.2329797244094491
21
-2.126788188976378
0
LINE
8
BLACK
6
CONTINUOUS
10
4.2329797244094491
20
-2.126788188976378
11
4.2423203149606294
21
-2.1163360629921257
0
LINE
8
BLACK
6
CONTINUOUS
10
4.2423203149606294
20
-2.1163360629921257
11
4.2527724409448817
21
-2.106995472440945
0
LINE
8
BLACK
6
CONTINUOUS
10
4.2527724409448817
20
-2.106995472440945
11
4.2642046456692908
21
-2.098883897637795
0
LINE
8
BLACK
6
CONTINUOUS
10
4.2642046456692908
20
-2.098883897637795
11
4.2764731889763778
21
-2.0921033070866142
0
LINE
8
BLACK
6
CONTINUOUS
10
4.2764731889763778
20
-2.0921033070866142
11
4.2894237795275592
21
-2.0867389763779527
0
LINE
8
BLACK
6
CONTINUOUS
10
4.2894237795275592
20
-2.0867389763779527
11
4.3028935433070865
21
-2.0828584251968505
0
LINE
8
BLACK
6
CONTINUOUS
10
4.3028935433070865
20
-2.0828584251968505
11
4.3167131102362202
21
-2.0805103937007874
0
LINE
8
BLACK
6
CONTINUOUS
10
4.3167131102362202
20
-2.0805103937007874
11
4.3307086614173231
21
-2.079724409448819
0
LINE
8
BLACK
6
CONTINUOUS
10
4.3307086614173231
20
-2.079724409448819
11
4.3447042125984252
21
-2.0805103937007874
0
LINE
8
BLACK
6
CONTINUOUS
10
4.2121765748031494
20
-2.2180797637795275
11
4.2144172047244091
21
-2.2312671653543306
0
LINE
8
BLACK
6
CONTINUOUS
10
4.2144172047244091
20
-2.2312671653543306
11
4.2181202362204724
21
-2.2441207874015747
0
LINE
8
BLACK
6
CONTINUOUS
10
4.2181202362204724
20
-2.2441207874015747
11
4.2232391732283467
21
-2.2564789763779527
0
LINE
8
BLACK
6
CONTINUOUS
10
4.2232391732283467
20
-2.2564789763779527
11
4.2297096062992123
21
-2.268186338582677
0
LINE
8
BLACK
6
CONTINUOUS
10
4.2297096062992123
20
-2.268186338582677
11
4.2374501574803149
21
-2.2790955905511812
0
LINE
8
BLACK
6
CONTINUOUS
10
4.2374501574803149
20
-2.2790955905511812
11
4.2463634645669295
21
-2.2890696062992126
0
LINE
8
BLACK
6
CONTINUOUS
10
4.2463634645669295
20
-2.2890696062992126
11
4.2563374803149605
21
-2.2979829133858267
0
LINE
8
BLACK
6
CONTINUOUS
10
4.2563374803149605
20
-2.2979829133858267
11
4.2672467322834642
21
-2.3057234645669289
0
LINE
8
BLACK
6
CONTINUOUS
10
4.2672467322834642
20
-2.3057234645669289
11
4.2789540944881885
21
-2.3121938976377954
0
LINE
8
BLACK
6
CONTINUOUS
10
4.2789540944881885
20
-2.3121938976377954
11
4.2913122834645669
21
-2.3173128346456693
0
LINE
8
BLACK
6
CONTINUOUS
10
4.2913122834645669
20
-2.3173128346456693
11
4.3041659055118107
21
-2.3210158661417322
0
LINE
8
BLACK
6
CONTINUOUS
10
4.3041659055118107
20
-2.3210158661417322
11
4.3173533070866137
21
-2.3232564960629922
0
LINE
8
BLACK
6
CONTINUOUS
10
4.3173533070866137
20
-2.3232564960629922
11
4.3307086614173231
21
-2.324006535433071
0
LINE
8
BLACK
6
CONTINUOUS
10
4.3307086614173231
20
-2.324006535433071
11
4.3440640157480317
21
-2.3232564960629922
0
LINE
8
BLACK
6
CONTINUOUS
10
4.3440640157480317
20
-2.3232564960629922
11
4.3572514173228347
21
-2.3210158661417322
0
LINE
8
BLACK
6
CONTINUOUS
10
4.3572514173228347
20
-2.3210158661417322
11
4.3701050393700784
21
-2.3173128346456693
0
LINE
8
BLACK
6
CONTINUOUS
10
4.3701050393700784
20
-2.3173128346456693
11
4.3824632283464569
21
-2.3121938976377954
0
LINE
8
BLACK
6
CONTINUOUS
10
4.3824632283464569
20
-2.3121938976377954
11
4.3941705905511812
21
-2.3057234645669289
0
LINE
8
BLACK
6
CONTINUOUS
10
4.3941705905511812
20
-2.3057234645669289
11
4.4050798425196849
21
-2.2979829133858267
0
LINE
8
BLACK
6
CONTINUOUS
10
4.4050798425196849
20
-2.2979829133858267
11
4.4150538582677168
21
-2.2890696062992126
0
LINE
8
BLACK
6
CONTINUOUS
10
4.4150538582677168
20
-2.2890696062992126
11
4.4239671653543304
21
-2.2790955905511812
0
LINE
8
BLACK
6
CONTINUOUS
10
4.4239671653543304
20
-2.2790955905511812
11
4.4317077165354331
21
-2.268186338582677
0
LINE
8
BLACK
6
CONTINUOUS
10
4.4317077165354331
20
-2.268186338582677
11
4.4381781496062995
21
-2.2564789763779527
0
LINE
8
BLACK
6
CONTINUOUS
10
4.4381781496062995
20
-2.2564789763779527
11
4.443297086614173
21
-2.2441207874015747
0
LINE
8
BLACK
6
CONTINUOUS
10
4.443297086614173
20
-2.2441207874015747
11
4.4470001181102363
21
-2.2312671653543306
0
LINE
8
BLACK
6
CONTINUOUS
10
4.4470001181102363
20
-2.2312671653543306
11
4.4492407480314959
21
-2.2180797637795275
0
LINE
8
BLACK
6
CONTINUOUS
10
4.4492407480314959
20
-2.2180797637795275
11
4.4499907874015747
21
-2.204724409448819
0
LINE
8
BLACK
6
CONTINUOUS
10
4.4499907874015747
20
-2.204724409448819
11
4.4492407480314959
21
-2.19136905511811
0
LINE
8
BLACK
6
CONTINUOUS
10
4.4492407480314959
20
-2.19136905511811
11
4.4470001181102363
21
-2.178181653543307
0
LINE
8
BLACK
6
CONTINUOUS
10
4.4470001181102363
20
-2.178181653543307
11
4.443297086614173
21
-2.1653280314960628
0
LINE
8
BLACK
6
CONTINUOUS
10
4.443297086614173
20
-2.1653280314960628
11
4.4381781496062995
21
-2.1529698425196848
0
LINE
8
BLACK
6
CONTINUOUS
10
4.4381781496062995
20
-2.1529698425196848
11
4.4317077165354331
21
-2.1412624803149605
0
LINE
8
BLACK
6
CONTINUOUS
10
4.4317077165354331
20
-2.1412624803149605
11
4.4239671653543304
21
-2.1303532283464568
0
LINE
8
BLACK
6
CONTINUOUS
10
4.4239671653543304
20
-2.1303532283464568
11
4.4150538582677168
21
-2.1203792125984253
0
LINE
8
BLACK
6
CONTINUOUS
10
4.4150538582677168
20
-2.1203792125984253
11
4.4050798425196849
21
-2.1114659055118108
0
LINE
8
BLACK
6
CONTINUOUS
10
4.4050798425196849
20
-2.1114659055118108
11
4.3941705905511812
21
-2.1037253543307086
0
LINE
8
BLACK
6
CONTINUOUS
10
4.3941705905511812
20
-2.1037253543307086
11
4.3824632283464569
21
-2.0972549212598426
0
LINE
8
BLACK
6
CONTINUOUS
10
4.3824632283464569
20
-2.0972549212598426
11
4.3701050393700784
21
-2.0921359842519687
0
LINE
8
BLACK
6
CONTINUOUS
10
4.3701050393700784
20
-2.0921359842519687
11
4.3572514173228347
21
-2.0884329527559053
0
LINE
8
BLACK
6
CONTINUOUS
10
4.3572514173228347
20
-2.0884329527559053
11
4.3440640157480317
21
-2.0861923228346457
0
LINE
8
BLACK
6
CONTINUOUS
10
4.3440640157480317
20
-2.0861923228346457
11
4.3307086614173231
21
-2.0854422834645669
0
LINE
8
BLACK
6
CONTINUOUS
10
4.3307086614173231
20
-2.0854422834645669
11
4.3173533070866137
21
-2.0861923228346457
0
LINE
8
BLACK
6
CONTINUOUS
10
4.3173533070866137
20
-2.0861923228346457
11
4.3041659055118107
21
-2.0884329527559053
0
LINE
8
BLACK
6
CONTINUOUS
10
4.3041659055118107
20
-2.0884329527559053
11
4.2913122834645669
21
-2.0921359842519687
0
LINE
8
BLACK
6
CONTINUOUS
10
4.2913122834645669
20
-2.0921359842519687
11
4.2789540944881885
21
-2.0972549212598426
0
LINE
8
BLACK
6
CONTINUOUS
10
4.2789540944881885
20
-2.0972549212598426
11
4.2672467322834642
21
-2.1037253543307086
0
LINE
8
BLACK
6
CONTINUOUS
10
4.2672467322834642
20
-2.1037253543307086
11
4.2563374803149605
21
-2.1114659055118108
0
LINE
8
BLACK
6
CONTINUOUS
10
4.2563374803149605
20
-2.1114659055118108
11
4.2463634645669295
21
-2.1203792125984253
0
LINE
8
BLACK
6
CONTINUOUS
10
4.2463634645669295
20
-2.1203792125984253
11
4.2374501574803149
21
-2.1303532283464568
0
LINE
8
BLACK
6
CONTINUOUS
10
4.2374501574803149
20
-2.1303532283464568
11
4.2297096062992123
21
-2.1412624803149605
0
LINE
8
BLACK
6
CONTINUOUS
10
4.2297096062992123
20
-2.1412624803149605
11
4.2232391732283467
21
-2.1529698425196848
0
LINE
8
BLACK
6
CONTINUOUS
10
4.2232391732283467
20
-2.1529698425196848
11
4.2181202362204724
21
-2.1653280314960628
0
LINE
8
BLACK
6
CONTINUOUS
10
4.2181202362204724
20
-2.1653280314960628
11
4.2144172047244091
21
-2.178181653543307
0
LINE
8
BLACK
6
CONTINUOUS
10
4.2144172047244091
20
-2.178181653543307
11
4.2121765748031494
21
-2.19136905511811
0
LINE
8
BLACK
6
CONTINUOUS
10
4.2121765748031494
20
-2.19136905511811
11
4.2114265354330707
21
-2.204724409448819
0
LINE
8
BLACK
6
CONTINUOUS
10
4.2114265354330707
20
-2.204724409448819
11
4.2121765748031494
21
-2.2180797637795275
  0
ENDSEC
  0
EOF
