  0
SECTION
  2
HEADER
  9
$ANGBASE
  50
0.0
  9
$ANGDIR
  70
1
  9
$MEASUREMENT
  70
0
  0
ENDSEC
  0
SECTION
  2
TABLES
  0
TABLE
  2
LTYPE
  70
4
  0
LTYPE
  5
40F
  2
CONTINUOUS
  70
0
  3
Solid line
  72
65
  73
0
  40
0.0
  0
LTYPE
  5
410
  2
DASHDOT
 70
0
  3
Dash Dot ____ _ ____ _
 72
65
 73
4
 40
2.0
 49
1.25
 49
-0.25
 49
0.25
 49
-0.25
  0
LTYPE
  5
411
  2
DASHED
 70
0
  3
Dashed __ __ __ __ __
 72
65
 73
2
 40
0.75
 49
0.5
 49
-0.25
  0
LTYPE
  5
43B
  2
DOTTED
 70
0
  3
Dotted .  .  .  .
 72
65
 73
2
 40
0.2
 49
0.0
 49
-0.2
  0
ENDTAB
  0
TABLE
  2
STYLE
  70
4
  0
STYLE
  2
KICAD
  70
0
  40
0
  41
1
  42
1
  50
0
  71
0
  3
isocp.shx
  0
STYLE
  2
KICADB
  70
0
  40
0
  41
1
  42
1
  50
0
  71
0
  3
isocp.shx
  0
STYLE
  2
KICADI
  70
0
  40
0
  41
1
  42
1
  50
15
  71
0
  3
isocp.shx
  0
STYLE
  2
KICADBI
  70
0
  40
0
  41
1
  42
1
  50
15
  71
0
  3
isocp.shx
  0
ENDTAB
  0
TABLE
  2
LAYER
  70
1
  0
LAYER
  2
BLACK
  70
0
  62
7
  6
CONTINUOUS
  0
ENDTAB
  0
ENDSEC
  0
SECTION
  2
ENTITIES
0
CIRCLE
8
BLACK
10
4.3307086614173231
20
-2.204724409448819
40
0.0541338582677165
0
CIRCLE
8
BLACK
10
2.0472440944881889
20
-2.204724409448819
40
0.0541338582677165
0
CIRCLE
8
BLACK
10
2.0472440944881889
20
-4.1338582677165352
40
0.0541338582677165
0
CIRCLE
8
BLACK
10
4.3307086614173231
20
-4.1338582677165352
40
0.0541338582677165
0
CIRCLE
8
BLACK
10
2.2389763779527558
20
-2.2547244094488188
40
0.02
0
CIRCLE
8
BLACK
10
2.2389763779527558
20
-2.1547244094488187
40
0.02
0
CIRCLE
8
BLACK
10
2.3389763779527559
20
-2.2547244094488188
40
0.02
0
CIRCLE
8
BLACK
10
2.3389763779527559
20
-2.1547244094488187
40
0.02
0
CIRCLE
8
BLACK
10
2.438976377952756
20
-2.2547244094488188
40
0.02
0
CIRCLE
8
BLACK
10
2.438976377952756
20
-2.1547244094488187
40
0.02
0
CIRCLE
8
BLACK
10
2.5389763779527557
20
-2.2547244094488188
40
0.02
0
CIRCLE
8
BLACK
10
2.5389763779527557
20
-2.1547244094488187
40
0.02
0
CIRCLE
8
BLACK
10
2.6389763779527557
20
-2.2547244094488188
40
0.02
0
CIRCLE
8
BLACK
10
2.6389763779527557
20
-2.1547244094488187
40
0.02
0
CIRCLE
8
BLACK
10
2.7389763779527558
20
-2.2547244094488188
40
0.02
0
CIRCLE
8
BLACK
10
2.7389763779527558
20
-2.1547244094488187
40
0.02
0
CIRCLE
8
BLACK
10
2.8389763779527559
20
-2.2547244094488188
40
0.02
0
CIRCLE
8
BLACK
10
2.8389763779527559
20
-2.1547244094488187
40
0.02
0
CIRCLE
8
BLACK
10
2.938976377952756
20
-2.2547244094488188
40
0.02
0
CIRCLE
8
BLACK
10
2.938976377952756
20
-2.1547244094488187
40
0.02
0
CIRCLE
8
BLACK
10
3.0389763779527557
20
-2.2547244094488188
40
0.02
0
CIRCLE
8
BLACK
10
3.0389763779527557
20
-2.1547244094488187
40
0.02
0
CIRCLE
8
BLACK
10
3.1389763779527557
20
-2.2547244094488188
40
0.02
0
CIRCLE
8
BLACK
10
3.1389763779527557
20
-2.1547244094488187
40
0.02
0
CIRCLE
8
BLACK
10
3.2389763779527558
20
-2.2547244094488188
40
0.02
0
CIRCLE
8
BLACK
10
3.2389763779527558
20
-2.1547244094488187
40
0.02
0
CIRCLE
8
BLACK
10
3.3389763779527559
20
-2.2547244094488188
40
0.02
0
CIRCLE
8
BLACK
10
3.3389763779527559
20
-2.1547244094488187
40
0.02
0
CIRCLE
8
BLACK
10
3.438976377952756
20
-2.2547244094488188
40
0.02
0
CIRCLE
8
BLACK
10
3.438976377952756
20
-2.1547244094488187
40
0.02
0
CIRCLE
8
BLACK
10
3.5389763779527557
20
-2.2547244094488188
40
0.02
0
CIRCLE
8
BLACK
10
3.5389763779527557
20
-2.1547244094488187
40
0.02
0
CIRCLE
8
BLACK
10
3.6389763779527557
20
-2.2547244094488188
40
0.02
0
CIRCLE
8
BLACK
10
3.6389763779527557
20
-2.1547244094488187
40
0.02
0
CIRCLE
8
BLACK
10
3.7389763779527558
20
-2.2547244094488188
40
0.02
0
CIRCLE
8
BLACK
10
3.7389763779527558
20
-2.1547244094488187
40
0.02
0
CIRCLE
8
BLACK
10
3.8389763779527559
20
-2.2547244094488188
40
0.02
0
CIRCLE
8
BLACK
10
3.8389763779527559
20
-2.1547244094488187
40
0.02
0
CIRCLE
8
BLACK
10
3.938976377952756
20
-2.2547244094488188
40
0.02
0
CIRCLE
8
BLACK
10
3.938976377952756
20
-2.1547244094488187
40
0.02
0
CIRCLE
8
BLACK
10
4.0389763779527561
20
-2.2547244094488188
40
0.02
0
CIRCLE
8
BLACK
10
4.0389763779527561
20
-2.1547244094488187
40
0.02
0
CIRCLE
8
BLACK
10
4.1389763779527557
20
-2.2547244094488188
40
0.02
0
CIRCLE
8
BLACK
10
4.1389763779527557
20
-2.1547244094488187
40
0.02
0
CIRCLE
8
BLACK
10
2.4937007874015746
20
-3.5842519685039371
40
0.0196850393700787
0
CIRCLE
8
BLACK
10
2.4937007874015746
20
-3.6842519685039368
40
0.0196850393700787
0
CIRCLE
8
BLACK
10
2.5937007874015747
20
-3.5842519685039371
40
0.0196850393700787
0
CIRCLE
8
BLACK
10
2.5937007874015747
20
-3.6842519685039368
40
0.0196850393700787
0
CIRCLE
8
BLACK
10
2.6937007874015748
20
-3.5842519685039371
40
0.0196850393700787
0
CIRCLE
8
BLACK
10
2.6937007874015748
20
-3.6842519685039368
40
0.0196850393700787
0
CIRCLE
8
BLACK
10
4.3381889763779524
20
-3.5196850393700787
40
0.0196850393700787
0
CIRCLE
8
BLACK
10
4.2381889763779528
20
-3.5196850393700787
40
0.0196850393700787
0
CIRCLE
8
BLACK
10
4.3381889763779524
20
-3.6196850393700788
40
0.0196850393700787
0
CIRCLE
8
BLACK
10
4.2381889763779528
20
-3.6196850393700788
40
0.0196850393700787
0
CIRCLE
8
BLACK
10
4.3381889763779524
20
-3.7196850393700784
40
0.0196850393700787
0
CIRCLE
8
BLACK
10
4.2381889763779528
20
-3.7196850393700784
40
0.0196850393700787
0
CIRCLE
8
BLACK
10
3.6594488188976375
20
-3.6644488188976378
40
0.0059055118110236
0
CIRCLE
8
BLACK
10
3.693569566929134
20
-3.6644488188976378
40
0.0059055118110236
0
CIRCLE
8
BLACK
10
3.7276902755905512
20
-3.6644488188976378
40
0.0059055118110236
0
CIRCLE
8
BLACK
10
3.7618110236220472
20
-3.6644488188976378
40
0.0059055118110236
0
CIRCLE
8
BLACK
10
3.6594488188976375
20
-3.6303280708661418
40
0.0059055118110236
0
CIRCLE
8
BLACK
10
3.693569566929134
20
-3.6303280708661418
40
0.0059055118110236
0
CIRCLE
8
BLACK
10
3.7276902755905512
20
-3.6303280708661418
40
0.0059055118110236
0
CIRCLE
8
BLACK
10
3.7618110236220472
20
-3.6303280708661418
40
0.0059055118110236
0
CIRCLE
8
BLACK
10
3.6594488188976375
20
-3.5962073622047241
40
0.0059055118110236
0
CIRCLE
8
BLACK
10
3.693569566929134
20
-3.5962073622047241
40
0.0059055118110236
0
CIRCLE
8
BLACK
10
3.7276902755905512
20
-3.5962073622047241
40
0.0059055118110236
0
CIRCLE
8
BLACK
10
3.7618110236220472
20
-3.5962073622047241
40
0.0059055118110236
0
CIRCLE
8
BLACK
10
3.6594488188976375
20
-3.5620866141732281
40
0.0059055118110236
0
CIRCLE
8
BLACK
10
3.693569566929134
20
-3.5620866141732281
40
0.0059055118110236
0
CIRCLE
8
BLACK
10
3.7276902755905512
20
-3.5620866141732281
40
0.0059055118110236
0
CIRCLE
8
BLACK
10
3.7618110236220472
20
-3.5620866141732281
40
0.0059055118110236
  0
ENDSEC
  0
EOF
