  0
SECTION
  2
HEADER
  9
$ANGBASE
  50
0.0
  9
$ANGDIR
  70
1
  9
$MEASUREMENT
  70
0
  0
ENDSEC
  0
SECTION
  2
TABLES
  0
TABLE
  2
LTYPE
  70
4
  0
LTYPE
  5
40F
  2
CONTINUOUS
  70
0
  3
Solid line
  72
65
  73
0
  40
0.0
  0
LTYPE
  5
410
  2
DASHDOT
 70
0
  3
Dash Dot ____ _ ____ _
 72
65
 73
4
 40
2.0
 49
1.25
 49
-0.25
 49
0.25
 49
-0.25
  0
LTYPE
  5
411
  2
DASHED
 70
0
  3
Dashed __ __ __ __ __
 72
65
 73
2
 40
0.75
 49
0.5
 49
-0.25
  0
LTYPE
  5
43B
  2
DOTTED
 70
0
  3
Dotted .  .  .  .
 72
65
 73
2
 40
0.2
 49
0.0
 49
-0.2
  0
ENDTAB
  0
TABLE
  2
STYLE
  70
4
  0
STYLE
  2
KICAD
  70
0
  40
0
  41
1
  42
1
  50
0
  71
0
  3
isocp.shx
  0
STYLE
  2
KICADB
  70
0
  40
0
  41
1
  42
1
  50
0
  71
0
  3
isocp.shx
  0
STYLE
  2
KICADI
  70
0
  40
0
  41
1
  42
1
  50
15
  71
0
  3
isocp.shx
  0
STYLE
  2
KICADBI
  70
0
  40
0
  41
1
  42
1
  50
15
  71
0
  3
isocp.shx
  0
ENDTAB
  0
TABLE
  2
LAYER
  70
1
  0
LAYER
  2
BLACK
  70
0
  62
7
  6
CONTINUOUS
  0
ENDTAB
  0
ENDSEC
  0
SECTION
  2
ENTITIES
0
LINE
8
BLACK
6
CONTINUOUS
10
2.0612580314960631
20
-4.0785185039370075
11
2.0701755118110237
21
-4.0815798818897635
0
LINE
8
BLACK
6
CONTINUOUS
10
2.0701755118110237
20
-4.0815798818897635
11
2.0784675196850393
21
-4.0860672834645673
0
LINE
8
BLACK
6
CONTINUOUS
10
2.0784675196850393
20
-4.0860672834645673
11
2.0859077952755904
21
-4.0918582677165354
0
LINE
8
BLACK
6
CONTINUOUS
10
2.0859077952755904
20
-4.0918582677165354
11
2.0922934645669291
21
-4.0987949606299212
0
LINE
8
BLACK
6
CONTINUOUS
10
2.0922934645669291
20
-4.0987949606299212
11
2.0974502755905511
21
-4.1066880314960628
0
LINE
8
BLACK
6
CONTINUOUS
10
2.0974502755905511
20
-4.1066880314960628
11
2.1012375984251968
21
-4.1153222834645664
0
LINE
8
BLACK
6
CONTINUOUS
10
2.1012375984251968
20
-4.1153222834645664
11
2.103552125984252
21
-4.1244621259842518
0
LINE
8
BLACK
6
CONTINUOUS
10
2.103552125984252
20
-4.1244621259842518
11
2.1043307086614171
21
-4.1338582677165352
0
LINE
8
BLACK
6
CONTINUOUS
10
2.1043307086614171
20
-4.1338582677165352
11
2.103552125984252
21
-4.1432544094488186
0
LINE
8
BLACK
6
CONTINUOUS
10
2.103552125984252
20
-4.1432544094488186
11
2.1012375984251968
21
-4.152394251968504
0
LINE
8
BLACK
6
CONTINUOUS
10
2.1012375984251968
20
-4.152394251968504
11
2.0974502755905511
21
-4.1610285039370076
0
LINE
8
BLACK
6
CONTINUOUS
10
2.0974502755905511
20
-4.1610285039370076
11
2.0922934645669291
21
-4.1689215748031492
0
LINE
8
BLACK
6
CONTINUOUS
10
2.0922934645669291
20
-4.1689215748031492
11
2.0859077952755904
21
-4.175858267716535
0
LINE
8
BLACK
6
CONTINUOUS
10
2.0859077952755904
20
-4.175858267716535
11
2.0784675196850393
21
-4.181649251968504
0
LINE
8
BLACK
6
CONTINUOUS
10
2.0784675196850393
20
-4.181649251968504
11
2.0701755118110237
21
-4.1861366535433069
0
LINE
8
BLACK
6
CONTINUOUS
10
2.0701755118110237
20
-4.1861366535433069
11
2.0612580314960631
21
-4.1891980314960628
0
LINE
8
BLACK
6
CONTINUOUS
10
2.0612580314960631
20
-4.1891980314960628
11
2.0519582677165356
21
-4.190749921259842
0
LINE
8
BLACK
6
CONTINUOUS
10
2.0519582677165356
20
-4.190749921259842
11
2.0425299212598427
21
-4.190749921259842
0
LINE
8
BLACK
6
CONTINUOUS
10
2.0425299212598427
20
-4.190749921259842
11
2.0332301574803151
21
-4.1891980314960628
0
LINE
8
BLACK
6
CONTINUOUS
10
2.0332301574803151
20
-4.1891980314960628
11
2.0243126771653541
21
-4.1861366535433069
0
LINE
8
BLACK
6
CONTINUOUS
10
2.0243126771653541
20
-4.1861366535433069
11
2.0160206692913385
21
-4.181649251968504
0
LINE
8
BLACK
6
CONTINUOUS
10
2.0160206692913385
20
-4.181649251968504
11
2.0085803937007873
21
-4.175858267716535
0
LINE
8
BLACK
6
CONTINUOUS
10
2.0085803937007873
20
-4.175858267716535
11
2.0021947244094487
21
-4.1689215748031492
0
LINE
8
BLACK
6
CONTINUOUS
10
2.0021947244094487
20
-4.1689215748031492
11
1.9970379133858267
21
-4.1610285039370076
0
LINE
8
BLACK
6
CONTINUOUS
10
1.9970379133858267
20
-4.1610285039370076
11
1.993250590551181
21
-4.152394251968504
0
LINE
8
BLACK
6
CONTINUOUS
10
1.993250590551181
20
-4.152394251968504
11
1.990936062992126
21
-4.1432544094488186
0
LINE
8
BLACK
6
CONTINUOUS
10
1.990936062992126
20
-4.1432544094488186
11
1.9901574803149606
21
-4.1338582677165352
0
LINE
8
BLACK
6
CONTINUOUS
10
1.9901574803149606
20
-4.1338582677165352
11
1.990936062992126
21
-4.1244621259842518
0
LINE
8
BLACK
6
CONTINUOUS
10
1.990936062992126
20
-4.1244621259842518
11
1.993250590551181
21
-4.1153222834645664
0
LINE
8
BLACK
6
CONTINUOUS
10
1.993250590551181
20
-4.1153222834645664
11
1.9970379133858267
21
-4.1066880314960628
0
LINE
8
BLACK
6
CONTINUOUS
10
1.9970379133858267
20
-4.1066880314960628
11
2.0021947244094487
21
-4.0987949606299212
0
LINE
8
BLACK
6
CONTINUOUS
10
2.0021947244094487
20
-4.0987949606299212
11
2.0085803937007873
21
-4.0918582677165354
0
LINE
8
BLACK
6
CONTINUOUS
10
2.0085803937007873
20
-4.0918582677165354
11
2.0160206692913385
21
-4.0860672834645673
0
LINE
8
BLACK
6
CONTINUOUS
10
2.0160206692913385
20
-4.0860672834645673
11
2.0243126771653541
21
-4.0815798818897635
0
LINE
8
BLACK
6
CONTINUOUS
10
2.0243126771653541
20
-4.0815798818897635
11
2.0332301574803151
21
-4.0785185039370075
0
LINE
8
BLACK
6
CONTINUOUS
10
2.0332301574803151
20
-4.0785185039370075
11
2.0425299212598427
21
-4.0769666141732284
0
LINE
8
BLACK
6
CONTINUOUS
10
2.0425299212598427
20
-4.0769666141732284
11
2.0519582677165356
21
-4.0769666141732284
0
LINE
8
BLACK
6
CONTINUOUS
10
2.0519582677165356
20
-4.0769666141732284
11
2.0612580314960631
21
-4.0785185039370075
0
LINE
8
BLACK
6
CONTINUOUS
10
1.9966479921259843
20
-4.1427797244094489
11
1.9989658661417322
21
-4.1514301181102358
0
LINE
8
BLACK
6
CONTINUOUS
10
1.9989658661417322
20
-4.1514301181102358
11
2.0027506299212599
21
-4.1595465748031497
0
LINE
8
BLACK
6
CONTINUOUS
10
2.0027506299212599
20
-4.1595465748031497
11
2.0078873228346454
21
-4.1668825196850392
0
LINE
8
BLACK
6
CONTINUOUS
10
2.0078873228346454
20
-4.1668825196850392
11
2.0142198425196849
21
-4.1732150393700786
0
LINE
8
BLACK
6
CONTINUOUS
10
2.0142198425196849
20
-4.1732150393700786
11
2.0215557874015748
21
-4.1783517322834642
0
LINE
8
BLACK
6
CONTINUOUS
10
2.0215557874015748
20
-4.1783517322834642
11
2.0296722440944883
21
-4.1821364960629923
0
LINE
8
BLACK
6
CONTINUOUS
10
2.0296722440944883
20
-4.1821364960629923
11
2.0383226377952757
21
-4.1844543700787398
0
LINE
8
BLACK
6
CONTINUOUS
10
2.0383226377952757
20
-4.1844543700787398
11
2.0472440944881889
21
-4.1852348818897633
0
LINE
8
BLACK
6
CONTINUOUS
10
2.0472440944881889
20
-4.1852348818897633
11
2.0561655511811021
21
-4.1844543700787398
0
LINE
8
BLACK
6
CONTINUOUS
10
2.0561655511811021
20
-4.1844543700787398
11
2.0648159448818899
21
-4.1821364960629923
0
LINE
8
BLACK
6
CONTINUOUS
10
2.0648159448818899
20
-4.1821364960629923
11
2.072932401574803
21
-4.1783517322834642
0
LINE
8
BLACK
6
CONTINUOUS
10
2.072932401574803
20
-4.1783517322834642
11
2.0802683464566929
21
-4.1732150393700786
0
LINE
8
BLACK
6
CONTINUOUS
10
2.0802683464566929
20
-4.1732150393700786
11
2.0866008661417323
21
-4.1668825196850392
0
LINE
8
BLACK
6
CONTINUOUS
10
2.0866008661417323
20
-4.1668825196850392
11
2.0917375590551179
21
-4.1595465748031497
0
LINE
8
BLACK
6
CONTINUOUS
10
2.0917375590551179
20
-4.1595465748031497
11
2.0955223228346456
21
-4.1514301181102358
0
LINE
8
BLACK
6
CONTINUOUS
10
2.0955223228346456
20
-4.1514301181102358
11
2.0978401968503935
21
-4.1427797244094489
0
LINE
8
BLACK
6
CONTINUOUS
10
2.0978401968503935
20
-4.1427797244094489
11
2.0986207086614175
21
-4.1338582677165352
0
LINE
8
BLACK
6
CONTINUOUS
10
2.0986207086614175
20
-4.1338582677165352
11
2.0978401968503935
21
-4.1249368110236215
0
LINE
8
BLACK
6
CONTINUOUS
10
2.0978401968503935
20
-4.1249368110236215
11
2.0955223228346456
21
-4.1162864173228346
0
LINE
8
BLACK
6
CONTINUOUS
10
2.0955223228346456
20
-4.1162864173228346
11
2.0917375590551179
21
-4.1081699606299216
0
LINE
8
BLACK
6
CONTINUOUS
10
2.0917375590551179
20
-4.1081699606299216
11
2.0866008661417323
21
-4.1008340157480312
0
LINE
8
BLACK
6
CONTINUOUS
10
2.0866008661417323
20
-4.1008340157480312
11
2.0802683464566929
21
-4.0945014960629917
0
LINE
8
BLACK
6
CONTINUOUS
10
2.0802683464566929
20
-4.0945014960629917
11
2.072932401574803
21
-4.0893648031496062
0
LINE
8
BLACK
6
CONTINUOUS
10
2.072932401574803
20
-4.0893648031496062
11
2.0648159448818899
21
-4.085580039370079
0
LINE
8
BLACK
6
CONTINUOUS
10
2.0648159448818899
20
-4.085580039370079
11
2.0561655511811021
21
-4.0832621653543306
0
LINE
8
BLACK
6
CONTINUOUS
10
2.0561655511811021
20
-4.0832621653543306
11
2.0472440944881889
21
-4.0824816535433071
0
LINE
8
BLACK
6
CONTINUOUS
10
2.0472440944881889
20
-4.0824816535433071
11
2.0383226377952757
21
-4.0832621653543306
0
LINE
8
BLACK
6
CONTINUOUS
10
2.0383226377952757
20
-4.0832621653543306
11
2.0296722440944883
21
-4.085580039370079
0
LINE
8
BLACK
6
CONTINUOUS
10
2.0296722440944883
20
-4.085580039370079
11
2.0215557874015748
21
-4.0893648031496062
0
LINE
8
BLACK
6
CONTINUOUS
10
2.0215557874015748
20
-4.0893648031496062
11
2.0142198425196849
21
-4.0945014960629917
0
LINE
8
BLACK
6
CONTINUOUS
10
2.0142198425196849
20
-4.0945014960629917
11
2.0078873228346454
21
-4.1008340157480312
0
LINE
8
BLACK
6
CONTINUOUS
10
2.0078873228346454
20
-4.1008340157480312
11
2.0027506299212599
21
-4.1081699606299216
0
LINE
8
BLACK
6
CONTINUOUS
10
2.0027506299212599
20
-4.1081699606299216
11
1.9989658661417322
21
-4.1162864173228346
0
LINE
8
BLACK
6
CONTINUOUS
10
1.9989658661417322
20
-4.1162864173228346
11
1.9966479921259843
21
-4.1249368110236215
0
LINE
8
BLACK
6
CONTINUOUS
10
1.9966479921259843
20
-4.1249368110236215
11
1.9958674803149605
21
-4.1338582677165352
0
LINE
8
BLACK
6
CONTINUOUS
10
1.9958674803149605
20
-4.1338582677165352
11
1.9966479921259843
21
-4.1427797244094489
0
LINE
8
BLACK
6
CONTINUOUS
10
2.0612396456692914
20
-4.0096442519685036
11
2.0750592125984251
21
-4.0119922834645667
0
LINE
8
BLACK
6
CONTINUOUS
10
2.0750592125984251
20
-4.0119922834645667
11
2.0885289763779529
21
-4.0158728346456689
0
LINE
8
BLACK
6
CONTINUOUS
10
2.0885289763779529
20
-4.0158728346456689
11
2.1014795669291337
21
-4.0212371653543304
0
LINE
8
BLACK
6
CONTINUOUS
10
2.1014795669291337
20
-4.0212371653543304
11
2.1137481102362203
21
-4.0280177559055117
0
LINE
8
BLACK
6
CONTINUOUS
10
2.1137481102362203
20
-4.0280177559055117
11
2.1251803149606299
21
-4.0361293307086612
0
LINE
8
BLACK
6
CONTINUOUS
10
2.1251803149606299
20
-4.0361293307086612
11
2.1356324409448817
21
-4.0454699212598424
0
LINE
8
BLACK
6
CONTINUOUS
10
2.1356324409448817
20
-4.0454699212598424
11
2.1449730314960629
21
-4.0559220472440947
0
LINE
8
BLACK
6
CONTINUOUS
10
2.1449730314960629
20
-4.0559220472440947
11
2.1530846062992124
21
-4.0673542519685038
0
LINE
8
BLACK
6
CONTINUOUS
10
2.1530846062992124
20
-4.0673542519685038
11
2.1598651968503937
21
-4.0796227952755908
0
LINE
8
BLACK
6
CONTINUOUS
10
2.1598651968503937
20
-4.0796227952755908
11
2.1652295275590552
21
-4.0925733858267712
0
LINE
8
BLACK
6
CONTINUOUS
10
2.1652295275590552
20
-4.0925733858267712
11
2.1691100787401574
21
-4.1060431496062995
0
LINE
8
BLACK
6
CONTINUOUS
10
2.1691100787401574
20
-4.1060431496062995
11
2.1714581102362205
21
-4.1198627165354331
0
LINE
8
BLACK
6
CONTINUOUS
10
2.1714581102362205
20
-4.1198627165354331
11
2.1722440944881889
21
-4.1338582677165352
0
LINE
8
BLACK
6
CONTINUOUS
10
2.1722440944881889
20
-4.1338582677165352
11
2.1714581102362205
21
-4.1478538188976373
0
LINE
8
BLACK
6
CONTINUOUS
10
2.1714581102362205
20
-4.1478538188976373
11
2.1691100787401574
21
-4.1616733858267718
0
LINE
8
BLACK
6
CONTINUOUS
10
2.1691100787401574
20
-4.1616733858267718
11
2.1652295275590552
21
-4.1751431496062992
0
LINE
8
BLACK
6
CONTINUOUS
10
2.1652295275590552
20
-4.1751431496062992
11
2.1598651968503937
21
-4.1880937401574805
0
LINE
8
BLACK
6
CONTINUOUS
10
2.1598651968503937
20
-4.1880937401574805
11
2.1530846062992124
21
-4.2003622834645666
0
LINE
8
BLACK
6
CONTINUOUS
10
2.1530846062992124
20
-4.2003622834645666
11
2.1449730314960629
21
-4.2117944881889766
0
LINE
8
BLACK
6
CONTINUOUS
10
2.1449730314960629
20
-4.2117944881889766
11
2.1356324409448817
21
-4.222246614173228
0
LINE
8
BLACK
6
CONTINUOUS
10
2.1356324409448817
20
-4.222246614173228
11
2.1251803149606299
21
-4.2315872047244092
0
LINE
8
BLACK
6
CONTINUOUS
10
2.1251803149606299
20
-4.2315872047244092
11
2.1137481102362203
21
-4.2396987795275587
0
LINE
8
BLACK
6
CONTINUOUS
10
2.1137481102362203
20
-4.2396987795275587
11
2.1014795669291337
21
-4.24647937007874
0
LINE
8
BLACK
6
CONTINUOUS
10
2.1014795669291337
20
-4.24647937007874
11
2.0885289763779529
21
-4.2518437007874015
0
LINE
8
BLACK
6
CONTINUOUS
10
2.0885289763779529
20
-4.2518437007874015
11
2.0750592125984251
21
-4.2557242519685037
0
LINE
8
BLACK
6
CONTINUOUS
10
2.0750592125984251
20
-4.2557242519685037
11
2.0612396456692914
21
-4.2580722834645668
0
LINE
8
BLACK
6
CONTINUOUS
10
2.0612396456692914
20
-4.2580722834645668
11
2.0472440944881889
21
-4.2588582677165352
0
LINE
8
BLACK
6
CONTINUOUS
10
2.0472440944881889
20
-4.2588582677165352
11
2.0332485433070864
21
-4.2580722834645668
0
LINE
8
BLACK
6
CONTINUOUS
10
2.0332485433070864
20
-4.2580722834645668
11
2.0194289763779527
21
-4.2557242519685037
0
LINE
8
BLACK
6
CONTINUOUS
10
2.0194289763779527
20
-4.2557242519685037
11
2.0059592125984254
21
-4.2518437007874015
0
LINE
8
BLACK
6
CONTINUOUS
10
2.0059592125984254
20
-4.2518437007874015
11
1.993008622047244
21
-4.24647937007874
0
LINE
8
BLACK
6
CONTINUOUS
10
1.993008622047244
20
-4.24647937007874
11
1.9807400787401575
21
-4.2396987795275587
0
LINE
8
BLACK
6
CONTINUOUS
10
1.9807400787401575
20
-4.2396987795275587
11
1.9693078740157479
21
-4.2315872047244092
0
LINE
8
BLACK
6
CONTINUOUS
10
1.9693078740157479
20
-4.2315872047244092
11
1.9588557480314961
21
-4.222246614173228
0
LINE
8
BLACK
6
CONTINUOUS
10
1.9588557480314961
20
-4.222246614173228
11
1.9495151574803149
21
-4.2117944881889766
0
LINE
8
BLACK
6
CONTINUOUS
10
1.9495151574803149
20
-4.2117944881889766
11
1.9414035826771654
21
-4.2003622834645666
0
LINE
8
BLACK
6
CONTINUOUS
10
1.9414035826771654
20
-4.2003622834645666
11
1.9346229921259841
21
-4.1880937401574805
0
LINE
8
BLACK
6
CONTINUOUS
10
1.9346229921259841
20
-4.1880937401574805
11
1.9292586614173228
21
-4.1751431496062992
0
LINE
8
BLACK
6
CONTINUOUS
10
1.9292586614173228
20
-4.1751431496062992
11
1.9253781102362204
21
-4.1616733858267718
0
LINE
8
BLACK
6
CONTINUOUS
10
1.9253781102362204
20
-4.1616733858267718
11
1.9230300787401575
21
-4.1478538188976373
0
LINE
8
BLACK
6
CONTINUOUS
10
1.9230300787401575
20
-4.1478538188976373
11
1.9222440944881889
21
-4.1338582677165352
0
LINE
8
BLACK
6
CONTINUOUS
10
1.9222440944881889
20
-4.1338582677165352
11
1.9230300787401575
21
-4.1198627165354331
0
LINE
8
BLACK
6
CONTINUOUS
10
1.9230300787401575
20
-4.1198627165354331
11
1.9253781102362204
21
-4.1060431496062995
0
LINE
8
BLACK
6
CONTINUOUS
10
1.9253781102362204
20
-4.1060431496062995
11
1.9292586614173228
21
-4.0925733858267712
0
LINE
8
BLACK
6
CONTINUOUS
10
1.9292586614173228
20
-4.0925733858267712
11
1.9346229921259841
21
-4.0796227952755908
0
LINE
8
BLACK
6
CONTINUOUS
10
1.9346229921259841
20
-4.0796227952755908
11
1.9414035826771654
21
-4.0673542519685038
0
LINE
8
BLACK
6
CONTINUOUS
10
1.9414035826771654
20
-4.0673542519685038
11
1.9495151574803149
21
-4.0559220472440947
0
LINE
8
BLACK
6
CONTINUOUS
10
1.9495151574803149
20
-4.0559220472440947
11
1.9588557480314961
21
-4.0454699212598424
0
LINE
8
BLACK
6
CONTINUOUS
10
1.9588557480314961
20
-4.0454699212598424
11
1.9693078740157479
21
-4.0361293307086612
0
LINE
8
BLACK
6
CONTINUOUS
10
1.9693078740157479
20
-4.0361293307086612
11
1.9807400787401575
21
-4.0280177559055117
0
LINE
8
BLACK
6
CONTINUOUS
10
1.9807400787401575
20
-4.0280177559055117
11
1.993008622047244
21
-4.0212371653543304
0
LINE
8
BLACK
6
CONTINUOUS
10
1.993008622047244
20
-4.0212371653543304
11
2.0059592125984254
21
-4.0158728346456689
0
LINE
8
BLACK
6
CONTINUOUS
10
2.0059592125984254
20
-4.0158728346456689
11
2.0194289763779527
21
-4.0119922834645667
0
LINE
8
BLACK
6
CONTINUOUS
10
2.0194289763779527
20
-4.0119922834645667
11
2.0332485433070864
21
-4.0096442519685036
0
LINE
8
BLACK
6
CONTINUOUS
10
2.0332485433070864
20
-4.0096442519685036
11
2.0472440944881889
21
-4.0088582677165352
0
LINE
8
BLACK
6
CONTINUOUS
10
2.0472440944881889
20
-4.0088582677165352
11
2.0612396456692914
21
-4.0096442519685036
0
LINE
8
BLACK
6
CONTINUOUS
10
1.9287120078740156
20
-4.1472136220472438
11
1.9309526377952755
21
-4.1604010236220468
0
LINE
8
BLACK
6
CONTINUOUS
10
1.9309526377952755
20
-4.1604010236220468
11
1.9346556692913386
21
-4.1732546456692914
0
LINE
8
BLACK
6
CONTINUOUS
10
1.9346556692913386
20
-4.1732546456692914
11
1.9397746062992125
21
-4.1856128346456689
0
LINE
8
BLACK
6
CONTINUOUS
10
1.9397746062992125
20
-4.1856128346456689
11
1.9462450393700788
21
-4.1973201968503933
0
LINE
8
BLACK
6
CONTINUOUS
10
1.9462450393700788
20
-4.1973201968503933
11
1.9539855905511812
21
-4.2082294488188978
0
LINE
8
BLACK
6
CONTINUOUS
10
1.9539855905511812
20
-4.2082294488188978
11
1.9628988976377952
21
-4.2182034645669289
0
LINE
8
BLACK
6
CONTINUOUS
10
1.9628988976377952
20
-4.2182034645669289
11
1.9728729133858267
21
-4.2271167716535434
0
LINE
8
BLACK
6
CONTINUOUS
10
1.9728729133858267
20
-4.2271167716535434
11
1.9837821653543306
21
-4.234857322834646
0
LINE
8
BLACK
6
CONTINUOUS
10
1.9837821653543306
20
-4.234857322834646
11
1.9954895275590552
21
-4.2413277559055116
0
LINE
8
BLACK
6
CONTINUOUS
10
1.9954895275590552
20
-4.2413277559055116
11
2.0078477165354331
21
-4.2464466929133859
0
LINE
8
BLACK
6
CONTINUOUS
10
2.0078477165354331
20
-4.2464466929133859
11
2.0207013385826773
21
-4.2501497244094484
0
LINE
8
BLACK
6
CONTINUOUS
10
2.0207013385826773
20
-4.2501497244094484
11
2.0338887401574803
21
-4.2523903543307089
0
LINE
8
BLACK
6
CONTINUOUS
10
2.0338887401574803
20
-4.2523903543307089
11
2.0472440944881889
21
-4.2531403937007877
0
LINE
8
BLACK
6
CONTINUOUS
10
2.0472440944881889
20
-4.2531403937007877
11
2.0605994488188975
21
-4.2523903543307089
0
LINE
8
BLACK
6
CONTINUOUS
10
2.0605994488188975
20
-4.2523903543307089
11
2.0737868503937009
21
-4.2501497244094484
0
LINE
8
BLACK
6
CONTINUOUS
10
2.0737868503937009
20
-4.2501497244094484
11
2.0866404724409446
21
-4.2464466929133859
0
LINE
8
BLACK
6
CONTINUOUS
10
2.0866404724409446
20
-4.2464466929133859
11
2.0989986614173226
21
-4.2413277559055116
0
LINE
8
BLACK
6
CONTINUOUS
10
2.0989986614173226
20
-4.2413277559055116
11
2.1107060236220474
21
-4.234857322834646
0
LINE
8
BLACK
6
CONTINUOUS
10
2.1107060236220474
20
-4.234857322834646
11
2.1216152755905511
21
-4.2271167716535434
0
LINE
8
BLACK
6
CONTINUOUS
10
2.1216152755905511
20
-4.2271167716535434
11
2.1315892913385825
21
-4.2182034645669289
0
LINE
8
BLACK
6
CONTINUOUS
10
2.1315892913385825
20
-4.2182034645669289
11
2.1405025984251966
21
-4.2082294488188978
0
LINE
8
BLACK
6
CONTINUOUS
10
2.1405025984251966
20
-4.2082294488188978
11
2.1482431496062993
21
-4.1973201968503933
0
LINE
8
BLACK
6
CONTINUOUS
10
2.1482431496062993
20
-4.1973201968503933
11
2.1547135826771653
21
-4.1856128346456689
0
LINE
8
BLACK
6
CONTINUOUS
10
2.1547135826771653
20
-4.1856128346456689
11
2.1598325196850392
21
-4.1732546456692914
0
LINE
8
BLACK
6
CONTINUOUS
10
2.1598325196850392
20
-4.1732546456692914
11
2.1635355511811025
21
-4.1604010236220468
0
LINE
8
BLACK
6
CONTINUOUS
10
2.1635355511811025
20
-4.1604010236220468
11
2.1657761811023621
21
-4.1472136220472438
0
LINE
8
BLACK
6
CONTINUOUS
10
2.1657761811023621
20
-4.1472136220472438
11
2.1665262204724409
21
-4.1338582677165352
0
LINE
8
BLACK
6
CONTINUOUS
10
2.1665262204724409
20
-4.1338582677165352
11
2.1657761811023621
21
-4.1205029133858266
0
LINE
8
BLACK
6
CONTINUOUS
10
2.1657761811023621
20
-4.1205029133858266
11
2.1635355511811025
21
-4.1073155118110236
0
LINE
8
BLACK
6
CONTINUOUS
10
2.1635355511811025
20
-4.1073155118110236
11
2.1598325196850392
21
-4.094461889763779
0
LINE
8
BLACK
6
CONTINUOUS
10
2.1598325196850392
20
-4.094461889763779
11
2.1547135826771653
21
-4.0821037007874015
0
LINE
8
BLACK
6
CONTINUOUS
10
2.1547135826771653
20
-4.0821037007874015
11
2.1482431496062993
21
-4.0703963385826771
0
LINE
8
BLACK
6
CONTINUOUS
10
2.1482431496062993
20
-4.0703963385826771
11
2.1405025984251966
21
-4.0594870866141735
0
LINE
8
BLACK
6
CONTINUOUS
10
2.1405025984251966
20
-4.0594870866141735
11
2.1315892913385825
21
-4.0495130708661415
0
LINE
8
BLACK
6
CONTINUOUS
10
2.1315892913385825
20
-4.0495130708661415
11
2.1216152755905511
21
-4.0405997637795279
0
LINE
8
BLACK
6
CONTINUOUS
10
2.1216152755905511
20
-4.0405997637795279
11
2.1107060236220474
21
-4.0328592125984253
0
LINE
8
BLACK
6
CONTINUOUS
10
2.1107060236220474
20
-4.0328592125984253
11
2.0989986614173226
21
-4.0263887795275588
0
LINE
8
BLACK
6
CONTINUOUS
10
2.0989986614173226
20
-4.0263887795275588
11
2.0866404724409446
21
-4.0212698425196853
0
LINE
8
BLACK
6
CONTINUOUS
10
2.0866404724409446
20
-4.0212698425196853
11
2.0737868503937009
21
-4.017566811023622
0
LINE
8
BLACK
6
CONTINUOUS
10
2.0737868503937009
20
-4.017566811023622
11
2.0605994488188975
21
-4.0153261811023624
0
LINE
8
BLACK
6
CONTINUOUS
10
2.0605994488188975
20
-4.0153261811023624
11
2.0472440944881889
21
-4.0145761417322836
0
LINE
8
BLACK
6
CONTINUOUS
10
2.0472440944881889
20
-4.0145761417322836
11
2.0338887401574803
21
-4.0153261811023624
0
LINE
8
BLACK
6
CONTINUOUS
10
2.0338887401574803
20
-4.0153261811023624
11
2.0207013385826773
21
-4.017566811023622
0
LINE
8
BLACK
6
CONTINUOUS
10
2.0207013385826773
20
-4.017566811023622
11
2.0078477165354331
21
-4.0212698425196853
0
LINE
8
BLACK
6
CONTINUOUS
10
2.0078477165354331
20
-4.0212698425196853
11
1.9954895275590552
21
-4.0263887795275588
0
LINE
8
BLACK
6
CONTINUOUS
10
1.9954895275590552
20
-4.0263887795275588
11
1.9837821653543306
21
-4.0328592125984253
0
LINE
8
BLACK
6
CONTINUOUS
10
1.9837821653543306
20
-4.0328592125984253
11
1.9728729133858267
21
-4.0405997637795279
0
LINE
8
BLACK
6
CONTINUOUS
10
1.9728729133858267
20
-4.0405997637795279
11
1.9628988976377952
21
-4.0495130708661415
0
LINE
8
BLACK
6
CONTINUOUS
10
1.9628988976377952
20
-4.0495130708661415
11
1.9539855905511812
21
-4.0594870866141735
0
LINE
8
BLACK
6
CONTINUOUS
10
1.9539855905511812
20
-4.0594870866141735
11
1.9462450393700788
21
-4.0703963385826771
0
LINE
8
BLACK
6
CONTINUOUS
10
1.9462450393700788
20
-4.0703963385826771
11
1.9397746062992125
21
-4.0821037007874015
0
LINE
8
BLACK
6
CONTINUOUS
10
1.9397746062992125
20
-4.0821037007874015
11
1.9346556692913386
21
-4.094461889763779
0
LINE
8
BLACK
6
CONTINUOUS
10
1.9346556692913386
20
-4.094461889763779
11
1.9309526377952755
21
-4.1073155118110236
0
LINE
8
BLACK
6
CONTINUOUS
10
1.9309526377952755
20
-4.1073155118110236
11
1.9287120078740156
21
-4.1205029133858266
0
LINE
8
BLACK
6
CONTINUOUS
10
1.9287120078740156
20
-4.1205029133858266
11
1.9279619685039369
21
-4.1338582677165352
0
LINE
8
BLACK
6
CONTINUOUS
10
1.9279619685039369
20
-4.1338582677165352
11
1.9287120078740156
21
-4.1472136220472438
0
LINE
8
BLACK
6
CONTINUOUS
10
4.3447225984251965
20
-4.0785185039370075
11
4.353640078740157
21
-4.0815798818897635
0
LINE
8
BLACK
6
CONTINUOUS
10
4.353640078740157
20
-4.0815798818897635
11
4.3619320866141731
21
-4.0860672834645673
0
LINE
8
BLACK
6
CONTINUOUS
10
4.3619320866141731
20
-4.0860672834645673
11
4.3693723622047242
21
-4.0918582677165354
0
LINE
8
BLACK
6
CONTINUOUS
10
4.3693723622047242
20
-4.0918582677165354
11
4.3757580314960629
21
-4.0987949606299212
0
LINE
8
BLACK
6
CONTINUOUS
10
4.3757580314960629
20
-4.0987949606299212
11
4.3809148425196849
21
-4.1066880314960628
0
LINE
8
BLACK
6
CONTINUOUS
10
4.3809148425196849
20
-4.1066880314960628
11
4.384702165354331
21
-4.1153222834645664
0
LINE
8
BLACK
6
CONTINUOUS
10
4.384702165354331
20
-4.1153222834645664
11
4.3870166929133854
21
-4.1244621259842518
0
LINE
8
BLACK
6
CONTINUOUS
10
4.3870166929133854
20
-4.1244621259842518
11
4.3877952755905509
21
-4.1338582677165352
0
LINE
8
BLACK
6
CONTINUOUS
10
4.3877952755905509
20
-4.1338582677165352
11
4.3870166929133854
21
-4.1432544094488186
0
LINE
8
BLACK
6
CONTINUOUS
10
4.3870166929133854
20
-4.1432544094488186
11
4.384702165354331
21
-4.152394251968504
0
LINE
8
BLACK
6
CONTINUOUS
10
4.384702165354331
20
-4.152394251968504
11
4.3809148425196849
21
-4.1610285039370076
0
LINE
8
BLACK
6
CONTINUOUS
10
4.3809148425196849
20
-4.1610285039370076
11
4.3757580314960629
21
-4.1689215748031492
0
LINE
8
BLACK
6
CONTINUOUS
10
4.3757580314960629
20
-4.1689215748031492
11
4.3693723622047242
21
-4.175858267716535
0
LINE
8
BLACK
6
CONTINUOUS
10
4.3693723622047242
20
-4.175858267716535
11
4.3619320866141731
21
-4.181649251968504
0
LINE
8
BLACK
6
CONTINUOUS
10
4.3619320866141731
20
-4.181649251968504
11
4.353640078740157
21
-4.1861366535433069
0
LINE
8
BLACK
6
CONTINUOUS
10
4.353640078740157
20
-4.1861366535433069
11
4.3447225984251965
21
-4.1891980314960628
0
LINE
8
BLACK
6
CONTINUOUS
10
4.3447225984251965
20
-4.1891980314960628
11
4.3354228346456694
21
-4.190749921259842
0
LINE
8
BLACK
6
CONTINUOUS
10
4.3354228346456694
20
-4.190749921259842
11
4.325994488188976
21
-4.190749921259842
0
LINE
8
BLACK
6
CONTINUOUS
10
4.325994488188976
20
-4.190749921259842
11
4.3166947244094489
21
-4.1891980314960628
0
LINE
8
BLACK
6
CONTINUOUS
10
4.3166947244094489
20
-4.1891980314960628
11
4.3077772440944884
21
-4.1861366535433069
0
LINE
8
BLACK
6
CONTINUOUS
10
4.3077772440944884
20
-4.1861366535433069
11
4.2994852362204723
21
-4.181649251968504
0
LINE
8
BLACK
6
CONTINUOUS
10
4.2994852362204723
20
-4.181649251968504
11
4.2920449606299211
21
-4.175858267716535
0
LINE
8
BLACK
6
CONTINUOUS
10
4.2920449606299211
20
-4.175858267716535
11
4.2856592913385825
21
-4.1689215748031492
0
LINE
8
BLACK
6
CONTINUOUS
10
4.2856592913385825
20
-4.1689215748031492
11
4.2805024803149605
21
-4.1610285039370076
0
LINE
8
BLACK
6
CONTINUOUS
10
4.2805024803149605
20
-4.1610285039370076
11
4.2767151574803153
21
-4.152394251968504
0
LINE
8
BLACK
6
CONTINUOUS
10
4.2767151574803153
20
-4.152394251968504
11
4.27440062992126
21
-4.1432544094488186
0
LINE
8
BLACK
6
CONTINUOUS
10
4.27440062992126
20
-4.1432544094488186
11
4.2736220472440944
21
-4.1338582677165352
0
LINE
8
BLACK
6
CONTINUOUS
10
4.2736220472440944
20
-4.1338582677165352
11
4.27440062992126
21
-4.1244621259842518
0
LINE
8
BLACK
6
CONTINUOUS
10
4.27440062992126
20
-4.1244621259842518
11
4.2767151574803153
21
-4.1153222834645664
0
LINE
8
BLACK
6
CONTINUOUS
10
4.2767151574803153
20
-4.1153222834645664
11
4.2805024803149605
21
-4.1066880314960628
0
LINE
8
BLACK
6
CONTINUOUS
10
4.2805024803149605
20
-4.1066880314960628
11
4.2856592913385825
21
-4.0987949606299212
0
LINE
8
BLACK
6
CONTINUOUS
10
4.2856592913385825
20
-4.0987949606299212
11
4.2920449606299211
21
-4.0918582677165354
0
LINE
8
BLACK
6
CONTINUOUS
10
4.2920449606299211
20
-4.0918582677165354
11
4.2994852362204723
21
-4.0860672834645673
0
LINE
8
BLACK
6
CONTINUOUS
10
4.2994852362204723
20
-4.0860672834645673
11
4.3077772440944884
21
-4.0815798818897635
0
LINE
8
BLACK
6
CONTINUOUS
10
4.3077772440944884
20
-4.0815798818897635
11
4.3166947244094489
21
-4.0785185039370075
0
LINE
8
BLACK
6
CONTINUOUS
10
4.3166947244094489
20
-4.0785185039370075
11
4.325994488188976
21
-4.0769666141732284
0
LINE
8
BLACK
6
CONTINUOUS
10
4.325994488188976
20
-4.0769666141732284
11
4.3354228346456694
21
-4.0769666141732284
0
LINE
8
BLACK
6
CONTINUOUS
10
4.3354228346456694
20
-4.0769666141732284
11
4.3447225984251965
21
-4.0785185039370075
0
LINE
8
BLACK
6
CONTINUOUS
10
4.2801125590551177
20
-4.1427797244094489
11
4.282430433070866
21
-4.1514301181102358
0
LINE
8
BLACK
6
CONTINUOUS
10
4.282430433070866
20
-4.1514301181102358
11
4.2862151968503932
21
-4.1595465748031497
0
LINE
8
BLACK
6
CONTINUOUS
10
4.2862151968503932
20
-4.1595465748031497
11
4.2913518897637797
21
-4.1668825196850392
0
LINE
8
BLACK
6
CONTINUOUS
10
4.2913518897637797
20
-4.1668825196850392
11
4.2976844094488191
21
-4.1732150393700786
0
LINE
8
BLACK
6
CONTINUOUS
10
4.2976844094488191
20
-4.1732150393700786
11
4.3050203543307086
21
-4.1783517322834642
0
LINE
8
BLACK
6
CONTINUOUS
10
4.3050203543307086
20
-4.1783517322834642
11
4.3131368110236217
21
-4.1821364960629923
0
LINE
8
BLACK
6
CONTINUOUS
10
4.3131368110236217
20
-4.1821364960629923
11
4.3217872047244095
21
-4.1844543700787398
0
LINE
8
BLACK
6
CONTINUOUS
10
4.3217872047244095
20
-4.1844543700787398
11
4.3307086614173231
21
-4.1852348818897633
0
LINE
8
BLACK
6
CONTINUOUS
10
4.3307086614173231
20
-4.1852348818897633
11
4.3396301181102359
21
-4.1844543700787398
0
LINE
8
BLACK
6
CONTINUOUS
10
4.3396301181102359
20
-4.1844543700787398
11
4.3482805118110237
21
-4.1821364960629923
0
LINE
8
BLACK
6
CONTINUOUS
10
4.3482805118110237
20
-4.1821364960629923
11
4.3563969685039368
21
-4.1783517322834642
0
LINE
8
BLACK
6
CONTINUOUS
10
4.3563969685039368
20
-4.1783517322834642
11
4.3637329133858263
21
-4.1732150393700786
0
LINE
8
BLACK
6
CONTINUOUS
10
4.3637329133858263
20
-4.1732150393700786
11
4.3700654330708657
21
-4.1668825196850392
0
LINE
8
BLACK
6
CONTINUOUS
10
4.3700654330708657
20
-4.1668825196850392
11
4.3752021259842522
21
-4.1595465748031497
0
LINE
8
BLACK
6
CONTINUOUS
10
4.3752021259842522
20
-4.1595465748031497
11
4.3789868897637794
21
-4.1514301181102358
0
LINE
8
BLACK
6
CONTINUOUS
10
4.3789868897637794
20
-4.1514301181102358
11
4.3813047637795277
21
-4.1427797244094489
0
LINE
8
BLACK
6
CONTINUOUS
10
4.3813047637795277
20
-4.1427797244094489
11
4.3820852755905513
21
-4.1338582677165352
0
LINE
8
BLACK
6
CONTINUOUS
10
4.3820852755905513
20
-4.1338582677165352
11
4.3813047637795277
21
-4.1249368110236215
0
LINE
8
BLACK
6
CONTINUOUS
10
4.3813047637795277
20
-4.1249368110236215
11
4.3789868897637794
21
-4.1162864173228346
0
LINE
8
BLACK
6
CONTINUOUS
10
4.3789868897637794
20
-4.1162864173228346
11
4.3752021259842522
21
-4.1081699606299216
0
LINE
8
BLACK
6
CONTINUOUS
10
4.3752021259842522
20
-4.1081699606299216
11
4.3700654330708657
21
-4.1008340157480312
0
LINE
8
BLACK
6
CONTINUOUS
10
4.3700654330708657
20
-4.1008340157480312
11
4.3637329133858263
21
-4.0945014960629917
0
LINE
8
BLACK
6
CONTINUOUS
10
4.3637329133858263
20
-4.0945014960629917
11
4.3563969685039368
21
-4.0893648031496062
0
LINE
8
BLACK
6
CONTINUOUS
10
4.3563969685039368
20
-4.0893648031496062
11
4.3482805118110237
21
-4.085580039370079
0
LINE
8
BLACK
6
CONTINUOUS
10
4.3482805118110237
20
-4.085580039370079
11
4.3396301181102359
21
-4.0832621653543306
0
LINE
8
BLACK
6
CONTINUOUS
10
4.3396301181102359
20
-4.0832621653543306
11
4.3307086614173231
21
-4.0824816535433071
0
LINE
8
BLACK
6
CONTINUOUS
10
4.3307086614173231
20
-4.0824816535433071
11
4.3217872047244095
21
-4.0832621653543306
0
LINE
8
BLACK
6
CONTINUOUS
10
4.3217872047244095
20
-4.0832621653543306
11
4.3131368110236217
21
-4.085580039370079
0
LINE
8
BLACK
6
CONTINUOUS
10
4.3131368110236217
20
-4.085580039370079
11
4.3050203543307086
21
-4.0893648031496062
0
LINE
8
BLACK
6
CONTINUOUS
10
4.3050203543307086
20
-4.0893648031496062
11
4.2976844094488191
21
-4.0945014960629917
0
LINE
8
BLACK
6
CONTINUOUS
10
4.2976844094488191
20
-4.0945014960629917
11
4.2913518897637797
21
-4.1008340157480312
0
LINE
8
BLACK
6
CONTINUOUS
10
4.2913518897637797
20
-4.1008340157480312
11
4.2862151968503932
21
-4.1081699606299216
0
LINE
8
BLACK
6
CONTINUOUS
10
4.2862151968503932
20
-4.1081699606299216
11
4.282430433070866
21
-4.1162864173228346
0
LINE
8
BLACK
6
CONTINUOUS
10
4.282430433070866
20
-4.1162864173228346
11
4.2801125590551177
21
-4.1249368110236215
0
LINE
8
BLACK
6
CONTINUOUS
10
4.2801125590551177
20
-4.1249368110236215
11
4.2793320472440941
21
-4.1338582677165352
0
LINE
8
BLACK
6
CONTINUOUS
10
4.2793320472440941
20
-4.1338582677165352
11
4.2801125590551177
21
-4.1427797244094489
0
LINE
8
BLACK
6
CONTINUOUS
10
4.3447042125984252
20
-4.0096442519685036
11
4.3585237795275589
21
-4.0119922834645667
0
LINE
8
BLACK
6
CONTINUOUS
10
4.3585237795275589
20
-4.0119922834645667
11
4.3719935433070862
21
-4.0158728346456689
0
LINE
8
BLACK
6
CONTINUOUS
10
4.3719935433070862
20
-4.0158728346456689
11
4.3849441338582675
21
-4.0212371653543304
0
LINE
8
BLACK
6
CONTINUOUS
10
4.3849441338582675
20
-4.0212371653543304
11
4.3972126771653546
21
-4.0280177559055117
0
LINE
8
BLACK
6
CONTINUOUS
10
4.3972126771653546
20
-4.0280177559055117
11
4.4086448818897637
21
-4.0361293307086612
0
LINE
8
BLACK
6
CONTINUOUS
10
4.4086448818897637
20
-4.0361293307086612
11
4.4190970078740159
21
-4.0454699212598424
0
LINE
8
BLACK
6
CONTINUOUS
10
4.4190970078740159
20
-4.0454699212598424
11
4.4284375984251971
21
-4.0559220472440947
0
LINE
8
BLACK
6
CONTINUOUS
10
4.4284375984251971
20
-4.0559220472440947
11
4.4365491732283466
21
-4.0673542519685038
0
LINE
8
BLACK
6
CONTINUOUS
10
4.4365491732283466
20
-4.0673542519685038
11
4.443329763779527
21
-4.0796227952755908
0
LINE
8
BLACK
6
CONTINUOUS
10
4.443329763779527
20
-4.0796227952755908
11
4.4486940944881885
21
-4.0925733858267712
0
LINE
8
BLACK
6
CONTINUOUS
10
4.4486940944881885
20
-4.0925733858267712
11
4.4525746456692916
21
-4.1060431496062995
0
LINE
8
BLACK
6
CONTINUOUS
10
4.4525746456692916
20
-4.1060431496062995
11
4.4549226771653538
21
-4.1198627165354331
0
LINE
8
BLACK
6
CONTINUOUS
10
4.4549226771653538
20
-4.1198627165354331
11
4.4557086614173231
21
-4.1338582677165352
0
LINE
8
BLACK
6
CONTINUOUS
10
4.4557086614173231
20
-4.1338582677165352
11
4.4549226771653538
21
-4.1478538188976373
0
LINE
8
BLACK
6
CONTINUOUS
10
4.4549226771653538
20
-4.1478538188976373
11
4.4525746456692916
21
-4.1616733858267718
0
LINE
8
BLACK
6
CONTINUOUS
10
4.4525746456692916
20
-4.1616733858267718
11
4.4486940944881885
21
-4.1751431496062992
0
LINE
8
BLACK
6
CONTINUOUS
10
4.4486940944881885
20
-4.1751431496062992
11
4.443329763779527
21
-4.1880937401574805
0
LINE
8
BLACK
6
CONTINUOUS
10
4.443329763779527
20
-4.1880937401574805
11
4.4365491732283466
21
-4.2003622834645666
0
LINE
8
BLACK
6
CONTINUOUS
10
4.4365491732283466
20
-4.2003622834645666
11
4.4284375984251971
21
-4.2117944881889766
0
LINE
8
BLACK
6
CONTINUOUS
10
4.4284375984251971
20
-4.2117944881889766
11
4.4190970078740159
21
-4.222246614173228
0
LINE
8
BLACK
6
CONTINUOUS
10
4.4190970078740159
20
-4.222246614173228
11
4.4086448818897637
21
-4.2315872047244092
0
LINE
8
BLACK
6
CONTINUOUS
10
4.4086448818897637
20
-4.2315872047244092
11
4.3972126771653546
21
-4.2396987795275587
0
LINE
8
BLACK
6
CONTINUOUS
10
4.3972126771653546
20
-4.2396987795275587
11
4.3849441338582675
21
-4.24647937007874
0
LINE
8
BLACK
6
CONTINUOUS
10
4.3849441338582675
20
-4.24647937007874
11
4.3719935433070862
21
-4.2518437007874015
0
LINE
8
BLACK
6
CONTINUOUS
10
4.3719935433070862
20
-4.2518437007874015
11
4.3585237795275589
21
-4.2557242519685037
0
LINE
8
BLACK
6
CONTINUOUS
10
4.3585237795275589
20
-4.2557242519685037
11
4.3447042125984252
21
-4.2580722834645668
0
LINE
8
BLACK
6
CONTINUOUS
10
4.3447042125984252
20
-4.2580722834645668
11
4.3307086614173231
21
-4.2588582677165352
0
LINE
8
BLACK
6
CONTINUOUS
10
4.3307086614173231
20
-4.2588582677165352
11
4.3167131102362202
21
-4.2580722834645668
0
LINE
8
BLACK
6
CONTINUOUS
10
4.3167131102362202
20
-4.2580722834645668
11
4.3028935433070865
21
-4.2557242519685037
0
LINE
8
BLACK
6
CONTINUOUS
10
4.3028935433070865
20
-4.2557242519685037
11
4.2894237795275592
21
-4.2518437007874015
0
LINE
8
BLACK
6
CONTINUOUS
10
4.2894237795275592
20
-4.2518437007874015
11
4.2764731889763778
21
-4.24647937007874
0
LINE
8
BLACK
6
CONTINUOUS
10
4.2764731889763778
20
-4.24647937007874
11
4.2642046456692908
21
-4.2396987795275587
0
LINE
8
BLACK
6
CONTINUOUS
10
4.2642046456692908
20
-4.2396987795275587
11
4.2527724409448817
21
-4.2315872047244092
0
LINE
8
BLACK
6
CONTINUOUS
10
4.2527724409448817
20
-4.2315872047244092
11
4.2423203149606294
21
-4.222246614173228
0
LINE
8
BLACK
6
CONTINUOUS
10
4.2423203149606294
20
-4.222246614173228
11
4.2329797244094491
21
-4.2117944881889766
0
LINE
8
BLACK
6
CONTINUOUS
10
4.2329797244094491
20
-4.2117944881889766
11
4.2248681496062988
21
-4.2003622834645666
0
LINE
8
BLACK
6
CONTINUOUS
10
4.2248681496062988
20
-4.2003622834645666
11
4.2180875590551183
21
-4.1880937401574805
0
LINE
8
BLACK
6
CONTINUOUS
10
4.2180875590551183
20
-4.1880937401574805
11
4.2127232283464568
21
-4.1751431496062992
0
LINE
8
BLACK
6
CONTINUOUS
10
4.2127232283464568
20
-4.1751431496062992
11
4.2088426771653547
21
-4.1616733858267718
0
LINE
8
BLACK
6
CONTINUOUS
10
4.2088426771653547
20
-4.1616733858267718
11
4.2064946456692915
21
-4.1478538188976373
0
LINE
8
BLACK
6
CONTINUOUS
10
4.2064946456692915
20
-4.1478538188976373
11
4.2057086614173231
21
-4.1338582677165352
0
LINE
8
BLACK
6
CONTINUOUS
10
4.2057086614173231
20
-4.1338582677165352
11
4.2064946456692915
21
-4.1198627165354331
0
LINE
8
BLACK
6
CONTINUOUS
10
4.2064946456692915
20
-4.1198627165354331
11
4.2088426771653547
21
-4.1060431496062995
0
LINE
8
BLACK
6
CONTINUOUS
10
4.2088426771653547
20
-4.1060431496062995
11
4.2127232283464568
21
-4.0925733858267712
0
LINE
8
BLACK
6
CONTINUOUS
10
4.2127232283464568
20
-4.0925733858267712
11
4.2180875590551183
21
-4.0796227952755908
0
LINE
8
BLACK
6
CONTINUOUS
10
4.2180875590551183
20
-4.0796227952755908
11
4.2248681496062988
21
-4.0673542519685038
0
LINE
8
BLACK
6
CONTINUOUS
10
4.2248681496062988
20
-4.0673542519685038
11
4.2329797244094491
21
-4.0559220472440947
0
LINE
8
BLACK
6
CONTINUOUS
10
4.2329797244094491
20
-4.0559220472440947
11
4.2423203149606294
21
-4.0454699212598424
0
LINE
8
BLACK
6
CONTINUOUS
10
4.2423203149606294
20
-4.0454699212598424
11
4.2527724409448817
21
-4.0361293307086612
0
LINE
8
BLACK
6
CONTINUOUS
10
4.2527724409448817
20
-4.0361293307086612
11
4.2642046456692908
21
-4.0280177559055117
0
LINE
8
BLACK
6
CONTINUOUS
10
4.2642046456692908
20
-4.0280177559055117
11
4.2764731889763778
21
-4.0212371653543304
0
LINE
8
BLACK
6
CONTINUOUS
10
4.2764731889763778
20
-4.0212371653543304
11
4.2894237795275592
21
-4.0158728346456689
0
LINE
8
BLACK
6
CONTINUOUS
10
4.2894237795275592
20
-4.0158728346456689
11
4.3028935433070865
21
-4.0119922834645667
0
LINE
8
BLACK
6
CONTINUOUS
10
4.3028935433070865
20
-4.0119922834645667
11
4.3167131102362202
21
-4.0096442519685036
0
LINE
8
BLACK
6
CONTINUOUS
10
4.3167131102362202
20
-4.0096442519685036
11
4.3307086614173231
21
-4.0088582677165352
0
LINE
8
BLACK
6
CONTINUOUS
10
4.3307086614173231
20
-4.0088582677165352
11
4.3447042125984252
21
-4.0096442519685036
0
LINE
8
BLACK
6
CONTINUOUS
10
4.2121765748031494
20
-4.1472136220472438
11
4.2144172047244091
21
-4.1604010236220468
0
LINE
8
BLACK
6
CONTINUOUS
10
4.2144172047244091
20
-4.1604010236220468
11
4.2181202362204724
21
-4.1732546456692914
0
LINE
8
BLACK
6
CONTINUOUS
10
4.2181202362204724
20
-4.1732546456692914
11
4.2232391732283467
21
-4.1856128346456689
0
LINE
8
BLACK
6
CONTINUOUS
10
4.2232391732283467
20
-4.1856128346456689
11
4.2297096062992123
21
-4.1973201968503933
0
LINE
8
BLACK
6
CONTINUOUS
10
4.2297096062992123
20
-4.1973201968503933
11
4.2374501574803149
21
-4.2082294488188978
0
LINE
8
BLACK
6
CONTINUOUS
10
4.2374501574803149
20
-4.2082294488188978
11
4.2463634645669295
21
-4.2182034645669289
0
LINE
8
BLACK
6
CONTINUOUS
10
4.2463634645669295
20
-4.2182034645669289
11
4.2563374803149605
21
-4.2271167716535434
0
LINE
8
BLACK
6
CONTINUOUS
10
4.2563374803149605
20
-4.2271167716535434
11
4.2672467322834642
21
-4.234857322834646
0
LINE
8
BLACK
6
CONTINUOUS
10
4.2672467322834642
20
-4.234857322834646
11
4.2789540944881885
21
-4.2413277559055116
0
LINE
8
BLACK
6
CONTINUOUS
10
4.2789540944881885
20
-4.2413277559055116
11
4.2913122834645669
21
-4.2464466929133859
0
LINE
8
BLACK
6
CONTINUOUS
10
4.2913122834645669
20
-4.2464466929133859
11
4.3041659055118107
21
-4.2501497244094484
0
LINE
8
BLACK
6
CONTINUOUS
10
4.3041659055118107
20
-4.2501497244094484
11
4.3173533070866137
21
-4.2523903543307089
0
LINE
8
BLACK
6
CONTINUOUS
10
4.3173533070866137
20
-4.2523903543307089
11
4.3307086614173231
21
-4.2531403937007877
0
LINE
8
BLACK
6
CONTINUOUS
10
4.3307086614173231
20
-4.2531403937007877
11
4.3440640157480317
21
-4.2523903543307089
0
LINE
8
BLACK
6
CONTINUOUS
10
4.3440640157480317
20
-4.2523903543307089
11
4.3572514173228347
21
-4.2501497244094484
0
LINE
8
BLACK
6
CONTINUOUS
10
4.3572514173228347
20
-4.2501497244094484
11
4.3701050393700784
21
-4.2464466929133859
0
LINE
8
BLACK
6
CONTINUOUS
10
4.3701050393700784
20
-4.2464466929133859
11
4.3824632283464569
21
-4.2413277559055116
0
LINE
8
BLACK
6
CONTINUOUS
10
4.3824632283464569
20
-4.2413277559055116
11
4.3941705905511812
21
-4.234857322834646
0
LINE
8
BLACK
6
CONTINUOUS
10
4.3941705905511812
20
-4.234857322834646
11
4.4050798425196849
21
-4.2271167716535434
0
LINE
8
BLACK
6
CONTINUOUS
10
4.4050798425196849
20
-4.2271167716535434
11
4.4150538582677168
21
-4.2182034645669289
0
LINE
8
BLACK
6
CONTINUOUS
10
4.4150538582677168
20
-4.2182034645669289
11
4.4239671653543304
21
-4.2082294488188978
0
LINE
8
BLACK
6
CONTINUOUS
10
4.4239671653543304
20
-4.2082294488188978
11
4.4317077165354331
21
-4.1973201968503933
0
LINE
8
BLACK
6
CONTINUOUS
10
4.4317077165354331
20
-4.1973201968503933
11
4.4381781496062995
21
-4.1856128346456689
0
LINE
8
BLACK
6
CONTINUOUS
10
4.4381781496062995
20
-4.1856128346456689
11
4.443297086614173
21
-4.1732546456692914
0
LINE
8
BLACK
6
CONTINUOUS
10
4.443297086614173
20
-4.1732546456692914
11
4.4470001181102363
21
-4.1604010236220468
0
LINE
8
BLACK
6
CONTINUOUS
10
4.4470001181102363
20
-4.1604010236220468
11
4.4492407480314959
21
-4.1472136220472438
0
LINE
8
BLACK
6
CONTINUOUS
10
4.4492407480314959
20
-4.1472136220472438
11
4.4499907874015747
21
-4.1338582677165352
0
LINE
8
BLACK
6
CONTINUOUS
10
4.4499907874015747
20
-4.1338582677165352
11
4.4492407480314959
21
-4.1205029133858266
0
LINE
8
BLACK
6
CONTINUOUS
10
4.4492407480314959
20
-4.1205029133858266
11
4.4470001181102363
21
-4.1073155118110236
0
LINE
8
BLACK
6
CONTINUOUS
10
4.4470001181102363
20
-4.1073155118110236
11
4.443297086614173
21
-4.094461889763779
0
LINE
8
BLACK
6
CONTINUOUS
10
4.443297086614173
20
-4.094461889763779
11
4.4381781496062995
21
-4.0821037007874015
0
LINE
8
BLACK
6
CONTINUOUS
10
4.4381781496062995
20
-4.0821037007874015
11
4.4317077165354331
21
-4.0703963385826771
0
LINE
8
BLACK
6
CONTINUOUS
10
4.4317077165354331
20
-4.0703963385826771
11
4.4239671653543304
21
-4.0594870866141735
0
LINE
8
BLACK
6
CONTINUOUS
10
4.4239671653543304
20
-4.0594870866141735
11
4.4150538582677168
21
-4.0495130708661415
0
LINE
8
BLACK
6
CONTINUOUS
10
4.4150538582677168
20
-4.0495130708661415
11
4.4050798425196849
21
-4.0405997637795279
0
LINE
8
BLACK
6
CONTINUOUS
10
4.4050798425196849
20
-4.0405997637795279
11
4.3941705905511812
21
-4.0328592125984253
0
LINE
8
BLACK
6
CONTINUOUS
10
4.3941705905511812
20
-4.0328592125984253
11
4.3824632283464569
21
-4.0263887795275588
0
LINE
8
BLACK
6
CONTINUOUS
10
4.3824632283464569
20
-4.0263887795275588
11
4.3701050393700784
21
-4.0212698425196853
0
LINE
8
BLACK
6
CONTINUOUS
10
4.3701050393700784
20
-4.0212698425196853
11
4.3572514173228347
21
-4.017566811023622
0
LINE
8
BLACK
6
CONTINUOUS
10
4.3572514173228347
20
-4.017566811023622
11
4.3440640157480317
21
-4.0153261811023624
0
LINE
8
BLACK
6
CONTINUOUS
10
4.3440640157480317
20
-4.0153261811023624
11
4.3307086614173231
21
-4.0145761417322836
0
LINE
8
BLACK
6
CONTINUOUS
10
4.3307086614173231
20
-4.0145761417322836
11
4.3173533070866137
21
-4.0153261811023624
0
LINE
8
BLACK
6
CONTINUOUS
10
4.3173533070866137
20
-4.0153261811023624
11
4.3041659055118107
21
-4.017566811023622
0
LINE
8
BLACK
6
CONTINUOUS
10
4.3041659055118107
20
-4.017566811023622
11
4.2913122834645669
21
-4.0212698425196853
0
LINE
8
BLACK
6
CONTINUOUS
10
4.2913122834645669
20
-4.0212698425196853
11
4.2789540944881885
21
-4.0263887795275588
0
LINE
8
BLACK
6
CONTINUOUS
10
4.2789540944881885
20
-4.0263887795275588
11
4.2672467322834642
21
-4.0328592125984253
0
LINE
8
BLACK
6
CONTINUOUS
10
4.2672467322834642
20
-4.0328592125984253
11
4.2563374803149605
21
-4.0405997637795279
0
LINE
8
BLACK
6
CONTINUOUS
10
4.2563374803149605
20
-4.0405997637795279
11
4.2463634645669295
21
-4.0495130708661415
0
LINE
8
BLACK
6
CONTINUOUS
10
4.2463634645669295
20
-4.0495130708661415
11
4.2374501574803149
21
-4.0594870866141735
0
LINE
8
BLACK
6
CONTINUOUS
10
4.2374501574803149
20
-4.0594870866141735
11
4.2297096062992123
21
-4.0703963385826771
0
LINE
8
BLACK
6
CONTINUOUS
10
4.2297096062992123
20
-4.0703963385826771
11
4.2232391732283467
21
-4.0821037007874015
0
LINE
8
BLACK
6
CONTINUOUS
10
4.2232391732283467
20
-4.0821037007874015
11
4.2181202362204724
21
-4.094461889763779
0
LINE
8
BLACK
6
CONTINUOUS
10
4.2181202362204724
20
-4.094461889763779
11
4.2144172047244091
21
-4.1073155118110236
0
LINE
8
BLACK
6
CONTINUOUS
10
4.2144172047244091
20
-4.1073155118110236
11
4.2121765748031494
21
-4.1205029133858266
0
LINE
8
BLACK
6
CONTINUOUS
10
4.2121765748031494
20
-4.1205029133858266
11
4.2114265354330707
21
-4.1338582677165352
0
LINE
8
BLACK
6
CONTINUOUS
10
4.2114265354330707
20
-4.1338582677165352
11
4.2121765748031494
21
-4.1472136220472438
0
LINE
8
BLACK
6
CONTINUOUS
10
2.0612580314960631
20
-2.1493846456692913
11
2.0701755118110237
21
-2.1524460236220473
0
LINE
8
BLACK
6
CONTINUOUS
10
2.0701755118110237
20
-2.1524460236220473
11
2.0784675196850393
21
-2.1569334251968502
0
LINE
8
BLACK
6
CONTINUOUS
10
2.0784675196850393
20
-2.1569334251968502
11
2.0859077952755904
21
-2.1627244094488187
0
LINE
8
BLACK
6
CONTINUOUS
10
2.0859077952755904
20
-2.1627244094488187
11
2.0922934645669291
21
-2.1696611023622046
0
LINE
8
BLACK
6
CONTINUOUS
10
2.0922934645669291
20
-2.1696611023622046
11
2.0974502755905511
21
-2.1775541732283465
0
LINE
8
BLACK
6
CONTINUOUS
10
2.0974502755905511
20
-2.1775541732283465
11
2.1012375984251968
21
-2.1861884251968502
0
LINE
8
BLACK
6
CONTINUOUS
10
2.1012375984251968
20
-2.1861884251968502
11
2.103552125984252
21
-2.1953282677165356
0
LINE
8
BLACK
6
CONTINUOUS
10
2.103552125984252
20
-2.1953282677165356
11
2.1043307086614171
21
-2.204724409448819
0
LINE
8
BLACK
6
CONTINUOUS
10
2.1043307086614171
20
-2.204724409448819
11
2.103552125984252
21
-2.2141205511811024
0
LINE
8
BLACK
6
CONTINUOUS
10
2.103552125984252
20
-2.2141205511811024
11
2.1012375984251968
21
-2.2232603937007873
0
LINE
8
BLACK
6
CONTINUOUS
10
2.1012375984251968
20
-2.2232603937007873
11
2.0974502755905511
21
-2.2318946456692914
0
LINE
8
BLACK
6
CONTINUOUS
10
2.0974502755905511
20
-2.2318946456692914
11
2.0922934645669291
21
-2.239787716535433
0
LINE
8
BLACK
6
CONTINUOUS
10
2.0922934645669291
20
-2.239787716535433
11
2.0859077952755904
21
-2.2467244094488188
0
LINE
8
BLACK
6
CONTINUOUS
10
2.0859077952755904
20
-2.2467244094488188
11
2.0784675196850393
21
-2.2525153937007873
0
LINE
8
BLACK
6
CONTINUOUS
10
2.0784675196850393
20
-2.2525153937007873
11
2.0701755118110237
21
-2.2570027952755907
0
LINE
8
BLACK
6
CONTINUOUS
10
2.0701755118110237
20
-2.2570027952755907
11
2.0612580314960631
21
-2.2600641732283462
0
LINE
8
BLACK
6
CONTINUOUS
10
2.0612580314960631
20
-2.2600641732283462
11
2.0519582677165356
21
-2.2616160629921258
0
LINE
8
BLACK
6
CONTINUOUS
10
2.0519582677165356
20
-2.2616160629921258
11
2.0425299212598427
21
-2.2616160629921258
0
LINE
8
BLACK
6
CONTINUOUS
10
2.0425299212598427
20
-2.2616160629921258
11
2.0332301574803151
21
-2.2600641732283462
0
LINE
8
BLACK
6
CONTINUOUS
10
2.0332301574803151
20
-2.2600641732283462
11
2.0243126771653541
21
-2.2570027952755907
0
LINE
8
BLACK
6
CONTINUOUS
10
2.0243126771653541
20
-2.2570027952755907
11
2.0160206692913385
21
-2.2525153937007873
0
LINE
8
BLACK
6
CONTINUOUS
10
2.0160206692913385
20
-2.2525153937007873
11
2.0085803937007873
21
-2.2467244094488188
0
LINE
8
BLACK
6
CONTINUOUS
10
2.0085803937007873
20
-2.2467244094488188
11
2.0021947244094487
21
-2.239787716535433
0
LINE
8
BLACK
6
CONTINUOUS
10
2.0021947244094487
20
-2.239787716535433
11
1.9970379133858267
21
-2.2318946456692914
0
LINE
8
BLACK
6
CONTINUOUS
10
1.9970379133858267
20
-2.2318946456692914
11
1.993250590551181
21
-2.2232603937007873
0
LINE
8
BLACK
6
CONTINUOUS
10
1.993250590551181
20
-2.2232603937007873
11
1.990936062992126
21
-2.2141205511811024
0
LINE
8
BLACK
6
CONTINUOUS
10
1.990936062992126
20
-2.2141205511811024
11
1.9901574803149606
21
-2.204724409448819
0
LINE
8
BLACK
6
CONTINUOUS
10
1.9901574803149606
20
-2.204724409448819
11
1.990936062992126
21
-2.1953282677165356
0
LINE
8
BLACK
6
CONTINUOUS
10
1.990936062992126
20
-2.1953282677165356
11
1.993250590551181
21
-2.1861884251968502
0
LINE
8
BLACK
6
CONTINUOUS
10
1.993250590551181
20
-2.1861884251968502
11
1.9970379133858267
21
-2.1775541732283465
0
LINE
8
BLACK
6
CONTINUOUS
10
1.9970379133858267
20
-2.1775541732283465
11
2.0021947244094487
21
-2.1696611023622046
0
LINE
8
BLACK
6
CONTINUOUS
10
2.0021947244094487
20
-2.1696611023622046
11
2.0085803937007873
21
-2.1627244094488187
0
LINE
8
BLACK
6
CONTINUOUS
10
2.0085803937007873
20
-2.1627244094488187
11
2.0160206692913385
21
-2.1569334251968502
0
LINE
8
BLACK
6
CONTINUOUS
10
2.0160206692913385
20
-2.1569334251968502
11
2.0243126771653541
21
-2.1524460236220473
0
LINE
8
BLACK
6
CONTINUOUS
10
2.0243126771653541
20
-2.1524460236220473
11
2.0332301574803151
21
-2.1493846456692913
0
LINE
8
BLACK
6
CONTINUOUS
10
2.0332301574803151
20
-2.1493846456692913
11
2.0425299212598427
21
-2.1478327559055117
0
LINE
8
BLACK
6
CONTINUOUS
10
2.0425299212598427
20
-2.1478327559055117
11
2.0519582677165356
21
-2.1478327559055117
0
LINE
8
BLACK
6
CONTINUOUS
10
2.0519582677165356
20
-2.1478327559055117
11
2.0612580314960631
21
-2.1493846456692913
0
LINE
8
BLACK
6
CONTINUOUS
10
1.9966479921259843
20
-2.2136458661417322
11
1.9989658661417322
21
-2.2222962598425196
0
LINE
8
BLACK
6
CONTINUOUS
10
1.9989658661417322
20
-2.2222962598425196
11
2.0027506299212599
21
-2.230412716535433
0
LINE
8
BLACK
6
CONTINUOUS
10
2.0027506299212599
20
-2.230412716535433
11
2.0078873228346454
21
-2.237748661417323
0
LINE
8
BLACK
6
CONTINUOUS
10
2.0078873228346454
20
-2.237748661417323
11
2.0142198425196849
21
-2.244081181102362
0
LINE
8
BLACK
6
CONTINUOUS
10
2.0142198425196849
20
-2.244081181102362
11
2.0215557874015748
21
-2.249217874015748
0
LINE
8
BLACK
6
CONTINUOUS
10
2.0215557874015748
20
-2.249217874015748
11
2.0296722440944883
21
-2.2530026377952757
0
LINE
8
BLACK
6
CONTINUOUS
10
2.0296722440944883
20
-2.2530026377952757
11
2.0383226377952757
21
-2.2553205118110236
0
LINE
8
BLACK
6
CONTINUOUS
10
2.0383226377952757
20
-2.2553205118110236
11
2.0472440944881889
21
-2.2561010236220471
0
LINE
8
BLACK
6
CONTINUOUS
10
2.0472440944881889
20
-2.2561010236220471
11
2.0561655511811021
21
-2.2553205118110236
0
LINE
8
BLACK
6
CONTINUOUS
10
2.0561655511811021
20
-2.2553205118110236
11
2.0648159448818899
21
-2.2530026377952757
0
LINE
8
BLACK
6
CONTINUOUS
10
2.0648159448818899
20
-2.2530026377952757
11
2.072932401574803
21
-2.249217874015748
0
LINE
8
BLACK
6
CONTINUOUS
10
2.072932401574803
20
-2.249217874015748
11
2.0802683464566929
21
-2.244081181102362
0
LINE
8
BLACK
6
CONTINUOUS
10
2.0802683464566929
20
-2.244081181102362
11
2.0866008661417323
21
-2.237748661417323
0
LINE
8
BLACK
6
CONTINUOUS
10
2.0866008661417323
20
-2.237748661417323
11
2.0917375590551179
21
-2.230412716535433
0
LINE
8
BLACK
6
CONTINUOUS
10
2.0917375590551179
20
-2.230412716535433
11
2.0955223228346456
21
-2.2222962598425196
0
LINE
8
BLACK
6
CONTINUOUS
10
2.0955223228346456
20
-2.2222962598425196
11
2.0978401968503935
21
-2.2136458661417322
0
LINE
8
BLACK
6
CONTINUOUS
10
2.0978401968503935
20
-2.2136458661417322
11
2.0986207086614175
21
-2.204724409448819
0
LINE
8
BLACK
6
CONTINUOUS
10
2.0986207086614175
20
-2.204724409448819
11
2.0978401968503935
21
-2.1958029527559053
0
LINE
8
BLACK
6
CONTINUOUS
10
2.0978401968503935
20
-2.1958029527559053
11
2.0955223228346456
21
-2.187152559055118
0
LINE
8
BLACK
6
CONTINUOUS
10
2.0955223228346456
20
-2.187152559055118
11
2.0917375590551179
21
-2.1790361023622045
0
LINE
8
BLACK
6
CONTINUOUS
10
2.0917375590551179
20
-2.1790361023622045
11
2.0866008661417323
21
-2.171700157480315
0
LINE
8
BLACK
6
CONTINUOUS
10
2.0866008661417323
20
-2.171700157480315
11
2.0802683464566929
21
-2.1653676377952755
0
LINE
8
BLACK
6
CONTINUOUS
10
2.0802683464566929
20
-2.1653676377952755
11
2.072932401574803
21
-2.1602309448818899
0
LINE
8
BLACK
6
CONTINUOUS
10
2.072932401574803
20
-2.1602309448818899
11
2.0648159448818899
21
-2.1564461811023623
0
LINE
8
BLACK
6
CONTINUOUS
10
2.0648159448818899
20
-2.1564461811023623
11
2.0561655511811021
21
-2.154128307086614
0
LINE
8
BLACK
6
CONTINUOUS
10
2.0561655511811021
20
-2.154128307086614
11
2.0472440944881889
21
-2.1533477952755904
0
LINE
8
BLACK
6
CONTINUOUS
10
2.0472440944881889
20
-2.1533477952755904
11
2.0383226377952757
21
-2.154128307086614
0
LINE
8
BLACK
6
CONTINUOUS
10
2.0383226377952757
20
-2.154128307086614
11
2.0296722440944883
21
-2.1564461811023623
0
LINE
8
BLACK
6
CONTINUOUS
10
2.0296722440944883
20
-2.1564461811023623
11
2.0215557874015748
21
-2.1602309448818899
0
LINE
8
BLACK
6
CONTINUOUS
10
2.0215557874015748
20
-2.1602309448818899
11
2.0142198425196849
21
-2.1653676377952755
0
LINE
8
BLACK
6
CONTINUOUS
10
2.0142198425196849
20
-2.1653676377952755
11
2.0078873228346454
21
-2.171700157480315
0
LINE
8
BLACK
6
CONTINUOUS
10
2.0078873228346454
20
-2.171700157480315
11
2.0027506299212599
21
-2.1790361023622045
0
LINE
8
BLACK
6
CONTINUOUS
10
2.0027506299212599
20
-2.1790361023622045
11
1.9989658661417322
21
-2.187152559055118
0
LINE
8
BLACK
6
CONTINUOUS
10
1.9989658661417322
20
-2.187152559055118
11
1.9966479921259843
21
-2.1958029527559053
0
LINE
8
BLACK
6
CONTINUOUS
10
1.9966479921259843
20
-2.1958029527559053
11
1.9958674803149605
21
-2.204724409448819
0
LINE
8
BLACK
6
CONTINUOUS
10
1.9958674803149605
20
-2.204724409448819
11
1.9966479921259843
21
-2.2136458661417322
0
LINE
8
BLACK
6
CONTINUOUS
10
2.0612396456692914
20
-2.0805103937007874
11
2.0750592125984251
21
-2.0828584251968505
0
LINE
8
BLACK
6
CONTINUOUS
10
2.0750592125984251
20
-2.0828584251968505
11
2.0885289763779529
21
-2.0867389763779527
0
LINE
8
BLACK
6
CONTINUOUS
10
2.0885289763779529
20
-2.0867389763779527
11
2.1014795669291337
21
-2.0921033070866142
0
LINE
8
BLACK
6
CONTINUOUS
10
2.1014795669291337
20
-2.0921033070866142
11
2.1137481102362203
21
-2.098883897637795
0
LINE
8
BLACK
6
CONTINUOUS
10
2.1137481102362203
20
-2.098883897637795
11
2.1251803149606299
21
-2.106995472440945
0
LINE
8
BLACK
6
CONTINUOUS
10
2.1251803149606299
20
-2.106995472440945
11
2.1356324409448817
21
-2.1163360629921257
0
LINE
8
BLACK
6
CONTINUOUS
10
2.1356324409448817
20
-2.1163360629921257
11
2.1449730314960629
21
-2.126788188976378
0
LINE
8
BLACK
6
CONTINUOUS
10
2.1449730314960629
20
-2.126788188976378
11
2.1530846062992124
21
-2.1382203937007875
0
LINE
8
BLACK
6
CONTINUOUS
10
2.1530846062992124
20
-2.1382203937007875
11
2.1598651968503937
21
-2.1504889370078741
0
LINE
8
BLACK
6
CONTINUOUS
10
2.1598651968503937
20
-2.1504889370078741
11
2.1652295275590552
21
-2.163439527559055
0
LINE
8
BLACK
6
CONTINUOUS
10
2.1652295275590552
20
-2.163439527559055
11
2.1691100787401574
21
-2.1769092913385828
0
LINE
8
BLACK
6
CONTINUOUS
10
2.1691100787401574
20
-2.1769092913385828
11
2.1714581102362205
21
-2.1907288582677165
0
LINE
8
BLACK
6
CONTINUOUS
10
2.1714581102362205
20
-2.1907288582677165
11
2.1722440944881889
21
-2.204724409448819
0
LINE
8
BLACK
6
CONTINUOUS
10
2.1722440944881889
20
-2.204724409448819
11
2.1714581102362205
21
-2.2187199606299211
0
LINE
8
BLACK
6
CONTINUOUS
10
2.1714581102362205
20
-2.2187199606299211
11
2.1691100787401574
21
-2.2325395275590552
0
LINE
8
BLACK
6
CONTINUOUS
10
2.1691100787401574
20
-2.2325395275590552
11
2.1652295275590552
21
-2.2460092913385825
0
LINE
8
BLACK
6
CONTINUOUS
10
2.1652295275590552
20
-2.2460092913385825
11
2.1598651968503937
21
-2.2589598818897638
0
LINE
8
BLACK
6
CONTINUOUS
10
2.1598651968503937
20
-2.2589598818897638
11
2.1530846062992124
21
-2.2712284251968504
0
LINE
8
BLACK
6
CONTINUOUS
10
2.1530846062992124
20
-2.2712284251968504
11
2.1449730314960629
21
-2.28266062992126
0
LINE
8
BLACK
6
CONTINUOUS
10
2.1449730314960629
20
-2.28266062992126
11
2.1356324409448817
21
-2.2931127559055118
0
LINE
8
BLACK
6
CONTINUOUS
10
2.1356324409448817
20
-2.2931127559055118
11
2.1251803149606299
21
-2.302453346456693
0
LINE
8
BLACK
6
CONTINUOUS
10
2.1251803149606299
20
-2.302453346456693
11
2.1137481102362203
21
-2.3105649212598425
0
LINE
8
BLACK
6
CONTINUOUS
10
2.1137481102362203
20
-2.3105649212598425
11
2.1014795669291337
21
-2.3173455118110238
0
LINE
8
BLACK
6
CONTINUOUS
10
2.1014795669291337
20
-2.3173455118110238
11
2.0885289763779529
21
-2.3227098425196848
0
LINE
8
BLACK
6
CONTINUOUS
10
2.0885289763779529
20
-2.3227098425196848
11
2.0750592125984251
21
-2.3265903937007875
0
LINE
8
BLACK
6
CONTINUOUS
10
2.0750592125984251
20
-2.3265903937007875
11
2.0612396456692914
21
-2.3289384251968501
0
LINE
8
BLACK
6
CONTINUOUS
10
2.0612396456692914
20
-2.3289384251968501
11
2.0472440944881889
21
-2.329724409448819
0
LINE
8
BLACK
6
CONTINUOUS
10
2.0472440944881889
20
-2.329724409448819
11
2.0332485433070864
21
-2.3289384251968501
0
LINE
8
BLACK
6
CONTINUOUS
10
2.0332485433070864
20
-2.3289384251968501
11
2.0194289763779527
21
-2.3265903937007875
0
LINE
8
BLACK
6
CONTINUOUS
10
2.0194289763779527
20
-2.3265903937007875
11
2.0059592125984254
21
-2.3227098425196848
0
LINE
8
BLACK
6
CONTINUOUS
10
2.0059592125984254
20
-2.3227098425196848
11
1.993008622047244
21
-2.3173455118110238
0
LINE
8
BLACK
6
CONTINUOUS
10
1.993008622047244
20
-2.3173455118110238
11
1.9807400787401575
21
-2.3105649212598425
0
LINE
8
BLACK
6
CONTINUOUS
10
1.9807400787401575
20
-2.3105649212598425
11
1.9693078740157479
21
-2.302453346456693
0
LINE
8
BLACK
6
CONTINUOUS
10
1.9693078740157479
20
-2.302453346456693
11
1.9588557480314961
21
-2.2931127559055118
0
LINE
8
BLACK
6
CONTINUOUS
10
1.9588557480314961
20
-2.2931127559055118
11
1.9495151574803149
21
-2.28266062992126
0
LINE
8
BLACK
6
CONTINUOUS
10
1.9495151574803149
20
-2.28266062992126
11
1.9414035826771654
21
-2.2712284251968504
0
LINE
8
BLACK
6
CONTINUOUS
10
1.9414035826771654
20
-2.2712284251968504
11
1.9346229921259841
21
-2.2589598818897638
0
LINE
8
BLACK
6
CONTINUOUS
10
1.9346229921259841
20
-2.2589598818897638
11
1.9292586614173228
21
-2.2460092913385825
0
LINE
8
BLACK
6
CONTINUOUS
10
1.9292586614173228
20
-2.2460092913385825
11
1.9253781102362204
21
-2.2325395275590552
0
LINE
8
BLACK
6
CONTINUOUS
10
1.9253781102362204
20
-2.2325395275590552
11
1.9230300787401575
21
-2.2187199606299211
0
LINE
8
BLACK
6
CONTINUOUS
10
1.9230300787401575
20
-2.2187199606299211
11
1.9222440944881889
21
-2.204724409448819
0
LINE
8
BLACK
6
CONTINUOUS
10
1.9222440944881889
20
-2.204724409448819
11
1.9230300787401575
21
-2.1907288582677165
0
LINE
8
BLACK
6
CONTINUOUS
10
1.9230300787401575
20
-2.1907288582677165
11
1.9253781102362204
21
-2.1769092913385828
0
LINE
8
BLACK
6
CONTINUOUS
10
1.9253781102362204
20
-2.1769092913385828
11
1.9292586614173228
21
-2.163439527559055
0
LINE
8
BLACK
6
CONTINUOUS
10
1.9292586614173228
20
-2.163439527559055
11
1.9346229921259841
21
-2.1504889370078741
0
LINE
8
BLACK
6
CONTINUOUS
10
1.9346229921259841
20
-2.1504889370078741
11
1.9414035826771654
21
-2.1382203937007875
0
LINE
8
BLACK
6
CONTINUOUS
10
1.9414035826771654
20
-2.1382203937007875
11
1.9495151574803149
21
-2.126788188976378
0
LINE
8
BLACK
6
CONTINUOUS
10
1.9495151574803149
20
-2.126788188976378
11
1.9588557480314961
21
-2.1163360629921257
0
LINE
8
BLACK
6
CONTINUOUS
10
1.9588557480314961
20
-2.1163360629921257
11
1.9693078740157479
21
-2.106995472440945
0
LINE
8
BLACK
6
CONTINUOUS
10
1.9693078740157479
20
-2.106995472440945
11
1.9807400787401575
21
-2.098883897637795
0
LINE
8
BLACK
6
CONTINUOUS
10
1.9807400787401575
20
-2.098883897637795
11
1.993008622047244
21
-2.0921033070866142
0
LINE
8
BLACK
6
CONTINUOUS
10
1.993008622047244
20
-2.0921033070866142
11
2.0059592125984254
21
-2.0867389763779527
0
LINE
8
BLACK
6
CONTINUOUS
10
2.0059592125984254
20
-2.0867389763779527
11
2.0194289763779527
21
-2.0828584251968505
0
LINE
8
BLACK
6
CONTINUOUS
10
2.0194289763779527
20
-2.0828584251968505
11
2.0332485433070864
21
-2.0805103937007874
0
LINE
8
BLACK
6
CONTINUOUS
10
2.0332485433070864
20
-2.0805103937007874
11
2.0472440944881889
21
-2.079724409448819
0
LINE
8
BLACK
6
CONTINUOUS
10
2.0472440944881889
20
-2.079724409448819
11
2.0612396456692914
21
-2.0805103937007874
0
LINE
8
BLACK
6
CONTINUOUS
10
1.9287120078740156
20
-2.2180797637795275
11
1.9309526377952755
21
-2.2312671653543306
0
LINE
8
BLACK
6
CONTINUOUS
10
1.9309526377952755
20
-2.2312671653543306
11
1.9346556692913386
21
-2.2441207874015747
0
LINE
8
BLACK
6
CONTINUOUS
10
1.9346556692913386
20
-2.2441207874015747
11
1.9397746062992125
21
-2.2564789763779527
0
LINE
8
BLACK
6
CONTINUOUS
10
1.9397746062992125
20
-2.2564789763779527
11
1.9462450393700788
21
-2.268186338582677
0
LINE
8
BLACK
6
CONTINUOUS
10
1.9462450393700788
20
-2.268186338582677
11
1.9539855905511812
21
-2.2790955905511812
0
LINE
8
BLACK
6
CONTINUOUS
10
1.9539855905511812
20
-2.2790955905511812
11
1.9628988976377952
21
-2.2890696062992126
0
LINE
8
BLACK
6
CONTINUOUS
10
1.9628988976377952
20
-2.2890696062992126
11
1.9728729133858267
21
-2.2979829133858267
0
LINE
8
BLACK
6
CONTINUOUS
10
1.9728729133858267
20
-2.2979829133858267
11
1.9837821653543306
21
-2.3057234645669289
0
LINE
8
BLACK
6
CONTINUOUS
10
1.9837821653543306
20
-2.3057234645669289
11
1.9954895275590552
21
-2.3121938976377954
0
LINE
8
BLACK
6
CONTINUOUS
10
1.9954895275590552
20
-2.3121938976377954
11
2.0078477165354331
21
-2.3173128346456693
0
LINE
8
BLACK
6
CONTINUOUS
10
2.0078477165354331
20
-2.3173128346456693
11
2.0207013385826773
21
-2.3210158661417322
0
LINE
8
BLACK
6
CONTINUOUS
10
2.0207013385826773
20
-2.3210158661417322
11
2.0338887401574803
21
-2.3232564960629922
0
LINE
8
BLACK
6
CONTINUOUS
10
2.0338887401574803
20
-2.3232564960629922
11
2.0472440944881889
21
-2.324006535433071
0
LINE
8
BLACK
6
CONTINUOUS
10
2.0472440944881889
20
-2.324006535433071
11
2.0605994488188975
21
-2.3232564960629922
0
LINE
8
BLACK
6
CONTINUOUS
10
2.0605994488188975
20
-2.3232564960629922
11
2.0737868503937009
21
-2.3210158661417322
0
LINE
8
BLACK
6
CONTINUOUS
10
2.0737868503937009
20
-2.3210158661417322
11
2.0866404724409446
21
-2.3173128346456693
0
LINE
8
BLACK
6
CONTINUOUS
10
2.0866404724409446
20
-2.3173128346456693
11
2.0989986614173226
21
-2.3121938976377954
0
LINE
8
BLACK
6
CONTINUOUS
10
2.0989986614173226
20
-2.3121938976377954
11
2.1107060236220474
21
-2.3057234645669289
0
LINE
8
BLACK
6
CONTINUOUS
10
2.1107060236220474
20
-2.3057234645669289
11
2.1216152755905511
21
-2.2979829133858267
0
LINE
8
BLACK
6
CONTINUOUS
10
2.1216152755905511
20
-2.2979829133858267
11
2.1315892913385825
21
-2.2890696062992126
0
LINE
8
BLACK
6
CONTINUOUS
10
2.1315892913385825
20
-2.2890696062992126
11
2.1405025984251966
21
-2.2790955905511812
0
LINE
8
BLACK
6
CONTINUOUS
10
2.1405025984251966
20
-2.2790955905511812
11
2.1482431496062993
21
-2.268186338582677
0
LINE
8
BLACK
6
CONTINUOUS
10
2.1482431496062993
20
-2.268186338582677
11
2.1547135826771653
21
-2.2564789763779527
0
LINE
8
BLACK
6
CONTINUOUS
10
2.1547135826771653
20
-2.2564789763779527
11
2.1598325196850392
21
-2.2441207874015747
0
LINE
8
BLACK
6
CONTINUOUS
10
2.1598325196850392
20
-2.2441207874015747
11
2.1635355511811025
21
-2.2312671653543306
0
LINE
8
BLACK
6
CONTINUOUS
10
2.1635355511811025
20
-2.2312671653543306
11
2.1657761811023621
21
-2.2180797637795275
0
LINE
8
BLACK
6
CONTINUOUS
10
2.1657761811023621
20
-2.2180797637795275
11
2.1665262204724409
21
-2.204724409448819
0
LINE
8
BLACK
6
CONTINUOUS
10
2.1665262204724409
20
-2.204724409448819
11
2.1657761811023621
21
-2.19136905511811
0
LINE
8
BLACK
6
CONTINUOUS
10
2.1657761811023621
20
-2.19136905511811
11
2.1635355511811025
21
-2.178181653543307
0
LINE
8
BLACK
6
CONTINUOUS
10
2.1635355511811025
20
-2.178181653543307
11
2.1598325196850392
21
-2.1653280314960628
0
LINE
8
BLACK
6
CONTINUOUS
10
2.1598325196850392
20
-2.1653280314960628
11
2.1547135826771653
21
-2.1529698425196848
0
LINE
8
BLACK
6
CONTINUOUS
10
2.1547135826771653
20
-2.1529698425196848
11
2.1482431496062993
21
-2.1412624803149605
0
LINE
8
BLACK
6
CONTINUOUS
10
2.1482431496062993
20
-2.1412624803149605
11
2.1405025984251966
21
-2.1303532283464568
0
LINE
8
BLACK
6
CONTINUOUS
10
2.1405025984251966
20
-2.1303532283464568
11
2.1315892913385825
21
-2.1203792125984253
0
LINE
8
BLACK
6
CONTINUOUS
10
2.1315892913385825
20
-2.1203792125984253
11
2.1216152755905511
21
-2.1114659055118108
0
LINE
8
BLACK
6
CONTINUOUS
10
2.1216152755905511
20
-2.1114659055118108
11
2.1107060236220474
21
-2.1037253543307086
0
LINE
8
BLACK
6
CONTINUOUS
10
2.1107060236220474
20
-2.1037253543307086
11
2.0989986614173226
21
-2.0972549212598426
0
LINE
8
BLACK
6
CONTINUOUS
10
2.0989986614173226
20
-2.0972549212598426
11
2.0866404724409446
21
-2.0921359842519687
0
LINE
8
BLACK
6
CONTINUOUS
10
2.0866404724409446
20
-2.0921359842519687
11
2.0737868503937009
21
-2.0884329527559053
0
LINE
8
BLACK
6
CONTINUOUS
10
2.0737868503937009
20
-2.0884329527559053
11
2.0605994488188975
21
-2.0861923228346457
0
LINE
8
BLACK
6
CONTINUOUS
10
2.0605994488188975
20
-2.0861923228346457
11
2.0472440944881889
21
-2.0854422834645669
0
LINE
8
BLACK
6
CONTINUOUS
10
2.0472440944881889
20
-2.0854422834645669
11
2.0338887401574803
21
-2.0861923228346457
0
LINE
8
BLACK
6
CONTINUOUS
10
2.0338887401574803
20
-2.0861923228346457
11
2.0207013385826773
21
-2.0884329527559053
0
LINE
8
BLACK
6
CONTINUOUS
10
2.0207013385826773
20
-2.0884329527559053
11
2.0078477165354331
21
-2.0921359842519687
0
LINE
8
BLACK
6
CONTINUOUS
10
2.0078477165354331
20
-2.0921359842519687
11
1.9954895275590552
21
-2.0972549212598426
0
LINE
8
BLACK
6
CONTINUOUS
10
1.9954895275590552
20
-2.0972549212598426
11
1.9837821653543306
21
-2.1037253543307086
0
LINE
8
BLACK
6
CONTINUOUS
10
1.9837821653543306
20
-2.1037253543307086
11
1.9728729133858267
21
-2.1114659055118108
0
LINE
8
BLACK
6
CONTINUOUS
10
1.9728729133858267
20
-2.1114659055118108
11
1.9628988976377952
21
-2.1203792125984253
0
LINE
8
BLACK
6
CONTINUOUS
10
1.9628988976377952
20
-2.1203792125984253
11
1.9539855905511812
21
-2.1303532283464568
0
LINE
8
BLACK
6
CONTINUOUS
10
1.9539855905511812
20
-2.1303532283464568
11
1.9462450393700788
21
-2.1412624803149605
0
LINE
8
BLACK
6
CONTINUOUS
10
1.9462450393700788
20
-2.1412624803149605
11
1.9397746062992125
21
-2.1529698425196848
0
LINE
8
BLACK
6
CONTINUOUS
10
1.9397746062992125
20
-2.1529698425196848
11
1.9346556692913386
21
-2.1653280314960628
0
LINE
8
BLACK
6
CONTINUOUS
10
1.9346556692913386
20
-2.1653280314960628
11
1.9309526377952755
21
-2.178181653543307
0
LINE
8
BLACK
6
CONTINUOUS
10
1.9309526377952755
20
-2.178181653543307
11
1.9287120078740156
21
-2.19136905511811
0
LINE
8
BLACK
6
CONTINUOUS
10
1.9287120078740156
20
-2.19136905511811
11
1.9279619685039369
21
-2.204724409448819
0
LINE
8
BLACK
6
CONTINUOUS
10
1.9279619685039369
20
-2.204724409448819
11
1.9287120078740156
21
-2.2180797637795275
0
LINE
8
BLACK
6
CONTINUOUS
10
4.3447225984251965
20
-2.1493846456692913
11
4.353640078740157
21
-2.1524460236220473
0
LINE
8
BLACK
6
CONTINUOUS
10
4.353640078740157
20
-2.1524460236220473
11
4.3619320866141731
21
-2.1569334251968502
0
LINE
8
BLACK
6
CONTINUOUS
10
4.3619320866141731
20
-2.1569334251968502
11
4.3693723622047242
21
-2.1627244094488187
0
LINE
8
BLACK
6
CONTINUOUS
10
4.3693723622047242
20
-2.1627244094488187
11
4.3757580314960629
21
-2.1696611023622046
0
LINE
8
BLACK
6
CONTINUOUS
10
4.3757580314960629
20
-2.1696611023622046
11
4.3809148425196849
21
-2.1775541732283465
0
LINE
8
BLACK
6
CONTINUOUS
10
4.3809148425196849
20
-2.1775541732283465
11
4.384702165354331
21
-2.1861884251968502
0
LINE
8
BLACK
6
CONTINUOUS
10
4.384702165354331
20
-2.1861884251968502
11
4.3870166929133854
21
-2.1953282677165356
0
LINE
8
BLACK
6
CONTINUOUS
10
4.3870166929133854
20
-2.1953282677165356
11
4.3877952755905509
21
-2.204724409448819
0
LINE
8
BLACK
6
CONTINUOUS
10
4.3877952755905509
20
-2.204724409448819
11
4.3870166929133854
21
-2.2141205511811024
0
LINE
8
BLACK
6
CONTINUOUS
10
4.3870166929133854
20
-2.2141205511811024
11
4.384702165354331
21
-2.2232603937007873
0
LINE
8
BLACK
6
CONTINUOUS
10
4.384702165354331
20
-2.2232603937007873
11
4.3809148425196849
21
-2.2318946456692914
0
LINE
8
BLACK
6
CONTINUOUS
10
4.3809148425196849
20
-2.2318946456692914
11
4.3757580314960629
21
-2.239787716535433
0
LINE
8
BLACK
6
CONTINUOUS
10
4.3757580314960629
20
-2.239787716535433
11
4.3693723622047242
21
-2.2467244094488188
0
LINE
8
BLACK
6
CONTINUOUS
10
4.3693723622047242
20
-2.2467244094488188
11
4.3619320866141731
21
-2.2525153937007873
0
LINE
8
BLACK
6
CONTINUOUS
10
4.3619320866141731
20
-2.2525153937007873
11
4.353640078740157
21
-2.2570027952755907
0
LINE
8
BLACK
6
CONTINUOUS
10
4.353640078740157
20
-2.2570027952755907
11
4.3447225984251965
21
-2.2600641732283462
0
LINE
8
BLACK
6
CONTINUOUS
10
4.3447225984251965
20
-2.2600641732283462
11
4.3354228346456694
21
-2.2616160629921258
0
LINE
8
BLACK
6
CONTINUOUS
10
4.3354228346456694
20
-2.2616160629921258
11
4.325994488188976
21
-2.2616160629921258
0
LINE
8
BLACK
6
CONTINUOUS
10
4.325994488188976
20
-2.2616160629921258
11
4.3166947244094489
21
-2.2600641732283462
0
LINE
8
BLACK
6
CONTINUOUS
10
4.3166947244094489
20
-2.2600641732283462
11
4.3077772440944884
21
-2.2570027952755907
0
LINE
8
BLACK
6
CONTINUOUS
10
4.3077772440944884
20
-2.2570027952755907
11
4.2994852362204723
21
-2.2525153937007873
0
LINE
8
BLACK
6
CONTINUOUS
10
4.2994852362204723
20
-2.2525153937007873
11
4.2920449606299211
21
-2.2467244094488188
0
LINE
8
BLACK
6
CONTINUOUS
10
4.2920449606299211
20
-2.2467244094488188
11
4.2856592913385825
21
-2.239787716535433
0
LINE
8
BLACK
6
CONTINUOUS
10
4.2856592913385825
20
-2.239787716535433
11
4.2805024803149605
21
-2.2318946456692914
0
LINE
8
BLACK
6
CONTINUOUS
10
4.2805024803149605
20
-2.2318946456692914
11
4.2767151574803153
21
-2.2232603937007873
0
LINE
8
BLACK
6
CONTINUOUS
10
4.2767151574803153
20
-2.2232603937007873
11
4.27440062992126
21
-2.2141205511811024
0
LINE
8
BLACK
6
CONTINUOUS
10
4.27440062992126
20
-2.2141205511811024
11
4.2736220472440944
21
-2.204724409448819
0
LINE
8
BLACK
6
CONTINUOUS
10
4.2736220472440944
20
-2.204724409448819
11
4.27440062992126
21
-2.1953282677165356
0
LINE
8
BLACK
6
CONTINUOUS
10
4.27440062992126
20
-2.1953282677165356
11
4.2767151574803153
21
-2.1861884251968502
0
LINE
8
BLACK
6
CONTINUOUS
10
4.2767151574803153
20
-2.1861884251968502
11
4.2805024803149605
21
-2.1775541732283465
0
LINE
8
BLACK
6
CONTINUOUS
10
4.2805024803149605
20
-2.1775541732283465
11
4.2856592913385825
21
-2.1696611023622046
0
LINE
8
BLACK
6
CONTINUOUS
10
4.2856592913385825
20
-2.1696611023622046
11
4.2920449606299211
21
-2.1627244094488187
0
LINE
8
BLACK
6
CONTINUOUS
10
4.2920449606299211
20
-2.1627244094488187
11
4.2994852362204723
21
-2.1569334251968502
0
LINE
8
BLACK
6
CONTINUOUS
10
4.2994852362204723
20
-2.1569334251968502
11
4.3077772440944884
21
-2.1524460236220473
0
LINE
8
BLACK
6
CONTINUOUS
10
4.3077772440944884
20
-2.1524460236220473
11
4.3166947244094489
21
-2.1493846456692913
0
LINE
8
BLACK
6
CONTINUOUS
10
4.3166947244094489
20
-2.1493846456692913
11
4.325994488188976
21
-2.1478327559055117
0
LINE
8
BLACK
6
CONTINUOUS
10
4.325994488188976
20
-2.1478327559055117
11
4.3354228346456694
21
-2.1478327559055117
0
LINE
8
BLACK
6
CONTINUOUS
10
4.3354228346456694
20
-2.1478327559055117
11
4.3447225984251965
21
-2.1493846456692913
0
LINE
8
BLACK
6
CONTINUOUS
10
4.2801125590551177
20
-2.2136458661417322
11
4.282430433070866
21
-2.2222962598425196
0
LINE
8
BLACK
6
CONTINUOUS
10
4.282430433070866
20
-2.2222962598425196
11
4.2862151968503932
21
-2.230412716535433
0
LINE
8
BLACK
6
CONTINUOUS
10
4.2862151968503932
20
-2.230412716535433
11
4.2913518897637797
21
-2.237748661417323
0
LINE
8
BLACK
6
CONTINUOUS
10
4.2913518897637797
20
-2.237748661417323
11
4.2976844094488191
21
-2.244081181102362
0
LINE
8
BLACK
6
CONTINUOUS
10
4.2976844094488191
20
-2.244081181102362
11
4.3050203543307086
21
-2.249217874015748
0
LINE
8
BLACK
6
CONTINUOUS
10
4.3050203543307086
20
-2.249217874015748
11
4.3131368110236217
21
-2.2530026377952757
0
LINE
8
BLACK
6
CONTINUOUS
10
4.3131368110236217
20
-2.2530026377952757
11
4.3217872047244095
21
-2.2553205118110236
0
LINE
8
BLACK
6
CONTINUOUS
10
4.3217872047244095
20
-2.2553205118110236
11
4.3307086614173231
21
-2.2561010236220471
0
LINE
8
BLACK
6
CONTINUOUS
10
4.3307086614173231
20
-2.2561010236220471
11
4.3396301181102359
21
-2.2553205118110236
0
LINE
8
BLACK
6
CONTINUOUS
10
4.3396301181102359
20
-2.2553205118110236
11
4.3482805118110237
21
-2.2530026377952757
0
LINE
8
BLACK
6
CONTINUOUS
10
4.3482805118110237
20
-2.2530026377952757
11
4.3563969685039368
21
-2.249217874015748
0
LINE
8
BLACK
6
CONTINUOUS
10
4.3563969685039368
20
-2.249217874015748
11
4.3637329133858263
21
-2.244081181102362
0
LINE
8
BLACK
6
CONTINUOUS
10
4.3637329133858263
20
-2.244081181102362
11
4.3700654330708657
21
-2.237748661417323
0
LINE
8
BLACK
6
CONTINUOUS
10
4.3700654330708657
20
-2.237748661417323
11
4.3752021259842522
21
-2.230412716535433
0
LINE
8
BLACK
6
CONTINUOUS
10
4.3752021259842522
20
-2.230412716535433
11
4.3789868897637794
21
-2.2222962598425196
0
LINE
8
BLACK
6
CONTINUOUS
10
4.3789868897637794
20
-2.2222962598425196
11
4.3813047637795277
21
-2.2136458661417322
0
LINE
8
BLACK
6
CONTINUOUS
10
4.3813047637795277
20
-2.2136458661417322
11
4.3820852755905513
21
-2.204724409448819
0
LINE
8
BLACK
6
CONTINUOUS
10
4.3820852755905513
20
-2.204724409448819
11
4.3813047637795277
21
-2.1958029527559053
0
LINE
8
BLACK
6
CONTINUOUS
10
4.3813047637795277
20
-2.1958029527559053
11
4.3789868897637794
21
-2.187152559055118
0
LINE
8
BLACK
6
CONTINUOUS
10
4.3789868897637794
20
-2.187152559055118
11
4.3752021259842522
21
-2.1790361023622045
0
LINE
8
BLACK
6
CONTINUOUS
10
4.3752021259842522
20
-2.1790361023622045
11
4.3700654330708657
21
-2.171700157480315
0
LINE
8
BLACK
6
CONTINUOUS
10
4.3700654330708657
20
-2.171700157480315
11
4.3637329133858263
21
-2.1653676377952755
0
LINE
8
BLACK
6
CONTINUOUS
10
4.3637329133858263
20
-2.1653676377952755
11
4.3563969685039368
21
-2.1602309448818899
0
LINE
8
BLACK
6
CONTINUOUS
10
4.3563969685039368
20
-2.1602309448818899
11
4.3482805118110237
21
-2.1564461811023623
0
LINE
8
BLACK
6
CONTINUOUS
10
4.3482805118110237
20
-2.1564461811023623
11
4.3396301181102359
21
-2.154128307086614
0
LINE
8
BLACK
6
CONTINUOUS
10
4.3396301181102359
20
-2.154128307086614
11
4.3307086614173231
21
-2.1533477952755904
0
LINE
8
BLACK
6
CONTINUOUS
10
4.3307086614173231
20
-2.1533477952755904
11
4.3217872047244095
21
-2.154128307086614
0
LINE
8
BLACK
6
CONTINUOUS
10
4.3217872047244095
20
-2.154128307086614
11
4.3131368110236217
21
-2.1564461811023623
0
LINE
8
BLACK
6
CONTINUOUS
10
4.3131368110236217
20
-2.1564461811023623
11
4.3050203543307086
21
-2.1602309448818899
0
LINE
8
BLACK
6
CONTINUOUS
10
4.3050203543307086
20
-2.1602309448818899
11
4.2976844094488191
21
-2.1653676377952755
0
LINE
8
BLACK
6
CONTINUOUS
10
4.2976844094488191
20
-2.1653676377952755
11
4.2913518897637797
21
-2.171700157480315
0
LINE
8
BLACK
6
CONTINUOUS
10
4.2913518897637797
20
-2.171700157480315
11
4.2862151968503932
21
-2.1790361023622045
0
LINE
8
BLACK
6
CONTINUOUS
10
4.2862151968503932
20
-2.1790361023622045
11
4.282430433070866
21
-2.187152559055118
0
LINE
8
BLACK
6
CONTINUOUS
10
4.282430433070866
20
-2.187152559055118
11
4.2801125590551177
21
-2.1958029527559053
0
LINE
8
BLACK
6
CONTINUOUS
10
4.2801125590551177
20
-2.1958029527559053
11
4.2793320472440941
21
-2.204724409448819
0
LINE
8
BLACK
6
CONTINUOUS
10
4.2793320472440941
20
-2.204724409448819
11
4.2801125590551177
21
-2.2136458661417322
0
LINE
8
BLACK
6
CONTINUOUS
10
4.3447042125984252
20
-2.0805103937007874
11
4.3585237795275589
21
-2.0828584251968505
0
LINE
8
BLACK
6
CONTINUOUS
10
4.3585237795275589
20
-2.0828584251968505
11
4.3719935433070862
21
-2.0867389763779527
0
LINE
8
BLACK
6
CONTINUOUS
10
4.3719935433070862
20
-2.0867389763779527
11
4.3849441338582675
21
-2.0921033070866142
0
LINE
8
BLACK
6
CONTINUOUS
10
4.3849441338582675
20
-2.0921033070866142
11
4.3972126771653546
21
-2.098883897637795
0
LINE
8
BLACK
6
CONTINUOUS
10
4.3972126771653546
20
-2.098883897637795
11
4.4086448818897637
21
-2.106995472440945
0
LINE
8
BLACK
6
CONTINUOUS
10
4.4086448818897637
20
-2.106995472440945
11
4.4190970078740159
21
-2.1163360629921257
0
LINE
8
BLACK
6
CONTINUOUS
10
4.4190970078740159
20
-2.1163360629921257
11
4.4284375984251971
21
-2.126788188976378
0
LINE
8
BLACK
6
CONTINUOUS
10
4.4284375984251971
20
-2.126788188976378
11
4.4365491732283466
21
-2.1382203937007875
0
LINE
8
BLACK
6
CONTINUOUS
10
4.4365491732283466
20
-2.1382203937007875
11
4.443329763779527
21
-2.1504889370078741
0
LINE
8
BLACK
6
CONTINUOUS
10
4.443329763779527
20
-2.1504889370078741
11
4.4486940944881885
21
-2.163439527559055
0
LINE
8
BLACK
6
CONTINUOUS
10
4.4486940944881885
20
-2.163439527559055
11
4.4525746456692916
21
-2.1769092913385828
0
LINE
8
BLACK
6
CONTINUOUS
10
4.4525746456692916
20
-2.1769092913385828
11
4.4549226771653538
21
-2.1907288582677165
0
LINE
8
BLACK
6
CONTINUOUS
10
4.4549226771653538
20
-2.1907288582677165
11
4.4557086614173231
21
-2.204724409448819
0
LINE
8
BLACK
6
CONTINUOUS
10
4.4557086614173231
20
-2.204724409448819
11
4.4549226771653538
21
-2.2187199606299211
0
LINE
8
BLACK
6
CONTINUOUS
10
4.4549226771653538
20
-2.2187199606299211
11
4.4525746456692916
21
-2.2325395275590552
0
LINE
8
BLACK
6
CONTINUOUS
10
4.4525746456692916
20
-2.2325395275590552
11
4.4486940944881885
21
-2.2460092913385825
0
LINE
8
BLACK
6
CONTINUOUS
10
4.4486940944881885
20
-2.2460092913385825
11
4.443329763779527
21
-2.2589598818897638
0
LINE
8
BLACK
6
CONTINUOUS
10
4.443329763779527
20
-2.2589598818897638
11
4.4365491732283466
21
-2.2712284251968504
0
LINE
8
BLACK
6
CONTINUOUS
10
4.4365491732283466
20
-2.2712284251968504
11
4.4284375984251971
21
-2.28266062992126
0
LINE
8
BLACK
6
CONTINUOUS
10
4.4284375984251971
20
-2.28266062992126
11
4.4190970078740159
21
-2.2931127559055118
0
LINE
8
BLACK
6
CONTINUOUS
10
4.4190970078740159
20
-2.2931127559055118
11
4.4086448818897637
21
-2.302453346456693
0
LINE
8
BLACK
6
CONTINUOUS
10
4.4086448818897637
20
-2.302453346456693
11
4.3972126771653546
21
-2.3105649212598425
0
LINE
8
BLACK
6
CONTINUOUS
10
4.3972126771653546
20
-2.3105649212598425
11
4.3849441338582675
21
-2.3173455118110238
0
LINE
8
BLACK
6
CONTINUOUS
10
4.3849441338582675
20
-2.3173455118110238
11
4.3719935433070862
21
-2.3227098425196848
0
LINE
8
BLACK
6
CONTINUOUS
10
4.3719935433070862
20
-2.3227098425196848
11
4.3585237795275589
21
-2.3265903937007875
0
LINE
8
BLACK
6
CONTINUOUS
10
4.3585237795275589
20
-2.3265903937007875
11
4.3447042125984252
21
-2.3289384251968501
0
LINE
8
BLACK
6
CONTINUOUS
10
4.3447042125984252
20
-2.3289384251968501
11
4.3307086614173231
21
-2.329724409448819
0
LINE
8
BLACK
6
CONTINUOUS
10
4.3307086614173231
20
-2.329724409448819
11
4.3167131102362202
21
-2.3289384251968501
0
LINE
8
BLACK
6
CONTINUOUS
10
4.3167131102362202
20
-2.3289384251968501
11
4.3028935433070865
21
-2.3265903937007875
0
LINE
8
BLACK
6
CONTINUOUS
10
4.3028935433070865
20
-2.3265903937007875
11
4.2894237795275592
21
-2.3227098425196848
0
LINE
8
BLACK
6
CONTINUOUS
10
4.2894237795275592
20
-2.3227098425196848
11
4.2764731889763778
21
-2.3173455118110238
0
LINE
8
BLACK
6
CONTINUOUS
10
4.2764731889763778
20
-2.3173455118110238
11
4.2642046456692908
21
-2.3105649212598425
0
LINE
8
BLACK
6
CONTINUOUS
10
4.2642046456692908
20
-2.3105649212598425
11
4.2527724409448817
21
-2.302453346456693
0
LINE
8
BLACK
6
CONTINUOUS
10
4.2527724409448817
20
-2.302453346456693
11
4.2423203149606294
21
-2.2931127559055118
0
LINE
8
BLACK
6
CONTINUOUS
10
4.2423203149606294
20
-2.2931127559055118
11
4.2329797244094491
21
-2.28266062992126
0
LINE
8
BLACK
6
CONTINUOUS
10
4.2329797244094491
20
-2.28266062992126
11
4.2248681496062988
21
-2.2712284251968504
0
LINE
8
BLACK
6
CONTINUOUS
10
4.2248681496062988
20
-2.2712284251968504
11
4.2180875590551183
21
-2.2589598818897638
0
LINE
8
BLACK
6
CONTINUOUS
10
4.2180875590551183
20
-2.2589598818897638
11
4.2127232283464568
21
-2.2460092913385825
0
LINE
8
BLACK
6
CONTINUOUS
10
4.2127232283464568
20
-2.2460092913385825
11
4.2088426771653547
21
-2.2325395275590552
0
LINE
8
BLACK
6
CONTINUOUS
10
4.2088426771653547
20
-2.2325395275590552
11
4.2064946456692915
21
-2.2187199606299211
0
LINE
8
BLACK
6
CONTINUOUS
10
4.2064946456692915
20
-2.2187199606299211
11
4.2057086614173231
21
-2.204724409448819
0
LINE
8
BLACK
6
CONTINUOUS
10
4.2057086614173231
20
-2.204724409448819
11
4.2064946456692915
21
-2.1907288582677165
0
LINE
8
BLACK
6
CONTINUOUS
10
4.2064946456692915
20
-2.1907288582677165
11
4.2088426771653547
21
-2.1769092913385828
0
LINE
8
BLACK
6
CONTINUOUS
10
4.2088426771653547
20
-2.1769092913385828
11
4.2127232283464568
21
-2.163439527559055
0
LINE
8
BLACK
6
CONTINUOUS
10
4.2127232283464568
20
-2.163439527559055
11
4.2180875590551183
21
-2.1504889370078741
0
LINE
8
BLACK
6
CONTINUOUS
10
4.2180875590551183
20
-2.1504889370078741
11
4.2248681496062988
21
-2.1382203937007875
0
LINE
8
BLACK
6
CONTINUOUS
10
4.2248681496062988
20
-2.1382203937007875
11
4.2329797244094491
21
-2.126788188976378
0
LINE
8
BLACK
6
CONTINUOUS
10
4.2329797244094491
20
-2.126788188976378
11
4.2423203149606294
21
-2.1163360629921257
0
LINE
8
BLACK
6
CONTINUOUS
10
4.2423203149606294
20
-2.1163360629921257
11
4.2527724409448817
21
-2.106995472440945
0
LINE
8
BLACK
6
CONTINUOUS
10
4.2527724409448817
20
-2.106995472440945
11
4.2642046456692908
21
-2.098883897637795
0
LINE
8
BLACK
6
CONTINUOUS
10
4.2642046456692908
20
-2.098883897637795
11
4.2764731889763778
21
-2.0921033070866142
0
LINE
8
BLACK
6
CONTINUOUS
10
4.2764731889763778
20
-2.0921033070866142
11
4.2894237795275592
21
-2.0867389763779527
0
LINE
8
BLACK
6
CONTINUOUS
10
4.2894237795275592
20
-2.0867389763779527
11
4.3028935433070865
21
-2.0828584251968505
0
LINE
8
BLACK
6
CONTINUOUS
10
4.3028935433070865
20
-2.0828584251968505
11
4.3167131102362202
21
-2.0805103937007874
0
LINE
8
BLACK
6
CONTINUOUS
10
4.3167131102362202
20
-2.0805103937007874
11
4.3307086614173231
21
-2.079724409448819
0
LINE
8
BLACK
6
CONTINUOUS
10
4.3307086614173231
20
-2.079724409448819
11
4.3447042125984252
21
-2.0805103937007874
0
LINE
8
BLACK
6
CONTINUOUS
10
4.2121765748031494
20
-2.2180797637795275
11
4.2144172047244091
21
-2.2312671653543306
0
LINE
8
BLACK
6
CONTINUOUS
10
4.2144172047244091
20
-2.2312671653543306
11
4.2181202362204724
21
-2.2441207874015747
0
LINE
8
BLACK
6
CONTINUOUS
10
4.2181202362204724
20
-2.2441207874015747
11
4.2232391732283467
21
-2.2564789763779527
0
LINE
8
BLACK
6
CONTINUOUS
10
4.2232391732283467
20
-2.2564789763779527
11
4.2297096062992123
21
-2.268186338582677
0
LINE
8
BLACK
6
CONTINUOUS
10
4.2297096062992123
20
-2.268186338582677
11
4.2374501574803149
21
-2.2790955905511812
0
LINE
8
BLACK
6
CONTINUOUS
10
4.2374501574803149
20
-2.2790955905511812
11
4.2463634645669295
21
-2.2890696062992126
0
LINE
8
BLACK
6
CONTINUOUS
10
4.2463634645669295
20
-2.2890696062992126
11
4.2563374803149605
21
-2.2979829133858267
0
LINE
8
BLACK
6
CONTINUOUS
10
4.2563374803149605
20
-2.2979829133858267
11
4.2672467322834642
21
-2.3057234645669289
0
LINE
8
BLACK
6
CONTINUOUS
10
4.2672467322834642
20
-2.3057234645669289
11
4.2789540944881885
21
-2.3121938976377954
0
LINE
8
BLACK
6
CONTINUOUS
10
4.2789540944881885
20
-2.3121938976377954
11
4.2913122834645669
21
-2.3173128346456693
0
LINE
8
BLACK
6
CONTINUOUS
10
4.2913122834645669
20
-2.3173128346456693
11
4.3041659055118107
21
-2.3210158661417322
0
LINE
8
BLACK
6
CONTINUOUS
10
4.3041659055118107
20
-2.3210158661417322
11
4.3173533070866137
21
-2.3232564960629922
0
LINE
8
BLACK
6
CONTINUOUS
10
4.3173533070866137
20
-2.3232564960629922
11
4.3307086614173231
21
-2.324006535433071
0
LINE
8
BLACK
6
CONTINUOUS
10
4.3307086614173231
20
-2.324006535433071
11
4.3440640157480317
21
-2.3232564960629922
0
LINE
8
BLACK
6
CONTINUOUS
10
4.3440640157480317
20
-2.3232564960629922
11
4.3572514173228347
21
-2.3210158661417322
0
LINE
8
BLACK
6
CONTINUOUS
10
4.3572514173228347
20
-2.3210158661417322
11
4.3701050393700784
21
-2.3173128346456693
0
LINE
8
BLACK
6
CONTINUOUS
10
4.3701050393700784
20
-2.3173128346456693
11
4.3824632283464569
21
-2.3121938976377954
0
LINE
8
BLACK
6
CONTINUOUS
10
4.3824632283464569
20
-2.3121938976377954
11
4.3941705905511812
21
-2.3057234645669289
0
LINE
8
BLACK
6
CONTINUOUS
10
4.3941705905511812
20
-2.3057234645669289
11
4.4050798425196849
21
-2.2979829133858267
0
LINE
8
BLACK
6
CONTINUOUS
10
4.4050798425196849
20
-2.2979829133858267
11
4.4150538582677168
21
-2.2890696062992126
0
LINE
8
BLACK
6
CONTINUOUS
10
4.4150538582677168
20
-2.2890696062992126
11
4.4239671653543304
21
-2.2790955905511812
0
LINE
8
BLACK
6
CONTINUOUS
10
4.4239671653543304
20
-2.2790955905511812
11
4.4317077165354331
21
-2.268186338582677
0
LINE
8
BLACK
6
CONTINUOUS
10
4.4317077165354331
20
-2.268186338582677
11
4.4381781496062995
21
-2.2564789763779527
0
LINE
8
BLACK
6
CONTINUOUS
10
4.4381781496062995
20
-2.2564789763779527
11
4.443297086614173
21
-2.2441207874015747
0
LINE
8
BLACK
6
CONTINUOUS
10
4.443297086614173
20
-2.2441207874015747
11
4.4470001181102363
21
-2.2312671653543306
0
LINE
8
BLACK
6
CONTINUOUS
10
4.4470001181102363
20
-2.2312671653543306
11
4.4492407480314959
21
-2.2180797637795275
0
LINE
8
BLACK
6
CONTINUOUS
10
4.4492407480314959
20
-2.2180797637795275
11
4.4499907874015747
21
-2.204724409448819
0
LINE
8
BLACK
6
CONTINUOUS
10
4.4499907874015747
20
-2.204724409448819
11
4.4492407480314959
21
-2.19136905511811
0
LINE
8
BLACK
6
CONTINUOUS
10
4.4492407480314959
20
-2.19136905511811
11
4.4470001181102363
21
-2.178181653543307
0
LINE
8
BLACK
6
CONTINUOUS
10
4.4470001181102363
20
-2.178181653543307
11
4.443297086614173
21
-2.1653280314960628
0
LINE
8
BLACK
6
CONTINUOUS
10
4.443297086614173
20
-2.1653280314960628
11
4.4381781496062995
21
-2.1529698425196848
0
LINE
8
BLACK
6
CONTINUOUS
10
4.4381781496062995
20
-2.1529698425196848
11
4.4317077165354331
21
-2.1412624803149605
0
LINE
8
BLACK
6
CONTINUOUS
10
4.4317077165354331
20
-2.1412624803149605
11
4.4239671653543304
21
-2.1303532283464568
0
LINE
8
BLACK
6
CONTINUOUS
10
4.4239671653543304
20
-2.1303532283464568
11
4.4150538582677168
21
-2.1203792125984253
0
LINE
8
BLACK
6
CONTINUOUS
10
4.4150538582677168
20
-2.1203792125984253
11
4.4050798425196849
21
-2.1114659055118108
0
LINE
8
BLACK
6
CONTINUOUS
10
4.4050798425196849
20
-2.1114659055118108
11
4.3941705905511812
21
-2.1037253543307086
0
LINE
8
BLACK
6
CONTINUOUS
10
4.3941705905511812
20
-2.1037253543307086
11
4.3824632283464569
21
-2.0972549212598426
0
LINE
8
BLACK
6
CONTINUOUS
10
4.3824632283464569
20
-2.0972549212598426
11
4.3701050393700784
21
-2.0921359842519687
0
LINE
8
BLACK
6
CONTINUOUS
10
4.3701050393700784
20
-2.0921359842519687
11
4.3572514173228347
21
-2.0884329527559053
0
LINE
8
BLACK
6
CONTINUOUS
10
4.3572514173228347
20
-2.0884329527559053
11
4.3440640157480317
21
-2.0861923228346457
0
LINE
8
BLACK
6
CONTINUOUS
10
4.3440640157480317
20
-2.0861923228346457
11
4.3307086614173231
21
-2.0854422834645669
0
LINE
8
BLACK
6
CONTINUOUS
10
4.3307086614173231
20
-2.0854422834645669
11
4.3173533070866137
21
-2.0861923228346457
0
LINE
8
BLACK
6
CONTINUOUS
10
4.3173533070866137
20
-2.0861923228346457
11
4.3041659055118107
21
-2.0884329527559053
0
LINE
8
BLACK
6
CONTINUOUS
10
4.3041659055118107
20
-2.0884329527559053
11
4.2913122834645669
21
-2.0921359842519687
0
LINE
8
BLACK
6
CONTINUOUS
10
4.2913122834645669
20
-2.0921359842519687
11
4.2789540944881885
21
-2.0972549212598426
0
LINE
8
BLACK
6
CONTINUOUS
10
4.2789540944881885
20
-2.0972549212598426
11
4.2672467322834642
21
-2.1037253543307086
0
LINE
8
BLACK
6
CONTINUOUS
10
4.2672467322834642
20
-2.1037253543307086
11
4.2563374803149605
21
-2.1114659055118108
0
LINE
8
BLACK
6
CONTINUOUS
10
4.2563374803149605
20
-2.1114659055118108
11
4.2463634645669295
21
-2.1203792125984253
0
LINE
8
BLACK
6
CONTINUOUS
10
4.2463634645669295
20
-2.1203792125984253
11
4.2374501574803149
21
-2.1303532283464568
0
LINE
8
BLACK
6
CONTINUOUS
10
4.2374501574803149
20
-2.1303532283464568
11
4.2297096062992123
21
-2.1412624803149605
0
LINE
8
BLACK
6
CONTINUOUS
10
4.2297096062992123
20
-2.1412624803149605
11
4.2232391732283467
21
-2.1529698425196848
0
LINE
8
BLACK
6
CONTINUOUS
10
4.2232391732283467
20
-2.1529698425196848
11
4.2181202362204724
21
-2.1653280314960628
0
LINE
8
BLACK
6
CONTINUOUS
10
4.2181202362204724
20
-2.1653280314960628
11
4.2144172047244091
21
-2.178181653543307
0
LINE
8
BLACK
6
CONTINUOUS
10
4.2144172047244091
20
-2.178181653543307
11
4.2121765748031494
21
-2.19136905511811
0
LINE
8
BLACK
6
CONTINUOUS
10
4.2121765748031494
20
-2.19136905511811
11
4.2114265354330707
21
-2.204724409448819
0
LINE
8
BLACK
6
CONTINUOUS
10
4.2114265354330707
20
-2.204724409448819
11
4.2121765748031494
21
-2.2180797637795275
  0
ENDSEC
  0
EOF
