%TF.GenerationSoftware,KiCad,Pcbnew,7.0.9-7.0.9~ubuntu23.04.1*%
%TF.CreationDate,2023-12-23T19:19:41+00:00*%
%TF.ProjectId,pedalboard-soundcard,70656461-6c62-46f6-9172-642d736f756e,0.0.1*%
%TF.SameCoordinates,Original*%
%TF.FileFunction,Drillmap*%
%TF.FilePolarity,Positive*%
%FSLAX45Y45*%
G04 Gerber Fmt 4.5, Leading zero omitted, Abs format (unit mm)*
G04 Created by KiCad (PCBNEW 7.0.9-7.0.9~ubuntu23.04.1) date 2023-12-23 19:19:41*
%MOMM*%
%LPD*%
G01*
G04 APERTURE LIST*
%ADD10C,0.100000*%
%ADD11C,0.200000*%
%ADD12C,0.275000*%
G04 APERTURE END LIST*
D10*
X4850000Y-10550000D02*
G75*
G03*
X5150000Y-10850000I300000J0D01*
G01*
X11050000Y-10850000D02*
G75*
G03*
X11350000Y-10550000I0J300000D01*
G01*
X4850000Y-7100000D02*
G75*
G03*
X4950000Y-7200000I100000J0D01*
G01*
X5350000Y-7300000D02*
G75*
G03*
X5250000Y-7200000I-100000J0D01*
G01*
X5250000Y-8900000D02*
G75*
G03*
X5350000Y-8800000I0J100000D01*
G01*
X4950000Y-8900000D02*
G75*
G03*
X4850000Y-9000000I0J-100000D01*
G01*
X5150000Y-5250000D02*
G75*
G03*
X4850000Y-5550000I0J-300000D01*
G01*
X5150000Y-5250000D02*
X11050000Y-5250000D01*
X11350000Y-5550000D02*
G75*
G03*
X11050000Y-5250000I-300000J0D01*
G01*
X4850000Y-5550000D02*
X4850000Y-7100000D01*
X5350000Y-7300000D02*
X5350000Y-8800000D01*
X4950000Y-7200000D02*
X5250000Y-7200000D01*
X4850000Y-9000000D02*
X4850000Y-10550000D01*
X5150000Y-10850000D02*
X11050000Y-10850000D01*
X11350000Y-5550000D02*
X11350000Y-10550000D01*
X4950000Y-8900000D02*
X5250000Y-8900000D01*
D11*
D12*
X5062500Y-5462500D02*
X5337500Y-5737500D01*
X5337500Y-5462500D02*
X5062500Y-5737500D01*
X5062500Y-10362500D02*
X5337500Y-10637500D01*
X5337500Y-10362500D02*
X5062500Y-10637500D01*
X10862500Y-5462500D02*
X11137500Y-5737500D01*
X11137500Y-5462500D02*
X10862500Y-5737500D01*
X10862500Y-10362500D02*
X11137500Y-10637500D01*
X11137500Y-10362500D02*
X10862500Y-10637500D01*
D11*
X5105777Y-11166484D02*
X5105777Y-10966484D01*
X5105777Y-10966484D02*
X5153396Y-10966484D01*
X5153396Y-10966484D02*
X5181967Y-10976008D01*
X5181967Y-10976008D02*
X5201015Y-10995055D01*
X5201015Y-10995055D02*
X5210539Y-11014103D01*
X5210539Y-11014103D02*
X5220063Y-11052198D01*
X5220063Y-11052198D02*
X5220063Y-11080770D01*
X5220063Y-11080770D02*
X5210539Y-11118865D01*
X5210539Y-11118865D02*
X5201015Y-11137912D01*
X5201015Y-11137912D02*
X5181967Y-11156960D01*
X5181967Y-11156960D02*
X5153396Y-11166484D01*
X5153396Y-11166484D02*
X5105777Y-11166484D01*
X5305777Y-11166484D02*
X5305777Y-11033150D01*
X5305777Y-11071246D02*
X5315301Y-11052198D01*
X5315301Y-11052198D02*
X5324824Y-11042674D01*
X5324824Y-11042674D02*
X5343872Y-11033150D01*
X5343872Y-11033150D02*
X5362920Y-11033150D01*
X5429586Y-11166484D02*
X5429586Y-11033150D01*
X5429586Y-10966484D02*
X5420063Y-10976008D01*
X5420063Y-10976008D02*
X5429586Y-10985531D01*
X5429586Y-10985531D02*
X5439110Y-10976008D01*
X5439110Y-10976008D02*
X5429586Y-10966484D01*
X5429586Y-10966484D02*
X5429586Y-10985531D01*
X5553396Y-11166484D02*
X5534348Y-11156960D01*
X5534348Y-11156960D02*
X5524824Y-11137912D01*
X5524824Y-11137912D02*
X5524824Y-10966484D01*
X5658158Y-11166484D02*
X5639110Y-11156960D01*
X5639110Y-11156960D02*
X5629586Y-11137912D01*
X5629586Y-11137912D02*
X5629586Y-10966484D01*
X5886729Y-11166484D02*
X5886729Y-10966484D01*
X5886729Y-10966484D02*
X5953396Y-11109341D01*
X5953396Y-11109341D02*
X6020062Y-10966484D01*
X6020062Y-10966484D02*
X6020062Y-11166484D01*
X6201015Y-11166484D02*
X6201015Y-11061722D01*
X6201015Y-11061722D02*
X6191491Y-11042674D01*
X6191491Y-11042674D02*
X6172443Y-11033150D01*
X6172443Y-11033150D02*
X6134348Y-11033150D01*
X6134348Y-11033150D02*
X6115301Y-11042674D01*
X6201015Y-11156960D02*
X6181967Y-11166484D01*
X6181967Y-11166484D02*
X6134348Y-11166484D01*
X6134348Y-11166484D02*
X6115301Y-11156960D01*
X6115301Y-11156960D02*
X6105777Y-11137912D01*
X6105777Y-11137912D02*
X6105777Y-11118865D01*
X6105777Y-11118865D02*
X6115301Y-11099817D01*
X6115301Y-11099817D02*
X6134348Y-11090293D01*
X6134348Y-11090293D02*
X6181967Y-11090293D01*
X6181967Y-11090293D02*
X6201015Y-11080770D01*
X6296253Y-11033150D02*
X6296253Y-11233150D01*
X6296253Y-11042674D02*
X6315301Y-11033150D01*
X6315301Y-11033150D02*
X6353396Y-11033150D01*
X6353396Y-11033150D02*
X6372443Y-11042674D01*
X6372443Y-11042674D02*
X6381967Y-11052198D01*
X6381967Y-11052198D02*
X6391491Y-11071246D01*
X6391491Y-11071246D02*
X6391491Y-11128389D01*
X6391491Y-11128389D02*
X6381967Y-11147436D01*
X6381967Y-11147436D02*
X6372443Y-11156960D01*
X6372443Y-11156960D02*
X6353396Y-11166484D01*
X6353396Y-11166484D02*
X6315301Y-11166484D01*
X6315301Y-11166484D02*
X6296253Y-11156960D01*
X6477205Y-11147436D02*
X6486729Y-11156960D01*
X6486729Y-11156960D02*
X6477205Y-11166484D01*
X6477205Y-11166484D02*
X6467682Y-11156960D01*
X6467682Y-11156960D02*
X6477205Y-11147436D01*
X6477205Y-11147436D02*
X6477205Y-11166484D01*
X6477205Y-11042674D02*
X6486729Y-11052198D01*
X6486729Y-11052198D02*
X6477205Y-11061722D01*
X6477205Y-11061722D02*
X6467682Y-11052198D01*
X6467682Y-11052198D02*
X6477205Y-11042674D01*
X6477205Y-11042674D02*
X6477205Y-11061722D01*
X4645000Y-11395000D02*
X4845000Y-11595000D01*
X4845000Y-11395000D02*
X4645000Y-11595000D01*
X5096253Y-11405531D02*
X5105777Y-11396008D01*
X5105777Y-11396008D02*
X5124824Y-11386484D01*
X5124824Y-11386484D02*
X5172444Y-11386484D01*
X5172444Y-11386484D02*
X5191491Y-11396008D01*
X5191491Y-11396008D02*
X5201015Y-11405531D01*
X5201015Y-11405531D02*
X5210539Y-11424579D01*
X5210539Y-11424579D02*
X5210539Y-11443627D01*
X5210539Y-11443627D02*
X5201015Y-11472198D01*
X5201015Y-11472198D02*
X5086729Y-11586484D01*
X5086729Y-11586484D02*
X5210539Y-11586484D01*
X5296253Y-11567436D02*
X5305777Y-11576960D01*
X5305777Y-11576960D02*
X5296253Y-11586484D01*
X5296253Y-11586484D02*
X5286729Y-11576960D01*
X5286729Y-11576960D02*
X5296253Y-11567436D01*
X5296253Y-11567436D02*
X5296253Y-11586484D01*
X5372444Y-11386484D02*
X5505777Y-11386484D01*
X5505777Y-11386484D02*
X5420063Y-11586484D01*
X5677205Y-11386484D02*
X5581967Y-11386484D01*
X5581967Y-11386484D02*
X5572444Y-11481722D01*
X5572444Y-11481722D02*
X5581967Y-11472198D01*
X5581967Y-11472198D02*
X5601015Y-11462674D01*
X5601015Y-11462674D02*
X5648634Y-11462674D01*
X5648634Y-11462674D02*
X5667682Y-11472198D01*
X5667682Y-11472198D02*
X5677205Y-11481722D01*
X5677205Y-11481722D02*
X5686729Y-11500769D01*
X5686729Y-11500769D02*
X5686729Y-11548388D01*
X5686729Y-11548388D02*
X5677205Y-11567436D01*
X5677205Y-11567436D02*
X5667682Y-11576960D01*
X5667682Y-11576960D02*
X5648634Y-11586484D01*
X5648634Y-11586484D02*
X5601015Y-11586484D01*
X5601015Y-11586484D02*
X5581967Y-11576960D01*
X5581967Y-11576960D02*
X5572444Y-11567436D01*
X5810539Y-11386484D02*
X5829586Y-11386484D01*
X5829586Y-11386484D02*
X5848634Y-11396008D01*
X5848634Y-11396008D02*
X5858158Y-11405531D01*
X5858158Y-11405531D02*
X5867682Y-11424579D01*
X5867682Y-11424579D02*
X5877205Y-11462674D01*
X5877205Y-11462674D02*
X5877205Y-11510293D01*
X5877205Y-11510293D02*
X5867682Y-11548388D01*
X5867682Y-11548388D02*
X5858158Y-11567436D01*
X5858158Y-11567436D02*
X5848634Y-11576960D01*
X5848634Y-11576960D02*
X5829586Y-11586484D01*
X5829586Y-11586484D02*
X5810539Y-11586484D01*
X5810539Y-11586484D02*
X5791491Y-11576960D01*
X5791491Y-11576960D02*
X5781967Y-11567436D01*
X5781967Y-11567436D02*
X5772443Y-11548388D01*
X5772443Y-11548388D02*
X5762920Y-11510293D01*
X5762920Y-11510293D02*
X5762920Y-11462674D01*
X5762920Y-11462674D02*
X5772443Y-11424579D01*
X5772443Y-11424579D02*
X5781967Y-11405531D01*
X5781967Y-11405531D02*
X5791491Y-11396008D01*
X5791491Y-11396008D02*
X5810539Y-11386484D01*
X5962920Y-11586484D02*
X5962920Y-11453150D01*
X5962920Y-11472198D02*
X5972443Y-11462674D01*
X5972443Y-11462674D02*
X5991491Y-11453150D01*
X5991491Y-11453150D02*
X6020063Y-11453150D01*
X6020063Y-11453150D02*
X6039110Y-11462674D01*
X6039110Y-11462674D02*
X6048634Y-11481722D01*
X6048634Y-11481722D02*
X6048634Y-11586484D01*
X6048634Y-11481722D02*
X6058158Y-11462674D01*
X6058158Y-11462674D02*
X6077205Y-11453150D01*
X6077205Y-11453150D02*
X6105777Y-11453150D01*
X6105777Y-11453150D02*
X6124824Y-11462674D01*
X6124824Y-11462674D02*
X6134348Y-11481722D01*
X6134348Y-11481722D02*
X6134348Y-11586484D01*
X6229586Y-11586484D02*
X6229586Y-11453150D01*
X6229586Y-11472198D02*
X6239110Y-11462674D01*
X6239110Y-11462674D02*
X6258158Y-11453150D01*
X6258158Y-11453150D02*
X6286729Y-11453150D01*
X6286729Y-11453150D02*
X6305777Y-11462674D01*
X6305777Y-11462674D02*
X6315301Y-11481722D01*
X6315301Y-11481722D02*
X6315301Y-11586484D01*
X6315301Y-11481722D02*
X6324824Y-11462674D01*
X6324824Y-11462674D02*
X6343872Y-11453150D01*
X6343872Y-11453150D02*
X6372443Y-11453150D01*
X6372443Y-11453150D02*
X6391491Y-11462674D01*
X6391491Y-11462674D02*
X6401015Y-11481722D01*
X6401015Y-11481722D02*
X6401015Y-11586484D01*
X6791491Y-11376960D02*
X6620063Y-11634103D01*
X7048634Y-11386484D02*
X7067682Y-11386484D01*
X7067682Y-11386484D02*
X7086729Y-11396008D01*
X7086729Y-11396008D02*
X7096253Y-11405531D01*
X7096253Y-11405531D02*
X7105777Y-11424579D01*
X7105777Y-11424579D02*
X7115301Y-11462674D01*
X7115301Y-11462674D02*
X7115301Y-11510293D01*
X7115301Y-11510293D02*
X7105777Y-11548388D01*
X7105777Y-11548388D02*
X7096253Y-11567436D01*
X7096253Y-11567436D02*
X7086729Y-11576960D01*
X7086729Y-11576960D02*
X7067682Y-11586484D01*
X7067682Y-11586484D02*
X7048634Y-11586484D01*
X7048634Y-11586484D02*
X7029586Y-11576960D01*
X7029586Y-11576960D02*
X7020063Y-11567436D01*
X7020063Y-11567436D02*
X7010539Y-11548388D01*
X7010539Y-11548388D02*
X7001015Y-11510293D01*
X7001015Y-11510293D02*
X7001015Y-11462674D01*
X7001015Y-11462674D02*
X7010539Y-11424579D01*
X7010539Y-11424579D02*
X7020063Y-11405531D01*
X7020063Y-11405531D02*
X7029586Y-11396008D01*
X7029586Y-11396008D02*
X7048634Y-11386484D01*
X7201015Y-11567436D02*
X7210539Y-11576960D01*
X7210539Y-11576960D02*
X7201015Y-11586484D01*
X7201015Y-11586484D02*
X7191491Y-11576960D01*
X7191491Y-11576960D02*
X7201015Y-11567436D01*
X7201015Y-11567436D02*
X7201015Y-11586484D01*
X7401015Y-11586484D02*
X7286729Y-11586484D01*
X7343872Y-11586484D02*
X7343872Y-11386484D01*
X7343872Y-11386484D02*
X7324825Y-11415055D01*
X7324825Y-11415055D02*
X7305777Y-11434103D01*
X7305777Y-11434103D02*
X7286729Y-11443627D01*
X7524825Y-11386484D02*
X7543872Y-11386484D01*
X7543872Y-11386484D02*
X7562920Y-11396008D01*
X7562920Y-11396008D02*
X7572444Y-11405531D01*
X7572444Y-11405531D02*
X7581967Y-11424579D01*
X7581967Y-11424579D02*
X7591491Y-11462674D01*
X7591491Y-11462674D02*
X7591491Y-11510293D01*
X7591491Y-11510293D02*
X7581967Y-11548388D01*
X7581967Y-11548388D02*
X7572444Y-11567436D01*
X7572444Y-11567436D02*
X7562920Y-11576960D01*
X7562920Y-11576960D02*
X7543872Y-11586484D01*
X7543872Y-11586484D02*
X7524825Y-11586484D01*
X7524825Y-11586484D02*
X7505777Y-11576960D01*
X7505777Y-11576960D02*
X7496253Y-11567436D01*
X7496253Y-11567436D02*
X7486729Y-11548388D01*
X7486729Y-11548388D02*
X7477206Y-11510293D01*
X7477206Y-11510293D02*
X7477206Y-11462674D01*
X7477206Y-11462674D02*
X7486729Y-11424579D01*
X7486729Y-11424579D02*
X7496253Y-11405531D01*
X7496253Y-11405531D02*
X7505777Y-11396008D01*
X7505777Y-11396008D02*
X7524825Y-11386484D01*
X7705777Y-11472198D02*
X7686729Y-11462674D01*
X7686729Y-11462674D02*
X7677206Y-11453150D01*
X7677206Y-11453150D02*
X7667682Y-11434103D01*
X7667682Y-11434103D02*
X7667682Y-11424579D01*
X7667682Y-11424579D02*
X7677206Y-11405531D01*
X7677206Y-11405531D02*
X7686729Y-11396008D01*
X7686729Y-11396008D02*
X7705777Y-11386484D01*
X7705777Y-11386484D02*
X7743872Y-11386484D01*
X7743872Y-11386484D02*
X7762920Y-11396008D01*
X7762920Y-11396008D02*
X7772444Y-11405531D01*
X7772444Y-11405531D02*
X7781967Y-11424579D01*
X7781967Y-11424579D02*
X7781967Y-11434103D01*
X7781967Y-11434103D02*
X7772444Y-11453150D01*
X7772444Y-11453150D02*
X7762920Y-11462674D01*
X7762920Y-11462674D02*
X7743872Y-11472198D01*
X7743872Y-11472198D02*
X7705777Y-11472198D01*
X7705777Y-11472198D02*
X7686729Y-11481722D01*
X7686729Y-11481722D02*
X7677206Y-11491246D01*
X7677206Y-11491246D02*
X7667682Y-11510293D01*
X7667682Y-11510293D02*
X7667682Y-11548388D01*
X7667682Y-11548388D02*
X7677206Y-11567436D01*
X7677206Y-11567436D02*
X7686729Y-11576960D01*
X7686729Y-11576960D02*
X7705777Y-11586484D01*
X7705777Y-11586484D02*
X7743872Y-11586484D01*
X7743872Y-11586484D02*
X7762920Y-11576960D01*
X7762920Y-11576960D02*
X7772444Y-11567436D01*
X7772444Y-11567436D02*
X7781967Y-11548388D01*
X7781967Y-11548388D02*
X7781967Y-11510293D01*
X7781967Y-11510293D02*
X7772444Y-11491246D01*
X7772444Y-11491246D02*
X7762920Y-11481722D01*
X7762920Y-11481722D02*
X7743872Y-11472198D01*
X7848634Y-11386484D02*
X7972444Y-11386484D01*
X7972444Y-11386484D02*
X7905777Y-11462674D01*
X7905777Y-11462674D02*
X7934348Y-11462674D01*
X7934348Y-11462674D02*
X7953396Y-11472198D01*
X7953396Y-11472198D02*
X7962920Y-11481722D01*
X7962920Y-11481722D02*
X7972444Y-11500769D01*
X7972444Y-11500769D02*
X7972444Y-11548388D01*
X7972444Y-11548388D02*
X7962920Y-11567436D01*
X7962920Y-11567436D02*
X7953396Y-11576960D01*
X7953396Y-11576960D02*
X7934348Y-11586484D01*
X7934348Y-11586484D02*
X7877206Y-11586484D01*
X7877206Y-11586484D02*
X7858158Y-11576960D01*
X7858158Y-11576960D02*
X7848634Y-11567436D01*
X8048634Y-11386484D02*
X8048634Y-11424579D01*
X8124825Y-11386484D02*
X8124825Y-11424579D01*
X8420063Y-11662674D02*
X8410539Y-11653150D01*
X8410539Y-11653150D02*
X8391491Y-11624579D01*
X8391491Y-11624579D02*
X8381968Y-11605531D01*
X8381968Y-11605531D02*
X8372444Y-11576960D01*
X8372444Y-11576960D02*
X8362920Y-11529341D01*
X8362920Y-11529341D02*
X8362920Y-11491246D01*
X8362920Y-11491246D02*
X8372444Y-11443627D01*
X8372444Y-11443627D02*
X8381968Y-11415055D01*
X8381968Y-11415055D02*
X8391491Y-11396008D01*
X8391491Y-11396008D02*
X8410539Y-11367436D01*
X8410539Y-11367436D02*
X8420063Y-11357912D01*
X8581968Y-11453150D02*
X8581968Y-11586484D01*
X8534349Y-11376960D02*
X8486730Y-11519817D01*
X8486730Y-11519817D02*
X8610539Y-11519817D01*
X8839111Y-11586484D02*
X8839111Y-11386484D01*
X8924825Y-11586484D02*
X8924825Y-11481722D01*
X8924825Y-11481722D02*
X8915301Y-11462674D01*
X8915301Y-11462674D02*
X8896253Y-11453150D01*
X8896253Y-11453150D02*
X8867682Y-11453150D01*
X8867682Y-11453150D02*
X8848634Y-11462674D01*
X8848634Y-11462674D02*
X8839111Y-11472198D01*
X9048634Y-11586484D02*
X9029587Y-11576960D01*
X9029587Y-11576960D02*
X9020063Y-11567436D01*
X9020063Y-11567436D02*
X9010539Y-11548388D01*
X9010539Y-11548388D02*
X9010539Y-11491246D01*
X9010539Y-11491246D02*
X9020063Y-11472198D01*
X9020063Y-11472198D02*
X9029587Y-11462674D01*
X9029587Y-11462674D02*
X9048634Y-11453150D01*
X9048634Y-11453150D02*
X9077206Y-11453150D01*
X9077206Y-11453150D02*
X9096253Y-11462674D01*
X9096253Y-11462674D02*
X9105777Y-11472198D01*
X9105777Y-11472198D02*
X9115301Y-11491246D01*
X9115301Y-11491246D02*
X9115301Y-11548388D01*
X9115301Y-11548388D02*
X9105777Y-11567436D01*
X9105777Y-11567436D02*
X9096253Y-11576960D01*
X9096253Y-11576960D02*
X9077206Y-11586484D01*
X9077206Y-11586484D02*
X9048634Y-11586484D01*
X9229587Y-11586484D02*
X9210539Y-11576960D01*
X9210539Y-11576960D02*
X9201015Y-11557912D01*
X9201015Y-11557912D02*
X9201015Y-11386484D01*
X9381968Y-11576960D02*
X9362920Y-11586484D01*
X9362920Y-11586484D02*
X9324825Y-11586484D01*
X9324825Y-11586484D02*
X9305777Y-11576960D01*
X9305777Y-11576960D02*
X9296253Y-11557912D01*
X9296253Y-11557912D02*
X9296253Y-11481722D01*
X9296253Y-11481722D02*
X9305777Y-11462674D01*
X9305777Y-11462674D02*
X9324825Y-11453150D01*
X9324825Y-11453150D02*
X9362920Y-11453150D01*
X9362920Y-11453150D02*
X9381968Y-11462674D01*
X9381968Y-11462674D02*
X9391492Y-11481722D01*
X9391492Y-11481722D02*
X9391492Y-11500769D01*
X9391492Y-11500769D02*
X9296253Y-11519817D01*
X9467682Y-11576960D02*
X9486730Y-11586484D01*
X9486730Y-11586484D02*
X9524825Y-11586484D01*
X9524825Y-11586484D02*
X9543873Y-11576960D01*
X9543873Y-11576960D02*
X9553396Y-11557912D01*
X9553396Y-11557912D02*
X9553396Y-11548388D01*
X9553396Y-11548388D02*
X9543873Y-11529341D01*
X9543873Y-11529341D02*
X9524825Y-11519817D01*
X9524825Y-11519817D02*
X9496253Y-11519817D01*
X9496253Y-11519817D02*
X9477206Y-11510293D01*
X9477206Y-11510293D02*
X9467682Y-11491246D01*
X9467682Y-11491246D02*
X9467682Y-11481722D01*
X9467682Y-11481722D02*
X9477206Y-11462674D01*
X9477206Y-11462674D02*
X9496253Y-11453150D01*
X9496253Y-11453150D02*
X9524825Y-11453150D01*
X9524825Y-11453150D02*
X9543873Y-11462674D01*
X9620063Y-11662674D02*
X9629587Y-11653150D01*
X9629587Y-11653150D02*
X9648634Y-11624579D01*
X9648634Y-11624579D02*
X9658158Y-11605531D01*
X9658158Y-11605531D02*
X9667682Y-11576960D01*
X9667682Y-11576960D02*
X9677206Y-11529341D01*
X9677206Y-11529341D02*
X9677206Y-11491246D01*
X9677206Y-11491246D02*
X9667682Y-11443627D01*
X9667682Y-11443627D02*
X9658158Y-11415055D01*
X9658158Y-11415055D02*
X9648634Y-11396008D01*
X9648634Y-11396008D02*
X9629587Y-11367436D01*
X9629587Y-11367436D02*
X9620063Y-11357912D01*
X9981968Y-11662674D02*
X9972444Y-11653150D01*
X9972444Y-11653150D02*
X9953396Y-11624579D01*
X9953396Y-11624579D02*
X9943873Y-11605531D01*
X9943873Y-11605531D02*
X9934349Y-11576960D01*
X9934349Y-11576960D02*
X9924825Y-11529341D01*
X9924825Y-11529341D02*
X9924825Y-11491246D01*
X9924825Y-11491246D02*
X9934349Y-11443627D01*
X9934349Y-11443627D02*
X9943873Y-11415055D01*
X9943873Y-11415055D02*
X9953396Y-11396008D01*
X9953396Y-11396008D02*
X9972444Y-11367436D01*
X9972444Y-11367436D02*
X9981968Y-11357912D01*
X10058158Y-11453150D02*
X10058158Y-11586484D01*
X10058158Y-11472198D02*
X10067682Y-11462674D01*
X10067682Y-11462674D02*
X10086730Y-11453150D01*
X10086730Y-11453150D02*
X10115301Y-11453150D01*
X10115301Y-11453150D02*
X10134349Y-11462674D01*
X10134349Y-11462674D02*
X10143873Y-11481722D01*
X10143873Y-11481722D02*
X10143873Y-11586484D01*
X10267682Y-11586484D02*
X10248634Y-11576960D01*
X10248634Y-11576960D02*
X10239111Y-11567436D01*
X10239111Y-11567436D02*
X10229587Y-11548388D01*
X10229587Y-11548388D02*
X10229587Y-11491246D01*
X10229587Y-11491246D02*
X10239111Y-11472198D01*
X10239111Y-11472198D02*
X10248634Y-11462674D01*
X10248634Y-11462674D02*
X10267682Y-11453150D01*
X10267682Y-11453150D02*
X10296254Y-11453150D01*
X10296254Y-11453150D02*
X10315301Y-11462674D01*
X10315301Y-11462674D02*
X10324825Y-11472198D01*
X10324825Y-11472198D02*
X10334349Y-11491246D01*
X10334349Y-11491246D02*
X10334349Y-11548388D01*
X10334349Y-11548388D02*
X10324825Y-11567436D01*
X10324825Y-11567436D02*
X10315301Y-11576960D01*
X10315301Y-11576960D02*
X10296254Y-11586484D01*
X10296254Y-11586484D02*
X10267682Y-11586484D01*
X10391492Y-11453150D02*
X10467682Y-11453150D01*
X10420063Y-11386484D02*
X10420063Y-11557912D01*
X10420063Y-11557912D02*
X10429587Y-11576960D01*
X10429587Y-11576960D02*
X10448634Y-11586484D01*
X10448634Y-11586484D02*
X10467682Y-11586484D01*
X10686730Y-11453150D02*
X10686730Y-11653150D01*
X10686730Y-11462674D02*
X10705777Y-11453150D01*
X10705777Y-11453150D02*
X10743873Y-11453150D01*
X10743873Y-11453150D02*
X10762920Y-11462674D01*
X10762920Y-11462674D02*
X10772444Y-11472198D01*
X10772444Y-11472198D02*
X10781968Y-11491246D01*
X10781968Y-11491246D02*
X10781968Y-11548388D01*
X10781968Y-11548388D02*
X10772444Y-11567436D01*
X10772444Y-11567436D02*
X10762920Y-11576960D01*
X10762920Y-11576960D02*
X10743873Y-11586484D01*
X10743873Y-11586484D02*
X10705777Y-11586484D01*
X10705777Y-11586484D02*
X10686730Y-11576960D01*
X10896254Y-11586484D02*
X10877206Y-11576960D01*
X10877206Y-11576960D02*
X10867682Y-11557912D01*
X10867682Y-11557912D02*
X10867682Y-11386484D01*
X11058158Y-11586484D02*
X11058158Y-11481722D01*
X11058158Y-11481722D02*
X11048635Y-11462674D01*
X11048635Y-11462674D02*
X11029587Y-11453150D01*
X11029587Y-11453150D02*
X10991492Y-11453150D01*
X10991492Y-11453150D02*
X10972444Y-11462674D01*
X11058158Y-11576960D02*
X11039111Y-11586484D01*
X11039111Y-11586484D02*
X10991492Y-11586484D01*
X10991492Y-11586484D02*
X10972444Y-11576960D01*
X10972444Y-11576960D02*
X10962920Y-11557912D01*
X10962920Y-11557912D02*
X10962920Y-11538865D01*
X10962920Y-11538865D02*
X10972444Y-11519817D01*
X10972444Y-11519817D02*
X10991492Y-11510293D01*
X10991492Y-11510293D02*
X11039111Y-11510293D01*
X11039111Y-11510293D02*
X11058158Y-11500769D01*
X11124825Y-11453150D02*
X11201015Y-11453150D01*
X11153396Y-11386484D02*
X11153396Y-11557912D01*
X11153396Y-11557912D02*
X11162920Y-11576960D01*
X11162920Y-11576960D02*
X11181968Y-11586484D01*
X11181968Y-11586484D02*
X11201015Y-11586484D01*
X11343873Y-11576960D02*
X11324825Y-11586484D01*
X11324825Y-11586484D02*
X11286730Y-11586484D01*
X11286730Y-11586484D02*
X11267682Y-11576960D01*
X11267682Y-11576960D02*
X11258158Y-11557912D01*
X11258158Y-11557912D02*
X11258158Y-11481722D01*
X11258158Y-11481722D02*
X11267682Y-11462674D01*
X11267682Y-11462674D02*
X11286730Y-11453150D01*
X11286730Y-11453150D02*
X11324825Y-11453150D01*
X11324825Y-11453150D02*
X11343873Y-11462674D01*
X11343873Y-11462674D02*
X11353396Y-11481722D01*
X11353396Y-11481722D02*
X11353396Y-11500769D01*
X11353396Y-11500769D02*
X11258158Y-11519817D01*
X11524825Y-11586484D02*
X11524825Y-11386484D01*
X11524825Y-11576960D02*
X11505777Y-11586484D01*
X11505777Y-11586484D02*
X11467682Y-11586484D01*
X11467682Y-11586484D02*
X11448634Y-11576960D01*
X11448634Y-11576960D02*
X11439111Y-11567436D01*
X11439111Y-11567436D02*
X11429587Y-11548388D01*
X11429587Y-11548388D02*
X11429587Y-11491246D01*
X11429587Y-11491246D02*
X11439111Y-11472198D01*
X11439111Y-11472198D02*
X11448634Y-11462674D01*
X11448634Y-11462674D02*
X11467682Y-11453150D01*
X11467682Y-11453150D02*
X11505777Y-11453150D01*
X11505777Y-11453150D02*
X11524825Y-11462674D01*
X11601015Y-11662674D02*
X11610539Y-11653150D01*
X11610539Y-11653150D02*
X11629587Y-11624579D01*
X11629587Y-11624579D02*
X11639111Y-11605531D01*
X11639111Y-11605531D02*
X11648634Y-11576960D01*
X11648634Y-11576960D02*
X11658158Y-11529341D01*
X11658158Y-11529341D02*
X11658158Y-11491246D01*
X11658158Y-11491246D02*
X11648634Y-11443627D01*
X11648634Y-11443627D02*
X11639111Y-11415055D01*
X11639111Y-11415055D02*
X11629587Y-11396008D01*
X11629587Y-11396008D02*
X11610539Y-11367436D01*
X11610539Y-11367436D02*
X11601015Y-11357912D01*
M02*
