G04 #@! TF.GenerationSoftware,KiCad,Pcbnew,8.0.4+1*
G04 #@! TF.CreationDate,2024-10-16T11:13:57+00:00*
G04 #@! TF.ProjectId,pedalboard-soundcard,70656461-6c62-46f6-9172-642d736f756e,0.0.1*
G04 #@! TF.SameCoordinates,Original*
G04 #@! TF.FileFunction,Legend,Bot*
G04 #@! TF.FilePolarity,Positive*
%FSLAX46Y46*%
G04 Gerber Fmt 4.6, Leading zero omitted, Abs format (unit mm)*
G04 Created by KiCad (PCBNEW 8.0.4+1) date 2024-10-16 11:13:57*
%MOMM*%
%LPD*%
G01*
G04 APERTURE LIST*
%ADD10C,0.150000*%
%ADD11C,0.120000*%
%ADD12C,6.200000*%
%ADD13R,1.727200X1.727200*%
%ADD14O,1.727200X1.727200*%
%ADD15C,1.200000*%
%ADD16O,1.200000X2.200000*%
%ADD17O,1.600000X2.300000*%
%ADD18O,2.200000X1.200000*%
%ADD19O,1.600000X2.500000*%
%ADD20R,1.700000X1.700000*%
%ADD21O,1.700000X1.700000*%
G04 APERTURE END LIST*
D10*
X112022744Y-65189931D02*
X111832268Y-65189931D01*
X111832268Y-65189931D02*
X111737030Y-65237550D01*
X111737030Y-65237550D02*
X111641792Y-65332788D01*
X111641792Y-65332788D02*
X111594173Y-65523264D01*
X111594173Y-65523264D02*
X111594173Y-65856597D01*
X111594173Y-65856597D02*
X111641792Y-66047073D01*
X111641792Y-66047073D02*
X111737030Y-66142312D01*
X111737030Y-66142312D02*
X111832268Y-66189931D01*
X111832268Y-66189931D02*
X112022744Y-66189931D01*
X112022744Y-66189931D02*
X112117982Y-66142312D01*
X112117982Y-66142312D02*
X112213220Y-66047073D01*
X112213220Y-66047073D02*
X112260839Y-65856597D01*
X112260839Y-65856597D02*
X112260839Y-65523264D01*
X112260839Y-65523264D02*
X112213220Y-65332788D01*
X112213220Y-65332788D02*
X112117982Y-65237550D01*
X112117982Y-65237550D02*
X112022744Y-65189931D01*
X111165601Y-65523264D02*
X111165601Y-66523264D01*
X111165601Y-65570883D02*
X111070363Y-65523264D01*
X111070363Y-65523264D02*
X110879887Y-65523264D01*
X110879887Y-65523264D02*
X110784649Y-65570883D01*
X110784649Y-65570883D02*
X110737030Y-65618502D01*
X110737030Y-65618502D02*
X110689411Y-65713740D01*
X110689411Y-65713740D02*
X110689411Y-65999454D01*
X110689411Y-65999454D02*
X110737030Y-66094692D01*
X110737030Y-66094692D02*
X110784649Y-66142312D01*
X110784649Y-66142312D02*
X110879887Y-66189931D01*
X110879887Y-66189931D02*
X111070363Y-66189931D01*
X111070363Y-66189931D02*
X111165601Y-66142312D01*
X109879887Y-66142312D02*
X109975125Y-66189931D01*
X109975125Y-66189931D02*
X110165601Y-66189931D01*
X110165601Y-66189931D02*
X110260839Y-66142312D01*
X110260839Y-66142312D02*
X110308458Y-66047073D01*
X110308458Y-66047073D02*
X110308458Y-65666121D01*
X110308458Y-65666121D02*
X110260839Y-65570883D01*
X110260839Y-65570883D02*
X110165601Y-65523264D01*
X110165601Y-65523264D02*
X109975125Y-65523264D01*
X109975125Y-65523264D02*
X109879887Y-65570883D01*
X109879887Y-65570883D02*
X109832268Y-65666121D01*
X109832268Y-65666121D02*
X109832268Y-65761359D01*
X109832268Y-65761359D02*
X110308458Y-65856597D01*
X109403696Y-65523264D02*
X109403696Y-66189931D01*
X109403696Y-65618502D02*
X109356077Y-65570883D01*
X109356077Y-65570883D02*
X109260839Y-65523264D01*
X109260839Y-65523264D02*
X109117982Y-65523264D01*
X109117982Y-65523264D02*
X109022744Y-65570883D01*
X109022744Y-65570883D02*
X108975125Y-65666121D01*
X108975125Y-65666121D02*
X108975125Y-66189931D01*
X107737029Y-66189931D02*
X107737029Y-65189931D01*
X107737029Y-65189931D02*
X107356077Y-65189931D01*
X107356077Y-65189931D02*
X107260839Y-65237550D01*
X107260839Y-65237550D02*
X107213220Y-65285169D01*
X107213220Y-65285169D02*
X107165601Y-65380407D01*
X107165601Y-65380407D02*
X107165601Y-65523264D01*
X107165601Y-65523264D02*
X107213220Y-65618502D01*
X107213220Y-65618502D02*
X107260839Y-65666121D01*
X107260839Y-65666121D02*
X107356077Y-65713740D01*
X107356077Y-65713740D02*
X107737029Y-65713740D01*
X106356077Y-66142312D02*
X106451315Y-66189931D01*
X106451315Y-66189931D02*
X106641791Y-66189931D01*
X106641791Y-66189931D02*
X106737029Y-66142312D01*
X106737029Y-66142312D02*
X106784648Y-66047073D01*
X106784648Y-66047073D02*
X106784648Y-65666121D01*
X106784648Y-65666121D02*
X106737029Y-65570883D01*
X106737029Y-65570883D02*
X106641791Y-65523264D01*
X106641791Y-65523264D02*
X106451315Y-65523264D01*
X106451315Y-65523264D02*
X106356077Y-65570883D01*
X106356077Y-65570883D02*
X106308458Y-65666121D01*
X106308458Y-65666121D02*
X106308458Y-65761359D01*
X106308458Y-65761359D02*
X106784648Y-65856597D01*
X105451315Y-66189931D02*
X105451315Y-65189931D01*
X105451315Y-66142312D02*
X105546553Y-66189931D01*
X105546553Y-66189931D02*
X105737029Y-66189931D01*
X105737029Y-66189931D02*
X105832267Y-66142312D01*
X105832267Y-66142312D02*
X105879886Y-66094692D01*
X105879886Y-66094692D02*
X105927505Y-65999454D01*
X105927505Y-65999454D02*
X105927505Y-65713740D01*
X105927505Y-65713740D02*
X105879886Y-65618502D01*
X105879886Y-65618502D02*
X105832267Y-65570883D01*
X105832267Y-65570883D02*
X105737029Y-65523264D01*
X105737029Y-65523264D02*
X105546553Y-65523264D01*
X105546553Y-65523264D02*
X105451315Y-65570883D01*
X104546553Y-66189931D02*
X104546553Y-65666121D01*
X104546553Y-65666121D02*
X104594172Y-65570883D01*
X104594172Y-65570883D02*
X104689410Y-65523264D01*
X104689410Y-65523264D02*
X104879886Y-65523264D01*
X104879886Y-65523264D02*
X104975124Y-65570883D01*
X104546553Y-66142312D02*
X104641791Y-66189931D01*
X104641791Y-66189931D02*
X104879886Y-66189931D01*
X104879886Y-66189931D02*
X104975124Y-66142312D01*
X104975124Y-66142312D02*
X105022743Y-66047073D01*
X105022743Y-66047073D02*
X105022743Y-65951835D01*
X105022743Y-65951835D02*
X104975124Y-65856597D01*
X104975124Y-65856597D02*
X104879886Y-65808978D01*
X104879886Y-65808978D02*
X104641791Y-65808978D01*
X104641791Y-65808978D02*
X104546553Y-65761359D01*
X103927505Y-66189931D02*
X104022743Y-66142312D01*
X104022743Y-66142312D02*
X104070362Y-66047073D01*
X104070362Y-66047073D02*
X104070362Y-65189931D01*
X103546552Y-66189931D02*
X103546552Y-65189931D01*
X103546552Y-65570883D02*
X103451314Y-65523264D01*
X103451314Y-65523264D02*
X103260838Y-65523264D01*
X103260838Y-65523264D02*
X103165600Y-65570883D01*
X103165600Y-65570883D02*
X103117981Y-65618502D01*
X103117981Y-65618502D02*
X103070362Y-65713740D01*
X103070362Y-65713740D02*
X103070362Y-65999454D01*
X103070362Y-65999454D02*
X103117981Y-66094692D01*
X103117981Y-66094692D02*
X103165600Y-66142312D01*
X103165600Y-66142312D02*
X103260838Y-66189931D01*
X103260838Y-66189931D02*
X103451314Y-66189931D01*
X103451314Y-66189931D02*
X103546552Y-66142312D01*
X102498933Y-66189931D02*
X102594171Y-66142312D01*
X102594171Y-66142312D02*
X102641790Y-66094692D01*
X102641790Y-66094692D02*
X102689409Y-65999454D01*
X102689409Y-65999454D02*
X102689409Y-65713740D01*
X102689409Y-65713740D02*
X102641790Y-65618502D01*
X102641790Y-65618502D02*
X102594171Y-65570883D01*
X102594171Y-65570883D02*
X102498933Y-65523264D01*
X102498933Y-65523264D02*
X102356076Y-65523264D01*
X102356076Y-65523264D02*
X102260838Y-65570883D01*
X102260838Y-65570883D02*
X102213219Y-65618502D01*
X102213219Y-65618502D02*
X102165600Y-65713740D01*
X102165600Y-65713740D02*
X102165600Y-65999454D01*
X102165600Y-65999454D02*
X102213219Y-66094692D01*
X102213219Y-66094692D02*
X102260838Y-66142312D01*
X102260838Y-66142312D02*
X102356076Y-66189931D01*
X102356076Y-66189931D02*
X102498933Y-66189931D01*
X101308457Y-66189931D02*
X101308457Y-65666121D01*
X101308457Y-65666121D02*
X101356076Y-65570883D01*
X101356076Y-65570883D02*
X101451314Y-65523264D01*
X101451314Y-65523264D02*
X101641790Y-65523264D01*
X101641790Y-65523264D02*
X101737028Y-65570883D01*
X101308457Y-66142312D02*
X101403695Y-66189931D01*
X101403695Y-66189931D02*
X101641790Y-66189931D01*
X101641790Y-66189931D02*
X101737028Y-66142312D01*
X101737028Y-66142312D02*
X101784647Y-66047073D01*
X101784647Y-66047073D02*
X101784647Y-65951835D01*
X101784647Y-65951835D02*
X101737028Y-65856597D01*
X101737028Y-65856597D02*
X101641790Y-65808978D01*
X101641790Y-65808978D02*
X101403695Y-65808978D01*
X101403695Y-65808978D02*
X101308457Y-65761359D01*
X100832266Y-66189931D02*
X100832266Y-65523264D01*
X100832266Y-65713740D02*
X100784647Y-65618502D01*
X100784647Y-65618502D02*
X100737028Y-65570883D01*
X100737028Y-65570883D02*
X100641790Y-65523264D01*
X100641790Y-65523264D02*
X100546552Y-65523264D01*
X99784647Y-66189931D02*
X99784647Y-65189931D01*
X99784647Y-66142312D02*
X99879885Y-66189931D01*
X99879885Y-66189931D02*
X100070361Y-66189931D01*
X100070361Y-66189931D02*
X100165599Y-66142312D01*
X100165599Y-66142312D02*
X100213218Y-66094692D01*
X100213218Y-66094692D02*
X100260837Y-65999454D01*
X100260837Y-65999454D02*
X100260837Y-65713740D01*
X100260837Y-65713740D02*
X100213218Y-65618502D01*
X100213218Y-65618502D02*
X100165599Y-65570883D01*
X100165599Y-65570883D02*
X100070361Y-65523264D01*
X100070361Y-65523264D02*
X99879885Y-65523264D01*
X99879885Y-65523264D02*
X99784647Y-65570883D01*
X98594170Y-66142312D02*
X98451313Y-66189931D01*
X98451313Y-66189931D02*
X98213218Y-66189931D01*
X98213218Y-66189931D02*
X98117980Y-66142312D01*
X98117980Y-66142312D02*
X98070361Y-66094692D01*
X98070361Y-66094692D02*
X98022742Y-65999454D01*
X98022742Y-65999454D02*
X98022742Y-65904216D01*
X98022742Y-65904216D02*
X98070361Y-65808978D01*
X98070361Y-65808978D02*
X98117980Y-65761359D01*
X98117980Y-65761359D02*
X98213218Y-65713740D01*
X98213218Y-65713740D02*
X98403694Y-65666121D01*
X98403694Y-65666121D02*
X98498932Y-65618502D01*
X98498932Y-65618502D02*
X98546551Y-65570883D01*
X98546551Y-65570883D02*
X98594170Y-65475645D01*
X98594170Y-65475645D02*
X98594170Y-65380407D01*
X98594170Y-65380407D02*
X98546551Y-65285169D01*
X98546551Y-65285169D02*
X98498932Y-65237550D01*
X98498932Y-65237550D02*
X98403694Y-65189931D01*
X98403694Y-65189931D02*
X98165599Y-65189931D01*
X98165599Y-65189931D02*
X98022742Y-65237550D01*
X97451313Y-66189931D02*
X97546551Y-66142312D01*
X97546551Y-66142312D02*
X97594170Y-66094692D01*
X97594170Y-66094692D02*
X97641789Y-65999454D01*
X97641789Y-65999454D02*
X97641789Y-65713740D01*
X97641789Y-65713740D02*
X97594170Y-65618502D01*
X97594170Y-65618502D02*
X97546551Y-65570883D01*
X97546551Y-65570883D02*
X97451313Y-65523264D01*
X97451313Y-65523264D02*
X97308456Y-65523264D01*
X97308456Y-65523264D02*
X97213218Y-65570883D01*
X97213218Y-65570883D02*
X97165599Y-65618502D01*
X97165599Y-65618502D02*
X97117980Y-65713740D01*
X97117980Y-65713740D02*
X97117980Y-65999454D01*
X97117980Y-65999454D02*
X97165599Y-66094692D01*
X97165599Y-66094692D02*
X97213218Y-66142312D01*
X97213218Y-66142312D02*
X97308456Y-66189931D01*
X97308456Y-66189931D02*
X97451313Y-66189931D01*
X96260837Y-65523264D02*
X96260837Y-66189931D01*
X96689408Y-65523264D02*
X96689408Y-66047073D01*
X96689408Y-66047073D02*
X96641789Y-66142312D01*
X96641789Y-66142312D02*
X96546551Y-66189931D01*
X96546551Y-66189931D02*
X96403694Y-66189931D01*
X96403694Y-66189931D02*
X96308456Y-66142312D01*
X96308456Y-66142312D02*
X96260837Y-66094692D01*
X95784646Y-65523264D02*
X95784646Y-66189931D01*
X95784646Y-65618502D02*
X95737027Y-65570883D01*
X95737027Y-65570883D02*
X95641789Y-65523264D01*
X95641789Y-65523264D02*
X95498932Y-65523264D01*
X95498932Y-65523264D02*
X95403694Y-65570883D01*
X95403694Y-65570883D02*
X95356075Y-65666121D01*
X95356075Y-65666121D02*
X95356075Y-66189931D01*
X94451313Y-66189931D02*
X94451313Y-65189931D01*
X94451313Y-66142312D02*
X94546551Y-66189931D01*
X94546551Y-66189931D02*
X94737027Y-66189931D01*
X94737027Y-66189931D02*
X94832265Y-66142312D01*
X94832265Y-66142312D02*
X94879884Y-66094692D01*
X94879884Y-66094692D02*
X94927503Y-65999454D01*
X94927503Y-65999454D02*
X94927503Y-65713740D01*
X94927503Y-65713740D02*
X94879884Y-65618502D01*
X94879884Y-65618502D02*
X94832265Y-65570883D01*
X94832265Y-65570883D02*
X94737027Y-65523264D01*
X94737027Y-65523264D02*
X94546551Y-65523264D01*
X94546551Y-65523264D02*
X94451313Y-65570883D01*
X93546551Y-66142312D02*
X93641789Y-66189931D01*
X93641789Y-66189931D02*
X93832265Y-66189931D01*
X93832265Y-66189931D02*
X93927503Y-66142312D01*
X93927503Y-66142312D02*
X93975122Y-66094692D01*
X93975122Y-66094692D02*
X94022741Y-65999454D01*
X94022741Y-65999454D02*
X94022741Y-65713740D01*
X94022741Y-65713740D02*
X93975122Y-65618502D01*
X93975122Y-65618502D02*
X93927503Y-65570883D01*
X93927503Y-65570883D02*
X93832265Y-65523264D01*
X93832265Y-65523264D02*
X93641789Y-65523264D01*
X93641789Y-65523264D02*
X93546551Y-65570883D01*
X92689408Y-66189931D02*
X92689408Y-65666121D01*
X92689408Y-65666121D02*
X92737027Y-65570883D01*
X92737027Y-65570883D02*
X92832265Y-65523264D01*
X92832265Y-65523264D02*
X93022741Y-65523264D01*
X93022741Y-65523264D02*
X93117979Y-65570883D01*
X92689408Y-66142312D02*
X92784646Y-66189931D01*
X92784646Y-66189931D02*
X93022741Y-66189931D01*
X93022741Y-66189931D02*
X93117979Y-66142312D01*
X93117979Y-66142312D02*
X93165598Y-66047073D01*
X93165598Y-66047073D02*
X93165598Y-65951835D01*
X93165598Y-65951835D02*
X93117979Y-65856597D01*
X93117979Y-65856597D02*
X93022741Y-65808978D01*
X93022741Y-65808978D02*
X92784646Y-65808978D01*
X92784646Y-65808978D02*
X92689408Y-65761359D01*
X92213217Y-66189931D02*
X92213217Y-65523264D01*
X92213217Y-65713740D02*
X92165598Y-65618502D01*
X92165598Y-65618502D02*
X92117979Y-65570883D01*
X92117979Y-65570883D02*
X92022741Y-65523264D01*
X92022741Y-65523264D02*
X91927503Y-65523264D01*
X91165598Y-66189931D02*
X91165598Y-65189931D01*
X91165598Y-66142312D02*
X91260836Y-66189931D01*
X91260836Y-66189931D02*
X91451312Y-66189931D01*
X91451312Y-66189931D02*
X91546550Y-66142312D01*
X91546550Y-66142312D02*
X91594169Y-66094692D01*
X91594169Y-66094692D02*
X91641788Y-65999454D01*
X91641788Y-65999454D02*
X91641788Y-65713740D01*
X91641788Y-65713740D02*
X91594169Y-65618502D01*
X91594169Y-65618502D02*
X91546550Y-65570883D01*
X91546550Y-65570883D02*
X91451312Y-65523264D01*
X91451312Y-65523264D02*
X91260836Y-65523264D01*
X91260836Y-65523264D02*
X91165598Y-65570883D01*
X111784649Y-67133208D02*
X111784649Y-67942732D01*
X111784649Y-67942732D02*
X111832268Y-68037970D01*
X111832268Y-68037970D02*
X111879887Y-68085589D01*
X111879887Y-68085589D02*
X111975125Y-68133208D01*
X111975125Y-68133208D02*
X112117982Y-68133208D01*
X112117982Y-68133208D02*
X112213220Y-68085589D01*
X111784649Y-67752256D02*
X111879887Y-67799875D01*
X111879887Y-67799875D02*
X112070363Y-67799875D01*
X112070363Y-67799875D02*
X112165601Y-67752256D01*
X112165601Y-67752256D02*
X112213220Y-67704636D01*
X112213220Y-67704636D02*
X112260839Y-67609398D01*
X112260839Y-67609398D02*
X112260839Y-67323684D01*
X112260839Y-67323684D02*
X112213220Y-67228446D01*
X112213220Y-67228446D02*
X112165601Y-67180827D01*
X112165601Y-67180827D02*
X112070363Y-67133208D01*
X112070363Y-67133208D02*
X111879887Y-67133208D01*
X111879887Y-67133208D02*
X111784649Y-67180827D01*
X111308458Y-67799875D02*
X111308458Y-67133208D01*
X111308458Y-66799875D02*
X111356077Y-66847494D01*
X111356077Y-66847494D02*
X111308458Y-66895113D01*
X111308458Y-66895113D02*
X111260839Y-66847494D01*
X111260839Y-66847494D02*
X111308458Y-66799875D01*
X111308458Y-66799875D02*
X111308458Y-66895113D01*
X110975125Y-67133208D02*
X110594173Y-67133208D01*
X110832268Y-66799875D02*
X110832268Y-67657017D01*
X110832268Y-67657017D02*
X110784649Y-67752256D01*
X110784649Y-67752256D02*
X110689411Y-67799875D01*
X110689411Y-67799875D02*
X110594173Y-67799875D01*
X110260839Y-67799875D02*
X110260839Y-66799875D01*
X109832268Y-67799875D02*
X109832268Y-67276065D01*
X109832268Y-67276065D02*
X109879887Y-67180827D01*
X109879887Y-67180827D02*
X109975125Y-67133208D01*
X109975125Y-67133208D02*
X110117982Y-67133208D01*
X110117982Y-67133208D02*
X110213220Y-67180827D01*
X110213220Y-67180827D02*
X110260839Y-67228446D01*
X108927506Y-67133208D02*
X108927506Y-67799875D01*
X109356077Y-67133208D02*
X109356077Y-67657017D01*
X109356077Y-67657017D02*
X109308458Y-67752256D01*
X109308458Y-67752256D02*
X109213220Y-67799875D01*
X109213220Y-67799875D02*
X109070363Y-67799875D01*
X109070363Y-67799875D02*
X108975125Y-67752256D01*
X108975125Y-67752256D02*
X108927506Y-67704636D01*
X108451315Y-67799875D02*
X108451315Y-66799875D01*
X108451315Y-67180827D02*
X108356077Y-67133208D01*
X108356077Y-67133208D02*
X108165601Y-67133208D01*
X108165601Y-67133208D02*
X108070363Y-67180827D01*
X108070363Y-67180827D02*
X108022744Y-67228446D01*
X108022744Y-67228446D02*
X107975125Y-67323684D01*
X107975125Y-67323684D02*
X107975125Y-67609398D01*
X107975125Y-67609398D02*
X108022744Y-67704636D01*
X108022744Y-67704636D02*
X108070363Y-67752256D01*
X108070363Y-67752256D02*
X108165601Y-67799875D01*
X108165601Y-67799875D02*
X108356077Y-67799875D01*
X108356077Y-67799875D02*
X108451315Y-67752256D01*
X107546553Y-67704636D02*
X107498934Y-67752256D01*
X107498934Y-67752256D02*
X107546553Y-67799875D01*
X107546553Y-67799875D02*
X107594172Y-67752256D01*
X107594172Y-67752256D02*
X107546553Y-67704636D01*
X107546553Y-67704636D02*
X107546553Y-67799875D01*
X106641792Y-67752256D02*
X106737030Y-67799875D01*
X106737030Y-67799875D02*
X106927506Y-67799875D01*
X106927506Y-67799875D02*
X107022744Y-67752256D01*
X107022744Y-67752256D02*
X107070363Y-67704636D01*
X107070363Y-67704636D02*
X107117982Y-67609398D01*
X107117982Y-67609398D02*
X107117982Y-67323684D01*
X107117982Y-67323684D02*
X107070363Y-67228446D01*
X107070363Y-67228446D02*
X107022744Y-67180827D01*
X107022744Y-67180827D02*
X106927506Y-67133208D01*
X106927506Y-67133208D02*
X106737030Y-67133208D01*
X106737030Y-67133208D02*
X106641792Y-67180827D01*
X106070363Y-67799875D02*
X106165601Y-67752256D01*
X106165601Y-67752256D02*
X106213220Y-67704636D01*
X106213220Y-67704636D02*
X106260839Y-67609398D01*
X106260839Y-67609398D02*
X106260839Y-67323684D01*
X106260839Y-67323684D02*
X106213220Y-67228446D01*
X106213220Y-67228446D02*
X106165601Y-67180827D01*
X106165601Y-67180827D02*
X106070363Y-67133208D01*
X106070363Y-67133208D02*
X105927506Y-67133208D01*
X105927506Y-67133208D02*
X105832268Y-67180827D01*
X105832268Y-67180827D02*
X105784649Y-67228446D01*
X105784649Y-67228446D02*
X105737030Y-67323684D01*
X105737030Y-67323684D02*
X105737030Y-67609398D01*
X105737030Y-67609398D02*
X105784649Y-67704636D01*
X105784649Y-67704636D02*
X105832268Y-67752256D01*
X105832268Y-67752256D02*
X105927506Y-67799875D01*
X105927506Y-67799875D02*
X106070363Y-67799875D01*
X105308458Y-67799875D02*
X105308458Y-67133208D01*
X105308458Y-67228446D02*
X105260839Y-67180827D01*
X105260839Y-67180827D02*
X105165601Y-67133208D01*
X105165601Y-67133208D02*
X105022744Y-67133208D01*
X105022744Y-67133208D02*
X104927506Y-67180827D01*
X104927506Y-67180827D02*
X104879887Y-67276065D01*
X104879887Y-67276065D02*
X104879887Y-67799875D01*
X104879887Y-67276065D02*
X104832268Y-67180827D01*
X104832268Y-67180827D02*
X104737030Y-67133208D01*
X104737030Y-67133208D02*
X104594173Y-67133208D01*
X104594173Y-67133208D02*
X104498934Y-67180827D01*
X104498934Y-67180827D02*
X104451315Y-67276065D01*
X104451315Y-67276065D02*
X104451315Y-67799875D01*
X103260840Y-66752256D02*
X104117982Y-68037970D01*
X102927506Y-67133208D02*
X102927506Y-68133208D01*
X102927506Y-67180827D02*
X102832268Y-67133208D01*
X102832268Y-67133208D02*
X102641792Y-67133208D01*
X102641792Y-67133208D02*
X102546554Y-67180827D01*
X102546554Y-67180827D02*
X102498935Y-67228446D01*
X102498935Y-67228446D02*
X102451316Y-67323684D01*
X102451316Y-67323684D02*
X102451316Y-67609398D01*
X102451316Y-67609398D02*
X102498935Y-67704636D01*
X102498935Y-67704636D02*
X102546554Y-67752256D01*
X102546554Y-67752256D02*
X102641792Y-67799875D01*
X102641792Y-67799875D02*
X102832268Y-67799875D01*
X102832268Y-67799875D02*
X102927506Y-67752256D01*
X101641792Y-67752256D02*
X101737030Y-67799875D01*
X101737030Y-67799875D02*
X101927506Y-67799875D01*
X101927506Y-67799875D02*
X102022744Y-67752256D01*
X102022744Y-67752256D02*
X102070363Y-67657017D01*
X102070363Y-67657017D02*
X102070363Y-67276065D01*
X102070363Y-67276065D02*
X102022744Y-67180827D01*
X102022744Y-67180827D02*
X101927506Y-67133208D01*
X101927506Y-67133208D02*
X101737030Y-67133208D01*
X101737030Y-67133208D02*
X101641792Y-67180827D01*
X101641792Y-67180827D02*
X101594173Y-67276065D01*
X101594173Y-67276065D02*
X101594173Y-67371303D01*
X101594173Y-67371303D02*
X102070363Y-67466541D01*
X100737030Y-67799875D02*
X100737030Y-66799875D01*
X100737030Y-67752256D02*
X100832268Y-67799875D01*
X100832268Y-67799875D02*
X101022744Y-67799875D01*
X101022744Y-67799875D02*
X101117982Y-67752256D01*
X101117982Y-67752256D02*
X101165601Y-67704636D01*
X101165601Y-67704636D02*
X101213220Y-67609398D01*
X101213220Y-67609398D02*
X101213220Y-67323684D01*
X101213220Y-67323684D02*
X101165601Y-67228446D01*
X101165601Y-67228446D02*
X101117982Y-67180827D01*
X101117982Y-67180827D02*
X101022744Y-67133208D01*
X101022744Y-67133208D02*
X100832268Y-67133208D01*
X100832268Y-67133208D02*
X100737030Y-67180827D01*
X99832268Y-67799875D02*
X99832268Y-67276065D01*
X99832268Y-67276065D02*
X99879887Y-67180827D01*
X99879887Y-67180827D02*
X99975125Y-67133208D01*
X99975125Y-67133208D02*
X100165601Y-67133208D01*
X100165601Y-67133208D02*
X100260839Y-67180827D01*
X99832268Y-67752256D02*
X99927506Y-67799875D01*
X99927506Y-67799875D02*
X100165601Y-67799875D01*
X100165601Y-67799875D02*
X100260839Y-67752256D01*
X100260839Y-67752256D02*
X100308458Y-67657017D01*
X100308458Y-67657017D02*
X100308458Y-67561779D01*
X100308458Y-67561779D02*
X100260839Y-67466541D01*
X100260839Y-67466541D02*
X100165601Y-67418922D01*
X100165601Y-67418922D02*
X99927506Y-67418922D01*
X99927506Y-67418922D02*
X99832268Y-67371303D01*
X99213220Y-67799875D02*
X99308458Y-67752256D01*
X99308458Y-67752256D02*
X99356077Y-67657017D01*
X99356077Y-67657017D02*
X99356077Y-66799875D01*
X98832267Y-67799875D02*
X98832267Y-66799875D01*
X98832267Y-67180827D02*
X98737029Y-67133208D01*
X98737029Y-67133208D02*
X98546553Y-67133208D01*
X98546553Y-67133208D02*
X98451315Y-67180827D01*
X98451315Y-67180827D02*
X98403696Y-67228446D01*
X98403696Y-67228446D02*
X98356077Y-67323684D01*
X98356077Y-67323684D02*
X98356077Y-67609398D01*
X98356077Y-67609398D02*
X98403696Y-67704636D01*
X98403696Y-67704636D02*
X98451315Y-67752256D01*
X98451315Y-67752256D02*
X98546553Y-67799875D01*
X98546553Y-67799875D02*
X98737029Y-67799875D01*
X98737029Y-67799875D02*
X98832267Y-67752256D01*
X97784648Y-67799875D02*
X97879886Y-67752256D01*
X97879886Y-67752256D02*
X97927505Y-67704636D01*
X97927505Y-67704636D02*
X97975124Y-67609398D01*
X97975124Y-67609398D02*
X97975124Y-67323684D01*
X97975124Y-67323684D02*
X97927505Y-67228446D01*
X97927505Y-67228446D02*
X97879886Y-67180827D01*
X97879886Y-67180827D02*
X97784648Y-67133208D01*
X97784648Y-67133208D02*
X97641791Y-67133208D01*
X97641791Y-67133208D02*
X97546553Y-67180827D01*
X97546553Y-67180827D02*
X97498934Y-67228446D01*
X97498934Y-67228446D02*
X97451315Y-67323684D01*
X97451315Y-67323684D02*
X97451315Y-67609398D01*
X97451315Y-67609398D02*
X97498934Y-67704636D01*
X97498934Y-67704636D02*
X97546553Y-67752256D01*
X97546553Y-67752256D02*
X97641791Y-67799875D01*
X97641791Y-67799875D02*
X97784648Y-67799875D01*
X96594172Y-67799875D02*
X96594172Y-67276065D01*
X96594172Y-67276065D02*
X96641791Y-67180827D01*
X96641791Y-67180827D02*
X96737029Y-67133208D01*
X96737029Y-67133208D02*
X96927505Y-67133208D01*
X96927505Y-67133208D02*
X97022743Y-67180827D01*
X96594172Y-67752256D02*
X96689410Y-67799875D01*
X96689410Y-67799875D02*
X96927505Y-67799875D01*
X96927505Y-67799875D02*
X97022743Y-67752256D01*
X97022743Y-67752256D02*
X97070362Y-67657017D01*
X97070362Y-67657017D02*
X97070362Y-67561779D01*
X97070362Y-67561779D02*
X97022743Y-67466541D01*
X97022743Y-67466541D02*
X96927505Y-67418922D01*
X96927505Y-67418922D02*
X96689410Y-67418922D01*
X96689410Y-67418922D02*
X96594172Y-67371303D01*
X96117981Y-67799875D02*
X96117981Y-67133208D01*
X96117981Y-67323684D02*
X96070362Y-67228446D01*
X96070362Y-67228446D02*
X96022743Y-67180827D01*
X96022743Y-67180827D02*
X95927505Y-67133208D01*
X95927505Y-67133208D02*
X95832267Y-67133208D01*
X95070362Y-67799875D02*
X95070362Y-66799875D01*
X95070362Y-67752256D02*
X95165600Y-67799875D01*
X95165600Y-67799875D02*
X95356076Y-67799875D01*
X95356076Y-67799875D02*
X95451314Y-67752256D01*
X95451314Y-67752256D02*
X95498933Y-67704636D01*
X95498933Y-67704636D02*
X95546552Y-67609398D01*
X95546552Y-67609398D02*
X95546552Y-67323684D01*
X95546552Y-67323684D02*
X95498933Y-67228446D01*
X95498933Y-67228446D02*
X95451314Y-67180827D01*
X95451314Y-67180827D02*
X95356076Y-67133208D01*
X95356076Y-67133208D02*
X95165600Y-67133208D01*
X95165600Y-67133208D02*
X95070362Y-67180827D01*
X112213220Y-69409819D02*
X112213220Y-68409819D01*
X112213220Y-68409819D02*
X111832268Y-68409819D01*
X111832268Y-68409819D02*
X111737030Y-68457438D01*
X111737030Y-68457438D02*
X111689411Y-68505057D01*
X111689411Y-68505057D02*
X111641792Y-68600295D01*
X111641792Y-68600295D02*
X111641792Y-68743152D01*
X111641792Y-68743152D02*
X111689411Y-68838390D01*
X111689411Y-68838390D02*
X111737030Y-68886009D01*
X111737030Y-68886009D02*
X111832268Y-68933628D01*
X111832268Y-68933628D02*
X112213220Y-68933628D01*
X110641792Y-69314580D02*
X110689411Y-69362200D01*
X110689411Y-69362200D02*
X110832268Y-69409819D01*
X110832268Y-69409819D02*
X110927506Y-69409819D01*
X110927506Y-69409819D02*
X111070363Y-69362200D01*
X111070363Y-69362200D02*
X111165601Y-69266961D01*
X111165601Y-69266961D02*
X111213220Y-69171723D01*
X111213220Y-69171723D02*
X111260839Y-68981247D01*
X111260839Y-68981247D02*
X111260839Y-68838390D01*
X111260839Y-68838390D02*
X111213220Y-68647914D01*
X111213220Y-68647914D02*
X111165601Y-68552676D01*
X111165601Y-68552676D02*
X111070363Y-68457438D01*
X111070363Y-68457438D02*
X110927506Y-68409819D01*
X110927506Y-68409819D02*
X110832268Y-68409819D01*
X110832268Y-68409819D02*
X110689411Y-68457438D01*
X110689411Y-68457438D02*
X110641792Y-68505057D01*
X109879887Y-68886009D02*
X109737030Y-68933628D01*
X109737030Y-68933628D02*
X109689411Y-68981247D01*
X109689411Y-68981247D02*
X109641792Y-69076485D01*
X109641792Y-69076485D02*
X109641792Y-69219342D01*
X109641792Y-69219342D02*
X109689411Y-69314580D01*
X109689411Y-69314580D02*
X109737030Y-69362200D01*
X109737030Y-69362200D02*
X109832268Y-69409819D01*
X109832268Y-69409819D02*
X110213220Y-69409819D01*
X110213220Y-69409819D02*
X110213220Y-68409819D01*
X110213220Y-68409819D02*
X109879887Y-68409819D01*
X109879887Y-68409819D02*
X109784649Y-68457438D01*
X109784649Y-68457438D02*
X109737030Y-68505057D01*
X109737030Y-68505057D02*
X109689411Y-68600295D01*
X109689411Y-68600295D02*
X109689411Y-68695533D01*
X109689411Y-68695533D02*
X109737030Y-68790771D01*
X109737030Y-68790771D02*
X109784649Y-68838390D01*
X109784649Y-68838390D02*
X109879887Y-68886009D01*
X109879887Y-68886009D02*
X110213220Y-68886009D01*
X109213220Y-69314580D02*
X109165601Y-69362200D01*
X109165601Y-69362200D02*
X109213220Y-69409819D01*
X109213220Y-69409819D02*
X109260839Y-69362200D01*
X109260839Y-69362200D02*
X109213220Y-69314580D01*
X109213220Y-69314580D02*
X109213220Y-69409819D01*
X109213220Y-68790771D02*
X109165601Y-68838390D01*
X109165601Y-68838390D02*
X109213220Y-68886009D01*
X109213220Y-68886009D02*
X109260839Y-68838390D01*
X109260839Y-68838390D02*
X109213220Y-68790771D01*
X109213220Y-68790771D02*
X109213220Y-68886009D01*
X107784649Y-68409819D02*
X107689411Y-68409819D01*
X107689411Y-68409819D02*
X107594173Y-68457438D01*
X107594173Y-68457438D02*
X107546554Y-68505057D01*
X107546554Y-68505057D02*
X107498935Y-68600295D01*
X107498935Y-68600295D02*
X107451316Y-68790771D01*
X107451316Y-68790771D02*
X107451316Y-69028866D01*
X107451316Y-69028866D02*
X107498935Y-69219342D01*
X107498935Y-69219342D02*
X107546554Y-69314580D01*
X107546554Y-69314580D02*
X107594173Y-69362200D01*
X107594173Y-69362200D02*
X107689411Y-69409819D01*
X107689411Y-69409819D02*
X107784649Y-69409819D01*
X107784649Y-69409819D02*
X107879887Y-69362200D01*
X107879887Y-69362200D02*
X107927506Y-69314580D01*
X107927506Y-69314580D02*
X107975125Y-69219342D01*
X107975125Y-69219342D02*
X108022744Y-69028866D01*
X108022744Y-69028866D02*
X108022744Y-68790771D01*
X108022744Y-68790771D02*
X107975125Y-68600295D01*
X107975125Y-68600295D02*
X107927506Y-68505057D01*
X107927506Y-68505057D02*
X107879887Y-68457438D01*
X107879887Y-68457438D02*
X107784649Y-68409819D01*
X107022744Y-69314580D02*
X106975125Y-69362200D01*
X106975125Y-69362200D02*
X107022744Y-69409819D01*
X107022744Y-69409819D02*
X107070363Y-69362200D01*
X107070363Y-69362200D02*
X107022744Y-69314580D01*
X107022744Y-69314580D02*
X107022744Y-69409819D01*
X106356078Y-68409819D02*
X106260840Y-68409819D01*
X106260840Y-68409819D02*
X106165602Y-68457438D01*
X106165602Y-68457438D02*
X106117983Y-68505057D01*
X106117983Y-68505057D02*
X106070364Y-68600295D01*
X106070364Y-68600295D02*
X106022745Y-68790771D01*
X106022745Y-68790771D02*
X106022745Y-69028866D01*
X106022745Y-69028866D02*
X106070364Y-69219342D01*
X106070364Y-69219342D02*
X106117983Y-69314580D01*
X106117983Y-69314580D02*
X106165602Y-69362200D01*
X106165602Y-69362200D02*
X106260840Y-69409819D01*
X106260840Y-69409819D02*
X106356078Y-69409819D01*
X106356078Y-69409819D02*
X106451316Y-69362200D01*
X106451316Y-69362200D02*
X106498935Y-69314580D01*
X106498935Y-69314580D02*
X106546554Y-69219342D01*
X106546554Y-69219342D02*
X106594173Y-69028866D01*
X106594173Y-69028866D02*
X106594173Y-68790771D01*
X106594173Y-68790771D02*
X106546554Y-68600295D01*
X106546554Y-68600295D02*
X106498935Y-68505057D01*
X106498935Y-68505057D02*
X106451316Y-68457438D01*
X106451316Y-68457438D02*
X106356078Y-68409819D01*
X105594173Y-69314580D02*
X105546554Y-69362200D01*
X105546554Y-69362200D02*
X105594173Y-69409819D01*
X105594173Y-69409819D02*
X105641792Y-69362200D01*
X105641792Y-69362200D02*
X105594173Y-69314580D01*
X105594173Y-69314580D02*
X105594173Y-69409819D01*
X104594174Y-69409819D02*
X105165602Y-69409819D01*
X104879888Y-69409819D02*
X104879888Y-68409819D01*
X104879888Y-68409819D02*
X104975126Y-68552676D01*
X104975126Y-68552676D02*
X105070364Y-68647914D01*
X105070364Y-68647914D02*
X105165602Y-68695533D01*
X103498935Y-68409819D02*
X102879888Y-68409819D01*
X102879888Y-68409819D02*
X103213221Y-68790771D01*
X103213221Y-68790771D02*
X103070364Y-68790771D01*
X103070364Y-68790771D02*
X102975126Y-68838390D01*
X102975126Y-68838390D02*
X102927507Y-68886009D01*
X102927507Y-68886009D02*
X102879888Y-68981247D01*
X102879888Y-68981247D02*
X102879888Y-69219342D01*
X102879888Y-69219342D02*
X102927507Y-69314580D01*
X102927507Y-69314580D02*
X102975126Y-69362200D01*
X102975126Y-69362200D02*
X103070364Y-69409819D01*
X103070364Y-69409819D02*
X103356078Y-69409819D01*
X103356078Y-69409819D02*
X103451316Y-69362200D01*
X103451316Y-69362200D02*
X103498935Y-69314580D01*
X102594173Y-68743152D02*
X102213221Y-68743152D01*
X102451316Y-69409819D02*
X102451316Y-68552676D01*
X102451316Y-68552676D02*
X102403697Y-68457438D01*
X102403697Y-68457438D02*
X102308459Y-68409819D01*
X102308459Y-68409819D02*
X102213221Y-68409819D01*
X101498935Y-69362200D02*
X101594173Y-69409819D01*
X101594173Y-69409819D02*
X101784649Y-69409819D01*
X101784649Y-69409819D02*
X101879887Y-69362200D01*
X101879887Y-69362200D02*
X101927506Y-69266961D01*
X101927506Y-69266961D02*
X101927506Y-68886009D01*
X101927506Y-68886009D02*
X101879887Y-68790771D01*
X101879887Y-68790771D02*
X101784649Y-68743152D01*
X101784649Y-68743152D02*
X101594173Y-68743152D01*
X101594173Y-68743152D02*
X101498935Y-68790771D01*
X101498935Y-68790771D02*
X101451316Y-68886009D01*
X101451316Y-68886009D02*
X101451316Y-68981247D01*
X101451316Y-68981247D02*
X101927506Y-69076485D01*
X100594173Y-68409819D02*
X100784649Y-68409819D01*
X100784649Y-68409819D02*
X100879887Y-68457438D01*
X100879887Y-68457438D02*
X100927506Y-68505057D01*
X100927506Y-68505057D02*
X101022744Y-68647914D01*
X101022744Y-68647914D02*
X101070363Y-68838390D01*
X101070363Y-68838390D02*
X101070363Y-69219342D01*
X101070363Y-69219342D02*
X101022744Y-69314580D01*
X101022744Y-69314580D02*
X100975125Y-69362200D01*
X100975125Y-69362200D02*
X100879887Y-69409819D01*
X100879887Y-69409819D02*
X100689411Y-69409819D01*
X100689411Y-69409819D02*
X100594173Y-69362200D01*
X100594173Y-69362200D02*
X100546554Y-69314580D01*
X100546554Y-69314580D02*
X100498935Y-69219342D01*
X100498935Y-69219342D02*
X100498935Y-68981247D01*
X100498935Y-68981247D02*
X100546554Y-68886009D01*
X100546554Y-68886009D02*
X100594173Y-68838390D01*
X100594173Y-68838390D02*
X100689411Y-68790771D01*
X100689411Y-68790771D02*
X100879887Y-68790771D01*
X100879887Y-68790771D02*
X100975125Y-68838390D01*
X100975125Y-68838390D02*
X101022744Y-68886009D01*
X101022744Y-68886009D02*
X101070363Y-68981247D01*
X99641792Y-68409819D02*
X99832268Y-68409819D01*
X99832268Y-68409819D02*
X99927506Y-68457438D01*
X99927506Y-68457438D02*
X99975125Y-68505057D01*
X99975125Y-68505057D02*
X100070363Y-68647914D01*
X100070363Y-68647914D02*
X100117982Y-68838390D01*
X100117982Y-68838390D02*
X100117982Y-69219342D01*
X100117982Y-69219342D02*
X100070363Y-69314580D01*
X100070363Y-69314580D02*
X100022744Y-69362200D01*
X100022744Y-69362200D02*
X99927506Y-69409819D01*
X99927506Y-69409819D02*
X99737030Y-69409819D01*
X99737030Y-69409819D02*
X99641792Y-69362200D01*
X99641792Y-69362200D02*
X99594173Y-69314580D01*
X99594173Y-69314580D02*
X99546554Y-69219342D01*
X99546554Y-69219342D02*
X99546554Y-68981247D01*
X99546554Y-68981247D02*
X99594173Y-68886009D01*
X99594173Y-68886009D02*
X99641792Y-68838390D01*
X99641792Y-68838390D02*
X99737030Y-68790771D01*
X99737030Y-68790771D02*
X99927506Y-68790771D01*
X99927506Y-68790771D02*
X100022744Y-68838390D01*
X100022744Y-68838390D02*
X100070363Y-68886009D01*
X100070363Y-68886009D02*
X100117982Y-68981247D01*
X98927506Y-68409819D02*
X98832268Y-68409819D01*
X98832268Y-68409819D02*
X98737030Y-68457438D01*
X98737030Y-68457438D02*
X98689411Y-68505057D01*
X98689411Y-68505057D02*
X98641792Y-68600295D01*
X98641792Y-68600295D02*
X98594173Y-68790771D01*
X98594173Y-68790771D02*
X98594173Y-69028866D01*
X98594173Y-69028866D02*
X98641792Y-69219342D01*
X98641792Y-69219342D02*
X98689411Y-69314580D01*
X98689411Y-69314580D02*
X98737030Y-69362200D01*
X98737030Y-69362200D02*
X98832268Y-69409819D01*
X98832268Y-69409819D02*
X98927506Y-69409819D01*
X98927506Y-69409819D02*
X99022744Y-69362200D01*
X99022744Y-69362200D02*
X99070363Y-69314580D01*
X99070363Y-69314580D02*
X99117982Y-69219342D01*
X99117982Y-69219342D02*
X99165601Y-69028866D01*
X99165601Y-69028866D02*
X99165601Y-68790771D01*
X99165601Y-68790771D02*
X99117982Y-68600295D01*
X99117982Y-68600295D02*
X99070363Y-68505057D01*
X99070363Y-68505057D02*
X99022744Y-68457438D01*
X99022744Y-68457438D02*
X98927506Y-68409819D01*
X97784649Y-69362200D02*
X97879887Y-69409819D01*
X97879887Y-69409819D02*
X98070363Y-69409819D01*
X98070363Y-69409819D02*
X98165601Y-69362200D01*
X98165601Y-69362200D02*
X98213220Y-69266961D01*
X98213220Y-69266961D02*
X98213220Y-68886009D01*
X98213220Y-68886009D02*
X98165601Y-68790771D01*
X98165601Y-68790771D02*
X98070363Y-68743152D01*
X98070363Y-68743152D02*
X97879887Y-68743152D01*
X97879887Y-68743152D02*
X97784649Y-68790771D01*
X97784649Y-68790771D02*
X97737030Y-68886009D01*
X97737030Y-68886009D02*
X97737030Y-68981247D01*
X97737030Y-68981247D02*
X98213220Y-69076485D01*
X69503333Y-95234819D02*
X69503333Y-95949104D01*
X69503333Y-95949104D02*
X69550952Y-96091961D01*
X69550952Y-96091961D02*
X69646190Y-96187200D01*
X69646190Y-96187200D02*
X69789047Y-96234819D01*
X69789047Y-96234819D02*
X69884285Y-96234819D01*
X69122380Y-95234819D02*
X68503333Y-95234819D01*
X68503333Y-95234819D02*
X68836666Y-95615771D01*
X68836666Y-95615771D02*
X68693809Y-95615771D01*
X68693809Y-95615771D02*
X68598571Y-95663390D01*
X68598571Y-95663390D02*
X68550952Y-95711009D01*
X68550952Y-95711009D02*
X68503333Y-95806247D01*
X68503333Y-95806247D02*
X68503333Y-96044342D01*
X68503333Y-96044342D02*
X68550952Y-96139580D01*
X68550952Y-96139580D02*
X68598571Y-96187200D01*
X68598571Y-96187200D02*
X68693809Y-96234819D01*
X68693809Y-96234819D02*
X68979523Y-96234819D01*
X68979523Y-96234819D02*
X69074761Y-96187200D01*
X69074761Y-96187200D02*
X69122380Y-96139580D01*
X110953333Y-96424819D02*
X110953333Y-97139104D01*
X110953333Y-97139104D02*
X111000952Y-97281961D01*
X111000952Y-97281961D02*
X111096190Y-97377200D01*
X111096190Y-97377200D02*
X111239047Y-97424819D01*
X111239047Y-97424819D02*
X111334285Y-97424819D01*
X110524761Y-96520057D02*
X110477142Y-96472438D01*
X110477142Y-96472438D02*
X110381904Y-96424819D01*
X110381904Y-96424819D02*
X110143809Y-96424819D01*
X110143809Y-96424819D02*
X110048571Y-96472438D01*
X110048571Y-96472438D02*
X110000952Y-96520057D01*
X110000952Y-96520057D02*
X109953333Y-96615295D01*
X109953333Y-96615295D02*
X109953333Y-96710533D01*
X109953333Y-96710533D02*
X110000952Y-96853390D01*
X110000952Y-96853390D02*
X110572380Y-97424819D01*
X110572380Y-97424819D02*
X109953333Y-97424819D01*
D11*
X62010000Y-92310000D02*
X62010000Y-89710000D01*
X62010000Y-94910000D02*
X62010000Y-93580000D01*
X63340000Y-94910000D02*
X62010000Y-94910000D01*
X64610000Y-92310000D02*
X62010000Y-92310000D01*
X64610000Y-94910000D02*
X64610000Y-92310000D01*
X69750000Y-89710000D02*
X62010000Y-89710000D01*
X69750000Y-94910000D02*
X64610000Y-94910000D01*
X69750000Y-94910000D02*
X69750000Y-89710000D01*
X106320000Y-88070000D02*
X107650000Y-88070000D01*
X106320000Y-89400000D02*
X106320000Y-88070000D01*
X106320000Y-90670000D02*
X108920000Y-90670000D01*
X106320000Y-95810000D02*
X106320000Y-90670000D01*
X106320000Y-95810000D02*
X111520000Y-95810000D01*
X108920000Y-88070000D02*
X111520000Y-88070000D01*
X108920000Y-90670000D02*
X108920000Y-88070000D01*
X111520000Y-95810000D02*
X111520000Y-88070000D01*
%LPC*%
D12*
X110000000Y-56000000D03*
X52000000Y-56000000D03*
X52000000Y-105000000D03*
X110000000Y-105000000D03*
D13*
X56870000Y-57270000D03*
D14*
X56870000Y-54730000D03*
X59410000Y-57270000D03*
X59410000Y-54730000D03*
X61950000Y-57270000D03*
X61950000Y-54730000D03*
X64490000Y-57270000D03*
X64490000Y-54730000D03*
X67030000Y-57270000D03*
X67030000Y-54730000D03*
X69570000Y-57270000D03*
X69570000Y-54730000D03*
X72110000Y-57270000D03*
X72110000Y-54730000D03*
X74650000Y-57270000D03*
X74650000Y-54730000D03*
X77190000Y-57270000D03*
X77190000Y-54730000D03*
X79730000Y-57270000D03*
X79730000Y-54730000D03*
X82270000Y-57270000D03*
X82270000Y-54730000D03*
X84810000Y-57270000D03*
X84810000Y-54730000D03*
X87350000Y-57270000D03*
X87350000Y-54730000D03*
X89890000Y-57270000D03*
X89890000Y-54730000D03*
X92430000Y-57270000D03*
X92430000Y-54730000D03*
X94970000Y-57270000D03*
X94970000Y-54730000D03*
X97510000Y-57270000D03*
X97510000Y-54730000D03*
X100050000Y-57270000D03*
X100050000Y-54730000D03*
X102590000Y-57270000D03*
X102590000Y-54730000D03*
X105130000Y-57270000D03*
X105130000Y-54730000D03*
D15*
X60940000Y-104000000D03*
X60940000Y-106500000D03*
X65940000Y-99000000D03*
X70940000Y-104000000D03*
X70940000Y-106500000D03*
D16*
X60940000Y-99000000D03*
D17*
X63440000Y-99000000D03*
D18*
X65940000Y-104000000D03*
D16*
X70940000Y-99000000D03*
D19*
X68440000Y-99000000D03*
D15*
X80100000Y-104000000D03*
X80100000Y-106500000D03*
X85100000Y-99000000D03*
X90100000Y-104000000D03*
X90100000Y-106500000D03*
D16*
X80100000Y-99000000D03*
D17*
X82600000Y-99000000D03*
D18*
X85100000Y-104000000D03*
D16*
X90100000Y-99000000D03*
D19*
X87600000Y-99000000D03*
D20*
X63340000Y-93580000D03*
D21*
X63340000Y-91040000D03*
X65880000Y-93580000D03*
X65880000Y-91040000D03*
X68420000Y-93580000D03*
X68420000Y-91040000D03*
D20*
X107650000Y-89400000D03*
D21*
X110190000Y-89400000D03*
X107650000Y-91940000D03*
X110190000Y-91940000D03*
X107650000Y-94480000D03*
X110190000Y-94480000D03*
%LPD*%
M02*
