<?xml version="1.0" standalone="no"?>
 <!DOCTYPE svg PUBLIC "-//W3C//DTD SVG 1.1//EN" 
 "http://www.w3.org/Graphics/SVG/1.1/DTD/svg11.dtd"> 
<svg
  xmlns:svg="http://www.w3.org/2000/svg"
  xmlns="http://www.w3.org/2000/svg"
  xmlns:xlink="http://www.w3.org/1999/xlink"
  version="1.1"
  width="297.0022mm" height="210.0072mm" viewBox="0.0000 0.0000 297.0022 210.0072">
<title>SVG Image created as pedalboard-soundcard-Edge_Cuts.svg date 2023/12/27 22:12:35 </title>
  <desc>Image generated by PCBNEW </desc>
<g style="fill:#000000; fill-opacity:1.0000;stroke:#000000; stroke-opacity:1.0000;
stroke-linecap:round; stroke-linejoin:round;"
 transform="translate(0 0) scale(1 1)">
</g>
<g style="fill:#000000; fill-opacity:0.0; 
stroke:#000000; stroke-width:0.0000; stroke-opacity:1; 
stroke-linecap:round; stroke-linejoin:round;">
</g>
<g style="fill:#000000; fill-opacity:0.0; 
stroke:#000000; stroke-width:0.1000; stroke-opacity:1; 
stroke-linecap:round; stroke-linejoin:round;">
<path d="M48.5000 105.5000 A3.0000 3.0000 0.0 0 0 51.5000 108.5000" />
<path d="M110.5000 108.5000 A3.0000 3.0000 0.0 0 0 113.5000 105.5000" />
<path d="M48.5000 71.0000 A1.0000 1.0000 0.0 0 0 49.5000 72.0000" />
<path d="M53.5000 73.0000 A1.0000 1.0000 0.0 0 0 52.5000 72.0000" />
<path d="M52.5000 89.0000 A1.0000 1.0000 0.0 0 0 53.5000 88.0000" />
<path d="M49.5000 89.0000 A1.0000 1.0000 0.0 0 0 48.5000 90.0000" />
<path d="M51.5000 52.5000 A3.0000 3.0000 0.0 0 0 48.5000 55.5000" />
<path d="M51.5000 52.5000
L110.5000 52.5000
" />
<path d="M113.5000 55.5000 A3.0000 3.0000 0.0 0 0 110.5000 52.5000" />
<path d="M48.5000 55.5000
L48.5000 71.0000
" />
<path d="M53.5000 73.0000
L53.5000 88.0000
" />
<path d="M49.5000 72.0000
L52.5000 72.0000
" />
<path d="M48.5000 90.0000
L48.5000 105.5000
" />
<path d="M51.5000 108.5000
L110.5000 108.5000
" />
<path d="M113.5000 55.5000
L113.5000 105.5000
" />
<path d="M49.5000 89.0000
L52.5000 89.0000
" />
<g >
</g>
<g >
</g>
<g >
</g>
<g >
</g>
<g >
</g>
<g >
</g>
<g >
</g>
<g >
</g>
<g >
</g>
<g >
</g>
<g >
</g>
<g >
</g>
<g >
</g>
<g >
</g>
<g >
</g>
<g >
</g>
<g >
</g>
<g >
</g>
<g >
</g>
<g >
</g>
<g >
</g>
<g >
</g>
<g >
</g>
<g >
</g>
<g >
</g>
<g >
</g>
<g >
</g>
<g >
</g>
<g >
</g>
<g >
</g>
<g >
</g>
<g >
</g>
<g >
</g>
<g >
</g>
<g >
</g>
<g >
</g>
<g >
</g>
<g >
</g>
<g >
</g>
<g >
</g>
<g >
</g>
<g >
</g>
<g >
</g>
<g >
</g>
<g >
</g>
<g >
</g>
<g >
</g>
<g >
</g>
<g >
</g>
<g >
</g>
<g >
</g>
<g >
</g>
<g >
</g>
<g >
</g>
<g >
</g>
<g >
</g>
<g >
</g>
<g >
</g>
<g >
</g>
<g >
</g>
<g >
</g>
<g >
</g>
<g >
</g>
<g >
</g>
<g >
</g>
<g >
</g>
<g >
</g>
<g >
</g>
<g >
</g>
<g >
</g>
<g >
</g>
<g >
</g>
<g >
</g>
<g >
</g>
<g >
</g>
<g >
</g>
<g >
</g>
<g >
</g>
<g >
</g>
<g >
</g>
<g >
</g>
<g >
</g>
<g >
</g>
<g >
</g>
</g> 
</svg>
