<?xml version="1.0" standalone="no"?>
 <!DOCTYPE svg PUBLIC "-//W3C//DTD SVG 1.1//EN" 
 "http://www.w3.org/Graphics/SVG/1.1/DTD/svg11.dtd"> 
<svg
  xmlns:svg="http://www.w3.org/2000/svg"
  xmlns="http://www.w3.org/2000/svg"
  xmlns:xlink="http://www.w3.org/1999/xlink"
  version="1.1"
  width="297.0022mm" height="210.0072mm" viewBox="0.0000 0.0000 297.0022 210.0072">
<title>SVG Image created as pedalboard-soundcard-B_Fab.svg date 2024/10/15 20:14:31 </title>
  <desc>Image generated by PCBNEW </desc>
<g style="fill:#000000; fill-opacity:1.0000;stroke:#000000; stroke-opacity:1.0000;
stroke-linecap:round; stroke-linejoin:round;"
 transform="translate(0 0) scale(1 1)">
</g>
<g style="fill:none; 
stroke:#000000; stroke-width:0.1500; stroke-opacity:1; 
stroke-linecap:round; stroke-linejoin:round;">
<g transform="rotate(-90.000000 71.1900 92.3100)">
<text x="71.1900" y="92.8100"
transform="scale(-1 1) translate(-142.380000 0)"
textLength="17.1548" font-size="1.3333" lengthAdjust="spacingAndGlyphs"
text-anchor="middle" opacity="0" stroke-opacity="0">Conn_02x03_Odd_Even</text>
</g>
<g class="stroked-text"><desc>Conn_02x03_Odd_Even</desc>
<path d="M71.5496 84.6671
L71.5972 84.6195
" />
<path d="M71.5972 84.6195
L71.6448 84.4767
" />
<path d="M71.6448 84.4767
L71.6448 84.3814
" />
<path d="M71.6448 84.3814
L71.5972 84.2386
" />
<path d="M71.5972 84.2386
L71.5020 84.1433
" />
<path d="M71.5020 84.1433
L71.4067 84.0957
" />
<path d="M71.4067 84.0957
L71.2162 84.0481
" />
<path d="M71.2162 84.0481
L71.0734 84.0481
" />
<path d="M71.0734 84.0481
L70.8829 84.0957
" />
<path d="M70.8829 84.0957
L70.7877 84.1433
" />
<path d="M70.7877 84.1433
L70.6924 84.2386
" />
<path d="M70.6924 84.2386
L70.6448 84.3814
" />
<path d="M70.6448 84.3814
L70.6448 84.4767
" />
<path d="M70.6448 84.4767
L70.6924 84.6195
" />
<path d="M70.6924 84.6195
L70.7401 84.6671
" />
<path d="M71.6448 85.2386
L71.5972 85.1433
" />
<path d="M71.5972 85.1433
L71.5496 85.0957
" />
<path d="M71.5496 85.0957
L71.4543 85.0481
" />
<path d="M71.4543 85.0481
L71.1686 85.0481
" />
<path d="M71.1686 85.0481
L71.0734 85.0957
" />
<path d="M71.0734 85.0957
L71.0258 85.1433
" />
<path d="M71.0258 85.1433
L70.9782 85.2386
" />
<path d="M70.9782 85.2386
L70.9782 85.3814
" />
<path d="M70.9782 85.3814
L71.0258 85.4767
" />
<path d="M71.0258 85.4767
L71.0734 85.5243
" />
<path d="M71.0734 85.5243
L71.1686 85.5719
" />
<path d="M71.1686 85.5719
L71.4543 85.5719
" />
<path d="M71.4543 85.5719
L71.5496 85.5243
" />
<path d="M71.5496 85.5243
L71.5972 85.4767
" />
<path d="M71.5972 85.4767
L71.6448 85.3814
" />
<path d="M71.6448 85.3814
L71.6448 85.2386
" />
<path d="M70.9782 86.0005
L71.6448 86.0005
" />
<path d="M71.0734 86.0005
L71.0258 86.0481
" />
<path d="M71.0258 86.0481
L70.9782 86.1433
" />
<path d="M70.9782 86.1433
L70.9782 86.2862
" />
<path d="M70.9782 86.2862
L71.0258 86.3814
" />
<path d="M71.0258 86.3814
L71.1210 86.4290
" />
<path d="M71.1210 86.4290
L71.6448 86.4290
" />
<path d="M70.9782 86.9052
L71.6448 86.9052
" />
<path d="M71.0734 86.9052
L71.0258 86.9529
" />
<path d="M71.0258 86.9529
L70.9782 87.0481
" />
<path d="M70.9782 87.0481
L70.9782 87.1910
" />
<path d="M70.9782 87.1910
L71.0258 87.2862
" />
<path d="M71.0258 87.2862
L71.1210 87.3338
" />
<path d="M71.1210 87.3338
L71.6448 87.3338
" />
<path d="M71.7401 87.5719
L71.7401 88.3338
" />
<path d="M70.6448 88.7624
L70.6448 88.8576
" />
<path d="M70.6448 88.8576
L70.6924 88.9529
" />
<path d="M70.6924 88.9529
L70.7401 89.0005
" />
<path d="M70.7401 89.0005
L70.8353 89.0481
" />
<path d="M70.8353 89.0481
L71.0258 89.0957
" />
<path d="M71.0258 89.0957
L71.2639 89.0957
" />
<path d="M71.2639 89.0957
L71.4543 89.0481
" />
<path d="M71.4543 89.0481
L71.5496 89.0005
" />
<path d="M71.5496 89.0005
L71.5972 88.9529
" />
<path d="M71.5972 88.9529
L71.6448 88.8576
" />
<path d="M71.6448 88.8576
L71.6448 88.7624
" />
<path d="M71.6448 88.7624
L71.5972 88.6671
" />
<path d="M71.5972 88.6671
L71.5496 88.6195
" />
<path d="M71.5496 88.6195
L71.4543 88.5719
" />
<path d="M71.4543 88.5719
L71.2639 88.5243
" />
<path d="M71.2639 88.5243
L71.0258 88.5243
" />
<path d="M71.0258 88.5243
L70.8353 88.5719
" />
<path d="M70.8353 88.5719
L70.7401 88.6195
" />
<path d="M70.7401 88.6195
L70.6924 88.6671
" />
<path d="M70.6924 88.6671
L70.6448 88.7624
" />
<path d="M70.7401 89.4767
L70.6924 89.5243
" />
<path d="M70.6924 89.5243
L70.6448 89.6195
" />
<path d="M70.6448 89.6195
L70.6448 89.8576
" />
<path d="M70.6448 89.8576
L70.6924 89.9529
" />
<path d="M70.6924 89.9529
L70.7401 90.0005
" />
<path d="M70.7401 90.0005
L70.8353 90.0481
" />
<path d="M70.8353 90.0481
L70.9305 90.0481
" />
<path d="M70.9305 90.0481
L71.0734 90.0005
" />
<path d="M71.0734 90.0005
L71.6448 89.4290
" />
<path d="M71.6448 89.4290
L71.6448 90.0481
" />
<path d="M71.6448 90.3814
L70.9782 90.9052
" />
<path d="M70.9782 90.3814
L71.6448 90.9052
" />
<path d="M70.6448 91.4767
L70.6448 91.5719
" />
<path d="M70.6448 91.5719
L70.6924 91.6671
" />
<path d="M70.6924 91.6671
L70.7401 91.7148
" />
<path d="M70.7401 91.7148
L70.8353 91.7624
" />
<path d="M70.8353 91.7624
L71.0258 91.8100
" />
<path d="M71.0258 91.8100
L71.2639 91.8100
" />
<path d="M71.2639 91.8100
L71.4543 91.7624
" />
<path d="M71.4543 91.7624
L71.5496 91.7148
" />
<path d="M71.5496 91.7148
L71.5972 91.6671
" />
<path d="M71.5972 91.6671
L71.6448 91.5719
" />
<path d="M71.6448 91.5719
L71.6448 91.4767
" />
<path d="M71.6448 91.4767
L71.5972 91.3814
" />
<path d="M71.5972 91.3814
L71.5496 91.3338
" />
<path d="M71.5496 91.3338
L71.4543 91.2862
" />
<path d="M71.4543 91.2862
L71.2639 91.2386
" />
<path d="M71.2639 91.2386
L71.0258 91.2386
" />
<path d="M71.0258 91.2386
L70.8353 91.2862
" />
<path d="M70.8353 91.2862
L70.7401 91.3338
" />
<path d="M70.7401 91.3338
L70.6924 91.3814
" />
<path d="M70.6924 91.3814
L70.6448 91.4767
" />
<path d="M70.6448 92.1433
L70.6448 92.7624
" />
<path d="M70.6448 92.7624
L71.0258 92.4290
" />
<path d="M71.0258 92.4290
L71.0258 92.5719
" />
<path d="M71.0258 92.5719
L71.0734 92.6671
" />
<path d="M71.0734 92.6671
L71.1210 92.7148
" />
<path d="M71.1210 92.7148
L71.2162 92.7624
" />
<path d="M71.2162 92.7624
L71.4543 92.7624
" />
<path d="M71.4543 92.7624
L71.5496 92.7148
" />
<path d="M71.5496 92.7148
L71.5972 92.6671
" />
<path d="M71.5972 92.6671
L71.6448 92.5719
" />
<path d="M71.6448 92.5719
L71.6448 92.2862
" />
<path d="M71.6448 92.2862
L71.5972 92.1910
" />
<path d="M71.5972 92.1910
L71.5496 92.1433
" />
<path d="M71.7401 92.9529
L71.7401 93.7148
" />
<path d="M70.6448 94.1433
L70.6448 94.3338
" />
<path d="M70.6448 94.3338
L70.6924 94.4290
" />
<path d="M70.6924 94.4290
L70.7877 94.5243
" />
<path d="M70.7877 94.5243
L70.9782 94.5719
" />
<path d="M70.9782 94.5719
L71.3115 94.5719
" />
<path d="M71.3115 94.5719
L71.5020 94.5243
" />
<path d="M71.5020 94.5243
L71.5972 94.4290
" />
<path d="M71.5972 94.4290
L71.6448 94.3338
" />
<path d="M71.6448 94.3338
L71.6448 94.1433
" />
<path d="M71.6448 94.1433
L71.5972 94.0481
" />
<path d="M71.5972 94.0481
L71.5020 93.9529
" />
<path d="M71.5020 93.9529
L71.3115 93.9052
" />
<path d="M71.3115 93.9052
L70.9782 93.9052
" />
<path d="M70.9782 93.9052
L70.7877 93.9529
" />
<path d="M70.7877 93.9529
L70.6924 94.0481
" />
<path d="M70.6924 94.0481
L70.6448 94.1433
" />
<path d="M71.6448 95.4290
L70.6448 95.4290
" />
<path d="M71.5972 95.4290
L71.6448 95.3338
" />
<path d="M71.6448 95.3338
L71.6448 95.1433
" />
<path d="M71.6448 95.1433
L71.5972 95.0481
" />
<path d="M71.5972 95.0481
L71.5496 95.0005
" />
<path d="M71.5496 95.0005
L71.4543 94.9529
" />
<path d="M71.4543 94.9529
L71.1686 94.9529
" />
<path d="M71.1686 94.9529
L71.0734 95.0005
" />
<path d="M71.0734 95.0005
L71.0258 95.0481
" />
<path d="M71.0258 95.0481
L70.9782 95.1433
" />
<path d="M70.9782 95.1433
L70.9782 95.3338
" />
<path d="M70.9782 95.3338
L71.0258 95.4290
" />
<path d="M71.6448 96.3338
L70.6448 96.3338
" />
<path d="M71.5972 96.3338
L71.6448 96.2386
" />
<path d="M71.6448 96.2386
L71.6448 96.0481
" />
<path d="M71.6448 96.0481
L71.5972 95.9529
" />
<path d="M71.5972 95.9529
L71.5496 95.9052
" />
<path d="M71.5496 95.9052
L71.4543 95.8576
" />
<path d="M71.4543 95.8576
L71.1686 95.8576
" />
<path d="M71.1686 95.8576
L71.0734 95.9052
" />
<path d="M71.0734 95.9052
L71.0258 95.9529
" />
<path d="M71.0258 95.9529
L70.9782 96.0481
" />
<path d="M70.9782 96.0481
L70.9782 96.2386
" />
<path d="M70.9782 96.2386
L71.0258 96.3338
" />
<path d="M71.7401 96.5719
L71.7401 97.3338
" />
<path d="M71.1210 97.5719
L71.1210 97.9052
" />
<path d="M71.6448 98.0481
L71.6448 97.5719
" />
<path d="M71.6448 97.5719
L70.6448 97.5719
" />
<path d="M70.6448 97.5719
L70.6448 98.0481
" />
<path d="M70.9782 98.3814
L71.6448 98.6195
" />
<path d="M71.6448 98.6195
L70.9782 98.8576
" />
<path d="M71.5972 99.6195
L71.6448 99.5243
" />
<path d="M71.6448 99.5243
L71.6448 99.3338
" />
<path d="M71.6448 99.3338
L71.5972 99.2386
" />
<path d="M71.5972 99.2386
L71.5020 99.1910
" />
<path d="M71.5020 99.1910
L71.1210 99.1910
" />
<path d="M71.1210 99.1910
L71.0258 99.2386
" />
<path d="M71.0258 99.2386
L70.9782 99.3338
" />
<path d="M70.9782 99.3338
L70.9782 99.5243
" />
<path d="M70.9782 99.5243
L71.0258 99.6195
" />
<path d="M71.0258 99.6195
L71.1210 99.6671
" />
<path d="M71.1210 99.6671
L71.2162 99.6671
" />
<path d="M71.2162 99.6671
L71.3115 99.1910
" />
<path d="M70.9782 100.0957
L71.6448 100.0957
" />
<path d="M71.0734 100.0957
L71.0258 100.1433
" />
<path d="M71.0258 100.1433
L70.9782 100.2386
" />
<path d="M70.9782 100.2386
L70.9782 100.3814
" />
<path d="M70.9782 100.3814
L71.0258 100.4767
" />
<path d="M71.0258 100.4767
L71.1210 100.5243
" />
<path d="M71.1210 100.5243
L71.6448 100.5243
" />
</g><text x="65.8800" y="92.8100"
transform="scale(-1 1) translate(-131.760000 0)"
textLength="1.9643" font-size="1.3333" lengthAdjust="spacingAndGlyphs"
text-anchor="middle" opacity="0" stroke-opacity="0">J3</text>
<g class="stroked-text"><desc>J3</desc>
<path d="M66.2133 91.7648
L66.2133 92.4791
" />
<path d="M66.2133 92.4791
L66.2610 92.6220
" />
<path d="M66.2610 92.6220
L66.3562 92.7172
" />
<path d="M66.3562 92.7172
L66.4990 92.7648
" />
<path d="M66.4990 92.7648
L66.5943 92.7648
" />
<path d="M65.8324 91.7648
L65.2133 91.7648
" />
<path d="M65.2133 91.7648
L65.5467 92.1458
" />
<path d="M65.5467 92.1458
L65.4038 92.1458
" />
<path d="M65.4038 92.1458
L65.3086 92.1934
" />
<path d="M65.3086 92.1934
L65.2610 92.2410
" />
<path d="M65.2610 92.2410
L65.2133 92.3362
" />
<path d="M65.2133 92.3362
L65.2133 92.5743
" />
<path d="M65.2133 92.5743
L65.2610 92.6696
" />
<path d="M65.2610 92.6696
L65.3086 92.7172
" />
<path d="M65.3086 92.7172
L65.4038 92.7648
" />
<path d="M65.4038 92.7648
L65.6895 92.7648
" />
<path d="M65.6895 92.7648
L65.7848 92.7172
" />
<path d="M65.7848 92.7172
L65.8324 92.6696
" />
</g><text x="108.9200" y="97.7500"
transform="scale(-1 1) translate(-217.840000 0)"
textLength="17.1548" font-size="1.3333" lengthAdjust="spacingAndGlyphs"
text-anchor="middle" opacity="0" stroke-opacity="0">Conn_02x03_Odd_Even</text>
<g class="stroked-text"><desc>Conn_02x03_Odd_Even</desc>
<path d="M116.5629 97.6096
L116.6105 97.6572
" />
<path d="M116.6105 97.6572
L116.7533 97.7048
" />
<path d="M116.7533 97.7048
L116.8486 97.7048
" />
<path d="M116.8486 97.7048
L116.9914 97.6572
" />
<path d="M116.9914 97.6572
L117.0867 97.5620
" />
<path d="M117.0867 97.5620
L117.1343 97.4667
" />
<path d="M117.1343 97.4667
L117.1819 97.2762
" />
<path d="M117.1819 97.2762
L117.1819 97.1334
" />
<path d="M117.1819 97.1334
L117.1343 96.9429
" />
<path d="M117.1343 96.9429
L117.0867 96.8477
" />
<path d="M117.0867 96.8477
L116.9914 96.7524
" />
<path d="M116.9914 96.7524
L116.8486 96.7048
" />
<path d="M116.8486 96.7048
L116.7533 96.7048
" />
<path d="M116.7533 96.7048
L116.6105 96.7524
" />
<path d="M116.6105 96.7524
L116.5629 96.8001
" />
<path d="M115.9914 97.7048
L116.0867 97.6572
" />
<path d="M116.0867 97.6572
L116.1343 97.6096
" />
<path d="M116.1343 97.6096
L116.1819 97.5143
" />
<path d="M116.1819 97.5143
L116.1819 97.2286
" />
<path d="M116.1819 97.2286
L116.1343 97.1334
" />
<path d="M116.1343 97.1334
L116.0867 97.0858
" />
<path d="M116.0867 97.0858
L115.9914 97.0382
" />
<path d="M115.9914 97.0382
L115.8486 97.0382
" />
<path d="M115.8486 97.0382
L115.7533 97.0858
" />
<path d="M115.7533 97.0858
L115.7057 97.1334
" />
<path d="M115.7057 97.1334
L115.6581 97.2286
" />
<path d="M115.6581 97.2286
L115.6581 97.5143
" />
<path d="M115.6581 97.5143
L115.7057 97.6096
" />
<path d="M115.7057 97.6096
L115.7533 97.6572
" />
<path d="M115.7533 97.6572
L115.8486 97.7048
" />
<path d="M115.8486 97.7048
L115.9914 97.7048
" />
<path d="M115.2295 97.0382
L115.2295 97.7048
" />
<path d="M115.2295 97.1334
L115.1819 97.0858
" />
<path d="M115.1819 97.0858
L115.0867 97.0382
" />
<path d="M115.0867 97.0382
L114.9438 97.0382
" />
<path d="M114.9438 97.0382
L114.8486 97.0858
" />
<path d="M114.8486 97.0858
L114.8010 97.1810
" />
<path d="M114.8010 97.1810
L114.8010 97.7048
" />
<path d="M114.3248 97.0382
L114.3248 97.7048
" />
<path d="M114.3248 97.1334
L114.2771 97.0858
" />
<path d="M114.2771 97.0858
L114.1819 97.0382
" />
<path d="M114.1819 97.0382
L114.0390 97.0382
" />
<path d="M114.0390 97.0382
L113.9438 97.0858
" />
<path d="M113.9438 97.0858
L113.8962 97.1810
" />
<path d="M113.8962 97.1810
L113.8962 97.7048
" />
<path d="M113.6581 97.8001
L112.8962 97.8001
" />
<path d="M112.4676 96.7048
L112.3724 96.7048
" />
<path d="M112.3724 96.7048
L112.2771 96.7524
" />
<path d="M112.2771 96.7524
L112.2295 96.8001
" />
<path d="M112.2295 96.8001
L112.1819 96.8953
" />
<path d="M112.1819 96.8953
L112.1343 97.0858
" />
<path d="M112.1343 97.0858
L112.1343 97.3239
" />
<path d="M112.1343 97.3239
L112.1819 97.5143
" />
<path d="M112.1819 97.5143
L112.2295 97.6096
" />
<path d="M112.2295 97.6096
L112.2771 97.6572
" />
<path d="M112.2771 97.6572
L112.3724 97.7048
" />
<path d="M112.3724 97.7048
L112.4676 97.7048
" />
<path d="M112.4676 97.7048
L112.5629 97.6572
" />
<path d="M112.5629 97.6572
L112.6105 97.6096
" />
<path d="M112.6105 97.6096
L112.6581 97.5143
" />
<path d="M112.6581 97.5143
L112.7057 97.3239
" />
<path d="M112.7057 97.3239
L112.7057 97.0858
" />
<path d="M112.7057 97.0858
L112.6581 96.8953
" />
<path d="M112.6581 96.8953
L112.6105 96.8001
" />
<path d="M112.6105 96.8001
L112.5629 96.7524
" />
<path d="M112.5629 96.7524
L112.4676 96.7048
" />
<path d="M111.7533 96.8001
L111.7057 96.7524
" />
<path d="M111.7057 96.7524
L111.6105 96.7048
" />
<path d="M111.6105 96.7048
L111.3724 96.7048
" />
<path d="M111.3724 96.7048
L111.2771 96.7524
" />
<path d="M111.2771 96.7524
L111.2295 96.8001
" />
<path d="M111.2295 96.8001
L111.1819 96.8953
" />
<path d="M111.1819 96.8953
L111.1819 96.9905
" />
<path d="M111.1819 96.9905
L111.2295 97.1334
" />
<path d="M111.2295 97.1334
L111.8010 97.7048
" />
<path d="M111.8010 97.7048
L111.1819 97.7048
" />
<path d="M110.8486 97.7048
L110.3248 97.0382
" />
<path d="M110.8486 97.0382
L110.3248 97.7048
" />
<path d="M109.7533 96.7048
L109.6581 96.7048
" />
<path d="M109.6581 96.7048
L109.5629 96.7524
" />
<path d="M109.5629 96.7524
L109.5152 96.8001
" />
<path d="M109.5152 96.8001
L109.4676 96.8953
" />
<path d="M109.4676 96.8953
L109.4200 97.0858
" />
<path d="M109.4200 97.0858
L109.4200 97.3239
" />
<path d="M109.4200 97.3239
L109.4676 97.5143
" />
<path d="M109.4676 97.5143
L109.5152 97.6096
" />
<path d="M109.5152 97.6096
L109.5629 97.6572
" />
<path d="M109.5629 97.6572
L109.6581 97.7048
" />
<path d="M109.6581 97.7048
L109.7533 97.7048
" />
<path d="M109.7533 97.7048
L109.8486 97.6572
" />
<path d="M109.8486 97.6572
L109.8962 97.6096
" />
<path d="M109.8962 97.6096
L109.9438 97.5143
" />
<path d="M109.9438 97.5143
L109.9914 97.3239
" />
<path d="M109.9914 97.3239
L109.9914 97.0858
" />
<path d="M109.9914 97.0858
L109.9438 96.8953
" />
<path d="M109.9438 96.8953
L109.8962 96.8001
" />
<path d="M109.8962 96.8001
L109.8486 96.7524
" />
<path d="M109.8486 96.7524
L109.7533 96.7048
" />
<path d="M109.0867 96.7048
L108.4676 96.7048
" />
<path d="M108.4676 96.7048
L108.8010 97.0858
" />
<path d="M108.8010 97.0858
L108.6581 97.0858
" />
<path d="M108.6581 97.0858
L108.5629 97.1334
" />
<path d="M108.5629 97.1334
L108.5152 97.1810
" />
<path d="M108.5152 97.1810
L108.4676 97.2762
" />
<path d="M108.4676 97.2762
L108.4676 97.5143
" />
<path d="M108.4676 97.5143
L108.5152 97.6096
" />
<path d="M108.5152 97.6096
L108.5629 97.6572
" />
<path d="M108.5629 97.6572
L108.6581 97.7048
" />
<path d="M108.6581 97.7048
L108.9438 97.7048
" />
<path d="M108.9438 97.7048
L109.0390 97.6572
" />
<path d="M109.0390 97.6572
L109.0867 97.6096
" />
<path d="M108.2771 97.8001
L107.5152 97.8001
" />
<path d="M107.0867 96.7048
L106.8962 96.7048
" />
<path d="M106.8962 96.7048
L106.8010 96.7524
" />
<path d="M106.8010 96.7524
L106.7057 96.8477
" />
<path d="M106.7057 96.8477
L106.6581 97.0382
" />
<path d="M106.6581 97.0382
L106.6581 97.3715
" />
<path d="M106.6581 97.3715
L106.7057 97.5620
" />
<path d="M106.7057 97.5620
L106.8010 97.6572
" />
<path d="M106.8010 97.6572
L106.8962 97.7048
" />
<path d="M106.8962 97.7048
L107.0867 97.7048
" />
<path d="M107.0867 97.7048
L107.1819 97.6572
" />
<path d="M107.1819 97.6572
L107.2771 97.5620
" />
<path d="M107.2771 97.5620
L107.3248 97.3715
" />
<path d="M107.3248 97.3715
L107.3248 97.0382
" />
<path d="M107.3248 97.0382
L107.2771 96.8477
" />
<path d="M107.2771 96.8477
L107.1819 96.7524
" />
<path d="M107.1819 96.7524
L107.0867 96.7048
" />
<path d="M105.8010 97.7048
L105.8010 96.7048
" />
<path d="M105.8010 97.6572
L105.8962 97.7048
" />
<path d="M105.8962 97.7048
L106.0867 97.7048
" />
<path d="M106.0867 97.7048
L106.1819 97.6572
" />
<path d="M106.1819 97.6572
L106.2295 97.6096
" />
<path d="M106.2295 97.6096
L106.2771 97.5143
" />
<path d="M106.2771 97.5143
L106.2771 97.2286
" />
<path d="M106.2771 97.2286
L106.2295 97.1334
" />
<path d="M106.2295 97.1334
L106.1819 97.0858
" />
<path d="M106.1819 97.0858
L106.0867 97.0382
" />
<path d="M106.0867 97.0382
L105.8962 97.0382
" />
<path d="M105.8962 97.0382
L105.8010 97.0858
" />
<path d="M104.8962 97.7048
L104.8962 96.7048
" />
<path d="M104.8962 97.6572
L104.9914 97.7048
" />
<path d="M104.9914 97.7048
L105.1819 97.7048
" />
<path d="M105.1819 97.7048
L105.2771 97.6572
" />
<path d="M105.2771 97.6572
L105.3248 97.6096
" />
<path d="M105.3248 97.6096
L105.3724 97.5143
" />
<path d="M105.3724 97.5143
L105.3724 97.2286
" />
<path d="M105.3724 97.2286
L105.3248 97.1334
" />
<path d="M105.3248 97.1334
L105.2771 97.0858
" />
<path d="M105.2771 97.0858
L105.1819 97.0382
" />
<path d="M105.1819 97.0382
L104.9914 97.0382
" />
<path d="M104.9914 97.0382
L104.8962 97.0858
" />
<path d="M104.6581 97.8001
L103.8962 97.8001
" />
<path d="M103.6581 97.1810
L103.3248 97.1810
" />
<path d="M103.1819 97.7048
L103.6581 97.7048
" />
<path d="M103.6581 97.7048
L103.6581 96.7048
" />
<path d="M103.6581 96.7048
L103.1819 96.7048
" />
<path d="M102.8486 97.0382
L102.6105 97.7048
" />
<path d="M102.6105 97.7048
L102.3724 97.0382
" />
<path d="M101.6105 97.6572
L101.7057 97.7048
" />
<path d="M101.7057 97.7048
L101.8962 97.7048
" />
<path d="M101.8962 97.7048
L101.9914 97.6572
" />
<path d="M101.9914 97.6572
L102.0390 97.5620
" />
<path d="M102.0390 97.5620
L102.0390 97.1810
" />
<path d="M102.0390 97.1810
L101.9914 97.0858
" />
<path d="M101.9914 97.0858
L101.8962 97.0382
" />
<path d="M101.8962 97.0382
L101.7057 97.0382
" />
<path d="M101.7057 97.0382
L101.6105 97.0858
" />
<path d="M101.6105 97.0858
L101.5629 97.1810
" />
<path d="M101.5629 97.1810
L101.5629 97.2762
" />
<path d="M101.5629 97.2762
L102.0390 97.3715
" />
<path d="M101.1343 97.0382
L101.1343 97.7048
" />
<path d="M101.1343 97.1334
L101.0867 97.0858
" />
<path d="M101.0867 97.0858
L100.9914 97.0382
" />
<path d="M100.9914 97.0382
L100.8486 97.0382
" />
<path d="M100.8486 97.0382
L100.7533 97.0858
" />
<path d="M100.7533 97.0858
L100.7057 97.1810
" />
<path d="M100.7057 97.1810
L100.7057 97.7048
" />
</g><g transform="rotate(-90.000000 108.9200 91.9400)">
<text x="108.9200" y="92.4400"
transform="scale(-1 1) translate(-217.840000 0)"
textLength="1.9643" font-size="1.3333" lengthAdjust="spacingAndGlyphs"
text-anchor="middle" opacity="0" stroke-opacity="0">J2</text>
</g>
<g class="stroked-text"><desc>J2</desc>
<path d="M108.3748 91.6067
L109.0891 91.6067
" />
<path d="M109.0891 91.6067
L109.2320 91.5590
" />
<path d="M109.2320 91.5590
L109.3272 91.4638
" />
<path d="M109.3272 91.4638
L109.3748 91.3210
" />
<path d="M109.3748 91.3210
L109.3748 91.2257
" />
<path d="M108.4701 92.0352
L108.4224 92.0829
" />
<path d="M108.4224 92.0829
L108.3748 92.1781
" />
<path d="M108.3748 92.1781
L108.3748 92.4162
" />
<path d="M108.3748 92.4162
L108.4224 92.5114
" />
<path d="M108.4224 92.5114
L108.4701 92.5590
" />
<path d="M108.4701 92.5590
L108.5653 92.6067
" />
<path d="M108.5653 92.6067
L108.6605 92.6067
" />
<path d="M108.6605 92.6067
L108.8034 92.5590
" />
<path d="M108.8034 92.5590
L109.3748 91.9876
" />
<path d="M109.3748 91.9876
L109.3748 92.6067
" />
</g><circle cx="110.0000" cy="56.0000" r="1.3750" /> 
<circle cx="110.0000" cy="56.0000" r="3.1000" /> 
<circle cx="52.0000" cy="56.0000" r="1.3750" /> 
<circle cx="52.0000" cy="56.0000" r="3.1000" /> 
<circle cx="52.0000" cy="105.0000" r="1.3750" /> 
<circle cx="52.0000" cy="105.0000" r="3.1000" /> 
<circle cx="110.0000" cy="105.0000" r="1.3750" /> 
<circle cx="110.0000" cy="105.0000" r="3.1000" /> 
</g>
<g style="fill:none; 
stroke:#000000; stroke-width:0.1000; stroke-opacity:1; 
stroke-linecap:round; stroke-linejoin:round;">
<path d="M62.0700 89.7700
L62.0700 93.8500
" />
<path d="M62.0700 93.8500
L63.0700 94.8500
" />
<path d="M63.0700 94.8500
L69.6900 94.8500
" />
<path d="M69.6900 89.7700
L62.0700 89.7700
" />
<path d="M69.6900 94.8500
L69.6900 89.7700
" />
<path d="M106.3800 89.1300
L106.3800 95.7500
" />
<path d="M106.3800 95.7500
L111.4600 95.7500
" />
<path d="M107.3800 88.1300
L106.3800 89.1300
" />
<path d="M111.4600 88.1300
L107.3800 88.1300
" />
<path d="M111.4600 95.7500
L111.4600 88.1300
" />
</g>
<g style="fill:#000000; fill-opacity:1.0000; stroke:none;">
<circle cx="110.0000" cy="56.0000" r="1.3750" /> 
</g>
<g style="fill:#000000; fill-opacity:1.0000; stroke:none;">
<circle cx="52.0000" cy="56.0000" r="1.3750" /> 
</g>
<g style="fill:#000000; fill-opacity:1.0000; stroke:none;">
<circle cx="52.0000" cy="105.0000" r="1.3750" /> 
</g>
<g style="fill:#000000; fill-opacity:1.0000; stroke:none;">
<circle cx="110.0000" cy="105.0000" r="1.3750" /> 
</g>
<g style="fill:#000000; fill-opacity:1.0000; stroke:none;">
<circle cx="56.8700" cy="57.2700" r="0.5080" /> 
</g>
<g style="fill:#000000; fill-opacity:1.0000; stroke:none;">
<circle cx="56.8700" cy="54.7300" r="0.5080" /> 
</g>
<g style="fill:#000000; fill-opacity:1.0000; stroke:none;">
<circle cx="59.4100" cy="57.2700" r="0.5080" /> 
</g>
<g style="fill:#000000; fill-opacity:1.0000; stroke:none;">
<circle cx="59.4100" cy="54.7300" r="0.5080" /> 
</g>
<g style="fill:#000000; fill-opacity:1.0000; stroke:none;">
<circle cx="61.9500" cy="57.2700" r="0.5080" /> 
</g>
<g style="fill:#000000; fill-opacity:1.0000; stroke:none;">
<circle cx="61.9500" cy="54.7300" r="0.5080" /> 
</g>
<g style="fill:#000000; fill-opacity:1.0000; stroke:none;">
<circle cx="64.4900" cy="57.2700" r="0.5080" /> 
</g>
<g style="fill:#000000; fill-opacity:1.0000; stroke:none;">
<circle cx="64.4900" cy="54.7300" r="0.5080" /> 
</g>
<g style="fill:#000000; fill-opacity:1.0000; stroke:none;">
<circle cx="67.0300" cy="57.2700" r="0.5080" /> 
</g>
<g style="fill:#000000; fill-opacity:1.0000; stroke:none;">
<circle cx="67.0300" cy="54.7300" r="0.5080" /> 
</g>
<g style="fill:#000000; fill-opacity:1.0000; stroke:none;">
<circle cx="69.5700" cy="57.2700" r="0.5080" /> 
</g>
<g style="fill:#000000; fill-opacity:1.0000; stroke:none;">
<circle cx="69.5700" cy="54.7300" r="0.5080" /> 
</g>
<g style="fill:#000000; fill-opacity:1.0000; stroke:none;">
<circle cx="72.1100" cy="57.2700" r="0.5080" /> 
</g>
<g style="fill:#000000; fill-opacity:1.0000; stroke:none;">
<circle cx="72.1100" cy="54.7300" r="0.5080" /> 
</g>
<g style="fill:#000000; fill-opacity:1.0000; stroke:none;">
<circle cx="74.6500" cy="57.2700" r="0.5080" /> 
</g>
<g style="fill:#000000; fill-opacity:1.0000; stroke:none;">
<circle cx="74.6500" cy="54.7300" r="0.5080" /> 
</g>
<g style="fill:#000000; fill-opacity:1.0000; stroke:none;">
<circle cx="77.1900" cy="57.2700" r="0.5080" /> 
</g>
<g style="fill:#000000; fill-opacity:1.0000; stroke:none;">
<circle cx="77.1900" cy="54.7300" r="0.5080" /> 
</g>
<g style="fill:#000000; fill-opacity:1.0000; stroke:none;">
<circle cx="79.7300" cy="57.2700" r="0.5080" /> 
</g>
<g style="fill:#000000; fill-opacity:1.0000; stroke:none;">
<circle cx="79.7300" cy="54.7300" r="0.5080" /> 
</g>
<g style="fill:#000000; fill-opacity:1.0000; stroke:none;">
<circle cx="82.2700" cy="57.2700" r="0.5080" /> 
</g>
<g style="fill:#000000; fill-opacity:1.0000; stroke:none;">
<circle cx="82.2700" cy="54.7300" r="0.5080" /> 
</g>
<g style="fill:#000000; fill-opacity:1.0000; stroke:none;">
<circle cx="84.8100" cy="57.2700" r="0.5080" /> 
</g>
<g style="fill:#000000; fill-opacity:1.0000; stroke:none;">
<circle cx="84.8100" cy="54.7300" r="0.5080" /> 
</g>
<g style="fill:#000000; fill-opacity:1.0000; stroke:none;">
<circle cx="87.3500" cy="57.2700" r="0.5080" /> 
</g>
<g style="fill:#000000; fill-opacity:1.0000; stroke:none;">
<circle cx="87.3500" cy="54.7300" r="0.5080" /> 
</g>
<g style="fill:#000000; fill-opacity:1.0000; stroke:none;">
<circle cx="89.8900" cy="57.2700" r="0.5080" /> 
</g>
<g style="fill:#000000; fill-opacity:1.0000; stroke:none;">
<circle cx="89.8900" cy="54.7300" r="0.5080" /> 
</g>
<g style="fill:#000000; fill-opacity:1.0000; stroke:none;">
<circle cx="92.4300" cy="57.2700" r="0.5080" /> 
</g>
<g style="fill:#000000; fill-opacity:1.0000; stroke:none;">
<circle cx="92.4300" cy="54.7300" r="0.5080" /> 
</g>
<g style="fill:#000000; fill-opacity:1.0000; stroke:none;">
<circle cx="94.9700" cy="57.2700" r="0.5080" /> 
</g>
<g style="fill:#000000; fill-opacity:1.0000; stroke:none;">
<circle cx="94.9700" cy="54.7300" r="0.5080" /> 
</g>
<g style="fill:#000000; fill-opacity:1.0000; stroke:none;">
<circle cx="97.5100" cy="57.2700" r="0.5080" /> 
</g>
<g style="fill:#000000; fill-opacity:1.0000; stroke:none;">
<circle cx="97.5100" cy="54.7300" r="0.5080" /> 
</g>
<g style="fill:#000000; fill-opacity:1.0000; stroke:none;">
<circle cx="100.0500" cy="57.2700" r="0.5080" /> 
</g>
<g style="fill:#000000; fill-opacity:1.0000; stroke:none;">
<circle cx="100.0500" cy="54.7300" r="0.5080" /> 
</g>
<g style="fill:#000000; fill-opacity:1.0000; stroke:none;">
<circle cx="102.5900" cy="57.2700" r="0.5080" /> 
</g>
<g style="fill:#000000; fill-opacity:1.0000; stroke:none;">
<circle cx="102.5900" cy="54.7300" r="0.5080" /> 
</g>
<g style="fill:#000000; fill-opacity:1.0000; stroke:none;">
<circle cx="105.1300" cy="57.2700" r="0.5080" /> 
</g>
<g style="fill:#000000; fill-opacity:1.0000; stroke:none;">
<circle cx="105.1300" cy="54.7300" r="0.5080" /> 
</g>
<g style="fill:#000000; fill-opacity:1.0000; stroke:none;">
<circle cx="60.9400" cy="104.0000" r="0.6000" /> 
</g>
<g style="fill:#000000; fill-opacity:1.0000; stroke:none;">
<circle cx="60.9400" cy="106.5000" r="0.6000" /> 
</g>
<g style="fill:#000000; fill-opacity:1.0000; stroke:none;">
<circle cx="65.9400" cy="99.0000" r="0.6000" /> 
</g>
<g style="fill:#000000; fill-opacity:1.0000; stroke:none;">
<circle cx="70.9400" cy="104.0000" r="0.6000" /> 
</g>
<g style="fill:#000000; fill-opacity:1.0000; stroke:none;">
<circle cx="70.9400" cy="106.5000" r="0.6000" /> 
</g>
<g style="fill:none; 
stroke:#000000; stroke-width:0.4000; stroke-opacity:1; 
stroke-linecap:round; stroke-linejoin:round;">
<path d="M60.9400 98.5000
L60.9400 99.5000
" />
</g>
<g style="fill:none; 
stroke:#000000; stroke-width:0.8000; stroke-opacity:1; 
stroke-linecap:round; stroke-linejoin:round;">
<path d="M63.4400 98.6500
L63.4400 99.3500
" />
</g>
<g style="fill:none; 
stroke:#000000; stroke-width:0.4000; stroke-opacity:1; 
stroke-linecap:round; stroke-linejoin:round;">
<path d="M65.4400 104.0000
L66.4400 104.0000
" />
<path d="M70.9400 99.5000
L70.9400 98.5000
" />
</g>
<g style="fill:none; 
stroke:#000000; stroke-width:0.8000; stroke-opacity:1; 
stroke-linecap:round; stroke-linejoin:round;">
<path d="M68.4400 99.3500
L68.4400 98.6500
" />
</g>
<g style="fill:#000000; fill-opacity:1.0000; stroke:none;">
<circle cx="92.9500" cy="93.0770" r="0.1500" /> 
</g>
<g style="fill:#000000; fill-opacity:1.0000; stroke:none;">
<circle cx="93.8167" cy="93.0770" r="0.1500" /> 
</g>
<g style="fill:#000000; fill-opacity:1.0000; stroke:none;">
<circle cx="94.6833" cy="93.0770" r="0.1500" /> 
</g>
<g style="fill:#000000; fill-opacity:1.0000; stroke:none;">
<circle cx="95.5500" cy="93.0770" r="0.1500" /> 
</g>
<g style="fill:#000000; fill-opacity:1.0000; stroke:none;">
<circle cx="92.9500" cy="92.2103" r="0.1500" /> 
</g>
<g style="fill:#000000; fill-opacity:1.0000; stroke:none;">
<circle cx="93.8167" cy="92.2103" r="0.1500" /> 
</g>
<g style="fill:#000000; fill-opacity:1.0000; stroke:none;">
<circle cx="94.6833" cy="92.2103" r="0.1500" /> 
</g>
<g style="fill:#000000; fill-opacity:1.0000; stroke:none;">
<circle cx="95.5500" cy="92.2103" r="0.1500" /> 
</g>
<g style="fill:#000000; fill-opacity:1.0000; stroke:none;">
<circle cx="92.9500" cy="91.3437" r="0.1500" /> 
</g>
<g style="fill:#000000; fill-opacity:1.0000; stroke:none;">
<circle cx="93.8167" cy="91.3437" r="0.1500" /> 
</g>
<g style="fill:#000000; fill-opacity:1.0000; stroke:none;">
<circle cx="94.6833" cy="91.3437" r="0.1500" /> 
</g>
<g style="fill:#000000; fill-opacity:1.0000; stroke:none;">
<circle cx="95.5500" cy="91.3437" r="0.1500" /> 
</g>
<g style="fill:#000000; fill-opacity:1.0000; stroke:none;">
<circle cx="92.9500" cy="90.4770" r="0.1500" /> 
</g>
<g style="fill:#000000; fill-opacity:1.0000; stroke:none;">
<circle cx="93.8167" cy="90.4770" r="0.1500" /> 
</g>
<g style="fill:#000000; fill-opacity:1.0000; stroke:none;">
<circle cx="94.6833" cy="90.4770" r="0.1500" /> 
</g>
<g style="fill:#000000; fill-opacity:1.0000; stroke:none;">
<circle cx="95.5500" cy="90.4770" r="0.1500" /> 
</g>
<g style="fill:#000000; fill-opacity:1.0000; stroke:none;">
<circle cx="80.1000" cy="104.0000" r="0.6000" /> 
</g>
<g style="fill:#000000; fill-opacity:1.0000; stroke:none;">
<circle cx="80.1000" cy="106.5000" r="0.6000" /> 
</g>
<g style="fill:#000000; fill-opacity:1.0000; stroke:none;">
<circle cx="85.1000" cy="99.0000" r="0.6000" /> 
</g>
<g style="fill:#000000; fill-opacity:1.0000; stroke:none;">
<circle cx="90.1000" cy="104.0000" r="0.6000" /> 
</g>
<g style="fill:#000000; fill-opacity:1.0000; stroke:none;">
<circle cx="90.1000" cy="106.5000" r="0.6000" /> 
</g>
<g style="fill:none; 
stroke:#000000; stroke-width:0.4000; stroke-opacity:1; 
stroke-linecap:round; stroke-linejoin:round;">
<path d="M80.1000 98.5000
L80.1000 99.5000
" />
</g>
<g style="fill:none; 
stroke:#000000; stroke-width:0.8000; stroke-opacity:1; 
stroke-linecap:round; stroke-linejoin:round;">
<path d="M82.6000 98.6500
L82.6000 99.3500
" />
</g>
<g style="fill:none; 
stroke:#000000; stroke-width:0.4000; stroke-opacity:1; 
stroke-linecap:round; stroke-linejoin:round;">
<path d="M84.6000 104.0000
L85.6000 104.0000
" />
<path d="M90.1000 99.5000
L90.1000 98.5000
" />
</g>
<g style="fill:none; 
stroke:#000000; stroke-width:0.8000; stroke-opacity:1; 
stroke-linecap:round; stroke-linejoin:round;">
<path d="M87.6000 99.3500
L87.6000 98.6500
" />
</g>
<g style="fill:#000000; fill-opacity:1.0000; stroke:none;">
<circle cx="63.3400" cy="93.5800" r="0.5000" /> 
</g>
<g style="fill:#000000; fill-opacity:1.0000; stroke:none;">
<circle cx="63.3400" cy="91.0400" r="0.5000" /> 
</g>
<g style="fill:#000000; fill-opacity:1.0000; stroke:none;">
<circle cx="65.8800" cy="93.5800" r="0.5000" /> 
</g>
<g style="fill:#000000; fill-opacity:1.0000; stroke:none;">
<circle cx="65.8800" cy="91.0400" r="0.5000" /> 
</g>
<g style="fill:#000000; fill-opacity:1.0000; stroke:none;">
<circle cx="68.4200" cy="93.5800" r="0.5000" /> 
</g>
<g style="fill:#000000; fill-opacity:1.0000; stroke:none;">
<circle cx="68.4200" cy="91.0400" r="0.5000" /> 
</g>
<g style="fill:#000000; fill-opacity:1.0000; stroke:none;">
<circle cx="107.6500" cy="89.4000" r="0.5000" /> 
</g>
<g style="fill:#000000; fill-opacity:1.0000; stroke:none;">
<circle cx="110.1900" cy="89.4000" r="0.5000" /> 
</g>
<g style="fill:#000000; fill-opacity:1.0000; stroke:none;">
<circle cx="107.6500" cy="91.9400" r="0.5000" /> 
</g>
<g style="fill:#000000; fill-opacity:1.0000; stroke:none;">
<circle cx="110.1900" cy="91.9400" r="0.5000" /> 
</g>
<g style="fill:#000000; fill-opacity:1.0000; stroke:none;">
<circle cx="107.6500" cy="94.4800" r="0.5000" /> 
</g>
<g style="fill:#000000; fill-opacity:1.0000; stroke:none;">
<circle cx="110.1900" cy="94.4800" r="0.5000" /> 
</g> 
</svg>
