<?xml version="1.0" standalone="no"?>
 <!DOCTYPE svg PUBLIC "-//W3C//DTD SVG 1.1//EN" 
 "http://www.w3.org/Graphics/SVG/1.1/DTD/svg11.dtd"> 
<svg
  xmlns:svg="http://www.w3.org/2000/svg"
  xmlns="http://www.w3.org/2000/svg"
  xmlns:xlink="http://www.w3.org/1999/xlink"
  version="1.1"
  width="297.0022mm" height="210.0072mm" viewBox="0.0000 0.0000 297.0022 210.0072">
<title>SVG Image created as pedalboard-soundcard-B_Silkscreen.svg date 2025/04/21 12:52:01 </title>
  <desc>Image generated by PCBNEW </desc>
<g style="fill:#000000; fill-opacity:1.0000;stroke:#000000; stroke-opacity:1.0000;
stroke-linecap:round; stroke-linejoin:round;"
 transform="translate(0 0) scale(1 1)">
</g>
<g style="fill:none; 
stroke:#000000; stroke-width:0.1500; stroke-opacity:1; 
stroke-linecap:round; stroke-linejoin:round;">
<text x="111.7200" y="66.7641"
transform="scale(-1 1) translate(-223.440000 0)"
textLength="17.5091" font-size="1.0667" lengthAdjust="spacingAndGlyphs"
text-anchor="start" opacity="0" stroke-opacity="0">Open Pedalboard Soundcard</text>
<g class="stroked-text"><desc>Open Pedalboard Soundcard</desc>
<path d="M111.2785 65.8584
L111.1261 65.8584
" />
<path d="M111.1261 65.8584
L111.0499 65.8965
" />
<path d="M111.0499 65.8965
L110.9737 65.9727
" />
<path d="M110.9737 65.9727
L110.9356 66.1251
" />
<path d="M110.9356 66.1251
L110.9356 66.3917
" />
<path d="M110.9356 66.3917
L110.9737 66.5441
" />
<path d="M110.9737 66.5441
L111.0499 66.6203
" />
<path d="M111.0499 66.6203
L111.1261 66.6584
" />
<path d="M111.1261 66.6584
L111.2785 66.6584
" />
<path d="M111.2785 66.6584
L111.3546 66.6203
" />
<path d="M111.3546 66.6203
L111.4308 66.5441
" />
<path d="M111.4308 66.5441
L111.4689 66.3917
" />
<path d="M111.4689 66.3917
L111.4689 66.1251
" />
<path d="M111.4689 66.1251
L111.4308 65.9727
" />
<path d="M111.4308 65.9727
L111.3546 65.8965
" />
<path d="M111.3546 65.8965
L111.2785 65.8584
" />
<path d="M110.5927 66.1251
L110.5927 66.9251
" />
<path d="M110.5927 66.1631
L110.5166 66.1251
" />
<path d="M110.5166 66.1251
L110.3642 66.1251
" />
<path d="M110.3642 66.1251
L110.2880 66.1631
" />
<path d="M110.2880 66.1631
L110.2499 66.2012
" />
<path d="M110.2499 66.2012
L110.2118 66.2774
" />
<path d="M110.2118 66.2774
L110.2118 66.5060
" />
<path d="M110.2118 66.5060
L110.2499 66.5822
" />
<path d="M110.2499 66.5822
L110.2880 66.6203
" />
<path d="M110.2880 66.6203
L110.3642 66.6584
" />
<path d="M110.3642 66.6584
L110.5166 66.6584
" />
<path d="M110.5166 66.6584
L110.5927 66.6203
" />
<path d="M109.5642 66.6203
L109.6404 66.6584
" />
<path d="M109.6404 66.6584
L109.7927 66.6584
" />
<path d="M109.7927 66.6584
L109.8689 66.6203
" />
<path d="M109.8689 66.6203
L109.9070 66.5441
" />
<path d="M109.9070 66.5441
L109.9070 66.2393
" />
<path d="M109.9070 66.2393
L109.8689 66.1631
" />
<path d="M109.8689 66.1631
L109.7927 66.1251
" />
<path d="M109.7927 66.1251
L109.6404 66.1251
" />
<path d="M109.6404 66.1251
L109.5642 66.1631
" />
<path d="M109.5642 66.1631
L109.5261 66.2393
" />
<path d="M109.5261 66.2393
L109.5261 66.3155
" />
<path d="M109.5261 66.3155
L109.9070 66.3917
" />
<path d="M109.1832 66.1251
L109.1832 66.6584
" />
<path d="M109.1832 66.2012
L109.1451 66.1631
" />
<path d="M109.1451 66.1631
L109.0689 66.1251
" />
<path d="M109.0689 66.1251
L108.9546 66.1251
" />
<path d="M108.9546 66.1251
L108.8785 66.1631
" />
<path d="M108.8785 66.1631
L108.8404 66.2393
" />
<path d="M108.8404 66.2393
L108.8404 66.6584
" />
<path d="M107.8499 66.6584
L107.8499 65.8584
" />
<path d="M107.8499 65.8584
L107.5451 65.8584
" />
<path d="M107.5451 65.8584
L107.4689 65.8965
" />
<path d="M107.4689 65.8965
L107.4308 65.9346
" />
<path d="M107.4308 65.9346
L107.3927 66.0108
" />
<path d="M107.3927 66.0108
L107.3927 66.1251
" />
<path d="M107.3927 66.1251
L107.4308 66.2012
" />
<path d="M107.4308 66.2012
L107.4689 66.2393
" />
<path d="M107.4689 66.2393
L107.5451 66.2774
" />
<path d="M107.5451 66.2774
L107.8499 66.2774
" />
<path d="M106.7451 66.6203
L106.8213 66.6584
" />
<path d="M106.8213 66.6584
L106.9737 66.6584
" />
<path d="M106.9737 66.6584
L107.0499 66.6203
" />
<path d="M107.0499 66.6203
L107.0880 66.5441
" />
<path d="M107.0880 66.5441
L107.0880 66.2393
" />
<path d="M107.0880 66.2393
L107.0499 66.1631
" />
<path d="M107.0499 66.1631
L106.9737 66.1251
" />
<path d="M106.9737 66.1251
L106.8213 66.1251
" />
<path d="M106.8213 66.1251
L106.7451 66.1631
" />
<path d="M106.7451 66.1631
L106.7070 66.2393
" />
<path d="M106.7070 66.2393
L106.7070 66.3155
" />
<path d="M106.7070 66.3155
L107.0880 66.3917
" />
<path d="M106.0213 66.6584
L106.0213 65.8584
" />
<path d="M106.0213 66.6203
L106.0975 66.6584
" />
<path d="M106.0975 66.6584
L106.2499 66.6584
" />
<path d="M106.2499 66.6584
L106.3261 66.6203
" />
<path d="M106.3261 66.6203
L106.3642 66.5822
" />
<path d="M106.3642 66.5822
L106.4023 66.5060
" />
<path d="M106.4023 66.5060
L106.4023 66.2774
" />
<path d="M106.4023 66.2774
L106.3642 66.2012
" />
<path d="M106.3642 66.2012
L106.3261 66.1631
" />
<path d="M106.3261 66.1631
L106.2499 66.1251
" />
<path d="M106.2499 66.1251
L106.0975 66.1251
" />
<path d="M106.0975 66.1251
L106.0213 66.1631
" />
<path d="M105.2975 66.6584
L105.2975 66.2393
" />
<path d="M105.2975 66.2393
L105.3356 66.1631
" />
<path d="M105.3356 66.1631
L105.4118 66.1251
" />
<path d="M105.4118 66.1251
L105.5642 66.1251
" />
<path d="M105.5642 66.1251
L105.6404 66.1631
" />
<path d="M105.2975 66.6203
L105.3737 66.6584
" />
<path d="M105.3737 66.6584
L105.5642 66.6584
" />
<path d="M105.5642 66.6584
L105.6404 66.6203
" />
<path d="M105.6404 66.6203
L105.6785 66.5441
" />
<path d="M105.6785 66.5441
L105.6785 66.4679
" />
<path d="M105.6785 66.4679
L105.6404 66.3917
" />
<path d="M105.6404 66.3917
L105.5642 66.3536
" />
<path d="M105.5642 66.3536
L105.3737 66.3536
" />
<path d="M105.3737 66.3536
L105.2975 66.3155
" />
<path d="M104.8023 66.6584
L104.8785 66.6203
" />
<path d="M104.8785 66.6203
L104.9166 66.5441
" />
<path d="M104.9166 66.5441
L104.9166 65.8584
" />
<path d="M104.4975 66.6584
L104.4975 65.8584
" />
<path d="M104.4975 66.1631
L104.4213 66.1251
" />
<path d="M104.4213 66.1251
L104.2689 66.1251
" />
<path d="M104.2689 66.1251
L104.1927 66.1631
" />
<path d="M104.1927 66.1631
L104.1546 66.2012
" />
<path d="M104.1546 66.2012
L104.1166 66.2774
" />
<path d="M104.1166 66.2774
L104.1166 66.5060
" />
<path d="M104.1166 66.5060
L104.1546 66.5822
" />
<path d="M104.1546 66.5822
L104.1927 66.6203
" />
<path d="M104.1927 66.6203
L104.2689 66.6584
" />
<path d="M104.2689 66.6584
L104.4213 66.6584
" />
<path d="M104.4213 66.6584
L104.4975 66.6203
" />
<path d="M103.6594 66.6584
L103.7356 66.6203
" />
<path d="M103.7356 66.6203
L103.7737 66.5822
" />
<path d="M103.7737 66.5822
L103.8118 66.5060
" />
<path d="M103.8118 66.5060
L103.8118 66.2774
" />
<path d="M103.8118 66.2774
L103.7737 66.2012
" />
<path d="M103.7737 66.2012
L103.7356 66.1631
" />
<path d="M103.7356 66.1631
L103.6594 66.1251
" />
<path d="M103.6594 66.1251
L103.5451 66.1251
" />
<path d="M103.5451 66.1251
L103.4689 66.1631
" />
<path d="M103.4689 66.1631
L103.4308 66.2012
" />
<path d="M103.4308 66.2012
L103.3927 66.2774
" />
<path d="M103.3927 66.2774
L103.3927 66.5060
" />
<path d="M103.3927 66.5060
L103.4308 66.5822
" />
<path d="M103.4308 66.5822
L103.4689 66.6203
" />
<path d="M103.4689 66.6203
L103.5451 66.6584
" />
<path d="M103.5451 66.6584
L103.6594 66.6584
" />
<path d="M102.7070 66.6584
L102.7070 66.2393
" />
<path d="M102.7070 66.2393
L102.7451 66.1631
" />
<path d="M102.7451 66.1631
L102.8213 66.1251
" />
<path d="M102.8213 66.1251
L102.9737 66.1251
" />
<path d="M102.9737 66.1251
L103.0499 66.1631
" />
<path d="M102.7070 66.6203
L102.7832 66.6584
" />
<path d="M102.7832 66.6584
L102.9737 66.6584
" />
<path d="M102.9737 66.6584
L103.0499 66.6203
" />
<path d="M103.0499 66.6203
L103.0880 66.5441
" />
<path d="M103.0880 66.5441
L103.0880 66.4679
" />
<path d="M103.0880 66.4679
L103.0499 66.3917
" />
<path d="M103.0499 66.3917
L102.9737 66.3536
" />
<path d="M102.9737 66.3536
L102.7832 66.3536
" />
<path d="M102.7832 66.3536
L102.7070 66.3155
" />
<path d="M102.3261 66.6584
L102.3261 66.1251
" />
<path d="M102.3261 66.2774
L102.2880 66.2012
" />
<path d="M102.2880 66.2012
L102.2499 66.1631
" />
<path d="M102.2499 66.1631
L102.1737 66.1251
" />
<path d="M102.1737 66.1251
L102.0975 66.1251
" />
<path d="M101.4880 66.6584
L101.4880 65.8584
" />
<path d="M101.4880 66.6203
L101.5642 66.6584
" />
<path d="M101.5642 66.6584
L101.7166 66.6584
" />
<path d="M101.7166 66.6584
L101.7927 66.6203
" />
<path d="M101.7927 66.6203
L101.8308 66.5822
" />
<path d="M101.8308 66.5822
L101.8689 66.5060
" />
<path d="M101.8689 66.5060
L101.8689 66.2774
" />
<path d="M101.8689 66.2774
L101.8308 66.2012
" />
<path d="M101.8308 66.2012
L101.7927 66.1631
" />
<path d="M101.7927 66.1631
L101.7166 66.1251
" />
<path d="M101.7166 66.1251
L101.5642 66.1251
" />
<path d="M101.5642 66.1251
L101.4880 66.1631
" />
<path d="M100.5356 66.6203
L100.4213 66.6584
" />
<path d="M100.4213 66.6584
L100.2308 66.6584
" />
<path d="M100.2308 66.6584
L100.1546 66.6203
" />
<path d="M100.1546 66.6203
L100.1165 66.5822
" />
<path d="M100.1165 66.5822
L100.0785 66.5060
" />
<path d="M100.0785 66.5060
L100.0785 66.4298
" />
<path d="M100.0785 66.4298
L100.1165 66.3536
" />
<path d="M100.1165 66.3536
L100.1546 66.3155
" />
<path d="M100.1546 66.3155
L100.2308 66.2774
" />
<path d="M100.2308 66.2774
L100.3832 66.2393
" />
<path d="M100.3832 66.2393
L100.4594 66.2012
" />
<path d="M100.4594 66.2012
L100.4975 66.1631
" />
<path d="M100.4975 66.1631
L100.5356 66.0870
" />
<path d="M100.5356 66.0870
L100.5356 66.0108
" />
<path d="M100.5356 66.0108
L100.4975 65.9346
" />
<path d="M100.4975 65.9346
L100.4594 65.8965
" />
<path d="M100.4594 65.8965
L100.3832 65.8584
" />
<path d="M100.3832 65.8584
L100.1927 65.8584
" />
<path d="M100.1927 65.8584
L100.0785 65.8965
" />
<path d="M99.6213 66.6584
L99.6975 66.6203
" />
<path d="M99.6975 66.6203
L99.7356 66.5822
" />
<path d="M99.7356 66.5822
L99.7737 66.5060
" />
<path d="M99.7737 66.5060
L99.7737 66.2774
" />
<path d="M99.7737 66.2774
L99.7356 66.2012
" />
<path d="M99.7356 66.2012
L99.6975 66.1631
" />
<path d="M99.6975 66.1631
L99.6213 66.1251
" />
<path d="M99.6213 66.1251
L99.5070 66.1251
" />
<path d="M99.5070 66.1251
L99.4308 66.1631
" />
<path d="M99.4308 66.1631
L99.3927 66.2012
" />
<path d="M99.3927 66.2012
L99.3546 66.2774
" />
<path d="M99.3546 66.2774
L99.3546 66.5060
" />
<path d="M99.3546 66.5060
L99.3927 66.5822
" />
<path d="M99.3927 66.5822
L99.4308 66.6203
" />
<path d="M99.4308 66.6203
L99.5070 66.6584
" />
<path d="M99.5070 66.6584
L99.6213 66.6584
" />
<path d="M98.6689 66.1251
L98.6689 66.6584
" />
<path d="M99.0118 66.1251
L99.0118 66.5441
" />
<path d="M99.0118 66.5441
L98.9737 66.6203
" />
<path d="M98.9737 66.6203
L98.8975 66.6584
" />
<path d="M98.8975 66.6584
L98.7832 66.6584
" />
<path d="M98.7832 66.6584
L98.7070 66.6203
" />
<path d="M98.7070 66.6203
L98.6689 66.5822
" />
<path d="M98.2880 66.1251
L98.2880 66.6584
" />
<path d="M98.2880 66.2012
L98.2499 66.1631
" />
<path d="M98.2499 66.1631
L98.1737 66.1251
" />
<path d="M98.1737 66.1251
L98.0594 66.1251
" />
<path d="M98.0594 66.1251
L97.9832 66.1631
" />
<path d="M97.9832 66.1631
L97.9451 66.2393
" />
<path d="M97.9451 66.2393
L97.9451 66.6584
" />
<path d="M97.2213 66.6584
L97.2213 65.8584
" />
<path d="M97.2213 66.6203
L97.2975 66.6584
" />
<path d="M97.2975 66.6584
L97.4499 66.6584
" />
<path d="M97.4499 66.6584
L97.5261 66.6203
" />
<path d="M97.5261 66.6203
L97.5642 66.5822
" />
<path d="M97.5642 66.5822
L97.6023 66.5060
" />
<path d="M97.6023 66.5060
L97.6023 66.2774
" />
<path d="M97.6023 66.2774
L97.5642 66.2012
" />
<path d="M97.5642 66.2012
L97.5261 66.1631
" />
<path d="M97.5261 66.1631
L97.4499 66.1251
" />
<path d="M97.4499 66.1251
L97.2975 66.1251
" />
<path d="M97.2975 66.1251
L97.2213 66.1631
" />
<path d="M96.4975 66.6203
L96.5737 66.6584
" />
<path d="M96.5737 66.6584
L96.7261 66.6584
" />
<path d="M96.7261 66.6584
L96.8023 66.6203
" />
<path d="M96.8023 66.6203
L96.8404 66.5822
" />
<path d="M96.8404 66.5822
L96.8785 66.5060
" />
<path d="M96.8785 66.5060
L96.8785 66.2774
" />
<path d="M96.8785 66.2774
L96.8404 66.2012
" />
<path d="M96.8404 66.2012
L96.8023 66.1631
" />
<path d="M96.8023 66.1631
L96.7261 66.1251
" />
<path d="M96.7261 66.1251
L96.5737 66.1251
" />
<path d="M96.5737 66.1251
L96.4975 66.1631
" />
<path d="M95.8118 66.6584
L95.8118 66.2393
" />
<path d="M95.8118 66.2393
L95.8499 66.1631
" />
<path d="M95.8499 66.1631
L95.9261 66.1251
" />
<path d="M95.9261 66.1251
L96.0785 66.1251
" />
<path d="M96.0785 66.1251
L96.1546 66.1631
" />
<path d="M95.8118 66.6203
L95.8880 66.6584
" />
<path d="M95.8880 66.6584
L96.0785 66.6584
" />
<path d="M96.0785 66.6584
L96.1546 66.6203
" />
<path d="M96.1546 66.6203
L96.1927 66.5441
" />
<path d="M96.1927 66.5441
L96.1927 66.4679
" />
<path d="M96.1927 66.4679
L96.1546 66.3917
" />
<path d="M96.1546 66.3917
L96.0785 66.3536
" />
<path d="M96.0785 66.3536
L95.8880 66.3536
" />
<path d="M95.8880 66.3536
L95.8118 66.3155
" />
<path d="M95.4308 66.6584
L95.4308 66.1251
" />
<path d="M95.4308 66.2774
L95.3927 66.2012
" />
<path d="M95.3927 66.2012
L95.3546 66.1631
" />
<path d="M95.3546 66.1631
L95.2785 66.1251
" />
<path d="M95.2785 66.1251
L95.2023 66.1251
" />
<path d="M94.5927 66.6584
L94.5927 65.8584
" />
<path d="M94.5927 66.6203
L94.6689 66.6584
" />
<path d="M94.6689 66.6584
L94.8213 66.6584
" />
<path d="M94.8213 66.6584
L94.8975 66.6203
" />
<path d="M94.8975 66.6203
L94.9356 66.5822
" />
<path d="M94.9356 66.5822
L94.9737 66.5060
" />
<path d="M94.9737 66.5060
L94.9737 66.2774
" />
<path d="M94.9737 66.2774
L94.9356 66.2012
" />
<path d="M94.9356 66.2012
L94.8975 66.1631
" />
<path d="M94.8975 66.1631
L94.8213 66.1251
" />
<path d="M94.8213 66.1251
L94.6689 66.1251
" />
<path d="M94.6689 66.1251
L94.5927 66.1631
" />
</g><text x="111.7200" y="68.0520"
transform="scale(-1 1) translate(-223.440000 0)"
textLength="14.3852" font-size="1.0667" lengthAdjust="spacingAndGlyphs"
text-anchor="start" opacity="0" stroke-opacity="0">github.com/pedalboard</text>
<g class="stroked-text"><desc>github.com/pedalboard</desc>
<path d="M111.0880 67.4130
L111.0880 68.0606
" />
<path d="M111.0880 68.0606
L111.1261 68.1368
" />
<path d="M111.1261 68.1368
L111.1642 68.1749
" />
<path d="M111.1642 68.1749
L111.2404 68.2130
" />
<path d="M111.2404 68.2130
L111.3546 68.2130
" />
<path d="M111.3546 68.2130
L111.4308 68.1749
" />
<path d="M111.0880 67.9082
L111.1642 67.9463
" />
<path d="M111.1642 67.9463
L111.3166 67.9463
" />
<path d="M111.3166 67.9463
L111.3927 67.9082
" />
<path d="M111.3927 67.9082
L111.4308 67.8701
" />
<path d="M111.4308 67.8701
L111.4689 67.7940
" />
<path d="M111.4689 67.7940
L111.4689 67.5654
" />
<path d="M111.4689 67.5654
L111.4308 67.4892
" />
<path d="M111.4308 67.4892
L111.3927 67.4511
" />
<path d="M111.3927 67.4511
L111.3166 67.4130
" />
<path d="M111.3166 67.4130
L111.1642 67.4130
" />
<path d="M111.1642 67.4130
L111.0880 67.4511
" />
<path d="M110.7070 67.9463
L110.7070 67.4130
" />
<path d="M110.7070 67.1463
L110.7451 67.1844
" />
<path d="M110.7451 67.1844
L110.7070 67.2225
" />
<path d="M110.7070 67.2225
L110.6689 67.1844
" />
<path d="M110.6689 67.1844
L110.7070 67.1463
" />
<path d="M110.7070 67.1463
L110.7070 67.2225
" />
<path d="M110.4404 67.4130
L110.1356 67.4130
" />
<path d="M110.3261 67.1463
L110.3261 67.8321
" />
<path d="M110.3261 67.8321
L110.2880 67.9082
" />
<path d="M110.2880 67.9082
L110.2118 67.9463
" />
<path d="M110.2118 67.9463
L110.1356 67.9463
" />
<path d="M109.8689 67.9463
L109.8689 67.1463
" />
<path d="M109.5261 67.9463
L109.5261 67.5273
" />
<path d="M109.5261 67.5273
L109.5642 67.4511
" />
<path d="M109.5642 67.4511
L109.6404 67.4130
" />
<path d="M109.6404 67.4130
L109.7546 67.4130
" />
<path d="M109.7546 67.4130
L109.8308 67.4511
" />
<path d="M109.8308 67.4511
L109.8689 67.4892
" />
<path d="M108.8023 67.4130
L108.8023 67.9463
" />
<path d="M109.1451 67.4130
L109.1451 67.8321
" />
<path d="M109.1451 67.8321
L109.1070 67.9082
" />
<path d="M109.1070 67.9082
L109.0308 67.9463
" />
<path d="M109.0308 67.9463
L108.9166 67.9463
" />
<path d="M108.9166 67.9463
L108.8404 67.9082
" />
<path d="M108.8404 67.9082
L108.8023 67.8701
" />
<path d="M108.4213 67.9463
L108.4213 67.1463
" />
<path d="M108.4213 67.4511
L108.3451 67.4130
" />
<path d="M108.3451 67.4130
L108.1927 67.4130
" />
<path d="M108.1927 67.4130
L108.1166 67.4511
" />
<path d="M108.1166 67.4511
L108.0785 67.4892
" />
<path d="M108.0785 67.4892
L108.0404 67.5654
" />
<path d="M108.0404 67.5654
L108.0404 67.7940
" />
<path d="M108.0404 67.7940
L108.0785 67.8701
" />
<path d="M108.0785 67.8701
L108.1166 67.9082
" />
<path d="M108.1166 67.9082
L108.1927 67.9463
" />
<path d="M108.1927 67.9463
L108.3451 67.9463
" />
<path d="M108.3451 67.9463
L108.4213 67.9082
" />
<path d="M107.6975 67.8701
L107.6594 67.9082
" />
<path d="M107.6594 67.9082
L107.6975 67.9463
" />
<path d="M107.6975 67.9463
L107.7356 67.9082
" />
<path d="M107.7356 67.9082
L107.6975 67.8701
" />
<path d="M107.6975 67.8701
L107.6975 67.9463
" />
<path d="M106.9737 67.9082
L107.0499 67.9463
" />
<path d="M107.0499 67.9463
L107.2023 67.9463
" />
<path d="M107.2023 67.9463
L107.2785 67.9082
" />
<path d="M107.2785 67.9082
L107.3166 67.8701
" />
<path d="M107.3166 67.8701
L107.3546 67.7940
" />
<path d="M107.3546 67.7940
L107.3546 67.5654
" />
<path d="M107.3546 67.5654
L107.3166 67.4892
" />
<path d="M107.3166 67.4892
L107.2785 67.4511
" />
<path d="M107.2785 67.4511
L107.2023 67.4130
" />
<path d="M107.2023 67.4130
L107.0499 67.4130
" />
<path d="M107.0499 67.4130
L106.9737 67.4511
" />
<path d="M106.5166 67.9463
L106.5927 67.9082
" />
<path d="M106.5927 67.9082
L106.6308 67.8701
" />
<path d="M106.6308 67.8701
L106.6689 67.7940
" />
<path d="M106.6689 67.7940
L106.6689 67.5654
" />
<path d="M106.6689 67.5654
L106.6308 67.4892
" />
<path d="M106.6308 67.4892
L106.5927 67.4511
" />
<path d="M106.5927 67.4511
L106.5166 67.4130
" />
<path d="M106.5166 67.4130
L106.4023 67.4130
" />
<path d="M106.4023 67.4130
L106.3261 67.4511
" />
<path d="M106.3261 67.4511
L106.2880 67.4892
" />
<path d="M106.2880 67.4892
L106.2499 67.5654
" />
<path d="M106.2499 67.5654
L106.2499 67.7940
" />
<path d="M106.2499 67.7940
L106.2880 67.8701
" />
<path d="M106.2880 67.8701
L106.3261 67.9082
" />
<path d="M106.3261 67.9082
L106.4023 67.9463
" />
<path d="M106.4023 67.9463
L106.5166 67.9463
" />
<path d="M105.9070 67.9463
L105.9070 67.4130
" />
<path d="M105.9070 67.4892
L105.8689 67.4511
" />
<path d="M105.8689 67.4511
L105.7927 67.4130
" />
<path d="M105.7927 67.4130
L105.6785 67.4130
" />
<path d="M105.6785 67.4130
L105.6023 67.4511
" />
<path d="M105.6023 67.4511
L105.5642 67.5273
" />
<path d="M105.5642 67.5273
L105.5642 67.9463
" />
<path d="M105.5642 67.5273
L105.5261 67.4511
" />
<path d="M105.5261 67.4511
L105.4499 67.4130
" />
<path d="M105.4499 67.4130
L105.3356 67.4130
" />
<path d="M105.3356 67.4130
L105.2594 67.4511
" />
<path d="M105.2594 67.4511
L105.2213 67.5273
" />
<path d="M105.2213 67.5273
L105.2213 67.9463
" />
<path d="M104.2689 67.1082
L104.9546 68.1368
" />
<path d="M104.0023 67.4130
L104.0023 68.2130
" />
<path d="M104.0023 67.4511
L103.9261 67.4130
" />
<path d="M103.9261 67.4130
L103.7737 67.4130
" />
<path d="M103.7737 67.4130
L103.6975 67.4511
" />
<path d="M103.6975 67.4511
L103.6594 67.4892
" />
<path d="M103.6594 67.4892
L103.6213 67.5654
" />
<path d="M103.6213 67.5654
L103.6213 67.7940
" />
<path d="M103.6213 67.7940
L103.6594 67.8701
" />
<path d="M103.6594 67.8701
L103.6975 67.9082
" />
<path d="M103.6975 67.9082
L103.7737 67.9463
" />
<path d="M103.7737 67.9463
L103.9261 67.9463
" />
<path d="M103.9261 67.9463
L104.0023 67.9082
" />
<path d="M102.9737 67.9082
L103.0499 67.9463
" />
<path d="M103.0499 67.9463
L103.2023 67.9463
" />
<path d="M103.2023 67.9463
L103.2785 67.9082
" />
<path d="M103.2785 67.9082
L103.3166 67.8321
" />
<path d="M103.3166 67.8321
L103.3166 67.5273
" />
<path d="M103.3166 67.5273
L103.2785 67.4511
" />
<path d="M103.2785 67.4511
L103.2023 67.4130
" />
<path d="M103.2023 67.4130
L103.0499 67.4130
" />
<path d="M103.0499 67.4130
L102.9737 67.4511
" />
<path d="M102.9737 67.4511
L102.9356 67.5273
" />
<path d="M102.9356 67.5273
L102.9356 67.6035
" />
<path d="M102.9356 67.6035
L103.3166 67.6797
" />
<path d="M102.2499 67.9463
L102.2499 67.1463
" />
<path d="M102.2499 67.9082
L102.3261 67.9463
" />
<path d="M102.3261 67.9463
L102.4785 67.9463
" />
<path d="M102.4785 67.9463
L102.5546 67.9082
" />
<path d="M102.5546 67.9082
L102.5927 67.8701
" />
<path d="M102.5927 67.8701
L102.6308 67.7940
" />
<path d="M102.6308 67.7940
L102.6308 67.5654
" />
<path d="M102.6308 67.5654
L102.5927 67.4892
" />
<path d="M102.5927 67.4892
L102.5546 67.4511
" />
<path d="M102.5546 67.4511
L102.4785 67.4130
" />
<path d="M102.4785 67.4130
L102.3261 67.4130
" />
<path d="M102.3261 67.4130
L102.2499 67.4511
" />
<path d="M101.5261 67.9463
L101.5261 67.5273
" />
<path d="M101.5261 67.5273
L101.5642 67.4511
" />
<path d="M101.5642 67.4511
L101.6404 67.4130
" />
<path d="M101.6404 67.4130
L101.7927 67.4130
" />
<path d="M101.7927 67.4130
L101.8689 67.4511
" />
<path d="M101.5261 67.9082
L101.6023 67.9463
" />
<path d="M101.6023 67.9463
L101.7927 67.9463
" />
<path d="M101.7927 67.9463
L101.8689 67.9082
" />
<path d="M101.8689 67.9082
L101.9070 67.8321
" />
<path d="M101.9070 67.8321
L101.9070 67.7559
" />
<path d="M101.9070 67.7559
L101.8689 67.6797
" />
<path d="M101.8689 67.6797
L101.7927 67.6416
" />
<path d="M101.7927 67.6416
L101.6023 67.6416
" />
<path d="M101.6023 67.6416
L101.5261 67.6035
" />
<path d="M101.0308 67.9463
L101.1070 67.9082
" />
<path d="M101.1070 67.9082
L101.1451 67.8321
" />
<path d="M101.1451 67.8321
L101.1451 67.1463
" />
<path d="M100.7261 67.9463
L100.7261 67.1463
" />
<path d="M100.7261 67.4511
L100.6499 67.4130
" />
<path d="M100.6499 67.4130
L100.4975 67.4130
" />
<path d="M100.4975 67.4130
L100.4213 67.4511
" />
<path d="M100.4213 67.4511
L100.3832 67.4892
" />
<path d="M100.3832 67.4892
L100.3451 67.5654
" />
<path d="M100.3451 67.5654
L100.3451 67.7940
" />
<path d="M100.3451 67.7940
L100.3832 67.8701
" />
<path d="M100.3832 67.8701
L100.4213 67.9082
" />
<path d="M100.4213 67.9082
L100.4975 67.9463
" />
<path d="M100.4975 67.9463
L100.6499 67.9463
" />
<path d="M100.6499 67.9463
L100.7261 67.9082
" />
<path d="M99.8880 67.9463
L99.9642 67.9082
" />
<path d="M99.9642 67.9082
L100.0023 67.8701
" />
<path d="M100.0023 67.8701
L100.0404 67.7940
" />
<path d="M100.0404 67.7940
L100.0404 67.5654
" />
<path d="M100.0404 67.5654
L100.0023 67.4892
" />
<path d="M100.0023 67.4892
L99.9642 67.4511
" />
<path d="M99.9642 67.4511
L99.8880 67.4130
" />
<path d="M99.8880 67.4130
L99.7737 67.4130
" />
<path d="M99.7737 67.4130
L99.6975 67.4511
" />
<path d="M99.6975 67.4511
L99.6594 67.4892
" />
<path d="M99.6594 67.4892
L99.6213 67.5654
" />
<path d="M99.6213 67.5654
L99.6213 67.7940
" />
<path d="M99.6213 67.7940
L99.6594 67.8701
" />
<path d="M99.6594 67.8701
L99.6975 67.9082
" />
<path d="M99.6975 67.9082
L99.7737 67.9463
" />
<path d="M99.7737 67.9463
L99.8880 67.9463
" />
<path d="M98.9356 67.9463
L98.9356 67.5273
" />
<path d="M98.9356 67.5273
L98.9737 67.4511
" />
<path d="M98.9737 67.4511
L99.0499 67.4130
" />
<path d="M99.0499 67.4130
L99.2023 67.4130
" />
<path d="M99.2023 67.4130
L99.2785 67.4511
" />
<path d="M98.9356 67.9082
L99.0118 67.9463
" />
<path d="M99.0118 67.9463
L99.2023 67.9463
" />
<path d="M99.2023 67.9463
L99.2785 67.9082
" />
<path d="M99.2785 67.9082
L99.3165 67.8321
" />
<path d="M99.3165 67.8321
L99.3165 67.7559
" />
<path d="M99.3165 67.7559
L99.2785 67.6797
" />
<path d="M99.2785 67.6797
L99.2023 67.6416
" />
<path d="M99.2023 67.6416
L99.0118 67.6416
" />
<path d="M99.0118 67.6416
L98.9356 67.6035
" />
<path d="M98.5546 67.9463
L98.5546 67.4130
" />
<path d="M98.5546 67.5654
L98.5165 67.4892
" />
<path d="M98.5165 67.4892
L98.4785 67.4511
" />
<path d="M98.4785 67.4511
L98.4023 67.4130
" />
<path d="M98.4023 67.4130
L98.3261 67.4130
" />
<path d="M97.7165 67.9463
L97.7165 67.1463
" />
<path d="M97.7165 67.9082
L97.7927 67.9463
" />
<path d="M97.7927 67.9463
L97.9451 67.9463
" />
<path d="M97.9451 67.9463
L98.0213 67.9082
" />
<path d="M98.0213 67.9082
L98.0594 67.8701
" />
<path d="M98.0594 67.8701
L98.0975 67.7940
" />
<path d="M98.0975 67.7940
L98.0975 67.5654
" />
<path d="M98.0975 67.5654
L98.0594 67.4892
" />
<path d="M98.0594 67.4892
L98.0213 67.4511
" />
<path d="M98.0213 67.4511
L97.9451 67.4130
" />
<path d="M97.9451 67.4130
L97.7927 67.4130
" />
<path d="M97.7927 67.4130
L97.7165 67.4511
" />
</g><text x="111.7200" y="69.3400"
transform="scale(-1 1) translate(-223.440000 0)"
textLength="15.0710" font-size="1.0667" lengthAdjust="spacingAndGlyphs"
text-anchor="start" opacity="0" stroke-opacity="0">PCB: 1.0.1-RC 69be3e9</text>
<g class="stroked-text"><desc>PCB: 1.0.1-RC 69be3e9</desc>
<path d="M111.4308 69.2343
L111.4308 68.4343
" />
<path d="M111.4308 68.4343
L111.1261 68.4343
" />
<path d="M111.1261 68.4343
L111.0499 68.4724
" />
<path d="M111.0499 68.4724
L111.0118 68.5105
" />
<path d="M111.0118 68.5105
L110.9737 68.5867
" />
<path d="M110.9737 68.5867
L110.9737 68.7010
" />
<path d="M110.9737 68.7010
L111.0118 68.7772
" />
<path d="M111.0118 68.7772
L111.0499 68.8152
" />
<path d="M111.0499 68.8152
L111.1261 68.8533
" />
<path d="M111.1261 68.8533
L111.4308 68.8533
" />
<path d="M110.1737 69.1581
L110.2118 69.1962
" />
<path d="M110.2118 69.1962
L110.3261 69.2343
" />
<path d="M110.3261 69.2343
L110.4023 69.2343
" />
<path d="M110.4023 69.2343
L110.5166 69.1962
" />
<path d="M110.5166 69.1962
L110.5927 69.1200
" />
<path d="M110.5927 69.1200
L110.6308 69.0438
" />
<path d="M110.6308 69.0438
L110.6689 68.8914
" />
<path d="M110.6689 68.8914
L110.6689 68.7772
" />
<path d="M110.6689 68.7772
L110.6308 68.6248
" />
<path d="M110.6308 68.6248
L110.5927 68.5486
" />
<path d="M110.5927 68.5486
L110.5166 68.4724
" />
<path d="M110.5166 68.4724
L110.4023 68.4343
" />
<path d="M110.4023 68.4343
L110.3261 68.4343
" />
<path d="M110.3261 68.4343
L110.2118 68.4724
" />
<path d="M110.2118 68.4724
L110.1737 68.5105
" />
<path d="M109.5642 68.8152
L109.4499 68.8533
" />
<path d="M109.4499 68.8533
L109.4118 68.8914
" />
<path d="M109.4118 68.8914
L109.3737 68.9676
" />
<path d="M109.3737 68.9676
L109.3737 69.0819
" />
<path d="M109.3737 69.0819
L109.4118 69.1581
" />
<path d="M109.4118 69.1581
L109.4499 69.1962
" />
<path d="M109.4499 69.1962
L109.5261 69.2343
" />
<path d="M109.5261 69.2343
L109.8308 69.2343
" />
<path d="M109.8308 69.2343
L109.8308 68.4343
" />
<path d="M109.8308 68.4343
L109.5642 68.4343
" />
<path d="M109.5642 68.4343
L109.4880 68.4724
" />
<path d="M109.4880 68.4724
L109.4499 68.5105
" />
<path d="M109.4499 68.5105
L109.4118 68.5867
" />
<path d="M109.4118 68.5867
L109.4118 68.6629
" />
<path d="M109.4118 68.6629
L109.4499 68.7391
" />
<path d="M109.4499 68.7391
L109.4880 68.7772
" />
<path d="M109.4880 68.7772
L109.5642 68.8152
" />
<path d="M109.5642 68.8152
L109.8308 68.8152
" />
<path d="M109.0308 69.1581
L108.9927 69.1962
" />
<path d="M108.9927 69.1962
L109.0308 69.2343
" />
<path d="M109.0308 69.2343
L109.0689 69.1962
" />
<path d="M109.0689 69.1962
L109.0308 69.1581
" />
<path d="M109.0308 69.1581
L109.0308 69.2343
" />
<path d="M109.0308 68.7391
L108.9927 68.7772
" />
<path d="M108.9927 68.7772
L109.0308 68.8152
" />
<path d="M109.0308 68.8152
L109.0689 68.7772
" />
<path d="M109.0689 68.7772
L109.0308 68.7391
" />
<path d="M109.0308 68.7391
L109.0308 68.8152
" />
<path d="M107.6213 69.2343
L108.0785 69.2343
" />
<path d="M107.8499 69.2343
L107.8499 68.4343
" />
<path d="M107.8499 68.4343
L107.9261 68.5486
" />
<path d="M107.9261 68.5486
L108.0023 68.6248
" />
<path d="M108.0023 68.6248
L108.0785 68.6629
" />
<path d="M107.2785 69.1581
L107.2404 69.1962
" />
<path d="M107.2404 69.1962
L107.2785 69.2343
" />
<path d="M107.2785 69.2343
L107.3166 69.1962
" />
<path d="M107.3166 69.1962
L107.2785 69.1581
" />
<path d="M107.2785 69.1581
L107.2785 69.2343
" />
<path d="M106.7451 68.4343
L106.6689 68.4343
" />
<path d="M106.6689 68.4343
L106.5927 68.4724
" />
<path d="M106.5927 68.4724
L106.5546 68.5105
" />
<path d="M106.5546 68.5105
L106.5166 68.5867
" />
<path d="M106.5166 68.5867
L106.4785 68.7391
" />
<path d="M106.4785 68.7391
L106.4785 68.9295
" />
<path d="M106.4785 68.9295
L106.5166 69.0819
" />
<path d="M106.5166 69.0819
L106.5546 69.1581
" />
<path d="M106.5546 69.1581
L106.5927 69.1962
" />
<path d="M106.5927 69.1962
L106.6689 69.2343
" />
<path d="M106.6689 69.2343
L106.7451 69.2343
" />
<path d="M106.7451 69.2343
L106.8213 69.1962
" />
<path d="M106.8213 69.1962
L106.8594 69.1581
" />
<path d="M106.8594 69.1581
L106.8975 69.0819
" />
<path d="M106.8975 69.0819
L106.9356 68.9295
" />
<path d="M106.9356 68.9295
L106.9356 68.7391
" />
<path d="M106.9356 68.7391
L106.8975 68.5867
" />
<path d="M106.8975 68.5867
L106.8594 68.5105
" />
<path d="M106.8594 68.5105
L106.8213 68.4724
" />
<path d="M106.8213 68.4724
L106.7451 68.4343
" />
<path d="M106.1356 69.1581
L106.0975 69.1962
" />
<path d="M106.0975 69.1962
L106.1356 69.2343
" />
<path d="M106.1356 69.2343
L106.1737 69.1962
" />
<path d="M106.1737 69.1962
L106.1356 69.1581
" />
<path d="M106.1356 69.1581
L106.1356 69.2343
" />
<path d="M105.3356 69.2343
L105.7927 69.2343
" />
<path d="M105.5642 69.2343
L105.5642 68.4343
" />
<path d="M105.5642 68.4343
L105.6404 68.5486
" />
<path d="M105.6404 68.5486
L105.7166 68.6248
" />
<path d="M105.7166 68.6248
L105.7927 68.6629
" />
<path d="M104.9927 68.9295
L104.3832 68.9295
" />
<path d="M103.5451 69.2343
L103.8118 68.8533
" />
<path d="M104.0023 69.2343
L104.0023 68.4343
" />
<path d="M104.0023 68.4343
L103.6975 68.4343
" />
<path d="M103.6975 68.4343
L103.6213 68.4724
" />
<path d="M103.6213 68.4724
L103.5832 68.5105
" />
<path d="M103.5832 68.5105
L103.5451 68.5867
" />
<path d="M103.5451 68.5867
L103.5451 68.7010
" />
<path d="M103.5451 68.7010
L103.5832 68.7772
" />
<path d="M103.5832 68.7772
L103.6213 68.8152
" />
<path d="M103.6213 68.8152
L103.6975 68.8533
" />
<path d="M103.6975 68.8533
L104.0023 68.8533
" />
<path d="M102.7451 69.1581
L102.7832 69.1962
" />
<path d="M102.7832 69.1962
L102.8975 69.2343
" />
<path d="M102.8975 69.2343
L102.9737 69.2343
" />
<path d="M102.9737 69.2343
L103.0880 69.1962
" />
<path d="M103.0880 69.1962
L103.1642 69.1200
" />
<path d="M103.1642 69.1200
L103.2023 69.0438
" />
<path d="M103.2023 69.0438
L103.2404 68.8914
" />
<path d="M103.2404 68.8914
L103.2404 68.7772
" />
<path d="M103.2404 68.7772
L103.2023 68.6248
" />
<path d="M103.2023 68.6248
L103.1642 68.5486
" />
<path d="M103.1642 68.5486
L103.0880 68.4724
" />
<path d="M103.0880 68.4724
L102.9737 68.4343
" />
<path d="M102.9737 68.4343
L102.8975 68.4343
" />
<path d="M102.8975 68.4343
L102.7832 68.4724
" />
<path d="M102.7832 68.4724
L102.7451 68.5105
" />
<path d="M101.4499 68.4343
L101.6023 68.4343
" />
<path d="M101.6023 68.4343
L101.6785 68.4724
" />
<path d="M101.6785 68.4724
L101.7166 68.5105
" />
<path d="M101.7166 68.5105
L101.7927 68.6248
" />
<path d="M101.7927 68.6248
L101.8308 68.7772
" />
<path d="M101.8308 68.7772
L101.8308 69.0819
" />
<path d="M101.8308 69.0819
L101.7927 69.1581
" />
<path d="M101.7927 69.1581
L101.7546 69.1962
" />
<path d="M101.7546 69.1962
L101.6785 69.2343
" />
<path d="M101.6785 69.2343
L101.5261 69.2343
" />
<path d="M101.5261 69.2343
L101.4499 69.1962
" />
<path d="M101.4499 69.1962
L101.4118 69.1581
" />
<path d="M101.4118 69.1581
L101.3737 69.0819
" />
<path d="M101.3737 69.0819
L101.3737 68.8914
" />
<path d="M101.3737 68.8914
L101.4118 68.8152
" />
<path d="M101.4118 68.8152
L101.4499 68.7772
" />
<path d="M101.4499 68.7772
L101.5261 68.7391
" />
<path d="M101.5261 68.7391
L101.6785 68.7391
" />
<path d="M101.6785 68.7391
L101.7546 68.7772
" />
<path d="M101.7546 68.7772
L101.7927 68.8152
" />
<path d="M101.7927 68.8152
L101.8308 68.8914
" />
<path d="M100.9927 69.2343
L100.8404 69.2343
" />
<path d="M100.8404 69.2343
L100.7642 69.1962
" />
<path d="M100.7642 69.1962
L100.7261 69.1581
" />
<path d="M100.7261 69.1581
L100.6499 69.0438
" />
<path d="M100.6499 69.0438
L100.6118 68.8914
" />
<path d="M100.6118 68.8914
L100.6118 68.5867
" />
<path d="M100.6118 68.5867
L100.6499 68.5105
" />
<path d="M100.6499 68.5105
L100.6880 68.4724
" />
<path d="M100.6880 68.4724
L100.7642 68.4343
" />
<path d="M100.7642 68.4343
L100.9166 68.4343
" />
<path d="M100.9166 68.4343
L100.9927 68.4724
" />
<path d="M100.9927 68.4724
L101.0308 68.5105
" />
<path d="M101.0308 68.5105
L101.0689 68.5867
" />
<path d="M101.0689 68.5867
L101.0689 68.7772
" />
<path d="M101.0689 68.7772
L101.0308 68.8533
" />
<path d="M101.0308 68.8533
L100.9927 68.8914
" />
<path d="M100.9927 68.8914
L100.9166 68.9295
" />
<path d="M100.9166 68.9295
L100.7642 68.9295
" />
<path d="M100.7642 68.9295
L100.6880 68.8914
" />
<path d="M100.6880 68.8914
L100.6499 68.8533
" />
<path d="M100.6499 68.8533
L100.6118 68.7772
" />
<path d="M100.2689 69.2343
L100.2689 68.4343
" />
<path d="M100.2689 68.7391
L100.1927 68.7010
" />
<path d="M100.1927 68.7010
L100.0404 68.7010
" />
<path d="M100.0404 68.7010
L99.9642 68.7391
" />
<path d="M99.9642 68.7391
L99.9261 68.7772
" />
<path d="M99.9261 68.7772
L99.8880 68.8533
" />
<path d="M99.8880 68.8533
L99.8880 69.0819
" />
<path d="M99.8880 69.0819
L99.9261 69.1581
" />
<path d="M99.9261 69.1581
L99.9642 69.1962
" />
<path d="M99.9642 69.1962
L100.0404 69.2343
" />
<path d="M100.0404 69.2343
L100.1927 69.2343
" />
<path d="M100.1927 69.2343
L100.2689 69.1962
" />
<path d="M99.2404 69.1962
L99.3166 69.2343
" />
<path d="M99.3166 69.2343
L99.4689 69.2343
" />
<path d="M99.4689 69.2343
L99.5451 69.1962
" />
<path d="M99.5451 69.1962
L99.5832 69.1200
" />
<path d="M99.5832 69.1200
L99.5832 68.8152
" />
<path d="M99.5832 68.8152
L99.5451 68.7391
" />
<path d="M99.5451 68.7391
L99.4689 68.7010
" />
<path d="M99.4689 68.7010
L99.3166 68.7010
" />
<path d="M99.3166 68.7010
L99.2404 68.7391
" />
<path d="M99.2404 68.7391
L99.2023 68.8152
" />
<path d="M99.2023 68.8152
L99.2023 68.8914
" />
<path d="M99.2023 68.8914
L99.5832 68.9676
" />
<path d="M98.9356 68.4343
L98.4404 68.4343
" />
<path d="M98.4404 68.4343
L98.7070 68.7391
" />
<path d="M98.7070 68.7391
L98.5927 68.7391
" />
<path d="M98.5927 68.7391
L98.5166 68.7772
" />
<path d="M98.5166 68.7772
L98.4785 68.8152
" />
<path d="M98.4785 68.8152
L98.4404 68.8914
" />
<path d="M98.4404 68.8914
L98.4404 69.0819
" />
<path d="M98.4404 69.0819
L98.4785 69.1581
" />
<path d="M98.4785 69.1581
L98.5166 69.1962
" />
<path d="M98.5166 69.1962
L98.5927 69.2343
" />
<path d="M98.5927 69.2343
L98.8213 69.2343
" />
<path d="M98.8213 69.2343
L98.8975 69.1962
" />
<path d="M98.8975 69.1962
L98.9356 69.1581
" />
<path d="M97.7927 69.1962
L97.8689 69.2343
" />
<path d="M97.8689 69.2343
L98.0213 69.2343
" />
<path d="M98.0213 69.2343
L98.0975 69.1962
" />
<path d="M98.0975 69.1962
L98.1356 69.1200
" />
<path d="M98.1356 69.1200
L98.1356 68.8152
" />
<path d="M98.1356 68.8152
L98.0975 68.7391
" />
<path d="M98.0975 68.7391
L98.0213 68.7010
" />
<path d="M98.0213 68.7010
L97.8689 68.7010
" />
<path d="M97.8689 68.7010
L97.7927 68.7391
" />
<path d="M97.7927 68.7391
L97.7546 68.8152
" />
<path d="M97.7546 68.8152
L97.7546 68.8914
" />
<path d="M97.7546 68.8914
L98.1356 68.9676
" />
<path d="M97.3737 69.2343
L97.2213 69.2343
" />
<path d="M97.2213 69.2343
L97.1451 69.1962
" />
<path d="M97.1451 69.1962
L97.1070 69.1581
" />
<path d="M97.1070 69.1581
L97.0308 69.0438
" />
<path d="M97.0308 69.0438
L96.9927 68.8914
" />
<path d="M96.9927 68.8914
L96.9927 68.5867
" />
<path d="M96.9927 68.5867
L97.0308 68.5105
" />
<path d="M97.0308 68.5105
L97.0689 68.4724
" />
<path d="M97.0689 68.4724
L97.1451 68.4343
" />
<path d="M97.1451 68.4343
L97.2975 68.4343
" />
<path d="M97.2975 68.4343
L97.3737 68.4724
" />
<path d="M97.3737 68.4724
L97.4118 68.5105
" />
<path d="M97.4118 68.5105
L97.4499 68.5867
" />
<path d="M97.4499 68.5867
L97.4499 68.7772
" />
<path d="M97.4499 68.7772
L97.4118 68.8533
" />
<path d="M97.4118 68.8533
L97.3737 68.8914
" />
<path d="M97.3737 68.8914
L97.2975 68.9295
" />
<path d="M97.2975 68.9295
L97.1451 68.9295
" />
<path d="M97.1451 68.9295
L97.0689 68.8914
" />
<path d="M97.0689 68.8914
L97.0308 68.8533
" />
<path d="M97.0308 68.8533
L96.9927 68.7772
" />
</g><text x="69.1700" y="96.2800"
transform="scale(-1 1) translate(-138.340000 0)"
textLength="1.9643" font-size="1.3333" lengthAdjust="spacingAndGlyphs"
text-anchor="middle" opacity="0" stroke-opacity="0">J3</text>
<g class="stroked-text"><desc>J3</desc>
<path d="M69.5033 95.2348
L69.5033 95.9491
" />
<path d="M69.5033 95.9491
L69.5510 96.0920
" />
<path d="M69.5510 96.0920
L69.6462 96.1872
" />
<path d="M69.6462 96.1872
L69.7890 96.2348
" />
<path d="M69.7890 96.2348
L69.8843 96.2348
" />
<path d="M69.1224 95.2348
L68.5033 95.2348
" />
<path d="M68.5033 95.2348
L68.8367 95.6158
" />
<path d="M68.8367 95.6158
L68.6938 95.6158
" />
<path d="M68.6938 95.6158
L68.5986 95.6634
" />
<path d="M68.5986 95.6634
L68.5510 95.7110
" />
<path d="M68.5510 95.7110
L68.5033 95.8062
" />
<path d="M68.5033 95.8062
L68.5033 96.0443
" />
<path d="M68.5033 96.0443
L68.5510 96.1396
" />
<path d="M68.5510 96.1396
L68.5986 96.1872
" />
<path d="M68.5986 96.1872
L68.6938 96.2348
" />
<path d="M68.6938 96.2348
L68.9795 96.2348
" />
<path d="M68.9795 96.2348
L69.0748 96.1872
" />
<path d="M69.0748 96.1872
L69.1224 96.1396
" />
</g><text x="110.6200" y="97.4700"
transform="scale(-1 1) translate(-221.240000 0)"
textLength="1.9643" font-size="1.3333" lengthAdjust="spacingAndGlyphs"
text-anchor="middle" opacity="0" stroke-opacity="0">J2</text>
<g class="stroked-text"><desc>J2</desc>
<path d="M110.9533 96.4248
L110.9533 97.1391
" />
<path d="M110.9533 97.1391
L111.0010 97.2820
" />
<path d="M111.0010 97.2820
L111.0962 97.3772
" />
<path d="M111.0962 97.3772
L111.2390 97.4248
" />
<path d="M111.2390 97.4248
L111.3343 97.4248
" />
<path d="M110.5248 96.5201
L110.4771 96.4724
" />
<path d="M110.4771 96.4724
L110.3819 96.4248
" />
<path d="M110.3819 96.4248
L110.1438 96.4248
" />
<path d="M110.1438 96.4248
L110.0486 96.4724
" />
<path d="M110.0486 96.4724
L110.0010 96.5201
" />
<path d="M110.0010 96.5201
L109.9533 96.6153
" />
<path d="M109.9533 96.6153
L109.9533 96.7105
" />
<path d="M109.9533 96.7105
L110.0010 96.8534
" />
<path d="M110.0010 96.8534
L110.5724 97.4248
" />
<path d="M110.5724 97.4248
L109.9533 97.4248
" />
</g></g>
<g style="fill:none; 
stroke:#000000; stroke-width:0.1200; stroke-opacity:1; 
stroke-linecap:round; stroke-linejoin:round;">
<path d="M62.0100 92.3100
L62.0100 89.7100
" />
<path d="M62.0100 94.9100
L62.0100 93.5800
" />
<path d="M63.3400 94.9100
L62.0100 94.9100
" />
<path d="M64.6100 92.3100
L62.0100 92.3100
" />
<path d="M64.6100 94.9100
L64.6100 92.3100
" />
<path d="M69.7500 89.7100
L62.0100 89.7100
" />
<path d="M69.7500 94.9100
L64.6100 94.9100
" />
<path d="M69.7500 94.9100
L69.7500 89.7100
" />
<path d="M106.3200 88.0700
L107.6500 88.0700
" />
<path d="M106.3200 89.4000
L106.3200 88.0700
" />
<path d="M106.3200 90.6700
L108.9200 90.6700
" />
<path d="M106.3200 95.8100
L106.3200 90.6700
" />
<path d="M106.3200 95.8100
L111.5200 95.8100
" />
<path d="M108.9200 88.0700
L111.5200 88.0700
" />
<path d="M108.9200 90.6700
L108.9200 88.0700
" />
<path d="M111.5200 95.8100
L111.5200 88.0700
" />
</g>
<g style="fill:#000000; fill-opacity:1.0000; stroke:none;">
<circle cx="110.0000" cy="56.0000" r="1.3750" /> 
</g>
<g style="fill:#000000; fill-opacity:1.0000; stroke:none;">
<circle cx="52.0000" cy="56.0000" r="1.3750" /> 
</g>
<g style="fill:#000000; fill-opacity:1.0000; stroke:none;">
<circle cx="52.0000" cy="105.0000" r="1.3750" /> 
</g>
<g style="fill:#000000; fill-opacity:1.0000; stroke:none;">
<circle cx="110.0000" cy="105.0000" r="1.3750" /> 
</g>
<g style="fill:#000000; fill-opacity:1.0000; stroke:none;">
<circle cx="56.8700" cy="57.2700" r="0.5080" /> 
</g>
<g style="fill:#000000; fill-opacity:1.0000; stroke:none;">
<circle cx="56.8700" cy="54.7300" r="0.5080" /> 
</g>
<g style="fill:#000000; fill-opacity:1.0000; stroke:none;">
<circle cx="59.4100" cy="57.2700" r="0.5080" /> 
</g>
<g style="fill:#000000; fill-opacity:1.0000; stroke:none;">
<circle cx="59.4100" cy="54.7300" r="0.5080" /> 
</g>
<g style="fill:#000000; fill-opacity:1.0000; stroke:none;">
<circle cx="61.9500" cy="57.2700" r="0.5080" /> 
</g>
<g style="fill:#000000; fill-opacity:1.0000; stroke:none;">
<circle cx="61.9500" cy="54.7300" r="0.5080" /> 
</g>
<g style="fill:#000000; fill-opacity:1.0000; stroke:none;">
<circle cx="64.4900" cy="57.2700" r="0.5080" /> 
</g>
<g style="fill:#000000; fill-opacity:1.0000; stroke:none;">
<circle cx="64.4900" cy="54.7300" r="0.5080" /> 
</g>
<g style="fill:#000000; fill-opacity:1.0000; stroke:none;">
<circle cx="67.0300" cy="57.2700" r="0.5080" /> 
</g>
<g style="fill:#000000; fill-opacity:1.0000; stroke:none;">
<circle cx="67.0300" cy="54.7300" r="0.5080" /> 
</g>
<g style="fill:#000000; fill-opacity:1.0000; stroke:none;">
<circle cx="69.5700" cy="57.2700" r="0.5080" /> 
</g>
<g style="fill:#000000; fill-opacity:1.0000; stroke:none;">
<circle cx="69.5700" cy="54.7300" r="0.5080" /> 
</g>
<g style="fill:#000000; fill-opacity:1.0000; stroke:none;">
<circle cx="72.1100" cy="57.2700" r="0.5080" /> 
</g>
<g style="fill:#000000; fill-opacity:1.0000; stroke:none;">
<circle cx="72.1100" cy="54.7300" r="0.5080" /> 
</g>
<g style="fill:#000000; fill-opacity:1.0000; stroke:none;">
<circle cx="74.6500" cy="57.2700" r="0.5080" /> 
</g>
<g style="fill:#000000; fill-opacity:1.0000; stroke:none;">
<circle cx="74.6500" cy="54.7300" r="0.5080" /> 
</g>
<g style="fill:#000000; fill-opacity:1.0000; stroke:none;">
<circle cx="77.1900" cy="57.2700" r="0.5080" /> 
</g>
<g style="fill:#000000; fill-opacity:1.0000; stroke:none;">
<circle cx="77.1900" cy="54.7300" r="0.5080" /> 
</g>
<g style="fill:#000000; fill-opacity:1.0000; stroke:none;">
<circle cx="79.7300" cy="57.2700" r="0.5080" /> 
</g>
<g style="fill:#000000; fill-opacity:1.0000; stroke:none;">
<circle cx="79.7300" cy="54.7300" r="0.5080" /> 
</g>
<g style="fill:#000000; fill-opacity:1.0000; stroke:none;">
<circle cx="82.2700" cy="57.2700" r="0.5080" /> 
</g>
<g style="fill:#000000; fill-opacity:1.0000; stroke:none;">
<circle cx="82.2700" cy="54.7300" r="0.5080" /> 
</g>
<g style="fill:#000000; fill-opacity:1.0000; stroke:none;">
<circle cx="84.8100" cy="57.2700" r="0.5080" /> 
</g>
<g style="fill:#000000; fill-opacity:1.0000; stroke:none;">
<circle cx="84.8100" cy="54.7300" r="0.5080" /> 
</g>
<g style="fill:#000000; fill-opacity:1.0000; stroke:none;">
<circle cx="87.3500" cy="57.2700" r="0.5080" /> 
</g>
<g style="fill:#000000; fill-opacity:1.0000; stroke:none;">
<circle cx="87.3500" cy="54.7300" r="0.5080" /> 
</g>
<g style="fill:#000000; fill-opacity:1.0000; stroke:none;">
<circle cx="89.8900" cy="57.2700" r="0.5080" /> 
</g>
<g style="fill:#000000; fill-opacity:1.0000; stroke:none;">
<circle cx="89.8900" cy="54.7300" r="0.5080" /> 
</g>
<g style="fill:#000000; fill-opacity:1.0000; stroke:none;">
<circle cx="92.4300" cy="57.2700" r="0.5080" /> 
</g>
<g style="fill:#000000; fill-opacity:1.0000; stroke:none;">
<circle cx="92.4300" cy="54.7300" r="0.5080" /> 
</g>
<g style="fill:#000000; fill-opacity:1.0000; stroke:none;">
<circle cx="94.9700" cy="57.2700" r="0.5080" /> 
</g>
<g style="fill:#000000; fill-opacity:1.0000; stroke:none;">
<circle cx="94.9700" cy="54.7300" r="0.5080" /> 
</g>
<g style="fill:#000000; fill-opacity:1.0000; stroke:none;">
<circle cx="97.5100" cy="57.2700" r="0.5080" /> 
</g>
<g style="fill:#000000; fill-opacity:1.0000; stroke:none;">
<circle cx="97.5100" cy="54.7300" r="0.5080" /> 
</g>
<g style="fill:#000000; fill-opacity:1.0000; stroke:none;">
<circle cx="100.0500" cy="57.2700" r="0.5080" /> 
</g>
<g style="fill:#000000; fill-opacity:1.0000; stroke:none;">
<circle cx="100.0500" cy="54.7300" r="0.5080" /> 
</g>
<g style="fill:#000000; fill-opacity:1.0000; stroke:none;">
<circle cx="102.5900" cy="57.2700" r="0.5080" /> 
</g>
<g style="fill:#000000; fill-opacity:1.0000; stroke:none;">
<circle cx="102.5900" cy="54.7300" r="0.5080" /> 
</g>
<g style="fill:#000000; fill-opacity:1.0000; stroke:none;">
<circle cx="105.1300" cy="57.2700" r="0.5080" /> 
</g>
<g style="fill:#000000; fill-opacity:1.0000; stroke:none;">
<circle cx="105.1300" cy="54.7300" r="0.5080" /> 
</g>
<g style="fill:#000000; fill-opacity:1.0000; stroke:none;">
<circle cx="60.9400" cy="104.0000" r="0.6000" /> 
</g>
<g style="fill:#000000; fill-opacity:1.0000; stroke:none;">
<circle cx="60.9400" cy="106.5000" r="0.6000" /> 
</g>
<g style="fill:#000000; fill-opacity:1.0000; stroke:none;">
<circle cx="65.9400" cy="99.0000" r="0.6000" /> 
</g>
<g style="fill:#000000; fill-opacity:1.0000; stroke:none;">
<circle cx="70.9400" cy="104.0000" r="0.6000" /> 
</g>
<g style="fill:#000000; fill-opacity:1.0000; stroke:none;">
<circle cx="70.9400" cy="106.5000" r="0.6000" /> 
</g>
<g style="fill:none; 
stroke:#000000; stroke-width:0.4000; stroke-opacity:1; 
stroke-linecap:round; stroke-linejoin:round;">
<path d="M60.9400 98.5000
L60.9400 99.5000
" />
</g>
<g style="fill:none; 
stroke:#000000; stroke-width:0.8000; stroke-opacity:1; 
stroke-linecap:round; stroke-linejoin:round;">
<path d="M63.4400 98.6500
L63.4400 99.3500
" />
</g>
<g style="fill:none; 
stroke:#000000; stroke-width:0.4000; stroke-opacity:1; 
stroke-linecap:round; stroke-linejoin:round;">
<path d="M65.4400 104.0000
L66.4400 104.0000
" />
<path d="M70.9400 99.5000
L70.9400 98.5000
" />
</g>
<g style="fill:none; 
stroke:#000000; stroke-width:0.8000; stroke-opacity:1; 
stroke-linecap:round; stroke-linejoin:round;">
<path d="M68.4400 99.3500
L68.4400 98.6500
" />
</g>
<g style="fill:#000000; fill-opacity:1.0000; stroke:none;">
<circle cx="92.9500" cy="93.0770" r="0.1500" /> 
</g>
<g style="fill:#000000; fill-opacity:1.0000; stroke:none;">
<circle cx="93.8167" cy="93.0770" r="0.1500" /> 
</g>
<g style="fill:#000000; fill-opacity:1.0000; stroke:none;">
<circle cx="94.6833" cy="93.0770" r="0.1500" /> 
</g>
<g style="fill:#000000; fill-opacity:1.0000; stroke:none;">
<circle cx="95.5500" cy="93.0770" r="0.1500" /> 
</g>
<g style="fill:#000000; fill-opacity:1.0000; stroke:none;">
<circle cx="92.9500" cy="92.2103" r="0.1500" /> 
</g>
<g style="fill:#000000; fill-opacity:1.0000; stroke:none;">
<circle cx="93.8167" cy="92.2103" r="0.1500" /> 
</g>
<g style="fill:#000000; fill-opacity:1.0000; stroke:none;">
<circle cx="94.6833" cy="92.2103" r="0.1500" /> 
</g>
<g style="fill:#000000; fill-opacity:1.0000; stroke:none;">
<circle cx="95.5500" cy="92.2103" r="0.1500" /> 
</g>
<g style="fill:#000000; fill-opacity:1.0000; stroke:none;">
<circle cx="92.9500" cy="91.3437" r="0.1500" /> 
</g>
<g style="fill:#000000; fill-opacity:1.0000; stroke:none;">
<circle cx="93.8167" cy="91.3437" r="0.1500" /> 
</g>
<g style="fill:#000000; fill-opacity:1.0000; stroke:none;">
<circle cx="94.6833" cy="91.3437" r="0.1500" /> 
</g>
<g style="fill:#000000; fill-opacity:1.0000; stroke:none;">
<circle cx="95.5500" cy="91.3437" r="0.1500" /> 
</g>
<g style="fill:#000000; fill-opacity:1.0000; stroke:none;">
<circle cx="92.9500" cy="90.4770" r="0.1500" /> 
</g>
<g style="fill:#000000; fill-opacity:1.0000; stroke:none;">
<circle cx="93.8167" cy="90.4770" r="0.1500" /> 
</g>
<g style="fill:#000000; fill-opacity:1.0000; stroke:none;">
<circle cx="94.6833" cy="90.4770" r="0.1500" /> 
</g>
<g style="fill:#000000; fill-opacity:1.0000; stroke:none;">
<circle cx="95.5500" cy="90.4770" r="0.1500" /> 
</g>
<g style="fill:#000000; fill-opacity:1.0000; stroke:none;">
<circle cx="80.1000" cy="104.0000" r="0.6000" /> 
</g>
<g style="fill:#000000; fill-opacity:1.0000; stroke:none;">
<circle cx="80.1000" cy="106.5000" r="0.6000" /> 
</g>
<g style="fill:#000000; fill-opacity:1.0000; stroke:none;">
<circle cx="85.1000" cy="99.0000" r="0.6000" /> 
</g>
<g style="fill:#000000; fill-opacity:1.0000; stroke:none;">
<circle cx="90.1000" cy="104.0000" r="0.6000" /> 
</g>
<g style="fill:#000000; fill-opacity:1.0000; stroke:none;">
<circle cx="90.1000" cy="106.5000" r="0.6000" /> 
</g>
<g style="fill:none; 
stroke:#000000; stroke-width:0.4000; stroke-opacity:1; 
stroke-linecap:round; stroke-linejoin:round;">
<path d="M80.1000 98.5000
L80.1000 99.5000
" />
</g>
<g style="fill:none; 
stroke:#000000; stroke-width:0.8000; stroke-opacity:1; 
stroke-linecap:round; stroke-linejoin:round;">
<path d="M82.6000 98.6500
L82.6000 99.3500
" />
</g>
<g style="fill:none; 
stroke:#000000; stroke-width:0.4000; stroke-opacity:1; 
stroke-linecap:round; stroke-linejoin:round;">
<path d="M84.6000 104.0000
L85.6000 104.0000
" />
<path d="M90.1000 99.5000
L90.1000 98.5000
" />
</g>
<g style="fill:none; 
stroke:#000000; stroke-width:0.8000; stroke-opacity:1; 
stroke-linecap:round; stroke-linejoin:round;">
<path d="M87.6000 99.3500
L87.6000 98.6500
" />
</g>
<g style="fill:#000000; fill-opacity:1.0000; stroke:none;">
<circle cx="63.3400" cy="93.5800" r="0.5000" /> 
</g>
<g style="fill:#000000; fill-opacity:1.0000; stroke:none;">
<circle cx="63.3400" cy="91.0400" r="0.5000" /> 
</g>
<g style="fill:#000000; fill-opacity:1.0000; stroke:none;">
<circle cx="65.8800" cy="93.5800" r="0.5000" /> 
</g>
<g style="fill:#000000; fill-opacity:1.0000; stroke:none;">
<circle cx="65.8800" cy="91.0400" r="0.5000" /> 
</g>
<g style="fill:#000000; fill-opacity:1.0000; stroke:none;">
<circle cx="68.4200" cy="93.5800" r="0.5000" /> 
</g>
<g style="fill:#000000; fill-opacity:1.0000; stroke:none;">
<circle cx="68.4200" cy="91.0400" r="0.5000" /> 
</g>
<g style="fill:#000000; fill-opacity:1.0000; stroke:none;">
<circle cx="107.6500" cy="89.4000" r="0.5000" /> 
</g>
<g style="fill:#000000; fill-opacity:1.0000; stroke:none;">
<circle cx="110.1900" cy="89.4000" r="0.5000" /> 
</g>
<g style="fill:#000000; fill-opacity:1.0000; stroke:none;">
<circle cx="107.6500" cy="91.9400" r="0.5000" /> 
</g>
<g style="fill:#000000; fill-opacity:1.0000; stroke:none;">
<circle cx="110.1900" cy="91.9400" r="0.5000" /> 
</g>
<g style="fill:#000000; fill-opacity:1.0000; stroke:none;">
<circle cx="107.6500" cy="94.4800" r="0.5000" /> 
</g>
<g style="fill:#000000; fill-opacity:1.0000; stroke:none;">
<circle cx="110.1900" cy="94.4800" r="0.5000" /> 
</g> 
</svg>
