<?xml version="1.0" standalone="no"?>
 <!DOCTYPE svg PUBLIC "-//W3C//DTD SVG 1.1//EN" 
 "http://www.w3.org/Graphics/SVG/1.1/DTD/svg11.dtd"> 
<svg
  xmlns:svg="http://www.w3.org/2000/svg"
  xmlns="http://www.w3.org/2000/svg"
  xmlns:xlink="http://www.w3.org/1999/xlink"
  version="1.1"
  width="297.0022mm" height="210.0072mm" viewBox="0.0000 0.0000 297.0022 210.0072">
<title>SVG Image created as pedalboard-soundcard-F_Mask.svg date 2024/12/15 20:13:50 </title>
  <desc>Image generated by PCBNEW </desc>
<g style="fill:#000000; fill-opacity:1.0000;stroke:#000000; stroke-opacity:1.0000;
stroke-linecap:round; stroke-linejoin:round;"
 transform="translate(0 0) scale(1 1)">
</g>
<g style="fill:#000000; fill-opacity:1.0000; stroke:none;">
<circle cx="110.0000" cy="56.0000" r="3.1000" /> 
</g>
<g style="fill:#000000; fill-opacity:1.0000; stroke:none;">
<circle cx="52.0000" cy="56.0000" r="3.1000" /> 
</g>
<g style="fill:#000000; fill-opacity:1.0000; stroke:none;">
<circle cx="52.0000" cy="105.0000" r="3.1000" /> 
</g>
<g style="fill:#000000; fill-opacity:1.0000; stroke:none;">
<circle cx="110.0000" cy="105.0000" r="3.1000" /> 
<path style="fill:#000000; fill-opacity:1.0000; stroke:none;fill-rule:evenodd;"
d="M 57.7336,58.1336
56.0064,58.1336
56.0064,56.4064
57.7336,56.4064
Z" /> 
</g>
<g style="fill:#000000; fill-opacity:1.0000; stroke:none;">
<circle cx="56.8700" cy="54.7300" r="0.8636" /> 
<circle cx="59.4100" cy="57.2700" r="0.8636" /> 
<circle cx="59.4100" cy="54.7300" r="0.8636" /> 
<circle cx="61.9500" cy="57.2700" r="0.8636" /> 
<circle cx="61.9500" cy="54.7300" r="0.8636" /> 
<circle cx="64.4900" cy="57.2700" r="0.8636" /> 
<circle cx="64.4900" cy="54.7300" r="0.8636" /> 
<circle cx="67.0300" cy="57.2700" r="0.8636" /> 
<circle cx="67.0300" cy="54.7300" r="0.8636" /> 
<circle cx="69.5700" cy="57.2700" r="0.8636" /> 
<circle cx="69.5700" cy="54.7300" r="0.8636" /> 
<circle cx="72.1100" cy="57.2700" r="0.8636" /> 
<circle cx="72.1100" cy="54.7300" r="0.8636" /> 
<circle cx="74.6500" cy="57.2700" r="0.8636" /> 
<circle cx="74.6500" cy="54.7300" r="0.8636" /> 
<circle cx="77.1900" cy="57.2700" r="0.8636" /> 
<circle cx="77.1900" cy="54.7300" r="0.8636" /> 
<circle cx="79.7300" cy="57.2700" r="0.8636" /> 
<circle cx="79.7300" cy="54.7300" r="0.8636" /> 
<circle cx="82.2700" cy="57.2700" r="0.8636" /> 
<circle cx="82.2700" cy="54.7300" r="0.8636" /> 
<circle cx="84.8100" cy="57.2700" r="0.8636" /> 
<circle cx="84.8100" cy="54.7300" r="0.8636" /> 
<circle cx="87.3500" cy="57.2700" r="0.8636" /> 
<circle cx="87.3500" cy="54.7300" r="0.8636" /> 
<circle cx="89.8900" cy="57.2700" r="0.8636" /> 
<circle cx="89.8900" cy="54.7300" r="0.8636" /> 
<circle cx="92.4300" cy="57.2700" r="0.8636" /> 
<circle cx="92.4300" cy="54.7300" r="0.8636" /> 
<circle cx="94.9700" cy="57.2700" r="0.8636" /> 
<circle cx="94.9700" cy="54.7300" r="0.8636" /> 
<circle cx="97.5100" cy="57.2700" r="0.8636" /> 
<circle cx="97.5100" cy="54.7300" r="0.8636" /> 
<circle cx="100.0500" cy="57.2700" r="0.8636" /> 
<circle cx="100.0500" cy="54.7300" r="0.8636" /> 
<circle cx="102.5900" cy="57.2700" r="0.8636" /> 
<circle cx="102.5900" cy="54.7300" r="0.8636" /> 
<circle cx="105.1300" cy="57.2700" r="0.8636" /> 
<circle cx="105.1300" cy="54.7300" r="0.8636" /> 
<path style="fill:#000000; fill-opacity:1.0000; stroke:none;fill-rule:evenodd;"
d="M 104.4500,99.9500
104.9500,99.9500
104.9500,99.9551
105.0212,99.9551
105.1577,99.9952
105.2774,100.0721
105.3706,100.1797
105.4297,100.3091
105.4500,100.4500
105.4500,100.9500
105.4297,101.0909
105.3706,101.2203
105.2774,101.3279
105.1577,101.4048
105.0212,101.4449
104.9500,101.4449
104.9500,101.4500
104.4500,101.4500
Z" /> 
<path style="fill:#000000; fill-opacity:1.0000; stroke:none;fill-rule:evenodd;"
d="M 103.6500,101.4449
103.5788,101.4449
103.4423,101.4048
103.3226,101.3279
103.2294,101.2203
103.1703,101.0909
103.1500,100.9500
103.1500,100.4500
103.1703,100.3091
103.2294,100.1797
103.3226,100.0721
103.4423,99.9952
103.5788,99.9551
103.6500,99.9551
103.6500,99.9500
104.1500,99.9500
104.1500,101.4500
103.6500,101.4500
Z" /> 
<path style="fill:#000000; fill-opacity:1.0000; stroke:none;fill-rule:evenodd;"
d="M 84.8000,63.1250
84.8190,63.0293
84.8732,62.9482
84.9543,62.8940
85.0500,62.8750
85.5750,62.8750
85.6707,62.8940
85.7518,62.9482
85.8060,63.0293
85.8250,63.1250
85.8250,64.0250
85.8060,64.1207
85.7518,64.2018
85.6707,64.2560
85.5750,64.2750
85.0500,64.2750
84.9543,64.2560
84.8732,64.2018
84.8190,64.1207
84.8000,64.0250
Z" /> 
<path style="fill:#000000; fill-opacity:1.0000; stroke:none;fill-rule:evenodd;"
d="M 86.6250,63.1250
86.6440,63.0293
86.6982,62.9482
86.7793,62.8940
86.8750,62.8750
87.4000,62.8750
87.4957,62.8940
87.5768,62.9482
87.6310,63.0293
87.6500,63.1250
87.6500,64.0250
87.6310,64.1207
87.5768,64.2018
87.4957,64.2560
87.4000,64.2750
86.8750,64.2750
86.7793,64.2560
86.6982,64.2018
86.6440,64.1207
86.6250,64.0250
Z" /> 
<path style="fill:#000000; fill-opacity:1.0000; stroke:none;fill-rule:evenodd;"
d="M 83.7000,75.3050
83.6043,75.2860
83.5232,75.2318
83.4690,75.1507
83.4500,75.0550
83.4500,74.5300
83.4690,74.4343
83.5232,74.3532
83.6043,74.2990
83.7000,74.2800
84.6000,74.2800
84.6957,74.2990
84.7768,74.3532
84.8310,74.4343
84.8500,74.5300
84.8500,75.0550
84.8310,75.1507
84.7768,75.2318
84.6957,75.2860
84.6000,75.3050
Z" /> 
<path style="fill:#000000; fill-opacity:1.0000; stroke:none;fill-rule:evenodd;"
d="M 83.7000,73.4800
83.6043,73.4610
83.5232,73.4068
83.4690,73.3257
83.4500,73.2300
83.4500,72.7050
83.4690,72.6093
83.5232,72.5282
83.6043,72.4740
83.7000,72.4550
84.6000,72.4550
84.6957,72.4740
84.7768,72.5282
84.8310,72.6093
84.8500,72.7050
84.8500,73.2300
84.8310,73.3257
84.7768,73.4068
84.6957,73.4610
84.6000,73.4800
Z" /> 
<path style="fill:#000000; fill-opacity:1.0000; stroke:none;fill-rule:evenodd;"
d="M 102.9750,96.2800
103.0707,96.2990
103.1518,96.3532
103.2060,96.4343
103.2250,96.5300
103.2250,97.0300
103.2060,97.1257
103.1518,97.2068
103.0707,97.2610
102.9750,97.2800
102.0250,97.2800
101.9293,97.2610
101.8482,97.2068
101.7940,97.1257
101.7750,97.0300
101.7750,96.5300
101.7940,96.4343
101.8482,96.3532
101.9293,96.2990
102.0250,96.2800
Z" /> 
<path style="fill:#000000; fill-opacity:1.0000; stroke:none;fill-rule:evenodd;"
d="M 102.9750,98.1800
103.0707,98.1990
103.1518,98.2532
103.2060,98.3343
103.2250,98.4300
103.2250,98.9300
103.2060,99.0257
103.1518,99.1068
103.0707,99.1610
102.9750,99.1800
102.0250,99.1800
101.9293,99.1610
101.8482,99.1068
101.7940,99.0257
101.7750,98.9300
101.7750,98.4300
101.7940,98.3343
101.8482,98.2532
101.9293,98.1990
102.0250,98.1800
Z" /> 
<path style="fill:#000000; fill-opacity:1.0000; stroke:none;fill-rule:evenodd;"
d="M 82.9500,75.2000
82.1000,75.2000
82.1000,74.5500
82.9500,74.5500
Z" /> 
<path style="fill:#000000; fill-opacity:1.0000; stroke:none;fill-rule:evenodd;"
d="M 82.9500,73.5500
82.1000,73.5500
82.1000,72.9000
82.9500,72.9000
Z" /> 
<path style="fill:#000000; fill-opacity:1.0000; stroke:none;fill-rule:evenodd;"
d="M 81.4000,73.5500
80.5500,73.5500
80.5500,72.9000
81.4000,72.9000
Z" /> 
<path style="fill:#000000; fill-opacity:1.0000; stroke:none;fill-rule:evenodd;"
d="M 81.4000,75.2000
80.5500,75.2000
80.5500,74.5500
81.4000,74.5500
Z" /> 
<circle cx="57.0000" cy="105.0000" r="0.7500" /> 
<path style="fill:#000000; fill-opacity:1.0000; stroke:none;fill-rule:evenodd;"
d="M 68.5000,62.0500
68.5574,62.0614
68.6061,62.0939
68.6386,62.1426
68.6500,62.2000
68.6500,63.2250
68.6386,63.2824
68.6061,63.3311
68.5574,63.3636
68.5000,63.3750
68.2000,63.3750
68.1426,63.3636
68.0939,63.3311
68.0614,63.2824
68.0500,63.2250
68.0500,62.2000
68.0614,62.1426
68.0939,62.0939
68.1426,62.0614
68.2000,62.0500
Z" /> 
<path style="fill:#000000; fill-opacity:1.0000; stroke:none;fill-rule:evenodd;"
d="M 67.5500,62.0500
67.6074,62.0614
67.6561,62.0939
67.6886,62.1426
67.7000,62.2000
67.7000,63.2250
67.6886,63.2824
67.6561,63.3311
67.6074,63.3636
67.5500,63.3750
67.2500,63.3750
67.1926,63.3636
67.1439,63.3311
67.1114,63.2824
67.1000,63.2250
67.1000,62.2000
67.1114,62.1426
67.1439,62.0939
67.1926,62.0614
67.2500,62.0500
Z" /> 
<path style="fill:#000000; fill-opacity:1.0000; stroke:none;fill-rule:evenodd;"
d="M 66.6000,62.0500
66.6574,62.0614
66.7061,62.0939
66.7386,62.1426
66.7500,62.2000
66.7500,63.2250
66.7386,63.2824
66.7061,63.3311
66.6574,63.3636
66.6000,63.3750
66.3000,63.3750
66.2426,63.3636
66.1939,63.3311
66.1614,63.2824
66.1500,63.2250
66.1500,62.2000
66.1614,62.1426
66.1939,62.0939
66.2426,62.0614
66.3000,62.0500
Z" /> 
<path style="fill:#000000; fill-opacity:1.0000; stroke:none;fill-rule:evenodd;"
d="M 66.6000,64.3250
66.6574,64.3364
66.7061,64.3689
66.7386,64.4176
66.7500,64.4750
66.7500,65.5000
66.7386,65.5574
66.7061,65.6061
66.6574,65.6386
66.6000,65.6500
66.3000,65.6500
66.2426,65.6386
66.1939,65.6061
66.1614,65.5574
66.1500,65.5000
66.1500,64.4750
66.1614,64.4176
66.1939,64.3689
66.2426,64.3364
66.3000,64.3250
Z" /> 
<path style="fill:#000000; fill-opacity:1.0000; stroke:none;fill-rule:evenodd;"
d="M 68.5000,64.3250
68.5574,64.3364
68.6061,64.3689
68.6386,64.4176
68.6500,64.4750
68.6500,65.5000
68.6386,65.5574
68.6061,65.6061
68.5574,65.6386
68.5000,65.6500
68.2000,65.6500
68.1426,65.6386
68.0939,65.6061
68.0614,65.5574
68.0500,65.5000
68.0500,64.4750
68.0614,64.4176
68.0939,64.3689
68.1426,64.3364
68.2000,64.3250
Z" /> 
<path style="fill:#000000; fill-opacity:1.0000; stroke:none;fill-rule:evenodd;"
d="M 102.9750,92.8800
103.0707,92.8990
103.1518,92.9532
103.2060,93.0343
103.2250,93.1300
103.2250,93.6550
103.2060,93.7507
103.1518,93.8318
103.0707,93.8860
102.9750,93.9050
102.0750,93.9050
101.9793,93.8860
101.8982,93.8318
101.8440,93.7507
101.8250,93.6550
101.8250,93.1300
101.8440,93.0343
101.8982,92.9532
101.9793,92.8990
102.0750,92.8800
Z" /> 
<path style="fill:#000000; fill-opacity:1.0000; stroke:none;fill-rule:evenodd;"
d="M 102.9750,94.7050
103.0707,94.7240
103.1518,94.7782
103.2060,94.8593
103.2250,94.9550
103.2250,95.4800
103.2060,95.5757
103.1518,95.6568
103.0707,95.7110
102.9750,95.7300
102.0750,95.7300
101.9793,95.7110
101.8982,95.6568
101.8440,95.5757
101.8250,95.4800
101.8250,94.9550
101.8440,94.8593
101.8982,94.7782
101.9793,94.7240
102.0750,94.7050
Z" /> 
<path style="fill:#000000; fill-opacity:1.0000; stroke:none;fill-rule:evenodd;"
d="M 60.5750,90.9800
60.6707,90.9990
60.7518,91.0532
60.8060,91.1343
60.8250,91.2300
60.8250,91.7300
60.8060,91.8257
60.7518,91.9068
60.6707,91.9610
60.5750,91.9800
59.6250,91.9800
59.5293,91.9610
59.4482,91.9068
59.3940,91.8257
59.3750,91.7300
59.3750,91.2300
59.3940,91.1343
59.4482,91.0532
59.5293,90.9990
59.6250,90.9800
Z" /> 
<path style="fill:#000000; fill-opacity:1.0000; stroke:none;fill-rule:evenodd;"
d="M 60.5750,92.8800
60.6707,92.8990
60.7518,92.9532
60.8060,93.0343
60.8250,93.1300
60.8250,93.6300
60.8060,93.7257
60.7518,93.8068
60.6707,93.8610
60.5750,93.8800
59.6250,93.8800
59.5293,93.8610
59.4482,93.8068
59.3940,93.7257
59.3750,93.6300
59.3750,93.1300
59.3940,93.0343
59.4482,92.9532
59.5293,92.8990
59.6250,92.8800
Z" /> 
<path style="fill:#000000; fill-opacity:1.0000; stroke:none;fill-rule:evenodd;"
d="M 65.8250,76.7500
65.7293,76.7310
65.6482,76.6768
65.5940,76.5957
65.5750,76.5000
65.5750,76.0000
65.5940,75.9043
65.6482,75.8232
65.7293,75.7690
65.8250,75.7500
66.7750,75.7500
66.8707,75.7690
66.9518,75.8232
67.0060,75.9043
67.0250,76.0000
67.0250,76.5000
67.0060,76.5957
66.9518,76.6768
66.8707,76.7310
66.7750,76.7500
Z" /> 
<path style="fill:#000000; fill-opacity:1.0000; stroke:none;fill-rule:evenodd;"
d="M 65.8250,74.8500
65.7293,74.8310
65.6482,74.7768
65.5940,74.6957
65.5750,74.6000
65.5750,74.1000
65.5940,74.0043
65.6482,73.9232
65.7293,73.8690
65.8250,73.8500
66.7750,73.8500
66.8707,73.8690
66.9518,73.9232
67.0060,74.0043
67.0250,74.1000
67.0250,74.6000
67.0060,74.6957
66.9518,74.7768
66.8707,74.8310
66.7750,74.8500
Z" /> 
<path style="fill:#000000; fill-opacity:1.0000; stroke:none;fill-rule:evenodd;"
d="M 80.2250,76.0650
80.2440,75.9693
80.2982,75.8882
80.3793,75.8340
80.4750,75.8150
80.9750,75.8150
81.0707,75.8340
81.1518,75.8882
81.2060,75.9693
81.2250,76.0650
81.2250,77.0150
81.2060,77.1107
81.1518,77.1918
81.0707,77.2460
80.9750,77.2650
80.4750,77.2650
80.3793,77.2460
80.2982,77.1918
80.2440,77.1107
80.2250,77.0150
Z" /> 
<path style="fill:#000000; fill-opacity:1.0000; stroke:none;fill-rule:evenodd;"
d="M 82.1250,76.0650
82.1440,75.9693
82.1982,75.8882
82.2793,75.8340
82.3750,75.8150
82.8750,75.8150
82.9707,75.8340
83.0518,75.8882
83.1060,75.9693
83.1250,76.0650
83.1250,77.0150
83.1060,77.1107
83.0518,77.1918
82.9707,77.2460
82.8750,77.2650
82.3750,77.2650
82.2793,77.2460
82.1982,77.1918
82.1440,77.1107
82.1250,77.0150
Z" /> 
<path style="fill:#000000; fill-opacity:1.0000; stroke:none;fill-rule:evenodd;"
d="M 88.2000,61.6500
88.2190,61.5543
88.2732,61.4732
88.3543,61.4190
88.4500,61.4000
88.9750,61.4000
89.0707,61.4190
89.1518,61.4732
89.2060,61.5543
89.2250,61.6500
89.2250,62.5500
89.2060,62.6457
89.1518,62.7268
89.0707,62.7810
88.9750,62.8000
88.4500,62.8000
88.3543,62.7810
88.2732,62.7268
88.2190,62.6457
88.2000,62.5500
Z" /> 
<path style="fill:#000000; fill-opacity:1.0000; stroke:none;fill-rule:evenodd;"
d="M 90.0250,61.6500
90.0440,61.5543
90.0982,61.4732
90.1793,61.4190
90.2750,61.4000
90.8000,61.4000
90.8957,61.4190
90.9768,61.4732
91.0310,61.5543
91.0500,61.6500
91.0500,62.5500
91.0310,62.6457
90.9768,62.7268
90.8957,62.7810
90.8000,62.8000
90.2750,62.8000
90.1793,62.7810
90.0982,62.7268
90.0440,62.6457
90.0250,62.5500
Z" /> 
<path style="fill:#000000; fill-opacity:1.0000; stroke:none;fill-rule:evenodd;"
d="M 81.4250,63.1250
81.4440,63.0293
81.4982,62.9482
81.5793,62.8940
81.6750,62.8750
82.2000,62.8750
82.2957,62.8940
82.3768,62.9482
82.4310,63.0293
82.4500,63.1250
82.4500,64.0250
82.4310,64.1207
82.3768,64.2018
82.2957,64.2560
82.2000,64.2750
81.6750,64.2750
81.5793,64.2560
81.4982,64.2018
81.4440,64.1207
81.4250,64.0250
Z" /> 
<path style="fill:#000000; fill-opacity:1.0000; stroke:none;fill-rule:evenodd;"
d="M 83.2500,63.1250
83.2690,63.0293
83.3232,62.9482
83.4043,62.8940
83.5000,62.8750
84.0250,62.8750
84.1207,62.8940
84.2018,62.9482
84.2560,63.0293
84.2750,63.1250
84.2750,64.0250
84.2560,64.1207
84.2018,64.2018
84.1207,64.2560
84.0250,64.2750
83.5000,64.2750
83.4043,64.2560
83.3232,64.2018
83.2690,64.1207
83.2500,64.0250
Z" /> 
<path style="fill:#000000; fill-opacity:1.0000; stroke:none;fill-rule:evenodd;"
d="M 89.1750,75.2500
88.3250,75.2500
88.3250,74.6000
89.1750,74.6000
Z" /> 
<path style="fill:#000000; fill-opacity:1.0000; stroke:none;fill-rule:evenodd;"
d="M 89.1750,73.6000
88.3250,73.6000
88.3250,72.9500
89.1750,72.9500
Z" /> 
<path style="fill:#000000; fill-opacity:1.0000; stroke:none;fill-rule:evenodd;"
d="M 87.6250,73.6000
86.7750,73.6000
86.7750,72.9500
87.6250,72.9500
Z" /> 
<path style="fill:#000000; fill-opacity:1.0000; stroke:none;fill-rule:evenodd;"
d="M 87.6250,75.2500
86.7750,75.2500
86.7750,74.6000
87.6250,74.6000
Z" /> 
<path style="fill:#000000; fill-opacity:1.0000; stroke:none;fill-rule:evenodd;"
d="M 94.9663,82.8750
95.0595,82.8936
95.1386,82.9464
95.1914,83.0255
95.2100,83.1187
95.2100,83.6063
95.1914,83.6995
95.1386,83.7786
95.0595,83.8314
94.9663,83.8500
94.0537,83.8500
93.9605,83.8314
93.8814,83.7786
93.8286,83.6995
93.8100,83.6063
93.8100,83.1187
93.8286,83.0255
93.8814,82.9464
93.9605,82.8936
94.0537,82.8750
Z" /> 
<path style="fill:#000000; fill-opacity:1.0000; stroke:none;fill-rule:evenodd;"
d="M 94.9663,84.7500
95.0595,84.7686
95.1386,84.8214
95.1914,84.9005
95.2100,84.9937
95.2100,85.4813
95.1914,85.5745
95.1386,85.6536
95.0595,85.7064
94.9663,85.7250
94.0537,85.7250
93.9605,85.7064
93.8814,85.6536
93.8286,85.5745
93.8100,85.4813
93.8100,84.9937
93.8286,84.9005
93.8814,84.8214
93.9605,84.7686
94.0537,84.7500
Z" /> 
<path style="fill:#000000; fill-opacity:1.0000; stroke:none;fill-rule:evenodd;"
d="M 70.2500,86.6000
70.1543,86.5810
70.0732,86.5268
70.0190,86.4457
70.0000,86.3500
70.0000,85.8500
70.0190,85.7543
70.0732,85.6732
70.1543,85.6190
70.2500,85.6000
71.2000,85.6000
71.2957,85.6190
71.3768,85.6732
71.4310,85.7543
71.4500,85.8500
71.4500,86.3500
71.4310,86.4457
71.3768,86.5268
71.2957,86.5810
71.2000,86.6000
Z" /> 
<path style="fill:#000000; fill-opacity:1.0000; stroke:none;fill-rule:evenodd;"
d="M 70.2500,84.7000
70.1543,84.6810
70.0732,84.6268
70.0190,84.5457
70.0000,84.4500
70.0000,83.9500
70.0190,83.8543
70.0732,83.7732
70.1543,83.7190
70.2500,83.7000
71.2000,83.7000
71.2957,83.7190
71.3768,83.7732
71.4310,83.8543
71.4500,83.9500
71.4500,84.4500
71.4310,84.5457
71.3768,84.6268
71.2957,84.6810
71.2000,84.7000
Z" /> 
<path style="fill:#000000; fill-opacity:1.0000; stroke:none;fill-rule:evenodd;"
d="M 86.9200,92.2350
86.9390,92.1393
86.9932,92.0582
87.0743,92.0040
87.1700,91.9850
87.6700,91.9850
87.7657,92.0040
87.8468,92.0582
87.9010,92.1393
87.9200,92.2350
87.9200,93.1850
87.9010,93.2807
87.8468,93.3618
87.7657,93.4160
87.6700,93.4350
87.1700,93.4350
87.0743,93.4160
86.9932,93.3618
86.9390,93.2807
86.9200,93.1850
Z" /> 
<path style="fill:#000000; fill-opacity:1.0000; stroke:none;fill-rule:evenodd;"
d="M 88.8200,92.2350
88.8390,92.1393
88.8932,92.0582
88.9743,92.0040
89.0700,91.9850
89.5700,91.9850
89.6657,92.0040
89.7468,92.0582
89.8010,92.1393
89.8200,92.2350
89.8200,93.1850
89.8010,93.2807
89.7468,93.3618
89.6657,93.4160
89.5700,93.4350
89.0700,93.4350
88.9743,93.4160
88.8932,93.3618
88.8390,93.2807
88.8200,93.1850
Z" /> 
<path style="fill:#000000; fill-opacity:1.0000; stroke:none;fill-rule:evenodd;"
d="M 69.3000,77.2250
69.3190,77.1293
69.3732,77.0482
69.4543,76.9940
69.5500,76.9750
70.0500,76.9750
70.1457,76.9940
70.2268,77.0482
70.2810,77.1293
70.3000,77.2250
70.3000,78.1750
70.2810,78.2707
70.2268,78.3518
70.1457,78.4060
70.0500,78.4250
69.5500,78.4250
69.4543,78.4060
69.3732,78.3518
69.3190,78.2707
69.3000,78.1750
Z" /> 
<path style="fill:#000000; fill-opacity:1.0000; stroke:none;fill-rule:evenodd;"
d="M 71.2000,77.2250
71.2190,77.1293
71.2732,77.0482
71.3543,76.9940
71.4500,76.9750
71.9500,76.9750
72.0457,76.9940
72.1268,77.0482
72.1810,77.1293
72.2000,77.2250
72.2000,78.1750
72.1810,78.2707
72.1268,78.3518
72.0457,78.4060
71.9500,78.4250
71.4500,78.4250
71.3543,78.4060
71.2732,78.3518
71.2190,78.2707
71.2000,78.1750
Z" /> 
<path style="fill:#000000; fill-opacity:1.0000; stroke:none;fill-rule:evenodd;"
d="M 71.9500,90.9600
72.0457,90.9790
72.1268,91.0332
72.1810,91.1143
72.2000,91.2100
72.2000,91.7100
72.1810,91.8057
72.1268,91.8868
72.0457,91.9410
71.9500,91.9600
71.0000,91.9600
70.9043,91.9410
70.8232,91.8868
70.7690,91.8057
70.7500,91.7100
70.7500,91.2100
70.7690,91.1143
70.8232,91.0332
70.9043,90.9790
71.0000,90.9600
Z" /> 
<path style="fill:#000000; fill-opacity:1.0000; stroke:none;fill-rule:evenodd;"
d="M 71.9500,92.8600
72.0457,92.8790
72.1268,92.9332
72.1810,93.0143
72.2000,93.1100
72.2000,93.6100
72.1810,93.7057
72.1268,93.7868
72.0457,93.8410
71.9500,93.8600
71.0000,93.8600
70.9043,93.8410
70.8232,93.7868
70.7690,93.7057
70.7500,93.6100
70.7500,93.1100
70.7690,93.0143
70.8232,92.9332
70.9043,92.8790
71.0000,92.8600
Z" /> 
<path style="fill:#000000; fill-opacity:1.0000; stroke:none;fill-rule:evenodd;"
d="M 73.5950,95.5100
73.5760,95.6057
73.5218,95.6868
73.4407,95.7410
73.3450,95.7600
72.8200,95.7600
72.7243,95.7410
72.6432,95.6868
72.5890,95.6057
72.5700,95.5100
72.5700,94.6100
72.5890,94.5143
72.6432,94.4332
72.7243,94.3790
72.8200,94.3600
73.3450,94.3600
73.4407,94.3790
73.5218,94.4332
73.5760,94.5143
73.5950,94.6100
Z" /> 
<path style="fill:#000000; fill-opacity:1.0000; stroke:none;fill-rule:evenodd;"
d="M 71.7700,95.5100
71.7510,95.6057
71.6968,95.6868
71.6157,95.7410
71.5200,95.7600
70.9950,95.7600
70.8993,95.7410
70.8182,95.6868
70.7640,95.6057
70.7450,95.5100
70.7450,94.6100
70.7640,94.5143
70.8182,94.4332
70.8993,94.3790
70.9950,94.3600
71.5200,94.3600
71.6157,94.3790
71.6968,94.4332
71.7510,94.5143
71.7700,94.6100
Z" /> 
<path style="fill:#000000; fill-opacity:1.0000; stroke:none;fill-rule:evenodd;"
d="M 73.9250,90.9600
74.0207,90.9790
74.1018,91.0332
74.1560,91.1143
74.1750,91.2100
74.1750,91.7100
74.1560,91.8057
74.1018,91.8868
74.0207,91.9410
73.9250,91.9600
72.9750,91.9600
72.8793,91.9410
72.7982,91.8868
72.7440,91.8057
72.7250,91.7100
72.7250,91.2100
72.7440,91.1143
72.7982,91.0332
72.8793,90.9790
72.9750,90.9600
Z" /> 
<path style="fill:#000000; fill-opacity:1.0000; stroke:none;fill-rule:evenodd;"
d="M 73.9250,92.8600
74.0207,92.8790
74.1018,92.9332
74.1560,93.0143
74.1750,93.1100
74.1750,93.6100
74.1560,93.7057
74.1018,93.7868
74.0207,93.8410
73.9250,93.8600
72.9750,93.8600
72.8793,93.8410
72.7982,93.7868
72.7440,93.7057
72.7250,93.6100
72.7250,93.1100
72.7440,93.0143
72.7982,92.9332
72.8793,92.8790
72.9750,92.8600
Z" /> 
</g>
<g style="fill:#000000; fill-opacity:1.0000; stroke:none;">
<circle cx="52.0000" cy="61.0000" r="0.7500" /> 
<path style="fill:#000000; fill-opacity:1.0000; stroke:none;fill-rule:evenodd;"
d="M 94.0000,100.1500
93.9043,100.1310
93.8232,100.0768
93.7690,99.9957
93.7500,99.9000
93.7500,99.4000
93.7690,99.3043
93.8232,99.2232
93.9043,99.1690
94.0000,99.1500
94.9500,99.1500
95.0457,99.1690
95.1268,99.2232
95.1810,99.3043
95.2000,99.4000
95.2000,99.9000
95.1810,99.9957
95.1268,100.0768
95.0457,100.1310
94.9500,100.1500
Z" /> 
<path style="fill:#000000; fill-opacity:1.0000; stroke:none;fill-rule:evenodd;"
d="M 94.0000,98.2500
93.9043,98.2310
93.8232,98.1768
93.7690,98.0957
93.7500,98.0000
93.7500,97.5000
93.7690,97.4043
93.8232,97.3232
93.9043,97.2690
94.0000,97.2500
94.9500,97.2500
95.0457,97.2690
95.1268,97.3232
95.1810,97.4043
95.2000,97.5000
95.2000,98.0000
95.1810,98.0957
95.1268,98.1768
95.0457,98.2310
94.9500,98.2500
Z" /> 
</g>
<g style="fill:#000000; fill-opacity:1.0000; stroke:none;">
<circle cx="110.0000" cy="61.0000" r="0.7500" /> 
<path style="fill:#000000; fill-opacity:1.0000; stroke:none;fill-rule:evenodd;"
d="M 68.8750,67.5000
68.8560,67.5957
68.8018,67.6768
68.7207,67.7310
68.6250,67.7500
68.1250,67.7500
68.0293,67.7310
67.9482,67.6768
67.8940,67.5957
67.8750,67.5000
67.8750,66.5500
67.8940,66.4543
67.9482,66.3732
68.0293,66.3190
68.1250,66.3000
68.6250,66.3000
68.7207,66.3190
68.8018,66.3732
68.8560,66.4543
68.8750,66.5500
Z" /> 
<path style="fill:#000000; fill-opacity:1.0000; stroke:none;fill-rule:evenodd;"
d="M 66.9750,67.5000
66.9560,67.5957
66.9018,67.6768
66.8207,67.7310
66.7250,67.7500
66.2250,67.7500
66.1293,67.7310
66.0482,67.6768
65.9940,67.5957
65.9750,67.5000
65.9750,66.5500
65.9940,66.4543
66.0482,66.3732
66.1293,66.3190
66.2250,66.3000
66.7250,66.3000
66.8207,66.3190
66.9018,66.3732
66.9560,66.4543
66.9750,66.5500
Z" /> 
<path style="fill:#000000; fill-opacity:1.0000; stroke:none;fill-rule:evenodd;"
d="M 102.0250,91.5025
101.9293,91.4835
101.8482,91.4293
101.7940,91.3482
101.7750,91.2525
101.7750,90.7275
101.7940,90.6318
101.8482,90.5507
101.9293,90.4965
102.0250,90.4775
102.9250,90.4775
103.0207,90.4965
103.1018,90.5507
103.1560,90.6318
103.1750,90.7275
103.1750,91.2525
103.1560,91.3482
103.1018,91.4293
103.0207,91.4835
102.9250,91.5025
Z" /> 
<path style="fill:#000000; fill-opacity:1.0000; stroke:none;fill-rule:evenodd;"
d="M 102.0250,89.6775
101.9293,89.6585
101.8482,89.6043
101.7940,89.5232
101.7750,89.4275
101.7750,88.9025
101.7940,88.8068
101.8482,88.7257
101.9293,88.6715
102.0250,88.6525
102.9250,88.6525
103.0207,88.6715
103.1018,88.7257
103.1560,88.8068
103.1750,88.9025
103.1750,89.4275
103.1560,89.5232
103.1018,89.6043
103.0207,89.6585
102.9250,89.6775
Z" /> 
<path style="fill:#000000; fill-opacity:1.0000; stroke:none;fill-rule:evenodd;"
d="M 87.9700,94.2450
87.9890,94.1493
88.0432,94.0682
88.1243,94.0140
88.2200,93.9950
88.7200,93.9950
88.8157,94.0140
88.8968,94.0682
88.9510,94.1493
88.9700,94.2450
88.9700,95.1950
88.9510,95.2907
88.8968,95.3718
88.8157,95.4260
88.7200,95.4450
88.2200,95.4450
88.1243,95.4260
88.0432,95.3718
87.9890,95.2907
87.9700,95.1950
Z" /> 
<path style="fill:#000000; fill-opacity:1.0000; stroke:none;fill-rule:evenodd;"
d="M 89.8700,94.2450
89.8890,94.1493
89.9432,94.0682
90.0243,94.0140
90.1200,93.9950
90.6200,93.9950
90.7157,94.0140
90.7968,94.0682
90.8510,94.1493
90.8700,94.2450
90.8700,95.1950
90.8510,95.2907
90.7968,95.3718
90.7157,95.4260
90.6200,95.4450
90.1200,95.4450
90.0243,95.4260
89.9432,95.3718
89.8890,95.2907
89.8700,95.1950
Z" /> 
<path style="fill:#000000; fill-opacity:1.0000; stroke:none;fill-rule:evenodd;"
d="M 71.9250,87.6050
72.0207,87.6240
72.1018,87.6782
72.1560,87.7593
72.1750,87.8550
72.1750,88.3800
72.1560,88.4757
72.1018,88.5568
72.0207,88.6110
71.9250,88.6300
71.0250,88.6300
70.9293,88.6110
70.8482,88.5568
70.7940,88.4757
70.7750,88.3800
70.7750,87.8550
70.7940,87.7593
70.8482,87.6782
70.9293,87.6240
71.0250,87.6050
Z" /> 
<path style="fill:#000000; fill-opacity:1.0000; stroke:none;fill-rule:evenodd;"
d="M 71.9250,89.4300
72.0207,89.4490
72.1018,89.5032
72.1560,89.5843
72.1750,89.6800
72.1750,90.2050
72.1560,90.3007
72.1018,90.3818
72.0207,90.4360
71.9250,90.4550
71.0250,90.4550
70.9293,90.4360
70.8482,90.3818
70.7940,90.3007
70.7750,90.2050
70.7750,89.6800
70.7940,89.5843
70.8482,89.5032
70.9293,89.4490
71.0250,89.4300
Z" /> 
<path style="fill:#000000; fill-opacity:1.0000; stroke:none;fill-rule:evenodd;"
d="M 72.5500,81.0500
72.5690,80.9543
72.6232,80.8732
72.7043,80.8190
72.8000,80.8000
73.3000,80.8000
73.3957,80.8190
73.4768,80.8732
73.5310,80.9543
73.5500,81.0500
73.5500,82.0000
73.5310,82.0957
73.4768,82.1768
73.3957,82.2310
73.3000,82.2500
72.8000,82.2500
72.7043,82.2310
72.6232,82.1768
72.5690,82.0957
72.5500,82.0000
Z" /> 
<path style="fill:#000000; fill-opacity:1.0000; stroke:none;fill-rule:evenodd;"
d="M 74.4500,81.0500
74.4690,80.9543
74.5232,80.8732
74.6043,80.8190
74.7000,80.8000
75.2000,80.8000
75.2957,80.8190
75.3768,80.8732
75.4310,80.9543
75.4500,81.0500
75.4500,82.0000
75.4310,82.0957
75.3768,82.1768
75.2957,82.2310
75.2000,82.2500
74.7000,82.2500
74.6043,82.2310
74.5232,82.1768
74.4690,82.0957
74.4500,82.0000
Z" /> 
</g>
<g style="fill:#000000; fill-opacity:1.0000; stroke:none;">
<circle cx="60.9400" cy="104.0000" r="0.6000" /> 
</g>
<g style="fill:#000000; fill-opacity:1.0000; stroke:none;">
<circle cx="60.9400" cy="106.5000" r="0.6000" /> 
</g>
<g style="fill:#000000; fill-opacity:1.0000; stroke:none;">
<circle cx="65.9400" cy="99.0000" r="0.6000" /> 
</g>
<g style="fill:#000000; fill-opacity:1.0000; stroke:none;">
<circle cx="70.9400" cy="104.0000" r="0.6000" /> 
</g>
<g style="fill:#000000; fill-opacity:1.0000; stroke:none;">
<circle cx="70.9400" cy="106.5000" r="0.6000" /> 
</g>
<g style="fill:none; 
stroke:#000000; stroke-width:1.2000; stroke-opacity:1; 
stroke-linecap:round; stroke-linejoin:round;">
<path d="M60.9400 98.5000
L60.9400 99.5000
" />
</g>
<g style="fill:none; 
stroke:#000000; stroke-width:1.6000; stroke-opacity:1; 
stroke-linecap:round; stroke-linejoin:round;">
<path d="M63.4400 98.6500
L63.4400 99.3500
" />
</g>
<g style="fill:none; 
stroke:#000000; stroke-width:1.2000; stroke-opacity:1; 
stroke-linecap:round; stroke-linejoin:round;">
<path d="M65.4400 104.0000
L66.4400 104.0000
" />
<path d="M70.9400 99.5000
L70.9400 98.5000
" />
</g>
<g style="fill:none; 
stroke:#000000; stroke-width:1.6000; stroke-opacity:1; 
stroke-linecap:round; stroke-linejoin:round;">
<path d="M68.4400 99.4500
L68.4400 98.5500
" />
<path style="fill:#000000; fill-opacity:1.0000; stroke:none;fill-rule:evenodd;"
d="M 76.9650,95.5100
76.9460,95.6057
76.8918,95.6868
76.8107,95.7410
76.7150,95.7600
76.1900,95.7600
76.0943,95.7410
76.0132,95.6868
75.9590,95.6057
75.9400,95.5100
75.9400,94.6100
75.9590,94.5143
76.0132,94.4332
76.0943,94.3790
76.1900,94.3600
76.7150,94.3600
76.8107,94.3790
76.8918,94.4332
76.9460,94.5143
76.9650,94.6100
Z" /> 
<path style="fill:#000000; fill-opacity:1.0000; stroke:none;fill-rule:evenodd;"
d="M 75.1400,95.5100
75.1210,95.6057
75.0668,95.6868
74.9857,95.7410
74.8900,95.7600
74.3650,95.7600
74.2693,95.7410
74.1882,95.6868
74.1340,95.6057
74.1150,95.5100
74.1150,94.6100
74.1340,94.5143
74.1882,94.4332
74.2693,94.3790
74.3650,94.3600
74.8900,94.3600
74.9857,94.3790
75.0668,94.4332
75.1210,94.5143
75.1400,94.6100
Z" /> 
<path style="fill:#000000; fill-opacity:1.0000; stroke:none;fill-rule:evenodd;"
d="M 102.0050,88.1425
101.9093,88.1235
101.8282,88.0693
101.7740,87.9882
101.7550,87.8925
101.7550,87.3925
101.7740,87.2968
101.8282,87.2157
101.9093,87.1615
102.0050,87.1425
102.9550,87.1425
103.0507,87.1615
103.1318,87.2157
103.1860,87.2968
103.2050,87.3925
103.2050,87.8925
103.1860,87.9882
103.1318,88.0693
103.0507,88.1235
102.9550,88.1425
Z" /> 
<path style="fill:#000000; fill-opacity:1.0000; stroke:none;fill-rule:evenodd;"
d="M 102.0050,86.2425
101.9093,86.2235
101.8282,86.1693
101.7740,86.0882
101.7550,85.9925
101.7550,85.4925
101.7740,85.3968
101.8282,85.3157
101.9093,85.2615
102.0050,85.2425
102.9550,85.2425
103.0507,85.2615
103.1318,85.3157
103.1860,85.3968
103.2050,85.4925
103.2050,85.9925
103.1860,86.0882
103.1318,86.1693
103.0507,86.2235
102.9550,86.2425
Z" /> 
<path style="fill:#000000; fill-opacity:1.0000; stroke:none;fill-rule:evenodd;"
d="M 57.0550,77.3750
57.0740,77.2793
57.1282,77.1982
57.2093,77.1440
57.3050,77.1250
57.8300,77.1250
57.9257,77.1440
58.0068,77.1982
58.0610,77.2793
58.0800,77.3750
58.0800,78.2750
58.0610,78.3707
58.0068,78.4518
57.9257,78.5060
57.8300,78.5250
57.3050,78.5250
57.2093,78.5060
57.1282,78.4518
57.0740,78.3707
57.0550,78.2750
Z" /> 
<path style="fill:#000000; fill-opacity:1.0000; stroke:none;fill-rule:evenodd;"
d="M 58.8800,77.3750
58.8990,77.2793
58.9532,77.1982
59.0343,77.1440
59.1300,77.1250
59.6550,77.1250
59.7507,77.1440
59.8318,77.1982
59.8860,77.2793
59.9050,77.3750
59.9050,78.2750
59.8860,78.3707
59.8318,78.4518
59.7507,78.5060
59.6550,78.5250
59.1300,78.5250
59.0343,78.5060
58.9532,78.4518
58.8990,78.3707
58.8800,78.2750
Z" /> 
<path style="fill:#000000; fill-opacity:1.0000; stroke:none;fill-rule:evenodd;"
d="M 68.8500,61.2950
68.8310,61.3907
68.7768,61.4718
68.6957,61.5260
68.6000,61.5450
68.1000,61.5450
68.0043,61.5260
67.9232,61.4718
67.8690,61.3907
67.8500,61.2950
67.8500,60.3450
67.8690,60.2493
67.9232,60.1682
68.0043,60.1140
68.1000,60.0950
68.6000,60.0950
68.6957,60.1140
68.7768,60.1682
68.8310,60.2493
68.8500,60.3450
Z" /> 
<path style="fill:#000000; fill-opacity:1.0000; stroke:none;fill-rule:evenodd;"
d="M 66.9500,61.2950
66.9310,61.3907
66.8768,61.4718
66.7957,61.5260
66.7000,61.5450
66.2000,61.5450
66.1043,61.5260
66.0232,61.4718
65.9690,61.3907
65.9500,61.2950
65.9500,60.3450
65.9690,60.2493
66.0232,60.1682
66.1043,60.1140
66.2000,60.0950
66.7000,60.0950
66.7957,60.1140
66.8768,60.1682
66.9310,60.2493
66.9500,60.3450
Z" /> 
<path style="fill:#000000; fill-opacity:1.0000; stroke:none;fill-rule:evenodd;"
d="M 71.1750,80.2000
71.2707,80.2190
71.3518,80.2732
71.4060,80.3543
71.4250,80.4500
71.4250,80.9500
71.4060,81.0457
71.3518,81.1268
71.2707,81.1810
71.1750,81.2000
70.2250,81.2000
70.1293,81.1810
70.0482,81.1268
69.9940,81.0457
69.9750,80.9500
69.9750,80.4500
69.9940,80.3543
70.0482,80.2732
70.1293,80.2190
70.2250,80.2000
Z" /> 
<path style="fill:#000000; fill-opacity:1.0000; stroke:none;fill-rule:evenodd;"
d="M 71.1750,82.1000
71.2707,82.1190
71.3518,82.1732
71.4060,82.2543
71.4250,82.3500
71.4250,82.8500
71.4060,82.9457
71.3518,83.0268
71.2707,83.0810
71.1750,83.1000
70.2250,83.1000
70.1293,83.0810
70.0482,83.0268
69.9940,82.9457
69.9750,82.8500
69.9750,82.3500
69.9940,82.2543
70.0482,82.1732
70.1293,82.1190
70.2250,82.1000
Z" /> 
<path style="fill:#000000; fill-opacity:1.0000; stroke:none;fill-rule:evenodd;"
d="M 103.3400,63.0650
103.2443,63.0460
103.1632,62.9918
103.1090,62.9107
103.0900,62.8150
103.0900,62.2900
103.1090,62.1943
103.1632,62.1132
103.2443,62.0590
103.3400,62.0400
104.2400,62.0400
104.3357,62.0590
104.4168,62.1132
104.4710,62.1943
104.4900,62.2900
104.4900,62.8150
104.4710,62.9107
104.4168,62.9918
104.3357,63.0460
104.2400,63.0650
Z" /> 
<path style="fill:#000000; fill-opacity:1.0000; stroke:none;fill-rule:evenodd;"
d="M 103.3400,61.2400
103.2443,61.2210
103.1632,61.1668
103.1090,61.0857
103.0900,60.9900
103.0900,60.4650
103.1090,60.3693
103.1632,60.2882
103.2443,60.2340
103.3400,60.2150
104.2400,60.2150
104.3357,60.2340
104.4168,60.2882
104.4710,60.3693
104.4900,60.4650
104.4900,60.9900
104.4710,61.0857
104.4168,61.1668
104.3357,61.2210
104.2400,61.2400
Z" /> 
<path style="fill:#000000; fill-opacity:1.0000; stroke:none;fill-rule:evenodd;"
d="M 69.3000,75.2500
69.3190,75.1543
69.3732,75.0732
69.4543,75.0190
69.5500,75.0000
70.0500,75.0000
70.1457,75.0190
70.2268,75.0732
70.2810,75.1543
70.3000,75.2500
70.3000,76.2000
70.2810,76.2957
70.2268,76.3768
70.1457,76.4310
70.0500,76.4500
69.5500,76.4500
69.4543,76.4310
69.3732,76.3768
69.3190,76.2957
69.3000,76.2000
Z" /> 
<path style="fill:#000000; fill-opacity:1.0000; stroke:none;fill-rule:evenodd;"
d="M 71.2000,75.2500
71.2190,75.1543
71.2732,75.0732
71.3543,75.0190
71.4500,75.0000
71.9500,75.0000
72.0457,75.0190
72.1268,75.0732
72.1810,75.1543
72.2000,75.2500
72.2000,76.2000
72.1810,76.2957
72.1268,76.3768
72.0457,76.4310
71.9500,76.4500
71.4500,76.4500
71.3543,76.4310
71.2732,76.3768
71.2190,76.2957
71.2000,76.2000
Z" /> 
<path style="fill:#000000; fill-opacity:1.0000; stroke:none;fill-rule:evenodd;"
d="M 100.6500,86.9500
100.6310,87.0457
100.5768,87.1268
100.4957,87.1810
100.4000,87.2000
99.9000,87.2000
99.8043,87.1810
99.7232,87.1268
99.6690,87.0457
99.6500,86.9500
99.6500,86.0000
99.6690,85.9043
99.7232,85.8232
99.8043,85.7690
99.9000,85.7500
100.4000,85.7500
100.4957,85.7690
100.5768,85.8232
100.6310,85.9043
100.6500,86.0000
Z" /> 
<path style="fill:#000000; fill-opacity:1.0000; stroke:none;fill-rule:evenodd;"
d="M 98.7500,86.9500
98.7310,87.0457
98.6768,87.1268
98.5957,87.1810
98.5000,87.2000
98.0000,87.2000
97.9043,87.1810
97.8232,87.1268
97.7690,87.0457
97.7500,86.9500
97.7500,86.0000
97.7690,85.9043
97.8232,85.8232
97.9043,85.7690
98.0000,85.7500
98.5000,85.7500
98.5957,85.7690
98.6768,85.8232
98.7310,85.9043
98.7500,86.0000
Z" /> 
<path style="fill:#000000; fill-opacity:1.0000; stroke:none;fill-rule:evenodd;"
d="M 103.9650,88.1275
103.8693,88.1085
103.7882,88.0543
103.7340,87.9732
103.7150,87.8775
103.7150,87.3775
103.7340,87.2818
103.7882,87.2007
103.8693,87.1465
103.9650,87.1275
104.9150,87.1275
105.0107,87.1465
105.0918,87.2007
105.1460,87.2818
105.1650,87.3775
105.1650,87.8775
105.1460,87.9732
105.0918,88.0543
105.0107,88.1085
104.9150,88.1275
Z" /> 
<path style="fill:#000000; fill-opacity:1.0000; stroke:none;fill-rule:evenodd;"
d="M 103.9650,86.2275
103.8693,86.2085
103.7882,86.1543
103.7340,86.0732
103.7150,85.9775
103.7150,85.4775
103.7340,85.3818
103.7882,85.3007
103.8693,85.2465
103.9650,85.2275
104.9150,85.2275
105.0107,85.2465
105.0918,85.3007
105.1460,85.3818
105.1650,85.4775
105.1650,85.9775
105.1460,86.0732
105.0918,86.1543
105.0107,86.2085
104.9150,86.2275
Z" /> 
<path style="fill:#000000; fill-opacity:1.0000; stroke:none;fill-rule:evenodd;"
d="M 89.4000,77.0000
89.3810,77.0957
89.3268,77.1768
89.2457,77.2310
89.1500,77.2500
88.6250,77.2500
88.5293,77.2310
88.4482,77.1768
88.3940,77.0957
88.3750,77.0000
88.3750,76.1000
88.3940,76.0043
88.4482,75.9232
88.5293,75.8690
88.6250,75.8500
89.1500,75.8500
89.2457,75.8690
89.3268,75.9232
89.3810,76.0043
89.4000,76.1000
Z" /> 
<path style="fill:#000000; fill-opacity:1.0000; stroke:none;fill-rule:evenodd;"
d="M 87.5750,77.0000
87.5560,77.0957
87.5018,77.1768
87.4207,77.2310
87.3250,77.2500
86.8000,77.2500
86.7043,77.2310
86.6232,77.1768
86.5690,77.0957
86.5500,77.0000
86.5500,76.1000
86.5690,76.0043
86.6232,75.9232
86.7043,75.8690
86.8000,75.8500
87.3250,75.8500
87.4207,75.8690
87.5018,75.9232
87.5560,76.0043
87.5750,76.1000
Z" /> 
<path style="fill:#000000; fill-opacity:1.0000; stroke:none;fill-rule:evenodd;"
d="M 96.9750,96.4350
96.9560,96.5307
96.9018,96.6118
96.8207,96.6660
96.7250,96.6850
96.2250,96.6850
96.1293,96.6660
96.0482,96.6118
95.9940,96.5307
95.9750,96.4350
95.9750,95.4850
95.9940,95.3893
96.0482,95.3082
96.1293,95.2540
96.2250,95.2350
96.7250,95.2350
96.8207,95.2540
96.9018,95.3082
96.9560,95.3893
96.9750,95.4850
Z" /> 
<path style="fill:#000000; fill-opacity:1.0000; stroke:none;fill-rule:evenodd;"
d="M 95.0750,96.4350
95.0560,96.5307
95.0018,96.6118
94.9207,96.6660
94.8250,96.6850
94.3250,96.6850
94.2293,96.6660
94.1482,96.6118
94.0940,96.5307
94.0750,96.4350
94.0750,95.4850
94.0940,95.3893
94.1482,95.3082
94.2293,95.2540
94.3250,95.2350
94.8250,95.2350
94.9207,95.2540
95.0018,95.3082
95.0560,95.3893
95.0750,95.4850
Z" /> 
<path style="fill:#000000; fill-opacity:1.0000; stroke:none;fill-rule:evenodd;"
d="M 57.0800,79.2938
57.0986,79.2005
57.1514,79.1214
57.2305,79.0686
57.3237,79.0500
57.8112,79.0500
57.9045,79.0686
57.9836,79.1214
58.0364,79.2005
58.0550,79.2938
58.0550,80.2062
58.0364,80.2995
57.9836,80.3786
57.9045,80.4314
57.8112,80.4500
57.3237,80.4500
57.2305,80.4314
57.1514,80.3786
57.0986,80.2995
57.0800,80.2062
Z" /> 
<path style="fill:#000000; fill-opacity:1.0000; stroke:none;fill-rule:evenodd;"
d="M 58.9550,79.2938
58.9736,79.2005
59.0264,79.1214
59.1055,79.0686
59.1987,79.0500
59.6862,79.0500
59.7795,79.0686
59.8586,79.1214
59.9114,79.2005
59.9300,79.2938
59.9300,80.2062
59.9114,80.2995
59.8586,80.3786
59.7795,80.4314
59.6862,80.4500
59.1987,80.4500
59.1055,80.4314
59.0264,80.3786
58.9736,80.2995
58.9550,80.2062
Z" /> 
<path style="fill:#000000; fill-opacity:1.0000; stroke:none;fill-rule:evenodd;"
d="M 92.4375,94.6520
92.4136,94.6472
92.3933,94.6337
92.3798,94.6134
92.3750,94.5895
92.3750,93.8395
92.3798,93.8156
92.3933,93.7953
92.4136,93.7818
92.4375,93.7770
92.5625,93.7770
92.5864,93.7818
92.6067,93.7953
92.6202,93.8156
92.6250,93.8395
92.6250,94.5895
92.6202,94.6134
92.6067,94.6337
92.5864,94.6472
92.5625,94.6520
Z" /> 
<path style="fill:#000000; fill-opacity:1.0000; stroke:none;fill-rule:evenodd;"
d="M 92.9375,94.6520
92.9136,94.6472
92.8933,94.6337
92.8798,94.6134
92.8750,94.5895
92.8750,93.8395
92.8798,93.8156
92.8933,93.7953
92.9136,93.7818
92.9375,93.7770
93.0625,93.7770
93.0864,93.7818
93.1067,93.7953
93.1202,93.8156
93.1250,93.8395
93.1250,94.5895
93.1202,94.6134
93.1067,94.6337
93.0864,94.6472
93.0625,94.6520
Z" /> 
<path style="fill:#000000; fill-opacity:1.0000; stroke:none;fill-rule:evenodd;"
d="M 93.4375,94.6520
93.4136,94.6472
93.3933,94.6337
93.3798,94.6134
93.3750,94.5895
93.3750,93.8395
93.3798,93.8156
93.3933,93.7953
93.4136,93.7818
93.4375,93.7770
93.5625,93.7770
93.5864,93.7818
93.6067,93.7953
93.6202,93.8156
93.6250,93.8395
93.6250,94.5895
93.6202,94.6134
93.6067,94.6337
93.5864,94.6472
93.5625,94.6520
Z" /> 
<path style="fill:#000000; fill-opacity:1.0000; stroke:none;fill-rule:evenodd;"
d="M 93.9375,94.6520
93.9136,94.6472
93.8933,94.6337
93.8798,94.6134
93.8750,94.5895
93.8750,93.8395
93.8798,93.8156
93.8933,93.7953
93.9136,93.7818
93.9375,93.7770
94.0625,93.7770
94.0864,93.7818
94.1067,93.7953
94.1202,93.8156
94.1250,93.8395
94.1250,94.5895
94.1202,94.6134
94.1067,94.6337
94.0864,94.6472
94.0625,94.6520
Z" /> 
<path style="fill:#000000; fill-opacity:1.0000; stroke:none;fill-rule:evenodd;"
d="M 94.4375,94.6520
94.4136,94.6472
94.3933,94.6337
94.3798,94.6134
94.3750,94.5895
94.3750,93.8395
94.3798,93.8156
94.3933,93.7953
94.4136,93.7818
94.4375,93.7770
94.5625,93.7770
94.5864,93.7818
94.6067,93.7953
94.6202,93.8156
94.6250,93.8395
94.6250,94.5895
94.6202,94.6134
94.6067,94.6337
94.5864,94.6472
94.5625,94.6520
Z" /> 
<path style="fill:#000000; fill-opacity:1.0000; stroke:none;fill-rule:evenodd;"
d="M 94.9375,94.6520
94.9136,94.6472
94.8933,94.6337
94.8798,94.6134
94.8750,94.5895
94.8750,93.8395
94.8798,93.8156
94.8933,93.7953
94.9136,93.7818
94.9375,93.7770
95.0625,93.7770
95.0864,93.7818
95.1067,93.7953
95.1202,93.8156
95.1250,93.8395
95.1250,94.5895
95.1202,94.6134
95.1067,94.6337
95.0864,94.6472
95.0625,94.6520
Z" /> 
<path style="fill:#000000; fill-opacity:1.0000; stroke:none;fill-rule:evenodd;"
d="M 95.4375,94.6520
95.4136,94.6472
95.3933,94.6337
95.3798,94.6134
95.3750,94.5895
95.3750,93.8395
95.3798,93.8156
95.3933,93.7953
95.4136,93.7818
95.4375,93.7770
95.5625,93.7770
95.5864,93.7818
95.6067,93.7953
95.6202,93.8156
95.6250,93.8395
95.6250,94.5895
95.6202,94.6134
95.6067,94.6337
95.5864,94.6472
95.5625,94.6520
Z" /> 
<path style="fill:#000000; fill-opacity:1.0000; stroke:none;fill-rule:evenodd;"
d="M 95.9375,94.6520
95.9136,94.6472
95.8933,94.6337
95.8798,94.6134
95.8750,94.5895
95.8750,93.8395
95.8798,93.8156
95.8933,93.7953
95.9136,93.7818
95.9375,93.7770
96.0625,93.7770
96.0864,93.7818
96.1067,93.7953
96.1202,93.8156
96.1250,93.8395
96.1250,94.5895
96.1202,94.6134
96.1067,94.6337
96.0864,94.6472
96.0625,94.6520
Z" /> 
<path style="fill:#000000; fill-opacity:1.0000; stroke:none;fill-rule:evenodd;"
d="M 96.3125,93.6520
96.2886,93.6472
96.2683,93.6337
96.2548,93.6134
96.2500,93.5895
96.2500,93.4645
96.2548,93.4406
96.2683,93.4203
96.2886,93.4068
96.3125,93.4020
97.0625,93.4020
97.0864,93.4068
97.1067,93.4203
97.1202,93.4406
97.1250,93.4645
97.1250,93.5895
97.1202,93.6134
97.1067,93.6337
97.0864,93.6472
97.0625,93.6520
Z" /> 
<path style="fill:#000000; fill-opacity:1.0000; stroke:none;fill-rule:evenodd;"
d="M 96.3125,93.1520
96.2886,93.1472
96.2683,93.1337
96.2548,93.1134
96.2500,93.0895
96.2500,92.9645
96.2548,92.9406
96.2683,92.9203
96.2886,92.9068
96.3125,92.9020
97.0625,92.9020
97.0864,92.9068
97.1067,92.9203
97.1202,92.9406
97.1250,92.9645
97.1250,93.0895
97.1202,93.1134
97.1067,93.1337
97.0864,93.1472
97.0625,93.1520
Z" /> 
<path style="fill:#000000; fill-opacity:1.0000; stroke:none;fill-rule:evenodd;"
d="M 96.3125,92.6520
96.2886,92.6472
96.2683,92.6337
96.2548,92.6134
96.2500,92.5895
96.2500,92.4645
96.2548,92.4406
96.2683,92.4203
96.2886,92.4068
96.3125,92.4020
97.0625,92.4020
97.0864,92.4068
97.1067,92.4203
97.1202,92.4406
97.1250,92.4645
97.1250,92.5895
97.1202,92.6134
97.1067,92.6337
97.0864,92.6472
97.0625,92.6520
Z" /> 
<path style="fill:#000000; fill-opacity:1.0000; stroke:none;fill-rule:evenodd;"
d="M 96.3125,92.1520
96.2886,92.1472
96.2683,92.1337
96.2548,92.1134
96.2500,92.0895
96.2500,91.9645
96.2548,91.9406
96.2683,91.9203
96.2886,91.9068
96.3125,91.9020
97.0625,91.9020
97.0864,91.9068
97.1067,91.9203
97.1202,91.9406
97.1250,91.9645
97.1250,92.0895
97.1202,92.1134
97.1067,92.1337
97.0864,92.1472
97.0625,92.1520
Z" /> 
<path style="fill:#000000; fill-opacity:1.0000; stroke:none;fill-rule:evenodd;"
d="M 96.3125,91.6520
96.2886,91.6472
96.2683,91.6337
96.2548,91.6134
96.2500,91.5895
96.2500,91.4645
96.2548,91.4406
96.2683,91.4203
96.2886,91.4068
96.3125,91.4020
97.0625,91.4020
97.0864,91.4068
97.1067,91.4203
97.1202,91.4406
97.1250,91.4645
97.1250,91.5895
97.1202,91.6134
97.1067,91.6337
97.0864,91.6472
97.0625,91.6520
Z" /> 
<path style="fill:#000000; fill-opacity:1.0000; stroke:none;fill-rule:evenodd;"
d="M 96.3125,91.1520
96.2886,91.1472
96.2683,91.1337
96.2548,91.1134
96.2500,91.0895
96.2500,90.9645
96.2548,90.9406
96.2683,90.9203
96.2886,90.9068
96.3125,90.9020
97.0625,90.9020
97.0864,90.9068
97.1067,90.9203
97.1202,90.9406
97.1250,90.9645
97.1250,91.0895
97.1202,91.1134
97.1067,91.1337
97.0864,91.1472
97.0625,91.1520
Z" /> 
<path style="fill:#000000; fill-opacity:1.0000; stroke:none;fill-rule:evenodd;"
d="M 96.3125,90.6520
96.2886,90.6472
96.2683,90.6337
96.2548,90.6134
96.2500,90.5895
96.2500,90.4645
96.2548,90.4406
96.2683,90.4203
96.2886,90.4068
96.3125,90.4020
97.0625,90.4020
97.0864,90.4068
97.1067,90.4203
97.1202,90.4406
97.1250,90.4645
97.1250,90.5895
97.1202,90.6134
97.1067,90.6337
97.0864,90.6472
97.0625,90.6520
Z" /> 
<path style="fill:#000000; fill-opacity:1.0000; stroke:none;fill-rule:evenodd;"
d="M 96.3125,90.1520
96.2886,90.1472
96.2683,90.1337
96.2548,90.1134
96.2500,90.0895
96.2500,89.9645
96.2548,89.9406
96.2683,89.9203
96.2886,89.9068
96.3125,89.9020
97.0625,89.9020
97.0864,89.9068
97.1067,89.9203
97.1202,89.9406
97.1250,89.9645
97.1250,90.0895
97.1202,90.1134
97.1067,90.1337
97.0864,90.1472
97.0625,90.1520
Z" /> 
<path style="fill:#000000; fill-opacity:1.0000; stroke:none;fill-rule:evenodd;"
d="M 95.9375,89.7770
95.9136,89.7722
95.8933,89.7587
95.8798,89.7384
95.8750,89.7145
95.8750,88.9645
95.8798,88.9406
95.8933,88.9203
95.9136,88.9068
95.9375,88.9020
96.0625,88.9020
96.0864,88.9068
96.1067,88.9203
96.1202,88.9406
96.1250,88.9645
96.1250,89.7145
96.1202,89.7384
96.1067,89.7587
96.0864,89.7722
96.0625,89.7770
Z" /> 
<path style="fill:#000000; fill-opacity:1.0000; stroke:none;fill-rule:evenodd;"
d="M 95.4375,89.7770
95.4136,89.7722
95.3933,89.7587
95.3798,89.7384
95.3750,89.7145
95.3750,88.9645
95.3798,88.9406
95.3933,88.9203
95.4136,88.9068
95.4375,88.9020
95.5625,88.9020
95.5864,88.9068
95.6067,88.9203
95.6202,88.9406
95.6250,88.9645
95.6250,89.7145
95.6202,89.7384
95.6067,89.7587
95.5864,89.7722
95.5625,89.7770
Z" /> 
<path style="fill:#000000; fill-opacity:1.0000; stroke:none;fill-rule:evenodd;"
d="M 94.9375,89.7770
94.9136,89.7722
94.8933,89.7587
94.8798,89.7384
94.8750,89.7145
94.8750,88.9645
94.8798,88.9406
94.8933,88.9203
94.9136,88.9068
94.9375,88.9020
95.0625,88.9020
95.0864,88.9068
95.1067,88.9203
95.1202,88.9406
95.1250,88.9645
95.1250,89.7145
95.1202,89.7384
95.1067,89.7587
95.0864,89.7722
95.0625,89.7770
Z" /> 
<path style="fill:#000000; fill-opacity:1.0000; stroke:none;fill-rule:evenodd;"
d="M 94.4375,89.7770
94.4136,89.7722
94.3933,89.7587
94.3798,89.7384
94.3750,89.7145
94.3750,88.9645
94.3798,88.9406
94.3933,88.9203
94.4136,88.9068
94.4375,88.9020
94.5625,88.9020
94.5864,88.9068
94.6067,88.9203
94.6202,88.9406
94.6250,88.9645
94.6250,89.7145
94.6202,89.7384
94.6067,89.7587
94.5864,89.7722
94.5625,89.7770
Z" /> 
<path style="fill:#000000; fill-opacity:1.0000; stroke:none;fill-rule:evenodd;"
d="M 93.9375,89.7770
93.9136,89.7722
93.8933,89.7587
93.8798,89.7384
93.8750,89.7145
93.8750,88.9645
93.8798,88.9406
93.8933,88.9203
93.9136,88.9068
93.9375,88.9020
94.0625,88.9020
94.0864,88.9068
94.1067,88.9203
94.1202,88.9406
94.1250,88.9645
94.1250,89.7145
94.1202,89.7384
94.1067,89.7587
94.0864,89.7722
94.0625,89.7770
Z" /> 
<path style="fill:#000000; fill-opacity:1.0000; stroke:none;fill-rule:evenodd;"
d="M 93.4375,89.7770
93.4136,89.7722
93.3933,89.7587
93.3798,89.7384
93.3750,89.7145
93.3750,88.9645
93.3798,88.9406
93.3933,88.9203
93.4136,88.9068
93.4375,88.9020
93.5625,88.9020
93.5864,88.9068
93.6067,88.9203
93.6202,88.9406
93.6250,88.9645
93.6250,89.7145
93.6202,89.7384
93.6067,89.7587
93.5864,89.7722
93.5625,89.7770
Z" /> 
<path style="fill:#000000; fill-opacity:1.0000; stroke:none;fill-rule:evenodd;"
d="M 92.9375,89.7770
92.9136,89.7722
92.8933,89.7587
92.8798,89.7384
92.8750,89.7145
92.8750,88.9645
92.8798,88.9406
92.8933,88.9203
92.9136,88.9068
92.9375,88.9020
93.0625,88.9020
93.0864,88.9068
93.1067,88.9203
93.1202,88.9406
93.1250,88.9645
93.1250,89.7145
93.1202,89.7384
93.1067,89.7587
93.0864,89.7722
93.0625,89.7770
Z" /> 
<path style="fill:#000000; fill-opacity:1.0000; stroke:none;fill-rule:evenodd;"
d="M 92.4375,89.7770
92.4136,89.7722
92.3933,89.7587
92.3798,89.7384
92.3750,89.7145
92.3750,88.9645
92.3798,88.9406
92.3933,88.9203
92.4136,88.9068
92.4375,88.9020
92.5625,88.9020
92.5864,88.9068
92.6067,88.9203
92.6202,88.9406
92.6250,88.9645
92.6250,89.7145
92.6202,89.7384
92.6067,89.7587
92.5864,89.7722
92.5625,89.7770
Z" /> 
<path style="fill:#000000; fill-opacity:1.0000; stroke:none;fill-rule:evenodd;"
d="M 91.4375,90.1520
91.4136,90.1472
91.3933,90.1337
91.3798,90.1134
91.3750,90.0895
91.3750,89.9645
91.3798,89.9406
91.3933,89.9203
91.4136,89.9068
91.4375,89.9020
92.1875,89.9020
92.2114,89.9068
92.2317,89.9203
92.2452,89.9406
92.2500,89.9645
92.2500,90.0895
92.2452,90.1134
92.2317,90.1337
92.2114,90.1472
92.1875,90.1520
Z" /> 
<path style="fill:#000000; fill-opacity:1.0000; stroke:none;fill-rule:evenodd;"
d="M 91.4375,90.6520
91.4136,90.6472
91.3933,90.6337
91.3798,90.6134
91.3750,90.5895
91.3750,90.4645
91.3798,90.4406
91.3933,90.4203
91.4136,90.4068
91.4375,90.4020
92.1875,90.4020
92.2114,90.4068
92.2317,90.4203
92.2452,90.4406
92.2500,90.4645
92.2500,90.5895
92.2452,90.6134
92.2317,90.6337
92.2114,90.6472
92.1875,90.6520
Z" /> 
<path style="fill:#000000; fill-opacity:1.0000; stroke:none;fill-rule:evenodd;"
d="M 91.4375,91.1520
91.4136,91.1472
91.3933,91.1337
91.3798,91.1134
91.3750,91.0895
91.3750,90.9645
91.3798,90.9406
91.3933,90.9203
91.4136,90.9068
91.4375,90.9020
92.1875,90.9020
92.2114,90.9068
92.2317,90.9203
92.2452,90.9406
92.2500,90.9645
92.2500,91.0895
92.2452,91.1134
92.2317,91.1337
92.2114,91.1472
92.1875,91.1520
Z" /> 
<path style="fill:#000000; fill-opacity:1.0000; stroke:none;fill-rule:evenodd;"
d="M 91.4375,91.6520
91.4136,91.6472
91.3933,91.6337
91.3798,91.6134
91.3750,91.5895
91.3750,91.4645
91.3798,91.4406
91.3933,91.4203
91.4136,91.4068
91.4375,91.4020
92.1875,91.4020
92.2114,91.4068
92.2317,91.4203
92.2452,91.4406
92.2500,91.4645
92.2500,91.5895
92.2452,91.6134
92.2317,91.6337
92.2114,91.6472
92.1875,91.6520
Z" /> 
<path style="fill:#000000; fill-opacity:1.0000; stroke:none;fill-rule:evenodd;"
d="M 91.4375,92.1520
91.4136,92.1472
91.3933,92.1337
91.3798,92.1134
91.3750,92.0895
91.3750,91.9645
91.3798,91.9406
91.3933,91.9203
91.4136,91.9068
91.4375,91.9020
92.1875,91.9020
92.2114,91.9068
92.2317,91.9203
92.2452,91.9406
92.2500,91.9645
92.2500,92.0895
92.2452,92.1134
92.2317,92.1337
92.2114,92.1472
92.1875,92.1520
Z" /> 
<path style="fill:#000000; fill-opacity:1.0000; stroke:none;fill-rule:evenodd;"
d="M 91.4375,92.6520
91.4136,92.6472
91.3933,92.6337
91.3798,92.6134
91.3750,92.5895
91.3750,92.4645
91.3798,92.4406
91.3933,92.4203
91.4136,92.4068
91.4375,92.4020
92.1875,92.4020
92.2114,92.4068
92.2317,92.4203
92.2452,92.4406
92.2500,92.4645
92.2500,92.5895
92.2452,92.6134
92.2317,92.6337
92.2114,92.6472
92.1875,92.6520
Z" /> 
<path style="fill:#000000; fill-opacity:1.0000; stroke:none;fill-rule:evenodd;"
d="M 91.4375,93.1520
91.4136,93.1472
91.3933,93.1337
91.3798,93.1134
91.3750,93.0895
91.3750,92.9645
91.3798,92.9406
91.3933,92.9203
91.4136,92.9068
91.4375,92.9020
92.1875,92.9020
92.2114,92.9068
92.2317,92.9203
92.2452,92.9406
92.2500,92.9645
92.2500,93.0895
92.2452,93.1134
92.2317,93.1337
92.2114,93.1472
92.1875,93.1520
Z" /> 
<path style="fill:#000000; fill-opacity:1.0000; stroke:none;fill-rule:evenodd;"
d="M 91.4375,93.6520
91.4136,93.6472
91.3933,93.6337
91.3798,93.6134
91.3750,93.5895
91.3750,93.4645
91.3798,93.4406
91.3933,93.4203
91.4136,93.4068
91.4375,93.4020
92.1875,93.4020
92.2114,93.4068
92.2317,93.4203
92.2452,93.4406
92.2500,93.4645
92.2500,93.5895
92.2452,93.6134
92.2317,93.6337
92.2114,93.6472
92.1875,93.6520
Z" /> 
<path style="fill:#000000; fill-opacity:1.0000; stroke:none;fill-rule:evenodd;"
d="M 95.8000,93.3270
92.7000,93.3270
92.7000,90.2270
95.8000,90.2270
Z" /> 
<path style="fill:#000000; fill-opacity:1.0000; stroke:none;fill-rule:evenodd;"
d="M 100.4000,81.3250
100.4574,81.3364
100.5061,81.3689
100.5386,81.4176
100.5500,81.4750
100.5500,82.5000
100.5386,82.5574
100.5061,82.6061
100.4574,82.6386
100.4000,82.6500
100.1000,82.6500
100.0426,82.6386
99.9939,82.6061
99.9614,82.5574
99.9500,82.5000
99.9500,81.4750
99.9614,81.4176
99.9939,81.3689
100.0426,81.3364
100.1000,81.3250
Z" /> 
<path style="fill:#000000; fill-opacity:1.0000; stroke:none;fill-rule:evenodd;"
d="M 99.4500,81.3250
99.5074,81.3364
99.5561,81.3689
99.5886,81.4176
99.6000,81.4750
99.6000,82.5000
99.5886,82.5574
99.5561,82.6061
99.5074,82.6386
99.4500,82.6500
99.1500,82.6500
99.0926,82.6386
99.0439,82.6061
99.0114,82.5574
99.0000,82.5000
99.0000,81.4750
99.0114,81.4176
99.0439,81.3689
99.0926,81.3364
99.1500,81.3250
Z" /> 
<path style="fill:#000000; fill-opacity:1.0000; stroke:none;fill-rule:evenodd;"
d="M 98.5000,81.3250
98.5574,81.3364
98.6061,81.3689
98.6386,81.4176
98.6500,81.4750
98.6500,82.5000
98.6386,82.5574
98.6061,82.6061
98.5574,82.6386
98.5000,82.6500
98.2000,82.6500
98.1426,82.6386
98.0939,82.6061
98.0614,82.5574
98.0500,82.5000
98.0500,81.4750
98.0614,81.4176
98.0939,81.3689
98.1426,81.3364
98.2000,81.3250
Z" /> 
<path style="fill:#000000; fill-opacity:1.0000; stroke:none;fill-rule:evenodd;"
d="M 98.5000,83.6000
98.5574,83.6114
98.6061,83.6439
98.6386,83.6926
98.6500,83.7500
98.6500,84.7750
98.6386,84.8324
98.6061,84.8811
98.5574,84.9136
98.5000,84.9250
98.2000,84.9250
98.1426,84.9136
98.0939,84.8811
98.0614,84.8324
98.0500,84.7750
98.0500,83.7500
98.0614,83.6926
98.0939,83.6439
98.1426,83.6114
98.2000,83.6000
Z" /> 
<path style="fill:#000000; fill-opacity:1.0000; stroke:none;fill-rule:evenodd;"
d="M 100.4000,83.6000
100.4574,83.6114
100.5061,83.6439
100.5386,83.6926
100.5500,83.7500
100.5500,84.7750
100.5386,84.8324
100.5061,84.8811
100.4574,84.9136
100.4000,84.9250
100.1000,84.9250
100.0426,84.9136
99.9939,84.8811
99.9614,84.8324
99.9500,84.7750
99.9500,83.7500
99.9614,83.6926
99.9939,83.6439
100.0426,83.6114
100.1000,83.6000
Z" /> 
<path style="fill:#000000; fill-opacity:1.0000; stroke:none;fill-rule:evenodd;"
d="M 76.3500,75.8750
76.3310,75.9707
76.2768,76.0518
76.1957,76.1060
76.1000,76.1250
75.6000,76.1250
75.5043,76.1060
75.4232,76.0518
75.3690,75.9707
75.3500,75.8750
75.3500,74.9250
75.3690,74.8293
75.4232,74.7482
75.5043,74.6940
75.6000,74.6750
76.1000,74.6750
76.1957,74.6940
76.2768,74.7482
76.3310,74.8293
76.3500,74.9250
Z" /> 
<path style="fill:#000000; fill-opacity:1.0000; stroke:none;fill-rule:evenodd;"
d="M 74.4500,75.8750
74.4310,75.9707
74.3768,76.0518
74.2957,76.1060
74.2000,76.1250
73.7000,76.1250
73.6043,76.1060
73.5232,76.0518
73.4690,75.9707
73.4500,75.8750
73.4500,74.9250
73.4690,74.8293
73.5232,74.7482
73.6043,74.6940
73.7000,74.6750
74.2000,74.6750
74.2957,74.6940
74.3768,74.7482
74.4310,74.8293
74.4500,74.9250
Z" /> 
<path style="fill:#000000; fill-opacity:1.0000; stroke:none;fill-rule:evenodd;"
d="M 82.1550,85.2700
82.1740,85.1743
82.2282,85.0932
82.3093,85.0390
82.4050,85.0200
82.9300,85.0200
83.0257,85.0390
83.1068,85.0932
83.1610,85.1743
83.1800,85.2700
83.1800,86.1700
83.1610,86.2657
83.1068,86.3468
83.0257,86.4010
82.9300,86.4200
82.4050,86.4200
82.3093,86.4010
82.2282,86.3468
82.1740,86.2657
82.1550,86.1700
Z" /> 
<path style="fill:#000000; fill-opacity:1.0000; stroke:none;fill-rule:evenodd;"
d="M 83.9800,85.2700
83.9990,85.1743
84.0532,85.0932
84.1343,85.0390
84.2300,85.0200
84.7550,85.0200
84.8507,85.0390
84.9318,85.0932
84.9860,85.1743
85.0050,85.2700
85.0050,86.1700
84.9860,86.2657
84.9318,86.3468
84.8507,86.4010
84.7550,86.4200
84.2300,86.4200
84.1343,86.4010
84.0532,86.3468
83.9990,86.2657
83.9800,86.1700
Z" /> 
<path style="fill:#000000; fill-opacity:1.0000; stroke:none;fill-rule:evenodd;"
d="M 104.2500,82.9500
104.7500,82.9500
104.7500,82.9551
104.8212,82.9551
104.9577,82.9952
105.0774,83.0721
105.1706,83.1797
105.2297,83.3091
105.2500,83.4500
105.2500,83.9500
105.2297,84.0909
105.1706,84.2203
105.0774,84.3279
104.9577,84.4048
104.8212,84.4449
104.7500,84.4449
104.7500,84.4500
104.2500,84.4500
Z" /> 
<path style="fill:#000000; fill-opacity:1.0000; stroke:none;fill-rule:evenodd;"
d="M 103.4500,84.4449
103.3788,84.4449
103.2423,84.4048
103.1226,84.3279
103.0294,84.2203
102.9703,84.0909
102.9500,83.9500
102.9500,83.4500
102.9703,83.3091
103.0294,83.1797
103.1226,83.0721
103.2423,82.9952
103.3788,82.9551
103.4500,82.9551
103.4500,82.9500
103.9500,82.9500
103.9500,84.4500
103.4500,84.4500
Z" /> 
<path style="fill:#000000; fill-opacity:1.0000; stroke:none;fill-rule:evenodd;"
d="M 60.5500,87.5850
60.6457,87.6040
60.7268,87.6582
60.7810,87.7393
60.8000,87.8350
60.8000,88.3600
60.7810,88.4557
60.7268,88.5368
60.6457,88.5910
60.5500,88.6100
59.6500,88.6100
59.5543,88.5910
59.4732,88.5368
59.4190,88.4557
59.4000,88.3600
59.4000,87.8350
59.4190,87.7393
59.4732,87.6582
59.5543,87.6040
59.6500,87.5850
Z" /> 
<path style="fill:#000000; fill-opacity:1.0000; stroke:none;fill-rule:evenodd;"
d="M 60.5500,89.4100
60.6457,89.4290
60.7268,89.4832
60.7810,89.5643
60.8000,89.6600
60.8000,90.1850
60.7810,90.2807
60.7268,90.3618
60.6457,90.4160
60.5500,90.4350
59.6500,90.4350
59.5543,90.4160
59.4732,90.3618
59.4190,90.2807
59.4000,90.1850
59.4000,89.6600
59.4190,89.5643
59.4732,89.4832
59.5543,89.4290
59.6500,89.4100
Z" /> 
<path style="fill:#000000; fill-opacity:1.0000; stroke:none;fill-rule:evenodd;"
d="M 73.9000,87.6050
73.9957,87.6240
74.0768,87.6782
74.1310,87.7593
74.1500,87.8550
74.1500,88.3800
74.1310,88.4757
74.0768,88.5568
73.9957,88.6110
73.9000,88.6300
73.0000,88.6300
72.9043,88.6110
72.8232,88.5568
72.7690,88.4757
72.7500,88.3800
72.7500,87.8550
72.7690,87.7593
72.8232,87.6782
72.9043,87.6240
73.0000,87.6050
Z" /> 
<path style="fill:#000000; fill-opacity:1.0000; stroke:none;fill-rule:evenodd;"
d="M 73.9000,89.4300
73.9957,89.4490
74.0768,89.5032
74.1310,89.5843
74.1500,89.6800
74.1500,90.2050
74.1310,90.3007
74.0768,90.3818
73.9957,90.4360
73.9000,90.4550
73.0000,90.4550
72.9043,90.4360
72.8232,90.3818
72.7690,90.3007
72.7500,90.2050
72.7500,89.6800
72.7690,89.5843
72.8232,89.5032
72.9043,89.4490
73.0000,89.4300
Z" /> 
<path style="fill:#000000; fill-opacity:1.0000; stroke:none;fill-rule:evenodd;"
d="M 62.5400,85.9050
62.5590,85.8093
62.6132,85.7282
62.6943,85.6740
62.7900,85.6550
63.2900,85.6550
63.3857,85.6740
63.4668,85.7282
63.5210,85.8093
63.5400,85.9050
63.5400,86.8550
63.5210,86.9507
63.4668,87.0318
63.3857,87.0860
63.2900,87.1050
62.7900,87.1050
62.6943,87.0860
62.6132,87.0318
62.5590,86.9507
62.5400,86.8550
Z" /> 
<path style="fill:#000000; fill-opacity:1.0000; stroke:none;fill-rule:evenodd;"
d="M 64.4400,85.9050
64.4590,85.8093
64.5132,85.7282
64.5943,85.6740
64.6900,85.6550
65.1900,85.6550
65.2857,85.6740
65.3668,85.7282
65.4210,85.8093
65.4400,85.9050
65.4400,86.8550
65.4210,86.9507
65.3668,87.0318
65.2857,87.0860
65.1900,87.1050
64.6900,87.1050
64.5943,87.0860
64.5132,87.0318
64.4590,86.9507
64.4400,86.8550
Z" /> 
<path style="fill:#000000; fill-opacity:1.0000; stroke:none;fill-rule:evenodd;"
d="M 97.7750,89.9750
97.7940,89.8793
97.8482,89.7982
97.9293,89.7440
98.0250,89.7250
98.5250,89.7250
98.6207,89.7440
98.7018,89.7982
98.7560,89.8793
98.7750,89.9750
98.7750,90.9250
98.7560,91.0207
98.7018,91.1018
98.6207,91.1560
98.5250,91.1750
98.0250,91.1750
97.9293,91.1560
97.8482,91.1018
97.7940,91.0207
97.7750,90.9250
Z" /> 
<path style="fill:#000000; fill-opacity:1.0000; stroke:none;fill-rule:evenodd;"
d="M 99.6750,89.9750
99.6940,89.8793
99.7482,89.7982
99.8293,89.7440
99.9250,89.7250
100.4250,89.7250
100.5207,89.7440
100.6018,89.7982
100.6560,89.8793
100.6750,89.9750
100.6750,90.9250
100.6560,91.0207
100.6018,91.1018
100.5207,91.1560
100.4250,91.1750
99.9250,91.1750
99.8293,91.1560
99.7482,91.1018
99.6940,91.0207
99.6750,90.9250
Z" /> 
<path style="fill:#000000; fill-opacity:1.0000; stroke:none;fill-rule:evenodd;"
d="M 104.9750,96.2800
105.0707,96.2990
105.1518,96.3532
105.2060,96.4343
105.2250,96.5300
105.2250,97.0300
105.2060,97.1257
105.1518,97.2068
105.0707,97.2610
104.9750,97.2800
104.0250,97.2800
103.9293,97.2610
103.8482,97.2068
103.7940,97.1257
103.7750,97.0300
103.7750,96.5300
103.7940,96.4343
103.8482,96.3532
103.9293,96.2990
104.0250,96.2800
Z" /> 
<path style="fill:#000000; fill-opacity:1.0000; stroke:none;fill-rule:evenodd;"
d="M 104.9750,98.1800
105.0707,98.1990
105.1518,98.2532
105.2060,98.3343
105.2250,98.4300
105.2250,98.9300
105.2060,99.0257
105.1518,99.1068
105.0707,99.1610
104.9750,99.1800
104.0250,99.1800
103.9293,99.1610
103.8482,99.1068
103.7940,99.0257
103.7750,98.9300
103.7750,98.4300
103.7940,98.3343
103.8482,98.2532
103.9293,98.1990
104.0250,98.1800
Z" /> 
<path style="fill:#000000; fill-opacity:1.0000; stroke:none;fill-rule:evenodd;"
d="M 96.2950,100.0900
96.1993,100.0710
96.1182,100.0168
96.0640,99.9357
96.0450,99.8400
96.0450,99.3400
96.0640,99.2443
96.1182,99.1632
96.1993,99.1090
96.2950,99.0900
97.2450,99.0900
97.3407,99.1090
97.4218,99.1632
97.4760,99.2443
97.4950,99.3400
97.4950,99.8400
97.4760,99.9357
97.4218,100.0168
97.3407,100.0710
97.2450,100.0900
Z" /> 
<path style="fill:#000000; fill-opacity:1.0000; stroke:none;fill-rule:evenodd;"
d="M 96.2950,98.1900
96.1993,98.1710
96.1182,98.1168
96.0640,98.0357
96.0450,97.9400
96.0450,97.4400
96.0640,97.3443
96.1182,97.2632
96.1993,97.2090
96.2950,97.1900
97.2450,97.1900
97.3407,97.2090
97.4218,97.2632
97.4760,97.3443
97.4950,97.4400
97.4950,97.9400
97.4760,98.0357
97.4218,98.1168
97.3407,98.1710
97.2450,98.1900
Z" /> 
<path style="fill:#000000; fill-opacity:1.0000; stroke:none;fill-rule:evenodd;"
d="M 82.1550,83.3200
82.1740,83.2243
82.2282,83.1432
82.3093,83.0890
82.4050,83.0700
82.9300,83.0700
83.0257,83.0890
83.1068,83.1432
83.1610,83.2243
83.1800,83.3200
83.1800,84.2200
83.1610,84.3157
83.1068,84.3968
83.0257,84.4510
82.9300,84.4700
82.4050,84.4700
82.3093,84.4510
82.2282,84.3968
82.1740,84.3157
82.1550,84.2200
Z" /> 
<path style="fill:#000000; fill-opacity:1.0000; stroke:none;fill-rule:evenodd;"
d="M 83.9800,83.3200
83.9990,83.2243
84.0532,83.1432
84.1343,83.0890
84.2300,83.0700
84.7550,83.0700
84.8507,83.0890
84.9318,83.1432
84.9860,83.2243
85.0050,83.3200
85.0050,84.2200
84.9860,84.3157
84.9318,84.3968
84.8507,84.4510
84.7550,84.4700
84.2300,84.4700
84.1343,84.4510
84.0532,84.3968
83.9990,84.3157
83.9800,84.2200
Z" /> 
</g>
<g style="fill:#000000; fill-opacity:1.0000; stroke:none;">
<circle cx="105.0000" cy="105.0000" r="0.7500" /> 
<path style="fill:#000000; fill-opacity:1.0000; stroke:none;fill-rule:evenodd;"
d="M 103.9900,91.5025
103.8943,91.4835
103.8132,91.4293
103.7590,91.3482
103.7400,91.2525
103.7400,90.7275
103.7590,90.6318
103.8132,90.5507
103.8943,90.4965
103.9900,90.4775
104.8900,90.4775
104.9857,90.4965
105.0668,90.5507
105.1210,90.6318
105.1400,90.7275
105.1400,91.2525
105.1210,91.3482
105.0668,91.4293
104.9857,91.4835
104.8900,91.5025
Z" /> 
<path style="fill:#000000; fill-opacity:1.0000; stroke:none;fill-rule:evenodd;"
d="M 103.9900,89.6775
103.8943,89.6585
103.8132,89.6043
103.7590,89.5232
103.7400,89.4275
103.7400,88.9025
103.7590,88.8068
103.8132,88.7257
103.8943,88.6715
103.9900,88.6525
104.8900,88.6525
104.9857,88.6715
105.0668,88.7257
105.1210,88.8068
105.1400,88.9025
105.1400,89.4275
105.1210,89.5232
105.0668,89.6043
104.9857,89.6585
104.8900,89.6775
Z" /> 
<path style="fill:#000000; fill-opacity:1.0000; stroke:none;fill-rule:evenodd;"
d="M 97.7750,87.9750
97.7940,87.8793
97.8482,87.7982
97.9293,87.7440
98.0250,87.7250
98.5250,87.7250
98.6207,87.7440
98.7018,87.7982
98.7560,87.8793
98.7750,87.9750
98.7750,88.9250
98.7560,89.0207
98.7018,89.1018
98.6207,89.1560
98.5250,89.1750
98.0250,89.1750
97.9293,89.1560
97.8482,89.1018
97.7940,89.0207
97.7750,88.9250
Z" /> 
<path style="fill:#000000; fill-opacity:1.0000; stroke:none;fill-rule:evenodd;"
d="M 99.6750,87.9750
99.6940,87.8793
99.7482,87.7982
99.8293,87.7440
99.9250,87.7250
100.4250,87.7250
100.5207,87.7440
100.6018,87.7982
100.6560,87.8793
100.6750,87.9750
100.6750,88.9250
100.6560,89.0207
100.6018,89.1018
100.5207,89.1560
100.4250,89.1750
99.9250,89.1750
99.8293,89.1560
99.7482,89.1018
99.6940,89.0207
99.6750,88.9250
Z" /> 
</g>
<g style="fill:#000000; fill-opacity:1.0000; stroke:none;">
<circle cx="80.1000" cy="104.0000" r="0.6000" /> 
</g>
<g style="fill:#000000; fill-opacity:1.0000; stroke:none;">
<circle cx="80.1000" cy="106.5000" r="0.6000" /> 
</g>
<g style="fill:#000000; fill-opacity:1.0000; stroke:none;">
<circle cx="85.1000" cy="99.0000" r="0.6000" /> 
</g>
<g style="fill:#000000; fill-opacity:1.0000; stroke:none;">
<circle cx="90.1000" cy="104.0000" r="0.6000" /> 
</g>
<g style="fill:#000000; fill-opacity:1.0000; stroke:none;">
<circle cx="90.1000" cy="106.5000" r="0.6000" /> 
</g>
<g style="fill:none; 
stroke:#000000; stroke-width:1.2000; stroke-opacity:1; 
stroke-linecap:round; stroke-linejoin:round;">
<path d="M80.1000 98.5000
L80.1000 99.5000
" />
</g>
<g style="fill:none; 
stroke:#000000; stroke-width:1.6000; stroke-opacity:1; 
stroke-linecap:round; stroke-linejoin:round;">
<path d="M82.6000 98.6500
L82.6000 99.3500
" />
</g>
<g style="fill:none; 
stroke:#000000; stroke-width:1.2000; stroke-opacity:1; 
stroke-linecap:round; stroke-linejoin:round;">
<path d="M84.6000 104.0000
L85.6000 104.0000
" />
<path d="M90.1000 99.5000
L90.1000 98.5000
" />
</g>
<g style="fill:none; 
stroke:#000000; stroke-width:1.6000; stroke-opacity:1; 
stroke-linecap:round; stroke-linejoin:round;">
<path d="M87.6000 99.4500
L87.6000 98.5500
" />
<path style="fill:#000000; fill-opacity:1.0000; stroke:none;fill-rule:evenodd;"
d="M 68.7000,84.8250
68.6943,84.8537
68.6780,84.8780
68.6537,84.8943
68.6250,84.9000
67.3000,84.9000
67.2713,84.8943
67.2470,84.8780
67.2307,84.8537
67.2250,84.8250
67.2250,84.6750
67.2307,84.6463
67.2470,84.6220
67.2713,84.6057
67.3000,84.6000
68.6250,84.6000
68.6537,84.6057
68.6780,84.6220
68.6943,84.6463
68.7000,84.6750
Z" /> 
<path style="fill:#000000; fill-opacity:1.0000; stroke:none;fill-rule:evenodd;"
d="M 68.7000,84.3250
68.6943,84.3537
68.6780,84.3780
68.6537,84.3943
68.6250,84.4000
67.3000,84.4000
67.2713,84.3943
67.2470,84.3780
67.2307,84.3537
67.2250,84.3250
67.2250,84.1750
67.2307,84.1463
67.2470,84.1220
67.2713,84.1057
67.3000,84.1000
68.6250,84.1000
68.6537,84.1057
68.6780,84.1220
68.6943,84.1463
68.7000,84.1750
Z" /> 
<path style="fill:#000000; fill-opacity:1.0000; stroke:none;fill-rule:evenodd;"
d="M 68.7000,83.8250
68.6943,83.8537
68.6780,83.8780
68.6537,83.8943
68.6250,83.9000
67.3000,83.9000
67.2713,83.8943
67.2470,83.8780
67.2307,83.8537
67.2250,83.8250
67.2250,83.6750
67.2307,83.6463
67.2470,83.6220
67.2713,83.6057
67.3000,83.6000
68.6250,83.6000
68.6537,83.6057
68.6780,83.6220
68.6943,83.6463
68.7000,83.6750
Z" /> 
<path style="fill:#000000; fill-opacity:1.0000; stroke:none;fill-rule:evenodd;"
d="M 68.7000,83.3250
68.6943,83.3537
68.6780,83.3780
68.6537,83.3943
68.6250,83.4000
67.3000,83.4000
67.2713,83.3943
67.2470,83.3780
67.2307,83.3537
67.2250,83.3250
67.2250,83.1750
67.2307,83.1463
67.2470,83.1220
67.2713,83.1057
67.3000,83.1000
68.6250,83.1000
68.6537,83.1057
68.6780,83.1220
68.6943,83.1463
68.7000,83.1750
Z" /> 
<path style="fill:#000000; fill-opacity:1.0000; stroke:none;fill-rule:evenodd;"
d="M 68.7000,82.8250
68.6943,82.8537
68.6780,82.8780
68.6537,82.8943
68.6250,82.9000
67.3000,82.9000
67.2713,82.8943
67.2470,82.8780
67.2307,82.8537
67.2250,82.8250
67.2250,82.6750
67.2307,82.6463
67.2470,82.6220
67.2713,82.6057
67.3000,82.6000
68.6250,82.6000
68.6537,82.6057
68.6780,82.6220
68.6943,82.6463
68.7000,82.6750
Z" /> 
<path style="fill:#000000; fill-opacity:1.0000; stroke:none;fill-rule:evenodd;"
d="M 68.7000,82.3250
68.6943,82.3537
68.6780,82.3780
68.6537,82.3943
68.6250,82.4000
67.3000,82.4000
67.2713,82.3943
67.2470,82.3780
67.2307,82.3537
67.2250,82.3250
67.2250,82.1750
67.2307,82.1463
67.2470,82.1220
67.2713,82.1057
67.3000,82.1000
68.6250,82.1000
68.6537,82.1057
68.6780,82.1220
68.6943,82.1463
68.7000,82.1750
Z" /> 
<path style="fill:#000000; fill-opacity:1.0000; stroke:none;fill-rule:evenodd;"
d="M 68.7000,81.8250
68.6943,81.8537
68.6780,81.8780
68.6537,81.8943
68.6250,81.9000
67.3000,81.9000
67.2713,81.8943
67.2470,81.8780
67.2307,81.8537
67.2250,81.8250
67.2250,81.6750
67.2307,81.6463
67.2470,81.6220
67.2713,81.6057
67.3000,81.6000
68.6250,81.6000
68.6537,81.6057
68.6780,81.6220
68.6943,81.6463
68.7000,81.6750
Z" /> 
<path style="fill:#000000; fill-opacity:1.0000; stroke:none;fill-rule:evenodd;"
d="M 68.7000,81.3250
68.6943,81.3537
68.6780,81.3780
68.6537,81.3943
68.6250,81.4000
67.3000,81.4000
67.2713,81.3943
67.2470,81.3780
67.2307,81.3537
67.2250,81.3250
67.2250,81.1750
67.2307,81.1463
67.2470,81.1220
67.2713,81.1057
67.3000,81.1000
68.6250,81.1000
68.6537,81.1057
68.6780,81.1220
68.6943,81.1463
68.7000,81.1750
Z" /> 
<path style="fill:#000000; fill-opacity:1.0000; stroke:none;fill-rule:evenodd;"
d="M 68.7000,80.8250
68.6943,80.8537
68.6780,80.8780
68.6537,80.8943
68.6250,80.9000
67.3000,80.9000
67.2713,80.8943
67.2470,80.8780
67.2307,80.8537
67.2250,80.8250
67.2250,80.6750
67.2307,80.6463
67.2470,80.6220
67.2713,80.6057
67.3000,80.6000
68.6250,80.6000
68.6537,80.6057
68.6780,80.6220
68.6943,80.6463
68.7000,80.6750
Z" /> 
<path style="fill:#000000; fill-opacity:1.0000; stroke:none;fill-rule:evenodd;"
d="M 68.7000,80.3250
68.6943,80.3537
68.6780,80.3780
68.6537,80.3943
68.6250,80.4000
67.3000,80.4000
67.2713,80.3943
67.2470,80.3780
67.2307,80.3537
67.2250,80.3250
67.2250,80.1750
67.2307,80.1463
67.2470,80.1220
67.2713,80.1057
67.3000,80.1000
68.6250,80.1000
68.6537,80.1057
68.6780,80.1220
68.6943,80.1463
68.7000,80.1750
Z" /> 
<path style="fill:#000000; fill-opacity:1.0000; stroke:none;fill-rule:evenodd;"
d="M 68.7000,79.8250
68.6943,79.8537
68.6780,79.8780
68.6537,79.8943
68.6250,79.9000
67.3000,79.9000
67.2713,79.8943
67.2470,79.8780
67.2307,79.8537
67.2250,79.8250
67.2250,79.6750
67.2307,79.6463
67.2470,79.6220
67.2713,79.6057
67.3000,79.6000
68.6250,79.6000
68.6537,79.6057
68.6780,79.6220
68.6943,79.6463
68.7000,79.6750
Z" /> 
<path style="fill:#000000; fill-opacity:1.0000; stroke:none;fill-rule:evenodd;"
d="M 68.7000,79.3250
68.6943,79.3537
68.6780,79.3780
68.6537,79.3943
68.6250,79.4000
67.3000,79.4000
67.2713,79.3943
67.2470,79.3780
67.2307,79.3537
67.2250,79.3250
67.2250,79.1750
67.2307,79.1463
67.2470,79.1220
67.2713,79.1057
67.3000,79.1000
68.6250,79.1000
68.6537,79.1057
68.6780,79.1220
68.6943,79.1463
68.7000,79.1750
Z" /> 
<path style="fill:#000000; fill-opacity:1.0000; stroke:none;fill-rule:evenodd;"
d="M 68.7000,78.8250
68.6943,78.8537
68.6780,78.8780
68.6537,78.8943
68.6250,78.9000
67.3000,78.9000
67.2713,78.8943
67.2470,78.8780
67.2307,78.8537
67.2250,78.8250
67.2250,78.6750
67.2307,78.6463
67.2470,78.6220
67.2713,78.6057
67.3000,78.6000
68.6250,78.6000
68.6537,78.6057
68.6780,78.6220
68.6943,78.6463
68.7000,78.6750
Z" /> 
<path style="fill:#000000; fill-opacity:1.0000; stroke:none;fill-rule:evenodd;"
d="M 68.7000,78.3250
68.6943,78.3537
68.6780,78.3780
68.6537,78.3943
68.6250,78.4000
67.3000,78.4000
67.2713,78.3943
67.2470,78.3780
67.2307,78.3537
67.2250,78.3250
67.2250,78.1750
67.2307,78.1463
67.2470,78.1220
67.2713,78.1057
67.3000,78.1000
68.6250,78.1000
68.6537,78.1057
68.6780,78.1220
68.6943,78.1463
68.7000,78.1750
Z" /> 
<path style="fill:#000000; fill-opacity:1.0000; stroke:none;fill-rule:evenodd;"
d="M 68.7000,77.8250
68.6943,77.8537
68.6780,77.8780
68.6537,77.8943
68.6250,77.9000
67.3000,77.9000
67.2713,77.8943
67.2470,77.8780
67.2307,77.8537
67.2250,77.8250
67.2250,77.6750
67.2307,77.6463
67.2470,77.6220
67.2713,77.6057
67.3000,77.6000
68.6250,77.6000
68.6537,77.6057
68.6780,77.6220
68.6943,77.6463
68.7000,77.6750
Z" /> 
<path style="fill:#000000; fill-opacity:1.0000; stroke:none;fill-rule:evenodd;"
d="M 62.9750,77.8250
62.9693,77.8537
62.9530,77.8780
62.9287,77.8943
62.9000,77.9000
61.5750,77.9000
61.5463,77.8943
61.5220,77.8780
61.5057,77.8537
61.5000,77.8250
61.5000,77.6750
61.5057,77.6463
61.5220,77.6220
61.5463,77.6057
61.5750,77.6000
62.9000,77.6000
62.9287,77.6057
62.9530,77.6220
62.9693,77.6463
62.9750,77.6750
Z" /> 
<path style="fill:#000000; fill-opacity:1.0000; stroke:none;fill-rule:evenodd;"
d="M 62.9750,78.3250
62.9693,78.3537
62.9530,78.3780
62.9287,78.3943
62.9000,78.4000
61.5750,78.4000
61.5463,78.3943
61.5220,78.3780
61.5057,78.3537
61.5000,78.3250
61.5000,78.1750
61.5057,78.1463
61.5220,78.1220
61.5463,78.1057
61.5750,78.1000
62.9000,78.1000
62.9287,78.1057
62.9530,78.1220
62.9693,78.1463
62.9750,78.1750
Z" /> 
<path style="fill:#000000; fill-opacity:1.0000; stroke:none;fill-rule:evenodd;"
d="M 62.9750,78.8250
62.9693,78.8537
62.9530,78.8780
62.9287,78.8943
62.9000,78.9000
61.5750,78.9000
61.5463,78.8943
61.5220,78.8780
61.5057,78.8537
61.5000,78.8250
61.5000,78.6750
61.5057,78.6463
61.5220,78.6220
61.5463,78.6057
61.5750,78.6000
62.9000,78.6000
62.9287,78.6057
62.9530,78.6220
62.9693,78.6463
62.9750,78.6750
Z" /> 
<path style="fill:#000000; fill-opacity:1.0000; stroke:none;fill-rule:evenodd;"
d="M 62.9750,79.3250
62.9693,79.3537
62.9530,79.3780
62.9287,79.3943
62.9000,79.4000
61.5750,79.4000
61.5463,79.3943
61.5220,79.3780
61.5057,79.3537
61.5000,79.3250
61.5000,79.1750
61.5057,79.1463
61.5220,79.1220
61.5463,79.1057
61.5750,79.1000
62.9000,79.1000
62.9287,79.1057
62.9530,79.1220
62.9693,79.1463
62.9750,79.1750
Z" /> 
<path style="fill:#000000; fill-opacity:1.0000; stroke:none;fill-rule:evenodd;"
d="M 62.9750,79.8250
62.9693,79.8537
62.9530,79.8780
62.9287,79.8943
62.9000,79.9000
61.5750,79.9000
61.5463,79.8943
61.5220,79.8780
61.5057,79.8537
61.5000,79.8250
61.5000,79.6750
61.5057,79.6463
61.5220,79.6220
61.5463,79.6057
61.5750,79.6000
62.9000,79.6000
62.9287,79.6057
62.9530,79.6220
62.9693,79.6463
62.9750,79.6750
Z" /> 
<path style="fill:#000000; fill-opacity:1.0000; stroke:none;fill-rule:evenodd;"
d="M 62.9750,80.3250
62.9693,80.3537
62.9530,80.3780
62.9287,80.3943
62.9000,80.4000
61.5750,80.4000
61.5463,80.3943
61.5220,80.3780
61.5057,80.3537
61.5000,80.3250
61.5000,80.1750
61.5057,80.1463
61.5220,80.1220
61.5463,80.1057
61.5750,80.1000
62.9000,80.1000
62.9287,80.1057
62.9530,80.1220
62.9693,80.1463
62.9750,80.1750
Z" /> 
<path style="fill:#000000; fill-opacity:1.0000; stroke:none;fill-rule:evenodd;"
d="M 62.9750,80.8250
62.9693,80.8537
62.9530,80.8780
62.9287,80.8943
62.9000,80.9000
61.5750,80.9000
61.5463,80.8943
61.5220,80.8780
61.5057,80.8537
61.5000,80.8250
61.5000,80.6750
61.5057,80.6463
61.5220,80.6220
61.5463,80.6057
61.5750,80.6000
62.9000,80.6000
62.9287,80.6057
62.9530,80.6220
62.9693,80.6463
62.9750,80.6750
Z" /> 
<path style="fill:#000000; fill-opacity:1.0000; stroke:none;fill-rule:evenodd;"
d="M 62.9750,81.3250
62.9693,81.3537
62.9530,81.3780
62.9287,81.3943
62.9000,81.4000
61.5750,81.4000
61.5463,81.3943
61.5220,81.3780
61.5057,81.3537
61.5000,81.3250
61.5000,81.1750
61.5057,81.1463
61.5220,81.1220
61.5463,81.1057
61.5750,81.1000
62.9000,81.1000
62.9287,81.1057
62.9530,81.1220
62.9693,81.1463
62.9750,81.1750
Z" /> 
<path style="fill:#000000; fill-opacity:1.0000; stroke:none;fill-rule:evenodd;"
d="M 62.9750,81.8250
62.9693,81.8537
62.9530,81.8780
62.9287,81.8943
62.9000,81.9000
61.5750,81.9000
61.5463,81.8943
61.5220,81.8780
61.5057,81.8537
61.5000,81.8250
61.5000,81.6750
61.5057,81.6463
61.5220,81.6220
61.5463,81.6057
61.5750,81.6000
62.9000,81.6000
62.9287,81.6057
62.9530,81.6220
62.9693,81.6463
62.9750,81.6750
Z" /> 
<path style="fill:#000000; fill-opacity:1.0000; stroke:none;fill-rule:evenodd;"
d="M 62.9750,82.3250
62.9693,82.3537
62.9530,82.3780
62.9287,82.3943
62.9000,82.4000
61.5750,82.4000
61.5463,82.3943
61.5220,82.3780
61.5057,82.3537
61.5000,82.3250
61.5000,82.1750
61.5057,82.1463
61.5220,82.1220
61.5463,82.1057
61.5750,82.1000
62.9000,82.1000
62.9287,82.1057
62.9530,82.1220
62.9693,82.1463
62.9750,82.1750
Z" /> 
<path style="fill:#000000; fill-opacity:1.0000; stroke:none;fill-rule:evenodd;"
d="M 62.9750,82.8250
62.9693,82.8537
62.9530,82.8780
62.9287,82.8943
62.9000,82.9000
61.5750,82.9000
61.5463,82.8943
61.5220,82.8780
61.5057,82.8537
61.5000,82.8250
61.5000,82.6750
61.5057,82.6463
61.5220,82.6220
61.5463,82.6057
61.5750,82.6000
62.9000,82.6000
62.9287,82.6057
62.9530,82.6220
62.9693,82.6463
62.9750,82.6750
Z" /> 
<path style="fill:#000000; fill-opacity:1.0000; stroke:none;fill-rule:evenodd;"
d="M 62.9750,83.3250
62.9693,83.3537
62.9530,83.3780
62.9287,83.3943
62.9000,83.4000
61.5750,83.4000
61.5463,83.3943
61.5220,83.3780
61.5057,83.3537
61.5000,83.3250
61.5000,83.1750
61.5057,83.1463
61.5220,83.1220
61.5463,83.1057
61.5750,83.1000
62.9000,83.1000
62.9287,83.1057
62.9530,83.1220
62.9693,83.1463
62.9750,83.1750
Z" /> 
<path style="fill:#000000; fill-opacity:1.0000; stroke:none;fill-rule:evenodd;"
d="M 62.9750,83.8250
62.9693,83.8537
62.9530,83.8780
62.9287,83.8943
62.9000,83.9000
61.5750,83.9000
61.5463,83.8943
61.5220,83.8780
61.5057,83.8537
61.5000,83.8250
61.5000,83.6750
61.5057,83.6463
61.5220,83.6220
61.5463,83.6057
61.5750,83.6000
62.9000,83.6000
62.9287,83.6057
62.9530,83.6220
62.9693,83.6463
62.9750,83.6750
Z" /> 
<path style="fill:#000000; fill-opacity:1.0000; stroke:none;fill-rule:evenodd;"
d="M 62.9750,84.3250
62.9693,84.3537
62.9530,84.3780
62.9287,84.3943
62.9000,84.4000
61.5750,84.4000
61.5463,84.3943
61.5220,84.3780
61.5057,84.3537
61.5000,84.3250
61.5000,84.1750
61.5057,84.1463
61.5220,84.1220
61.5463,84.1057
61.5750,84.1000
62.9000,84.1000
62.9287,84.1057
62.9530,84.1220
62.9693,84.1463
62.9750,84.1750
Z" /> 
<path style="fill:#000000; fill-opacity:1.0000; stroke:none;fill-rule:evenodd;"
d="M 62.9750,84.8250
62.9693,84.8537
62.9530,84.8780
62.9287,84.8943
62.9000,84.9000
61.5750,84.9000
61.5463,84.8943
61.5220,84.8780
61.5057,84.8537
61.5000,84.8250
61.5000,84.6750
61.5057,84.6463
61.5220,84.6220
61.5463,84.6057
61.5750,84.6000
62.9000,84.6000
62.9287,84.6057
62.9530,84.6220
62.9693,84.6463
62.9750,84.6750
Z" /> 
<path style="fill:#000000; fill-opacity:1.0000; stroke:none;fill-rule:evenodd;"
d="M 75.9500,76.6500
76.0074,76.6614
76.0561,76.6939
76.0886,76.7426
76.1000,76.8000
76.1000,77.8250
76.0886,77.8824
76.0561,77.9311
76.0074,77.9636
75.9500,77.9750
75.6500,77.9750
75.5926,77.9636
75.5439,77.9311
75.5114,77.8824
75.5000,77.8250
75.5000,76.8000
75.5114,76.7426
75.5439,76.6939
75.5926,76.6614
75.6500,76.6500
Z" /> 
<path style="fill:#000000; fill-opacity:1.0000; stroke:none;fill-rule:evenodd;"
d="M 75.0000,76.6500
75.0574,76.6614
75.1061,76.6939
75.1386,76.7426
75.1500,76.8000
75.1500,77.8250
75.1386,77.8824
75.1061,77.9311
75.0574,77.9636
75.0000,77.9750
74.7000,77.9750
74.6426,77.9636
74.5939,77.9311
74.5614,77.8824
74.5500,77.8250
74.5500,76.8000
74.5614,76.7426
74.5939,76.6939
74.6426,76.6614
74.7000,76.6500
Z" /> 
<path style="fill:#000000; fill-opacity:1.0000; stroke:none;fill-rule:evenodd;"
d="M 74.0500,76.6500
74.1074,76.6614
74.1561,76.6939
74.1886,76.7426
74.2000,76.8000
74.2000,77.8250
74.1886,77.8824
74.1561,77.9311
74.1074,77.9636
74.0500,77.9750
73.7500,77.9750
73.6926,77.9636
73.6439,77.9311
73.6114,77.8824
73.6000,77.8250
73.6000,76.8000
73.6114,76.7426
73.6439,76.6939
73.6926,76.6614
73.7500,76.6500
Z" /> 
<path style="fill:#000000; fill-opacity:1.0000; stroke:none;fill-rule:evenodd;"
d="M 74.0500,78.9250
74.1074,78.9364
74.1561,78.9689
74.1886,79.0176
74.2000,79.0750
74.2000,80.1000
74.1886,80.1574
74.1561,80.2061
74.1074,80.2386
74.0500,80.2500
73.7500,80.2500
73.6926,80.2386
73.6439,80.2061
73.6114,80.1574
73.6000,80.1000
73.6000,79.0750
73.6114,79.0176
73.6439,78.9689
73.6926,78.9364
73.7500,78.9250
Z" /> 
<path style="fill:#000000; fill-opacity:1.0000; stroke:none;fill-rule:evenodd;"
d="M 75.9500,78.9250
76.0074,78.9364
76.0561,78.9689
76.0886,79.0176
76.1000,79.0750
76.1000,80.1000
76.0886,80.1574
76.0561,80.2061
76.0074,80.2386
75.9500,80.2500
75.6500,80.2500
75.5926,80.2386
75.5439,80.2061
75.5114,80.1574
75.5000,80.1000
75.5000,79.0750
75.5114,79.0176
75.5439,78.9689
75.5926,78.9364
75.6500,78.9250
Z" /> 
<path style="fill:#000000; fill-opacity:1.0000; stroke:none;fill-rule:evenodd;"
d="M 80.8000,72.2950
80.7043,72.2760
80.6232,72.2218
80.5690,72.1407
80.5500,72.0450
80.5500,71.5200
80.5690,71.4243
80.6232,71.3432
80.7043,71.2890
80.8000,71.2700
81.7000,71.2700
81.7957,71.2890
81.8768,71.3432
81.9310,71.4243
81.9500,71.5200
81.9500,72.0450
81.9310,72.1407
81.8768,72.2218
81.7957,72.2760
81.7000,72.2950
Z" /> 
<path style="fill:#000000; fill-opacity:1.0000; stroke:none;fill-rule:evenodd;"
d="M 80.8000,70.4700
80.7043,70.4510
80.6232,70.3968
80.5690,70.3157
80.5500,70.2200
80.5500,69.6950
80.5690,69.5993
80.6232,69.5182
80.7043,69.4640
80.8000,69.4450
81.7000,69.4450
81.7957,69.4640
81.8768,69.5182
81.9310,69.5993
81.9500,69.6950
81.9500,70.2200
81.9310,70.3157
81.8768,70.3968
81.7957,70.4510
81.7000,70.4700
Z" /> 
<path style="fill:#000000; fill-opacity:1.0000; stroke:none;fill-rule:evenodd;"
d="M 82.3750,62.3250
82.2793,62.3060
82.1982,62.2518
82.1440,62.1707
82.1250,62.0750
82.1250,61.5750
82.1440,61.4793
82.1982,61.3982
82.2793,61.3440
82.3750,61.3250
83.3250,61.3250
83.4207,61.3440
83.5018,61.3982
83.5560,61.4793
83.5750,61.5750
83.5750,62.0750
83.5560,62.1707
83.5018,62.2518
83.4207,62.3060
83.3250,62.3250
Z" /> 
<path style="fill:#000000; fill-opacity:1.0000; stroke:none;fill-rule:evenodd;"
d="M 82.3750,60.4250
82.2793,60.4060
82.1982,60.3518
82.1440,60.2707
82.1250,60.1750
82.1250,59.6750
82.1440,59.5793
82.1982,59.4982
82.2793,59.4440
82.3750,59.4250
83.3250,59.4250
83.4207,59.4440
83.5018,59.4982
83.5560,59.5793
83.5750,59.6750
83.5750,60.1750
83.5560,60.2707
83.5018,60.3518
83.4207,60.4060
83.3250,60.4250
Z" /> 
<path style="fill:#000000; fill-opacity:1.0000; stroke:none;fill-rule:evenodd;"
d="M 69.4900,86.8650
69.4710,86.9607
69.4168,87.0418
69.3357,87.0960
69.2400,87.1150
68.7400,87.1150
68.6443,87.0960
68.5632,87.0418
68.5090,86.9607
68.4900,86.8650
68.4900,85.9150
68.5090,85.8193
68.5632,85.7382
68.6443,85.6840
68.7400,85.6650
69.2400,85.6650
69.3357,85.6840
69.4168,85.7382
69.4710,85.8193
69.4900,85.9150
Z" /> 
<path style="fill:#000000; fill-opacity:1.0000; stroke:none;fill-rule:evenodd;"
d="M 67.5900,86.8650
67.5710,86.9607
67.5168,87.0418
67.4357,87.0960
67.3400,87.1150
66.8400,87.1150
66.7443,87.0960
66.6632,87.0418
66.6090,86.9607
66.5900,86.8650
66.5900,85.9150
66.6090,85.8193
66.6632,85.7382
66.7443,85.6840
66.8400,85.6650
67.3400,85.6650
67.4357,85.6840
67.5168,85.7382
67.5710,85.8193
67.5900,85.9150
Z" /> 
<path style="fill:#000000; fill-opacity:1.0000; stroke:none;fill-rule:evenodd;"
d="M 58.5500,87.5850
58.6457,87.6040
58.7268,87.6582
58.7810,87.7393
58.8000,87.8350
58.8000,88.3600
58.7810,88.4557
58.7268,88.5368
58.6457,88.5910
58.5500,88.6100
57.6500,88.6100
57.5543,88.5910
57.4732,88.5368
57.4190,88.4557
57.4000,88.3600
57.4000,87.8350
57.4190,87.7393
57.4732,87.6582
57.5543,87.6040
57.6500,87.5850
Z" /> 
<path style="fill:#000000; fill-opacity:1.0000; stroke:none;fill-rule:evenodd;"
d="M 58.5500,89.4100
58.6457,89.4290
58.7268,89.4832
58.7810,89.5643
58.8000,89.6600
58.8000,90.1850
58.7810,90.2807
58.7268,90.3618
58.6457,90.4160
58.5500,90.4350
57.6500,90.4350
57.5543,90.4160
57.4732,90.3618
57.4190,90.2807
57.4000,90.1850
57.4000,89.6600
57.4190,89.5643
57.4732,89.4832
57.5543,89.4290
57.6500,89.4100
Z" /> 
<path style="fill:#000000; fill-opacity:1.0000; stroke:none;fill-rule:evenodd;"
d="M 87.0000,72.3450
86.9043,72.3260
86.8232,72.2718
86.7690,72.1907
86.7500,72.0950
86.7500,71.5700
86.7690,71.4743
86.8232,71.3932
86.9043,71.3390
87.0000,71.3200
87.9000,71.3200
87.9957,71.3390
88.0768,71.3932
88.1310,71.4743
88.1500,71.5700
88.1500,72.0950
88.1310,72.1907
88.0768,72.2718
87.9957,72.3260
87.9000,72.3450
Z" /> 
<path style="fill:#000000; fill-opacity:1.0000; stroke:none;fill-rule:evenodd;"
d="M 87.0000,70.5200
86.9043,70.5010
86.8232,70.4468
86.7690,70.3657
86.7500,70.2700
86.7500,69.7450
86.7690,69.6493
86.8232,69.5682
86.9043,69.5140
87.0000,69.4950
87.9000,69.4950
87.9957,69.5140
88.0768,69.5682
88.1310,69.6493
88.1500,69.7450
88.1500,70.2700
88.1310,70.3657
88.0768,70.4468
87.9957,70.5010
87.9000,70.5200
Z" /> 
<path style="fill:#000000; fill-opacity:1.0000; stroke:none;fill-rule:evenodd;"
d="M 92.0250,100.1500
91.9293,100.1310
91.8482,100.0768
91.7940,99.9957
91.7750,99.9000
91.7750,99.4000
91.7940,99.3043
91.8482,99.2232
91.9293,99.1690
92.0250,99.1500
92.9750,99.1500
93.0707,99.1690
93.1518,99.2232
93.2060,99.3043
93.2250,99.4000
93.2250,99.9000
93.2060,99.9957
93.1518,100.0768
93.0707,100.1310
92.9750,100.1500
Z" /> 
<path style="fill:#000000; fill-opacity:1.0000; stroke:none;fill-rule:evenodd;"
d="M 92.0250,98.2500
91.9293,98.2310
91.8482,98.1768
91.7940,98.0957
91.7750,98.0000
91.7750,97.5000
91.7940,97.4043
91.8482,97.3232
91.9293,97.2690
92.0250,97.2500
92.9750,97.2500
93.0707,97.2690
93.1518,97.3232
93.2060,97.4043
93.2250,97.5000
93.2250,98.0000
93.2060,98.0957
93.1518,98.1768
93.0707,98.2310
92.9750,98.2500
Z" /> 
<path style="fill:#000000; fill-opacity:1.0000; stroke:none;fill-rule:evenodd;"
d="M 104.9250,92.8800
105.0207,92.8990
105.1018,92.9532
105.1560,93.0343
105.1750,93.1300
105.1750,93.6550
105.1560,93.7507
105.1018,93.8318
105.0207,93.8860
104.9250,93.9050
104.0250,93.9050
103.9293,93.8860
103.8482,93.8318
103.7940,93.7507
103.7750,93.6550
103.7750,93.1300
103.7940,93.0343
103.8482,92.9532
103.9293,92.8990
104.0250,92.8800
Z" /> 
<path style="fill:#000000; fill-opacity:1.0000; stroke:none;fill-rule:evenodd;"
d="M 104.9250,94.7050
105.0207,94.7240
105.1018,94.7782
105.1560,94.8593
105.1750,94.9550
105.1750,95.4800
105.1560,95.5757
105.1018,95.6568
105.0207,95.7110
104.9250,95.7300
104.0250,95.7300
103.9293,95.7110
103.8482,95.6568
103.7940,95.5757
103.7750,95.4800
103.7750,94.9550
103.7940,94.8593
103.8482,94.7782
103.9293,94.7240
104.0250,94.7050
Z" /> 
<path style="fill:#000000; fill-opacity:1.0000; stroke:none;fill-rule:evenodd;"
d="M 92.1100,85.6950
92.0143,85.6760
91.9332,85.6218
91.8790,85.5407
91.8600,85.4450
91.8600,84.9200
91.8790,84.8243
91.9332,84.7432
92.0143,84.6890
92.1100,84.6700
93.0100,84.6700
93.1057,84.6890
93.1868,84.7432
93.2410,84.8243
93.2600,84.9200
93.2600,85.4450
93.2410,85.5407
93.1868,85.6218
93.1057,85.6760
93.0100,85.6950
Z" /> 
<path style="fill:#000000; fill-opacity:1.0000; stroke:none;fill-rule:evenodd;"
d="M 92.1100,83.8700
92.0143,83.8510
91.9332,83.7968
91.8790,83.7157
91.8600,83.6200
91.8600,83.0950
91.8790,82.9993
91.9332,82.9182
92.0143,82.8640
92.1100,82.8450
93.0100,82.8450
93.1057,82.8640
93.1868,82.9182
93.2410,82.9993
93.2600,83.0950
93.2600,83.6200
93.2410,83.7157
93.1868,83.7968
93.1057,83.8510
93.0100,83.8700
Z" /> 
<path style="fill:#000000; fill-opacity:1.0000; stroke:none;fill-rule:evenodd;"
d="M 97.8500,79.5250
97.8690,79.4293
97.9232,79.3482
98.0043,79.2940
98.1000,79.2750
98.6000,79.2750
98.6957,79.2940
98.7768,79.3482
98.8310,79.4293
98.8500,79.5250
98.8500,80.4750
98.8310,80.5707
98.7768,80.6518
98.6957,80.7060
98.6000,80.7250
98.1000,80.7250
98.0043,80.7060
97.9232,80.6518
97.8690,80.5707
97.8500,80.4750
Z" /> 
<path style="fill:#000000; fill-opacity:1.0000; stroke:none;fill-rule:evenodd;"
d="M 99.7500,79.5250
99.7690,79.4293
99.8232,79.3482
99.9043,79.2940
100.0000,79.2750
100.5000,79.2750
100.5957,79.2940
100.6768,79.3482
100.7310,79.4293
100.7500,79.5250
100.7500,80.4750
100.7310,80.5707
100.6768,80.6518
100.5957,80.7060
100.5000,80.7250
100.0000,80.7250
99.9043,80.7060
99.8232,80.6518
99.7690,80.5707
99.7500,80.4750
Z" /> 
<path style="fill:#000000; fill-opacity:1.0000; stroke:none;fill-rule:evenodd;"
d="M 91.6500,88.1500
91.6310,88.2457
91.5768,88.3268
91.4957,88.3810
91.4000,88.4000
90.8750,88.4000
90.7793,88.3810
90.6982,88.3268
90.6440,88.2457
90.6250,88.1500
90.6250,87.2500
90.6440,87.1543
90.6982,87.0732
90.7793,87.0190
90.8750,87.0000
91.4000,87.0000
91.4957,87.0190
91.5768,87.0732
91.6310,87.1543
91.6500,87.2500
Z" /> 
<path style="fill:#000000; fill-opacity:1.0000; stroke:none;fill-rule:evenodd;"
d="M 89.8250,88.1500
89.8060,88.2457
89.7518,88.3268
89.6707,88.3810
89.5750,88.4000
89.0500,88.4000
88.9543,88.3810
88.8732,88.3268
88.8190,88.2457
88.8000,88.1500
88.8000,87.2500
88.8190,87.1543
88.8732,87.0732
88.9543,87.0190
89.0500,87.0000
89.5750,87.0000
89.6707,87.0190
89.7518,87.0732
89.8060,87.1543
89.8250,87.2500
Z" /> 
<path style="fill:#000000; fill-opacity:1.0000; stroke:none;fill-rule:evenodd;"
d="M 57.9450,94.6400
57.9640,94.5443
58.0182,94.4632
58.0993,94.4090
58.1950,94.3900
58.7200,94.3900
58.8157,94.4090
58.8968,94.4632
58.9510,94.5443
58.9700,94.6400
58.9700,95.5400
58.9510,95.6357
58.8968,95.7168
58.8157,95.7710
58.7200,95.7900
58.1950,95.7900
58.0993,95.7710
58.0182,95.7168
57.9640,95.6357
57.9450,95.5400
Z" /> 
<path style="fill:#000000; fill-opacity:1.0000; stroke:none;fill-rule:evenodd;"
d="M 59.7700,94.6400
59.7890,94.5443
59.8432,94.4632
59.9243,94.4090
60.0200,94.3900
60.5450,94.3900
60.6407,94.4090
60.7218,94.4632
60.7760,94.5443
60.7950,94.6400
60.7950,95.5400
60.7760,95.6357
60.7218,95.7168
60.6407,95.7710
60.5450,95.7900
60.0200,95.7900
59.9243,95.7710
59.8432,95.7168
59.7890,95.6357
59.7700,95.5400
Z" /> 
<path style="fill:#000000; fill-opacity:1.0000; stroke:none;fill-rule:evenodd;"
d="M 73.5500,85.0250
73.5690,84.9293
73.6232,84.8482
73.7043,84.7940
73.8000,84.7750
74.3000,84.7750
74.3957,84.7940
74.4768,84.8482
74.5310,84.9293
74.5500,85.0250
74.5500,85.9750
74.5310,86.0707
74.4768,86.1518
74.3957,86.2060
74.3000,86.2250
73.8000,86.2250
73.7043,86.2060
73.6232,86.1518
73.5690,86.0707
73.5500,85.9750
Z" /> 
<path style="fill:#000000; fill-opacity:1.0000; stroke:none;fill-rule:evenodd;"
d="M 75.4500,85.0250
75.4690,84.9293
75.5232,84.8482
75.6043,84.7940
75.7000,84.7750
76.2000,84.7750
76.2957,84.7940
76.3768,84.8482
76.4310,84.9293
76.4500,85.0250
76.4500,85.9750
76.4310,86.0707
76.3768,86.1518
76.2957,86.2060
76.2000,86.2250
75.7000,86.2250
75.6043,86.2060
75.5232,86.1518
75.4690,86.0707
75.4500,85.9750
Z" /> 
<path style="fill:#000000; fill-opacity:1.0000; stroke:none;fill-rule:evenodd;"
d="M 88.2000,59.7250
88.2190,59.6293
88.2732,59.5482
88.3543,59.4940
88.4500,59.4750
88.9750,59.4750
89.0707,59.4940
89.1518,59.5482
89.2060,59.6293
89.2250,59.7250
89.2250,60.6250
89.2060,60.7207
89.1518,60.8018
89.0707,60.8560
88.9750,60.8750
88.4500,60.8750
88.3543,60.8560
88.2732,60.8018
88.2190,60.7207
88.2000,60.6250
Z" /> 
<path style="fill:#000000; fill-opacity:1.0000; stroke:none;fill-rule:evenodd;"
d="M 90.0250,59.7250
90.0440,59.6293
90.0982,59.5482
90.1793,59.4940
90.2750,59.4750
90.8000,59.4750
90.8957,59.4940
90.9768,59.5482
91.0310,59.6293
91.0500,59.7250
91.0500,60.6250
91.0310,60.7207
90.9768,60.8018
90.8957,60.8560
90.8000,60.8750
90.2750,60.8750
90.1793,60.8560
90.0982,60.8018
90.0440,60.7207
90.0250,60.6250
Z" /> 
<path style="fill:#000000; fill-opacity:1.0000; stroke:none;fill-rule:evenodd;"
d="M 99.9700,63.0550
99.8743,63.0360
99.7932,62.9818
99.7390,62.9007
99.7200,62.8050
99.7200,62.2800
99.7390,62.1843
99.7932,62.1032
99.8743,62.0490
99.9700,62.0300
100.8700,62.0300
100.9657,62.0490
101.0468,62.1032
101.1010,62.1843
101.1200,62.2800
101.1200,62.8050
101.1010,62.9007
101.0468,62.9818
100.9657,63.0360
100.8700,63.0550
Z" /> 
<path style="fill:#000000; fill-opacity:1.0000; stroke:none;fill-rule:evenodd;"
d="M 99.9700,61.2300
99.8743,61.2110
99.7932,61.1568
99.7390,61.0757
99.7200,60.9800
99.7200,60.4550
99.7390,60.3593
99.7932,60.2782
99.8743,60.2240
99.9700,60.2050
100.8700,60.2050
100.9657,60.2240
101.0468,60.2782
101.1010,60.3593
101.1200,60.4550
101.1200,60.9800
101.1010,61.0757
101.0468,61.1568
100.9657,61.2110
100.8700,61.2300
Z" /> 
<path style="fill:#000000; fill-opacity:1.0000; stroke:none;fill-rule:evenodd;"
d="M 72.5500,83.0500
72.5690,82.9543
72.6232,82.8732
72.7043,82.8190
72.8000,82.8000
73.3000,82.8000
73.3957,82.8190
73.4768,82.8732
73.5310,82.9543
73.5500,83.0500
73.5500,84.0000
73.5310,84.0957
73.4768,84.1768
73.3957,84.2310
73.3000,84.2500
72.8000,84.2500
72.7043,84.2310
72.6232,84.1768
72.5690,84.0957
72.5500,84.0000
Z" /> 
<path style="fill:#000000; fill-opacity:1.0000; stroke:none;fill-rule:evenodd;"
d="M 74.4500,83.0500
74.4690,82.9543
74.5232,82.8732
74.6043,82.8190
74.7000,82.8000
75.2000,82.8000
75.2957,82.8190
75.3768,82.8732
75.4310,82.9543
75.4500,83.0500
75.4500,84.0000
75.4310,84.0957
75.3768,84.1768
75.2957,84.2310
75.2000,84.2500
74.7000,84.2500
74.6043,84.2310
74.5232,84.1768
74.4690,84.0957
74.4500,84.0000
Z" /> 
<path style="fill:#000000; fill-opacity:1.0000; stroke:none;fill-rule:evenodd;"
d="M 58.5750,90.9800
58.6707,90.9990
58.7518,91.0532
58.8060,91.1343
58.8250,91.2300
58.8250,91.7300
58.8060,91.8257
58.7518,91.9068
58.6707,91.9610
58.5750,91.9800
57.6250,91.9800
57.5293,91.9610
57.4482,91.9068
57.3940,91.8257
57.3750,91.7300
57.3750,91.2300
57.3940,91.1343
57.4482,91.0532
57.5293,90.9990
57.6250,90.9800
Z" /> 
<path style="fill:#000000; fill-opacity:1.0000; stroke:none;fill-rule:evenodd;"
d="M 58.5750,92.8800
58.6707,92.8990
58.7518,92.9532
58.8060,93.0343
58.8250,93.1300
58.8250,93.6300
58.8060,93.7257
58.7518,93.8068
58.6707,93.8610
58.5750,93.8800
57.6250,93.8800
57.5293,93.8610
57.4482,93.8068
57.3940,93.7257
57.3750,93.6300
57.3750,93.1300
57.3940,93.0343
57.4482,92.9532
57.5293,92.8990
57.6250,92.8800
Z" /> 
<path style="fill:#000000; fill-opacity:1.0000; stroke:none;fill-rule:evenodd;"
d="M 54.5750,94.6400
54.5940,94.5443
54.6482,94.4632
54.7293,94.4090
54.8250,94.3900
55.3500,94.3900
55.4457,94.4090
55.5268,94.4632
55.5810,94.5443
55.6000,94.6400
55.6000,95.5400
55.5810,95.6357
55.5268,95.7168
55.4457,95.7710
55.3500,95.7900
54.8250,95.7900
54.7293,95.7710
54.6482,95.7168
54.5940,95.6357
54.5750,95.5400
Z" /> 
<path style="fill:#000000; fill-opacity:1.0000; stroke:none;fill-rule:evenodd;"
d="M 56.4000,94.6400
56.4190,94.5443
56.4732,94.4632
56.5543,94.4090
56.6500,94.3900
57.1750,94.3900
57.2707,94.4090
57.3518,94.4632
57.4060,94.5443
57.4250,94.6400
57.4250,95.5400
57.4060,95.6357
57.3518,95.7168
57.2707,95.7710
57.1750,95.7900
56.6500,95.7900
56.5543,95.7710
56.4732,95.7168
56.4190,95.6357
56.4000,95.5400
Z" /> 
<path style="fill:#000000; fill-opacity:1.0000; stroke:none;fill-rule:evenodd;"
d="M 87.6900,62.0200
87.6786,62.0774
87.6461,62.1261
87.5974,62.1586
87.5400,62.1700
86.5150,62.1700
86.4576,62.1586
86.4089,62.1261
86.3764,62.0774
86.3650,62.0200
86.3650,61.7200
86.3764,61.6626
86.4089,61.6139
86.4576,61.5814
86.5150,61.5700
87.5400,61.5700
87.5974,61.5814
87.6461,61.6139
87.6786,61.6626
87.6900,61.7200
Z" /> 
<path style="fill:#000000; fill-opacity:1.0000; stroke:none;fill-rule:evenodd;"
d="M 87.6900,61.0700
87.6786,61.1274
87.6461,61.1761
87.5974,61.2086
87.5400,61.2200
86.5150,61.2200
86.4576,61.2086
86.4089,61.1761
86.3764,61.1274
86.3650,61.0700
86.3650,60.7700
86.3764,60.7126
86.4089,60.6639
86.4576,60.6314
86.5150,60.6200
87.5400,60.6200
87.5974,60.6314
87.6461,60.6639
87.6786,60.7126
87.6900,60.7700
Z" /> 
<path style="fill:#000000; fill-opacity:1.0000; stroke:none;fill-rule:evenodd;"
d="M 87.6900,60.1200
87.6786,60.1774
87.6461,60.2261
87.5974,60.2586
87.5400,60.2700
86.5150,60.2700
86.4576,60.2586
86.4089,60.2261
86.3764,60.1774
86.3650,60.1200
86.3650,59.8200
86.3764,59.7626
86.4089,59.7139
86.4576,59.6814
86.5150,59.6700
87.5400,59.6700
87.5974,59.6814
87.6461,59.7139
87.6786,59.7626
87.6900,59.8200
Z" /> 
<path style="fill:#000000; fill-opacity:1.0000; stroke:none;fill-rule:evenodd;"
d="M 85.4150,60.1200
85.4036,60.1774
85.3711,60.2261
85.3224,60.2586
85.2650,60.2700
84.2400,60.2700
84.1826,60.2586
84.1339,60.2261
84.1014,60.1774
84.0900,60.1200
84.0900,59.8200
84.1014,59.7626
84.1339,59.7139
84.1826,59.6814
84.2400,59.6700
85.2650,59.6700
85.3224,59.6814
85.3711,59.7139
85.4036,59.7626
85.4150,59.8200
Z" /> 
<path style="fill:#000000; fill-opacity:1.0000; stroke:none;fill-rule:evenodd;"
d="M 85.4150,62.0200
85.4036,62.0774
85.3711,62.1261
85.3224,62.1586
85.2650,62.1700
84.2400,62.1700
84.1826,62.1586
84.1339,62.1261
84.1014,62.0774
84.0900,62.0200
84.0900,61.7200
84.1014,61.6626
84.1339,61.6139
84.1826,61.5814
84.2400,61.5700
85.2650,61.5700
85.3224,61.5814
85.3711,61.6139
85.4036,61.6626
85.4150,61.7200
Z" /> 
<path style="fill:#000000; fill-opacity:1.0000; stroke:none;fill-rule:evenodd;"
d="M 63.8250,76.7500
63.7293,76.7310
63.6482,76.6768
63.5940,76.5957
63.5750,76.5000
63.5750,76.0000
63.5940,75.9043
63.6482,75.8232
63.7293,75.7690
63.8250,75.7500
64.7750,75.7500
64.8707,75.7690
64.9518,75.8232
65.0060,75.9043
65.0250,76.0000
65.0250,76.5000
65.0060,76.5957
64.9518,76.6768
64.8707,76.7310
64.7750,76.7500
Z" /> 
<path style="fill:#000000; fill-opacity:1.0000; stroke:none;fill-rule:evenodd;"
d="M 63.8250,74.8500
63.7293,74.8310
63.6482,74.7768
63.5940,74.6957
63.5750,74.6000
63.5750,74.1000
63.5940,74.0043
63.6482,73.9232
63.7293,73.8690
63.8250,73.8500
64.7750,73.8500
64.8707,73.8690
64.9518,73.9232
65.0060,74.0043
65.0250,74.1000
65.0250,74.6000
65.0060,74.6957
64.9518,74.7768
64.8707,74.8310
64.7750,74.8500
Z" /> 
<path style="fill:#000000; fill-opacity:1.0000; stroke:none;fill-rule:evenodd;"
d="M 62.4900,92.7300
64.1900,92.7300
64.1900,94.4300
62.4900,94.4300
Z" /> 
</g>
<g style="fill:#000000; fill-opacity:1.0000; stroke:none;">
<circle cx="63.3400" cy="91.0400" r="0.8500" /> 
<circle cx="65.8800" cy="93.5800" r="0.8500" /> 
<circle cx="65.8800" cy="91.0400" r="0.8500" /> 
<circle cx="68.4200" cy="93.5800" r="0.8500" /> 
<circle cx="68.4200" cy="91.0400" r="0.8500" /> 
<path style="fill:#000000; fill-opacity:1.0000; stroke:none;fill-rule:evenodd;"
d="M 108.5000,88.5500
108.5000,90.2500
106.8000,90.2500
106.8000,88.5500
Z" /> 
<circle cx="110.1900" cy="89.4000" r="0.8500" /> 
<circle cx="107.6500" cy="91.9400" r="0.8500" /> 
<circle cx="110.1900" cy="91.9400" r="0.8500" /> 
<circle cx="107.6500" cy="94.4800" r="0.8500" /> 
<circle cx="110.1900" cy="94.4800" r="0.8500" /> 
</g> 
</svg>
