<?xml version="1.0" standalone="no"?>
 <!DOCTYPE svg PUBLIC "-//W3C//DTD SVG 1.1//EN" 
 "http://www.w3.org/Graphics/SVG/1.1/DTD/svg11.dtd"> 
<svg
  xmlns:svg="http://www.w3.org/2000/svg"
  xmlns="http://www.w3.org/2000/svg"
  xmlns:xlink="http://www.w3.org/1999/xlink"
  version="1.1"
  width="297.0022mm" height="210.0072mm" viewBox="0.0000 0.0000 297.0022 210.0072">
<title>SVG Image created as pedalboard-soundcard-B_Mask.svg date 2023/12/23 19:22:42 </title>
  <desc>Image generated by PCBNEW </desc>
<g style="fill:#000000; fill-opacity:1.0000;stroke:#000000; stroke-opacity:1.0000;
stroke-linecap:round; stroke-linejoin:round;"
 transform="translate(0 0) scale(1 1)">
</g>
<g style="fill:#000000; fill-opacity:0.0; 
stroke:#000000; stroke-width:0.0000; stroke-opacity:1; 
stroke-linecap:round; stroke-linejoin:round;">
<g >
</g>
<g style="fill:#000000; fill-opacity:1.0000; 
stroke:#000000; stroke-width:0.0000; stroke-opacity:1; 
stroke-linecap:round; stroke-linejoin:round;">
<circle cx="110.0000" cy="56.0000" r="3.1000" /> 
</g>
<g style="fill:#000000; fill-opacity:1.0000; 
stroke:#000000; stroke-width:0.0212; stroke-opacity:1; 
stroke-linecap:round; stroke-linejoin:round;">
</g>
<g >
</g>
<g style="fill:#000000; fill-opacity:1.0000; 
stroke:#000000; stroke-width:0.0212; stroke-opacity:1; 
stroke-linecap:round; stroke-linejoin:round;">
</g>
<g style="fill:#000000; fill-opacity:1.0000; 
stroke:#000000; stroke-width:0.0000; stroke-opacity:1; 
stroke-linecap:round; stroke-linejoin:round;">
<circle cx="52.0000" cy="56.0000" r="3.1000" /> 
</g>
<g style="fill:#000000; fill-opacity:1.0000; 
stroke:#000000; stroke-width:0.0212; stroke-opacity:1; 
stroke-linecap:round; stroke-linejoin:round;">
</g>
<g >
</g>
<g style="fill:#000000; fill-opacity:1.0000; 
stroke:#000000; stroke-width:0.0212; stroke-opacity:1; 
stroke-linecap:round; stroke-linejoin:round;">
</g>
<g style="fill:#000000; fill-opacity:1.0000; 
stroke:#000000; stroke-width:0.0000; stroke-opacity:1; 
stroke-linecap:round; stroke-linejoin:round;">
<circle cx="52.0000" cy="105.0000" r="3.1000" /> 
</g>
<g style="fill:#000000; fill-opacity:1.0000; 
stroke:#000000; stroke-width:0.0212; stroke-opacity:1; 
stroke-linecap:round; stroke-linejoin:round;">
</g>
<g >
</g>
<g style="fill:#000000; fill-opacity:1.0000; 
stroke:#000000; stroke-width:0.0212; stroke-opacity:1; 
stroke-linecap:round; stroke-linejoin:round;">
</g>
<g style="fill:#000000; fill-opacity:1.0000; 
stroke:#000000; stroke-width:0.0000; stroke-opacity:1; 
stroke-linecap:round; stroke-linejoin:round;">
<circle cx="110.0000" cy="105.0000" r="3.1000" /> 
</g>
<g style="fill:#000000; fill-opacity:1.0000; 
stroke:#000000; stroke-width:0.0212; stroke-opacity:1; 
stroke-linecap:round; stroke-linejoin:round;">
</g>
<g >
</g>
<g style="fill:#000000; fill-opacity:1.0000; 
stroke:#000000; stroke-width:0.0212; stroke-opacity:1; 
stroke-linecap:round; stroke-linejoin:round;">
</g>
<g style="fill:#000000; fill-opacity:1.0000; 
stroke:#000000; stroke-width:0.0000; stroke-opacity:1; 
stroke-linecap:round; stroke-linejoin:round;">
<path style="fill:#000000; fill-opacity:1.0000; 
stroke:#000000; stroke-width:0.0000; stroke-opacity:1; 
stroke-linecap:round; stroke-linejoin:round;fill-rule:evenodd;"
d="M 57.7336,58.1336
56.0064,58.1336
56.0064,56.4064
57.7336,56.4064
Z" /> 
<circle cx="56.8700" cy="54.7300" r="0.8636" /> 
<circle cx="59.4100" cy="57.2700" r="0.8636" /> 
<circle cx="59.4100" cy="54.7300" r="0.8636" /> 
<circle cx="61.9500" cy="57.2700" r="0.8636" /> 
<circle cx="61.9500" cy="54.7300" r="0.8636" /> 
<circle cx="64.4900" cy="57.2700" r="0.8636" /> 
<circle cx="64.4900" cy="54.7300" r="0.8636" /> 
<circle cx="67.0300" cy="57.2700" r="0.8636" /> 
<circle cx="67.0300" cy="54.7300" r="0.8636" /> 
<circle cx="69.5700" cy="57.2700" r="0.8636" /> 
<circle cx="69.5700" cy="54.7300" r="0.8636" /> 
<circle cx="72.1100" cy="57.2700" r="0.8636" /> 
<circle cx="72.1100" cy="54.7300" r="0.8636" /> 
<circle cx="74.6500" cy="57.2700" r="0.8636" /> 
<circle cx="74.6500" cy="54.7300" r="0.8636" /> 
<circle cx="77.1900" cy="57.2700" r="0.8636" /> 
<circle cx="77.1900" cy="54.7300" r="0.8636" /> 
<circle cx="79.7300" cy="57.2700" r="0.8636" /> 
<circle cx="79.7300" cy="54.7300" r="0.8636" /> 
<circle cx="82.2700" cy="57.2700" r="0.8636" /> 
<circle cx="82.2700" cy="54.7300" r="0.8636" /> 
<circle cx="84.8100" cy="57.2700" r="0.8636" /> 
<circle cx="84.8100" cy="54.7300" r="0.8636" /> 
<circle cx="87.3500" cy="57.2700" r="0.8636" /> 
<circle cx="87.3500" cy="54.7300" r="0.8636" /> 
<circle cx="89.8900" cy="57.2700" r="0.8636" /> 
<circle cx="89.8900" cy="54.7300" r="0.8636" /> 
<circle cx="92.4300" cy="57.2700" r="0.8636" /> 
<circle cx="92.4300" cy="54.7300" r="0.8636" /> 
<circle cx="94.9700" cy="57.2700" r="0.8636" /> 
<circle cx="94.9700" cy="54.7300" r="0.8636" /> 
<circle cx="97.5100" cy="57.2700" r="0.8636" /> 
<circle cx="97.5100" cy="54.7300" r="0.8636" /> 
<circle cx="100.0500" cy="57.2700" r="0.8636" /> 
<circle cx="100.0500" cy="54.7300" r="0.8636" /> 
<circle cx="102.5900" cy="57.2700" r="0.8636" /> 
<circle cx="102.5900" cy="54.7300" r="0.8636" /> 
<circle cx="105.1300" cy="57.2700" r="0.8636" /> 
<circle cx="105.1300" cy="54.7300" r="0.8636" /> 
</g>
<g >
</g>
<g >
</g>
<g >
</g>
<g >
</g>
<g >
</g>
<g >
</g>
<g >
</g>
<g >
</g>
<g >
</g>
<g >
</g>
<g >
</g>
<g >
</g>
<g >
</g>
<g >
</g>
<g >
</g>
<g >
</g>
<g style="fill:#000000; fill-opacity:1.0000; 
stroke:#000000; stroke-width:0.0000; stroke-opacity:1; 
stroke-linecap:round; stroke-linejoin:round;">
<path style="fill:#000000; fill-opacity:1.0000; 
stroke:#000000; stroke-width:0.0000; stroke-opacity:1; 
stroke-linecap:round; stroke-linejoin:round;fill-rule:evenodd;"
d="M 64.1900,94.4300
62.4900,94.4300
62.4900,92.7300
64.1900,92.7300
Z" /> 
<circle cx="63.3400" cy="91.0400" r="0.8500" /> 
<circle cx="65.8800" cy="93.5800" r="0.8500" /> 
<circle cx="65.8800" cy="91.0400" r="0.8500" /> 
<circle cx="68.4200" cy="93.5800" r="0.8500" /> 
<circle cx="68.4200" cy="91.0400" r="0.8500" /> 
</g>
<g >
</g>
<g >
</g>
<g >
</g>
<g >
</g>
<g >
</g>
<g >
</g>
<g >
</g>
<g >
</g>
<g >
</g>
<g >
</g>
<g >
</g>
<g >
</g>
<g >
</g>
<g >
</g>
<g >
</g>
<g >
</g>
<g >
</g>
<g style="fill:#000000; fill-opacity:1.0000; 
stroke:#000000; stroke-width:0.0000; stroke-opacity:1; 
stroke-linecap:round; stroke-linejoin:round;">
<path style="fill:#000000; fill-opacity:1.0000; 
stroke:#000000; stroke-width:0.0000; stroke-opacity:1; 
stroke-linecap:round; stroke-linejoin:round;fill-rule:evenodd;"
d="M 106.8000,90.2500
106.8000,88.5500
108.5000,88.5500
108.5000,90.2500
Z" /> 
<circle cx="110.1900" cy="89.4000" r="0.8500" /> 
<circle cx="107.6500" cy="91.9400" r="0.8500" /> 
<circle cx="110.1900" cy="91.9400" r="0.8500" /> 
<circle cx="107.6500" cy="94.4800" r="0.8500" /> 
<circle cx="110.1900" cy="94.4800" r="0.8500" /> 
</g>
<g >
</g>
<g >
</g>
<g >
</g>
<g >
</g>
<g >
</g>
<g >
</g>
<g >
</g>
<g >
</g>
<g >
</g>
<g >
</g>
<g >
</g>
<g >
</g>
<g >
</g>
<g >
</g>
<g >
</g>
<g >
</g>
<g >
</g>
<g >
</g>
<g >
</g>
<g >
</g>
<g >
</g>
<g >
</g>
<g >
</g>
<g >
</g>
<g >
</g>
<g >
</g>
<g >
</g>
<g >
</g>
<g >
</g>
<g >
</g>
<g >
</g>
<g >
</g>
<g >
</g>
<g >
</g>
<g >
</g>
<g >
</g>
<g >
</g>
<g >
</g>
<g >
</g>
<g >
</g>
<g >
</g>
</g> 
</svg>
