<?xml version="1.0" standalone="no"?>
 <!DOCTYPE svg PUBLIC "-//W3C//DTD SVG 1.1//EN" 
 "http://www.w3.org/Graphics/SVG/1.1/DTD/svg11.dtd"> 
<svg
  xmlns:svg="http://www.w3.org/2000/svg"
  xmlns="http://www.w3.org/2000/svg"
  xmlns:xlink="http://www.w3.org/1999/xlink"
  version="1.1"
  width="297.0022mm" height="210.0072mm" viewBox="0.0000 0.0000 297.0022 210.0072">
<title>SVG Image created as pedalboard-soundcard-B_Silkscreen.svg date 2024/10/15 20:14:31 </title>
  <desc>Image generated by PCBNEW </desc>
<g style="fill:#000000; fill-opacity:1.0000;stroke:#000000; stroke-opacity:1.0000;
stroke-linecap:round; stroke-linejoin:round;"
 transform="translate(0 0) scale(1 1)">
</g>
<g style="fill:none; 
stroke:#000000; stroke-width:0.1500; stroke-opacity:1; 
stroke-linecap:round; stroke-linejoin:round;">
<text x="112.5500" y="66.3201"
transform="scale(-1 1) translate(-225.100000 0)"
textLength="21.7738" font-size="1.3333" lengthAdjust="spacingAndGlyphs"
text-anchor="start" opacity="0" stroke-opacity="0">Open Pedalboard Soundcard</text>
<g class="stroked-text"><desc>Open Pedalboard Soundcard</desc>
<path d="M112.0227 65.1899
L111.8323 65.1899
" />
<path d="M111.8323 65.1899
L111.7370 65.2375
" />
<path d="M111.7370 65.2375
L111.6418 65.3328
" />
<path d="M111.6418 65.3328
L111.5942 65.5233
" />
<path d="M111.5942 65.5233
L111.5942 65.8566
" />
<path d="M111.5942 65.8566
L111.6418 66.0471
" />
<path d="M111.6418 66.0471
L111.7370 66.1423
" />
<path d="M111.7370 66.1423
L111.8323 66.1899
" />
<path d="M111.8323 66.1899
L112.0227 66.1899
" />
<path d="M112.0227 66.1899
L112.1180 66.1423
" />
<path d="M112.1180 66.1423
L112.2132 66.0471
" />
<path d="M112.2132 66.0471
L112.2608 65.8566
" />
<path d="M112.2608 65.8566
L112.2608 65.5233
" />
<path d="M112.2608 65.5233
L112.2132 65.3328
" />
<path d="M112.2132 65.3328
L112.1180 65.2375
" />
<path d="M112.1180 65.2375
L112.0227 65.1899
" />
<path d="M111.1656 65.5233
L111.1656 66.5233
" />
<path d="M111.1656 65.5709
L111.0704 65.5233
" />
<path d="M111.0704 65.5233
L110.8799 65.5233
" />
<path d="M110.8799 65.5233
L110.7846 65.5709
" />
<path d="M110.7846 65.5709
L110.7370 65.6185
" />
<path d="M110.7370 65.6185
L110.6894 65.7137
" />
<path d="M110.6894 65.7137
L110.6894 65.9995
" />
<path d="M110.6894 65.9995
L110.7370 66.0947
" />
<path d="M110.7370 66.0947
L110.7846 66.1423
" />
<path d="M110.7846 66.1423
L110.8799 66.1899
" />
<path d="M110.8799 66.1899
L111.0704 66.1899
" />
<path d="M111.0704 66.1899
L111.1656 66.1423
" />
<path d="M109.8799 66.1423
L109.9751 66.1899
" />
<path d="M109.9751 66.1899
L110.1656 66.1899
" />
<path d="M110.1656 66.1899
L110.2608 66.1423
" />
<path d="M110.2608 66.1423
L110.3085 66.0471
" />
<path d="M110.3085 66.0471
L110.3085 65.6661
" />
<path d="M110.3085 65.6661
L110.2608 65.5709
" />
<path d="M110.2608 65.5709
L110.1656 65.5233
" />
<path d="M110.1656 65.5233
L109.9751 65.5233
" />
<path d="M109.9751 65.5233
L109.8799 65.5709
" />
<path d="M109.8799 65.5709
L109.8323 65.6661
" />
<path d="M109.8323 65.6661
L109.8323 65.7614
" />
<path d="M109.8323 65.7614
L110.3085 65.8566
" />
<path d="M109.4037 65.5233
L109.4037 66.1899
" />
<path d="M109.4037 65.6185
L109.3561 65.5709
" />
<path d="M109.3561 65.5709
L109.2608 65.5233
" />
<path d="M109.2608 65.5233
L109.1180 65.5233
" />
<path d="M109.1180 65.5233
L109.0227 65.5709
" />
<path d="M109.0227 65.5709
L108.9751 65.6661
" />
<path d="M108.9751 65.6661
L108.9751 66.1899
" />
<path d="M107.7370 66.1899
L107.7370 65.1899
" />
<path d="M107.7370 65.1899
L107.3561 65.1899
" />
<path d="M107.3561 65.1899
L107.2608 65.2375
" />
<path d="M107.2608 65.2375
L107.2132 65.2852
" />
<path d="M107.2132 65.2852
L107.1656 65.3804
" />
<path d="M107.1656 65.3804
L107.1656 65.5233
" />
<path d="M107.1656 65.5233
L107.2132 65.6185
" />
<path d="M107.2132 65.6185
L107.2608 65.6661
" />
<path d="M107.2608 65.6661
L107.3561 65.7137
" />
<path d="M107.3561 65.7137
L107.7370 65.7137
" />
<path d="M106.3561 66.1423
L106.4513 66.1899
" />
<path d="M106.4513 66.1899
L106.6418 66.1899
" />
<path d="M106.6418 66.1899
L106.7370 66.1423
" />
<path d="M106.7370 66.1423
L106.7846 66.0471
" />
<path d="M106.7846 66.0471
L106.7846 65.6661
" />
<path d="M106.7846 65.6661
L106.7370 65.5709
" />
<path d="M106.7370 65.5709
L106.6418 65.5233
" />
<path d="M106.6418 65.5233
L106.4513 65.5233
" />
<path d="M106.4513 65.5233
L106.3561 65.5709
" />
<path d="M106.3561 65.5709
L106.3085 65.6661
" />
<path d="M106.3085 65.6661
L106.3085 65.7614
" />
<path d="M106.3085 65.7614
L106.7846 65.8566
" />
<path d="M105.4513 66.1899
L105.4513 65.1899
" />
<path d="M105.4513 66.1423
L105.5466 66.1899
" />
<path d="M105.5466 66.1899
L105.7370 66.1899
" />
<path d="M105.7370 66.1899
L105.8323 66.1423
" />
<path d="M105.8323 66.1423
L105.8799 66.0947
" />
<path d="M105.8799 66.0947
L105.9275 65.9995
" />
<path d="M105.9275 65.9995
L105.9275 65.7137
" />
<path d="M105.9275 65.7137
L105.8799 65.6185
" />
<path d="M105.8799 65.6185
L105.8323 65.5709
" />
<path d="M105.8323 65.5709
L105.7370 65.5233
" />
<path d="M105.7370 65.5233
L105.5466 65.5233
" />
<path d="M105.5466 65.5233
L105.4513 65.5709
" />
<path d="M104.5466 66.1899
L104.5466 65.6661
" />
<path d="M104.5466 65.6661
L104.5942 65.5709
" />
<path d="M104.5942 65.5709
L104.6894 65.5233
" />
<path d="M104.6894 65.5233
L104.8799 65.5233
" />
<path d="M104.8799 65.5233
L104.9751 65.5709
" />
<path d="M104.5466 66.1423
L104.6418 66.1899
" />
<path d="M104.6418 66.1899
L104.8799 66.1899
" />
<path d="M104.8799 66.1899
L104.9751 66.1423
" />
<path d="M104.9751 66.1423
L105.0227 66.0471
" />
<path d="M105.0227 66.0471
L105.0227 65.9518
" />
<path d="M105.0227 65.9518
L104.9751 65.8566
" />
<path d="M104.9751 65.8566
L104.8799 65.8090
" />
<path d="M104.8799 65.8090
L104.6418 65.8090
" />
<path d="M104.6418 65.8090
L104.5466 65.7614
" />
<path d="M103.9275 66.1899
L104.0227 66.1423
" />
<path d="M104.0227 66.1423
L104.0704 66.0471
" />
<path d="M104.0704 66.0471
L104.0704 65.1899
" />
<path d="M103.5466 66.1899
L103.5466 65.1899
" />
<path d="M103.5466 65.5709
L103.4513 65.5233
" />
<path d="M103.4513 65.5233
L103.2608 65.5233
" />
<path d="M103.2608 65.5233
L103.1656 65.5709
" />
<path d="M103.1656 65.5709
L103.1180 65.6185
" />
<path d="M103.1180 65.6185
L103.0704 65.7137
" />
<path d="M103.0704 65.7137
L103.0704 65.9995
" />
<path d="M103.0704 65.9995
L103.1180 66.0947
" />
<path d="M103.1180 66.0947
L103.1656 66.1423
" />
<path d="M103.1656 66.1423
L103.2608 66.1899
" />
<path d="M103.2608 66.1899
L103.4513 66.1899
" />
<path d="M103.4513 66.1899
L103.5466 66.1423
" />
<path d="M102.4989 66.1899
L102.5942 66.1423
" />
<path d="M102.5942 66.1423
L102.6418 66.0947
" />
<path d="M102.6418 66.0947
L102.6894 65.9995
" />
<path d="M102.6894 65.9995
L102.6894 65.7137
" />
<path d="M102.6894 65.7137
L102.6418 65.6185
" />
<path d="M102.6418 65.6185
L102.5942 65.5709
" />
<path d="M102.5942 65.5709
L102.4989 65.5233
" />
<path d="M102.4989 65.5233
L102.3561 65.5233
" />
<path d="M102.3561 65.5233
L102.2608 65.5709
" />
<path d="M102.2608 65.5709
L102.2132 65.6185
" />
<path d="M102.2132 65.6185
L102.1656 65.7137
" />
<path d="M102.1656 65.7137
L102.1656 65.9995
" />
<path d="M102.1656 65.9995
L102.2132 66.0947
" />
<path d="M102.2132 66.0947
L102.2608 66.1423
" />
<path d="M102.2608 66.1423
L102.3561 66.1899
" />
<path d="M102.3561 66.1899
L102.4989 66.1899
" />
<path d="M101.3085 66.1899
L101.3085 65.6661
" />
<path d="M101.3085 65.6661
L101.3561 65.5709
" />
<path d="M101.3561 65.5709
L101.4513 65.5233
" />
<path d="M101.4513 65.5233
L101.6418 65.5233
" />
<path d="M101.6418 65.5233
L101.7370 65.5709
" />
<path d="M101.3085 66.1423
L101.4037 66.1899
" />
<path d="M101.4037 66.1899
L101.6418 66.1899
" />
<path d="M101.6418 66.1899
L101.7370 66.1423
" />
<path d="M101.7370 66.1423
L101.7846 66.0471
" />
<path d="M101.7846 66.0471
L101.7846 65.9518
" />
<path d="M101.7846 65.9518
L101.7370 65.8566
" />
<path d="M101.7370 65.8566
L101.6418 65.8090
" />
<path d="M101.6418 65.8090
L101.4037 65.8090
" />
<path d="M101.4037 65.8090
L101.3085 65.7614
" />
<path d="M100.8323 66.1899
L100.8323 65.5233
" />
<path d="M100.8323 65.7137
L100.7846 65.6185
" />
<path d="M100.7846 65.6185
L100.7370 65.5709
" />
<path d="M100.7370 65.5709
L100.6418 65.5233
" />
<path d="M100.6418 65.5233
L100.5466 65.5233
" />
<path d="M99.7846 66.1899
L99.7846 65.1899
" />
<path d="M99.7846 66.1423
L99.8799 66.1899
" />
<path d="M99.8799 66.1899
L100.0704 66.1899
" />
<path d="M100.0704 66.1899
L100.1656 66.1423
" />
<path d="M100.1656 66.1423
L100.2132 66.0947
" />
<path d="M100.2132 66.0947
L100.2608 65.9995
" />
<path d="M100.2608 65.9995
L100.2608 65.7137
" />
<path d="M100.2608 65.7137
L100.2132 65.6185
" />
<path d="M100.2132 65.6185
L100.1656 65.5709
" />
<path d="M100.1656 65.5709
L100.0704 65.5233
" />
<path d="M100.0704 65.5233
L99.8799 65.5233
" />
<path d="M99.8799 65.5233
L99.7846 65.5709
" />
<path d="M98.5942 66.1423
L98.4513 66.1899
" />
<path d="M98.4513 66.1899
L98.2132 66.1899
" />
<path d="M98.2132 66.1899
L98.1180 66.1423
" />
<path d="M98.1180 66.1423
L98.0704 66.0947
" />
<path d="M98.0704 66.0947
L98.0227 65.9995
" />
<path d="M98.0227 65.9995
L98.0227 65.9042
" />
<path d="M98.0227 65.9042
L98.0704 65.8090
" />
<path d="M98.0704 65.8090
L98.1180 65.7614
" />
<path d="M98.1180 65.7614
L98.2132 65.7137
" />
<path d="M98.2132 65.7137
L98.4037 65.6661
" />
<path d="M98.4037 65.6661
L98.4989 65.6185
" />
<path d="M98.4989 65.6185
L98.5466 65.5709
" />
<path d="M98.5466 65.5709
L98.5942 65.4756
" />
<path d="M98.5942 65.4756
L98.5942 65.3804
" />
<path d="M98.5942 65.3804
L98.5466 65.2852
" />
<path d="M98.5466 65.2852
L98.4989 65.2375
" />
<path d="M98.4989 65.2375
L98.4037 65.1899
" />
<path d="M98.4037 65.1899
L98.1656 65.1899
" />
<path d="M98.1656 65.1899
L98.0227 65.2375
" />
<path d="M97.4513 66.1899
L97.5466 66.1423
" />
<path d="M97.5466 66.1423
L97.5942 66.0947
" />
<path d="M97.5942 66.0947
L97.6418 65.9995
" />
<path d="M97.6418 65.9995
L97.6418 65.7137
" />
<path d="M97.6418 65.7137
L97.5942 65.6185
" />
<path d="M97.5942 65.6185
L97.5466 65.5709
" />
<path d="M97.5466 65.5709
L97.4513 65.5233
" />
<path d="M97.4513 65.5233
L97.3085 65.5233
" />
<path d="M97.3085 65.5233
L97.2132 65.5709
" />
<path d="M97.2132 65.5709
L97.1656 65.6185
" />
<path d="M97.1656 65.6185
L97.1180 65.7137
" />
<path d="M97.1180 65.7137
L97.1180 65.9995
" />
<path d="M97.1180 65.9995
L97.1656 66.0947
" />
<path d="M97.1656 66.0947
L97.2132 66.1423
" />
<path d="M97.2132 66.1423
L97.3085 66.1899
" />
<path d="M97.3085 66.1899
L97.4513 66.1899
" />
<path d="M96.2608 65.5233
L96.2608 66.1899
" />
<path d="M96.6894 65.5233
L96.6894 66.0471
" />
<path d="M96.6894 66.0471
L96.6418 66.1423
" />
<path d="M96.6418 66.1423
L96.5466 66.1899
" />
<path d="M96.5466 66.1899
L96.4037 66.1899
" />
<path d="M96.4037 66.1899
L96.3085 66.1423
" />
<path d="M96.3085 66.1423
L96.2608 66.0947
" />
<path d="M95.7846 65.5233
L95.7846 66.1899
" />
<path d="M95.7846 65.6185
L95.7370 65.5709
" />
<path d="M95.7370 65.5709
L95.6418 65.5233
" />
<path d="M95.6418 65.5233
L95.4989 65.5233
" />
<path d="M95.4989 65.5233
L95.4037 65.5709
" />
<path d="M95.4037 65.5709
L95.3561 65.6661
" />
<path d="M95.3561 65.6661
L95.3561 66.1899
" />
<path d="M94.4513 66.1899
L94.4513 65.1899
" />
<path d="M94.4513 66.1423
L94.5466 66.1899
" />
<path d="M94.5466 66.1899
L94.7370 66.1899
" />
<path d="M94.7370 66.1899
L94.8323 66.1423
" />
<path d="M94.8323 66.1423
L94.8799 66.0947
" />
<path d="M94.8799 66.0947
L94.9275 65.9995
" />
<path d="M94.9275 65.9995
L94.9275 65.7137
" />
<path d="M94.9275 65.7137
L94.8799 65.6185
" />
<path d="M94.8799 65.6185
L94.8323 65.5709
" />
<path d="M94.8323 65.5709
L94.7370 65.5233
" />
<path d="M94.7370 65.5233
L94.5466 65.5233
" />
<path d="M94.5466 65.5233
L94.4513 65.5709
" />
<path d="M93.5466 66.1423
L93.6418 66.1899
" />
<path d="M93.6418 66.1899
L93.8323 66.1899
" />
<path d="M93.8323 66.1899
L93.9275 66.1423
" />
<path d="M93.9275 66.1423
L93.9751 66.0947
" />
<path d="M93.9751 66.0947
L94.0227 65.9995
" />
<path d="M94.0227 65.9995
L94.0227 65.7137
" />
<path d="M94.0227 65.7137
L93.9751 65.6185
" />
<path d="M93.9751 65.6185
L93.9275 65.5709
" />
<path d="M93.9275 65.5709
L93.8323 65.5233
" />
<path d="M93.8323 65.5233
L93.6418 65.5233
" />
<path d="M93.6418 65.5233
L93.5466 65.5709
" />
<path d="M92.6894 66.1899
L92.6894 65.6661
" />
<path d="M92.6894 65.6661
L92.7370 65.5709
" />
<path d="M92.7370 65.5709
L92.8323 65.5233
" />
<path d="M92.8323 65.5233
L93.0227 65.5233
" />
<path d="M93.0227 65.5233
L93.1180 65.5709
" />
<path d="M92.6894 66.1423
L92.7846 66.1899
" />
<path d="M92.7846 66.1899
L93.0227 66.1899
" />
<path d="M93.0227 66.1899
L93.1180 66.1423
" />
<path d="M93.1180 66.1423
L93.1656 66.0471
" />
<path d="M93.1656 66.0471
L93.1656 65.9518
" />
<path d="M93.1656 65.9518
L93.1180 65.8566
" />
<path d="M93.1180 65.8566
L93.0227 65.8090
" />
<path d="M93.0227 65.8090
L92.7846 65.8090
" />
<path d="M92.7846 65.8090
L92.6894 65.7614
" />
<path d="M92.2132 66.1899
L92.2132 65.5233
" />
<path d="M92.2132 65.7137
L92.1656 65.6185
" />
<path d="M92.1656 65.6185
L92.1180 65.5709
" />
<path d="M92.1180 65.5709
L92.0227 65.5233
" />
<path d="M92.0227 65.5233
L91.9275 65.5233
" />
<path d="M91.1656 66.1899
L91.1656 65.1899
" />
<path d="M91.1656 66.1423
L91.2608 66.1899
" />
<path d="M91.2608 66.1899
L91.4513 66.1899
" />
<path d="M91.4513 66.1899
L91.5465 66.1423
" />
<path d="M91.5465 66.1423
L91.5942 66.0947
" />
<path d="M91.5942 66.0947
L91.6418 65.9995
" />
<path d="M91.6418 65.9995
L91.6418 65.7137
" />
<path d="M91.6418 65.7137
L91.5942 65.6185
" />
<path d="M91.5942 65.6185
L91.5465 65.5709
" />
<path d="M91.5465 65.5709
L91.4513 65.5233
" />
<path d="M91.4513 65.5233
L91.2608 65.5233
" />
<path d="M91.2608 65.5233
L91.1656 65.5709
" />
</g><text x="112.5500" y="67.9301"
transform="scale(-1 1) translate(-225.100000 0)"
textLength="17.8690" font-size="1.3333" lengthAdjust="spacingAndGlyphs"
text-anchor="start" opacity="0" stroke-opacity="0">github.com/pedalboard</text>
<g class="stroked-text"><desc>github.com/pedalboard</desc>
<path d="M111.7846 67.1332
L111.7846 67.9427
" />
<path d="M111.7846 67.9427
L111.8323 68.0380
" />
<path d="M111.8323 68.0380
L111.8799 68.0856
" />
<path d="M111.8799 68.0856
L111.9751 68.1332
" />
<path d="M111.9751 68.1332
L112.1180 68.1332
" />
<path d="M112.1180 68.1332
L112.2132 68.0856
" />
<path d="M111.7846 67.7523
L111.8799 67.7999
" />
<path d="M111.8799 67.7999
L112.0704 67.7999
" />
<path d="M112.0704 67.7999
L112.1656 67.7523
" />
<path d="M112.1656 67.7523
L112.2132 67.7046
" />
<path d="M112.2132 67.7046
L112.2608 67.6094
" />
<path d="M112.2608 67.6094
L112.2608 67.3237
" />
<path d="M112.2608 67.3237
L112.2132 67.2284
" />
<path d="M112.2132 67.2284
L112.1656 67.1808
" />
<path d="M112.1656 67.1808
L112.0704 67.1332
" />
<path d="M112.0704 67.1332
L111.8799 67.1332
" />
<path d="M111.8799 67.1332
L111.7846 67.1808
" />
<path d="M111.3085 67.7999
L111.3085 67.1332
" />
<path d="M111.3085 66.7999
L111.3561 66.8475
" />
<path d="M111.3561 66.8475
L111.3085 66.8951
" />
<path d="M111.3085 66.8951
L111.2608 66.8475
" />
<path d="M111.2608 66.8475
L111.3085 66.7999
" />
<path d="M111.3085 66.7999
L111.3085 66.8951
" />
<path d="M110.9751 67.1332
L110.5942 67.1332
" />
<path d="M110.8323 66.7999
L110.8323 67.6570
" />
<path d="M110.8323 67.6570
L110.7846 67.7523
" />
<path d="M110.7846 67.7523
L110.6894 67.7999
" />
<path d="M110.6894 67.7999
L110.5942 67.7999
" />
<path d="M110.2608 67.7999
L110.2608 66.7999
" />
<path d="M109.8323 67.7999
L109.8323 67.2761
" />
<path d="M109.8323 67.2761
L109.8799 67.1808
" />
<path d="M109.8799 67.1808
L109.9751 67.1332
" />
<path d="M109.9751 67.1332
L110.1180 67.1332
" />
<path d="M110.1180 67.1332
L110.2132 67.1808
" />
<path d="M110.2132 67.1808
L110.2608 67.2284
" />
<path d="M108.9275 67.1332
L108.9275 67.7999
" />
<path d="M109.3561 67.1332
L109.3561 67.6570
" />
<path d="M109.3561 67.6570
L109.3085 67.7523
" />
<path d="M109.3085 67.7523
L109.2132 67.7999
" />
<path d="M109.2132 67.7999
L109.0704 67.7999
" />
<path d="M109.0704 67.7999
L108.9751 67.7523
" />
<path d="M108.9751 67.7523
L108.9275 67.7046
" />
<path d="M108.4513 67.7999
L108.4513 66.7999
" />
<path d="M108.4513 67.1808
L108.3561 67.1332
" />
<path d="M108.3561 67.1332
L108.1656 67.1332
" />
<path d="M108.1656 67.1332
L108.0704 67.1808
" />
<path d="M108.0704 67.1808
L108.0227 67.2284
" />
<path d="M108.0227 67.2284
L107.9751 67.3237
" />
<path d="M107.9751 67.3237
L107.9751 67.6094
" />
<path d="M107.9751 67.6094
L108.0227 67.7046
" />
<path d="M108.0227 67.7046
L108.0704 67.7523
" />
<path d="M108.0704 67.7523
L108.1656 67.7999
" />
<path d="M108.1656 67.7999
L108.3561 67.7999
" />
<path d="M108.3561 67.7999
L108.4513 67.7523
" />
<path d="M107.5466 67.7046
L107.4989 67.7523
" />
<path d="M107.4989 67.7523
L107.5466 67.7999
" />
<path d="M107.5466 67.7999
L107.5942 67.7523
" />
<path d="M107.5942 67.7523
L107.5466 67.7046
" />
<path d="M107.5466 67.7046
L107.5466 67.7999
" />
<path d="M106.6418 67.7523
L106.7370 67.7999
" />
<path d="M106.7370 67.7999
L106.9275 67.7999
" />
<path d="M106.9275 67.7999
L107.0227 67.7523
" />
<path d="M107.0227 67.7523
L107.0704 67.7046
" />
<path d="M107.0704 67.7046
L107.1180 67.6094
" />
<path d="M107.1180 67.6094
L107.1180 67.3237
" />
<path d="M107.1180 67.3237
L107.0704 67.2284
" />
<path d="M107.0704 67.2284
L107.0227 67.1808
" />
<path d="M107.0227 67.1808
L106.9275 67.1332
" />
<path d="M106.9275 67.1332
L106.7370 67.1332
" />
<path d="M106.7370 67.1332
L106.6418 67.1808
" />
<path d="M106.0704 67.7999
L106.1656 67.7523
" />
<path d="M106.1656 67.7523
L106.2132 67.7046
" />
<path d="M106.2132 67.7046
L106.2608 67.6094
" />
<path d="M106.2608 67.6094
L106.2608 67.3237
" />
<path d="M106.2608 67.3237
L106.2132 67.2284
" />
<path d="M106.2132 67.2284
L106.1656 67.1808
" />
<path d="M106.1656 67.1808
L106.0704 67.1332
" />
<path d="M106.0704 67.1332
L105.9275 67.1332
" />
<path d="M105.9275 67.1332
L105.8323 67.1808
" />
<path d="M105.8323 67.1808
L105.7846 67.2284
" />
<path d="M105.7846 67.2284
L105.7370 67.3237
" />
<path d="M105.7370 67.3237
L105.7370 67.6094
" />
<path d="M105.7370 67.6094
L105.7846 67.7046
" />
<path d="M105.7846 67.7046
L105.8323 67.7523
" />
<path d="M105.8323 67.7523
L105.9275 67.7999
" />
<path d="M105.9275 67.7999
L106.0704 67.7999
" />
<path d="M105.3085 67.7999
L105.3085 67.1332
" />
<path d="M105.3085 67.2284
L105.2608 67.1808
" />
<path d="M105.2608 67.1808
L105.1656 67.1332
" />
<path d="M105.1656 67.1332
L105.0227 67.1332
" />
<path d="M105.0227 67.1332
L104.9275 67.1808
" />
<path d="M104.9275 67.1808
L104.8799 67.2761
" />
<path d="M104.8799 67.2761
L104.8799 67.7999
" />
<path d="M104.8799 67.2761
L104.8323 67.1808
" />
<path d="M104.8323 67.1808
L104.7370 67.1332
" />
<path d="M104.7370 67.1332
L104.5942 67.1332
" />
<path d="M104.5942 67.1332
L104.4989 67.1808
" />
<path d="M104.4989 67.1808
L104.4513 67.2761
" />
<path d="M104.4513 67.2761
L104.4513 67.7999
" />
<path d="M103.2608 66.7523
L104.1180 68.0380
" />
<path d="M102.9275 67.1332
L102.9275 68.1332
" />
<path d="M102.9275 67.1808
L102.8323 67.1332
" />
<path d="M102.8323 67.1332
L102.6418 67.1332
" />
<path d="M102.6418 67.1332
L102.5466 67.1808
" />
<path d="M102.5466 67.1808
L102.4989 67.2284
" />
<path d="M102.4989 67.2284
L102.4513 67.3237
" />
<path d="M102.4513 67.3237
L102.4513 67.6094
" />
<path d="M102.4513 67.6094
L102.4989 67.7046
" />
<path d="M102.4989 67.7046
L102.5466 67.7523
" />
<path d="M102.5466 67.7523
L102.6418 67.7999
" />
<path d="M102.6418 67.7999
L102.8323 67.7999
" />
<path d="M102.8323 67.7999
L102.9275 67.7523
" />
<path d="M101.6418 67.7523
L101.7370 67.7999
" />
<path d="M101.7370 67.7999
L101.9275 67.7999
" />
<path d="M101.9275 67.7999
L102.0227 67.7523
" />
<path d="M102.0227 67.7523
L102.0704 67.6570
" />
<path d="M102.0704 67.6570
L102.0704 67.2761
" />
<path d="M102.0704 67.2761
L102.0227 67.1808
" />
<path d="M102.0227 67.1808
L101.9275 67.1332
" />
<path d="M101.9275 67.1332
L101.7370 67.1332
" />
<path d="M101.7370 67.1332
L101.6418 67.1808
" />
<path d="M101.6418 67.1808
L101.5942 67.2761
" />
<path d="M101.5942 67.2761
L101.5942 67.3713
" />
<path d="M101.5942 67.3713
L102.0704 67.4665
" />
<path d="M100.7370 67.7999
L100.7370 66.7999
" />
<path d="M100.7370 67.7523
L100.8323 67.7999
" />
<path d="M100.8323 67.7999
L101.0227 67.7999
" />
<path d="M101.0227 67.7999
L101.1180 67.7523
" />
<path d="M101.1180 67.7523
L101.1656 67.7046
" />
<path d="M101.1656 67.7046
L101.2132 67.6094
" />
<path d="M101.2132 67.6094
L101.2132 67.3237
" />
<path d="M101.2132 67.3237
L101.1656 67.2284
" />
<path d="M101.1656 67.2284
L101.1180 67.1808
" />
<path d="M101.1180 67.1808
L101.0227 67.1332
" />
<path d="M101.0227 67.1332
L100.8323 67.1332
" />
<path d="M100.8323 67.1332
L100.7370 67.1808
" />
<path d="M99.8323 67.7999
L99.8323 67.2761
" />
<path d="M99.8323 67.2761
L99.8799 67.1808
" />
<path d="M99.8799 67.1808
L99.9751 67.1332
" />
<path d="M99.9751 67.1332
L100.1656 67.1332
" />
<path d="M100.1656 67.1332
L100.2608 67.1808
" />
<path d="M99.8323 67.7523
L99.9275 67.7999
" />
<path d="M99.9275 67.7999
L100.1656 67.7999
" />
<path d="M100.1656 67.7999
L100.2608 67.7523
" />
<path d="M100.2608 67.7523
L100.3085 67.6570
" />
<path d="M100.3085 67.6570
L100.3085 67.5618
" />
<path d="M100.3085 67.5618
L100.2608 67.4665
" />
<path d="M100.2608 67.4665
L100.1656 67.4189
" />
<path d="M100.1656 67.4189
L99.9275 67.4189
" />
<path d="M99.9275 67.4189
L99.8323 67.3713
" />
<path d="M99.2132 67.7999
L99.3085 67.7523
" />
<path d="M99.3085 67.7523
L99.3561 67.6570
" />
<path d="M99.3561 67.6570
L99.3561 66.7999
" />
<path d="M98.8323 67.7999
L98.8323 66.7999
" />
<path d="M98.8323 67.1808
L98.7370 67.1332
" />
<path d="M98.7370 67.1332
L98.5466 67.1332
" />
<path d="M98.5466 67.1332
L98.4513 67.1808
" />
<path d="M98.4513 67.1808
L98.4037 67.2284
" />
<path d="M98.4037 67.2284
L98.3561 67.3237
" />
<path d="M98.3561 67.3237
L98.3561 67.6094
" />
<path d="M98.3561 67.6094
L98.4037 67.7046
" />
<path d="M98.4037 67.7046
L98.4513 67.7523
" />
<path d="M98.4513 67.7523
L98.5466 67.7999
" />
<path d="M98.5466 67.7999
L98.7370 67.7999
" />
<path d="M98.7370 67.7999
L98.8323 67.7523
" />
<path d="M97.7846 67.7999
L97.8799 67.7523
" />
<path d="M97.8799 67.7523
L97.9275 67.7046
" />
<path d="M97.9275 67.7046
L97.9751 67.6094
" />
<path d="M97.9751 67.6094
L97.9751 67.3237
" />
<path d="M97.9751 67.3237
L97.9275 67.2284
" />
<path d="M97.9275 67.2284
L97.8799 67.1808
" />
<path d="M97.8799 67.1808
L97.7846 67.1332
" />
<path d="M97.7846 67.1332
L97.6418 67.1332
" />
<path d="M97.6418 67.1332
L97.5466 67.1808
" />
<path d="M97.5466 67.1808
L97.4989 67.2284
" />
<path d="M97.4989 67.2284
L97.4513 67.3237
" />
<path d="M97.4513 67.3237
L97.4513 67.6094
" />
<path d="M97.4513 67.6094
L97.4989 67.7046
" />
<path d="M97.4989 67.7046
L97.5466 67.7523
" />
<path d="M97.5466 67.7523
L97.6418 67.7999
" />
<path d="M97.6418 67.7999
L97.7846 67.7999
" />
<path d="M96.5942 67.7999
L96.5942 67.2761
" />
<path d="M96.5942 67.2761
L96.6418 67.1808
" />
<path d="M96.6418 67.1808
L96.7370 67.1332
" />
<path d="M96.7370 67.1332
L96.9275 67.1332
" />
<path d="M96.9275 67.1332
L97.0227 67.1808
" />
<path d="M96.5942 67.7523
L96.6894 67.7999
" />
<path d="M96.6894 67.7999
L96.9275 67.7999
" />
<path d="M96.9275 67.7999
L97.0227 67.7523
" />
<path d="M97.0227 67.7523
L97.0704 67.6570
" />
<path d="M97.0704 67.6570
L97.0704 67.5618
" />
<path d="M97.0704 67.5618
L97.0227 67.4665
" />
<path d="M97.0227 67.4665
L96.9275 67.4189
" />
<path d="M96.9275 67.4189
L96.6894 67.4189
" />
<path d="M96.6894 67.4189
L96.5942 67.3713
" />
<path d="M96.1180 67.7999
L96.1180 67.1332
" />
<path d="M96.1180 67.3237
L96.0704 67.2284
" />
<path d="M96.0704 67.2284
L96.0227 67.1808
" />
<path d="M96.0227 67.1808
L95.9275 67.1332
" />
<path d="M95.9275 67.1332
L95.8323 67.1332
" />
<path d="M95.0704 67.7999
L95.0704 66.7999
" />
<path d="M95.0704 67.7523
L95.1656 67.7999
" />
<path d="M95.1656 67.7999
L95.3561 67.7999
" />
<path d="M95.3561 67.7999
L95.4513 67.7523
" />
<path d="M95.4513 67.7523
L95.4989 67.7046
" />
<path d="M95.4989 67.7046
L95.5466 67.6094
" />
<path d="M95.5466 67.6094
L95.5466 67.3237
" />
<path d="M95.5466 67.3237
L95.4989 67.2284
" />
<path d="M95.4989 67.2284
L95.4513 67.1808
" />
<path d="M95.4513 67.1808
L95.3561 67.1332
" />
<path d="M95.3561 67.1332
L95.1656 67.1332
" />
<path d="M95.1656 67.1332
L95.0704 67.1808
" />
</g><text x="112.5500" y="69.5400"
transform="scale(-1 1) translate(-225.100000 0)"
textLength="15.2024" font-size="1.3333" lengthAdjust="spacingAndGlyphs"
text-anchor="start" opacity="0" stroke-opacity="0">PCB: 0.0.1 cb641f7</text>
<g class="stroked-text"><desc>PCB: 0.0.1 cb641f7</desc>
<path d="M112.2132 69.4098
L112.2132 68.4098
" />
<path d="M112.2132 68.4098
L111.8323 68.4098
" />
<path d="M111.8323 68.4098
L111.7370 68.4574
" />
<path d="M111.7370 68.4574
L111.6894 68.5051
" />
<path d="M111.6894 68.5051
L111.6418 68.6003
" />
<path d="M111.6418 68.6003
L111.6418 68.7432
" />
<path d="M111.6418 68.7432
L111.6894 68.8384
" />
<path d="M111.6894 68.8384
L111.7370 68.8860
" />
<path d="M111.7370 68.8860
L111.8323 68.9336
" />
<path d="M111.8323 68.9336
L112.2132 68.9336
" />
<path d="M110.6418 69.3146
L110.6894 69.3622
" />
<path d="M110.6894 69.3622
L110.8323 69.4098
" />
<path d="M110.8323 69.4098
L110.9275 69.4098
" />
<path d="M110.9275 69.4098
L111.0704 69.3622
" />
<path d="M111.0704 69.3622
L111.1656 69.2670
" />
<path d="M111.1656 69.2670
L111.2132 69.1717
" />
<path d="M111.2132 69.1717
L111.2608 68.9812
" />
<path d="M111.2608 68.9812
L111.2608 68.8384
" />
<path d="M111.2608 68.8384
L111.2132 68.6479
" />
<path d="M111.2132 68.6479
L111.1656 68.5527
" />
<path d="M111.1656 68.5527
L111.0704 68.4574
" />
<path d="M111.0704 68.4574
L110.9275 68.4098
" />
<path d="M110.9275 68.4098
L110.8323 68.4098
" />
<path d="M110.8323 68.4098
L110.6894 68.4574
" />
<path d="M110.6894 68.4574
L110.6418 68.5051
" />
<path d="M109.8799 68.8860
L109.7370 68.9336
" />
<path d="M109.7370 68.9336
L109.6894 68.9812
" />
<path d="M109.6894 68.9812
L109.6418 69.0765
" />
<path d="M109.6418 69.0765
L109.6418 69.2193
" />
<path d="M109.6418 69.2193
L109.6894 69.3146
" />
<path d="M109.6894 69.3146
L109.7370 69.3622
" />
<path d="M109.7370 69.3622
L109.8323 69.4098
" />
<path d="M109.8323 69.4098
L110.2132 69.4098
" />
<path d="M110.2132 69.4098
L110.2132 68.4098
" />
<path d="M110.2132 68.4098
L109.8799 68.4098
" />
<path d="M109.8799 68.4098
L109.7846 68.4574
" />
<path d="M109.7846 68.4574
L109.7370 68.5051
" />
<path d="M109.7370 68.5051
L109.6894 68.6003
" />
<path d="M109.6894 68.6003
L109.6894 68.6955
" />
<path d="M109.6894 68.6955
L109.7370 68.7908
" />
<path d="M109.7370 68.7908
L109.7846 68.8384
" />
<path d="M109.7846 68.8384
L109.8799 68.8860
" />
<path d="M109.8799 68.8860
L110.2132 68.8860
" />
<path d="M109.2132 69.3146
L109.1656 69.3622
" />
<path d="M109.1656 69.3622
L109.2132 69.4098
" />
<path d="M109.2132 69.4098
L109.2608 69.3622
" />
<path d="M109.2608 69.3622
L109.2132 69.3146
" />
<path d="M109.2132 69.3146
L109.2132 69.4098
" />
<path d="M109.2132 68.7908
L109.1656 68.8384
" />
<path d="M109.1656 68.8384
L109.2132 68.8860
" />
<path d="M109.2132 68.8860
L109.2608 68.8384
" />
<path d="M109.2608 68.8384
L109.2132 68.7908
" />
<path d="M109.2132 68.7908
L109.2132 68.8860
" />
<path d="M107.7846 68.4098
L107.6894 68.4098
" />
<path d="M107.6894 68.4098
L107.5942 68.4574
" />
<path d="M107.5942 68.4574
L107.5466 68.5051
" />
<path d="M107.5466 68.5051
L107.4989 68.6003
" />
<path d="M107.4989 68.6003
L107.4513 68.7908
" />
<path d="M107.4513 68.7908
L107.4513 69.0289
" />
<path d="M107.4513 69.0289
L107.4989 69.2193
" />
<path d="M107.4989 69.2193
L107.5466 69.3146
" />
<path d="M107.5466 69.3146
L107.5942 69.3622
" />
<path d="M107.5942 69.3622
L107.6894 69.4098
" />
<path d="M107.6894 69.4098
L107.7846 69.4098
" />
<path d="M107.7846 69.4098
L107.8799 69.3622
" />
<path d="M107.8799 69.3622
L107.9275 69.3146
" />
<path d="M107.9275 69.3146
L107.9751 69.2193
" />
<path d="M107.9751 69.2193
L108.0227 69.0289
" />
<path d="M108.0227 69.0289
L108.0227 68.7908
" />
<path d="M108.0227 68.7908
L107.9751 68.6003
" />
<path d="M107.9751 68.6003
L107.9275 68.5051
" />
<path d="M107.9275 68.5051
L107.8799 68.4574
" />
<path d="M107.8799 68.4574
L107.7846 68.4098
" />
<path d="M107.0227 69.3146
L106.9751 69.3622
" />
<path d="M106.9751 69.3622
L107.0227 69.4098
" />
<path d="M107.0227 69.4098
L107.0704 69.3622
" />
<path d="M107.0704 69.3622
L107.0227 69.3146
" />
<path d="M107.0227 69.3146
L107.0227 69.4098
" />
<path d="M106.3561 68.4098
L106.2608 68.4098
" />
<path d="M106.2608 68.4098
L106.1656 68.4574
" />
<path d="M106.1656 68.4574
L106.1180 68.5051
" />
<path d="M106.1180 68.5051
L106.0704 68.6003
" />
<path d="M106.0704 68.6003
L106.0227 68.7908
" />
<path d="M106.0227 68.7908
L106.0227 69.0289
" />
<path d="M106.0227 69.0289
L106.0704 69.2193
" />
<path d="M106.0704 69.2193
L106.1180 69.3146
" />
<path d="M106.1180 69.3146
L106.1656 69.3622
" />
<path d="M106.1656 69.3622
L106.2608 69.4098
" />
<path d="M106.2608 69.4098
L106.3561 69.4098
" />
<path d="M106.3561 69.4098
L106.4513 69.3622
" />
<path d="M106.4513 69.3622
L106.4989 69.3146
" />
<path d="M106.4989 69.3146
L106.5466 69.2193
" />
<path d="M106.5466 69.2193
L106.5942 69.0289
" />
<path d="M106.5942 69.0289
L106.5942 68.7908
" />
<path d="M106.5942 68.7908
L106.5466 68.6003
" />
<path d="M106.5466 68.6003
L106.4989 68.5051
" />
<path d="M106.4989 68.5051
L106.4513 68.4574
" />
<path d="M106.4513 68.4574
L106.3561 68.4098
" />
<path d="M105.5942 69.3146
L105.5466 69.3622
" />
<path d="M105.5466 69.3622
L105.5942 69.4098
" />
<path d="M105.5942 69.4098
L105.6418 69.3622
" />
<path d="M105.6418 69.3622
L105.5942 69.3146
" />
<path d="M105.5942 69.3146
L105.5942 69.4098
" />
<path d="M104.5942 69.4098
L105.1656 69.4098
" />
<path d="M104.8799 69.4098
L104.8799 68.4098
" />
<path d="M104.8799 68.4098
L104.9751 68.5527
" />
<path d="M104.9751 68.5527
L105.0704 68.6479
" />
<path d="M105.0704 68.6479
L105.1656 68.6955
" />
<path d="M102.9751 69.3622
L103.0704 69.4098
" />
<path d="M103.0704 69.4098
L103.2608 69.4098
" />
<path d="M103.2608 69.4098
L103.3561 69.3622
" />
<path d="M103.3561 69.3622
L103.4037 69.3146
" />
<path d="M103.4037 69.3146
L103.4513 69.2193
" />
<path d="M103.4513 69.2193
L103.4513 68.9336
" />
<path d="M103.4513 68.9336
L103.4037 68.8384
" />
<path d="M103.4037 68.8384
L103.3561 68.7908
" />
<path d="M103.3561 68.7908
L103.2608 68.7432
" />
<path d="M103.2608 68.7432
L103.0704 68.7432
" />
<path d="M103.0704 68.7432
L102.9751 68.7908
" />
<path d="M102.5466 69.4098
L102.5466 68.4098
" />
<path d="M102.5466 68.7908
L102.4513 68.7432
" />
<path d="M102.4513 68.7432
L102.2608 68.7432
" />
<path d="M102.2608 68.7432
L102.1656 68.7908
" />
<path d="M102.1656 68.7908
L102.1180 68.8384
" />
<path d="M102.1180 68.8384
L102.0704 68.9336
" />
<path d="M102.0704 68.9336
L102.0704 69.2193
" />
<path d="M102.0704 69.2193
L102.1180 69.3146
" />
<path d="M102.1180 69.3146
L102.1656 69.3622
" />
<path d="M102.1656 69.3622
L102.2608 69.4098
" />
<path d="M102.2608 69.4098
L102.4513 69.4098
" />
<path d="M102.4513 69.4098
L102.5466 69.3622
" />
<path d="M101.2132 68.4098
L101.4037 68.4098
" />
<path d="M101.4037 68.4098
L101.4989 68.4574
" />
<path d="M101.4989 68.4574
L101.5466 68.5051
" />
<path d="M101.5466 68.5051
L101.6418 68.6479
" />
<path d="M101.6418 68.6479
L101.6894 68.8384
" />
<path d="M101.6894 68.8384
L101.6894 69.2193
" />
<path d="M101.6894 69.2193
L101.6418 69.3146
" />
<path d="M101.6418 69.3146
L101.5942 69.3622
" />
<path d="M101.5942 69.3622
L101.4989 69.4098
" />
<path d="M101.4989 69.4098
L101.3085 69.4098
" />
<path d="M101.3085 69.4098
L101.2132 69.3622
" />
<path d="M101.2132 69.3622
L101.1656 69.3146
" />
<path d="M101.1656 69.3146
L101.1180 69.2193
" />
<path d="M101.1180 69.2193
L101.1180 68.9812
" />
<path d="M101.1180 68.9812
L101.1656 68.8860
" />
<path d="M101.1656 68.8860
L101.2132 68.8384
" />
<path d="M101.2132 68.8384
L101.3085 68.7908
" />
<path d="M101.3085 68.7908
L101.4989 68.7908
" />
<path d="M101.4989 68.7908
L101.5942 68.8384
" />
<path d="M101.5942 68.8384
L101.6418 68.8860
" />
<path d="M101.6418 68.8860
L101.6894 68.9812
" />
<path d="M100.2608 68.7432
L100.2608 69.4098
" />
<path d="M100.4989 68.3622
L100.7370 69.0765
" />
<path d="M100.7370 69.0765
L100.1180 69.0765
" />
<path d="M99.2132 69.4098
L99.7846 69.4098
" />
<path d="M99.4989 69.4098
L99.4989 68.4098
" />
<path d="M99.4989 68.4098
L99.5942 68.5527
" />
<path d="M99.5942 68.5527
L99.6894 68.6479
" />
<path d="M99.6894 68.6479
L99.7846 68.6955
" />
<path d="M98.9275 68.7432
L98.5466 68.7432
" />
<path d="M98.7846 69.4098
L98.7846 68.5527
" />
<path d="M98.7846 68.5527
L98.7370 68.4574
" />
<path d="M98.7370 68.4574
L98.6418 68.4098
" />
<path d="M98.6418 68.4098
L98.5466 68.4098
" />
<path d="M98.3085 68.4098
L97.6418 68.4098
" />
<path d="M97.6418 68.4098
L98.0704 69.4098
" />
</g><text x="69.1700" y="96.2800"
transform="scale(-1 1) translate(-138.340000 0)"
textLength="1.9643" font-size="1.3333" lengthAdjust="spacingAndGlyphs"
text-anchor="middle" opacity="0" stroke-opacity="0">J3</text>
<g class="stroked-text"><desc>J3</desc>
<path d="M69.5033 95.2348
L69.5033 95.9491
" />
<path d="M69.5033 95.9491
L69.5510 96.0920
" />
<path d="M69.5510 96.0920
L69.6462 96.1872
" />
<path d="M69.6462 96.1872
L69.7890 96.2348
" />
<path d="M69.7890 96.2348
L69.8843 96.2348
" />
<path d="M69.1224 95.2348
L68.5033 95.2348
" />
<path d="M68.5033 95.2348
L68.8367 95.6158
" />
<path d="M68.8367 95.6158
L68.6938 95.6158
" />
<path d="M68.6938 95.6158
L68.5986 95.6634
" />
<path d="M68.5986 95.6634
L68.5510 95.7110
" />
<path d="M68.5510 95.7110
L68.5033 95.8062
" />
<path d="M68.5033 95.8062
L68.5033 96.0443
" />
<path d="M68.5033 96.0443
L68.5510 96.1396
" />
<path d="M68.5510 96.1396
L68.5986 96.1872
" />
<path d="M68.5986 96.1872
L68.6938 96.2348
" />
<path d="M68.6938 96.2348
L68.9795 96.2348
" />
<path d="M68.9795 96.2348
L69.0748 96.1872
" />
<path d="M69.0748 96.1872
L69.1224 96.1396
" />
</g><text x="110.6200" y="97.4700"
transform="scale(-1 1) translate(-221.240000 0)"
textLength="1.9643" font-size="1.3333" lengthAdjust="spacingAndGlyphs"
text-anchor="middle" opacity="0" stroke-opacity="0">J2</text>
<g class="stroked-text"><desc>J2</desc>
<path d="M110.9533 96.4248
L110.9533 97.1391
" />
<path d="M110.9533 97.1391
L111.0010 97.2820
" />
<path d="M111.0010 97.2820
L111.0962 97.3772
" />
<path d="M111.0962 97.3772
L111.2390 97.4248
" />
<path d="M111.2390 97.4248
L111.3343 97.4248
" />
<path d="M110.5248 96.5201
L110.4771 96.4724
" />
<path d="M110.4771 96.4724
L110.3819 96.4248
" />
<path d="M110.3819 96.4248
L110.1438 96.4248
" />
<path d="M110.1438 96.4248
L110.0486 96.4724
" />
<path d="M110.0486 96.4724
L110.0010 96.5201
" />
<path d="M110.0010 96.5201
L109.9533 96.6153
" />
<path d="M109.9533 96.6153
L109.9533 96.7105
" />
<path d="M109.9533 96.7105
L110.0010 96.8534
" />
<path d="M110.0010 96.8534
L110.5724 97.4248
" />
<path d="M110.5724 97.4248
L109.9533 97.4248
" />
</g></g>
<g style="fill:none; 
stroke:#000000; stroke-width:0.1200; stroke-opacity:1; 
stroke-linecap:round; stroke-linejoin:round;">
<path d="M62.0100 89.7100
L62.0100 92.3100
" />
<path d="M62.0100 89.7100
L69.7500 89.7100
" />
<path d="M62.0100 92.3100
L64.6100 92.3100
" />
<path d="M62.0100 93.5800
L62.0100 94.9100
" />
<path d="M62.0100 94.9100
L63.3400 94.9100
" />
<path d="M64.6100 92.3100
L64.6100 94.9100
" />
<path d="M64.6100 94.9100
L69.7500 94.9100
" />
<path d="M69.7500 89.7100
L69.7500 94.9100
" />
<path d="M106.3200 88.0700
L106.3200 89.4000
" />
<path d="M106.3200 90.6700
L106.3200 95.8100
" />
<path d="M107.6500 88.0700
L106.3200 88.0700
" />
<path d="M108.9200 88.0700
L108.9200 90.6700
" />
<path d="M108.9200 90.6700
L106.3200 90.6700
" />
<path d="M111.5200 88.0700
L108.9200 88.0700
" />
<path d="M111.5200 88.0700
L111.5200 95.8100
" />
<path d="M111.5200 95.8100
L106.3200 95.8100
" />
</g>
<g style="fill:#000000; fill-opacity:1.0000; stroke:none;">
<circle cx="110.0000" cy="56.0000" r="1.3750" /> 
</g>
<g style="fill:#000000; fill-opacity:1.0000; stroke:none;">
<circle cx="52.0000" cy="56.0000" r="1.3750" /> 
</g>
<g style="fill:#000000; fill-opacity:1.0000; stroke:none;">
<circle cx="52.0000" cy="105.0000" r="1.3750" /> 
</g>
<g style="fill:#000000; fill-opacity:1.0000; stroke:none;">
<circle cx="110.0000" cy="105.0000" r="1.3750" /> 
</g>
<g style="fill:#000000; fill-opacity:1.0000; stroke:none;">
<circle cx="56.8700" cy="57.2700" r="0.5080" /> 
</g>
<g style="fill:#000000; fill-opacity:1.0000; stroke:none;">
<circle cx="56.8700" cy="54.7300" r="0.5080" /> 
</g>
<g style="fill:#000000; fill-opacity:1.0000; stroke:none;">
<circle cx="59.4100" cy="57.2700" r="0.5080" /> 
</g>
<g style="fill:#000000; fill-opacity:1.0000; stroke:none;">
<circle cx="59.4100" cy="54.7300" r="0.5080" /> 
</g>
<g style="fill:#000000; fill-opacity:1.0000; stroke:none;">
<circle cx="61.9500" cy="57.2700" r="0.5080" /> 
</g>
<g style="fill:#000000; fill-opacity:1.0000; stroke:none;">
<circle cx="61.9500" cy="54.7300" r="0.5080" /> 
</g>
<g style="fill:#000000; fill-opacity:1.0000; stroke:none;">
<circle cx="64.4900" cy="57.2700" r="0.5080" /> 
</g>
<g style="fill:#000000; fill-opacity:1.0000; stroke:none;">
<circle cx="64.4900" cy="54.7300" r="0.5080" /> 
</g>
<g style="fill:#000000; fill-opacity:1.0000; stroke:none;">
<circle cx="67.0300" cy="57.2700" r="0.5080" /> 
</g>
<g style="fill:#000000; fill-opacity:1.0000; stroke:none;">
<circle cx="67.0300" cy="54.7300" r="0.5080" /> 
</g>
<g style="fill:#000000; fill-opacity:1.0000; stroke:none;">
<circle cx="69.5700" cy="57.2700" r="0.5080" /> 
</g>
<g style="fill:#000000; fill-opacity:1.0000; stroke:none;">
<circle cx="69.5700" cy="54.7300" r="0.5080" /> 
</g>
<g style="fill:#000000; fill-opacity:1.0000; stroke:none;">
<circle cx="72.1100" cy="57.2700" r="0.5080" /> 
</g>
<g style="fill:#000000; fill-opacity:1.0000; stroke:none;">
<circle cx="72.1100" cy="54.7300" r="0.5080" /> 
</g>
<g style="fill:#000000; fill-opacity:1.0000; stroke:none;">
<circle cx="74.6500" cy="57.2700" r="0.5080" /> 
</g>
<g style="fill:#000000; fill-opacity:1.0000; stroke:none;">
<circle cx="74.6500" cy="54.7300" r="0.5080" /> 
</g>
<g style="fill:#000000; fill-opacity:1.0000; stroke:none;">
<circle cx="77.1900" cy="57.2700" r="0.5080" /> 
</g>
<g style="fill:#000000; fill-opacity:1.0000; stroke:none;">
<circle cx="77.1900" cy="54.7300" r="0.5080" /> 
</g>
<g style="fill:#000000; fill-opacity:1.0000; stroke:none;">
<circle cx="79.7300" cy="57.2700" r="0.5080" /> 
</g>
<g style="fill:#000000; fill-opacity:1.0000; stroke:none;">
<circle cx="79.7300" cy="54.7300" r="0.5080" /> 
</g>
<g style="fill:#000000; fill-opacity:1.0000; stroke:none;">
<circle cx="82.2700" cy="57.2700" r="0.5080" /> 
</g>
<g style="fill:#000000; fill-opacity:1.0000; stroke:none;">
<circle cx="82.2700" cy="54.7300" r="0.5080" /> 
</g>
<g style="fill:#000000; fill-opacity:1.0000; stroke:none;">
<circle cx="84.8100" cy="57.2700" r="0.5080" /> 
</g>
<g style="fill:#000000; fill-opacity:1.0000; stroke:none;">
<circle cx="84.8100" cy="54.7300" r="0.5080" /> 
</g>
<g style="fill:#000000; fill-opacity:1.0000; stroke:none;">
<circle cx="87.3500" cy="57.2700" r="0.5080" /> 
</g>
<g style="fill:#000000; fill-opacity:1.0000; stroke:none;">
<circle cx="87.3500" cy="54.7300" r="0.5080" /> 
</g>
<g style="fill:#000000; fill-opacity:1.0000; stroke:none;">
<circle cx="89.8900" cy="57.2700" r="0.5080" /> 
</g>
<g style="fill:#000000; fill-opacity:1.0000; stroke:none;">
<circle cx="89.8900" cy="54.7300" r="0.5080" /> 
</g>
<g style="fill:#000000; fill-opacity:1.0000; stroke:none;">
<circle cx="92.4300" cy="57.2700" r="0.5080" /> 
</g>
<g style="fill:#000000; fill-opacity:1.0000; stroke:none;">
<circle cx="92.4300" cy="54.7300" r="0.5080" /> 
</g>
<g style="fill:#000000; fill-opacity:1.0000; stroke:none;">
<circle cx="94.9700" cy="57.2700" r="0.5080" /> 
</g>
<g style="fill:#000000; fill-opacity:1.0000; stroke:none;">
<circle cx="94.9700" cy="54.7300" r="0.5080" /> 
</g>
<g style="fill:#000000; fill-opacity:1.0000; stroke:none;">
<circle cx="97.5100" cy="57.2700" r="0.5080" /> 
</g>
<g style="fill:#000000; fill-opacity:1.0000; stroke:none;">
<circle cx="97.5100" cy="54.7300" r="0.5080" /> 
</g>
<g style="fill:#000000; fill-opacity:1.0000; stroke:none;">
<circle cx="100.0500" cy="57.2700" r="0.5080" /> 
</g>
<g style="fill:#000000; fill-opacity:1.0000; stroke:none;">
<circle cx="100.0500" cy="54.7300" r="0.5080" /> 
</g>
<g style="fill:#000000; fill-opacity:1.0000; stroke:none;">
<circle cx="102.5900" cy="57.2700" r="0.5080" /> 
</g>
<g style="fill:#000000; fill-opacity:1.0000; stroke:none;">
<circle cx="102.5900" cy="54.7300" r="0.5080" /> 
</g>
<g style="fill:#000000; fill-opacity:1.0000; stroke:none;">
<circle cx="105.1300" cy="57.2700" r="0.5080" /> 
</g>
<g style="fill:#000000; fill-opacity:1.0000; stroke:none;">
<circle cx="105.1300" cy="54.7300" r="0.5080" /> 
</g>
<g style="fill:#000000; fill-opacity:1.0000; stroke:none;">
<circle cx="60.9400" cy="104.0000" r="0.6000" /> 
</g>
<g style="fill:#000000; fill-opacity:1.0000; stroke:none;">
<circle cx="60.9400" cy="106.5000" r="0.6000" /> 
</g>
<g style="fill:#000000; fill-opacity:1.0000; stroke:none;">
<circle cx="65.9400" cy="99.0000" r="0.6000" /> 
</g>
<g style="fill:#000000; fill-opacity:1.0000; stroke:none;">
<circle cx="70.9400" cy="104.0000" r="0.6000" /> 
</g>
<g style="fill:#000000; fill-opacity:1.0000; stroke:none;">
<circle cx="70.9400" cy="106.5000" r="0.6000" /> 
</g>
<g style="fill:none; 
stroke:#000000; stroke-width:0.4000; stroke-opacity:1; 
stroke-linecap:round; stroke-linejoin:round;">
<path d="M60.9400 98.5000
L60.9400 99.5000
" />
</g>
<g style="fill:none; 
stroke:#000000; stroke-width:0.8000; stroke-opacity:1; 
stroke-linecap:round; stroke-linejoin:round;">
<path d="M63.4400 98.6500
L63.4400 99.3500
" />
</g>
<g style="fill:none; 
stroke:#000000; stroke-width:0.4000; stroke-opacity:1; 
stroke-linecap:round; stroke-linejoin:round;">
<path d="M65.4400 104.0000
L66.4400 104.0000
" />
<path d="M70.9400 99.5000
L70.9400 98.5000
" />
</g>
<g style="fill:none; 
stroke:#000000; stroke-width:0.8000; stroke-opacity:1; 
stroke-linecap:round; stroke-linejoin:round;">
<path d="M68.4400 99.3500
L68.4400 98.6500
" />
</g>
<g style="fill:#000000; fill-opacity:1.0000; stroke:none;">
<circle cx="92.9500" cy="93.0770" r="0.1500" /> 
</g>
<g style="fill:#000000; fill-opacity:1.0000; stroke:none;">
<circle cx="93.8167" cy="93.0770" r="0.1500" /> 
</g>
<g style="fill:#000000; fill-opacity:1.0000; stroke:none;">
<circle cx="94.6833" cy="93.0770" r="0.1500" /> 
</g>
<g style="fill:#000000; fill-opacity:1.0000; stroke:none;">
<circle cx="95.5500" cy="93.0770" r="0.1500" /> 
</g>
<g style="fill:#000000; fill-opacity:1.0000; stroke:none;">
<circle cx="92.9500" cy="92.2103" r="0.1500" /> 
</g>
<g style="fill:#000000; fill-opacity:1.0000; stroke:none;">
<circle cx="93.8167" cy="92.2103" r="0.1500" /> 
</g>
<g style="fill:#000000; fill-opacity:1.0000; stroke:none;">
<circle cx="94.6833" cy="92.2103" r="0.1500" /> 
</g>
<g style="fill:#000000; fill-opacity:1.0000; stroke:none;">
<circle cx="95.5500" cy="92.2103" r="0.1500" /> 
</g>
<g style="fill:#000000; fill-opacity:1.0000; stroke:none;">
<circle cx="92.9500" cy="91.3437" r="0.1500" /> 
</g>
<g style="fill:#000000; fill-opacity:1.0000; stroke:none;">
<circle cx="93.8167" cy="91.3437" r="0.1500" /> 
</g>
<g style="fill:#000000; fill-opacity:1.0000; stroke:none;">
<circle cx="94.6833" cy="91.3437" r="0.1500" /> 
</g>
<g style="fill:#000000; fill-opacity:1.0000; stroke:none;">
<circle cx="95.5500" cy="91.3437" r="0.1500" /> 
</g>
<g style="fill:#000000; fill-opacity:1.0000; stroke:none;">
<circle cx="92.9500" cy="90.4770" r="0.1500" /> 
</g>
<g style="fill:#000000; fill-opacity:1.0000; stroke:none;">
<circle cx="93.8167" cy="90.4770" r="0.1500" /> 
</g>
<g style="fill:#000000; fill-opacity:1.0000; stroke:none;">
<circle cx="94.6833" cy="90.4770" r="0.1500" /> 
</g>
<g style="fill:#000000; fill-opacity:1.0000; stroke:none;">
<circle cx="95.5500" cy="90.4770" r="0.1500" /> 
</g>
<g style="fill:#000000; fill-opacity:1.0000; stroke:none;">
<circle cx="80.1000" cy="104.0000" r="0.6000" /> 
</g>
<g style="fill:#000000; fill-opacity:1.0000; stroke:none;">
<circle cx="80.1000" cy="106.5000" r="0.6000" /> 
</g>
<g style="fill:#000000; fill-opacity:1.0000; stroke:none;">
<circle cx="85.1000" cy="99.0000" r="0.6000" /> 
</g>
<g style="fill:#000000; fill-opacity:1.0000; stroke:none;">
<circle cx="90.1000" cy="104.0000" r="0.6000" /> 
</g>
<g style="fill:#000000; fill-opacity:1.0000; stroke:none;">
<circle cx="90.1000" cy="106.5000" r="0.6000" /> 
</g>
<g style="fill:none; 
stroke:#000000; stroke-width:0.4000; stroke-opacity:1; 
stroke-linecap:round; stroke-linejoin:round;">
<path d="M80.1000 98.5000
L80.1000 99.5000
" />
</g>
<g style="fill:none; 
stroke:#000000; stroke-width:0.8000; stroke-opacity:1; 
stroke-linecap:round; stroke-linejoin:round;">
<path d="M82.6000 98.6500
L82.6000 99.3500
" />
</g>
<g style="fill:none; 
stroke:#000000; stroke-width:0.4000; stroke-opacity:1; 
stroke-linecap:round; stroke-linejoin:round;">
<path d="M84.6000 104.0000
L85.6000 104.0000
" />
<path d="M90.1000 99.5000
L90.1000 98.5000
" />
</g>
<g style="fill:none; 
stroke:#000000; stroke-width:0.8000; stroke-opacity:1; 
stroke-linecap:round; stroke-linejoin:round;">
<path d="M87.6000 99.3500
L87.6000 98.6500
" />
</g>
<g style="fill:#000000; fill-opacity:1.0000; stroke:none;">
<circle cx="63.3400" cy="93.5800" r="0.5000" /> 
</g>
<g style="fill:#000000; fill-opacity:1.0000; stroke:none;">
<circle cx="63.3400" cy="91.0400" r="0.5000" /> 
</g>
<g style="fill:#000000; fill-opacity:1.0000; stroke:none;">
<circle cx="65.8800" cy="93.5800" r="0.5000" /> 
</g>
<g style="fill:#000000; fill-opacity:1.0000; stroke:none;">
<circle cx="65.8800" cy="91.0400" r="0.5000" /> 
</g>
<g style="fill:#000000; fill-opacity:1.0000; stroke:none;">
<circle cx="68.4200" cy="93.5800" r="0.5000" /> 
</g>
<g style="fill:#000000; fill-opacity:1.0000; stroke:none;">
<circle cx="68.4200" cy="91.0400" r="0.5000" /> 
</g>
<g style="fill:#000000; fill-opacity:1.0000; stroke:none;">
<circle cx="107.6500" cy="89.4000" r="0.5000" /> 
</g>
<g style="fill:#000000; fill-opacity:1.0000; stroke:none;">
<circle cx="110.1900" cy="89.4000" r="0.5000" /> 
</g>
<g style="fill:#000000; fill-opacity:1.0000; stroke:none;">
<circle cx="107.6500" cy="91.9400" r="0.5000" /> 
</g>
<g style="fill:#000000; fill-opacity:1.0000; stroke:none;">
<circle cx="110.1900" cy="91.9400" r="0.5000" /> 
</g>
<g style="fill:#000000; fill-opacity:1.0000; stroke:none;">
<circle cx="107.6500" cy="94.4800" r="0.5000" /> 
</g>
<g style="fill:#000000; fill-opacity:1.0000; stroke:none;">
<circle cx="110.1900" cy="94.4800" r="0.5000" /> 
</g> 
</svg>
