<?xml version="1.0" standalone="no"?>
 <!DOCTYPE svg PUBLIC "-//W3C//DTD SVG 1.1//EN" 
 "http://www.w3.org/Graphics/SVG/1.1/DTD/svg11.dtd"> 
<svg
  xmlns:svg="http://www.w3.org/2000/svg"
  xmlns="http://www.w3.org/2000/svg"
  xmlns:xlink="http://www.w3.org/1999/xlink"
  version="1.1"
  width="297.0022mm" height="210.0072mm" viewBox="0.0000 0.0000 297.0022 210.0072">
<title>SVG Image created as pedalboard-soundcard-B_Mask.svg date 2024/10/16 16:46:58 </title>
  <desc>Image generated by PCBNEW </desc>
<g style="fill:#000000; fill-opacity:1.0000;stroke:#000000; stroke-opacity:1.0000;
stroke-linecap:round; stroke-linejoin:round;"
 transform="translate(0 0) scale(1 1)">
</g>
<g style="fill:#000000; fill-opacity:1.0000; stroke:none;">
<circle cx="110.0000" cy="56.0000" r="3.1000" /> 
</g>
<g style="fill:#000000; fill-opacity:1.0000; stroke:none;">
<circle cx="52.0000" cy="56.0000" r="3.1000" /> 
</g>
<g style="fill:#000000; fill-opacity:1.0000; stroke:none;">
<circle cx="52.0000" cy="105.0000" r="3.1000" /> 
</g>
<g style="fill:#000000; fill-opacity:1.0000; stroke:none;">
<circle cx="110.0000" cy="105.0000" r="3.1000" /> 
<path style="fill:#000000; fill-opacity:1.0000; stroke:none;fill-rule:evenodd;"
d="M 57.7336,58.1336
56.0064,58.1336
56.0064,56.4064
57.7336,56.4064
Z" /> 
</g>
<g style="fill:#000000; fill-opacity:1.0000; stroke:none;">
<circle cx="56.8700" cy="54.7300" r="0.8636" /> 
<circle cx="59.4100" cy="57.2700" r="0.8636" /> 
<circle cx="59.4100" cy="54.7300" r="0.8636" /> 
<circle cx="61.9500" cy="57.2700" r="0.8636" /> 
<circle cx="61.9500" cy="54.7300" r="0.8636" /> 
<circle cx="64.4900" cy="57.2700" r="0.8636" /> 
<circle cx="64.4900" cy="54.7300" r="0.8636" /> 
<circle cx="67.0300" cy="57.2700" r="0.8636" /> 
<circle cx="67.0300" cy="54.7300" r="0.8636" /> 
<circle cx="69.5700" cy="57.2700" r="0.8636" /> 
<circle cx="69.5700" cy="54.7300" r="0.8636" /> 
<circle cx="72.1100" cy="57.2700" r="0.8636" /> 
<circle cx="72.1100" cy="54.7300" r="0.8636" /> 
<circle cx="74.6500" cy="57.2700" r="0.8636" /> 
<circle cx="74.6500" cy="54.7300" r="0.8636" /> 
<circle cx="77.1900" cy="57.2700" r="0.8636" /> 
<circle cx="77.1900" cy="54.7300" r="0.8636" /> 
<circle cx="79.7300" cy="57.2700" r="0.8636" /> 
<circle cx="79.7300" cy="54.7300" r="0.8636" /> 
<circle cx="82.2700" cy="57.2700" r="0.8636" /> 
<circle cx="82.2700" cy="54.7300" r="0.8636" /> 
<circle cx="84.8100" cy="57.2700" r="0.8636" /> 
<circle cx="84.8100" cy="54.7300" r="0.8636" /> 
<circle cx="87.3500" cy="57.2700" r="0.8636" /> 
<circle cx="87.3500" cy="54.7300" r="0.8636" /> 
<circle cx="89.8900" cy="57.2700" r="0.8636" /> 
<circle cx="89.8900" cy="54.7300" r="0.8636" /> 
<circle cx="92.4300" cy="57.2700" r="0.8636" /> 
<circle cx="92.4300" cy="54.7300" r="0.8636" /> 
<circle cx="94.9700" cy="57.2700" r="0.8636" /> 
<circle cx="94.9700" cy="54.7300" r="0.8636" /> 
<circle cx="97.5100" cy="57.2700" r="0.8636" /> 
<circle cx="97.5100" cy="54.7300" r="0.8636" /> 
<circle cx="100.0500" cy="57.2700" r="0.8636" /> 
<circle cx="100.0500" cy="54.7300" r="0.8636" /> 
<circle cx="102.5900" cy="57.2700" r="0.8636" /> 
<circle cx="102.5900" cy="54.7300" r="0.8636" /> 
<circle cx="105.1300" cy="57.2700" r="0.8636" /> 
<circle cx="105.1300" cy="54.7300" r="0.8636" /> 
<circle cx="60.9400" cy="104.0000" r="0.6000" /> 
</g>
<g style="fill:#000000; fill-opacity:1.0000; stroke:none;">
<circle cx="60.9400" cy="106.5000" r="0.6000" /> 
</g>
<g style="fill:#000000; fill-opacity:1.0000; stroke:none;">
<circle cx="65.9400" cy="99.0000" r="0.6000" /> 
</g>
<g style="fill:#000000; fill-opacity:1.0000; stroke:none;">
<circle cx="70.9400" cy="104.0000" r="0.6000" /> 
</g>
<g style="fill:#000000; fill-opacity:1.0000; stroke:none;">
<circle cx="70.9400" cy="106.5000" r="0.6000" /> 
</g>
<g style="fill:none; 
stroke:#000000; stroke-width:1.2000; stroke-opacity:1; 
stroke-linecap:round; stroke-linejoin:round;">
<path d="M60.9400 98.5000
L60.9400 99.5000
" />
</g>
<g style="fill:none; 
stroke:#000000; stroke-width:1.6000; stroke-opacity:1; 
stroke-linecap:round; stroke-linejoin:round;">
<path d="M63.4400 98.6500
L63.4400 99.3500
" />
</g>
<g style="fill:none; 
stroke:#000000; stroke-width:1.2000; stroke-opacity:1; 
stroke-linecap:round; stroke-linejoin:round;">
<path d="M65.4400 104.0000
L66.4400 104.0000
" />
<path d="M70.9400 99.5000
L70.9400 98.5000
" />
</g>
<g style="fill:none; 
stroke:#000000; stroke-width:1.6000; stroke-opacity:1; 
stroke-linecap:round; stroke-linejoin:round;">
<path d="M68.4400 99.4500
L68.4400 98.5500
" />
</g>
<g style="fill:#000000; fill-opacity:1.0000; stroke:none;">
<circle cx="80.1000" cy="104.0000" r="0.6000" /> 
</g>
<g style="fill:#000000; fill-opacity:1.0000; stroke:none;">
<circle cx="80.1000" cy="106.5000" r="0.6000" /> 
</g>
<g style="fill:#000000; fill-opacity:1.0000; stroke:none;">
<circle cx="85.1000" cy="99.0000" r="0.6000" /> 
</g>
<g style="fill:#000000; fill-opacity:1.0000; stroke:none;">
<circle cx="90.1000" cy="104.0000" r="0.6000" /> 
</g>
<g style="fill:#000000; fill-opacity:1.0000; stroke:none;">
<circle cx="90.1000" cy="106.5000" r="0.6000" /> 
</g>
<g style="fill:none; 
stroke:#000000; stroke-width:1.2000; stroke-opacity:1; 
stroke-linecap:round; stroke-linejoin:round;">
<path d="M80.1000 98.5000
L80.1000 99.5000
" />
</g>
<g style="fill:none; 
stroke:#000000; stroke-width:1.6000; stroke-opacity:1; 
stroke-linecap:round; stroke-linejoin:round;">
<path d="M82.6000 98.6500
L82.6000 99.3500
" />
</g>
<g style="fill:none; 
stroke:#000000; stroke-width:1.2000; stroke-opacity:1; 
stroke-linecap:round; stroke-linejoin:round;">
<path d="M84.6000 104.0000
L85.6000 104.0000
" />
<path d="M90.1000 99.5000
L90.1000 98.5000
" />
</g>
<g style="fill:none; 
stroke:#000000; stroke-width:1.6000; stroke-opacity:1; 
stroke-linecap:round; stroke-linejoin:round;">
<path d="M87.6000 99.4500
L87.6000 98.5500
" />
<path style="fill:#000000; fill-opacity:1.0000; stroke:none;fill-rule:evenodd;"
d="M 62.4900,92.7300
64.1900,92.7300
64.1900,94.4300
62.4900,94.4300
Z" /> 
</g>
<g style="fill:#000000; fill-opacity:1.0000; stroke:none;">
<circle cx="63.3400" cy="91.0400" r="0.8500" /> 
<circle cx="65.8800" cy="93.5800" r="0.8500" /> 
<circle cx="65.8800" cy="91.0400" r="0.8500" /> 
<circle cx="68.4200" cy="93.5800" r="0.8500" /> 
<circle cx="68.4200" cy="91.0400" r="0.8500" /> 
<path style="fill:#000000; fill-opacity:1.0000; stroke:none;fill-rule:evenodd;"
d="M 108.5000,88.5500
108.5000,90.2500
106.8000,90.2500
106.8000,88.5500
Z" /> 
<circle cx="110.1900" cy="89.4000" r="0.8500" /> 
<circle cx="107.6500" cy="91.9400" r="0.8500" /> 
<circle cx="110.1900" cy="91.9400" r="0.8500" /> 
<circle cx="107.6500" cy="94.4800" r="0.8500" /> 
<circle cx="110.1900" cy="94.4800" r="0.8500" /> 
</g> 
</svg>
