<?xml version='1.0' encoding='ASCII' standalone='yes'?>
<svg xmlns="http://www.w3.org/2000/svg" version="1.1" width="297.0022mm" height="210.0072mm" viewBox="0.0000 0.0000 297.0022 210.0072">
            <title>Picture generated by PcbDraw </title>
            <desc>Picture generated by PcbDraw</desc>
        <defs><clipPath id="cut-off"><path d=" M 51.5 108.5 L 110.5 108.5 A 3 3 0 0 0 113.5 105.5 L 113.5 55.5 A 3 3 0 0 0 110.5 52.5 L 51.5 52.5 A 3 3 0 0 0 48.5 55.5 L 48.5 71.0 A 1 1 0 0 0 49.5 72.0 L 52.5 72.0 A 1 1 0 0 1 53.5 73.0 L 53.5 88.0 A 1 1 0 0 1 52.5 89.0 L 49.5 89.0 A 1 1 0 0 0 48.5 90.0 L 48.5 105.5 A 3 3 0 0 0 51.5 108.5 " style="fill-rule: evenodd;"/></clipPath><mask id="pads-mask-silkscreen"><rect x="35.560716" y="41.20925" width="94.750895" height="80.139" fill="white"/><g style="fill:#000000; fill-opacity:0.0;  stroke:#000000; stroke-width:0.0000; stroke-opacity:1;  stroke-linecap:round; stroke-linejoin:round;">
<g style="fill:#000000; fill-opacity:1.0000;  stroke:#000000; stroke-width:0.0000; stroke-opacity:1;  stroke-linecap:round; stroke-linejoin:round;">
<circle cx="110.0000" cy="56.0000" r="3.1000"/> 
</g>
<g style="fill:#000000; fill-opacity:1.0000;  stroke:#000000; stroke-width:0.0000; stroke-opacity:1;  stroke-linecap:round; stroke-linejoin:round;">
<circle cx="52.0000" cy="56.0000" r="3.1000"/> 
</g>
<g style="fill:#000000; fill-opacity:1.0000;  stroke:#000000; stroke-width:0.0000; stroke-opacity:1;  stroke-linecap:round; stroke-linejoin:round;">
<circle cx="52.0000" cy="105.0000" r="3.1000"/> 
</g>
<g style="fill:#000000; fill-opacity:1.0000;  stroke:#000000; stroke-width:0.0000; stroke-opacity:1;  stroke-linecap:round; stroke-linejoin:round;">
<circle cx="110.0000" cy="105.0000" r="3.1000"/> 
</g>
<g style="fill:#000000; fill-opacity:1.0000;  stroke:#000000; stroke-width:0.0000; stroke-opacity:1;  stroke-linecap:round; stroke-linejoin:round;">
<path style="fill:#000000; fill-opacity:1.0000;  stroke:#000000; stroke-width:0.0000; stroke-opacity:1;  stroke-linecap:round; stroke-linejoin:round;fill-rule:evenodd;" d="M 57.7336,58.1336 56.0064,58.1336 56.0064,56.4064 57.7336,56.4064 Z"/> 
<circle cx="56.8700" cy="54.7300" r="0.8636"/> 
<circle cx="59.4100" cy="57.2700" r="0.8636"/> 
<circle cx="59.4100" cy="54.7300" r="0.8636"/> 
<circle cx="61.9500" cy="57.2700" r="0.8636"/> 
<circle cx="61.9500" cy="54.7300" r="0.8636"/> 
<circle cx="64.4900" cy="57.2700" r="0.8636"/> 
<circle cx="64.4900" cy="54.7300" r="0.8636"/> 
<circle cx="67.0300" cy="57.2700" r="0.8636"/> 
<circle cx="67.0300" cy="54.7300" r="0.8636"/> 
<circle cx="69.5700" cy="57.2700" r="0.8636"/> 
<circle cx="69.5700" cy="54.7300" r="0.8636"/> 
<circle cx="72.1100" cy="57.2700" r="0.8636"/> 
<circle cx="72.1100" cy="54.7300" r="0.8636"/> 
<circle cx="74.6500" cy="57.2700" r="0.8636"/> 
<circle cx="74.6500" cy="54.7300" r="0.8636"/> 
<circle cx="77.1900" cy="57.2700" r="0.8636"/> 
<circle cx="77.1900" cy="54.7300" r="0.8636"/> 
<circle cx="79.7300" cy="57.2700" r="0.8636"/> 
<circle cx="79.7300" cy="54.7300" r="0.8636"/> 
<circle cx="82.2700" cy="57.2700" r="0.8636"/> 
<circle cx="82.2700" cy="54.7300" r="0.8636"/> 
<circle cx="84.8100" cy="57.2700" r="0.8636"/> 
<circle cx="84.8100" cy="54.7300" r="0.8636"/> 
<circle cx="87.3500" cy="57.2700" r="0.8636"/> 
<circle cx="87.3500" cy="54.7300" r="0.8636"/> 
<circle cx="89.8900" cy="57.2700" r="0.8636"/> 
<circle cx="89.8900" cy="54.7300" r="0.8636"/> 
<circle cx="92.4300" cy="57.2700" r="0.8636"/> 
<circle cx="92.4300" cy="54.7300" r="0.8636"/> 
<circle cx="94.9700" cy="57.2700" r="0.8636"/> 
<circle cx="94.9700" cy="54.7300" r="0.8636"/> 
<circle cx="97.5100" cy="57.2700" r="0.8636"/> 
<circle cx="97.5100" cy="54.7300" r="0.8636"/> 
<circle cx="100.0500" cy="57.2700" r="0.8636"/> 
<circle cx="100.0500" cy="54.7300" r="0.8636"/> 
<circle cx="102.5900" cy="57.2700" r="0.8636"/> 
<circle cx="102.5900" cy="54.7300" r="0.8636"/> 
<circle cx="105.1300" cy="57.2700" r="0.8636"/> 
<circle cx="105.1300" cy="54.7300" r="0.8636"/> 
</g>
<g style="fill:#000000; fill-opacity:1.0000;  stroke:#000000; stroke-width:0.0000; stroke-opacity:1;  stroke-linecap:round; stroke-linejoin:round;">
<path style="fill:#000000; fill-opacity:1.0000;  stroke:#000000; stroke-width:0.0000; stroke-opacity:1;  stroke-linecap:round; stroke-linejoin:round;fill-rule:evenodd;" d="M 64.1900,94.4300 62.4900,94.4300 62.4900,92.7300 64.1900,92.7300 Z"/> 
<circle cx="63.3400" cy="91.0400" r="0.8500"/> 
<circle cx="65.8800" cy="93.5800" r="0.8500"/> 
<circle cx="65.8800" cy="91.0400" r="0.8500"/> 
<circle cx="68.4200" cy="93.5800" r="0.8500"/> 
<circle cx="68.4200" cy="91.0400" r="0.8500"/> 
</g>
<g style="fill:#000000; fill-opacity:1.0000;  stroke:#000000; stroke-width:0.0000; stroke-opacity:1;  stroke-linecap:round; stroke-linejoin:round;">
<path style="fill:#000000; fill-opacity:1.0000;  stroke:#000000; stroke-width:0.0000; stroke-opacity:1;  stroke-linecap:round; stroke-linejoin:round;fill-rule:evenodd;" d="M 106.8000,90.2500 106.8000,88.5500 108.5000,88.5500 108.5000,90.2500 Z"/> 
<circle cx="110.1900" cy="89.4000" r="0.8500"/> 
<circle cx="107.6500" cy="91.9400" r="0.8500"/> 
<circle cx="110.1900" cy="91.9400" r="0.8500"/> 
<circle cx="107.6500" cy="94.4800" r="0.8500"/> 
<circle cx="110.1900" cy="94.4800" r="0.8500"/> 
</g>
</g> 
</mask></defs><g transform="scale(-1,1) translate(-297,0)" id="boardContainer"><g id="substrate" clip-path="url(#cut-off)" mask="url(#pads-mask-silkscreen)"><g id="substrate-board" style="fill:#143324; fill-opacity:0.25098039215686274; stroke:#143324; stroke-width:0;"><path d=" M 51.5 108.5 L 110.5 108.5 A 3 3 0 0 0 113.5 105.5 L 113.5 55.5 A 3 3 0 0 0 110.5 52.5 L 51.5 52.5 A 3 3 0 0 0 48.5 55.5 L 48.5 71.0 A 1 1 0 0 0 49.5 72.0 L 52.5 72.0 A 1 1 0 0 1 53.5 73.0 L 53.5 88.0 A 1 1 0 0 1 52.5 89.0 L 49.5 89.0 A 1 1 0 0 0 48.5 90.0 L 48.5 105.5 A 3 3 0 0 0 51.5 108.5 " style="fill-rule: evenodd;"/><g style="fill-opacity: 0.0;stroke-width: 0.1000;stroke-opacity: 1;stroke-linecap: round;stroke-linejoin: round">
<path d="M48.5000 105.5000 A3.0000 3.0000 0.0 0 0 51.5000 108.5000"/>
<path d="M110.5000 108.5000 A3.0000 3.0000 0.0 0 0 113.5000 105.5000"/>
<path d="M48.5000 71.0000 A1.0000 1.0000 0.0 0 0 49.5000 72.0000"/>
<path d="M53.5000 73.0000 A1.0000 1.0000 0.0 0 0 52.5000 72.0000"/>
<path d="M52.5000 89.0000 A1.0000 1.0000 0.0 0 0 53.5000 88.0000"/>
<path d="M49.5000 89.0000 A1.0000 1.0000 0.0 0 0 48.5000 90.0000"/>
<path d="M51.5000 52.5000 A3.0000 3.0000 0.0 0 0 48.5000 55.5000"/>
<path d="M51.5000 52.5000 L110.5000 52.5000 "/>
<path d="M113.5000 55.5000 A3.0000 3.0000 0.0 0 0 110.5000 52.5000"/>
<path d="M48.5000 55.5000 L48.5000 71.0000 "/>
<path d="M53.5000 73.0000 L53.5000 88.0000 "/>
<path d="M49.5000 72.0000 L52.5000 72.0000 "/>
<path d="M48.5000 90.0000 L48.5000 105.5000 "/>
<path d="M51.5000 108.5000 L110.5000 108.5000 "/>
<path d="M113.5000 55.5000 L113.5000 105.5000 "/>
<path d="M49.5000 89.0000 L52.5000 89.0000 "/>
</g> 
</g></g></g></svg>
