<?xml version="1.0" standalone="no"?>
 <!DOCTYPE svg PUBLIC "-//W3C//DTD SVG 1.1//EN" 
 "http://www.w3.org/Graphics/SVG/1.1/DTD/svg11.dtd"> 
<svg
  xmlns:svg="http://www.w3.org/2000/svg"
  xmlns="http://www.w3.org/2000/svg"
  xmlns:xlink="http://www.w3.org/1999/xlink"
  version="1.1"
  width="297.0022mm" height="210.0072mm" viewBox="0.0000 0.0000 297.0022 210.0072">
<title>SVG Image created as pedalboard-soundcard-User_Drawings.svg date 2024/10/16 16:54:05 </title>
  <desc>Image generated by PCBNEW </desc>
<g style="fill:#000000; fill-opacity:1.0000;stroke:#000000; stroke-opacity:1.0000;
stroke-linecap:round; stroke-linejoin:round;"
 transform="translate(0 0) scale(1 1)">
</g>
<g style="fill:none; 
stroke:#000000; stroke-width:0.1500; stroke-opacity:1; 
stroke-linecap:round; stroke-linejoin:round;">
<g transform="rotate(90.000000 254.1522 98.7500)">
<text x="254.1522" y="99.5000"
textLength="10.2929" font-size="2.0000" lengthAdjust="spacingAndGlyphs"
text-anchor="middle" opacity="0" stroke-opacity="0">19.5 mm</text>
</g>
<g class="stroked-text"><desc>19.5 mm</desc>
<path d="M253.4661 94.8214
L253.4661 93.9643
" />
<path d="M253.4661 94.3929
L254.9661 94.3929
" />
<path d="M254.9661 94.3929
L254.7518 94.2500
" />
<path d="M254.7518 94.2500
L254.6089 94.1071
" />
<path d="M254.6089 94.1071
L254.5375 93.9643
" />
<path d="M253.4661 95.5357
L253.4661 95.8214
" />
<path d="M253.4661 95.8214
L253.5375 95.9643
" />
<path d="M253.5375 95.9643
L253.6089 96.0357
" />
<path d="M253.6089 96.0357
L253.8232 96.1786
" />
<path d="M253.8232 96.1786
L254.1089 96.2500
" />
<path d="M254.1089 96.2500
L254.6804 96.2500
" />
<path d="M254.6804 96.2500
L254.8232 96.1786
" />
<path d="M254.8232 96.1786
L254.8946 96.1071
" />
<path d="M254.8946 96.1071
L254.9661 95.9643
" />
<path d="M254.9661 95.9643
L254.9661 95.6786
" />
<path d="M254.9661 95.6786
L254.8946 95.5357
" />
<path d="M254.8946 95.5357
L254.8232 95.4643
" />
<path d="M254.8232 95.4643
L254.6804 95.3929
" />
<path d="M254.6804 95.3929
L254.3232 95.3929
" />
<path d="M254.3232 95.3929
L254.1804 95.4643
" />
<path d="M254.1804 95.4643
L254.1089 95.5357
" />
<path d="M254.1089 95.5357
L254.0375 95.6786
" />
<path d="M254.0375 95.6786
L254.0375 95.9643
" />
<path d="M254.0375 95.9643
L254.1089 96.1071
" />
<path d="M254.1089 96.1071
L254.1804 96.1786
" />
<path d="M254.1804 96.1786
L254.3232 96.2500
" />
<path d="M253.6089 96.8929
L253.5375 96.9643
" />
<path d="M253.5375 96.9643
L253.4661 96.8929
" />
<path d="M253.4661 96.8929
L253.5375 96.8214
" />
<path d="M253.5375 96.8214
L253.6089 96.8929
" />
<path d="M253.6089 96.8929
L253.4661 96.8929
" />
<path d="M254.9661 98.3214
L254.9661 97.6071
" />
<path d="M254.9661 97.6071
L254.2518 97.5357
" />
<path d="M254.2518 97.5357
L254.3232 97.6071
" />
<path d="M254.3232 97.6071
L254.3946 97.7500
" />
<path d="M254.3946 97.7500
L254.3946 98.1071
" />
<path d="M254.3946 98.1071
L254.3232 98.2500
" />
<path d="M254.3232 98.2500
L254.2518 98.3214
" />
<path d="M254.2518 98.3214
L254.1089 98.3929
" />
<path d="M254.1089 98.3929
L253.7518 98.3929
" />
<path d="M253.7518 98.3929
L253.6089 98.3214
" />
<path d="M253.6089 98.3214
L253.5375 98.2500
" />
<path d="M253.5375 98.2500
L253.4661 98.1071
" />
<path d="M253.4661 98.1071
L253.4661 97.7500
" />
<path d="M253.4661 97.7500
L253.5375 97.6071
" />
<path d="M253.5375 97.6071
L253.6089 97.5357
" />
<path d="M253.4661 100.1786
L254.4661 100.1786
" />
<path d="M254.3232 100.1786
L254.3946 100.2500
" />
<path d="M254.3946 100.2500
L254.4661 100.3929
" />
<path d="M254.4661 100.3929
L254.4661 100.6071
" />
<path d="M254.4661 100.6071
L254.3946 100.7500
" />
<path d="M254.3946 100.7500
L254.2518 100.8214
" />
<path d="M254.2518 100.8214
L253.4661 100.8214
" />
<path d="M254.2518 100.8214
L254.3946 100.8929
" />
<path d="M254.3946 100.8929
L254.4661 101.0357
" />
<path d="M254.4661 101.0357
L254.4661 101.2500
" />
<path d="M254.4661 101.2500
L254.3946 101.3929
" />
<path d="M254.3946 101.3929
L254.2518 101.4643
" />
<path d="M254.2518 101.4643
L253.4661 101.4643
" />
<path d="M253.4661 102.1786
L254.4661 102.1786
" />
<path d="M254.3232 102.1786
L254.3946 102.2500
" />
<path d="M254.3946 102.2500
L254.4661 102.3929
" />
<path d="M254.4661 102.3929
L254.4661 102.6071
" />
<path d="M254.4661 102.6071
L254.3946 102.7500
" />
<path d="M254.3946 102.7500
L254.2518 102.8214
" />
<path d="M254.2518 102.8214
L253.4661 102.8214
" />
<path d="M254.2518 102.8214
L254.3946 102.8929
" />
<path d="M254.3946 102.8929
L254.4661 103.0357
" />
<path d="M254.4661 103.0357
L254.4661 103.2500
" />
<path d="M254.4661 103.2500
L254.3946 103.3929
" />
<path d="M254.3946 103.3929
L254.2518 103.4643
" />
<path d="M254.2518 103.4643
L253.4661 103.4643
" />
</g><path d="M249.5022 108.5000
L253.0886 108.5000
" />
<path d="M249.5022 89.0000
L253.0886 89.0000
" />
<path d="M252.5022 108.5000
L252.5022 89.0000
" />
<path d="M252.5022 108.5000
L252.5022 89.0000
" />
<path d="M252.5022 108.5000
L253.0886 107.3735
" />
<path d="M252.5022 108.5000
L251.9158 107.3735
" />
<path d="M252.5022 89.0000
L251.9158 90.1265
" />
<path d="M252.5022 89.0000
L253.0886 90.1265
" />
<g transform="rotate(90.000000 240.1522 106.7500)">
<text x="240.1522" y="107.5000"
textLength="8.8643" font-size="2.0000" lengthAdjust="spacingAndGlyphs"
text-anchor="middle" opacity="0" stroke-opacity="0">3.5 mm</text>
</g>
<g class="stroked-text"><desc>3.5 mm</desc>
<path d="M240.9661 102.6071
L240.9661 103.5357
" />
<path d="M240.9661 103.5357
L240.3946 103.0357
" />
<path d="M240.3946 103.0357
L240.3946 103.2500
" />
<path d="M240.3946 103.2500
L240.3232 103.3929
" />
<path d="M240.3232 103.3929
L240.2518 103.4643
" />
<path d="M240.2518 103.4643
L240.1089 103.5357
" />
<path d="M240.1089 103.5357
L239.7518 103.5357
" />
<path d="M239.7518 103.5357
L239.6089 103.4643
" />
<path d="M239.6089 103.4643
L239.5375 103.3929
" />
<path d="M239.5375 103.3929
L239.4661 103.2500
" />
<path d="M239.4661 103.2500
L239.4661 102.8214
" />
<path d="M239.4661 102.8214
L239.5375 102.6786
" />
<path d="M239.5375 102.6786
L239.6089 102.6071
" />
<path d="M239.6089 104.1786
L239.5375 104.2500
" />
<path d="M239.5375 104.2500
L239.4661 104.1786
" />
<path d="M239.4661 104.1786
L239.5375 104.1071
" />
<path d="M239.5375 104.1071
L239.6089 104.1786
" />
<path d="M239.6089 104.1786
L239.4661 104.1786
" />
<path d="M240.9661 105.6071
L240.9661 104.8929
" />
<path d="M240.9661 104.8929
L240.2518 104.8214
" />
<path d="M240.2518 104.8214
L240.3232 104.8929
" />
<path d="M240.3232 104.8929
L240.3946 105.0357
" />
<path d="M240.3946 105.0357
L240.3946 105.3929
" />
<path d="M240.3946 105.3929
L240.3232 105.5357
" />
<path d="M240.3232 105.5357
L240.2518 105.6071
" />
<path d="M240.2518 105.6071
L240.1089 105.6786
" />
<path d="M240.1089 105.6786
L239.7518 105.6786
" />
<path d="M239.7518 105.6786
L239.6089 105.6071
" />
<path d="M239.6089 105.6071
L239.5375 105.5357
" />
<path d="M239.5375 105.5357
L239.4661 105.3929
" />
<path d="M239.4661 105.3929
L239.4661 105.0357
" />
<path d="M239.4661 105.0357
L239.5375 104.8929
" />
<path d="M239.5375 104.8929
L239.6089 104.8214
" />
<path d="M239.4661 107.4643
L240.4661 107.4643
" />
<path d="M240.3232 107.4643
L240.3946 107.5357
" />
<path d="M240.3946 107.5357
L240.4661 107.6786
" />
<path d="M240.4661 107.6786
L240.4661 107.8929
" />
<path d="M240.4661 107.8929
L240.3946 108.0357
" />
<path d="M240.3946 108.0357
L240.2518 108.1071
" />
<path d="M240.2518 108.1071
L239.4661 108.1071
" />
<path d="M240.2518 108.1071
L240.3946 108.1786
" />
<path d="M240.3946 108.1786
L240.4661 108.3214
" />
<path d="M240.4661 108.3214
L240.4661 108.5357
" />
<path d="M240.4661 108.5357
L240.3946 108.6786
" />
<path d="M240.3946 108.6786
L240.2518 108.7500
" />
<path d="M240.2518 108.7500
L239.4661 108.7500
" />
<path d="M239.4661 109.4643
L240.4661 109.4643
" />
<path d="M240.3232 109.4643
L240.3946 109.5357
" />
<path d="M240.3946 109.5357
L240.4661 109.6786
" />
<path d="M240.4661 109.6786
L240.4661 109.8929
" />
<path d="M240.4661 109.8929
L240.3946 110.0357
" />
<path d="M240.3946 110.0357
L240.2518 110.1071
" />
<path d="M240.2518 110.1071
L239.4661 110.1071
" />
<path d="M240.2518 110.1071
L240.3946 110.1786
" />
<path d="M240.3946 110.1786
L240.4661 110.3214
" />
<path d="M240.4661 110.3214
L240.4661 110.5357
" />
<path d="M240.4661 110.5357
L240.3946 110.6786
" />
<path d="M240.3946 110.6786
L240.2518 110.7500
" />
<path d="M240.2518 110.7500
L239.4661 110.7500
" />
</g><path d="M241.5022 108.5000
L237.9158 108.5000
" />
<path d="M241.5022 105.0000
L237.9158 105.0000
" />
<path d="M238.5022 108.5000
L238.5022 105.0000
" />
<path d="M238.5022 108.5000
L238.5022 105.0000
" />
<path d="M238.5022 108.5000
L239.0886 107.3735
" />
<path d="M238.5022 108.5000
L237.9158 107.3735
" />
<path d="M238.5022 105.0000
L237.9158 106.1265
" />
<path d="M238.5022 105.0000
L239.0886 106.1265
" />
<text x="246.0022" y="69.1000"
textLength="6.7214" font-size="2.0000" lengthAdjust="spacingAndGlyphs"
text-anchor="middle" opacity="0" stroke-opacity="0">5 mm</text>
<g class="stroked-text"><desc>5 mm</desc>
<path d="M243.7879 67.5361
L243.0736 67.5361
" />
<path d="M243.0736 67.5361
L243.0022 68.2504
" />
<path d="M243.0022 68.2504
L243.0736 68.1790
" />
<path d="M243.0736 68.1790
L243.2165 68.1076
" />
<path d="M243.2165 68.1076
L243.5736 68.1076
" />
<path d="M243.5736 68.1076
L243.7165 68.1790
" />
<path d="M243.7165 68.1790
L243.7879 68.2504
" />
<path d="M243.7879 68.2504
L243.8593 68.3933
" />
<path d="M243.8593 68.3933
L243.8593 68.7504
" />
<path d="M243.8593 68.7504
L243.7879 68.8933
" />
<path d="M243.7879 68.8933
L243.7165 68.9647
" />
<path d="M243.7165 68.9647
L243.5736 69.0361
" />
<path d="M243.5736 69.0361
L243.2165 69.0361
" />
<path d="M243.2165 69.0361
L243.0736 68.9647
" />
<path d="M243.0736 68.9647
L243.0022 68.8933
" />
<path d="M245.6451 69.0361
L245.6451 68.0361
" />
<path d="M245.6451 68.1790
L245.7165 68.1076
" />
<path d="M245.7165 68.1076
L245.8593 68.0361
" />
<path d="M245.8593 68.0361
L246.0736 68.0361
" />
<path d="M246.0736 68.0361
L246.2165 68.1076
" />
<path d="M246.2165 68.1076
L246.2879 68.2504
" />
<path d="M246.2879 68.2504
L246.2879 69.0361
" />
<path d="M246.2879 68.2504
L246.3593 68.1076
" />
<path d="M246.3593 68.1076
L246.5022 68.0361
" />
<path d="M246.5022 68.0361
L246.7165 68.0361
" />
<path d="M246.7165 68.0361
L246.8593 68.1076
" />
<path d="M246.8593 68.1076
L246.9308 68.2504
" />
<path d="M246.9308 68.2504
L246.9308 69.0361
" />
<path d="M247.6451 69.0361
L247.6451 68.0361
" />
<path d="M247.6451 68.1790
L247.7165 68.1076
" />
<path d="M247.7165 68.1076
L247.8593 68.0361
" />
<path d="M247.8593 68.0361
L248.0736 68.0361
" />
<path d="M248.0736 68.0361
L248.2165 68.1076
" />
<path d="M248.2165 68.1076
L248.2879 68.2504
" />
<path d="M248.2879 68.2504
L248.2879 69.0361
" />
<path d="M248.2879 68.2504
L248.3593 68.1076
" />
<path d="M248.3593 68.1076
L248.5022 68.0361
" />
<path d="M248.5022 68.0361
L248.7165 68.0361
" />
<path d="M248.7165 68.0361
L248.8593 68.1076
" />
<path d="M248.8593 68.1076
L248.9308 68.2504
" />
<path d="M248.9308 68.2504
L248.9308 69.0361
" />
</g><path d="M243.5022 72.0000
L243.5022 69.4136
" />
<path d="M248.5022 72.0000
L248.5022 69.4136
" />
<path d="M243.5022 70.0000
L248.5022 70.0000
" />
<path d="M243.5022 70.0000
L248.5022 70.0000
" />
<path d="M243.5022 70.0000
L244.6287 70.5864
" />
<path d="M243.5022 70.0000
L244.6287 69.4136
" />
<path d="M248.5022 70.0000
L247.3757 69.4136
" />
<path d="M248.5022 70.0000
L247.3757 70.5864
" />
<text x="216.0022" y="43.1000"
textLength="8.1500" font-size="2.0000" lengthAdjust="spacingAndGlyphs"
text-anchor="middle" opacity="0" stroke-opacity="0">65 mm</text>
<g class="stroked-text"><desc>65 mm</desc>
<path d="M213.0022 41.5361
L212.7165 41.5361
" />
<path d="M212.7165 41.5361
L212.5736 41.6076
" />
<path d="M212.5736 41.6076
L212.5022 41.6790
" />
<path d="M212.5022 41.6790
L212.3593 41.8933
" />
<path d="M212.3593 41.8933
L212.2879 42.1790
" />
<path d="M212.2879 42.1790
L212.2879 42.7504
" />
<path d="M212.2879 42.7504
L212.3593 42.8933
" />
<path d="M212.3593 42.8933
L212.4308 42.9647
" />
<path d="M212.4308 42.9647
L212.5736 43.0361
" />
<path d="M212.5736 43.0361
L212.8593 43.0361
" />
<path d="M212.8593 43.0361
L213.0022 42.9647
" />
<path d="M213.0022 42.9647
L213.0736 42.8933
" />
<path d="M213.0736 42.8933
L213.1451 42.7504
" />
<path d="M213.1451 42.7504
L213.1451 42.3933
" />
<path d="M213.1451 42.3933
L213.0736 42.2504
" />
<path d="M213.0736 42.2504
L213.0022 42.1790
" />
<path d="M213.0022 42.1790
L212.8593 42.1076
" />
<path d="M212.8593 42.1076
L212.5736 42.1076
" />
<path d="M212.5736 42.1076
L212.4308 42.1790
" />
<path d="M212.4308 42.1790
L212.3593 42.2504
" />
<path d="M212.3593 42.2504
L212.2879 42.3933
" />
<path d="M214.5022 41.5361
L213.7879 41.5361
" />
<path d="M213.7879 41.5361
L213.7165 42.2504
" />
<path d="M213.7165 42.2504
L213.7879 42.1790
" />
<path d="M213.7879 42.1790
L213.9308 42.1076
" />
<path d="M213.9308 42.1076
L214.2879 42.1076
" />
<path d="M214.2879 42.1076
L214.4308 42.1790
" />
<path d="M214.4308 42.1790
L214.5022 42.2504
" />
<path d="M214.5022 42.2504
L214.5736 42.3933
" />
<path d="M214.5736 42.3933
L214.5736 42.7504
" />
<path d="M214.5736 42.7504
L214.5022 42.8933
" />
<path d="M214.5022 42.8933
L214.4308 42.9647
" />
<path d="M214.4308 42.9647
L214.2879 43.0361
" />
<path d="M214.2879 43.0361
L213.9308 43.0361
" />
<path d="M213.9308 43.0361
L213.7879 42.9647
" />
<path d="M213.7879 42.9647
L213.7165 42.8933
" />
<path d="M216.3593 43.0361
L216.3593 42.0361
" />
<path d="M216.3593 42.1790
L216.4308 42.1076
" />
<path d="M216.4308 42.1076
L216.5736 42.0361
" />
<path d="M216.5736 42.0361
L216.7879 42.0361
" />
<path d="M216.7879 42.0361
L216.9308 42.1076
" />
<path d="M216.9308 42.1076
L217.0022 42.2504
" />
<path d="M217.0022 42.2504
L217.0022 43.0361
" />
<path d="M217.0022 42.2504
L217.0736 42.1076
" />
<path d="M217.0736 42.1076
L217.2165 42.0361
" />
<path d="M217.2165 42.0361
L217.4308 42.0361
" />
<path d="M217.4308 42.0361
L217.5736 42.1076
" />
<path d="M217.5736 42.1076
L217.6451 42.2504
" />
<path d="M217.6451 42.2504
L217.6451 43.0361
" />
<path d="M218.3593 43.0361
L218.3593 42.0361
" />
<path d="M218.3593 42.1790
L218.4308 42.1076
" />
<path d="M218.4308 42.1076
L218.5736 42.0361
" />
<path d="M218.5736 42.0361
L218.7879 42.0361
" />
<path d="M218.7879 42.0361
L218.9308 42.1076
" />
<path d="M218.9308 42.1076
L219.0022 42.2504
" />
<path d="M219.0022 42.2504
L219.0022 43.0361
" />
<path d="M219.0022 42.2504
L219.0736 42.1076
" />
<path d="M219.0736 42.1076
L219.2165 42.0361
" />
<path d="M219.2165 42.0361
L219.4308 42.0361
" />
<path d="M219.4308 42.0361
L219.5736 42.1076
" />
<path d="M219.5736 42.1076
L219.6451 42.2504
" />
<path d="M219.6451 42.2504
L219.6451 43.0361
" />
</g><path d="M183.5022 51.0000
L183.5022 43.4136
" />
<path d="M248.5022 51.0000
L248.5022 43.4136
" />
<path d="M183.5022 44.0000
L248.5022 44.0000
" />
<path d="M183.5022 44.0000
L248.5022 44.0000
" />
<path d="M183.5022 44.0000
L184.6287 44.5864
" />
<path d="M183.5022 44.0000
L184.6287 43.4136
" />
<path d="M248.5022 44.0000
L247.3757 43.4136
" />
<path d="M248.5022 44.0000
L247.3757 44.5864
" />
<text x="230.5022" y="61.6000"
textLength="14.5786" font-size="2.0000" lengthAdjust="spacingAndGlyphs"
text-anchor="middle" opacity="0" stroke-opacity="0">29.0000 mm</text>
<g class="stroked-text"><desc>29.0000 mm</desc>
<path d="M223.5736 60.1790
L223.6451 60.1076
" />
<path d="M223.6451 60.1076
L223.7879 60.0361
" />
<path d="M223.7879 60.0361
L224.1451 60.0361
" />
<path d="M224.1451 60.0361
L224.2879 60.1076
" />
<path d="M224.2879 60.1076
L224.3593 60.1790
" />
<path d="M224.3593 60.1790
L224.4308 60.3218
" />
<path d="M224.4308 60.3218
L224.4308 60.4647
" />
<path d="M224.4308 60.4647
L224.3593 60.6790
" />
<path d="M224.3593 60.6790
L223.5022 61.5361
" />
<path d="M223.5022 61.5361
L224.4308 61.5361
" />
<path d="M225.1451 61.5361
L225.4308 61.5361
" />
<path d="M225.4308 61.5361
L225.5736 61.4647
" />
<path d="M225.5736 61.4647
L225.6451 61.3933
" />
<path d="M225.6451 61.3933
L225.7879 61.1790
" />
<path d="M225.7879 61.1790
L225.8593 60.8933
" />
<path d="M225.8593 60.8933
L225.8593 60.3218
" />
<path d="M225.8593 60.3218
L225.7879 60.1790
" />
<path d="M225.7879 60.1790
L225.7165 60.1076
" />
<path d="M225.7165 60.1076
L225.5736 60.0361
" />
<path d="M225.5736 60.0361
L225.2879 60.0361
" />
<path d="M225.2879 60.0361
L225.1451 60.1076
" />
<path d="M225.1451 60.1076
L225.0736 60.1790
" />
<path d="M225.0736 60.1790
L225.0022 60.3218
" />
<path d="M225.0022 60.3218
L225.0022 60.6790
" />
<path d="M225.0022 60.6790
L225.0736 60.8218
" />
<path d="M225.0736 60.8218
L225.1451 60.8933
" />
<path d="M225.1451 60.8933
L225.2879 60.9647
" />
<path d="M225.2879 60.9647
L225.5736 60.9647
" />
<path d="M225.5736 60.9647
L225.7165 60.8933
" />
<path d="M225.7165 60.8933
L225.7879 60.8218
" />
<path d="M225.7879 60.8218
L225.8593 60.6790
" />
<path d="M226.5022 61.3933
L226.5736 61.4647
" />
<path d="M226.5736 61.4647
L226.5022 61.5361
" />
<path d="M226.5022 61.5361
L226.4308 61.4647
" />
<path d="M226.4308 61.4647
L226.5022 61.3933
" />
<path d="M226.5022 61.3933
L226.5022 61.5361
" />
<path d="M227.5022 60.0361
L227.6451 60.0361
" />
<path d="M227.6451 60.0361
L227.7879 60.1076
" />
<path d="M227.7879 60.1076
L227.8593 60.1790
" />
<path d="M227.8593 60.1790
L227.9308 60.3218
" />
<path d="M227.9308 60.3218
L228.0022 60.6076
" />
<path d="M228.0022 60.6076
L228.0022 60.9647
" />
<path d="M228.0022 60.9647
L227.9308 61.2504
" />
<path d="M227.9308 61.2504
L227.8593 61.3933
" />
<path d="M227.8593 61.3933
L227.7879 61.4647
" />
<path d="M227.7879 61.4647
L227.6451 61.5361
" />
<path d="M227.6451 61.5361
L227.5022 61.5361
" />
<path d="M227.5022 61.5361
L227.3593 61.4647
" />
<path d="M227.3593 61.4647
L227.2879 61.3933
" />
<path d="M227.2879 61.3933
L227.2165 61.2504
" />
<path d="M227.2165 61.2504
L227.1451 60.9647
" />
<path d="M227.1451 60.9647
L227.1451 60.6076
" />
<path d="M227.1451 60.6076
L227.2165 60.3218
" />
<path d="M227.2165 60.3218
L227.2879 60.1790
" />
<path d="M227.2879 60.1790
L227.3593 60.1076
" />
<path d="M227.3593 60.1076
L227.5022 60.0361
" />
<path d="M228.9308 60.0361
L229.0736 60.0361
" />
<path d="M229.0736 60.0361
L229.2165 60.1076
" />
<path d="M229.2165 60.1076
L229.2879 60.1790
" />
<path d="M229.2879 60.1790
L229.3593 60.3218
" />
<path d="M229.3593 60.3218
L229.4308 60.6076
" />
<path d="M229.4308 60.6076
L229.4308 60.9647
" />
<path d="M229.4308 60.9647
L229.3593 61.2504
" />
<path d="M229.3593 61.2504
L229.2879 61.3933
" />
<path d="M229.2879 61.3933
L229.2165 61.4647
" />
<path d="M229.2165 61.4647
L229.0736 61.5361
" />
<path d="M229.0736 61.5361
L228.9308 61.5361
" />
<path d="M228.9308 61.5361
L228.7879 61.4647
" />
<path d="M228.7879 61.4647
L228.7165 61.3933
" />
<path d="M228.7165 61.3933
L228.6451 61.2504
" />
<path d="M228.6451 61.2504
L228.5736 60.9647
" />
<path d="M228.5736 60.9647
L228.5736 60.6076
" />
<path d="M228.5736 60.6076
L228.6451 60.3218
" />
<path d="M228.6451 60.3218
L228.7165 60.1790
" />
<path d="M228.7165 60.1790
L228.7879 60.1076
" />
<path d="M228.7879 60.1076
L228.9308 60.0361
" />
<path d="M230.3593 60.0361
L230.5022 60.0361
" />
<path d="M230.5022 60.0361
L230.6451 60.1076
" />
<path d="M230.6451 60.1076
L230.7165 60.1790
" />
<path d="M230.7165 60.1790
L230.7879 60.3218
" />
<path d="M230.7879 60.3218
L230.8593 60.6076
" />
<path d="M230.8593 60.6076
L230.8593 60.9647
" />
<path d="M230.8593 60.9647
L230.7879 61.2504
" />
<path d="M230.7879 61.2504
L230.7165 61.3933
" />
<path d="M230.7165 61.3933
L230.6451 61.4647
" />
<path d="M230.6451 61.4647
L230.5022 61.5361
" />
<path d="M230.5022 61.5361
L230.3593 61.5361
" />
<path d="M230.3593 61.5361
L230.2165 61.4647
" />
<path d="M230.2165 61.4647
L230.1451 61.3933
" />
<path d="M230.1451 61.3933
L230.0736 61.2504
" />
<path d="M230.0736 61.2504
L230.0022 60.9647
" />
<path d="M230.0022 60.9647
L230.0022 60.6076
" />
<path d="M230.0022 60.6076
L230.0736 60.3218
" />
<path d="M230.0736 60.3218
L230.1451 60.1790
" />
<path d="M230.1451 60.1790
L230.2165 60.1076
" />
<path d="M230.2165 60.1076
L230.3593 60.0361
" />
<path d="M231.7879 60.0361
L231.9308 60.0361
" />
<path d="M231.9308 60.0361
L232.0736 60.1076
" />
<path d="M232.0736 60.1076
L232.1451 60.1790
" />
<path d="M232.1451 60.1790
L232.2165 60.3218
" />
<path d="M232.2165 60.3218
L232.2879 60.6076
" />
<path d="M232.2879 60.6076
L232.2879 60.9647
" />
<path d="M232.2879 60.9647
L232.2165 61.2504
" />
<path d="M232.2165 61.2504
L232.1451 61.3933
" />
<path d="M232.1451 61.3933
L232.0736 61.4647
" />
<path d="M232.0736 61.4647
L231.9308 61.5361
" />
<path d="M231.9308 61.5361
L231.7879 61.5361
" />
<path d="M231.7879 61.5361
L231.6451 61.4647
" />
<path d="M231.6451 61.4647
L231.5736 61.3933
" />
<path d="M231.5736 61.3933
L231.5022 61.2504
" />
<path d="M231.5022 61.2504
L231.4308 60.9647
" />
<path d="M231.4308 60.9647
L231.4308 60.6076
" />
<path d="M231.4308 60.6076
L231.5022 60.3218
" />
<path d="M231.5022 60.3218
L231.5736 60.1790
" />
<path d="M231.5736 60.1790
L231.6451 60.1076
" />
<path d="M231.6451 60.1076
L231.7879 60.0361
" />
<path d="M234.0736 61.5361
L234.0736 60.5361
" />
<path d="M234.0736 60.6790
L234.1451 60.6076
" />
<path d="M234.1451 60.6076
L234.2879 60.5361
" />
<path d="M234.2879 60.5361
L234.5022 60.5361
" />
<path d="M234.5022 60.5361
L234.6451 60.6076
" />
<path d="M234.6451 60.6076
L234.7165 60.7504
" />
<path d="M234.7165 60.7504
L234.7165 61.5361
" />
<path d="M234.7165 60.7504
L234.7879 60.6076
" />
<path d="M234.7879 60.6076
L234.9308 60.5361
" />
<path d="M234.9308 60.5361
L235.1451 60.5361
" />
<path d="M235.1451 60.5361
L235.2879 60.6076
" />
<path d="M235.2879 60.6076
L235.3593 60.7504
" />
<path d="M235.3593 60.7504
L235.3593 61.5361
" />
<path d="M236.0736 61.5361
L236.0736 60.5361
" />
<path d="M236.0736 60.6790
L236.1451 60.6076
" />
<path d="M236.1451 60.6076
L236.2879 60.5361
" />
<path d="M236.2879 60.5361
L236.5022 60.5361
" />
<path d="M236.5022 60.5361
L236.6451 60.6076
" />
<path d="M236.6451 60.6076
L236.7165 60.7504
" />
<path d="M236.7165 60.7504
L236.7165 61.5361
" />
<path d="M236.7165 60.7504
L236.7879 60.6076
" />
<path d="M236.7879 60.6076
L236.9308 60.5361
" />
<path d="M236.9308 60.5361
L237.1451 60.5361
" />
<path d="M237.1451 60.5361
L237.2879 60.6076
" />
<path d="M237.2879 60.6076
L237.3593 60.7504
" />
<path d="M237.3593 60.7504
L237.3593 61.5361
" />
</g><path d="M216.0022 60.0000
L216.0022 63.0864
" />
<path d="M245.0022 60.0000
L245.0022 63.0864
" />
<path d="M216.0022 62.5000
L245.0022 62.5000
" />
<path d="M216.0022 62.5000
L245.0022 62.5000
" />
<path d="M216.0022 62.5000
L217.1287 63.0864
" />
<path d="M216.0022 62.5000
L217.1287 61.9136
" />
<path d="M245.0022 62.5000
L243.8757 61.9136
" />
<path d="M245.0022 62.5000
L243.8757 63.0864
" />
<text x="216.0022" y="47.6000"
textLength="8.1500" font-size="2.0000" lengthAdjust="spacingAndGlyphs"
text-anchor="middle" opacity="0" stroke-opacity="0">58 mm</text>
<g class="stroked-text"><desc>58 mm</desc>
<path d="M213.0736 46.0361
L212.3593 46.0361
" />
<path d="M212.3593 46.0361
L212.2879 46.7504
" />
<path d="M212.2879 46.7504
L212.3593 46.6790
" />
<path d="M212.3593 46.6790
L212.5022 46.6076
" />
<path d="M212.5022 46.6076
L212.8593 46.6076
" />
<path d="M212.8593 46.6076
L213.0022 46.6790
" />
<path d="M213.0022 46.6790
L213.0736 46.7504
" />
<path d="M213.0736 46.7504
L213.1451 46.8933
" />
<path d="M213.1451 46.8933
L213.1451 47.2504
" />
<path d="M213.1451 47.2504
L213.0736 47.3933
" />
<path d="M213.0736 47.3933
L213.0022 47.4647
" />
<path d="M213.0022 47.4647
L212.8593 47.5361
" />
<path d="M212.8593 47.5361
L212.5022 47.5361
" />
<path d="M212.5022 47.5361
L212.3593 47.4647
" />
<path d="M212.3593 47.4647
L212.2879 47.3933
" />
<path d="M214.0022 46.6790
L213.8593 46.6076
" />
<path d="M213.8593 46.6076
L213.7879 46.5361
" />
<path d="M213.7879 46.5361
L213.7165 46.3933
" />
<path d="M213.7165 46.3933
L213.7165 46.3218
" />
<path d="M213.7165 46.3218
L213.7879 46.1790
" />
<path d="M213.7879 46.1790
L213.8593 46.1076
" />
<path d="M213.8593 46.1076
L214.0022 46.0361
" />
<path d="M214.0022 46.0361
L214.2879 46.0361
" />
<path d="M214.2879 46.0361
L214.4308 46.1076
" />
<path d="M214.4308 46.1076
L214.5022 46.1790
" />
<path d="M214.5022 46.1790
L214.5736 46.3218
" />
<path d="M214.5736 46.3218
L214.5736 46.3933
" />
<path d="M214.5736 46.3933
L214.5022 46.5361
" />
<path d="M214.5022 46.5361
L214.4308 46.6076
" />
<path d="M214.4308 46.6076
L214.2879 46.6790
" />
<path d="M214.2879 46.6790
L214.0022 46.6790
" />
<path d="M214.0022 46.6790
L213.8593 46.7504
" />
<path d="M213.8593 46.7504
L213.7879 46.8218
" />
<path d="M213.7879 46.8218
L213.7165 46.9647
" />
<path d="M213.7165 46.9647
L213.7165 47.2504
" />
<path d="M213.7165 47.2504
L213.7879 47.3933
" />
<path d="M213.7879 47.3933
L213.8593 47.4647
" />
<path d="M213.8593 47.4647
L214.0022 47.5361
" />
<path d="M214.0022 47.5361
L214.2879 47.5361
" />
<path d="M214.2879 47.5361
L214.4308 47.4647
" />
<path d="M214.4308 47.4647
L214.5022 47.3933
" />
<path d="M214.5022 47.3933
L214.5736 47.2504
" />
<path d="M214.5736 47.2504
L214.5736 46.9647
" />
<path d="M214.5736 46.9647
L214.5022 46.8218
" />
<path d="M214.5022 46.8218
L214.4308 46.7504
" />
<path d="M214.4308 46.7504
L214.2879 46.6790
" />
<path d="M216.3593 47.5361
L216.3593 46.5361
" />
<path d="M216.3593 46.6790
L216.4308 46.6076
" />
<path d="M216.4308 46.6076
L216.5736 46.5361
" />
<path d="M216.5736 46.5361
L216.7879 46.5361
" />
<path d="M216.7879 46.5361
L216.9308 46.6076
" />
<path d="M216.9308 46.6076
L217.0022 46.7504
" />
<path d="M217.0022 46.7504
L217.0022 47.5361
" />
<path d="M217.0022 46.7504
L217.0736 46.6076
" />
<path d="M217.0736 46.6076
L217.2165 46.5361
" />
<path d="M217.2165 46.5361
L217.4308 46.5361
" />
<path d="M217.4308 46.5361
L217.5736 46.6076
" />
<path d="M217.5736 46.6076
L217.6451 46.7504
" />
<path d="M217.6451 46.7504
L217.6451 47.5361
" />
<path d="M218.3593 47.5361
L218.3593 46.5361
" />
<path d="M218.3593 46.6790
L218.4308 46.6076
" />
<path d="M218.4308 46.6076
L218.5736 46.5361
" />
<path d="M218.5736 46.5361
L218.7879 46.5361
" />
<path d="M218.7879 46.5361
L218.9308 46.6076
" />
<path d="M218.9308 46.6076
L219.0022 46.7504
" />
<path d="M219.0022 46.7504
L219.0022 47.5361
" />
<path d="M219.0022 46.7504
L219.0736 46.6076
" />
<path d="M219.0736 46.6076
L219.2165 46.5361
" />
<path d="M219.2165 46.5361
L219.4308 46.5361
" />
<path d="M219.4308 46.5361
L219.5736 46.6076
" />
<path d="M219.5736 46.6076
L219.6451 46.7504
" />
<path d="M219.6451 46.7504
L219.6451 47.5361
" />
</g><path d="M187.0022 51.0000
L187.0022 47.9136
" />
<path d="M245.0022 51.0000
L245.0022 47.9136
" />
<path d="M187.0022 48.5000
L245.0022 48.5000
" />
<path d="M187.0022 48.5000
L245.0022 48.5000
" />
<path d="M187.0022 48.5000
L188.1287 49.0864
" />
<path d="M187.0022 48.5000
L188.1287 47.9136
" />
<path d="M245.0022 48.5000
L243.8757 47.9136
" />
<path d="M245.0022 48.5000
L243.8757 49.0864
" />
<g transform="rotate(90.000000 242.1522 80.5000)">
<text x="242.1522" y="81.2500"
textLength="8.1500" font-size="2.0000" lengthAdjust="spacingAndGlyphs"
text-anchor="middle" opacity="0" stroke-opacity="0">17 mm</text>
</g>
<g class="stroked-text"><desc>17 mm</desc>
<path d="M241.4661 77.6429
L241.4661 76.7857
" />
<path d="M241.4661 77.2143
L242.9661 77.2143
" />
<path d="M242.9661 77.2143
L242.7518 77.0714
" />
<path d="M242.7518 77.0714
L242.6089 76.9286
" />
<path d="M242.6089 76.9286
L242.5375 76.7857
" />
<path d="M242.9661 78.1429
L242.9661 79.1429
" />
<path d="M242.9661 79.1429
L241.4661 78.5000
" />
<path d="M241.4661 80.8571
L242.4661 80.8571
" />
<path d="M242.3232 80.8571
L242.3946 80.9286
" />
<path d="M242.3946 80.9286
L242.4661 81.0714
" />
<path d="M242.4661 81.0714
L242.4661 81.2857
" />
<path d="M242.4661 81.2857
L242.3946 81.4286
" />
<path d="M242.3946 81.4286
L242.2518 81.5000
" />
<path d="M242.2518 81.5000
L241.4661 81.5000
" />
<path d="M242.2518 81.5000
L242.3946 81.5714
" />
<path d="M242.3946 81.5714
L242.4661 81.7143
" />
<path d="M242.4661 81.7143
L242.4661 81.9286
" />
<path d="M242.4661 81.9286
L242.3946 82.0714
" />
<path d="M242.3946 82.0714
L242.2518 82.1429
" />
<path d="M242.2518 82.1429
L241.4661 82.1429
" />
<path d="M241.4661 82.8571
L242.4661 82.8571
" />
<path d="M242.3232 82.8571
L242.3946 82.9286
" />
<path d="M242.3946 82.9286
L242.4661 83.0714
" />
<path d="M242.4661 83.0714
L242.4661 83.2857
" />
<path d="M242.4661 83.2857
L242.3946 83.4286
" />
<path d="M242.3946 83.4286
L242.2518 83.5000
" />
<path d="M242.2518 83.5000
L241.4661 83.5000
" />
<path d="M242.2518 83.5000
L242.3946 83.5714
" />
<path d="M242.3946 83.5714
L242.4661 83.7143
" />
<path d="M242.4661 83.7143
L242.4661 83.9286
" />
<path d="M242.4661 83.9286
L242.3946 84.0714
" />
<path d="M242.3946 84.0714
L242.2518 84.1429
" />
<path d="M242.2518 84.1429
L241.4661 84.1429
" />
</g><path d="M242.5022 89.0000
L239.9158 89.0000
" />
<path d="M242.5022 72.0000
L239.9158 72.0000
" />
<path d="M240.5022 89.0000
L240.5022 72.0000
" />
<path d="M240.5022 89.0000
L240.5022 72.0000
" />
<path d="M240.5022 89.0000
L241.0886 87.8735
" />
<path d="M240.5022 89.0000
L239.9158 87.8735
" />
<path d="M240.5022 72.0000
L239.9158 73.1265
" />
<path d="M240.5022 72.0000
L241.0886 73.1265
" />
<g transform="rotate(90.000000 176.1522 80.5000)">
<text x="176.1522" y="81.2500"
textLength="8.1500" font-size="2.0000" lengthAdjust="spacingAndGlyphs"
text-anchor="middle" opacity="0" stroke-opacity="0">56 mm</text>
</g>
<g class="stroked-text"><desc>56 mm</desc>
<path d="M176.9661 77.5714
L176.9661 76.8571
" />
<path d="M176.9661 76.8571
L176.2518 76.7857
" />
<path d="M176.2518 76.7857
L176.3232 76.8571
" />
<path d="M176.3232 76.8571
L176.3946 77.0000
" />
<path d="M176.3946 77.0000
L176.3946 77.3571
" />
<path d="M176.3946 77.3571
L176.3232 77.5000
" />
<path d="M176.3232 77.5000
L176.2518 77.5714
" />
<path d="M176.2518 77.5714
L176.1089 77.6429
" />
<path d="M176.1089 77.6429
L175.7518 77.6429
" />
<path d="M175.7518 77.6429
L175.6089 77.5714
" />
<path d="M175.6089 77.5714
L175.5375 77.5000
" />
<path d="M175.5375 77.5000
L175.4661 77.3571
" />
<path d="M175.4661 77.3571
L175.4661 77.0000
" />
<path d="M175.4661 77.0000
L175.5375 76.8571
" />
<path d="M175.5375 76.8571
L175.6089 76.7857
" />
<path d="M176.9661 78.9286
L176.9661 78.6429
" />
<path d="M176.9661 78.6429
L176.8946 78.5000
" />
<path d="M176.8946 78.5000
L176.8232 78.4286
" />
<path d="M176.8232 78.4286
L176.6089 78.2857
" />
<path d="M176.6089 78.2857
L176.3232 78.2143
" />
<path d="M176.3232 78.2143
L175.7518 78.2143
" />
<path d="M175.7518 78.2143
L175.6089 78.2857
" />
<path d="M175.6089 78.2857
L175.5375 78.3571
" />
<path d="M175.5375 78.3571
L175.4661 78.5000
" />
<path d="M175.4661 78.5000
L175.4661 78.7857
" />
<path d="M175.4661 78.7857
L175.5375 78.9286
" />
<path d="M175.5375 78.9286
L175.6089 79.0000
" />
<path d="M175.6089 79.0000
L175.7518 79.0714
" />
<path d="M175.7518 79.0714
L176.1089 79.0714
" />
<path d="M176.1089 79.0714
L176.2518 79.0000
" />
<path d="M176.2518 79.0000
L176.3232 78.9286
" />
<path d="M176.3232 78.9286
L176.3946 78.7857
" />
<path d="M176.3946 78.7857
L176.3946 78.5000
" />
<path d="M176.3946 78.5000
L176.3232 78.3571
" />
<path d="M176.3232 78.3571
L176.2518 78.2857
" />
<path d="M176.2518 78.2857
L176.1089 78.2143
" />
<path d="M175.4661 80.8571
L176.4661 80.8571
" />
<path d="M176.3232 80.8571
L176.3946 80.9286
" />
<path d="M176.3946 80.9286
L176.4661 81.0714
" />
<path d="M176.4661 81.0714
L176.4661 81.2857
" />
<path d="M176.4661 81.2857
L176.3946 81.4286
" />
<path d="M176.3946 81.4286
L176.2518 81.5000
" />
<path d="M176.2518 81.5000
L175.4661 81.5000
" />
<path d="M176.2518 81.5000
L176.3946 81.5714
" />
<path d="M176.3946 81.5714
L176.4661 81.7143
" />
<path d="M176.4661 81.7143
L176.4661 81.9286
" />
<path d="M176.4661 81.9286
L176.3946 82.0714
" />
<path d="M176.3946 82.0714
L176.2518 82.1429
" />
<path d="M176.2518 82.1429
L175.4661 82.1429
" />
<path d="M175.4661 82.8571
L176.4661 82.8571
" />
<path d="M176.3232 82.8571
L176.3946 82.9286
" />
<path d="M176.3946 82.9286
L176.4661 83.0714
" />
<path d="M176.4661 83.0714
L176.4661 83.2857
" />
<path d="M176.4661 83.2857
L176.3946 83.4286
" />
<path d="M176.3946 83.4286
L176.2518 83.5000
" />
<path d="M176.2518 83.5000
L175.4661 83.5000
" />
<path d="M176.2518 83.5000
L176.3946 83.5714
" />
<path d="M176.3946 83.5714
L176.4661 83.7143
" />
<path d="M176.4661 83.7143
L176.4661 83.9286
" />
<path d="M176.4661 83.9286
L176.3946 84.0714
" />
<path d="M176.3946 84.0714
L176.2518 84.1429
" />
<path d="M176.2518 84.1429
L175.4661 84.1429
" />
</g><path d="M182.5022 108.5000
L173.9158 108.5000
" />
<path d="M182.5022 52.5000
L173.9158 52.5000
" />
<path d="M174.5022 108.5000
L174.5022 52.5000
" />
<path d="M174.5022 108.5000
L174.5022 52.5000
" />
<path d="M174.5022 108.5000
L175.0886 107.3735
" />
<path d="M174.5022 108.5000
L173.9158 107.3735
" />
<path d="M174.5022 52.5000
L173.9158 53.6265
" />
<path d="M174.5022 52.5000
L175.0886 53.6265
" />
<g transform="rotate(90.000000 181.1522 80.5000)">
<text x="181.1522" y="81.2500"
textLength="8.1500" font-size="2.0000" lengthAdjust="spacingAndGlyphs"
text-anchor="middle" opacity="0" stroke-opacity="0">49 mm</text>
</g>
<g class="stroked-text"><desc>49 mm</desc>
<path d="M181.4661 77.5000
L180.4661 77.5000
" />
<path d="M182.0375 77.1429
L180.9661 76.7857
" />
<path d="M180.9661 76.7857
L180.9661 77.7143
" />
<path d="M180.4661 78.3571
L180.4661 78.6429
" />
<path d="M180.4661 78.6429
L180.5375 78.7857
" />
<path d="M180.5375 78.7857
L180.6089 78.8571
" />
<path d="M180.6089 78.8571
L180.8232 79.0000
" />
<path d="M180.8232 79.0000
L181.1089 79.0714
" />
<path d="M181.1089 79.0714
L181.6804 79.0714
" />
<path d="M181.6804 79.0714
L181.8232 79.0000
" />
<path d="M181.8232 79.0000
L181.8946 78.9286
" />
<path d="M181.8946 78.9286
L181.9661 78.7857
" />
<path d="M181.9661 78.7857
L181.9661 78.5000
" />
<path d="M181.9661 78.5000
L181.8946 78.3571
" />
<path d="M181.8946 78.3571
L181.8232 78.2857
" />
<path d="M181.8232 78.2857
L181.6804 78.2143
" />
<path d="M181.6804 78.2143
L181.3232 78.2143
" />
<path d="M181.3232 78.2143
L181.1804 78.2857
" />
<path d="M181.1804 78.2857
L181.1089 78.3571
" />
<path d="M181.1089 78.3571
L181.0375 78.5000
" />
<path d="M181.0375 78.5000
L181.0375 78.7857
" />
<path d="M181.0375 78.7857
L181.1089 78.9286
" />
<path d="M181.1089 78.9286
L181.1804 79.0000
" />
<path d="M181.1804 79.0000
L181.3232 79.0714
" />
<path d="M180.4661 80.8571
L181.4661 80.8571
" />
<path d="M181.3232 80.8571
L181.3946 80.9286
" />
<path d="M181.3946 80.9286
L181.4661 81.0714
" />
<path d="M181.4661 81.0714
L181.4661 81.2857
" />
<path d="M181.4661 81.2857
L181.3946 81.4286
" />
<path d="M181.3946 81.4286
L181.2518 81.5000
" />
<path d="M181.2518 81.5000
L180.4661 81.5000
" />
<path d="M181.2518 81.5000
L181.3946 81.5714
" />
<path d="M181.3946 81.5714
L181.4661 81.7143
" />
<path d="M181.4661 81.7143
L181.4661 81.9286
" />
<path d="M181.4661 81.9286
L181.3946 82.0714
" />
<path d="M181.3946 82.0714
L181.2518 82.1429
" />
<path d="M181.2518 82.1429
L180.4661 82.1429
" />
<path d="M180.4661 82.8571
L181.4661 82.8571
" />
<path d="M181.3232 82.8571
L181.3946 82.9286
" />
<path d="M181.3946 82.9286
L181.4661 83.0714
" />
<path d="M181.4661 83.0714
L181.4661 83.2857
" />
<path d="M181.4661 83.2857
L181.3946 83.4286
" />
<path d="M181.3946 83.4286
L181.2518 83.5000
" />
<path d="M181.2518 83.5000
L180.4661 83.5000
" />
<path d="M181.2518 83.5000
L181.3946 83.5714
" />
<path d="M181.3946 83.5714
L181.4661 83.7143
" />
<path d="M181.4661 83.7143
L181.4661 83.9286
" />
<path d="M181.4661 83.9286
L181.3946 84.0714
" />
<path d="M181.3946 84.0714
L181.2518 84.1429
" />
<path d="M181.2518 84.1429
L180.4661 84.1429
" />
</g><path d="M182.5022 105.0000
L178.9158 105.0000
" />
<path d="M182.5022 56.0000
L178.9158 56.0000
" />
<path d="M179.5022 105.0000
L179.5022 56.0000
" />
<path d="M179.5022 105.0000
L179.5022 56.0000
" />
<path d="M179.5022 105.0000
L180.0886 103.8735
" />
<path d="M179.5022 105.0000
L178.9158 103.8735
" />
<path d="M179.5022 56.0000
L178.9158 57.1265
" />
<path d="M179.5022 56.0000
L180.0886 57.1265
" />
<text x="246.7522" y="111.1000"
textLength="8.8643" font-size="2.0000" lengthAdjust="spacingAndGlyphs"
text-anchor="middle" opacity="0" stroke-opacity="0">3.5 mm</text>
<g class="stroked-text"><desc>3.5 mm</desc>
<path d="M242.6093 109.5361
L243.5379 109.5361
" />
<path d="M243.5379 109.5361
L243.0379 110.1076
" />
<path d="M243.0379 110.1076
L243.2522 110.1076
" />
<path d="M243.2522 110.1076
L243.3951 110.1790
" />
<path d="M243.3951 110.1790
L243.4665 110.2504
" />
<path d="M243.4665 110.2504
L243.5379 110.3933
" />
<path d="M243.5379 110.3933
L243.5379 110.7504
" />
<path d="M243.5379 110.7504
L243.4665 110.8933
" />
<path d="M243.4665 110.8933
L243.3951 110.9647
" />
<path d="M243.3951 110.9647
L243.2522 111.0361
" />
<path d="M243.2522 111.0361
L242.8236 111.0361
" />
<path d="M242.8236 111.0361
L242.6808 110.9647
" />
<path d="M242.6808 110.9647
L242.6093 110.8933
" />
<path d="M244.1808 110.8933
L244.2522 110.9647
" />
<path d="M244.2522 110.9647
L244.1808 111.0361
" />
<path d="M244.1808 111.0361
L244.1093 110.9647
" />
<path d="M244.1093 110.9647
L244.1808 110.8933
" />
<path d="M244.1808 110.8933
L244.1808 111.0361
" />
<path d="M245.6093 109.5361
L244.8951 109.5361
" />
<path d="M244.8951 109.5361
L244.8236 110.2504
" />
<path d="M244.8236 110.2504
L244.8951 110.1790
" />
<path d="M244.8951 110.1790
L245.0379 110.1076
" />
<path d="M245.0379 110.1076
L245.3951 110.1076
" />
<path d="M245.3951 110.1076
L245.5379 110.1790
" />
<path d="M245.5379 110.1790
L245.6093 110.2504
" />
<path d="M245.6093 110.2504
L245.6808 110.3933
" />
<path d="M245.6808 110.3933
L245.6808 110.7504
" />
<path d="M245.6808 110.7504
L245.6093 110.8933
" />
<path d="M245.6093 110.8933
L245.5379 110.9647
" />
<path d="M245.5379 110.9647
L245.3951 111.0361
" />
<path d="M245.3951 111.0361
L245.0379 111.0361
" />
<path d="M245.0379 111.0361
L244.8951 110.9647
" />
<path d="M244.8951 110.9647
L244.8236 110.8933
" />
<path d="M247.4665 111.0361
L247.4665 110.0361
" />
<path d="M247.4665 110.1790
L247.5379 110.1076
" />
<path d="M247.5379 110.1076
L247.6808 110.0361
" />
<path d="M247.6808 110.0361
L247.8951 110.0361
" />
<path d="M247.8951 110.0361
L248.0379 110.1076
" />
<path d="M248.0379 110.1076
L248.1093 110.2504
" />
<path d="M248.1093 110.2504
L248.1093 111.0361
" />
<path d="M248.1093 110.2504
L248.1808 110.1076
" />
<path d="M248.1808 110.1076
L248.3236 110.0361
" />
<path d="M248.3236 110.0361
L248.5379 110.0361
" />
<path d="M248.5379 110.0361
L248.6808 110.1076
" />
<path d="M248.6808 110.1076
L248.7522 110.2504
" />
<path d="M248.7522 110.2504
L248.7522 111.0361
" />
<path d="M249.4665 111.0361
L249.4665 110.0361
" />
<path d="M249.4665 110.1790
L249.5379 110.1076
" />
<path d="M249.5379 110.1076
L249.6808 110.0361
" />
<path d="M249.6808 110.0361
L249.8951 110.0361
" />
<path d="M249.8951 110.0361
L250.0379 110.1076
" />
<path d="M250.0379 110.1076
L250.1093 110.2504
" />
<path d="M250.1093 110.2504
L250.1093 111.0361
" />
<path d="M250.1093 110.2504
L250.1808 110.1076
" />
<path d="M250.1808 110.1076
L250.3236 110.0361
" />
<path d="M250.3236 110.0361
L250.5379 110.0361
" />
<path d="M250.5379 110.0361
L250.6808 110.1076
" />
<path d="M250.6808 110.1076
L250.7522 110.2504
" />
<path d="M250.7522 110.2504
L250.7522 111.0361
" />
</g><path d="M245.0022 109.5000
L245.0022 112.5864
" />
<path d="M248.5022 109.5000
L248.5022 112.5864
" />
<path d="M245.0022 112.0000
L248.5022 112.0000
" />
<path d="M245.0022 112.0000
L248.5022 112.0000
" />
<path d="M245.0022 112.0000
L246.1287 112.5864
" />
<path d="M245.0022 112.0000
L246.1287 111.4136
" />
<path d="M248.5022 112.0000
L247.3757 111.4136
" />
<path d="M248.5022 112.0000
L247.3757 112.5864
" />
</g>
<g style="fill:none; 
stroke:#000000; stroke-width:0.2000; stroke-opacity:1; 
stroke-linecap:round; stroke-linejoin:round;">
<text x="180.2522" y="66.6000"
transform="scale(-1 1) translate(-360.504400 0)"
textLength="3.4457" font-size="1.6000" lengthAdjust="spacingAndGlyphs"
text-anchor="middle" opacity="0" stroke-opacity="0">Tab</text>
<g class="stroked-text"><desc>Tab</desc>
<path d="M181.6808 65.3447
L180.9951 65.3447
" />
<path d="M181.3379 66.5447
L181.3379 65.3447
" />
<path d="M180.0808 66.5447
L180.0808 65.9162
" />
<path d="M180.0808 65.9162
L180.1379 65.8019
" />
<path d="M180.1379 65.8019
L180.2522 65.7447
" />
<path d="M180.2522 65.7447
L180.4808 65.7447
" />
<path d="M180.4808 65.7447
L180.5951 65.8019
" />
<path d="M180.0808 66.4876
L180.1951 66.5447
" />
<path d="M180.1951 66.5447
L180.4808 66.5447
" />
<path d="M180.4808 66.5447
L180.5951 66.4876
" />
<path d="M180.5951 66.4876
L180.6522 66.3733
" />
<path d="M180.6522 66.3733
L180.6522 66.2590
" />
<path d="M180.6522 66.2590
L180.5951 66.1447
" />
<path d="M180.5951 66.1447
L180.4808 66.0876
" />
<path d="M180.4808 66.0876
L180.1951 66.0876
" />
<path d="M180.1951 66.0876
L180.0808 66.0305
" />
<path d="M179.5093 66.5447
L179.5093 65.3447
" />
<path d="M179.5093 65.8019
L179.3951 65.7447
" />
<path d="M179.3951 65.7447
L179.1665 65.7447
" />
<path d="M179.1665 65.7447
L179.0522 65.8019
" />
<path d="M179.0522 65.8019
L178.9951 65.8590
" />
<path d="M178.9951 65.8590
L178.9379 65.9733
" />
<path d="M178.9379 65.9733
L178.9379 66.3162
" />
<path d="M178.9379 66.3162
L178.9951 66.4305
" />
<path d="M178.9951 66.4305
L179.0522 66.4876
" />
<path d="M179.0522 66.4876
L179.1665 66.5447
" />
<path d="M179.1665 66.5447
L179.3951 66.5447
" />
<path d="M179.3951 66.5447
L179.5093 66.4876
" />
</g></g>
<g style="fill:none; 
stroke:#000000; stroke-width:0.1500; stroke-opacity:1; 
stroke-linecap:round; stroke-linejoin:round;">
<g transform="rotate(90.000000 177.5022 65.0000)">
<text x="177.5022" y="65.5000"
textLength="13.9643" font-size="1.3333" lengthAdjust="spacingAndGlyphs"
text-anchor="middle" opacity="0" stroke-opacity="0">KIKIT: width: 5mm</text>
</g>
<g class="stroked-text"><desc>KIKIT: width: 5mm</desc>
<path d="M177.0474 58.3810
L178.0474 58.3810
" />
<path d="M177.0474 58.9524
L177.6188 58.5238
" />
<path d="M178.0474 58.9524
L177.4760 58.3810
" />
<path d="M177.0474 59.3810
L178.0474 59.3810
" />
<path d="M177.0474 59.8571
L178.0474 59.8571
" />
<path d="M177.0474 60.4286
L177.6188 60.0000
" />
<path d="M178.0474 60.4286
L177.4760 59.8571
" />
<path d="M177.0474 60.8571
L178.0474 60.8571
" />
<path d="M178.0474 61.1905
L178.0474 61.7619
" />
<path d="M177.0474 61.4762
L178.0474 61.4762
" />
<path d="M177.1426 62.0952
L177.0950 62.1429
" />
<path d="M177.0950 62.1429
L177.0474 62.0952
" />
<path d="M177.0474 62.0952
L177.0950 62.0476
" />
<path d="M177.0950 62.0476
L177.1426 62.0952
" />
<path d="M177.1426 62.0952
L177.0474 62.0952
" />
<path d="M177.6664 62.0952
L177.6188 62.1429
" />
<path d="M177.6188 62.1429
L177.5712 62.0952
" />
<path d="M177.5712 62.0952
L177.6188 62.0476
" />
<path d="M177.6188 62.0476
L177.6664 62.0952
" />
<path d="M177.6664 62.0952
L177.5712 62.0952
" />
<path d="M177.7140 63.2381
L177.0474 63.4286
" />
<path d="M177.0474 63.4286
L177.5236 63.6190
" />
<path d="M177.5236 63.6190
L177.0474 63.8095
" />
<path d="M177.0474 63.8095
L177.7140 64.0000
" />
<path d="M177.0474 64.3810
L177.7140 64.3810
" />
<path d="M178.0474 64.3810
L177.9998 64.3333
" />
<path d="M177.9998 64.3333
L177.9521 64.3810
" />
<path d="M177.9521 64.3810
L177.9998 64.4286
" />
<path d="M177.9998 64.4286
L178.0474 64.3810
" />
<path d="M178.0474 64.3810
L177.9521 64.3810
" />
<path d="M177.0474 65.2857
L178.0474 65.2857
" />
<path d="M177.0950 65.2857
L177.0474 65.1905
" />
<path d="M177.0474 65.1905
L177.0474 65.0000
" />
<path d="M177.0474 65.0000
L177.0950 64.9048
" />
<path d="M177.0950 64.9048
L177.1426 64.8571
" />
<path d="M177.1426 64.8571
L177.2379 64.8095
" />
<path d="M177.2379 64.8095
L177.5236 64.8095
" />
<path d="M177.5236 64.8095
L177.6188 64.8571
" />
<path d="M177.6188 64.8571
L177.6664 64.9048
" />
<path d="M177.6664 64.9048
L177.7140 65.0000
" />
<path d="M177.7140 65.0000
L177.7140 65.1905
" />
<path d="M177.7140 65.1905
L177.6664 65.2857
" />
<path d="M177.7140 65.6190
L177.7140 66.0000
" />
<path d="M178.0474 65.7619
L177.1902 65.7619
" />
<path d="M177.1902 65.7619
L177.0950 65.8095
" />
<path d="M177.0950 65.8095
L177.0474 65.9048
" />
<path d="M177.0474 65.9048
L177.0474 66.0000
" />
<path d="M177.0474 66.3333
L178.0474 66.3333
" />
<path d="M177.0474 66.7619
L177.5712 66.7619
" />
<path d="M177.5712 66.7619
L177.6664 66.7143
" />
<path d="M177.6664 66.7143
L177.7140 66.6190
" />
<path d="M177.7140 66.6190
L177.7140 66.4762
" />
<path d="M177.7140 66.4762
L177.6664 66.3810
" />
<path d="M177.6664 66.3810
L177.6188 66.3333
" />
<path d="M177.1426 67.2381
L177.0950 67.2857
" />
<path d="M177.0950 67.2857
L177.0474 67.2381
" />
<path d="M177.0474 67.2381
L177.0950 67.1905
" />
<path d="M177.0950 67.1905
L177.1426 67.2381
" />
<path d="M177.1426 67.2381
L177.0474 67.2381
" />
<path d="M177.6664 67.2381
L177.6188 67.2857
" />
<path d="M177.6188 67.2857
L177.5712 67.2381
" />
<path d="M177.5712 67.2381
L177.6188 67.1905
" />
<path d="M177.6188 67.1905
L177.6664 67.2381
" />
<path d="M177.6664 67.2381
L177.5712 67.2381
" />
<path d="M178.0474 68.9524
L178.0474 68.4762
" />
<path d="M178.0474 68.4762
L177.5712 68.4286
" />
<path d="M177.5712 68.4286
L177.6188 68.4762
" />
<path d="M177.6188 68.4762
L177.6664 68.5714
" />
<path d="M177.6664 68.5714
L177.6664 68.8095
" />
<path d="M177.6664 68.8095
L177.6188 68.9048
" />
<path d="M177.6188 68.9048
L177.5712 68.9524
" />
<path d="M177.5712 68.9524
L177.4760 69.0000
" />
<path d="M177.4760 69.0000
L177.2379 69.0000
" />
<path d="M177.2379 69.0000
L177.1426 68.9524
" />
<path d="M177.1426 68.9524
L177.0950 68.9048
" />
<path d="M177.0950 68.9048
L177.0474 68.8095
" />
<path d="M177.0474 68.8095
L177.0474 68.5714
" />
<path d="M177.0474 68.5714
L177.0950 68.4762
" />
<path d="M177.0950 68.4762
L177.1426 68.4286
" />
<path d="M177.0474 69.4286
L177.7140 69.4286
" />
<path d="M177.6188 69.4286
L177.6664 69.4762
" />
<path d="M177.6664 69.4762
L177.7140 69.5714
" />
<path d="M177.7140 69.5714
L177.7140 69.7143
" />
<path d="M177.7140 69.7143
L177.6664 69.8095
" />
<path d="M177.6664 69.8095
L177.5712 69.8571
" />
<path d="M177.5712 69.8571
L177.0474 69.8571
" />
<path d="M177.5712 69.8571
L177.6664 69.9048
" />
<path d="M177.6664 69.9048
L177.7140 70.0000
" />
<path d="M177.7140 70.0000
L177.7140 70.1429
" />
<path d="M177.7140 70.1429
L177.6664 70.2381
" />
<path d="M177.6664 70.2381
L177.5712 70.2857
" />
<path d="M177.5712 70.2857
L177.0474 70.2857
" />
<path d="M177.0474 70.7619
L177.7140 70.7619
" />
<path d="M177.6188 70.7619
L177.6664 70.8095
" />
<path d="M177.6664 70.8095
L177.7140 70.9048
" />
<path d="M177.7140 70.9048
L177.7140 71.0476
" />
<path d="M177.7140 71.0476
L177.6664 71.1429
" />
<path d="M177.6664 71.1429
L177.5712 71.1905
" />
<path d="M177.5712 71.1905
L177.0474 71.1905
" />
<path d="M177.5712 71.1905
L177.6664 71.2381
" />
<path d="M177.6664 71.2381
L177.7140 71.3333
" />
<path d="M177.7140 71.3333
L177.7140 71.4762
" />
<path d="M177.7140 71.4762
L177.6664 71.5714
" />
<path d="M177.6664 71.5714
L177.5712 71.6190
" />
<path d="M177.5712 71.6190
L177.0474 71.6190
" />
</g><text x="231.0622" y="108.1500"
textLength="7.5357" font-size="1.3333" lengthAdjust="spacingAndGlyphs"
text-anchor="middle" opacity="0" stroke-opacity="0">PCB edge</text>
<g class="stroked-text"><desc>PCB edge</desc>
<path d="M227.6574 108.1048
L227.6574 107.1048
" />
<path d="M227.6574 107.1048
L228.0384 107.1048
" />
<path d="M228.0384 107.1048
L228.1336 107.1524
" />
<path d="M228.1336 107.1524
L228.1812 107.2001
" />
<path d="M228.1812 107.2001
L228.2289 107.2953
" />
<path d="M228.2289 107.2953
L228.2289 107.4382
" />
<path d="M228.2289 107.4382
L228.1812 107.5334
" />
<path d="M228.1812 107.5334
L228.1336 107.5810
" />
<path d="M228.1336 107.5810
L228.0384 107.6286
" />
<path d="M228.0384 107.6286
L227.6574 107.6286
" />
<path d="M229.2289 108.0096
L229.1812 108.0572
" />
<path d="M229.1812 108.0572
L229.0384 108.1048
" />
<path d="M229.0384 108.1048
L228.9432 108.1048
" />
<path d="M228.9432 108.1048
L228.8003 108.0572
" />
<path d="M228.8003 108.0572
L228.7051 107.9620
" />
<path d="M228.7051 107.9620
L228.6574 107.8667
" />
<path d="M228.6574 107.8667
L228.6098 107.6762
" />
<path d="M228.6098 107.6762
L228.6098 107.5334
" />
<path d="M228.6098 107.5334
L228.6574 107.3429
" />
<path d="M228.6574 107.3429
L228.7051 107.2477
" />
<path d="M228.7051 107.2477
L228.8003 107.1524
" />
<path d="M228.8003 107.1524
L228.9432 107.1048
" />
<path d="M228.9432 107.1048
L229.0384 107.1048
" />
<path d="M229.0384 107.1048
L229.1812 107.1524
" />
<path d="M229.1812 107.1524
L229.2289 107.2001
" />
<path d="M229.9908 107.5810
L230.1336 107.6286
" />
<path d="M230.1336 107.6286
L230.1812 107.6762
" />
<path d="M230.1812 107.6762
L230.2289 107.7715
" />
<path d="M230.2289 107.7715
L230.2289 107.9143
" />
<path d="M230.2289 107.9143
L230.1812 108.0096
" />
<path d="M230.1812 108.0096
L230.1336 108.0572
" />
<path d="M230.1336 108.0572
L230.0384 108.1048
" />
<path d="M230.0384 108.1048
L229.6574 108.1048
" />
<path d="M229.6574 108.1048
L229.6574 107.1048
" />
<path d="M229.6574 107.1048
L229.9908 107.1048
" />
<path d="M229.9908 107.1048
L230.0860 107.1524
" />
<path d="M230.0860 107.1524
L230.1336 107.2001
" />
<path d="M230.1336 107.2001
L230.1812 107.2953
" />
<path d="M230.1812 107.2953
L230.1812 107.3905
" />
<path d="M230.1812 107.3905
L230.1336 107.4858
" />
<path d="M230.1336 107.4858
L230.0860 107.5334
" />
<path d="M230.0860 107.5334
L229.9908 107.5810
" />
<path d="M229.9908 107.5810
L229.6574 107.5810
" />
<path d="M231.8003 108.0572
L231.7051 108.1048
" />
<path d="M231.7051 108.1048
L231.5146 108.1048
" />
<path d="M231.5146 108.1048
L231.4193 108.0572
" />
<path d="M231.4193 108.0572
L231.3717 107.9620
" />
<path d="M231.3717 107.9620
L231.3717 107.5810
" />
<path d="M231.3717 107.5810
L231.4193 107.4858
" />
<path d="M231.4193 107.4858
L231.5146 107.4382
" />
<path d="M231.5146 107.4382
L231.7051 107.4382
" />
<path d="M231.7051 107.4382
L231.8003 107.4858
" />
<path d="M231.8003 107.4858
L231.8479 107.5810
" />
<path d="M231.8479 107.5810
L231.8479 107.6762
" />
<path d="M231.8479 107.6762
L231.3717 107.7715
" />
<path d="M232.7051 108.1048
L232.7051 107.1048
" />
<path d="M232.7051 108.0572
L232.6098 108.1048
" />
<path d="M232.6098 108.1048
L232.4193 108.1048
" />
<path d="M232.4193 108.1048
L232.3241 108.0572
" />
<path d="M232.3241 108.0572
L232.2765 108.0096
" />
<path d="M232.2765 108.0096
L232.2289 107.9143
" />
<path d="M232.2289 107.9143
L232.2289 107.6286
" />
<path d="M232.2289 107.6286
L232.2765 107.5334
" />
<path d="M232.2765 107.5334
L232.3241 107.4858
" />
<path d="M232.3241 107.4858
L232.4193 107.4382
" />
<path d="M232.4193 107.4382
L232.6098 107.4382
" />
<path d="M232.6098 107.4382
L232.7051 107.4858
" />
<path d="M233.6098 107.4382
L233.6098 108.2477
" />
<path d="M233.6098 108.2477
L233.5622 108.3429
" />
<path d="M233.5622 108.3429
L233.5146 108.3905
" />
<path d="M233.5146 108.3905
L233.4193 108.4382
" />
<path d="M233.4193 108.4382
L233.2765 108.4382
" />
<path d="M233.2765 108.4382
L233.1812 108.3905
" />
<path d="M233.6098 108.0572
L233.5146 108.1048
" />
<path d="M233.5146 108.1048
L233.3241 108.1048
" />
<path d="M233.3241 108.1048
L233.2289 108.0572
" />
<path d="M233.2289 108.0572
L233.1812 108.0096
" />
<path d="M233.1812 108.0096
L233.1336 107.9143
" />
<path d="M233.1336 107.9143
L233.1336 107.6286
" />
<path d="M233.1336 107.6286
L233.1812 107.5334
" />
<path d="M233.1812 107.5334
L233.2289 107.4858
" />
<path d="M233.2289 107.4858
L233.3241 107.4382
" />
<path d="M233.3241 107.4382
L233.5146 107.4382
" />
<path d="M233.5146 107.4382
L233.6098 107.4858
" />
<path d="M234.4670 108.0572
L234.3717 108.1048
" />
<path d="M234.3717 108.1048
L234.1812 108.1048
" />
<path d="M234.1812 108.1048
L234.0860 108.0572
" />
<path d="M234.0860 108.0572
L234.0384 107.9620
" />
<path d="M234.0384 107.9620
L234.0384 107.5810
" />
<path d="M234.0384 107.5810
L234.0860 107.4858
" />
<path d="M234.0860 107.4858
L234.1812 107.4382
" />
<path d="M234.1812 107.4382
L234.3717 107.4382
" />
<path d="M234.3717 107.4382
L234.4670 107.4858
" />
<path d="M234.4670 107.4858
L234.5146 107.5810
" />
<path d="M234.5146 107.5810
L234.5146 107.6762
" />
<path d="M234.5146 107.6762
L234.0384 107.7715
" />
</g></g>
<g style="fill:none; 
stroke:#000000; stroke-width:0.2000; stroke-opacity:1; 
stroke-linecap:round; stroke-linejoin:round;">
<g transform="rotate(90.000000 198.0022 111.7500)">
<text x="198.0022" y="112.3500"
transform="scale(-1 1) translate(-396.004400 0)"
textLength="3.4457" font-size="1.6000" lengthAdjust="spacingAndGlyphs"
text-anchor="middle" opacity="0" stroke-opacity="0">Tab</text>
</g>
<g class="stroked-text"><desc>Tab</desc>
<path d="M198.6575 113.1786
L198.6575 112.4929
" />
<path d="M197.4575 112.8357
L198.6575 112.8357
" />
<path d="M197.4575 111.5786
L198.0860 111.5786
" />
<path d="M198.0860 111.5786
L198.2003 111.6357
" />
<path d="M198.2003 111.6357
L198.2575 111.7500
" />
<path d="M198.2575 111.7500
L198.2575 111.9786
" />
<path d="M198.2575 111.9786
L198.2003 112.0929
" />
<path d="M197.5146 111.5786
L197.4575 111.6929
" />
<path d="M197.4575 111.6929
L197.4575 111.9786
" />
<path d="M197.4575 111.9786
L197.5146 112.0929
" />
<path d="M197.5146 112.0929
L197.6289 112.1500
" />
<path d="M197.6289 112.1500
L197.7432 112.1500
" />
<path d="M197.7432 112.1500
L197.8575 112.0929
" />
<path d="M197.8575 112.0929
L197.9146 111.9786
" />
<path d="M197.9146 111.9786
L197.9146 111.6929
" />
<path d="M197.9146 111.6929
L197.9717 111.5786
" />
<path d="M197.4575 111.0071
L198.6575 111.0071
" />
<path d="M198.2003 111.0071
L198.2575 110.8929
" />
<path d="M198.2575 110.8929
L198.2575 110.6643
" />
<path d="M198.2575 110.6643
L198.2003 110.5500
" />
<path d="M198.2003 110.5500
L198.1432 110.4929
" />
<path d="M198.1432 110.4929
L198.0289 110.4357
" />
<path d="M198.0289 110.4357
L197.6860 110.4357
" />
<path d="M197.6860 110.4357
L197.5717 110.4929
" />
<path d="M197.5717 110.4929
L197.5146 110.5500
" />
<path d="M197.5146 110.5500
L197.4575 110.6643
" />
<path d="M197.4575 110.6643
L197.4575 110.8929
" />
<path d="M197.4575 110.8929
L197.5146 111.0071
" />
</g></g>
<g style="fill:none; 
stroke:#000000; stroke-width:0.1500; stroke-opacity:1; 
stroke-linecap:round; stroke-linejoin:round;">
<text x="197.0022" y="115.0000"
textLength="13.9643" font-size="1.3333" lengthAdjust="spacingAndGlyphs"
text-anchor="middle" opacity="0" stroke-opacity="0">KIKIT: width: 5mm</text>
<g class="stroked-text"><desc>KIKIT: width: 5mm</desc>
<path d="M190.3832 114.9548
L190.3832 113.9548
" />
<path d="M190.9546 114.9548
L190.5260 114.3834
" />
<path d="M190.9546 113.9548
L190.3832 114.5262
" />
<path d="M191.3832 114.9548
L191.3832 113.9548
" />
<path d="M191.8593 114.9548
L191.8593 113.9548
" />
<path d="M192.4308 114.9548
L192.0022 114.3834
" />
<path d="M192.4308 113.9548
L191.8593 114.5262
" />
<path d="M192.8593 114.9548
L192.8593 113.9548
" />
<path d="M193.1927 113.9548
L193.7641 113.9548
" />
<path d="M193.4784 114.9548
L193.4784 113.9548
" />
<path d="M194.0974 114.8596
L194.1451 114.9072
" />
<path d="M194.1451 114.9072
L194.0974 114.9548
" />
<path d="M194.0974 114.9548
L194.0498 114.9072
" />
<path d="M194.0498 114.9072
L194.0974 114.8596
" />
<path d="M194.0974 114.8596
L194.0974 114.9548
" />
<path d="M194.0974 114.3358
L194.1451 114.3834
" />
<path d="M194.1451 114.3834
L194.0974 114.4310
" />
<path d="M194.0974 114.4310
L194.0498 114.3834
" />
<path d="M194.0498 114.3834
L194.0974 114.3358
" />
<path d="M194.0974 114.3358
L194.0974 114.4310
" />
<path d="M195.2403 114.2882
L195.4308 114.9548
" />
<path d="M195.4308 114.9548
L195.6212 114.4786
" />
<path d="M195.6212 114.4786
L195.8117 114.9548
" />
<path d="M195.8117 114.9548
L196.0022 114.2882
" />
<path d="M196.3832 114.9548
L196.3832 114.2882
" />
<path d="M196.3832 113.9548
L196.3355 114.0024
" />
<path d="M196.3355 114.0024
L196.3832 114.0501
" />
<path d="M196.3832 114.0501
L196.4308 114.0024
" />
<path d="M196.4308 114.0024
L196.3832 113.9548
" />
<path d="M196.3832 113.9548
L196.3832 114.0501
" />
<path d="M197.2879 114.9548
L197.2879 113.9548
" />
<path d="M197.2879 114.9072
L197.1927 114.9548
" />
<path d="M197.1927 114.9548
L197.0022 114.9548
" />
<path d="M197.0022 114.9548
L196.9070 114.9072
" />
<path d="M196.9070 114.9072
L196.8593 114.8596
" />
<path d="M196.8593 114.8596
L196.8117 114.7643
" />
<path d="M196.8117 114.7643
L196.8117 114.4786
" />
<path d="M196.8117 114.4786
L196.8593 114.3834
" />
<path d="M196.8593 114.3834
L196.9070 114.3358
" />
<path d="M196.9070 114.3358
L197.0022 114.2882
" />
<path d="M197.0022 114.2882
L197.1927 114.2882
" />
<path d="M197.1927 114.2882
L197.2879 114.3358
" />
<path d="M197.6212 114.2882
L198.0022 114.2882
" />
<path d="M197.7641 113.9548
L197.7641 114.8120
" />
<path d="M197.7641 114.8120
L197.8117 114.9072
" />
<path d="M197.8117 114.9072
L197.9070 114.9548
" />
<path d="M197.9070 114.9548
L198.0022 114.9548
" />
<path d="M198.3355 114.9548
L198.3355 113.9548
" />
<path d="M198.7641 114.9548
L198.7641 114.4310
" />
<path d="M198.7641 114.4310
L198.7165 114.3358
" />
<path d="M198.7165 114.3358
L198.6212 114.2882
" />
<path d="M198.6212 114.2882
L198.4784 114.2882
" />
<path d="M198.4784 114.2882
L198.3832 114.3358
" />
<path d="M198.3832 114.3358
L198.3355 114.3834
" />
<path d="M199.2403 114.8596
L199.2879 114.9072
" />
<path d="M199.2879 114.9072
L199.2403 114.9548
" />
<path d="M199.2403 114.9548
L199.1927 114.9072
" />
<path d="M199.1927 114.9072
L199.2403 114.8596
" />
<path d="M199.2403 114.8596
L199.2403 114.9548
" />
<path d="M199.2403 114.3358
L199.2879 114.3834
" />
<path d="M199.2879 114.3834
L199.2403 114.4310
" />
<path d="M199.2403 114.4310
L199.1927 114.3834
" />
<path d="M199.1927 114.3834
L199.2403 114.3358
" />
<path d="M199.2403 114.3358
L199.2403 114.4310
" />
<path d="M200.9546 113.9548
L200.4784 113.9548
" />
<path d="M200.4784 113.9548
L200.4308 114.4310
" />
<path d="M200.4308 114.4310
L200.4784 114.3834
" />
<path d="M200.4784 114.3834
L200.5736 114.3358
" />
<path d="M200.5736 114.3358
L200.8117 114.3358
" />
<path d="M200.8117 114.3358
L200.9070 114.3834
" />
<path d="M200.9070 114.3834
L200.9546 114.4310
" />
<path d="M200.9546 114.4310
L201.0022 114.5262
" />
<path d="M201.0022 114.5262
L201.0022 114.7643
" />
<path d="M201.0022 114.7643
L200.9546 114.8596
" />
<path d="M200.9546 114.8596
L200.9070 114.9072
" />
<path d="M200.9070 114.9072
L200.8117 114.9548
" />
<path d="M200.8117 114.9548
L200.5736 114.9548
" />
<path d="M200.5736 114.9548
L200.4784 114.9072
" />
<path d="M200.4784 114.9072
L200.4308 114.8596
" />
<path d="M201.4308 114.9548
L201.4308 114.2882
" />
<path d="M201.4308 114.3834
L201.4784 114.3358
" />
<path d="M201.4784 114.3358
L201.5736 114.2882
" />
<path d="M201.5736 114.2882
L201.7165 114.2882
" />
<path d="M201.7165 114.2882
L201.8117 114.3358
" />
<path d="M201.8117 114.3358
L201.8593 114.4310
" />
<path d="M201.8593 114.4310
L201.8593 114.9548
" />
<path d="M201.8593 114.4310
L201.9070 114.3358
" />
<path d="M201.9070 114.3358
L202.0022 114.2882
" />
<path d="M202.0022 114.2882
L202.1451 114.2882
" />
<path d="M202.1451 114.2882
L202.2403 114.3358
" />
<path d="M202.2403 114.3358
L202.2879 114.4310
" />
<path d="M202.2879 114.4310
L202.2879 114.9548
" />
<path d="M202.7641 114.9548
L202.7641 114.2882
" />
<path d="M202.7641 114.3834
L202.8117 114.3358
" />
<path d="M202.8117 114.3358
L202.9070 114.2882
" />
<path d="M202.9070 114.2882
L203.0498 114.2882
" />
<path d="M203.0498 114.2882
L203.1451 114.3358
" />
<path d="M203.1451 114.3358
L203.1927 114.4310
" />
<path d="M203.1927 114.4310
L203.1927 114.9548
" />
<path d="M203.1927 114.4310
L203.2403 114.3358
" />
<path d="M203.2403 114.3358
L203.3355 114.2882
" />
<path d="M203.3355 114.2882
L203.4784 114.2882
" />
<path d="M203.4784 114.2882
L203.5736 114.3358
" />
<path d="M203.5736 114.3358
L203.6212 114.4310
" />
<path d="M203.6212 114.4310
L203.6212 114.9548
" />
</g></g>
<g style="fill:none; 
stroke:#000000; stroke-width:0.2000; stroke-opacity:1; 
stroke-linecap:round; stroke-linejoin:round;">
<g transform="rotate(90.000000 196.0022 49.2500)">
<text x="196.0022" y="49.8500"
transform="scale(-1 1) translate(-392.004400 0)"
textLength="3.4457" font-size="1.6000" lengthAdjust="spacingAndGlyphs"
text-anchor="middle" opacity="0" stroke-opacity="0">Tab</text>
</g>
<g class="stroked-text"><desc>Tab</desc>
<path d="M196.6575 50.6786
L196.6575 49.9929
" />
<path d="M195.4575 50.3357
L196.6575 50.3357
" />
<path d="M195.4575 49.0786
L196.0860 49.0786
" />
<path d="M196.0860 49.0786
L196.2003 49.1357
" />
<path d="M196.2003 49.1357
L196.2575 49.2500
" />
<path d="M196.2575 49.2500
L196.2575 49.4786
" />
<path d="M196.2575 49.4786
L196.2003 49.5929
" />
<path d="M195.5146 49.0786
L195.4575 49.1929
" />
<path d="M195.4575 49.1929
L195.4575 49.4786
" />
<path d="M195.4575 49.4786
L195.5146 49.5929
" />
<path d="M195.5146 49.5929
L195.6289 49.6500
" />
<path d="M195.6289 49.6500
L195.7432 49.6500
" />
<path d="M195.7432 49.6500
L195.8575 49.5929
" />
<path d="M195.8575 49.5929
L195.9146 49.4786
" />
<path d="M195.9146 49.4786
L195.9146 49.1929
" />
<path d="M195.9146 49.1929
L195.9717 49.0786
" />
<path d="M195.4575 48.5071
L196.6575 48.5071
" />
<path d="M196.2003 48.5071
L196.2575 48.3929
" />
<path d="M196.2575 48.3929
L196.2575 48.1643
" />
<path d="M196.2575 48.1643
L196.2003 48.0500
" />
<path d="M196.2003 48.0500
L196.1432 47.9929
" />
<path d="M196.1432 47.9929
L196.0289 47.9357
" />
<path d="M196.0289 47.9357
L195.6860 47.9357
" />
<path d="M195.6860 47.9357
L195.5717 47.9929
" />
<path d="M195.5717 47.9929
L195.5146 48.0500
" />
<path d="M195.5146 48.0500
L195.4575 48.1643
" />
<path d="M195.4575 48.1643
L195.4575 48.3929
" />
<path d="M195.4575 48.3929
L195.5146 48.5071
" />
</g></g>
<g style="fill:none; 
stroke:#000000; stroke-width:0.1500; stroke-opacity:1; 
stroke-linecap:round; stroke-linejoin:round;">
<text x="197.0022" y="47.0000"
textLength="13.9643" font-size="1.3333" lengthAdjust="spacingAndGlyphs"
text-anchor="middle" opacity="0" stroke-opacity="0">KIKIT: width: 5mm</text>
<g class="stroked-text"><desc>KIKIT: width: 5mm</desc>
<path d="M190.3832 46.9548
L190.3832 45.9548
" />
<path d="M190.9546 46.9548
L190.5260 46.3834
" />
<path d="M190.9546 45.9548
L190.3832 46.5262
" />
<path d="M191.3832 46.9548
L191.3832 45.9548
" />
<path d="M191.8593 46.9548
L191.8593 45.9548
" />
<path d="M192.4308 46.9548
L192.0022 46.3834
" />
<path d="M192.4308 45.9548
L191.8593 46.5262
" />
<path d="M192.8593 46.9548
L192.8593 45.9548
" />
<path d="M193.1927 45.9548
L193.7641 45.9548
" />
<path d="M193.4784 46.9548
L193.4784 45.9548
" />
<path d="M194.0974 46.8596
L194.1451 46.9072
" />
<path d="M194.1451 46.9072
L194.0974 46.9548
" />
<path d="M194.0974 46.9548
L194.0498 46.9072
" />
<path d="M194.0498 46.9072
L194.0974 46.8596
" />
<path d="M194.0974 46.8596
L194.0974 46.9548
" />
<path d="M194.0974 46.3358
L194.1451 46.3834
" />
<path d="M194.1451 46.3834
L194.0974 46.4310
" />
<path d="M194.0974 46.4310
L194.0498 46.3834
" />
<path d="M194.0498 46.3834
L194.0974 46.3358
" />
<path d="M194.0974 46.3358
L194.0974 46.4310
" />
<path d="M195.2403 46.2882
L195.4308 46.9548
" />
<path d="M195.4308 46.9548
L195.6212 46.4786
" />
<path d="M195.6212 46.4786
L195.8117 46.9548
" />
<path d="M195.8117 46.9548
L196.0022 46.2882
" />
<path d="M196.3832 46.9548
L196.3832 46.2882
" />
<path d="M196.3832 45.9548
L196.3355 46.0024
" />
<path d="M196.3355 46.0024
L196.3832 46.0501
" />
<path d="M196.3832 46.0501
L196.4308 46.0024
" />
<path d="M196.4308 46.0024
L196.3832 45.9548
" />
<path d="M196.3832 45.9548
L196.3832 46.0501
" />
<path d="M197.2879 46.9548
L197.2879 45.9548
" />
<path d="M197.2879 46.9072
L197.1927 46.9548
" />
<path d="M197.1927 46.9548
L197.0022 46.9548
" />
<path d="M197.0022 46.9548
L196.9070 46.9072
" />
<path d="M196.9070 46.9072
L196.8593 46.8596
" />
<path d="M196.8593 46.8596
L196.8117 46.7643
" />
<path d="M196.8117 46.7643
L196.8117 46.4786
" />
<path d="M196.8117 46.4786
L196.8593 46.3834
" />
<path d="M196.8593 46.3834
L196.9070 46.3358
" />
<path d="M196.9070 46.3358
L197.0022 46.2882
" />
<path d="M197.0022 46.2882
L197.1927 46.2882
" />
<path d="M197.1927 46.2882
L197.2879 46.3358
" />
<path d="M197.6212 46.2882
L198.0022 46.2882
" />
<path d="M197.7641 45.9548
L197.7641 46.8120
" />
<path d="M197.7641 46.8120
L197.8117 46.9072
" />
<path d="M197.8117 46.9072
L197.9070 46.9548
" />
<path d="M197.9070 46.9548
L198.0022 46.9548
" />
<path d="M198.3355 46.9548
L198.3355 45.9548
" />
<path d="M198.7641 46.9548
L198.7641 46.4310
" />
<path d="M198.7641 46.4310
L198.7165 46.3358
" />
<path d="M198.7165 46.3358
L198.6212 46.2882
" />
<path d="M198.6212 46.2882
L198.4784 46.2882
" />
<path d="M198.4784 46.2882
L198.3832 46.3358
" />
<path d="M198.3832 46.3358
L198.3355 46.3834
" />
<path d="M199.2403 46.8596
L199.2879 46.9072
" />
<path d="M199.2879 46.9072
L199.2403 46.9548
" />
<path d="M199.2403 46.9548
L199.1927 46.9072
" />
<path d="M199.1927 46.9072
L199.2403 46.8596
" />
<path d="M199.2403 46.8596
L199.2403 46.9548
" />
<path d="M199.2403 46.3358
L199.2879 46.3834
" />
<path d="M199.2879 46.3834
L199.2403 46.4310
" />
<path d="M199.2403 46.4310
L199.1927 46.3834
" />
<path d="M199.1927 46.3834
L199.2403 46.3358
" />
<path d="M199.2403 46.3358
L199.2403 46.4310
" />
<path d="M200.9546 45.9548
L200.4784 45.9548
" />
<path d="M200.4784 45.9548
L200.4308 46.4310
" />
<path d="M200.4308 46.4310
L200.4784 46.3834
" />
<path d="M200.4784 46.3834
L200.5736 46.3358
" />
<path d="M200.5736 46.3358
L200.8117 46.3358
" />
<path d="M200.8117 46.3358
L200.9070 46.3834
" />
<path d="M200.9070 46.3834
L200.9546 46.4310
" />
<path d="M200.9546 46.4310
L201.0022 46.5262
" />
<path d="M201.0022 46.5262
L201.0022 46.7643
" />
<path d="M201.0022 46.7643
L200.9546 46.8596
" />
<path d="M200.9546 46.8596
L200.9070 46.9072
" />
<path d="M200.9070 46.9072
L200.8117 46.9548
" />
<path d="M200.8117 46.9548
L200.5736 46.9548
" />
<path d="M200.5736 46.9548
L200.4784 46.9072
" />
<path d="M200.4784 46.9072
L200.4308 46.8596
" />
<path d="M201.4308 46.9548
L201.4308 46.2882
" />
<path d="M201.4308 46.3834
L201.4784 46.3358
" />
<path d="M201.4784 46.3358
L201.5736 46.2882
" />
<path d="M201.5736 46.2882
L201.7165 46.2882
" />
<path d="M201.7165 46.2882
L201.8117 46.3358
" />
<path d="M201.8117 46.3358
L201.8593 46.4310
" />
<path d="M201.8593 46.4310
L201.8593 46.9548
" />
<path d="M201.8593 46.4310
L201.9070 46.3358
" />
<path d="M201.9070 46.3358
L202.0022 46.2882
" />
<path d="M202.0022 46.2882
L202.1451 46.2882
" />
<path d="M202.1451 46.2882
L202.2403 46.3358
" />
<path d="M202.2403 46.3358
L202.2879 46.4310
" />
<path d="M202.2879 46.4310
L202.2879 46.9548
" />
<path d="M202.7641 46.9548
L202.7641 46.2882
" />
<path d="M202.7641 46.3834
L202.8117 46.3358
" />
<path d="M202.8117 46.3358
L202.9070 46.2882
" />
<path d="M202.9070 46.2882
L203.0498 46.2882
" />
<path d="M203.0498 46.2882
L203.1451 46.3358
" />
<path d="M203.1451 46.3358
L203.1927 46.4310
" />
<path d="M203.1927 46.4310
L203.1927 46.9548
" />
<path d="M203.1927 46.4310
L203.2403 46.3358
" />
<path d="M203.2403 46.3358
L203.3355 46.2882
" />
<path d="M203.3355 46.2882
L203.4784 46.2882
" />
<path d="M203.4784 46.2882
L203.5736 46.3358
" />
<path d="M203.5736 46.3358
L203.6212 46.4310
" />
<path d="M203.6212 46.4310
L203.6212 46.9548
" />
</g><text x="211.9022" y="108.1500"
textLength="7.5357" font-size="1.3333" lengthAdjust="spacingAndGlyphs"
text-anchor="middle" opacity="0" stroke-opacity="0">PCB edge</text>
<g class="stroked-text"><desc>PCB edge</desc>
<path d="M208.4974 108.1048
L208.4974 107.1048
" />
<path d="M208.4974 107.1048
L208.8784 107.1048
" />
<path d="M208.8784 107.1048
L208.9736 107.1524
" />
<path d="M208.9736 107.1524
L209.0212 107.2001
" />
<path d="M209.0212 107.2001
L209.0689 107.2953
" />
<path d="M209.0689 107.2953
L209.0689 107.4382
" />
<path d="M209.0689 107.4382
L209.0212 107.5334
" />
<path d="M209.0212 107.5334
L208.9736 107.5810
" />
<path d="M208.9736 107.5810
L208.8784 107.6286
" />
<path d="M208.8784 107.6286
L208.4974 107.6286
" />
<path d="M210.0689 108.0096
L210.0212 108.0572
" />
<path d="M210.0212 108.0572
L209.8784 108.1048
" />
<path d="M209.8784 108.1048
L209.7832 108.1048
" />
<path d="M209.7832 108.1048
L209.6403 108.0572
" />
<path d="M209.6403 108.0572
L209.5451 107.9620
" />
<path d="M209.5451 107.9620
L209.4974 107.8667
" />
<path d="M209.4974 107.8667
L209.4498 107.6762
" />
<path d="M209.4498 107.6762
L209.4498 107.5334
" />
<path d="M209.4498 107.5334
L209.4974 107.3429
" />
<path d="M209.4974 107.3429
L209.5451 107.2477
" />
<path d="M209.5451 107.2477
L209.6403 107.1524
" />
<path d="M209.6403 107.1524
L209.7832 107.1048
" />
<path d="M209.7832 107.1048
L209.8784 107.1048
" />
<path d="M209.8784 107.1048
L210.0212 107.1524
" />
<path d="M210.0212 107.1524
L210.0689 107.2001
" />
<path d="M210.8308 107.5810
L210.9736 107.6286
" />
<path d="M210.9736 107.6286
L211.0212 107.6762
" />
<path d="M211.0212 107.6762
L211.0689 107.7715
" />
<path d="M211.0689 107.7715
L211.0689 107.9143
" />
<path d="M211.0689 107.9143
L211.0212 108.0096
" />
<path d="M211.0212 108.0096
L210.9736 108.0572
" />
<path d="M210.9736 108.0572
L210.8784 108.1048
" />
<path d="M210.8784 108.1048
L210.4974 108.1048
" />
<path d="M210.4974 108.1048
L210.4974 107.1048
" />
<path d="M210.4974 107.1048
L210.8308 107.1048
" />
<path d="M210.8308 107.1048
L210.9260 107.1524
" />
<path d="M210.9260 107.1524
L210.9736 107.2001
" />
<path d="M210.9736 107.2001
L211.0212 107.2953
" />
<path d="M211.0212 107.2953
L211.0212 107.3905
" />
<path d="M211.0212 107.3905
L210.9736 107.4858
" />
<path d="M210.9736 107.4858
L210.9260 107.5334
" />
<path d="M210.9260 107.5334
L210.8308 107.5810
" />
<path d="M210.8308 107.5810
L210.4974 107.5810
" />
<path d="M212.6403 108.0572
L212.5451 108.1048
" />
<path d="M212.5451 108.1048
L212.3546 108.1048
" />
<path d="M212.3546 108.1048
L212.2593 108.0572
" />
<path d="M212.2593 108.0572
L212.2117 107.9620
" />
<path d="M212.2117 107.9620
L212.2117 107.5810
" />
<path d="M212.2117 107.5810
L212.2593 107.4858
" />
<path d="M212.2593 107.4858
L212.3546 107.4382
" />
<path d="M212.3546 107.4382
L212.5451 107.4382
" />
<path d="M212.5451 107.4382
L212.6403 107.4858
" />
<path d="M212.6403 107.4858
L212.6879 107.5810
" />
<path d="M212.6879 107.5810
L212.6879 107.6762
" />
<path d="M212.6879 107.6762
L212.2117 107.7715
" />
<path d="M213.5451 108.1048
L213.5451 107.1048
" />
<path d="M213.5451 108.0572
L213.4498 108.1048
" />
<path d="M213.4498 108.1048
L213.2593 108.1048
" />
<path d="M213.2593 108.1048
L213.1641 108.0572
" />
<path d="M213.1641 108.0572
L213.1165 108.0096
" />
<path d="M213.1165 108.0096
L213.0689 107.9143
" />
<path d="M213.0689 107.9143
L213.0689 107.6286
" />
<path d="M213.0689 107.6286
L213.1165 107.5334
" />
<path d="M213.1165 107.5334
L213.1641 107.4858
" />
<path d="M213.1641 107.4858
L213.2593 107.4382
" />
<path d="M213.2593 107.4382
L213.4498 107.4382
" />
<path d="M213.4498 107.4382
L213.5451 107.4858
" />
<path d="M214.4498 107.4382
L214.4498 108.2477
" />
<path d="M214.4498 108.2477
L214.4022 108.3429
" />
<path d="M214.4022 108.3429
L214.3546 108.3905
" />
<path d="M214.3546 108.3905
L214.2593 108.4382
" />
<path d="M214.2593 108.4382
L214.1165 108.4382
" />
<path d="M214.1165 108.4382
L214.0212 108.3905
" />
<path d="M214.4498 108.0572
L214.3546 108.1048
" />
<path d="M214.3546 108.1048
L214.1641 108.1048
" />
<path d="M214.1641 108.1048
L214.0689 108.0572
" />
<path d="M214.0689 108.0572
L214.0212 108.0096
" />
<path d="M214.0212 108.0096
L213.9736 107.9143
" />
<path d="M213.9736 107.9143
L213.9736 107.6286
" />
<path d="M213.9736 107.6286
L214.0212 107.5334
" />
<path d="M214.0212 107.5334
L214.0689 107.4858
" />
<path d="M214.0689 107.4858
L214.1641 107.4382
" />
<path d="M214.1641 107.4382
L214.3546 107.4382
" />
<path d="M214.3546 107.4382
L214.4498 107.4858
" />
<path d="M215.3070 108.0572
L215.2117 108.1048
" />
<path d="M215.2117 108.1048
L215.0212 108.1048
" />
<path d="M215.0212 108.1048
L214.9260 108.0572
" />
<path d="M214.9260 108.0572
L214.8784 107.9620
" />
<path d="M214.8784 107.9620
L214.8784 107.5810
" />
<path d="M214.8784 107.5810
L214.9260 107.4858
" />
<path d="M214.9260 107.4858
L215.0212 107.4382
" />
<path d="M215.0212 107.4382
L215.2117 107.4382
" />
<path d="M215.2117 107.4382
L215.3070 107.4858
" />
<path d="M215.3070 107.4858
L215.3546 107.5810
" />
<path d="M215.3546 107.5810
L215.3546 107.6762
" />
<path d="M215.3546 107.6762
L214.8784 107.7715
" />
</g></g>
<g style="fill:none; 
stroke:#000000; stroke-width:0.2000; stroke-opacity:1; 
stroke-linecap:round; stroke-linejoin:round;">
<text x="251.7522" y="64.6000"
transform="scale(-1 1) translate(-503.504400 0)"
textLength="3.4457" font-size="1.6000" lengthAdjust="spacingAndGlyphs"
text-anchor="middle" opacity="0" stroke-opacity="0">Tab</text>
<g class="stroked-text"><desc>Tab</desc>
<path d="M253.1808 63.3447
L252.4951 63.3447
" />
<path d="M252.8379 64.5447
L252.8379 63.3447
" />
<path d="M251.5808 64.5447
L251.5808 63.9162
" />
<path d="M251.5808 63.9162
L251.6379 63.8019
" />
<path d="M251.6379 63.8019
L251.7522 63.7447
" />
<path d="M251.7522 63.7447
L251.9808 63.7447
" />
<path d="M251.9808 63.7447
L252.0951 63.8019
" />
<path d="M251.5808 64.4876
L251.6951 64.5447
" />
<path d="M251.6951 64.5447
L251.9808 64.5447
" />
<path d="M251.9808 64.5447
L252.0951 64.4876
" />
<path d="M252.0951 64.4876
L252.1522 64.3733
" />
<path d="M252.1522 64.3733
L252.1522 64.2590
" />
<path d="M252.1522 64.2590
L252.0951 64.1447
" />
<path d="M252.0951 64.1447
L251.9808 64.0876
" />
<path d="M251.9808 64.0876
L251.6951 64.0876
" />
<path d="M251.6951 64.0876
L251.5808 64.0305
" />
<path d="M251.0093 64.5447
L251.0093 63.3447
" />
<path d="M251.0093 63.8019
L250.8951 63.7447
" />
<path d="M250.8951 63.7447
L250.6665 63.7447
" />
<path d="M250.6665 63.7447
L250.5522 63.8019
" />
<path d="M250.5522 63.8019
L250.4951 63.8590
" />
<path d="M250.4951 63.8590
L250.4379 63.9733
" />
<path d="M250.4379 63.9733
L250.4379 64.3162
" />
<path d="M250.4379 64.3162
L250.4951 64.4305
" />
<path d="M250.4951 64.4305
L250.5522 64.4876
" />
<path d="M250.5522 64.4876
L250.6665 64.5447
" />
<path d="M250.6665 64.5447
L250.8951 64.5447
" />
<path d="M250.8951 64.5447
L251.0093 64.4876
" />
</g></g>
<g style="fill:none; 
stroke:#000000; stroke-width:0.1500; stroke-opacity:1; 
stroke-linecap:round; stroke-linejoin:round;">
<g transform="rotate(90.000000 254.5022 65.0000)">
<text x="254.5022" y="65.5000"
textLength="13.9643" font-size="1.3333" lengthAdjust="spacingAndGlyphs"
text-anchor="middle" opacity="0" stroke-opacity="0">KIKIT: width: 5mm</text>
</g>
<g class="stroked-text"><desc>KIKIT: width: 5mm</desc>
<path d="M254.0474 58.3810
L255.0474 58.3810
" />
<path d="M254.0474 58.9524
L254.6188 58.5238
" />
<path d="M255.0474 58.9524
L254.4760 58.3810
" />
<path d="M254.0474 59.3810
L255.0474 59.3810
" />
<path d="M254.0474 59.8571
L255.0474 59.8571
" />
<path d="M254.0474 60.4286
L254.6188 60.0000
" />
<path d="M255.0474 60.4286
L254.4760 59.8571
" />
<path d="M254.0474 60.8571
L255.0474 60.8571
" />
<path d="M255.0474 61.1905
L255.0474 61.7619
" />
<path d="M254.0474 61.4762
L255.0474 61.4762
" />
<path d="M254.1426 62.0952
L254.0950 62.1429
" />
<path d="M254.0950 62.1429
L254.0474 62.0952
" />
<path d="M254.0474 62.0952
L254.0950 62.0476
" />
<path d="M254.0950 62.0476
L254.1426 62.0952
" />
<path d="M254.1426 62.0952
L254.0474 62.0952
" />
<path d="M254.6664 62.0952
L254.6188 62.1429
" />
<path d="M254.6188 62.1429
L254.5712 62.0952
" />
<path d="M254.5712 62.0952
L254.6188 62.0476
" />
<path d="M254.6188 62.0476
L254.6664 62.0952
" />
<path d="M254.6664 62.0952
L254.5712 62.0952
" />
<path d="M254.7140 63.2381
L254.0474 63.4286
" />
<path d="M254.0474 63.4286
L254.5236 63.6190
" />
<path d="M254.5236 63.6190
L254.0474 63.8095
" />
<path d="M254.0474 63.8095
L254.7140 64.0000
" />
<path d="M254.0474 64.3810
L254.7140 64.3810
" />
<path d="M255.0474 64.3810
L254.9998 64.3333
" />
<path d="M254.9998 64.3333
L254.9521 64.3810
" />
<path d="M254.9521 64.3810
L254.9998 64.4286
" />
<path d="M254.9998 64.4286
L255.0474 64.3810
" />
<path d="M255.0474 64.3810
L254.9521 64.3810
" />
<path d="M254.0474 65.2857
L255.0474 65.2857
" />
<path d="M254.0950 65.2857
L254.0474 65.1905
" />
<path d="M254.0474 65.1905
L254.0474 65.0000
" />
<path d="M254.0474 65.0000
L254.0950 64.9048
" />
<path d="M254.0950 64.9048
L254.1426 64.8571
" />
<path d="M254.1426 64.8571
L254.2379 64.8095
" />
<path d="M254.2379 64.8095
L254.5236 64.8095
" />
<path d="M254.5236 64.8095
L254.6188 64.8571
" />
<path d="M254.6188 64.8571
L254.6664 64.9048
" />
<path d="M254.6664 64.9048
L254.7140 65.0000
" />
<path d="M254.7140 65.0000
L254.7140 65.1905
" />
<path d="M254.7140 65.1905
L254.6664 65.2857
" />
<path d="M254.7140 65.6190
L254.7140 66.0000
" />
<path d="M255.0474 65.7619
L254.1902 65.7619
" />
<path d="M254.1902 65.7619
L254.0950 65.8095
" />
<path d="M254.0950 65.8095
L254.0474 65.9048
" />
<path d="M254.0474 65.9048
L254.0474 66.0000
" />
<path d="M254.0474 66.3333
L255.0474 66.3333
" />
<path d="M254.0474 66.7619
L254.5712 66.7619
" />
<path d="M254.5712 66.7619
L254.6664 66.7143
" />
<path d="M254.6664 66.7143
L254.7140 66.6190
" />
<path d="M254.7140 66.6190
L254.7140 66.4762
" />
<path d="M254.7140 66.4762
L254.6664 66.3810
" />
<path d="M254.6664 66.3810
L254.6188 66.3333
" />
<path d="M254.1426 67.2381
L254.0950 67.2857
" />
<path d="M254.0950 67.2857
L254.0474 67.2381
" />
<path d="M254.0474 67.2381
L254.0950 67.1905
" />
<path d="M254.0950 67.1905
L254.1426 67.2381
" />
<path d="M254.1426 67.2381
L254.0474 67.2381
" />
<path d="M254.6664 67.2381
L254.6188 67.2857
" />
<path d="M254.6188 67.2857
L254.5712 67.2381
" />
<path d="M254.5712 67.2381
L254.6188 67.1905
" />
<path d="M254.6188 67.1905
L254.6664 67.2381
" />
<path d="M254.6664 67.2381
L254.5712 67.2381
" />
<path d="M255.0474 68.9524
L255.0474 68.4762
" />
<path d="M255.0474 68.4762
L254.5712 68.4286
" />
<path d="M254.5712 68.4286
L254.6188 68.4762
" />
<path d="M254.6188 68.4762
L254.6664 68.5714
" />
<path d="M254.6664 68.5714
L254.6664 68.8095
" />
<path d="M254.6664 68.8095
L254.6188 68.9048
" />
<path d="M254.6188 68.9048
L254.5712 68.9524
" />
<path d="M254.5712 68.9524
L254.4760 69.0000
" />
<path d="M254.4760 69.0000
L254.2379 69.0000
" />
<path d="M254.2379 69.0000
L254.1426 68.9524
" />
<path d="M254.1426 68.9524
L254.0950 68.9048
" />
<path d="M254.0950 68.9048
L254.0474 68.8095
" />
<path d="M254.0474 68.8095
L254.0474 68.5714
" />
<path d="M254.0474 68.5714
L254.0950 68.4762
" />
<path d="M254.0950 68.4762
L254.1426 68.4286
" />
<path d="M254.0474 69.4286
L254.7140 69.4286
" />
<path d="M254.6188 69.4286
L254.6664 69.4762
" />
<path d="M254.6664 69.4762
L254.7140 69.5714
" />
<path d="M254.7140 69.5714
L254.7140 69.7143
" />
<path d="M254.7140 69.7143
L254.6664 69.8095
" />
<path d="M254.6664 69.8095
L254.5712 69.8571
" />
<path d="M254.5712 69.8571
L254.0474 69.8571
" />
<path d="M254.5712 69.8571
L254.6664 69.9048
" />
<path d="M254.6664 69.9048
L254.7140 70.0000
" />
<path d="M254.7140 70.0000
L254.7140 70.1429
" />
<path d="M254.7140 70.1429
L254.6664 70.2381
" />
<path d="M254.6664 70.2381
L254.5712 70.2857
" />
<path d="M254.5712 70.2857
L254.0474 70.2857
" />
<path d="M254.0474 70.7619
L254.7140 70.7619
" />
<path d="M254.6188 70.7619
L254.6664 70.8095
" />
<path d="M254.6664 70.8095
L254.7140 70.9048
" />
<path d="M254.7140 70.9048
L254.7140 71.0476
" />
<path d="M254.7140 71.0476
L254.6664 71.1429
" />
<path d="M254.6664 71.1429
L254.5712 71.1905
" />
<path d="M254.5712 71.1905
L254.0474 71.1905
" />
<path d="M254.5712 71.1905
L254.6664 71.2381
" />
<path d="M254.6664 71.2381
L254.7140 71.3333
" />
<path d="M254.7140 71.3333
L254.7140 71.4762
" />
<path d="M254.7140 71.4762
L254.6664 71.5714
" />
<path d="M254.6664 71.5714
L254.5712 71.6190
" />
<path d="M254.5712 71.6190
L254.0474 71.6190
" />
</g></g>
<g style="fill:none; 
stroke:#000000; stroke-width:0.3000; stroke-opacity:1; 
stroke-linecap:round; stroke-linejoin:round;">
<path d="M183.2522 64.0000
L183.2522 66.0000
" />
<path d="M183.2522 65.0000
L182.2522 64.0000
" />
<path d="M183.2522 65.0000
L182.2522 66.0000
" />
<path d="M183.2522 65.0000
L180.2522 65.0000
" />
<path d="M197.0022 108.7500
L198.0022 109.7500
" />
<path d="M197.0022 108.7500
L197.0022 111.7500
" />
<path d="M197.0022 108.7500
L196.0022 109.7500
" />
<path d="M196.0022 108.7500
L198.0022 108.7500
" />
<path d="M198.0022 52.2500
L196.0022 52.2500
" />
<path d="M197.0022 52.2500
L198.0022 51.2500
" />
<path d="M197.0022 52.2500
L197.0022 49.2500
" />
<path d="M197.0022 52.2500
L196.0022 51.2500
" />
<path d="M248.7522 65.0000
L251.7522 65.0000
" />
<path d="M248.7522 65.0000
L249.7522 64.0000
" />
<path d="M248.7522 65.0000
L249.7522 66.0000
" />
<path d="M248.7522 66.0000
L248.7522 64.0000
" />
</g> 
</svg>
