<?xml version="1.0" standalone="no"?>
 <!DOCTYPE svg PUBLIC "-//W3C//DTD SVG 1.1//EN" 
 "http://www.w3.org/Graphics/SVG/1.1/DTD/svg11.dtd"> 
<svg
  xmlns:svg="http://www.w3.org/2000/svg"
  xmlns="http://www.w3.org/2000/svg"
  xmlns:xlink="http://www.w3.org/1999/xlink"
  version="1.1"
  width="297.0022mm" height="210.0072mm" viewBox="0.0000 0.0000 297.0022 210.0072">
<title>SVG Image created as pedalboard-soundcard-User_Drawings.svg date 2023/12/27 17:49:23 </title>
  <desc>Image generated by PCBNEW </desc>
<g style="fill:#000000; fill-opacity:1.0000;stroke:#000000; stroke-opacity:1.0000;
stroke-linecap:round; stroke-linejoin:round;"
 transform="translate(0 0) scale(1 1)">
</g>
<g style="fill:#000000; fill-opacity:0.0; 
stroke:#000000; stroke-width:0.0000; stroke-opacity:1; 
stroke-linecap:round; stroke-linejoin:round;">
</g>
<g style="fill:#000000; fill-opacity:0.0; 
stroke:#000000; stroke-width:0.1500; stroke-opacity:1; 
stroke-linecap:round; stroke-linejoin:round;">
<g transform="rotate(-90.000000 42.8500 98.7500)">
<text x="42.8500" y="99.5000"
textLength="10.2929" font-size="2.0000" lengthAdjust="spacingAndGlyphs"
text-anchor="middle" opacity="0">19.5 mm</text>
</g>
<g class="stroked-text"><desc>19.5 mm</desc>
<path d="M43.5361 102.6786
L43.5361 103.5357
" />
<path d="M43.5361 103.1071
L42.0361 103.1071
" />
<path d="M42.0361 103.1071
L42.2504 103.2500
" />
<path d="M42.2504 103.2500
L42.3933 103.3929
" />
<path d="M42.3933 103.3929
L42.4647 103.5357
" />
<path d="M43.5361 101.9643
L43.5361 101.6786
" />
<path d="M43.5361 101.6786
L43.4647 101.5357
" />
<path d="M43.4647 101.5357
L43.3933 101.4643
" />
<path d="M43.3933 101.4643
L43.1790 101.3214
" />
<path d="M43.1790 101.3214
L42.8933 101.2500
" />
<path d="M42.8933 101.2500
L42.3218 101.2500
" />
<path d="M42.3218 101.2500
L42.1790 101.3214
" />
<path d="M42.1790 101.3214
L42.1076 101.3929
" />
<path d="M42.1076 101.3929
L42.0361 101.5357
" />
<path d="M42.0361 101.5357
L42.0361 101.8214
" />
<path d="M42.0361 101.8214
L42.1076 101.9643
" />
<path d="M42.1076 101.9643
L42.1790 102.0357
" />
<path d="M42.1790 102.0357
L42.3218 102.1071
" />
<path d="M42.3218 102.1071
L42.6790 102.1071
" />
<path d="M42.6790 102.1071
L42.8218 102.0357
" />
<path d="M42.8218 102.0357
L42.8933 101.9643
" />
<path d="M42.8933 101.9643
L42.9647 101.8214
" />
<path d="M42.9647 101.8214
L42.9647 101.5357
" />
<path d="M42.9647 101.5357
L42.8933 101.3929
" />
<path d="M42.8933 101.3929
L42.8218 101.3214
" />
<path d="M42.8218 101.3214
L42.6790 101.2500
" />
<path d="M43.3933 100.6071
L43.4647 100.5357
" />
<path d="M43.4647 100.5357
L43.5361 100.6071
" />
<path d="M43.5361 100.6071
L43.4647 100.6786
" />
<path d="M43.4647 100.6786
L43.3933 100.6071
" />
<path d="M43.3933 100.6071
L43.5361 100.6071
" />
<path d="M42.0361 99.1786
L42.0361 99.8929
" />
<path d="M42.0361 99.8929
L42.7504 99.9643
" />
<path d="M42.7504 99.9643
L42.6790 99.8929
" />
<path d="M42.6790 99.8929
L42.6076 99.7500
" />
<path d="M42.6076 99.7500
L42.6076 99.3929
" />
<path d="M42.6076 99.3929
L42.6790 99.2500
" />
<path d="M42.6790 99.2500
L42.7504 99.1786
" />
<path d="M42.7504 99.1786
L42.8933 99.1071
" />
<path d="M42.8933 99.1071
L43.2504 99.1071
" />
<path d="M43.2504 99.1071
L43.3933 99.1786
" />
<path d="M43.3933 99.1786
L43.4647 99.2500
" />
<path d="M43.4647 99.2500
L43.5361 99.3929
" />
<path d="M43.5361 99.3929
L43.5361 99.7500
" />
<path d="M43.5361 99.7500
L43.4647 99.8929
" />
<path d="M43.4647 99.8929
L43.3933 99.9643
" />
<path d="M43.5361 97.3214
L42.5361 97.3214
" />
<path d="M42.6790 97.3214
L42.6076 97.2500
" />
<path d="M42.6076 97.2500
L42.5361 97.1071
" />
<path d="M42.5361 97.1071
L42.5361 96.8929
" />
<path d="M42.5361 96.8929
L42.6076 96.7500
" />
<path d="M42.6076 96.7500
L42.7504 96.6786
" />
<path d="M42.7504 96.6786
L43.5361 96.6786
" />
<path d="M42.7504 96.6786
L42.6076 96.6071
" />
<path d="M42.6076 96.6071
L42.5361 96.4643
" />
<path d="M42.5361 96.4643
L42.5361 96.2500
" />
<path d="M42.5361 96.2500
L42.6076 96.1071
" />
<path d="M42.6076 96.1071
L42.7504 96.0357
" />
<path d="M42.7504 96.0357
L43.5361 96.0357
" />
<path d="M43.5361 95.3214
L42.5361 95.3214
" />
<path d="M42.6790 95.3214
L42.6076 95.2500
" />
<path d="M42.6076 95.2500
L42.5361 95.1071
" />
<path d="M42.5361 95.1071
L42.5361 94.8929
" />
<path d="M42.5361 94.8929
L42.6076 94.7500
" />
<path d="M42.6076 94.7500
L42.7504 94.6786
" />
<path d="M42.7504 94.6786
L43.5361 94.6786
" />
<path d="M42.7504 94.6786
L42.6076 94.6071
" />
<path d="M42.6076 94.6071
L42.5361 94.4643
" />
<path d="M42.5361 94.4643
L42.5361 94.2500
" />
<path d="M42.5361 94.2500
L42.6076 94.1071
" />
<path d="M42.6076 94.1071
L42.7504 94.0357
" />
<path d="M42.7504 94.0357
L43.5361 94.0357
" />
</g><path d="M47.5000 108.5000
L43.9136 108.5000
" />
<path d="M47.5000 89.0000
L43.9136 89.0000
" />
<path d="M44.5000 108.5000
L44.5000 89.0000
" />
<path d="M44.5000 108.5000
L44.5000 89.0000
" />
<path d="M44.5000 108.5000
L43.9136 107.3735
" />
<path d="M44.5000 108.5000
L45.0864 107.3735
" />
<path d="M44.5000 89.0000
L45.0864 90.1265
" />
<path d="M44.5000 89.0000
L43.9136 90.1265
" />
<g transform="rotate(-90.000000 56.8500 106.7500)">
<text x="56.8500" y="107.5000"
textLength="8.8643" font-size="2.0000" lengthAdjust="spacingAndGlyphs"
text-anchor="middle" opacity="0">3.5 mm</text>
</g>
<g class="stroked-text"><desc>3.5 mm</desc>
<path d="M56.0361 110.8929
L56.0361 109.9643
" />
<path d="M56.0361 109.9643
L56.6076 110.4643
" />
<path d="M56.6076 110.4643
L56.6076 110.2500
" />
<path d="M56.6076 110.2500
L56.6790 110.1071
" />
<path d="M56.6790 110.1071
L56.7504 110.0357
" />
<path d="M56.7504 110.0357
L56.8933 109.9643
" />
<path d="M56.8933 109.9643
L57.2504 109.9643
" />
<path d="M57.2504 109.9643
L57.3933 110.0357
" />
<path d="M57.3933 110.0357
L57.4647 110.1071
" />
<path d="M57.4647 110.1071
L57.5361 110.2500
" />
<path d="M57.5361 110.2500
L57.5361 110.6786
" />
<path d="M57.5361 110.6786
L57.4647 110.8214
" />
<path d="M57.4647 110.8214
L57.3933 110.8929
" />
<path d="M57.3933 109.3214
L57.4647 109.2500
" />
<path d="M57.4647 109.2500
L57.5361 109.3214
" />
<path d="M57.5361 109.3214
L57.4647 109.3929
" />
<path d="M57.4647 109.3929
L57.3933 109.3214
" />
<path d="M57.3933 109.3214
L57.5361 109.3214
" />
<path d="M56.0361 107.8929
L56.0361 108.6071
" />
<path d="M56.0361 108.6071
L56.7504 108.6786
" />
<path d="M56.7504 108.6786
L56.6790 108.6071
" />
<path d="M56.6790 108.6071
L56.6076 108.4643
" />
<path d="M56.6076 108.4643
L56.6076 108.1071
" />
<path d="M56.6076 108.1071
L56.6790 107.9643
" />
<path d="M56.6790 107.9643
L56.7504 107.8929
" />
<path d="M56.7504 107.8929
L56.8933 107.8214
" />
<path d="M56.8933 107.8214
L57.2504 107.8214
" />
<path d="M57.2504 107.8214
L57.3933 107.8929
" />
<path d="M57.3933 107.8929
L57.4647 107.9643
" />
<path d="M57.4647 107.9643
L57.5361 108.1071
" />
<path d="M57.5361 108.1071
L57.5361 108.4643
" />
<path d="M57.5361 108.4643
L57.4647 108.6071
" />
<path d="M57.4647 108.6071
L57.3933 108.6786
" />
<path d="M57.5361 106.0357
L56.5361 106.0357
" />
<path d="M56.6790 106.0357
L56.6076 105.9643
" />
<path d="M56.6076 105.9643
L56.5361 105.8214
" />
<path d="M56.5361 105.8214
L56.5361 105.6071
" />
<path d="M56.5361 105.6071
L56.6076 105.4643
" />
<path d="M56.6076 105.4643
L56.7504 105.3929
" />
<path d="M56.7504 105.3929
L57.5361 105.3929
" />
<path d="M56.7504 105.3929
L56.6076 105.3214
" />
<path d="M56.6076 105.3214
L56.5361 105.1786
" />
<path d="M56.5361 105.1786
L56.5361 104.9643
" />
<path d="M56.5361 104.9643
L56.6076 104.8214
" />
<path d="M56.6076 104.8214
L56.7504 104.7500
" />
<path d="M56.7504 104.7500
L57.5361 104.7500
" />
<path d="M57.5361 104.0357
L56.5361 104.0357
" />
<path d="M56.6790 104.0357
L56.6076 103.9643
" />
<path d="M56.6076 103.9643
L56.5361 103.8214
" />
<path d="M56.5361 103.8214
L56.5361 103.6071
" />
<path d="M56.5361 103.6071
L56.6076 103.4643
" />
<path d="M56.6076 103.4643
L56.7504 103.3929
" />
<path d="M56.7504 103.3929
L57.5361 103.3929
" />
<path d="M56.7504 103.3929
L56.6076 103.3214
" />
<path d="M56.6076 103.3214
L56.5361 103.1786
" />
<path d="M56.5361 103.1786
L56.5361 102.9643
" />
<path d="M56.5361 102.9643
L56.6076 102.8214
" />
<path d="M56.6076 102.8214
L56.7504 102.7500
" />
<path d="M56.7504 102.7500
L57.5361 102.7500
" />
</g><path d="M55.5000 108.5000
L59.0864 108.5000
" />
<path d="M55.5000 105.0000
L59.0864 105.0000
" />
<path d="M58.5000 108.5000
L58.5000 105.0000
" />
<path d="M58.5000 108.5000
L58.5000 105.0000
" />
<path d="M58.5000 108.5000
L57.9136 107.3735
" />
<path d="M58.5000 108.5000
L59.0864 107.3735
" />
<path d="M58.5000 105.0000
L59.0864 106.1265
" />
<path d="M58.5000 105.0000
L57.9136 106.1265
" />
<text x="51.0000" y="69.1000"
textLength="6.7214" font-size="2.0000" lengthAdjust="spacingAndGlyphs"
text-anchor="middle" opacity="0">5 mm</text>
<g class="stroked-text"><desc>5 mm</desc>
<path d="M48.7857 67.5361
L48.0714 67.5361
" />
<path d="M48.0714 67.5361
L48.0000 68.2504
" />
<path d="M48.0000 68.2504
L48.0714 68.1790
" />
<path d="M48.0714 68.1790
L48.2143 68.1076
" />
<path d="M48.2143 68.1076
L48.5714 68.1076
" />
<path d="M48.5714 68.1076
L48.7143 68.1790
" />
<path d="M48.7143 68.1790
L48.7857 68.2504
" />
<path d="M48.7857 68.2504
L48.8571 68.3933
" />
<path d="M48.8571 68.3933
L48.8571 68.7504
" />
<path d="M48.8571 68.7504
L48.7857 68.8933
" />
<path d="M48.7857 68.8933
L48.7143 68.9647
" />
<path d="M48.7143 68.9647
L48.5714 69.0361
" />
<path d="M48.5714 69.0361
L48.2143 69.0361
" />
<path d="M48.2143 69.0361
L48.0714 68.9647
" />
<path d="M48.0714 68.9647
L48.0000 68.8933
" />
<path d="M50.6429 69.0361
L50.6429 68.0361
" />
<path d="M50.6429 68.1790
L50.7143 68.1076
" />
<path d="M50.7143 68.1076
L50.8571 68.0361
" />
<path d="M50.8571 68.0361
L51.0714 68.0361
" />
<path d="M51.0714 68.0361
L51.2143 68.1076
" />
<path d="M51.2143 68.1076
L51.2857 68.2504
" />
<path d="M51.2857 68.2504
L51.2857 69.0361
" />
<path d="M51.2857 68.2504
L51.3571 68.1076
" />
<path d="M51.3571 68.1076
L51.5000 68.0361
" />
<path d="M51.5000 68.0361
L51.7143 68.0361
" />
<path d="M51.7143 68.0361
L51.8571 68.1076
" />
<path d="M51.8571 68.1076
L51.9286 68.2504
" />
<path d="M51.9286 68.2504
L51.9286 69.0361
" />
<path d="M52.6429 69.0361
L52.6429 68.0361
" />
<path d="M52.6429 68.1790
L52.7143 68.1076
" />
<path d="M52.7143 68.1076
L52.8571 68.0361
" />
<path d="M52.8571 68.0361
L53.0714 68.0361
" />
<path d="M53.0714 68.0361
L53.2143 68.1076
" />
<path d="M53.2143 68.1076
L53.2857 68.2504
" />
<path d="M53.2857 68.2504
L53.2857 69.0361
" />
<path d="M53.2857 68.2504
L53.3571 68.1076
" />
<path d="M53.3571 68.1076
L53.5000 68.0361
" />
<path d="M53.5000 68.0361
L53.7143 68.0361
" />
<path d="M53.7143 68.0361
L53.8571 68.1076
" />
<path d="M53.8571 68.1076
L53.9286 68.2504
" />
<path d="M53.9286 68.2504
L53.9286 69.0361
" />
</g><path d="M53.5000 72.0000
L53.5000 69.4136
" />
<path d="M48.5000 72.0000
L48.5000 69.4136
" />
<path d="M53.5000 70.0000
L48.5000 70.0000
" />
<path d="M53.5000 70.0000
L48.5000 70.0000
" />
<path d="M53.5000 70.0000
L52.3735 70.5864
" />
<path d="M53.5000 70.0000
L52.3735 69.4136
" />
<path d="M48.5000 70.0000
L49.6265 69.4136
" />
<path d="M48.5000 70.0000
L49.6265 70.5864
" />
<text x="81.0000" y="43.1000"
textLength="8.1500" font-size="2.0000" lengthAdjust="spacingAndGlyphs"
text-anchor="middle" opacity="0">65 mm</text>
<g class="stroked-text"><desc>65 mm</desc>
<path d="M78.0000 41.5361
L77.7143 41.5361
" />
<path d="M77.7143 41.5361
L77.5714 41.6076
" />
<path d="M77.5714 41.6076
L77.5000 41.6790
" />
<path d="M77.5000 41.6790
L77.3571 41.8933
" />
<path d="M77.3571 41.8933
L77.2857 42.1790
" />
<path d="M77.2857 42.1790
L77.2857 42.7504
" />
<path d="M77.2857 42.7504
L77.3571 42.8933
" />
<path d="M77.3571 42.8933
L77.4286 42.9647
" />
<path d="M77.4286 42.9647
L77.5714 43.0361
" />
<path d="M77.5714 43.0361
L77.8571 43.0361
" />
<path d="M77.8571 43.0361
L78.0000 42.9647
" />
<path d="M78.0000 42.9647
L78.0714 42.8933
" />
<path d="M78.0714 42.8933
L78.1429 42.7504
" />
<path d="M78.1429 42.7504
L78.1429 42.3933
" />
<path d="M78.1429 42.3933
L78.0714 42.2504
" />
<path d="M78.0714 42.2504
L78.0000 42.1790
" />
<path d="M78.0000 42.1790
L77.8571 42.1076
" />
<path d="M77.8571 42.1076
L77.5714 42.1076
" />
<path d="M77.5714 42.1076
L77.4286 42.1790
" />
<path d="M77.4286 42.1790
L77.3571 42.2504
" />
<path d="M77.3571 42.2504
L77.2857 42.3933
" />
<path d="M79.5000 41.5361
L78.7857 41.5361
" />
<path d="M78.7857 41.5361
L78.7143 42.2504
" />
<path d="M78.7143 42.2504
L78.7857 42.1790
" />
<path d="M78.7857 42.1790
L78.9286 42.1076
" />
<path d="M78.9286 42.1076
L79.2857 42.1076
" />
<path d="M79.2857 42.1076
L79.4286 42.1790
" />
<path d="M79.4286 42.1790
L79.5000 42.2504
" />
<path d="M79.5000 42.2504
L79.5714 42.3933
" />
<path d="M79.5714 42.3933
L79.5714 42.7504
" />
<path d="M79.5714 42.7504
L79.5000 42.8933
" />
<path d="M79.5000 42.8933
L79.4286 42.9647
" />
<path d="M79.4286 42.9647
L79.2857 43.0361
" />
<path d="M79.2857 43.0361
L78.9286 43.0361
" />
<path d="M78.9286 43.0361
L78.7857 42.9647
" />
<path d="M78.7857 42.9647
L78.7143 42.8933
" />
<path d="M81.3571 43.0361
L81.3571 42.0361
" />
<path d="M81.3571 42.1790
L81.4286 42.1076
" />
<path d="M81.4286 42.1076
L81.5714 42.0361
" />
<path d="M81.5714 42.0361
L81.7857 42.0361
" />
<path d="M81.7857 42.0361
L81.9286 42.1076
" />
<path d="M81.9286 42.1076
L82.0000 42.2504
" />
<path d="M82.0000 42.2504
L82.0000 43.0361
" />
<path d="M82.0000 42.2504
L82.0714 42.1076
" />
<path d="M82.0714 42.1076
L82.2143 42.0361
" />
<path d="M82.2143 42.0361
L82.4286 42.0361
" />
<path d="M82.4286 42.0361
L82.5714 42.1076
" />
<path d="M82.5714 42.1076
L82.6429 42.2504
" />
<path d="M82.6429 42.2504
L82.6429 43.0361
" />
<path d="M83.3571 43.0361
L83.3571 42.0361
" />
<path d="M83.3571 42.1790
L83.4286 42.1076
" />
<path d="M83.4286 42.1076
L83.5714 42.0361
" />
<path d="M83.5714 42.0361
L83.7857 42.0361
" />
<path d="M83.7857 42.0361
L83.9286 42.1076
" />
<path d="M83.9286 42.1076
L84.0000 42.2504
" />
<path d="M84.0000 42.2504
L84.0000 43.0361
" />
<path d="M84.0000 42.2504
L84.0714 42.1076
" />
<path d="M84.0714 42.1076
L84.2143 42.0361
" />
<path d="M84.2143 42.0361
L84.4286 42.0361
" />
<path d="M84.4286 42.0361
L84.5714 42.1076
" />
<path d="M84.5714 42.1076
L84.6429 42.2504
" />
<path d="M84.6429 42.2504
L84.6429 43.0361
" />
</g><path d="M113.5000 51.0000
L113.5000 43.4136
" />
<path d="M48.5000 51.0000
L48.5000 43.4136
" />
<path d="M113.5000 44.0000
L48.5000 44.0000
" />
<path d="M113.5000 44.0000
L48.5000 44.0000
" />
<path d="M113.5000 44.0000
L112.3735 44.5864
" />
<path d="M113.5000 44.0000
L112.3735 43.4136
" />
<path d="M48.5000 44.0000
L49.6265 43.4136
" />
<path d="M48.5000 44.0000
L49.6265 44.5864
" />
<text x="66.5000" y="61.6000"
textLength="14.5786" font-size="2.0000" lengthAdjust="spacingAndGlyphs"
text-anchor="middle" opacity="0">29.0000 mm</text>
<g class="stroked-text"><desc>29.0000 mm</desc>
<path d="M59.5714 60.1790
L59.6429 60.1076
" />
<path d="M59.6429 60.1076
L59.7857 60.0361
" />
<path d="M59.7857 60.0361
L60.1429 60.0361
" />
<path d="M60.1429 60.0361
L60.2857 60.1076
" />
<path d="M60.2857 60.1076
L60.3571 60.1790
" />
<path d="M60.3571 60.1790
L60.4286 60.3218
" />
<path d="M60.4286 60.3218
L60.4286 60.4647
" />
<path d="M60.4286 60.4647
L60.3571 60.6790
" />
<path d="M60.3571 60.6790
L59.5000 61.5361
" />
<path d="M59.5000 61.5361
L60.4286 61.5361
" />
<path d="M61.1429 61.5361
L61.4286 61.5361
" />
<path d="M61.4286 61.5361
L61.5714 61.4647
" />
<path d="M61.5714 61.4647
L61.6429 61.3933
" />
<path d="M61.6429 61.3933
L61.7857 61.1790
" />
<path d="M61.7857 61.1790
L61.8571 60.8933
" />
<path d="M61.8571 60.8933
L61.8571 60.3218
" />
<path d="M61.8571 60.3218
L61.7857 60.1790
" />
<path d="M61.7857 60.1790
L61.7143 60.1076
" />
<path d="M61.7143 60.1076
L61.5714 60.0361
" />
<path d="M61.5714 60.0361
L61.2857 60.0361
" />
<path d="M61.2857 60.0361
L61.1429 60.1076
" />
<path d="M61.1429 60.1076
L61.0714 60.1790
" />
<path d="M61.0714 60.1790
L61.0000 60.3218
" />
<path d="M61.0000 60.3218
L61.0000 60.6790
" />
<path d="M61.0000 60.6790
L61.0714 60.8218
" />
<path d="M61.0714 60.8218
L61.1429 60.8933
" />
<path d="M61.1429 60.8933
L61.2857 60.9647
" />
<path d="M61.2857 60.9647
L61.5714 60.9647
" />
<path d="M61.5714 60.9647
L61.7143 60.8933
" />
<path d="M61.7143 60.8933
L61.7857 60.8218
" />
<path d="M61.7857 60.8218
L61.8571 60.6790
" />
<path d="M62.5000 61.3933
L62.5714 61.4647
" />
<path d="M62.5714 61.4647
L62.5000 61.5361
" />
<path d="M62.5000 61.5361
L62.4286 61.4647
" />
<path d="M62.4286 61.4647
L62.5000 61.3933
" />
<path d="M62.5000 61.3933
L62.5000 61.5361
" />
<path d="M63.5000 60.0361
L63.6429 60.0361
" />
<path d="M63.6429 60.0361
L63.7857 60.1076
" />
<path d="M63.7857 60.1076
L63.8571 60.1790
" />
<path d="M63.8571 60.1790
L63.9286 60.3218
" />
<path d="M63.9286 60.3218
L64.0000 60.6076
" />
<path d="M64.0000 60.6076
L64.0000 60.9647
" />
<path d="M64.0000 60.9647
L63.9286 61.2504
" />
<path d="M63.9286 61.2504
L63.8571 61.3933
" />
<path d="M63.8571 61.3933
L63.7857 61.4647
" />
<path d="M63.7857 61.4647
L63.6429 61.5361
" />
<path d="M63.6429 61.5361
L63.5000 61.5361
" />
<path d="M63.5000 61.5361
L63.3571 61.4647
" />
<path d="M63.3571 61.4647
L63.2857 61.3933
" />
<path d="M63.2857 61.3933
L63.2143 61.2504
" />
<path d="M63.2143 61.2504
L63.1429 60.9647
" />
<path d="M63.1429 60.9647
L63.1429 60.6076
" />
<path d="M63.1429 60.6076
L63.2143 60.3218
" />
<path d="M63.2143 60.3218
L63.2857 60.1790
" />
<path d="M63.2857 60.1790
L63.3571 60.1076
" />
<path d="M63.3571 60.1076
L63.5000 60.0361
" />
<path d="M64.9286 60.0361
L65.0714 60.0361
" />
<path d="M65.0714 60.0361
L65.2143 60.1076
" />
<path d="M65.2143 60.1076
L65.2857 60.1790
" />
<path d="M65.2857 60.1790
L65.3571 60.3218
" />
<path d="M65.3571 60.3218
L65.4286 60.6076
" />
<path d="M65.4286 60.6076
L65.4286 60.9647
" />
<path d="M65.4286 60.9647
L65.3571 61.2504
" />
<path d="M65.3571 61.2504
L65.2857 61.3933
" />
<path d="M65.2857 61.3933
L65.2143 61.4647
" />
<path d="M65.2143 61.4647
L65.0714 61.5361
" />
<path d="M65.0714 61.5361
L64.9286 61.5361
" />
<path d="M64.9286 61.5361
L64.7857 61.4647
" />
<path d="M64.7857 61.4647
L64.7143 61.3933
" />
<path d="M64.7143 61.3933
L64.6429 61.2504
" />
<path d="M64.6429 61.2504
L64.5714 60.9647
" />
<path d="M64.5714 60.9647
L64.5714 60.6076
" />
<path d="M64.5714 60.6076
L64.6429 60.3218
" />
<path d="M64.6429 60.3218
L64.7143 60.1790
" />
<path d="M64.7143 60.1790
L64.7857 60.1076
" />
<path d="M64.7857 60.1076
L64.9286 60.0361
" />
<path d="M66.3571 60.0361
L66.5000 60.0361
" />
<path d="M66.5000 60.0361
L66.6429 60.1076
" />
<path d="M66.6429 60.1076
L66.7143 60.1790
" />
<path d="M66.7143 60.1790
L66.7857 60.3218
" />
<path d="M66.7857 60.3218
L66.8571 60.6076
" />
<path d="M66.8571 60.6076
L66.8571 60.9647
" />
<path d="M66.8571 60.9647
L66.7857 61.2504
" />
<path d="M66.7857 61.2504
L66.7143 61.3933
" />
<path d="M66.7143 61.3933
L66.6429 61.4647
" />
<path d="M66.6429 61.4647
L66.5000 61.5361
" />
<path d="M66.5000 61.5361
L66.3571 61.5361
" />
<path d="M66.3571 61.5361
L66.2143 61.4647
" />
<path d="M66.2143 61.4647
L66.1429 61.3933
" />
<path d="M66.1429 61.3933
L66.0714 61.2504
" />
<path d="M66.0714 61.2504
L66.0000 60.9647
" />
<path d="M66.0000 60.9647
L66.0000 60.6076
" />
<path d="M66.0000 60.6076
L66.0714 60.3218
" />
<path d="M66.0714 60.3218
L66.1429 60.1790
" />
<path d="M66.1429 60.1790
L66.2143 60.1076
" />
<path d="M66.2143 60.1076
L66.3571 60.0361
" />
<path d="M67.7857 60.0361
L67.9286 60.0361
" />
<path d="M67.9286 60.0361
L68.0714 60.1076
" />
<path d="M68.0714 60.1076
L68.1429 60.1790
" />
<path d="M68.1429 60.1790
L68.2143 60.3218
" />
<path d="M68.2143 60.3218
L68.2857 60.6076
" />
<path d="M68.2857 60.6076
L68.2857 60.9647
" />
<path d="M68.2857 60.9647
L68.2143 61.2504
" />
<path d="M68.2143 61.2504
L68.1429 61.3933
" />
<path d="M68.1429 61.3933
L68.0714 61.4647
" />
<path d="M68.0714 61.4647
L67.9286 61.5361
" />
<path d="M67.9286 61.5361
L67.7857 61.5361
" />
<path d="M67.7857 61.5361
L67.6429 61.4647
" />
<path d="M67.6429 61.4647
L67.5714 61.3933
" />
<path d="M67.5714 61.3933
L67.5000 61.2504
" />
<path d="M67.5000 61.2504
L67.4286 60.9647
" />
<path d="M67.4286 60.9647
L67.4286 60.6076
" />
<path d="M67.4286 60.6076
L67.5000 60.3218
" />
<path d="M67.5000 60.3218
L67.5714 60.1790
" />
<path d="M67.5714 60.1790
L67.6429 60.1076
" />
<path d="M67.6429 60.1076
L67.7857 60.0361
" />
<path d="M70.0714 61.5361
L70.0714 60.5361
" />
<path d="M70.0714 60.6790
L70.1429 60.6076
" />
<path d="M70.1429 60.6076
L70.2857 60.5361
" />
<path d="M70.2857 60.5361
L70.5000 60.5361
" />
<path d="M70.5000 60.5361
L70.6429 60.6076
" />
<path d="M70.6429 60.6076
L70.7143 60.7504
" />
<path d="M70.7143 60.7504
L70.7143 61.5361
" />
<path d="M70.7143 60.7504
L70.7857 60.6076
" />
<path d="M70.7857 60.6076
L70.9286 60.5361
" />
<path d="M70.9286 60.5361
L71.1429 60.5361
" />
<path d="M71.1429 60.5361
L71.2857 60.6076
" />
<path d="M71.2857 60.6076
L71.3571 60.7504
" />
<path d="M71.3571 60.7504
L71.3571 61.5361
" />
<path d="M72.0714 61.5361
L72.0714 60.5361
" />
<path d="M72.0714 60.6790
L72.1429 60.6076
" />
<path d="M72.1429 60.6076
L72.2857 60.5361
" />
<path d="M72.2857 60.5361
L72.5000 60.5361
" />
<path d="M72.5000 60.5361
L72.6429 60.6076
" />
<path d="M72.6429 60.6076
L72.7143 60.7504
" />
<path d="M72.7143 60.7504
L72.7143 61.5361
" />
<path d="M72.7143 60.7504
L72.7857 60.6076
" />
<path d="M72.7857 60.6076
L72.9286 60.5361
" />
<path d="M72.9286 60.5361
L73.1429 60.5361
" />
<path d="M73.1429 60.5361
L73.2857 60.6076
" />
<path d="M73.2857 60.6076
L73.3571 60.7504
" />
<path d="M73.3571 60.7504
L73.3571 61.5361
" />
</g><path d="M81.0000 60.0000
L81.0000 63.0864
" />
<path d="M52.0000 60.0000
L52.0000 63.0864
" />
<path d="M81.0000 62.5000
L52.0000 62.5000
" />
<path d="M81.0000 62.5000
L52.0000 62.5000
" />
<path d="M81.0000 62.5000
L79.8735 63.0864
" />
<path d="M81.0000 62.5000
L79.8735 61.9136
" />
<path d="M52.0000 62.5000
L53.1265 61.9136
" />
<path d="M52.0000 62.5000
L53.1265 63.0864
" />
<text x="81.0000" y="47.6000"
textLength="8.1500" font-size="2.0000" lengthAdjust="spacingAndGlyphs"
text-anchor="middle" opacity="0">58 mm</text>
<g class="stroked-text"><desc>58 mm</desc>
<path d="M78.0714 46.0361
L77.3571 46.0361
" />
<path d="M77.3571 46.0361
L77.2857 46.7504
" />
<path d="M77.2857 46.7504
L77.3571 46.6790
" />
<path d="M77.3571 46.6790
L77.5000 46.6076
" />
<path d="M77.5000 46.6076
L77.8571 46.6076
" />
<path d="M77.8571 46.6076
L78.0000 46.6790
" />
<path d="M78.0000 46.6790
L78.0714 46.7504
" />
<path d="M78.0714 46.7504
L78.1429 46.8933
" />
<path d="M78.1429 46.8933
L78.1429 47.2504
" />
<path d="M78.1429 47.2504
L78.0714 47.3933
" />
<path d="M78.0714 47.3933
L78.0000 47.4647
" />
<path d="M78.0000 47.4647
L77.8571 47.5361
" />
<path d="M77.8571 47.5361
L77.5000 47.5361
" />
<path d="M77.5000 47.5361
L77.3571 47.4647
" />
<path d="M77.3571 47.4647
L77.2857 47.3933
" />
<path d="M79.0000 46.6790
L78.8571 46.6076
" />
<path d="M78.8571 46.6076
L78.7857 46.5361
" />
<path d="M78.7857 46.5361
L78.7143 46.3933
" />
<path d="M78.7143 46.3933
L78.7143 46.3218
" />
<path d="M78.7143 46.3218
L78.7857 46.1790
" />
<path d="M78.7857 46.1790
L78.8571 46.1076
" />
<path d="M78.8571 46.1076
L79.0000 46.0361
" />
<path d="M79.0000 46.0361
L79.2857 46.0361
" />
<path d="M79.2857 46.0361
L79.4286 46.1076
" />
<path d="M79.4286 46.1076
L79.5000 46.1790
" />
<path d="M79.5000 46.1790
L79.5714 46.3218
" />
<path d="M79.5714 46.3218
L79.5714 46.3933
" />
<path d="M79.5714 46.3933
L79.5000 46.5361
" />
<path d="M79.5000 46.5361
L79.4286 46.6076
" />
<path d="M79.4286 46.6076
L79.2857 46.6790
" />
<path d="M79.2857 46.6790
L79.0000 46.6790
" />
<path d="M79.0000 46.6790
L78.8571 46.7504
" />
<path d="M78.8571 46.7504
L78.7857 46.8218
" />
<path d="M78.7857 46.8218
L78.7143 46.9647
" />
<path d="M78.7143 46.9647
L78.7143 47.2504
" />
<path d="M78.7143 47.2504
L78.7857 47.3933
" />
<path d="M78.7857 47.3933
L78.8571 47.4647
" />
<path d="M78.8571 47.4647
L79.0000 47.5361
" />
<path d="M79.0000 47.5361
L79.2857 47.5361
" />
<path d="M79.2857 47.5361
L79.4286 47.4647
" />
<path d="M79.4286 47.4647
L79.5000 47.3933
" />
<path d="M79.5000 47.3933
L79.5714 47.2504
" />
<path d="M79.5714 47.2504
L79.5714 46.9647
" />
<path d="M79.5714 46.9647
L79.5000 46.8218
" />
<path d="M79.5000 46.8218
L79.4286 46.7504
" />
<path d="M79.4286 46.7504
L79.2857 46.6790
" />
<path d="M81.3571 47.5361
L81.3571 46.5361
" />
<path d="M81.3571 46.6790
L81.4286 46.6076
" />
<path d="M81.4286 46.6076
L81.5714 46.5361
" />
<path d="M81.5714 46.5361
L81.7857 46.5361
" />
<path d="M81.7857 46.5361
L81.9286 46.6076
" />
<path d="M81.9286 46.6076
L82.0000 46.7504
" />
<path d="M82.0000 46.7504
L82.0000 47.5361
" />
<path d="M82.0000 46.7504
L82.0714 46.6076
" />
<path d="M82.0714 46.6076
L82.2143 46.5361
" />
<path d="M82.2143 46.5361
L82.4286 46.5361
" />
<path d="M82.4286 46.5361
L82.5714 46.6076
" />
<path d="M82.5714 46.6076
L82.6429 46.7504
" />
<path d="M82.6429 46.7504
L82.6429 47.5361
" />
<path d="M83.3571 47.5361
L83.3571 46.5361
" />
<path d="M83.3571 46.6790
L83.4286 46.6076
" />
<path d="M83.4286 46.6076
L83.5714 46.5361
" />
<path d="M83.5714 46.5361
L83.7857 46.5361
" />
<path d="M83.7857 46.5361
L83.9286 46.6076
" />
<path d="M83.9286 46.6076
L84.0000 46.7504
" />
<path d="M84.0000 46.7504
L84.0000 47.5361
" />
<path d="M84.0000 46.7504
L84.0714 46.6076
" />
<path d="M84.0714 46.6076
L84.2143 46.5361
" />
<path d="M84.2143 46.5361
L84.4286 46.5361
" />
<path d="M84.4286 46.5361
L84.5714 46.6076
" />
<path d="M84.5714 46.6076
L84.6429 46.7504
" />
<path d="M84.6429 46.7504
L84.6429 47.5361
" />
</g><path d="M110.0000 51.0000
L110.0000 47.9136
" />
<path d="M52.0000 51.0000
L52.0000 47.9136
" />
<path d="M110.0000 48.5000
L52.0000 48.5000
" />
<path d="M110.0000 48.5000
L52.0000 48.5000
" />
<path d="M110.0000 48.5000
L108.8735 49.0864
" />
<path d="M110.0000 48.5000
L108.8735 47.9136
" />
<path d="M52.0000 48.5000
L53.1265 47.9136
" />
<path d="M52.0000 48.5000
L53.1265 49.0864
" />
<g transform="rotate(-90.000000 54.8500 80.5000)">
<text x="54.8500" y="81.2500"
textLength="8.1500" font-size="2.0000" lengthAdjust="spacingAndGlyphs"
text-anchor="middle" opacity="0">17 mm</text>
</g>
<g class="stroked-text"><desc>17 mm</desc>
<path d="M55.5361 83.3571
L55.5361 84.2143
" />
<path d="M55.5361 83.7857
L54.0361 83.7857
" />
<path d="M54.0361 83.7857
L54.2504 83.9286
" />
<path d="M54.2504 83.9286
L54.3933 84.0714
" />
<path d="M54.3933 84.0714
L54.4647 84.2143
" />
<path d="M54.0361 82.8571
L54.0361 81.8571
" />
<path d="M54.0361 81.8571
L55.5361 82.5000
" />
<path d="M55.5361 80.1429
L54.5361 80.1429
" />
<path d="M54.6790 80.1429
L54.6076 80.0714
" />
<path d="M54.6076 80.0714
L54.5361 79.9286
" />
<path d="M54.5361 79.9286
L54.5361 79.7143
" />
<path d="M54.5361 79.7143
L54.6076 79.5714
" />
<path d="M54.6076 79.5714
L54.7504 79.5000
" />
<path d="M54.7504 79.5000
L55.5361 79.5000
" />
<path d="M54.7504 79.5000
L54.6076 79.4286
" />
<path d="M54.6076 79.4286
L54.5361 79.2857
" />
<path d="M54.5361 79.2857
L54.5361 79.0714
" />
<path d="M54.5361 79.0714
L54.6076 78.9286
" />
<path d="M54.6076 78.9286
L54.7504 78.8571
" />
<path d="M54.7504 78.8571
L55.5361 78.8571
" />
<path d="M55.5361 78.1429
L54.5361 78.1429
" />
<path d="M54.6790 78.1429
L54.6076 78.0714
" />
<path d="M54.6076 78.0714
L54.5361 77.9286
" />
<path d="M54.5361 77.9286
L54.5361 77.7143
" />
<path d="M54.5361 77.7143
L54.6076 77.5714
" />
<path d="M54.6076 77.5714
L54.7504 77.5000
" />
<path d="M54.7504 77.5000
L55.5361 77.5000
" />
<path d="M54.7504 77.5000
L54.6076 77.4286
" />
<path d="M54.6076 77.4286
L54.5361 77.2857
" />
<path d="M54.5361 77.2857
L54.5361 77.0714
" />
<path d="M54.5361 77.0714
L54.6076 76.9286
" />
<path d="M54.6076 76.9286
L54.7504 76.8571
" />
<path d="M54.7504 76.8571
L55.5361 76.8571
" />
</g><path d="M54.5000 89.0000
L57.0864 89.0000
" />
<path d="M54.5000 72.0000
L57.0864 72.0000
" />
<path d="M56.5000 89.0000
L56.5000 72.0000
" />
<path d="M56.5000 89.0000
L56.5000 72.0000
" />
<path d="M56.5000 89.0000
L55.9136 87.8735
" />
<path d="M56.5000 89.0000
L57.0864 87.8735
" />
<path d="M56.5000 72.0000
L57.0864 73.1265
" />
<path d="M56.5000 72.0000
L55.9136 73.1265
" />
<g transform="rotate(-90.000000 120.8500 80.5000)">
<text x="120.8500" y="81.2500"
textLength="8.1500" font-size="2.0000" lengthAdjust="spacingAndGlyphs"
text-anchor="middle" opacity="0">56 mm</text>
</g>
<g class="stroked-text"><desc>56 mm</desc>
<path d="M120.0361 83.4286
L120.0361 84.1429
" />
<path d="M120.0361 84.1429
L120.7504 84.2143
" />
<path d="M120.7504 84.2143
L120.6790 84.1429
" />
<path d="M120.6790 84.1429
L120.6076 84.0000
" />
<path d="M120.6076 84.0000
L120.6076 83.6429
" />
<path d="M120.6076 83.6429
L120.6790 83.5000
" />
<path d="M120.6790 83.5000
L120.7504 83.4286
" />
<path d="M120.7504 83.4286
L120.8933 83.3571
" />
<path d="M120.8933 83.3571
L121.2504 83.3571
" />
<path d="M121.2504 83.3571
L121.3933 83.4286
" />
<path d="M121.3933 83.4286
L121.4647 83.5000
" />
<path d="M121.4647 83.5000
L121.5361 83.6429
" />
<path d="M121.5361 83.6429
L121.5361 84.0000
" />
<path d="M121.5361 84.0000
L121.4647 84.1429
" />
<path d="M121.4647 84.1429
L121.3933 84.2143
" />
<path d="M120.0361 82.0714
L120.0361 82.3571
" />
<path d="M120.0361 82.3571
L120.1076 82.5000
" />
<path d="M120.1076 82.5000
L120.1790 82.5714
" />
<path d="M120.1790 82.5714
L120.3933 82.7143
" />
<path d="M120.3933 82.7143
L120.6790 82.7857
" />
<path d="M120.6790 82.7857
L121.2504 82.7857
" />
<path d="M121.2504 82.7857
L121.3933 82.7143
" />
<path d="M121.3933 82.7143
L121.4647 82.6429
" />
<path d="M121.4647 82.6429
L121.5361 82.5000
" />
<path d="M121.5361 82.5000
L121.5361 82.2143
" />
<path d="M121.5361 82.2143
L121.4647 82.0714
" />
<path d="M121.4647 82.0714
L121.3933 82.0000
" />
<path d="M121.3933 82.0000
L121.2504 81.9286
" />
<path d="M121.2504 81.9286
L120.8933 81.9286
" />
<path d="M120.8933 81.9286
L120.7504 82.0000
" />
<path d="M120.7504 82.0000
L120.6790 82.0714
" />
<path d="M120.6790 82.0714
L120.6076 82.2143
" />
<path d="M120.6076 82.2143
L120.6076 82.5000
" />
<path d="M120.6076 82.5000
L120.6790 82.6429
" />
<path d="M120.6790 82.6429
L120.7504 82.7143
" />
<path d="M120.7504 82.7143
L120.8933 82.7857
" />
<path d="M121.5361 80.1429
L120.5361 80.1429
" />
<path d="M120.6790 80.1429
L120.6076 80.0714
" />
<path d="M120.6076 80.0714
L120.5361 79.9286
" />
<path d="M120.5361 79.9286
L120.5361 79.7143
" />
<path d="M120.5361 79.7143
L120.6076 79.5714
" />
<path d="M120.6076 79.5714
L120.7504 79.5000
" />
<path d="M120.7504 79.5000
L121.5361 79.5000
" />
<path d="M120.7504 79.5000
L120.6076 79.4286
" />
<path d="M120.6076 79.4286
L120.5361 79.2857
" />
<path d="M120.5361 79.2857
L120.5361 79.0714
" />
<path d="M120.5361 79.0714
L120.6076 78.9286
" />
<path d="M120.6076 78.9286
L120.7504 78.8571
" />
<path d="M120.7504 78.8571
L121.5361 78.8571
" />
<path d="M121.5361 78.1429
L120.5361 78.1429
" />
<path d="M120.6790 78.1429
L120.6076 78.0714
" />
<path d="M120.6076 78.0714
L120.5361 77.9286
" />
<path d="M120.5361 77.9286
L120.5361 77.7143
" />
<path d="M120.5361 77.7143
L120.6076 77.5714
" />
<path d="M120.6076 77.5714
L120.7504 77.5000
" />
<path d="M120.7504 77.5000
L121.5361 77.5000
" />
<path d="M120.7504 77.5000
L120.6076 77.4286
" />
<path d="M120.6076 77.4286
L120.5361 77.2857
" />
<path d="M120.5361 77.2857
L120.5361 77.0714
" />
<path d="M120.5361 77.0714
L120.6076 76.9286
" />
<path d="M120.6076 76.9286
L120.7504 76.8571
" />
<path d="M120.7504 76.8571
L121.5361 76.8571
" />
</g><path d="M114.5000 108.5000
L123.0864 108.5000
" />
<path d="M114.5000 52.5000
L123.0864 52.5000
" />
<path d="M122.5000 108.5000
L122.5000 52.5000
" />
<path d="M122.5000 108.5000
L122.5000 52.5000
" />
<path d="M122.5000 108.5000
L121.9136 107.3735
" />
<path d="M122.5000 108.5000
L123.0864 107.3735
" />
<path d="M122.5000 52.5000
L123.0864 53.6265
" />
<path d="M122.5000 52.5000
L121.9136 53.6265
" />
<g transform="rotate(-90.000000 115.8500 80.5000)">
<text x="115.8500" y="81.2500"
textLength="8.1500" font-size="2.0000" lengthAdjust="spacingAndGlyphs"
text-anchor="middle" opacity="0">49 mm</text>
</g>
<g class="stroked-text"><desc>49 mm</desc>
<path d="M115.5361 83.5000
L116.5361 83.5000
" />
<path d="M114.9647 83.8571
L116.0361 84.2143
" />
<path d="M116.0361 84.2143
L116.0361 83.2857
" />
<path d="M116.5361 82.6429
L116.5361 82.3571
" />
<path d="M116.5361 82.3571
L116.4647 82.2143
" />
<path d="M116.4647 82.2143
L116.3933 82.1429
" />
<path d="M116.3933 82.1429
L116.1790 82.0000
" />
<path d="M116.1790 82.0000
L115.8933 81.9286
" />
<path d="M115.8933 81.9286
L115.3218 81.9286
" />
<path d="M115.3218 81.9286
L115.1790 82.0000
" />
<path d="M115.1790 82.0000
L115.1076 82.0714
" />
<path d="M115.1076 82.0714
L115.0361 82.2143
" />
<path d="M115.0361 82.2143
L115.0361 82.5000
" />
<path d="M115.0361 82.5000
L115.1076 82.6429
" />
<path d="M115.1076 82.6429
L115.1790 82.7143
" />
<path d="M115.1790 82.7143
L115.3218 82.7857
" />
<path d="M115.3218 82.7857
L115.6790 82.7857
" />
<path d="M115.6790 82.7857
L115.8218 82.7143
" />
<path d="M115.8218 82.7143
L115.8933 82.6429
" />
<path d="M115.8933 82.6429
L115.9647 82.5000
" />
<path d="M115.9647 82.5000
L115.9647 82.2143
" />
<path d="M115.9647 82.2143
L115.8933 82.0714
" />
<path d="M115.8933 82.0714
L115.8218 82.0000
" />
<path d="M115.8218 82.0000
L115.6790 81.9286
" />
<path d="M116.5361 80.1429
L115.5361 80.1429
" />
<path d="M115.6790 80.1429
L115.6076 80.0714
" />
<path d="M115.6076 80.0714
L115.5361 79.9286
" />
<path d="M115.5361 79.9286
L115.5361 79.7143
" />
<path d="M115.5361 79.7143
L115.6076 79.5714
" />
<path d="M115.6076 79.5714
L115.7504 79.5000
" />
<path d="M115.7504 79.5000
L116.5361 79.5000
" />
<path d="M115.7504 79.5000
L115.6076 79.4286
" />
<path d="M115.6076 79.4286
L115.5361 79.2857
" />
<path d="M115.5361 79.2857
L115.5361 79.0714
" />
<path d="M115.5361 79.0714
L115.6076 78.9286
" />
<path d="M115.6076 78.9286
L115.7504 78.8571
" />
<path d="M115.7504 78.8571
L116.5361 78.8571
" />
<path d="M116.5361 78.1429
L115.5361 78.1429
" />
<path d="M115.6790 78.1429
L115.6076 78.0714
" />
<path d="M115.6076 78.0714
L115.5361 77.9286
" />
<path d="M115.5361 77.9286
L115.5361 77.7143
" />
<path d="M115.5361 77.7143
L115.6076 77.5714
" />
<path d="M115.6076 77.5714
L115.7504 77.5000
" />
<path d="M115.7504 77.5000
L116.5361 77.5000
" />
<path d="M115.7504 77.5000
L115.6076 77.4286
" />
<path d="M115.6076 77.4286
L115.5361 77.2857
" />
<path d="M115.5361 77.2857
L115.5361 77.0714
" />
<path d="M115.5361 77.0714
L115.6076 76.9286
" />
<path d="M115.6076 76.9286
L115.7504 76.8571
" />
<path d="M115.7504 76.8571
L116.5361 76.8571
" />
</g><path d="M114.5000 105.0000
L118.0864 105.0000
" />
<path d="M114.5000 56.0000
L118.0864 56.0000
" />
<path d="M117.5000 105.0000
L117.5000 56.0000
" />
<path d="M117.5000 105.0000
L117.5000 56.0000
" />
<path d="M117.5000 105.0000
L116.9136 103.8735
" />
<path d="M117.5000 105.0000
L118.0864 103.8735
" />
<path d="M117.5000 56.0000
L118.0864 57.1265
" />
<path d="M117.5000 56.0000
L116.9136 57.1265
" />
<text x="50.2500" y="111.1000"
textLength="8.8643" font-size="2.0000" lengthAdjust="spacingAndGlyphs"
text-anchor="middle" opacity="0">3.5 mm</text>
<g class="stroked-text"><desc>3.5 mm</desc>
<path d="M46.1071 109.5361
L47.0357 109.5361
" />
<path d="M47.0357 109.5361
L46.5357 110.1076
" />
<path d="M46.5357 110.1076
L46.7500 110.1076
" />
<path d="M46.7500 110.1076
L46.8929 110.1790
" />
<path d="M46.8929 110.1790
L46.9643 110.2504
" />
<path d="M46.9643 110.2504
L47.0357 110.3933
" />
<path d="M47.0357 110.3933
L47.0357 110.7504
" />
<path d="M47.0357 110.7504
L46.9643 110.8933
" />
<path d="M46.9643 110.8933
L46.8929 110.9647
" />
<path d="M46.8929 110.9647
L46.7500 111.0361
" />
<path d="M46.7500 111.0361
L46.3214 111.0361
" />
<path d="M46.3214 111.0361
L46.1786 110.9647
" />
<path d="M46.1786 110.9647
L46.1071 110.8933
" />
<path d="M47.6786 110.8933
L47.7500 110.9647
" />
<path d="M47.7500 110.9647
L47.6786 111.0361
" />
<path d="M47.6786 111.0361
L47.6071 110.9647
" />
<path d="M47.6071 110.9647
L47.6786 110.8933
" />
<path d="M47.6786 110.8933
L47.6786 111.0361
" />
<path d="M49.1071 109.5361
L48.3929 109.5361
" />
<path d="M48.3929 109.5361
L48.3214 110.2504
" />
<path d="M48.3214 110.2504
L48.3929 110.1790
" />
<path d="M48.3929 110.1790
L48.5357 110.1076
" />
<path d="M48.5357 110.1076
L48.8929 110.1076
" />
<path d="M48.8929 110.1076
L49.0357 110.1790
" />
<path d="M49.0357 110.1790
L49.1071 110.2504
" />
<path d="M49.1071 110.2504
L49.1786 110.3933
" />
<path d="M49.1786 110.3933
L49.1786 110.7504
" />
<path d="M49.1786 110.7504
L49.1071 110.8933
" />
<path d="M49.1071 110.8933
L49.0357 110.9647
" />
<path d="M49.0357 110.9647
L48.8929 111.0361
" />
<path d="M48.8929 111.0361
L48.5357 111.0361
" />
<path d="M48.5357 111.0361
L48.3929 110.9647
" />
<path d="M48.3929 110.9647
L48.3214 110.8933
" />
<path d="M50.9643 111.0361
L50.9643 110.0361
" />
<path d="M50.9643 110.1790
L51.0357 110.1076
" />
<path d="M51.0357 110.1076
L51.1786 110.0361
" />
<path d="M51.1786 110.0361
L51.3929 110.0361
" />
<path d="M51.3929 110.0361
L51.5357 110.1076
" />
<path d="M51.5357 110.1076
L51.6071 110.2504
" />
<path d="M51.6071 110.2504
L51.6071 111.0361
" />
<path d="M51.6071 110.2504
L51.6786 110.1076
" />
<path d="M51.6786 110.1076
L51.8214 110.0361
" />
<path d="M51.8214 110.0361
L52.0357 110.0361
" />
<path d="M52.0357 110.0361
L52.1786 110.1076
" />
<path d="M52.1786 110.1076
L52.2500 110.2504
" />
<path d="M52.2500 110.2504
L52.2500 111.0361
" />
<path d="M52.9643 111.0361
L52.9643 110.0361
" />
<path d="M52.9643 110.1790
L53.0357 110.1076
" />
<path d="M53.0357 110.1076
L53.1786 110.0361
" />
<path d="M53.1786 110.0361
L53.3929 110.0361
" />
<path d="M53.3929 110.0361
L53.5357 110.1076
" />
<path d="M53.5357 110.1076
L53.6071 110.2504
" />
<path d="M53.6071 110.2504
L53.6071 111.0361
" />
<path d="M53.6071 110.2504
L53.6786 110.1076
" />
<path d="M53.6786 110.1076
L53.8214 110.0361
" />
<path d="M53.8214 110.0361
L54.0357 110.0361
" />
<path d="M54.0357 110.0361
L54.1786 110.1076
" />
<path d="M54.1786 110.1076
L54.2500 110.2504
" />
<path d="M54.2500 110.2504
L54.2500 111.0361
" />
</g><path d="M52.0000 109.5000
L52.0000 112.5864
" />
<path d="M48.5000 109.5000
L48.5000 112.5864
" />
<path d="M52.0000 112.0000
L48.5000 112.0000
" />
<path d="M52.0000 112.0000
L48.5000 112.0000
" />
<path d="M52.0000 112.0000
L50.8735 112.5864
" />
<path d="M52.0000 112.0000
L50.8735 111.4136
" />
<path d="M48.5000 112.0000
L49.6265 111.4136
" />
<path d="M48.5000 112.0000
L49.6265 112.5864
" />
<g >
</g>
<g >
</g>
<g >
</g>
<g >
</g>
<g >
</g>
<g >
</g>
<g >
</g>
<g >
</g>
<g >
</g>
<g >
</g>
<g >
</g>
<g >
</g>
<g >
</g>
<g >
</g>
<g >
</g>
<g >
</g>
<g >
</g>
<g >
</g>
<g >
</g>
<g >
</g>
<g >
</g>
<g >
</g>
<g >
</g>
<g >
</g>
<g >
</g>
<g >
</g>
<g >
</g>
<g >
</g>
<g >
</g>
<g >
</g>
<g >
</g>
<g >
</g>
<g >
</g>
<g >
</g>
<g >
</g>
<g >
</g>
<g >
</g>
<g >
</g>
<g >
</g>
<g >
</g>
<g >
</g>
<g >
</g>
<g >
</g>
<g >
</g>
<g >
</g>
<g >
</g>
<g >
</g>
<g >
</g>
<g >
</g>
<g >
</g>
<g >
</g>
<g >
</g>
<g >
</g>
<g >
</g>
<g >
</g>
<g >
</g>
<g >
</g>
<g >
</g>
<g >
</g>
<g >
</g>
<g >
</g>
<g >
</g>
<g >
</g>
<g >
</g>
<g >
</g>
<g >
</g>
<g >
</g>
<g >
</g>
<g >
</g>
<g >
</g>
<g >
</g>
<g >
</g>
<g >
</g>
<g >
</g>
<g >
</g>
<g >
</g>
<g >
</g>
<g >
</g>
<g >
</g>
</g> 
</svg>
