<?xml version="1.0" standalone="no"?>
 <!DOCTYPE svg PUBLIC "-//W3C//DTD SVG 1.1//EN" 
 "http://www.w3.org/Graphics/SVG/1.1/DTD/svg11.dtd"> 
<svg
  xmlns:svg="http://www.w3.org/2000/svg"
  xmlns="http://www.w3.org/2000/svg"
  xmlns:xlink="http://www.w3.org/1999/xlink"
  version="1.1"
  width="297.0022mm" height="210.0072mm" viewBox="0.0000 0.0000 297.0022 210.0072">
<title>SVG Image created as pedalboard-soundcard-User_Comments.svg date 2023/12/27 17:49:44 </title>
  <desc>Image generated by PCBNEW </desc>
<g style="fill:#000000; fill-opacity:1.0000;stroke:#000000; stroke-opacity:1.0000;
stroke-linecap:round; stroke-linejoin:round;"
 transform="translate(0 0) scale(1 1)">
</g>
<g style="fill:#000000; fill-opacity:0.0; 
stroke:#000000; stroke-width:0.0000; stroke-opacity:1; 
stroke-linecap:round; stroke-linejoin:round;">
</g>
<g style="fill:#000000; fill-opacity:0.0; 
stroke:#000000; stroke-width:0.1500; stroke-opacity:1; 
stroke-linecap:round; stroke-linejoin:round;">
<text x="212.0022" y="118.5425"
textLength="26.3643" font-size="2.0000" lengthAdjust="spacingAndGlyphs"
text-anchor="middle" opacity="0">Dimensions taken from</text>
<g class="stroked-text"><desc>Dimensions taken from</desc>
<path d="M224.7611 118.4786
L224.5736 116.9786
" />
<path d="M224.5736 116.9786
L224.2165 116.9786
" />
<path d="M224.2165 116.9786
L224.0111 117.0501
" />
<path d="M224.0111 117.0501
L223.8861 117.1929
" />
<path d="M223.8861 117.1929
L223.8326 117.3358
" />
<path d="M223.8326 117.3358
L223.7968 117.6215
" />
<path d="M223.7968 117.6215
L223.8236 117.8358
" />
<path d="M223.8236 117.8358
L223.9308 118.1215
" />
<path d="M223.9308 118.1215
L224.0201 118.2643
" />
<path d="M224.0201 118.2643
L224.1808 118.4072
" />
<path d="M224.1808 118.4072
L224.4040 118.4786
" />
<path d="M224.4040 118.4786
L224.7611 118.4786
" />
<path d="M223.2611 118.4786
L223.1361 117.4786
" />
<path d="M223.0736 116.9786
L223.1540 117.0501
" />
<path d="M223.1540 117.0501
L223.0915 117.1215
" />
<path d="M223.0915 117.1215
L223.0111 117.0501
" />
<path d="M223.0111 117.0501
L223.0736 116.9786
" />
<path d="M223.0736 116.9786
L223.0915 117.1215
" />
<path d="M222.5468 118.4786
L222.4218 117.4786
" />
<path d="M222.4397 117.6215
L222.3593 117.5501
" />
<path d="M222.3593 117.5501
L222.2076 117.4786
" />
<path d="M222.2076 117.4786
L221.9933 117.4786
" />
<path d="M221.9933 117.4786
L221.8593 117.5501
" />
<path d="M221.8593 117.5501
L221.8058 117.6929
" />
<path d="M221.8058 117.6929
L221.9040 118.4786
" />
<path d="M221.8058 117.6929
L221.7165 117.5501
" />
<path d="M221.7165 117.5501
L221.5647 117.4786
" />
<path d="M221.5647 117.4786
L221.3504 117.4786
" />
<path d="M221.3504 117.4786
L221.2165 117.5501
" />
<path d="M221.2165 117.5501
L221.1629 117.6929
" />
<path d="M221.1629 117.6929
L221.2611 118.4786
" />
<path d="M219.9665 118.4072
L220.1183 118.4786
" />
<path d="M220.1183 118.4786
L220.4040 118.4786
" />
<path d="M220.4040 118.4786
L220.5379 118.4072
" />
<path d="M220.5379 118.4072
L220.5915 118.2643
" />
<path d="M220.5915 118.2643
L220.5201 117.6929
" />
<path d="M220.5201 117.6929
L220.4308 117.5501
" />
<path d="M220.4308 117.5501
L220.2790 117.4786
" />
<path d="M220.2790 117.4786
L219.9933 117.4786
" />
<path d="M219.9933 117.4786
L219.8593 117.5501
" />
<path d="M219.8593 117.5501
L219.8058 117.6929
" />
<path d="M219.8058 117.6929
L219.8236 117.8358
" />
<path d="M219.8236 117.8358
L220.5558 117.9786
" />
<path d="M219.1361 117.4786
L219.2611 118.4786
" />
<path d="M219.1540 117.6215
L219.0736 117.5501
" />
<path d="M219.0736 117.5501
L218.9218 117.4786
" />
<path d="M218.9218 117.4786
L218.7076 117.4786
" />
<path d="M218.7076 117.4786
L218.5736 117.5501
" />
<path d="M218.5736 117.5501
L218.5201 117.6929
" />
<path d="M218.5201 117.6929
L218.6183 118.4786
" />
<path d="M217.9665 118.4072
L217.8326 118.4786
" />
<path d="M217.8326 118.4786
L217.5468 118.4786
" />
<path d="M217.5468 118.4786
L217.3951 118.4072
" />
<path d="M217.3951 118.4072
L217.3058 118.2643
" />
<path d="M217.3058 118.2643
L217.2968 118.1929
" />
<path d="M217.2968 118.1929
L217.3504 118.0501
" />
<path d="M217.3504 118.0501
L217.4843 117.9786
" />
<path d="M217.4843 117.9786
L217.6986 117.9786
" />
<path d="M217.6986 117.9786
L217.8326 117.9072
" />
<path d="M217.8326 117.9072
L217.8861 117.7643
" />
<path d="M217.8861 117.7643
L217.8772 117.6929
" />
<path d="M217.8772 117.6929
L217.7879 117.5501
" />
<path d="M217.7879 117.5501
L217.6361 117.4786
" />
<path d="M217.6361 117.4786
L217.4218 117.4786
" />
<path d="M217.4218 117.4786
L217.2879 117.5501
" />
<path d="M216.6897 118.4786
L216.5647 117.4786
" />
<path d="M216.5022 116.9786
L216.5826 117.0501
" />
<path d="M216.5826 117.0501
L216.5201 117.1215
" />
<path d="M216.5201 117.1215
L216.4397 117.0501
" />
<path d="M216.4397 117.0501
L216.5022 116.9786
" />
<path d="M216.5022 116.9786
L216.5201 117.1215
" />
<path d="M215.7611 118.4786
L215.8951 118.4072
" />
<path d="M215.8951 118.4072
L215.9576 118.3358
" />
<path d="M215.9576 118.3358
L216.0111 118.1929
" />
<path d="M216.0111 118.1929
L215.9576 117.7643
" />
<path d="M215.9576 117.7643
L215.8683 117.6215
" />
<path d="M215.8683 117.6215
L215.7879 117.5501
" />
<path d="M215.7879 117.5501
L215.6361 117.4786
" />
<path d="M215.6361 117.4786
L215.4218 117.4786
" />
<path d="M215.4218 117.4786
L215.2879 117.5501
" />
<path d="M215.2879 117.5501
L215.2254 117.6215
" />
<path d="M215.2254 117.6215
L215.1718 117.7643
" />
<path d="M215.1718 117.7643
L215.2254 118.1929
" />
<path d="M215.2254 118.1929
L215.3147 118.3358
" />
<path d="M215.3147 118.3358
L215.3951 118.4072
" />
<path d="M215.3951 118.4072
L215.5468 118.4786
" />
<path d="M215.5468 118.4786
L215.7611 118.4786
" />
<path d="M214.4933 117.4786
L214.6183 118.4786
" />
<path d="M214.5111 117.6215
L214.4308 117.5501
" />
<path d="M214.4308 117.5501
L214.2790 117.4786
" />
<path d="M214.2790 117.4786
L214.0647 117.4786
" />
<path d="M214.0647 117.4786
L213.9308 117.5501
" />
<path d="M213.9308 117.5501
L213.8772 117.6929
" />
<path d="M213.8772 117.6929
L213.9754 118.4786
" />
<path d="M213.3236 118.4072
L213.1897 118.4786
" />
<path d="M213.1897 118.4786
L212.9040 118.4786
" />
<path d="M212.9040 118.4786
L212.7522 118.4072
" />
<path d="M212.7522 118.4072
L212.6629 118.2643
" />
<path d="M212.6629 118.2643
L212.6540 118.1929
" />
<path d="M212.6540 118.1929
L212.7076 118.0501
" />
<path d="M212.7076 118.0501
L212.8415 117.9786
" />
<path d="M212.8415 117.9786
L213.0558 117.9786
" />
<path d="M213.0558 117.9786
L213.1897 117.9072
" />
<path d="M213.1897 117.9072
L213.2433 117.7643
" />
<path d="M213.2433 117.7643
L213.2343 117.6929
" />
<path d="M213.2343 117.6929
L213.1451 117.5501
" />
<path d="M213.1451 117.5501
L212.9933 117.4786
" />
<path d="M212.9933 117.4786
L212.7790 117.4786
" />
<path d="M212.7790 117.4786
L212.6451 117.5501
" />
<path d="M210.9933 117.4786
L210.4218 117.4786
" />
<path d="M210.7165 116.9786
L210.8772 118.2643
" />
<path d="M210.8772 118.2643
L210.8236 118.4072
" />
<path d="M210.8236 118.4072
L210.6897 118.4786
" />
<path d="M210.6897 118.4786
L210.5468 118.4786
" />
<path d="M209.4040 118.4786
L209.3058 117.6929
" />
<path d="M209.3058 117.6929
L209.3593 117.5501
" />
<path d="M209.3593 117.5501
L209.4933 117.4786
" />
<path d="M209.4933 117.4786
L209.7790 117.4786
" />
<path d="M209.7790 117.4786
L209.9308 117.5501
" />
<path d="M209.3951 118.4072
L209.5468 118.4786
" />
<path d="M209.5468 118.4786
L209.9040 118.4786
" />
<path d="M209.9040 118.4786
L210.0379 118.4072
" />
<path d="M210.0379 118.4072
L210.0915 118.2643
" />
<path d="M210.0915 118.2643
L210.0736 118.1215
" />
<path d="M210.0736 118.1215
L209.9843 117.9786
" />
<path d="M209.9843 117.9786
L209.8326 117.9072
" />
<path d="M209.8326 117.9072
L209.4754 117.9072
" />
<path d="M209.4754 117.9072
L209.3236 117.8358
" />
<path d="M208.6897 118.4786
L208.5022 116.9786
" />
<path d="M208.4754 117.9072
L208.1183 118.4786
" />
<path d="M207.9933 117.4786
L208.6361 118.0501
" />
<path d="M206.8951 118.4072
L207.0468 118.4786
" />
<path d="M207.0468 118.4786
L207.3326 118.4786
" />
<path d="M207.3326 118.4786
L207.4665 118.4072
" />
<path d="M207.4665 118.4072
L207.5201 118.2643
" />
<path d="M207.5201 118.2643
L207.4486 117.6929
" />
<path d="M207.4486 117.6929
L207.3593 117.5501
" />
<path d="M207.3593 117.5501
L207.2076 117.4786
" />
<path d="M207.2076 117.4786
L206.9218 117.4786
" />
<path d="M206.9218 117.4786
L206.7879 117.5501
" />
<path d="M206.7879 117.5501
L206.7343 117.6929
" />
<path d="M206.7343 117.6929
L206.7522 117.8358
" />
<path d="M206.7522 117.8358
L207.4843 117.9786
" />
<path d="M206.0647 117.4786
L206.1897 118.4786
" />
<path d="M206.0826 117.6215
L206.0022 117.5501
" />
<path d="M206.0022 117.5501
L205.8504 117.4786
" />
<path d="M205.8504 117.4786
L205.6361 117.4786
" />
<path d="M205.6361 117.4786
L205.5022 117.5501
" />
<path d="M205.5022 117.5501
L205.4486 117.6929
" />
<path d="M205.4486 117.6929
L205.5468 118.4786
" />
<path d="M203.7790 117.4786
L203.2076 117.4786
" />
<path d="M203.6897 118.4786
L203.5290 117.1929
" />
<path d="M203.5290 117.1929
L203.4397 117.0501
" />
<path d="M203.4397 117.0501
L203.2879 116.9786
" />
<path d="M203.2879 116.9786
L203.1451 116.9786
" />
<path d="M202.8326 118.4786
L202.7076 117.4786
" />
<path d="M202.7433 117.7643
L202.6540 117.6215
" />
<path d="M202.6540 117.6215
L202.5736 117.5501
" />
<path d="M202.5736 117.5501
L202.4218 117.4786
" />
<path d="M202.4218 117.4786
L202.2790 117.4786
" />
<path d="M201.6897 118.4786
L201.8236 118.4072
" />
<path d="M201.8236 118.4072
L201.8861 118.3358
" />
<path d="M201.8861 118.3358
L201.9397 118.1929
" />
<path d="M201.9397 118.1929
L201.8861 117.7643
" />
<path d="M201.8861 117.7643
L201.7968 117.6215
" />
<path d="M201.7968 117.6215
L201.7165 117.5501
" />
<path d="M201.7165 117.5501
L201.5647 117.4786
" />
<path d="M201.5647 117.4786
L201.3504 117.4786
" />
<path d="M201.3504 117.4786
L201.2165 117.5501
" />
<path d="M201.2165 117.5501
L201.1540 117.6215
" />
<path d="M201.1540 117.6215
L201.1004 117.7643
" />
<path d="M201.1004 117.7643
L201.1540 118.1929
" />
<path d="M201.1540 118.1929
L201.2433 118.3358
" />
<path d="M201.2433 118.3358
L201.3236 118.4072
" />
<path d="M201.3236 118.4072
L201.4754 118.4786
" />
<path d="M201.4754 118.4786
L201.6897 118.4786
" />
<path d="M200.5468 118.4786
L200.4218 117.4786
" />
<path d="M200.4397 117.6215
L200.3593 117.5501
" />
<path d="M200.3593 117.5501
L200.2076 117.4786
" />
<path d="M200.2076 117.4786
L199.9933 117.4786
" />
<path d="M199.9933 117.4786
L199.8593 117.5501
" />
<path d="M199.8593 117.5501
L199.8058 117.6929
" />
<path d="M199.8058 117.6929
L199.9040 118.4786
" />
<path d="M199.8058 117.6929
L199.7165 117.5501
" />
<path d="M199.7165 117.5501
L199.5647 117.4786
" />
<path d="M199.5647 117.4786
L199.3504 117.4786
" />
<path d="M199.3504 117.4786
L199.2165 117.5501
" />
<path d="M199.2165 117.5501
L199.1629 117.6929
" />
<path d="M199.1629 117.6929
L199.2611 118.4786
" />
</g><text x="212.0022" y="120.9575"
textLength="90.4357" font-size="2.0000" lengthAdjust="spacingAndGlyphs"
text-anchor="middle" opacity="0">https://github.com/raspberrypi/hats/blob/master/hat-board-mechanical.pdf</text>
<g class="stroked-text"><desc>https://github.com/raspberrypi/hats/blob/master/hat-board-mechanical.pdf</desc>
<path d="M256.7968 120.8936
L256.6093 119.3936
" />
<path d="M256.1540 120.8936
L256.0558 120.1079
" />
<path d="M256.0558 120.1079
L256.1093 119.9651
" />
<path d="M256.1093 119.9651
L256.2433 119.8936
" />
<path d="M256.2433 119.8936
L256.4576 119.8936
" />
<path d="M256.4576 119.8936
L256.6093 119.9651
" />
<path d="M256.6093 119.9651
L256.6897 120.0365
" />
<path d="M255.5290 119.8936
L254.9576 119.8936
" />
<path d="M255.2522 119.3936
L255.4129 120.6793
" />
<path d="M255.4129 120.6793
L255.3593 120.8222
" />
<path d="M255.3593 120.8222
L255.2254 120.8936
" />
<path d="M255.2254 120.8936
L255.0826 120.8936
" />
<path d="M254.6718 119.8936
L254.1004 119.8936
" />
<path d="M254.3951 119.3936
L254.5558 120.6793
" />
<path d="M254.5558 120.6793
L254.5022 120.8222
" />
<path d="M254.5022 120.8222
L254.3683 120.8936
" />
<path d="M254.3683 120.8936
L254.2254 120.8936
" />
<path d="M253.6004 119.8936
L253.7879 121.3936
" />
<path d="M253.6093 119.9651
L253.4576 119.8936
" />
<path d="M253.4576 119.8936
L253.1718 119.8936
" />
<path d="M253.1718 119.8936
L253.0379 119.9651
" />
<path d="M253.0379 119.9651
L252.9754 120.0365
" />
<path d="M252.9754 120.0365
L252.9218 120.1793
" />
<path d="M252.9218 120.1793
L252.9754 120.6079
" />
<path d="M252.9754 120.6079
L253.0647 120.7508
" />
<path d="M253.0647 120.7508
L253.1451 120.8222
" />
<path d="M253.1451 120.8222
L253.2968 120.8936
" />
<path d="M253.2968 120.8936
L253.5826 120.8936
" />
<path d="M253.5826 120.8936
L253.7165 120.8222
" />
<path d="M252.4308 120.8222
L252.2968 120.8936
" />
<path d="M252.2968 120.8936
L252.0111 120.8936
" />
<path d="M252.0111 120.8936
L251.8593 120.8222
" />
<path d="M251.8593 120.8222
L251.7701 120.6793
" />
<path d="M251.7701 120.6793
L251.7611 120.6079
" />
<path d="M251.7611 120.6079
L251.8147 120.4651
" />
<path d="M251.8147 120.4651
L251.9486 120.3936
" />
<path d="M251.9486 120.3936
L252.1629 120.3936
" />
<path d="M252.1629 120.3936
L252.2968 120.3222
" />
<path d="M252.2968 120.3222
L252.3504 120.1793
" />
<path d="M252.3504 120.1793
L252.3415 120.1079
" />
<path d="M252.3415 120.1079
L252.2522 119.9651
" />
<path d="M252.2522 119.9651
L252.1004 119.8936
" />
<path d="M252.1004 119.8936
L251.8861 119.8936
" />
<path d="M251.8861 119.8936
L251.7522 119.9651
" />
<path d="M251.1361 120.7508
L251.0736 120.8222
" />
<path d="M251.0736 120.8222
L251.1540 120.8936
" />
<path d="M251.1540 120.8936
L251.2165 120.8222
" />
<path d="M251.2165 120.8222
L251.1361 120.7508
" />
<path d="M251.1361 120.7508
L251.1540 120.8936
" />
<path d="M251.0379 119.9651
L250.9754 120.0365
" />
<path d="M250.9754 120.0365
L251.0558 120.1079
" />
<path d="M251.0558 120.1079
L251.1183 120.0365
" />
<path d="M251.1183 120.0365
L251.0379 119.9651
" />
<path d="M251.0379 119.9651
L251.0558 120.1079
" />
<path d="M249.1718 119.3222
L250.6986 121.2508
" />
<path d="M247.6004 119.3222
L249.1272 121.2508
" />
<path d="M246.5290 119.8936
L246.6808 121.1079
" />
<path d="M246.6808 121.1079
L246.7701 121.2508
" />
<path d="M246.7701 121.2508
L246.8504 121.3222
" />
<path d="M246.8504 121.3222
L247.0022 121.3936
" />
<path d="M247.0022 121.3936
L247.2165 121.3936
" />
<path d="M247.2165 121.3936
L247.3504 121.3222
" />
<path d="M246.6451 120.8222
L246.7968 120.8936
" />
<path d="M246.7968 120.8936
L247.0826 120.8936
" />
<path d="M247.0826 120.8936
L247.2165 120.8222
" />
<path d="M247.2165 120.8222
L247.2790 120.7508
" />
<path d="M247.2790 120.7508
L247.3326 120.6079
" />
<path d="M247.3326 120.6079
L247.2790 120.1793
" />
<path d="M247.2790 120.1793
L247.1897 120.0365
" />
<path d="M247.1897 120.0365
L247.1093 119.9651
" />
<path d="M247.1093 119.9651
L246.9576 119.8936
" />
<path d="M246.9576 119.8936
L246.6718 119.8936
" />
<path d="M246.6718 119.8936
L246.5379 119.9651
" />
<path d="M245.9397 120.8936
L245.8147 119.8936
" />
<path d="M245.7522 119.3936
L245.8326 119.4651
" />
<path d="M245.8326 119.4651
L245.7701 119.5365
" />
<path d="M245.7701 119.5365
L245.6897 119.4651
" />
<path d="M245.6897 119.4651
L245.7522 119.3936
" />
<path d="M245.7522 119.3936
L245.7701 119.5365
" />
<path d="M245.3147 119.8936
L244.7433 119.8936
" />
<path d="M245.0379 119.3936
L245.1986 120.6793
" />
<path d="M245.1986 120.6793
L245.1451 120.8222
" />
<path d="M245.1451 120.8222
L245.0111 120.8936
" />
<path d="M245.0111 120.8936
L244.8683 120.8936
" />
<path d="M244.3683 120.8936
L244.1808 119.3936
" />
<path d="M243.7254 120.8936
L243.6272 120.1079
" />
<path d="M243.6272 120.1079
L243.6808 119.9651
" />
<path d="M243.6808 119.9651
L243.8147 119.8936
" />
<path d="M243.8147 119.8936
L244.0290 119.8936
" />
<path d="M244.0290 119.8936
L244.1808 119.9651
" />
<path d="M244.1808 119.9651
L244.2611 120.0365
" />
<path d="M242.2433 119.8936
L242.3683 120.8936
" />
<path d="M242.8861 119.8936
L242.9843 120.6793
" />
<path d="M242.9843 120.6793
L242.9308 120.8222
" />
<path d="M242.9308 120.8222
L242.7968 120.8936
" />
<path d="M242.7968 120.8936
L242.5826 120.8936
" />
<path d="M242.5826 120.8936
L242.4308 120.8222
" />
<path d="M242.4308 120.8222
L242.3504 120.7508
" />
<path d="M241.6540 120.8936
L241.4665 119.3936
" />
<path d="M241.5379 119.9651
L241.3861 119.8936
" />
<path d="M241.3861 119.8936
L241.1004 119.8936
" />
<path d="M241.1004 119.8936
L240.9665 119.9651
" />
<path d="M240.9665 119.9651
L240.9040 120.0365
" />
<path d="M240.9040 120.0365
L240.8504 120.1793
" />
<path d="M240.8504 120.1793
L240.9040 120.6079
" />
<path d="M240.9040 120.6079
L240.9933 120.7508
" />
<path d="M240.9933 120.7508
L241.0736 120.8222
" />
<path d="M241.0736 120.8222
L241.2254 120.8936
" />
<path d="M241.2254 120.8936
L241.5111 120.8936
" />
<path d="M241.5111 120.8936
L241.6451 120.8222
" />
<path d="M240.2790 120.7508
L240.2165 120.8222
" />
<path d="M240.2165 120.8222
L240.2968 120.8936
" />
<path d="M240.2968 120.8936
L240.3593 120.8222
" />
<path d="M240.3593 120.8222
L240.2790 120.7508
" />
<path d="M240.2790 120.7508
L240.2968 120.8936
" />
<path d="M238.9308 120.8222
L239.0826 120.8936
" />
<path d="M239.0826 120.8936
L239.3683 120.8936
" />
<path d="M239.3683 120.8936
L239.5022 120.8222
" />
<path d="M239.5022 120.8222
L239.5647 120.7508
" />
<path d="M239.5647 120.7508
L239.6183 120.6079
" />
<path d="M239.6183 120.6079
L239.5647 120.1793
" />
<path d="M239.5647 120.1793
L239.4754 120.0365
" />
<path d="M239.4754 120.0365
L239.3951 119.9651
" />
<path d="M239.3951 119.9651
L239.2433 119.8936
" />
<path d="M239.2433 119.8936
L238.9576 119.8936
" />
<path d="M238.9576 119.8936
L238.8236 119.9651
" />
<path d="M238.0826 120.8936
L238.2165 120.8222
" />
<path d="M238.2165 120.8222
L238.2790 120.7508
" />
<path d="M238.2790 120.7508
L238.3326 120.6079
" />
<path d="M238.3326 120.6079
L238.2790 120.1793
" />
<path d="M238.2790 120.1793
L238.1897 120.0365
" />
<path d="M238.1897 120.0365
L238.1093 119.9651
" />
<path d="M238.1093 119.9651
L237.9576 119.8936
" />
<path d="M237.9576 119.8936
L237.7433 119.8936
" />
<path d="M237.7433 119.8936
L237.6093 119.9651
" />
<path d="M237.6093 119.9651
L237.5468 120.0365
" />
<path d="M237.5468 120.0365
L237.4933 120.1793
" />
<path d="M237.4933 120.1793
L237.5468 120.6079
" />
<path d="M237.5468 120.6079
L237.6361 120.7508
" />
<path d="M237.6361 120.7508
L237.7165 120.8222
" />
<path d="M237.7165 120.8222
L237.8683 120.8936
" />
<path d="M237.8683 120.8936
L238.0826 120.8936
" />
<path d="M236.9397 120.8936
L236.8147 119.8936
" />
<path d="M236.8326 120.0365
L236.7522 119.9651
" />
<path d="M236.7522 119.9651
L236.6004 119.8936
" />
<path d="M236.6004 119.8936
L236.3861 119.8936
" />
<path d="M236.3861 119.8936
L236.2522 119.9651
" />
<path d="M236.2522 119.9651
L236.1986 120.1079
" />
<path d="M236.1986 120.1079
L236.2968 120.8936
" />
<path d="M236.1986 120.1079
L236.1093 119.9651
" />
<path d="M236.1093 119.9651
L235.9576 119.8936
" />
<path d="M235.9576 119.8936
L235.7433 119.8936
" />
<path d="M235.7433 119.8936
L235.6093 119.9651
" />
<path d="M235.6093 119.9651
L235.5558 120.1079
" />
<path d="M235.5558 120.1079
L235.6540 120.8936
" />
<path d="M233.6718 119.3222
L235.1986 121.2508
" />
<path d="M233.3683 120.8936
L233.2433 119.8936
" />
<path d="M233.2790 120.1793
L233.1897 120.0365
" />
<path d="M233.1897 120.0365
L233.1093 119.9651
" />
<path d="M233.1093 119.9651
L232.9576 119.8936
" />
<path d="M232.9576 119.8936
L232.8147 119.8936
" />
<path d="M231.7968 120.8936
L231.6986 120.1079
" />
<path d="M231.6986 120.1079
L231.7522 119.9651
" />
<path d="M231.7522 119.9651
L231.8861 119.8936
" />
<path d="M231.8861 119.8936
L232.1718 119.8936
" />
<path d="M232.1718 119.8936
L232.3236 119.9651
" />
<path d="M231.7879 120.8222
L231.9397 120.8936
" />
<path d="M231.9397 120.8936
L232.2968 120.8936
" />
<path d="M232.2968 120.8936
L232.4308 120.8222
" />
<path d="M232.4308 120.8222
L232.4843 120.6793
" />
<path d="M232.4843 120.6793
L232.4665 120.5365
" />
<path d="M232.4665 120.5365
L232.3772 120.3936
" />
<path d="M232.3772 120.3936
L232.2254 120.3222
" />
<path d="M232.2254 120.3222
L231.8683 120.3222
" />
<path d="M231.8683 120.3222
L231.7165 120.2508
" />
<path d="M231.1451 120.8222
L231.0111 120.8936
" />
<path d="M231.0111 120.8936
L230.7254 120.8936
" />
<path d="M230.7254 120.8936
L230.5736 120.8222
" />
<path d="M230.5736 120.8222
L230.4843 120.6793
" />
<path d="M230.4843 120.6793
L230.4754 120.6079
" />
<path d="M230.4754 120.6079
L230.5290 120.4651
" />
<path d="M230.5290 120.4651
L230.6629 120.3936
" />
<path d="M230.6629 120.3936
L230.8772 120.3936
" />
<path d="M230.8772 120.3936
L231.0111 120.3222
" />
<path d="M231.0111 120.3222
L231.0647 120.1793
" />
<path d="M231.0647 120.1793
L231.0558 120.1079
" />
<path d="M231.0558 120.1079
L230.9665 119.9651
" />
<path d="M230.9665 119.9651
L230.8147 119.8936
" />
<path d="M230.8147 119.8936
L230.6004 119.8936
" />
<path d="M230.6004 119.8936
L230.4665 119.9651
" />
<path d="M229.7433 119.8936
L229.9308 121.3936
" />
<path d="M229.7522 119.9651
L229.6004 119.8936
" />
<path d="M229.6004 119.8936
L229.3147 119.8936
" />
<path d="M229.3147 119.8936
L229.1808 119.9651
" />
<path d="M229.1808 119.9651
L229.1183 120.0365
" />
<path d="M229.1183 120.0365
L229.0647 120.1793
" />
<path d="M229.0647 120.1793
L229.1183 120.6079
" />
<path d="M229.1183 120.6079
L229.2076 120.7508
" />
<path d="M229.2076 120.7508
L229.2879 120.8222
" />
<path d="M229.2879 120.8222
L229.4397 120.8936
" />
<path d="M229.4397 120.8936
L229.7254 120.8936
" />
<path d="M229.7254 120.8936
L229.8593 120.8222
" />
<path d="M228.5111 120.8936
L228.3236 119.3936
" />
<path d="M228.3951 119.9651
L228.2433 119.8936
" />
<path d="M228.2433 119.8936
L227.9576 119.8936
" />
<path d="M227.9576 119.8936
L227.8236 119.9651
" />
<path d="M227.8236 119.9651
L227.7611 120.0365
" />
<path d="M227.7611 120.0365
L227.7076 120.1793
" />
<path d="M227.7076 120.1793
L227.7611 120.6079
" />
<path d="M227.7611 120.6079
L227.8504 120.7508
" />
<path d="M227.8504 120.7508
L227.9308 120.8222
" />
<path d="M227.9308 120.8222
L228.0826 120.8936
" />
<path d="M228.0826 120.8936
L228.3683 120.8936
" />
<path d="M228.3683 120.8936
L228.5022 120.8222
" />
<path d="M226.5736 120.8222
L226.7254 120.8936
" />
<path d="M226.7254 120.8936
L227.0111 120.8936
" />
<path d="M227.0111 120.8936
L227.1451 120.8222
" />
<path d="M227.1451 120.8222
L227.1986 120.6793
" />
<path d="M227.1986 120.6793
L227.1272 120.1079
" />
<path d="M227.1272 120.1079
L227.0379 119.9651
" />
<path d="M227.0379 119.9651
L226.8861 119.8936
" />
<path d="M226.8861 119.8936
L226.6004 119.8936
" />
<path d="M226.6004 119.8936
L226.4665 119.9651
" />
<path d="M226.4665 119.9651
L226.4129 120.1079
" />
<path d="M226.4129 120.1079
L226.4308 120.2508
" />
<path d="M226.4308 120.2508
L227.1629 120.3936
" />
<path d="M225.8683 120.8936
L225.7433 119.8936
" />
<path d="M225.7790 120.1793
L225.6897 120.0365
" />
<path d="M225.6897 120.0365
L225.6093 119.9651
" />
<path d="M225.6093 119.9651
L225.4576 119.8936
" />
<path d="M225.4576 119.8936
L225.3147 119.8936
" />
<path d="M224.9397 120.8936
L224.8147 119.8936
" />
<path d="M224.8504 120.1793
L224.7611 120.0365
" />
<path d="M224.7611 120.0365
L224.6808 119.9651
" />
<path d="M224.6808 119.9651
L224.5290 119.8936
" />
<path d="M224.5290 119.8936
L224.3861 119.8936
" />
<path d="M224.0290 119.8936
L223.7968 120.8936
" />
<path d="M223.3147 119.8936
L223.7968 120.8936
" />
<path d="M223.7968 120.8936
L223.9843 121.2508
" />
<path d="M223.9843 121.2508
L224.0647 121.3222
" />
<path d="M224.0647 121.3222
L224.2165 121.3936
" />
<path d="M222.7433 119.8936
L222.9308 121.3936
" />
<path d="M222.7522 119.9651
L222.6004 119.8936
" />
<path d="M222.6004 119.8936
L222.3147 119.8936
" />
<path d="M222.3147 119.8936
L222.1808 119.9651
" />
<path d="M222.1808 119.9651
L222.1183 120.0365
" />
<path d="M222.1183 120.0365
L222.0647 120.1793
" />
<path d="M222.0647 120.1793
L222.1183 120.6079
" />
<path d="M222.1183 120.6079
L222.2076 120.7508
" />
<path d="M222.2076 120.7508
L222.2879 120.8222
" />
<path d="M222.2879 120.8222
L222.4397 120.8936
" />
<path d="M222.4397 120.8936
L222.7254 120.8936
" />
<path d="M222.7254 120.8936
L222.8593 120.8222
" />
<path d="M221.5111 120.8936
L221.3861 119.8936
" />
<path d="M221.3236 119.3936
L221.4040 119.4651
" />
<path d="M221.4040 119.4651
L221.3415 119.5365
" />
<path d="M221.3415 119.5365
L221.2611 119.4651
" />
<path d="M221.2611 119.4651
L221.3236 119.3936
" />
<path d="M221.3236 119.3936
L221.3415 119.5365
" />
<path d="M219.5290 119.3222
L221.0558 121.2508
" />
<path d="M219.2254 120.8936
L219.0379 119.3936
" />
<path d="M218.5826 120.8936
L218.4843 120.1079
" />
<path d="M218.4843 120.1079
L218.5379 119.9651
" />
<path d="M218.5379 119.9651
L218.6718 119.8936
" />
<path d="M218.6718 119.8936
L218.8861 119.8936
" />
<path d="M218.8861 119.8936
L219.0379 119.9651
" />
<path d="M219.0379 119.9651
L219.1183 120.0365
" />
<path d="M217.2254 120.8936
L217.1272 120.1079
" />
<path d="M217.1272 120.1079
L217.1808 119.9651
" />
<path d="M217.1808 119.9651
L217.3147 119.8936
" />
<path d="M217.3147 119.8936
L217.6004 119.8936
" />
<path d="M217.6004 119.8936
L217.7522 119.9651
" />
<path d="M217.2165 120.8222
L217.3683 120.8936
" />
<path d="M217.3683 120.8936
L217.7254 120.8936
" />
<path d="M217.7254 120.8936
L217.8593 120.8222
" />
<path d="M217.8593 120.8222
L217.9129 120.6793
" />
<path d="M217.9129 120.6793
L217.8951 120.5365
" />
<path d="M217.8951 120.5365
L217.8058 120.3936
" />
<path d="M217.8058 120.3936
L217.6540 120.3222
" />
<path d="M217.6540 120.3222
L217.2968 120.3222
" />
<path d="M217.2968 120.3222
L217.1451 120.2508
" />
<path d="M216.6004 119.8936
L216.0290 119.8936
" />
<path d="M216.3236 119.3936
L216.4843 120.6793
" />
<path d="M216.4843 120.6793
L216.4308 120.8222
" />
<path d="M216.4308 120.8222
L216.2968 120.8936
" />
<path d="M216.2968 120.8936
L216.1540 120.8936
" />
<path d="M215.7165 120.8222
L215.5826 120.8936
" />
<path d="M215.5826 120.8936
L215.2968 120.8936
" />
<path d="M215.2968 120.8936
L215.1451 120.8222
" />
<path d="M215.1451 120.8222
L215.0558 120.6793
" />
<path d="M215.0558 120.6793
L215.0468 120.6079
" />
<path d="M215.0468 120.6079
L215.1004 120.4651
" />
<path d="M215.1004 120.4651
L215.2343 120.3936
" />
<path d="M215.2343 120.3936
L215.4486 120.3936
" />
<path d="M215.4486 120.3936
L215.5826 120.3222
" />
<path d="M215.5826 120.3222
L215.6361 120.1793
" />
<path d="M215.6361 120.1793
L215.6272 120.1079
" />
<path d="M215.6272 120.1079
L215.5379 119.9651
" />
<path d="M215.5379 119.9651
L215.3861 119.8936
" />
<path d="M215.3861 119.8936
L215.1718 119.8936
" />
<path d="M215.1718 119.8936
L215.0379 119.9651
" />
<path d="M213.1718 119.3222
L214.6986 121.2508
" />
<path d="M212.8683 120.8936
L212.6808 119.3936
" />
<path d="M212.7522 119.9651
L212.6004 119.8936
" />
<path d="M212.6004 119.8936
L212.3147 119.8936
" />
<path d="M212.3147 119.8936
L212.1808 119.9651
" />
<path d="M212.1808 119.9651
L212.1183 120.0365
" />
<path d="M212.1183 120.0365
L212.0647 120.1793
" />
<path d="M212.0647 120.1793
L212.1183 120.6079
" />
<path d="M212.1183 120.6079
L212.2076 120.7508
" />
<path d="M212.2076 120.7508
L212.2879 120.8222
" />
<path d="M212.2879 120.8222
L212.4397 120.8936
" />
<path d="M212.4397 120.8936
L212.7254 120.8936
" />
<path d="M212.7254 120.8936
L212.8593 120.8222
" />
<path d="M211.2968 120.8936
L211.4308 120.8222
" />
<path d="M211.4308 120.8222
L211.4843 120.6793
" />
<path d="M211.4843 120.6793
L211.3236 119.3936
" />
<path d="M210.5111 120.8936
L210.6451 120.8222
" />
<path d="M210.6451 120.8222
L210.7076 120.7508
" />
<path d="M210.7076 120.7508
L210.7611 120.6079
" />
<path d="M210.7611 120.6079
L210.7076 120.1793
" />
<path d="M210.7076 120.1793
L210.6183 120.0365
" />
<path d="M210.6183 120.0365
L210.5379 119.9651
" />
<path d="M210.5379 119.9651
L210.3861 119.8936
" />
<path d="M210.3861 119.8936
L210.1718 119.8936
" />
<path d="M210.1718 119.8936
L210.0379 119.9651
" />
<path d="M210.0379 119.9651
L209.9754 120.0365
" />
<path d="M209.9754 120.0365
L209.9218 120.1793
" />
<path d="M209.9218 120.1793
L209.9754 120.6079
" />
<path d="M209.9754 120.6079
L210.0647 120.7508
" />
<path d="M210.0647 120.7508
L210.1451 120.8222
" />
<path d="M210.1451 120.8222
L210.2968 120.8936
" />
<path d="M210.2968 120.8936
L210.5111 120.8936
" />
<path d="M209.3683 120.8936
L209.1808 119.3936
" />
<path d="M209.2522 119.9651
L209.1004 119.8936
" />
<path d="M209.1004 119.8936
L208.8147 119.8936
" />
<path d="M208.8147 119.8936
L208.6808 119.9651
" />
<path d="M208.6808 119.9651
L208.6183 120.0365
" />
<path d="M208.6183 120.0365
L208.5647 120.1793
" />
<path d="M208.5647 120.1793
L208.6183 120.6079
" />
<path d="M208.6183 120.6079
L208.7076 120.7508
" />
<path d="M208.7076 120.7508
L208.7879 120.8222
" />
<path d="M208.7879 120.8222
L208.9397 120.8936
" />
<path d="M208.9397 120.8936
L209.2254 120.8936
" />
<path d="M209.2254 120.8936
L209.3593 120.8222
" />
<path d="M206.7433 119.3222
L208.2701 121.2508
" />
<path d="M206.4397 120.8936
L206.3147 119.8936
" />
<path d="M206.3326 120.0365
L206.2522 119.9651
" />
<path d="M206.2522 119.9651
L206.1004 119.8936
" />
<path d="M206.1004 119.8936
L205.8861 119.8936
" />
<path d="M205.8861 119.8936
L205.7522 119.9651
" />
<path d="M205.7522 119.9651
L205.6986 120.1079
" />
<path d="M205.6986 120.1079
L205.7968 120.8936
" />
<path d="M205.6986 120.1079
L205.6093 119.9651
" />
<path d="M205.6093 119.9651
L205.4576 119.8936
" />
<path d="M205.4576 119.8936
L205.2433 119.8936
" />
<path d="M205.2433 119.8936
L205.1093 119.9651
" />
<path d="M205.1093 119.9651
L205.0558 120.1079
" />
<path d="M205.0558 120.1079
L205.1540 120.8936
" />
<path d="M203.7968 120.8936
L203.6986 120.1079
" />
<path d="M203.6986 120.1079
L203.7522 119.9651
" />
<path d="M203.7522 119.9651
L203.8861 119.8936
" />
<path d="M203.8861 119.8936
L204.1718 119.8936
" />
<path d="M204.1718 119.8936
L204.3236 119.9651
" />
<path d="M203.7879 120.8222
L203.9397 120.8936
" />
<path d="M203.9397 120.8936
L204.2968 120.8936
" />
<path d="M204.2968 120.8936
L204.4308 120.8222
" />
<path d="M204.4308 120.8222
L204.4843 120.6793
" />
<path d="M204.4843 120.6793
L204.4665 120.5365
" />
<path d="M204.4665 120.5365
L204.3772 120.3936
" />
<path d="M204.3772 120.3936
L204.2254 120.3222
" />
<path d="M204.2254 120.3222
L203.8683 120.3222
" />
<path d="M203.8683 120.3222
L203.7165 120.2508
" />
<path d="M203.1451 120.8222
L203.0111 120.8936
" />
<path d="M203.0111 120.8936
L202.7254 120.8936
" />
<path d="M202.7254 120.8936
L202.5736 120.8222
" />
<path d="M202.5736 120.8222
L202.4843 120.6793
" />
<path d="M202.4843 120.6793
L202.4754 120.6079
" />
<path d="M202.4754 120.6079
L202.5290 120.4651
" />
<path d="M202.5290 120.4651
L202.6629 120.3936
" />
<path d="M202.6629 120.3936
L202.8772 120.3936
" />
<path d="M202.8772 120.3936
L203.0111 120.3222
" />
<path d="M203.0111 120.3222
L203.0647 120.1793
" />
<path d="M203.0647 120.1793
L203.0558 120.1079
" />
<path d="M203.0558 120.1079
L202.9665 119.9651
" />
<path d="M202.9665 119.9651
L202.8147 119.8936
" />
<path d="M202.8147 119.8936
L202.6004 119.8936
" />
<path d="M202.6004 119.8936
L202.4665 119.9651
" />
<path d="M201.9576 119.8936
L201.3861 119.8936
" />
<path d="M201.6808 119.3936
L201.8415 120.6793
" />
<path d="M201.8415 120.6793
L201.7879 120.8222
" />
<path d="M201.7879 120.8222
L201.6540 120.8936
" />
<path d="M201.6540 120.8936
L201.5111 120.8936
" />
<path d="M200.4308 120.8222
L200.5826 120.8936
" />
<path d="M200.5826 120.8936
L200.8683 120.8936
" />
<path d="M200.8683 120.8936
L201.0022 120.8222
" />
<path d="M201.0022 120.8222
L201.0558 120.6793
" />
<path d="M201.0558 120.6793
L200.9843 120.1079
" />
<path d="M200.9843 120.1079
L200.8951 119.9651
" />
<path d="M200.8951 119.9651
L200.7433 119.8936
" />
<path d="M200.7433 119.8936
L200.4576 119.8936
" />
<path d="M200.4576 119.8936
L200.3236 119.9651
" />
<path d="M200.3236 119.9651
L200.2701 120.1079
" />
<path d="M200.2701 120.1079
L200.2879 120.2508
" />
<path d="M200.2879 120.2508
L201.0201 120.3936
" />
<path d="M199.7254 120.8936
L199.6004 119.8936
" />
<path d="M199.6361 120.1793
L199.5468 120.0365
" />
<path d="M199.5468 120.0365
L199.4665 119.9651
" />
<path d="M199.4665 119.9651
L199.3147 119.8936
" />
<path d="M199.3147 119.8936
L199.1718 119.8936
" />
<path d="M197.5290 119.3222
L199.0558 121.2508
" />
<path d="M197.2254 120.8936
L197.0379 119.3936
" />
<path d="M196.5826 120.8936
L196.4843 120.1079
" />
<path d="M196.4843 120.1079
L196.5379 119.9651
" />
<path d="M196.5379 119.9651
L196.6718 119.8936
" />
<path d="M196.6718 119.8936
L196.8861 119.8936
" />
<path d="M196.8861 119.8936
L197.0379 119.9651
" />
<path d="M197.0379 119.9651
L197.1183 120.0365
" />
<path d="M195.2254 120.8936
L195.1272 120.1079
" />
<path d="M195.1272 120.1079
L195.1808 119.9651
" />
<path d="M195.1808 119.9651
L195.3147 119.8936
" />
<path d="M195.3147 119.8936
L195.6004 119.8936
" />
<path d="M195.6004 119.8936
L195.7522 119.9651
" />
<path d="M195.2165 120.8222
L195.3683 120.8936
" />
<path d="M195.3683 120.8936
L195.7254 120.8936
" />
<path d="M195.7254 120.8936
L195.8593 120.8222
" />
<path d="M195.8593 120.8222
L195.9129 120.6793
" />
<path d="M195.9129 120.6793
L195.8951 120.5365
" />
<path d="M195.8951 120.5365
L195.8058 120.3936
" />
<path d="M195.8058 120.3936
L195.6540 120.3222
" />
<path d="M195.6540 120.3222
L195.2968 120.3222
" />
<path d="M195.2968 120.3222
L195.1451 120.2508
" />
<path d="M194.6004 119.8936
L194.0290 119.8936
" />
<path d="M194.3236 119.3936
L194.4843 120.6793
" />
<path d="M194.4843 120.6793
L194.4308 120.8222
" />
<path d="M194.4308 120.8222
L194.2968 120.8936
" />
<path d="M194.2968 120.8936
L194.1540 120.8936
" />
<path d="M193.5826 120.3222
L192.4397 120.3222
" />
<path d="M191.7968 120.8936
L191.6093 119.3936
" />
<path d="M191.6808 119.9651
L191.5290 119.8936
" />
<path d="M191.5290 119.8936
L191.2433 119.8936
" />
<path d="M191.2433 119.8936
L191.1093 119.9651
" />
<path d="M191.1093 119.9651
L191.0468 120.0365
" />
<path d="M191.0468 120.0365
L190.9933 120.1793
" />
<path d="M190.9933 120.1793
L191.0468 120.6079
" />
<path d="M191.0468 120.6079
L191.1361 120.7508
" />
<path d="M191.1361 120.7508
L191.2165 120.8222
" />
<path d="M191.2165 120.8222
L191.3683 120.8936
" />
<path d="M191.3683 120.8936
L191.6540 120.8936
" />
<path d="M191.6540 120.8936
L191.7879 120.8222
" />
<path d="M190.2254 120.8936
L190.3593 120.8222
" />
<path d="M190.3593 120.8222
L190.4218 120.7508
" />
<path d="M190.4218 120.7508
L190.4754 120.6079
" />
<path d="M190.4754 120.6079
L190.4218 120.1793
" />
<path d="M190.4218 120.1793
L190.3326 120.0365
" />
<path d="M190.3326 120.0365
L190.2522 119.9651
" />
<path d="M190.2522 119.9651
L190.1004 119.8936
" />
<path d="M190.1004 119.8936
L189.8861 119.8936
" />
<path d="M189.8861 119.8936
L189.7522 119.9651
" />
<path d="M189.7522 119.9651
L189.6897 120.0365
" />
<path d="M189.6897 120.0365
L189.6361 120.1793
" />
<path d="M189.6361 120.1793
L189.6897 120.6079
" />
<path d="M189.6897 120.6079
L189.7790 120.7508
" />
<path d="M189.7790 120.7508
L189.8593 120.8222
" />
<path d="M189.8593 120.8222
L190.0111 120.8936
" />
<path d="M190.0111 120.8936
L190.2254 120.8936
" />
<path d="M188.4397 120.8936
L188.3415 120.1079
" />
<path d="M188.3415 120.1079
L188.3951 119.9651
" />
<path d="M188.3951 119.9651
L188.5290 119.8936
" />
<path d="M188.5290 119.8936
L188.8147 119.8936
" />
<path d="M188.8147 119.8936
L188.9665 119.9651
" />
<path d="M188.4308 120.8222
L188.5826 120.8936
" />
<path d="M188.5826 120.8936
L188.9397 120.8936
" />
<path d="M188.9397 120.8936
L189.0736 120.8222
" />
<path d="M189.0736 120.8222
L189.1272 120.6793
" />
<path d="M189.1272 120.6793
L189.1093 120.5365
" />
<path d="M189.1093 120.5365
L189.0201 120.3936
" />
<path d="M189.0201 120.3936
L188.8683 120.3222
" />
<path d="M188.8683 120.3222
L188.5111 120.3222
" />
<path d="M188.5111 120.3222
L188.3593 120.2508
" />
<path d="M187.7254 120.8936
L187.6004 119.8936
" />
<path d="M187.6361 120.1793
L187.5468 120.0365
" />
<path d="M187.5468 120.0365
L187.4665 119.9651
" />
<path d="M187.4665 119.9651
L187.3147 119.8936
" />
<path d="M187.3147 119.8936
L187.1718 119.8936
" />
<path d="M186.1540 120.8936
L185.9665 119.3936
" />
<path d="M186.1451 120.8222
L186.2968 120.8936
" />
<path d="M186.2968 120.8936
L186.5826 120.8936
" />
<path d="M186.5826 120.8936
L186.7165 120.8222
" />
<path d="M186.7165 120.8222
L186.7790 120.7508
" />
<path d="M186.7790 120.7508
L186.8326 120.6079
" />
<path d="M186.8326 120.6079
L186.7790 120.1793
" />
<path d="M186.7790 120.1793
L186.6897 120.0365
" />
<path d="M186.6897 120.0365
L186.6093 119.9651
" />
<path d="M186.6093 119.9651
L186.4576 119.8936
" />
<path d="M186.4576 119.8936
L186.1718 119.8936
" />
<path d="M186.1718 119.8936
L186.0379 119.9651
" />
<path d="M185.3683 120.3222
L184.2254 120.3222
" />
<path d="M183.5826 120.8936
L183.4576 119.8936
" />
<path d="M183.4754 120.0365
L183.3951 119.9651
" />
<path d="M183.3951 119.9651
L183.2433 119.8936
" />
<path d="M183.2433 119.8936
L183.0290 119.8936
" />
<path d="M183.0290 119.8936
L182.8951 119.9651
" />
<path d="M182.8951 119.9651
L182.8415 120.1079
" />
<path d="M182.8415 120.1079
L182.9397 120.8936
" />
<path d="M182.8415 120.1079
L182.7522 119.9651
" />
<path d="M182.7522 119.9651
L182.6004 119.8936
" />
<path d="M182.6004 119.8936
L182.3861 119.8936
" />
<path d="M182.3861 119.8936
L182.2522 119.9651
" />
<path d="M182.2522 119.9651
L182.1986 120.1079
" />
<path d="M182.1986 120.1079
L182.2968 120.8936
" />
<path d="M181.0022 120.8222
L181.1540 120.8936
" />
<path d="M181.1540 120.8936
L181.4397 120.8936
" />
<path d="M181.4397 120.8936
L181.5736 120.8222
" />
<path d="M181.5736 120.8222
L181.6272 120.6793
" />
<path d="M181.6272 120.6793
L181.5558 120.1079
" />
<path d="M181.5558 120.1079
L181.4665 119.9651
" />
<path d="M181.4665 119.9651
L181.3147 119.8936
" />
<path d="M181.3147 119.8936
L181.0290 119.8936
" />
<path d="M181.0290 119.8936
L180.8951 119.9651
" />
<path d="M180.8951 119.9651
L180.8415 120.1079
" />
<path d="M180.8415 120.1079
L180.8593 120.2508
" />
<path d="M180.8593 120.2508
L181.5915 120.3936
" />
<path d="M179.6451 120.8222
L179.7968 120.8936
" />
<path d="M179.7968 120.8936
L180.0826 120.8936
" />
<path d="M180.0826 120.8936
L180.2165 120.8222
" />
<path d="M180.2165 120.8222
L180.2790 120.7508
" />
<path d="M180.2790 120.7508
L180.3326 120.6079
" />
<path d="M180.3326 120.6079
L180.2790 120.1793
" />
<path d="M180.2790 120.1793
L180.1897 120.0365
" />
<path d="M180.1897 120.0365
L180.1093 119.9651
" />
<path d="M180.1093 119.9651
L179.9576 119.8936
" />
<path d="M179.9576 119.8936
L179.6718 119.8936
" />
<path d="M179.6718 119.8936
L179.5379 119.9651
" />
<path d="M179.0111 120.8936
L178.8236 119.3936
" />
<path d="M178.3683 120.8936
L178.2701 120.1079
" />
<path d="M178.2701 120.1079
L178.3236 119.9651
" />
<path d="M178.3236 119.9651
L178.4576 119.8936
" />
<path d="M178.4576 119.8936
L178.6718 119.8936
" />
<path d="M178.6718 119.8936
L178.8236 119.9651
" />
<path d="M178.8236 119.9651
L178.9040 120.0365
" />
<path d="M177.0111 120.8936
L176.9129 120.1079
" />
<path d="M176.9129 120.1079
L176.9665 119.9651
" />
<path d="M176.9665 119.9651
L177.1004 119.8936
" />
<path d="M177.1004 119.8936
L177.3861 119.8936
" />
<path d="M177.3861 119.8936
L177.5379 119.9651
" />
<path d="M177.0022 120.8222
L177.1540 120.8936
" />
<path d="M177.1540 120.8936
L177.5111 120.8936
" />
<path d="M177.5111 120.8936
L177.6451 120.8222
" />
<path d="M177.6451 120.8222
L177.6986 120.6793
" />
<path d="M177.6986 120.6793
L177.6808 120.5365
" />
<path d="M177.6808 120.5365
L177.5915 120.3936
" />
<path d="M177.5915 120.3936
L177.4397 120.3222
" />
<path d="M177.4397 120.3222
L177.0826 120.3222
" />
<path d="M177.0826 120.3222
L176.9308 120.2508
" />
<path d="M176.1718 119.8936
L176.2968 120.8936
" />
<path d="M176.1897 120.0365
L176.1093 119.9651
" />
<path d="M176.1093 119.9651
L175.9576 119.8936
" />
<path d="M175.9576 119.8936
L175.7433 119.8936
" />
<path d="M175.7433 119.8936
L175.6093 119.9651
" />
<path d="M175.6093 119.9651
L175.5558 120.1079
" />
<path d="M175.5558 120.1079
L175.6540 120.8936
" />
<path d="M174.9397 120.8936
L174.8147 119.8936
" />
<path d="M174.7522 119.3936
L174.8326 119.4651
" />
<path d="M174.8326 119.4651
L174.7701 119.5365
" />
<path d="M174.7701 119.5365
L174.6897 119.4651
" />
<path d="M174.6897 119.4651
L174.7522 119.3936
" />
<path d="M174.7522 119.3936
L174.7701 119.5365
" />
<path d="M173.5736 120.8222
L173.7254 120.8936
" />
<path d="M173.7254 120.8936
L174.0111 120.8936
" />
<path d="M174.0111 120.8936
L174.1451 120.8222
" />
<path d="M174.1451 120.8222
L174.2076 120.7508
" />
<path d="M174.2076 120.7508
L174.2611 120.6079
" />
<path d="M174.2611 120.6079
L174.2076 120.1793
" />
<path d="M174.2076 120.1793
L174.1183 120.0365
" />
<path d="M174.1183 120.0365
L174.0379 119.9651
" />
<path d="M174.0379 119.9651
L173.8861 119.8936
" />
<path d="M173.8861 119.8936
L173.6004 119.8936
" />
<path d="M173.6004 119.8936
L173.4665 119.9651
" />
<path d="M172.2968 120.8936
L172.1986 120.1079
" />
<path d="M172.1986 120.1079
L172.2522 119.9651
" />
<path d="M172.2522 119.9651
L172.3861 119.8936
" />
<path d="M172.3861 119.8936
L172.6718 119.8936
" />
<path d="M172.6718 119.8936
L172.8236 119.9651
" />
<path d="M172.2879 120.8222
L172.4397 120.8936
" />
<path d="M172.4397 120.8936
L172.7968 120.8936
" />
<path d="M172.7968 120.8936
L172.9308 120.8222
" />
<path d="M172.9308 120.8222
L172.9843 120.6793
" />
<path d="M172.9843 120.6793
L172.9665 120.5365
" />
<path d="M172.9665 120.5365
L172.8772 120.3936
" />
<path d="M172.8772 120.3936
L172.7254 120.3222
" />
<path d="M172.7254 120.3222
L172.3683 120.3222
" />
<path d="M172.3683 120.3222
L172.2165 120.2508
" />
<path d="M171.3683 120.8936
L171.5022 120.8222
" />
<path d="M171.5022 120.8222
L171.5558 120.6793
" />
<path d="M171.5558 120.6793
L171.3951 119.3936
" />
<path d="M170.7790 120.7508
L170.7165 120.8222
" />
<path d="M170.7165 120.8222
L170.7968 120.8936
" />
<path d="M170.7968 120.8936
L170.8593 120.8222
" />
<path d="M170.8593 120.8222
L170.7790 120.7508
" />
<path d="M170.7790 120.7508
L170.7968 120.8936
" />
<path d="M169.9576 119.8936
L170.1451 121.3936
" />
<path d="M169.9665 119.9651
L169.8147 119.8936
" />
<path d="M169.8147 119.8936
L169.5290 119.8936
" />
<path d="M169.5290 119.8936
L169.3951 119.9651
" />
<path d="M169.3951 119.9651
L169.3326 120.0365
" />
<path d="M169.3326 120.0365
L169.2790 120.1793
" />
<path d="M169.2790 120.1793
L169.3326 120.6079
" />
<path d="M169.3326 120.6079
L169.4218 120.7508
" />
<path d="M169.4218 120.7508
L169.5022 120.8222
" />
<path d="M169.5022 120.8222
L169.6540 120.8936
" />
<path d="M169.6540 120.8936
L169.9397 120.8936
" />
<path d="M169.9397 120.8936
L170.0736 120.8222
" />
<path d="M168.0826 120.8936
L167.8951 119.3936
" />
<path d="M168.0736 120.8222
L168.2254 120.8936
" />
<path d="M168.2254 120.8936
L168.5111 120.8936
" />
<path d="M168.5111 120.8936
L168.6451 120.8222
" />
<path d="M168.6451 120.8222
L168.7076 120.7508
" />
<path d="M168.7076 120.7508
L168.7611 120.6079
" />
<path d="M168.7611 120.6079
L168.7076 120.1793
" />
<path d="M168.7076 120.1793
L168.6183 120.0365
" />
<path d="M168.6183 120.0365
L168.5379 119.9651
" />
<path d="M168.5379 119.9651
L168.3861 119.8936
" />
<path d="M168.3861 119.8936
L168.1004 119.8936
" />
<path d="M168.1004 119.8936
L167.9665 119.9651
" />
<path d="M167.4576 119.8936
L166.8861 119.8936
" />
<path d="M167.3683 120.8936
L167.2076 119.6079
" />
<path d="M167.2076 119.6079
L167.1183 119.4651
" />
<path d="M167.1183 119.4651
L166.9665 119.3936
" />
<path d="M166.9665 119.3936
L166.8236 119.3936
" />
</g><g >
</g>
<g >
</g>
<g >
</g>
<g >
</g>
<g >
</g>
<g >
</g>
<g >
</g>
<g >
</g>
<g >
</g>
<g >
</g>
<g >
</g>
<g >
</g>
<g >
</g>
<g >
</g>
<g >
</g>
<g >
</g>
<g >
</g>
<g >
</g>
<g >
</g>
<g >
</g>
<g >
</g>
<g >
</g>
<g >
</g>
<g >
</g>
<g >
</g>
<g >
</g>
<g >
</g>
<g >
</g>
<g >
</g>
<g >
</g>
<g >
</g>
<g >
</g>
<g >
</g>
<g >
</g>
<g >
</g>
<g >
</g>
<g >
</g>
<g >
</g>
<g >
</g>
<g >
</g>
<g >
</g>
<g >
</g>
<g >
</g>
<g >
</g>
<g >
</g>
<g >
</g>
<g >
</g>
<g >
</g>
<g >
</g>
<g >
</g>
<g >
</g>
<g >
</g>
<g >
</g>
<g >
</g>
<g >
</g>
<g >
</g>
<g >
</g>
<g >
</g>
<g >
</g>
<g >
</g>
<g >
</g>
<g >
</g>
<g >
</g>
<g >
</g>
<g >
</g>
<g >
</g>
<g >
</g>
<g >
</g>
<g >
</g>
<g >
</g>
<g >
</g>
<g >
</g>
<g >
</g>
<g >
</g>
<g >
</g>
<g >
</g>
<g >
</g>
<g >
</g>
<g >
</g>
</g> 
</svg>
