<?xml version="1.0" standalone="no"?>
 <!DOCTYPE svg PUBLIC "-//W3C//DTD SVG 1.1//EN" 
 "http://www.w3.org/Graphics/SVG/1.1/DTD/svg11.dtd"> 
<svg
  xmlns:svg="http://www.w3.org/2000/svg"
  xmlns="http://www.w3.org/2000/svg"
  xmlns:xlink="http://www.w3.org/1999/xlink"
  version="1.1"
  width="297.0022mm" height="210.0072mm" viewBox="0.0000 0.0000 297.0022 210.0072">
<title>SVG Image created as pedalboard-soundcard-User_Drawings.svg date 2023/12/23 20:01:11 </title>
  <desc>Image generated by PCBNEW </desc>
<g style="fill:#000000; fill-opacity:1.0000;stroke:#000000; stroke-opacity:1.0000;
stroke-linecap:round; stroke-linejoin:round;"
 transform="translate(0 0) scale(1 1)">
</g>
<g style="fill:#000000; fill-opacity:0.0; 
stroke:#000000; stroke-width:0.0000; stroke-opacity:1; 
stroke-linecap:round; stroke-linejoin:round;">
</g>
<g style="fill:#000000; fill-opacity:0.0; 
stroke:#000000; stroke-width:0.1500; stroke-opacity:1; 
stroke-linecap:round; stroke-linejoin:round;">
<g transform="rotate(-90.000000 254.1522 98.7500)">
<text x="254.1522" y="99.5000"
textLength="10.2929" font-size="2.0000" lengthAdjust="spacingAndGlyphs"
text-anchor="middle" opacity="0">19.5 mm</text>
</g>
<g class="stroked-text"><desc>19.5 mm</desc>
<path d="M253.4661 102.6786
L253.4661 103.5357
" />
<path d="M253.4661 103.1071
L254.9661 103.1071
" />
<path d="M254.9661 103.1071
L254.7518 103.2500
" />
<path d="M254.7518 103.2500
L254.6089 103.3929
" />
<path d="M254.6089 103.3929
L254.5375 103.5357
" />
<path d="M253.4661 101.9643
L253.4661 101.6786
" />
<path d="M253.4661 101.6786
L253.5375 101.5357
" />
<path d="M253.5375 101.5357
L253.6089 101.4643
" />
<path d="M253.6089 101.4643
L253.8232 101.3214
" />
<path d="M253.8232 101.3214
L254.1089 101.2500
" />
<path d="M254.1089 101.2500
L254.6804 101.2500
" />
<path d="M254.6804 101.2500
L254.8232 101.3214
" />
<path d="M254.8232 101.3214
L254.8946 101.3929
" />
<path d="M254.8946 101.3929
L254.9661 101.5357
" />
<path d="M254.9661 101.5357
L254.9661 101.8214
" />
<path d="M254.9661 101.8214
L254.8946 101.9643
" />
<path d="M254.8946 101.9643
L254.8232 102.0357
" />
<path d="M254.8232 102.0357
L254.6804 102.1071
" />
<path d="M254.6804 102.1071
L254.3232 102.1071
" />
<path d="M254.3232 102.1071
L254.1804 102.0357
" />
<path d="M254.1804 102.0357
L254.1089 101.9643
" />
<path d="M254.1089 101.9643
L254.0375 101.8214
" />
<path d="M254.0375 101.8214
L254.0375 101.5357
" />
<path d="M254.0375 101.5357
L254.1089 101.3929
" />
<path d="M254.1089 101.3929
L254.1804 101.3214
" />
<path d="M254.1804 101.3214
L254.3232 101.2500
" />
<path d="M253.6089 100.6071
L253.5375 100.5357
" />
<path d="M253.5375 100.5357
L253.4661 100.6071
" />
<path d="M253.4661 100.6071
L253.5375 100.6786
" />
<path d="M253.5375 100.6786
L253.6089 100.6071
" />
<path d="M253.6089 100.6071
L253.4661 100.6071
" />
<path d="M254.9661 99.1786
L254.9661 99.8929
" />
<path d="M254.9661 99.8929
L254.2518 99.9643
" />
<path d="M254.2518 99.9643
L254.3232 99.8929
" />
<path d="M254.3232 99.8929
L254.3946 99.7500
" />
<path d="M254.3946 99.7500
L254.3946 99.3929
" />
<path d="M254.3946 99.3929
L254.3232 99.2500
" />
<path d="M254.3232 99.2500
L254.2518 99.1786
" />
<path d="M254.2518 99.1786
L254.1089 99.1071
" />
<path d="M254.1089 99.1071
L253.7518 99.1071
" />
<path d="M253.7518 99.1071
L253.6089 99.1786
" />
<path d="M253.6089 99.1786
L253.5375 99.2500
" />
<path d="M253.5375 99.2500
L253.4661 99.3929
" />
<path d="M253.4661 99.3929
L253.4661 99.7500
" />
<path d="M253.4661 99.7500
L253.5375 99.8929
" />
<path d="M253.5375 99.8929
L253.6089 99.9643
" />
<path d="M253.4661 97.3214
L254.4661 97.3214
" />
<path d="M254.3232 97.3214
L254.3946 97.2500
" />
<path d="M254.3946 97.2500
L254.4661 97.1071
" />
<path d="M254.4661 97.1071
L254.4661 96.8929
" />
<path d="M254.4661 96.8929
L254.3946 96.7500
" />
<path d="M254.3946 96.7500
L254.2518 96.6786
" />
<path d="M254.2518 96.6786
L253.4661 96.6786
" />
<path d="M254.2518 96.6786
L254.3946 96.6071
" />
<path d="M254.3946 96.6071
L254.4661 96.4643
" />
<path d="M254.4661 96.4643
L254.4661 96.2500
" />
<path d="M254.4661 96.2500
L254.3946 96.1071
" />
<path d="M254.3946 96.1071
L254.2518 96.0357
" />
<path d="M254.2518 96.0357
L253.4661 96.0357
" />
<path d="M253.4661 95.3214
L254.4661 95.3214
" />
<path d="M254.3232 95.3214
L254.3946 95.2500
" />
<path d="M254.3946 95.2500
L254.4661 95.1071
" />
<path d="M254.4661 95.1071
L254.4661 94.8929
" />
<path d="M254.4661 94.8929
L254.3946 94.7500
" />
<path d="M254.3946 94.7500
L254.2518 94.6786
" />
<path d="M254.2518 94.6786
L253.4661 94.6786
" />
<path d="M254.2518 94.6786
L254.3946 94.6071
" />
<path d="M254.3946 94.6071
L254.4661 94.4643
" />
<path d="M254.4661 94.4643
L254.4661 94.2500
" />
<path d="M254.4661 94.2500
L254.3946 94.1071
" />
<path d="M254.3946 94.1071
L254.2518 94.0357
" />
<path d="M254.2518 94.0357
L253.4661 94.0357
" />
</g><path d="M249.5022 108.5000
L253.0886 108.5000
" />
<path d="M249.5022 89.0000
L253.0886 89.0000
" />
<path d="M252.5022 108.5000
L252.5022 89.0000
" />
<path d="M252.5022 108.5000
L252.5022 89.0000
" />
<path d="M252.5022 108.5000
L253.0886 107.3735
" />
<path d="M252.5022 108.5000
L251.9158 107.3735
" />
<path d="M252.5022 89.0000
L251.9158 90.1265
" />
<path d="M252.5022 89.0000
L253.0886 90.1265
" />
<g transform="rotate(-90.000000 240.1522 106.7500)">
<text x="240.1522" y="107.5000"
textLength="8.8643" font-size="2.0000" lengthAdjust="spacingAndGlyphs"
text-anchor="middle" opacity="0">3.5 mm</text>
</g>
<g class="stroked-text"><desc>3.5 mm</desc>
<path d="M240.9661 110.8929
L240.9661 109.9643
" />
<path d="M240.9661 109.9643
L240.3946 110.4643
" />
<path d="M240.3946 110.4643
L240.3946 110.2500
" />
<path d="M240.3946 110.2500
L240.3232 110.1071
" />
<path d="M240.3232 110.1071
L240.2518 110.0357
" />
<path d="M240.2518 110.0357
L240.1089 109.9643
" />
<path d="M240.1089 109.9643
L239.7518 109.9643
" />
<path d="M239.7518 109.9643
L239.6089 110.0357
" />
<path d="M239.6089 110.0357
L239.5375 110.1071
" />
<path d="M239.5375 110.1071
L239.4661 110.2500
" />
<path d="M239.4661 110.2500
L239.4661 110.6786
" />
<path d="M239.4661 110.6786
L239.5375 110.8214
" />
<path d="M239.5375 110.8214
L239.6089 110.8929
" />
<path d="M239.6089 109.3214
L239.5375 109.2500
" />
<path d="M239.5375 109.2500
L239.4661 109.3214
" />
<path d="M239.4661 109.3214
L239.5375 109.3929
" />
<path d="M239.5375 109.3929
L239.6089 109.3214
" />
<path d="M239.6089 109.3214
L239.4661 109.3214
" />
<path d="M240.9661 107.8929
L240.9661 108.6071
" />
<path d="M240.9661 108.6071
L240.2518 108.6786
" />
<path d="M240.2518 108.6786
L240.3232 108.6071
" />
<path d="M240.3232 108.6071
L240.3946 108.4643
" />
<path d="M240.3946 108.4643
L240.3946 108.1071
" />
<path d="M240.3946 108.1071
L240.3232 107.9643
" />
<path d="M240.3232 107.9643
L240.2518 107.8929
" />
<path d="M240.2518 107.8929
L240.1089 107.8214
" />
<path d="M240.1089 107.8214
L239.7518 107.8214
" />
<path d="M239.7518 107.8214
L239.6089 107.8929
" />
<path d="M239.6089 107.8929
L239.5375 107.9643
" />
<path d="M239.5375 107.9643
L239.4661 108.1071
" />
<path d="M239.4661 108.1071
L239.4661 108.4643
" />
<path d="M239.4661 108.4643
L239.5375 108.6071
" />
<path d="M239.5375 108.6071
L239.6089 108.6786
" />
<path d="M239.4661 106.0357
L240.4661 106.0357
" />
<path d="M240.3232 106.0357
L240.3946 105.9643
" />
<path d="M240.3946 105.9643
L240.4661 105.8214
" />
<path d="M240.4661 105.8214
L240.4661 105.6071
" />
<path d="M240.4661 105.6071
L240.3946 105.4643
" />
<path d="M240.3946 105.4643
L240.2518 105.3929
" />
<path d="M240.2518 105.3929
L239.4661 105.3929
" />
<path d="M240.2518 105.3929
L240.3946 105.3214
" />
<path d="M240.3946 105.3214
L240.4661 105.1786
" />
<path d="M240.4661 105.1786
L240.4661 104.9643
" />
<path d="M240.4661 104.9643
L240.3946 104.8214
" />
<path d="M240.3946 104.8214
L240.2518 104.7500
" />
<path d="M240.2518 104.7500
L239.4661 104.7500
" />
<path d="M239.4661 104.0357
L240.4661 104.0357
" />
<path d="M240.3232 104.0357
L240.3946 103.9643
" />
<path d="M240.3946 103.9643
L240.4661 103.8214
" />
<path d="M240.4661 103.8214
L240.4661 103.6071
" />
<path d="M240.4661 103.6071
L240.3946 103.4643
" />
<path d="M240.3946 103.4643
L240.2518 103.3929
" />
<path d="M240.2518 103.3929
L239.4661 103.3929
" />
<path d="M240.2518 103.3929
L240.3946 103.3214
" />
<path d="M240.3946 103.3214
L240.4661 103.1786
" />
<path d="M240.4661 103.1786
L240.4661 102.9643
" />
<path d="M240.4661 102.9643
L240.3946 102.8214
" />
<path d="M240.3946 102.8214
L240.2518 102.7500
" />
<path d="M240.2518 102.7500
L239.4661 102.7500
" />
</g><path d="M241.5022 108.5000
L237.9158 108.5000
" />
<path d="M241.5022 105.0000
L237.9158 105.0000
" />
<path d="M238.5022 108.5000
L238.5022 105.0000
" />
<path d="M238.5022 108.5000
L238.5022 105.0000
" />
<path d="M238.5022 108.5000
L239.0886 107.3735
" />
<path d="M238.5022 108.5000
L237.9158 107.3735
" />
<path d="M238.5022 105.0000
L237.9158 106.1265
" />
<path d="M238.5022 105.0000
L239.0886 106.1265
" />
<text x="246.0022" y="69.1000"
textLength="6.7214" font-size="2.0000" lengthAdjust="spacingAndGlyphs"
text-anchor="middle" opacity="0">5 mm</text>
<g class="stroked-text"><desc>5 mm</desc>
<path d="M248.2165 67.5361
L248.9308 67.5361
" />
<path d="M248.9308 67.5361
L249.0022 68.2504
" />
<path d="M249.0022 68.2504
L248.9308 68.1790
" />
<path d="M248.9308 68.1790
L248.7879 68.1076
" />
<path d="M248.7879 68.1076
L248.4308 68.1076
" />
<path d="M248.4308 68.1076
L248.2879 68.1790
" />
<path d="M248.2879 68.1790
L248.2165 68.2504
" />
<path d="M248.2165 68.2504
L248.1451 68.3933
" />
<path d="M248.1451 68.3933
L248.1451 68.7504
" />
<path d="M248.1451 68.7504
L248.2165 68.8933
" />
<path d="M248.2165 68.8933
L248.2879 68.9647
" />
<path d="M248.2879 68.9647
L248.4308 69.0361
" />
<path d="M248.4308 69.0361
L248.7879 69.0361
" />
<path d="M248.7879 69.0361
L248.9308 68.9647
" />
<path d="M248.9308 68.9647
L249.0022 68.8933
" />
<path d="M246.3593 69.0361
L246.3593 68.0361
" />
<path d="M246.3593 68.1790
L246.2879 68.1076
" />
<path d="M246.2879 68.1076
L246.1451 68.0361
" />
<path d="M246.1451 68.0361
L245.9308 68.0361
" />
<path d="M245.9308 68.0361
L245.7879 68.1076
" />
<path d="M245.7879 68.1076
L245.7165 68.2504
" />
<path d="M245.7165 68.2504
L245.7165 69.0361
" />
<path d="M245.7165 68.2504
L245.6451 68.1076
" />
<path d="M245.6451 68.1076
L245.5022 68.0361
" />
<path d="M245.5022 68.0361
L245.2879 68.0361
" />
<path d="M245.2879 68.0361
L245.1451 68.1076
" />
<path d="M245.1451 68.1076
L245.0736 68.2504
" />
<path d="M245.0736 68.2504
L245.0736 69.0361
" />
<path d="M244.3593 69.0361
L244.3593 68.0361
" />
<path d="M244.3593 68.1790
L244.2879 68.1076
" />
<path d="M244.2879 68.1076
L244.1451 68.0361
" />
<path d="M244.1451 68.0361
L243.9308 68.0361
" />
<path d="M243.9308 68.0361
L243.7879 68.1076
" />
<path d="M243.7879 68.1076
L243.7165 68.2504
" />
<path d="M243.7165 68.2504
L243.7165 69.0361
" />
<path d="M243.7165 68.2504
L243.6451 68.1076
" />
<path d="M243.6451 68.1076
L243.5022 68.0361
" />
<path d="M243.5022 68.0361
L243.2879 68.0361
" />
<path d="M243.2879 68.0361
L243.1451 68.1076
" />
<path d="M243.1451 68.1076
L243.0736 68.2504
" />
<path d="M243.0736 68.2504
L243.0736 69.0361
" />
</g><path d="M243.5022 72.0000
L243.5022 69.4136
" />
<path d="M248.5022 72.0000
L248.5022 69.4136
" />
<path d="M243.5022 70.0000
L248.5022 70.0000
" />
<path d="M243.5022 70.0000
L248.5022 70.0000
" />
<path d="M243.5022 70.0000
L244.6287 70.5864
" />
<path d="M243.5022 70.0000
L244.6287 69.4136
" />
<path d="M248.5022 70.0000
L247.3757 69.4136
" />
<path d="M248.5022 70.0000
L247.3757 70.5864
" />
<text x="216.0022" y="43.1000"
textLength="8.1500" font-size="2.0000" lengthAdjust="spacingAndGlyphs"
text-anchor="middle" opacity="0">65 mm</text>
<g class="stroked-text"><desc>65 mm</desc>
<path d="M219.0022 41.5361
L219.2879 41.5361
" />
<path d="M219.2879 41.5361
L219.4308 41.6076
" />
<path d="M219.4308 41.6076
L219.5022 41.6790
" />
<path d="M219.5022 41.6790
L219.6451 41.8933
" />
<path d="M219.6451 41.8933
L219.7165 42.1790
" />
<path d="M219.7165 42.1790
L219.7165 42.7504
" />
<path d="M219.7165 42.7504
L219.6451 42.8933
" />
<path d="M219.6451 42.8933
L219.5736 42.9647
" />
<path d="M219.5736 42.9647
L219.4308 43.0361
" />
<path d="M219.4308 43.0361
L219.1451 43.0361
" />
<path d="M219.1451 43.0361
L219.0022 42.9647
" />
<path d="M219.0022 42.9647
L218.9308 42.8933
" />
<path d="M218.9308 42.8933
L218.8593 42.7504
" />
<path d="M218.8593 42.7504
L218.8593 42.3933
" />
<path d="M218.8593 42.3933
L218.9308 42.2504
" />
<path d="M218.9308 42.2504
L219.0022 42.1790
" />
<path d="M219.0022 42.1790
L219.1451 42.1076
" />
<path d="M219.1451 42.1076
L219.4308 42.1076
" />
<path d="M219.4308 42.1076
L219.5736 42.1790
" />
<path d="M219.5736 42.1790
L219.6451 42.2504
" />
<path d="M219.6451 42.2504
L219.7165 42.3933
" />
<path d="M217.5022 41.5361
L218.2165 41.5361
" />
<path d="M218.2165 41.5361
L218.2879 42.2504
" />
<path d="M218.2879 42.2504
L218.2165 42.1790
" />
<path d="M218.2165 42.1790
L218.0736 42.1076
" />
<path d="M218.0736 42.1076
L217.7165 42.1076
" />
<path d="M217.7165 42.1076
L217.5736 42.1790
" />
<path d="M217.5736 42.1790
L217.5022 42.2504
" />
<path d="M217.5022 42.2504
L217.4308 42.3933
" />
<path d="M217.4308 42.3933
L217.4308 42.7504
" />
<path d="M217.4308 42.7504
L217.5022 42.8933
" />
<path d="M217.5022 42.8933
L217.5736 42.9647
" />
<path d="M217.5736 42.9647
L217.7165 43.0361
" />
<path d="M217.7165 43.0361
L218.0736 43.0361
" />
<path d="M218.0736 43.0361
L218.2165 42.9647
" />
<path d="M218.2165 42.9647
L218.2879 42.8933
" />
<path d="M215.6451 43.0361
L215.6451 42.0361
" />
<path d="M215.6451 42.1790
L215.5736 42.1076
" />
<path d="M215.5736 42.1076
L215.4308 42.0361
" />
<path d="M215.4308 42.0361
L215.2165 42.0361
" />
<path d="M215.2165 42.0361
L215.0736 42.1076
" />
<path d="M215.0736 42.1076
L215.0022 42.2504
" />
<path d="M215.0022 42.2504
L215.0022 43.0361
" />
<path d="M215.0022 42.2504
L214.9308 42.1076
" />
<path d="M214.9308 42.1076
L214.7879 42.0361
" />
<path d="M214.7879 42.0361
L214.5736 42.0361
" />
<path d="M214.5736 42.0361
L214.4308 42.1076
" />
<path d="M214.4308 42.1076
L214.3593 42.2504
" />
<path d="M214.3593 42.2504
L214.3593 43.0361
" />
<path d="M213.6451 43.0361
L213.6451 42.0361
" />
<path d="M213.6451 42.1790
L213.5736 42.1076
" />
<path d="M213.5736 42.1076
L213.4308 42.0361
" />
<path d="M213.4308 42.0361
L213.2165 42.0361
" />
<path d="M213.2165 42.0361
L213.0736 42.1076
" />
<path d="M213.0736 42.1076
L213.0022 42.2504
" />
<path d="M213.0022 42.2504
L213.0022 43.0361
" />
<path d="M213.0022 42.2504
L212.9308 42.1076
" />
<path d="M212.9308 42.1076
L212.7879 42.0361
" />
<path d="M212.7879 42.0361
L212.5736 42.0361
" />
<path d="M212.5736 42.0361
L212.4308 42.1076
" />
<path d="M212.4308 42.1076
L212.3593 42.2504
" />
<path d="M212.3593 42.2504
L212.3593 43.0361
" />
</g><path d="M183.5022 51.0000
L183.5022 43.4136
" />
<path d="M248.5022 51.0000
L248.5022 43.4136
" />
<path d="M183.5022 44.0000
L248.5022 44.0000
" />
<path d="M183.5022 44.0000
L248.5022 44.0000
" />
<path d="M183.5022 44.0000
L184.6287 44.5864
" />
<path d="M183.5022 44.0000
L184.6287 43.4136
" />
<path d="M248.5022 44.0000
L247.3757 43.4136
" />
<path d="M248.5022 44.0000
L247.3757 44.5864
" />
<text x="230.5022" y="61.6000"
textLength="14.5786" font-size="2.0000" lengthAdjust="spacingAndGlyphs"
text-anchor="middle" opacity="0">29.0000 mm</text>
<g class="stroked-text"><desc>29.0000 mm</desc>
<path d="M237.4308 60.1790
L237.3593 60.1076
" />
<path d="M237.3593 60.1076
L237.2165 60.0361
" />
<path d="M237.2165 60.0361
L236.8593 60.0361
" />
<path d="M236.8593 60.0361
L236.7165 60.1076
" />
<path d="M236.7165 60.1076
L236.6451 60.1790
" />
<path d="M236.6451 60.1790
L236.5736 60.3218
" />
<path d="M236.5736 60.3218
L236.5736 60.4647
" />
<path d="M236.5736 60.4647
L236.6451 60.6790
" />
<path d="M236.6451 60.6790
L237.5022 61.5361
" />
<path d="M237.5022 61.5361
L236.5736 61.5361
" />
<path d="M235.8593 61.5361
L235.5736 61.5361
" />
<path d="M235.5736 61.5361
L235.4308 61.4647
" />
<path d="M235.4308 61.4647
L235.3593 61.3933
" />
<path d="M235.3593 61.3933
L235.2165 61.1790
" />
<path d="M235.2165 61.1790
L235.1451 60.8933
" />
<path d="M235.1451 60.8933
L235.1451 60.3218
" />
<path d="M235.1451 60.3218
L235.2165 60.1790
" />
<path d="M235.2165 60.1790
L235.2879 60.1076
" />
<path d="M235.2879 60.1076
L235.4308 60.0361
" />
<path d="M235.4308 60.0361
L235.7165 60.0361
" />
<path d="M235.7165 60.0361
L235.8593 60.1076
" />
<path d="M235.8593 60.1076
L235.9308 60.1790
" />
<path d="M235.9308 60.1790
L236.0022 60.3218
" />
<path d="M236.0022 60.3218
L236.0022 60.6790
" />
<path d="M236.0022 60.6790
L235.9308 60.8218
" />
<path d="M235.9308 60.8218
L235.8593 60.8933
" />
<path d="M235.8593 60.8933
L235.7165 60.9647
" />
<path d="M235.7165 60.9647
L235.4308 60.9647
" />
<path d="M235.4308 60.9647
L235.2879 60.8933
" />
<path d="M235.2879 60.8933
L235.2165 60.8218
" />
<path d="M235.2165 60.8218
L235.1451 60.6790
" />
<path d="M234.5022 61.3933
L234.4308 61.4647
" />
<path d="M234.4308 61.4647
L234.5022 61.5361
" />
<path d="M234.5022 61.5361
L234.5736 61.4647
" />
<path d="M234.5736 61.4647
L234.5022 61.3933
" />
<path d="M234.5022 61.3933
L234.5022 61.5361
" />
<path d="M233.5022 60.0361
L233.3593 60.0361
" />
<path d="M233.3593 60.0361
L233.2165 60.1076
" />
<path d="M233.2165 60.1076
L233.1451 60.1790
" />
<path d="M233.1451 60.1790
L233.0736 60.3218
" />
<path d="M233.0736 60.3218
L233.0022 60.6076
" />
<path d="M233.0022 60.6076
L233.0022 60.9647
" />
<path d="M233.0022 60.9647
L233.0736 61.2504
" />
<path d="M233.0736 61.2504
L233.1451 61.3933
" />
<path d="M233.1451 61.3933
L233.2165 61.4647
" />
<path d="M233.2165 61.4647
L233.3593 61.5361
" />
<path d="M233.3593 61.5361
L233.5022 61.5361
" />
<path d="M233.5022 61.5361
L233.6451 61.4647
" />
<path d="M233.6451 61.4647
L233.7165 61.3933
" />
<path d="M233.7165 61.3933
L233.7879 61.2504
" />
<path d="M233.7879 61.2504
L233.8593 60.9647
" />
<path d="M233.8593 60.9647
L233.8593 60.6076
" />
<path d="M233.8593 60.6076
L233.7879 60.3218
" />
<path d="M233.7879 60.3218
L233.7165 60.1790
" />
<path d="M233.7165 60.1790
L233.6451 60.1076
" />
<path d="M233.6451 60.1076
L233.5022 60.0361
" />
<path d="M232.0736 60.0361
L231.9308 60.0361
" />
<path d="M231.9308 60.0361
L231.7879 60.1076
" />
<path d="M231.7879 60.1076
L231.7165 60.1790
" />
<path d="M231.7165 60.1790
L231.6451 60.3218
" />
<path d="M231.6451 60.3218
L231.5736 60.6076
" />
<path d="M231.5736 60.6076
L231.5736 60.9647
" />
<path d="M231.5736 60.9647
L231.6451 61.2504
" />
<path d="M231.6451 61.2504
L231.7165 61.3933
" />
<path d="M231.7165 61.3933
L231.7879 61.4647
" />
<path d="M231.7879 61.4647
L231.9308 61.5361
" />
<path d="M231.9308 61.5361
L232.0736 61.5361
" />
<path d="M232.0736 61.5361
L232.2165 61.4647
" />
<path d="M232.2165 61.4647
L232.2879 61.3933
" />
<path d="M232.2879 61.3933
L232.3593 61.2504
" />
<path d="M232.3593 61.2504
L232.4308 60.9647
" />
<path d="M232.4308 60.9647
L232.4308 60.6076
" />
<path d="M232.4308 60.6076
L232.3593 60.3218
" />
<path d="M232.3593 60.3218
L232.2879 60.1790
" />
<path d="M232.2879 60.1790
L232.2165 60.1076
" />
<path d="M232.2165 60.1076
L232.0736 60.0361
" />
<path d="M230.6451 60.0361
L230.5022 60.0361
" />
<path d="M230.5022 60.0361
L230.3593 60.1076
" />
<path d="M230.3593 60.1076
L230.2879 60.1790
" />
<path d="M230.2879 60.1790
L230.2165 60.3218
" />
<path d="M230.2165 60.3218
L230.1451 60.6076
" />
<path d="M230.1451 60.6076
L230.1451 60.9647
" />
<path d="M230.1451 60.9647
L230.2165 61.2504
" />
<path d="M230.2165 61.2504
L230.2879 61.3933
" />
<path d="M230.2879 61.3933
L230.3593 61.4647
" />
<path d="M230.3593 61.4647
L230.5022 61.5361
" />
<path d="M230.5022 61.5361
L230.6451 61.5361
" />
<path d="M230.6451 61.5361
L230.7879 61.4647
" />
<path d="M230.7879 61.4647
L230.8593 61.3933
" />
<path d="M230.8593 61.3933
L230.9308 61.2504
" />
<path d="M230.9308 61.2504
L231.0022 60.9647
" />
<path d="M231.0022 60.9647
L231.0022 60.6076
" />
<path d="M231.0022 60.6076
L230.9308 60.3218
" />
<path d="M230.9308 60.3218
L230.8593 60.1790
" />
<path d="M230.8593 60.1790
L230.7879 60.1076
" />
<path d="M230.7879 60.1076
L230.6451 60.0361
" />
<path d="M229.2165 60.0361
L229.0736 60.0361
" />
<path d="M229.0736 60.0361
L228.9308 60.1076
" />
<path d="M228.9308 60.1076
L228.8593 60.1790
" />
<path d="M228.8593 60.1790
L228.7879 60.3218
" />
<path d="M228.7879 60.3218
L228.7165 60.6076
" />
<path d="M228.7165 60.6076
L228.7165 60.9647
" />
<path d="M228.7165 60.9647
L228.7879 61.2504
" />
<path d="M228.7879 61.2504
L228.8593 61.3933
" />
<path d="M228.8593 61.3933
L228.9308 61.4647
" />
<path d="M228.9308 61.4647
L229.0736 61.5361
" />
<path d="M229.0736 61.5361
L229.2165 61.5361
" />
<path d="M229.2165 61.5361
L229.3593 61.4647
" />
<path d="M229.3593 61.4647
L229.4308 61.3933
" />
<path d="M229.4308 61.3933
L229.5022 61.2504
" />
<path d="M229.5022 61.2504
L229.5736 60.9647
" />
<path d="M229.5736 60.9647
L229.5736 60.6076
" />
<path d="M229.5736 60.6076
L229.5022 60.3218
" />
<path d="M229.5022 60.3218
L229.4308 60.1790
" />
<path d="M229.4308 60.1790
L229.3593 60.1076
" />
<path d="M229.3593 60.1076
L229.2165 60.0361
" />
<path d="M226.9308 61.5361
L226.9308 60.5361
" />
<path d="M226.9308 60.6790
L226.8593 60.6076
" />
<path d="M226.8593 60.6076
L226.7165 60.5361
" />
<path d="M226.7165 60.5361
L226.5022 60.5361
" />
<path d="M226.5022 60.5361
L226.3593 60.6076
" />
<path d="M226.3593 60.6076
L226.2879 60.7504
" />
<path d="M226.2879 60.7504
L226.2879 61.5361
" />
<path d="M226.2879 60.7504
L226.2165 60.6076
" />
<path d="M226.2165 60.6076
L226.0736 60.5361
" />
<path d="M226.0736 60.5361
L225.8593 60.5361
" />
<path d="M225.8593 60.5361
L225.7165 60.6076
" />
<path d="M225.7165 60.6076
L225.6451 60.7504
" />
<path d="M225.6451 60.7504
L225.6451 61.5361
" />
<path d="M224.9308 61.5361
L224.9308 60.5361
" />
<path d="M224.9308 60.6790
L224.8593 60.6076
" />
<path d="M224.8593 60.6076
L224.7165 60.5361
" />
<path d="M224.7165 60.5361
L224.5022 60.5361
" />
<path d="M224.5022 60.5361
L224.3593 60.6076
" />
<path d="M224.3593 60.6076
L224.2879 60.7504
" />
<path d="M224.2879 60.7504
L224.2879 61.5361
" />
<path d="M224.2879 60.7504
L224.2165 60.6076
" />
<path d="M224.2165 60.6076
L224.0736 60.5361
" />
<path d="M224.0736 60.5361
L223.8593 60.5361
" />
<path d="M223.8593 60.5361
L223.7165 60.6076
" />
<path d="M223.7165 60.6076
L223.6451 60.7504
" />
<path d="M223.6451 60.7504
L223.6451 61.5361
" />
</g><path d="M216.0022 60.0000
L216.0022 63.0864
" />
<path d="M245.0022 60.0000
L245.0022 63.0864
" />
<path d="M216.0022 62.5000
L245.0022 62.5000
" />
<path d="M216.0022 62.5000
L245.0022 62.5000
" />
<path d="M216.0022 62.5000
L217.1287 63.0864
" />
<path d="M216.0022 62.5000
L217.1287 61.9136
" />
<path d="M245.0022 62.5000
L243.8757 61.9136
" />
<path d="M245.0022 62.5000
L243.8757 63.0864
" />
<text x="216.0022" y="47.6000"
textLength="8.1500" font-size="2.0000" lengthAdjust="spacingAndGlyphs"
text-anchor="middle" opacity="0">58 mm</text>
<g class="stroked-text"><desc>58 mm</desc>
<path d="M218.9308 46.0361
L219.6451 46.0361
" />
<path d="M219.6451 46.0361
L219.7165 46.7504
" />
<path d="M219.7165 46.7504
L219.6451 46.6790
" />
<path d="M219.6451 46.6790
L219.5022 46.6076
" />
<path d="M219.5022 46.6076
L219.1451 46.6076
" />
<path d="M219.1451 46.6076
L219.0022 46.6790
" />
<path d="M219.0022 46.6790
L218.9308 46.7504
" />
<path d="M218.9308 46.7504
L218.8593 46.8933
" />
<path d="M218.8593 46.8933
L218.8593 47.2504
" />
<path d="M218.8593 47.2504
L218.9308 47.3933
" />
<path d="M218.9308 47.3933
L219.0022 47.4647
" />
<path d="M219.0022 47.4647
L219.1451 47.5361
" />
<path d="M219.1451 47.5361
L219.5022 47.5361
" />
<path d="M219.5022 47.5361
L219.6451 47.4647
" />
<path d="M219.6451 47.4647
L219.7165 47.3933
" />
<path d="M218.0022 46.6790
L218.1451 46.6076
" />
<path d="M218.1451 46.6076
L218.2165 46.5361
" />
<path d="M218.2165 46.5361
L218.2879 46.3933
" />
<path d="M218.2879 46.3933
L218.2879 46.3218
" />
<path d="M218.2879 46.3218
L218.2165 46.1790
" />
<path d="M218.2165 46.1790
L218.1451 46.1076
" />
<path d="M218.1451 46.1076
L218.0022 46.0361
" />
<path d="M218.0022 46.0361
L217.7165 46.0361
" />
<path d="M217.7165 46.0361
L217.5736 46.1076
" />
<path d="M217.5736 46.1076
L217.5022 46.1790
" />
<path d="M217.5022 46.1790
L217.4308 46.3218
" />
<path d="M217.4308 46.3218
L217.4308 46.3933
" />
<path d="M217.4308 46.3933
L217.5022 46.5361
" />
<path d="M217.5022 46.5361
L217.5736 46.6076
" />
<path d="M217.5736 46.6076
L217.7165 46.6790
" />
<path d="M217.7165 46.6790
L218.0022 46.6790
" />
<path d="M218.0022 46.6790
L218.1451 46.7504
" />
<path d="M218.1451 46.7504
L218.2165 46.8218
" />
<path d="M218.2165 46.8218
L218.2879 46.9647
" />
<path d="M218.2879 46.9647
L218.2879 47.2504
" />
<path d="M218.2879 47.2504
L218.2165 47.3933
" />
<path d="M218.2165 47.3933
L218.1451 47.4647
" />
<path d="M218.1451 47.4647
L218.0022 47.5361
" />
<path d="M218.0022 47.5361
L217.7165 47.5361
" />
<path d="M217.7165 47.5361
L217.5736 47.4647
" />
<path d="M217.5736 47.4647
L217.5022 47.3933
" />
<path d="M217.5022 47.3933
L217.4308 47.2504
" />
<path d="M217.4308 47.2504
L217.4308 46.9647
" />
<path d="M217.4308 46.9647
L217.5022 46.8218
" />
<path d="M217.5022 46.8218
L217.5736 46.7504
" />
<path d="M217.5736 46.7504
L217.7165 46.6790
" />
<path d="M215.6451 47.5361
L215.6451 46.5361
" />
<path d="M215.6451 46.6790
L215.5736 46.6076
" />
<path d="M215.5736 46.6076
L215.4308 46.5361
" />
<path d="M215.4308 46.5361
L215.2165 46.5361
" />
<path d="M215.2165 46.5361
L215.0736 46.6076
" />
<path d="M215.0736 46.6076
L215.0022 46.7504
" />
<path d="M215.0022 46.7504
L215.0022 47.5361
" />
<path d="M215.0022 46.7504
L214.9308 46.6076
" />
<path d="M214.9308 46.6076
L214.7879 46.5361
" />
<path d="M214.7879 46.5361
L214.5736 46.5361
" />
<path d="M214.5736 46.5361
L214.4308 46.6076
" />
<path d="M214.4308 46.6076
L214.3593 46.7504
" />
<path d="M214.3593 46.7504
L214.3593 47.5361
" />
<path d="M213.6451 47.5361
L213.6451 46.5361
" />
<path d="M213.6451 46.6790
L213.5736 46.6076
" />
<path d="M213.5736 46.6076
L213.4308 46.5361
" />
<path d="M213.4308 46.5361
L213.2165 46.5361
" />
<path d="M213.2165 46.5361
L213.0736 46.6076
" />
<path d="M213.0736 46.6076
L213.0022 46.7504
" />
<path d="M213.0022 46.7504
L213.0022 47.5361
" />
<path d="M213.0022 46.7504
L212.9308 46.6076
" />
<path d="M212.9308 46.6076
L212.7879 46.5361
" />
<path d="M212.7879 46.5361
L212.5736 46.5361
" />
<path d="M212.5736 46.5361
L212.4308 46.6076
" />
<path d="M212.4308 46.6076
L212.3593 46.7504
" />
<path d="M212.3593 46.7504
L212.3593 47.5361
" />
</g><path d="M187.0022 51.0000
L187.0022 47.9136
" />
<path d="M245.0022 51.0000
L245.0022 47.9136
" />
<path d="M187.0022 48.5000
L245.0022 48.5000
" />
<path d="M187.0022 48.5000
L245.0022 48.5000
" />
<path d="M187.0022 48.5000
L188.1287 49.0864
" />
<path d="M187.0022 48.5000
L188.1287 47.9136
" />
<path d="M245.0022 48.5000
L243.8757 47.9136
" />
<path d="M245.0022 48.5000
L243.8757 49.0864
" />
<g transform="rotate(-90.000000 242.1522 80.5000)">
<text x="242.1522" y="81.2500"
textLength="8.1500" font-size="2.0000" lengthAdjust="spacingAndGlyphs"
text-anchor="middle" opacity="0">17 mm</text>
</g>
<g class="stroked-text"><desc>17 mm</desc>
<path d="M241.4661 83.3571
L241.4661 84.2143
" />
<path d="M241.4661 83.7857
L242.9661 83.7857
" />
<path d="M242.9661 83.7857
L242.7518 83.9286
" />
<path d="M242.7518 83.9286
L242.6089 84.0714
" />
<path d="M242.6089 84.0714
L242.5375 84.2143
" />
<path d="M242.9661 82.8571
L242.9661 81.8571
" />
<path d="M242.9661 81.8571
L241.4661 82.5000
" />
<path d="M241.4661 80.1429
L242.4661 80.1429
" />
<path d="M242.3232 80.1429
L242.3946 80.0714
" />
<path d="M242.3946 80.0714
L242.4661 79.9286
" />
<path d="M242.4661 79.9286
L242.4661 79.7143
" />
<path d="M242.4661 79.7143
L242.3946 79.5714
" />
<path d="M242.3946 79.5714
L242.2518 79.5000
" />
<path d="M242.2518 79.5000
L241.4661 79.5000
" />
<path d="M242.2518 79.5000
L242.3946 79.4286
" />
<path d="M242.3946 79.4286
L242.4661 79.2857
" />
<path d="M242.4661 79.2857
L242.4661 79.0714
" />
<path d="M242.4661 79.0714
L242.3946 78.9286
" />
<path d="M242.3946 78.9286
L242.2518 78.8571
" />
<path d="M242.2518 78.8571
L241.4661 78.8571
" />
<path d="M241.4661 78.1429
L242.4661 78.1429
" />
<path d="M242.3232 78.1429
L242.3946 78.0714
" />
<path d="M242.3946 78.0714
L242.4661 77.9286
" />
<path d="M242.4661 77.9286
L242.4661 77.7143
" />
<path d="M242.4661 77.7143
L242.3946 77.5714
" />
<path d="M242.3946 77.5714
L242.2518 77.5000
" />
<path d="M242.2518 77.5000
L241.4661 77.5000
" />
<path d="M242.2518 77.5000
L242.3946 77.4286
" />
<path d="M242.3946 77.4286
L242.4661 77.2857
" />
<path d="M242.4661 77.2857
L242.4661 77.0714
" />
<path d="M242.4661 77.0714
L242.3946 76.9286
" />
<path d="M242.3946 76.9286
L242.2518 76.8571
" />
<path d="M242.2518 76.8571
L241.4661 76.8571
" />
</g><path d="M242.5022 89.0000
L239.9158 89.0000
" />
<path d="M242.5022 72.0000
L239.9158 72.0000
" />
<path d="M240.5022 89.0000
L240.5022 72.0000
" />
<path d="M240.5022 89.0000
L240.5022 72.0000
" />
<path d="M240.5022 89.0000
L241.0886 87.8735
" />
<path d="M240.5022 89.0000
L239.9158 87.8735
" />
<path d="M240.5022 72.0000
L239.9158 73.1265
" />
<path d="M240.5022 72.0000
L241.0886 73.1265
" />
<g transform="rotate(-90.000000 176.1522 80.5000)">
<text x="176.1522" y="81.2500"
textLength="8.1500" font-size="2.0000" lengthAdjust="spacingAndGlyphs"
text-anchor="middle" opacity="0">56 mm</text>
</g>
<g class="stroked-text"><desc>56 mm</desc>
<path d="M176.9661 83.4286
L176.9661 84.1429
" />
<path d="M176.9661 84.1429
L176.2518 84.2143
" />
<path d="M176.2518 84.2143
L176.3232 84.1429
" />
<path d="M176.3232 84.1429
L176.3946 84.0000
" />
<path d="M176.3946 84.0000
L176.3946 83.6429
" />
<path d="M176.3946 83.6429
L176.3232 83.5000
" />
<path d="M176.3232 83.5000
L176.2518 83.4286
" />
<path d="M176.2518 83.4286
L176.1089 83.3571
" />
<path d="M176.1089 83.3571
L175.7518 83.3571
" />
<path d="M175.7518 83.3571
L175.6089 83.4286
" />
<path d="M175.6089 83.4286
L175.5375 83.5000
" />
<path d="M175.5375 83.5000
L175.4661 83.6429
" />
<path d="M175.4661 83.6429
L175.4661 84.0000
" />
<path d="M175.4661 84.0000
L175.5375 84.1429
" />
<path d="M175.5375 84.1429
L175.6089 84.2143
" />
<path d="M176.9661 82.0714
L176.9661 82.3571
" />
<path d="M176.9661 82.3571
L176.8946 82.5000
" />
<path d="M176.8946 82.5000
L176.8232 82.5714
" />
<path d="M176.8232 82.5714
L176.6089 82.7143
" />
<path d="M176.6089 82.7143
L176.3232 82.7857
" />
<path d="M176.3232 82.7857
L175.7518 82.7857
" />
<path d="M175.7518 82.7857
L175.6089 82.7143
" />
<path d="M175.6089 82.7143
L175.5375 82.6429
" />
<path d="M175.5375 82.6429
L175.4661 82.5000
" />
<path d="M175.4661 82.5000
L175.4661 82.2143
" />
<path d="M175.4661 82.2143
L175.5375 82.0714
" />
<path d="M175.5375 82.0714
L175.6089 82.0000
" />
<path d="M175.6089 82.0000
L175.7518 81.9286
" />
<path d="M175.7518 81.9286
L176.1089 81.9286
" />
<path d="M176.1089 81.9286
L176.2518 82.0000
" />
<path d="M176.2518 82.0000
L176.3232 82.0714
" />
<path d="M176.3232 82.0714
L176.3946 82.2143
" />
<path d="M176.3946 82.2143
L176.3946 82.5000
" />
<path d="M176.3946 82.5000
L176.3232 82.6429
" />
<path d="M176.3232 82.6429
L176.2518 82.7143
" />
<path d="M176.2518 82.7143
L176.1089 82.7857
" />
<path d="M175.4661 80.1429
L176.4661 80.1429
" />
<path d="M176.3232 80.1429
L176.3946 80.0714
" />
<path d="M176.3946 80.0714
L176.4661 79.9286
" />
<path d="M176.4661 79.9286
L176.4661 79.7143
" />
<path d="M176.4661 79.7143
L176.3946 79.5714
" />
<path d="M176.3946 79.5714
L176.2518 79.5000
" />
<path d="M176.2518 79.5000
L175.4661 79.5000
" />
<path d="M176.2518 79.5000
L176.3946 79.4286
" />
<path d="M176.3946 79.4286
L176.4661 79.2857
" />
<path d="M176.4661 79.2857
L176.4661 79.0714
" />
<path d="M176.4661 79.0714
L176.3946 78.9286
" />
<path d="M176.3946 78.9286
L176.2518 78.8571
" />
<path d="M176.2518 78.8571
L175.4661 78.8571
" />
<path d="M175.4661 78.1429
L176.4661 78.1429
" />
<path d="M176.3232 78.1429
L176.3946 78.0714
" />
<path d="M176.3946 78.0714
L176.4661 77.9286
" />
<path d="M176.4661 77.9286
L176.4661 77.7143
" />
<path d="M176.4661 77.7143
L176.3946 77.5714
" />
<path d="M176.3946 77.5714
L176.2518 77.5000
" />
<path d="M176.2518 77.5000
L175.4661 77.5000
" />
<path d="M176.2518 77.5000
L176.3946 77.4286
" />
<path d="M176.3946 77.4286
L176.4661 77.2857
" />
<path d="M176.4661 77.2857
L176.4661 77.0714
" />
<path d="M176.4661 77.0714
L176.3946 76.9286
" />
<path d="M176.3946 76.9286
L176.2518 76.8571
" />
<path d="M176.2518 76.8571
L175.4661 76.8571
" />
</g><path d="M182.5022 108.5000
L173.9158 108.5000
" />
<path d="M182.5022 52.5000
L173.9158 52.5000
" />
<path d="M174.5022 108.5000
L174.5022 52.5000
" />
<path d="M174.5022 108.5000
L174.5022 52.5000
" />
<path d="M174.5022 108.5000
L175.0886 107.3735
" />
<path d="M174.5022 108.5000
L173.9158 107.3735
" />
<path d="M174.5022 52.5000
L173.9158 53.6265
" />
<path d="M174.5022 52.5000
L175.0886 53.6265
" />
<g transform="rotate(-90.000000 181.1522 80.5000)">
<text x="181.1522" y="81.2500"
textLength="8.1500" font-size="2.0000" lengthAdjust="spacingAndGlyphs"
text-anchor="middle" opacity="0">49 mm</text>
</g>
<g class="stroked-text"><desc>49 mm</desc>
<path d="M181.4661 83.5000
L180.4661 83.5000
" />
<path d="M182.0375 83.8571
L180.9661 84.2143
" />
<path d="M180.9661 84.2143
L180.9661 83.2857
" />
<path d="M180.4661 82.6429
L180.4661 82.3571
" />
<path d="M180.4661 82.3571
L180.5375 82.2143
" />
<path d="M180.5375 82.2143
L180.6089 82.1429
" />
<path d="M180.6089 82.1429
L180.8232 82.0000
" />
<path d="M180.8232 82.0000
L181.1089 81.9286
" />
<path d="M181.1089 81.9286
L181.6804 81.9286
" />
<path d="M181.6804 81.9286
L181.8232 82.0000
" />
<path d="M181.8232 82.0000
L181.8946 82.0714
" />
<path d="M181.8946 82.0714
L181.9661 82.2143
" />
<path d="M181.9661 82.2143
L181.9661 82.5000
" />
<path d="M181.9661 82.5000
L181.8946 82.6429
" />
<path d="M181.8946 82.6429
L181.8232 82.7143
" />
<path d="M181.8232 82.7143
L181.6804 82.7857
" />
<path d="M181.6804 82.7857
L181.3232 82.7857
" />
<path d="M181.3232 82.7857
L181.1804 82.7143
" />
<path d="M181.1804 82.7143
L181.1089 82.6429
" />
<path d="M181.1089 82.6429
L181.0375 82.5000
" />
<path d="M181.0375 82.5000
L181.0375 82.2143
" />
<path d="M181.0375 82.2143
L181.1089 82.0714
" />
<path d="M181.1089 82.0714
L181.1804 82.0000
" />
<path d="M181.1804 82.0000
L181.3232 81.9286
" />
<path d="M180.4661 80.1429
L181.4661 80.1429
" />
<path d="M181.3232 80.1429
L181.3946 80.0714
" />
<path d="M181.3946 80.0714
L181.4661 79.9286
" />
<path d="M181.4661 79.9286
L181.4661 79.7143
" />
<path d="M181.4661 79.7143
L181.3946 79.5714
" />
<path d="M181.3946 79.5714
L181.2518 79.5000
" />
<path d="M181.2518 79.5000
L180.4661 79.5000
" />
<path d="M181.2518 79.5000
L181.3946 79.4286
" />
<path d="M181.3946 79.4286
L181.4661 79.2857
" />
<path d="M181.4661 79.2857
L181.4661 79.0714
" />
<path d="M181.4661 79.0714
L181.3946 78.9286
" />
<path d="M181.3946 78.9286
L181.2518 78.8571
" />
<path d="M181.2518 78.8571
L180.4661 78.8571
" />
<path d="M180.4661 78.1429
L181.4661 78.1429
" />
<path d="M181.3232 78.1429
L181.3946 78.0714
" />
<path d="M181.3946 78.0714
L181.4661 77.9286
" />
<path d="M181.4661 77.9286
L181.4661 77.7143
" />
<path d="M181.4661 77.7143
L181.3946 77.5714
" />
<path d="M181.3946 77.5714
L181.2518 77.5000
" />
<path d="M181.2518 77.5000
L180.4661 77.5000
" />
<path d="M181.2518 77.5000
L181.3946 77.4286
" />
<path d="M181.3946 77.4286
L181.4661 77.2857
" />
<path d="M181.4661 77.2857
L181.4661 77.0714
" />
<path d="M181.4661 77.0714
L181.3946 76.9286
" />
<path d="M181.3946 76.9286
L181.2518 76.8571
" />
<path d="M181.2518 76.8571
L180.4661 76.8571
" />
</g><path d="M182.5022 105.0000
L178.9158 105.0000
" />
<path d="M182.5022 56.0000
L178.9158 56.0000
" />
<path d="M179.5022 105.0000
L179.5022 56.0000
" />
<path d="M179.5022 105.0000
L179.5022 56.0000
" />
<path d="M179.5022 105.0000
L180.0886 103.8735
" />
<path d="M179.5022 105.0000
L178.9158 103.8735
" />
<path d="M179.5022 56.0000
L178.9158 57.1265
" />
<path d="M179.5022 56.0000
L180.0886 57.1265
" />
<text x="246.7522" y="111.1000"
textLength="8.8643" font-size="2.0000" lengthAdjust="spacingAndGlyphs"
text-anchor="middle" opacity="0">3.5 mm</text>
<g class="stroked-text"><desc>3.5 mm</desc>
<path d="M250.8951 109.5361
L249.9665 109.5361
" />
<path d="M249.9665 109.5361
L250.4665 110.1076
" />
<path d="M250.4665 110.1076
L250.2522 110.1076
" />
<path d="M250.2522 110.1076
L250.1093 110.1790
" />
<path d="M250.1093 110.1790
L250.0379 110.2504
" />
<path d="M250.0379 110.2504
L249.9665 110.3933
" />
<path d="M249.9665 110.3933
L249.9665 110.7504
" />
<path d="M249.9665 110.7504
L250.0379 110.8933
" />
<path d="M250.0379 110.8933
L250.1093 110.9647
" />
<path d="M250.1093 110.9647
L250.2522 111.0361
" />
<path d="M250.2522 111.0361
L250.6808 111.0361
" />
<path d="M250.6808 111.0361
L250.8236 110.9647
" />
<path d="M250.8236 110.9647
L250.8951 110.8933
" />
<path d="M249.3236 110.8933
L249.2522 110.9647
" />
<path d="M249.2522 110.9647
L249.3236 111.0361
" />
<path d="M249.3236 111.0361
L249.3951 110.9647
" />
<path d="M249.3951 110.9647
L249.3236 110.8933
" />
<path d="M249.3236 110.8933
L249.3236 111.0361
" />
<path d="M247.8951 109.5361
L248.6093 109.5361
" />
<path d="M248.6093 109.5361
L248.6808 110.2504
" />
<path d="M248.6808 110.2504
L248.6093 110.1790
" />
<path d="M248.6093 110.1790
L248.4665 110.1076
" />
<path d="M248.4665 110.1076
L248.1093 110.1076
" />
<path d="M248.1093 110.1076
L247.9665 110.1790
" />
<path d="M247.9665 110.1790
L247.8951 110.2504
" />
<path d="M247.8951 110.2504
L247.8236 110.3933
" />
<path d="M247.8236 110.3933
L247.8236 110.7504
" />
<path d="M247.8236 110.7504
L247.8951 110.8933
" />
<path d="M247.8951 110.8933
L247.9665 110.9647
" />
<path d="M247.9665 110.9647
L248.1093 111.0361
" />
<path d="M248.1093 111.0361
L248.4665 111.0361
" />
<path d="M248.4665 111.0361
L248.6093 110.9647
" />
<path d="M248.6093 110.9647
L248.6808 110.8933
" />
<path d="M246.0379 111.0361
L246.0379 110.0361
" />
<path d="M246.0379 110.1790
L245.9665 110.1076
" />
<path d="M245.9665 110.1076
L245.8236 110.0361
" />
<path d="M245.8236 110.0361
L245.6093 110.0361
" />
<path d="M245.6093 110.0361
L245.4665 110.1076
" />
<path d="M245.4665 110.1076
L245.3951 110.2504
" />
<path d="M245.3951 110.2504
L245.3951 111.0361
" />
<path d="M245.3951 110.2504
L245.3236 110.1076
" />
<path d="M245.3236 110.1076
L245.1808 110.0361
" />
<path d="M245.1808 110.0361
L244.9665 110.0361
" />
<path d="M244.9665 110.0361
L244.8236 110.1076
" />
<path d="M244.8236 110.1076
L244.7522 110.2504
" />
<path d="M244.7522 110.2504
L244.7522 111.0361
" />
<path d="M244.0379 111.0361
L244.0379 110.0361
" />
<path d="M244.0379 110.1790
L243.9665 110.1076
" />
<path d="M243.9665 110.1076
L243.8236 110.0361
" />
<path d="M243.8236 110.0361
L243.6093 110.0361
" />
<path d="M243.6093 110.0361
L243.4665 110.1076
" />
<path d="M243.4665 110.1076
L243.3951 110.2504
" />
<path d="M243.3951 110.2504
L243.3951 111.0361
" />
<path d="M243.3951 110.2504
L243.3236 110.1076
" />
<path d="M243.3236 110.1076
L243.1808 110.0361
" />
<path d="M243.1808 110.0361
L242.9665 110.0361
" />
<path d="M242.9665 110.0361
L242.8236 110.1076
" />
<path d="M242.8236 110.1076
L242.7522 110.2504
" />
<path d="M242.7522 110.2504
L242.7522 111.0361
" />
</g><path d="M245.0022 109.5000
L245.0022 112.5864
" />
<path d="M248.5022 109.5000
L248.5022 112.5864
" />
<path d="M245.0022 112.0000
L248.5022 112.0000
" />
<path d="M245.0022 112.0000
L248.5022 112.0000
" />
<path d="M245.0022 112.0000
L246.1287 112.5864
" />
<path d="M245.0022 112.0000
L246.1287 111.4136
" />
<path d="M248.5022 112.0000
L247.3757 111.4136
" />
<path d="M248.5022 112.0000
L247.3757 112.5864
" />
<g >
</g>
<g >
</g>
<g >
</g>
<g >
</g>
<g >
</g>
<g >
</g>
<g >
</g>
<g >
</g>
<g >
</g>
<g >
</g>
<g >
</g>
<g >
</g>
<g >
</g>
<g >
</g>
<g >
</g>
<g >
</g>
<g >
</g>
<g >
</g>
<g >
</g>
<g >
</g>
<g >
</g>
<g >
</g>
<g >
</g>
<g >
</g>
<g >
</g>
<g >
</g>
<g >
</g>
<g >
</g>
<g >
</g>
<g >
</g>
<g >
</g>
<g >
</g>
<g >
</g>
<g >
</g>
<g >
</g>
<g >
</g>
<g >
</g>
<g >
</g>
<g >
</g>
<g >
</g>
<g >
</g>
<g >
</g>
<g >
</g>
<g >
</g>
<g >
</g>
<g >
</g>
<g >
</g>
<g >
</g>
<g >
</g>
<g >
</g>
<g >
</g>
<g >
</g>
<g >
</g>
<g >
</g>
<g >
</g>
<g >
</g>
<g >
</g>
<g >
</g>
<g >
</g>
<g >
</g>
<g >
</g>
<g >
</g>
<g >
</g>
<g >
</g>
<g >
</g>
<g >
</g>
<g >
</g>
<g >
</g>
<g >
</g>
<g >
</g>
<g >
</g>
<g >
</g>
<g >
</g>
<g >
</g>
<g >
</g>
<g >
</g>
<g >
</g>
<g >
</g>
<g >
</g>
</g> 
</svg>
