G04 #@! TF.GenerationSoftware,KiCad,Pcbnew,8.0.6+1*
G04 #@! TF.CreationDate,2024-12-15T22:46:55+00:00*
G04 #@! TF.ProjectId,pedalboard-soundcard,70656461-6c62-46f6-9172-642d736f756e,1.0.1-RC*
G04 #@! TF.SameCoordinates,Original*
G04 #@! TF.FileFunction,Legend,Bot*
G04 #@! TF.FilePolarity,Positive*
%FSLAX46Y46*%
G04 Gerber Fmt 4.6, Leading zero omitted, Abs format (unit mm)*
G04 Created by KiCad (PCBNEW 8.0.6+1) date 2024-12-15 22:46:55*
%MOMM*%
%LPD*%
G01*
G04 APERTURE LIST*
%ADD10C,0.150000*%
%ADD11C,0.120000*%
G04 APERTURE END LIST*
D10*
X111278458Y-65858385D02*
X111126077Y-65858385D01*
X111126077Y-65858385D02*
X111049887Y-65896480D01*
X111049887Y-65896480D02*
X110973696Y-65972670D01*
X110973696Y-65972670D02*
X110935601Y-66125051D01*
X110935601Y-66125051D02*
X110935601Y-66391718D01*
X110935601Y-66391718D02*
X110973696Y-66544099D01*
X110973696Y-66544099D02*
X111049887Y-66620290D01*
X111049887Y-66620290D02*
X111126077Y-66658385D01*
X111126077Y-66658385D02*
X111278458Y-66658385D01*
X111278458Y-66658385D02*
X111354649Y-66620290D01*
X111354649Y-66620290D02*
X111430839Y-66544099D01*
X111430839Y-66544099D02*
X111468935Y-66391718D01*
X111468935Y-66391718D02*
X111468935Y-66125051D01*
X111468935Y-66125051D02*
X111430839Y-65972670D01*
X111430839Y-65972670D02*
X111354649Y-65896480D01*
X111354649Y-65896480D02*
X111278458Y-65858385D01*
X110592744Y-66125051D02*
X110592744Y-66925051D01*
X110592744Y-66163147D02*
X110516554Y-66125051D01*
X110516554Y-66125051D02*
X110364173Y-66125051D01*
X110364173Y-66125051D02*
X110287982Y-66163147D01*
X110287982Y-66163147D02*
X110249887Y-66201242D01*
X110249887Y-66201242D02*
X110211792Y-66277432D01*
X110211792Y-66277432D02*
X110211792Y-66506004D01*
X110211792Y-66506004D02*
X110249887Y-66582194D01*
X110249887Y-66582194D02*
X110287982Y-66620290D01*
X110287982Y-66620290D02*
X110364173Y-66658385D01*
X110364173Y-66658385D02*
X110516554Y-66658385D01*
X110516554Y-66658385D02*
X110592744Y-66620290D01*
X109564172Y-66620290D02*
X109640363Y-66658385D01*
X109640363Y-66658385D02*
X109792744Y-66658385D01*
X109792744Y-66658385D02*
X109868934Y-66620290D01*
X109868934Y-66620290D02*
X109907030Y-66544099D01*
X109907030Y-66544099D02*
X109907030Y-66239337D01*
X109907030Y-66239337D02*
X109868934Y-66163147D01*
X109868934Y-66163147D02*
X109792744Y-66125051D01*
X109792744Y-66125051D02*
X109640363Y-66125051D01*
X109640363Y-66125051D02*
X109564172Y-66163147D01*
X109564172Y-66163147D02*
X109526077Y-66239337D01*
X109526077Y-66239337D02*
X109526077Y-66315528D01*
X109526077Y-66315528D02*
X109907030Y-66391718D01*
X109183220Y-66125051D02*
X109183220Y-66658385D01*
X109183220Y-66201242D02*
X109145125Y-66163147D01*
X109145125Y-66163147D02*
X109068935Y-66125051D01*
X109068935Y-66125051D02*
X108954649Y-66125051D01*
X108954649Y-66125051D02*
X108878458Y-66163147D01*
X108878458Y-66163147D02*
X108840363Y-66239337D01*
X108840363Y-66239337D02*
X108840363Y-66658385D01*
X107849886Y-66658385D02*
X107849886Y-65858385D01*
X107849886Y-65858385D02*
X107545124Y-65858385D01*
X107545124Y-65858385D02*
X107468934Y-65896480D01*
X107468934Y-65896480D02*
X107430839Y-65934575D01*
X107430839Y-65934575D02*
X107392743Y-66010766D01*
X107392743Y-66010766D02*
X107392743Y-66125051D01*
X107392743Y-66125051D02*
X107430839Y-66201242D01*
X107430839Y-66201242D02*
X107468934Y-66239337D01*
X107468934Y-66239337D02*
X107545124Y-66277432D01*
X107545124Y-66277432D02*
X107849886Y-66277432D01*
X106745124Y-66620290D02*
X106821315Y-66658385D01*
X106821315Y-66658385D02*
X106973696Y-66658385D01*
X106973696Y-66658385D02*
X107049886Y-66620290D01*
X107049886Y-66620290D02*
X107087982Y-66544099D01*
X107087982Y-66544099D02*
X107087982Y-66239337D01*
X107087982Y-66239337D02*
X107049886Y-66163147D01*
X107049886Y-66163147D02*
X106973696Y-66125051D01*
X106973696Y-66125051D02*
X106821315Y-66125051D01*
X106821315Y-66125051D02*
X106745124Y-66163147D01*
X106745124Y-66163147D02*
X106707029Y-66239337D01*
X106707029Y-66239337D02*
X106707029Y-66315528D01*
X106707029Y-66315528D02*
X107087982Y-66391718D01*
X106021315Y-66658385D02*
X106021315Y-65858385D01*
X106021315Y-66620290D02*
X106097506Y-66658385D01*
X106097506Y-66658385D02*
X106249887Y-66658385D01*
X106249887Y-66658385D02*
X106326077Y-66620290D01*
X106326077Y-66620290D02*
X106364172Y-66582194D01*
X106364172Y-66582194D02*
X106402268Y-66506004D01*
X106402268Y-66506004D02*
X106402268Y-66277432D01*
X106402268Y-66277432D02*
X106364172Y-66201242D01*
X106364172Y-66201242D02*
X106326077Y-66163147D01*
X106326077Y-66163147D02*
X106249887Y-66125051D01*
X106249887Y-66125051D02*
X106097506Y-66125051D01*
X106097506Y-66125051D02*
X106021315Y-66163147D01*
X105297505Y-66658385D02*
X105297505Y-66239337D01*
X105297505Y-66239337D02*
X105335600Y-66163147D01*
X105335600Y-66163147D02*
X105411791Y-66125051D01*
X105411791Y-66125051D02*
X105564172Y-66125051D01*
X105564172Y-66125051D02*
X105640362Y-66163147D01*
X105297505Y-66620290D02*
X105373696Y-66658385D01*
X105373696Y-66658385D02*
X105564172Y-66658385D01*
X105564172Y-66658385D02*
X105640362Y-66620290D01*
X105640362Y-66620290D02*
X105678458Y-66544099D01*
X105678458Y-66544099D02*
X105678458Y-66467909D01*
X105678458Y-66467909D02*
X105640362Y-66391718D01*
X105640362Y-66391718D02*
X105564172Y-66353623D01*
X105564172Y-66353623D02*
X105373696Y-66353623D01*
X105373696Y-66353623D02*
X105297505Y-66315528D01*
X104802267Y-66658385D02*
X104878457Y-66620290D01*
X104878457Y-66620290D02*
X104916552Y-66544099D01*
X104916552Y-66544099D02*
X104916552Y-65858385D01*
X104497504Y-66658385D02*
X104497504Y-65858385D01*
X104497504Y-66163147D02*
X104421314Y-66125051D01*
X104421314Y-66125051D02*
X104268933Y-66125051D01*
X104268933Y-66125051D02*
X104192742Y-66163147D01*
X104192742Y-66163147D02*
X104154647Y-66201242D01*
X104154647Y-66201242D02*
X104116552Y-66277432D01*
X104116552Y-66277432D02*
X104116552Y-66506004D01*
X104116552Y-66506004D02*
X104154647Y-66582194D01*
X104154647Y-66582194D02*
X104192742Y-66620290D01*
X104192742Y-66620290D02*
X104268933Y-66658385D01*
X104268933Y-66658385D02*
X104421314Y-66658385D01*
X104421314Y-66658385D02*
X104497504Y-66620290D01*
X103659409Y-66658385D02*
X103735599Y-66620290D01*
X103735599Y-66620290D02*
X103773694Y-66582194D01*
X103773694Y-66582194D02*
X103811790Y-66506004D01*
X103811790Y-66506004D02*
X103811790Y-66277432D01*
X103811790Y-66277432D02*
X103773694Y-66201242D01*
X103773694Y-66201242D02*
X103735599Y-66163147D01*
X103735599Y-66163147D02*
X103659409Y-66125051D01*
X103659409Y-66125051D02*
X103545123Y-66125051D01*
X103545123Y-66125051D02*
X103468932Y-66163147D01*
X103468932Y-66163147D02*
X103430837Y-66201242D01*
X103430837Y-66201242D02*
X103392742Y-66277432D01*
X103392742Y-66277432D02*
X103392742Y-66506004D01*
X103392742Y-66506004D02*
X103430837Y-66582194D01*
X103430837Y-66582194D02*
X103468932Y-66620290D01*
X103468932Y-66620290D02*
X103545123Y-66658385D01*
X103545123Y-66658385D02*
X103659409Y-66658385D01*
X102707027Y-66658385D02*
X102707027Y-66239337D01*
X102707027Y-66239337D02*
X102745122Y-66163147D01*
X102745122Y-66163147D02*
X102821313Y-66125051D01*
X102821313Y-66125051D02*
X102973694Y-66125051D01*
X102973694Y-66125051D02*
X103049884Y-66163147D01*
X102707027Y-66620290D02*
X102783218Y-66658385D01*
X102783218Y-66658385D02*
X102973694Y-66658385D01*
X102973694Y-66658385D02*
X103049884Y-66620290D01*
X103049884Y-66620290D02*
X103087980Y-66544099D01*
X103087980Y-66544099D02*
X103087980Y-66467909D01*
X103087980Y-66467909D02*
X103049884Y-66391718D01*
X103049884Y-66391718D02*
X102973694Y-66353623D01*
X102973694Y-66353623D02*
X102783218Y-66353623D01*
X102783218Y-66353623D02*
X102707027Y-66315528D01*
X102326074Y-66658385D02*
X102326074Y-66125051D01*
X102326074Y-66277432D02*
X102287979Y-66201242D01*
X102287979Y-66201242D02*
X102249884Y-66163147D01*
X102249884Y-66163147D02*
X102173693Y-66125051D01*
X102173693Y-66125051D02*
X102097503Y-66125051D01*
X101487979Y-66658385D02*
X101487979Y-65858385D01*
X101487979Y-66620290D02*
X101564170Y-66658385D01*
X101564170Y-66658385D02*
X101716551Y-66658385D01*
X101716551Y-66658385D02*
X101792741Y-66620290D01*
X101792741Y-66620290D02*
X101830836Y-66582194D01*
X101830836Y-66582194D02*
X101868932Y-66506004D01*
X101868932Y-66506004D02*
X101868932Y-66277432D01*
X101868932Y-66277432D02*
X101830836Y-66201242D01*
X101830836Y-66201242D02*
X101792741Y-66163147D01*
X101792741Y-66163147D02*
X101716551Y-66125051D01*
X101716551Y-66125051D02*
X101564170Y-66125051D01*
X101564170Y-66125051D02*
X101487979Y-66163147D01*
X100535598Y-66620290D02*
X100421312Y-66658385D01*
X100421312Y-66658385D02*
X100230836Y-66658385D01*
X100230836Y-66658385D02*
X100154645Y-66620290D01*
X100154645Y-66620290D02*
X100116550Y-66582194D01*
X100116550Y-66582194D02*
X100078455Y-66506004D01*
X100078455Y-66506004D02*
X100078455Y-66429813D01*
X100078455Y-66429813D02*
X100116550Y-66353623D01*
X100116550Y-66353623D02*
X100154645Y-66315528D01*
X100154645Y-66315528D02*
X100230836Y-66277432D01*
X100230836Y-66277432D02*
X100383217Y-66239337D01*
X100383217Y-66239337D02*
X100459407Y-66201242D01*
X100459407Y-66201242D02*
X100497502Y-66163147D01*
X100497502Y-66163147D02*
X100535598Y-66086956D01*
X100535598Y-66086956D02*
X100535598Y-66010766D01*
X100535598Y-66010766D02*
X100497502Y-65934575D01*
X100497502Y-65934575D02*
X100459407Y-65896480D01*
X100459407Y-65896480D02*
X100383217Y-65858385D01*
X100383217Y-65858385D02*
X100192740Y-65858385D01*
X100192740Y-65858385D02*
X100078455Y-65896480D01*
X99621312Y-66658385D02*
X99697502Y-66620290D01*
X99697502Y-66620290D02*
X99735597Y-66582194D01*
X99735597Y-66582194D02*
X99773693Y-66506004D01*
X99773693Y-66506004D02*
X99773693Y-66277432D01*
X99773693Y-66277432D02*
X99735597Y-66201242D01*
X99735597Y-66201242D02*
X99697502Y-66163147D01*
X99697502Y-66163147D02*
X99621312Y-66125051D01*
X99621312Y-66125051D02*
X99507026Y-66125051D01*
X99507026Y-66125051D02*
X99430835Y-66163147D01*
X99430835Y-66163147D02*
X99392740Y-66201242D01*
X99392740Y-66201242D02*
X99354645Y-66277432D01*
X99354645Y-66277432D02*
X99354645Y-66506004D01*
X99354645Y-66506004D02*
X99392740Y-66582194D01*
X99392740Y-66582194D02*
X99430835Y-66620290D01*
X99430835Y-66620290D02*
X99507026Y-66658385D01*
X99507026Y-66658385D02*
X99621312Y-66658385D01*
X98668930Y-66125051D02*
X98668930Y-66658385D01*
X99011787Y-66125051D02*
X99011787Y-66544099D01*
X99011787Y-66544099D02*
X98973692Y-66620290D01*
X98973692Y-66620290D02*
X98897502Y-66658385D01*
X98897502Y-66658385D02*
X98783216Y-66658385D01*
X98783216Y-66658385D02*
X98707025Y-66620290D01*
X98707025Y-66620290D02*
X98668930Y-66582194D01*
X98287977Y-66125051D02*
X98287977Y-66658385D01*
X98287977Y-66201242D02*
X98249882Y-66163147D01*
X98249882Y-66163147D02*
X98173692Y-66125051D01*
X98173692Y-66125051D02*
X98059406Y-66125051D01*
X98059406Y-66125051D02*
X97983215Y-66163147D01*
X97983215Y-66163147D02*
X97945120Y-66239337D01*
X97945120Y-66239337D02*
X97945120Y-66658385D01*
X97221310Y-66658385D02*
X97221310Y-65858385D01*
X97221310Y-66620290D02*
X97297501Y-66658385D01*
X97297501Y-66658385D02*
X97449882Y-66658385D01*
X97449882Y-66658385D02*
X97526072Y-66620290D01*
X97526072Y-66620290D02*
X97564167Y-66582194D01*
X97564167Y-66582194D02*
X97602263Y-66506004D01*
X97602263Y-66506004D02*
X97602263Y-66277432D01*
X97602263Y-66277432D02*
X97564167Y-66201242D01*
X97564167Y-66201242D02*
X97526072Y-66163147D01*
X97526072Y-66163147D02*
X97449882Y-66125051D01*
X97449882Y-66125051D02*
X97297501Y-66125051D01*
X97297501Y-66125051D02*
X97221310Y-66163147D01*
X96497500Y-66620290D02*
X96573691Y-66658385D01*
X96573691Y-66658385D02*
X96726072Y-66658385D01*
X96726072Y-66658385D02*
X96802262Y-66620290D01*
X96802262Y-66620290D02*
X96840357Y-66582194D01*
X96840357Y-66582194D02*
X96878453Y-66506004D01*
X96878453Y-66506004D02*
X96878453Y-66277432D01*
X96878453Y-66277432D02*
X96840357Y-66201242D01*
X96840357Y-66201242D02*
X96802262Y-66163147D01*
X96802262Y-66163147D02*
X96726072Y-66125051D01*
X96726072Y-66125051D02*
X96573691Y-66125051D01*
X96573691Y-66125051D02*
X96497500Y-66163147D01*
X95811786Y-66658385D02*
X95811786Y-66239337D01*
X95811786Y-66239337D02*
X95849881Y-66163147D01*
X95849881Y-66163147D02*
X95926072Y-66125051D01*
X95926072Y-66125051D02*
X96078453Y-66125051D01*
X96078453Y-66125051D02*
X96154643Y-66163147D01*
X95811786Y-66620290D02*
X95887977Y-66658385D01*
X95887977Y-66658385D02*
X96078453Y-66658385D01*
X96078453Y-66658385D02*
X96154643Y-66620290D01*
X96154643Y-66620290D02*
X96192739Y-66544099D01*
X96192739Y-66544099D02*
X96192739Y-66467909D01*
X96192739Y-66467909D02*
X96154643Y-66391718D01*
X96154643Y-66391718D02*
X96078453Y-66353623D01*
X96078453Y-66353623D02*
X95887977Y-66353623D01*
X95887977Y-66353623D02*
X95811786Y-66315528D01*
X95430833Y-66658385D02*
X95430833Y-66125051D01*
X95430833Y-66277432D02*
X95392738Y-66201242D01*
X95392738Y-66201242D02*
X95354643Y-66163147D01*
X95354643Y-66163147D02*
X95278452Y-66125051D01*
X95278452Y-66125051D02*
X95202262Y-66125051D01*
X94592738Y-66658385D02*
X94592738Y-65858385D01*
X94592738Y-66620290D02*
X94668929Y-66658385D01*
X94668929Y-66658385D02*
X94821310Y-66658385D01*
X94821310Y-66658385D02*
X94897500Y-66620290D01*
X94897500Y-66620290D02*
X94935595Y-66582194D01*
X94935595Y-66582194D02*
X94973691Y-66506004D01*
X94973691Y-66506004D02*
X94973691Y-66277432D01*
X94973691Y-66277432D02*
X94935595Y-66201242D01*
X94935595Y-66201242D02*
X94897500Y-66163147D01*
X94897500Y-66163147D02*
X94821310Y-66125051D01*
X94821310Y-66125051D02*
X94668929Y-66125051D01*
X94668929Y-66125051D02*
X94592738Y-66163147D01*
X111087982Y-67413006D02*
X111087982Y-68060625D01*
X111087982Y-68060625D02*
X111126077Y-68136816D01*
X111126077Y-68136816D02*
X111164173Y-68174911D01*
X111164173Y-68174911D02*
X111240363Y-68213006D01*
X111240363Y-68213006D02*
X111354649Y-68213006D01*
X111354649Y-68213006D02*
X111430839Y-68174911D01*
X111087982Y-67908245D02*
X111164173Y-67946340D01*
X111164173Y-67946340D02*
X111316554Y-67946340D01*
X111316554Y-67946340D02*
X111392744Y-67908245D01*
X111392744Y-67908245D02*
X111430839Y-67870149D01*
X111430839Y-67870149D02*
X111468935Y-67793959D01*
X111468935Y-67793959D02*
X111468935Y-67565387D01*
X111468935Y-67565387D02*
X111430839Y-67489197D01*
X111430839Y-67489197D02*
X111392744Y-67451102D01*
X111392744Y-67451102D02*
X111316554Y-67413006D01*
X111316554Y-67413006D02*
X111164173Y-67413006D01*
X111164173Y-67413006D02*
X111087982Y-67451102D01*
X110707029Y-67946340D02*
X110707029Y-67413006D01*
X110707029Y-67146340D02*
X110745125Y-67184435D01*
X110745125Y-67184435D02*
X110707029Y-67222530D01*
X110707029Y-67222530D02*
X110668934Y-67184435D01*
X110668934Y-67184435D02*
X110707029Y-67146340D01*
X110707029Y-67146340D02*
X110707029Y-67222530D01*
X110440363Y-67413006D02*
X110135601Y-67413006D01*
X110326077Y-67146340D02*
X110326077Y-67832054D01*
X110326077Y-67832054D02*
X110287982Y-67908245D01*
X110287982Y-67908245D02*
X110211792Y-67946340D01*
X110211792Y-67946340D02*
X110135601Y-67946340D01*
X109868934Y-67946340D02*
X109868934Y-67146340D01*
X109526077Y-67946340D02*
X109526077Y-67527292D01*
X109526077Y-67527292D02*
X109564172Y-67451102D01*
X109564172Y-67451102D02*
X109640363Y-67413006D01*
X109640363Y-67413006D02*
X109754649Y-67413006D01*
X109754649Y-67413006D02*
X109830839Y-67451102D01*
X109830839Y-67451102D02*
X109868934Y-67489197D01*
X108802267Y-67413006D02*
X108802267Y-67946340D01*
X109145124Y-67413006D02*
X109145124Y-67832054D01*
X109145124Y-67832054D02*
X109107029Y-67908245D01*
X109107029Y-67908245D02*
X109030839Y-67946340D01*
X109030839Y-67946340D02*
X108916553Y-67946340D01*
X108916553Y-67946340D02*
X108840362Y-67908245D01*
X108840362Y-67908245D02*
X108802267Y-67870149D01*
X108421314Y-67946340D02*
X108421314Y-67146340D01*
X108421314Y-67451102D02*
X108345124Y-67413006D01*
X108345124Y-67413006D02*
X108192743Y-67413006D01*
X108192743Y-67413006D02*
X108116552Y-67451102D01*
X108116552Y-67451102D02*
X108078457Y-67489197D01*
X108078457Y-67489197D02*
X108040362Y-67565387D01*
X108040362Y-67565387D02*
X108040362Y-67793959D01*
X108040362Y-67793959D02*
X108078457Y-67870149D01*
X108078457Y-67870149D02*
X108116552Y-67908245D01*
X108116552Y-67908245D02*
X108192743Y-67946340D01*
X108192743Y-67946340D02*
X108345124Y-67946340D01*
X108345124Y-67946340D02*
X108421314Y-67908245D01*
X107697504Y-67870149D02*
X107659409Y-67908245D01*
X107659409Y-67908245D02*
X107697504Y-67946340D01*
X107697504Y-67946340D02*
X107735600Y-67908245D01*
X107735600Y-67908245D02*
X107697504Y-67870149D01*
X107697504Y-67870149D02*
X107697504Y-67946340D01*
X106973695Y-67908245D02*
X107049886Y-67946340D01*
X107049886Y-67946340D02*
X107202267Y-67946340D01*
X107202267Y-67946340D02*
X107278457Y-67908245D01*
X107278457Y-67908245D02*
X107316552Y-67870149D01*
X107316552Y-67870149D02*
X107354648Y-67793959D01*
X107354648Y-67793959D02*
X107354648Y-67565387D01*
X107354648Y-67565387D02*
X107316552Y-67489197D01*
X107316552Y-67489197D02*
X107278457Y-67451102D01*
X107278457Y-67451102D02*
X107202267Y-67413006D01*
X107202267Y-67413006D02*
X107049886Y-67413006D01*
X107049886Y-67413006D02*
X106973695Y-67451102D01*
X106516553Y-67946340D02*
X106592743Y-67908245D01*
X106592743Y-67908245D02*
X106630838Y-67870149D01*
X106630838Y-67870149D02*
X106668934Y-67793959D01*
X106668934Y-67793959D02*
X106668934Y-67565387D01*
X106668934Y-67565387D02*
X106630838Y-67489197D01*
X106630838Y-67489197D02*
X106592743Y-67451102D01*
X106592743Y-67451102D02*
X106516553Y-67413006D01*
X106516553Y-67413006D02*
X106402267Y-67413006D01*
X106402267Y-67413006D02*
X106326076Y-67451102D01*
X106326076Y-67451102D02*
X106287981Y-67489197D01*
X106287981Y-67489197D02*
X106249886Y-67565387D01*
X106249886Y-67565387D02*
X106249886Y-67793959D01*
X106249886Y-67793959D02*
X106287981Y-67870149D01*
X106287981Y-67870149D02*
X106326076Y-67908245D01*
X106326076Y-67908245D02*
X106402267Y-67946340D01*
X106402267Y-67946340D02*
X106516553Y-67946340D01*
X105907028Y-67946340D02*
X105907028Y-67413006D01*
X105907028Y-67489197D02*
X105868933Y-67451102D01*
X105868933Y-67451102D02*
X105792743Y-67413006D01*
X105792743Y-67413006D02*
X105678457Y-67413006D01*
X105678457Y-67413006D02*
X105602266Y-67451102D01*
X105602266Y-67451102D02*
X105564171Y-67527292D01*
X105564171Y-67527292D02*
X105564171Y-67946340D01*
X105564171Y-67527292D02*
X105526076Y-67451102D01*
X105526076Y-67451102D02*
X105449885Y-67413006D01*
X105449885Y-67413006D02*
X105335600Y-67413006D01*
X105335600Y-67413006D02*
X105259409Y-67451102D01*
X105259409Y-67451102D02*
X105221314Y-67527292D01*
X105221314Y-67527292D02*
X105221314Y-67946340D01*
X104268933Y-67108245D02*
X104954647Y-68136816D01*
X104002266Y-67413006D02*
X104002266Y-68213006D01*
X104002266Y-67451102D02*
X103926076Y-67413006D01*
X103926076Y-67413006D02*
X103773695Y-67413006D01*
X103773695Y-67413006D02*
X103697504Y-67451102D01*
X103697504Y-67451102D02*
X103659409Y-67489197D01*
X103659409Y-67489197D02*
X103621314Y-67565387D01*
X103621314Y-67565387D02*
X103621314Y-67793959D01*
X103621314Y-67793959D02*
X103659409Y-67870149D01*
X103659409Y-67870149D02*
X103697504Y-67908245D01*
X103697504Y-67908245D02*
X103773695Y-67946340D01*
X103773695Y-67946340D02*
X103926076Y-67946340D01*
X103926076Y-67946340D02*
X104002266Y-67908245D01*
X102973694Y-67908245D02*
X103049885Y-67946340D01*
X103049885Y-67946340D02*
X103202266Y-67946340D01*
X103202266Y-67946340D02*
X103278456Y-67908245D01*
X103278456Y-67908245D02*
X103316552Y-67832054D01*
X103316552Y-67832054D02*
X103316552Y-67527292D01*
X103316552Y-67527292D02*
X103278456Y-67451102D01*
X103278456Y-67451102D02*
X103202266Y-67413006D01*
X103202266Y-67413006D02*
X103049885Y-67413006D01*
X103049885Y-67413006D02*
X102973694Y-67451102D01*
X102973694Y-67451102D02*
X102935599Y-67527292D01*
X102935599Y-67527292D02*
X102935599Y-67603483D01*
X102935599Y-67603483D02*
X103316552Y-67679673D01*
X102249885Y-67946340D02*
X102249885Y-67146340D01*
X102249885Y-67908245D02*
X102326076Y-67946340D01*
X102326076Y-67946340D02*
X102478457Y-67946340D01*
X102478457Y-67946340D02*
X102554647Y-67908245D01*
X102554647Y-67908245D02*
X102592742Y-67870149D01*
X102592742Y-67870149D02*
X102630838Y-67793959D01*
X102630838Y-67793959D02*
X102630838Y-67565387D01*
X102630838Y-67565387D02*
X102592742Y-67489197D01*
X102592742Y-67489197D02*
X102554647Y-67451102D01*
X102554647Y-67451102D02*
X102478457Y-67413006D01*
X102478457Y-67413006D02*
X102326076Y-67413006D01*
X102326076Y-67413006D02*
X102249885Y-67451102D01*
X101526075Y-67946340D02*
X101526075Y-67527292D01*
X101526075Y-67527292D02*
X101564170Y-67451102D01*
X101564170Y-67451102D02*
X101640361Y-67413006D01*
X101640361Y-67413006D02*
X101792742Y-67413006D01*
X101792742Y-67413006D02*
X101868932Y-67451102D01*
X101526075Y-67908245D02*
X101602266Y-67946340D01*
X101602266Y-67946340D02*
X101792742Y-67946340D01*
X101792742Y-67946340D02*
X101868932Y-67908245D01*
X101868932Y-67908245D02*
X101907028Y-67832054D01*
X101907028Y-67832054D02*
X101907028Y-67755864D01*
X101907028Y-67755864D02*
X101868932Y-67679673D01*
X101868932Y-67679673D02*
X101792742Y-67641578D01*
X101792742Y-67641578D02*
X101602266Y-67641578D01*
X101602266Y-67641578D02*
X101526075Y-67603483D01*
X101030837Y-67946340D02*
X101107027Y-67908245D01*
X101107027Y-67908245D02*
X101145122Y-67832054D01*
X101145122Y-67832054D02*
X101145122Y-67146340D01*
X100726074Y-67946340D02*
X100726074Y-67146340D01*
X100726074Y-67451102D02*
X100649884Y-67413006D01*
X100649884Y-67413006D02*
X100497503Y-67413006D01*
X100497503Y-67413006D02*
X100421312Y-67451102D01*
X100421312Y-67451102D02*
X100383217Y-67489197D01*
X100383217Y-67489197D02*
X100345122Y-67565387D01*
X100345122Y-67565387D02*
X100345122Y-67793959D01*
X100345122Y-67793959D02*
X100383217Y-67870149D01*
X100383217Y-67870149D02*
X100421312Y-67908245D01*
X100421312Y-67908245D02*
X100497503Y-67946340D01*
X100497503Y-67946340D02*
X100649884Y-67946340D01*
X100649884Y-67946340D02*
X100726074Y-67908245D01*
X99887979Y-67946340D02*
X99964169Y-67908245D01*
X99964169Y-67908245D02*
X100002264Y-67870149D01*
X100002264Y-67870149D02*
X100040360Y-67793959D01*
X100040360Y-67793959D02*
X100040360Y-67565387D01*
X100040360Y-67565387D02*
X100002264Y-67489197D01*
X100002264Y-67489197D02*
X99964169Y-67451102D01*
X99964169Y-67451102D02*
X99887979Y-67413006D01*
X99887979Y-67413006D02*
X99773693Y-67413006D01*
X99773693Y-67413006D02*
X99697502Y-67451102D01*
X99697502Y-67451102D02*
X99659407Y-67489197D01*
X99659407Y-67489197D02*
X99621312Y-67565387D01*
X99621312Y-67565387D02*
X99621312Y-67793959D01*
X99621312Y-67793959D02*
X99659407Y-67870149D01*
X99659407Y-67870149D02*
X99697502Y-67908245D01*
X99697502Y-67908245D02*
X99773693Y-67946340D01*
X99773693Y-67946340D02*
X99887979Y-67946340D01*
X98935597Y-67946340D02*
X98935597Y-67527292D01*
X98935597Y-67527292D02*
X98973692Y-67451102D01*
X98973692Y-67451102D02*
X99049883Y-67413006D01*
X99049883Y-67413006D02*
X99202264Y-67413006D01*
X99202264Y-67413006D02*
X99278454Y-67451102D01*
X98935597Y-67908245D02*
X99011788Y-67946340D01*
X99011788Y-67946340D02*
X99202264Y-67946340D01*
X99202264Y-67946340D02*
X99278454Y-67908245D01*
X99278454Y-67908245D02*
X99316550Y-67832054D01*
X99316550Y-67832054D02*
X99316550Y-67755864D01*
X99316550Y-67755864D02*
X99278454Y-67679673D01*
X99278454Y-67679673D02*
X99202264Y-67641578D01*
X99202264Y-67641578D02*
X99011788Y-67641578D01*
X99011788Y-67641578D02*
X98935597Y-67603483D01*
X98554644Y-67946340D02*
X98554644Y-67413006D01*
X98554644Y-67565387D02*
X98516549Y-67489197D01*
X98516549Y-67489197D02*
X98478454Y-67451102D01*
X98478454Y-67451102D02*
X98402263Y-67413006D01*
X98402263Y-67413006D02*
X98326073Y-67413006D01*
X97716549Y-67946340D02*
X97716549Y-67146340D01*
X97716549Y-67908245D02*
X97792740Y-67946340D01*
X97792740Y-67946340D02*
X97945121Y-67946340D01*
X97945121Y-67946340D02*
X98021311Y-67908245D01*
X98021311Y-67908245D02*
X98059406Y-67870149D01*
X98059406Y-67870149D02*
X98097502Y-67793959D01*
X98097502Y-67793959D02*
X98097502Y-67565387D01*
X98097502Y-67565387D02*
X98059406Y-67489197D01*
X98059406Y-67489197D02*
X98021311Y-67451102D01*
X98021311Y-67451102D02*
X97945121Y-67413006D01*
X97945121Y-67413006D02*
X97792740Y-67413006D01*
X97792740Y-67413006D02*
X97716549Y-67451102D01*
X111430839Y-69234295D02*
X111430839Y-68434295D01*
X111430839Y-68434295D02*
X111126077Y-68434295D01*
X111126077Y-68434295D02*
X111049887Y-68472390D01*
X111049887Y-68472390D02*
X111011792Y-68510485D01*
X111011792Y-68510485D02*
X110973696Y-68586676D01*
X110973696Y-68586676D02*
X110973696Y-68700961D01*
X110973696Y-68700961D02*
X111011792Y-68777152D01*
X111011792Y-68777152D02*
X111049887Y-68815247D01*
X111049887Y-68815247D02*
X111126077Y-68853342D01*
X111126077Y-68853342D02*
X111430839Y-68853342D01*
X110173696Y-69158104D02*
X110211792Y-69196200D01*
X110211792Y-69196200D02*
X110326077Y-69234295D01*
X110326077Y-69234295D02*
X110402268Y-69234295D01*
X110402268Y-69234295D02*
X110516554Y-69196200D01*
X110516554Y-69196200D02*
X110592744Y-69120009D01*
X110592744Y-69120009D02*
X110630839Y-69043819D01*
X110630839Y-69043819D02*
X110668935Y-68891438D01*
X110668935Y-68891438D02*
X110668935Y-68777152D01*
X110668935Y-68777152D02*
X110630839Y-68624771D01*
X110630839Y-68624771D02*
X110592744Y-68548580D01*
X110592744Y-68548580D02*
X110516554Y-68472390D01*
X110516554Y-68472390D02*
X110402268Y-68434295D01*
X110402268Y-68434295D02*
X110326077Y-68434295D01*
X110326077Y-68434295D02*
X110211792Y-68472390D01*
X110211792Y-68472390D02*
X110173696Y-68510485D01*
X109564173Y-68815247D02*
X109449887Y-68853342D01*
X109449887Y-68853342D02*
X109411792Y-68891438D01*
X109411792Y-68891438D02*
X109373696Y-68967628D01*
X109373696Y-68967628D02*
X109373696Y-69081914D01*
X109373696Y-69081914D02*
X109411792Y-69158104D01*
X109411792Y-69158104D02*
X109449887Y-69196200D01*
X109449887Y-69196200D02*
X109526077Y-69234295D01*
X109526077Y-69234295D02*
X109830839Y-69234295D01*
X109830839Y-69234295D02*
X109830839Y-68434295D01*
X109830839Y-68434295D02*
X109564173Y-68434295D01*
X109564173Y-68434295D02*
X109487982Y-68472390D01*
X109487982Y-68472390D02*
X109449887Y-68510485D01*
X109449887Y-68510485D02*
X109411792Y-68586676D01*
X109411792Y-68586676D02*
X109411792Y-68662866D01*
X109411792Y-68662866D02*
X109449887Y-68739057D01*
X109449887Y-68739057D02*
X109487982Y-68777152D01*
X109487982Y-68777152D02*
X109564173Y-68815247D01*
X109564173Y-68815247D02*
X109830839Y-68815247D01*
X109030839Y-69158104D02*
X108992744Y-69196200D01*
X108992744Y-69196200D02*
X109030839Y-69234295D01*
X109030839Y-69234295D02*
X109068935Y-69196200D01*
X109068935Y-69196200D02*
X109030839Y-69158104D01*
X109030839Y-69158104D02*
X109030839Y-69234295D01*
X109030839Y-68739057D02*
X108992744Y-68777152D01*
X108992744Y-68777152D02*
X109030839Y-68815247D01*
X109030839Y-68815247D02*
X109068935Y-68777152D01*
X109068935Y-68777152D02*
X109030839Y-68739057D01*
X109030839Y-68739057D02*
X109030839Y-68815247D01*
X107621316Y-69234295D02*
X108078459Y-69234295D01*
X107849887Y-69234295D02*
X107849887Y-68434295D01*
X107849887Y-68434295D02*
X107926078Y-68548580D01*
X107926078Y-68548580D02*
X108002268Y-68624771D01*
X108002268Y-68624771D02*
X108078459Y-68662866D01*
X107278458Y-69158104D02*
X107240363Y-69196200D01*
X107240363Y-69196200D02*
X107278458Y-69234295D01*
X107278458Y-69234295D02*
X107316554Y-69196200D01*
X107316554Y-69196200D02*
X107278458Y-69158104D01*
X107278458Y-69158104D02*
X107278458Y-69234295D01*
X106745125Y-68434295D02*
X106668935Y-68434295D01*
X106668935Y-68434295D02*
X106592744Y-68472390D01*
X106592744Y-68472390D02*
X106554649Y-68510485D01*
X106554649Y-68510485D02*
X106516554Y-68586676D01*
X106516554Y-68586676D02*
X106478459Y-68739057D01*
X106478459Y-68739057D02*
X106478459Y-68929533D01*
X106478459Y-68929533D02*
X106516554Y-69081914D01*
X106516554Y-69081914D02*
X106554649Y-69158104D01*
X106554649Y-69158104D02*
X106592744Y-69196200D01*
X106592744Y-69196200D02*
X106668935Y-69234295D01*
X106668935Y-69234295D02*
X106745125Y-69234295D01*
X106745125Y-69234295D02*
X106821316Y-69196200D01*
X106821316Y-69196200D02*
X106859411Y-69158104D01*
X106859411Y-69158104D02*
X106897506Y-69081914D01*
X106897506Y-69081914D02*
X106935602Y-68929533D01*
X106935602Y-68929533D02*
X106935602Y-68739057D01*
X106935602Y-68739057D02*
X106897506Y-68586676D01*
X106897506Y-68586676D02*
X106859411Y-68510485D01*
X106859411Y-68510485D02*
X106821316Y-68472390D01*
X106821316Y-68472390D02*
X106745125Y-68434295D01*
X106135601Y-69158104D02*
X106097506Y-69196200D01*
X106097506Y-69196200D02*
X106135601Y-69234295D01*
X106135601Y-69234295D02*
X106173697Y-69196200D01*
X106173697Y-69196200D02*
X106135601Y-69158104D01*
X106135601Y-69158104D02*
X106135601Y-69234295D01*
X105335602Y-69234295D02*
X105792745Y-69234295D01*
X105564173Y-69234295D02*
X105564173Y-68434295D01*
X105564173Y-68434295D02*
X105640364Y-68548580D01*
X105640364Y-68548580D02*
X105716554Y-68624771D01*
X105716554Y-68624771D02*
X105792745Y-68662866D01*
X104992744Y-68929533D02*
X104383221Y-68929533D01*
X103545125Y-69234295D02*
X103811792Y-68853342D01*
X104002268Y-69234295D02*
X104002268Y-68434295D01*
X104002268Y-68434295D02*
X103697506Y-68434295D01*
X103697506Y-68434295D02*
X103621316Y-68472390D01*
X103621316Y-68472390D02*
X103583221Y-68510485D01*
X103583221Y-68510485D02*
X103545125Y-68586676D01*
X103545125Y-68586676D02*
X103545125Y-68700961D01*
X103545125Y-68700961D02*
X103583221Y-68777152D01*
X103583221Y-68777152D02*
X103621316Y-68815247D01*
X103621316Y-68815247D02*
X103697506Y-68853342D01*
X103697506Y-68853342D02*
X104002268Y-68853342D01*
X102745125Y-69158104D02*
X102783221Y-69196200D01*
X102783221Y-69196200D02*
X102897506Y-69234295D01*
X102897506Y-69234295D02*
X102973697Y-69234295D01*
X102973697Y-69234295D02*
X103087983Y-69196200D01*
X103087983Y-69196200D02*
X103164173Y-69120009D01*
X103164173Y-69120009D02*
X103202268Y-69043819D01*
X103202268Y-69043819D02*
X103240364Y-68891438D01*
X103240364Y-68891438D02*
X103240364Y-68777152D01*
X103240364Y-68777152D02*
X103202268Y-68624771D01*
X103202268Y-68624771D02*
X103164173Y-68548580D01*
X103164173Y-68548580D02*
X103087983Y-68472390D01*
X103087983Y-68472390D02*
X102973697Y-68434295D01*
X102973697Y-68434295D02*
X102897506Y-68434295D01*
X102897506Y-68434295D02*
X102783221Y-68472390D01*
X102783221Y-68472390D02*
X102745125Y-68510485D01*
X101907030Y-68700961D02*
X101602268Y-68700961D01*
X101792744Y-69234295D02*
X101792744Y-68548580D01*
X101792744Y-68548580D02*
X101754649Y-68472390D01*
X101754649Y-68472390D02*
X101678459Y-68434295D01*
X101678459Y-68434295D02*
X101602268Y-68434295D01*
X101449887Y-68700961D02*
X101145125Y-68700961D01*
X101335601Y-69234295D02*
X101335601Y-68548580D01*
X101335601Y-68548580D02*
X101297506Y-68472390D01*
X101297506Y-68472390D02*
X101221316Y-68434295D01*
X101221316Y-68434295D02*
X101145125Y-68434295D01*
X100535601Y-68434295D02*
X100687982Y-68434295D01*
X100687982Y-68434295D02*
X100764173Y-68472390D01*
X100764173Y-68472390D02*
X100802268Y-68510485D01*
X100802268Y-68510485D02*
X100878458Y-68624771D01*
X100878458Y-68624771D02*
X100916554Y-68777152D01*
X100916554Y-68777152D02*
X100916554Y-69081914D01*
X100916554Y-69081914D02*
X100878458Y-69158104D01*
X100878458Y-69158104D02*
X100840363Y-69196200D01*
X100840363Y-69196200D02*
X100764173Y-69234295D01*
X100764173Y-69234295D02*
X100611792Y-69234295D01*
X100611792Y-69234295D02*
X100535601Y-69196200D01*
X100535601Y-69196200D02*
X100497506Y-69158104D01*
X100497506Y-69158104D02*
X100459411Y-69081914D01*
X100459411Y-69081914D02*
X100459411Y-68891438D01*
X100459411Y-68891438D02*
X100497506Y-68815247D01*
X100497506Y-68815247D02*
X100535601Y-68777152D01*
X100535601Y-68777152D02*
X100611792Y-68739057D01*
X100611792Y-68739057D02*
X100764173Y-68739057D01*
X100764173Y-68739057D02*
X100840363Y-68777152D01*
X100840363Y-68777152D02*
X100878458Y-68815247D01*
X100878458Y-68815247D02*
X100916554Y-68891438D01*
X99773696Y-68700961D02*
X99773696Y-69234295D01*
X99964172Y-68396200D02*
X100154649Y-68967628D01*
X100154649Y-68967628D02*
X99659410Y-68967628D01*
X99011791Y-69234295D02*
X99011791Y-68434295D01*
X99011791Y-69196200D02*
X99087982Y-69234295D01*
X99087982Y-69234295D02*
X99240363Y-69234295D01*
X99240363Y-69234295D02*
X99316553Y-69196200D01*
X99316553Y-69196200D02*
X99354648Y-69158104D01*
X99354648Y-69158104D02*
X99392744Y-69081914D01*
X99392744Y-69081914D02*
X99392744Y-68853342D01*
X99392744Y-68853342D02*
X99354648Y-68777152D01*
X99354648Y-68777152D02*
X99316553Y-68739057D01*
X99316553Y-68739057D02*
X99240363Y-68700961D01*
X99240363Y-68700961D02*
X99087982Y-68700961D01*
X99087982Y-68700961D02*
X99011791Y-68739057D01*
X98478457Y-68434295D02*
X98402267Y-68434295D01*
X98402267Y-68434295D02*
X98326076Y-68472390D01*
X98326076Y-68472390D02*
X98287981Y-68510485D01*
X98287981Y-68510485D02*
X98249886Y-68586676D01*
X98249886Y-68586676D02*
X98211791Y-68739057D01*
X98211791Y-68739057D02*
X98211791Y-68929533D01*
X98211791Y-68929533D02*
X98249886Y-69081914D01*
X98249886Y-69081914D02*
X98287981Y-69158104D01*
X98287981Y-69158104D02*
X98326076Y-69196200D01*
X98326076Y-69196200D02*
X98402267Y-69234295D01*
X98402267Y-69234295D02*
X98478457Y-69234295D01*
X98478457Y-69234295D02*
X98554648Y-69196200D01*
X98554648Y-69196200D02*
X98592743Y-69158104D01*
X98592743Y-69158104D02*
X98630838Y-69081914D01*
X98630838Y-69081914D02*
X98668934Y-68929533D01*
X98668934Y-68929533D02*
X98668934Y-68739057D01*
X98668934Y-68739057D02*
X98630838Y-68586676D01*
X98630838Y-68586676D02*
X98592743Y-68510485D01*
X98592743Y-68510485D02*
X98554648Y-68472390D01*
X98554648Y-68472390D02*
X98478457Y-68434295D01*
X97716552Y-68434295D02*
X97640362Y-68434295D01*
X97640362Y-68434295D02*
X97564171Y-68472390D01*
X97564171Y-68472390D02*
X97526076Y-68510485D01*
X97526076Y-68510485D02*
X97487981Y-68586676D01*
X97487981Y-68586676D02*
X97449886Y-68739057D01*
X97449886Y-68739057D02*
X97449886Y-68929533D01*
X97449886Y-68929533D02*
X97487981Y-69081914D01*
X97487981Y-69081914D02*
X97526076Y-69158104D01*
X97526076Y-69158104D02*
X97564171Y-69196200D01*
X97564171Y-69196200D02*
X97640362Y-69234295D01*
X97640362Y-69234295D02*
X97716552Y-69234295D01*
X97716552Y-69234295D02*
X97792743Y-69196200D01*
X97792743Y-69196200D02*
X97830838Y-69158104D01*
X97830838Y-69158104D02*
X97868933Y-69081914D01*
X97868933Y-69081914D02*
X97907029Y-68929533D01*
X97907029Y-68929533D02*
X97907029Y-68739057D01*
X97907029Y-68739057D02*
X97868933Y-68586676D01*
X97868933Y-68586676D02*
X97830838Y-68510485D01*
X97830838Y-68510485D02*
X97792743Y-68472390D01*
X97792743Y-68472390D02*
X97716552Y-68434295D01*
X69503333Y-95234819D02*
X69503333Y-95949104D01*
X69503333Y-95949104D02*
X69550952Y-96091961D01*
X69550952Y-96091961D02*
X69646190Y-96187200D01*
X69646190Y-96187200D02*
X69789047Y-96234819D01*
X69789047Y-96234819D02*
X69884285Y-96234819D01*
X69122380Y-95234819D02*
X68503333Y-95234819D01*
X68503333Y-95234819D02*
X68836666Y-95615771D01*
X68836666Y-95615771D02*
X68693809Y-95615771D01*
X68693809Y-95615771D02*
X68598571Y-95663390D01*
X68598571Y-95663390D02*
X68550952Y-95711009D01*
X68550952Y-95711009D02*
X68503333Y-95806247D01*
X68503333Y-95806247D02*
X68503333Y-96044342D01*
X68503333Y-96044342D02*
X68550952Y-96139580D01*
X68550952Y-96139580D02*
X68598571Y-96187200D01*
X68598571Y-96187200D02*
X68693809Y-96234819D01*
X68693809Y-96234819D02*
X68979523Y-96234819D01*
X68979523Y-96234819D02*
X69074761Y-96187200D01*
X69074761Y-96187200D02*
X69122380Y-96139580D01*
X110953333Y-96424819D02*
X110953333Y-97139104D01*
X110953333Y-97139104D02*
X111000952Y-97281961D01*
X111000952Y-97281961D02*
X111096190Y-97377200D01*
X111096190Y-97377200D02*
X111239047Y-97424819D01*
X111239047Y-97424819D02*
X111334285Y-97424819D01*
X110524761Y-96520057D02*
X110477142Y-96472438D01*
X110477142Y-96472438D02*
X110381904Y-96424819D01*
X110381904Y-96424819D02*
X110143809Y-96424819D01*
X110143809Y-96424819D02*
X110048571Y-96472438D01*
X110048571Y-96472438D02*
X110000952Y-96520057D01*
X110000952Y-96520057D02*
X109953333Y-96615295D01*
X109953333Y-96615295D02*
X109953333Y-96710533D01*
X109953333Y-96710533D02*
X110000952Y-96853390D01*
X110000952Y-96853390D02*
X110572380Y-97424819D01*
X110572380Y-97424819D02*
X109953333Y-97424819D01*
D11*
X62010000Y-92310000D02*
X62010000Y-89710000D01*
X62010000Y-94910000D02*
X62010000Y-93580000D01*
X63340000Y-94910000D02*
X62010000Y-94910000D01*
X64610000Y-92310000D02*
X62010000Y-92310000D01*
X64610000Y-94910000D02*
X64610000Y-92310000D01*
X69750000Y-89710000D02*
X62010000Y-89710000D01*
X69750000Y-94910000D02*
X64610000Y-94910000D01*
X69750000Y-94910000D02*
X69750000Y-89710000D01*
X106320000Y-88070000D02*
X107650000Y-88070000D01*
X106320000Y-89400000D02*
X106320000Y-88070000D01*
X106320000Y-90670000D02*
X108920000Y-90670000D01*
X106320000Y-95810000D02*
X106320000Y-90670000D01*
X106320000Y-95810000D02*
X111520000Y-95810000D01*
X108920000Y-88070000D02*
X111520000Y-88070000D01*
X108920000Y-90670000D02*
X108920000Y-88070000D01*
X111520000Y-95810000D02*
X111520000Y-88070000D01*
M02*
