M48
INCH,TZ
T1C0.0079
T2C0.0157
T3C0.0236
T4C0.0394
T5C0.0400
%
G90
G05
T1
X36594Y-35621
X36594Y-35962
X36594Y-36303
X36594Y-36644
X36936Y-35621
X36936Y-35962
X36936Y-36303
X36936Y-36644
X37277Y-35621
X37277Y-35962
X37277Y-36303
X37277Y-36644
X37618Y-35621
X37618Y-35962
X37618Y-36303
X37618Y-36644
T2
X22874Y-38370
X23394Y-30311
X23661Y-38354
X23927Y-30807
X23984Y-23736
X24151Y-30165
X25165Y-31370
X25319Y-28992
X25559Y-31650
X25923Y-31789
X26098Y-29016
X26910Y-29980
X28138Y-38398
X28197Y-33898
X28232Y-29453
X28232Y-30846
X28925Y-38402
X29043Y-29319
X29783Y-32878
X30165Y-33673
X32335Y-33650
X32492Y-28618
X32530Y-30541
X32531Y-32524
X32614Y-24075
X33165Y-28488
X33614Y-23610
X34264Y-30551
X34299Y-25370
X34484Y-32100
X34528Y-37949
X34528Y-38713
X34567Y-33260
X34740Y-32358
X34949Y-28583
X35217Y-34988
X35740Y-36094
X35764Y-30528
X35886Y-23858
X35996Y-37004
X36182Y-34917
X36417Y-38217
X36417Y-39500
X36441Y-33815
X37193Y-39484
X38114Y-39461
X39346Y-24717
X39665Y-34051
X39665Y-34819
X39665Y-35594
X39724Y-31480
X40339Y-33457
X40366Y-39142
X41118Y-33457
X41142Y-39122
T3
X22085Y-23439
X26929Y-28130
X27382Y-25768
X30248Y-29815
X31780Y-31366
X34240Y-31366
X38478Y-31230
T4
X24937Y-35843
X24937Y-36843
X25937Y-35843
X25937Y-36843
X26937Y-35843
X26937Y-36843
X42382Y-35197
X42382Y-36197
X42382Y-37197
X43382Y-35197
X43382Y-36197
X43382Y-37197
T5
X22390Y-21547
X22390Y-22547
X23390Y-21547
X23390Y-22547
X24390Y-21547
X24390Y-22547
X25390Y-21547
X25390Y-22547
X26390Y-21547
X26390Y-22547
X27390Y-21547
X27390Y-22547
X28390Y-21547
X28390Y-22547
X29390Y-21547
X29390Y-22547
X30390Y-21547
X30390Y-22547
X31390Y-21547
X31390Y-22547
X32390Y-21547
X32390Y-22547
X33390Y-21547
X33390Y-22547
X34390Y-21547
X34390Y-22547
X35390Y-21547
X35390Y-22547
X36390Y-21547
X36390Y-22547
X37390Y-21547
X37390Y-22547
X38390Y-21547
X38390Y-22547
X39390Y-21547
X39390Y-22547
X40390Y-21547
X40390Y-22547
X41390Y-21547
X41390Y-22547
T0
M30
