G04 #@! TF.GenerationSoftware,KiCad,Pcbnew,9.0.1*
G04 #@! TF.CreationDate,2025-04-21T12:49:12+00:00*
G04 #@! TF.ProjectId,pedalboard-soundcard,70656461-6c62-46f6-9172-642d736f756e,1.0.1-RC*
G04 #@! TF.SameCoordinates,Original*
G04 #@! TF.FileFunction,Soldermask,Bot*
G04 #@! TF.FilePolarity,Negative*
%FSLAX46Y46*%
G04 Gerber Fmt 4.6, Leading zero omitted, Abs format (unit mm)*
G04 Created by KiCad (PCBNEW 9.0.1) date 2025-04-21 12:49:12*
%MOMM*%
%LPD*%
G01*
G04 APERTURE LIST*
%ADD10C,6.200000*%
%ADD11R,1.727200X1.727200*%
%ADD12O,1.727200X1.727200*%
%ADD13C,1.200000*%
%ADD14O,1.200000X2.200000*%
%ADD15O,1.600000X2.300000*%
%ADD16O,2.200000X1.200000*%
%ADD17O,1.600000X2.500000*%
%ADD18R,1.700000X1.700000*%
%ADD19O,1.700000X1.700000*%
G04 APERTURE END LIST*
D10*
X110000000Y-56000000D03*
X52000000Y-56000000D03*
X52000000Y-105000000D03*
X110000000Y-105000000D03*
D11*
X56870000Y-57270000D03*
D12*
X56870000Y-54730000D03*
X59410000Y-57270000D03*
X59410000Y-54730000D03*
X61950000Y-57270000D03*
X61950000Y-54730000D03*
X64490000Y-57270000D03*
X64490000Y-54730000D03*
X67030000Y-57270000D03*
X67030000Y-54730000D03*
X69570000Y-57270000D03*
X69570000Y-54730000D03*
X72110000Y-57270000D03*
X72110000Y-54730000D03*
X74650000Y-57270000D03*
X74650000Y-54730000D03*
X77190000Y-57270000D03*
X77190000Y-54730000D03*
X79730000Y-57270000D03*
X79730000Y-54730000D03*
X82270000Y-57270000D03*
X82270000Y-54730000D03*
X84810000Y-57270000D03*
X84810000Y-54730000D03*
X87350000Y-57270000D03*
X87350000Y-54730000D03*
X89890000Y-57270000D03*
X89890000Y-54730000D03*
X92430000Y-57270000D03*
X92430000Y-54730000D03*
X94970000Y-57270000D03*
X94970000Y-54730000D03*
X97510000Y-57270000D03*
X97510000Y-54730000D03*
X100050000Y-57270000D03*
X100050000Y-54730000D03*
X102590000Y-57270000D03*
X102590000Y-54730000D03*
X105130000Y-57270000D03*
X105130000Y-54730000D03*
D13*
X60940000Y-104000000D03*
X60940000Y-106500000D03*
X65940000Y-99000000D03*
X70940000Y-104000000D03*
X70940000Y-106500000D03*
D14*
X60940000Y-99000000D03*
D15*
X63440000Y-99000000D03*
D16*
X65940000Y-104000000D03*
D14*
X70940000Y-99000000D03*
D17*
X68440000Y-99000000D03*
D13*
X80100000Y-104000000D03*
X80100000Y-106500000D03*
X85100000Y-99000000D03*
X90100000Y-104000000D03*
X90100000Y-106500000D03*
D14*
X80100000Y-99000000D03*
D15*
X82600000Y-99000000D03*
D16*
X85100000Y-104000000D03*
D14*
X90100000Y-99000000D03*
D17*
X87600000Y-99000000D03*
D18*
X63340000Y-93580000D03*
D19*
X63340000Y-91040000D03*
X65880000Y-93580000D03*
X65880000Y-91040000D03*
X68420000Y-93580000D03*
X68420000Y-91040000D03*
D18*
X107650000Y-89400000D03*
D19*
X110190000Y-89400000D03*
X107650000Y-91940000D03*
X110190000Y-91940000D03*
X107650000Y-94480000D03*
X110190000Y-94480000D03*
M02*
