<?xml version="1.0" standalone="no"?>
 <!DOCTYPE svg PUBLIC "-//W3C//DTD SVG 1.1//EN" 
 "http://www.w3.org/Graphics/SVG/1.1/DTD/svg11.dtd"> 
<svg
  xmlns:svg="http://www.w3.org/2000/svg"
  xmlns="http://www.w3.org/2000/svg"
  xmlns:xlink="http://www.w3.org/1999/xlink"
  version="1.1"
  width="297.0022mm" height="210.0072mm" viewBox="0.0000 0.0000 297.0022 210.0072">
<title>SVG Image created as pedalboard-soundcard-B_Silkscreen.svg date 2024/10/04 12:25:42 </title>
  <desc>Image generated by PCBNEW </desc>
<g style="fill:#000000; fill-opacity:1.0000;stroke:#000000; stroke-opacity:1.0000;
stroke-linecap:round; stroke-linejoin:round;"
 transform="translate(0 0) scale(1 1)">
</g>
<g style="fill:#000000; fill-opacity:0.0; 
stroke:#000000; stroke-width:0.0000; stroke-opacity:1; 
stroke-linecap:round; stroke-linejoin:round;">
</g>
<g style="fill:#000000; fill-opacity:0.0; 
stroke:#000000; stroke-width:0.1500; stroke-opacity:1; 
stroke-linecap:round; stroke-linejoin:round;">
<text x="184.4522" y="66.3200"
textLength="21.7738" font-size="1.3333" lengthAdjust="spacingAndGlyphs"
text-anchor="start" opacity="0">Open Pedalboard Soundcard</text>
<g class="stroked-text"><desc>Open Pedalboard Soundcard</desc>
<path d="M184.9795 65.1898
L185.1699 65.1898
" />
<path d="M185.1699 65.1898
L185.2652 65.2374
" />
<path d="M185.2652 65.2374
L185.3604 65.3327
" />
<path d="M185.3604 65.3327
L185.4080 65.5232
" />
<path d="M185.4080 65.5232
L185.4080 65.8565
" />
<path d="M185.4080 65.8565
L185.3604 66.0470
" />
<path d="M185.3604 66.0470
L185.2652 66.1422
" />
<path d="M185.2652 66.1422
L185.1699 66.1898
" />
<path d="M185.1699 66.1898
L184.9795 66.1898
" />
<path d="M184.9795 66.1898
L184.8842 66.1422
" />
<path d="M184.8842 66.1422
L184.7890 66.0470
" />
<path d="M184.7890 66.0470
L184.7414 65.8565
" />
<path d="M184.7414 65.8565
L184.7414 65.5232
" />
<path d="M184.7414 65.5232
L184.7890 65.3327
" />
<path d="M184.7890 65.3327
L184.8842 65.2374
" />
<path d="M184.8842 65.2374
L184.9795 65.1898
" />
<path d="M185.8366 65.5232
L185.8366 66.5232
" />
<path d="M185.8366 65.5708
L185.9318 65.5232
" />
<path d="M185.9318 65.5232
L186.1223 65.5232
" />
<path d="M186.1223 65.5232
L186.2176 65.5708
" />
<path d="M186.2176 65.5708
L186.2652 65.6184
" />
<path d="M186.2652 65.6184
L186.3128 65.7136
" />
<path d="M186.3128 65.7136
L186.3128 65.9993
" />
<path d="M186.3128 65.9993
L186.2652 66.0946
" />
<path d="M186.2652 66.0946
L186.2176 66.1422
" />
<path d="M186.2176 66.1422
L186.1223 66.1898
" />
<path d="M186.1223 66.1898
L185.9318 66.1898
" />
<path d="M185.9318 66.1898
L185.8366 66.1422
" />
<path d="M187.1223 66.1422
L187.0271 66.1898
" />
<path d="M187.0271 66.1898
L186.8366 66.1898
" />
<path d="M186.8366 66.1898
L186.7414 66.1422
" />
<path d="M186.7414 66.1422
L186.6937 66.0470
" />
<path d="M186.6937 66.0470
L186.6937 65.6660
" />
<path d="M186.6937 65.6660
L186.7414 65.5708
" />
<path d="M186.7414 65.5708
L186.8366 65.5232
" />
<path d="M186.8366 65.5232
L187.0271 65.5232
" />
<path d="M187.0271 65.5232
L187.1223 65.5708
" />
<path d="M187.1223 65.5708
L187.1699 65.6660
" />
<path d="M187.1699 65.6660
L187.1699 65.7612
" />
<path d="M187.1699 65.7612
L186.6937 65.8565
" />
<path d="M187.5985 65.5232
L187.5985 66.1898
" />
<path d="M187.5985 65.6184
L187.6461 65.5708
" />
<path d="M187.6461 65.5708
L187.7414 65.5232
" />
<path d="M187.7414 65.5232
L187.8842 65.5232
" />
<path d="M187.8842 65.5232
L187.9795 65.5708
" />
<path d="M187.9795 65.5708
L188.0271 65.6660
" />
<path d="M188.0271 65.6660
L188.0271 66.1898
" />
<path d="M189.2652 66.1898
L189.2652 65.1898
" />
<path d="M189.2652 65.1898
L189.6461 65.1898
" />
<path d="M189.6461 65.1898
L189.7414 65.2374
" />
<path d="M189.7414 65.2374
L189.7890 65.2851
" />
<path d="M189.7890 65.2851
L189.8366 65.3803
" />
<path d="M189.8366 65.3803
L189.8366 65.5232
" />
<path d="M189.8366 65.5232
L189.7890 65.6184
" />
<path d="M189.7890 65.6184
L189.7414 65.6660
" />
<path d="M189.7414 65.6660
L189.6461 65.7136
" />
<path d="M189.6461 65.7136
L189.2652 65.7136
" />
<path d="M190.6461 66.1422
L190.5509 66.1898
" />
<path d="M190.5509 66.1898
L190.3604 66.1898
" />
<path d="M190.3604 66.1898
L190.2652 66.1422
" />
<path d="M190.2652 66.1422
L190.2176 66.0470
" />
<path d="M190.2176 66.0470
L190.2176 65.6660
" />
<path d="M190.2176 65.6660
L190.2652 65.5708
" />
<path d="M190.2652 65.5708
L190.3604 65.5232
" />
<path d="M190.3604 65.5232
L190.5509 65.5232
" />
<path d="M190.5509 65.5232
L190.6461 65.5708
" />
<path d="M190.6461 65.5708
L190.6937 65.6660
" />
<path d="M190.6937 65.6660
L190.6937 65.7612
" />
<path d="M190.6937 65.7612
L190.2176 65.8565
" />
<path d="M191.5509 66.1898
L191.5509 65.1898
" />
<path d="M191.5509 66.1422
L191.4556 66.1898
" />
<path d="M191.4556 66.1898
L191.2652 66.1898
" />
<path d="M191.2652 66.1898
L191.1699 66.1422
" />
<path d="M191.1699 66.1422
L191.1223 66.0946
" />
<path d="M191.1223 66.0946
L191.0747 65.9993
" />
<path d="M191.0747 65.9993
L191.0747 65.7136
" />
<path d="M191.0747 65.7136
L191.1223 65.6184
" />
<path d="M191.1223 65.6184
L191.1699 65.5708
" />
<path d="M191.1699 65.5708
L191.2652 65.5232
" />
<path d="M191.2652 65.5232
L191.4556 65.5232
" />
<path d="M191.4556 65.5232
L191.5509 65.5708
" />
<path d="M192.4556 66.1898
L192.4556 65.6660
" />
<path d="M192.4556 65.6660
L192.4080 65.5708
" />
<path d="M192.4080 65.5708
L192.3128 65.5232
" />
<path d="M192.3128 65.5232
L192.1223 65.5232
" />
<path d="M192.1223 65.5232
L192.0271 65.5708
" />
<path d="M192.4556 66.1422
L192.3604 66.1898
" />
<path d="M192.3604 66.1898
L192.1223 66.1898
" />
<path d="M192.1223 66.1898
L192.0271 66.1422
" />
<path d="M192.0271 66.1422
L191.9795 66.0470
" />
<path d="M191.9795 66.0470
L191.9795 65.9517
" />
<path d="M191.9795 65.9517
L192.0271 65.8565
" />
<path d="M192.0271 65.8565
L192.1223 65.8089
" />
<path d="M192.1223 65.8089
L192.3604 65.8089
" />
<path d="M192.3604 65.8089
L192.4556 65.7612
" />
<path d="M193.0747 66.1898
L192.9795 66.1422
" />
<path d="M192.9795 66.1422
L192.9318 66.0470
" />
<path d="M192.9318 66.0470
L192.9318 65.1898
" />
<path d="M193.4556 66.1898
L193.4556 65.1898
" />
<path d="M193.4556 65.5708
L193.5509 65.5232
" />
<path d="M193.5509 65.5232
L193.7414 65.5232
" />
<path d="M193.7414 65.5232
L193.8366 65.5708
" />
<path d="M193.8366 65.5708
L193.8842 65.6184
" />
<path d="M193.8842 65.6184
L193.9318 65.7136
" />
<path d="M193.9318 65.7136
L193.9318 65.9993
" />
<path d="M193.9318 65.9993
L193.8842 66.0946
" />
<path d="M193.8842 66.0946
L193.8366 66.1422
" />
<path d="M193.8366 66.1422
L193.7414 66.1898
" />
<path d="M193.7414 66.1898
L193.5509 66.1898
" />
<path d="M193.5509 66.1898
L193.4556 66.1422
" />
<path d="M194.5033 66.1898
L194.4080 66.1422
" />
<path d="M194.4080 66.1422
L194.3604 66.0946
" />
<path d="M194.3604 66.0946
L194.3128 65.9993
" />
<path d="M194.3128 65.9993
L194.3128 65.7136
" />
<path d="M194.3128 65.7136
L194.3604 65.6184
" />
<path d="M194.3604 65.6184
L194.4080 65.5708
" />
<path d="M194.4080 65.5708
L194.5033 65.5232
" />
<path d="M194.5033 65.5232
L194.6461 65.5232
" />
<path d="M194.6461 65.5232
L194.7414 65.5708
" />
<path d="M194.7414 65.5708
L194.7890 65.6184
" />
<path d="M194.7890 65.6184
L194.8366 65.7136
" />
<path d="M194.8366 65.7136
L194.8366 65.9993
" />
<path d="M194.8366 65.9993
L194.7890 66.0946
" />
<path d="M194.7890 66.0946
L194.7414 66.1422
" />
<path d="M194.7414 66.1422
L194.6461 66.1898
" />
<path d="M194.6461 66.1898
L194.5033 66.1898
" />
<path d="M195.6937 66.1898
L195.6937 65.6660
" />
<path d="M195.6937 65.6660
L195.6461 65.5708
" />
<path d="M195.6461 65.5708
L195.5509 65.5232
" />
<path d="M195.5509 65.5232
L195.3604 65.5232
" />
<path d="M195.3604 65.5232
L195.2652 65.5708
" />
<path d="M195.6937 66.1422
L195.5985 66.1898
" />
<path d="M195.5985 66.1898
L195.3604 66.1898
" />
<path d="M195.3604 66.1898
L195.2652 66.1422
" />
<path d="M195.2652 66.1422
L195.2176 66.0470
" />
<path d="M195.2176 66.0470
L195.2176 65.9517
" />
<path d="M195.2176 65.9517
L195.2652 65.8565
" />
<path d="M195.2652 65.8565
L195.3604 65.8089
" />
<path d="M195.3604 65.8089
L195.5985 65.8089
" />
<path d="M195.5985 65.8089
L195.6937 65.7612
" />
<path d="M196.1699 66.1898
L196.1699 65.5232
" />
<path d="M196.1699 65.7136
L196.2176 65.6184
" />
<path d="M196.2176 65.6184
L196.2652 65.5708
" />
<path d="M196.2652 65.5708
L196.3604 65.5232
" />
<path d="M196.3604 65.5232
L196.4556 65.5232
" />
<path d="M197.2176 66.1898
L197.2176 65.1898
" />
<path d="M197.2176 66.1422
L197.1223 66.1898
" />
<path d="M197.1223 66.1898
L196.9318 66.1898
" />
<path d="M196.9318 66.1898
L196.8366 66.1422
" />
<path d="M196.8366 66.1422
L196.7890 66.0946
" />
<path d="M196.7890 66.0946
L196.7414 65.9993
" />
<path d="M196.7414 65.9993
L196.7414 65.7136
" />
<path d="M196.7414 65.7136
L196.7890 65.6184
" />
<path d="M196.7890 65.6184
L196.8366 65.5708
" />
<path d="M196.8366 65.5708
L196.9318 65.5232
" />
<path d="M196.9318 65.5232
L197.1223 65.5232
" />
<path d="M197.1223 65.5232
L197.2176 65.5708
" />
<path d="M198.4080 66.1422
L198.5509 66.1898
" />
<path d="M198.5509 66.1898
L198.7890 66.1898
" />
<path d="M198.7890 66.1898
L198.8842 66.1422
" />
<path d="M198.8842 66.1422
L198.9318 66.0946
" />
<path d="M198.9318 66.0946
L198.9795 65.9993
" />
<path d="M198.9795 65.9993
L198.9795 65.9041
" />
<path d="M198.9795 65.9041
L198.9318 65.8089
" />
<path d="M198.9318 65.8089
L198.8842 65.7612
" />
<path d="M198.8842 65.7612
L198.7890 65.7136
" />
<path d="M198.7890 65.7136
L198.5985 65.6660
" />
<path d="M198.5985 65.6660
L198.5033 65.6184
" />
<path d="M198.5033 65.6184
L198.4556 65.5708
" />
<path d="M198.4556 65.5708
L198.4080 65.4755
" />
<path d="M198.4080 65.4755
L198.4080 65.3803
" />
<path d="M198.4080 65.3803
L198.4556 65.2851
" />
<path d="M198.4556 65.2851
L198.5033 65.2374
" />
<path d="M198.5033 65.2374
L198.5985 65.1898
" />
<path d="M198.5985 65.1898
L198.8366 65.1898
" />
<path d="M198.8366 65.1898
L198.9795 65.2374
" />
<path d="M199.5509 66.1898
L199.4556 66.1422
" />
<path d="M199.4556 66.1422
L199.4080 66.0946
" />
<path d="M199.4080 66.0946
L199.3604 65.9993
" />
<path d="M199.3604 65.9993
L199.3604 65.7136
" />
<path d="M199.3604 65.7136
L199.4080 65.6184
" />
<path d="M199.4080 65.6184
L199.4556 65.5708
" />
<path d="M199.4556 65.5708
L199.5509 65.5232
" />
<path d="M199.5509 65.5232
L199.6937 65.5232
" />
<path d="M199.6937 65.5232
L199.7890 65.5708
" />
<path d="M199.7890 65.5708
L199.8366 65.6184
" />
<path d="M199.8366 65.6184
L199.8842 65.7136
" />
<path d="M199.8842 65.7136
L199.8842 65.9993
" />
<path d="M199.8842 65.9993
L199.8366 66.0946
" />
<path d="M199.8366 66.0946
L199.7890 66.1422
" />
<path d="M199.7890 66.1422
L199.6937 66.1898
" />
<path d="M199.6937 66.1898
L199.5509 66.1898
" />
<path d="M200.7414 65.5232
L200.7414 66.1898
" />
<path d="M200.3128 65.5232
L200.3128 66.0470
" />
<path d="M200.3128 66.0470
L200.3604 66.1422
" />
<path d="M200.3604 66.1422
L200.4556 66.1898
" />
<path d="M200.4556 66.1898
L200.5985 66.1898
" />
<path d="M200.5985 66.1898
L200.6937 66.1422
" />
<path d="M200.6937 66.1422
L200.7414 66.0946
" />
<path d="M201.2176 65.5232
L201.2176 66.1898
" />
<path d="M201.2176 65.6184
L201.2652 65.5708
" />
<path d="M201.2652 65.5708
L201.3604 65.5232
" />
<path d="M201.3604 65.5232
L201.5033 65.5232
" />
<path d="M201.5033 65.5232
L201.5985 65.5708
" />
<path d="M201.5985 65.5708
L201.6461 65.6660
" />
<path d="M201.6461 65.6660
L201.6461 66.1898
" />
<path d="M202.5509 66.1898
L202.5509 65.1898
" />
<path d="M202.5509 66.1422
L202.4556 66.1898
" />
<path d="M202.4556 66.1898
L202.2652 66.1898
" />
<path d="M202.2652 66.1898
L202.1699 66.1422
" />
<path d="M202.1699 66.1422
L202.1223 66.0946
" />
<path d="M202.1223 66.0946
L202.0747 65.9993
" />
<path d="M202.0747 65.9993
L202.0747 65.7136
" />
<path d="M202.0747 65.7136
L202.1223 65.6184
" />
<path d="M202.1223 65.6184
L202.1699 65.5708
" />
<path d="M202.1699 65.5708
L202.2652 65.5232
" />
<path d="M202.2652 65.5232
L202.4556 65.5232
" />
<path d="M202.4556 65.5232
L202.5509 65.5708
" />
<path d="M203.4556 66.1422
L203.3604 66.1898
" />
<path d="M203.3604 66.1898
L203.1699 66.1898
" />
<path d="M203.1699 66.1898
L203.0747 66.1422
" />
<path d="M203.0747 66.1422
L203.0271 66.0946
" />
<path d="M203.0271 66.0946
L202.9795 65.9993
" />
<path d="M202.9795 65.9993
L202.9795 65.7136
" />
<path d="M202.9795 65.7136
L203.0271 65.6184
" />
<path d="M203.0271 65.6184
L203.0747 65.5708
" />
<path d="M203.0747 65.5708
L203.1699 65.5232
" />
<path d="M203.1699 65.5232
L203.3604 65.5232
" />
<path d="M203.3604 65.5232
L203.4556 65.5708
" />
<path d="M204.3128 66.1898
L204.3128 65.6660
" />
<path d="M204.3128 65.6660
L204.2652 65.5708
" />
<path d="M204.2652 65.5708
L204.1699 65.5232
" />
<path d="M204.1699 65.5232
L203.9795 65.5232
" />
<path d="M203.9795 65.5232
L203.8842 65.5708
" />
<path d="M204.3128 66.1422
L204.2176 66.1898
" />
<path d="M204.2176 66.1898
L203.9795 66.1898
" />
<path d="M203.9795 66.1898
L203.8842 66.1422
" />
<path d="M203.8842 66.1422
L203.8366 66.0470
" />
<path d="M203.8366 66.0470
L203.8366 65.9517
" />
<path d="M203.8366 65.9517
L203.8842 65.8565
" />
<path d="M203.8842 65.8565
L203.9795 65.8089
" />
<path d="M203.9795 65.8089
L204.2176 65.8089
" />
<path d="M204.2176 65.8089
L204.3128 65.7612
" />
<path d="M204.7890 66.1898
L204.7890 65.5232
" />
<path d="M204.7890 65.7136
L204.8366 65.6184
" />
<path d="M204.8366 65.6184
L204.8842 65.5708
" />
<path d="M204.8842 65.5708
L204.9795 65.5232
" />
<path d="M204.9795 65.5232
L205.0747 65.5232
" />
<path d="M205.8366 66.1898
L205.8366 65.1898
" />
<path d="M205.8366 66.1422
L205.7414 66.1898
" />
<path d="M205.7414 66.1898
L205.5509 66.1898
" />
<path d="M205.5509 66.1898
L205.4556 66.1422
" />
<path d="M205.4556 66.1422
L205.4080 66.0946
" />
<path d="M205.4080 66.0946
L205.3604 65.9993
" />
<path d="M205.3604 65.9993
L205.3604 65.7136
" />
<path d="M205.3604 65.7136
L205.4080 65.6184
" />
<path d="M205.4080 65.6184
L205.4556 65.5708
" />
<path d="M205.4556 65.5708
L205.5509 65.5232
" />
<path d="M205.5509 65.5232
L205.7414 65.5232
" />
<path d="M205.7414 65.5232
L205.8366 65.5708
" />
</g><text x="184.4522" y="67.9300"
textLength="17.8690" font-size="1.3333" lengthAdjust="spacingAndGlyphs"
text-anchor="start" opacity="0">github.com/pedalboard</text>
<g class="stroked-text"><desc>github.com/pedalboard</desc>
<path d="M185.2176 67.1332
L185.2176 67.9427
" />
<path d="M185.2176 67.9427
L185.1699 68.0379
" />
<path d="M185.1699 68.0379
L185.1223 68.0855
" />
<path d="M185.1223 68.0855
L185.0271 68.1332
" />
<path d="M185.0271 68.1332
L184.8842 68.1332
" />
<path d="M184.8842 68.1332
L184.7890 68.0855
" />
<path d="M185.2176 67.7522
L185.1223 67.7998
" />
<path d="M185.1223 67.7998
L184.9318 67.7998
" />
<path d="M184.9318 67.7998
L184.8366 67.7522
" />
<path d="M184.8366 67.7522
L184.7890 67.7046
" />
<path d="M184.7890 67.7046
L184.7414 67.6093
" />
<path d="M184.7414 67.6093
L184.7414 67.3236
" />
<path d="M184.7414 67.3236
L184.7890 67.2284
" />
<path d="M184.7890 67.2284
L184.8366 67.1808
" />
<path d="M184.8366 67.1808
L184.9318 67.1332
" />
<path d="M184.9318 67.1332
L185.1223 67.1332
" />
<path d="M185.1223 67.1332
L185.2176 67.1808
" />
<path d="M185.6937 67.7998
L185.6937 67.1332
" />
<path d="M185.6937 66.7998
L185.6461 66.8474
" />
<path d="M185.6461 66.8474
L185.6937 66.8951
" />
<path d="M185.6937 66.8951
L185.7414 66.8474
" />
<path d="M185.7414 66.8474
L185.6937 66.7998
" />
<path d="M185.6937 66.7998
L185.6937 66.8951
" />
<path d="M186.0271 67.1332
L186.4080 67.1332
" />
<path d="M186.1699 66.7998
L186.1699 67.6570
" />
<path d="M186.1699 67.6570
L186.2176 67.7522
" />
<path d="M186.2176 67.7522
L186.3128 67.7998
" />
<path d="M186.3128 67.7998
L186.4080 67.7998
" />
<path d="M186.7414 67.7998
L186.7414 66.7998
" />
<path d="M187.1699 67.7998
L187.1699 67.2760
" />
<path d="M187.1699 67.2760
L187.1223 67.1808
" />
<path d="M187.1223 67.1808
L187.0271 67.1332
" />
<path d="M187.0271 67.1332
L186.8842 67.1332
" />
<path d="M186.8842 67.1332
L186.7890 67.1808
" />
<path d="M186.7890 67.1808
L186.7414 67.2284
" />
<path d="M188.0747 67.1332
L188.0747 67.7998
" />
<path d="M187.6461 67.1332
L187.6461 67.6570
" />
<path d="M187.6461 67.6570
L187.6937 67.7522
" />
<path d="M187.6937 67.7522
L187.7890 67.7998
" />
<path d="M187.7890 67.7998
L187.9318 67.7998
" />
<path d="M187.9318 67.7998
L188.0271 67.7522
" />
<path d="M188.0271 67.7522
L188.0747 67.7046
" />
<path d="M188.5509 67.7998
L188.5509 66.7998
" />
<path d="M188.5509 67.1808
L188.6461 67.1332
" />
<path d="M188.6461 67.1332
L188.8366 67.1332
" />
<path d="M188.8366 67.1332
L188.9318 67.1808
" />
<path d="M188.9318 67.1808
L188.9795 67.2284
" />
<path d="M188.9795 67.2284
L189.0271 67.3236
" />
<path d="M189.0271 67.3236
L189.0271 67.6093
" />
<path d="M189.0271 67.6093
L188.9795 67.7046
" />
<path d="M188.9795 67.7046
L188.9318 67.7522
" />
<path d="M188.9318 67.7522
L188.8366 67.7998
" />
<path d="M188.8366 67.7998
L188.6461 67.7998
" />
<path d="M188.6461 67.7998
L188.5509 67.7522
" />
<path d="M189.4556 67.7046
L189.5033 67.7522
" />
<path d="M189.5033 67.7522
L189.4556 67.7998
" />
<path d="M189.4556 67.7998
L189.4080 67.7522
" />
<path d="M189.4080 67.7522
L189.4556 67.7046
" />
<path d="M189.4556 67.7046
L189.4556 67.7998
" />
<path d="M190.3604 67.7522
L190.2652 67.7998
" />
<path d="M190.2652 67.7998
L190.0747 67.7998
" />
<path d="M190.0747 67.7998
L189.9795 67.7522
" />
<path d="M189.9795 67.7522
L189.9318 67.7046
" />
<path d="M189.9318 67.7046
L189.8842 67.6093
" />
<path d="M189.8842 67.6093
L189.8842 67.3236
" />
<path d="M189.8842 67.3236
L189.9318 67.2284
" />
<path d="M189.9318 67.2284
L189.9795 67.1808
" />
<path d="M189.9795 67.1808
L190.0747 67.1332
" />
<path d="M190.0747 67.1332
L190.2652 67.1332
" />
<path d="M190.2652 67.1332
L190.3604 67.1808
" />
<path d="M190.9318 67.7998
L190.8366 67.7522
" />
<path d="M190.8366 67.7522
L190.7890 67.7046
" />
<path d="M190.7890 67.7046
L190.7414 67.6093
" />
<path d="M190.7414 67.6093
L190.7414 67.3236
" />
<path d="M190.7414 67.3236
L190.7890 67.2284
" />
<path d="M190.7890 67.2284
L190.8366 67.1808
" />
<path d="M190.8366 67.1808
L190.9318 67.1332
" />
<path d="M190.9318 67.1332
L191.0747 67.1332
" />
<path d="M191.0747 67.1332
L191.1699 67.1808
" />
<path d="M191.1699 67.1808
L191.2176 67.2284
" />
<path d="M191.2176 67.2284
L191.2652 67.3236
" />
<path d="M191.2652 67.3236
L191.2652 67.6093
" />
<path d="M191.2652 67.6093
L191.2176 67.7046
" />
<path d="M191.2176 67.7046
L191.1699 67.7522
" />
<path d="M191.1699 67.7522
L191.0747 67.7998
" />
<path d="M191.0747 67.7998
L190.9318 67.7998
" />
<path d="M191.6937 67.7998
L191.6937 67.1332
" />
<path d="M191.6937 67.2284
L191.7414 67.1808
" />
<path d="M191.7414 67.1808
L191.8366 67.1332
" />
<path d="M191.8366 67.1332
L191.9795 67.1332
" />
<path d="M191.9795 67.1332
L192.0747 67.1808
" />
<path d="M192.0747 67.1808
L192.1223 67.2760
" />
<path d="M192.1223 67.2760
L192.1223 67.7998
" />
<path d="M192.1223 67.2760
L192.1699 67.1808
" />
<path d="M192.1699 67.1808
L192.2652 67.1332
" />
<path d="M192.2652 67.1332
L192.4080 67.1332
" />
<path d="M192.4080 67.1332
L192.5033 67.1808
" />
<path d="M192.5033 67.1808
L192.5509 67.2760
" />
<path d="M192.5509 67.2760
L192.5509 67.7998
" />
<path d="M193.7414 66.7522
L192.8842 68.0379
" />
<path d="M194.0747 67.1332
L194.0747 68.1332
" />
<path d="M194.0747 67.1808
L194.1699 67.1332
" />
<path d="M194.1699 67.1332
L194.3604 67.1332
" />
<path d="M194.3604 67.1332
L194.4556 67.1808
" />
<path d="M194.4556 67.1808
L194.5033 67.2284
" />
<path d="M194.5033 67.2284
L194.5509 67.3236
" />
<path d="M194.5509 67.3236
L194.5509 67.6093
" />
<path d="M194.5509 67.6093
L194.5033 67.7046
" />
<path d="M194.5033 67.7046
L194.4556 67.7522
" />
<path d="M194.4556 67.7522
L194.3604 67.7998
" />
<path d="M194.3604 67.7998
L194.1699 67.7998
" />
<path d="M194.1699 67.7998
L194.0747 67.7522
" />
<path d="M195.3604 67.7522
L195.2652 67.7998
" />
<path d="M195.2652 67.7998
L195.0747 67.7998
" />
<path d="M195.0747 67.7998
L194.9795 67.7522
" />
<path d="M194.9795 67.7522
L194.9318 67.6570
" />
<path d="M194.9318 67.6570
L194.9318 67.2760
" />
<path d="M194.9318 67.2760
L194.9795 67.1808
" />
<path d="M194.9795 67.1808
L195.0747 67.1332
" />
<path d="M195.0747 67.1332
L195.2652 67.1332
" />
<path d="M195.2652 67.1332
L195.3604 67.1808
" />
<path d="M195.3604 67.1808
L195.4080 67.2760
" />
<path d="M195.4080 67.2760
L195.4080 67.3712
" />
<path d="M195.4080 67.3712
L194.9318 67.4665
" />
<path d="M196.2652 67.7998
L196.2652 66.7998
" />
<path d="M196.2652 67.7522
L196.1699 67.7998
" />
<path d="M196.1699 67.7998
L195.9795 67.7998
" />
<path d="M195.9795 67.7998
L195.8842 67.7522
" />
<path d="M195.8842 67.7522
L195.8366 67.7046
" />
<path d="M195.8366 67.7046
L195.7890 67.6093
" />
<path d="M195.7890 67.6093
L195.7890 67.3236
" />
<path d="M195.7890 67.3236
L195.8366 67.2284
" />
<path d="M195.8366 67.2284
L195.8842 67.1808
" />
<path d="M195.8842 67.1808
L195.9795 67.1332
" />
<path d="M195.9795 67.1332
L196.1699 67.1332
" />
<path d="M196.1699 67.1332
L196.2652 67.1808
" />
<path d="M197.1699 67.7998
L197.1699 67.2760
" />
<path d="M197.1699 67.2760
L197.1223 67.1808
" />
<path d="M197.1223 67.1808
L197.0271 67.1332
" />
<path d="M197.0271 67.1332
L196.8366 67.1332
" />
<path d="M196.8366 67.1332
L196.7414 67.1808
" />
<path d="M197.1699 67.7522
L197.0747 67.7998
" />
<path d="M197.0747 67.7998
L196.8366 67.7998
" />
<path d="M196.8366 67.7998
L196.7414 67.7522
" />
<path d="M196.7414 67.7522
L196.6937 67.6570
" />
<path d="M196.6937 67.6570
L196.6937 67.5617
" />
<path d="M196.6937 67.5617
L196.7414 67.4665
" />
<path d="M196.7414 67.4665
L196.8366 67.4189
" />
<path d="M196.8366 67.4189
L197.0747 67.4189
" />
<path d="M197.0747 67.4189
L197.1699 67.3712
" />
<path d="M197.7890 67.7998
L197.6937 67.7522
" />
<path d="M197.6937 67.7522
L197.6461 67.6570
" />
<path d="M197.6461 67.6570
L197.6461 66.7998
" />
<path d="M198.1699 67.7998
L198.1699 66.7998
" />
<path d="M198.1699 67.1808
L198.2652 67.1332
" />
<path d="M198.2652 67.1332
L198.4556 67.1332
" />
<path d="M198.4556 67.1332
L198.5509 67.1808
" />
<path d="M198.5509 67.1808
L198.5985 67.2284
" />
<path d="M198.5985 67.2284
L198.6461 67.3236
" />
<path d="M198.6461 67.3236
L198.6461 67.6093
" />
<path d="M198.6461 67.6093
L198.5985 67.7046
" />
<path d="M198.5985 67.7046
L198.5509 67.7522
" />
<path d="M198.5509 67.7522
L198.4556 67.7998
" />
<path d="M198.4556 67.7998
L198.2652 67.7998
" />
<path d="M198.2652 67.7998
L198.1699 67.7522
" />
<path d="M199.2176 67.7998
L199.1223 67.7522
" />
<path d="M199.1223 67.7522
L199.0747 67.7046
" />
<path d="M199.0747 67.7046
L199.0271 67.6093
" />
<path d="M199.0271 67.6093
L199.0271 67.3236
" />
<path d="M199.0271 67.3236
L199.0747 67.2284
" />
<path d="M199.0747 67.2284
L199.1223 67.1808
" />
<path d="M199.1223 67.1808
L199.2176 67.1332
" />
<path d="M199.2176 67.1332
L199.3604 67.1332
" />
<path d="M199.3604 67.1332
L199.4556 67.1808
" />
<path d="M199.4556 67.1808
L199.5033 67.2284
" />
<path d="M199.5033 67.2284
L199.5509 67.3236
" />
<path d="M199.5509 67.3236
L199.5509 67.6093
" />
<path d="M199.5509 67.6093
L199.5033 67.7046
" />
<path d="M199.5033 67.7046
L199.4556 67.7522
" />
<path d="M199.4556 67.7522
L199.3604 67.7998
" />
<path d="M199.3604 67.7998
L199.2176 67.7998
" />
<path d="M200.4080 67.7998
L200.4080 67.2760
" />
<path d="M200.4080 67.2760
L200.3604 67.1808
" />
<path d="M200.3604 67.1808
L200.2652 67.1332
" />
<path d="M200.2652 67.1332
L200.0747 67.1332
" />
<path d="M200.0747 67.1332
L199.9795 67.1808
" />
<path d="M200.4080 67.7522
L200.3128 67.7998
" />
<path d="M200.3128 67.7998
L200.0747 67.7998
" />
<path d="M200.0747 67.7998
L199.9795 67.7522
" />
<path d="M199.9795 67.7522
L199.9318 67.6570
" />
<path d="M199.9318 67.6570
L199.9318 67.5617
" />
<path d="M199.9318 67.5617
L199.9795 67.4665
" />
<path d="M199.9795 67.4665
L200.0747 67.4189
" />
<path d="M200.0747 67.4189
L200.3128 67.4189
" />
<path d="M200.3128 67.4189
L200.4080 67.3712
" />
<path d="M200.8842 67.7998
L200.8842 67.1332
" />
<path d="M200.8842 67.3236
L200.9318 67.2284
" />
<path d="M200.9318 67.2284
L200.9795 67.1808
" />
<path d="M200.9795 67.1808
L201.0747 67.1332
" />
<path d="M201.0747 67.1332
L201.1699 67.1332
" />
<path d="M201.9318 67.7998
L201.9318 66.7998
" />
<path d="M201.9318 67.7522
L201.8366 67.7998
" />
<path d="M201.8366 67.7998
L201.6461 67.7998
" />
<path d="M201.6461 67.7998
L201.5509 67.7522
" />
<path d="M201.5509 67.7522
L201.5033 67.7046
" />
<path d="M201.5033 67.7046
L201.4556 67.6093
" />
<path d="M201.4556 67.6093
L201.4556 67.3236
" />
<path d="M201.4556 67.3236
L201.5033 67.2284
" />
<path d="M201.5033 67.2284
L201.5509 67.1808
" />
<path d="M201.5509 67.1808
L201.6461 67.1332
" />
<path d="M201.6461 67.1332
L201.8366 67.1332
" />
<path d="M201.8366 67.1332
L201.9318 67.1808
" />
</g><text x="184.4522" y="69.5400"
textLength="15.7262" font-size="1.3333" lengthAdjust="spacingAndGlyphs"
text-anchor="start" opacity="0">PCB: 0.0.1 5062527</text>
<g class="stroked-text"><desc>PCB: 0.0.1 5062527</desc>
<path d="M184.7890 69.4098
L184.7890 68.4098
" />
<path d="M184.7890 68.4098
L185.1699 68.4098
" />
<path d="M185.1699 68.4098
L185.2652 68.4574
" />
<path d="M185.2652 68.4574
L185.3128 68.5051
" />
<path d="M185.3128 68.5051
L185.3604 68.6003
" />
<path d="M185.3604 68.6003
L185.3604 68.7432
" />
<path d="M185.3604 68.7432
L185.3128 68.8384
" />
<path d="M185.3128 68.8384
L185.2652 68.8860
" />
<path d="M185.2652 68.8860
L185.1699 68.9336
" />
<path d="M185.1699 68.9336
L184.7890 68.9336
" />
<path d="M186.3604 69.3146
L186.3128 69.3622
" />
<path d="M186.3128 69.3622
L186.1699 69.4098
" />
<path d="M186.1699 69.4098
L186.0747 69.4098
" />
<path d="M186.0747 69.4098
L185.9318 69.3622
" />
<path d="M185.9318 69.3622
L185.8366 69.2670
" />
<path d="M185.8366 69.2670
L185.7890 69.1717
" />
<path d="M185.7890 69.1717
L185.7414 68.9812
" />
<path d="M185.7414 68.9812
L185.7414 68.8384
" />
<path d="M185.7414 68.8384
L185.7890 68.6479
" />
<path d="M185.7890 68.6479
L185.8366 68.5527
" />
<path d="M185.8366 68.5527
L185.9318 68.4574
" />
<path d="M185.9318 68.4574
L186.0747 68.4098
" />
<path d="M186.0747 68.4098
L186.1699 68.4098
" />
<path d="M186.1699 68.4098
L186.3128 68.4574
" />
<path d="M186.3128 68.4574
L186.3604 68.5051
" />
<path d="M187.1223 68.8860
L187.2652 68.9336
" />
<path d="M187.2652 68.9336
L187.3128 68.9812
" />
<path d="M187.3128 68.9812
L187.3604 69.0765
" />
<path d="M187.3604 69.0765
L187.3604 69.2193
" />
<path d="M187.3604 69.2193
L187.3128 69.3146
" />
<path d="M187.3128 69.3146
L187.2652 69.3622
" />
<path d="M187.2652 69.3622
L187.1699 69.4098
" />
<path d="M187.1699 69.4098
L186.7890 69.4098
" />
<path d="M186.7890 69.4098
L186.7890 68.4098
" />
<path d="M186.7890 68.4098
L187.1223 68.4098
" />
<path d="M187.1223 68.4098
L187.2176 68.4574
" />
<path d="M187.2176 68.4574
L187.2652 68.5051
" />
<path d="M187.2652 68.5051
L187.3128 68.6003
" />
<path d="M187.3128 68.6003
L187.3128 68.6955
" />
<path d="M187.3128 68.6955
L187.2652 68.7908
" />
<path d="M187.2652 68.7908
L187.2176 68.8384
" />
<path d="M187.2176 68.8384
L187.1223 68.8860
" />
<path d="M187.1223 68.8860
L186.7890 68.8860
" />
<path d="M187.7890 69.3146
L187.8366 69.3622
" />
<path d="M187.8366 69.3622
L187.7890 69.4098
" />
<path d="M187.7890 69.4098
L187.7414 69.3622
" />
<path d="M187.7414 69.3622
L187.7890 69.3146
" />
<path d="M187.7890 69.3146
L187.7890 69.4098
" />
<path d="M187.7890 68.7908
L187.8366 68.8384
" />
<path d="M187.8366 68.8384
L187.7890 68.8860
" />
<path d="M187.7890 68.8860
L187.7414 68.8384
" />
<path d="M187.7414 68.8384
L187.7890 68.7908
" />
<path d="M187.7890 68.7908
L187.7890 68.8860
" />
<path d="M189.2176 68.4098
L189.3128 68.4098
" />
<path d="M189.3128 68.4098
L189.4080 68.4574
" />
<path d="M189.4080 68.4574
L189.4556 68.5051
" />
<path d="M189.4556 68.5051
L189.5033 68.6003
" />
<path d="M189.5033 68.6003
L189.5509 68.7908
" />
<path d="M189.5509 68.7908
L189.5509 69.0289
" />
<path d="M189.5509 69.0289
L189.5033 69.2193
" />
<path d="M189.5033 69.2193
L189.4556 69.3146
" />
<path d="M189.4556 69.3146
L189.4080 69.3622
" />
<path d="M189.4080 69.3622
L189.3128 69.4098
" />
<path d="M189.3128 69.4098
L189.2176 69.4098
" />
<path d="M189.2176 69.4098
L189.1223 69.3622
" />
<path d="M189.1223 69.3622
L189.0747 69.3146
" />
<path d="M189.0747 69.3146
L189.0271 69.2193
" />
<path d="M189.0271 69.2193
L188.9795 69.0289
" />
<path d="M188.9795 69.0289
L188.9795 68.7908
" />
<path d="M188.9795 68.7908
L189.0271 68.6003
" />
<path d="M189.0271 68.6003
L189.0747 68.5051
" />
<path d="M189.0747 68.5051
L189.1223 68.4574
" />
<path d="M189.1223 68.4574
L189.2176 68.4098
" />
<path d="M189.9795 69.3146
L190.0271 69.3622
" />
<path d="M190.0271 69.3622
L189.9795 69.4098
" />
<path d="M189.9795 69.4098
L189.9318 69.3622
" />
<path d="M189.9318 69.3622
L189.9795 69.3146
" />
<path d="M189.9795 69.3146
L189.9795 69.4098
" />
<path d="M190.6461 68.4098
L190.7414 68.4098
" />
<path d="M190.7414 68.4098
L190.8366 68.4574
" />
<path d="M190.8366 68.4574
L190.8842 68.5051
" />
<path d="M190.8842 68.5051
L190.9318 68.6003
" />
<path d="M190.9318 68.6003
L190.9795 68.7908
" />
<path d="M190.9795 68.7908
L190.9795 69.0289
" />
<path d="M190.9795 69.0289
L190.9318 69.2193
" />
<path d="M190.9318 69.2193
L190.8842 69.3146
" />
<path d="M190.8842 69.3146
L190.8366 69.3622
" />
<path d="M190.8366 69.3622
L190.7414 69.4098
" />
<path d="M190.7414 69.4098
L190.6461 69.4098
" />
<path d="M190.6461 69.4098
L190.5509 69.3622
" />
<path d="M190.5509 69.3622
L190.5033 69.3146
" />
<path d="M190.5033 69.3146
L190.4556 69.2193
" />
<path d="M190.4556 69.2193
L190.4080 69.0289
" />
<path d="M190.4080 69.0289
L190.4080 68.7908
" />
<path d="M190.4080 68.7908
L190.4556 68.6003
" />
<path d="M190.4556 68.6003
L190.5033 68.5051
" />
<path d="M190.5033 68.5051
L190.5509 68.4574
" />
<path d="M190.5509 68.4574
L190.6461 68.4098
" />
<path d="M191.4080 69.3146
L191.4556 69.3622
" />
<path d="M191.4556 69.3622
L191.4080 69.4098
" />
<path d="M191.4080 69.4098
L191.3604 69.3622
" />
<path d="M191.3604 69.3622
L191.4080 69.3146
" />
<path d="M191.4080 69.3146
L191.4080 69.4098
" />
<path d="M192.4080 69.4098
L191.8366 69.4098
" />
<path d="M192.1223 69.4098
L192.1223 68.4098
" />
<path d="M192.1223 68.4098
L192.0271 68.5527
" />
<path d="M192.0271 68.5527
L191.9318 68.6479
" />
<path d="M191.9318 68.6479
L191.8366 68.6955
" />
<path d="M194.0747 68.4098
L193.5985 68.4098
" />
<path d="M193.5985 68.4098
L193.5509 68.8860
" />
<path d="M193.5509 68.8860
L193.5985 68.8384
" />
<path d="M193.5985 68.8384
L193.6937 68.7908
" />
<path d="M193.6937 68.7908
L193.9318 68.7908
" />
<path d="M193.9318 68.7908
L194.0271 68.8384
" />
<path d="M194.0271 68.8384
L194.0747 68.8860
" />
<path d="M194.0747 68.8860
L194.1223 68.9812
" />
<path d="M194.1223 68.9812
L194.1223 69.2193
" />
<path d="M194.1223 69.2193
L194.0747 69.3146
" />
<path d="M194.0747 69.3146
L194.0271 69.3622
" />
<path d="M194.0271 69.3622
L193.9318 69.4098
" />
<path d="M193.9318 69.4098
L193.6937 69.4098
" />
<path d="M193.6937 69.4098
L193.5985 69.3622
" />
<path d="M193.5985 69.3622
L193.5509 69.3146
" />
<path d="M194.7414 68.4098
L194.8366 68.4098
" />
<path d="M194.8366 68.4098
L194.9318 68.4574
" />
<path d="M194.9318 68.4574
L194.9795 68.5051
" />
<path d="M194.9795 68.5051
L195.0271 68.6003
" />
<path d="M195.0271 68.6003
L195.0747 68.7908
" />
<path d="M195.0747 68.7908
L195.0747 69.0289
" />
<path d="M195.0747 69.0289
L195.0271 69.2193
" />
<path d="M195.0271 69.2193
L194.9795 69.3146
" />
<path d="M194.9795 69.3146
L194.9318 69.3622
" />
<path d="M194.9318 69.3622
L194.8366 69.4098
" />
<path d="M194.8366 69.4098
L194.7414 69.4098
" />
<path d="M194.7414 69.4098
L194.6461 69.3622
" />
<path d="M194.6461 69.3622
L194.5985 69.3146
" />
<path d="M194.5985 69.3146
L194.5509 69.2193
" />
<path d="M194.5509 69.2193
L194.5033 69.0289
" />
<path d="M194.5033 69.0289
L194.5033 68.7908
" />
<path d="M194.5033 68.7908
L194.5509 68.6003
" />
<path d="M194.5509 68.6003
L194.5985 68.5051
" />
<path d="M194.5985 68.5051
L194.6461 68.4574
" />
<path d="M194.6461 68.4574
L194.7414 68.4098
" />
<path d="M195.9318 68.4098
L195.7414 68.4098
" />
<path d="M195.7414 68.4098
L195.6461 68.4574
" />
<path d="M195.6461 68.4574
L195.5985 68.5051
" />
<path d="M195.5985 68.5051
L195.5033 68.6479
" />
<path d="M195.5033 68.6479
L195.4556 68.8384
" />
<path d="M195.4556 68.8384
L195.4556 69.2193
" />
<path d="M195.4556 69.2193
L195.5033 69.3146
" />
<path d="M195.5033 69.3146
L195.5509 69.3622
" />
<path d="M195.5509 69.3622
L195.6461 69.4098
" />
<path d="M195.6461 69.4098
L195.8366 69.4098
" />
<path d="M195.8366 69.4098
L195.9318 69.3622
" />
<path d="M195.9318 69.3622
L195.9795 69.3146
" />
<path d="M195.9795 69.3146
L196.0271 69.2193
" />
<path d="M196.0271 69.2193
L196.0271 68.9812
" />
<path d="M196.0271 68.9812
L195.9795 68.8860
" />
<path d="M195.9795 68.8860
L195.9318 68.8384
" />
<path d="M195.9318 68.8384
L195.8366 68.7908
" />
<path d="M195.8366 68.7908
L195.6461 68.7908
" />
<path d="M195.6461 68.7908
L195.5509 68.8384
" />
<path d="M195.5509 68.8384
L195.5033 68.8860
" />
<path d="M195.5033 68.8860
L195.4556 68.9812
" />
<path d="M196.4080 68.5051
L196.4556 68.4574
" />
<path d="M196.4556 68.4574
L196.5509 68.4098
" />
<path d="M196.5509 68.4098
L196.7890 68.4098
" />
<path d="M196.7890 68.4098
L196.8842 68.4574
" />
<path d="M196.8842 68.4574
L196.9318 68.5051
" />
<path d="M196.9318 68.5051
L196.9795 68.6003
" />
<path d="M196.9795 68.6003
L196.9795 68.6955
" />
<path d="M196.9795 68.6955
L196.9318 68.8384
" />
<path d="M196.9318 68.8384
L196.3604 69.4098
" />
<path d="M196.3604 69.4098
L196.9795 69.4098
" />
<path d="M197.8842 68.4098
L197.4080 68.4098
" />
<path d="M197.4080 68.4098
L197.3604 68.8860
" />
<path d="M197.3604 68.8860
L197.4080 68.8384
" />
<path d="M197.4080 68.8384
L197.5033 68.7908
" />
<path d="M197.5033 68.7908
L197.7414 68.7908
" />
<path d="M197.7414 68.7908
L197.8366 68.8384
" />
<path d="M197.8366 68.8384
L197.8842 68.8860
" />
<path d="M197.8842 68.8860
L197.9318 68.9812
" />
<path d="M197.9318 68.9812
L197.9318 69.2193
" />
<path d="M197.9318 69.2193
L197.8842 69.3146
" />
<path d="M197.8842 69.3146
L197.8366 69.3622
" />
<path d="M197.8366 69.3622
L197.7414 69.4098
" />
<path d="M197.7414 69.4098
L197.5033 69.4098
" />
<path d="M197.5033 69.4098
L197.4080 69.3622
" />
<path d="M197.4080 69.3622
L197.3604 69.3146
" />
<path d="M198.3128 68.5051
L198.3604 68.4574
" />
<path d="M198.3604 68.4574
L198.4556 68.4098
" />
<path d="M198.4556 68.4098
L198.6937 68.4098
" />
<path d="M198.6937 68.4098
L198.7890 68.4574
" />
<path d="M198.7890 68.4574
L198.8366 68.5051
" />
<path d="M198.8366 68.5051
L198.8842 68.6003
" />
<path d="M198.8842 68.6003
L198.8842 68.6955
" />
<path d="M198.8842 68.6955
L198.8366 68.8384
" />
<path d="M198.8366 68.8384
L198.2652 69.4098
" />
<path d="M198.2652 69.4098
L198.8842 69.4098
" />
<path d="M199.2176 68.4098
L199.8842 68.4098
" />
<path d="M199.8842 68.4098
L199.4556 69.4098
" />
</g><text x="227.8322" y="96.2800"
textLength="1.9643" font-size="1.3333" lengthAdjust="spacingAndGlyphs"
text-anchor="middle" opacity="0">J3</text>
<g class="stroked-text"><desc>J3</desc>
<path d="M227.4989 95.2348
L227.4989 95.9491
" />
<path d="M227.4989 95.9491
L227.4512 96.0920
" />
<path d="M227.4512 96.0920
L227.3560 96.1872
" />
<path d="M227.3560 96.1872
L227.2132 96.2348
" />
<path d="M227.2132 96.2348
L227.1179 96.2348
" />
<path d="M227.8798 95.2348
L228.4989 95.2348
" />
<path d="M228.4989 95.2348
L228.1655 95.6158
" />
<path d="M228.1655 95.6158
L228.3084 95.6158
" />
<path d="M228.3084 95.6158
L228.4036 95.6634
" />
<path d="M228.4036 95.6634
L228.4512 95.7110
" />
<path d="M228.4512 95.7110
L228.4989 95.8062
" />
<path d="M228.4989 95.8062
L228.4989 96.0443
" />
<path d="M228.4989 96.0443
L228.4512 96.1396
" />
<path d="M228.4512 96.1396
L228.4036 96.1872
" />
<path d="M228.4036 96.1872
L228.3084 96.2348
" />
<path d="M228.3084 96.2348
L228.0227 96.2348
" />
<path d="M228.0227 96.2348
L227.9274 96.1872
" />
<path d="M227.9274 96.1872
L227.8798 96.1396
" />
</g><text x="186.3822" y="97.4700"
textLength="1.9643" font-size="1.3333" lengthAdjust="spacingAndGlyphs"
text-anchor="middle" opacity="0">J2</text>
<g class="stroked-text"><desc>J2</desc>
<path d="M186.0489 96.4248
L186.0489 97.1391
" />
<path d="M186.0489 97.1391
L186.0012 97.2820
" />
<path d="M186.0012 97.2820
L185.9060 97.3772
" />
<path d="M185.9060 97.3772
L185.7632 97.4248
" />
<path d="M185.7632 97.4248
L185.6679 97.4248
" />
<path d="M186.4774 96.5201
L186.5251 96.4724
" />
<path d="M186.5251 96.4724
L186.6203 96.4248
" />
<path d="M186.6203 96.4248
L186.8584 96.4248
" />
<path d="M186.8584 96.4248
L186.9536 96.4724
" />
<path d="M186.9536 96.4724
L187.0012 96.5201
" />
<path d="M187.0012 96.5201
L187.0489 96.6153
" />
<path d="M187.0489 96.6153
L187.0489 96.7105
" />
<path d="M187.0489 96.7105
L187.0012 96.8534
" />
<path d="M187.0012 96.8534
L186.4298 97.4248
" />
<path d="M186.4298 97.4248
L187.0489 97.4248
" />
</g></g>
<g style="fill:#000000; fill-opacity:0.0; 
stroke:#000000; stroke-width:0.1200; stroke-opacity:1; 
stroke-linecap:round; stroke-linejoin:round;">
<path d="M227.2522 89.7100
L227.2522 94.9100
" />
<path d="M234.9922 89.7100
L227.2522 89.7100
" />
<path d="M234.9922 89.7100
L234.9922 92.3100
" />
<path d="M232.3922 92.3100
L232.3922 94.9100
" />
<path d="M234.9922 92.3100
L232.3922 92.3100
" />
<path d="M234.9922 93.5800
L234.9922 94.9100
" />
<path d="M232.3922 94.9100
L227.2522 94.9100
" />
<path d="M234.9922 94.9100
L233.6622 94.9100
" />
<path d="M185.4822 95.8100
L190.6822 95.8100
" />
<path d="M185.4822 88.0700
L185.4822 95.8100
" />
<path d="M185.4822 88.0700
L188.0822 88.0700
" />
<path d="M188.0822 90.6700
L190.6822 90.6700
" />
<path d="M188.0822 88.0700
L188.0822 90.6700
" />
<path d="M189.3522 88.0700
L190.6822 88.0700
" />
<path d="M190.6822 90.6700
L190.6822 95.8100
" />
<path d="M190.6822 88.0700
L190.6822 89.4000
" />
<g >
</g>
<g >
</g>
<g >
</g>
<g >
</g>
<g >
</g>
<g >
</g>
<g >
</g>
<g >
</g>
<g >
</g>
<g >
</g>
<g >
</g>
<g >
</g>
<g >
</g>
<g >
</g>
<g >
</g>
<g >
</g>
<g >
</g>
<g >
</g>
<g >
</g>
<g >
</g>
<g >
</g>
<g >
</g>
<g >
</g>
<g >
</g>
<g >
</g>
<g >
</g>
<g >
</g>
<g >
</g>
<g >
</g>
<g >
</g>
<g >
</g>
<g >
</g>
<g >
</g>
<g >
</g>
<g >
</g>
<g >
</g>
<g >
</g>
<g >
</g>
<g >
</g>
<g >
</g>
<g >
</g>
<g >
</g>
<g >
</g>
<g >
</g>
<g >
</g>
<g >
</g>
<g >
</g>
<g >
</g>
<g >
</g>
<g >
</g>
<g >
</g>
<g >
</g>
<g >
</g>
<g >
</g>
<g >
</g>
<g >
</g>
<g >
</g>
<g >
</g>
<g >
</g>
<g >
</g>
<g >
</g>
<g >
</g>
<g >
</g>
<g >
</g>
<g >
</g>
<g >
</g>
<g >
</g>
<g >
</g>
<g >
</g>
<g >
</g>
<g >
</g>
<g >
</g>
<g >
</g>
<g >
</g>
<g >
</g>
<g >
</g>
<g >
</g>
<g >
</g>
<g >
</g>
<g >
</g>
<g >
</g>
<g >
</g>
<g >
</g>
<g >
</g>
<g >
</g>
<g >
</g>
<g >
</g>
<g >
</g>
<g >
</g>
<g >
</g>
</g> 
</svg>
