<?xml version="1.0" standalone="no"?>
 <!DOCTYPE svg PUBLIC "-//W3C//DTD SVG 1.1//EN" 
 "http://www.w3.org/Graphics/SVG/1.1/DTD/svg11.dtd"> 
<svg
  xmlns:svg="http://www.w3.org/2000/svg"
  xmlns="http://www.w3.org/2000/svg"
  xmlns:xlink="http://www.w3.org/1999/xlink"
  version="1.1"
  width="297.0022mm" height="210.0072mm" viewBox="0.0000 0.0000 297.0022 210.0072">
<title>SVG Image created as pedalboard-soundcard-Edge_Cuts1.svg date 2025/04/21 12:49:44 </title>
  <desc>Image generated by PCBNEW </desc>
<g style="fill:#000000; fill-opacity:1.0000;stroke:#000000; stroke-opacity:1.0000;
stroke-linecap:round; stroke-linejoin:round;"
 transform="translate(0 0) scale(1 1)">
</g>
<g style="fill:none; 
stroke:#000000; stroke-width:0.1000; stroke-opacity:1; 
stroke-linecap:round; stroke-linejoin:round;">
<path d="M245.5022 108.5000 A3.0000 3.0000 0.0 0 0 248.5022 105.5000" />
<path d="M183.5022 105.5000 A3.0000 3.0000 0.0 0 0 186.5022 108.5000" />
<path d="M247.5022 72.0000 A1.0000 1.0000 0.0 0 0 248.5022 71.0000" />
<path d="M244.5022 72.0000 A1.0000 1.0000 0.0 0 0 243.5022 73.0000" />
<path d="M243.5022 88.0000 A1.0000 1.0000 0.0 0 0 244.5022 89.0000" />
<path d="M248.5022 90.0000 A1.0000 1.0000 0.0 0 0 247.5022 89.0000" />
<path d="M248.5022 55.5000 A3.0000 3.0000 0.0 0 0 245.5022 52.5000" />
<path d="M245.5022 52.5000
L186.5022 52.5000
" />
<path d="M186.5022 52.5000 A3.0000 3.0000 0.0 0 0 183.5022 55.5000" />
<path d="M224.5622 108.5000
L218.4022 108.5000
" />
<path d="M248.5022 55.5000
L248.5022 71.0000
" />
<path d="M243.5022 73.0000
L243.5022 88.0000
" />
<path d="M247.5022 72.0000
L244.5022 72.0000
" />
<path d="M248.5022 90.0000
L248.5022 105.5000
" />
<path d="M245.5022 108.5000
L237.5622 108.5000
" />
<path d="M205.4022 108.5000
L186.5022 108.5000
" />
<path d="M183.5022 55.5000
L183.5022 105.5000
" />
<path d="M247.5022 89.0000
L244.5022 89.0000
" />
</g>
<g style="fill:none; 
stroke:#000000; stroke-width:0.1200; stroke-opacity:1; 
stroke-linecap:round; stroke-linejoin:round;">
<path d="M233.2622 107.5000
L233.2622 108.5000
" />
<path d="M233.2622 108.5000
L237.5622 108.5000
" />
<path d="M229.2622 107.1000
L232.8622 107.1000
" />
<path d="M228.8622 107.5000
L228.8622 108.5000
" />
<path d="M228.8622 108.5000
L224.5622 108.5000
" />
<path d="M233.2622 107.5000 A0.4000 0.4000 0.0 0 0 232.8622 107.1000" />
<path d="M229.2622 107.1000 A0.4000 0.4000 0.0 0 0 228.8622 107.5000" />
<path d="M214.1022 107.5000
L214.1022 108.5000
" />
<path d="M214.1022 108.5000
L218.4022 108.5000
" />
<path d="M210.1022 107.1000
L213.7022 107.1000
" />
<path d="M209.7022 107.5000
L209.7022 108.5000
" />
<path d="M209.7022 108.5000
L205.4022 108.5000
" />
<path d="M214.1022 107.5000 A0.4000 0.4000 0.0 0 0 213.7022 107.1000" />
<path d="M210.1022 107.1000 A0.4000 0.4000 0.0 0 0 209.7022 107.5000" />
</g> 
</svg>
