<?xml version="1.0" standalone="no"?>
 <!DOCTYPE svg PUBLIC "-//W3C//DTD SVG 1.1//EN" 
 "http://www.w3.org/Graphics/SVG/1.1/DTD/svg11.dtd"> 
<svg
  xmlns:svg="http://www.w3.org/2000/svg"
  xmlns="http://www.w3.org/2000/svg"
  xmlns:xlink="http://www.w3.org/1999/xlink"
  version="1.1"
  width="297.0022mm" height="210.0072mm" viewBox="0.0000 0.0000 297.0022 210.0072">
<title>SVG Image created as pedalboard-soundcard-User_Comments.svg date 2024/12/15 22:47:24 </title>
  <desc>Image generated by PCBNEW </desc>
<g style="fill:#000000; fill-opacity:1.0000;stroke:#000000; stroke-opacity:1.0000;
stroke-linecap:round; stroke-linejoin:round;"
 transform="translate(0 0) scale(1 1)">
</g>
<g style="fill:none; 
stroke:#000000; stroke-width:0.1500; stroke-opacity:1; 
stroke-linecap:round; stroke-linejoin:round;">
<text x="85.0000" y="118.5425"
textLength="26.3643" font-size="2.0000" lengthAdjust="spacingAndGlyphs"
text-anchor="middle" opacity="0" stroke-opacity="0">Dimensions taken from</text>
<g class="stroked-text"><desc>Dimensions taken from</desc>
<path d="M72.2411 118.4787
L72.4286 116.9787
" />
<path d="M72.4286 116.9787
L72.7857 116.9787
" />
<path d="M72.7857 116.9787
L72.9911 117.0501
" />
<path d="M72.9911 117.0501
L73.1161 117.1930
" />
<path d="M73.1161 117.1930
L73.1696 117.3358
" />
<path d="M73.1696 117.3358
L73.2054 117.6215
" />
<path d="M73.2054 117.6215
L73.1786 117.8358
" />
<path d="M73.1786 117.8358
L73.0714 118.1215
" />
<path d="M73.0714 118.1215
L72.9821 118.2644
" />
<path d="M72.9821 118.2644
L72.8214 118.4072
" />
<path d="M72.8214 118.4072
L72.5982 118.4787
" />
<path d="M72.5982 118.4787
L72.2411 118.4787
" />
<path d="M73.7411 118.4787
L73.8661 117.4787
" />
<path d="M73.9286 116.9787
L73.8482 117.0501
" />
<path d="M73.8482 117.0501
L73.9107 117.1215
" />
<path d="M73.9107 117.1215
L73.9911 117.0501
" />
<path d="M73.9911 117.0501
L73.9286 116.9787
" />
<path d="M73.9286 116.9787
L73.9107 117.1215
" />
<path d="M74.4554 118.4787
L74.5804 117.4787
" />
<path d="M74.5625 117.6215
L74.6429 117.5501
" />
<path d="M74.6429 117.5501
L74.7946 117.4787
" />
<path d="M74.7946 117.4787
L75.0089 117.4787
" />
<path d="M75.0089 117.4787
L75.1429 117.5501
" />
<path d="M75.1429 117.5501
L75.1964 117.6930
" />
<path d="M75.1964 117.6930
L75.0982 118.4787
" />
<path d="M75.1964 117.6930
L75.2857 117.5501
" />
<path d="M75.2857 117.5501
L75.4375 117.4787
" />
<path d="M75.4375 117.4787
L75.6518 117.4787
" />
<path d="M75.6518 117.4787
L75.7857 117.5501
" />
<path d="M75.7857 117.5501
L75.8393 117.6930
" />
<path d="M75.8393 117.6930
L75.7411 118.4787
" />
<path d="M77.0357 118.4072
L76.8839 118.4787
" />
<path d="M76.8839 118.4787
L76.5982 118.4787
" />
<path d="M76.5982 118.4787
L76.4643 118.4072
" />
<path d="M76.4643 118.4072
L76.4107 118.2644
" />
<path d="M76.4107 118.2644
L76.4821 117.6930
" />
<path d="M76.4821 117.6930
L76.5714 117.5501
" />
<path d="M76.5714 117.5501
L76.7232 117.4787
" />
<path d="M76.7232 117.4787
L77.0089 117.4787
" />
<path d="M77.0089 117.4787
L77.1429 117.5501
" />
<path d="M77.1429 117.5501
L77.1964 117.6930
" />
<path d="M77.1964 117.6930
L77.1786 117.8358
" />
<path d="M77.1786 117.8358
L76.4464 117.9787
" />
<path d="M77.8661 117.4787
L77.7411 118.4787
" />
<path d="M77.8482 117.6215
L77.9286 117.5501
" />
<path d="M77.9286 117.5501
L78.0804 117.4787
" />
<path d="M78.0804 117.4787
L78.2946 117.4787
" />
<path d="M78.2946 117.4787
L78.4286 117.5501
" />
<path d="M78.4286 117.5501
L78.4821 117.6930
" />
<path d="M78.4821 117.6930
L78.3839 118.4787
" />
<path d="M79.0357 118.4072
L79.1696 118.4787
" />
<path d="M79.1696 118.4787
L79.4554 118.4787
" />
<path d="M79.4554 118.4787
L79.6071 118.4072
" />
<path d="M79.6071 118.4072
L79.6964 118.2644
" />
<path d="M79.6964 118.2644
L79.7054 118.1930
" />
<path d="M79.7054 118.1930
L79.6518 118.0501
" />
<path d="M79.6518 118.0501
L79.5179 117.9787
" />
<path d="M79.5179 117.9787
L79.3036 117.9787
" />
<path d="M79.3036 117.9787
L79.1696 117.9072
" />
<path d="M79.1696 117.9072
L79.1161 117.7644
" />
<path d="M79.1161 117.7644
L79.1250 117.6930
" />
<path d="M79.1250 117.6930
L79.2143 117.5501
" />
<path d="M79.2143 117.5501
L79.3661 117.4787
" />
<path d="M79.3661 117.4787
L79.5804 117.4787
" />
<path d="M79.5804 117.4787
L79.7143 117.5501
" />
<path d="M80.3125 118.4787
L80.4375 117.4787
" />
<path d="M80.5000 116.9787
L80.4196 117.0501
" />
<path d="M80.4196 117.0501
L80.4821 117.1215
" />
<path d="M80.4821 117.1215
L80.5625 117.0501
" />
<path d="M80.5625 117.0501
L80.5000 116.9787
" />
<path d="M80.5000 116.9787
L80.4821 117.1215
" />
<path d="M81.2411 118.4787
L81.1071 118.4072
" />
<path d="M81.1071 118.4072
L81.0446 118.3358
" />
<path d="M81.0446 118.3358
L80.9911 118.1930
" />
<path d="M80.9911 118.1930
L81.0446 117.7644
" />
<path d="M81.0446 117.7644
L81.1339 117.6215
" />
<path d="M81.1339 117.6215
L81.2143 117.5501
" />
<path d="M81.2143 117.5501
L81.3661 117.4787
" />
<path d="M81.3661 117.4787
L81.5804 117.4787
" />
<path d="M81.5804 117.4787
L81.7143 117.5501
" />
<path d="M81.7143 117.5501
L81.7768 117.6215
" />
<path d="M81.7768 117.6215
L81.8304 117.7644
" />
<path d="M81.8304 117.7644
L81.7768 118.1930
" />
<path d="M81.7768 118.1930
L81.6875 118.3358
" />
<path d="M81.6875 118.3358
L81.6071 118.4072
" />
<path d="M81.6071 118.4072
L81.4554 118.4787
" />
<path d="M81.4554 118.4787
L81.2411 118.4787
" />
<path d="M82.5089 117.4787
L82.3839 118.4787
" />
<path d="M82.4911 117.6215
L82.5714 117.5501
" />
<path d="M82.5714 117.5501
L82.7232 117.4787
" />
<path d="M82.7232 117.4787
L82.9375 117.4787
" />
<path d="M82.9375 117.4787
L83.0714 117.5501
" />
<path d="M83.0714 117.5501
L83.1250 117.6930
" />
<path d="M83.1250 117.6930
L83.0268 118.4787
" />
<path d="M83.6786 118.4072
L83.8125 118.4787
" />
<path d="M83.8125 118.4787
L84.0982 118.4787
" />
<path d="M84.0982 118.4787
L84.2500 118.4072
" />
<path d="M84.2500 118.4072
L84.3393 118.2644
" />
<path d="M84.3393 118.2644
L84.3482 118.1930
" />
<path d="M84.3482 118.1930
L84.2946 118.0501
" />
<path d="M84.2946 118.0501
L84.1607 117.9787
" />
<path d="M84.1607 117.9787
L83.9464 117.9787
" />
<path d="M83.9464 117.9787
L83.8125 117.9072
" />
<path d="M83.8125 117.9072
L83.7589 117.7644
" />
<path d="M83.7589 117.7644
L83.7679 117.6930
" />
<path d="M83.7679 117.6930
L83.8571 117.5501
" />
<path d="M83.8571 117.5501
L84.0089 117.4787
" />
<path d="M84.0089 117.4787
L84.2232 117.4787
" />
<path d="M84.2232 117.4787
L84.3571 117.5501
" />
<path d="M86.0089 117.4787
L86.5804 117.4787
" />
<path d="M86.2857 116.9787
L86.1250 118.2644
" />
<path d="M86.1250 118.2644
L86.1786 118.4072
" />
<path d="M86.1786 118.4072
L86.3125 118.4787
" />
<path d="M86.3125 118.4787
L86.4554 118.4787
" />
<path d="M87.5982 118.4787
L87.6964 117.6930
" />
<path d="M87.6964 117.6930
L87.6429 117.5501
" />
<path d="M87.6429 117.5501
L87.5089 117.4787
" />
<path d="M87.5089 117.4787
L87.2232 117.4787
" />
<path d="M87.2232 117.4787
L87.0714 117.5501
" />
<path d="M87.6071 118.4072
L87.4554 118.4787
" />
<path d="M87.4554 118.4787
L87.0982 118.4787
" />
<path d="M87.0982 118.4787
L86.9643 118.4072
" />
<path d="M86.9643 118.4072
L86.9107 118.2644
" />
<path d="M86.9107 118.2644
L86.9286 118.1215
" />
<path d="M86.9286 118.1215
L87.0179 117.9787
" />
<path d="M87.0179 117.9787
L87.1696 117.9072
" />
<path d="M87.1696 117.9072
L87.5268 117.9072
" />
<path d="M87.5268 117.9072
L87.6786 117.8358
" />
<path d="M88.3125 118.4787
L88.5000 116.9787
" />
<path d="M88.5268 117.9072
L88.8839 118.4787
" />
<path d="M89.0089 117.4787
L88.3661 118.0501
" />
<path d="M90.1071 118.4072
L89.9554 118.4787
" />
<path d="M89.9554 118.4787
L89.6696 118.4787
" />
<path d="M89.6696 118.4787
L89.5357 118.4072
" />
<path d="M89.5357 118.4072
L89.4821 118.2644
" />
<path d="M89.4821 118.2644
L89.5536 117.6930
" />
<path d="M89.5536 117.6930
L89.6429 117.5501
" />
<path d="M89.6429 117.5501
L89.7946 117.4787
" />
<path d="M89.7946 117.4787
L90.0804 117.4787
" />
<path d="M90.0804 117.4787
L90.2143 117.5501
" />
<path d="M90.2143 117.5501
L90.2679 117.6930
" />
<path d="M90.2679 117.6930
L90.2500 117.8358
" />
<path d="M90.2500 117.8358
L89.5179 117.9787
" />
<path d="M90.9375 117.4787
L90.8125 118.4787
" />
<path d="M90.9196 117.6215
L91.0000 117.5501
" />
<path d="M91.0000 117.5501
L91.1518 117.4787
" />
<path d="M91.1518 117.4787
L91.3661 117.4787
" />
<path d="M91.3661 117.4787
L91.5000 117.5501
" />
<path d="M91.5000 117.5501
L91.5536 117.6930
" />
<path d="M91.5536 117.6930
L91.4554 118.4787
" />
<path d="M93.2232 117.4787
L93.7946 117.4787
" />
<path d="M93.3125 118.4787
L93.4732 117.1930
" />
<path d="M93.4732 117.1930
L93.5625 117.0501
" />
<path d="M93.5625 117.0501
L93.7143 116.9787
" />
<path d="M93.7143 116.9787
L93.8571 116.9787
" />
<path d="M94.1696 118.4787
L94.2946 117.4787
" />
<path d="M94.2589 117.7644
L94.3482 117.6215
" />
<path d="M94.3482 117.6215
L94.4286 117.5501
" />
<path d="M94.4286 117.5501
L94.5804 117.4787
" />
<path d="M94.5804 117.4787
L94.7232 117.4787
" />
<path d="M95.3125 118.4787
L95.1786 118.4072
" />
<path d="M95.1786 118.4072
L95.1161 118.3358
" />
<path d="M95.1161 118.3358
L95.0625 118.1930
" />
<path d="M95.0625 118.1930
L95.1161 117.7644
" />
<path d="M95.1161 117.7644
L95.2054 117.6215
" />
<path d="M95.2054 117.6215
L95.2857 117.5501
" />
<path d="M95.2857 117.5501
L95.4375 117.4787
" />
<path d="M95.4375 117.4787
L95.6518 117.4787
" />
<path d="M95.6518 117.4787
L95.7857 117.5501
" />
<path d="M95.7857 117.5501
L95.8482 117.6215
" />
<path d="M95.8482 117.6215
L95.9018 117.7644
" />
<path d="M95.9018 117.7644
L95.8482 118.1930
" />
<path d="M95.8482 118.1930
L95.7589 118.3358
" />
<path d="M95.7589 118.3358
L95.6786 118.4072
" />
<path d="M95.6786 118.4072
L95.5268 118.4787
" />
<path d="M95.5268 118.4787
L95.3125 118.4787
" />
<path d="M96.4554 118.4787
L96.5804 117.4787
" />
<path d="M96.5625 117.6215
L96.6429 117.5501
" />
<path d="M96.6429 117.5501
L96.7946 117.4787
" />
<path d="M96.7946 117.4787
L97.0089 117.4787
" />
<path d="M97.0089 117.4787
L97.1429 117.5501
" />
<path d="M97.1429 117.5501
L97.1964 117.6930
" />
<path d="M97.1964 117.6930
L97.0982 118.4787
" />
<path d="M97.1964 117.6930
L97.2857 117.5501
" />
<path d="M97.2857 117.5501
L97.4375 117.4787
" />
<path d="M97.4375 117.4787
L97.6518 117.4787
" />
<path d="M97.6518 117.4787
L97.7857 117.5501
" />
<path d="M97.7857 117.5501
L97.8393 117.6930
" />
<path d="M97.8393 117.6930
L97.7411 118.4787
" />
</g><text x="85.0000" y="120.9575"
textLength="90.4357" font-size="2.0000" lengthAdjust="spacingAndGlyphs"
text-anchor="middle" opacity="0" stroke-opacity="0">https://github.com/raspberrypi/hats/blob/master/hat-board-mechanical.pdf</text>
<g class="stroked-text"><desc>https://github.com/raspberrypi/hats/blob/master/hat-board-mechanical.pdf</desc>
<path d="M40.2054 120.8936
L40.3929 119.3936
" />
<path d="M40.8482 120.8936
L40.9464 120.1079
" />
<path d="M40.9464 120.1079
L40.8929 119.9650
" />
<path d="M40.8929 119.9650
L40.7589 119.8936
" />
<path d="M40.7589 119.8936
L40.5446 119.8936
" />
<path d="M40.5446 119.8936
L40.3929 119.9650
" />
<path d="M40.3929 119.9650
L40.3125 120.0364
" />
<path d="M41.4732 119.8936
L42.0446 119.8936
" />
<path d="M41.7500 119.3936
L41.5893 120.6793
" />
<path d="M41.5893 120.6793
L41.6429 120.8222
" />
<path d="M41.6429 120.8222
L41.7768 120.8936
" />
<path d="M41.7768 120.8936
L41.9196 120.8936
" />
<path d="M42.3304 119.8936
L42.9018 119.8936
" />
<path d="M42.6071 119.3936
L42.4464 120.6793
" />
<path d="M42.4464 120.6793
L42.5000 120.8222
" />
<path d="M42.5000 120.8222
L42.6339 120.8936
" />
<path d="M42.6339 120.8936
L42.7768 120.8936
" />
<path d="M43.4018 119.8936
L43.2143 121.3936
" />
<path d="M43.3929 119.9650
L43.5446 119.8936
" />
<path d="M43.5446 119.8936
L43.8304 119.8936
" />
<path d="M43.8304 119.8936
L43.9643 119.9650
" />
<path d="M43.9643 119.9650
L44.0268 120.0364
" />
<path d="M44.0268 120.0364
L44.0804 120.1793
" />
<path d="M44.0804 120.1793
L44.0268 120.6079
" />
<path d="M44.0268 120.6079
L43.9375 120.7507
" />
<path d="M43.9375 120.7507
L43.8571 120.8222
" />
<path d="M43.8571 120.8222
L43.7054 120.8936
" />
<path d="M43.7054 120.8936
L43.4196 120.8936
" />
<path d="M43.4196 120.8936
L43.2857 120.8222
" />
<path d="M44.5714 120.8222
L44.7054 120.8936
" />
<path d="M44.7054 120.8936
L44.9911 120.8936
" />
<path d="M44.9911 120.8936
L45.1429 120.8222
" />
<path d="M45.1429 120.8222
L45.2321 120.6793
" />
<path d="M45.2321 120.6793
L45.2411 120.6079
" />
<path d="M45.2411 120.6079
L45.1875 120.4650
" />
<path d="M45.1875 120.4650
L45.0536 120.3936
" />
<path d="M45.0536 120.3936
L44.8393 120.3936
" />
<path d="M44.8393 120.3936
L44.7054 120.3222
" />
<path d="M44.7054 120.3222
L44.6518 120.1793
" />
<path d="M44.6518 120.1793
L44.6607 120.1079
" />
<path d="M44.6607 120.1079
L44.7500 119.9650
" />
<path d="M44.7500 119.9650
L44.9018 119.8936
" />
<path d="M44.9018 119.8936
L45.1161 119.8936
" />
<path d="M45.1161 119.8936
L45.2500 119.9650
" />
<path d="M45.8661 120.7507
L45.9286 120.8222
" />
<path d="M45.9286 120.8222
L45.8482 120.8936
" />
<path d="M45.8482 120.8936
L45.7857 120.8222
" />
<path d="M45.7857 120.8222
L45.8661 120.7507
" />
<path d="M45.8661 120.7507
L45.8482 120.8936
" />
<path d="M45.9643 119.9650
L46.0268 120.0364
" />
<path d="M46.0268 120.0364
L45.9464 120.1079
" />
<path d="M45.9464 120.1079
L45.8839 120.0364
" />
<path d="M45.8839 120.0364
L45.9643 119.9650
" />
<path d="M45.9643 119.9650
L45.9464 120.1079
" />
<path d="M47.8304 119.3222
L46.3036 121.2507
" />
<path d="M49.4018 119.3222
L47.8750 121.2507
" />
<path d="M50.4732 119.8936
L50.3214 121.1079
" />
<path d="M50.3214 121.1079
L50.2321 121.2507
" />
<path d="M50.2321 121.2507
L50.1518 121.3222
" />
<path d="M50.1518 121.3222
L50.0000 121.3936
" />
<path d="M50.0000 121.3936
L49.7857 121.3936
" />
<path d="M49.7857 121.3936
L49.6518 121.3222
" />
<path d="M50.3571 120.8222
L50.2054 120.8936
" />
<path d="M50.2054 120.8936
L49.9196 120.8936
" />
<path d="M49.9196 120.8936
L49.7857 120.8222
" />
<path d="M49.7857 120.8222
L49.7232 120.7507
" />
<path d="M49.7232 120.7507
L49.6696 120.6079
" />
<path d="M49.6696 120.6079
L49.7232 120.1793
" />
<path d="M49.7232 120.1793
L49.8125 120.0364
" />
<path d="M49.8125 120.0364
L49.8929 119.9650
" />
<path d="M49.8929 119.9650
L50.0446 119.8936
" />
<path d="M50.0446 119.8936
L50.3304 119.8936
" />
<path d="M50.3304 119.8936
L50.4643 119.9650
" />
<path d="M51.0625 120.8936
L51.1875 119.8936
" />
<path d="M51.2500 119.3936
L51.1696 119.4650
" />
<path d="M51.1696 119.4650
L51.2321 119.5364
" />
<path d="M51.2321 119.5364
L51.3125 119.4650
" />
<path d="M51.3125 119.4650
L51.2500 119.3936
" />
<path d="M51.2500 119.3936
L51.2321 119.5364
" />
<path d="M51.6875 119.8936
L52.2589 119.8936
" />
<path d="M51.9643 119.3936
L51.8036 120.6793
" />
<path d="M51.8036 120.6793
L51.8571 120.8222
" />
<path d="M51.8571 120.8222
L51.9911 120.8936
" />
<path d="M51.9911 120.8936
L52.1339 120.8936
" />
<path d="M52.6339 120.8936
L52.8214 119.3936
" />
<path d="M53.2768 120.8936
L53.3750 120.1079
" />
<path d="M53.3750 120.1079
L53.3214 119.9650
" />
<path d="M53.3214 119.9650
L53.1875 119.8936
" />
<path d="M53.1875 119.8936
L52.9732 119.8936
" />
<path d="M52.9732 119.8936
L52.8214 119.9650
" />
<path d="M52.8214 119.9650
L52.7411 120.0364
" />
<path d="M54.7589 119.8936
L54.6339 120.8936
" />
<path d="M54.1161 119.8936
L54.0179 120.6793
" />
<path d="M54.0179 120.6793
L54.0714 120.8222
" />
<path d="M54.0714 120.8222
L54.2054 120.8936
" />
<path d="M54.2054 120.8936
L54.4196 120.8936
" />
<path d="M54.4196 120.8936
L54.5714 120.8222
" />
<path d="M54.5714 120.8222
L54.6518 120.7507
" />
<path d="M55.3482 120.8936
L55.5357 119.3936
" />
<path d="M55.4643 119.9650
L55.6161 119.8936
" />
<path d="M55.6161 119.8936
L55.9018 119.8936
" />
<path d="M55.9018 119.8936
L56.0357 119.9650
" />
<path d="M56.0357 119.9650
L56.0982 120.0364
" />
<path d="M56.0982 120.0364
L56.1518 120.1793
" />
<path d="M56.1518 120.1793
L56.0982 120.6079
" />
<path d="M56.0982 120.6079
L56.0089 120.7507
" />
<path d="M56.0089 120.7507
L55.9286 120.8222
" />
<path d="M55.9286 120.8222
L55.7768 120.8936
" />
<path d="M55.7768 120.8936
L55.4911 120.8936
" />
<path d="M55.4911 120.8936
L55.3571 120.8222
" />
<path d="M56.7232 120.7507
L56.7857 120.8222
" />
<path d="M56.7857 120.8222
L56.7054 120.8936
" />
<path d="M56.7054 120.8936
L56.6429 120.8222
" />
<path d="M56.6429 120.8222
L56.7232 120.7507
" />
<path d="M56.7232 120.7507
L56.7054 120.8936
" />
<path d="M58.0714 120.8222
L57.9196 120.8936
" />
<path d="M57.9196 120.8936
L57.6339 120.8936
" />
<path d="M57.6339 120.8936
L57.5000 120.8222
" />
<path d="M57.5000 120.8222
L57.4375 120.7507
" />
<path d="M57.4375 120.7507
L57.3839 120.6079
" />
<path d="M57.3839 120.6079
L57.4375 120.1793
" />
<path d="M57.4375 120.1793
L57.5268 120.0364
" />
<path d="M57.5268 120.0364
L57.6071 119.9650
" />
<path d="M57.6071 119.9650
L57.7589 119.8936
" />
<path d="M57.7589 119.8936
L58.0446 119.8936
" />
<path d="M58.0446 119.8936
L58.1786 119.9650
" />
<path d="M58.9196 120.8936
L58.7857 120.8222
" />
<path d="M58.7857 120.8222
L58.7232 120.7507
" />
<path d="M58.7232 120.7507
L58.6696 120.6079
" />
<path d="M58.6696 120.6079
L58.7232 120.1793
" />
<path d="M58.7232 120.1793
L58.8125 120.0364
" />
<path d="M58.8125 120.0364
L58.8929 119.9650
" />
<path d="M58.8929 119.9650
L59.0446 119.8936
" />
<path d="M59.0446 119.8936
L59.2589 119.8936
" />
<path d="M59.2589 119.8936
L59.3929 119.9650
" />
<path d="M59.3929 119.9650
L59.4554 120.0364
" />
<path d="M59.4554 120.0364
L59.5089 120.1793
" />
<path d="M59.5089 120.1793
L59.4554 120.6079
" />
<path d="M59.4554 120.6079
L59.3661 120.7507
" />
<path d="M59.3661 120.7507
L59.2857 120.8222
" />
<path d="M59.2857 120.8222
L59.1339 120.8936
" />
<path d="M59.1339 120.8936
L58.9196 120.8936
" />
<path d="M60.0625 120.8936
L60.1875 119.8936
" />
<path d="M60.1696 120.0364
L60.2500 119.9650
" />
<path d="M60.2500 119.9650
L60.4018 119.8936
" />
<path d="M60.4018 119.8936
L60.6161 119.8936
" />
<path d="M60.6161 119.8936
L60.7500 119.9650
" />
<path d="M60.7500 119.9650
L60.8036 120.1079
" />
<path d="M60.8036 120.1079
L60.7054 120.8936
" />
<path d="M60.8036 120.1079
L60.8929 119.9650
" />
<path d="M60.8929 119.9650
L61.0446 119.8936
" />
<path d="M61.0446 119.8936
L61.2589 119.8936
" />
<path d="M61.2589 119.8936
L61.3929 119.9650
" />
<path d="M61.3929 119.9650
L61.4464 120.1079
" />
<path d="M61.4464 120.1079
L61.3482 120.8936
" />
<path d="M63.3304 119.3222
L61.8036 121.2507
" />
<path d="M63.6339 120.8936
L63.7589 119.8936
" />
<path d="M63.7232 120.1793
L63.8125 120.0364
" />
<path d="M63.8125 120.0364
L63.8929 119.9650
" />
<path d="M63.8929 119.9650
L64.0446 119.8936
" />
<path d="M64.0446 119.8936
L64.1875 119.8936
" />
<path d="M65.2054 120.8936
L65.3036 120.1079
" />
<path d="M65.3036 120.1079
L65.2500 119.9650
" />
<path d="M65.2500 119.9650
L65.1161 119.8936
" />
<path d="M65.1161 119.8936
L64.8304 119.8936
" />
<path d="M64.8304 119.8936
L64.6786 119.9650
" />
<path d="M65.2143 120.8222
L65.0625 120.8936
" />
<path d="M65.0625 120.8936
L64.7054 120.8936
" />
<path d="M64.7054 120.8936
L64.5714 120.8222
" />
<path d="M64.5714 120.8222
L64.5179 120.6793
" />
<path d="M64.5179 120.6793
L64.5357 120.5364
" />
<path d="M64.5357 120.5364
L64.6250 120.3936
" />
<path d="M64.6250 120.3936
L64.7768 120.3222
" />
<path d="M64.7768 120.3222
L65.1339 120.3222
" />
<path d="M65.1339 120.3222
L65.2857 120.2507
" />
<path d="M65.8571 120.8222
L65.9911 120.8936
" />
<path d="M65.9911 120.8936
L66.2768 120.8936
" />
<path d="M66.2768 120.8936
L66.4286 120.8222
" />
<path d="M66.4286 120.8222
L66.5179 120.6793
" />
<path d="M66.5179 120.6793
L66.5268 120.6079
" />
<path d="M66.5268 120.6079
L66.4732 120.4650
" />
<path d="M66.4732 120.4650
L66.3393 120.3936
" />
<path d="M66.3393 120.3936
L66.1250 120.3936
" />
<path d="M66.1250 120.3936
L65.9911 120.3222
" />
<path d="M65.9911 120.3222
L65.9375 120.1793
" />
<path d="M65.9375 120.1793
L65.9464 120.1079
" />
<path d="M65.9464 120.1079
L66.0357 119.9650
" />
<path d="M66.0357 119.9650
L66.1875 119.8936
" />
<path d="M66.1875 119.8936
L66.4018 119.8936
" />
<path d="M66.4018 119.8936
L66.5357 119.9650
" />
<path d="M67.2589 119.8936
L67.0714 121.3936
" />
<path d="M67.2500 119.9650
L67.4018 119.8936
" />
<path d="M67.4018 119.8936
L67.6875 119.8936
" />
<path d="M67.6875 119.8936
L67.8214 119.9650
" />
<path d="M67.8214 119.9650
L67.8839 120.0364
" />
<path d="M67.8839 120.0364
L67.9375 120.1793
" />
<path d="M67.9375 120.1793
L67.8839 120.6079
" />
<path d="M67.8839 120.6079
L67.7946 120.7507
" />
<path d="M67.7946 120.7507
L67.7143 120.8222
" />
<path d="M67.7143 120.8222
L67.5625 120.8936
" />
<path d="M67.5625 120.8936
L67.2768 120.8936
" />
<path d="M67.2768 120.8936
L67.1429 120.8222
" />
<path d="M68.4911 120.8936
L68.6786 119.3936
" />
<path d="M68.6071 119.9650
L68.7589 119.8936
" />
<path d="M68.7589 119.8936
L69.0446 119.8936
" />
<path d="M69.0446 119.8936
L69.1786 119.9650
" />
<path d="M69.1786 119.9650
L69.2411 120.0364
" />
<path d="M69.2411 120.0364
L69.2946 120.1793
" />
<path d="M69.2946 120.1793
L69.2411 120.6079
" />
<path d="M69.2411 120.6079
L69.1518 120.7507
" />
<path d="M69.1518 120.7507
L69.0714 120.8222
" />
<path d="M69.0714 120.8222
L68.9196 120.8936
" />
<path d="M68.9196 120.8936
L68.6339 120.8936
" />
<path d="M68.6339 120.8936
L68.5000 120.8222
" />
<path d="M70.4286 120.8222
L70.2768 120.8936
" />
<path d="M70.2768 120.8936
L69.9911 120.8936
" />
<path d="M69.9911 120.8936
L69.8571 120.8222
" />
<path d="M69.8571 120.8222
L69.8036 120.6793
" />
<path d="M69.8036 120.6793
L69.8750 120.1079
" />
<path d="M69.8750 120.1079
L69.9643 119.9650
" />
<path d="M69.9643 119.9650
L70.1161 119.8936
" />
<path d="M70.1161 119.8936
L70.4018 119.8936
" />
<path d="M70.4018 119.8936
L70.5357 119.9650
" />
<path d="M70.5357 119.9650
L70.5893 120.1079
" />
<path d="M70.5893 120.1079
L70.5714 120.2507
" />
<path d="M70.5714 120.2507
L69.8393 120.3936
" />
<path d="M71.1339 120.8936
L71.2589 119.8936
" />
<path d="M71.2232 120.1793
L71.3125 120.0364
" />
<path d="M71.3125 120.0364
L71.3929 119.9650
" />
<path d="M71.3929 119.9650
L71.5446 119.8936
" />
<path d="M71.5446 119.8936
L71.6875 119.8936
" />
<path d="M72.0625 120.8936
L72.1875 119.8936
" />
<path d="M72.1518 120.1793
L72.2411 120.0364
" />
<path d="M72.2411 120.0364
L72.3214 119.9650
" />
<path d="M72.3214 119.9650
L72.4732 119.8936
" />
<path d="M72.4732 119.8936
L72.6161 119.8936
" />
<path d="M72.9732 119.8936
L73.2054 120.8936
" />
<path d="M73.6875 119.8936
L73.2054 120.8936
" />
<path d="M73.2054 120.8936
L73.0179 121.2507
" />
<path d="M73.0179 121.2507
L72.9375 121.3222
" />
<path d="M72.9375 121.3222
L72.7857 121.3936
" />
<path d="M74.2589 119.8936
L74.0714 121.3936
" />
<path d="M74.2500 119.9650
L74.4018 119.8936
" />
<path d="M74.4018 119.8936
L74.6875 119.8936
" />
<path d="M74.6875 119.8936
L74.8214 119.9650
" />
<path d="M74.8214 119.9650
L74.8839 120.0364
" />
<path d="M74.8839 120.0364
L74.9375 120.1793
" />
<path d="M74.9375 120.1793
L74.8839 120.6079
" />
<path d="M74.8839 120.6079
L74.7946 120.7507
" />
<path d="M74.7946 120.7507
L74.7143 120.8222
" />
<path d="M74.7143 120.8222
L74.5625 120.8936
" />
<path d="M74.5625 120.8936
L74.2768 120.8936
" />
<path d="M74.2768 120.8936
L74.1429 120.8222
" />
<path d="M75.4911 120.8936
L75.6161 119.8936
" />
<path d="M75.6786 119.3936
L75.5982 119.4650
" />
<path d="M75.5982 119.4650
L75.6607 119.5364
" />
<path d="M75.6607 119.5364
L75.7411 119.4650
" />
<path d="M75.7411 119.4650
L75.6786 119.3936
" />
<path d="M75.6786 119.3936
L75.6607 119.5364
" />
<path d="M77.4732 119.3222
L75.9464 121.2507
" />
<path d="M77.7768 120.8936
L77.9643 119.3936
" />
<path d="M78.4196 120.8936
L78.5179 120.1079
" />
<path d="M78.5179 120.1079
L78.4643 119.9650
" />
<path d="M78.4643 119.9650
L78.3304 119.8936
" />
<path d="M78.3304 119.8936
L78.1161 119.8936
" />
<path d="M78.1161 119.8936
L77.9643 119.9650
" />
<path d="M77.9643 119.9650
L77.8839 120.0364
" />
<path d="M79.7768 120.8936
L79.8750 120.1079
" />
<path d="M79.8750 120.1079
L79.8214 119.9650
" />
<path d="M79.8214 119.9650
L79.6875 119.8936
" />
<path d="M79.6875 119.8936
L79.4018 119.8936
" />
<path d="M79.4018 119.8936
L79.2500 119.9650
" />
<path d="M79.7857 120.8222
L79.6339 120.8936
" />
<path d="M79.6339 120.8936
L79.2768 120.8936
" />
<path d="M79.2768 120.8936
L79.1429 120.8222
" />
<path d="M79.1429 120.8222
L79.0893 120.6793
" />
<path d="M79.0893 120.6793
L79.1071 120.5364
" />
<path d="M79.1071 120.5364
L79.1964 120.3936
" />
<path d="M79.1964 120.3936
L79.3482 120.3222
" />
<path d="M79.3482 120.3222
L79.7054 120.3222
" />
<path d="M79.7054 120.3222
L79.8571 120.2507
" />
<path d="M80.4018 119.8936
L80.9732 119.8936
" />
<path d="M80.6786 119.3936
L80.5179 120.6793
" />
<path d="M80.5179 120.6793
L80.5714 120.8222
" />
<path d="M80.5714 120.8222
L80.7054 120.8936
" />
<path d="M80.7054 120.8936
L80.8482 120.8936
" />
<path d="M81.2857 120.8222
L81.4196 120.8936
" />
<path d="M81.4196 120.8936
L81.7054 120.8936
" />
<path d="M81.7054 120.8936
L81.8571 120.8222
" />
<path d="M81.8571 120.8222
L81.9464 120.6793
" />
<path d="M81.9464 120.6793
L81.9554 120.6079
" />
<path d="M81.9554 120.6079
L81.9018 120.4650
" />
<path d="M81.9018 120.4650
L81.7679 120.3936
" />
<path d="M81.7679 120.3936
L81.5536 120.3936
" />
<path d="M81.5536 120.3936
L81.4196 120.3222
" />
<path d="M81.4196 120.3222
L81.3661 120.1793
" />
<path d="M81.3661 120.1793
L81.3750 120.1079
" />
<path d="M81.3750 120.1079
L81.4643 119.9650
" />
<path d="M81.4643 119.9650
L81.6161 119.8936
" />
<path d="M81.6161 119.8936
L81.8304 119.8936
" />
<path d="M81.8304 119.8936
L81.9643 119.9650
" />
<path d="M83.8304 119.3222
L82.3036 121.2507
" />
<path d="M84.1339 120.8936
L84.3214 119.3936
" />
<path d="M84.2500 119.9650
L84.4018 119.8936
" />
<path d="M84.4018 119.8936
L84.6875 119.8936
" />
<path d="M84.6875 119.8936
L84.8214 119.9650
" />
<path d="M84.8214 119.9650
L84.8839 120.0364
" />
<path d="M84.8839 120.0364
L84.9375 120.1793
" />
<path d="M84.9375 120.1793
L84.8839 120.6079
" />
<path d="M84.8839 120.6079
L84.7946 120.7507
" />
<path d="M84.7946 120.7507
L84.7143 120.8222
" />
<path d="M84.7143 120.8222
L84.5625 120.8936
" />
<path d="M84.5625 120.8936
L84.2768 120.8936
" />
<path d="M84.2768 120.8936
L84.1429 120.8222
" />
<path d="M85.7054 120.8936
L85.5714 120.8222
" />
<path d="M85.5714 120.8222
L85.5179 120.6793
" />
<path d="M85.5179 120.6793
L85.6786 119.3936
" />
<path d="M86.4911 120.8936
L86.3571 120.8222
" />
<path d="M86.3571 120.8222
L86.2946 120.7507
" />
<path d="M86.2946 120.7507
L86.2411 120.6079
" />
<path d="M86.2411 120.6079
L86.2946 120.1793
" />
<path d="M86.2946 120.1793
L86.3839 120.0364
" />
<path d="M86.3839 120.0364
L86.4643 119.9650
" />
<path d="M86.4643 119.9650
L86.6161 119.8936
" />
<path d="M86.6161 119.8936
L86.8304 119.8936
" />
<path d="M86.8304 119.8936
L86.9643 119.9650
" />
<path d="M86.9643 119.9650
L87.0268 120.0364
" />
<path d="M87.0268 120.0364
L87.0804 120.1793
" />
<path d="M87.0804 120.1793
L87.0268 120.6079
" />
<path d="M87.0268 120.6079
L86.9375 120.7507
" />
<path d="M86.9375 120.7507
L86.8571 120.8222
" />
<path d="M86.8571 120.8222
L86.7054 120.8936
" />
<path d="M86.7054 120.8936
L86.4911 120.8936
" />
<path d="M87.6339 120.8936
L87.8214 119.3936
" />
<path d="M87.7500 119.9650
L87.9018 119.8936
" />
<path d="M87.9018 119.8936
L88.1875 119.8936
" />
<path d="M88.1875 119.8936
L88.3214 119.9650
" />
<path d="M88.3214 119.9650
L88.3839 120.0364
" />
<path d="M88.3839 120.0364
L88.4375 120.1793
" />
<path d="M88.4375 120.1793
L88.3839 120.6079
" />
<path d="M88.3839 120.6079
L88.2946 120.7507
" />
<path d="M88.2946 120.7507
L88.2143 120.8222
" />
<path d="M88.2143 120.8222
L88.0625 120.8936
" />
<path d="M88.0625 120.8936
L87.7768 120.8936
" />
<path d="M87.7768 120.8936
L87.6429 120.8222
" />
<path d="M90.2589 119.3222
L88.7321 121.2507
" />
<path d="M90.5625 120.8936
L90.6875 119.8936
" />
<path d="M90.6696 120.0364
L90.7500 119.9650
" />
<path d="M90.7500 119.9650
L90.9018 119.8936
" />
<path d="M90.9018 119.8936
L91.1161 119.8936
" />
<path d="M91.1161 119.8936
L91.2500 119.9650
" />
<path d="M91.2500 119.9650
L91.3036 120.1079
" />
<path d="M91.3036 120.1079
L91.2054 120.8936
" />
<path d="M91.3036 120.1079
L91.3929 119.9650
" />
<path d="M91.3929 119.9650
L91.5446 119.8936
" />
<path d="M91.5446 119.8936
L91.7589 119.8936
" />
<path d="M91.7589 119.8936
L91.8929 119.9650
" />
<path d="M91.8929 119.9650
L91.9464 120.1079
" />
<path d="M91.9464 120.1079
L91.8482 120.8936
" />
<path d="M93.2054 120.8936
L93.3036 120.1079
" />
<path d="M93.3036 120.1079
L93.2500 119.9650
" />
<path d="M93.2500 119.9650
L93.1161 119.8936
" />
<path d="M93.1161 119.8936
L92.8304 119.8936
" />
<path d="M92.8304 119.8936
L92.6786 119.9650
" />
<path d="M93.2143 120.8222
L93.0625 120.8936
" />
<path d="M93.0625 120.8936
L92.7054 120.8936
" />
<path d="M92.7054 120.8936
L92.5714 120.8222
" />
<path d="M92.5714 120.8222
L92.5179 120.6793
" />
<path d="M92.5179 120.6793
L92.5357 120.5364
" />
<path d="M92.5357 120.5364
L92.6250 120.3936
" />
<path d="M92.6250 120.3936
L92.7768 120.3222
" />
<path d="M92.7768 120.3222
L93.1339 120.3222
" />
<path d="M93.1339 120.3222
L93.2857 120.2507
" />
<path d="M93.8571 120.8222
L93.9911 120.8936
" />
<path d="M93.9911 120.8936
L94.2768 120.8936
" />
<path d="M94.2768 120.8936
L94.4286 120.8222
" />
<path d="M94.4286 120.8222
L94.5179 120.6793
" />
<path d="M94.5179 120.6793
L94.5268 120.6079
" />
<path d="M94.5268 120.6079
L94.4732 120.4650
" />
<path d="M94.4732 120.4650
L94.3393 120.3936
" />
<path d="M94.3393 120.3936
L94.1250 120.3936
" />
<path d="M94.1250 120.3936
L93.9911 120.3222
" />
<path d="M93.9911 120.3222
L93.9375 120.1793
" />
<path d="M93.9375 120.1793
L93.9464 120.1079
" />
<path d="M93.9464 120.1079
L94.0357 119.9650
" />
<path d="M94.0357 119.9650
L94.1875 119.8936
" />
<path d="M94.1875 119.8936
L94.4018 119.8936
" />
<path d="M94.4018 119.8936
L94.5357 119.9650
" />
<path d="M95.0446 119.8936
L95.6161 119.8936
" />
<path d="M95.3214 119.3936
L95.1607 120.6793
" />
<path d="M95.1607 120.6793
L95.2143 120.8222
" />
<path d="M95.2143 120.8222
L95.3482 120.8936
" />
<path d="M95.3482 120.8936
L95.4911 120.8936
" />
<path d="M96.5714 120.8222
L96.4196 120.8936
" />
<path d="M96.4196 120.8936
L96.1339 120.8936
" />
<path d="M96.1339 120.8936
L96.0000 120.8222
" />
<path d="M96.0000 120.8222
L95.9464 120.6793
" />
<path d="M95.9464 120.6793
L96.0179 120.1079
" />
<path d="M96.0179 120.1079
L96.1071 119.9650
" />
<path d="M96.1071 119.9650
L96.2589 119.8936
" />
<path d="M96.2589 119.8936
L96.5446 119.8936
" />
<path d="M96.5446 119.8936
L96.6786 119.9650
" />
<path d="M96.6786 119.9650
L96.7321 120.1079
" />
<path d="M96.7321 120.1079
L96.7143 120.2507
" />
<path d="M96.7143 120.2507
L95.9821 120.3936
" />
<path d="M97.2768 120.8936
L97.4018 119.8936
" />
<path d="M97.3661 120.1793
L97.4554 120.0364
" />
<path d="M97.4554 120.0364
L97.5357 119.9650
" />
<path d="M97.5357 119.9650
L97.6875 119.8936
" />
<path d="M97.6875 119.8936
L97.8304 119.8936
" />
<path d="M99.4732 119.3222
L97.9464 121.2507
" />
<path d="M99.7768 120.8936
L99.9643 119.3936
" />
<path d="M100.4196 120.8936
L100.5179 120.1079
" />
<path d="M100.5179 120.1079
L100.4643 119.9650
" />
<path d="M100.4643 119.9650
L100.3304 119.8936
" />
<path d="M100.3304 119.8936
L100.1161 119.8936
" />
<path d="M100.1161 119.8936
L99.9643 119.9650
" />
<path d="M99.9643 119.9650
L99.8839 120.0364
" />
<path d="M101.7768 120.8936
L101.8750 120.1079
" />
<path d="M101.8750 120.1079
L101.8214 119.9650
" />
<path d="M101.8214 119.9650
L101.6875 119.8936
" />
<path d="M101.6875 119.8936
L101.4018 119.8936
" />
<path d="M101.4018 119.8936
L101.2500 119.9650
" />
<path d="M101.7857 120.8222
L101.6339 120.8936
" />
<path d="M101.6339 120.8936
L101.2768 120.8936
" />
<path d="M101.2768 120.8936
L101.1429 120.8222
" />
<path d="M101.1429 120.8222
L101.0893 120.6793
" />
<path d="M101.0893 120.6793
L101.1071 120.5364
" />
<path d="M101.1071 120.5364
L101.1964 120.3936
" />
<path d="M101.1964 120.3936
L101.3482 120.3222
" />
<path d="M101.3482 120.3222
L101.7054 120.3222
" />
<path d="M101.7054 120.3222
L101.8571 120.2507
" />
<path d="M102.4018 119.8936
L102.9732 119.8936
" />
<path d="M102.6786 119.3936
L102.5179 120.6793
" />
<path d="M102.5179 120.6793
L102.5714 120.8222
" />
<path d="M102.5714 120.8222
L102.7054 120.8936
" />
<path d="M102.7054 120.8936
L102.8482 120.8936
" />
<path d="M103.4196 120.3222
L104.5625 120.3222
" />
<path d="M105.2054 120.8936
L105.3929 119.3936
" />
<path d="M105.3214 119.9650
L105.4732 119.8936
" />
<path d="M105.4732 119.8936
L105.7589 119.8936
" />
<path d="M105.7589 119.8936
L105.8929 119.9650
" />
<path d="M105.8929 119.9650
L105.9554 120.0364
" />
<path d="M105.9554 120.0364
L106.0089 120.1793
" />
<path d="M106.0089 120.1793
L105.9554 120.6079
" />
<path d="M105.9554 120.6079
L105.8661 120.7507
" />
<path d="M105.8661 120.7507
L105.7857 120.8222
" />
<path d="M105.7857 120.8222
L105.6339 120.8936
" />
<path d="M105.6339 120.8936
L105.3482 120.8936
" />
<path d="M105.3482 120.8936
L105.2143 120.8222
" />
<path d="M106.7768 120.8936
L106.6429 120.8222
" />
<path d="M106.6429 120.8222
L106.5804 120.7507
" />
<path d="M106.5804 120.7507
L106.5268 120.6079
" />
<path d="M106.5268 120.6079
L106.5804 120.1793
" />
<path d="M106.5804 120.1793
L106.6696 120.0364
" />
<path d="M106.6696 120.0364
L106.7500 119.9650
" />
<path d="M106.7500 119.9650
L106.9018 119.8936
" />
<path d="M106.9018 119.8936
L107.1161 119.8936
" />
<path d="M107.1161 119.8936
L107.2500 119.9650
" />
<path d="M107.2500 119.9650
L107.3125 120.0364
" />
<path d="M107.3125 120.0364
L107.3661 120.1793
" />
<path d="M107.3661 120.1793
L107.3125 120.6079
" />
<path d="M107.3125 120.6079
L107.2232 120.7507
" />
<path d="M107.2232 120.7507
L107.1429 120.8222
" />
<path d="M107.1429 120.8222
L106.9911 120.8936
" />
<path d="M106.9911 120.8936
L106.7768 120.8936
" />
<path d="M108.5625 120.8936
L108.6607 120.1079
" />
<path d="M108.6607 120.1079
L108.6071 119.9650
" />
<path d="M108.6071 119.9650
L108.4732 119.8936
" />
<path d="M108.4732 119.8936
L108.1875 119.8936
" />
<path d="M108.1875 119.8936
L108.0357 119.9650
" />
<path d="M108.5714 120.8222
L108.4196 120.8936
" />
<path d="M108.4196 120.8936
L108.0625 120.8936
" />
<path d="M108.0625 120.8936
L107.9286 120.8222
" />
<path d="M107.9286 120.8222
L107.8750 120.6793
" />
<path d="M107.8750 120.6793
L107.8929 120.5364
" />
<path d="M107.8929 120.5364
L107.9821 120.3936
" />
<path d="M107.9821 120.3936
L108.1339 120.3222
" />
<path d="M108.1339 120.3222
L108.4911 120.3222
" />
<path d="M108.4911 120.3222
L108.6429 120.2507
" />
<path d="M109.2768 120.8936
L109.4018 119.8936
" />
<path d="M109.3661 120.1793
L109.4554 120.0364
" />
<path d="M109.4554 120.0364
L109.5357 119.9650
" />
<path d="M109.5357 119.9650
L109.6875 119.8936
" />
<path d="M109.6875 119.8936
L109.8304 119.8936
" />
<path d="M110.8482 120.8936
L111.0357 119.3936
" />
<path d="M110.8571 120.8222
L110.7054 120.8936
" />
<path d="M110.7054 120.8936
L110.4196 120.8936
" />
<path d="M110.4196 120.8936
L110.2857 120.8222
" />
<path d="M110.2857 120.8222
L110.2232 120.7507
" />
<path d="M110.2232 120.7507
L110.1696 120.6079
" />
<path d="M110.1696 120.6079
L110.2232 120.1793
" />
<path d="M110.2232 120.1793
L110.3125 120.0364
" />
<path d="M110.3125 120.0364
L110.3929 119.9650
" />
<path d="M110.3929 119.9650
L110.5446 119.8936
" />
<path d="M110.5446 119.8936
L110.8304 119.8936
" />
<path d="M110.8304 119.8936
L110.9643 119.9650
" />
<path d="M111.6339 120.3222
L112.7768 120.3222
" />
<path d="M113.4196 120.8936
L113.5446 119.8936
" />
<path d="M113.5268 120.0364
L113.6071 119.9650
" />
<path d="M113.6071 119.9650
L113.7589 119.8936
" />
<path d="M113.7589 119.8936
L113.9732 119.8936
" />
<path d="M113.9732 119.8936
L114.1071 119.9650
" />
<path d="M114.1071 119.9650
L114.1607 120.1079
" />
<path d="M114.1607 120.1079
L114.0625 120.8936
" />
<path d="M114.1607 120.1079
L114.2500 119.9650
" />
<path d="M114.2500 119.9650
L114.4018 119.8936
" />
<path d="M114.4018 119.8936
L114.6161 119.8936
" />
<path d="M114.6161 119.8936
L114.7500 119.9650
" />
<path d="M114.7500 119.9650
L114.8036 120.1079
" />
<path d="M114.8036 120.1079
L114.7054 120.8936
" />
<path d="M116.0000 120.8222
L115.8482 120.8936
" />
<path d="M115.8482 120.8936
L115.5625 120.8936
" />
<path d="M115.5625 120.8936
L115.4286 120.8222
" />
<path d="M115.4286 120.8222
L115.3750 120.6793
" />
<path d="M115.3750 120.6793
L115.4464 120.1079
" />
<path d="M115.4464 120.1079
L115.5357 119.9650
" />
<path d="M115.5357 119.9650
L115.6875 119.8936
" />
<path d="M115.6875 119.8936
L115.9732 119.8936
" />
<path d="M115.9732 119.8936
L116.1071 119.9650
" />
<path d="M116.1071 119.9650
L116.1607 120.1079
" />
<path d="M116.1607 120.1079
L116.1429 120.2507
" />
<path d="M116.1429 120.2507
L115.4107 120.3936
" />
<path d="M117.3571 120.8222
L117.2054 120.8936
" />
<path d="M117.2054 120.8936
L116.9196 120.8936
" />
<path d="M116.9196 120.8936
L116.7857 120.8222
" />
<path d="M116.7857 120.8222
L116.7232 120.7507
" />
<path d="M116.7232 120.7507
L116.6696 120.6079
" />
<path d="M116.6696 120.6079
L116.7232 120.1793
" />
<path d="M116.7232 120.1793
L116.8125 120.0364
" />
<path d="M116.8125 120.0364
L116.8929 119.9650
" />
<path d="M116.8929 119.9650
L117.0446 119.8936
" />
<path d="M117.0446 119.8936
L117.3304 119.8936
" />
<path d="M117.3304 119.8936
L117.4643 119.9650
" />
<path d="M117.9911 120.8936
L118.1786 119.3936
" />
<path d="M118.6339 120.8936
L118.7321 120.1079
" />
<path d="M118.7321 120.1079
L118.6786 119.9650
" />
<path d="M118.6786 119.9650
L118.5446 119.8936
" />
<path d="M118.5446 119.8936
L118.3304 119.8936
" />
<path d="M118.3304 119.8936
L118.1786 119.9650
" />
<path d="M118.1786 119.9650
L118.0982 120.0364
" />
<path d="M119.9911 120.8936
L120.0893 120.1079
" />
<path d="M120.0893 120.1079
L120.0357 119.9650
" />
<path d="M120.0357 119.9650
L119.9018 119.8936
" />
<path d="M119.9018 119.8936
L119.6161 119.8936
" />
<path d="M119.6161 119.8936
L119.4643 119.9650
" />
<path d="M120.0000 120.8222
L119.8482 120.8936
" />
<path d="M119.8482 120.8936
L119.4911 120.8936
" />
<path d="M119.4911 120.8936
L119.3571 120.8222
" />
<path d="M119.3571 120.8222
L119.3036 120.6793
" />
<path d="M119.3036 120.6793
L119.3214 120.5364
" />
<path d="M119.3214 120.5364
L119.4107 120.3936
" />
<path d="M119.4107 120.3936
L119.5625 120.3222
" />
<path d="M119.5625 120.3222
L119.9196 120.3222
" />
<path d="M119.9196 120.3222
L120.0714 120.2507
" />
<path d="M120.8304 119.8936
L120.7054 120.8936
" />
<path d="M120.8125 120.0364
L120.8929 119.9650
" />
<path d="M120.8929 119.9650
L121.0446 119.8936
" />
<path d="M121.0446 119.8936
L121.2589 119.8936
" />
<path d="M121.2589 119.8936
L121.3929 119.9650
" />
<path d="M121.3929 119.9650
L121.4464 120.1079
" />
<path d="M121.4464 120.1079
L121.3482 120.8936
" />
<path d="M122.0625 120.8936
L122.1875 119.8936
" />
<path d="M122.2500 119.3936
L122.1696 119.4650
" />
<path d="M122.1696 119.4650
L122.2321 119.5364
" />
<path d="M122.2321 119.5364
L122.3125 119.4650
" />
<path d="M122.3125 119.4650
L122.2500 119.3936
" />
<path d="M122.2500 119.3936
L122.2321 119.5364
" />
<path d="M123.4286 120.8222
L123.2768 120.8936
" />
<path d="M123.2768 120.8936
L122.9911 120.8936
" />
<path d="M122.9911 120.8936
L122.8571 120.8222
" />
<path d="M122.8571 120.8222
L122.7946 120.7507
" />
<path d="M122.7946 120.7507
L122.7411 120.6079
" />
<path d="M122.7411 120.6079
L122.7946 120.1793
" />
<path d="M122.7946 120.1793
L122.8839 120.0364
" />
<path d="M122.8839 120.0364
L122.9643 119.9650
" />
<path d="M122.9643 119.9650
L123.1161 119.8936
" />
<path d="M123.1161 119.8936
L123.4018 119.8936
" />
<path d="M123.4018 119.8936
L123.5357 119.9650
" />
<path d="M124.7054 120.8936
L124.8036 120.1079
" />
<path d="M124.8036 120.1079
L124.7500 119.9650
" />
<path d="M124.7500 119.9650
L124.6161 119.8936
" />
<path d="M124.6161 119.8936
L124.3304 119.8936
" />
<path d="M124.3304 119.8936
L124.1786 119.9650
" />
<path d="M124.7143 120.8222
L124.5625 120.8936
" />
<path d="M124.5625 120.8936
L124.2054 120.8936
" />
<path d="M124.2054 120.8936
L124.0714 120.8222
" />
<path d="M124.0714 120.8222
L124.0179 120.6793
" />
<path d="M124.0179 120.6793
L124.0357 120.5364
" />
<path d="M124.0357 120.5364
L124.1250 120.3936
" />
<path d="M124.1250 120.3936
L124.2768 120.3222
" />
<path d="M124.2768 120.3222
L124.6339 120.3222
" />
<path d="M124.6339 120.3222
L124.7857 120.2507
" />
<path d="M125.6339 120.8936
L125.5000 120.8222
" />
<path d="M125.5000 120.8222
L125.4464 120.6793
" />
<path d="M125.4464 120.6793
L125.6071 119.3936
" />
<path d="M126.2232 120.7507
L126.2857 120.8222
" />
<path d="M126.2857 120.8222
L126.2054 120.8936
" />
<path d="M126.2054 120.8936
L126.1429 120.8222
" />
<path d="M126.1429 120.8222
L126.2232 120.7507
" />
<path d="M126.2232 120.7507
L126.2054 120.8936
" />
<path d="M127.0446 119.8936
L126.8571 121.3936
" />
<path d="M127.0357 119.9650
L127.1875 119.8936
" />
<path d="M127.1875 119.8936
L127.4732 119.8936
" />
<path d="M127.4732 119.8936
L127.6071 119.9650
" />
<path d="M127.6071 119.9650
L127.6696 120.0364
" />
<path d="M127.6696 120.0364
L127.7232 120.1793
" />
<path d="M127.7232 120.1793
L127.6696 120.6079
" />
<path d="M127.6696 120.6079
L127.5804 120.7507
" />
<path d="M127.5804 120.7507
L127.5000 120.8222
" />
<path d="M127.5000 120.8222
L127.3482 120.8936
" />
<path d="M127.3482 120.8936
L127.0625 120.8936
" />
<path d="M127.0625 120.8936
L126.9286 120.8222
" />
<path d="M128.9196 120.8936
L129.1071 119.3936
" />
<path d="M128.9286 120.8222
L128.7768 120.8936
" />
<path d="M128.7768 120.8936
L128.4911 120.8936
" />
<path d="M128.4911 120.8936
L128.3571 120.8222
" />
<path d="M128.3571 120.8222
L128.2946 120.7507
" />
<path d="M128.2946 120.7507
L128.2411 120.6079
" />
<path d="M128.2411 120.6079
L128.2946 120.1793
" />
<path d="M128.2946 120.1793
L128.3839 120.0364
" />
<path d="M128.3839 120.0364
L128.4643 119.9650
" />
<path d="M128.4643 119.9650
L128.6161 119.8936
" />
<path d="M128.6161 119.8936
L128.9018 119.8936
" />
<path d="M128.9018 119.8936
L129.0357 119.9650
" />
<path d="M129.5446 119.8936
L130.1161 119.8936
" />
<path d="M129.6339 120.8936
L129.7946 119.6079
" />
<path d="M129.7946 119.6079
L129.8839 119.4650
" />
<path d="M129.8839 119.4650
L130.0357 119.3936
" />
<path d="M130.0357 119.3936
L130.1786 119.3936
" />
</g></g> 
</svg>
