M48
; DRILL file {KiCad 7.0.9-7.0.9~ubuntu23.04.1} date Wed Dec 27 19:17:46 2023
; FORMAT={-:-/ absolute / metric / decimal}
; #@! TF.CreationDate,2023-12-27T19:17:46+00:00
; #@! TF.GenerationSoftware,Kicad,Pcbnew,7.0.9-7.0.9~ubuntu23.04.1
; #@! TF.FileFunction,MixedPlating,1,2
FMAT,2
METRIC
; #@! TA.AperFunction,Plated,PTH,ComponentDrill
T1C0.300
; #@! TA.AperFunction,Plated,PTH,ViaDrill
T2C0.400
; #@! TA.AperFunction,Plated,PTH,ViaDrill
T3C0.600
; #@! TA.AperFunction,Plated,PTH,ComponentDrill
T4C1.000
; #@! TA.AperFunction,Plated,PTH,ComponentDrill
T5C1.016
; #@! TA.AperFunction,NonPlated,NPTH,ComponentDrill
T6C2.750
%
G90
G05
T1
X44.45Y18.023
X44.45Y17.156
X44.45Y16.29
X44.45Y15.423
X45.317Y18.023
X45.317Y17.156
X45.317Y16.29
X45.317Y15.423
X46.183Y18.023
X46.183Y17.156
X46.183Y16.29
X46.183Y15.423
X47.05Y18.023
X47.05Y17.156
X47.05Y16.29
X47.05Y15.423
T2
X9.6Y11.04
X10.92Y31.51
X11.6Y11.08
X12.275Y30.25
X12.42Y48.209
X12.844Y31.881
X15.42Y28.82
X15.81Y34.86
X16.42Y28.11
X17.345Y27.755
X17.79Y34.8
X19.851Y32.35
X22.97Y10.97
X23.12Y22.4
X23.21Y33.69
X23.21Y30.15
X24.97Y10.96
X25.27Y34.03
X27.15Y24.99
X28.12Y22.97
X33.63Y23.03
X34.03Y35.81
X34.125Y30.925
X34.13Y25.89
X34.34Y47.35
X35.74Y36.14
X36.88Y48.53
X38.53Y30.9
X38.62Y44.06
X39.088Y26.965
X39.2Y12.11
X39.2Y10.17
X39.3Y24.02
X39.74Y26.31
X40.27Y35.9
X40.95Y19.63
X42.28Y16.82
X42.34Y30.96
X42.65Y47.9
X42.93Y14.51
X43.401Y19.811
X44.0Y11.43
X44.0Y8.17
X44.06Y22.61
X45.97Y8.21
X48.31Y8.27
X51.44Y45.72
X52.25Y22.01
X52.25Y20.06
X52.25Y18.09
X52.4Y28.54
X53.96Y23.52
X54.03Y9.08
X55.94Y23.52
X56.0Y9.13
T3
X7.595Y48.965
X19.9Y37.05
X21.049Y43.05
X28.33Y32.77
X32.22Y28.83
X38.47Y28.83
X49.235Y29.175
T4
X14.84Y17.46
X14.84Y14.92
X17.38Y17.46
X17.38Y14.92
X19.92Y17.46
X19.92Y14.92
X59.15Y19.1
X59.15Y16.56
X59.15Y14.02
X61.69Y19.1
X61.69Y16.56
X61.69Y14.02
T5
X8.37Y53.77
X8.37Y51.23
X10.91Y53.77
X10.91Y51.23
X13.45Y53.77
X13.45Y51.23
X15.99Y53.77
X15.99Y51.23
X18.53Y53.77
X18.53Y51.23
X21.07Y53.77
X21.07Y51.23
X23.61Y53.77
X23.61Y51.23
X26.15Y53.77
X26.15Y51.23
X28.69Y53.77
X28.69Y51.23
X31.23Y53.77
X31.23Y51.23
X33.77Y53.77
X33.77Y51.23
X36.31Y53.77
X36.31Y51.23
X38.85Y53.77
X38.85Y51.23
X41.39Y53.77
X41.39Y51.23
X43.93Y53.77
X43.93Y51.23
X46.47Y53.77
X46.47Y51.23
X49.01Y53.77
X49.01Y51.23
X51.55Y53.77
X51.55Y51.23
X54.09Y53.77
X54.09Y51.23
X56.63Y53.77
X56.63Y51.23
T6
X3.5Y52.5
X3.5Y3.5
X61.5Y52.5
X61.5Y3.5
T0
M30
