G04 #@! TF.GenerationSoftware,KiCad,Pcbnew,9.0.1*
G04 #@! TF.CreationDate,2025-04-21T13:17:34+00:00*
G04 #@! TF.ProjectId,pedalboard-soundcard,70656461-6c62-46f6-9172-642d736f756e,1.0.1-RC*
G04 #@! TF.SameCoordinates,Original*
G04 #@! TF.FileFunction,Profile,NP*
%FSLAX46Y46*%
G04 Gerber Fmt 4.6, Leading zero omitted, Abs format (unit mm)*
G04 Created by KiCad (PCBNEW 9.0.1) date 2025-04-21 13:17:34*
%MOMM*%
%LPD*%
G01*
G04 APERTURE LIST*
G04 #@! TA.AperFunction,Profile*
%ADD10C,0.100000*%
G04 #@! TD*
G04 #@! TA.AperFunction,Profile*
%ADD11C,0.120000*%
G04 #@! TD*
G04 APERTURE END LIST*
D10*
X3000000Y0D02*
G75*
G02*
X0Y3000000I0J3000000D01*
G01*
X65000000Y3000000D02*
G75*
G02*
X62000000Y0I-3000000J0D01*
G01*
X1000000Y36500000D02*
G75*
G02*
X0Y37500000I0J1000000D01*
G01*
X4000000Y36500000D02*
G75*
G02*
X5000000Y35500000I0J-1000000D01*
G01*
X5000000Y20500000D02*
G75*
G02*
X4000000Y19500000I-1000000J0D01*
G01*
X0Y18500000D02*
G75*
G02*
X1000000Y19500000I1000000J0D01*
G01*
X0Y53000000D02*
G75*
G02*
X3000000Y56000000I3000000J0D01*
G01*
X3000000Y56000000D02*
X62000000Y56000000D01*
X62000000Y56000000D02*
G75*
G02*
X65000000Y53000000I0J-3000000D01*
G01*
X23940000Y0D02*
X30100000Y0D01*
X0Y53000000D02*
X0Y37500000D01*
X5000000Y35500000D02*
X5000000Y20500000D01*
X1000000Y36500000D02*
X4000000Y36500000D01*
X0Y18500000D02*
X0Y3000000D01*
X3000000Y0D02*
X10940000Y0D01*
X43100000Y0D02*
X62000000Y0D01*
X65000000Y53000000D02*
X65000000Y3000000D01*
X1000000Y19500000D02*
X4000000Y19500000D01*
D11*
X15240000Y1000000D02*
X15240000Y0D01*
X15240000Y0D02*
X10940000Y0D01*
X19240000Y1400000D02*
X15640000Y1400000D01*
X19640000Y1000000D02*
X19640000Y0D01*
X19640000Y0D02*
X23940000Y0D01*
X15240000Y1000000D02*
G75*
G02*
X15640000Y1400000I400002J-2D01*
G01*
X19240000Y1400000D02*
G75*
G02*
X19640000Y1000000I0J-400000D01*
G01*
X34400000Y1000000D02*
X34400000Y0D01*
X34400000Y0D02*
X30100000Y0D01*
X38400000Y1400000D02*
X34800000Y1400000D01*
X38800000Y1000000D02*
X38800000Y0D01*
X38800000Y0D02*
X43100000Y0D01*
X34400000Y1000000D02*
G75*
G02*
X34800000Y1400000I400002J-2D01*
G01*
X38400000Y1400000D02*
G75*
G02*
X38800000Y1000000I0J-400000D01*
G01*
M02*
