G04 #@! TF.GenerationSoftware,KiCad,Pcbnew,7.0.9-7.0.9~ubuntu23.04.1*
G04 #@! TF.CreationDate,2023-12-27T20:23:14+00:00*
G04 #@! TF.ProjectId,pedalboard-soundcard,70656461-6c62-46f6-9172-642d736f756e,0.0.1*
G04 #@! TF.SameCoordinates,Original*
G04 #@! TF.FileFunction,Legend,Top*
G04 #@! TF.FilePolarity,Positive*
%FSLAX46Y46*%
G04 Gerber Fmt 4.6, Leading zero omitted, Abs format (unit mm)*
G04 Created by KiCad (PCBNEW 7.0.9-7.0.9~ubuntu23.04.1) date 2023-12-27 20:23:14*
%MOMM*%
%LPD*%
G01*
G04 APERTURE LIST*
%ADD10C,0.150000*%
%ADD11C,0.120000*%
%ADD12C,0.010000*%
G04 APERTURE END LIST*
D10*
X42806074Y43350181D02*
X42996550Y43350181D01*
X42996550Y43350181D02*
X43091788Y43302562D01*
X43091788Y43302562D02*
X43187026Y43207324D01*
X43187026Y43207324D02*
X43234645Y43016848D01*
X43234645Y43016848D02*
X43234645Y42683515D01*
X43234645Y42683515D02*
X43187026Y42493039D01*
X43187026Y42493039D02*
X43091788Y42397800D01*
X43091788Y42397800D02*
X42996550Y42350181D01*
X42996550Y42350181D02*
X42806074Y42350181D01*
X42806074Y42350181D02*
X42710836Y42397800D01*
X42710836Y42397800D02*
X42615598Y42493039D01*
X42615598Y42493039D02*
X42567979Y42683515D01*
X42567979Y42683515D02*
X42567979Y43016848D01*
X42567979Y43016848D02*
X42615598Y43207324D01*
X42615598Y43207324D02*
X42710836Y43302562D01*
X42710836Y43302562D02*
X42806074Y43350181D01*
X43663217Y43016848D02*
X43663217Y42016848D01*
X43663217Y42969229D02*
X43758455Y43016848D01*
X43758455Y43016848D02*
X43948931Y43016848D01*
X43948931Y43016848D02*
X44044169Y42969229D01*
X44044169Y42969229D02*
X44091788Y42921610D01*
X44091788Y42921610D02*
X44139407Y42826372D01*
X44139407Y42826372D02*
X44139407Y42540658D01*
X44139407Y42540658D02*
X44091788Y42445420D01*
X44091788Y42445420D02*
X44044169Y42397800D01*
X44044169Y42397800D02*
X43948931Y42350181D01*
X43948931Y42350181D02*
X43758455Y42350181D01*
X43758455Y42350181D02*
X43663217Y42397800D01*
X44948931Y42397800D02*
X44853693Y42350181D01*
X44853693Y42350181D02*
X44663217Y42350181D01*
X44663217Y42350181D02*
X44567979Y42397800D01*
X44567979Y42397800D02*
X44520360Y42493039D01*
X44520360Y42493039D02*
X44520360Y42873991D01*
X44520360Y42873991D02*
X44567979Y42969229D01*
X44567979Y42969229D02*
X44663217Y43016848D01*
X44663217Y43016848D02*
X44853693Y43016848D01*
X44853693Y43016848D02*
X44948931Y42969229D01*
X44948931Y42969229D02*
X44996550Y42873991D01*
X44996550Y42873991D02*
X44996550Y42778753D01*
X44996550Y42778753D02*
X44520360Y42683515D01*
X45425122Y43016848D02*
X45425122Y42350181D01*
X45425122Y42921610D02*
X45472741Y42969229D01*
X45472741Y42969229D02*
X45567979Y43016848D01*
X45567979Y43016848D02*
X45710836Y43016848D01*
X45710836Y43016848D02*
X45806074Y42969229D01*
X45806074Y42969229D02*
X45853693Y42873991D01*
X45853693Y42873991D02*
X45853693Y42350181D01*
X47091789Y42350181D02*
X47091789Y43350181D01*
X47091789Y43350181D02*
X47472741Y43350181D01*
X47472741Y43350181D02*
X47567979Y43302562D01*
X47567979Y43302562D02*
X47615598Y43254943D01*
X47615598Y43254943D02*
X47663217Y43159705D01*
X47663217Y43159705D02*
X47663217Y43016848D01*
X47663217Y43016848D02*
X47615598Y42921610D01*
X47615598Y42921610D02*
X47567979Y42873991D01*
X47567979Y42873991D02*
X47472741Y42826372D01*
X47472741Y42826372D02*
X47091789Y42826372D01*
X48472741Y42397800D02*
X48377503Y42350181D01*
X48377503Y42350181D02*
X48187027Y42350181D01*
X48187027Y42350181D02*
X48091789Y42397800D01*
X48091789Y42397800D02*
X48044170Y42493039D01*
X48044170Y42493039D02*
X48044170Y42873991D01*
X48044170Y42873991D02*
X48091789Y42969229D01*
X48091789Y42969229D02*
X48187027Y43016848D01*
X48187027Y43016848D02*
X48377503Y43016848D01*
X48377503Y43016848D02*
X48472741Y42969229D01*
X48472741Y42969229D02*
X48520360Y42873991D01*
X48520360Y42873991D02*
X48520360Y42778753D01*
X48520360Y42778753D02*
X48044170Y42683515D01*
X49377503Y42350181D02*
X49377503Y43350181D01*
X49377503Y42397800D02*
X49282265Y42350181D01*
X49282265Y42350181D02*
X49091789Y42350181D01*
X49091789Y42350181D02*
X48996551Y42397800D01*
X48996551Y42397800D02*
X48948932Y42445420D01*
X48948932Y42445420D02*
X48901313Y42540658D01*
X48901313Y42540658D02*
X48901313Y42826372D01*
X48901313Y42826372D02*
X48948932Y42921610D01*
X48948932Y42921610D02*
X48996551Y42969229D01*
X48996551Y42969229D02*
X49091789Y43016848D01*
X49091789Y43016848D02*
X49282265Y43016848D01*
X49282265Y43016848D02*
X49377503Y42969229D01*
X50282265Y42350181D02*
X50282265Y42873991D01*
X50282265Y42873991D02*
X50234646Y42969229D01*
X50234646Y42969229D02*
X50139408Y43016848D01*
X50139408Y43016848D02*
X49948932Y43016848D01*
X49948932Y43016848D02*
X49853694Y42969229D01*
X50282265Y42397800D02*
X50187027Y42350181D01*
X50187027Y42350181D02*
X49948932Y42350181D01*
X49948932Y42350181D02*
X49853694Y42397800D01*
X49853694Y42397800D02*
X49806075Y42493039D01*
X49806075Y42493039D02*
X49806075Y42588277D01*
X49806075Y42588277D02*
X49853694Y42683515D01*
X49853694Y42683515D02*
X49948932Y42731134D01*
X49948932Y42731134D02*
X50187027Y42731134D01*
X50187027Y42731134D02*
X50282265Y42778753D01*
X50901313Y42350181D02*
X50806075Y42397800D01*
X50806075Y42397800D02*
X50758456Y42493039D01*
X50758456Y42493039D02*
X50758456Y43350181D01*
X51282266Y42350181D02*
X51282266Y43350181D01*
X51282266Y42969229D02*
X51377504Y43016848D01*
X51377504Y43016848D02*
X51567980Y43016848D01*
X51567980Y43016848D02*
X51663218Y42969229D01*
X51663218Y42969229D02*
X51710837Y42921610D01*
X51710837Y42921610D02*
X51758456Y42826372D01*
X51758456Y42826372D02*
X51758456Y42540658D01*
X51758456Y42540658D02*
X51710837Y42445420D01*
X51710837Y42445420D02*
X51663218Y42397800D01*
X51663218Y42397800D02*
X51567980Y42350181D01*
X51567980Y42350181D02*
X51377504Y42350181D01*
X51377504Y42350181D02*
X51282266Y42397800D01*
X52329885Y42350181D02*
X52234647Y42397800D01*
X52234647Y42397800D02*
X52187028Y42445420D01*
X52187028Y42445420D02*
X52139409Y42540658D01*
X52139409Y42540658D02*
X52139409Y42826372D01*
X52139409Y42826372D02*
X52187028Y42921610D01*
X52187028Y42921610D02*
X52234647Y42969229D01*
X52234647Y42969229D02*
X52329885Y43016848D01*
X52329885Y43016848D02*
X52472742Y43016848D01*
X52472742Y43016848D02*
X52567980Y42969229D01*
X52567980Y42969229D02*
X52615599Y42921610D01*
X52615599Y42921610D02*
X52663218Y42826372D01*
X52663218Y42826372D02*
X52663218Y42540658D01*
X52663218Y42540658D02*
X52615599Y42445420D01*
X52615599Y42445420D02*
X52567980Y42397800D01*
X52567980Y42397800D02*
X52472742Y42350181D01*
X52472742Y42350181D02*
X52329885Y42350181D01*
X53520361Y42350181D02*
X53520361Y42873991D01*
X53520361Y42873991D02*
X53472742Y42969229D01*
X53472742Y42969229D02*
X53377504Y43016848D01*
X53377504Y43016848D02*
X53187028Y43016848D01*
X53187028Y43016848D02*
X53091790Y42969229D01*
X53520361Y42397800D02*
X53425123Y42350181D01*
X53425123Y42350181D02*
X53187028Y42350181D01*
X53187028Y42350181D02*
X53091790Y42397800D01*
X53091790Y42397800D02*
X53044171Y42493039D01*
X53044171Y42493039D02*
X53044171Y42588277D01*
X53044171Y42588277D02*
X53091790Y42683515D01*
X53091790Y42683515D02*
X53187028Y42731134D01*
X53187028Y42731134D02*
X53425123Y42731134D01*
X53425123Y42731134D02*
X53520361Y42778753D01*
X53996552Y42350181D02*
X53996552Y43016848D01*
X53996552Y42826372D02*
X54044171Y42921610D01*
X54044171Y42921610D02*
X54091790Y42969229D01*
X54091790Y42969229D02*
X54187028Y43016848D01*
X54187028Y43016848D02*
X54282266Y43016848D01*
X55044171Y42350181D02*
X55044171Y43350181D01*
X55044171Y42397800D02*
X54948933Y42350181D01*
X54948933Y42350181D02*
X54758457Y42350181D01*
X54758457Y42350181D02*
X54663219Y42397800D01*
X54663219Y42397800D02*
X54615600Y42445420D01*
X54615600Y42445420D02*
X54567981Y42540658D01*
X54567981Y42540658D02*
X54567981Y42826372D01*
X54567981Y42826372D02*
X54615600Y42921610D01*
X54615600Y42921610D02*
X54663219Y42969229D01*
X54663219Y42969229D02*
X54758457Y43016848D01*
X54758457Y43016848D02*
X54948933Y43016848D01*
X54948933Y43016848D02*
X55044171Y42969229D01*
X56234648Y42397800D02*
X56377505Y42350181D01*
X56377505Y42350181D02*
X56615600Y42350181D01*
X56615600Y42350181D02*
X56710838Y42397800D01*
X56710838Y42397800D02*
X56758457Y42445420D01*
X56758457Y42445420D02*
X56806076Y42540658D01*
X56806076Y42540658D02*
X56806076Y42635896D01*
X56806076Y42635896D02*
X56758457Y42731134D01*
X56758457Y42731134D02*
X56710838Y42778753D01*
X56710838Y42778753D02*
X56615600Y42826372D01*
X56615600Y42826372D02*
X56425124Y42873991D01*
X56425124Y42873991D02*
X56329886Y42921610D01*
X56329886Y42921610D02*
X56282267Y42969229D01*
X56282267Y42969229D02*
X56234648Y43064467D01*
X56234648Y43064467D02*
X56234648Y43159705D01*
X56234648Y43159705D02*
X56282267Y43254943D01*
X56282267Y43254943D02*
X56329886Y43302562D01*
X56329886Y43302562D02*
X56425124Y43350181D01*
X56425124Y43350181D02*
X56663219Y43350181D01*
X56663219Y43350181D02*
X56806076Y43302562D01*
X57377505Y42350181D02*
X57282267Y42397800D01*
X57282267Y42397800D02*
X57234648Y42445420D01*
X57234648Y42445420D02*
X57187029Y42540658D01*
X57187029Y42540658D02*
X57187029Y42826372D01*
X57187029Y42826372D02*
X57234648Y42921610D01*
X57234648Y42921610D02*
X57282267Y42969229D01*
X57282267Y42969229D02*
X57377505Y43016848D01*
X57377505Y43016848D02*
X57520362Y43016848D01*
X57520362Y43016848D02*
X57615600Y42969229D01*
X57615600Y42969229D02*
X57663219Y42921610D01*
X57663219Y42921610D02*
X57710838Y42826372D01*
X57710838Y42826372D02*
X57710838Y42540658D01*
X57710838Y42540658D02*
X57663219Y42445420D01*
X57663219Y42445420D02*
X57615600Y42397800D01*
X57615600Y42397800D02*
X57520362Y42350181D01*
X57520362Y42350181D02*
X57377505Y42350181D01*
X58567981Y43016848D02*
X58567981Y42350181D01*
X58139410Y43016848D02*
X58139410Y42493039D01*
X58139410Y42493039D02*
X58187029Y42397800D01*
X58187029Y42397800D02*
X58282267Y42350181D01*
X58282267Y42350181D02*
X58425124Y42350181D01*
X58425124Y42350181D02*
X58520362Y42397800D01*
X58520362Y42397800D02*
X58567981Y42445420D01*
X59044172Y43016848D02*
X59044172Y42350181D01*
X59044172Y42921610D02*
X59091791Y42969229D01*
X59091791Y42969229D02*
X59187029Y43016848D01*
X59187029Y43016848D02*
X59329886Y43016848D01*
X59329886Y43016848D02*
X59425124Y42969229D01*
X59425124Y42969229D02*
X59472743Y42873991D01*
X59472743Y42873991D02*
X59472743Y42350181D01*
X60377505Y42350181D02*
X60377505Y43350181D01*
X60377505Y42397800D02*
X60282267Y42350181D01*
X60282267Y42350181D02*
X60091791Y42350181D01*
X60091791Y42350181D02*
X59996553Y42397800D01*
X59996553Y42397800D02*
X59948934Y42445420D01*
X59948934Y42445420D02*
X59901315Y42540658D01*
X59901315Y42540658D02*
X59901315Y42826372D01*
X59901315Y42826372D02*
X59948934Y42921610D01*
X59948934Y42921610D02*
X59996553Y42969229D01*
X59996553Y42969229D02*
X60091791Y43016848D01*
X60091791Y43016848D02*
X60282267Y43016848D01*
X60282267Y43016848D02*
X60377505Y42969229D01*
X61282267Y42397800D02*
X61187029Y42350181D01*
X61187029Y42350181D02*
X60996553Y42350181D01*
X60996553Y42350181D02*
X60901315Y42397800D01*
X60901315Y42397800D02*
X60853696Y42445420D01*
X60853696Y42445420D02*
X60806077Y42540658D01*
X60806077Y42540658D02*
X60806077Y42826372D01*
X60806077Y42826372D02*
X60853696Y42921610D01*
X60853696Y42921610D02*
X60901315Y42969229D01*
X60901315Y42969229D02*
X60996553Y43016848D01*
X60996553Y43016848D02*
X61187029Y43016848D01*
X61187029Y43016848D02*
X61282267Y42969229D01*
X62139410Y42350181D02*
X62139410Y42873991D01*
X62139410Y42873991D02*
X62091791Y42969229D01*
X62091791Y42969229D02*
X61996553Y43016848D01*
X61996553Y43016848D02*
X61806077Y43016848D01*
X61806077Y43016848D02*
X61710839Y42969229D01*
X62139410Y42397800D02*
X62044172Y42350181D01*
X62044172Y42350181D02*
X61806077Y42350181D01*
X61806077Y42350181D02*
X61710839Y42397800D01*
X61710839Y42397800D02*
X61663220Y42493039D01*
X61663220Y42493039D02*
X61663220Y42588277D01*
X61663220Y42588277D02*
X61710839Y42683515D01*
X61710839Y42683515D02*
X61806077Y42731134D01*
X61806077Y42731134D02*
X62044172Y42731134D01*
X62044172Y42731134D02*
X62139410Y42778753D01*
X62615601Y42350181D02*
X62615601Y43016848D01*
X62615601Y42826372D02*
X62663220Y42921610D01*
X62663220Y42921610D02*
X62710839Y42969229D01*
X62710839Y42969229D02*
X62806077Y43016848D01*
X62806077Y43016848D02*
X62901315Y43016848D01*
X63663220Y42350181D02*
X63663220Y43350181D01*
X63663220Y42397800D02*
X63567982Y42350181D01*
X63567982Y42350181D02*
X63377506Y42350181D01*
X63377506Y42350181D02*
X63282268Y42397800D01*
X63282268Y42397800D02*
X63234649Y42445420D01*
X63234649Y42445420D02*
X63187030Y42540658D01*
X63187030Y42540658D02*
X63187030Y42826372D01*
X63187030Y42826372D02*
X63234649Y42921610D01*
X63234649Y42921610D02*
X63282268Y42969229D01*
X63282268Y42969229D02*
X63377506Y43016848D01*
X63377506Y43016848D02*
X63567982Y43016848D01*
X63567982Y43016848D02*
X63663220Y42969229D01*
X46948933Y41406848D02*
X46948933Y40597324D01*
X46948933Y40597324D02*
X46901314Y40502086D01*
X46901314Y40502086D02*
X46853695Y40454467D01*
X46853695Y40454467D02*
X46758457Y40406848D01*
X46758457Y40406848D02*
X46615600Y40406848D01*
X46615600Y40406848D02*
X46520362Y40454467D01*
X46948933Y40787800D02*
X46853695Y40740181D01*
X46853695Y40740181D02*
X46663219Y40740181D01*
X46663219Y40740181D02*
X46567981Y40787800D01*
X46567981Y40787800D02*
X46520362Y40835420D01*
X46520362Y40835420D02*
X46472743Y40930658D01*
X46472743Y40930658D02*
X46472743Y41216372D01*
X46472743Y41216372D02*
X46520362Y41311610D01*
X46520362Y41311610D02*
X46567981Y41359229D01*
X46567981Y41359229D02*
X46663219Y41406848D01*
X46663219Y41406848D02*
X46853695Y41406848D01*
X46853695Y41406848D02*
X46948933Y41359229D01*
X47425124Y40740181D02*
X47425124Y41406848D01*
X47425124Y41740181D02*
X47377505Y41692562D01*
X47377505Y41692562D02*
X47425124Y41644943D01*
X47425124Y41644943D02*
X47472743Y41692562D01*
X47472743Y41692562D02*
X47425124Y41740181D01*
X47425124Y41740181D02*
X47425124Y41644943D01*
X47758457Y41406848D02*
X48139409Y41406848D01*
X47901314Y41740181D02*
X47901314Y40883039D01*
X47901314Y40883039D02*
X47948933Y40787800D01*
X47948933Y40787800D02*
X48044171Y40740181D01*
X48044171Y40740181D02*
X48139409Y40740181D01*
X48472743Y40740181D02*
X48472743Y41740181D01*
X48901314Y40740181D02*
X48901314Y41263991D01*
X48901314Y41263991D02*
X48853695Y41359229D01*
X48853695Y41359229D02*
X48758457Y41406848D01*
X48758457Y41406848D02*
X48615600Y41406848D01*
X48615600Y41406848D02*
X48520362Y41359229D01*
X48520362Y41359229D02*
X48472743Y41311610D01*
X49806076Y41406848D02*
X49806076Y40740181D01*
X49377505Y41406848D02*
X49377505Y40883039D01*
X49377505Y40883039D02*
X49425124Y40787800D01*
X49425124Y40787800D02*
X49520362Y40740181D01*
X49520362Y40740181D02*
X49663219Y40740181D01*
X49663219Y40740181D02*
X49758457Y40787800D01*
X49758457Y40787800D02*
X49806076Y40835420D01*
X50282267Y40740181D02*
X50282267Y41740181D01*
X50282267Y41359229D02*
X50377505Y41406848D01*
X50377505Y41406848D02*
X50567981Y41406848D01*
X50567981Y41406848D02*
X50663219Y41359229D01*
X50663219Y41359229D02*
X50710838Y41311610D01*
X50710838Y41311610D02*
X50758457Y41216372D01*
X50758457Y41216372D02*
X50758457Y40930658D01*
X50758457Y40930658D02*
X50710838Y40835420D01*
X50710838Y40835420D02*
X50663219Y40787800D01*
X50663219Y40787800D02*
X50567981Y40740181D01*
X50567981Y40740181D02*
X50377505Y40740181D01*
X50377505Y40740181D02*
X50282267Y40787800D01*
X51187029Y40835420D02*
X51234648Y40787800D01*
X51234648Y40787800D02*
X51187029Y40740181D01*
X51187029Y40740181D02*
X51139410Y40787800D01*
X51139410Y40787800D02*
X51187029Y40835420D01*
X51187029Y40835420D02*
X51187029Y40740181D01*
X52091790Y40787800D02*
X51996552Y40740181D01*
X51996552Y40740181D02*
X51806076Y40740181D01*
X51806076Y40740181D02*
X51710838Y40787800D01*
X51710838Y40787800D02*
X51663219Y40835420D01*
X51663219Y40835420D02*
X51615600Y40930658D01*
X51615600Y40930658D02*
X51615600Y41216372D01*
X51615600Y41216372D02*
X51663219Y41311610D01*
X51663219Y41311610D02*
X51710838Y41359229D01*
X51710838Y41359229D02*
X51806076Y41406848D01*
X51806076Y41406848D02*
X51996552Y41406848D01*
X51996552Y41406848D02*
X52091790Y41359229D01*
X52663219Y40740181D02*
X52567981Y40787800D01*
X52567981Y40787800D02*
X52520362Y40835420D01*
X52520362Y40835420D02*
X52472743Y40930658D01*
X52472743Y40930658D02*
X52472743Y41216372D01*
X52472743Y41216372D02*
X52520362Y41311610D01*
X52520362Y41311610D02*
X52567981Y41359229D01*
X52567981Y41359229D02*
X52663219Y41406848D01*
X52663219Y41406848D02*
X52806076Y41406848D01*
X52806076Y41406848D02*
X52901314Y41359229D01*
X52901314Y41359229D02*
X52948933Y41311610D01*
X52948933Y41311610D02*
X52996552Y41216372D01*
X52996552Y41216372D02*
X52996552Y40930658D01*
X52996552Y40930658D02*
X52948933Y40835420D01*
X52948933Y40835420D02*
X52901314Y40787800D01*
X52901314Y40787800D02*
X52806076Y40740181D01*
X52806076Y40740181D02*
X52663219Y40740181D01*
X53425124Y40740181D02*
X53425124Y41406848D01*
X53425124Y41311610D02*
X53472743Y41359229D01*
X53472743Y41359229D02*
X53567981Y41406848D01*
X53567981Y41406848D02*
X53710838Y41406848D01*
X53710838Y41406848D02*
X53806076Y41359229D01*
X53806076Y41359229D02*
X53853695Y41263991D01*
X53853695Y41263991D02*
X53853695Y40740181D01*
X53853695Y41263991D02*
X53901314Y41359229D01*
X53901314Y41359229D02*
X53996552Y41406848D01*
X53996552Y41406848D02*
X54139409Y41406848D01*
X54139409Y41406848D02*
X54234648Y41359229D01*
X54234648Y41359229D02*
X54282267Y41263991D01*
X54282267Y41263991D02*
X54282267Y40740181D01*
X55472742Y41787800D02*
X54615600Y40502086D01*
X55806076Y41406848D02*
X55806076Y40406848D01*
X55806076Y41359229D02*
X55901314Y41406848D01*
X55901314Y41406848D02*
X56091790Y41406848D01*
X56091790Y41406848D02*
X56187028Y41359229D01*
X56187028Y41359229D02*
X56234647Y41311610D01*
X56234647Y41311610D02*
X56282266Y41216372D01*
X56282266Y41216372D02*
X56282266Y40930658D01*
X56282266Y40930658D02*
X56234647Y40835420D01*
X56234647Y40835420D02*
X56187028Y40787800D01*
X56187028Y40787800D02*
X56091790Y40740181D01*
X56091790Y40740181D02*
X55901314Y40740181D01*
X55901314Y40740181D02*
X55806076Y40787800D01*
X57091790Y40787800D02*
X56996552Y40740181D01*
X56996552Y40740181D02*
X56806076Y40740181D01*
X56806076Y40740181D02*
X56710838Y40787800D01*
X56710838Y40787800D02*
X56663219Y40883039D01*
X56663219Y40883039D02*
X56663219Y41263991D01*
X56663219Y41263991D02*
X56710838Y41359229D01*
X56710838Y41359229D02*
X56806076Y41406848D01*
X56806076Y41406848D02*
X56996552Y41406848D01*
X56996552Y41406848D02*
X57091790Y41359229D01*
X57091790Y41359229D02*
X57139409Y41263991D01*
X57139409Y41263991D02*
X57139409Y41168753D01*
X57139409Y41168753D02*
X56663219Y41073515D01*
X57996552Y40740181D02*
X57996552Y41740181D01*
X57996552Y40787800D02*
X57901314Y40740181D01*
X57901314Y40740181D02*
X57710838Y40740181D01*
X57710838Y40740181D02*
X57615600Y40787800D01*
X57615600Y40787800D02*
X57567981Y40835420D01*
X57567981Y40835420D02*
X57520362Y40930658D01*
X57520362Y40930658D02*
X57520362Y41216372D01*
X57520362Y41216372D02*
X57567981Y41311610D01*
X57567981Y41311610D02*
X57615600Y41359229D01*
X57615600Y41359229D02*
X57710838Y41406848D01*
X57710838Y41406848D02*
X57901314Y41406848D01*
X57901314Y41406848D02*
X57996552Y41359229D01*
X58901314Y40740181D02*
X58901314Y41263991D01*
X58901314Y41263991D02*
X58853695Y41359229D01*
X58853695Y41359229D02*
X58758457Y41406848D01*
X58758457Y41406848D02*
X58567981Y41406848D01*
X58567981Y41406848D02*
X58472743Y41359229D01*
X58901314Y40787800D02*
X58806076Y40740181D01*
X58806076Y40740181D02*
X58567981Y40740181D01*
X58567981Y40740181D02*
X58472743Y40787800D01*
X58472743Y40787800D02*
X58425124Y40883039D01*
X58425124Y40883039D02*
X58425124Y40978277D01*
X58425124Y40978277D02*
X58472743Y41073515D01*
X58472743Y41073515D02*
X58567981Y41121134D01*
X58567981Y41121134D02*
X58806076Y41121134D01*
X58806076Y41121134D02*
X58901314Y41168753D01*
X59520362Y40740181D02*
X59425124Y40787800D01*
X59425124Y40787800D02*
X59377505Y40883039D01*
X59377505Y40883039D02*
X59377505Y41740181D01*
X59901315Y40740181D02*
X59901315Y41740181D01*
X59901315Y41359229D02*
X59996553Y41406848D01*
X59996553Y41406848D02*
X60187029Y41406848D01*
X60187029Y41406848D02*
X60282267Y41359229D01*
X60282267Y41359229D02*
X60329886Y41311610D01*
X60329886Y41311610D02*
X60377505Y41216372D01*
X60377505Y41216372D02*
X60377505Y40930658D01*
X60377505Y40930658D02*
X60329886Y40835420D01*
X60329886Y40835420D02*
X60282267Y40787800D01*
X60282267Y40787800D02*
X60187029Y40740181D01*
X60187029Y40740181D02*
X59996553Y40740181D01*
X59996553Y40740181D02*
X59901315Y40787800D01*
X60948934Y40740181D02*
X60853696Y40787800D01*
X60853696Y40787800D02*
X60806077Y40835420D01*
X60806077Y40835420D02*
X60758458Y40930658D01*
X60758458Y40930658D02*
X60758458Y41216372D01*
X60758458Y41216372D02*
X60806077Y41311610D01*
X60806077Y41311610D02*
X60853696Y41359229D01*
X60853696Y41359229D02*
X60948934Y41406848D01*
X60948934Y41406848D02*
X61091791Y41406848D01*
X61091791Y41406848D02*
X61187029Y41359229D01*
X61187029Y41359229D02*
X61234648Y41311610D01*
X61234648Y41311610D02*
X61282267Y41216372D01*
X61282267Y41216372D02*
X61282267Y40930658D01*
X61282267Y40930658D02*
X61234648Y40835420D01*
X61234648Y40835420D02*
X61187029Y40787800D01*
X61187029Y40787800D02*
X61091791Y40740181D01*
X61091791Y40740181D02*
X60948934Y40740181D01*
X62139410Y40740181D02*
X62139410Y41263991D01*
X62139410Y41263991D02*
X62091791Y41359229D01*
X62091791Y41359229D02*
X61996553Y41406848D01*
X61996553Y41406848D02*
X61806077Y41406848D01*
X61806077Y41406848D02*
X61710839Y41359229D01*
X62139410Y40787800D02*
X62044172Y40740181D01*
X62044172Y40740181D02*
X61806077Y40740181D01*
X61806077Y40740181D02*
X61710839Y40787800D01*
X61710839Y40787800D02*
X61663220Y40883039D01*
X61663220Y40883039D02*
X61663220Y40978277D01*
X61663220Y40978277D02*
X61710839Y41073515D01*
X61710839Y41073515D02*
X61806077Y41121134D01*
X61806077Y41121134D02*
X62044172Y41121134D01*
X62044172Y41121134D02*
X62139410Y41168753D01*
X62615601Y40740181D02*
X62615601Y41406848D01*
X62615601Y41216372D02*
X62663220Y41311610D01*
X62663220Y41311610D02*
X62710839Y41359229D01*
X62710839Y41359229D02*
X62806077Y41406848D01*
X62806077Y41406848D02*
X62901315Y41406848D01*
X63663220Y40740181D02*
X63663220Y41740181D01*
X63663220Y40787800D02*
X63567982Y40740181D01*
X63567982Y40740181D02*
X63377506Y40740181D01*
X63377506Y40740181D02*
X63282268Y40787800D01*
X63282268Y40787800D02*
X63234649Y40835420D01*
X63234649Y40835420D02*
X63187030Y40930658D01*
X63187030Y40930658D02*
X63187030Y41216372D01*
X63187030Y41216372D02*
X63234649Y41311610D01*
X63234649Y41311610D02*
X63282268Y41359229D01*
X63282268Y41359229D02*
X63377506Y41406848D01*
X63377506Y41406848D02*
X63567982Y41406848D01*
X63567982Y41406848D02*
X63663220Y41359229D01*
X56091793Y39130181D02*
X56091793Y40130181D01*
X56091793Y40130181D02*
X56472745Y40130181D01*
X56472745Y40130181D02*
X56567983Y40082562D01*
X56567983Y40082562D02*
X56615602Y40034943D01*
X56615602Y40034943D02*
X56663221Y39939705D01*
X56663221Y39939705D02*
X56663221Y39796848D01*
X56663221Y39796848D02*
X56615602Y39701610D01*
X56615602Y39701610D02*
X56567983Y39653991D01*
X56567983Y39653991D02*
X56472745Y39606372D01*
X56472745Y39606372D02*
X56091793Y39606372D01*
X57663221Y39225420D02*
X57615602Y39177800D01*
X57615602Y39177800D02*
X57472745Y39130181D01*
X57472745Y39130181D02*
X57377507Y39130181D01*
X57377507Y39130181D02*
X57234650Y39177800D01*
X57234650Y39177800D02*
X57139412Y39273039D01*
X57139412Y39273039D02*
X57091793Y39368277D01*
X57091793Y39368277D02*
X57044174Y39558753D01*
X57044174Y39558753D02*
X57044174Y39701610D01*
X57044174Y39701610D02*
X57091793Y39892086D01*
X57091793Y39892086D02*
X57139412Y39987324D01*
X57139412Y39987324D02*
X57234650Y40082562D01*
X57234650Y40082562D02*
X57377507Y40130181D01*
X57377507Y40130181D02*
X57472745Y40130181D01*
X57472745Y40130181D02*
X57615602Y40082562D01*
X57615602Y40082562D02*
X57663221Y40034943D01*
X58425126Y39653991D02*
X58567983Y39606372D01*
X58567983Y39606372D02*
X58615602Y39558753D01*
X58615602Y39558753D02*
X58663221Y39463515D01*
X58663221Y39463515D02*
X58663221Y39320658D01*
X58663221Y39320658D02*
X58615602Y39225420D01*
X58615602Y39225420D02*
X58567983Y39177800D01*
X58567983Y39177800D02*
X58472745Y39130181D01*
X58472745Y39130181D02*
X58091793Y39130181D01*
X58091793Y39130181D02*
X58091793Y40130181D01*
X58091793Y40130181D02*
X58425126Y40130181D01*
X58425126Y40130181D02*
X58520364Y40082562D01*
X58520364Y40082562D02*
X58567983Y40034943D01*
X58567983Y40034943D02*
X58615602Y39939705D01*
X58615602Y39939705D02*
X58615602Y39844467D01*
X58615602Y39844467D02*
X58567983Y39749229D01*
X58567983Y39749229D02*
X58520364Y39701610D01*
X58520364Y39701610D02*
X58425126Y39653991D01*
X58425126Y39653991D02*
X58091793Y39653991D01*
X59091793Y39225420D02*
X59139412Y39177800D01*
X59139412Y39177800D02*
X59091793Y39130181D01*
X59091793Y39130181D02*
X59044174Y39177800D01*
X59044174Y39177800D02*
X59091793Y39225420D01*
X59091793Y39225420D02*
X59091793Y39130181D01*
X59091793Y39749229D02*
X59139412Y39701610D01*
X59139412Y39701610D02*
X59091793Y39653991D01*
X59091793Y39653991D02*
X59044174Y39701610D01*
X59044174Y39701610D02*
X59091793Y39749229D01*
X59091793Y39749229D02*
X59091793Y39653991D01*
X60520364Y40130181D02*
X60615602Y40130181D01*
X60615602Y40130181D02*
X60710840Y40082562D01*
X60710840Y40082562D02*
X60758459Y40034943D01*
X60758459Y40034943D02*
X60806078Y39939705D01*
X60806078Y39939705D02*
X60853697Y39749229D01*
X60853697Y39749229D02*
X60853697Y39511134D01*
X60853697Y39511134D02*
X60806078Y39320658D01*
X60806078Y39320658D02*
X60758459Y39225420D01*
X60758459Y39225420D02*
X60710840Y39177800D01*
X60710840Y39177800D02*
X60615602Y39130181D01*
X60615602Y39130181D02*
X60520364Y39130181D01*
X60520364Y39130181D02*
X60425126Y39177800D01*
X60425126Y39177800D02*
X60377507Y39225420D01*
X60377507Y39225420D02*
X60329888Y39320658D01*
X60329888Y39320658D02*
X60282269Y39511134D01*
X60282269Y39511134D02*
X60282269Y39749229D01*
X60282269Y39749229D02*
X60329888Y39939705D01*
X60329888Y39939705D02*
X60377507Y40034943D01*
X60377507Y40034943D02*
X60425126Y40082562D01*
X60425126Y40082562D02*
X60520364Y40130181D01*
X61282269Y39225420D02*
X61329888Y39177800D01*
X61329888Y39177800D02*
X61282269Y39130181D01*
X61282269Y39130181D02*
X61234650Y39177800D01*
X61234650Y39177800D02*
X61282269Y39225420D01*
X61282269Y39225420D02*
X61282269Y39130181D01*
X61948935Y40130181D02*
X62044173Y40130181D01*
X62044173Y40130181D02*
X62139411Y40082562D01*
X62139411Y40082562D02*
X62187030Y40034943D01*
X62187030Y40034943D02*
X62234649Y39939705D01*
X62234649Y39939705D02*
X62282268Y39749229D01*
X62282268Y39749229D02*
X62282268Y39511134D01*
X62282268Y39511134D02*
X62234649Y39320658D01*
X62234649Y39320658D02*
X62187030Y39225420D01*
X62187030Y39225420D02*
X62139411Y39177800D01*
X62139411Y39177800D02*
X62044173Y39130181D01*
X62044173Y39130181D02*
X61948935Y39130181D01*
X61948935Y39130181D02*
X61853697Y39177800D01*
X61853697Y39177800D02*
X61806078Y39225420D01*
X61806078Y39225420D02*
X61758459Y39320658D01*
X61758459Y39320658D02*
X61710840Y39511134D01*
X61710840Y39511134D02*
X61710840Y39749229D01*
X61710840Y39749229D02*
X61758459Y39939705D01*
X61758459Y39939705D02*
X61806078Y40034943D01*
X61806078Y40034943D02*
X61853697Y40082562D01*
X61853697Y40082562D02*
X61948935Y40130181D01*
X62710840Y39225420D02*
X62758459Y39177800D01*
X62758459Y39177800D02*
X62710840Y39130181D01*
X62710840Y39130181D02*
X62663221Y39177800D01*
X62663221Y39177800D02*
X62710840Y39225420D01*
X62710840Y39225420D02*
X62710840Y39130181D01*
X63710839Y39130181D02*
X63139411Y39130181D01*
X63425125Y39130181D02*
X63425125Y40130181D01*
X63425125Y40130181D02*
X63329887Y39987324D01*
X63329887Y39987324D02*
X63234649Y39892086D01*
X63234649Y39892086D02*
X63139411Y39844467D01*
X9546666Y49055181D02*
X9546666Y48340896D01*
X9546666Y48340896D02*
X9499047Y48198039D01*
X9499047Y48198039D02*
X9403809Y48102800D01*
X9403809Y48102800D02*
X9260952Y48055181D01*
X9260952Y48055181D02*
X9165714Y48055181D01*
X10546666Y48055181D02*
X9975238Y48055181D01*
X10260952Y48055181D02*
X10260952Y49055181D01*
X10260952Y49055181D02*
X10165714Y48912324D01*
X10165714Y48912324D02*
X10070476Y48817086D01*
X10070476Y48817086D02*
X9975238Y48769467D01*
X37408333Y42670181D02*
X37075000Y43146372D01*
X36836905Y42670181D02*
X36836905Y43670181D01*
X36836905Y43670181D02*
X37217857Y43670181D01*
X37217857Y43670181D02*
X37313095Y43622562D01*
X37313095Y43622562D02*
X37360714Y43574943D01*
X37360714Y43574943D02*
X37408333Y43479705D01*
X37408333Y43479705D02*
X37408333Y43336848D01*
X37408333Y43336848D02*
X37360714Y43241610D01*
X37360714Y43241610D02*
X37313095Y43193991D01*
X37313095Y43193991D02*
X37217857Y43146372D01*
X37217857Y43146372D02*
X36836905Y43146372D01*
X37741667Y43670181D02*
X38408333Y43670181D01*
X38408333Y43670181D02*
X37979762Y42670181D01*
X36079819Y37177143D02*
X35603628Y36843810D01*
X36079819Y36605715D02*
X35079819Y36605715D01*
X35079819Y36605715D02*
X35079819Y36986667D01*
X35079819Y36986667D02*
X35127438Y37081905D01*
X35127438Y37081905D02*
X35175057Y37129524D01*
X35175057Y37129524D02*
X35270295Y37177143D01*
X35270295Y37177143D02*
X35413152Y37177143D01*
X35413152Y37177143D02*
X35508390Y37129524D01*
X35508390Y37129524D02*
X35556009Y37081905D01*
X35556009Y37081905D02*
X35603628Y36986667D01*
X35603628Y36986667D02*
X35603628Y36605715D01*
X35175057Y37558096D02*
X35127438Y37605715D01*
X35127438Y37605715D02*
X35079819Y37700953D01*
X35079819Y37700953D02*
X35079819Y37939048D01*
X35079819Y37939048D02*
X35127438Y38034286D01*
X35127438Y38034286D02*
X35175057Y38081905D01*
X35175057Y38081905D02*
X35270295Y38129524D01*
X35270295Y38129524D02*
X35365533Y38129524D01*
X35365533Y38129524D02*
X35508390Y38081905D01*
X35508390Y38081905D02*
X36079819Y37510477D01*
X36079819Y37510477D02*
X36079819Y38129524D01*
X35079819Y39034286D02*
X35079819Y38558096D01*
X35079819Y38558096D02*
X35556009Y38510477D01*
X35556009Y38510477D02*
X35508390Y38558096D01*
X35508390Y38558096D02*
X35460771Y38653334D01*
X35460771Y38653334D02*
X35460771Y38891429D01*
X35460771Y38891429D02*
X35508390Y38986667D01*
X35508390Y38986667D02*
X35556009Y39034286D01*
X35556009Y39034286D02*
X35651247Y39081905D01*
X35651247Y39081905D02*
X35889342Y39081905D01*
X35889342Y39081905D02*
X35984580Y39034286D01*
X35984580Y39034286D02*
X36032200Y38986667D01*
X36032200Y38986667D02*
X36079819Y38891429D01*
X36079819Y38891429D02*
X36079819Y38653334D01*
X36079819Y38653334D02*
X36032200Y38558096D01*
X36032200Y38558096D02*
X35984580Y38510477D01*
X52639580Y10227143D02*
X52687200Y10179524D01*
X52687200Y10179524D02*
X52734819Y10036667D01*
X52734819Y10036667D02*
X52734819Y9941429D01*
X52734819Y9941429D02*
X52687200Y9798572D01*
X52687200Y9798572D02*
X52591961Y9703334D01*
X52591961Y9703334D02*
X52496723Y9655715D01*
X52496723Y9655715D02*
X52306247Y9608096D01*
X52306247Y9608096D02*
X52163390Y9608096D01*
X52163390Y9608096D02*
X51972914Y9655715D01*
X51972914Y9655715D02*
X51877676Y9703334D01*
X51877676Y9703334D02*
X51782438Y9798572D01*
X51782438Y9798572D02*
X51734819Y9941429D01*
X51734819Y9941429D02*
X51734819Y10036667D01*
X51734819Y10036667D02*
X51782438Y10179524D01*
X51782438Y10179524D02*
X51830057Y10227143D01*
X51830057Y10608096D02*
X51782438Y10655715D01*
X51782438Y10655715D02*
X51734819Y10750953D01*
X51734819Y10750953D02*
X51734819Y10989048D01*
X51734819Y10989048D02*
X51782438Y11084286D01*
X51782438Y11084286D02*
X51830057Y11131905D01*
X51830057Y11131905D02*
X51925295Y11179524D01*
X51925295Y11179524D02*
X52020533Y11179524D01*
X52020533Y11179524D02*
X52163390Y11131905D01*
X52163390Y11131905D02*
X52734819Y10560477D01*
X52734819Y10560477D02*
X52734819Y11179524D01*
X52734819Y12131905D02*
X52734819Y11560477D01*
X52734819Y11846191D02*
X51734819Y11846191D01*
X51734819Y11846191D02*
X51877676Y11750953D01*
X51877676Y11750953D02*
X51972914Y11655715D01*
X51972914Y11655715D02*
X52020533Y11560477D01*
X30554819Y33690477D02*
X31554819Y34357143D01*
X30554819Y34357143D02*
X31554819Y33690477D01*
X31554819Y35261905D02*
X31554819Y34690477D01*
X31554819Y34976191D02*
X30554819Y34976191D01*
X30554819Y34976191D02*
X30697676Y34880953D01*
X30697676Y34880953D02*
X30792914Y34785715D01*
X30792914Y34785715D02*
X30840533Y34690477D01*
X7428571Y1068991D02*
X7095238Y1068991D01*
X7095238Y545181D02*
X7095238Y1545181D01*
X7095238Y1545181D02*
X7571428Y1545181D01*
X7952381Y545181D02*
X7952381Y1545181D01*
X8428571Y545181D02*
X8428571Y1545181D01*
X8428571Y1545181D02*
X8666666Y1545181D01*
X8666666Y1545181D02*
X8809523Y1497562D01*
X8809523Y1497562D02*
X8904761Y1402324D01*
X8904761Y1402324D02*
X8952380Y1307086D01*
X8952380Y1307086D02*
X8999999Y1116610D01*
X8999999Y1116610D02*
X8999999Y973753D01*
X8999999Y973753D02*
X8952380Y783277D01*
X8952380Y783277D02*
X8904761Y688039D01*
X8904761Y688039D02*
X8809523Y592800D01*
X8809523Y592800D02*
X8666666Y545181D01*
X8666666Y545181D02*
X8428571Y545181D01*
X9857142Y1211848D02*
X9857142Y545181D01*
X9619047Y1592800D02*
X9380952Y878515D01*
X9380952Y878515D02*
X9999999Y878515D01*
X20754819Y43888096D02*
X21564342Y43888096D01*
X21564342Y43888096D02*
X21659580Y43935715D01*
X21659580Y43935715D02*
X21707200Y43983334D01*
X21707200Y43983334D02*
X21754819Y44078572D01*
X21754819Y44078572D02*
X21754819Y44269048D01*
X21754819Y44269048D02*
X21707200Y44364286D01*
X21707200Y44364286D02*
X21659580Y44411905D01*
X21659580Y44411905D02*
X21564342Y44459524D01*
X21564342Y44459524D02*
X20754819Y44459524D01*
X20850057Y44888096D02*
X20802438Y44935715D01*
X20802438Y44935715D02*
X20754819Y45030953D01*
X20754819Y45030953D02*
X20754819Y45269048D01*
X20754819Y45269048D02*
X20802438Y45364286D01*
X20802438Y45364286D02*
X20850057Y45411905D01*
X20850057Y45411905D02*
X20945295Y45459524D01*
X20945295Y45459524D02*
X21040533Y45459524D01*
X21040533Y45459524D02*
X21183390Y45411905D01*
X21183390Y45411905D02*
X21754819Y44840477D01*
X21754819Y44840477D02*
X21754819Y45459524D01*
X52754819Y13477143D02*
X52278628Y13143810D01*
X52754819Y12905715D02*
X51754819Y12905715D01*
X51754819Y12905715D02*
X51754819Y13286667D01*
X51754819Y13286667D02*
X51802438Y13381905D01*
X51802438Y13381905D02*
X51850057Y13429524D01*
X51850057Y13429524D02*
X51945295Y13477143D01*
X51945295Y13477143D02*
X52088152Y13477143D01*
X52088152Y13477143D02*
X52183390Y13429524D01*
X52183390Y13429524D02*
X52231009Y13381905D01*
X52231009Y13381905D02*
X52278628Y13286667D01*
X52278628Y13286667D02*
X52278628Y12905715D01*
X52754819Y14429524D02*
X52754819Y13858096D01*
X52754819Y14143810D02*
X51754819Y14143810D01*
X51754819Y14143810D02*
X51897676Y14048572D01*
X51897676Y14048572D02*
X51992914Y13953334D01*
X51992914Y13953334D02*
X52040533Y13858096D01*
X51754819Y15286667D02*
X51754819Y15096191D01*
X51754819Y15096191D02*
X51802438Y15000953D01*
X51802438Y15000953D02*
X51850057Y14953334D01*
X51850057Y14953334D02*
X51992914Y14858096D01*
X51992914Y14858096D02*
X52183390Y14810477D01*
X52183390Y14810477D02*
X52564342Y14810477D01*
X52564342Y14810477D02*
X52659580Y14858096D01*
X52659580Y14858096D02*
X52707200Y14905715D01*
X52707200Y14905715D02*
X52754819Y15000953D01*
X52754819Y15000953D02*
X52754819Y15191429D01*
X52754819Y15191429D02*
X52707200Y15286667D01*
X52707200Y15286667D02*
X52659580Y15334286D01*
X52659580Y15334286D02*
X52564342Y15381905D01*
X52564342Y15381905D02*
X52326247Y15381905D01*
X52326247Y15381905D02*
X52231009Y15334286D01*
X52231009Y15334286D02*
X52183390Y15286667D01*
X52183390Y15286667D02*
X52135771Y15191429D01*
X52135771Y15191429D02*
X52135771Y15000953D01*
X52135771Y15000953D02*
X52183390Y14905715D01*
X52183390Y14905715D02*
X52231009Y14858096D01*
X52231009Y14858096D02*
X52326247Y14810477D01*
X13333333Y12390420D02*
X13285714Y12342800D01*
X13285714Y12342800D02*
X13142857Y12295181D01*
X13142857Y12295181D02*
X13047619Y12295181D01*
X13047619Y12295181D02*
X12904762Y12342800D01*
X12904762Y12342800D02*
X12809524Y12438039D01*
X12809524Y12438039D02*
X12761905Y12533277D01*
X12761905Y12533277D02*
X12714286Y12723753D01*
X12714286Y12723753D02*
X12714286Y12866610D01*
X12714286Y12866610D02*
X12761905Y13057086D01*
X12761905Y13057086D02*
X12809524Y13152324D01*
X12809524Y13152324D02*
X12904762Y13247562D01*
X12904762Y13247562D02*
X13047619Y13295181D01*
X13047619Y13295181D02*
X13142857Y13295181D01*
X13142857Y13295181D02*
X13285714Y13247562D01*
X13285714Y13247562D02*
X13333333Y13199943D01*
X13666667Y13295181D02*
X14285714Y13295181D01*
X14285714Y13295181D02*
X13952381Y12914229D01*
X13952381Y12914229D02*
X14095238Y12914229D01*
X14095238Y12914229D02*
X14190476Y12866610D01*
X14190476Y12866610D02*
X14238095Y12818991D01*
X14238095Y12818991D02*
X14285714Y12723753D01*
X14285714Y12723753D02*
X14285714Y12485658D01*
X14285714Y12485658D02*
X14238095Y12390420D01*
X14238095Y12390420D02*
X14190476Y12342800D01*
X14190476Y12342800D02*
X14095238Y12295181D01*
X14095238Y12295181D02*
X13809524Y12295181D01*
X13809524Y12295181D02*
X13714286Y12342800D01*
X13714286Y12342800D02*
X13666667Y12390420D01*
X18259580Y35882143D02*
X18307200Y35834524D01*
X18307200Y35834524D02*
X18354819Y35691667D01*
X18354819Y35691667D02*
X18354819Y35596429D01*
X18354819Y35596429D02*
X18307200Y35453572D01*
X18307200Y35453572D02*
X18211961Y35358334D01*
X18211961Y35358334D02*
X18116723Y35310715D01*
X18116723Y35310715D02*
X17926247Y35263096D01*
X17926247Y35263096D02*
X17783390Y35263096D01*
X17783390Y35263096D02*
X17592914Y35310715D01*
X17592914Y35310715D02*
X17497676Y35358334D01*
X17497676Y35358334D02*
X17402438Y35453572D01*
X17402438Y35453572D02*
X17354819Y35596429D01*
X17354819Y35596429D02*
X17354819Y35691667D01*
X17354819Y35691667D02*
X17402438Y35834524D01*
X17402438Y35834524D02*
X17450057Y35882143D01*
X18354819Y36834524D02*
X18354819Y36263096D01*
X18354819Y36548810D02*
X17354819Y36548810D01*
X17354819Y36548810D02*
X17497676Y36453572D01*
X17497676Y36453572D02*
X17592914Y36358334D01*
X17592914Y36358334D02*
X17640533Y36263096D01*
X17354819Y37691667D02*
X17354819Y37501191D01*
X17354819Y37501191D02*
X17402438Y37405953D01*
X17402438Y37405953D02*
X17450057Y37358334D01*
X17450057Y37358334D02*
X17592914Y37263096D01*
X17592914Y37263096D02*
X17783390Y37215477D01*
X17783390Y37215477D02*
X18164342Y37215477D01*
X18164342Y37215477D02*
X18259580Y37263096D01*
X18259580Y37263096D02*
X18307200Y37310715D01*
X18307200Y37310715D02*
X18354819Y37405953D01*
X18354819Y37405953D02*
X18354819Y37596429D01*
X18354819Y37596429D02*
X18307200Y37691667D01*
X18307200Y37691667D02*
X18259580Y37739286D01*
X18259580Y37739286D02*
X18164342Y37786905D01*
X18164342Y37786905D02*
X17926247Y37786905D01*
X17926247Y37786905D02*
X17831009Y37739286D01*
X17831009Y37739286D02*
X17783390Y37691667D01*
X17783390Y37691667D02*
X17735771Y37596429D01*
X17735771Y37596429D02*
X17735771Y37405953D01*
X17735771Y37405953D02*
X17783390Y37310715D01*
X17783390Y37310715D02*
X17831009Y37263096D01*
X17831009Y37263096D02*
X17926247Y37215477D01*
X32987142Y29650420D02*
X32939523Y29602800D01*
X32939523Y29602800D02*
X32796666Y29555181D01*
X32796666Y29555181D02*
X32701428Y29555181D01*
X32701428Y29555181D02*
X32558571Y29602800D01*
X32558571Y29602800D02*
X32463333Y29698039D01*
X32463333Y29698039D02*
X32415714Y29793277D01*
X32415714Y29793277D02*
X32368095Y29983753D01*
X32368095Y29983753D02*
X32368095Y30126610D01*
X32368095Y30126610D02*
X32415714Y30317086D01*
X32415714Y30317086D02*
X32463333Y30412324D01*
X32463333Y30412324D02*
X32558571Y30507562D01*
X32558571Y30507562D02*
X32701428Y30555181D01*
X32701428Y30555181D02*
X32796666Y30555181D01*
X32796666Y30555181D02*
X32939523Y30507562D01*
X32939523Y30507562D02*
X32987142Y30459943D01*
X33320476Y30555181D02*
X33939523Y30555181D01*
X33939523Y30555181D02*
X33606190Y30174229D01*
X33606190Y30174229D02*
X33749047Y30174229D01*
X33749047Y30174229D02*
X33844285Y30126610D01*
X33844285Y30126610D02*
X33891904Y30078991D01*
X33891904Y30078991D02*
X33939523Y29983753D01*
X33939523Y29983753D02*
X33939523Y29745658D01*
X33939523Y29745658D02*
X33891904Y29650420D01*
X33891904Y29650420D02*
X33844285Y29602800D01*
X33844285Y29602800D02*
X33749047Y29555181D01*
X33749047Y29555181D02*
X33463333Y29555181D01*
X33463333Y29555181D02*
X33368095Y29602800D01*
X33368095Y29602800D02*
X33320476Y29650420D01*
X34320476Y30459943D02*
X34368095Y30507562D01*
X34368095Y30507562D02*
X34463333Y30555181D01*
X34463333Y30555181D02*
X34701428Y30555181D01*
X34701428Y30555181D02*
X34796666Y30507562D01*
X34796666Y30507562D02*
X34844285Y30459943D01*
X34844285Y30459943D02*
X34891904Y30364705D01*
X34891904Y30364705D02*
X34891904Y30269467D01*
X34891904Y30269467D02*
X34844285Y30126610D01*
X34844285Y30126610D02*
X34272857Y29555181D01*
X34272857Y29555181D02*
X34891904Y29555181D01*
X43658333Y45870181D02*
X43325000Y46346372D01*
X43086905Y45870181D02*
X43086905Y46870181D01*
X43086905Y46870181D02*
X43467857Y46870181D01*
X43467857Y46870181D02*
X43563095Y46822562D01*
X43563095Y46822562D02*
X43610714Y46774943D01*
X43610714Y46774943D02*
X43658333Y46679705D01*
X43658333Y46679705D02*
X43658333Y46536848D01*
X43658333Y46536848D02*
X43610714Y46441610D01*
X43610714Y46441610D02*
X43563095Y46393991D01*
X43563095Y46393991D02*
X43467857Y46346372D01*
X43467857Y46346372D02*
X43086905Y46346372D01*
X44563095Y46870181D02*
X44086905Y46870181D01*
X44086905Y46870181D02*
X44039286Y46393991D01*
X44039286Y46393991D02*
X44086905Y46441610D01*
X44086905Y46441610D02*
X44182143Y46489229D01*
X44182143Y46489229D02*
X44420238Y46489229D01*
X44420238Y46489229D02*
X44515476Y46441610D01*
X44515476Y46441610D02*
X44563095Y46393991D01*
X44563095Y46393991D02*
X44610714Y46298753D01*
X44610714Y46298753D02*
X44610714Y46060658D01*
X44610714Y46060658D02*
X44563095Y45965420D01*
X44563095Y45965420D02*
X44515476Y45917800D01*
X44515476Y45917800D02*
X44420238Y45870181D01*
X44420238Y45870181D02*
X44182143Y45870181D01*
X44182143Y45870181D02*
X44086905Y45917800D01*
X44086905Y45917800D02*
X44039286Y45965420D01*
X30507142Y44495181D02*
X30173809Y44971372D01*
X29935714Y44495181D02*
X29935714Y45495181D01*
X29935714Y45495181D02*
X30316666Y45495181D01*
X30316666Y45495181D02*
X30411904Y45447562D01*
X30411904Y45447562D02*
X30459523Y45399943D01*
X30459523Y45399943D02*
X30507142Y45304705D01*
X30507142Y45304705D02*
X30507142Y45161848D01*
X30507142Y45161848D02*
X30459523Y45066610D01*
X30459523Y45066610D02*
X30411904Y45018991D01*
X30411904Y45018991D02*
X30316666Y44971372D01*
X30316666Y44971372D02*
X29935714Y44971372D01*
X31459523Y44495181D02*
X30888095Y44495181D01*
X31173809Y44495181D02*
X31173809Y45495181D01*
X31173809Y45495181D02*
X31078571Y45352324D01*
X31078571Y45352324D02*
X30983333Y45257086D01*
X30983333Y45257086D02*
X30888095Y45209467D01*
X32078571Y45495181D02*
X32173809Y45495181D01*
X32173809Y45495181D02*
X32269047Y45447562D01*
X32269047Y45447562D02*
X32316666Y45399943D01*
X32316666Y45399943D02*
X32364285Y45304705D01*
X32364285Y45304705D02*
X32411904Y45114229D01*
X32411904Y45114229D02*
X32411904Y44876134D01*
X32411904Y44876134D02*
X32364285Y44685658D01*
X32364285Y44685658D02*
X32316666Y44590420D01*
X32316666Y44590420D02*
X32269047Y44542800D01*
X32269047Y44542800D02*
X32173809Y44495181D01*
X32173809Y44495181D02*
X32078571Y44495181D01*
X32078571Y44495181D02*
X31983333Y44542800D01*
X31983333Y44542800D02*
X31935714Y44590420D01*
X31935714Y44590420D02*
X31888095Y44685658D01*
X31888095Y44685658D02*
X31840476Y44876134D01*
X31840476Y44876134D02*
X31840476Y45114229D01*
X31840476Y45114229D02*
X31888095Y45304705D01*
X31888095Y45304705D02*
X31935714Y45399943D01*
X31935714Y45399943D02*
X31983333Y45447562D01*
X31983333Y45447562D02*
X32078571Y45495181D01*
X36794819Y33590477D02*
X37794819Y34257143D01*
X36794819Y34257143D02*
X37794819Y33590477D01*
X36890057Y34590477D02*
X36842438Y34638096D01*
X36842438Y34638096D02*
X36794819Y34733334D01*
X36794819Y34733334D02*
X36794819Y34971429D01*
X36794819Y34971429D02*
X36842438Y35066667D01*
X36842438Y35066667D02*
X36890057Y35114286D01*
X36890057Y35114286D02*
X36985295Y35161905D01*
X36985295Y35161905D02*
X37080533Y35161905D01*
X37080533Y35161905D02*
X37223390Y35114286D01*
X37223390Y35114286D02*
X37794819Y34542858D01*
X37794819Y34542858D02*
X37794819Y35161905D01*
X46504819Y26186906D02*
X45504819Y26186906D01*
X45504819Y26186906D02*
X45504819Y26425001D01*
X45504819Y26425001D02*
X45552438Y26567858D01*
X45552438Y26567858D02*
X45647676Y26663096D01*
X45647676Y26663096D02*
X45742914Y26710715D01*
X45742914Y26710715D02*
X45933390Y26758334D01*
X45933390Y26758334D02*
X46076247Y26758334D01*
X46076247Y26758334D02*
X46266723Y26710715D01*
X46266723Y26710715D02*
X46361961Y26663096D01*
X46361961Y26663096D02*
X46457200Y26567858D01*
X46457200Y26567858D02*
X46504819Y26425001D01*
X46504819Y26425001D02*
X46504819Y26186906D01*
X45600057Y27139287D02*
X45552438Y27186906D01*
X45552438Y27186906D02*
X45504819Y27282144D01*
X45504819Y27282144D02*
X45504819Y27520239D01*
X45504819Y27520239D02*
X45552438Y27615477D01*
X45552438Y27615477D02*
X45600057Y27663096D01*
X45600057Y27663096D02*
X45695295Y27710715D01*
X45695295Y27710715D02*
X45790533Y27710715D01*
X45790533Y27710715D02*
X45933390Y27663096D01*
X45933390Y27663096D02*
X46504819Y27091668D01*
X46504819Y27091668D02*
X46504819Y27710715D01*
X21009580Y21457143D02*
X21057200Y21409524D01*
X21057200Y21409524D02*
X21104819Y21266667D01*
X21104819Y21266667D02*
X21104819Y21171429D01*
X21104819Y21171429D02*
X21057200Y21028572D01*
X21057200Y21028572D02*
X20961961Y20933334D01*
X20961961Y20933334D02*
X20866723Y20885715D01*
X20866723Y20885715D02*
X20676247Y20838096D01*
X20676247Y20838096D02*
X20533390Y20838096D01*
X20533390Y20838096D02*
X20342914Y20885715D01*
X20342914Y20885715D02*
X20247676Y20933334D01*
X20247676Y20933334D02*
X20152438Y21028572D01*
X20152438Y21028572D02*
X20104819Y21171429D01*
X20104819Y21171429D02*
X20104819Y21266667D01*
X20104819Y21266667D02*
X20152438Y21409524D01*
X20152438Y21409524D02*
X20200057Y21457143D01*
X21104819Y22409524D02*
X21104819Y21838096D01*
X21104819Y22123810D02*
X20104819Y22123810D01*
X20104819Y22123810D02*
X20247676Y22028572D01*
X20247676Y22028572D02*
X20342914Y21933334D01*
X20342914Y21933334D02*
X20390533Y21838096D01*
X20438152Y23266667D02*
X21104819Y23266667D01*
X20057200Y23028572D02*
X20771485Y22790477D01*
X20771485Y22790477D02*
X20771485Y23409524D01*
X40157142Y13445420D02*
X40109523Y13397800D01*
X40109523Y13397800D02*
X39966666Y13350181D01*
X39966666Y13350181D02*
X39871428Y13350181D01*
X39871428Y13350181D02*
X39728571Y13397800D01*
X39728571Y13397800D02*
X39633333Y13493039D01*
X39633333Y13493039D02*
X39585714Y13588277D01*
X39585714Y13588277D02*
X39538095Y13778753D01*
X39538095Y13778753D02*
X39538095Y13921610D01*
X39538095Y13921610D02*
X39585714Y14112086D01*
X39585714Y14112086D02*
X39633333Y14207324D01*
X39633333Y14207324D02*
X39728571Y14302562D01*
X39728571Y14302562D02*
X39871428Y14350181D01*
X39871428Y14350181D02*
X39966666Y14350181D01*
X39966666Y14350181D02*
X40109523Y14302562D01*
X40109523Y14302562D02*
X40157142Y14254943D01*
X40538095Y14254943D02*
X40585714Y14302562D01*
X40585714Y14302562D02*
X40680952Y14350181D01*
X40680952Y14350181D02*
X40919047Y14350181D01*
X40919047Y14350181D02*
X41014285Y14302562D01*
X41014285Y14302562D02*
X41061904Y14254943D01*
X41061904Y14254943D02*
X41109523Y14159705D01*
X41109523Y14159705D02*
X41109523Y14064467D01*
X41109523Y14064467D02*
X41061904Y13921610D01*
X41061904Y13921610D02*
X40490476Y13350181D01*
X40490476Y13350181D02*
X41109523Y13350181D01*
X41680952Y13921610D02*
X41585714Y13969229D01*
X41585714Y13969229D02*
X41538095Y14016848D01*
X41538095Y14016848D02*
X41490476Y14112086D01*
X41490476Y14112086D02*
X41490476Y14159705D01*
X41490476Y14159705D02*
X41538095Y14254943D01*
X41538095Y14254943D02*
X41585714Y14302562D01*
X41585714Y14302562D02*
X41680952Y14350181D01*
X41680952Y14350181D02*
X41871428Y14350181D01*
X41871428Y14350181D02*
X41966666Y14302562D01*
X41966666Y14302562D02*
X42014285Y14254943D01*
X42014285Y14254943D02*
X42061904Y14159705D01*
X42061904Y14159705D02*
X42061904Y14112086D01*
X42061904Y14112086D02*
X42014285Y14016848D01*
X42014285Y14016848D02*
X41966666Y13969229D01*
X41966666Y13969229D02*
X41871428Y13921610D01*
X41871428Y13921610D02*
X41680952Y13921610D01*
X41680952Y13921610D02*
X41585714Y13873991D01*
X41585714Y13873991D02*
X41538095Y13826372D01*
X41538095Y13826372D02*
X41490476Y13731134D01*
X41490476Y13731134D02*
X41490476Y13540658D01*
X41490476Y13540658D02*
X41538095Y13445420D01*
X41538095Y13445420D02*
X41585714Y13397800D01*
X41585714Y13397800D02*
X41680952Y13350181D01*
X41680952Y13350181D02*
X41871428Y13350181D01*
X41871428Y13350181D02*
X41966666Y13397800D01*
X41966666Y13397800D02*
X42014285Y13445420D01*
X42014285Y13445420D02*
X42061904Y13540658D01*
X42061904Y13540658D02*
X42061904Y13731134D01*
X42061904Y13731134D02*
X42014285Y13826372D01*
X42014285Y13826372D02*
X41966666Y13873991D01*
X41966666Y13873991D02*
X41871428Y13921610D01*
X15066666Y20095181D02*
X15066666Y19380896D01*
X15066666Y19380896D02*
X15019047Y19238039D01*
X15019047Y19238039D02*
X14923809Y19142800D01*
X14923809Y19142800D02*
X14780952Y19095181D01*
X14780952Y19095181D02*
X14685714Y19095181D01*
X15447619Y20095181D02*
X16066666Y20095181D01*
X16066666Y20095181D02*
X15733333Y19714229D01*
X15733333Y19714229D02*
X15876190Y19714229D01*
X15876190Y19714229D02*
X15971428Y19666610D01*
X15971428Y19666610D02*
X16019047Y19618991D01*
X16019047Y19618991D02*
X16066666Y19523753D01*
X16066666Y19523753D02*
X16066666Y19285658D01*
X16066666Y19285658D02*
X16019047Y19190420D01*
X16019047Y19190420D02*
X15971428Y19142800D01*
X15971428Y19142800D02*
X15876190Y19095181D01*
X15876190Y19095181D02*
X15590476Y19095181D01*
X15590476Y19095181D02*
X15495238Y19142800D01*
X15495238Y19142800D02*
X15447619Y19190420D01*
X20059580Y33457143D02*
X20107200Y33409524D01*
X20107200Y33409524D02*
X20154819Y33266667D01*
X20154819Y33266667D02*
X20154819Y33171429D01*
X20154819Y33171429D02*
X20107200Y33028572D01*
X20107200Y33028572D02*
X20011961Y32933334D01*
X20011961Y32933334D02*
X19916723Y32885715D01*
X19916723Y32885715D02*
X19726247Y32838096D01*
X19726247Y32838096D02*
X19583390Y32838096D01*
X19583390Y32838096D02*
X19392914Y32885715D01*
X19392914Y32885715D02*
X19297676Y32933334D01*
X19297676Y32933334D02*
X19202438Y33028572D01*
X19202438Y33028572D02*
X19154819Y33171429D01*
X19154819Y33171429D02*
X19154819Y33266667D01*
X19154819Y33266667D02*
X19202438Y33409524D01*
X19202438Y33409524D02*
X19250057Y33457143D01*
X20154819Y34409524D02*
X20154819Y33838096D01*
X20154819Y34123810D02*
X19154819Y34123810D01*
X19154819Y34123810D02*
X19297676Y34028572D01*
X19297676Y34028572D02*
X19392914Y33933334D01*
X19392914Y33933334D02*
X19440533Y33838096D01*
X20154819Y35361905D02*
X20154819Y34790477D01*
X20154819Y35076191D02*
X19154819Y35076191D01*
X19154819Y35076191D02*
X19297676Y34980953D01*
X19297676Y34980953D02*
X19392914Y34885715D01*
X19392914Y34885715D02*
X19440533Y34790477D01*
X20633333Y12215420D02*
X20585714Y12167800D01*
X20585714Y12167800D02*
X20442857Y12120181D01*
X20442857Y12120181D02*
X20347619Y12120181D01*
X20347619Y12120181D02*
X20204762Y12167800D01*
X20204762Y12167800D02*
X20109524Y12263039D01*
X20109524Y12263039D02*
X20061905Y12358277D01*
X20061905Y12358277D02*
X20014286Y12548753D01*
X20014286Y12548753D02*
X20014286Y12691610D01*
X20014286Y12691610D02*
X20061905Y12882086D01*
X20061905Y12882086D02*
X20109524Y12977324D01*
X20109524Y12977324D02*
X20204762Y13072562D01*
X20204762Y13072562D02*
X20347619Y13120181D01*
X20347619Y13120181D02*
X20442857Y13120181D01*
X20442857Y13120181D02*
X20585714Y13072562D01*
X20585714Y13072562D02*
X20633333Y13024943D01*
X21490476Y12786848D02*
X21490476Y12120181D01*
X21252381Y13167800D02*
X21014286Y12453515D01*
X21014286Y12453515D02*
X21633333Y12453515D01*
X21729819Y10057143D02*
X21253628Y9723810D01*
X21729819Y9485715D02*
X20729819Y9485715D01*
X20729819Y9485715D02*
X20729819Y9866667D01*
X20729819Y9866667D02*
X20777438Y9961905D01*
X20777438Y9961905D02*
X20825057Y10009524D01*
X20825057Y10009524D02*
X20920295Y10057143D01*
X20920295Y10057143D02*
X21063152Y10057143D01*
X21063152Y10057143D02*
X21158390Y10009524D01*
X21158390Y10009524D02*
X21206009Y9961905D01*
X21206009Y9961905D02*
X21253628Y9866667D01*
X21253628Y9866667D02*
X21253628Y9485715D01*
X21729819Y11009524D02*
X21729819Y10438096D01*
X21729819Y10723810D02*
X20729819Y10723810D01*
X20729819Y10723810D02*
X20872676Y10628572D01*
X20872676Y10628572D02*
X20967914Y10533334D01*
X20967914Y10533334D02*
X21015533Y10438096D01*
X21729819Y11961905D02*
X21729819Y11390477D01*
X21729819Y11676191D02*
X20729819Y11676191D01*
X20729819Y11676191D02*
X20872676Y11580953D01*
X20872676Y11580953D02*
X20967914Y11485715D01*
X20967914Y11485715D02*
X21015533Y11390477D01*
X26989580Y15783334D02*
X27037200Y15735715D01*
X27037200Y15735715D02*
X27084819Y15592858D01*
X27084819Y15592858D02*
X27084819Y15497620D01*
X27084819Y15497620D02*
X27037200Y15354763D01*
X27037200Y15354763D02*
X26941961Y15259525D01*
X26941961Y15259525D02*
X26846723Y15211906D01*
X26846723Y15211906D02*
X26656247Y15164287D01*
X26656247Y15164287D02*
X26513390Y15164287D01*
X26513390Y15164287D02*
X26322914Y15211906D01*
X26322914Y15211906D02*
X26227676Y15259525D01*
X26227676Y15259525D02*
X26132438Y15354763D01*
X26132438Y15354763D02*
X26084819Y15497620D01*
X26084819Y15497620D02*
X26084819Y15592858D01*
X26084819Y15592858D02*
X26132438Y15735715D01*
X26132438Y15735715D02*
X26180057Y15783334D01*
X26084819Y16116668D02*
X26084819Y16783334D01*
X26084819Y16783334D02*
X27084819Y16354763D01*
X2428571Y45568991D02*
X2095238Y45568991D01*
X2095238Y45045181D02*
X2095238Y46045181D01*
X2095238Y46045181D02*
X2571428Y46045181D01*
X2952381Y45045181D02*
X2952381Y46045181D01*
X3428571Y45045181D02*
X3428571Y46045181D01*
X3428571Y46045181D02*
X3666666Y46045181D01*
X3666666Y46045181D02*
X3809523Y45997562D01*
X3809523Y45997562D02*
X3904761Y45902324D01*
X3904761Y45902324D02*
X3952380Y45807086D01*
X3952380Y45807086D02*
X3999999Y45616610D01*
X3999999Y45616610D02*
X3999999Y45473753D01*
X3999999Y45473753D02*
X3952380Y45283277D01*
X3952380Y45283277D02*
X3904761Y45188039D01*
X3904761Y45188039D02*
X3809523Y45092800D01*
X3809523Y45092800D02*
X3666666Y45045181D01*
X3666666Y45045181D02*
X3428571Y45045181D01*
X4952380Y45045181D02*
X4380952Y45045181D01*
X4666666Y45045181D02*
X4666666Y46045181D01*
X4666666Y46045181D02*
X4571428Y45902324D01*
X4571428Y45902324D02*
X4476190Y45807086D01*
X4476190Y45807086D02*
X4380952Y45759467D01*
X46369580Y5817143D02*
X46417200Y5769524D01*
X46417200Y5769524D02*
X46464819Y5626667D01*
X46464819Y5626667D02*
X46464819Y5531429D01*
X46464819Y5531429D02*
X46417200Y5388572D01*
X46417200Y5388572D02*
X46321961Y5293334D01*
X46321961Y5293334D02*
X46226723Y5245715D01*
X46226723Y5245715D02*
X46036247Y5198096D01*
X46036247Y5198096D02*
X45893390Y5198096D01*
X45893390Y5198096D02*
X45702914Y5245715D01*
X45702914Y5245715D02*
X45607676Y5293334D01*
X45607676Y5293334D02*
X45512438Y5388572D01*
X45512438Y5388572D02*
X45464819Y5531429D01*
X45464819Y5531429D02*
X45464819Y5626667D01*
X45464819Y5626667D02*
X45512438Y5769524D01*
X45512438Y5769524D02*
X45560057Y5817143D01*
X45560057Y6198096D02*
X45512438Y6245715D01*
X45512438Y6245715D02*
X45464819Y6340953D01*
X45464819Y6340953D02*
X45464819Y6579048D01*
X45464819Y6579048D02*
X45512438Y6674286D01*
X45512438Y6674286D02*
X45560057Y6721905D01*
X45560057Y6721905D02*
X45655295Y6769524D01*
X45655295Y6769524D02*
X45750533Y6769524D01*
X45750533Y6769524D02*
X45893390Y6721905D01*
X45893390Y6721905D02*
X46464819Y6150477D01*
X46464819Y6150477D02*
X46464819Y6769524D01*
X45798152Y7626667D02*
X46464819Y7626667D01*
X45417200Y7388572D02*
X46131485Y7150477D01*
X46131485Y7150477D02*
X46131485Y7769524D01*
X60928571Y45568991D02*
X60595238Y45568991D01*
X60595238Y45045181D02*
X60595238Y46045181D01*
X60595238Y46045181D02*
X61071428Y46045181D01*
X61452381Y45045181D02*
X61452381Y46045181D01*
X61928571Y45045181D02*
X61928571Y46045181D01*
X61928571Y46045181D02*
X62166666Y46045181D01*
X62166666Y46045181D02*
X62309523Y45997562D01*
X62309523Y45997562D02*
X62404761Y45902324D01*
X62404761Y45902324D02*
X62452380Y45807086D01*
X62452380Y45807086D02*
X62499999Y45616610D01*
X62499999Y45616610D02*
X62499999Y45473753D01*
X62499999Y45473753D02*
X62452380Y45283277D01*
X62452380Y45283277D02*
X62404761Y45188039D01*
X62404761Y45188039D02*
X62309523Y45092800D01*
X62309523Y45092800D02*
X62166666Y45045181D01*
X62166666Y45045181D02*
X61928571Y45045181D01*
X62880952Y45949943D02*
X62928571Y45997562D01*
X62928571Y45997562D02*
X63023809Y46045181D01*
X63023809Y46045181D02*
X63261904Y46045181D01*
X63261904Y46045181D02*
X63357142Y45997562D01*
X63357142Y45997562D02*
X63404761Y45949943D01*
X63404761Y45949943D02*
X63452380Y45854705D01*
X63452380Y45854705D02*
X63452380Y45759467D01*
X63452380Y45759467D02*
X63404761Y45616610D01*
X63404761Y45616610D02*
X62833333Y45045181D01*
X62833333Y45045181D02*
X63452380Y45045181D01*
X21458333Y41040420D02*
X21410714Y40992800D01*
X21410714Y40992800D02*
X21267857Y40945181D01*
X21267857Y40945181D02*
X21172619Y40945181D01*
X21172619Y40945181D02*
X21029762Y40992800D01*
X21029762Y40992800D02*
X20934524Y41088039D01*
X20934524Y41088039D02*
X20886905Y41183277D01*
X20886905Y41183277D02*
X20839286Y41373753D01*
X20839286Y41373753D02*
X20839286Y41516610D01*
X20839286Y41516610D02*
X20886905Y41707086D01*
X20886905Y41707086D02*
X20934524Y41802324D01*
X20934524Y41802324D02*
X21029762Y41897562D01*
X21029762Y41897562D02*
X21172619Y41945181D01*
X21172619Y41945181D02*
X21267857Y41945181D01*
X21267857Y41945181D02*
X21410714Y41897562D01*
X21410714Y41897562D02*
X21458333Y41849943D01*
X22315476Y41945181D02*
X22125000Y41945181D01*
X22125000Y41945181D02*
X22029762Y41897562D01*
X22029762Y41897562D02*
X21982143Y41849943D01*
X21982143Y41849943D02*
X21886905Y41707086D01*
X21886905Y41707086D02*
X21839286Y41516610D01*
X21839286Y41516610D02*
X21839286Y41135658D01*
X21839286Y41135658D02*
X21886905Y41040420D01*
X21886905Y41040420D02*
X21934524Y40992800D01*
X21934524Y40992800D02*
X22029762Y40945181D01*
X22029762Y40945181D02*
X22220238Y40945181D01*
X22220238Y40945181D02*
X22315476Y40992800D01*
X22315476Y40992800D02*
X22363095Y41040420D01*
X22363095Y41040420D02*
X22410714Y41135658D01*
X22410714Y41135658D02*
X22410714Y41373753D01*
X22410714Y41373753D02*
X22363095Y41468991D01*
X22363095Y41468991D02*
X22315476Y41516610D01*
X22315476Y41516610D02*
X22220238Y41564229D01*
X22220238Y41564229D02*
X22029762Y41564229D01*
X22029762Y41564229D02*
X21934524Y41516610D01*
X21934524Y41516610D02*
X21886905Y41468991D01*
X21886905Y41468991D02*
X21839286Y41373753D01*
X52607142Y15895181D02*
X52273809Y16371372D01*
X52035714Y15895181D02*
X52035714Y16895181D01*
X52035714Y16895181D02*
X52416666Y16895181D01*
X52416666Y16895181D02*
X52511904Y16847562D01*
X52511904Y16847562D02*
X52559523Y16799943D01*
X52559523Y16799943D02*
X52607142Y16704705D01*
X52607142Y16704705D02*
X52607142Y16561848D01*
X52607142Y16561848D02*
X52559523Y16466610D01*
X52559523Y16466610D02*
X52511904Y16418991D01*
X52511904Y16418991D02*
X52416666Y16371372D01*
X52416666Y16371372D02*
X52035714Y16371372D01*
X53559523Y15895181D02*
X52988095Y15895181D01*
X53273809Y15895181D02*
X53273809Y16895181D01*
X53273809Y16895181D02*
X53178571Y16752324D01*
X53178571Y16752324D02*
X53083333Y16657086D01*
X53083333Y16657086D02*
X52988095Y16609467D01*
X54035714Y15895181D02*
X54226190Y15895181D01*
X54226190Y15895181D02*
X54321428Y15942800D01*
X54321428Y15942800D02*
X54369047Y15990420D01*
X54369047Y15990420D02*
X54464285Y16133277D01*
X54464285Y16133277D02*
X54511904Y16323753D01*
X54511904Y16323753D02*
X54511904Y16704705D01*
X54511904Y16704705D02*
X54464285Y16799943D01*
X54464285Y16799943D02*
X54416666Y16847562D01*
X54416666Y16847562D02*
X54321428Y16895181D01*
X54321428Y16895181D02*
X54130952Y16895181D01*
X54130952Y16895181D02*
X54035714Y16847562D01*
X54035714Y16847562D02*
X53988095Y16799943D01*
X53988095Y16799943D02*
X53940476Y16704705D01*
X53940476Y16704705D02*
X53940476Y16466610D01*
X53940476Y16466610D02*
X53988095Y16371372D01*
X53988095Y16371372D02*
X54035714Y16323753D01*
X54035714Y16323753D02*
X54130952Y16276134D01*
X54130952Y16276134D02*
X54321428Y16276134D01*
X54321428Y16276134D02*
X54416666Y16323753D01*
X54416666Y16323753D02*
X54464285Y16371372D01*
X54464285Y16371372D02*
X54511904Y16466610D01*
X39832142Y7840420D02*
X39784523Y7792800D01*
X39784523Y7792800D02*
X39641666Y7745181D01*
X39641666Y7745181D02*
X39546428Y7745181D01*
X39546428Y7745181D02*
X39403571Y7792800D01*
X39403571Y7792800D02*
X39308333Y7888039D01*
X39308333Y7888039D02*
X39260714Y7983277D01*
X39260714Y7983277D02*
X39213095Y8173753D01*
X39213095Y8173753D02*
X39213095Y8316610D01*
X39213095Y8316610D02*
X39260714Y8507086D01*
X39260714Y8507086D02*
X39308333Y8602324D01*
X39308333Y8602324D02*
X39403571Y8697562D01*
X39403571Y8697562D02*
X39546428Y8745181D01*
X39546428Y8745181D02*
X39641666Y8745181D01*
X39641666Y8745181D02*
X39784523Y8697562D01*
X39784523Y8697562D02*
X39832142Y8649943D01*
X40213095Y8649943D02*
X40260714Y8697562D01*
X40260714Y8697562D02*
X40355952Y8745181D01*
X40355952Y8745181D02*
X40594047Y8745181D01*
X40594047Y8745181D02*
X40689285Y8697562D01*
X40689285Y8697562D02*
X40736904Y8649943D01*
X40736904Y8649943D02*
X40784523Y8554705D01*
X40784523Y8554705D02*
X40784523Y8459467D01*
X40784523Y8459467D02*
X40736904Y8316610D01*
X40736904Y8316610D02*
X40165476Y7745181D01*
X40165476Y7745181D02*
X40784523Y7745181D01*
X41117857Y8745181D02*
X41736904Y8745181D01*
X41736904Y8745181D02*
X41403571Y8364229D01*
X41403571Y8364229D02*
X41546428Y8364229D01*
X41546428Y8364229D02*
X41641666Y8316610D01*
X41641666Y8316610D02*
X41689285Y8268991D01*
X41689285Y8268991D02*
X41736904Y8173753D01*
X41736904Y8173753D02*
X41736904Y7935658D01*
X41736904Y7935658D02*
X41689285Y7840420D01*
X41689285Y7840420D02*
X41641666Y7792800D01*
X41641666Y7792800D02*
X41546428Y7745181D01*
X41546428Y7745181D02*
X41260714Y7745181D01*
X41260714Y7745181D02*
X41165476Y7792800D01*
X41165476Y7792800D02*
X41117857Y7840420D01*
X20007142Y19295181D02*
X19673809Y19771372D01*
X19435714Y19295181D02*
X19435714Y20295181D01*
X19435714Y20295181D02*
X19816666Y20295181D01*
X19816666Y20295181D02*
X19911904Y20247562D01*
X19911904Y20247562D02*
X19959523Y20199943D01*
X19959523Y20199943D02*
X20007142Y20104705D01*
X20007142Y20104705D02*
X20007142Y19961848D01*
X20007142Y19961848D02*
X19959523Y19866610D01*
X19959523Y19866610D02*
X19911904Y19818991D01*
X19911904Y19818991D02*
X19816666Y19771372D01*
X19816666Y19771372D02*
X19435714Y19771372D01*
X20959523Y19295181D02*
X20388095Y19295181D01*
X20673809Y19295181D02*
X20673809Y20295181D01*
X20673809Y20295181D02*
X20578571Y20152324D01*
X20578571Y20152324D02*
X20483333Y20057086D01*
X20483333Y20057086D02*
X20388095Y20009467D01*
X21340476Y20199943D02*
X21388095Y20247562D01*
X21388095Y20247562D02*
X21483333Y20295181D01*
X21483333Y20295181D02*
X21721428Y20295181D01*
X21721428Y20295181D02*
X21816666Y20247562D01*
X21816666Y20247562D02*
X21864285Y20199943D01*
X21864285Y20199943D02*
X21911904Y20104705D01*
X21911904Y20104705D02*
X21911904Y20009467D01*
X21911904Y20009467D02*
X21864285Y19866610D01*
X21864285Y19866610D02*
X21292857Y19295181D01*
X21292857Y19295181D02*
X21911904Y19295181D01*
X28958333Y27990420D02*
X28910714Y27942800D01*
X28910714Y27942800D02*
X28767857Y27895181D01*
X28767857Y27895181D02*
X28672619Y27895181D01*
X28672619Y27895181D02*
X28529762Y27942800D01*
X28529762Y27942800D02*
X28434524Y28038039D01*
X28434524Y28038039D02*
X28386905Y28133277D01*
X28386905Y28133277D02*
X28339286Y28323753D01*
X28339286Y28323753D02*
X28339286Y28466610D01*
X28339286Y28466610D02*
X28386905Y28657086D01*
X28386905Y28657086D02*
X28434524Y28752324D01*
X28434524Y28752324D02*
X28529762Y28847562D01*
X28529762Y28847562D02*
X28672619Y28895181D01*
X28672619Y28895181D02*
X28767857Y28895181D01*
X28767857Y28895181D02*
X28910714Y28847562D01*
X28910714Y28847562D02*
X28958333Y28799943D01*
X29434524Y27895181D02*
X29625000Y27895181D01*
X29625000Y27895181D02*
X29720238Y27942800D01*
X29720238Y27942800D02*
X29767857Y27990420D01*
X29767857Y27990420D02*
X29863095Y28133277D01*
X29863095Y28133277D02*
X29910714Y28323753D01*
X29910714Y28323753D02*
X29910714Y28704705D01*
X29910714Y28704705D02*
X29863095Y28799943D01*
X29863095Y28799943D02*
X29815476Y28847562D01*
X29815476Y28847562D02*
X29720238Y28895181D01*
X29720238Y28895181D02*
X29529762Y28895181D01*
X29529762Y28895181D02*
X29434524Y28847562D01*
X29434524Y28847562D02*
X29386905Y28799943D01*
X29386905Y28799943D02*
X29339286Y28704705D01*
X29339286Y28704705D02*
X29339286Y28466610D01*
X29339286Y28466610D02*
X29386905Y28371372D01*
X29386905Y28371372D02*
X29434524Y28323753D01*
X29434524Y28323753D02*
X29529762Y28276134D01*
X29529762Y28276134D02*
X29720238Y28276134D01*
X29720238Y28276134D02*
X29815476Y28323753D01*
X29815476Y28323753D02*
X29863095Y28371372D01*
X29863095Y28371372D02*
X29910714Y28466610D01*
X27154819Y11782143D02*
X26678628Y11448810D01*
X27154819Y11210715D02*
X26154819Y11210715D01*
X26154819Y11210715D02*
X26154819Y11591667D01*
X26154819Y11591667D02*
X26202438Y11686905D01*
X26202438Y11686905D02*
X26250057Y11734524D01*
X26250057Y11734524D02*
X26345295Y11782143D01*
X26345295Y11782143D02*
X26488152Y11782143D01*
X26488152Y11782143D02*
X26583390Y11734524D01*
X26583390Y11734524D02*
X26631009Y11686905D01*
X26631009Y11686905D02*
X26678628Y11591667D01*
X26678628Y11591667D02*
X26678628Y11210715D01*
X27154819Y12734524D02*
X27154819Y12163096D01*
X27154819Y12448810D02*
X26154819Y12448810D01*
X26154819Y12448810D02*
X26297676Y12353572D01*
X26297676Y12353572D02*
X26392914Y12258334D01*
X26392914Y12258334D02*
X26440533Y12163096D01*
X26154819Y13067858D02*
X26154819Y13686905D01*
X26154819Y13686905D02*
X26535771Y13353572D01*
X26535771Y13353572D02*
X26535771Y13496429D01*
X26535771Y13496429D02*
X26583390Y13591667D01*
X26583390Y13591667D02*
X26631009Y13639286D01*
X26631009Y13639286D02*
X26726247Y13686905D01*
X26726247Y13686905D02*
X26964342Y13686905D01*
X26964342Y13686905D02*
X27059580Y13639286D01*
X27059580Y13639286D02*
X27107200Y13591667D01*
X27107200Y13591667D02*
X27154819Y13496429D01*
X27154819Y13496429D02*
X27154819Y13210715D01*
X27154819Y13210715D02*
X27107200Y13115477D01*
X27107200Y13115477D02*
X27059580Y13067858D01*
X54784580Y24382143D02*
X54832200Y24334524D01*
X54832200Y24334524D02*
X54879819Y24191667D01*
X54879819Y24191667D02*
X54879819Y24096429D01*
X54879819Y24096429D02*
X54832200Y23953572D01*
X54832200Y23953572D02*
X54736961Y23858334D01*
X54736961Y23858334D02*
X54641723Y23810715D01*
X54641723Y23810715D02*
X54451247Y23763096D01*
X54451247Y23763096D02*
X54308390Y23763096D01*
X54308390Y23763096D02*
X54117914Y23810715D01*
X54117914Y23810715D02*
X54022676Y23858334D01*
X54022676Y23858334D02*
X53927438Y23953572D01*
X53927438Y23953572D02*
X53879819Y24096429D01*
X53879819Y24096429D02*
X53879819Y24191667D01*
X53879819Y24191667D02*
X53927438Y24334524D01*
X53927438Y24334524D02*
X53975057Y24382143D01*
X53975057Y24763096D02*
X53927438Y24810715D01*
X53927438Y24810715D02*
X53879819Y24905953D01*
X53879819Y24905953D02*
X53879819Y25144048D01*
X53879819Y25144048D02*
X53927438Y25239286D01*
X53927438Y25239286D02*
X53975057Y25286905D01*
X53975057Y25286905D02*
X54070295Y25334524D01*
X54070295Y25334524D02*
X54165533Y25334524D01*
X54165533Y25334524D02*
X54308390Y25286905D01*
X54308390Y25286905D02*
X54879819Y24715477D01*
X54879819Y24715477D02*
X54879819Y25334524D01*
X53879819Y26191667D02*
X53879819Y26001191D01*
X53879819Y26001191D02*
X53927438Y25905953D01*
X53927438Y25905953D02*
X53975057Y25858334D01*
X53975057Y25858334D02*
X54117914Y25763096D01*
X54117914Y25763096D02*
X54308390Y25715477D01*
X54308390Y25715477D02*
X54689342Y25715477D01*
X54689342Y25715477D02*
X54784580Y25763096D01*
X54784580Y25763096D02*
X54832200Y25810715D01*
X54832200Y25810715D02*
X54879819Y25905953D01*
X54879819Y25905953D02*
X54879819Y26096429D01*
X54879819Y26096429D02*
X54832200Y26191667D01*
X54832200Y26191667D02*
X54784580Y26239286D01*
X54784580Y26239286D02*
X54689342Y26286905D01*
X54689342Y26286905D02*
X54451247Y26286905D01*
X54451247Y26286905D02*
X54356009Y26239286D01*
X54356009Y26239286D02*
X54308390Y26191667D01*
X54308390Y26191667D02*
X54260771Y26096429D01*
X54260771Y26096429D02*
X54260771Y25905953D01*
X54260771Y25905953D02*
X54308390Y25810715D01*
X54308390Y25810715D02*
X54356009Y25763096D01*
X54356009Y25763096D02*
X54451247Y25715477D01*
X9813333Y31870181D02*
X9480000Y32346372D01*
X9241905Y31870181D02*
X9241905Y32870181D01*
X9241905Y32870181D02*
X9622857Y32870181D01*
X9622857Y32870181D02*
X9718095Y32822562D01*
X9718095Y32822562D02*
X9765714Y32774943D01*
X9765714Y32774943D02*
X9813333Y32679705D01*
X9813333Y32679705D02*
X9813333Y32536848D01*
X9813333Y32536848D02*
X9765714Y32441610D01*
X9765714Y32441610D02*
X9718095Y32393991D01*
X9718095Y32393991D02*
X9622857Y32346372D01*
X9622857Y32346372D02*
X9241905Y32346372D01*
X10765714Y31870181D02*
X10194286Y31870181D01*
X10480000Y31870181D02*
X10480000Y32870181D01*
X10480000Y32870181D02*
X10384762Y32727324D01*
X10384762Y32727324D02*
X10289524Y32632086D01*
X10289524Y32632086D02*
X10194286Y32584467D01*
X21408333Y47215420D02*
X21360714Y47167800D01*
X21360714Y47167800D02*
X21217857Y47120181D01*
X21217857Y47120181D02*
X21122619Y47120181D01*
X21122619Y47120181D02*
X20979762Y47167800D01*
X20979762Y47167800D02*
X20884524Y47263039D01*
X20884524Y47263039D02*
X20836905Y47358277D01*
X20836905Y47358277D02*
X20789286Y47548753D01*
X20789286Y47548753D02*
X20789286Y47691610D01*
X20789286Y47691610D02*
X20836905Y47882086D01*
X20836905Y47882086D02*
X20884524Y47977324D01*
X20884524Y47977324D02*
X20979762Y48072562D01*
X20979762Y48072562D02*
X21122619Y48120181D01*
X21122619Y48120181D02*
X21217857Y48120181D01*
X21217857Y48120181D02*
X21360714Y48072562D01*
X21360714Y48072562D02*
X21408333Y48024943D01*
X22313095Y48120181D02*
X21836905Y48120181D01*
X21836905Y48120181D02*
X21789286Y47643991D01*
X21789286Y47643991D02*
X21836905Y47691610D01*
X21836905Y47691610D02*
X21932143Y47739229D01*
X21932143Y47739229D02*
X22170238Y47739229D01*
X22170238Y47739229D02*
X22265476Y47691610D01*
X22265476Y47691610D02*
X22313095Y47643991D01*
X22313095Y47643991D02*
X22360714Y47548753D01*
X22360714Y47548753D02*
X22360714Y47310658D01*
X22360714Y47310658D02*
X22313095Y47215420D01*
X22313095Y47215420D02*
X22265476Y47167800D01*
X22265476Y47167800D02*
X22170238Y47120181D01*
X22170238Y47120181D02*
X21932143Y47120181D01*
X21932143Y47120181D02*
X21836905Y47167800D01*
X21836905Y47167800D02*
X21789286Y47215420D01*
X21657142Y28765420D02*
X21609523Y28717800D01*
X21609523Y28717800D02*
X21466666Y28670181D01*
X21466666Y28670181D02*
X21371428Y28670181D01*
X21371428Y28670181D02*
X21228571Y28717800D01*
X21228571Y28717800D02*
X21133333Y28813039D01*
X21133333Y28813039D02*
X21085714Y28908277D01*
X21085714Y28908277D02*
X21038095Y29098753D01*
X21038095Y29098753D02*
X21038095Y29241610D01*
X21038095Y29241610D02*
X21085714Y29432086D01*
X21085714Y29432086D02*
X21133333Y29527324D01*
X21133333Y29527324D02*
X21228571Y29622562D01*
X21228571Y29622562D02*
X21371428Y29670181D01*
X21371428Y29670181D02*
X21466666Y29670181D01*
X21466666Y29670181D02*
X21609523Y29622562D01*
X21609523Y29622562D02*
X21657142Y29574943D01*
X22609523Y28670181D02*
X22038095Y28670181D01*
X22323809Y28670181D02*
X22323809Y29670181D01*
X22323809Y29670181D02*
X22228571Y29527324D01*
X22228571Y29527324D02*
X22133333Y29432086D01*
X22133333Y29432086D02*
X22038095Y29384467D01*
X22942857Y29670181D02*
X23561904Y29670181D01*
X23561904Y29670181D02*
X23228571Y29289229D01*
X23228571Y29289229D02*
X23371428Y29289229D01*
X23371428Y29289229D02*
X23466666Y29241610D01*
X23466666Y29241610D02*
X23514285Y29193991D01*
X23514285Y29193991D02*
X23561904Y29098753D01*
X23561904Y29098753D02*
X23561904Y28860658D01*
X23561904Y28860658D02*
X23514285Y28765420D01*
X23514285Y28765420D02*
X23466666Y28717800D01*
X23466666Y28717800D02*
X23371428Y28670181D01*
X23371428Y28670181D02*
X23085714Y28670181D01*
X23085714Y28670181D02*
X22990476Y28717800D01*
X22990476Y28717800D02*
X22942857Y28765420D01*
X54094819Y46217143D02*
X53618628Y45883810D01*
X54094819Y45645715D02*
X53094819Y45645715D01*
X53094819Y45645715D02*
X53094819Y46026667D01*
X53094819Y46026667D02*
X53142438Y46121905D01*
X53142438Y46121905D02*
X53190057Y46169524D01*
X53190057Y46169524D02*
X53285295Y46217143D01*
X53285295Y46217143D02*
X53428152Y46217143D01*
X53428152Y46217143D02*
X53523390Y46169524D01*
X53523390Y46169524D02*
X53571009Y46121905D01*
X53571009Y46121905D02*
X53618628Y46026667D01*
X53618628Y46026667D02*
X53618628Y45645715D01*
X54094819Y47169524D02*
X54094819Y46598096D01*
X54094819Y46883810D02*
X53094819Y46883810D01*
X53094819Y46883810D02*
X53237676Y46788572D01*
X53237676Y46788572D02*
X53332914Y46693334D01*
X53332914Y46693334D02*
X53380533Y46598096D01*
X53094819Y48074286D02*
X53094819Y47598096D01*
X53094819Y47598096D02*
X53571009Y47550477D01*
X53571009Y47550477D02*
X53523390Y47598096D01*
X53523390Y47598096D02*
X53475771Y47693334D01*
X53475771Y47693334D02*
X53475771Y47931429D01*
X53475771Y47931429D02*
X53523390Y48026667D01*
X53523390Y48026667D02*
X53571009Y48074286D01*
X53571009Y48074286D02*
X53666247Y48121905D01*
X53666247Y48121905D02*
X53904342Y48121905D01*
X53904342Y48121905D02*
X53999580Y48074286D01*
X53999580Y48074286D02*
X54047200Y48026667D01*
X54047200Y48026667D02*
X54094819Y47931429D01*
X54094819Y47931429D02*
X54094819Y47693334D01*
X54094819Y47693334D02*
X54047200Y47598096D01*
X54047200Y47598096D02*
X53999580Y47550477D01*
X60086666Y21975181D02*
X60086666Y21260896D01*
X60086666Y21260896D02*
X60039047Y21118039D01*
X60039047Y21118039D02*
X59943809Y21022800D01*
X59943809Y21022800D02*
X59800952Y20975181D01*
X59800952Y20975181D02*
X59705714Y20975181D01*
X60515238Y21879943D02*
X60562857Y21927562D01*
X60562857Y21927562D02*
X60658095Y21975181D01*
X60658095Y21975181D02*
X60896190Y21975181D01*
X60896190Y21975181D02*
X60991428Y21927562D01*
X60991428Y21927562D02*
X61039047Y21879943D01*
X61039047Y21879943D02*
X61086666Y21784705D01*
X61086666Y21784705D02*
X61086666Y21689467D01*
X61086666Y21689467D02*
X61039047Y21546610D01*
X61039047Y21546610D02*
X60467619Y20975181D01*
X60467619Y20975181D02*
X61086666Y20975181D01*
X21632142Y34365420D02*
X21584523Y34317800D01*
X21584523Y34317800D02*
X21441666Y34270181D01*
X21441666Y34270181D02*
X21346428Y34270181D01*
X21346428Y34270181D02*
X21203571Y34317800D01*
X21203571Y34317800D02*
X21108333Y34413039D01*
X21108333Y34413039D02*
X21060714Y34508277D01*
X21060714Y34508277D02*
X21013095Y34698753D01*
X21013095Y34698753D02*
X21013095Y34841610D01*
X21013095Y34841610D02*
X21060714Y35032086D01*
X21060714Y35032086D02*
X21108333Y35127324D01*
X21108333Y35127324D02*
X21203571Y35222562D01*
X21203571Y35222562D02*
X21346428Y35270181D01*
X21346428Y35270181D02*
X21441666Y35270181D01*
X21441666Y35270181D02*
X21584523Y35222562D01*
X21584523Y35222562D02*
X21632142Y35174943D01*
X22584523Y34270181D02*
X22013095Y34270181D01*
X22298809Y34270181D02*
X22298809Y35270181D01*
X22298809Y35270181D02*
X22203571Y35127324D01*
X22203571Y35127324D02*
X22108333Y35032086D01*
X22108333Y35032086D02*
X22013095Y34984467D01*
X23489285Y35270181D02*
X23013095Y35270181D01*
X23013095Y35270181D02*
X22965476Y34793991D01*
X22965476Y34793991D02*
X23013095Y34841610D01*
X23013095Y34841610D02*
X23108333Y34889229D01*
X23108333Y34889229D02*
X23346428Y34889229D01*
X23346428Y34889229D02*
X23441666Y34841610D01*
X23441666Y34841610D02*
X23489285Y34793991D01*
X23489285Y34793991D02*
X23536904Y34698753D01*
X23536904Y34698753D02*
X23536904Y34460658D01*
X23536904Y34460658D02*
X23489285Y34365420D01*
X23489285Y34365420D02*
X23441666Y34317800D01*
X23441666Y34317800D02*
X23346428Y34270181D01*
X23346428Y34270181D02*
X23108333Y34270181D01*
X23108333Y34270181D02*
X23013095Y34317800D01*
X23013095Y34317800D02*
X22965476Y34365420D01*
X48709580Y23407143D02*
X48757200Y23359524D01*
X48757200Y23359524D02*
X48804819Y23216667D01*
X48804819Y23216667D02*
X48804819Y23121429D01*
X48804819Y23121429D02*
X48757200Y22978572D01*
X48757200Y22978572D02*
X48661961Y22883334D01*
X48661961Y22883334D02*
X48566723Y22835715D01*
X48566723Y22835715D02*
X48376247Y22788096D01*
X48376247Y22788096D02*
X48233390Y22788096D01*
X48233390Y22788096D02*
X48042914Y22835715D01*
X48042914Y22835715D02*
X47947676Y22883334D01*
X47947676Y22883334D02*
X47852438Y22978572D01*
X47852438Y22978572D02*
X47804819Y23121429D01*
X47804819Y23121429D02*
X47804819Y23216667D01*
X47804819Y23216667D02*
X47852438Y23359524D01*
X47852438Y23359524D02*
X47900057Y23407143D01*
X47804819Y23740477D02*
X47804819Y24359524D01*
X47804819Y24359524D02*
X48185771Y24026191D01*
X48185771Y24026191D02*
X48185771Y24169048D01*
X48185771Y24169048D02*
X48233390Y24264286D01*
X48233390Y24264286D02*
X48281009Y24311905D01*
X48281009Y24311905D02*
X48376247Y24359524D01*
X48376247Y24359524D02*
X48614342Y24359524D01*
X48614342Y24359524D02*
X48709580Y24311905D01*
X48709580Y24311905D02*
X48757200Y24264286D01*
X48757200Y24264286D02*
X48804819Y24169048D01*
X48804819Y24169048D02*
X48804819Y23883334D01*
X48804819Y23883334D02*
X48757200Y23788096D01*
X48757200Y23788096D02*
X48709580Y23740477D01*
X47804819Y24978572D02*
X47804819Y25073810D01*
X47804819Y25073810D02*
X47852438Y25169048D01*
X47852438Y25169048D02*
X47900057Y25216667D01*
X47900057Y25216667D02*
X47995295Y25264286D01*
X47995295Y25264286D02*
X48185771Y25311905D01*
X48185771Y25311905D02*
X48423866Y25311905D01*
X48423866Y25311905D02*
X48614342Y25264286D01*
X48614342Y25264286D02*
X48709580Y25216667D01*
X48709580Y25216667D02*
X48757200Y25169048D01*
X48757200Y25169048D02*
X48804819Y25073810D01*
X48804819Y25073810D02*
X48804819Y24978572D01*
X48804819Y24978572D02*
X48757200Y24883334D01*
X48757200Y24883334D02*
X48709580Y24835715D01*
X48709580Y24835715D02*
X48614342Y24788096D01*
X48614342Y24788096D02*
X48423866Y24740477D01*
X48423866Y24740477D02*
X48185771Y24740477D01*
X48185771Y24740477D02*
X47995295Y24788096D01*
X47995295Y24788096D02*
X47900057Y24835715D01*
X47900057Y24835715D02*
X47852438Y24883334D01*
X47852438Y24883334D02*
X47804819Y24978572D01*
X56759580Y24407143D02*
X56807200Y24359524D01*
X56807200Y24359524D02*
X56854819Y24216667D01*
X56854819Y24216667D02*
X56854819Y24121429D01*
X56854819Y24121429D02*
X56807200Y23978572D01*
X56807200Y23978572D02*
X56711961Y23883334D01*
X56711961Y23883334D02*
X56616723Y23835715D01*
X56616723Y23835715D02*
X56426247Y23788096D01*
X56426247Y23788096D02*
X56283390Y23788096D01*
X56283390Y23788096D02*
X56092914Y23835715D01*
X56092914Y23835715D02*
X55997676Y23883334D01*
X55997676Y23883334D02*
X55902438Y23978572D01*
X55902438Y23978572D02*
X55854819Y24121429D01*
X55854819Y24121429D02*
X55854819Y24216667D01*
X55854819Y24216667D02*
X55902438Y24359524D01*
X55902438Y24359524D02*
X55950057Y24407143D01*
X55950057Y24788096D02*
X55902438Y24835715D01*
X55902438Y24835715D02*
X55854819Y24930953D01*
X55854819Y24930953D02*
X55854819Y25169048D01*
X55854819Y25169048D02*
X55902438Y25264286D01*
X55902438Y25264286D02*
X55950057Y25311905D01*
X55950057Y25311905D02*
X56045295Y25359524D01*
X56045295Y25359524D02*
X56140533Y25359524D01*
X56140533Y25359524D02*
X56283390Y25311905D01*
X56283390Y25311905D02*
X56854819Y24740477D01*
X56854819Y24740477D02*
X56854819Y25359524D01*
X55854819Y26264286D02*
X55854819Y25788096D01*
X55854819Y25788096D02*
X56331009Y25740477D01*
X56331009Y25740477D02*
X56283390Y25788096D01*
X56283390Y25788096D02*
X56235771Y25883334D01*
X56235771Y25883334D02*
X56235771Y26121429D01*
X56235771Y26121429D02*
X56283390Y26216667D01*
X56283390Y26216667D02*
X56331009Y26264286D01*
X56331009Y26264286D02*
X56426247Y26311905D01*
X56426247Y26311905D02*
X56664342Y26311905D01*
X56664342Y26311905D02*
X56759580Y26264286D01*
X56759580Y26264286D02*
X56807200Y26216667D01*
X56807200Y26216667D02*
X56854819Y26121429D01*
X56854819Y26121429D02*
X56854819Y25883334D01*
X56854819Y25883334D02*
X56807200Y25788096D01*
X56807200Y25788096D02*
X56759580Y25740477D01*
X39247142Y29535181D02*
X38913809Y30011372D01*
X38675714Y29535181D02*
X38675714Y30535181D01*
X38675714Y30535181D02*
X39056666Y30535181D01*
X39056666Y30535181D02*
X39151904Y30487562D01*
X39151904Y30487562D02*
X39199523Y30439943D01*
X39199523Y30439943D02*
X39247142Y30344705D01*
X39247142Y30344705D02*
X39247142Y30201848D01*
X39247142Y30201848D02*
X39199523Y30106610D01*
X39199523Y30106610D02*
X39151904Y30058991D01*
X39151904Y30058991D02*
X39056666Y30011372D01*
X39056666Y30011372D02*
X38675714Y30011372D01*
X39628095Y30439943D02*
X39675714Y30487562D01*
X39675714Y30487562D02*
X39770952Y30535181D01*
X39770952Y30535181D02*
X40009047Y30535181D01*
X40009047Y30535181D02*
X40104285Y30487562D01*
X40104285Y30487562D02*
X40151904Y30439943D01*
X40151904Y30439943D02*
X40199523Y30344705D01*
X40199523Y30344705D02*
X40199523Y30249467D01*
X40199523Y30249467D02*
X40151904Y30106610D01*
X40151904Y30106610D02*
X39580476Y29535181D01*
X39580476Y29535181D02*
X40199523Y29535181D01*
X40532857Y30535181D02*
X41151904Y30535181D01*
X41151904Y30535181D02*
X40818571Y30154229D01*
X40818571Y30154229D02*
X40961428Y30154229D01*
X40961428Y30154229D02*
X41056666Y30106610D01*
X41056666Y30106610D02*
X41104285Y30058991D01*
X41104285Y30058991D02*
X41151904Y29963753D01*
X41151904Y29963753D02*
X41151904Y29725658D01*
X41151904Y29725658D02*
X41104285Y29630420D01*
X41104285Y29630420D02*
X41056666Y29582800D01*
X41056666Y29582800D02*
X40961428Y29535181D01*
X40961428Y29535181D02*
X40675714Y29535181D01*
X40675714Y29535181D02*
X40580476Y29582800D01*
X40580476Y29582800D02*
X40532857Y29630420D01*
X49984580Y12332143D02*
X50032200Y12284524D01*
X50032200Y12284524D02*
X50079819Y12141667D01*
X50079819Y12141667D02*
X50079819Y12046429D01*
X50079819Y12046429D02*
X50032200Y11903572D01*
X50032200Y11903572D02*
X49936961Y11808334D01*
X49936961Y11808334D02*
X49841723Y11760715D01*
X49841723Y11760715D02*
X49651247Y11713096D01*
X49651247Y11713096D02*
X49508390Y11713096D01*
X49508390Y11713096D02*
X49317914Y11760715D01*
X49317914Y11760715D02*
X49222676Y11808334D01*
X49222676Y11808334D02*
X49127438Y11903572D01*
X49127438Y11903572D02*
X49079819Y12046429D01*
X49079819Y12046429D02*
X49079819Y12141667D01*
X49079819Y12141667D02*
X49127438Y12284524D01*
X49127438Y12284524D02*
X49175057Y12332143D01*
X49079819Y12665477D02*
X49079819Y13284524D01*
X49079819Y13284524D02*
X49460771Y12951191D01*
X49460771Y12951191D02*
X49460771Y13094048D01*
X49460771Y13094048D02*
X49508390Y13189286D01*
X49508390Y13189286D02*
X49556009Y13236905D01*
X49556009Y13236905D02*
X49651247Y13284524D01*
X49651247Y13284524D02*
X49889342Y13284524D01*
X49889342Y13284524D02*
X49984580Y13236905D01*
X49984580Y13236905D02*
X50032200Y13189286D01*
X50032200Y13189286D02*
X50079819Y13094048D01*
X50079819Y13094048D02*
X50079819Y12808334D01*
X50079819Y12808334D02*
X50032200Y12713096D01*
X50032200Y12713096D02*
X49984580Y12665477D01*
X50079819Y14236905D02*
X50079819Y13665477D01*
X50079819Y13951191D02*
X49079819Y13951191D01*
X49079819Y13951191D02*
X49222676Y13855953D01*
X49222676Y13855953D02*
X49317914Y13760715D01*
X49317914Y13760715D02*
X49365533Y13665477D01*
X9236905Y26595181D02*
X9236905Y27595181D01*
X9236905Y27595181D02*
X9475000Y27595181D01*
X9475000Y27595181D02*
X9617857Y27547562D01*
X9617857Y27547562D02*
X9713095Y27452324D01*
X9713095Y27452324D02*
X9760714Y27357086D01*
X9760714Y27357086D02*
X9808333Y27166610D01*
X9808333Y27166610D02*
X9808333Y27023753D01*
X9808333Y27023753D02*
X9760714Y26833277D01*
X9760714Y26833277D02*
X9713095Y26738039D01*
X9713095Y26738039D02*
X9617857Y26642800D01*
X9617857Y26642800D02*
X9475000Y26595181D01*
X9475000Y26595181D02*
X9236905Y26595181D01*
X10760714Y26595181D02*
X10189286Y26595181D01*
X10475000Y26595181D02*
X10475000Y27595181D01*
X10475000Y27595181D02*
X10379762Y27452324D01*
X10379762Y27452324D02*
X10284524Y27357086D01*
X10284524Y27357086D02*
X10189286Y27309467D01*
X41384819Y15961096D02*
X42194342Y15961096D01*
X42194342Y15961096D02*
X42289580Y16008715D01*
X42289580Y16008715D02*
X42337200Y16056334D01*
X42337200Y16056334D02*
X42384819Y16151572D01*
X42384819Y16151572D02*
X42384819Y16342048D01*
X42384819Y16342048D02*
X42337200Y16437286D01*
X42337200Y16437286D02*
X42289580Y16484905D01*
X42289580Y16484905D02*
X42194342Y16532524D01*
X42194342Y16532524D02*
X41384819Y16532524D01*
X41384819Y17437286D02*
X41384819Y17246810D01*
X41384819Y17246810D02*
X41432438Y17151572D01*
X41432438Y17151572D02*
X41480057Y17103953D01*
X41480057Y17103953D02*
X41622914Y17008715D01*
X41622914Y17008715D02*
X41813390Y16961096D01*
X41813390Y16961096D02*
X42194342Y16961096D01*
X42194342Y16961096D02*
X42289580Y17008715D01*
X42289580Y17008715D02*
X42337200Y17056334D01*
X42337200Y17056334D02*
X42384819Y17151572D01*
X42384819Y17151572D02*
X42384819Y17342048D01*
X42384819Y17342048D02*
X42337200Y17437286D01*
X42337200Y17437286D02*
X42289580Y17484905D01*
X42289580Y17484905D02*
X42194342Y17532524D01*
X42194342Y17532524D02*
X41956247Y17532524D01*
X41956247Y17532524D02*
X41861009Y17484905D01*
X41861009Y17484905D02*
X41813390Y17437286D01*
X41813390Y17437286D02*
X41765771Y17342048D01*
X41765771Y17342048D02*
X41765771Y17151572D01*
X41765771Y17151572D02*
X41813390Y17056334D01*
X41813390Y17056334D02*
X41861009Y17008715D01*
X41861009Y17008715D02*
X41956247Y16961096D01*
X52604819Y25763096D02*
X53414342Y25763096D01*
X53414342Y25763096D02*
X53509580Y25810715D01*
X53509580Y25810715D02*
X53557200Y25858334D01*
X53557200Y25858334D02*
X53604819Y25953572D01*
X53604819Y25953572D02*
X53604819Y26144048D01*
X53604819Y26144048D02*
X53557200Y26239286D01*
X53557200Y26239286D02*
X53509580Y26286905D01*
X53509580Y26286905D02*
X53414342Y26334524D01*
X53414342Y26334524D02*
X52604819Y26334524D01*
X52604819Y27286905D02*
X52604819Y26810715D01*
X52604819Y26810715D02*
X53081009Y26763096D01*
X53081009Y26763096D02*
X53033390Y26810715D01*
X53033390Y26810715D02*
X52985771Y26905953D01*
X52985771Y26905953D02*
X52985771Y27144048D01*
X52985771Y27144048D02*
X53033390Y27239286D01*
X53033390Y27239286D02*
X53081009Y27286905D01*
X53081009Y27286905D02*
X53176247Y27334524D01*
X53176247Y27334524D02*
X53414342Y27334524D01*
X53414342Y27334524D02*
X53509580Y27286905D01*
X53509580Y27286905D02*
X53557200Y27239286D01*
X53557200Y27239286D02*
X53604819Y27144048D01*
X53604819Y27144048D02*
X53604819Y26905953D01*
X53604819Y26905953D02*
X53557200Y26810715D01*
X53557200Y26810715D02*
X53509580Y26763096D01*
X26383333Y34340420D02*
X26335714Y34292800D01*
X26335714Y34292800D02*
X26192857Y34245181D01*
X26192857Y34245181D02*
X26097619Y34245181D01*
X26097619Y34245181D02*
X25954762Y34292800D01*
X25954762Y34292800D02*
X25859524Y34388039D01*
X25859524Y34388039D02*
X25811905Y34483277D01*
X25811905Y34483277D02*
X25764286Y34673753D01*
X25764286Y34673753D02*
X25764286Y34816610D01*
X25764286Y34816610D02*
X25811905Y35007086D01*
X25811905Y35007086D02*
X25859524Y35102324D01*
X25859524Y35102324D02*
X25954762Y35197562D01*
X25954762Y35197562D02*
X26097619Y35245181D01*
X26097619Y35245181D02*
X26192857Y35245181D01*
X26192857Y35245181D02*
X26335714Y35197562D01*
X26335714Y35197562D02*
X26383333Y35149943D01*
X26954762Y34816610D02*
X26859524Y34864229D01*
X26859524Y34864229D02*
X26811905Y34911848D01*
X26811905Y34911848D02*
X26764286Y35007086D01*
X26764286Y35007086D02*
X26764286Y35054705D01*
X26764286Y35054705D02*
X26811905Y35149943D01*
X26811905Y35149943D02*
X26859524Y35197562D01*
X26859524Y35197562D02*
X26954762Y35245181D01*
X26954762Y35245181D02*
X27145238Y35245181D01*
X27145238Y35245181D02*
X27240476Y35197562D01*
X27240476Y35197562D02*
X27288095Y35149943D01*
X27288095Y35149943D02*
X27335714Y35054705D01*
X27335714Y35054705D02*
X27335714Y35007086D01*
X27335714Y35007086D02*
X27288095Y34911848D01*
X27288095Y34911848D02*
X27240476Y34864229D01*
X27240476Y34864229D02*
X27145238Y34816610D01*
X27145238Y34816610D02*
X26954762Y34816610D01*
X26954762Y34816610D02*
X26859524Y34768991D01*
X26859524Y34768991D02*
X26811905Y34721372D01*
X26811905Y34721372D02*
X26764286Y34626134D01*
X26764286Y34626134D02*
X26764286Y34435658D01*
X26764286Y34435658D02*
X26811905Y34340420D01*
X26811905Y34340420D02*
X26859524Y34292800D01*
X26859524Y34292800D02*
X26954762Y34245181D01*
X26954762Y34245181D02*
X27145238Y34245181D01*
X27145238Y34245181D02*
X27240476Y34292800D01*
X27240476Y34292800D02*
X27288095Y34340420D01*
X27288095Y34340420D02*
X27335714Y34435658D01*
X27335714Y34435658D02*
X27335714Y34626134D01*
X27335714Y34626134D02*
X27288095Y34721372D01*
X27288095Y34721372D02*
X27240476Y34768991D01*
X27240476Y34768991D02*
X27145238Y34816610D01*
X34482142Y20495181D02*
X34148809Y20971372D01*
X33910714Y20495181D02*
X33910714Y21495181D01*
X33910714Y21495181D02*
X34291666Y21495181D01*
X34291666Y21495181D02*
X34386904Y21447562D01*
X34386904Y21447562D02*
X34434523Y21399943D01*
X34434523Y21399943D02*
X34482142Y21304705D01*
X34482142Y21304705D02*
X34482142Y21161848D01*
X34482142Y21161848D02*
X34434523Y21066610D01*
X34434523Y21066610D02*
X34386904Y21018991D01*
X34386904Y21018991D02*
X34291666Y20971372D01*
X34291666Y20971372D02*
X33910714Y20971372D01*
X34863095Y21399943D02*
X34910714Y21447562D01*
X34910714Y21447562D02*
X35005952Y21495181D01*
X35005952Y21495181D02*
X35244047Y21495181D01*
X35244047Y21495181D02*
X35339285Y21447562D01*
X35339285Y21447562D02*
X35386904Y21399943D01*
X35386904Y21399943D02*
X35434523Y21304705D01*
X35434523Y21304705D02*
X35434523Y21209467D01*
X35434523Y21209467D02*
X35386904Y21066610D01*
X35386904Y21066610D02*
X34815476Y20495181D01*
X34815476Y20495181D02*
X35434523Y20495181D01*
X36386904Y20495181D02*
X35815476Y20495181D01*
X36101190Y20495181D02*
X36101190Y21495181D01*
X36101190Y21495181D02*
X36005952Y21352324D01*
X36005952Y21352324D02*
X35910714Y21257086D01*
X35910714Y21257086D02*
X35815476Y21209467D01*
X13704819Y19833334D02*
X13228628Y19500001D01*
X13704819Y19261906D02*
X12704819Y19261906D01*
X12704819Y19261906D02*
X12704819Y19642858D01*
X12704819Y19642858D02*
X12752438Y19738096D01*
X12752438Y19738096D02*
X12800057Y19785715D01*
X12800057Y19785715D02*
X12895295Y19833334D01*
X12895295Y19833334D02*
X13038152Y19833334D01*
X13038152Y19833334D02*
X13133390Y19785715D01*
X13133390Y19785715D02*
X13181009Y19738096D01*
X13181009Y19738096D02*
X13228628Y19642858D01*
X13228628Y19642858D02*
X13228628Y19261906D01*
X13133390Y20404763D02*
X13085771Y20309525D01*
X13085771Y20309525D02*
X13038152Y20261906D01*
X13038152Y20261906D02*
X12942914Y20214287D01*
X12942914Y20214287D02*
X12895295Y20214287D01*
X12895295Y20214287D02*
X12800057Y20261906D01*
X12800057Y20261906D02*
X12752438Y20309525D01*
X12752438Y20309525D02*
X12704819Y20404763D01*
X12704819Y20404763D02*
X12704819Y20595239D01*
X12704819Y20595239D02*
X12752438Y20690477D01*
X12752438Y20690477D02*
X12800057Y20738096D01*
X12800057Y20738096D02*
X12895295Y20785715D01*
X12895295Y20785715D02*
X12942914Y20785715D01*
X12942914Y20785715D02*
X13038152Y20738096D01*
X13038152Y20738096D02*
X13085771Y20690477D01*
X13085771Y20690477D02*
X13133390Y20595239D01*
X13133390Y20595239D02*
X13133390Y20404763D01*
X13133390Y20404763D02*
X13181009Y20309525D01*
X13181009Y20309525D02*
X13228628Y20261906D01*
X13228628Y20261906D02*
X13323866Y20214287D01*
X13323866Y20214287D02*
X13514342Y20214287D01*
X13514342Y20214287D02*
X13609580Y20261906D01*
X13609580Y20261906D02*
X13657200Y20309525D01*
X13657200Y20309525D02*
X13704819Y20404763D01*
X13704819Y20404763D02*
X13704819Y20595239D01*
X13704819Y20595239D02*
X13657200Y20690477D01*
X13657200Y20690477D02*
X13609580Y20738096D01*
X13609580Y20738096D02*
X13514342Y20785715D01*
X13514342Y20785715D02*
X13323866Y20785715D01*
X13323866Y20785715D02*
X13228628Y20738096D01*
X13228628Y20738096D02*
X13181009Y20690477D01*
X13181009Y20690477D02*
X13133390Y20595239D01*
X27054819Y18707143D02*
X26578628Y18373810D01*
X27054819Y18135715D02*
X26054819Y18135715D01*
X26054819Y18135715D02*
X26054819Y18516667D01*
X26054819Y18516667D02*
X26102438Y18611905D01*
X26102438Y18611905D02*
X26150057Y18659524D01*
X26150057Y18659524D02*
X26245295Y18707143D01*
X26245295Y18707143D02*
X26388152Y18707143D01*
X26388152Y18707143D02*
X26483390Y18659524D01*
X26483390Y18659524D02*
X26531009Y18611905D01*
X26531009Y18611905D02*
X26578628Y18516667D01*
X26578628Y18516667D02*
X26578628Y18135715D01*
X27054819Y19659524D02*
X27054819Y19088096D01*
X27054819Y19373810D02*
X26054819Y19373810D01*
X26054819Y19373810D02*
X26197676Y19278572D01*
X26197676Y19278572D02*
X26292914Y19183334D01*
X26292914Y19183334D02*
X26340533Y19088096D01*
X26388152Y20516667D02*
X27054819Y20516667D01*
X26007200Y20278572D02*
X26721485Y20040477D01*
X26721485Y20040477D02*
X26721485Y20659524D01*
X49607142Y15915420D02*
X49559523Y15867800D01*
X49559523Y15867800D02*
X49416666Y15820181D01*
X49416666Y15820181D02*
X49321428Y15820181D01*
X49321428Y15820181D02*
X49178571Y15867800D01*
X49178571Y15867800D02*
X49083333Y15963039D01*
X49083333Y15963039D02*
X49035714Y16058277D01*
X49035714Y16058277D02*
X48988095Y16248753D01*
X48988095Y16248753D02*
X48988095Y16391610D01*
X48988095Y16391610D02*
X49035714Y16582086D01*
X49035714Y16582086D02*
X49083333Y16677324D01*
X49083333Y16677324D02*
X49178571Y16772562D01*
X49178571Y16772562D02*
X49321428Y16820181D01*
X49321428Y16820181D02*
X49416666Y16820181D01*
X49416666Y16820181D02*
X49559523Y16772562D01*
X49559523Y16772562D02*
X49607142Y16724943D01*
X50559523Y15820181D02*
X49988095Y15820181D01*
X50273809Y15820181D02*
X50273809Y16820181D01*
X50273809Y16820181D02*
X50178571Y16677324D01*
X50178571Y16677324D02*
X50083333Y16582086D01*
X50083333Y16582086D02*
X49988095Y16534467D01*
X50940476Y16724943D02*
X50988095Y16772562D01*
X50988095Y16772562D02*
X51083333Y16820181D01*
X51083333Y16820181D02*
X51321428Y16820181D01*
X51321428Y16820181D02*
X51416666Y16772562D01*
X51416666Y16772562D02*
X51464285Y16724943D01*
X51464285Y16724943D02*
X51511904Y16629705D01*
X51511904Y16629705D02*
X51511904Y16534467D01*
X51511904Y16534467D02*
X51464285Y16391610D01*
X51464285Y16391610D02*
X50892857Y15820181D01*
X50892857Y15820181D02*
X51511904Y15820181D01*
X58029580Y7747143D02*
X58077200Y7699524D01*
X58077200Y7699524D02*
X58124819Y7556667D01*
X58124819Y7556667D02*
X58124819Y7461429D01*
X58124819Y7461429D02*
X58077200Y7318572D01*
X58077200Y7318572D02*
X57981961Y7223334D01*
X57981961Y7223334D02*
X57886723Y7175715D01*
X57886723Y7175715D02*
X57696247Y7128096D01*
X57696247Y7128096D02*
X57553390Y7128096D01*
X57553390Y7128096D02*
X57362914Y7175715D01*
X57362914Y7175715D02*
X57267676Y7223334D01*
X57267676Y7223334D02*
X57172438Y7318572D01*
X57172438Y7318572D02*
X57124819Y7461429D01*
X57124819Y7461429D02*
X57124819Y7556667D01*
X57124819Y7556667D02*
X57172438Y7699524D01*
X57172438Y7699524D02*
X57220057Y7747143D01*
X57220057Y8128096D02*
X57172438Y8175715D01*
X57172438Y8175715D02*
X57124819Y8270953D01*
X57124819Y8270953D02*
X57124819Y8509048D01*
X57124819Y8509048D02*
X57172438Y8604286D01*
X57172438Y8604286D02*
X57220057Y8651905D01*
X57220057Y8651905D02*
X57315295Y8699524D01*
X57315295Y8699524D02*
X57410533Y8699524D01*
X57410533Y8699524D02*
X57553390Y8651905D01*
X57553390Y8651905D02*
X58124819Y8080477D01*
X58124819Y8080477D02*
X58124819Y8699524D01*
X57220057Y9080477D02*
X57172438Y9128096D01*
X57172438Y9128096D02*
X57124819Y9223334D01*
X57124819Y9223334D02*
X57124819Y9461429D01*
X57124819Y9461429D02*
X57172438Y9556667D01*
X57172438Y9556667D02*
X57220057Y9604286D01*
X57220057Y9604286D02*
X57315295Y9651905D01*
X57315295Y9651905D02*
X57410533Y9651905D01*
X57410533Y9651905D02*
X57553390Y9604286D01*
X57553390Y9604286D02*
X58124819Y9032858D01*
X58124819Y9032858D02*
X58124819Y9651905D01*
X48669580Y5817143D02*
X48717200Y5769524D01*
X48717200Y5769524D02*
X48764819Y5626667D01*
X48764819Y5626667D02*
X48764819Y5531429D01*
X48764819Y5531429D02*
X48717200Y5388572D01*
X48717200Y5388572D02*
X48621961Y5293334D01*
X48621961Y5293334D02*
X48526723Y5245715D01*
X48526723Y5245715D02*
X48336247Y5198096D01*
X48336247Y5198096D02*
X48193390Y5198096D01*
X48193390Y5198096D02*
X48002914Y5245715D01*
X48002914Y5245715D02*
X47907676Y5293334D01*
X47907676Y5293334D02*
X47812438Y5388572D01*
X47812438Y5388572D02*
X47764819Y5531429D01*
X47764819Y5531429D02*
X47764819Y5626667D01*
X47764819Y5626667D02*
X47812438Y5769524D01*
X47812438Y5769524D02*
X47860057Y5817143D01*
X47860057Y6198096D02*
X47812438Y6245715D01*
X47812438Y6245715D02*
X47764819Y6340953D01*
X47764819Y6340953D02*
X47764819Y6579048D01*
X47764819Y6579048D02*
X47812438Y6674286D01*
X47812438Y6674286D02*
X47860057Y6721905D01*
X47860057Y6721905D02*
X47955295Y6769524D01*
X47955295Y6769524D02*
X48050533Y6769524D01*
X48050533Y6769524D02*
X48193390Y6721905D01*
X48193390Y6721905D02*
X48764819Y6150477D01*
X48764819Y6150477D02*
X48764819Y6769524D01*
X47764819Y7102858D02*
X47764819Y7769524D01*
X47764819Y7769524D02*
X48764819Y7340953D01*
X34387142Y26245181D02*
X34053809Y26721372D01*
X33815714Y26245181D02*
X33815714Y27245181D01*
X33815714Y27245181D02*
X34196666Y27245181D01*
X34196666Y27245181D02*
X34291904Y27197562D01*
X34291904Y27197562D02*
X34339523Y27149943D01*
X34339523Y27149943D02*
X34387142Y27054705D01*
X34387142Y27054705D02*
X34387142Y26911848D01*
X34387142Y26911848D02*
X34339523Y26816610D01*
X34339523Y26816610D02*
X34291904Y26768991D01*
X34291904Y26768991D02*
X34196666Y26721372D01*
X34196666Y26721372D02*
X33815714Y26721372D01*
X34768095Y27149943D02*
X34815714Y27197562D01*
X34815714Y27197562D02*
X34910952Y27245181D01*
X34910952Y27245181D02*
X35149047Y27245181D01*
X35149047Y27245181D02*
X35244285Y27197562D01*
X35244285Y27197562D02*
X35291904Y27149943D01*
X35291904Y27149943D02*
X35339523Y27054705D01*
X35339523Y27054705D02*
X35339523Y26959467D01*
X35339523Y26959467D02*
X35291904Y26816610D01*
X35291904Y26816610D02*
X34720476Y26245181D01*
X34720476Y26245181D02*
X35339523Y26245181D01*
X35720476Y27149943D02*
X35768095Y27197562D01*
X35768095Y27197562D02*
X35863333Y27245181D01*
X35863333Y27245181D02*
X36101428Y27245181D01*
X36101428Y27245181D02*
X36196666Y27197562D01*
X36196666Y27197562D02*
X36244285Y27149943D01*
X36244285Y27149943D02*
X36291904Y27054705D01*
X36291904Y27054705D02*
X36291904Y26959467D01*
X36291904Y26959467D02*
X36244285Y26816610D01*
X36244285Y26816610D02*
X35672857Y26245181D01*
X35672857Y26245181D02*
X36291904Y26245181D01*
X55428571Y1568991D02*
X55095238Y1568991D01*
X55095238Y1045181D02*
X55095238Y2045181D01*
X55095238Y2045181D02*
X55571428Y2045181D01*
X55952381Y1045181D02*
X55952381Y2045181D01*
X56428571Y1045181D02*
X56428571Y2045181D01*
X56428571Y2045181D02*
X56666666Y2045181D01*
X56666666Y2045181D02*
X56809523Y1997562D01*
X56809523Y1997562D02*
X56904761Y1902324D01*
X56904761Y1902324D02*
X56952380Y1807086D01*
X56952380Y1807086D02*
X56999999Y1616610D01*
X56999999Y1616610D02*
X56999999Y1473753D01*
X56999999Y1473753D02*
X56952380Y1283277D01*
X56952380Y1283277D02*
X56904761Y1188039D01*
X56904761Y1188039D02*
X56809523Y1092800D01*
X56809523Y1092800D02*
X56666666Y1045181D01*
X56666666Y1045181D02*
X56428571Y1045181D01*
X57333333Y2045181D02*
X57952380Y2045181D01*
X57952380Y2045181D02*
X57619047Y1664229D01*
X57619047Y1664229D02*
X57761904Y1664229D01*
X57761904Y1664229D02*
X57857142Y1616610D01*
X57857142Y1616610D02*
X57904761Y1568991D01*
X57904761Y1568991D02*
X57952380Y1473753D01*
X57952380Y1473753D02*
X57952380Y1235658D01*
X57952380Y1235658D02*
X57904761Y1140420D01*
X57904761Y1140420D02*
X57857142Y1092800D01*
X57857142Y1092800D02*
X57761904Y1045181D01*
X57761904Y1045181D02*
X57476190Y1045181D01*
X57476190Y1045181D02*
X57380952Y1092800D01*
X57380952Y1092800D02*
X57333333Y1140420D01*
X55732142Y15870181D02*
X55398809Y16346372D01*
X55160714Y15870181D02*
X55160714Y16870181D01*
X55160714Y16870181D02*
X55541666Y16870181D01*
X55541666Y16870181D02*
X55636904Y16822562D01*
X55636904Y16822562D02*
X55684523Y16774943D01*
X55684523Y16774943D02*
X55732142Y16679705D01*
X55732142Y16679705D02*
X55732142Y16536848D01*
X55732142Y16536848D02*
X55684523Y16441610D01*
X55684523Y16441610D02*
X55636904Y16393991D01*
X55636904Y16393991D02*
X55541666Y16346372D01*
X55541666Y16346372D02*
X55160714Y16346372D01*
X56684523Y15870181D02*
X56113095Y15870181D01*
X56398809Y15870181D02*
X56398809Y16870181D01*
X56398809Y16870181D02*
X56303571Y16727324D01*
X56303571Y16727324D02*
X56208333Y16632086D01*
X56208333Y16632086D02*
X56113095Y16584467D01*
X57255952Y16441610D02*
X57160714Y16489229D01*
X57160714Y16489229D02*
X57113095Y16536848D01*
X57113095Y16536848D02*
X57065476Y16632086D01*
X57065476Y16632086D02*
X57065476Y16679705D01*
X57065476Y16679705D02*
X57113095Y16774943D01*
X57113095Y16774943D02*
X57160714Y16822562D01*
X57160714Y16822562D02*
X57255952Y16870181D01*
X57255952Y16870181D02*
X57446428Y16870181D01*
X57446428Y16870181D02*
X57541666Y16822562D01*
X57541666Y16822562D02*
X57589285Y16774943D01*
X57589285Y16774943D02*
X57636904Y16679705D01*
X57636904Y16679705D02*
X57636904Y16632086D01*
X57636904Y16632086D02*
X57589285Y16536848D01*
X57589285Y16536848D02*
X57541666Y16489229D01*
X57541666Y16489229D02*
X57446428Y16441610D01*
X57446428Y16441610D02*
X57255952Y16441610D01*
X57255952Y16441610D02*
X57160714Y16393991D01*
X57160714Y16393991D02*
X57113095Y16346372D01*
X57113095Y16346372D02*
X57065476Y16251134D01*
X57065476Y16251134D02*
X57065476Y16060658D01*
X57065476Y16060658D02*
X57113095Y15965420D01*
X57113095Y15965420D02*
X57160714Y15917800D01*
X57160714Y15917800D02*
X57255952Y15870181D01*
X57255952Y15870181D02*
X57446428Y15870181D01*
X57446428Y15870181D02*
X57541666Y15917800D01*
X57541666Y15917800D02*
X57589285Y15965420D01*
X57589285Y15965420D02*
X57636904Y16060658D01*
X57636904Y16060658D02*
X57636904Y16251134D01*
X57636904Y16251134D02*
X57589285Y16346372D01*
X57589285Y16346372D02*
X57541666Y16393991D01*
X57541666Y16393991D02*
X57446428Y16441610D01*
X48659580Y20582143D02*
X48707200Y20534524D01*
X48707200Y20534524D02*
X48754819Y20391667D01*
X48754819Y20391667D02*
X48754819Y20296429D01*
X48754819Y20296429D02*
X48707200Y20153572D01*
X48707200Y20153572D02*
X48611961Y20058334D01*
X48611961Y20058334D02*
X48516723Y20010715D01*
X48516723Y20010715D02*
X48326247Y19963096D01*
X48326247Y19963096D02*
X48183390Y19963096D01*
X48183390Y19963096D02*
X47992914Y20010715D01*
X47992914Y20010715D02*
X47897676Y20058334D01*
X47897676Y20058334D02*
X47802438Y20153572D01*
X47802438Y20153572D02*
X47754819Y20296429D01*
X47754819Y20296429D02*
X47754819Y20391667D01*
X47754819Y20391667D02*
X47802438Y20534524D01*
X47802438Y20534524D02*
X47850057Y20582143D01*
X47850057Y20963096D02*
X47802438Y21010715D01*
X47802438Y21010715D02*
X47754819Y21105953D01*
X47754819Y21105953D02*
X47754819Y21344048D01*
X47754819Y21344048D02*
X47802438Y21439286D01*
X47802438Y21439286D02*
X47850057Y21486905D01*
X47850057Y21486905D02*
X47945295Y21534524D01*
X47945295Y21534524D02*
X48040533Y21534524D01*
X48040533Y21534524D02*
X48183390Y21486905D01*
X48183390Y21486905D02*
X48754819Y20915477D01*
X48754819Y20915477D02*
X48754819Y21534524D01*
X48754819Y22010715D02*
X48754819Y22201191D01*
X48754819Y22201191D02*
X48707200Y22296429D01*
X48707200Y22296429D02*
X48659580Y22344048D01*
X48659580Y22344048D02*
X48516723Y22439286D01*
X48516723Y22439286D02*
X48326247Y22486905D01*
X48326247Y22486905D02*
X47945295Y22486905D01*
X47945295Y22486905D02*
X47850057Y22439286D01*
X47850057Y22439286D02*
X47802438Y22391667D01*
X47802438Y22391667D02*
X47754819Y22296429D01*
X47754819Y22296429D02*
X47754819Y22105953D01*
X47754819Y22105953D02*
X47802438Y22010715D01*
X47802438Y22010715D02*
X47850057Y21963096D01*
X47850057Y21963096D02*
X47945295Y21915477D01*
X47945295Y21915477D02*
X48183390Y21915477D01*
X48183390Y21915477D02*
X48278628Y21963096D01*
X48278628Y21963096D02*
X48326247Y22010715D01*
X48326247Y22010715D02*
X48373866Y22105953D01*
X48373866Y22105953D02*
X48373866Y22296429D01*
X48373866Y22296429D02*
X48326247Y22391667D01*
X48326247Y22391667D02*
X48278628Y22439286D01*
X48278628Y22439286D02*
X48183390Y22486905D01*
X15838095Y22945181D02*
X15838095Y22135658D01*
X15838095Y22135658D02*
X15885714Y22040420D01*
X15885714Y22040420D02*
X15933333Y21992800D01*
X15933333Y21992800D02*
X16028571Y21945181D01*
X16028571Y21945181D02*
X16219047Y21945181D01*
X16219047Y21945181D02*
X16314285Y21992800D01*
X16314285Y21992800D02*
X16361904Y22040420D01*
X16361904Y22040420D02*
X16409523Y22135658D01*
X16409523Y22135658D02*
X16409523Y22945181D01*
X17314285Y22611848D02*
X17314285Y21945181D01*
X17076190Y22992800D02*
X16838095Y22278515D01*
X16838095Y22278515D02*
X17457142Y22278515D01*
X28204819Y29288096D02*
X29014342Y29288096D01*
X29014342Y29288096D02*
X29109580Y29335715D01*
X29109580Y29335715D02*
X29157200Y29383334D01*
X29157200Y29383334D02*
X29204819Y29478572D01*
X29204819Y29478572D02*
X29204819Y29669048D01*
X29204819Y29669048D02*
X29157200Y29764286D01*
X29157200Y29764286D02*
X29109580Y29811905D01*
X29109580Y29811905D02*
X29014342Y29859524D01*
X29014342Y29859524D02*
X28204819Y29859524D01*
X28204819Y30240477D02*
X28204819Y30859524D01*
X28204819Y30859524D02*
X28585771Y30526191D01*
X28585771Y30526191D02*
X28585771Y30669048D01*
X28585771Y30669048D02*
X28633390Y30764286D01*
X28633390Y30764286D02*
X28681009Y30811905D01*
X28681009Y30811905D02*
X28776247Y30859524D01*
X28776247Y30859524D02*
X29014342Y30859524D01*
X29014342Y30859524D02*
X29109580Y30811905D01*
X29109580Y30811905D02*
X29157200Y30764286D01*
X29157200Y30764286D02*
X29204819Y30669048D01*
X29204819Y30669048D02*
X29204819Y30383334D01*
X29204819Y30383334D02*
X29157200Y30288096D01*
X29157200Y30288096D02*
X29109580Y30240477D01*
X31554819Y36987143D02*
X31078628Y36653810D01*
X31554819Y36415715D02*
X30554819Y36415715D01*
X30554819Y36415715D02*
X30554819Y36796667D01*
X30554819Y36796667D02*
X30602438Y36891905D01*
X30602438Y36891905D02*
X30650057Y36939524D01*
X30650057Y36939524D02*
X30745295Y36987143D01*
X30745295Y36987143D02*
X30888152Y36987143D01*
X30888152Y36987143D02*
X30983390Y36939524D01*
X30983390Y36939524D02*
X31031009Y36891905D01*
X31031009Y36891905D02*
X31078628Y36796667D01*
X31078628Y36796667D02*
X31078628Y36415715D01*
X30650057Y37368096D02*
X30602438Y37415715D01*
X30602438Y37415715D02*
X30554819Y37510953D01*
X30554819Y37510953D02*
X30554819Y37749048D01*
X30554819Y37749048D02*
X30602438Y37844286D01*
X30602438Y37844286D02*
X30650057Y37891905D01*
X30650057Y37891905D02*
X30745295Y37939524D01*
X30745295Y37939524D02*
X30840533Y37939524D01*
X30840533Y37939524D02*
X30983390Y37891905D01*
X30983390Y37891905D02*
X31554819Y37320477D01*
X31554819Y37320477D02*
X31554819Y37939524D01*
X30554819Y38796667D02*
X30554819Y38606191D01*
X30554819Y38606191D02*
X30602438Y38510953D01*
X30602438Y38510953D02*
X30650057Y38463334D01*
X30650057Y38463334D02*
X30792914Y38368096D01*
X30792914Y38368096D02*
X30983390Y38320477D01*
X30983390Y38320477D02*
X31364342Y38320477D01*
X31364342Y38320477D02*
X31459580Y38368096D01*
X31459580Y38368096D02*
X31507200Y38415715D01*
X31507200Y38415715D02*
X31554819Y38510953D01*
X31554819Y38510953D02*
X31554819Y38701429D01*
X31554819Y38701429D02*
X31507200Y38796667D01*
X31507200Y38796667D02*
X31459580Y38844286D01*
X31459580Y38844286D02*
X31364342Y38891905D01*
X31364342Y38891905D02*
X31126247Y38891905D01*
X31126247Y38891905D02*
X31031009Y38844286D01*
X31031009Y38844286D02*
X30983390Y38796667D01*
X30983390Y38796667D02*
X30935771Y38701429D01*
X30935771Y38701429D02*
X30935771Y38510953D01*
X30935771Y38510953D02*
X30983390Y38415715D01*
X30983390Y38415715D02*
X31031009Y38368096D01*
X31031009Y38368096D02*
X31126247Y38320477D01*
X33029580Y47458334D02*
X33077200Y47410715D01*
X33077200Y47410715D02*
X33124819Y47267858D01*
X33124819Y47267858D02*
X33124819Y47172620D01*
X33124819Y47172620D02*
X33077200Y47029763D01*
X33077200Y47029763D02*
X32981961Y46934525D01*
X32981961Y46934525D02*
X32886723Y46886906D01*
X32886723Y46886906D02*
X32696247Y46839287D01*
X32696247Y46839287D02*
X32553390Y46839287D01*
X32553390Y46839287D02*
X32362914Y46886906D01*
X32362914Y46886906D02*
X32267676Y46934525D01*
X32267676Y46934525D02*
X32172438Y47029763D01*
X32172438Y47029763D02*
X32124819Y47172620D01*
X32124819Y47172620D02*
X32124819Y47267858D01*
X32124819Y47267858D02*
X32172438Y47410715D01*
X32172438Y47410715D02*
X32220057Y47458334D01*
X33124819Y48410715D02*
X33124819Y47839287D01*
X33124819Y48125001D02*
X32124819Y48125001D01*
X32124819Y48125001D02*
X32267676Y48029763D01*
X32267676Y48029763D02*
X32362914Y47934525D01*
X32362914Y47934525D02*
X32410533Y47839287D01*
X8104819Y19308334D02*
X7628628Y18975001D01*
X8104819Y18736906D02*
X7104819Y18736906D01*
X7104819Y18736906D02*
X7104819Y19117858D01*
X7104819Y19117858D02*
X7152438Y19213096D01*
X7152438Y19213096D02*
X7200057Y19260715D01*
X7200057Y19260715D02*
X7295295Y19308334D01*
X7295295Y19308334D02*
X7438152Y19308334D01*
X7438152Y19308334D02*
X7533390Y19260715D01*
X7533390Y19260715D02*
X7581009Y19213096D01*
X7581009Y19213096D02*
X7628628Y19117858D01*
X7628628Y19117858D02*
X7628628Y18736906D01*
X7104819Y19641668D02*
X7104819Y20260715D01*
X7104819Y20260715D02*
X7485771Y19927382D01*
X7485771Y19927382D02*
X7485771Y20070239D01*
X7485771Y20070239D02*
X7533390Y20165477D01*
X7533390Y20165477D02*
X7581009Y20213096D01*
X7581009Y20213096D02*
X7676247Y20260715D01*
X7676247Y20260715D02*
X7914342Y20260715D01*
X7914342Y20260715D02*
X8009580Y20213096D01*
X8009580Y20213096D02*
X8057200Y20165477D01*
X8057200Y20165477D02*
X8104819Y20070239D01*
X8104819Y20070239D02*
X8104819Y19784525D01*
X8104819Y19784525D02*
X8057200Y19689287D01*
X8057200Y19689287D02*
X8009580Y19641668D01*
X37774819Y37147143D02*
X37298628Y36813810D01*
X37774819Y36575715D02*
X36774819Y36575715D01*
X36774819Y36575715D02*
X36774819Y36956667D01*
X36774819Y36956667D02*
X36822438Y37051905D01*
X36822438Y37051905D02*
X36870057Y37099524D01*
X36870057Y37099524D02*
X36965295Y37147143D01*
X36965295Y37147143D02*
X37108152Y37147143D01*
X37108152Y37147143D02*
X37203390Y37099524D01*
X37203390Y37099524D02*
X37251009Y37051905D01*
X37251009Y37051905D02*
X37298628Y36956667D01*
X37298628Y36956667D02*
X37298628Y36575715D01*
X36870057Y37528096D02*
X36822438Y37575715D01*
X36822438Y37575715D02*
X36774819Y37670953D01*
X36774819Y37670953D02*
X36774819Y37909048D01*
X36774819Y37909048D02*
X36822438Y38004286D01*
X36822438Y38004286D02*
X36870057Y38051905D01*
X36870057Y38051905D02*
X36965295Y38099524D01*
X36965295Y38099524D02*
X37060533Y38099524D01*
X37060533Y38099524D02*
X37203390Y38051905D01*
X37203390Y38051905D02*
X37774819Y37480477D01*
X37774819Y37480477D02*
X37774819Y38099524D01*
X36774819Y38432858D02*
X36774819Y39099524D01*
X36774819Y39099524D02*
X37774819Y38670953D01*
X44389580Y5787143D02*
X44437200Y5739524D01*
X44437200Y5739524D02*
X44484819Y5596667D01*
X44484819Y5596667D02*
X44484819Y5501429D01*
X44484819Y5501429D02*
X44437200Y5358572D01*
X44437200Y5358572D02*
X44341961Y5263334D01*
X44341961Y5263334D02*
X44246723Y5215715D01*
X44246723Y5215715D02*
X44056247Y5168096D01*
X44056247Y5168096D02*
X43913390Y5168096D01*
X43913390Y5168096D02*
X43722914Y5215715D01*
X43722914Y5215715D02*
X43627676Y5263334D01*
X43627676Y5263334D02*
X43532438Y5358572D01*
X43532438Y5358572D02*
X43484819Y5501429D01*
X43484819Y5501429D02*
X43484819Y5596667D01*
X43484819Y5596667D02*
X43532438Y5739524D01*
X43532438Y5739524D02*
X43580057Y5787143D01*
X43580057Y6168096D02*
X43532438Y6215715D01*
X43532438Y6215715D02*
X43484819Y6310953D01*
X43484819Y6310953D02*
X43484819Y6549048D01*
X43484819Y6549048D02*
X43532438Y6644286D01*
X43532438Y6644286D02*
X43580057Y6691905D01*
X43580057Y6691905D02*
X43675295Y6739524D01*
X43675295Y6739524D02*
X43770533Y6739524D01*
X43770533Y6739524D02*
X43913390Y6691905D01*
X43913390Y6691905D02*
X44484819Y6120477D01*
X44484819Y6120477D02*
X44484819Y6739524D01*
X43484819Y7358572D02*
X43484819Y7453810D01*
X43484819Y7453810D02*
X43532438Y7549048D01*
X43532438Y7549048D02*
X43580057Y7596667D01*
X43580057Y7596667D02*
X43675295Y7644286D01*
X43675295Y7644286D02*
X43865771Y7691905D01*
X43865771Y7691905D02*
X44103866Y7691905D01*
X44103866Y7691905D02*
X44294342Y7644286D01*
X44294342Y7644286D02*
X44389580Y7596667D01*
X44389580Y7596667D02*
X44437200Y7549048D01*
X44437200Y7549048D02*
X44484819Y7453810D01*
X44484819Y7453810D02*
X44484819Y7358572D01*
X44484819Y7358572D02*
X44437200Y7263334D01*
X44437200Y7263334D02*
X44389580Y7215715D01*
X44389580Y7215715D02*
X44294342Y7168096D01*
X44294342Y7168096D02*
X44103866Y7120477D01*
X44103866Y7120477D02*
X43865771Y7120477D01*
X43865771Y7120477D02*
X43675295Y7168096D01*
X43675295Y7168096D02*
X43580057Y7215715D01*
X43580057Y7215715D02*
X43532438Y7263334D01*
X43532438Y7263334D02*
X43484819Y7358572D01*
X58154819Y10807143D02*
X57678628Y10473810D01*
X58154819Y10235715D02*
X57154819Y10235715D01*
X57154819Y10235715D02*
X57154819Y10616667D01*
X57154819Y10616667D02*
X57202438Y10711905D01*
X57202438Y10711905D02*
X57250057Y10759524D01*
X57250057Y10759524D02*
X57345295Y10807143D01*
X57345295Y10807143D02*
X57488152Y10807143D01*
X57488152Y10807143D02*
X57583390Y10759524D01*
X57583390Y10759524D02*
X57631009Y10711905D01*
X57631009Y10711905D02*
X57678628Y10616667D01*
X57678628Y10616667D02*
X57678628Y10235715D01*
X58154819Y11759524D02*
X58154819Y11188096D01*
X58154819Y11473810D02*
X57154819Y11473810D01*
X57154819Y11473810D02*
X57297676Y11378572D01*
X57297676Y11378572D02*
X57392914Y11283334D01*
X57392914Y11283334D02*
X57440533Y11188096D01*
X57154819Y12092858D02*
X57154819Y12759524D01*
X57154819Y12759524D02*
X58154819Y12330953D01*
X44504819Y26632143D02*
X44028628Y26298810D01*
X44504819Y26060715D02*
X43504819Y26060715D01*
X43504819Y26060715D02*
X43504819Y26441667D01*
X43504819Y26441667D02*
X43552438Y26536905D01*
X43552438Y26536905D02*
X43600057Y26584524D01*
X43600057Y26584524D02*
X43695295Y26632143D01*
X43695295Y26632143D02*
X43838152Y26632143D01*
X43838152Y26632143D02*
X43933390Y26584524D01*
X43933390Y26584524D02*
X43981009Y26536905D01*
X43981009Y26536905D02*
X44028628Y26441667D01*
X44028628Y26441667D02*
X44028628Y26060715D01*
X43600057Y27013096D02*
X43552438Y27060715D01*
X43552438Y27060715D02*
X43504819Y27155953D01*
X43504819Y27155953D02*
X43504819Y27394048D01*
X43504819Y27394048D02*
X43552438Y27489286D01*
X43552438Y27489286D02*
X43600057Y27536905D01*
X43600057Y27536905D02*
X43695295Y27584524D01*
X43695295Y27584524D02*
X43790533Y27584524D01*
X43790533Y27584524D02*
X43933390Y27536905D01*
X43933390Y27536905D02*
X44504819Y26965477D01*
X44504819Y26965477D02*
X44504819Y27584524D01*
X43838152Y28441667D02*
X44504819Y28441667D01*
X43457200Y28203572D02*
X44171485Y27965477D01*
X44171485Y27965477D02*
X44171485Y28584524D01*
X50157142Y29820420D02*
X50109523Y29772800D01*
X50109523Y29772800D02*
X49966666Y29725181D01*
X49966666Y29725181D02*
X49871428Y29725181D01*
X49871428Y29725181D02*
X49728571Y29772800D01*
X49728571Y29772800D02*
X49633333Y29868039D01*
X49633333Y29868039D02*
X49585714Y29963277D01*
X49585714Y29963277D02*
X49538095Y30153753D01*
X49538095Y30153753D02*
X49538095Y30296610D01*
X49538095Y30296610D02*
X49585714Y30487086D01*
X49585714Y30487086D02*
X49633333Y30582324D01*
X49633333Y30582324D02*
X49728571Y30677562D01*
X49728571Y30677562D02*
X49871428Y30725181D01*
X49871428Y30725181D02*
X49966666Y30725181D01*
X49966666Y30725181D02*
X50109523Y30677562D01*
X50109523Y30677562D02*
X50157142Y30629943D01*
X51109523Y29725181D02*
X50538095Y29725181D01*
X50823809Y29725181D02*
X50823809Y30725181D01*
X50823809Y30725181D02*
X50728571Y30582324D01*
X50728571Y30582324D02*
X50633333Y30487086D01*
X50633333Y30487086D02*
X50538095Y30439467D01*
X51728571Y30725181D02*
X51823809Y30725181D01*
X51823809Y30725181D02*
X51919047Y30677562D01*
X51919047Y30677562D02*
X51966666Y30629943D01*
X51966666Y30629943D02*
X52014285Y30534705D01*
X52014285Y30534705D02*
X52061904Y30344229D01*
X52061904Y30344229D02*
X52061904Y30106134D01*
X52061904Y30106134D02*
X52014285Y29915658D01*
X52014285Y29915658D02*
X51966666Y29820420D01*
X51966666Y29820420D02*
X51919047Y29772800D01*
X51919047Y29772800D02*
X51823809Y29725181D01*
X51823809Y29725181D02*
X51728571Y29725181D01*
X51728571Y29725181D02*
X51633333Y29772800D01*
X51633333Y29772800D02*
X51585714Y29820420D01*
X51585714Y29820420D02*
X51538095Y29915658D01*
X51538095Y29915658D02*
X51490476Y30106134D01*
X51490476Y30106134D02*
X51490476Y30344229D01*
X51490476Y30344229D02*
X51538095Y30534705D01*
X51538095Y30534705D02*
X51585714Y30629943D01*
X51585714Y30629943D02*
X51633333Y30677562D01*
X51633333Y30677562D02*
X51728571Y30725181D01*
X44157142Y20395181D02*
X43823809Y20871372D01*
X43585714Y20395181D02*
X43585714Y21395181D01*
X43585714Y21395181D02*
X43966666Y21395181D01*
X43966666Y21395181D02*
X44061904Y21347562D01*
X44061904Y21347562D02*
X44109523Y21299943D01*
X44109523Y21299943D02*
X44157142Y21204705D01*
X44157142Y21204705D02*
X44157142Y21061848D01*
X44157142Y21061848D02*
X44109523Y20966610D01*
X44109523Y20966610D02*
X44061904Y20918991D01*
X44061904Y20918991D02*
X43966666Y20871372D01*
X43966666Y20871372D02*
X43585714Y20871372D01*
X44538095Y21299943D02*
X44585714Y21347562D01*
X44585714Y21347562D02*
X44680952Y21395181D01*
X44680952Y21395181D02*
X44919047Y21395181D01*
X44919047Y21395181D02*
X45014285Y21347562D01*
X45014285Y21347562D02*
X45061904Y21299943D01*
X45061904Y21299943D02*
X45109523Y21204705D01*
X45109523Y21204705D02*
X45109523Y21109467D01*
X45109523Y21109467D02*
X45061904Y20966610D01*
X45061904Y20966610D02*
X44490476Y20395181D01*
X44490476Y20395181D02*
X45109523Y20395181D01*
X45728571Y21395181D02*
X45823809Y21395181D01*
X45823809Y21395181D02*
X45919047Y21347562D01*
X45919047Y21347562D02*
X45966666Y21299943D01*
X45966666Y21299943D02*
X46014285Y21204705D01*
X46014285Y21204705D02*
X46061904Y21014229D01*
X46061904Y21014229D02*
X46061904Y20776134D01*
X46061904Y20776134D02*
X46014285Y20585658D01*
X46014285Y20585658D02*
X45966666Y20490420D01*
X45966666Y20490420D02*
X45919047Y20442800D01*
X45919047Y20442800D02*
X45823809Y20395181D01*
X45823809Y20395181D02*
X45728571Y20395181D01*
X45728571Y20395181D02*
X45633333Y20442800D01*
X45633333Y20442800D02*
X45585714Y20490420D01*
X45585714Y20490420D02*
X45538095Y20585658D01*
X45538095Y20585658D02*
X45490476Y20776134D01*
X45490476Y20776134D02*
X45490476Y21014229D01*
X45490476Y21014229D02*
X45538095Y21204705D01*
X45538095Y21204705D02*
X45585714Y21299943D01*
X45585714Y21299943D02*
X45633333Y21347562D01*
X45633333Y21347562D02*
X45728571Y21395181D01*
X13904819Y10783334D02*
X13428628Y10450001D01*
X13904819Y10211906D02*
X12904819Y10211906D01*
X12904819Y10211906D02*
X12904819Y10592858D01*
X12904819Y10592858D02*
X12952438Y10688096D01*
X12952438Y10688096D02*
X13000057Y10735715D01*
X13000057Y10735715D02*
X13095295Y10783334D01*
X13095295Y10783334D02*
X13238152Y10783334D01*
X13238152Y10783334D02*
X13333390Y10735715D01*
X13333390Y10735715D02*
X13381009Y10688096D01*
X13381009Y10688096D02*
X13428628Y10592858D01*
X13428628Y10592858D02*
X13428628Y10211906D01*
X13904819Y11259525D02*
X13904819Y11450001D01*
X13904819Y11450001D02*
X13857200Y11545239D01*
X13857200Y11545239D02*
X13809580Y11592858D01*
X13809580Y11592858D02*
X13666723Y11688096D01*
X13666723Y11688096D02*
X13476247Y11735715D01*
X13476247Y11735715D02*
X13095295Y11735715D01*
X13095295Y11735715D02*
X13000057Y11688096D01*
X13000057Y11688096D02*
X12952438Y11640477D01*
X12952438Y11640477D02*
X12904819Y11545239D01*
X12904819Y11545239D02*
X12904819Y11354763D01*
X12904819Y11354763D02*
X12952438Y11259525D01*
X12952438Y11259525D02*
X13000057Y11211906D01*
X13000057Y11211906D02*
X13095295Y11164287D01*
X13095295Y11164287D02*
X13333390Y11164287D01*
X13333390Y11164287D02*
X13428628Y11211906D01*
X13428628Y11211906D02*
X13476247Y11259525D01*
X13476247Y11259525D02*
X13523866Y11354763D01*
X13523866Y11354763D02*
X13523866Y11545239D01*
X13523866Y11545239D02*
X13476247Y11640477D01*
X13476247Y11640477D02*
X13428628Y11688096D01*
X13428628Y11688096D02*
X13333390Y11735715D01*
X28207142Y24615420D02*
X28159523Y24567800D01*
X28159523Y24567800D02*
X28016666Y24520181D01*
X28016666Y24520181D02*
X27921428Y24520181D01*
X27921428Y24520181D02*
X27778571Y24567800D01*
X27778571Y24567800D02*
X27683333Y24663039D01*
X27683333Y24663039D02*
X27635714Y24758277D01*
X27635714Y24758277D02*
X27588095Y24948753D01*
X27588095Y24948753D02*
X27588095Y25091610D01*
X27588095Y25091610D02*
X27635714Y25282086D01*
X27635714Y25282086D02*
X27683333Y25377324D01*
X27683333Y25377324D02*
X27778571Y25472562D01*
X27778571Y25472562D02*
X27921428Y25520181D01*
X27921428Y25520181D02*
X28016666Y25520181D01*
X28016666Y25520181D02*
X28159523Y25472562D01*
X28159523Y25472562D02*
X28207142Y25424943D01*
X29159523Y24520181D02*
X28588095Y24520181D01*
X28873809Y24520181D02*
X28873809Y25520181D01*
X28873809Y25520181D02*
X28778571Y25377324D01*
X28778571Y25377324D02*
X28683333Y25282086D01*
X28683333Y25282086D02*
X28588095Y25234467D01*
X29730952Y25091610D02*
X29635714Y25139229D01*
X29635714Y25139229D02*
X29588095Y25186848D01*
X29588095Y25186848D02*
X29540476Y25282086D01*
X29540476Y25282086D02*
X29540476Y25329705D01*
X29540476Y25329705D02*
X29588095Y25424943D01*
X29588095Y25424943D02*
X29635714Y25472562D01*
X29635714Y25472562D02*
X29730952Y25520181D01*
X29730952Y25520181D02*
X29921428Y25520181D01*
X29921428Y25520181D02*
X30016666Y25472562D01*
X30016666Y25472562D02*
X30064285Y25424943D01*
X30064285Y25424943D02*
X30111904Y25329705D01*
X30111904Y25329705D02*
X30111904Y25282086D01*
X30111904Y25282086D02*
X30064285Y25186848D01*
X30064285Y25186848D02*
X30016666Y25139229D01*
X30016666Y25139229D02*
X29921428Y25091610D01*
X29921428Y25091610D02*
X29730952Y25091610D01*
X29730952Y25091610D02*
X29635714Y25043991D01*
X29635714Y25043991D02*
X29588095Y24996372D01*
X29588095Y24996372D02*
X29540476Y24901134D01*
X29540476Y24901134D02*
X29540476Y24710658D01*
X29540476Y24710658D02*
X29588095Y24615420D01*
X29588095Y24615420D02*
X29635714Y24567800D01*
X29635714Y24567800D02*
X29730952Y24520181D01*
X29730952Y24520181D02*
X29921428Y24520181D01*
X29921428Y24520181D02*
X30016666Y24567800D01*
X30016666Y24567800D02*
X30064285Y24615420D01*
X30064285Y24615420D02*
X30111904Y24710658D01*
X30111904Y24710658D02*
X30111904Y24901134D01*
X30111904Y24901134D02*
X30064285Y24996372D01*
X30064285Y24996372D02*
X30016666Y25043991D01*
X30016666Y25043991D02*
X29921428Y25091610D01*
X43833333Y47845181D02*
X43500000Y48321372D01*
X43261905Y47845181D02*
X43261905Y48845181D01*
X43261905Y48845181D02*
X43642857Y48845181D01*
X43642857Y48845181D02*
X43738095Y48797562D01*
X43738095Y48797562D02*
X43785714Y48749943D01*
X43785714Y48749943D02*
X43833333Y48654705D01*
X43833333Y48654705D02*
X43833333Y48511848D01*
X43833333Y48511848D02*
X43785714Y48416610D01*
X43785714Y48416610D02*
X43738095Y48368991D01*
X43738095Y48368991D02*
X43642857Y48321372D01*
X43642857Y48321372D02*
X43261905Y48321372D01*
X44690476Y48845181D02*
X44500000Y48845181D01*
X44500000Y48845181D02*
X44404762Y48797562D01*
X44404762Y48797562D02*
X44357143Y48749943D01*
X44357143Y48749943D02*
X44261905Y48607086D01*
X44261905Y48607086D02*
X44214286Y48416610D01*
X44214286Y48416610D02*
X44214286Y48035658D01*
X44214286Y48035658D02*
X44261905Y47940420D01*
X44261905Y47940420D02*
X44309524Y47892800D01*
X44309524Y47892800D02*
X44404762Y47845181D01*
X44404762Y47845181D02*
X44595238Y47845181D01*
X44595238Y47845181D02*
X44690476Y47892800D01*
X44690476Y47892800D02*
X44738095Y47940420D01*
X44738095Y47940420D02*
X44785714Y48035658D01*
X44785714Y48035658D02*
X44785714Y48273753D01*
X44785714Y48273753D02*
X44738095Y48368991D01*
X44738095Y48368991D02*
X44690476Y48416610D01*
X44690476Y48416610D02*
X44595238Y48464229D01*
X44595238Y48464229D02*
X44404762Y48464229D01*
X44404762Y48464229D02*
X44309524Y48416610D01*
X44309524Y48416610D02*
X44261905Y48368991D01*
X44261905Y48368991D02*
X44214286Y48273753D01*
X50724819Y46703334D02*
X50248628Y46370001D01*
X50724819Y46131906D02*
X49724819Y46131906D01*
X49724819Y46131906D02*
X49724819Y46512858D01*
X49724819Y46512858D02*
X49772438Y46608096D01*
X49772438Y46608096D02*
X49820057Y46655715D01*
X49820057Y46655715D02*
X49915295Y46703334D01*
X49915295Y46703334D02*
X50058152Y46703334D01*
X50058152Y46703334D02*
X50153390Y46655715D01*
X50153390Y46655715D02*
X50201009Y46608096D01*
X50201009Y46608096D02*
X50248628Y46512858D01*
X50248628Y46512858D02*
X50248628Y46131906D01*
X49820057Y47084287D02*
X49772438Y47131906D01*
X49772438Y47131906D02*
X49724819Y47227144D01*
X49724819Y47227144D02*
X49724819Y47465239D01*
X49724819Y47465239D02*
X49772438Y47560477D01*
X49772438Y47560477D02*
X49820057Y47608096D01*
X49820057Y47608096D02*
X49915295Y47655715D01*
X49915295Y47655715D02*
X50010533Y47655715D01*
X50010533Y47655715D02*
X50153390Y47608096D01*
X50153390Y47608096D02*
X50724819Y47036668D01*
X50724819Y47036668D02*
X50724819Y47655715D01*
X28007142Y26390420D02*
X27959523Y26342800D01*
X27959523Y26342800D02*
X27816666Y26295181D01*
X27816666Y26295181D02*
X27721428Y26295181D01*
X27721428Y26295181D02*
X27578571Y26342800D01*
X27578571Y26342800D02*
X27483333Y26438039D01*
X27483333Y26438039D02*
X27435714Y26533277D01*
X27435714Y26533277D02*
X27388095Y26723753D01*
X27388095Y26723753D02*
X27388095Y26866610D01*
X27388095Y26866610D02*
X27435714Y27057086D01*
X27435714Y27057086D02*
X27483333Y27152324D01*
X27483333Y27152324D02*
X27578571Y27247562D01*
X27578571Y27247562D02*
X27721428Y27295181D01*
X27721428Y27295181D02*
X27816666Y27295181D01*
X27816666Y27295181D02*
X27959523Y27247562D01*
X27959523Y27247562D02*
X28007142Y27199943D01*
X28959523Y26295181D02*
X28388095Y26295181D01*
X28673809Y26295181D02*
X28673809Y27295181D01*
X28673809Y27295181D02*
X28578571Y27152324D01*
X28578571Y27152324D02*
X28483333Y27057086D01*
X28483333Y27057086D02*
X28388095Y27009467D01*
X29435714Y26295181D02*
X29626190Y26295181D01*
X29626190Y26295181D02*
X29721428Y26342800D01*
X29721428Y26342800D02*
X29769047Y26390420D01*
X29769047Y26390420D02*
X29864285Y26533277D01*
X29864285Y26533277D02*
X29911904Y26723753D01*
X29911904Y26723753D02*
X29911904Y27104705D01*
X29911904Y27104705D02*
X29864285Y27199943D01*
X29864285Y27199943D02*
X29816666Y27247562D01*
X29816666Y27247562D02*
X29721428Y27295181D01*
X29721428Y27295181D02*
X29530952Y27295181D01*
X29530952Y27295181D02*
X29435714Y27247562D01*
X29435714Y27247562D02*
X29388095Y27199943D01*
X29388095Y27199943D02*
X29340476Y27104705D01*
X29340476Y27104705D02*
X29340476Y26866610D01*
X29340476Y26866610D02*
X29388095Y26771372D01*
X29388095Y26771372D02*
X29435714Y26723753D01*
X29435714Y26723753D02*
X29530952Y26676134D01*
X29530952Y26676134D02*
X29721428Y26676134D01*
X29721428Y26676134D02*
X29816666Y26723753D01*
X29816666Y26723753D02*
X29864285Y26771372D01*
X29864285Y26771372D02*
X29911904Y26866610D01*
X8109580Y16033334D02*
X8157200Y15985715D01*
X8157200Y15985715D02*
X8204819Y15842858D01*
X8204819Y15842858D02*
X8204819Y15747620D01*
X8204819Y15747620D02*
X8157200Y15604763D01*
X8157200Y15604763D02*
X8061961Y15509525D01*
X8061961Y15509525D02*
X7966723Y15461906D01*
X7966723Y15461906D02*
X7776247Y15414287D01*
X7776247Y15414287D02*
X7633390Y15414287D01*
X7633390Y15414287D02*
X7442914Y15461906D01*
X7442914Y15461906D02*
X7347676Y15509525D01*
X7347676Y15509525D02*
X7252438Y15604763D01*
X7252438Y15604763D02*
X7204819Y15747620D01*
X7204819Y15747620D02*
X7204819Y15842858D01*
X7204819Y15842858D02*
X7252438Y15985715D01*
X7252438Y15985715D02*
X7300057Y16033334D01*
X7300057Y16414287D02*
X7252438Y16461906D01*
X7252438Y16461906D02*
X7204819Y16557144D01*
X7204819Y16557144D02*
X7204819Y16795239D01*
X7204819Y16795239D02*
X7252438Y16890477D01*
X7252438Y16890477D02*
X7300057Y16938096D01*
X7300057Y16938096D02*
X7395295Y16985715D01*
X7395295Y16985715D02*
X7490533Y16985715D01*
X7490533Y16985715D02*
X7633390Y16938096D01*
X7633390Y16938096D02*
X8204819Y16366668D01*
X8204819Y16366668D02*
X8204819Y16985715D01*
X8404819Y12483334D02*
X7928628Y12150001D01*
X8404819Y11911906D02*
X7404819Y11911906D01*
X7404819Y11911906D02*
X7404819Y12292858D01*
X7404819Y12292858D02*
X7452438Y12388096D01*
X7452438Y12388096D02*
X7500057Y12435715D01*
X7500057Y12435715D02*
X7595295Y12483334D01*
X7595295Y12483334D02*
X7738152Y12483334D01*
X7738152Y12483334D02*
X7833390Y12435715D01*
X7833390Y12435715D02*
X7881009Y12388096D01*
X7881009Y12388096D02*
X7928628Y12292858D01*
X7928628Y12292858D02*
X7928628Y11911906D01*
X7738152Y13340477D02*
X8404819Y13340477D01*
X7357200Y13102382D02*
X8071485Y12864287D01*
X8071485Y12864287D02*
X8071485Y13483334D01*
X39688095Y45095181D02*
X39688095Y44285658D01*
X39688095Y44285658D02*
X39735714Y44190420D01*
X39735714Y44190420D02*
X39783333Y44142800D01*
X39783333Y44142800D02*
X39878571Y44095181D01*
X39878571Y44095181D02*
X40069047Y44095181D01*
X40069047Y44095181D02*
X40164285Y44142800D01*
X40164285Y44142800D02*
X40211904Y44190420D01*
X40211904Y44190420D02*
X40259523Y44285658D01*
X40259523Y44285658D02*
X40259523Y45095181D01*
X41259523Y44095181D02*
X40688095Y44095181D01*
X40973809Y44095181D02*
X40973809Y45095181D01*
X40973809Y45095181D02*
X40878571Y44952324D01*
X40878571Y44952324D02*
X40783333Y44857086D01*
X40783333Y44857086D02*
X40688095Y44809467D01*
X16009580Y35957143D02*
X16057200Y35909524D01*
X16057200Y35909524D02*
X16104819Y35766667D01*
X16104819Y35766667D02*
X16104819Y35671429D01*
X16104819Y35671429D02*
X16057200Y35528572D01*
X16057200Y35528572D02*
X15961961Y35433334D01*
X15961961Y35433334D02*
X15866723Y35385715D01*
X15866723Y35385715D02*
X15676247Y35338096D01*
X15676247Y35338096D02*
X15533390Y35338096D01*
X15533390Y35338096D02*
X15342914Y35385715D01*
X15342914Y35385715D02*
X15247676Y35433334D01*
X15247676Y35433334D02*
X15152438Y35528572D01*
X15152438Y35528572D02*
X15104819Y35671429D01*
X15104819Y35671429D02*
X15104819Y35766667D01*
X15104819Y35766667D02*
X15152438Y35909524D01*
X15152438Y35909524D02*
X15200057Y35957143D01*
X16104819Y36909524D02*
X16104819Y36338096D01*
X16104819Y36623810D02*
X15104819Y36623810D01*
X15104819Y36623810D02*
X15247676Y36528572D01*
X15247676Y36528572D02*
X15342914Y36433334D01*
X15342914Y36433334D02*
X15390533Y36338096D01*
X15104819Y37242858D02*
X15104819Y37909524D01*
X15104819Y37909524D02*
X16104819Y37480953D01*
X6820000Y49680000D02*
X8370000Y49680000D01*
X9640000Y49960000D02*
X57900000Y49960000D01*
X6820000Y51230000D02*
X6820000Y49680000D01*
X7100000Y52500000D02*
X9640000Y52500000D01*
X9640000Y52500000D02*
X9640000Y49960000D01*
X7100000Y55040000D02*
X7100000Y52500000D01*
X57900000Y55040000D02*
X57900000Y49960000D01*
X57900000Y55040000D02*
X7100000Y55040000D01*
D11*
X37497936Y45660000D02*
X37952064Y45660000D01*
X37497936Y44190000D02*
X37952064Y44190000D01*
X34915000Y34392936D02*
X34915000Y34847064D01*
X36385000Y34392936D02*
X36385000Y34847064D01*
X54735000Y11031252D02*
X54735000Y10508748D01*
X53265000Y11031252D02*
X53265000Y10508748D01*
X33250000Y33100000D02*
X34390000Y33100000D01*
X20460000Y44650000D02*
X20460000Y46450000D01*
X20460000Y44650000D02*
X20460000Y43850000D01*
X17340000Y44650000D02*
X17340000Y45450000D01*
X17340000Y44650000D02*
X17340000Y43850000D01*
X54760000Y14422064D02*
X54760000Y13967936D01*
X53290000Y14422064D02*
X53290000Y13967936D01*
X12335000Y16311252D02*
X12335000Y15788748D01*
X10865000Y16311252D02*
X10865000Y15788748D01*
X17065000Y32938748D02*
X17065000Y33461252D01*
X18535000Y32938748D02*
X18535000Y33461252D01*
X32913748Y32695000D02*
X33436252Y32695000D01*
X32913748Y31225000D02*
X33436252Y31225000D01*
X40897936Y47135000D02*
X41352064Y47135000D01*
X40897936Y45665000D02*
X41352064Y45665000D01*
X34122936Y45660000D02*
X34577064Y45660000D01*
X34122936Y44190000D02*
X34577064Y44190000D01*
X39475000Y33050000D02*
X40615000Y33050000D01*
X46970000Y25885000D02*
X45050000Y25885000D01*
X45050000Y25885000D02*
X45050000Y23200000D01*
X46970000Y23200000D02*
X46970000Y25885000D01*
X21490000Y23088748D02*
X21490000Y23611252D01*
X22960000Y23088748D02*
X22960000Y23611252D01*
X40538748Y12860000D02*
X41061252Y12860000D01*
X40538748Y11390000D02*
X41061252Y11390000D01*
X13510000Y13590000D02*
X13510000Y14920000D01*
X14840000Y13590000D02*
X13510000Y13590000D01*
X16110000Y13590000D02*
X21250000Y13590000D01*
X16110000Y13590000D02*
X16110000Y16190000D01*
X21250000Y13590000D02*
X21250000Y18790000D01*
X13510000Y16190000D02*
X13510000Y18790000D01*
X16110000Y16190000D02*
X13510000Y16190000D01*
X13510000Y18790000D02*
X21250000Y18790000D01*
X21988748Y31535000D02*
X22511252Y31535000D01*
X21988748Y30065000D02*
X22511252Y30065000D01*
X23710000Y16211252D02*
X23710000Y15688748D01*
X22240000Y16211252D02*
X22240000Y15688748D01*
X22240000Y12322936D02*
X22240000Y12777064D01*
X23710000Y12322936D02*
X23710000Y12777064D01*
X25685000Y16211252D02*
X25685000Y15688748D01*
X24215000Y16211252D02*
X24215000Y15688748D01*
X45240000Y9538748D02*
X45240000Y10061252D01*
X46710000Y9538748D02*
X46710000Y10061252D01*
X19186252Y40740000D02*
X18663748Y40740000D01*
X19186252Y42210000D02*
X18663748Y42210000D01*
X53240000Y18195436D02*
X53240000Y18649564D01*
X54710000Y18195436D02*
X54710000Y18649564D01*
X40538748Y10885000D02*
X41061252Y10885000D01*
X40538748Y9415000D02*
X41061252Y9415000D01*
X23710000Y19577064D02*
X23710000Y19122936D01*
X22240000Y19577064D02*
X22240000Y19122936D01*
X25238748Y27710000D02*
X25761252Y27710000D01*
X25238748Y26240000D02*
X25761252Y26240000D01*
X24215000Y12322936D02*
X24215000Y12777064D01*
X25685000Y12322936D02*
X25685000Y12777064D01*
X53245000Y21546248D02*
X53245000Y22068752D01*
X54715000Y21546248D02*
X54715000Y22068752D01*
X9752936Y31410000D02*
X10207064Y31410000D01*
X9752936Y29940000D02*
X10207064Y29940000D01*
X19161252Y46945000D02*
X18638748Y46945000D01*
X19161252Y48415000D02*
X18638748Y48415000D01*
X22935000Y27111252D02*
X22935000Y26588748D01*
X21465000Y27111252D02*
X21465000Y26588748D01*
X54555000Y46632936D02*
X54555000Y47087064D01*
X56025000Y46632936D02*
X56025000Y47087064D01*
D12*
X61799460Y32041970D02*
X61842711Y32028755D01*
X61870558Y32012059D01*
X61879629Y31998855D01*
X61877132Y31983203D01*
X61860931Y31958615D01*
X61847232Y31941200D01*
X61818992Y31909717D01*
X61797775Y31896471D01*
X61779688Y31897336D01*
X61726035Y31910990D01*
X61686630Y31910370D01*
X61654632Y31894896D01*
X61643890Y31885839D01*
X61609505Y31853973D01*
X61609505Y31437821D01*
X61471188Y31437821D01*
X61471188Y32041386D01*
X61540347Y32041386D01*
X61581869Y32039744D01*
X61603291Y32033913D01*
X61609502Y32022539D01*
X61609505Y32022202D01*
X61612439Y32010287D01*
X61625704Y32011841D01*
X61644084Y32020437D01*
X61682046Y32036432D01*
X61712872Y32046055D01*
X61752536Y32048522D01*
X61799460Y32041970D01*
G36*
X61799460Y32041970D02*
G01*
X61842711Y32028755D01*
X61870558Y32012059D01*
X61879629Y31998855D01*
X61877132Y31983203D01*
X61860931Y31958615D01*
X61847232Y31941200D01*
X61818992Y31909717D01*
X61797775Y31896471D01*
X61779688Y31897336D01*
X61726035Y31910990D01*
X61686630Y31910370D01*
X61654632Y31894896D01*
X61643890Y31885839D01*
X61609505Y31853973D01*
X61609505Y31437821D01*
X61471188Y31437821D01*
X61471188Y32041386D01*
X61540347Y32041386D01*
X61581869Y32039744D01*
X61603291Y32033913D01*
X61609502Y32022539D01*
X61609505Y32022202D01*
X61612439Y32010287D01*
X61625704Y32011841D01*
X61644084Y32020437D01*
X61682046Y32036432D01*
X61712872Y32046055D01*
X61752536Y32048522D01*
X61799460Y32041970D01*
G37*
X61635255Y31098514D02*
X61683595Y31088985D01*
X61711114Y31074875D01*
X61740064Y31051432D01*
X61698876Y30999429D01*
X61673482Y30967936D01*
X61656238Y30952572D01*
X61639102Y30950224D01*
X61614027Y30957783D01*
X61602257Y30962059D01*
X61554270Y30968369D01*
X61510324Y30954844D01*
X61478060Y30924290D01*
X61472819Y30914548D01*
X61467112Y30888742D01*
X61462706Y30841183D01*
X61459811Y30775242D01*
X61458631Y30694290D01*
X61458614Y30682774D01*
X61458614Y30482178D01*
X61320297Y30482178D01*
X61320297Y31098317D01*
X61389456Y31098317D01*
X61429333Y31097275D01*
X61450107Y31092642D01*
X61457789Y31082151D01*
X61458614Y31072255D01*
X61458614Y31046194D01*
X61491745Y31072255D01*
X61529735Y31090035D01*
X61580770Y31098826D01*
X61635255Y31098514D01*
G36*
X61635255Y31098514D02*
G01*
X61683595Y31088985D01*
X61711114Y31074875D01*
X61740064Y31051432D01*
X61698876Y30999429D01*
X61673482Y30967936D01*
X61656238Y30952572D01*
X61639102Y30950224D01*
X61614027Y30957783D01*
X61602257Y30962059D01*
X61554270Y30968369D01*
X61510324Y30954844D01*
X61478060Y30924290D01*
X61472819Y30914548D01*
X61467112Y30888742D01*
X61462706Y30841183D01*
X61459811Y30775242D01*
X61458631Y30694290D01*
X61458614Y30682774D01*
X61458614Y30482178D01*
X61320297Y30482178D01*
X61320297Y31098317D01*
X61389456Y31098317D01*
X61429333Y31097275D01*
X61450107Y31092642D01*
X61457789Y31082151D01*
X61458614Y31072255D01*
X61458614Y31046194D01*
X61491745Y31072255D01*
X61529735Y31090035D01*
X61580770Y31098826D01*
X61635255Y31098514D01*
G37*
X59006644Y31096980D02*
X59025461Y31091340D01*
X59031527Y31078947D01*
X59031782Y31073353D01*
X59032871Y31057770D01*
X59040368Y31055324D01*
X59060619Y31066007D01*
X59072649Y31073306D01*
X59110600Y31088937D01*
X59155928Y31096666D01*
X59203456Y31097260D01*
X59248005Y31091487D01*
X59284398Y31080116D01*
X59307457Y31063912D01*
X59312004Y31043645D01*
X59309709Y31038157D01*
X59292980Y31015374D01*
X59267037Y30987353D01*
X59262345Y30982823D01*
X59237617Y30961995D01*
X59216282Y30955265D01*
X59186445Y30959962D01*
X59174492Y30963083D01*
X59137295Y30970579D01*
X59111141Y30967208D01*
X59089054Y30955319D01*
X59068822Y30939365D01*
X59053921Y30919300D01*
X59043566Y30891298D01*
X59036971Y30851533D01*
X59033351Y30796177D01*
X59031922Y30721406D01*
X59031782Y30676260D01*
X59031782Y30482178D01*
X58906040Y30482178D01*
X58906040Y31098317D01*
X58968911Y31098317D01*
X59006644Y31096980D01*
G36*
X59006644Y31096980D02*
G01*
X59025461Y31091340D01*
X59031527Y31078947D01*
X59031782Y31073353D01*
X59032871Y31057770D01*
X59040368Y31055324D01*
X59060619Y31066007D01*
X59072649Y31073306D01*
X59110600Y31088937D01*
X59155928Y31096666D01*
X59203456Y31097260D01*
X59248005Y31091487D01*
X59284398Y31080116D01*
X59307457Y31063912D01*
X59312004Y31043645D01*
X59309709Y31038157D01*
X59292980Y31015374D01*
X59267037Y30987353D01*
X59262345Y30982823D01*
X59237617Y30961995D01*
X59216282Y30955265D01*
X59186445Y30959962D01*
X59174492Y30963083D01*
X59137295Y30970579D01*
X59111141Y30967208D01*
X59089054Y30955319D01*
X59068822Y30939365D01*
X59053921Y30919300D01*
X59043566Y30891298D01*
X59036971Y30851533D01*
X59033351Y30796177D01*
X59031922Y30721406D01*
X59031782Y30676260D01*
X59031782Y30482178D01*
X58906040Y30482178D01*
X58906040Y31098317D01*
X58968911Y31098317D01*
X59006644Y31096980D01*
G37*
X60993367Y31845658D02*
X60994555Y31753437D01*
X60998897Y31683390D01*
X61007558Y31632619D01*
X61021704Y31598228D01*
X61042500Y31577321D01*
X61071110Y31567000D01*
X61106535Y31564364D01*
X61143636Y31567318D01*
X61171818Y31578111D01*
X61192243Y31599640D01*
X61206079Y31634801D01*
X61214491Y31686490D01*
X61218643Y31757606D01*
X61219703Y31845658D01*
X61219703Y32041386D01*
X61358020Y32041386D01*
X61358020Y31437821D01*
X61288862Y31437821D01*
X61247170Y31439511D01*
X61225701Y31445444D01*
X61219703Y31456707D01*
X61216091Y31466739D01*
X61201714Y31464617D01*
X61172736Y31450420D01*
X61106319Y31428520D01*
X61035875Y31430072D01*
X60968377Y31453853D01*
X60936233Y31472638D01*
X60911715Y31492978D01*
X60893804Y31518427D01*
X60881479Y31552542D01*
X60873723Y31598879D01*
X60869516Y31660993D01*
X60867840Y31742439D01*
X60867624Y31805422D01*
X60867624Y32041386D01*
X60993367Y32041386D01*
X60993367Y31845658D01*
G36*
X60993367Y31845658D02*
G01*
X60994555Y31753437D01*
X60998897Y31683390D01*
X61007558Y31632619D01*
X61021704Y31598228D01*
X61042500Y31577321D01*
X61071110Y31567000D01*
X61106535Y31564364D01*
X61143636Y31567318D01*
X61171818Y31578111D01*
X61192243Y31599640D01*
X61206079Y31634801D01*
X61214491Y31686490D01*
X61218643Y31757606D01*
X61219703Y31845658D01*
X61219703Y32041386D01*
X61358020Y32041386D01*
X61358020Y31437821D01*
X61288862Y31437821D01*
X61247170Y31439511D01*
X61225701Y31445444D01*
X61219703Y31456707D01*
X61216091Y31466739D01*
X61201714Y31464617D01*
X61172736Y31450420D01*
X61106319Y31428520D01*
X61035875Y31430072D01*
X60968377Y31453853D01*
X60936233Y31472638D01*
X60911715Y31492978D01*
X60893804Y31518427D01*
X60881479Y31552542D01*
X60873723Y31598879D01*
X60869516Y31660993D01*
X60867840Y31742439D01*
X60867624Y31805422D01*
X60867624Y32041386D01*
X60993367Y32041386D01*
X60993367Y31845658D01*
G37*
X59245988Y32030998D02*
X59277283Y32016050D01*
X59307591Y31994459D01*
X59330682Y31969609D01*
X59347500Y31937913D01*
X59358994Y31895786D01*
X59366109Y31839642D01*
X59369793Y31765894D01*
X59370992Y31670956D01*
X59371011Y31661015D01*
X59371287Y31437821D01*
X59232970Y31437821D01*
X59232970Y31643582D01*
X59232872Y31719811D01*
X59232191Y31775061D01*
X59230349Y31813499D01*
X59226767Y31839294D01*
X59220868Y31856616D01*
X59212073Y31869632D01*
X59199820Y31882493D01*
X59156953Y31910127D01*
X59110157Y31915255D01*
X59065576Y31897783D01*
X59050072Y31884779D01*
X59038690Y31872553D01*
X59030519Y31859460D01*
X59025026Y31841385D01*
X59021680Y31814213D01*
X59019949Y31773830D01*
X59019303Y31716121D01*
X59019208Y31645868D01*
X59019208Y31437821D01*
X58880891Y31437821D01*
X58880891Y32041386D01*
X58950050Y32041386D01*
X58991572Y32039744D01*
X59012994Y32033913D01*
X59019205Y32022539D01*
X59019208Y32022202D01*
X59022090Y32011062D01*
X59034801Y32012326D01*
X59060074Y32024566D01*
X59117395Y32042576D01*
X59182963Y32044579D01*
X59245988Y32030998D01*
G36*
X59245988Y32030998D02*
G01*
X59277283Y32016050D01*
X59307591Y31994459D01*
X59330682Y31969609D01*
X59347500Y31937913D01*
X59358994Y31895786D01*
X59366109Y31839642D01*
X59369793Y31765894D01*
X59370992Y31670956D01*
X59371011Y31661015D01*
X59371287Y31437821D01*
X59232970Y31437821D01*
X59232970Y31643582D01*
X59232872Y31719811D01*
X59232191Y31775061D01*
X59230349Y31813499D01*
X59226767Y31839294D01*
X59220868Y31856616D01*
X59212073Y31869632D01*
X59199820Y31882493D01*
X59156953Y31910127D01*
X59110157Y31915255D01*
X59065576Y31897783D01*
X59050072Y31884779D01*
X59038690Y31872553D01*
X59030519Y31859460D01*
X59025026Y31841385D01*
X59021680Y31814213D01*
X59019949Y31773830D01*
X59019303Y31716121D01*
X59019208Y31645868D01*
X59019208Y31437821D01*
X58880891Y31437821D01*
X58880891Y32041386D01*
X58950050Y32041386D01*
X58991572Y32039744D01*
X59012994Y32033913D01*
X59019205Y32022539D01*
X59019208Y32022202D01*
X59022090Y32011062D01*
X59034801Y32012326D01*
X59060074Y32024566D01*
X59117395Y32042576D01*
X59182963Y32044579D01*
X59245988Y32030998D01*
G37*
X62217226Y32036120D02*
X62290080Y32005170D01*
X62313027Y31990105D01*
X62342354Y31966952D01*
X62360764Y31948747D01*
X62363961Y31942817D01*
X62354935Y31929660D01*
X62331837Y31907333D01*
X62313344Y31891750D01*
X62262728Y31851074D01*
X62222760Y31884705D01*
X62191874Y31906416D01*
X62161759Y31913910D01*
X62127292Y31912080D01*
X62072561Y31898472D01*
X62034886Y31870228D01*
X62011991Y31824567D01*
X62001597Y31758711D01*
X62001595Y31758669D01*
X62002494Y31685061D01*
X62016463Y31631054D01*
X62044328Y31594284D01*
X62063325Y31581832D01*
X62113776Y31566327D01*
X62167663Y31566317D01*
X62214546Y31581362D01*
X62225644Y31588713D01*
X62253476Y31607489D01*
X62275236Y31610566D01*
X62298704Y31596591D01*
X62324649Y31571490D01*
X62365716Y31529120D01*
X62320121Y31491536D01*
X62249674Y31449118D01*
X62170233Y31428215D01*
X62087215Y31429728D01*
X62032694Y31443589D01*
X61968970Y31477865D01*
X61918005Y31531788D01*
X61894851Y31569851D01*
X61876099Y31624464D01*
X61866715Y31693631D01*
X61866643Y31768593D01*
X61875824Y31840591D01*
X61894199Y31900863D01*
X61897093Y31907042D01*
X61939952Y31967649D01*
X61997979Y32011776D01*
X62066591Y32038507D01*
X62141201Y32046927D01*
X62217226Y32036120D01*
G36*
X62217226Y32036120D02*
G01*
X62290080Y32005170D01*
X62313027Y31990105D01*
X62342354Y31966952D01*
X62360764Y31948747D01*
X62363961Y31942817D01*
X62354935Y31929660D01*
X62331837Y31907333D01*
X62313344Y31891750D01*
X62262728Y31851074D01*
X62222760Y31884705D01*
X62191874Y31906416D01*
X62161759Y31913910D01*
X62127292Y31912080D01*
X62072561Y31898472D01*
X62034886Y31870228D01*
X62011991Y31824567D01*
X62001597Y31758711D01*
X62001595Y31758669D01*
X62002494Y31685061D01*
X62016463Y31631054D01*
X62044328Y31594284D01*
X62063325Y31581832D01*
X62113776Y31566327D01*
X62167663Y31566317D01*
X62214546Y31581362D01*
X62225644Y31588713D01*
X62253476Y31607489D01*
X62275236Y31610566D01*
X62298704Y31596591D01*
X62324649Y31571490D01*
X62365716Y31529120D01*
X62320121Y31491536D01*
X62249674Y31449118D01*
X62170233Y31428215D01*
X62087215Y31429728D01*
X62032694Y31443589D01*
X61968970Y31477865D01*
X61918005Y31531788D01*
X61894851Y31569851D01*
X61876099Y31624464D01*
X61866715Y31693631D01*
X61866643Y31768593D01*
X61875824Y31840591D01*
X61894199Y31900863D01*
X61897093Y31907042D01*
X61939952Y31967649D01*
X61997979Y32011776D01*
X62066591Y32038507D01*
X62141201Y32046927D01*
X62217226Y32036120D01*
G37*
X60610762Y32033945D02*
X60674363Y31999308D01*
X60724123Y31944628D01*
X60747568Y31900158D01*
X60757634Y31860879D01*
X60764156Y31804884D01*
X60766951Y31740379D01*
X60765836Y31675571D01*
X60760626Y31618666D01*
X60754541Y31588273D01*
X60734014Y31546694D01*
X60698463Y31502532D01*
X60655619Y31463913D01*
X60613211Y31438966D01*
X60612177Y31438570D01*
X60559553Y31427669D01*
X60497188Y31427399D01*
X60437924Y31437324D01*
X60415040Y31445278D01*
X60356102Y31478700D01*
X60313890Y31522489D01*
X60286156Y31580462D01*
X60270651Y31656435D01*
X60267143Y31696229D01*
X60267590Y31746234D01*
X60402376Y31746234D01*
X60406917Y31673268D01*
X60419986Y31617666D01*
X60440756Y31582139D01*
X60455552Y31571980D01*
X60493464Y31564896D01*
X60538527Y31566993D01*
X60577487Y31577188D01*
X60587704Y31582796D01*
X60614659Y31615462D01*
X60632451Y31665455D01*
X60640024Y31726295D01*
X60636325Y31791503D01*
X60628057Y31830747D01*
X60604320Y31876195D01*
X60566849Y31904604D01*
X60521720Y31914427D01*
X60475011Y31904113D01*
X60439132Y31878888D01*
X60420277Y31858075D01*
X60409272Y31837561D01*
X60404026Y31809797D01*
X60402449Y31767238D01*
X60402376Y31746234D01*
X60267590Y31746234D01*
X60268094Y31802420D01*
X60285388Y31889499D01*
X60319029Y31957470D01*
X60369018Y32006336D01*
X60435356Y32036101D01*
X60449601Y32039552D01*
X60535210Y32047655D01*
X60610762Y32033945D01*
G36*
X60610762Y32033945D02*
G01*
X60674363Y31999308D01*
X60724123Y31944628D01*
X60747568Y31900158D01*
X60757634Y31860879D01*
X60764156Y31804884D01*
X60766951Y31740379D01*
X60765836Y31675571D01*
X60760626Y31618666D01*
X60754541Y31588273D01*
X60734014Y31546694D01*
X60698463Y31502532D01*
X60655619Y31463913D01*
X60613211Y31438966D01*
X60612177Y31438570D01*
X60559553Y31427669D01*
X60497188Y31427399D01*
X60437924Y31437324D01*
X60415040Y31445278D01*
X60356102Y31478700D01*
X60313890Y31522489D01*
X60286156Y31580462D01*
X60270651Y31656435D01*
X60267143Y31696229D01*
X60267590Y31746234D01*
X60402376Y31746234D01*
X60406917Y31673268D01*
X60419986Y31617666D01*
X60440756Y31582139D01*
X60455552Y31571980D01*
X60493464Y31564896D01*
X60538527Y31566993D01*
X60577487Y31577188D01*
X60587704Y31582796D01*
X60614659Y31615462D01*
X60632451Y31665455D01*
X60640024Y31726295D01*
X60636325Y31791503D01*
X60628057Y31830747D01*
X60604320Y31876195D01*
X60566849Y31904604D01*
X60521720Y31914427D01*
X60475011Y31904113D01*
X60439132Y31878888D01*
X60420277Y31858075D01*
X60409272Y31837561D01*
X60404026Y31809797D01*
X60402449Y31767238D01*
X60402376Y31746234D01*
X60267590Y31746234D01*
X60268094Y31802420D01*
X60285388Y31889499D01*
X60319029Y31957470D01*
X60369018Y32006336D01*
X60435356Y32036101D01*
X60449601Y32039552D01*
X60535210Y32047655D01*
X60610762Y32033945D01*
G37*
X60281524Y31095763D02*
X60331255Y31092029D01*
X60461291Y30702227D01*
X60481678Y30771386D01*
X60493946Y30814126D01*
X60510085Y30871885D01*
X60527512Y30935375D01*
X60536726Y30969430D01*
X60571388Y31098317D01*
X60714391Y31098317D01*
X60671646Y30963143D01*
X60650596Y30896658D01*
X60625167Y30816461D01*
X60598610Y30732807D01*
X60574902Y30658218D01*
X60520902Y30488465D01*
X60462598Y30484672D01*
X60404295Y30480878D01*
X60372679Y30585266D01*
X60353182Y30650111D01*
X60331904Y30721600D01*
X60313308Y30784737D01*
X60312574Y30787250D01*
X60298684Y30830031D01*
X60286429Y30859221D01*
X60277846Y30870259D01*
X60276082Y30868982D01*
X60269891Y30851870D01*
X60258128Y30815213D01*
X60242225Y30763622D01*
X60223614Y30701706D01*
X60213543Y30667648D01*
X60159007Y30482178D01*
X60043264Y30482178D01*
X59950737Y30774529D01*
X59924744Y30856538D01*
X59901066Y30931013D01*
X59880820Y30994456D01*
X59865126Y31043368D01*
X59855102Y31074251D01*
X59852055Y31083274D01*
X59854467Y31092513D01*
X59873408Y31096559D01*
X59912823Y31096154D01*
X59918993Y31095848D01*
X59992086Y31092029D01*
X60039957Y30915990D01*
X60057553Y30851789D01*
X60073277Y30795351D01*
X60085746Y30751578D01*
X60093574Y30725370D01*
X60095020Y30721097D01*
X60101014Y30726010D01*
X60113101Y30751468D01*
X60129893Y30794003D01*
X60150003Y30850150D01*
X60167003Y30900870D01*
X60231794Y31099496D01*
X60281524Y31095763D01*
G36*
X60281524Y31095763D02*
G01*
X60331255Y31092029D01*
X60461291Y30702227D01*
X60481678Y30771386D01*
X60493946Y30814126D01*
X60510085Y30871885D01*
X60527512Y30935375D01*
X60536726Y30969430D01*
X60571388Y31098317D01*
X60714391Y31098317D01*
X60671646Y30963143D01*
X60650596Y30896658D01*
X60625167Y30816461D01*
X60598610Y30732807D01*
X60574902Y30658218D01*
X60520902Y30488465D01*
X60462598Y30484672D01*
X60404295Y30480878D01*
X60372679Y30585266D01*
X60353182Y30650111D01*
X60331904Y30721600D01*
X60313308Y30784737D01*
X60312574Y30787250D01*
X60298684Y30830031D01*
X60286429Y30859221D01*
X60277846Y30870259D01*
X60276082Y30868982D01*
X60269891Y30851870D01*
X60258128Y30815213D01*
X60242225Y30763622D01*
X60223614Y30701706D01*
X60213543Y30667648D01*
X60159007Y30482178D01*
X60043264Y30482178D01*
X59950737Y30774529D01*
X59924744Y30856538D01*
X59901066Y30931013D01*
X59880820Y30994456D01*
X59865126Y31043368D01*
X59855102Y31074251D01*
X59852055Y31083274D01*
X59854467Y31092513D01*
X59873408Y31096559D01*
X59912823Y31096154D01*
X59918993Y31095848D01*
X59992086Y31092029D01*
X60039957Y30915990D01*
X60057553Y30851789D01*
X60073277Y30795351D01*
X60085746Y30751578D01*
X60093574Y30725370D01*
X60095020Y30721097D01*
X60101014Y30726010D01*
X60113101Y30751468D01*
X60129893Y30794003D01*
X60150003Y30850150D01*
X60167003Y30900870D01*
X60231794Y31099496D01*
X60281524Y31095763D01*
G37*
X57461739Y32034852D02*
X57527521Y32005769D01*
X57577460Y31957207D01*
X57611626Y31889092D01*
X57630093Y31801349D01*
X57631417Y31787649D01*
X57632454Y31691061D01*
X57619007Y31606398D01*
X57591892Y31537779D01*
X57577373Y31515706D01*
X57526799Y31468989D01*
X57462391Y31438732D01*
X57390334Y31426176D01*
X57316815Y31432561D01*
X57260928Y31452228D01*
X57212868Y31485371D01*
X57173588Y31528825D01*
X57172908Y31529842D01*
X57156956Y31556662D01*
X57146590Y31583632D01*
X57140312Y31617668D01*
X57136627Y31665690D01*
X57135003Y31705069D01*
X57134328Y31740781D01*
X57260045Y31740781D01*
X57261274Y31705230D01*
X57265734Y31657906D01*
X57273603Y31627535D01*
X57287793Y31605928D01*
X57301083Y31593306D01*
X57348198Y31566878D01*
X57397495Y31563347D01*
X57443407Y31582361D01*
X57466362Y31603669D01*
X57482904Y31625141D01*
X57492579Y31645687D01*
X57496826Y31672426D01*
X57497080Y31712477D01*
X57495772Y31749362D01*
X57492957Y31802053D01*
X57488495Y31836228D01*
X57480452Y31858520D01*
X57466897Y31875558D01*
X57456155Y31885297D01*
X57411223Y31910877D01*
X57362751Y31912153D01*
X57322106Y31897001D01*
X57287433Y31865358D01*
X57266776Y31813380D01*
X57260045Y31740781D01*
X57134328Y31740781D01*
X57133521Y31783379D01*
X57136052Y31841944D01*
X57143638Y31885993D01*
X57157319Y31920752D01*
X57178135Y31951449D01*
X57185853Y31960564D01*
X57234111Y32005979D01*
X57285872Y32032507D01*
X57349172Y32043621D01*
X57380039Y32044529D01*
X57461739Y32034852D01*
G36*
X57461739Y32034852D02*
G01*
X57527521Y32005769D01*
X57577460Y31957207D01*
X57611626Y31889092D01*
X57630093Y31801349D01*
X57631417Y31787649D01*
X57632454Y31691061D01*
X57619007Y31606398D01*
X57591892Y31537779D01*
X57577373Y31515706D01*
X57526799Y31468989D01*
X57462391Y31438732D01*
X57390334Y31426176D01*
X57316815Y31432561D01*
X57260928Y31452228D01*
X57212868Y31485371D01*
X57173588Y31528825D01*
X57172908Y31529842D01*
X57156956Y31556662D01*
X57146590Y31583632D01*
X57140312Y31617668D01*
X57136627Y31665690D01*
X57135003Y31705069D01*
X57134328Y31740781D01*
X57260045Y31740781D01*
X57261274Y31705230D01*
X57265734Y31657906D01*
X57273603Y31627535D01*
X57287793Y31605928D01*
X57301083Y31593306D01*
X57348198Y31566878D01*
X57397495Y31563347D01*
X57443407Y31582361D01*
X57466362Y31603669D01*
X57482904Y31625141D01*
X57492579Y31645687D01*
X57496826Y31672426D01*
X57497080Y31712477D01*
X57495772Y31749362D01*
X57492957Y31802053D01*
X57488495Y31836228D01*
X57480452Y31858520D01*
X57466897Y31875558D01*
X57456155Y31885297D01*
X57411223Y31910877D01*
X57362751Y31912153D01*
X57322106Y31897001D01*
X57287433Y31865358D01*
X57266776Y31813380D01*
X57260045Y31740781D01*
X57134328Y31740781D01*
X57133521Y31783379D01*
X57136052Y31841944D01*
X57143638Y31885993D01*
X57157319Y31920752D01*
X57178135Y31951449D01*
X57185853Y31960564D01*
X57234111Y32005979D01*
X57285872Y32032507D01*
X57349172Y32043621D01*
X57380039Y32044529D01*
X57461739Y32034852D01*
G37*
X59798812Y30482178D02*
X59729654Y30482178D01*
X59689512Y30483355D01*
X59668606Y30488228D01*
X59661078Y30498814D01*
X59660495Y30505971D01*
X59659226Y30520324D01*
X59651221Y30523077D01*
X59630185Y30514229D01*
X59613827Y30505971D01*
X59551023Y30486403D01*
X59482752Y30485271D01*
X59427248Y30499865D01*
X59375562Y30535123D01*
X59336162Y30587165D01*
X59314587Y30648550D01*
X59314038Y30651982D01*
X59310833Y30689429D01*
X59309239Y30743187D01*
X59309367Y30783845D01*
X59446721Y30783845D01*
X59449903Y30729806D01*
X59457141Y30685265D01*
X59466940Y30660112D01*
X59504011Y30625740D01*
X59548026Y30613418D01*
X59593416Y30623382D01*
X59632203Y30653105D01*
X59646892Y30673095D01*
X59655481Y30696950D01*
X59659504Y30731770D01*
X59660495Y30784070D01*
X59658722Y30835861D01*
X59654037Y30881366D01*
X59647397Y30911819D01*
X59646290Y30914548D01*
X59619509Y30947000D01*
X59580421Y30964817D01*
X59536685Y30967694D01*
X59495962Y30955326D01*
X59465913Y30927407D01*
X59462796Y30921852D01*
X59453039Y30887978D01*
X59447723Y30839272D01*
X59446721Y30783845D01*
X59309367Y30783845D01*
X59309432Y30804460D01*
X59310336Y30837437D01*
X59316486Y30919019D01*
X59329267Y30980270D01*
X59350529Y31025551D01*
X59382122Y31059221D01*
X59412793Y31078986D01*
X59455646Y31092880D01*
X59508944Y31097646D01*
X59563520Y31093764D01*
X59610208Y31081718D01*
X59634876Y31067307D01*
X59660495Y31044122D01*
X59660495Y31337227D01*
X59798812Y31337227D01*
X59798812Y30482178D01*
G36*
X59798812Y30482178D02*
G01*
X59729654Y30482178D01*
X59689512Y30483355D01*
X59668606Y30488228D01*
X59661078Y30498814D01*
X59660495Y30505971D01*
X59659226Y30520324D01*
X59651221Y30523077D01*
X59630185Y30514229D01*
X59613827Y30505971D01*
X59551023Y30486403D01*
X59482752Y30485271D01*
X59427248Y30499865D01*
X59375562Y30535123D01*
X59336162Y30587165D01*
X59314587Y30648550D01*
X59314038Y30651982D01*
X59310833Y30689429D01*
X59309239Y30743187D01*
X59309367Y30783845D01*
X59446721Y30783845D01*
X59449903Y30729806D01*
X59457141Y30685265D01*
X59466940Y30660112D01*
X59504011Y30625740D01*
X59548026Y30613418D01*
X59593416Y30623382D01*
X59632203Y30653105D01*
X59646892Y30673095D01*
X59655481Y30696950D01*
X59659504Y30731770D01*
X59660495Y30784070D01*
X59658722Y30835861D01*
X59654037Y30881366D01*
X59647397Y30911819D01*
X59646290Y30914548D01*
X59619509Y30947000D01*
X59580421Y30964817D01*
X59536685Y30967694D01*
X59495962Y30955326D01*
X59465913Y30927407D01*
X59462796Y30921852D01*
X59453039Y30887978D01*
X59447723Y30839272D01*
X59446721Y30783845D01*
X59309367Y30783845D01*
X59309432Y30804460D01*
X59310336Y30837437D01*
X59316486Y30919019D01*
X59329267Y30980270D01*
X59350529Y31025551D01*
X59382122Y31059221D01*
X59412793Y31078986D01*
X59455646Y31092880D01*
X59508944Y31097646D01*
X59563520Y31093764D01*
X59610208Y31081718D01*
X59634876Y31067307D01*
X59660495Y31044122D01*
X59660495Y31337227D01*
X59798812Y31337227D01*
X59798812Y30482178D01*
G37*
X62677898Y32043543D02*
X62710096Y32035721D01*
X62771825Y32007079D01*
X62824610Y31963333D01*
X62861141Y31910883D01*
X62866160Y31899107D01*
X62873045Y31868260D01*
X62877864Y31822629D01*
X62879505Y31776508D01*
X62879505Y31689307D01*
X62697178Y31689307D01*
X62621979Y31689022D01*
X62569003Y31687296D01*
X62535325Y31682819D01*
X62518020Y31674280D01*
X62514163Y31660370D01*
X62520829Y31639778D01*
X62532770Y31615685D01*
X62566080Y31575475D01*
X62612368Y31555442D01*
X62668944Y31556095D01*
X62733031Y31577899D01*
X62788417Y31604807D01*
X62834375Y31568468D01*
X62880333Y31532128D01*
X62837096Y31492181D01*
X62779374Y31454437D01*
X62708386Y31431680D01*
X62632029Y31425312D01*
X62558199Y31436732D01*
X62546287Y31440607D01*
X62481399Y31474494D01*
X62433130Y31525014D01*
X62400465Y31593675D01*
X62382385Y31681986D01*
X62382175Y31683879D01*
X62380556Y31780122D01*
X62387100Y31814458D01*
X62514852Y31814458D01*
X62526584Y31809178D01*
X62558438Y31805133D01*
X62605397Y31802824D01*
X62635154Y31802475D01*
X62690648Y31802694D01*
X62725346Y31804084D01*
X62743601Y31807749D01*
X62749766Y31814790D01*
X62748195Y31826310D01*
X62746878Y31830767D01*
X62724382Y31872645D01*
X62689003Y31906396D01*
X62657780Y31921227D01*
X62616301Y31920332D01*
X62574269Y31901836D01*
X62539012Y31871214D01*
X62517854Y31833938D01*
X62514852Y31814458D01*
X62387100Y31814458D01*
X62396690Y31864771D01*
X62428698Y31935809D01*
X62474701Y31991221D01*
X62532821Y32028991D01*
X62601180Y32047104D01*
X62677898Y32043543D01*
G36*
X62677898Y32043543D02*
G01*
X62710096Y32035721D01*
X62771825Y32007079D01*
X62824610Y31963333D01*
X62861141Y31910883D01*
X62866160Y31899107D01*
X62873045Y31868260D01*
X62877864Y31822629D01*
X62879505Y31776508D01*
X62879505Y31689307D01*
X62697178Y31689307D01*
X62621979Y31689022D01*
X62569003Y31687296D01*
X62535325Y31682819D01*
X62518020Y31674280D01*
X62514163Y31660370D01*
X62520829Y31639778D01*
X62532770Y31615685D01*
X62566080Y31575475D01*
X62612368Y31555442D01*
X62668944Y31556095D01*
X62733031Y31577899D01*
X62788417Y31604807D01*
X62834375Y31568468D01*
X62880333Y31532128D01*
X62837096Y31492181D01*
X62779374Y31454437D01*
X62708386Y31431680D01*
X62632029Y31425312D01*
X62558199Y31436732D01*
X62546287Y31440607D01*
X62481399Y31474494D01*
X62433130Y31525014D01*
X62400465Y31593675D01*
X62382385Y31681986D01*
X62382175Y31683879D01*
X62380556Y31780122D01*
X62387100Y31814458D01*
X62514852Y31814458D01*
X62526584Y31809178D01*
X62558438Y31805133D01*
X62605397Y31802824D01*
X62635154Y31802475D01*
X62690648Y31802694D01*
X62725346Y31804084D01*
X62743601Y31807749D01*
X62749766Y31814790D01*
X62748195Y31826310D01*
X62746878Y31830767D01*
X62724382Y31872645D01*
X62689003Y31906396D01*
X62657780Y31921227D01*
X62616301Y31920332D01*
X62574269Y31901836D01*
X62539012Y31871214D01*
X62517854Y31833938D01*
X62514852Y31814458D01*
X62387100Y31814458D01*
X62396690Y31864771D01*
X62428698Y31935809D01*
X62474701Y31991221D01*
X62532821Y32028991D01*
X62601180Y32047104D01*
X62677898Y32043543D01*
G37*
X60014017Y32043548D02*
X60061634Y32034518D01*
X60111034Y32015630D01*
X60116312Y32013223D01*
X60153774Y31993524D01*
X60179717Y31975219D01*
X60188103Y31963492D01*
X60180117Y31944368D01*
X60160720Y31916150D01*
X60152110Y31905616D01*
X60116628Y31864153D01*
X60070885Y31891142D01*
X60027350Y31909122D01*
X59977050Y31918733D01*
X59928812Y31919340D01*
X59891467Y31910309D01*
X59882505Y31904673D01*
X59865437Y31878829D01*
X59863363Y31849059D01*
X59876134Y31825803D01*
X59883688Y31821292D01*
X59906325Y31815691D01*
X59946115Y31809108D01*
X59995166Y31802817D01*
X60004215Y31801830D01*
X60082996Y31788202D01*
X60140136Y31765054D01*
X60178030Y31730248D01*
X60199079Y31681646D01*
X60205635Y31622282D01*
X60196577Y31554802D01*
X60167164Y31501812D01*
X60117278Y31463217D01*
X60046800Y31438919D01*
X59968565Y31429333D01*
X59904766Y31429448D01*
X59853016Y31438155D01*
X59817673Y31450175D01*
X59773017Y31471120D01*
X59731747Y31495426D01*
X59717079Y31506124D01*
X59679357Y31536916D01*
X59724852Y31582951D01*
X59770347Y31628987D01*
X59822072Y31594757D01*
X59873952Y31569048D01*
X59929351Y31555601D01*
X59982605Y31554182D01*
X60028049Y31564557D01*
X60060016Y31586493D01*
X60070338Y31605002D01*
X60068789Y31634686D01*
X60043140Y31657385D01*
X59993460Y31673060D01*
X59939031Y31680305D01*
X59855264Y31694127D01*
X59793033Y31720204D01*
X59751507Y31759301D01*
X59729853Y31812180D01*
X59726853Y31874874D01*
X59741671Y31940358D01*
X59775454Y31989856D01*
X59828505Y32023592D01*
X59901126Y32041793D01*
X59954928Y32045361D01*
X60014017Y32043548D01*
G36*
X60014017Y32043548D02*
G01*
X60061634Y32034518D01*
X60111034Y32015630D01*
X60116312Y32013223D01*
X60153774Y31993524D01*
X60179717Y31975219D01*
X60188103Y31963492D01*
X60180117Y31944368D01*
X60160720Y31916150D01*
X60152110Y31905616D01*
X60116628Y31864153D01*
X60070885Y31891142D01*
X60027350Y31909122D01*
X59977050Y31918733D01*
X59928812Y31919340D01*
X59891467Y31910309D01*
X59882505Y31904673D01*
X59865437Y31878829D01*
X59863363Y31849059D01*
X59876134Y31825803D01*
X59883688Y31821292D01*
X59906325Y31815691D01*
X59946115Y31809108D01*
X59995166Y31802817D01*
X60004215Y31801830D01*
X60082996Y31788202D01*
X60140136Y31765054D01*
X60178030Y31730248D01*
X60199079Y31681646D01*
X60205635Y31622282D01*
X60196577Y31554802D01*
X60167164Y31501812D01*
X60117278Y31463217D01*
X60046800Y31438919D01*
X59968565Y31429333D01*
X59904766Y31429448D01*
X59853016Y31438155D01*
X59817673Y31450175D01*
X59773017Y31471120D01*
X59731747Y31495426D01*
X59717079Y31506124D01*
X59679357Y31536916D01*
X59724852Y31582951D01*
X59770347Y31628987D01*
X59822072Y31594757D01*
X59873952Y31569048D01*
X59929351Y31555601D01*
X59982605Y31554182D01*
X60028049Y31564557D01*
X60060016Y31586493D01*
X60070338Y31605002D01*
X60068789Y31634686D01*
X60043140Y31657385D01*
X59993460Y31673060D01*
X59939031Y31680305D01*
X59855264Y31694127D01*
X59793033Y31720204D01*
X59751507Y31759301D01*
X59729853Y31812180D01*
X59726853Y31874874D01*
X59741671Y31940358D01*
X59775454Y31989856D01*
X59828505Y32023592D01*
X59901126Y32041793D01*
X59954928Y32045361D01*
X60014017Y32043548D01*
G37*
X62032581Y31095030D02*
X62092685Y31079403D01*
X62143021Y31047152D01*
X62167393Y31023060D01*
X62207345Y30966105D01*
X62230242Y30900035D01*
X62238108Y30818818D01*
X62238148Y30812252D01*
X62238218Y30746237D01*
X61858264Y30746237D01*
X61866363Y30711658D01*
X61880987Y30680341D01*
X61906581Y30647709D01*
X61911935Y30642500D01*
X61957943Y30614306D01*
X62010410Y30609525D01*
X62070803Y30628074D01*
X62081040Y30633069D01*
X62112439Y30648255D01*
X62133470Y30656906D01*
X62137139Y30657707D01*
X62149948Y30649937D01*
X62174378Y30630928D01*
X62186779Y30620540D01*
X62212476Y30596679D01*
X62220915Y30580923D01*
X62215058Y30566429D01*
X62211928Y30562466D01*
X62190725Y30545121D01*
X62155738Y30524041D01*
X62131337Y30511735D01*
X62062072Y30490054D01*
X61985388Y30483029D01*
X61912765Y30491353D01*
X61892426Y30497314D01*
X61829476Y30531048D01*
X61782815Y30582955D01*
X61752173Y30653541D01*
X61737282Y30743308D01*
X61735647Y30790247D01*
X61740421Y30858587D01*
X61860990Y30858587D01*
X61872652Y30853535D01*
X61903998Y30849571D01*
X61949571Y30847232D01*
X61980446Y30846831D01*
X62035981Y30847217D01*
X62071033Y30849025D01*
X62090262Y30853227D01*
X62098330Y30860797D01*
X62099901Y30871782D01*
X62089121Y30905619D01*
X62061980Y30939060D01*
X62026277Y30964728D01*
X61990560Y30975228D01*
X61942048Y30965914D01*
X61900053Y30938987D01*
X61870936Y30900173D01*
X61860990Y30858587D01*
X61740421Y30858587D01*
X61742599Y30889764D01*
X61764055Y30969051D01*
X61800470Y31028737D01*
X61852297Y31069451D01*
X61919990Y31091821D01*
X61956662Y31096129D01*
X62032581Y31095030D01*
G36*
X62032581Y31095030D02*
G01*
X62092685Y31079403D01*
X62143021Y31047152D01*
X62167393Y31023060D01*
X62207345Y30966105D01*
X62230242Y30900035D01*
X62238108Y30818818D01*
X62238148Y30812252D01*
X62238218Y30746237D01*
X61858264Y30746237D01*
X61866363Y30711658D01*
X61880987Y30680341D01*
X61906581Y30647709D01*
X61911935Y30642500D01*
X61957943Y30614306D01*
X62010410Y30609525D01*
X62070803Y30628074D01*
X62081040Y30633069D01*
X62112439Y30648255D01*
X62133470Y30656906D01*
X62137139Y30657707D01*
X62149948Y30649937D01*
X62174378Y30630928D01*
X62186779Y30620540D01*
X62212476Y30596679D01*
X62220915Y30580923D01*
X62215058Y30566429D01*
X62211928Y30562466D01*
X62190725Y30545121D01*
X62155738Y30524041D01*
X62131337Y30511735D01*
X62062072Y30490054D01*
X61985388Y30483029D01*
X61912765Y30491353D01*
X61892426Y30497314D01*
X61829476Y30531048D01*
X61782815Y30582955D01*
X61752173Y30653541D01*
X61737282Y30743308D01*
X61735647Y30790247D01*
X61740421Y30858587D01*
X61860990Y30858587D01*
X61872652Y30853535D01*
X61903998Y30849571D01*
X61949571Y30847232D01*
X61980446Y30846831D01*
X62035981Y30847217D01*
X62071033Y30849025D01*
X62090262Y30853227D01*
X62098330Y30860797D01*
X62099901Y30871782D01*
X62089121Y30905619D01*
X62061980Y30939060D01*
X62026277Y30964728D01*
X61990560Y30975228D01*
X61942048Y30965914D01*
X61900053Y30938987D01*
X61870936Y30900173D01*
X61860990Y30858587D01*
X61740421Y30858587D01*
X61742599Y30889764D01*
X61764055Y30969051D01*
X61800470Y31028737D01*
X61852297Y31069451D01*
X61919990Y31091821D01*
X61956662Y31096129D01*
X62032581Y31095030D01*
G37*
X58643301Y32027386D02*
X58655832Y32021486D01*
X58699201Y31989717D01*
X58740210Y31943354D01*
X58770832Y31892304D01*
X58779541Y31868834D01*
X58787488Y31826909D01*
X58792226Y31776243D01*
X58792801Y31755321D01*
X58792871Y31689307D01*
X58412917Y31689307D01*
X58421017Y31654727D01*
X58440896Y31613830D01*
X58475653Y31578486D01*
X58517002Y31555718D01*
X58543351Y31550990D01*
X58579084Y31556727D01*
X58621718Y31571118D01*
X58636201Y31577738D01*
X58689760Y31604487D01*
X58735467Y31569624D01*
X58761842Y31546045D01*
X58775876Y31526583D01*
X58776586Y31520871D01*
X58764049Y31507027D01*
X58736572Y31485988D01*
X58711634Y31469575D01*
X58644336Y31440070D01*
X58568890Y31426716D01*
X58494112Y31430188D01*
X58434505Y31448337D01*
X58373059Y31487216D01*
X58329392Y31538405D01*
X58302074Y31604633D01*
X58289678Y31688629D01*
X58288579Y31727064D01*
X58292978Y31815139D01*
X58293518Y31817701D01*
X58419418Y31817701D01*
X58422885Y31809442D01*
X58437137Y31804887D01*
X58466530Y31802935D01*
X58515425Y31802483D01*
X58534252Y31802475D01*
X58591533Y31803157D01*
X58627859Y31805636D01*
X58647396Y31810557D01*
X58654310Y31818566D01*
X58654555Y31821138D01*
X58646664Y31841577D01*
X58626915Y31870211D01*
X58618425Y31880237D01*
X58586906Y31908592D01*
X58554051Y31919741D01*
X58536349Y31920673D01*
X58488461Y31909019D01*
X58448301Y31877715D01*
X58422827Y31832248D01*
X58422375Y31830767D01*
X58419418Y31817701D01*
X58293518Y31817701D01*
X58307608Y31884490D01*
X58333962Y31939975D01*
X58366193Y31979361D01*
X58425783Y32022069D01*
X58495832Y32044891D01*
X58570339Y32046954D01*
X58643301Y32027386D01*
G36*
X58643301Y32027386D02*
G01*
X58655832Y32021486D01*
X58699201Y31989717D01*
X58740210Y31943354D01*
X58770832Y31892304D01*
X58779541Y31868834D01*
X58787488Y31826909D01*
X58792226Y31776243D01*
X58792801Y31755321D01*
X58792871Y31689307D01*
X58412917Y31689307D01*
X58421017Y31654727D01*
X58440896Y31613830D01*
X58475653Y31578486D01*
X58517002Y31555718D01*
X58543351Y31550990D01*
X58579084Y31556727D01*
X58621718Y31571118D01*
X58636201Y31577738D01*
X58689760Y31604487D01*
X58735467Y31569624D01*
X58761842Y31546045D01*
X58775876Y31526583D01*
X58776586Y31520871D01*
X58764049Y31507027D01*
X58736572Y31485988D01*
X58711634Y31469575D01*
X58644336Y31440070D01*
X58568890Y31426716D01*
X58494112Y31430188D01*
X58434505Y31448337D01*
X58373059Y31487216D01*
X58329392Y31538405D01*
X58302074Y31604633D01*
X58289678Y31688629D01*
X58288579Y31727064D01*
X58292978Y31815139D01*
X58293518Y31817701D01*
X58419418Y31817701D01*
X58422885Y31809442D01*
X58437137Y31804887D01*
X58466530Y31802935D01*
X58515425Y31802483D01*
X58534252Y31802475D01*
X58591533Y31803157D01*
X58627859Y31805636D01*
X58647396Y31810557D01*
X58654310Y31818566D01*
X58654555Y31821138D01*
X58646664Y31841577D01*
X58626915Y31870211D01*
X58618425Y31880237D01*
X58586906Y31908592D01*
X58554051Y31919741D01*
X58536349Y31920673D01*
X58488461Y31909019D01*
X58448301Y31877715D01*
X58422827Y31832248D01*
X58422375Y31830767D01*
X58419418Y31817701D01*
X58293518Y31817701D01*
X58307608Y31884490D01*
X58333962Y31939975D01*
X58366193Y31979361D01*
X58425783Y32022069D01*
X58495832Y32044891D01*
X58570339Y32046954D01*
X58643301Y32027386D01*
G37*
X61038411Y31094583D02*
X61091411Y31081710D01*
X61106731Y31074890D01*
X61136428Y31057026D01*
X61159220Y31036907D01*
X61176083Y31011038D01*
X61187998Y30975927D01*
X61195942Y30928080D01*
X61200894Y30864004D01*
X61203831Y30780206D01*
X61204947Y30724232D01*
X61209052Y30482178D01*
X61138932Y30482178D01*
X61096393Y30483962D01*
X61074476Y30490058D01*
X61068812Y30500294D01*
X61065821Y30511363D01*
X61052451Y30509246D01*
X61034233Y30500371D01*
X60988624Y30486767D01*
X60930007Y30483101D01*
X60868354Y30489097D01*
X60813638Y30504479D01*
X60808730Y30506614D01*
X60758723Y30541745D01*
X60725756Y30590581D01*
X60710587Y30647667D01*
X60711746Y30668176D01*
X60835508Y30668176D01*
X60846413Y30640575D01*
X60878745Y30620796D01*
X60930910Y30610181D01*
X60958787Y30608772D01*
X61005247Y30612380D01*
X61036129Y30626403D01*
X61043664Y30633069D01*
X61064076Y30669334D01*
X61068812Y30702227D01*
X61068812Y30746237D01*
X61007513Y30746237D01*
X60936256Y30742605D01*
X60886276Y30731182D01*
X60854696Y30711176D01*
X60847626Y30702257D01*
X60835508Y30668176D01*
X60711746Y30668176D01*
X60713971Y30707544D01*
X60736663Y30764756D01*
X60767624Y30803420D01*
X60786376Y30820136D01*
X60804733Y30831122D01*
X60828619Y30837820D01*
X60863957Y30841674D01*
X60916669Y30844127D01*
X60937577Y30844832D01*
X61068812Y30849121D01*
X61068620Y30888842D01*
X61063537Y30930595D01*
X61045162Y30955842D01*
X61008039Y30971970D01*
X61007043Y30972258D01*
X60954410Y30978600D01*
X60902906Y30970316D01*
X60864630Y30950173D01*
X60849272Y30940227D01*
X60832730Y30941603D01*
X60807275Y30956013D01*
X60792328Y30966183D01*
X60763091Y30987912D01*
X60744980Y31004200D01*
X60742074Y31008863D01*
X60754040Y31032995D01*
X60789396Y31061815D01*
X60804753Y31071539D01*
X60848901Y31088286D01*
X60908398Y31097773D01*
X60974487Y31099905D01*
X61038411Y31094583D01*
G36*
X61038411Y31094583D02*
G01*
X61091411Y31081710D01*
X61106731Y31074890D01*
X61136428Y31057026D01*
X61159220Y31036907D01*
X61176083Y31011038D01*
X61187998Y30975927D01*
X61195942Y30928080D01*
X61200894Y30864004D01*
X61203831Y30780206D01*
X61204947Y30724232D01*
X61209052Y30482178D01*
X61138932Y30482178D01*
X61096393Y30483962D01*
X61074476Y30490058D01*
X61068812Y30500294D01*
X61065821Y30511363D01*
X61052451Y30509246D01*
X61034233Y30500371D01*
X60988624Y30486767D01*
X60930007Y30483101D01*
X60868354Y30489097D01*
X60813638Y30504479D01*
X60808730Y30506614D01*
X60758723Y30541745D01*
X60725756Y30590581D01*
X60710587Y30647667D01*
X60711746Y30668176D01*
X60835508Y30668176D01*
X60846413Y30640575D01*
X60878745Y30620796D01*
X60930910Y30610181D01*
X60958787Y30608772D01*
X61005247Y30612380D01*
X61036129Y30626403D01*
X61043664Y30633069D01*
X61064076Y30669334D01*
X61068812Y30702227D01*
X61068812Y30746237D01*
X61007513Y30746237D01*
X60936256Y30742605D01*
X60886276Y30731182D01*
X60854696Y30711176D01*
X60847626Y30702257D01*
X60835508Y30668176D01*
X60711746Y30668176D01*
X60713971Y30707544D01*
X60736663Y30764756D01*
X60767624Y30803420D01*
X60786376Y30820136D01*
X60804733Y30831122D01*
X60828619Y30837820D01*
X60863957Y30841674D01*
X60916669Y30844127D01*
X60937577Y30844832D01*
X61068812Y30849121D01*
X61068620Y30888842D01*
X61063537Y30930595D01*
X61045162Y30955842D01*
X61008039Y30971970D01*
X61007043Y30972258D01*
X60954410Y30978600D01*
X60902906Y30970316D01*
X60864630Y30950173D01*
X60849272Y30940227D01*
X60832730Y30941603D01*
X60807275Y30956013D01*
X60792328Y30966183D01*
X60763091Y30987912D01*
X60744980Y31004200D01*
X60742074Y31008863D01*
X60754040Y31032995D01*
X60789396Y31061815D01*
X60804753Y31071539D01*
X60848901Y31088286D01*
X60908398Y31097773D01*
X60974487Y31099905D01*
X61038411Y31094583D01*
G37*
X58615790Y31093445D02*
X58674945Y31077661D01*
X58719977Y31049052D01*
X58751754Y31011581D01*
X58761634Y30995589D01*
X58768927Y30978837D01*
X58774026Y30957408D01*
X58777321Y30927384D01*
X58779203Y30884846D01*
X58780063Y30825878D01*
X58780293Y30746560D01*
X58780297Y30725516D01*
X58780297Y30482178D01*
X58719941Y30482178D01*
X58681443Y30484874D01*
X58652977Y30491705D01*
X58645845Y30495917D01*
X58626348Y30503187D01*
X58606434Y30495917D01*
X58573647Y30486840D01*
X58526022Y30483187D01*
X58473236Y30484772D01*
X58424964Y30491411D01*
X58396782Y30499928D01*
X58342247Y30534937D01*
X58308165Y30583521D01*
X58292843Y30648118D01*
X58292701Y30649777D01*
X58294045Y30678434D01*
X58415644Y30678434D01*
X58426274Y30645839D01*
X58443590Y30627495D01*
X58478348Y30613621D01*
X58524227Y30608083D01*
X58571012Y30610809D01*
X58608486Y30621726D01*
X58618985Y30628731D01*
X58637332Y30661096D01*
X58641980Y30697889D01*
X58641980Y30746237D01*
X58572418Y30746237D01*
X58506333Y30741150D01*
X58456236Y30726737D01*
X58425071Y30704271D01*
X58415644Y30678434D01*
X58294045Y30678434D01*
X58296013Y30720353D01*
X58319290Y30776155D01*
X58363052Y30818353D01*
X58369101Y30822192D01*
X58395093Y30834691D01*
X58427265Y30842260D01*
X58472240Y30845939D01*
X58525669Y30846784D01*
X58641980Y30846831D01*
X58641980Y30895589D01*
X58637047Y30933419D01*
X58624457Y30958764D01*
X58622983Y30960113D01*
X58594966Y30971200D01*
X58552674Y30975497D01*
X58505936Y30973385D01*
X58464582Y30965244D01*
X58440043Y30953035D01*
X58426747Y30943254D01*
X58412706Y30941387D01*
X58393329Y30949400D01*
X58364024Y30969261D01*
X58320197Y31002937D01*
X58316175Y31006091D01*
X58318236Y31017764D01*
X58335432Y31037178D01*
X58361567Y31058752D01*
X58390448Y31076904D01*
X58399522Y31081191D01*
X58432620Y31089744D01*
X58481120Y31095845D01*
X58535305Y31098292D01*
X58537839Y31098297D01*
X58615790Y31093445D01*
G36*
X58615790Y31093445D02*
G01*
X58674945Y31077661D01*
X58719977Y31049052D01*
X58751754Y31011581D01*
X58761634Y30995589D01*
X58768927Y30978837D01*
X58774026Y30957408D01*
X58777321Y30927384D01*
X58779203Y30884846D01*
X58780063Y30825878D01*
X58780293Y30746560D01*
X58780297Y30725516D01*
X58780297Y30482178D01*
X58719941Y30482178D01*
X58681443Y30484874D01*
X58652977Y30491705D01*
X58645845Y30495917D01*
X58626348Y30503187D01*
X58606434Y30495917D01*
X58573647Y30486840D01*
X58526022Y30483187D01*
X58473236Y30484772D01*
X58424964Y30491411D01*
X58396782Y30499928D01*
X58342247Y30534937D01*
X58308165Y30583521D01*
X58292843Y30648118D01*
X58292701Y30649777D01*
X58294045Y30678434D01*
X58415644Y30678434D01*
X58426274Y30645839D01*
X58443590Y30627495D01*
X58478348Y30613621D01*
X58524227Y30608083D01*
X58571012Y30610809D01*
X58608486Y30621726D01*
X58618985Y30628731D01*
X58637332Y30661096D01*
X58641980Y30697889D01*
X58641980Y30746237D01*
X58572418Y30746237D01*
X58506333Y30741150D01*
X58456236Y30726737D01*
X58425071Y30704271D01*
X58415644Y30678434D01*
X58294045Y30678434D01*
X58296013Y30720353D01*
X58319290Y30776155D01*
X58363052Y30818353D01*
X58369101Y30822192D01*
X58395093Y30834691D01*
X58427265Y30842260D01*
X58472240Y30845939D01*
X58525669Y30846784D01*
X58641980Y30846831D01*
X58641980Y30895589D01*
X58637047Y30933419D01*
X58624457Y30958764D01*
X58622983Y30960113D01*
X58594966Y30971200D01*
X58552674Y30975497D01*
X58505936Y30973385D01*
X58464582Y30965244D01*
X58440043Y30953035D01*
X58426747Y30943254D01*
X58412706Y30941387D01*
X58393329Y30949400D01*
X58364024Y30969261D01*
X58320197Y31002937D01*
X58316175Y31006091D01*
X58318236Y31017764D01*
X58335432Y31037178D01*
X58361567Y31058752D01*
X58390448Y31076904D01*
X58399522Y31081191D01*
X58432620Y31089744D01*
X58481120Y31095845D01*
X58535305Y31098292D01*
X58537839Y31098297D01*
X58615790Y31093445D01*
G37*
X58091241Y32030816D02*
X58117753Y32017718D01*
X58150447Y31994894D01*
X58174275Y31970004D01*
X58190594Y31938751D01*
X58200760Y31896834D01*
X58206128Y31839956D01*
X58208056Y31763816D01*
X58208169Y31731083D01*
X58207839Y31659344D01*
X58206473Y31608073D01*
X58203500Y31572596D01*
X58198351Y31548237D01*
X58190457Y31530320D01*
X58182243Y31518098D01*
X58129813Y31466095D01*
X58068070Y31434816D01*
X58001464Y31425408D01*
X57934442Y31439020D01*
X57913208Y31448646D01*
X57862376Y31475141D01*
X57862376Y31059948D01*
X57899475Y31079132D01*
X57948357Y31093975D01*
X58008439Y31097778D01*
X58068436Y31090757D01*
X58113744Y31074987D01*
X58151325Y31044953D01*
X58183436Y31001976D01*
X58185850Y30997564D01*
X58196033Y30976779D01*
X58203470Y30955830D01*
X58208589Y30930452D01*
X58211819Y30896382D01*
X58213587Y30849359D01*
X58214323Y30785118D01*
X58214456Y30712824D01*
X58214456Y30482178D01*
X58076139Y30482178D01*
X58076139Y30907467D01*
X58037451Y30940021D01*
X57997262Y30966060D01*
X57959203Y30970795D01*
X57920934Y30958611D01*
X57900538Y30946680D01*
X57885358Y30929687D01*
X57874562Y30904005D01*
X57867317Y30866009D01*
X57862792Y30812074D01*
X57860156Y30738575D01*
X57859228Y30689653D01*
X57856089Y30488465D01*
X57790074Y30484664D01*
X57724060Y30480864D01*
X57724060Y31729350D01*
X57862376Y31729350D01*
X57865903Y31659746D01*
X57877785Y31611431D01*
X57899980Y31581369D01*
X57934441Y31566529D01*
X57969258Y31563564D01*
X58008671Y31566972D01*
X58034829Y31580383D01*
X58051186Y31598104D01*
X58064063Y31617165D01*
X58071728Y31638399D01*
X58075139Y31668151D01*
X58075251Y31712764D01*
X58074103Y31750120D01*
X58071468Y31806396D01*
X58067544Y31843342D01*
X58060937Y31866777D01*
X58050251Y31882520D01*
X58040167Y31891620D01*
X57998030Y31911463D01*
X57948160Y31914668D01*
X57919524Y31907832D01*
X57891172Y31883536D01*
X57872391Y31836272D01*
X57863288Y31766376D01*
X57862376Y31729350D01*
X57724060Y31729350D01*
X57724060Y32041386D01*
X57793218Y32041386D01*
X57834740Y32039744D01*
X57856162Y32033913D01*
X57862374Y32022539D01*
X57862376Y32022202D01*
X57865258Y32011062D01*
X57877970Y32012327D01*
X57903243Y32024567D01*
X57962131Y32043293D01*
X58028385Y32045261D01*
X58091241Y32030816D01*
G36*
X58091241Y32030816D02*
G01*
X58117753Y32017718D01*
X58150447Y31994894D01*
X58174275Y31970004D01*
X58190594Y31938751D01*
X58200760Y31896834D01*
X58206128Y31839956D01*
X58208056Y31763816D01*
X58208169Y31731083D01*
X58207839Y31659344D01*
X58206473Y31608073D01*
X58203500Y31572596D01*
X58198351Y31548237D01*
X58190457Y31530320D01*
X58182243Y31518098D01*
X58129813Y31466095D01*
X58068070Y31434816D01*
X58001464Y31425408D01*
X57934442Y31439020D01*
X57913208Y31448646D01*
X57862376Y31475141D01*
X57862376Y31059948D01*
X57899475Y31079132D01*
X57948357Y31093975D01*
X58008439Y31097778D01*
X58068436Y31090757D01*
X58113744Y31074987D01*
X58151325Y31044953D01*
X58183436Y31001976D01*
X58185850Y30997564D01*
X58196033Y30976779D01*
X58203470Y30955830D01*
X58208589Y30930452D01*
X58211819Y30896382D01*
X58213587Y30849359D01*
X58214323Y30785118D01*
X58214456Y30712824D01*
X58214456Y30482178D01*
X58076139Y30482178D01*
X58076139Y30907467D01*
X58037451Y30940021D01*
X57997262Y30966060D01*
X57959203Y30970795D01*
X57920934Y30958611D01*
X57900538Y30946680D01*
X57885358Y30929687D01*
X57874562Y30904005D01*
X57867317Y30866009D01*
X57862792Y30812074D01*
X57860156Y30738575D01*
X57859228Y30689653D01*
X57856089Y30488465D01*
X57790074Y30484664D01*
X57724060Y30480864D01*
X57724060Y31729350D01*
X57862376Y31729350D01*
X57865903Y31659746D01*
X57877785Y31611431D01*
X57899980Y31581369D01*
X57934441Y31566529D01*
X57969258Y31563564D01*
X58008671Y31566972D01*
X58034829Y31580383D01*
X58051186Y31598104D01*
X58064063Y31617165D01*
X58071728Y31638399D01*
X58075139Y31668151D01*
X58075251Y31712764D01*
X58074103Y31750120D01*
X58071468Y31806396D01*
X58067544Y31843342D01*
X58060937Y31866777D01*
X58050251Y31882520D01*
X58040167Y31891620D01*
X57998030Y31911463D01*
X57948160Y31914668D01*
X57919524Y31907832D01*
X57891172Y31883536D01*
X57872391Y31836272D01*
X57863288Y31766376D01*
X57862376Y31729350D01*
X57724060Y31729350D01*
X57724060Y32041386D01*
X57793218Y32041386D01*
X57834740Y32039744D01*
X57856162Y32033913D01*
X57862374Y32022539D01*
X57862376Y32022202D01*
X57865258Y32011062D01*
X57877970Y32012327D01*
X57903243Y32024567D01*
X57962131Y32043293D01*
X58028385Y32045261D01*
X58091241Y32030816D01*
G37*
X60376964Y36209982D02*
X60433812Y35908430D01*
X60853338Y35735488D01*
X61104984Y35906605D01*
X61175458Y35954250D01*
X61239163Y35996790D01*
X61293126Y36032285D01*
X61334373Y36058790D01*
X61359934Y36074364D01*
X61366895Y36077722D01*
X61379435Y36069086D01*
X61406231Y36045208D01*
X61444280Y36009141D01*
X61490579Y35963933D01*
X61542123Y35912636D01*
X61595909Y35858299D01*
X61648935Y35803972D01*
X61698195Y35752705D01*
X61740687Y35707549D01*
X61773407Y35671554D01*
X61793351Y35647770D01*
X61798119Y35639810D01*
X61791257Y35625135D01*
X61772020Y35592986D01*
X61742430Y35546508D01*
X61704510Y35488844D01*
X61660282Y35423140D01*
X61634654Y35385664D01*
X61587941Y35317232D01*
X61546432Y35255480D01*
X61512140Y35203481D01*
X61487080Y35164308D01*
X61473264Y35141035D01*
X61471188Y35136145D01*
X61475895Y35122245D01*
X61488723Y35089850D01*
X61507738Y35043515D01*
X61531003Y34987794D01*
X61556584Y34927242D01*
X61582545Y34866414D01*
X61606950Y34809864D01*
X61627863Y34762148D01*
X61643349Y34727819D01*
X61651472Y34711432D01*
X61651952Y34710788D01*
X61664707Y34707659D01*
X61698677Y34700679D01*
X61750340Y34690533D01*
X61816176Y34677908D01*
X61892664Y34663491D01*
X61937290Y34655177D01*
X62019021Y34639616D01*
X62092843Y34624808D01*
X62155021Y34611564D01*
X62201822Y34600695D01*
X62229509Y34593011D01*
X62235074Y34590573D01*
X62240526Y34574070D01*
X62244924Y34536800D01*
X62248272Y34483120D01*
X62250574Y34417388D01*
X62251832Y34343963D01*
X62252048Y34267204D01*
X62251227Y34191468D01*
X62249371Y34121114D01*
X62246482Y34060500D01*
X62242565Y34013984D01*
X62237622Y33985925D01*
X62234657Y33980084D01*
X62216934Y33973083D01*
X62179381Y33963073D01*
X62126964Y33951231D01*
X62064652Y33938733D01*
X62042900Y33934690D01*
X61938024Y33915480D01*
X61855180Y33900009D01*
X61791630Y33887663D01*
X61744637Y33877827D01*
X61711463Y33869886D01*
X61689371Y33863224D01*
X61675624Y33857227D01*
X61667484Y33851281D01*
X61666345Y33850106D01*
X61654977Y33831174D01*
X61637635Y33794331D01*
X61616050Y33744087D01*
X61591954Y33684954D01*
X61567079Y33621444D01*
X61543157Y33558068D01*
X61521919Y33499338D01*
X61505097Y33449765D01*
X61494422Y33413861D01*
X61491627Y33396138D01*
X61491860Y33395517D01*
X61501331Y33381030D01*
X61522818Y33349156D01*
X61554063Y33303211D01*
X61592807Y33246515D01*
X61636793Y33182383D01*
X61649319Y33164158D01*
X61693984Y33098086D01*
X61733288Y33037800D01*
X61765088Y32986765D01*
X61787245Y32948440D01*
X61797617Y32926289D01*
X61798119Y32923568D01*
X61789405Y32909264D01*
X61765325Y32880928D01*
X61728976Y32841604D01*
X61683453Y32794339D01*
X61631852Y32742177D01*
X61577267Y32688165D01*
X61522794Y32635347D01*
X61471529Y32586769D01*
X61426567Y32545477D01*
X61391004Y32514515D01*
X61367935Y32496930D01*
X61361554Y32494059D01*
X61346699Y32500822D01*
X61316286Y32519061D01*
X61275268Y32545703D01*
X61243709Y32567148D01*
X61186525Y32606497D01*
X61118806Y32652829D01*
X61050880Y32699087D01*
X61014361Y32723845D01*
X60890752Y32807453D01*
X60786991Y32751350D01*
X60739720Y32726772D01*
X60699523Y32707669D01*
X60672326Y32696773D01*
X60665402Y32695257D01*
X60657077Y32706451D01*
X60640654Y32738083D01*
X60617357Y32787235D01*
X60588414Y32850990D01*
X60555050Y32926429D01*
X60518491Y33010636D01*
X60479964Y33100692D01*
X60440694Y33193679D01*
X60401908Y33286680D01*
X60364830Y33376777D01*
X60330689Y33461052D01*
X60300708Y33536587D01*
X60276116Y33600466D01*
X60258136Y33649769D01*
X60247997Y33681579D01*
X60246366Y33692504D01*
X60259291Y33706439D01*
X60287589Y33729060D01*
X60325346Y33755667D01*
X60328515Y33757772D01*
X60426100Y33835886D01*
X60504786Y33927018D01*
X60563891Y34028255D01*
X60602732Y34136682D01*
X60620628Y34249386D01*
X60616897Y34363452D01*
X60590857Y34475966D01*
X60541825Y34584015D01*
X60527400Y34607655D01*
X60452369Y34703113D01*
X60363730Y34779768D01*
X60264549Y34837220D01*
X60157895Y34875071D01*
X60046836Y34892922D01*
X59934439Y34890375D01*
X59823773Y34867030D01*
X59717906Y34822490D01*
X59619905Y34756355D01*
X59589590Y34729513D01*
X59512438Y34645488D01*
X59456218Y34557034D01*
X59417653Y34457885D01*
X59396174Y34359697D01*
X59390872Y34249303D01*
X59408552Y34138360D01*
X59447419Y34030619D01*
X59505677Y33929831D01*
X59581531Y33839744D01*
X59673183Y33764108D01*
X59685228Y33756136D01*
X59723389Y33730026D01*
X59752399Y33707405D01*
X59766268Y33692961D01*
X59766469Y33692504D01*
X59763492Y33676879D01*
X59751689Y33641418D01*
X59732286Y33589038D01*
X59706512Y33522655D01*
X59675591Y33445186D01*
X59640751Y33359550D01*
X59603217Y33268663D01*
X59564217Y33175441D01*
X59524977Y33082803D01*
X59486724Y32993665D01*
X59450683Y32910945D01*
X59418083Y32837559D01*
X59390148Y32776425D01*
X59368105Y32730459D01*
X59353182Y32702579D01*
X59347172Y32695257D01*
X59328809Y32700959D01*
X59294448Y32716251D01*
X59250016Y32738401D01*
X59225583Y32751350D01*
X59121822Y32807453D01*
X58998213Y32723845D01*
X58935114Y32681013D01*
X58866030Y32633878D01*
X58801293Y32589497D01*
X58768866Y32567148D01*
X58723259Y32536523D01*
X58684640Y32512253D01*
X58658048Y32497413D01*
X58649410Y32494276D01*
X58636839Y32502739D01*
X58609016Y32526364D01*
X58568639Y32562698D01*
X58518405Y32609289D01*
X58461012Y32663683D01*
X58424714Y32698608D01*
X58361210Y32761004D01*
X58306327Y32816812D01*
X58262286Y32863646D01*
X58231305Y32899118D01*
X58215602Y32920839D01*
X58214095Y32925248D01*
X58221086Y32942015D01*
X58240406Y32975918D01*
X58269909Y33023524D01*
X58307455Y33081401D01*
X58350900Y33146116D01*
X58363255Y33164158D01*
X58408273Y33229733D01*
X58448660Y33288772D01*
X58482160Y33337958D01*
X58506514Y33373972D01*
X58519464Y33393498D01*
X58520715Y33395517D01*
X58518844Y33411078D01*
X58508913Y33445291D01*
X58492653Y33493645D01*
X58471795Y33551629D01*
X58448073Y33614730D01*
X58423216Y33678437D01*
X58398958Y33738239D01*
X58377029Y33789624D01*
X58359162Y33828081D01*
X58347087Y33849098D01*
X58346229Y33850106D01*
X58338846Y33856112D01*
X58326375Y33862052D01*
X58306080Y33868540D01*
X58275222Y33876191D01*
X58231066Y33885620D01*
X58170874Y33897441D01*
X58091907Y33912271D01*
X57991430Y33930723D01*
X57969675Y33934690D01*
X57905198Y33947147D01*
X57848989Y33959334D01*
X57806013Y33970074D01*
X57781240Y33978191D01*
X57777918Y33980084D01*
X57772444Y33996862D01*
X57767994Y34034355D01*
X57764572Y34088206D01*
X57762181Y34154056D01*
X57760823Y34227547D01*
X57760501Y34304320D01*
X57761219Y34380017D01*
X57762979Y34450280D01*
X57765784Y34510750D01*
X57769638Y34557070D01*
X57774543Y34584881D01*
X57777500Y34590573D01*
X57793963Y34596314D01*
X57831449Y34605655D01*
X57886225Y34617785D01*
X57954555Y34631893D01*
X58032706Y34647170D01*
X58075284Y34655177D01*
X58156071Y34670279D01*
X58228113Y34683960D01*
X58287889Y34695533D01*
X58331879Y34704313D01*
X58356561Y34709613D01*
X58360623Y34710788D01*
X58367489Y34724035D01*
X58382002Y34755943D01*
X58402229Y34801953D01*
X58426234Y34857508D01*
X58452082Y34918047D01*
X58477840Y34979014D01*
X58501573Y35035849D01*
X58521346Y35083994D01*
X58535224Y35118890D01*
X58541274Y35135979D01*
X58541386Y35136726D01*
X58534528Y35150207D01*
X58515302Y35181230D01*
X58485728Y35226711D01*
X58447827Y35283568D01*
X58403620Y35348717D01*
X58377921Y35386138D01*
X58331093Y35454753D01*
X58289501Y35517048D01*
X58255175Y35569871D01*
X58230143Y35610073D01*
X58216435Y35634500D01*
X58214456Y35639976D01*
X58222966Y35652722D01*
X58246493Y35679937D01*
X58282032Y35718572D01*
X58326577Y35765577D01*
X58377123Y35817905D01*
X58430664Y35872505D01*
X58484195Y35926330D01*
X58534711Y35976330D01*
X58579206Y36019457D01*
X58614675Y36052661D01*
X58638113Y36072894D01*
X58645954Y36077722D01*
X58658720Y36070933D01*
X58689256Y36051858D01*
X58734590Y36022439D01*
X58791756Y35984619D01*
X58857784Y35940339D01*
X58907590Y35906605D01*
X59159236Y35735488D01*
X59368999Y35821959D01*
X59578763Y35908430D01*
X59635611Y36209982D01*
X59692460Y36511534D01*
X60320115Y36511534D01*
X60376964Y36209982D01*
G36*
X60376964Y36209982D02*
G01*
X60433812Y35908430D01*
X60853338Y35735488D01*
X61104984Y35906605D01*
X61175458Y35954250D01*
X61239163Y35996790D01*
X61293126Y36032285D01*
X61334373Y36058790D01*
X61359934Y36074364D01*
X61366895Y36077722D01*
X61379435Y36069086D01*
X61406231Y36045208D01*
X61444280Y36009141D01*
X61490579Y35963933D01*
X61542123Y35912636D01*
X61595909Y35858299D01*
X61648935Y35803972D01*
X61698195Y35752705D01*
X61740687Y35707549D01*
X61773407Y35671554D01*
X61793351Y35647770D01*
X61798119Y35639810D01*
X61791257Y35625135D01*
X61772020Y35592986D01*
X61742430Y35546508D01*
X61704510Y35488844D01*
X61660282Y35423140D01*
X61634654Y35385664D01*
X61587941Y35317232D01*
X61546432Y35255480D01*
X61512140Y35203481D01*
X61487080Y35164308D01*
X61473264Y35141035D01*
X61471188Y35136145D01*
X61475895Y35122245D01*
X61488723Y35089850D01*
X61507738Y35043515D01*
X61531003Y34987794D01*
X61556584Y34927242D01*
X61582545Y34866414D01*
X61606950Y34809864D01*
X61627863Y34762148D01*
X61643349Y34727819D01*
X61651472Y34711432D01*
X61651952Y34710788D01*
X61664707Y34707659D01*
X61698677Y34700679D01*
X61750340Y34690533D01*
X61816176Y34677908D01*
X61892664Y34663491D01*
X61937290Y34655177D01*
X62019021Y34639616D01*
X62092843Y34624808D01*
X62155021Y34611564D01*
X62201822Y34600695D01*
X62229509Y34593011D01*
X62235074Y34590573D01*
X62240526Y34574070D01*
X62244924Y34536800D01*
X62248272Y34483120D01*
X62250574Y34417388D01*
X62251832Y34343963D01*
X62252048Y34267204D01*
X62251227Y34191468D01*
X62249371Y34121114D01*
X62246482Y34060500D01*
X62242565Y34013984D01*
X62237622Y33985925D01*
X62234657Y33980084D01*
X62216934Y33973083D01*
X62179381Y33963073D01*
X62126964Y33951231D01*
X62064652Y33938733D01*
X62042900Y33934690D01*
X61938024Y33915480D01*
X61855180Y33900009D01*
X61791630Y33887663D01*
X61744637Y33877827D01*
X61711463Y33869886D01*
X61689371Y33863224D01*
X61675624Y33857227D01*
X61667484Y33851281D01*
X61666345Y33850106D01*
X61654977Y33831174D01*
X61637635Y33794331D01*
X61616050Y33744087D01*
X61591954Y33684954D01*
X61567079Y33621444D01*
X61543157Y33558068D01*
X61521919Y33499338D01*
X61505097Y33449765D01*
X61494422Y33413861D01*
X61491627Y33396138D01*
X61491860Y33395517D01*
X61501331Y33381030D01*
X61522818Y33349156D01*
X61554063Y33303211D01*
X61592807Y33246515D01*
X61636793Y33182383D01*
X61649319Y33164158D01*
X61693984Y33098086D01*
X61733288Y33037800D01*
X61765088Y32986765D01*
X61787245Y32948440D01*
X61797617Y32926289D01*
X61798119Y32923568D01*
X61789405Y32909264D01*
X61765325Y32880928D01*
X61728976Y32841604D01*
X61683453Y32794339D01*
X61631852Y32742177D01*
X61577267Y32688165D01*
X61522794Y32635347D01*
X61471529Y32586769D01*
X61426567Y32545477D01*
X61391004Y32514515D01*
X61367935Y32496930D01*
X61361554Y32494059D01*
X61346699Y32500822D01*
X61316286Y32519061D01*
X61275268Y32545703D01*
X61243709Y32567148D01*
X61186525Y32606497D01*
X61118806Y32652829D01*
X61050880Y32699087D01*
X61014361Y32723845D01*
X60890752Y32807453D01*
X60786991Y32751350D01*
X60739720Y32726772D01*
X60699523Y32707669D01*
X60672326Y32696773D01*
X60665402Y32695257D01*
X60657077Y32706451D01*
X60640654Y32738083D01*
X60617357Y32787235D01*
X60588414Y32850990D01*
X60555050Y32926429D01*
X60518491Y33010636D01*
X60479964Y33100692D01*
X60440694Y33193679D01*
X60401908Y33286680D01*
X60364830Y33376777D01*
X60330689Y33461052D01*
X60300708Y33536587D01*
X60276116Y33600466D01*
X60258136Y33649769D01*
X60247997Y33681579D01*
X60246366Y33692504D01*
X60259291Y33706439D01*
X60287589Y33729060D01*
X60325346Y33755667D01*
X60328515Y33757772D01*
X60426100Y33835886D01*
X60504786Y33927018D01*
X60563891Y34028255D01*
X60602732Y34136682D01*
X60620628Y34249386D01*
X60616897Y34363452D01*
X60590857Y34475966D01*
X60541825Y34584015D01*
X60527400Y34607655D01*
X60452369Y34703113D01*
X60363730Y34779768D01*
X60264549Y34837220D01*
X60157895Y34875071D01*
X60046836Y34892922D01*
X59934439Y34890375D01*
X59823773Y34867030D01*
X59717906Y34822490D01*
X59619905Y34756355D01*
X59589590Y34729513D01*
X59512438Y34645488D01*
X59456218Y34557034D01*
X59417653Y34457885D01*
X59396174Y34359697D01*
X59390872Y34249303D01*
X59408552Y34138360D01*
X59447419Y34030619D01*
X59505677Y33929831D01*
X59581531Y33839744D01*
X59673183Y33764108D01*
X59685228Y33756136D01*
X59723389Y33730026D01*
X59752399Y33707405D01*
X59766268Y33692961D01*
X59766469Y33692504D01*
X59763492Y33676879D01*
X59751689Y33641418D01*
X59732286Y33589038D01*
X59706512Y33522655D01*
X59675591Y33445186D01*
X59640751Y33359550D01*
X59603217Y33268663D01*
X59564217Y33175441D01*
X59524977Y33082803D01*
X59486724Y32993665D01*
X59450683Y32910945D01*
X59418083Y32837559D01*
X59390148Y32776425D01*
X59368105Y32730459D01*
X59353182Y32702579D01*
X59347172Y32695257D01*
X59328809Y32700959D01*
X59294448Y32716251D01*
X59250016Y32738401D01*
X59225583Y32751350D01*
X59121822Y32807453D01*
X58998213Y32723845D01*
X58935114Y32681013D01*
X58866030Y32633878D01*
X58801293Y32589497D01*
X58768866Y32567148D01*
X58723259Y32536523D01*
X58684640Y32512253D01*
X58658048Y32497413D01*
X58649410Y32494276D01*
X58636839Y32502739D01*
X58609016Y32526364D01*
X58568639Y32562698D01*
X58518405Y32609289D01*
X58461012Y32663683D01*
X58424714Y32698608D01*
X58361210Y32761004D01*
X58306327Y32816812D01*
X58262286Y32863646D01*
X58231305Y32899118D01*
X58215602Y32920839D01*
X58214095Y32925248D01*
X58221086Y32942015D01*
X58240406Y32975918D01*
X58269909Y33023524D01*
X58307455Y33081401D01*
X58350900Y33146116D01*
X58363255Y33164158D01*
X58408273Y33229733D01*
X58448660Y33288772D01*
X58482160Y33337958D01*
X58506514Y33373972D01*
X58519464Y33393498D01*
X58520715Y33395517D01*
X58518844Y33411078D01*
X58508913Y33445291D01*
X58492653Y33493645D01*
X58471795Y33551629D01*
X58448073Y33614730D01*
X58423216Y33678437D01*
X58398958Y33738239D01*
X58377029Y33789624D01*
X58359162Y33828081D01*
X58347087Y33849098D01*
X58346229Y33850106D01*
X58338846Y33856112D01*
X58326375Y33862052D01*
X58306080Y33868540D01*
X58275222Y33876191D01*
X58231066Y33885620D01*
X58170874Y33897441D01*
X58091907Y33912271D01*
X57991430Y33930723D01*
X57969675Y33934690D01*
X57905198Y33947147D01*
X57848989Y33959334D01*
X57806013Y33970074D01*
X57781240Y33978191D01*
X57777918Y33980084D01*
X57772444Y33996862D01*
X57767994Y34034355D01*
X57764572Y34088206D01*
X57762181Y34154056D01*
X57760823Y34227547D01*
X57760501Y34304320D01*
X57761219Y34380017D01*
X57762979Y34450280D01*
X57765784Y34510750D01*
X57769638Y34557070D01*
X57774543Y34584881D01*
X57777500Y34590573D01*
X57793963Y34596314D01*
X57831449Y34605655D01*
X57886225Y34617785D01*
X57954555Y34631893D01*
X58032706Y34647170D01*
X58075284Y34655177D01*
X58156071Y34670279D01*
X58228113Y34683960D01*
X58287889Y34695533D01*
X58331879Y34704313D01*
X58356561Y34709613D01*
X58360623Y34710788D01*
X58367489Y34724035D01*
X58382002Y34755943D01*
X58402229Y34801953D01*
X58426234Y34857508D01*
X58452082Y34918047D01*
X58477840Y34979014D01*
X58501573Y35035849D01*
X58521346Y35083994D01*
X58535224Y35118890D01*
X58541274Y35135979D01*
X58541386Y35136726D01*
X58534528Y35150207D01*
X58515302Y35181230D01*
X58485728Y35226711D01*
X58447827Y35283568D01*
X58403620Y35348717D01*
X58377921Y35386138D01*
X58331093Y35454753D01*
X58289501Y35517048D01*
X58255175Y35569871D01*
X58230143Y35610073D01*
X58216435Y35634500D01*
X58214456Y35639976D01*
X58222966Y35652722D01*
X58246493Y35679937D01*
X58282032Y35718572D01*
X58326577Y35765577D01*
X58377123Y35817905D01*
X58430664Y35872505D01*
X58484195Y35926330D01*
X58534711Y35976330D01*
X58579206Y36019457D01*
X58614675Y36052661D01*
X58638113Y36072894D01*
X58645954Y36077722D01*
X58658720Y36070933D01*
X58689256Y36051858D01*
X58734590Y36022439D01*
X58791756Y35984619D01*
X58857784Y35940339D01*
X58907590Y35906605D01*
X59159236Y35735488D01*
X59368999Y35821959D01*
X59578763Y35908430D01*
X59635611Y36209982D01*
X59692460Y36511534D01*
X60320115Y36511534D01*
X60376964Y36209982D01*
G37*
D11*
X57820000Y20430000D02*
X59150000Y20430000D01*
X57820000Y19100000D02*
X57820000Y20430000D01*
X57820000Y17830000D02*
X57820000Y12690000D01*
X57820000Y17830000D02*
X60420000Y17830000D01*
X57820000Y12690000D02*
X63020000Y12690000D01*
X60420000Y20430000D02*
X63020000Y20430000D01*
X60420000Y17830000D02*
X60420000Y20430000D01*
X63020000Y20430000D02*
X63020000Y12690000D01*
X21988748Y33510000D02*
X22511252Y33510000D01*
X21988748Y32040000D02*
X22511252Y32040000D01*
X50961252Y21290000D02*
X50438748Y21290000D01*
X50961252Y22760000D02*
X50438748Y22760000D01*
X55205000Y21561248D02*
X55205000Y22083752D01*
X56675000Y21561248D02*
X56675000Y22083752D01*
X39702064Y31215000D02*
X39247936Y31215000D01*
X39702064Y32685000D02*
X39247936Y32685000D01*
X47286252Y11805000D02*
X46763748Y11805000D01*
X47286252Y13275000D02*
X46763748Y13275000D01*
X8320000Y29710000D02*
X8320000Y27790000D01*
X8320000Y27790000D02*
X11005000Y27790000D01*
X11005000Y29710000D02*
X8320000Y29710000D01*
X48360000Y14113000D02*
X47885000Y14113000D01*
X43140000Y14588000D02*
X43140000Y14113000D01*
X48360000Y14588000D02*
X48360000Y14113000D01*
X43140000Y18858000D02*
X43140000Y19333000D01*
X48360000Y18858000D02*
X48360000Y19333000D01*
X43140000Y19333000D02*
X43615000Y19333000D01*
X48360000Y19333000D02*
X47885000Y19333000D01*
X52360000Y25375000D02*
X52360000Y27175000D01*
X52360000Y25375000D02*
X52360000Y24575000D01*
X49240000Y25375000D02*
X49240000Y26175000D01*
X49240000Y25375000D02*
X49240000Y24575000D01*
X26661252Y32365000D02*
X26138748Y32365000D01*
X26661252Y33835000D02*
X26138748Y33835000D01*
X34852936Y23515000D02*
X35307064Y23515000D01*
X34852936Y22045000D02*
X35307064Y22045000D01*
X12335000Y19677064D02*
X12335000Y19222936D01*
X10865000Y19677064D02*
X10865000Y19222936D01*
X25685000Y19577064D02*
X25685000Y19122936D01*
X24215000Y19577064D02*
X24215000Y19122936D01*
X50463748Y18785000D02*
X50986252Y18785000D01*
X50463748Y17315000D02*
X50986252Y17315000D01*
X56735000Y11031252D02*
X56735000Y10508748D01*
X55265000Y11031252D02*
X55265000Y10508748D01*
X47535000Y9598748D02*
X47535000Y10121252D01*
X49005000Y9598748D02*
X49005000Y10121252D01*
X34852936Y25465000D02*
X35307064Y25465000D01*
X34852936Y23995000D02*
X35307064Y23995000D01*
X55205000Y18195436D02*
X55205000Y18649564D01*
X56675000Y18195436D02*
X56675000Y18649564D01*
X50463748Y20785000D02*
X50986252Y20785000D01*
X50463748Y19315000D02*
X50986252Y19315000D01*
X16600000Y23240000D02*
X20200000Y23240000D01*
X16600000Y23240000D02*
X14400000Y23240000D01*
X16600000Y31260000D02*
X18800000Y31260000D01*
X16600000Y31260000D02*
X14400000Y31260000D01*
X27910000Y30050000D02*
X27910000Y31850000D01*
X27910000Y30050000D02*
X27910000Y29250000D01*
X24790000Y30050000D02*
X24790000Y30850000D01*
X24790000Y30050000D02*
X24790000Y29250000D01*
X32015000Y37402936D02*
X32015000Y37857064D01*
X33485000Y37402936D02*
X33485000Y37857064D01*
X33615000Y47363748D02*
X33615000Y47886252D01*
X35085000Y47363748D02*
X35085000Y47886252D01*
X10335000Y19677064D02*
X10335000Y19222936D01*
X8865000Y19677064D02*
X8865000Y19222936D01*
X38215000Y37352936D02*
X38215000Y37807064D01*
X39685000Y37352936D02*
X39685000Y37807064D01*
X43265000Y9538748D02*
X43265000Y10061252D01*
X44735000Y9538748D02*
X44735000Y10061252D01*
X56710000Y14422064D02*
X56710000Y13967936D01*
X55240000Y14422064D02*
X55240000Y13967936D01*
X43325000Y24002936D02*
X43325000Y24457064D01*
X44795000Y24002936D02*
X44795000Y24457064D01*
X50538748Y29235000D02*
X51061252Y29235000D01*
X50538748Y27765000D02*
X51061252Y27765000D01*
X41952064Y20065000D02*
X41497936Y20065000D01*
X41952064Y21535000D02*
X41497936Y21535000D01*
X10865000Y12422936D02*
X10865000Y12877064D01*
X12335000Y12422936D02*
X12335000Y12877064D01*
X26238748Y23735000D02*
X26761252Y23735000D01*
X26238748Y22265000D02*
X26761252Y22265000D01*
X40897936Y49060000D02*
X41352064Y49060000D01*
X40897936Y47590000D02*
X41352064Y47590000D01*
X51185000Y46642936D02*
X51185000Y47097064D01*
X52655000Y46642936D02*
X52655000Y47097064D01*
X25238748Y25710000D02*
X25761252Y25710000D01*
X25238748Y24240000D02*
X25761252Y24240000D01*
X10335000Y16311252D02*
X10335000Y15788748D01*
X8865000Y16311252D02*
X8865000Y15788748D01*
X8865000Y12422936D02*
X8865000Y12877064D01*
X10335000Y12422936D02*
X10335000Y12877064D01*
X37390000Y46020000D02*
X39190000Y46020000D01*
X37390000Y46020000D02*
X36590000Y46020000D01*
X37390000Y49140000D02*
X38190000Y49140000D01*
X37390000Y49140000D02*
X36590000Y49140000D01*
X15065000Y32938748D02*
X15065000Y33461252D01*
X16535000Y32938748D02*
X16535000Y33461252D01*
M02*
