G04 #@! TF.GenerationSoftware,KiCad,Pcbnew,9.0.1*
G04 #@! TF.CreationDate,2025-04-21T13:17:34+00:00*
G04 #@! TF.ProjectId,pedalboard-soundcard,70656461-6c62-46f6-9172-642d736f756e,1.0.1-RC*
G04 #@! TF.SameCoordinates,Original*
G04 #@! TF.FileFunction,Copper,L2,Bot*
G04 #@! TF.FilePolarity,Positive*
%FSLAX46Y46*%
G04 Gerber Fmt 4.6, Leading zero omitted, Abs format (unit mm)*
G04 Created by KiCad (PCBNEW 9.0.1) date 2025-04-21 13:17:34*
%MOMM*%
%LPD*%
G01*
G04 APERTURE LIST*
G04 #@! TA.AperFunction,ComponentPad*
%ADD10R,1.727200X1.727200*%
G04 #@! TD*
G04 #@! TA.AperFunction,ComponentPad*
%ADD11O,1.727200X1.727200*%
G04 #@! TD*
G04 #@! TA.AperFunction,ComponentPad*
%ADD12O,1.200000X2.200000*%
G04 #@! TD*
G04 #@! TA.AperFunction,ComponentPad*
%ADD13O,1.600000X2.300000*%
G04 #@! TD*
G04 #@! TA.AperFunction,ComponentPad*
%ADD14O,2.200000X1.200000*%
G04 #@! TD*
G04 #@! TA.AperFunction,ComponentPad*
%ADD15O,1.600000X2.500000*%
G04 #@! TD*
G04 #@! TA.AperFunction,ComponentPad*
%ADD16C,0.500000*%
G04 #@! TD*
G04 #@! TA.AperFunction,SMDPad,CuDef*
%ADD17R,3.100000X3.100000*%
G04 #@! TD*
G04 #@! TA.AperFunction,ComponentPad*
%ADD18R,1.700000X1.700000*%
G04 #@! TD*
G04 #@! TA.AperFunction,ComponentPad*
%ADD19O,1.700000X1.700000*%
G04 #@! TD*
G04 #@! TA.AperFunction,ViaPad*
%ADD20C,0.600000*%
G04 #@! TD*
G04 #@! TA.AperFunction,ViaPad*
%ADD21C,1.000000*%
G04 #@! TD*
G04 #@! TA.AperFunction,Conductor*
%ADD22C,0.250000*%
G04 #@! TD*
G04 #@! TA.AperFunction,Conductor*
%ADD23C,1.000000*%
G04 #@! TD*
G04 #@! TA.AperFunction,Conductor*
%ADD24C,0.500000*%
G04 #@! TD*
G04 #@! TA.AperFunction,Conductor*
%ADD25C,0.600000*%
G04 #@! TD*
G04 APERTURE END LIST*
D10*
X8370000Y51230000D03*
D11*
X8370000Y53770000D03*
X10910000Y51230000D03*
X10910000Y53770000D03*
X13450000Y51230000D03*
X13450000Y53770000D03*
X15990000Y51230000D03*
X15990000Y53770000D03*
X18530000Y51230000D03*
X18530000Y53770000D03*
X21070000Y51230000D03*
X21070000Y53770000D03*
X23610000Y51230000D03*
X23610000Y53770000D03*
X26150000Y51230000D03*
X26150000Y53770000D03*
X28690000Y51230000D03*
X28690000Y53770000D03*
X31230000Y51230000D03*
X31230000Y53770000D03*
X33770000Y51230000D03*
X33770000Y53770000D03*
X36310000Y51230000D03*
X36310000Y53770000D03*
X38850000Y51230000D03*
X38850000Y53770000D03*
X41390000Y51230000D03*
X41390000Y53770000D03*
X43930000Y51230000D03*
X43930000Y53770000D03*
X46470000Y51230000D03*
X46470000Y53770000D03*
X49010000Y51230000D03*
X49010000Y53770000D03*
X51550000Y51230000D03*
X51550000Y53770000D03*
X54090000Y51230000D03*
X54090000Y53770000D03*
X56630000Y51230000D03*
X56630000Y53770000D03*
D12*
X12440000Y9500000D03*
D13*
X14940000Y9500000D03*
D14*
X17440000Y4500000D03*
D12*
X22440000Y9500000D03*
D15*
X19940000Y9500000D03*
D16*
X44450000Y15423000D03*
X45316667Y15423000D03*
X46183333Y15423000D03*
X47050000Y15423000D03*
X44450000Y16289667D03*
X45316667Y16289667D03*
X46183333Y16289667D03*
X47050000Y16289667D03*
D17*
X45750000Y16723000D03*
D16*
X44450000Y17156333D03*
X45316667Y17156333D03*
X46183333Y17156333D03*
X47050000Y17156333D03*
X44450000Y18023000D03*
X45316667Y18023000D03*
X46183333Y18023000D03*
X47050000Y18023000D03*
D12*
X31600000Y9500000D03*
D13*
X34100000Y9500000D03*
D14*
X36600000Y4500000D03*
D12*
X41600000Y9500000D03*
D15*
X39100000Y9500000D03*
D18*
X14840000Y14920000D03*
D19*
X14840000Y17460000D03*
X17380000Y14920000D03*
X17380000Y17460000D03*
X19920000Y14920000D03*
X19920000Y17460000D03*
D18*
X59150000Y19100000D03*
D19*
X61690000Y19100000D03*
X59150000Y16560000D03*
X61690000Y16560000D03*
X59150000Y14020000D03*
X61690000Y14020000D03*
D20*
X52250000Y20060000D03*
X44000000Y8170000D03*
X39300000Y24020000D03*
X28610000Y13430000D03*
X15810000Y34860000D03*
X34125000Y30925000D03*
X12290000Y25960000D03*
X24570000Y12570000D03*
X52400000Y28540000D03*
X34340000Y47350000D03*
X35740000Y36140000D03*
X44060000Y22610000D03*
X25270000Y34030000D03*
X38620000Y44060000D03*
X52250000Y22010000D03*
X40270000Y35900000D03*
X10920000Y31510000D03*
X57500000Y7900000D03*
X48310000Y8270000D03*
X27150000Y24990000D03*
X23120000Y22400000D03*
X15000000Y26000000D03*
X57100000Y24800000D03*
X23210000Y30150000D03*
X34030000Y35810000D03*
X17790000Y34800000D03*
X28120000Y22970000D03*
X9950000Y12580000D03*
X23210000Y33690000D03*
X45970000Y8210000D03*
X38530000Y30900000D03*
X52250000Y18090000D03*
X15420000Y28820000D03*
X5870000Y13380000D03*
X40950000Y19630000D03*
X44000000Y11430000D03*
X42650000Y47900000D03*
D21*
X38470000Y28830000D03*
D20*
X19850500Y32350000D03*
D21*
X32220000Y28830000D03*
D20*
X36880000Y48530000D03*
D21*
X19900000Y37050000D03*
X49235000Y29175000D03*
X21049500Y43050000D03*
X28330000Y32770000D03*
X7595000Y48965000D03*
D20*
X39088178Y26965000D03*
X16419647Y28109647D03*
X39740000Y26310000D03*
X17344722Y27755500D03*
X34130000Y25890000D03*
X12275000Y30249999D03*
X12843707Y31881190D03*
X33630000Y23030000D03*
X51440000Y45720000D03*
X12420000Y48209500D03*
X42340000Y30960000D03*
X42280000Y16820000D03*
X42930000Y14510000D03*
X43401382Y19811382D03*
D22*
X36880000Y48530000D02*
X42020000Y48530000D01*
D23*
X40950000Y14440000D02*
X44000000Y11390000D01*
D22*
X42020000Y48530000D02*
X42650000Y47900000D01*
D23*
X44000000Y11390000D02*
X44000000Y11430000D01*
X19860000Y31000000D02*
X22030000Y28830000D01*
X40060000Y28830000D02*
X32220000Y28830000D01*
X19860000Y37010000D02*
X19860000Y32350000D01*
X40950000Y19630000D02*
X40950000Y14440000D01*
X40950000Y19630000D02*
X40950000Y27940000D01*
X19900000Y37050000D02*
X19860000Y37010000D01*
X40950000Y27940000D02*
X40060000Y28830000D01*
X22030000Y28830000D02*
X32220000Y28830000D01*
X19860000Y32350000D02*
X19860000Y31000000D01*
X19860000Y32350000D02*
X19850500Y32350000D01*
X28330000Y32770000D02*
X45640000Y32770000D01*
D24*
X8370000Y53770000D02*
X7976400Y53770000D01*
D25*
X7976400Y53770000D02*
X6950000Y52743600D01*
D23*
X26360000Y34740000D02*
X26360000Y37320000D01*
X16470000Y47210000D02*
X9350000Y47210000D01*
D24*
X8370000Y53770000D02*
X8093600Y53493600D01*
D25*
X6950000Y52743600D02*
X6950000Y49610000D01*
D23*
X9350000Y47210000D02*
X7595000Y48965000D01*
X6950000Y49610000D02*
X9370000Y47190000D01*
X28330000Y32770000D02*
X26360000Y34740000D01*
X26360000Y37320000D02*
X16470000Y47210000D01*
X45640000Y32770000D02*
X49235000Y29175000D01*
D22*
X38165000Y28005000D02*
X39088178Y27081822D01*
X39088178Y27081822D02*
X39088178Y26965000D01*
X16690500Y28380500D02*
X17603606Y28380500D01*
X21662774Y28030500D02*
X21688274Y28005000D01*
X21688274Y28005000D02*
X38165000Y28005000D01*
X17953606Y28030500D02*
X21662774Y28030500D01*
X16419647Y28109647D02*
X16690500Y28380500D01*
X17603606Y28380500D02*
X17953606Y28030500D01*
X38860000Y26310000D02*
X39740000Y26310000D01*
X17519722Y27580500D02*
X21476378Y27580500D01*
X21501878Y27555000D02*
X37615000Y27555000D01*
X17344722Y27755500D02*
X17519722Y27580500D01*
X37615000Y27555000D02*
X38860000Y26310000D01*
X21476378Y27580500D02*
X21501878Y27555000D01*
X21315482Y27105000D02*
X34130000Y27105000D01*
X14166396Y27710000D02*
X15936116Y27710000D01*
X12275000Y30249999D02*
X12275000Y29601396D01*
X15936116Y27710000D02*
X16515616Y27130500D01*
X34130000Y27105000D02*
X34130000Y25890000D01*
X16515616Y27130500D02*
X21289982Y27130500D01*
X21289982Y27130500D02*
X21315482Y27105000D01*
X12275000Y29601396D02*
X14166396Y27710000D01*
X33220000Y23440000D02*
X33630000Y23030000D01*
X15749720Y27260000D02*
X16329220Y26680500D01*
X21103586Y26680500D02*
X21129086Y26655000D01*
X12843707Y31881190D02*
X11650000Y30687483D01*
X16329220Y26680500D02*
X21103586Y26680500D01*
X33220000Y26655000D02*
X33220000Y23440000D01*
X11650000Y29590000D02*
X13980000Y27260000D01*
X21129086Y26655000D02*
X33220000Y26655000D01*
X13980000Y27260000D02*
X15749720Y27260000D01*
X11650000Y30687483D02*
X11650000Y29590000D01*
X12420000Y48209500D02*
X12594500Y48035000D01*
X19126726Y45720000D02*
X51440000Y45720000D01*
X12594500Y48035000D02*
X16811726Y48035000D01*
X16811726Y48035000D02*
X19126726Y45720000D01*
X41775000Y28281726D02*
X41770000Y28286726D01*
X41770000Y28286726D02*
X41770000Y30390000D01*
X41770000Y30390000D02*
X42340000Y30960000D01*
X42280000Y16820000D02*
X41775000Y17325000D01*
X41775000Y17325000D02*
X41775000Y28281726D01*
X43100000Y14680000D02*
X42930000Y14510000D01*
X43401382Y19811382D02*
X43100000Y19510000D01*
X43100000Y19510000D02*
X43100000Y14680000D01*
G04 #@! TA.AperFunction,Conductor*
G36*
X61224075Y16752993D02*
G01*
X61190000Y16625826D01*
X61190000Y16494174D01*
X61224075Y16367007D01*
X61256988Y16310000D01*
X59583012Y16310000D01*
X59615925Y16367007D01*
X59650000Y16494174D01*
X59650000Y16625826D01*
X59615925Y16752993D01*
X59583012Y16810000D01*
X61256988Y16810000D01*
X61224075Y16752993D01*
G37*
G04 #@! TD.AperFunction*
G04 #@! TA.AperFunction,Conductor*
G36*
X17630000Y15353012D02*
G01*
X17572993Y15385925D01*
X17445826Y15420000D01*
X17314174Y15420000D01*
X17187007Y15385925D01*
X17130000Y15353012D01*
X17130000Y17026988D01*
X17187007Y16994075D01*
X17314174Y16960000D01*
X17445826Y16960000D01*
X17572993Y16994075D01*
X17630000Y17026988D01*
X17630000Y15353012D01*
G37*
G04 #@! TD.AperFunction*
G04 #@! TA.AperFunction,Conductor*
G36*
X62003472Y55949305D02*
G01*
X62323297Y55931344D01*
X62337094Y55929790D01*
X62649457Y55876717D01*
X62663014Y55873623D01*
X62967469Y55785911D01*
X62980593Y55781318D01*
X63273304Y55660074D01*
X63285826Y55654045D01*
X63563139Y55500779D01*
X63574900Y55493389D01*
X63833314Y55310034D01*
X63844174Y55301373D01*
X64080418Y55090251D01*
X64090250Y55080419D01*
X64301372Y54844175D01*
X64310035Y54833313D01*
X64493385Y54574906D01*
X64500778Y54563140D01*
X64654040Y54285834D01*
X64660073Y54273305D01*
X64781317Y53980594D01*
X64785910Y53967470D01*
X64873622Y53663015D01*
X64876716Y53649458D01*
X64929787Y53337106D01*
X64931344Y53323288D01*
X64949305Y53003473D01*
X64949500Y52996520D01*
X64949500Y3003481D01*
X64949305Y2996528D01*
X64931344Y2676713D01*
X64929787Y2662895D01*
X64876716Y2350543D01*
X64873622Y2336986D01*
X64785910Y2032531D01*
X64781317Y2019407D01*
X64660073Y1726696D01*
X64654040Y1714167D01*
X64500778Y1436861D01*
X64493380Y1425088D01*
X64315145Y1173888D01*
X64310043Y1166698D01*
X64301372Y1155826D01*
X64090250Y919582D01*
X64080418Y909750D01*
X63844174Y698628D01*
X63833302Y689957D01*
X63574913Y506620D01*
X63563139Y499222D01*
X63285833Y345960D01*
X63273304Y339927D01*
X62980593Y218683D01*
X62967469Y214090D01*
X62663014Y126378D01*
X62649457Y123284D01*
X62337105Y70213D01*
X62323287Y68656D01*
X62003472Y50695D01*
X61996519Y50500D01*
X38974500Y50500D01*
X38907461Y70185D01*
X38861706Y122989D01*
X38850500Y174500D01*
X38850500Y1059307D01*
X38850500Y1059309D01*
X38819799Y1173886D01*
X38760489Y1276613D01*
X38676613Y1360489D01*
X38573886Y1419799D01*
X38459309Y1450500D01*
X38420918Y1450500D01*
X34816408Y1450500D01*
X34800000Y1450500D01*
X34740691Y1450500D01*
X34626114Y1419799D01*
X34626112Y1419799D01*
X34626112Y1419798D01*
X34523387Y1360489D01*
X34523384Y1360487D01*
X34439513Y1276616D01*
X34439511Y1276613D01*
X34386326Y1184494D01*
X34380201Y1173886D01*
X34349500Y1059309D01*
X34349500Y1059307D01*
X34349500Y174500D01*
X34329815Y107461D01*
X34277011Y61706D01*
X34225500Y50500D01*
X19814500Y50500D01*
X19747461Y70185D01*
X19701706Y122989D01*
X19690500Y174500D01*
X19690500Y1059307D01*
X19690500Y1059309D01*
X19659799Y1173886D01*
X19600489Y1276613D01*
X19516613Y1360489D01*
X19413886Y1419799D01*
X19299309Y1450500D01*
X19260918Y1450500D01*
X15656408Y1450500D01*
X15640000Y1450500D01*
X15580691Y1450500D01*
X15466114Y1419799D01*
X15466112Y1419799D01*
X15466112Y1419798D01*
X15363387Y1360489D01*
X15363384Y1360487D01*
X15279513Y1276616D01*
X15279511Y1276613D01*
X15226326Y1184494D01*
X15220201Y1173886D01*
X15189500Y1059309D01*
X15189500Y1059307D01*
X15189500Y174500D01*
X15169815Y107461D01*
X15117011Y61706D01*
X15065500Y50500D01*
X3003481Y50500D01*
X2996528Y50695D01*
X2676712Y68656D01*
X2662894Y70213D01*
X2350542Y123284D01*
X2336985Y126378D01*
X2032530Y214090D01*
X2019406Y218683D01*
X1726695Y339927D01*
X1714166Y345960D01*
X1436860Y499222D01*
X1425094Y506615D01*
X1166687Y689965D01*
X1155825Y698628D01*
X919581Y909750D01*
X909749Y919582D01*
X698627Y1155826D01*
X689966Y1166686D01*
X506611Y1425100D01*
X499221Y1436861D01*
X491683Y1450500D01*
X345955Y1714174D01*
X339926Y1726696D01*
X329475Y1751926D01*
X261418Y1916232D01*
X218682Y2019407D01*
X214089Y2032531D01*
X126377Y2336986D01*
X123283Y2350543D01*
X114394Y2402861D01*
X70210Y2662906D01*
X68656Y2676703D01*
X50695Y2996528D01*
X50500Y3003481D01*
X50500Y3674125D01*
X399500Y3674125D01*
X399500Y3325876D01*
X438489Y2979842D01*
X438491Y2979830D01*
X515982Y2640316D01*
X515985Y2640308D01*
X630999Y2311618D01*
X782092Y1997870D01*
X967371Y1703001D01*
X967372Y1702999D01*
X1184487Y1430744D01*
X1430743Y1184488D01*
X1702998Y967373D01*
X1703001Y967372D01*
X1703003Y967370D01*
X1997867Y782094D01*
X2311621Y630998D01*
X2558488Y544616D01*
X2640307Y515986D01*
X2640315Y515983D01*
X2640318Y515983D01*
X2640319Y515982D01*
X2979829Y438491D01*
X3325876Y399501D01*
X3325877Y399500D01*
X3325880Y399500D01*
X3674123Y399500D01*
X3674123Y399501D01*
X4020171Y438491D01*
X4359681Y515982D01*
X4688379Y630998D01*
X5002133Y782094D01*
X5296997Y967370D01*
X5337914Y1000000D01*
X5569256Y1184488D01*
X5569258Y1184491D01*
X5569263Y1184494D01*
X5815506Y1430737D01*
X5815534Y1430771D01*
X6032627Y1702999D01*
X6032628Y1703001D01*
X6032630Y1703003D01*
X6217906Y1997867D01*
X6259276Y2083772D01*
X11589500Y2083772D01*
X11589500Y1916229D01*
X11622182Y1751926D01*
X11622184Y1751918D01*
X11686295Y1597140D01*
X11779373Y1457838D01*
X11897837Y1339374D01*
X11952760Y1302676D01*
X12037137Y1246297D01*
X12191918Y1182184D01*
X12298333Y1161017D01*
X12356228Y1149501D01*
X12356232Y1149500D01*
X12356233Y1149500D01*
X12523768Y1149500D01*
X12523769Y1149501D01*
X12688082Y1182184D01*
X12842863Y1246297D01*
X12982162Y1339374D01*
X13100626Y1457838D01*
X13193703Y1597137D01*
X13257816Y1751918D01*
X13290500Y1916233D01*
X13290500Y2083767D01*
X13290499Y2083772D01*
X21589500Y2083772D01*
X21589500Y1916229D01*
X21622182Y1751926D01*
X21622184Y1751918D01*
X21686295Y1597140D01*
X21779373Y1457838D01*
X21897837Y1339374D01*
X21952760Y1302676D01*
X22037137Y1246297D01*
X22191918Y1182184D01*
X22298333Y1161017D01*
X22356228Y1149501D01*
X22356232Y1149500D01*
X22356233Y1149500D01*
X22523768Y1149500D01*
X22523769Y1149501D01*
X22688082Y1182184D01*
X22842863Y1246297D01*
X22982162Y1339374D01*
X23100626Y1457838D01*
X23193703Y1597137D01*
X23257816Y1751918D01*
X23290500Y1916233D01*
X23290500Y2083767D01*
X23290499Y2083772D01*
X30749500Y2083772D01*
X30749500Y1916229D01*
X30782182Y1751926D01*
X30782184Y1751918D01*
X30846295Y1597140D01*
X30939373Y1457838D01*
X31057837Y1339374D01*
X31112760Y1302676D01*
X31197137Y1246297D01*
X31351918Y1182184D01*
X31458333Y1161017D01*
X31516228Y1149501D01*
X31516232Y1149500D01*
X31516233Y1149500D01*
X31683768Y1149500D01*
X31683769Y1149501D01*
X31848082Y1182184D01*
X32002863Y1246297D01*
X32142162Y1339374D01*
X32260626Y1457838D01*
X32353703Y1597137D01*
X32417816Y1751918D01*
X32450500Y1916233D01*
X32450500Y2083767D01*
X32450499Y2083772D01*
X40749500Y2083772D01*
X40749500Y1916229D01*
X40782182Y1751926D01*
X40782184Y1751918D01*
X40846295Y1597140D01*
X40939373Y1457838D01*
X41057837Y1339374D01*
X41112760Y1302676D01*
X41197137Y1246297D01*
X41351918Y1182184D01*
X41458333Y1161017D01*
X41516228Y1149501D01*
X41516232Y1149500D01*
X41516233Y1149500D01*
X41683768Y1149500D01*
X41683769Y1149501D01*
X41848082Y1182184D01*
X42002863Y1246297D01*
X42142162Y1339374D01*
X42260626Y1457838D01*
X42353703Y1597137D01*
X42417816Y1751918D01*
X42450500Y1916233D01*
X42450500Y2083767D01*
X42417816Y2248082D01*
X42353703Y2402863D01*
X42322537Y2449506D01*
X42260626Y2542163D01*
X42142162Y2660627D01*
X42002860Y2753705D01*
X41848082Y2817816D01*
X41848074Y2817818D01*
X41683771Y2850500D01*
X41683767Y2850500D01*
X41516233Y2850500D01*
X41516228Y2850500D01*
X41351925Y2817818D01*
X41351917Y2817816D01*
X41197139Y2753705D01*
X41057837Y2660627D01*
X40939373Y2542163D01*
X40846295Y2402861D01*
X40782184Y2248083D01*
X40782182Y2248075D01*
X40749500Y2083772D01*
X32450499Y2083772D01*
X32417816Y2248082D01*
X32353703Y2402863D01*
X32322537Y2449506D01*
X32260626Y2542163D01*
X32142162Y2660627D01*
X32002860Y2753705D01*
X31848082Y2817816D01*
X31848074Y2817818D01*
X31683771Y2850500D01*
X31683767Y2850500D01*
X31516233Y2850500D01*
X31516228Y2850500D01*
X31351925Y2817818D01*
X31351917Y2817816D01*
X31197139Y2753705D01*
X31057837Y2660627D01*
X30939373Y2542163D01*
X30846295Y2402861D01*
X30782184Y2248083D01*
X30782182Y2248075D01*
X30749500Y2083772D01*
X23290499Y2083772D01*
X23257816Y2248082D01*
X23193703Y2402863D01*
X23162537Y2449506D01*
X23100626Y2542163D01*
X22982162Y2660627D01*
X22842860Y2753705D01*
X22688082Y2817816D01*
X22688074Y2817818D01*
X22523771Y2850500D01*
X22523767Y2850500D01*
X22356233Y2850500D01*
X22356228Y2850500D01*
X22191925Y2817818D01*
X22191917Y2817816D01*
X22037139Y2753705D01*
X21897837Y2660627D01*
X21779373Y2542163D01*
X21686295Y2402861D01*
X21622184Y2248083D01*
X21622182Y2248075D01*
X21589500Y2083772D01*
X13290499Y2083772D01*
X13257816Y2248082D01*
X13193703Y2402863D01*
X13162537Y2449506D01*
X13100626Y2542163D01*
X12982162Y2660627D01*
X12842860Y2753705D01*
X12688082Y2817816D01*
X12688074Y2817818D01*
X12523771Y2850500D01*
X12523767Y2850500D01*
X12356233Y2850500D01*
X12356228Y2850500D01*
X12191925Y2817818D01*
X12191917Y2817816D01*
X12037139Y2753705D01*
X11897837Y2660627D01*
X11779373Y2542163D01*
X11686295Y2402861D01*
X11622184Y2248083D01*
X11622182Y2248075D01*
X11589500Y2083772D01*
X6259276Y2083772D01*
X6369002Y2311621D01*
X6484018Y2640319D01*
X6561509Y2979829D01*
X6600500Y3325880D01*
X6600500Y3674120D01*
X6561509Y4020171D01*
X6484018Y4359681D01*
X6405605Y4583772D01*
X11589500Y4583772D01*
X11589500Y4416229D01*
X11622182Y4251926D01*
X11622184Y4251918D01*
X11686295Y4097140D01*
X11779373Y3957838D01*
X11897837Y3839374D01*
X11981612Y3783398D01*
X12037137Y3746297D01*
X12191918Y3682184D01*
X12356228Y3649501D01*
X12356232Y3649500D01*
X12356233Y3649500D01*
X12523768Y3649500D01*
X12523769Y3649501D01*
X12688082Y3682184D01*
X12842863Y3746297D01*
X12982162Y3839374D01*
X13100626Y3957838D01*
X13193703Y4097137D01*
X13257022Y4250000D01*
X15865885Y4250000D01*
X15867085Y4242416D01*
X15920591Y4077745D01*
X15999195Y3923476D01*
X16100967Y3783398D01*
X16223397Y3660968D01*
X16363475Y3559196D01*
X16517742Y3480592D01*
X16682415Y3427086D01*
X16853429Y3400000D01*
X17190000Y3400000D01*
X17690000Y3400000D01*
X18026571Y3400000D01*
X18197584Y3427086D01*
X18362257Y3480592D01*
X18516524Y3559196D01*
X18656602Y3660968D01*
X18779032Y3783398D01*
X18880804Y3923476D01*
X18959408Y4077745D01*
X19012914Y4242416D01*
X19014115Y4250000D01*
X17690000Y4250000D01*
X17690000Y3400000D01*
X17190000Y3400000D01*
X17190000Y4250000D01*
X15865885Y4250000D01*
X13257022Y4250000D01*
X13257816Y4251918D01*
X13290500Y4416233D01*
X13290500Y4539782D01*
X16740000Y4539782D01*
X16740000Y4460218D01*
X16770448Y4386709D01*
X16826709Y4330448D01*
X16900218Y4300000D01*
X17979782Y4300000D01*
X18053291Y4330448D01*
X18109552Y4386709D01*
X18140000Y4460218D01*
X18140000Y4539782D01*
X18121779Y4583772D01*
X21589500Y4583772D01*
X21589500Y4416229D01*
X21622182Y4251926D01*
X21622184Y4251918D01*
X21686295Y4097140D01*
X21779373Y3957838D01*
X21897837Y3839374D01*
X21981612Y3783398D01*
X22037137Y3746297D01*
X22191918Y3682184D01*
X22356228Y3649501D01*
X22356232Y3649500D01*
X22356233Y3649500D01*
X22523768Y3649500D01*
X22523769Y3649501D01*
X22688082Y3682184D01*
X22842863Y3746297D01*
X22982162Y3839374D01*
X23100626Y3957838D01*
X23193703Y4097137D01*
X23257816Y4251918D01*
X23290500Y4416233D01*
X23290500Y4583767D01*
X23290499Y4583772D01*
X30749500Y4583772D01*
X30749500Y4416229D01*
X30782182Y4251926D01*
X30782184Y4251918D01*
X30846295Y4097140D01*
X30939373Y3957838D01*
X31057837Y3839374D01*
X31141612Y3783398D01*
X31197137Y3746297D01*
X31351918Y3682184D01*
X31516228Y3649501D01*
X31516232Y3649500D01*
X31516233Y3649500D01*
X31683768Y3649500D01*
X31683769Y3649501D01*
X31848082Y3682184D01*
X32002863Y3746297D01*
X32142162Y3839374D01*
X32260626Y3957838D01*
X32353703Y4097137D01*
X32417022Y4250000D01*
X35025885Y4250000D01*
X35027085Y4242416D01*
X35080591Y4077745D01*
X35159195Y3923476D01*
X35260967Y3783398D01*
X35383397Y3660968D01*
X35523475Y3559196D01*
X35677742Y3480592D01*
X35842415Y3427086D01*
X36013429Y3400000D01*
X36350000Y3400000D01*
X36850000Y3400000D01*
X37186571Y3400000D01*
X37357584Y3427086D01*
X37522257Y3480592D01*
X37676524Y3559196D01*
X37816602Y3660968D01*
X37939032Y3783398D01*
X38040804Y3923476D01*
X38119408Y4077745D01*
X38172914Y4242416D01*
X38174115Y4250000D01*
X36850000Y4250000D01*
X36850000Y3400000D01*
X36350000Y3400000D01*
X36350000Y4250000D01*
X35025885Y4250000D01*
X32417022Y4250000D01*
X32417816Y4251918D01*
X32450500Y4416233D01*
X32450500Y4539782D01*
X35900000Y4539782D01*
X35900000Y4460218D01*
X35930448Y4386709D01*
X35986709Y4330448D01*
X36060218Y4300000D01*
X37139782Y4300000D01*
X37213291Y4330448D01*
X37269552Y4386709D01*
X37300000Y4460218D01*
X37300000Y4539782D01*
X37281779Y4583772D01*
X40749500Y4583772D01*
X40749500Y4416229D01*
X40782182Y4251926D01*
X40782184Y4251918D01*
X40846295Y4097140D01*
X40939373Y3957838D01*
X41057837Y3839374D01*
X41141612Y3783398D01*
X41197137Y3746297D01*
X41351918Y3682184D01*
X41516228Y3649501D01*
X41516232Y3649500D01*
X41516233Y3649500D01*
X41683768Y3649500D01*
X41683769Y3649501D01*
X41807566Y3674125D01*
X58399500Y3674125D01*
X58399500Y3325876D01*
X58438489Y2979842D01*
X58438491Y2979830D01*
X58515982Y2640316D01*
X58515985Y2640308D01*
X58630999Y2311618D01*
X58782092Y1997870D01*
X58967371Y1703001D01*
X58967372Y1702999D01*
X59184487Y1430744D01*
X59430743Y1184488D01*
X59702998Y967373D01*
X59703001Y967372D01*
X59703003Y967370D01*
X59997867Y782094D01*
X60311621Y630998D01*
X60558488Y544616D01*
X60640307Y515986D01*
X60640315Y515983D01*
X60640318Y515983D01*
X60640319Y515982D01*
X60979829Y438491D01*
X61325876Y399501D01*
X61325877Y399500D01*
X61325880Y399500D01*
X61674123Y399500D01*
X61674123Y399501D01*
X62020171Y438491D01*
X62359681Y515982D01*
X62688379Y630998D01*
X63002133Y782094D01*
X63296997Y967370D01*
X63337914Y1000000D01*
X63569256Y1184488D01*
X63569258Y1184491D01*
X63569263Y1184494D01*
X63815506Y1430737D01*
X63815534Y1430771D01*
X64032627Y1702999D01*
X64032628Y1703001D01*
X64032630Y1703003D01*
X64217906Y1997867D01*
X64369002Y2311621D01*
X64484018Y2640319D01*
X64561509Y2979829D01*
X64600500Y3325880D01*
X64600500Y3674120D01*
X64561509Y4020171D01*
X64484018Y4359681D01*
X64369002Y4688379D01*
X64217906Y5002133D01*
X64032630Y5296997D01*
X64032628Y5297000D01*
X64032627Y5297002D01*
X63815512Y5569257D01*
X63569256Y5815513D01*
X63297001Y6032628D01*
X63296999Y6032629D01*
X63002130Y6217908D01*
X62688382Y6369001D01*
X62359692Y6484015D01*
X62359684Y6484018D01*
X62105048Y6542137D01*
X62020171Y6561509D01*
X62020167Y6561510D01*
X62020158Y6561511D01*
X61674124Y6600500D01*
X61674120Y6600500D01*
X61325880Y6600500D01*
X61325875Y6600500D01*
X60979841Y6561511D01*
X60979829Y6561509D01*
X60640315Y6484018D01*
X60640307Y6484015D01*
X60311617Y6369001D01*
X59997869Y6217908D01*
X59703000Y6032629D01*
X59702998Y6032628D01*
X59430743Y5815513D01*
X59184487Y5569257D01*
X58967372Y5297002D01*
X58967371Y5297000D01*
X58782092Y5002131D01*
X58630999Y4688383D01*
X58515985Y4359693D01*
X58515982Y4359685D01*
X58438491Y4020171D01*
X58438489Y4020159D01*
X58399500Y3674125D01*
X41807566Y3674125D01*
X41848082Y3682184D01*
X42002863Y3746297D01*
X42142162Y3839374D01*
X42260626Y3957838D01*
X42353703Y4097137D01*
X42417816Y4251918D01*
X42450500Y4416233D01*
X42450500Y4583767D01*
X42417816Y4748082D01*
X42353703Y4902863D01*
X42287373Y5002133D01*
X42260626Y5042163D01*
X42142162Y5160627D01*
X42002860Y5253705D01*
X41848082Y5317816D01*
X41848074Y5317818D01*
X41683771Y5350500D01*
X41683767Y5350500D01*
X41516233Y5350500D01*
X41516228Y5350500D01*
X41351925Y5317818D01*
X41351917Y5317816D01*
X41197139Y5253705D01*
X41057837Y5160627D01*
X40939373Y5042163D01*
X40846295Y4902861D01*
X40782184Y4748083D01*
X40782182Y4748075D01*
X40749500Y4583772D01*
X37281779Y4583772D01*
X37269552Y4613291D01*
X37213291Y4669552D01*
X37139782Y4700000D01*
X36060218Y4700000D01*
X35986709Y4669552D01*
X35930448Y4613291D01*
X35900000Y4539782D01*
X32450500Y4539782D01*
X32450500Y4583767D01*
X32417816Y4748082D01*
X32417021Y4750001D01*
X35025884Y4750001D01*
X35025885Y4750000D01*
X36350000Y4750000D01*
X36850000Y4750000D01*
X38174115Y4750000D01*
X38174115Y4750001D01*
X38172914Y4757585D01*
X38119408Y4922256D01*
X38040804Y5076525D01*
X37939032Y5216603D01*
X37816602Y5339033D01*
X37676524Y5440805D01*
X37522257Y5519409D01*
X37357584Y5572915D01*
X37186571Y5600000D01*
X36850000Y5600000D01*
X36850000Y4750000D01*
X36350000Y4750000D01*
X36350000Y5600000D01*
X36013429Y5600000D01*
X35842415Y5572915D01*
X35677742Y5519409D01*
X35523475Y5440805D01*
X35383397Y5339033D01*
X35260967Y5216603D01*
X35159195Y5076525D01*
X35080591Y4922256D01*
X35027085Y4757585D01*
X35025884Y4750001D01*
X32417021Y4750001D01*
X32353703Y4902863D01*
X32287373Y5002133D01*
X32260626Y5042163D01*
X32142162Y5160627D01*
X32002860Y5253705D01*
X31848082Y5317816D01*
X31848074Y5317818D01*
X31683771Y5350500D01*
X31683767Y5350500D01*
X31516233Y5350500D01*
X31516228Y5350500D01*
X31351925Y5317818D01*
X31351917Y5317816D01*
X31197139Y5253705D01*
X31057837Y5160627D01*
X30939373Y5042163D01*
X30846295Y4902861D01*
X30782184Y4748083D01*
X30782182Y4748075D01*
X30749500Y4583772D01*
X23290499Y4583772D01*
X23257816Y4748082D01*
X23193703Y4902863D01*
X23127373Y5002133D01*
X23100626Y5042163D01*
X22982162Y5160627D01*
X22842860Y5253705D01*
X22688082Y5317816D01*
X22688074Y5317818D01*
X22523771Y5350500D01*
X22523767Y5350500D01*
X22356233Y5350500D01*
X22356228Y5350500D01*
X22191925Y5317818D01*
X22191917Y5317816D01*
X22037139Y5253705D01*
X21897837Y5160627D01*
X21779373Y5042163D01*
X21686295Y4902861D01*
X21622184Y4748083D01*
X21622182Y4748075D01*
X21589500Y4583772D01*
X18121779Y4583772D01*
X18109552Y4613291D01*
X18053291Y4669552D01*
X17979782Y4700000D01*
X16900218Y4700000D01*
X16826709Y4669552D01*
X16770448Y4613291D01*
X16740000Y4539782D01*
X13290500Y4539782D01*
X13290500Y4583767D01*
X13257816Y4748082D01*
X13257021Y4750001D01*
X15865884Y4750001D01*
X15865885Y4750000D01*
X17190000Y4750000D01*
X17690000Y4750000D01*
X19014115Y4750000D01*
X19014115Y4750001D01*
X19012914Y4757585D01*
X18959408Y4922256D01*
X18880804Y5076525D01*
X18779032Y5216603D01*
X18656602Y5339033D01*
X18516524Y5440805D01*
X18362257Y5519409D01*
X18197584Y5572915D01*
X18026571Y5600000D01*
X17690000Y5600000D01*
X17690000Y4750000D01*
X17190000Y4750000D01*
X17190000Y5600000D01*
X16853429Y5600000D01*
X16682415Y5572915D01*
X16517742Y5519409D01*
X16363475Y5440805D01*
X16223397Y5339033D01*
X16100967Y5216603D01*
X15999195Y5076525D01*
X15920591Y4922256D01*
X15867085Y4757585D01*
X15865884Y4750001D01*
X13257021Y4750001D01*
X13193703Y4902863D01*
X13127373Y5002133D01*
X13100626Y5042163D01*
X12982162Y5160627D01*
X12842860Y5253705D01*
X12688082Y5317816D01*
X12688074Y5317818D01*
X12523771Y5350500D01*
X12523767Y5350500D01*
X12356233Y5350500D01*
X12356228Y5350500D01*
X12191925Y5317818D01*
X12191917Y5317816D01*
X12037139Y5253705D01*
X11897837Y5160627D01*
X11779373Y5042163D01*
X11686295Y4902861D01*
X11622184Y4748083D01*
X11622182Y4748075D01*
X11589500Y4583772D01*
X6405605Y4583772D01*
X6369002Y4688379D01*
X6368585Y4689244D01*
X6217907Y5002131D01*
X6059833Y5253703D01*
X6032630Y5296997D01*
X6032628Y5297000D01*
X6032627Y5297002D01*
X5815512Y5569257D01*
X5569256Y5815513D01*
X5297001Y6032628D01*
X5296999Y6032629D01*
X5002130Y6217908D01*
X4688382Y6369001D01*
X4359692Y6484015D01*
X4359684Y6484018D01*
X4105048Y6542137D01*
X4020171Y6561509D01*
X4020167Y6561510D01*
X4020158Y6561511D01*
X3674124Y6600500D01*
X3674120Y6600500D01*
X3325880Y6600500D01*
X3325875Y6600500D01*
X2979841Y6561511D01*
X2979829Y6561509D01*
X2640315Y6484018D01*
X2640307Y6484015D01*
X2311617Y6369001D01*
X1997869Y6217908D01*
X1703000Y6032629D01*
X1702998Y6032628D01*
X1430743Y5815513D01*
X1184487Y5569257D01*
X967372Y5297002D01*
X967371Y5297000D01*
X782092Y5002131D01*
X630999Y4688383D01*
X515985Y4359693D01*
X515982Y4359685D01*
X438491Y4020171D01*
X438489Y4020159D01*
X399500Y3674125D01*
X50500Y3674125D01*
X50500Y10086611D01*
X11339500Y10086611D01*
X11339500Y8913390D01*
X11365964Y8746297D01*
X11366598Y8742299D01*
X11420127Y8577555D01*
X11498768Y8423212D01*
X11600586Y8283072D01*
X11723072Y8160586D01*
X11863212Y8058768D01*
X12017555Y7980127D01*
X12182299Y7926598D01*
X12353389Y7899500D01*
X12353390Y7899500D01*
X12526610Y7899500D01*
X12526611Y7899500D01*
X12697701Y7926598D01*
X12862445Y7980127D01*
X13016788Y8058768D01*
X13156928Y8160586D01*
X13279414Y8283072D01*
X13381232Y8423212D01*
X13459873Y8577555D01*
X13491292Y8674255D01*
X13530728Y8731928D01*
X13595086Y8759127D01*
X13663933Y8747213D01*
X13715409Y8699969D01*
X13727152Y8674256D01*
X13734780Y8650780D01*
X13827715Y8468387D01*
X13948028Y8302787D01*
X14092786Y8158029D01*
X14229410Y8058768D01*
X14258390Y8037713D01*
X14371405Y7980129D01*
X14440776Y7944782D01*
X14440778Y7944782D01*
X14440781Y7944780D01*
X14545137Y7910873D01*
X14635465Y7881523D01*
X14736557Y7865512D01*
X14837648Y7849500D01*
X14837649Y7849500D01*
X15042351Y7849500D01*
X15042352Y7849500D01*
X15244534Y7881523D01*
X15439219Y7944780D01*
X15621610Y8037713D01*
X15714590Y8105268D01*
X15787213Y8158029D01*
X15787215Y8158032D01*
X15787219Y8158034D01*
X15931966Y8302781D01*
X15931968Y8302785D01*
X15931971Y8302787D01*
X15984732Y8375410D01*
X16052287Y8468390D01*
X16145220Y8650781D01*
X16208477Y8845466D01*
X16240500Y9047648D01*
X16240500Y9583772D01*
X16589500Y9583772D01*
X16589500Y9416229D01*
X16622182Y9251926D01*
X16622184Y9251918D01*
X16686295Y9097140D01*
X16779373Y8957838D01*
X16897837Y8839374D01*
X16990494Y8777463D01*
X17037137Y8746297D01*
X17037138Y8746297D01*
X17037139Y8746296D01*
X17072201Y8731773D01*
X17191918Y8682184D01*
X17349793Y8650781D01*
X17356228Y8649501D01*
X17356232Y8649500D01*
X17356233Y8649500D01*
X17523768Y8649500D01*
X17523769Y8649501D01*
X17688082Y8682184D01*
X17842863Y8746297D01*
X17982162Y8839374D01*
X18100626Y8957838D01*
X18193703Y9097137D01*
X18257816Y9251918D01*
X18290500Y9416233D01*
X18290500Y9583767D01*
X18257816Y9748082D01*
X18193703Y9902863D01*
X18100626Y10042162D01*
X18100625Y10042163D01*
X18100623Y10042166D01*
X18090437Y10052352D01*
X18639500Y10052352D01*
X18639500Y8947649D01*
X18671522Y8745466D01*
X18734781Y8550777D01*
X18827715Y8368387D01*
X18948028Y8202787D01*
X19092786Y8058029D01*
X19247749Y7945444D01*
X19258390Y7937713D01*
X19368669Y7881523D01*
X19440776Y7844782D01*
X19440778Y7844782D01*
X19440781Y7844780D01*
X19545137Y7810873D01*
X19635465Y7781523D01*
X19736557Y7765512D01*
X19837648Y7749500D01*
X19837649Y7749500D01*
X20042351Y7749500D01*
X20042352Y7749500D01*
X20244534Y7781523D01*
X20439219Y7844780D01*
X20621610Y7937713D01*
X20714590Y8005268D01*
X20787213Y8058029D01*
X20787215Y8058032D01*
X20787219Y8058034D01*
X20931966Y8202781D01*
X20931968Y8202785D01*
X20931971Y8202787D01*
X20990300Y8283072D01*
X21052287Y8368390D01*
X21145220Y8550781D01*
X21169092Y8624255D01*
X21208529Y8681928D01*
X21272888Y8709127D01*
X21341734Y8697213D01*
X21393210Y8649969D01*
X21404952Y8624259D01*
X21420127Y8577555D01*
X21498768Y8423212D01*
X21600586Y8283072D01*
X21723072Y8160586D01*
X21863212Y8058768D01*
X22017555Y7980127D01*
X22182299Y7926598D01*
X22353389Y7899500D01*
X22353390Y7899500D01*
X22526610Y7899500D01*
X22526611Y7899500D01*
X22697701Y7926598D01*
X22862445Y7980127D01*
X23016788Y8058768D01*
X23156928Y8160586D01*
X23279414Y8283072D01*
X23381232Y8423212D01*
X23459873Y8577555D01*
X23513402Y8742299D01*
X23540500Y8913389D01*
X23540500Y10086611D01*
X30499500Y10086611D01*
X30499500Y8913390D01*
X30525964Y8746297D01*
X30526598Y8742299D01*
X30580127Y8577555D01*
X30658768Y8423212D01*
X30760586Y8283072D01*
X30883072Y8160586D01*
X31023212Y8058768D01*
X31177555Y7980127D01*
X31342299Y7926598D01*
X31513389Y7899500D01*
X31513390Y7899500D01*
X31686610Y7899500D01*
X31686611Y7899500D01*
X31857701Y7926598D01*
X32022445Y7980127D01*
X32176788Y8058768D01*
X32316928Y8160586D01*
X32439414Y8283072D01*
X32541232Y8423212D01*
X32619873Y8577555D01*
X32651292Y8674255D01*
X32690728Y8731928D01*
X32755086Y8759127D01*
X32823933Y8747213D01*
X32875409Y8699969D01*
X32887152Y8674256D01*
X32894780Y8650780D01*
X32987715Y8468387D01*
X33108028Y8302787D01*
X33252786Y8158029D01*
X33389410Y8058768D01*
X33418390Y8037713D01*
X33531405Y7980129D01*
X33600776Y7944782D01*
X33600778Y7944782D01*
X33600781Y7944780D01*
X33705137Y7910873D01*
X33795465Y7881523D01*
X33896557Y7865512D01*
X33997648Y7849500D01*
X33997649Y7849500D01*
X34202351Y7849500D01*
X34202352Y7849500D01*
X34404534Y7881523D01*
X34599219Y7944780D01*
X34781610Y8037713D01*
X34874590Y8105268D01*
X34947213Y8158029D01*
X34947215Y8158032D01*
X34947219Y8158034D01*
X35091966Y8302781D01*
X35091968Y8302785D01*
X35091971Y8302787D01*
X35144732Y8375410D01*
X35212287Y8468390D01*
X35305220Y8650781D01*
X35368477Y8845466D01*
X35400500Y9047648D01*
X35400500Y9583772D01*
X35749500Y9583772D01*
X35749500Y9416229D01*
X35782182Y9251926D01*
X35782184Y9251918D01*
X35846295Y9097140D01*
X35939373Y8957838D01*
X36057837Y8839374D01*
X36150494Y8777463D01*
X36197137Y8746297D01*
X36197138Y8746297D01*
X36197139Y8746296D01*
X36232201Y8731773D01*
X36351918Y8682184D01*
X36509793Y8650781D01*
X36516228Y8649501D01*
X36516232Y8649500D01*
X36516233Y8649500D01*
X36683768Y8649500D01*
X36683769Y8649501D01*
X36848082Y8682184D01*
X37002863Y8746297D01*
X37142162Y8839374D01*
X37260626Y8957838D01*
X37353703Y9097137D01*
X37417816Y9251918D01*
X37450500Y9416233D01*
X37450500Y9583767D01*
X37417816Y9748082D01*
X37353703Y9902863D01*
X37260626Y10042162D01*
X37260625Y10042163D01*
X37260623Y10042166D01*
X37250437Y10052352D01*
X37799500Y10052352D01*
X37799500Y8947649D01*
X37831522Y8745466D01*
X37894781Y8550777D01*
X37987715Y8368387D01*
X38108028Y8202787D01*
X38252786Y8058029D01*
X38407749Y7945444D01*
X38418390Y7937713D01*
X38528669Y7881523D01*
X38600776Y7844782D01*
X38600778Y7844782D01*
X38600781Y7844780D01*
X38705137Y7810873D01*
X38795465Y7781523D01*
X38896557Y7765512D01*
X38997648Y7749500D01*
X38997649Y7749500D01*
X39202351Y7749500D01*
X39202352Y7749500D01*
X39404534Y7781523D01*
X39599219Y7844780D01*
X39781610Y7937713D01*
X39874590Y8005268D01*
X39947213Y8058029D01*
X39947215Y8058032D01*
X39947219Y8058034D01*
X40091966Y8202781D01*
X40091968Y8202785D01*
X40091971Y8202787D01*
X40150300Y8283072D01*
X40212287Y8368390D01*
X40305220Y8550781D01*
X40329092Y8624255D01*
X40368529Y8681928D01*
X40432888Y8709127D01*
X40501734Y8697213D01*
X40553210Y8649969D01*
X40564952Y8624259D01*
X40580127Y8577555D01*
X40658768Y8423212D01*
X40760586Y8283072D01*
X40883072Y8160586D01*
X41023212Y8058768D01*
X41177555Y7980127D01*
X41342299Y7926598D01*
X41513389Y7899500D01*
X41513390Y7899500D01*
X41686610Y7899500D01*
X41686611Y7899500D01*
X41857701Y7926598D01*
X42022445Y7980127D01*
X42176788Y8058768D01*
X42316928Y8160586D01*
X42439414Y8283072D01*
X42541232Y8423212D01*
X42619873Y8577555D01*
X42673402Y8742299D01*
X42700500Y8913389D01*
X42700500Y10086611D01*
X42673402Y10257701D01*
X42619873Y10422445D01*
X42541232Y10576788D01*
X42439414Y10716928D01*
X42316928Y10839414D01*
X42176788Y10941232D01*
X42022445Y11019873D01*
X41857701Y11073402D01*
X41857699Y11073403D01*
X41857698Y11073403D01*
X41726271Y11094219D01*
X41686611Y11100500D01*
X41513389Y11100500D01*
X41473728Y11094219D01*
X41342302Y11073403D01*
X41177552Y11019872D01*
X41023211Y10941232D01*
X40988593Y10916080D01*
X40883072Y10839414D01*
X40883070Y10839412D01*
X40883069Y10839412D01*
X40760588Y10716931D01*
X40760588Y10716930D01*
X40760586Y10716928D01*
X40746267Y10697219D01*
X40658768Y10576789D01*
X40580128Y10422450D01*
X40564954Y10375747D01*
X40525516Y10318072D01*
X40461157Y10290874D01*
X40392311Y10302789D01*
X40340835Y10350034D01*
X40329092Y10375747D01*
X40305220Y10449219D01*
X40212287Y10631610D01*
X40204556Y10642251D01*
X40091971Y10797214D01*
X39947213Y10941972D01*
X39781613Y11062285D01*
X39781612Y11062286D01*
X39781610Y11062287D01*
X39724653Y11091309D01*
X39599223Y11155219D01*
X39404534Y11218478D01*
X39229995Y11246122D01*
X39202352Y11250500D01*
X38997648Y11250500D01*
X38973329Y11246649D01*
X38795465Y11218478D01*
X38600776Y11155219D01*
X38418386Y11062285D01*
X38252786Y10941972D01*
X38108028Y10797214D01*
X37987715Y10631614D01*
X37894781Y10449224D01*
X37831522Y10254535D01*
X37799500Y10052352D01*
X37250437Y10052352D01*
X37142162Y10160627D01*
X37002860Y10253705D01*
X36848082Y10317816D01*
X36848074Y10317818D01*
X36683771Y10350500D01*
X36683767Y10350500D01*
X36516233Y10350500D01*
X36516228Y10350500D01*
X36351925Y10317818D01*
X36351917Y10317816D01*
X36197139Y10253705D01*
X36057837Y10160627D01*
X35939373Y10042163D01*
X35846295Y9902861D01*
X35782184Y9748083D01*
X35782182Y9748075D01*
X35749500Y9583772D01*
X35400500Y9583772D01*
X35400500Y9952352D01*
X35368477Y10154534D01*
X35366497Y10160627D01*
X35305218Y10349224D01*
X35267907Y10422450D01*
X35212287Y10531610D01*
X35179463Y10576789D01*
X35091971Y10697214D01*
X34947213Y10841972D01*
X34781613Y10962285D01*
X34781612Y10962286D01*
X34781610Y10962287D01*
X34724653Y10991309D01*
X34599223Y11055219D01*
X34404534Y11118478D01*
X34229995Y11146122D01*
X34202352Y11150500D01*
X33997648Y11150500D01*
X33973329Y11146649D01*
X33795465Y11118478D01*
X33600776Y11055219D01*
X33418386Y10962285D01*
X33252786Y10841972D01*
X33108028Y10697214D01*
X32987715Y10531614D01*
X32894781Y10349223D01*
X32887152Y10325744D01*
X32847712Y10268070D01*
X32783352Y10240874D01*
X32714507Y10252791D01*
X32663032Y10300037D01*
X32651293Y10325744D01*
X32619873Y10422445D01*
X32541232Y10576788D01*
X32439414Y10716928D01*
X32316928Y10839414D01*
X32176788Y10941232D01*
X32022445Y11019873D01*
X31857701Y11073402D01*
X31857699Y11073403D01*
X31857698Y11073403D01*
X31726271Y11094219D01*
X31686611Y11100500D01*
X31513389Y11100500D01*
X31473728Y11094219D01*
X31342302Y11073403D01*
X31177552Y11019872D01*
X31023211Y10941232D01*
X30988593Y10916080D01*
X30883072Y10839414D01*
X30883070Y10839412D01*
X30883069Y10839412D01*
X30760588Y10716931D01*
X30760588Y10716930D01*
X30760586Y10716928D01*
X30746267Y10697219D01*
X30658768Y10576789D01*
X30580128Y10422448D01*
X30526597Y10257698D01*
X30499500Y10086611D01*
X23540500Y10086611D01*
X23513402Y10257701D01*
X23459873Y10422445D01*
X23381232Y10576788D01*
X23279414Y10716928D01*
X23156928Y10839414D01*
X23016788Y10941232D01*
X22862445Y11019873D01*
X22697701Y11073402D01*
X22697699Y11073403D01*
X22697698Y11073403D01*
X22566271Y11094219D01*
X22526611Y11100500D01*
X22353389Y11100500D01*
X22313728Y11094219D01*
X22182302Y11073403D01*
X22017552Y11019872D01*
X21863211Y10941232D01*
X21828593Y10916080D01*
X21723072Y10839414D01*
X21723070Y10839412D01*
X21723069Y10839412D01*
X21600588Y10716931D01*
X21600588Y10716930D01*
X21600586Y10716928D01*
X21586267Y10697219D01*
X21498768Y10576789D01*
X21420128Y10422450D01*
X21404954Y10375747D01*
X21365516Y10318072D01*
X21301157Y10290874D01*
X21232311Y10302789D01*
X21180835Y10350034D01*
X21169092Y10375747D01*
X21145220Y10449219D01*
X21052287Y10631610D01*
X21044556Y10642251D01*
X20931971Y10797214D01*
X20787213Y10941972D01*
X20621613Y11062285D01*
X20621612Y11062286D01*
X20621610Y11062287D01*
X20564653Y11091309D01*
X20439223Y11155219D01*
X20244534Y11218478D01*
X20069995Y11246122D01*
X20042352Y11250500D01*
X19837648Y11250500D01*
X19813329Y11246649D01*
X19635465Y11218478D01*
X19440776Y11155219D01*
X19258386Y11062285D01*
X19092786Y10941972D01*
X18948028Y10797214D01*
X18827715Y10631614D01*
X18734781Y10449224D01*
X18671522Y10254535D01*
X18639500Y10052352D01*
X18090437Y10052352D01*
X17982162Y10160627D01*
X17842860Y10253705D01*
X17688082Y10317816D01*
X17688074Y10317818D01*
X17523771Y10350500D01*
X17523767Y10350500D01*
X17356233Y10350500D01*
X17356228Y10350500D01*
X17191925Y10317818D01*
X17191917Y10317816D01*
X17037139Y10253705D01*
X16897837Y10160627D01*
X16779373Y10042163D01*
X16686295Y9902861D01*
X16622184Y9748083D01*
X16622182Y9748075D01*
X16589500Y9583772D01*
X16240500Y9583772D01*
X16240500Y9952352D01*
X16208477Y10154534D01*
X16206497Y10160627D01*
X16145218Y10349224D01*
X16107907Y10422450D01*
X16052287Y10531610D01*
X16019463Y10576789D01*
X15931971Y10697214D01*
X15787213Y10841972D01*
X15621613Y10962285D01*
X15621612Y10962286D01*
X15621610Y10962287D01*
X15564653Y10991309D01*
X15439223Y11055219D01*
X15244534Y11118478D01*
X15069995Y11146122D01*
X15042352Y11150500D01*
X14837648Y11150500D01*
X14813329Y11146649D01*
X14635465Y11118478D01*
X14440776Y11055219D01*
X14258386Y10962285D01*
X14092786Y10841972D01*
X13948028Y10697214D01*
X13827715Y10531614D01*
X13734781Y10349223D01*
X13727152Y10325744D01*
X13687712Y10268070D01*
X13623352Y10240874D01*
X13554507Y10252791D01*
X13503032Y10300037D01*
X13491293Y10325744D01*
X13459873Y10422445D01*
X13381232Y10576788D01*
X13279414Y10716928D01*
X13156928Y10839414D01*
X13016788Y10941232D01*
X12862445Y11019873D01*
X12697701Y11073402D01*
X12697699Y11073403D01*
X12697698Y11073403D01*
X12566271Y11094219D01*
X12526611Y11100500D01*
X12353389Y11100500D01*
X12313728Y11094219D01*
X12182302Y11073403D01*
X12017552Y11019872D01*
X11863211Y10941232D01*
X11828593Y10916080D01*
X11723072Y10839414D01*
X11723070Y10839412D01*
X11723069Y10839412D01*
X11600588Y10716931D01*
X11600588Y10716930D01*
X11600586Y10716928D01*
X11586267Y10697219D01*
X11498768Y10576789D01*
X11420128Y10422448D01*
X11366597Y10257698D01*
X11339500Y10086611D01*
X50500Y10086611D01*
X50500Y17566287D01*
X13489500Y17566287D01*
X13489500Y17353714D01*
X13512712Y17207156D01*
X13522754Y17143757D01*
X13582428Y16960099D01*
X13588444Y16941586D01*
X13684951Y16752180D01*
X13809890Y16580214D01*
X13923430Y16466674D01*
X13956915Y16405351D01*
X13951931Y16335659D01*
X13910059Y16279726D01*
X13879083Y16262811D01*
X13747669Y16213797D01*
X13747664Y16213794D01*
X13632455Y16127548D01*
X13632452Y16127545D01*
X13546206Y16012336D01*
X13546202Y16012329D01*
X13495908Y15877483D01*
X13489501Y15817884D01*
X13489500Y15817865D01*
X13489500Y14022130D01*
X13489501Y14022124D01*
X13495908Y13962517D01*
X13546202Y13827672D01*
X13546206Y13827665D01*
X13632452Y13712456D01*
X13632455Y13712453D01*
X13747664Y13626207D01*
X13747671Y13626203D01*
X13882517Y13575909D01*
X13882516Y13575909D01*
X13889444Y13575165D01*
X13942127Y13569500D01*
X15737872Y13569501D01*
X15797483Y13575909D01*
X15932331Y13626204D01*
X16047546Y13712454D01*
X16133796Y13827669D01*
X16183002Y13959599D01*
X16224872Y14015532D01*
X16290337Y14039950D01*
X16358610Y14025099D01*
X16386865Y14003947D01*
X16500535Y13890277D01*
X16500540Y13890273D01*
X16672442Y13765380D01*
X16861782Y13668905D01*
X17063871Y13603243D01*
X17130000Y13592769D01*
X17130000Y14486988D01*
X17187007Y14454075D01*
X17314174Y14420000D01*
X17445826Y14420000D01*
X17572993Y14454075D01*
X17630000Y14486988D01*
X17630000Y13592770D01*
X17696126Y13603243D01*
X17696129Y13603243D01*
X17898217Y13668905D01*
X18087557Y13765380D01*
X18259459Y13890273D01*
X18259464Y13890277D01*
X18409723Y14040536D01*
X18409727Y14040541D01*
X18534620Y14212442D01*
X18539232Y14221493D01*
X18587205Y14272291D01*
X18655025Y14289088D01*
X18721161Y14266553D01*
X18760204Y14221496D01*
X18764949Y14212183D01*
X18889890Y14040214D01*
X19040213Y13889891D01*
X19212179Y13764952D01*
X19212181Y13764951D01*
X19212184Y13764949D01*
X19401588Y13668443D01*
X19603757Y13602754D01*
X19813713Y13569500D01*
X19813714Y13569500D01*
X20026286Y13569500D01*
X20026287Y13569500D01*
X20236243Y13602754D01*
X20438412Y13668443D01*
X20627816Y13764949D01*
X20679113Y13802218D01*
X20799786Y13889891D01*
X20799788Y13889894D01*
X20799792Y13889896D01*
X20950104Y14040208D01*
X20950106Y14040212D01*
X20950109Y14040214D01*
X21075048Y14212180D01*
X21075050Y14212183D01*
X21075051Y14212184D01*
X21171557Y14401588D01*
X21237246Y14603757D01*
X21270500Y14813713D01*
X21270500Y15026287D01*
X21237246Y15236243D01*
X21171557Y15438412D01*
X21075051Y15627816D01*
X21075049Y15627819D01*
X21075048Y15627821D01*
X20950109Y15799787D01*
X20799786Y15950110D01*
X20627820Y16075049D01*
X20627115Y16075409D01*
X20619054Y16079515D01*
X20568259Y16127488D01*
X20551463Y16195308D01*
X20573999Y16261444D01*
X20619054Y16300485D01*
X20627816Y16304949D01*
X20670085Y16335659D01*
X20799786Y16429891D01*
X20799788Y16429894D01*
X20799792Y16429896D01*
X20950104Y16580208D01*
X20950106Y16580212D01*
X20950109Y16580214D01*
X21075048Y16752180D01*
X21075047Y16752180D01*
X21075051Y16752184D01*
X21171557Y16941588D01*
X21237246Y17143757D01*
X21270500Y17353713D01*
X21270500Y17566287D01*
X21237246Y17776243D01*
X21171557Y17978412D01*
X21075051Y18167816D01*
X21075049Y18167819D01*
X21075048Y18167821D01*
X20950109Y18339787D01*
X20799786Y18490110D01*
X20627820Y18615049D01*
X20438414Y18711556D01*
X20438413Y18711557D01*
X20438412Y18711557D01*
X20236243Y18777246D01*
X20236241Y18777247D01*
X20236240Y18777247D01*
X20074957Y18802792D01*
X20026287Y18810500D01*
X19813713Y18810500D01*
X19765042Y18802792D01*
X19603760Y18777247D01*
X19401585Y18711556D01*
X19212179Y18615049D01*
X19040213Y18490110D01*
X18889890Y18339787D01*
X18764949Y18167818D01*
X18760202Y18158501D01*
X18712227Y18107707D01*
X18644405Y18090913D01*
X18578271Y18113452D01*
X18539234Y18158505D01*
X18534622Y18167556D01*
X18409727Y18339460D01*
X18409723Y18339465D01*
X18259464Y18489724D01*
X18259459Y18489728D01*
X18087557Y18614621D01*
X17898215Y18711097D01*
X17696124Y18776759D01*
X17630000Y18787232D01*
X17630000Y17893012D01*
X17572993Y17925925D01*
X17445826Y17960000D01*
X17314174Y17960000D01*
X17187007Y17925925D01*
X17130000Y17893012D01*
X17130000Y18787232D01*
X17129999Y18787232D01*
X17063875Y18776759D01*
X16861784Y18711097D01*
X16672442Y18614621D01*
X16500540Y18489728D01*
X16500535Y18489724D01*
X16350276Y18339465D01*
X16350272Y18339460D01*
X16225378Y18167557D01*
X16220762Y18158498D01*
X16172784Y18107705D01*
X16104963Y18090913D01*
X16038829Y18113454D01*
X15999794Y18158507D01*
X15995051Y18167816D01*
X15995049Y18167819D01*
X15995048Y18167821D01*
X15870109Y18339787D01*
X15719786Y18490110D01*
X15547820Y18615049D01*
X15358414Y18711556D01*
X15358413Y18711557D01*
X15358412Y18711557D01*
X15156243Y18777246D01*
X15156241Y18777247D01*
X15156240Y18777247D01*
X14994957Y18802792D01*
X14946287Y18810500D01*
X14733713Y18810500D01*
X14685042Y18802792D01*
X14523760Y18777247D01*
X14321585Y18711556D01*
X14132179Y18615049D01*
X13960213Y18490110D01*
X13809890Y18339787D01*
X13684951Y18167821D01*
X13588444Y17978415D01*
X13522753Y17776240D01*
X13489500Y17566287D01*
X50500Y17566287D01*
X50500Y18494589D01*
X50972Y18505396D01*
X60565Y18615049D01*
X63979Y18654072D01*
X67732Y18675355D01*
X68253Y18677299D01*
X104956Y18814279D01*
X112342Y18834572D01*
X173127Y18964926D01*
X183927Y18983631D01*
X266423Y19101448D01*
X280306Y19117993D01*
X382007Y19219694D01*
X398552Y19233577D01*
X516369Y19316073D01*
X535074Y19326873D01*
X665428Y19387658D01*
X685721Y19395044D01*
X824645Y19432269D01*
X845928Y19436021D01*
X994605Y19449028D01*
X1005412Y19449500D01*
X4091905Y19449500D01*
X4091907Y19449500D01*
X4272928Y19481419D01*
X4445656Y19544287D01*
X4604844Y19636194D01*
X4745653Y19754347D01*
X4863806Y19895156D01*
X4955713Y20054344D01*
X5018581Y20227072D01*
X5050500Y20408093D01*
X5050500Y20500000D01*
X5050500Y20516408D01*
X5050500Y35520918D01*
X5050500Y35591907D01*
X5018581Y35772928D01*
X4955713Y35945656D01*
X4863806Y36104844D01*
X4863804Y36104846D01*
X4863804Y36104847D01*
X4823521Y36152853D01*
X4745653Y36245653D01*
X4654320Y36322291D01*
X4604846Y36363805D01*
X4604842Y36363807D01*
X4445660Y36455711D01*
X4445657Y36455712D01*
X4445656Y36455713D01*
X4375030Y36481419D01*
X4272927Y36518582D01*
X4091909Y36550500D01*
X4091907Y36550500D01*
X4020918Y36550500D01*
X1005412Y36550500D01*
X994605Y36550972D01*
X977265Y36552489D01*
X845930Y36563980D01*
X824645Y36567733D01*
X685729Y36604955D01*
X665417Y36612348D01*
X535081Y36673125D01*
X516363Y36683932D01*
X398559Y36766419D01*
X382001Y36780313D01*
X280312Y36882002D01*
X266418Y36898560D01*
X183931Y37016364D01*
X173124Y37035082D01*
X164142Y37054344D01*
X112344Y37165425D01*
X104954Y37185730D01*
X67732Y37324646D01*
X63979Y37345932D01*
X57626Y37418543D01*
X50972Y37494605D01*
X50500Y37505412D01*
X50500Y52674125D01*
X399500Y52674125D01*
X399500Y52325876D01*
X438489Y51979842D01*
X438490Y51979833D01*
X438491Y51979829D01*
X452538Y51918285D01*
X515982Y51640316D01*
X515985Y51640308D01*
X630999Y51311618D01*
X782092Y50997870D01*
X967371Y50703001D01*
X967372Y50702999D01*
X1184487Y50430744D01*
X1430743Y50184488D01*
X1702998Y49967373D01*
X1703001Y49967372D01*
X1703003Y49967370D01*
X1992868Y49785235D01*
X1997869Y49782093D01*
X2080828Y49742142D01*
X2311621Y49630998D01*
X2558488Y49544616D01*
X2640307Y49515986D01*
X2640315Y49515983D01*
X2640318Y49515983D01*
X2640319Y49515982D01*
X2979829Y49438491D01*
X3325876Y49399501D01*
X3325877Y49399500D01*
X3325880Y49399500D01*
X3674123Y49399500D01*
X3674123Y49399501D01*
X4020171Y49438491D01*
X4359681Y49515982D01*
X4688379Y49630998D01*
X5002133Y49782094D01*
X5296997Y49967370D01*
X5297001Y49967373D01*
X5569256Y50184488D01*
X5569258Y50184491D01*
X5569263Y50184494D01*
X5815506Y50430737D01*
X5928554Y50572496D01*
X5952180Y50589080D01*
X5973989Y50607976D01*
X5980420Y50608901D01*
X5985741Y50612635D01*
X6014578Y50613813D01*
X6043147Y50617920D01*
X6049059Y50615220D01*
X6055552Y50615485D01*
X6080445Y50600887D01*
X6106703Y50588895D01*
X6110217Y50583427D01*
X6115822Y50580140D01*
X6128871Y50554400D01*
X6144477Y50530117D01*
X6145781Y50521046D01*
X6147416Y50517821D01*
X6149500Y50495182D01*
X6149500Y50250433D01*
X6129815Y50183394D01*
X6128602Y50181542D01*
X6063368Y50083914D01*
X5987949Y49901837D01*
X5987947Y49901829D01*
X5949500Y49708545D01*
X5949500Y49511456D01*
X5987947Y49318172D01*
X5987949Y49318164D01*
X6063367Y49136090D01*
X6063372Y49136080D01*
X6172860Y48972220D01*
X6172863Y48972216D01*
X6508617Y48636463D01*
X6817858Y48327222D01*
X6817861Y48327218D01*
X6957218Y48187861D01*
X6957221Y48187859D01*
X8569735Y46575345D01*
X8569764Y46575314D01*
X8716540Y46428538D01*
X8716560Y46428520D01*
X8732216Y46412863D01*
X8732219Y46412861D01*
X8896079Y46303373D01*
X8896083Y46303371D01*
X8896086Y46303369D01*
X9078164Y46227949D01*
X9269876Y46189815D01*
X9271455Y46189501D01*
X9271458Y46189500D01*
X9271460Y46189500D01*
X9468541Y46189500D01*
X9468541Y46189501D01*
X9557107Y46207118D01*
X9581298Y46209500D01*
X16004218Y46209500D01*
X16071257Y46189815D01*
X16091899Y46173181D01*
X25323181Y36941899D01*
X25356666Y36880576D01*
X25359500Y36854218D01*
X25359500Y34641459D01*
X25359500Y34641457D01*
X25359499Y34641457D01*
X25397947Y34448171D01*
X25397950Y34448161D01*
X25473364Y34266093D01*
X25473371Y34266080D01*
X25582859Y34102220D01*
X25582860Y34102219D01*
X25582861Y34102218D01*
X25722218Y33962861D01*
X25722219Y33962861D01*
X25729286Y33955794D01*
X25729285Y33955794D01*
X25729288Y33955792D01*
X27552860Y32132219D01*
X27552861Y32132218D01*
X27681603Y32003476D01*
X27692219Y31992860D01*
X27856080Y31883372D01*
X27856086Y31883368D01*
X27856088Y31883367D01*
X27856092Y31883365D01*
X27947123Y31845660D01*
X27947124Y31845659D01*
X28011501Y31818993D01*
X28038165Y31807948D01*
X28199389Y31775879D01*
X28231457Y31769501D01*
X28231458Y31769500D01*
X28231459Y31769500D01*
X28231460Y31769500D01*
X28428540Y31769500D01*
X41718059Y31769500D01*
X41785098Y31749815D01*
X41830853Y31697011D01*
X41840797Y31627853D01*
X41811772Y31564297D01*
X41805740Y31557819D01*
X41718213Y31470293D01*
X41718210Y31470289D01*
X41630609Y31339186D01*
X41630602Y31339173D01*
X41570264Y31193502D01*
X41570261Y31193492D01*
X41548141Y31082286D01*
X41539375Y31065529D01*
X41535356Y31047052D01*
X41516611Y31022011D01*
X41515756Y31020375D01*
X41514206Y31018797D01*
X41371269Y30875860D01*
X41371268Y30875860D01*
X41371267Y30875859D01*
X41371267Y30875858D01*
X41327704Y30832296D01*
X41284142Y30788734D01*
X41260194Y30752894D01*
X41260186Y30752881D01*
X41257653Y30749089D01*
X41215688Y30686286D01*
X41200133Y30648732D01*
X41197220Y30641701D01*
X41197218Y30641696D01*
X41168538Y30572456D01*
X41168535Y30572444D01*
X41144500Y30451611D01*
X41144500Y29459782D01*
X41138261Y29438537D01*
X41136682Y29416448D01*
X41128609Y29405665D01*
X41124815Y29392743D01*
X41108081Y29378244D01*
X41094810Y29360515D01*
X41082189Y29355808D01*
X41072011Y29346988D01*
X41050093Y29343837D01*
X41029346Y29336098D01*
X41016185Y29338961D01*
X41002853Y29337044D01*
X40982709Y29346244D01*
X40961073Y29350950D01*
X40943347Y29364219D01*
X40939297Y29366069D01*
X40932819Y29372101D01*
X40841479Y29463441D01*
X40841459Y29463463D01*
X40697785Y29607137D01*
X40697781Y29607140D01*
X40533920Y29716629D01*
X40533907Y29716636D01*
X40406493Y29769411D01*
X40399154Y29772451D01*
X40351836Y29792051D01*
X40247614Y29812782D01*
X40243453Y29813610D01*
X40243452Y29813610D01*
X40158543Y29830500D01*
X40158541Y29830500D01*
X32318541Y29830500D01*
X22495783Y29830500D01*
X22428744Y29850185D01*
X22408102Y29866819D01*
X20896819Y31378102D01*
X20863334Y31439425D01*
X20860500Y31465783D01*
X20860500Y36738152D01*
X20862883Y36762344D01*
X20866458Y36780313D01*
X20888211Y36889673D01*
X20900501Y36951458D01*
X20900501Y37148544D01*
X20900500Y37148546D01*
X20884880Y37227072D01*
X20862052Y37341836D01*
X20786632Y37523915D01*
X20786631Y37523916D01*
X20786628Y37523922D01*
X20677140Y37687783D01*
X20537785Y37827138D01*
X20537781Y37827141D01*
X20373921Y37936629D01*
X20373912Y37936634D01*
X20191836Y38012052D01*
X20191828Y38012054D01*
X19998544Y38050501D01*
X19998541Y38050501D01*
X19801460Y38050501D01*
X19801457Y38050501D01*
X19608172Y38012054D01*
X19608164Y38012052D01*
X19426088Y37936634D01*
X19426079Y37936629D01*
X19262218Y37827140D01*
X19262214Y37827137D01*
X19229000Y37793921D01*
X19222218Y37787139D01*
X19152538Y37717460D01*
X19082859Y37647781D01*
X18973371Y37483921D01*
X18973364Y37483908D01*
X18897950Y37301840D01*
X18897947Y37301830D01*
X18859500Y37108544D01*
X18859500Y32508513D01*
X18857117Y32484321D01*
X18850000Y32448543D01*
X18850000Y32251458D01*
X18857117Y32215681D01*
X18859500Y32191488D01*
X18859500Y30901459D01*
X18864664Y30875499D01*
X18897949Y30708164D01*
X18916361Y30663715D01*
X18919874Y30655232D01*
X18919875Y30655231D01*
X18973364Y30526094D01*
X18973366Y30526089D01*
X18973368Y30526086D01*
X19082861Y30362218D01*
X19222218Y30222861D01*
X19222220Y30222860D01*
X19229286Y30215794D01*
X19229285Y30215794D01*
X19229289Y30215791D01*
X20577398Y28867681D01*
X20610883Y28806358D01*
X20605899Y28736666D01*
X20564027Y28680733D01*
X20498563Y28656316D01*
X20489717Y28656000D01*
X18264058Y28656000D01*
X18234617Y28664645D01*
X18204631Y28671168D01*
X18199615Y28674923D01*
X18197019Y28675685D01*
X18176377Y28692319D01*
X18093804Y28774892D01*
X18093784Y28774914D01*
X18002339Y28866359D01*
X17947429Y28903048D01*
X17947428Y28903049D01*
X17941176Y28907226D01*
X17899892Y28934812D01*
X17819398Y28968153D01*
X17786058Y28981963D01*
X17786054Y28981964D01*
X17786050Y28981965D01*
X17695723Y28999933D01*
X17695714Y28999933D01*
X17665213Y29006000D01*
X17665212Y29006000D01*
X16752107Y29006000D01*
X16628893Y29006000D01*
X16613642Y29002967D01*
X16598391Y28999933D01*
X16598390Y28999934D01*
X16508054Y28981965D01*
X16508045Y28981963D01*
X16482880Y28971539D01*
X16474707Y28968153D01*
X16394214Y28934812D01*
X16376595Y28923040D01*
X16367622Y28918922D01*
X16358371Y28917576D01*
X16340102Y28910008D01*
X16186155Y28879386D01*
X16186145Y28879383D01*
X16040474Y28819045D01*
X16040461Y28819038D01*
X15909358Y28731437D01*
X15909354Y28731434D01*
X15797860Y28619940D01*
X15797857Y28619936D01*
X15710256Y28488833D01*
X15710251Y28488824D01*
X15678450Y28412047D01*
X15634609Y28357644D01*
X15568315Y28335579D01*
X15563889Y28335500D01*
X14476848Y28335500D01*
X14409809Y28355185D01*
X14389167Y28371819D01*
X13015382Y29745604D01*
X12981897Y29806927D01*
X12986881Y29876619D01*
X12988502Y29880737D01*
X13044735Y30016498D01*
X13044737Y30016502D01*
X13075500Y30171157D01*
X13075500Y30328841D01*
X13075500Y30328844D01*
X13075499Y30328846D01*
X13044738Y30483489D01*
X13044737Y30483496D01*
X13027096Y30526086D01*
X12984397Y30629172D01*
X12984390Y30629185D01*
X12896789Y30760288D01*
X12896785Y30760293D01*
X12839773Y30817305D01*
X12835435Y30825250D01*
X12828187Y30830675D01*
X12818950Y30855438D01*
X12806288Y30878628D01*
X12806933Y30887657D01*
X12803770Y30896139D01*
X12809386Y30921962D01*
X12811272Y30948320D01*
X12817089Y30957373D01*
X12818621Y30964412D01*
X12839767Y30992662D01*
X12902505Y31055400D01*
X12963824Y31088882D01*
X12965833Y31089301D01*
X13077204Y31111453D01*
X13222886Y31171796D01*
X13353996Y31259401D01*
X13465496Y31370901D01*
X13553101Y31502011D01*
X13613444Y31647693D01*
X13644207Y31802348D01*
X13644207Y31960032D01*
X13644207Y31960035D01*
X13644206Y31960037D01*
X13613445Y32114680D01*
X13613445Y32114682D01*
X13613444Y32114687D01*
X13613442Y32114692D01*
X13553104Y32260363D01*
X13553097Y32260376D01*
X13465496Y32391479D01*
X13465493Y32391483D01*
X13353999Y32502977D01*
X13353995Y32502980D01*
X13222892Y32590581D01*
X13222879Y32590588D01*
X13077208Y32650926D01*
X13077196Y32650929D01*
X12922552Y32681690D01*
X12922549Y32681690D01*
X12764865Y32681690D01*
X12764862Y32681690D01*
X12610217Y32650929D01*
X12610205Y32650926D01*
X12464534Y32590588D01*
X12464521Y32590581D01*
X12333418Y32502980D01*
X12333414Y32502977D01*
X12221920Y32391483D01*
X12221917Y32391479D01*
X12134316Y32260376D01*
X12134309Y32260363D01*
X12073971Y32114692D01*
X12073968Y32114682D01*
X12051848Y32003476D01*
X12019463Y31941565D01*
X12017912Y31939987D01*
X11579944Y31502018D01*
X11251269Y31173343D01*
X11251267Y31173341D01*
X11207704Y31129779D01*
X11164142Y31086217D01*
X11140276Y31050498D01*
X11140275Y31050497D01*
X11095690Y30983774D01*
X11095687Y30983768D01*
X11070756Y30923581D01*
X11070757Y30923580D01*
X11050993Y30875863D01*
X11050990Y30875856D01*
X11048538Y30869938D01*
X11026729Y30760292D01*
X11024500Y30749088D01*
X11024500Y29528389D01*
X11048535Y29407556D01*
X11048540Y29407539D01*
X11095685Y29293720D01*
X11095690Y29293711D01*
X11109167Y29273541D01*
X11129915Y29242491D01*
X11164142Y29191267D01*
X11251267Y29104142D01*
X11251269Y29104141D01*
X11261232Y29094178D01*
X13581263Y26774145D01*
X13581267Y26774142D01*
X13683710Y26705691D01*
X13683711Y26705691D01*
X13683715Y26705688D01*
X13750397Y26678068D01*
X13797548Y26658537D01*
X13817597Y26654549D01*
X13882624Y26641615D01*
X13918392Y26634499D01*
X13918394Y26634499D01*
X14047721Y26634499D01*
X14047741Y26634500D01*
X15439268Y26634500D01*
X15506307Y26614815D01*
X15526949Y26598181D01*
X15843359Y26281771D01*
X15843362Y26281767D01*
X15930487Y26194642D01*
X15975598Y26164500D01*
X16032935Y26126188D01*
X16082466Y26105672D01*
X16146768Y26079037D01*
X16159508Y26076503D01*
X16267610Y26055001D01*
X16267612Y26055000D01*
X16267613Y26055000D01*
X16267614Y26055000D01*
X20927067Y26055000D01*
X20951258Y26052617D01*
X21067474Y26029501D01*
X21067478Y26029500D01*
X21067479Y26029500D01*
X21067480Y26029500D01*
X32470500Y26029500D01*
X32537539Y26009815D01*
X32583294Y25957011D01*
X32594500Y25905500D01*
X32594500Y23378389D01*
X32618535Y23257556D01*
X32618540Y23257539D01*
X32665685Y23143719D01*
X32665687Y23143716D01*
X32665688Y23143714D01*
X32695571Y23098993D01*
X32734142Y23041267D01*
X32807848Y22967561D01*
X32811175Y22963630D01*
X32823314Y22936209D01*
X32837690Y22909882D01*
X32838141Y22907714D01*
X32860261Y22796511D01*
X32860264Y22796499D01*
X32920602Y22650828D01*
X32920609Y22650815D01*
X33008210Y22519712D01*
X33008213Y22519708D01*
X33119707Y22408214D01*
X33119711Y22408211D01*
X33250814Y22320610D01*
X33250827Y22320603D01*
X33396498Y22260265D01*
X33396503Y22260263D01*
X33551153Y22229501D01*
X33551156Y22229500D01*
X33551158Y22229500D01*
X33708844Y22229500D01*
X33708845Y22229501D01*
X33863497Y22260263D01*
X34009179Y22320606D01*
X34140289Y22408211D01*
X34251789Y22519711D01*
X34339394Y22650821D01*
X34399737Y22796503D01*
X34430500Y22951158D01*
X34430500Y23108842D01*
X34430500Y23108845D01*
X34430499Y23108847D01*
X34400920Y23257549D01*
X34399737Y23263497D01*
X34352146Y23378393D01*
X34339397Y23409173D01*
X34339390Y23409186D01*
X34251789Y23540289D01*
X34251786Y23540293D01*
X34140292Y23651787D01*
X34140288Y23651790D01*
X34009185Y23739391D01*
X34009172Y23739398D01*
X33922048Y23775485D01*
X33867644Y23819326D01*
X33845579Y23885620D01*
X33845500Y23890046D01*
X33845500Y24979314D01*
X33865185Y25046353D01*
X33917989Y25092108D01*
X33987147Y25102052D01*
X33993677Y25100934D01*
X34032794Y25093153D01*
X34051157Y25089500D01*
X34051158Y25089500D01*
X34208844Y25089500D01*
X34208845Y25089501D01*
X34363497Y25120263D01*
X34509179Y25180606D01*
X34640289Y25268211D01*
X34751789Y25379711D01*
X34839394Y25510821D01*
X34899737Y25656503D01*
X34930500Y25811158D01*
X34930500Y25968842D01*
X34930500Y25968845D01*
X34930499Y25968847D01*
X34909447Y26074682D01*
X34899737Y26123497D01*
X34839394Y26269179D01*
X34776397Y26363461D01*
X34755520Y26430137D01*
X34755500Y26432350D01*
X34755500Y26805500D01*
X34775185Y26872539D01*
X34827989Y26918294D01*
X34879500Y26929500D01*
X37304548Y26929500D01*
X37371587Y26909815D01*
X37392229Y26893181D01*
X38371016Y25914394D01*
X38371045Y25914363D01*
X38461264Y25824144D01*
X38461267Y25824142D01*
X38497831Y25799711D01*
X38563715Y25755688D01*
X38630397Y25728068D01*
X38677548Y25708537D01*
X38737971Y25696519D01*
X38798393Y25684500D01*
X38798394Y25684500D01*
X39197650Y25684500D01*
X39264689Y25664815D01*
X39266541Y25663602D01*
X39360821Y25600606D01*
X39360823Y25600605D01*
X39360827Y25600603D01*
X39506498Y25540265D01*
X39506503Y25540263D01*
X39654482Y25510828D01*
X39661153Y25509501D01*
X39661156Y25509500D01*
X39824934Y25509500D01*
X39824934Y25506751D01*
X39881943Y25495965D01*
X39932675Y25447923D01*
X39949500Y25385556D01*
X39949500Y14341456D01*
X39987947Y14148167D01*
X39987949Y14148163D01*
X40010038Y14094836D01*
X40063366Y13966089D01*
X40063371Y13966080D01*
X40172859Y13802220D01*
X40172860Y13802219D01*
X40172861Y13802218D01*
X40312218Y13662861D01*
X40312219Y13662861D01*
X40319286Y13655794D01*
X40319285Y13655794D01*
X40319288Y13655792D01*
X43222860Y10752219D01*
X43222861Y10752218D01*
X43343465Y10631614D01*
X43362219Y10612860D01*
X43416205Y10576788D01*
X43526086Y10503368D01*
X43632745Y10459189D01*
X43708164Y10427949D01*
X43901454Y10389501D01*
X43901457Y10389500D01*
X43901459Y10389500D01*
X44098543Y10389500D01*
X44228582Y10415368D01*
X44291835Y10427949D01*
X44473914Y10503368D01*
X44637782Y10612861D01*
X44777139Y10752218D01*
X44886632Y10916086D01*
X44962051Y11098165D01*
X45000500Y11291459D01*
X45000500Y11528541D01*
X45000500Y11528544D01*
X44962052Y11721830D01*
X44962051Y11721831D01*
X44962051Y11721835D01*
X44962049Y11721840D01*
X44886635Y11903908D01*
X44886628Y11903921D01*
X44777139Y12067782D01*
X44777136Y12067786D01*
X44637785Y12207137D01*
X44637781Y12207140D01*
X44527387Y12280903D01*
X44508597Y12296324D01*
X43224831Y13580090D01*
X43191346Y13641413D01*
X43196330Y13711105D01*
X43238202Y13767038D01*
X43265057Y13782331D01*
X43309179Y13800606D01*
X43440289Y13888211D01*
X43551789Y13999711D01*
X43639394Y14130821D01*
X43699737Y14276503D01*
X43730500Y14431158D01*
X43730500Y14588842D01*
X43727883Y14601999D01*
X43725500Y14626190D01*
X43725500Y14655908D01*
X43745185Y14722947D01*
X43797989Y14768702D01*
X43867147Y14778646D01*
X43923812Y14755174D01*
X43957910Y14729648D01*
X43957913Y14729646D01*
X44092620Y14679404D01*
X44092627Y14679402D01*
X44152155Y14673001D01*
X44152172Y14673000D01*
X45500000Y14673000D01*
X45500000Y15252882D01*
X46000000Y15252882D01*
X46000000Y14673000D01*
X47347828Y14673000D01*
X47347844Y14673001D01*
X47407372Y14679402D01*
X47407378Y14679403D01*
X47431168Y14688277D01*
X47431168Y14688278D01*
X46666609Y15452837D01*
X46900000Y15452837D01*
X46900000Y15393163D01*
X46922836Y15338032D01*
X46965032Y15295836D01*
X47020163Y15273000D01*
X47079837Y15273000D01*
X47134968Y15295836D01*
X47177164Y15338032D01*
X47200000Y15393163D01*
X47200000Y15452837D01*
X47177164Y15507968D01*
X47134968Y15550164D01*
X47079837Y15573000D01*
X47020163Y15573000D01*
X46965032Y15550164D01*
X46922836Y15507968D01*
X46900000Y15452837D01*
X46666609Y15452837D01*
X46616665Y15502781D01*
X46604523Y15490636D01*
X46604520Y15490633D01*
X46447792Y15333904D01*
X46386468Y15300419D01*
X46316777Y15305403D01*
X46293090Y15320626D01*
X46310497Y15338032D01*
X46333333Y15393163D01*
X46333333Y15452837D01*
X46310497Y15507968D01*
X46268301Y15550164D01*
X46213170Y15573000D01*
X46153496Y15573000D01*
X46098365Y15550164D01*
X46056169Y15507968D01*
X46033333Y15452837D01*
X46033333Y15393163D01*
X46056169Y15338032D01*
X46077266Y15316935D01*
X46039824Y15279492D01*
X46000000Y15252882D01*
X45500000Y15252882D01*
X45460175Y15279492D01*
X45422733Y15316934D01*
X45443831Y15338032D01*
X45466667Y15393163D01*
X45466667Y15452837D01*
X45443831Y15507968D01*
X45401635Y15550164D01*
X45346504Y15573000D01*
X45286830Y15573000D01*
X45231699Y15550164D01*
X45189503Y15507968D01*
X45166667Y15452837D01*
X45166667Y15393163D01*
X45189503Y15338032D01*
X45205618Y15321917D01*
X45166248Y15300419D01*
X45096556Y15305403D01*
X45052209Y15333904D01*
X44883332Y15502781D01*
X44871190Y15490636D01*
X44871187Y15490633D01*
X44714459Y15333904D01*
X44653135Y15300419D01*
X44583444Y15305403D01*
X44559757Y15320626D01*
X44577164Y15338032D01*
X44600000Y15393163D01*
X44600000Y15452837D01*
X44577164Y15507968D01*
X44534968Y15550164D01*
X44479837Y15573000D01*
X44420163Y15573000D01*
X44365032Y15550164D01*
X44348916Y15534049D01*
X44327418Y15573420D01*
X44332402Y15643112D01*
X44360903Y15687459D01*
X44529778Y15856334D01*
X45236887Y15856334D01*
X45316667Y15776554D01*
X45384300Y15844189D01*
X45385099Y15844989D01*
X45382252Y15856337D01*
X46103553Y15856337D01*
X46103553Y15856334D01*
X46183333Y15776555D01*
X46263112Y15856335D01*
X46183334Y15936113D01*
X46127728Y15880508D01*
X46127725Y15880505D01*
X46115427Y15868208D01*
X46115424Y15868207D01*
X46103553Y15856337D01*
X45382252Y15856337D01*
X45377498Y15875282D01*
X45316667Y15936113D01*
X45236887Y15856334D01*
X44529778Y15856334D01*
X44529779Y15856335D01*
X44360904Y16025210D01*
X44327419Y16086533D01*
X44332403Y16156225D01*
X44347624Y16179911D01*
X44365032Y16162503D01*
X44420163Y16139667D01*
X44479837Y16139667D01*
X44534968Y16162503D01*
X44577164Y16204699D01*
X44600000Y16259830D01*
X44600000Y16289668D01*
X44803554Y16289668D01*
X44871190Y16222032D01*
X44871191Y16222030D01*
X44883332Y16209889D01*
X44895478Y16222033D01*
X44958960Y16285515D01*
X44917262Y16319504D01*
X45166667Y16319504D01*
X45166667Y16259830D01*
X45189503Y16204699D01*
X45231699Y16162503D01*
X45286830Y16139667D01*
X45346504Y16139667D01*
X45401635Y16162503D01*
X45443831Y16204699D01*
X45466667Y16259830D01*
X45466667Y16319504D01*
X46033333Y16319504D01*
X46033333Y16259830D01*
X46056169Y16204699D01*
X46098365Y16162503D01*
X46153496Y16139667D01*
X46213170Y16139667D01*
X46268301Y16162503D01*
X46310497Y16204699D01*
X46333333Y16259830D01*
X46333333Y16316705D01*
X46563923Y16316705D01*
X46617320Y16210544D01*
X46628811Y16222033D01*
X46696446Y16289667D01*
X46666609Y16319504D01*
X46900000Y16319504D01*
X46900000Y16259830D01*
X46922836Y16204699D01*
X46965032Y16162503D01*
X47020163Y16139667D01*
X47079837Y16139667D01*
X47134968Y16162503D01*
X47151082Y16178618D01*
X47172580Y16139249D01*
X47167596Y16069557D01*
X47139095Y16025210D01*
X46970220Y15856335D01*
X46970220Y15856334D01*
X47784722Y15041832D01*
X47784723Y15041832D01*
X47793597Y15065622D01*
X47793598Y15065628D01*
X47799999Y15125156D01*
X47800000Y15125173D01*
X47800000Y16473000D01*
X47220118Y16473000D01*
X47193508Y16433176D01*
X47156065Y16395734D01*
X47134968Y16416831D01*
X47079837Y16439667D01*
X47020163Y16439667D01*
X46965032Y16416831D01*
X46922836Y16374635D01*
X46900000Y16319504D01*
X46666609Y16319504D01*
X46628809Y16357304D01*
X46587346Y16340129D01*
X46563923Y16316705D01*
X46333333Y16316705D01*
X46333333Y16319504D01*
X46310497Y16374635D01*
X46268301Y16416831D01*
X46213170Y16439667D01*
X46153496Y16439667D01*
X46098365Y16416831D01*
X46056169Y16374635D01*
X46033333Y16319504D01*
X45466667Y16319504D01*
X45443831Y16374635D01*
X45401635Y16416831D01*
X45346504Y16439667D01*
X45286830Y16439667D01*
X45231699Y16416831D01*
X45189503Y16374635D01*
X45166667Y16319504D01*
X44917262Y16319504D01*
X44871054Y16357170D01*
X44859159Y16345274D01*
X44803554Y16289668D01*
X44600000Y16289668D01*
X44600000Y16319504D01*
X44577164Y16374635D01*
X44534968Y16416831D01*
X44479837Y16439667D01*
X44420163Y16439667D01*
X44365032Y16416831D01*
X44348916Y16400716D01*
X44327419Y16440086D01*
X44332403Y16509778D01*
X44360904Y16554125D01*
X44529779Y16723000D01*
X45236888Y16723000D01*
X45316667Y16643221D01*
X45396446Y16723000D01*
X45316667Y16802779D01*
X45236888Y16723000D01*
X44529779Y16723000D01*
X44360904Y16891875D01*
X44327419Y16953198D01*
X44332403Y17022890D01*
X44347625Y17046576D01*
X44365032Y17029169D01*
X44420163Y17006333D01*
X44479837Y17006333D01*
X44534968Y17029169D01*
X44577164Y17071365D01*
X44600000Y17126496D01*
X44600000Y17156333D01*
X44803554Y17156333D01*
X44883331Y17076556D01*
X44895478Y17088700D01*
X44963113Y17156333D01*
X44933276Y17186170D01*
X45166667Y17186170D01*
X45166667Y17126496D01*
X45189503Y17071365D01*
X45231699Y17029169D01*
X45286830Y17006333D01*
X45346504Y17006333D01*
X45401635Y17029169D01*
X45443831Y17071365D01*
X45466667Y17126496D01*
X45466667Y17186170D01*
X46033333Y17186170D01*
X46033333Y17126496D01*
X46056169Y17071365D01*
X46098365Y17029169D01*
X46153496Y17006333D01*
X46213170Y17006333D01*
X46268301Y17029169D01*
X46310497Y17071365D01*
X46333333Y17126496D01*
X46333333Y17156333D01*
X46536887Y17156333D01*
X46616664Y17076556D01*
X46628811Y17088700D01*
X46696446Y17156333D01*
X46666609Y17186170D01*
X46900000Y17186170D01*
X46900000Y17126496D01*
X46922836Y17071365D01*
X46965032Y17029169D01*
X47020163Y17006333D01*
X47079837Y17006333D01*
X47134968Y17029169D01*
X47156066Y17050267D01*
X47193508Y17012825D01*
X47220119Y16973000D01*
X47800000Y16973000D01*
X47800000Y18320828D01*
X47799999Y18320845D01*
X47793598Y18380376D01*
X47784723Y18404171D01*
X47226777Y17846223D01*
X47226777Y17846222D01*
X46970220Y17589667D01*
X47139096Y17420791D01*
X47172581Y17359468D01*
X47167597Y17289776D01*
X47152374Y17266091D01*
X47134968Y17283497D01*
X47079837Y17306333D01*
X47020163Y17306333D01*
X46965032Y17283497D01*
X46922836Y17241301D01*
X46900000Y17186170D01*
X46666609Y17186170D01*
X46616665Y17236114D01*
X46604523Y17223969D01*
X46536887Y17156333D01*
X46333333Y17156333D01*
X46333333Y17186170D01*
X46310497Y17241301D01*
X46268301Y17283497D01*
X46213170Y17306333D01*
X46153496Y17306333D01*
X46098365Y17283497D01*
X46056169Y17241301D01*
X46033333Y17186170D01*
X45466667Y17186170D01*
X45443831Y17241301D01*
X45401635Y17283497D01*
X45346504Y17306333D01*
X45286830Y17306333D01*
X45231699Y17283497D01*
X45189503Y17241301D01*
X45166667Y17186170D01*
X44933276Y17186170D01*
X44883332Y17236114D01*
X44871190Y17223969D01*
X44803554Y17156333D01*
X44600000Y17156333D01*
X44600000Y17186170D01*
X44577164Y17241301D01*
X44534968Y17283497D01*
X44479837Y17306333D01*
X44420163Y17306333D01*
X44365032Y17283497D01*
X44348916Y17267382D01*
X44327418Y17306753D01*
X44332402Y17376445D01*
X44360903Y17420792D01*
X44529778Y17589667D01*
X45236887Y17589667D01*
X45316667Y17509887D01*
X45384300Y17577522D01*
X45385099Y17578322D01*
X45382252Y17589670D01*
X46103553Y17589670D01*
X46103553Y17589667D01*
X46183333Y17509888D01*
X46263112Y17589668D01*
X46183334Y17669446D01*
X46127728Y17613841D01*
X46127725Y17613838D01*
X46115427Y17601541D01*
X46115424Y17601540D01*
X46103553Y17589670D01*
X45382252Y17589670D01*
X45377498Y17608615D01*
X45316667Y17669446D01*
X45236887Y17589667D01*
X44529778Y17589667D01*
X44529779Y17589668D01*
X44360904Y17758543D01*
X44327419Y17819866D01*
X44332403Y17889558D01*
X44347624Y17913244D01*
X44365032Y17895836D01*
X44420163Y17873000D01*
X44479837Y17873000D01*
X44534968Y17895836D01*
X44577164Y17938032D01*
X44600000Y17993163D01*
X44600000Y18052837D01*
X44577164Y18107968D01*
X44559009Y18126123D01*
X44577226Y18132917D01*
X44600419Y18145581D01*
X44609448Y18144936D01*
X44617931Y18148099D01*
X44643751Y18142483D01*
X44670111Y18140597D01*
X44679164Y18134779D01*
X44686204Y18133247D01*
X44714458Y18112096D01*
X44883332Y17943222D01*
X44895478Y17955366D01*
X45052209Y18112096D01*
X45113532Y18145581D01*
X45183224Y18140597D01*
X45206909Y18125375D01*
X45189503Y18107968D01*
X45166667Y18052837D01*
X45166667Y17993163D01*
X45189503Y17938032D01*
X45231699Y17895836D01*
X45286830Y17873000D01*
X45346504Y17873000D01*
X45401635Y17895836D01*
X45443831Y17938032D01*
X45466667Y17993163D01*
X45466667Y18052837D01*
X45443831Y18107968D01*
X45422732Y18129067D01*
X45460175Y18166509D01*
X45499997Y18193119D01*
X46000000Y18193119D01*
X46039824Y18166509D01*
X46077267Y18129066D01*
X46056169Y18107968D01*
X46033333Y18052837D01*
X46033333Y17993163D01*
X46056169Y17938032D01*
X46098365Y17895836D01*
X46153496Y17873000D01*
X46213170Y17873000D01*
X46268301Y17895836D01*
X46310497Y17938032D01*
X46333333Y17993163D01*
X46333333Y18052837D01*
X46310497Y18107968D01*
X46292342Y18126123D01*
X46310559Y18132917D01*
X46333752Y18145581D01*
X46342781Y18144936D01*
X46351264Y18148099D01*
X46377084Y18142483D01*
X46403444Y18140597D01*
X46412497Y18134779D01*
X46419537Y18133247D01*
X46447791Y18112096D01*
X46616665Y17943222D01*
X46628811Y17955366D01*
X46726282Y18052837D01*
X46900000Y18052837D01*
X46900000Y17993163D01*
X46922836Y17938032D01*
X46965032Y17895836D01*
X47020163Y17873000D01*
X47079837Y17873000D01*
X47134968Y17895836D01*
X47177164Y17938032D01*
X47200000Y17993163D01*
X47200000Y18052837D01*
X47177164Y18107968D01*
X47134968Y18150164D01*
X47079837Y18173000D01*
X47020163Y18173000D01*
X46965032Y18150164D01*
X46922836Y18107968D01*
X46900000Y18052837D01*
X46726282Y18052837D01*
X46873223Y18199777D01*
X47431169Y18757724D01*
X47431168Y18757725D01*
X47407382Y18766597D01*
X47407372Y18766599D01*
X47347844Y18773000D01*
X46000000Y18773000D01*
X46000000Y18193119D01*
X45499997Y18193119D01*
X45500000Y18193121D01*
X45500000Y18773000D01*
X44152155Y18773000D01*
X44092627Y18766599D01*
X44092620Y18766597D01*
X43957913Y18716355D01*
X43957910Y18716353D01*
X43923811Y18690826D01*
X43911188Y18686119D01*
X43901011Y18677299D01*
X43879094Y18674148D01*
X43858346Y18666409D01*
X43845185Y18669272D01*
X43831853Y18667355D01*
X43811709Y18676555D01*
X43790073Y18681261D01*
X43780549Y18690785D01*
X43768297Y18696380D01*
X43756324Y18715010D01*
X43740668Y18730666D01*
X43736981Y18745108D01*
X43730523Y18755158D01*
X43725500Y18790093D01*
X43725500Y18998919D01*
X43745185Y19065958D01*
X43780606Y19102019D01*
X43911671Y19189593D01*
X44023171Y19301093D01*
X44110776Y19432203D01*
X44112358Y19436021D01*
X44157202Y19544287D01*
X44171119Y19577885D01*
X44201882Y19732540D01*
X44201882Y19890224D01*
X44201882Y19890227D01*
X44184621Y19977002D01*
X44184621Y19977003D01*
X44180471Y19997865D01*
X57799500Y19997865D01*
X57799500Y18202130D01*
X57799501Y18202124D01*
X57805908Y18142517D01*
X57856202Y18007672D01*
X57856206Y18007665D01*
X57942452Y17892456D01*
X57942455Y17892453D01*
X58057664Y17806207D01*
X58057671Y17806203D01*
X58057674Y17806202D01*
X58189598Y17756998D01*
X58245531Y17715127D01*
X58269949Y17649663D01*
X58255098Y17581390D01*
X58233947Y17553135D01*
X58120271Y17439459D01*
X57995379Y17267558D01*
X57898904Y17078218D01*
X57833242Y16876130D01*
X57833242Y16876127D01*
X57822769Y16810000D01*
X58716988Y16810000D01*
X58684075Y16752993D01*
X58650000Y16625826D01*
X58650000Y16494174D01*
X58684075Y16367007D01*
X58716988Y16310000D01*
X57822769Y16310000D01*
X57833242Y16243874D01*
X57833242Y16243871D01*
X57898904Y16041783D01*
X57995379Y15852443D01*
X58120272Y15680541D01*
X58120276Y15680536D01*
X58270535Y15530277D01*
X58270540Y15530273D01*
X58442444Y15405378D01*
X58451495Y15400766D01*
X58502292Y15352792D01*
X58519087Y15284971D01*
X58496550Y15218836D01*
X58451499Y15179798D01*
X58442182Y15175051D01*
X58270213Y15050110D01*
X58119890Y14899787D01*
X57994951Y14727821D01*
X57898444Y14538415D01*
X57832753Y14336240D01*
X57799500Y14126287D01*
X57799500Y13913714D01*
X57831376Y13712453D01*
X57832754Y13703757D01*
X57876376Y13569502D01*
X57898444Y13501586D01*
X57994951Y13312180D01*
X58119890Y13140214D01*
X58270213Y12989891D01*
X58442179Y12864952D01*
X58442181Y12864951D01*
X58442184Y12864949D01*
X58631588Y12768443D01*
X58833757Y12702754D01*
X59043713Y12669500D01*
X59043714Y12669500D01*
X59256286Y12669500D01*
X59256287Y12669500D01*
X59466243Y12702754D01*
X59668412Y12768443D01*
X59857816Y12864949D01*
X59879789Y12880914D01*
X60029786Y12989891D01*
X60029788Y12989894D01*
X60029792Y12989896D01*
X60180104Y13140208D01*
X60180106Y13140212D01*
X60180109Y13140214D01*
X60305048Y13312180D01*
X60305047Y13312180D01*
X60305051Y13312184D01*
X60309514Y13320946D01*
X60357488Y13371741D01*
X60425308Y13388537D01*
X60491444Y13366001D01*
X60530486Y13320944D01*
X60534951Y13312180D01*
X60659890Y13140214D01*
X60810213Y12989891D01*
X60982179Y12864952D01*
X60982181Y12864951D01*
X60982184Y12864949D01*
X61171588Y12768443D01*
X61373757Y12702754D01*
X61583713Y12669500D01*
X61583714Y12669500D01*
X61796286Y12669500D01*
X61796287Y12669500D01*
X62006243Y12702754D01*
X62208412Y12768443D01*
X62397816Y12864949D01*
X62419789Y12880914D01*
X62569786Y12989891D01*
X62569788Y12989894D01*
X62569792Y12989896D01*
X62720104Y13140208D01*
X62720106Y13140212D01*
X62720109Y13140214D01*
X62845048Y13312180D01*
X62845047Y13312180D01*
X62845051Y13312184D01*
X62941557Y13501588D01*
X63007246Y13703757D01*
X63040500Y13913713D01*
X63040500Y14126287D01*
X63007246Y14336243D01*
X62941557Y14538412D01*
X62845051Y14727816D01*
X62845049Y14727819D01*
X62845048Y14727821D01*
X62720109Y14899787D01*
X62569786Y15050110D01*
X62397817Y15175051D01*
X62388504Y15179796D01*
X62337707Y15227770D01*
X62320912Y15295591D01*
X62343449Y15361726D01*
X62388507Y15400768D01*
X62397558Y15405380D01*
X62569459Y15530273D01*
X62569464Y15530277D01*
X62719723Y15680536D01*
X62719727Y15680541D01*
X62844620Y15852443D01*
X62941095Y16041783D01*
X63006757Y16243871D01*
X63006757Y16243874D01*
X63017231Y16310000D01*
X62123012Y16310000D01*
X62155925Y16367007D01*
X62190000Y16494174D01*
X62190000Y16625826D01*
X62155925Y16752993D01*
X62123012Y16810000D01*
X63017231Y16810000D01*
X63006757Y16876127D01*
X63006757Y16876130D01*
X62941095Y17078218D01*
X62844620Y17267558D01*
X62719727Y17439460D01*
X62719723Y17439465D01*
X62569464Y17589724D01*
X62569459Y17589728D01*
X62397555Y17714623D01*
X62388500Y17719237D01*
X62337706Y17767212D01*
X62320912Y17835034D01*
X62343451Y17901168D01*
X62388508Y17940207D01*
X62397816Y17944949D01*
X62505246Y18023001D01*
X62569786Y18069891D01*
X62569788Y18069894D01*
X62569792Y18069896D01*
X62720104Y18220208D01*
X62720106Y18220212D01*
X62720109Y18220214D01*
X62845048Y18392180D01*
X62845047Y18392180D01*
X62845051Y18392184D01*
X62941557Y18581588D01*
X63007246Y18783757D01*
X63040500Y18993713D01*
X63040500Y19206287D01*
X63007246Y19416243D01*
X62941557Y19618412D01*
X62845051Y19807816D01*
X62845049Y19807819D01*
X62845048Y19807821D01*
X62720109Y19979787D01*
X62569786Y20130110D01*
X62397820Y20255049D01*
X62208414Y20351556D01*
X62208413Y20351557D01*
X62208412Y20351557D01*
X62006243Y20417246D01*
X62006241Y20417247D01*
X62006240Y20417247D01*
X61844957Y20442792D01*
X61796287Y20450500D01*
X61583713Y20450500D01*
X61535042Y20442792D01*
X61373760Y20417247D01*
X61171585Y20351556D01*
X60982179Y20255049D01*
X60810215Y20130111D01*
X60696673Y20016569D01*
X60635350Y19983085D01*
X60565658Y19988069D01*
X60509725Y20029941D01*
X60492810Y20060918D01*
X60443797Y20192329D01*
X60443793Y20192336D01*
X60357547Y20307545D01*
X60357544Y20307548D01*
X60242335Y20393794D01*
X60242328Y20393798D01*
X60107482Y20444092D01*
X60107483Y20444092D01*
X60047883Y20450499D01*
X60047881Y20450500D01*
X60047873Y20450500D01*
X60047864Y20450500D01*
X58252129Y20450500D01*
X58252123Y20450499D01*
X58192516Y20444092D01*
X58057671Y20393798D01*
X58057664Y20393794D01*
X57942455Y20307548D01*
X57942452Y20307545D01*
X57856206Y20192336D01*
X57856202Y20192329D01*
X57805908Y20057483D01*
X57799501Y19997884D01*
X57799500Y19997865D01*
X44180471Y19997865D01*
X44171120Y20044872D01*
X44171119Y20044879D01*
X44167200Y20054340D01*
X44110779Y20190555D01*
X44110772Y20190568D01*
X44023171Y20321671D01*
X44023168Y20321675D01*
X43911674Y20433169D01*
X43911670Y20433172D01*
X43780567Y20520773D01*
X43780554Y20520780D01*
X43634883Y20581118D01*
X43634871Y20581121D01*
X43480227Y20611882D01*
X43480224Y20611882D01*
X43322540Y20611882D01*
X43322537Y20611882D01*
X43167892Y20581121D01*
X43167880Y20581118D01*
X43022209Y20520780D01*
X43022196Y20520773D01*
X42891093Y20433172D01*
X42891089Y20433169D01*
X42779595Y20321675D01*
X42779592Y20321671D01*
X42691991Y20190568D01*
X42691984Y20190555D01*
X42639061Y20062784D01*
X42595220Y20008380D01*
X42528926Y19986315D01*
X42461227Y20003594D01*
X42413616Y20054731D01*
X42400500Y20110236D01*
X42400500Y28343333D01*
X42397882Y28356495D01*
X42395500Y28380684D01*
X42395500Y30053094D01*
X42415185Y30120133D01*
X42467989Y30165888D01*
X42495302Y30174710D01*
X42573497Y30190263D01*
X42719179Y30250606D01*
X42850289Y30338211D01*
X42961789Y30449711D01*
X43049394Y30580821D01*
X43109737Y30726503D01*
X43140500Y30881158D01*
X43140500Y31038842D01*
X43140500Y31038845D01*
X43140499Y31038847D01*
X43130456Y31089334D01*
X43109737Y31193497D01*
X43082438Y31259404D01*
X43049397Y31339173D01*
X43049390Y31339186D01*
X42961789Y31470289D01*
X42961786Y31470293D01*
X42874260Y31557819D01*
X42840775Y31619142D01*
X42845759Y31688834D01*
X42887631Y31744767D01*
X42953095Y31769184D01*
X42961941Y31769500D01*
X45174218Y31769500D01*
X45241257Y31749815D01*
X45261898Y31733182D01*
X48457860Y28537219D01*
X48457861Y28537218D01*
X48583032Y28412047D01*
X48597219Y28397860D01*
X48761079Y28288372D01*
X48761092Y28288365D01*
X48889833Y28235039D01*
X48943159Y28212951D01*
X48943164Y28212949D01*
X49029086Y28195858D01*
X49055929Y28190519D01*
X49136456Y28174500D01*
X49136459Y28174500D01*
X49333543Y28174500D01*
X49381758Y28184092D01*
X49440914Y28195858D01*
X49526836Y28212949D01*
X49580165Y28235039D01*
X49708914Y28288368D01*
X49872782Y28397861D01*
X50012139Y28537218D01*
X50121632Y28701086D01*
X50190089Y28866357D01*
X50197051Y28883164D01*
X50229657Y29047085D01*
X50235500Y29076459D01*
X50235500Y29273541D01*
X50235500Y29273544D01*
X50211789Y29392743D01*
X50206577Y29418945D01*
X50197051Y29466836D01*
X50166495Y29540605D01*
X50121632Y29648914D01*
X50121631Y29648915D01*
X50121628Y29648921D01*
X50012139Y29812782D01*
X49944184Y29880737D01*
X49872782Y29952139D01*
X49872781Y29952140D01*
X46424208Y33400712D01*
X46424206Y33400715D01*
X46424206Y33400714D01*
X46417139Y33407781D01*
X46417139Y33407782D01*
X46277782Y33547139D01*
X46277781Y33547140D01*
X46277780Y33547141D01*
X46113920Y33656629D01*
X46113911Y33656634D01*
X46041315Y33686704D01*
X45985165Y33709962D01*
X45931836Y33732051D01*
X45931832Y33732052D01*
X45931828Y33732054D01*
X45835188Y33751276D01*
X45738544Y33770500D01*
X45738541Y33770500D01*
X28795783Y33770500D01*
X28728744Y33790185D01*
X28708102Y33806819D01*
X27396819Y35118102D01*
X27363334Y35179425D01*
X27360500Y35205783D01*
X27360500Y37418542D01*
X27360499Y37418543D01*
X27335752Y37542958D01*
X27322051Y37611836D01*
X27290593Y37687782D01*
X27249439Y37787138D01*
X27246635Y37793908D01*
X27246628Y37793921D01*
X27137139Y37957782D01*
X27137136Y37957786D01*
X26994686Y38100236D01*
X26994655Y38100265D01*
X22086319Y43008601D01*
X22052834Y43069924D01*
X22050000Y43096282D01*
X22050000Y43148544D01*
X22011552Y43341830D01*
X22011551Y43341831D01*
X22011551Y43341835D01*
X22011549Y43341840D01*
X21936135Y43523908D01*
X21936128Y43523921D01*
X21826639Y43687782D01*
X21826636Y43687786D01*
X21687285Y43827137D01*
X21687281Y43827140D01*
X21523420Y43936629D01*
X21523407Y43936636D01*
X21341339Y44012050D01*
X21341329Y44012053D01*
X21148043Y44050500D01*
X21148041Y44050500D01*
X21095782Y44050500D01*
X21028743Y44070185D01*
X21008101Y44086819D01*
X20212101Y44882819D01*
X20178616Y44944142D01*
X20183600Y45013834D01*
X20225472Y45069767D01*
X20290936Y45094184D01*
X20299782Y45094500D01*
X50897650Y45094500D01*
X50964689Y45074815D01*
X50966541Y45073602D01*
X51060821Y45010606D01*
X51060823Y45010605D01*
X51060827Y45010603D01*
X51206498Y44950265D01*
X51206503Y44950263D01*
X51361153Y44919501D01*
X51361156Y44919500D01*
X51361158Y44919500D01*
X51518844Y44919500D01*
X51518845Y44919501D01*
X51673497Y44950263D01*
X51819179Y45010606D01*
X51950289Y45098211D01*
X52061789Y45209711D01*
X52149394Y45340821D01*
X52209737Y45486503D01*
X52240500Y45641158D01*
X52240500Y45798842D01*
X52240500Y45798845D01*
X52240499Y45798847D01*
X52209738Y45953490D01*
X52209737Y45953497D01*
X52209735Y45953502D01*
X52149397Y46099173D01*
X52149390Y46099186D01*
X52061789Y46230289D01*
X52061786Y46230293D01*
X51950292Y46341787D01*
X51950288Y46341790D01*
X51819185Y46429391D01*
X51819172Y46429398D01*
X51673501Y46489736D01*
X51673489Y46489739D01*
X51518845Y46520500D01*
X51518842Y46520500D01*
X51361158Y46520500D01*
X51361155Y46520500D01*
X51206510Y46489739D01*
X51206498Y46489736D01*
X51060827Y46429398D01*
X51060815Y46429391D01*
X50966541Y46366398D01*
X50899864Y46345520D01*
X50897650Y46345500D01*
X19437179Y46345500D01*
X19370140Y46365185D01*
X19349498Y46381819D01*
X17304851Y48426465D01*
X17297585Y48433731D01*
X17297584Y48433733D01*
X17210459Y48520858D01*
X17209160Y48521726D01*
X17209159Y48521727D01*
X17159235Y48555085D01*
X17108959Y48588679D01*
X17108012Y48589312D01*
X17108009Y48589314D01*
X17108006Y48589315D01*
X17060850Y48608847D01*
X36079500Y48608847D01*
X36079500Y48451154D01*
X36110261Y48296511D01*
X36110264Y48296499D01*
X36170602Y48150828D01*
X36170609Y48150815D01*
X36258210Y48019712D01*
X36258213Y48019708D01*
X36369707Y47908214D01*
X36369711Y47908211D01*
X36500814Y47820610D01*
X36500827Y47820603D01*
X36646498Y47760265D01*
X36646503Y47760263D01*
X36801153Y47729501D01*
X36801156Y47729500D01*
X36801158Y47729500D01*
X36958844Y47729500D01*
X36958845Y47729501D01*
X37113497Y47760263D01*
X37259179Y47820606D01*
X37353459Y47883602D01*
X37420136Y47904480D01*
X37422350Y47904500D01*
X41709548Y47904500D01*
X41738988Y47895856D01*
X41768975Y47889332D01*
X41773990Y47885578D01*
X41776587Y47884815D01*
X41797229Y47868181D01*
X41824205Y47841205D01*
X41857690Y47779882D01*
X41858141Y47777715D01*
X41880261Y47666511D01*
X41880264Y47666499D01*
X41940602Y47520828D01*
X41940609Y47520815D01*
X42028210Y47389712D01*
X42028213Y47389708D01*
X42139707Y47278214D01*
X42139711Y47278211D01*
X42270814Y47190610D01*
X42270827Y47190603D01*
X42416498Y47130265D01*
X42416503Y47130263D01*
X42571153Y47099501D01*
X42571156Y47099500D01*
X42571158Y47099500D01*
X42728844Y47099500D01*
X42728845Y47099501D01*
X42883497Y47130263D01*
X43029179Y47190606D01*
X43160289Y47278211D01*
X43271789Y47389711D01*
X43359394Y47520821D01*
X43419737Y47666503D01*
X43450500Y47821158D01*
X43450500Y47978842D01*
X43450500Y47978845D01*
X43450499Y47978847D01*
X43442371Y48019708D01*
X43419737Y48133497D01*
X43372144Y48248398D01*
X43359397Y48279173D01*
X43359390Y48279186D01*
X43271789Y48410289D01*
X43271786Y48410293D01*
X43160292Y48521787D01*
X43160288Y48521790D01*
X43029185Y48609391D01*
X43029172Y48609398D01*
X42883501Y48669736D01*
X42883489Y48669739D01*
X42772285Y48691859D01*
X42710374Y48724244D01*
X42708795Y48725795D01*
X42515822Y48918768D01*
X42505859Y48928731D01*
X42505858Y48928733D01*
X42418733Y49015858D01*
X42367509Y49050085D01*
X42316286Y49084312D01*
X42316283Y49084314D01*
X42316280Y49084315D01*
X42242603Y49114832D01*
X42242601Y49114833D01*
X42235792Y49117653D01*
X42202452Y49131463D01*
X42142029Y49143482D01*
X42137306Y49144422D01*
X42137304Y49144422D01*
X42081610Y49155500D01*
X42081607Y49155500D01*
X42081606Y49155500D01*
X37422350Y49155500D01*
X37355311Y49175185D01*
X37353459Y49176398D01*
X37259184Y49239391D01*
X37259172Y49239398D01*
X37113501Y49299736D01*
X37113489Y49299739D01*
X36958845Y49330500D01*
X36958842Y49330500D01*
X36801158Y49330500D01*
X36801155Y49330500D01*
X36646510Y49299739D01*
X36646498Y49299736D01*
X36500827Y49239398D01*
X36500814Y49239391D01*
X36369711Y49151790D01*
X36369707Y49151787D01*
X36258213Y49040293D01*
X36258210Y49040289D01*
X36170609Y48909186D01*
X36170602Y48909173D01*
X36110264Y48763502D01*
X36110261Y48763490D01*
X36079500Y48608847D01*
X17060850Y48608847D01*
X17035408Y48619385D01*
X17035407Y48619386D01*
X17027518Y48622653D01*
X16994178Y48636463D01*
X16895745Y48656042D01*
X16892180Y48656751D01*
X16892173Y48656753D01*
X16878781Y48659417D01*
X16873333Y48660500D01*
X16873332Y48660500D01*
X13147684Y48660500D01*
X13080645Y48680185D01*
X13044580Y48715612D01*
X13041788Y48719791D01*
X12930292Y48831287D01*
X12930288Y48831290D01*
X12799185Y48918891D01*
X12799172Y48918898D01*
X12653501Y48979236D01*
X12653489Y48979239D01*
X12498845Y49010000D01*
X12498842Y49010000D01*
X12341158Y49010000D01*
X12341155Y49010000D01*
X12186510Y48979239D01*
X12186498Y48979236D01*
X12040827Y48918898D01*
X12040814Y48918891D01*
X11909711Y48831290D01*
X11909707Y48831287D01*
X11798213Y48719793D01*
X11798210Y48719789D01*
X11710609Y48588686D01*
X11710602Y48588673D01*
X11650264Y48443002D01*
X11650261Y48442990D01*
X11623869Y48310309D01*
X11591484Y48248398D01*
X11530768Y48213824D01*
X11502252Y48210500D01*
X9815782Y48210500D01*
X9748743Y48230185D01*
X9728101Y48246819D01*
X8376479Y49598441D01*
X8372141Y49602779D01*
X8372139Y49602782D01*
X8320700Y49654221D01*
X8287729Y49714605D01*
X8287217Y49715543D01*
X8287217Y49715544D01*
X8287216Y49715545D01*
X8290224Y49757584D01*
X8292201Y49785235D01*
X8334073Y49841168D01*
X8334073Y49841169D01*
X8334074Y49841169D01*
X8367418Y49853605D01*
X8399537Y49865585D01*
X8408383Y49865901D01*
X9281471Y49865901D01*
X9281472Y49865901D01*
X9341083Y49872309D01*
X9475931Y49922604D01*
X9591146Y50008854D01*
X9677396Y50124069D01*
X9721186Y50241477D01*
X9763055Y50297409D01*
X9828519Y50321827D01*
X9896792Y50306976D01*
X9925048Y50285824D01*
X10021349Y50189523D01*
X10195056Y50063317D01*
X10288888Y50015508D01*
X10386366Y49965839D01*
X10386369Y49965838D01*
X10488470Y49932664D01*
X10590573Y49899489D01*
X10802643Y49865900D01*
X10802644Y49865900D01*
X11017356Y49865900D01*
X11017357Y49865900D01*
X11229427Y49899489D01*
X11433633Y49965839D01*
X11624944Y50063317D01*
X11798651Y50189523D01*
X11950477Y50341349D01*
X12076683Y50515056D01*
X12076683Y50515057D01*
X12079547Y50518998D01*
X12081478Y50517595D01*
X12125927Y50557922D01*
X12194840Y50569442D01*
X12259042Y50541875D01*
X12279478Y50518291D01*
X12280453Y50518998D01*
X12283316Y50515057D01*
X12283317Y50515056D01*
X12409523Y50341349D01*
X12561349Y50189523D01*
X12735056Y50063317D01*
X12828888Y50015508D01*
X12926366Y49965839D01*
X12926369Y49965838D01*
X13028470Y49932664D01*
X13130573Y49899489D01*
X13342643Y49865900D01*
X13342644Y49865900D01*
X13557356Y49865900D01*
X13557357Y49865900D01*
X13769427Y49899489D01*
X13973633Y49965839D01*
X14164944Y50063317D01*
X14338651Y50189523D01*
X14490477Y50341349D01*
X14616683Y50515056D01*
X14616683Y50515057D01*
X14619547Y50518998D01*
X14621478Y50517595D01*
X14665927Y50557922D01*
X14734840Y50569442D01*
X14799042Y50541875D01*
X14819478Y50518291D01*
X14820453Y50518998D01*
X14823316Y50515057D01*
X14823317Y50515056D01*
X14949523Y50341349D01*
X15101349Y50189523D01*
X15275056Y50063317D01*
X15368888Y50015508D01*
X15466366Y49965839D01*
X15466369Y49965838D01*
X15568470Y49932664D01*
X15670573Y49899489D01*
X15882643Y49865900D01*
X15882644Y49865900D01*
X16097356Y49865900D01*
X16097357Y49865900D01*
X16309427Y49899489D01*
X16513633Y49965839D01*
X16704944Y50063317D01*
X16878651Y50189523D01*
X17030477Y50341349D01*
X17156683Y50515056D01*
X17156683Y50515057D01*
X17159547Y50518998D01*
X17161339Y50517696D01*
X17206266Y50558423D01*
X17275184Y50569915D01*
X17339375Y50542322D01*
X17359971Y50518600D01*
X17360880Y50519260D01*
X17489906Y50341673D01*
X17489906Y50341672D01*
X17641671Y50189907D01*
X17815317Y50063745D01*
X18006554Y49966304D01*
X18210683Y49899978D01*
X18280000Y49889000D01*
X18280000Y50787749D01*
X18333919Y50756619D01*
X18463120Y50722000D01*
X18596880Y50722000D01*
X18726081Y50756619D01*
X18780000Y50787749D01*
X18780000Y49889001D01*
X18849316Y49899978D01*
X19053445Y49966304D01*
X19244682Y50063745D01*
X19418327Y50189907D01*
X19418328Y50189907D01*
X19570093Y50341672D01*
X19570093Y50341673D01*
X19699120Y50519260D01*
X19700977Y50517911D01*
X19745715Y50558441D01*
X19814637Y50569910D01*
X19878818Y50542296D01*
X19899574Y50518360D01*
X19900453Y50518998D01*
X19903316Y50515057D01*
X19903317Y50515056D01*
X20029523Y50341349D01*
X20181349Y50189523D01*
X20355056Y50063317D01*
X20448888Y50015508D01*
X20546366Y49965839D01*
X20546369Y49965838D01*
X20648470Y49932664D01*
X20750573Y49899489D01*
X20962643Y49865900D01*
X20962644Y49865900D01*
X21177356Y49865900D01*
X21177357Y49865900D01*
X21389427Y49899489D01*
X21593633Y49965839D01*
X21784944Y50063317D01*
X21958651Y50189523D01*
X22110477Y50341349D01*
X22236683Y50515056D01*
X22236683Y50515057D01*
X22239547Y50518998D01*
X22241478Y50517595D01*
X22285927Y50557922D01*
X22354840Y50569442D01*
X22419042Y50541875D01*
X22439478Y50518291D01*
X22440453Y50518998D01*
X22443316Y50515057D01*
X22443317Y50515056D01*
X22569523Y50341349D01*
X22721349Y50189523D01*
X22895056Y50063317D01*
X22988888Y50015508D01*
X23086366Y49965839D01*
X23086369Y49965838D01*
X23188470Y49932664D01*
X23290573Y49899489D01*
X23502643Y49865900D01*
X23502644Y49865900D01*
X23717356Y49865900D01*
X23717357Y49865900D01*
X23929427Y49899489D01*
X24133633Y49965839D01*
X24324944Y50063317D01*
X24498651Y50189523D01*
X24650477Y50341349D01*
X24776683Y50515056D01*
X24776683Y50515057D01*
X24779547Y50518998D01*
X24781478Y50517595D01*
X24825927Y50557922D01*
X24894840Y50569442D01*
X24959042Y50541875D01*
X24979478Y50518291D01*
X24980453Y50518998D01*
X24983316Y50515057D01*
X24983317Y50515056D01*
X25109523Y50341349D01*
X25261349Y50189523D01*
X25435056Y50063317D01*
X25528888Y50015508D01*
X25626366Y49965839D01*
X25626369Y49965838D01*
X25728470Y49932664D01*
X25830573Y49899489D01*
X26042643Y49865900D01*
X26042644Y49865900D01*
X26257356Y49865900D01*
X26257357Y49865900D01*
X26469427Y49899489D01*
X26673633Y49965839D01*
X26864944Y50063317D01*
X27038651Y50189523D01*
X27190477Y50341349D01*
X27316683Y50515056D01*
X27316683Y50515057D01*
X27319547Y50518998D01*
X27321478Y50517595D01*
X27365927Y50557922D01*
X27434840Y50569442D01*
X27499042Y50541875D01*
X27519478Y50518291D01*
X27520453Y50518998D01*
X27523316Y50515057D01*
X27523317Y50515056D01*
X27649523Y50341349D01*
X27801349Y50189523D01*
X27975056Y50063317D01*
X28068888Y50015508D01*
X28166366Y49965839D01*
X28166369Y49965838D01*
X28268470Y49932664D01*
X28370573Y49899489D01*
X28582643Y49865900D01*
X28582644Y49865900D01*
X28797356Y49865900D01*
X28797357Y49865900D01*
X29009427Y49899489D01*
X29213633Y49965839D01*
X29404944Y50063317D01*
X29578651Y50189523D01*
X29730477Y50341349D01*
X29856683Y50515056D01*
X29856683Y50515057D01*
X29859547Y50518998D01*
X29861478Y50517595D01*
X29905927Y50557922D01*
X29974840Y50569442D01*
X30039042Y50541875D01*
X30059478Y50518291D01*
X30060453Y50518998D01*
X30063316Y50515057D01*
X30063317Y50515056D01*
X30189523Y50341349D01*
X30341349Y50189523D01*
X30515056Y50063317D01*
X30608888Y50015508D01*
X30706366Y49965839D01*
X30706369Y49965838D01*
X30808470Y49932664D01*
X30910573Y49899489D01*
X31122643Y49865900D01*
X31122644Y49865900D01*
X31337356Y49865900D01*
X31337357Y49865900D01*
X31549427Y49899489D01*
X31753633Y49965839D01*
X31944944Y50063317D01*
X32118651Y50189523D01*
X32270477Y50341349D01*
X32396683Y50515056D01*
X32396683Y50515057D01*
X32399547Y50518998D01*
X32401478Y50517595D01*
X32445927Y50557922D01*
X32514840Y50569442D01*
X32579042Y50541875D01*
X32599478Y50518291D01*
X32600453Y50518998D01*
X32603316Y50515057D01*
X32603317Y50515056D01*
X32729523Y50341349D01*
X32881349Y50189523D01*
X33055056Y50063317D01*
X33148888Y50015508D01*
X33246366Y49965839D01*
X33246369Y49965838D01*
X33348470Y49932664D01*
X33450573Y49899489D01*
X33662643Y49865900D01*
X33662644Y49865900D01*
X33877356Y49865900D01*
X33877357Y49865900D01*
X34089427Y49899489D01*
X34293633Y49965839D01*
X34484944Y50063317D01*
X34658651Y50189523D01*
X34810477Y50341349D01*
X34936683Y50515056D01*
X34936683Y50515057D01*
X34939547Y50518998D01*
X34941478Y50517595D01*
X34985927Y50557922D01*
X35054840Y50569442D01*
X35119042Y50541875D01*
X35139478Y50518291D01*
X35140453Y50518998D01*
X35143316Y50515057D01*
X35143317Y50515056D01*
X35269523Y50341349D01*
X35421349Y50189523D01*
X35595056Y50063317D01*
X35688888Y50015508D01*
X35786366Y49965839D01*
X35786369Y49965838D01*
X35888470Y49932664D01*
X35990573Y49899489D01*
X36202643Y49865900D01*
X36202644Y49865900D01*
X36417356Y49865900D01*
X36417357Y49865900D01*
X36629427Y49899489D01*
X36833633Y49965839D01*
X37024944Y50063317D01*
X37198651Y50189523D01*
X37350477Y50341349D01*
X37476683Y50515056D01*
X37476683Y50515057D01*
X37479547Y50518998D01*
X37481339Y50517696D01*
X37526266Y50558423D01*
X37595184Y50569915D01*
X37659375Y50542322D01*
X37679971Y50518600D01*
X37680880Y50519260D01*
X37809906Y50341673D01*
X37809906Y50341672D01*
X37961671Y50189907D01*
X38135317Y50063745D01*
X38326554Y49966304D01*
X38530683Y49899978D01*
X38600000Y49889000D01*
X38600000Y50787749D01*
X38653919Y50756619D01*
X38783120Y50722000D01*
X38916880Y50722000D01*
X39046081Y50756619D01*
X39100000Y50787749D01*
X39100000Y49889000D01*
X39169316Y49899978D01*
X39373445Y49966304D01*
X39564682Y50063745D01*
X39738327Y50189907D01*
X39738328Y50189907D01*
X39890093Y50341672D01*
X39890093Y50341673D01*
X40019120Y50519260D01*
X40020977Y50517911D01*
X40065715Y50558441D01*
X40134637Y50569910D01*
X40198818Y50542296D01*
X40219574Y50518360D01*
X40220453Y50518998D01*
X40223316Y50515057D01*
X40223317Y50515056D01*
X40349523Y50341349D01*
X40501349Y50189523D01*
X40675056Y50063317D01*
X40768888Y50015508D01*
X40866366Y49965839D01*
X40866369Y49965838D01*
X40968470Y49932664D01*
X41070573Y49899489D01*
X41282643Y49865900D01*
X41282644Y49865900D01*
X41497356Y49865900D01*
X41497357Y49865900D01*
X41709427Y49899489D01*
X41913633Y49965839D01*
X42104944Y50063317D01*
X42278651Y50189523D01*
X42430477Y50341349D01*
X42556683Y50515056D01*
X42556683Y50515057D01*
X42559547Y50518998D01*
X42561478Y50517595D01*
X42605927Y50557922D01*
X42674840Y50569442D01*
X42739042Y50541875D01*
X42759478Y50518291D01*
X42760453Y50518998D01*
X42763316Y50515057D01*
X42763317Y50515056D01*
X42889523Y50341349D01*
X43041349Y50189523D01*
X43215056Y50063317D01*
X43308888Y50015508D01*
X43406366Y49965839D01*
X43406369Y49965838D01*
X43508470Y49932664D01*
X43610573Y49899489D01*
X43822643Y49865900D01*
X43822644Y49865900D01*
X44037356Y49865900D01*
X44037357Y49865900D01*
X44249427Y49899489D01*
X44453633Y49965839D01*
X44644944Y50063317D01*
X44818651Y50189523D01*
X44970477Y50341349D01*
X45096683Y50515056D01*
X45096683Y50515057D01*
X45099547Y50518998D01*
X45101478Y50517595D01*
X45145927Y50557922D01*
X45214840Y50569442D01*
X45279042Y50541875D01*
X45299478Y50518291D01*
X45300453Y50518998D01*
X45303316Y50515057D01*
X45303317Y50515056D01*
X45429523Y50341349D01*
X45581349Y50189523D01*
X45755056Y50063317D01*
X45848888Y50015508D01*
X45946366Y49965839D01*
X45946369Y49965838D01*
X46048470Y49932664D01*
X46150573Y49899489D01*
X46362643Y49865900D01*
X46362644Y49865900D01*
X46577356Y49865900D01*
X46577357Y49865900D01*
X46789427Y49899489D01*
X46993633Y49965839D01*
X47184944Y50063317D01*
X47358651Y50189523D01*
X47510477Y50341349D01*
X47636683Y50515056D01*
X47636683Y50515057D01*
X47639547Y50518998D01*
X47641478Y50517595D01*
X47685927Y50557922D01*
X47754840Y50569442D01*
X47819042Y50541875D01*
X47839478Y50518291D01*
X47840453Y50518998D01*
X47843316Y50515057D01*
X47843317Y50515056D01*
X47969523Y50341349D01*
X48121349Y50189523D01*
X48295056Y50063317D01*
X48388888Y50015508D01*
X48486366Y49965839D01*
X48486369Y49965838D01*
X48588470Y49932664D01*
X48690573Y49899489D01*
X48902643Y49865900D01*
X48902644Y49865900D01*
X49117356Y49865900D01*
X49117357Y49865900D01*
X49329427Y49899489D01*
X49533633Y49965839D01*
X49724944Y50063317D01*
X49898651Y50189523D01*
X50050477Y50341349D01*
X50176683Y50515056D01*
X50176683Y50515057D01*
X50179547Y50518998D01*
X50181478Y50517595D01*
X50225927Y50557922D01*
X50294840Y50569442D01*
X50359042Y50541875D01*
X50379478Y50518291D01*
X50380453Y50518998D01*
X50383316Y50515057D01*
X50383317Y50515056D01*
X50509523Y50341349D01*
X50661349Y50189523D01*
X50835056Y50063317D01*
X50928888Y50015508D01*
X51026366Y49965839D01*
X51026369Y49965838D01*
X51128470Y49932664D01*
X51230573Y49899489D01*
X51442643Y49865900D01*
X51442644Y49865900D01*
X51657356Y49865900D01*
X51657357Y49865900D01*
X51869427Y49899489D01*
X52073633Y49965839D01*
X52264944Y50063317D01*
X52438651Y50189523D01*
X52590477Y50341349D01*
X52716683Y50515056D01*
X52716683Y50515057D01*
X52719547Y50518998D01*
X52721478Y50517595D01*
X52765927Y50557922D01*
X52834840Y50569442D01*
X52899042Y50541875D01*
X52919478Y50518291D01*
X52920453Y50518998D01*
X52923316Y50515057D01*
X52923317Y50515056D01*
X53049523Y50341349D01*
X53201349Y50189523D01*
X53375056Y50063317D01*
X53468888Y50015508D01*
X53566366Y49965839D01*
X53566369Y49965838D01*
X53668470Y49932664D01*
X53770573Y49899489D01*
X53982643Y49865900D01*
X53982644Y49865900D01*
X54197356Y49865900D01*
X54197357Y49865900D01*
X54409427Y49899489D01*
X54613633Y49965839D01*
X54804944Y50063317D01*
X54978651Y50189523D01*
X55130477Y50341349D01*
X55256683Y50515056D01*
X55256683Y50515057D01*
X55259547Y50518998D01*
X55261339Y50517696D01*
X55306266Y50558423D01*
X55375184Y50569915D01*
X55439375Y50542322D01*
X55459971Y50518600D01*
X55460880Y50519260D01*
X55589906Y50341673D01*
X55589906Y50341672D01*
X55741671Y50189907D01*
X55915317Y50063745D01*
X56106554Y49966304D01*
X56310683Y49899978D01*
X56380000Y49889000D01*
X56380000Y50787749D01*
X56433919Y50756619D01*
X56563120Y50722000D01*
X56696880Y50722000D01*
X56826081Y50756619D01*
X56880000Y50787749D01*
X56880000Y49889001D01*
X56949316Y49899978D01*
X57153445Y49966304D01*
X57344682Y50063745D01*
X57518327Y50189907D01*
X57518328Y50189907D01*
X57670093Y50341672D01*
X57670093Y50341673D01*
X57796255Y50515318D01*
X57893696Y50706557D01*
X57960024Y50910693D01*
X57971002Y50980000D01*
X57072251Y50980000D01*
X57103381Y51033919D01*
X57138000Y51163120D01*
X57138000Y51296880D01*
X57103381Y51426081D01*
X57072251Y51480000D01*
X57971002Y51480000D01*
X57960024Y51549308D01*
X57893696Y51753444D01*
X57796255Y51944683D01*
X57670093Y52118328D01*
X57670093Y52118329D01*
X57518328Y52270094D01*
X57340740Y52399120D01*
X57342064Y52400943D01*
X57301470Y52445901D01*
X57290115Y52514842D01*
X57317835Y52578978D01*
X57341645Y52599568D01*
X57341002Y52600453D01*
X57344944Y52603317D01*
X57442402Y52674125D01*
X58399500Y52674125D01*
X58399500Y52325876D01*
X58438489Y51979842D01*
X58438490Y51979833D01*
X58438491Y51979829D01*
X58452538Y51918285D01*
X58515982Y51640316D01*
X58515985Y51640308D01*
X58630999Y51311618D01*
X58782092Y50997870D01*
X58967371Y50703001D01*
X58967372Y50702999D01*
X59184487Y50430744D01*
X59430743Y50184488D01*
X59702998Y49967373D01*
X59703001Y49967372D01*
X59703003Y49967370D01*
X59992868Y49785235D01*
X59997869Y49782093D01*
X60080828Y49742142D01*
X60311621Y49630998D01*
X60558488Y49544616D01*
X60640307Y49515986D01*
X60640315Y49515983D01*
X60640318Y49515983D01*
X60640319Y49515982D01*
X60979829Y49438491D01*
X61325876Y49399501D01*
X61325877Y49399500D01*
X61325880Y49399500D01*
X61674123Y49399500D01*
X61674123Y49399501D01*
X62020171Y49438491D01*
X62359681Y49515982D01*
X62688379Y49630998D01*
X63002133Y49782094D01*
X63296997Y49967370D01*
X63297001Y49967373D01*
X63569256Y50184488D01*
X63569258Y50184491D01*
X63569263Y50184494D01*
X63815506Y50430737D01*
X63884854Y50517696D01*
X64032627Y50702999D01*
X64032628Y50703001D01*
X64032630Y50703003D01*
X64217906Y50997867D01*
X64369002Y51311621D01*
X64484018Y51640319D01*
X64561509Y51979829D01*
X64600500Y52325880D01*
X64600500Y52674120D01*
X64561509Y53020171D01*
X64484018Y53359681D01*
X64482682Y53363498D01*
X64433941Y53502792D01*
X64369002Y53688379D01*
X64217906Y54002133D01*
X64032630Y54296997D01*
X64032628Y54297000D01*
X64032627Y54297002D01*
X63815512Y54569257D01*
X63569256Y54815513D01*
X63297001Y55032628D01*
X63296999Y55032629D01*
X63002130Y55217908D01*
X62688382Y55369001D01*
X62359692Y55484015D01*
X62359684Y55484018D01*
X62105048Y55542137D01*
X62020171Y55561509D01*
X62020167Y55561510D01*
X62020158Y55561511D01*
X61674124Y55600500D01*
X61674120Y55600500D01*
X61325880Y55600500D01*
X61325875Y55600500D01*
X60979841Y55561511D01*
X60979829Y55561509D01*
X60640315Y55484018D01*
X60640307Y55484015D01*
X60311617Y55369001D01*
X59997869Y55217908D01*
X59703000Y55032629D01*
X59702998Y55032628D01*
X59430743Y54815513D01*
X59184487Y54569257D01*
X58967372Y54297002D01*
X58967371Y54297000D01*
X58782092Y54002131D01*
X58630999Y53688383D01*
X58515985Y53359693D01*
X58515982Y53359685D01*
X58438491Y53020171D01*
X58438489Y53020159D01*
X58399500Y52674125D01*
X57442402Y52674125D01*
X57518651Y52729523D01*
X57670477Y52881349D01*
X57796683Y53055056D01*
X57894161Y53246367D01*
X57960511Y53450573D01*
X57994100Y53662643D01*
X57994100Y53877357D01*
X57960511Y54089427D01*
X57900000Y54275663D01*
X57894162Y54293631D01*
X57894161Y54293634D01*
X57824378Y54430589D01*
X57796683Y54484944D01*
X57670477Y54658651D01*
X57518651Y54810477D01*
X57344944Y54936683D01*
X57153633Y55034162D01*
X57153630Y55034163D01*
X56949428Y55100511D01*
X56843392Y55117306D01*
X56737357Y55134100D01*
X56522643Y55134100D01*
X56451953Y55122904D01*
X56310571Y55100511D01*
X56106369Y55034163D01*
X56106366Y55034162D01*
X55915055Y54936683D01*
X55815949Y54864678D01*
X55741349Y54810477D01*
X55741347Y54810475D01*
X55741346Y54810475D01*
X55589525Y54658654D01*
X55589525Y54658653D01*
X55589523Y54658651D01*
X55524554Y54569229D01*
X55460453Y54481002D01*
X55458562Y54482376D01*
X55413848Y54441970D01*
X55344911Y54430589D01*
X55280765Y54458285D01*
X55260488Y54481686D01*
X55259547Y54481002D01*
X55256682Y54484945D01*
X55130477Y54658651D01*
X54978651Y54810477D01*
X54804944Y54936683D01*
X54613633Y55034162D01*
X54613630Y55034163D01*
X54409428Y55100511D01*
X54303392Y55117306D01*
X54197357Y55134100D01*
X53982643Y55134100D01*
X53911953Y55122904D01*
X53770571Y55100511D01*
X53566369Y55034163D01*
X53566366Y55034162D01*
X53375055Y54936683D01*
X53275949Y54864678D01*
X53201349Y54810477D01*
X53201347Y54810475D01*
X53201346Y54810475D01*
X53049525Y54658654D01*
X53049525Y54658653D01*
X53049523Y54658651D01*
X52984554Y54569229D01*
X52920453Y54481002D01*
X52918562Y54482376D01*
X52873848Y54441970D01*
X52804911Y54430589D01*
X52740765Y54458285D01*
X52720488Y54481686D01*
X52719547Y54481002D01*
X52716682Y54484945D01*
X52590477Y54658651D01*
X52438651Y54810477D01*
X52264944Y54936683D01*
X52073633Y55034162D01*
X52073630Y55034163D01*
X51869428Y55100511D01*
X51763392Y55117306D01*
X51657357Y55134100D01*
X51442643Y55134100D01*
X51371953Y55122904D01*
X51230571Y55100511D01*
X51026369Y55034163D01*
X51026366Y55034162D01*
X50835055Y54936683D01*
X50735949Y54864678D01*
X50661349Y54810477D01*
X50661347Y54810475D01*
X50661346Y54810475D01*
X50509525Y54658654D01*
X50509525Y54658653D01*
X50509523Y54658651D01*
X50444554Y54569229D01*
X50380453Y54481002D01*
X50378694Y54482280D01*
X50333546Y54441487D01*
X50264608Y54430112D01*
X50200464Y54457812D01*
X50180030Y54481402D01*
X50179120Y54480740D01*
X50050093Y54658328D01*
X50050093Y54658329D01*
X49898328Y54810094D01*
X49724682Y54936256D01*
X49533443Y55033697D01*
X49329307Y55100025D01*
X49260000Y55111003D01*
X49260000Y54212252D01*
X49206081Y54243381D01*
X49076880Y54278000D01*
X48943120Y54278000D01*
X48813919Y54243381D01*
X48760000Y54212252D01*
X48760000Y55111003D01*
X48690692Y55100025D01*
X48486556Y55033697D01*
X48295317Y54936256D01*
X48121672Y54810094D01*
X48121671Y54810094D01*
X47969906Y54658329D01*
X47969906Y54658328D01*
X47840880Y54480740D01*
X47839078Y54482050D01*
X47793985Y54441416D01*
X47725032Y54430132D01*
X47660925Y54457917D01*
X47640420Y54481637D01*
X47639547Y54481002D01*
X47636682Y54484945D01*
X47510477Y54658651D01*
X47358651Y54810477D01*
X47184944Y54936683D01*
X46993633Y55034162D01*
X46993630Y55034163D01*
X46789428Y55100511D01*
X46683392Y55117306D01*
X46577357Y55134100D01*
X46362643Y55134100D01*
X46291953Y55122904D01*
X46150571Y55100511D01*
X45946369Y55034163D01*
X45946366Y55034162D01*
X45755055Y54936683D01*
X45655949Y54864678D01*
X45581349Y54810477D01*
X45581347Y54810475D01*
X45581346Y54810475D01*
X45429525Y54658654D01*
X45429525Y54658653D01*
X45429523Y54658651D01*
X45364554Y54569229D01*
X45300453Y54481002D01*
X45298694Y54482280D01*
X45253546Y54441487D01*
X45184608Y54430112D01*
X45120464Y54457812D01*
X45100030Y54481402D01*
X45099120Y54480740D01*
X44970093Y54658328D01*
X44970093Y54658329D01*
X44818328Y54810094D01*
X44644682Y54936256D01*
X44453443Y55033697D01*
X44249307Y55100025D01*
X44180000Y55111003D01*
X44180000Y54212252D01*
X44126081Y54243381D01*
X43996880Y54278000D01*
X43863120Y54278000D01*
X43733919Y54243381D01*
X43680000Y54212252D01*
X43680000Y55111003D01*
X43610692Y55100025D01*
X43406556Y55033697D01*
X43215317Y54936256D01*
X43041672Y54810094D01*
X43041671Y54810094D01*
X42889906Y54658329D01*
X42889906Y54658328D01*
X42760880Y54480740D01*
X42759078Y54482050D01*
X42713985Y54441416D01*
X42645032Y54430132D01*
X42580925Y54457917D01*
X42560420Y54481637D01*
X42559547Y54481002D01*
X42556682Y54484945D01*
X42430477Y54658651D01*
X42278651Y54810477D01*
X42104944Y54936683D01*
X41913633Y55034162D01*
X41913630Y55034163D01*
X41709428Y55100511D01*
X41603392Y55117306D01*
X41497357Y55134100D01*
X41282643Y55134100D01*
X41211953Y55122904D01*
X41070571Y55100511D01*
X40866369Y55034163D01*
X40866366Y55034162D01*
X40675055Y54936683D01*
X40575949Y54864678D01*
X40501349Y54810477D01*
X40501347Y54810475D01*
X40501346Y54810475D01*
X40349525Y54658654D01*
X40349525Y54658653D01*
X40349523Y54658651D01*
X40284554Y54569229D01*
X40220453Y54481002D01*
X40218562Y54482376D01*
X40173848Y54441970D01*
X40104911Y54430589D01*
X40040765Y54458285D01*
X40020488Y54481686D01*
X40019547Y54481002D01*
X40016682Y54484945D01*
X39890477Y54658651D01*
X39738651Y54810477D01*
X39564944Y54936683D01*
X39373633Y55034162D01*
X39373630Y55034163D01*
X39169428Y55100511D01*
X39063392Y55117306D01*
X38957357Y55134100D01*
X38742643Y55134100D01*
X38671953Y55122904D01*
X38530571Y55100511D01*
X38326369Y55034163D01*
X38326366Y55034162D01*
X38135055Y54936683D01*
X38035949Y54864678D01*
X37961349Y54810477D01*
X37961347Y54810475D01*
X37961346Y54810475D01*
X37809525Y54658654D01*
X37809525Y54658653D01*
X37809523Y54658651D01*
X37744554Y54569229D01*
X37680453Y54481002D01*
X37678562Y54482376D01*
X37633848Y54441970D01*
X37564911Y54430589D01*
X37500765Y54458285D01*
X37480488Y54481686D01*
X37479547Y54481002D01*
X37476682Y54484945D01*
X37350477Y54658651D01*
X37198651Y54810477D01*
X37024944Y54936683D01*
X36833633Y55034162D01*
X36833630Y55034163D01*
X36629428Y55100511D01*
X36523392Y55117306D01*
X36417357Y55134100D01*
X36202643Y55134100D01*
X36131953Y55122904D01*
X35990571Y55100511D01*
X35786369Y55034163D01*
X35786366Y55034162D01*
X35595055Y54936683D01*
X35495949Y54864678D01*
X35421349Y54810477D01*
X35421347Y54810475D01*
X35421346Y54810475D01*
X35269525Y54658654D01*
X35269525Y54658653D01*
X35269523Y54658651D01*
X35204554Y54569229D01*
X35140453Y54481002D01*
X35138562Y54482376D01*
X35093848Y54441970D01*
X35024911Y54430589D01*
X34960765Y54458285D01*
X34940488Y54481686D01*
X34939547Y54481002D01*
X34936682Y54484945D01*
X34810477Y54658651D01*
X34658651Y54810477D01*
X34484944Y54936683D01*
X34293633Y55034162D01*
X34293630Y55034163D01*
X34089428Y55100511D01*
X33983392Y55117306D01*
X33877357Y55134100D01*
X33662643Y55134100D01*
X33591953Y55122904D01*
X33450571Y55100511D01*
X33246369Y55034163D01*
X33246366Y55034162D01*
X33055055Y54936683D01*
X32955949Y54864678D01*
X32881349Y54810477D01*
X32881347Y54810475D01*
X32881346Y54810475D01*
X32729525Y54658654D01*
X32729525Y54658653D01*
X32729523Y54658651D01*
X32664554Y54569229D01*
X32600453Y54481002D01*
X32598694Y54482280D01*
X32553546Y54441487D01*
X32484608Y54430112D01*
X32420464Y54457812D01*
X32400030Y54481402D01*
X32399120Y54480740D01*
X32270093Y54658328D01*
X32270093Y54658329D01*
X32118328Y54810094D01*
X31944682Y54936256D01*
X31753443Y55033697D01*
X31549307Y55100025D01*
X31480000Y55111003D01*
X31480000Y54212252D01*
X31426081Y54243381D01*
X31296880Y54278000D01*
X31163120Y54278000D01*
X31033919Y54243381D01*
X30980000Y54212252D01*
X30980000Y55111003D01*
X30910692Y55100025D01*
X30706556Y55033697D01*
X30515317Y54936256D01*
X30341672Y54810094D01*
X30341671Y54810094D01*
X30189906Y54658329D01*
X30189906Y54658328D01*
X30060880Y54480740D01*
X30059078Y54482050D01*
X30013985Y54441416D01*
X29945032Y54430132D01*
X29880925Y54457917D01*
X29860420Y54481637D01*
X29859547Y54481002D01*
X29856682Y54484945D01*
X29730477Y54658651D01*
X29578651Y54810477D01*
X29404944Y54936683D01*
X29213633Y55034162D01*
X29213630Y55034163D01*
X29009428Y55100511D01*
X28903392Y55117306D01*
X28797357Y55134100D01*
X28582643Y55134100D01*
X28511953Y55122904D01*
X28370571Y55100511D01*
X28166369Y55034163D01*
X28166366Y55034162D01*
X27975055Y54936683D01*
X27875949Y54864678D01*
X27801349Y54810477D01*
X27801347Y54810475D01*
X27801346Y54810475D01*
X27649525Y54658654D01*
X27649525Y54658653D01*
X27649523Y54658651D01*
X27584554Y54569229D01*
X27520453Y54481002D01*
X27518562Y54482376D01*
X27473848Y54441970D01*
X27404911Y54430589D01*
X27340765Y54458285D01*
X27320488Y54481686D01*
X27319547Y54481002D01*
X27316682Y54484945D01*
X27190477Y54658651D01*
X27038651Y54810477D01*
X26864944Y54936683D01*
X26673633Y55034162D01*
X26673630Y55034163D01*
X26469428Y55100511D01*
X26363392Y55117306D01*
X26257357Y55134100D01*
X26042643Y55134100D01*
X25971953Y55122904D01*
X25830571Y55100511D01*
X25626369Y55034163D01*
X25626366Y55034162D01*
X25435055Y54936683D01*
X25335949Y54864678D01*
X25261349Y54810477D01*
X25261347Y54810475D01*
X25261346Y54810475D01*
X25109525Y54658654D01*
X25109525Y54658653D01*
X25109523Y54658651D01*
X25044554Y54569229D01*
X24980453Y54481002D01*
X24978694Y54482280D01*
X24933546Y54441487D01*
X24864608Y54430112D01*
X24800464Y54457812D01*
X24780030Y54481402D01*
X24779120Y54480740D01*
X24650093Y54658328D01*
X24650093Y54658329D01*
X24498328Y54810094D01*
X24324682Y54936256D01*
X24133443Y55033697D01*
X23929307Y55100025D01*
X23860000Y55111003D01*
X23860000Y54212252D01*
X23806081Y54243381D01*
X23676880Y54278000D01*
X23543120Y54278000D01*
X23413919Y54243381D01*
X23360000Y54212252D01*
X23360000Y55111003D01*
X23290692Y55100025D01*
X23086556Y55033697D01*
X22895317Y54936256D01*
X22721672Y54810094D01*
X22721671Y54810094D01*
X22569906Y54658329D01*
X22569906Y54658328D01*
X22440880Y54480740D01*
X22439078Y54482050D01*
X22393985Y54441416D01*
X22325032Y54430132D01*
X22260925Y54457917D01*
X22240420Y54481637D01*
X22239547Y54481002D01*
X22236682Y54484945D01*
X22110477Y54658651D01*
X21958651Y54810477D01*
X21784944Y54936683D01*
X21593633Y55034162D01*
X21593630Y55034163D01*
X21389428Y55100511D01*
X21283392Y55117306D01*
X21177357Y55134100D01*
X20962643Y55134100D01*
X20891953Y55122904D01*
X20750571Y55100511D01*
X20546369Y55034163D01*
X20546366Y55034162D01*
X20355055Y54936683D01*
X20255949Y54864678D01*
X20181349Y54810477D01*
X20181347Y54810475D01*
X20181346Y54810475D01*
X20029525Y54658654D01*
X20029525Y54658653D01*
X20029523Y54658651D01*
X19964554Y54569229D01*
X19900453Y54481002D01*
X19898562Y54482376D01*
X19853848Y54441970D01*
X19784911Y54430589D01*
X19720765Y54458285D01*
X19700488Y54481686D01*
X19699547Y54481002D01*
X19696682Y54484945D01*
X19570477Y54658651D01*
X19418651Y54810477D01*
X19244944Y54936683D01*
X19053633Y55034162D01*
X19053630Y55034163D01*
X18849428Y55100511D01*
X18743392Y55117306D01*
X18637357Y55134100D01*
X18422643Y55134100D01*
X18351953Y55122904D01*
X18210571Y55100511D01*
X18006369Y55034163D01*
X18006366Y55034162D01*
X17815055Y54936683D01*
X17715949Y54864678D01*
X17641349Y54810477D01*
X17641347Y54810475D01*
X17641346Y54810475D01*
X17489525Y54658654D01*
X17489525Y54658653D01*
X17489523Y54658651D01*
X17424554Y54569229D01*
X17360453Y54481002D01*
X17358562Y54482376D01*
X17313848Y54441970D01*
X17244911Y54430589D01*
X17180765Y54458285D01*
X17160488Y54481686D01*
X17159547Y54481002D01*
X17156682Y54484945D01*
X17030477Y54658651D01*
X16878651Y54810477D01*
X16704944Y54936683D01*
X16513633Y55034162D01*
X16513630Y55034163D01*
X16309428Y55100511D01*
X16203392Y55117306D01*
X16097357Y55134100D01*
X15882643Y55134100D01*
X15811953Y55122904D01*
X15670571Y55100511D01*
X15466369Y55034163D01*
X15466366Y55034162D01*
X15275055Y54936683D01*
X15175949Y54864678D01*
X15101349Y54810477D01*
X15101347Y54810475D01*
X15101346Y54810475D01*
X14949525Y54658654D01*
X14949525Y54658653D01*
X14949523Y54658651D01*
X14884554Y54569229D01*
X14820453Y54481002D01*
X14818694Y54482280D01*
X14773546Y54441487D01*
X14704608Y54430112D01*
X14640464Y54457812D01*
X14620030Y54481402D01*
X14619120Y54480740D01*
X14490093Y54658328D01*
X14490093Y54658329D01*
X14338328Y54810094D01*
X14164682Y54936256D01*
X13973443Y55033697D01*
X13769307Y55100025D01*
X13700000Y55111003D01*
X13700000Y54212252D01*
X13646081Y54243381D01*
X13516880Y54278000D01*
X13383120Y54278000D01*
X13253919Y54243381D01*
X13200000Y54212252D01*
X13200000Y55111003D01*
X13130692Y55100025D01*
X12926556Y55033697D01*
X12735317Y54936256D01*
X12561672Y54810094D01*
X12561671Y54810094D01*
X12409906Y54658329D01*
X12409906Y54658328D01*
X12280880Y54480740D01*
X12279078Y54482050D01*
X12233985Y54441416D01*
X12165032Y54430132D01*
X12100925Y54457917D01*
X12080420Y54481637D01*
X12079547Y54481002D01*
X12076682Y54484945D01*
X11950477Y54658651D01*
X11798651Y54810477D01*
X11624944Y54936683D01*
X11433633Y55034162D01*
X11433630Y55034163D01*
X11229428Y55100511D01*
X11123392Y55117306D01*
X11017357Y55134100D01*
X10802643Y55134100D01*
X10731953Y55122904D01*
X10590571Y55100511D01*
X10386369Y55034163D01*
X10386366Y55034162D01*
X10195055Y54936683D01*
X10095949Y54864678D01*
X10021349Y54810477D01*
X10021347Y54810475D01*
X10021346Y54810475D01*
X9869525Y54658654D01*
X9869525Y54658653D01*
X9869523Y54658651D01*
X9804554Y54569229D01*
X9740453Y54481002D01*
X9738562Y54482376D01*
X9693848Y54441970D01*
X9624911Y54430589D01*
X9560765Y54458285D01*
X9540488Y54481686D01*
X9539547Y54481002D01*
X9536682Y54484945D01*
X9410477Y54658651D01*
X9258651Y54810477D01*
X9084944Y54936683D01*
X8893633Y55034162D01*
X8893630Y55034163D01*
X8689428Y55100511D01*
X8583392Y55117306D01*
X8477357Y55134100D01*
X8262643Y55134100D01*
X8191953Y55122904D01*
X8050571Y55100511D01*
X7846369Y55034163D01*
X7846366Y55034162D01*
X7655055Y54936683D01*
X7555949Y54864678D01*
X7481349Y54810477D01*
X7481347Y54810475D01*
X7481346Y54810475D01*
X7329525Y54658654D01*
X7329525Y54658653D01*
X7329523Y54658651D01*
X7275322Y54584051D01*
X7203317Y54484945D01*
X7105838Y54293634D01*
X7105837Y54293631D01*
X7039489Y54089429D01*
X7022406Y53981576D01*
X6992476Y53918442D01*
X6987614Y53913294D01*
X6610597Y53536277D01*
X6549274Y53502792D01*
X6479582Y53507776D01*
X6423649Y53549648D01*
X6405874Y53583004D01*
X6369001Y53688381D01*
X6217907Y54002131D01*
X6032628Y54297000D01*
X6032627Y54297002D01*
X5815512Y54569257D01*
X5569256Y54815513D01*
X5297001Y55032628D01*
X5296999Y55032629D01*
X5002130Y55217908D01*
X4688382Y55369001D01*
X4359692Y55484015D01*
X4359684Y55484018D01*
X4105048Y55542137D01*
X4020171Y55561509D01*
X4020167Y55561510D01*
X4020158Y55561511D01*
X3674124Y55600500D01*
X3674120Y55600500D01*
X3325880Y55600500D01*
X3325875Y55600500D01*
X2979841Y55561511D01*
X2979829Y55561509D01*
X2640315Y55484018D01*
X2640307Y55484015D01*
X2311617Y55369001D01*
X1997869Y55217908D01*
X1703000Y55032629D01*
X1702998Y55032628D01*
X1430743Y54815513D01*
X1184487Y54569257D01*
X967372Y54297002D01*
X967371Y54297000D01*
X782092Y54002131D01*
X630999Y53688383D01*
X515985Y53359693D01*
X515982Y53359685D01*
X438491Y53020171D01*
X438489Y53020159D01*
X399500Y52674125D01*
X50500Y52674125D01*
X50500Y52996520D01*
X50695Y53003473D01*
X53740Y53057696D01*
X68656Y53323300D01*
X70210Y53337093D01*
X123283Y53649463D01*
X126377Y53663015D01*
X133685Y53688379D01*
X214090Y53967474D01*
X218682Y53980594D01*
X299829Y54176502D01*
X339929Y54273314D01*
X345951Y54285820D01*
X499227Y54563150D01*
X506605Y54574893D01*
X689972Y54833324D01*
X698619Y54844166D01*
X909750Y55080421D01*
X919581Y55090251D01*
X931062Y55100511D01*
X1155834Y55301381D01*
X1166676Y55310028D01*
X1425107Y55493395D01*
X1436850Y55500773D01*
X1714180Y55654049D01*
X1726686Y55660071D01*
X2019406Y55781318D01*
X2032526Y55785910D01*
X2336990Y55873625D01*
X2350537Y55876717D01*
X2662907Y55929790D01*
X2676700Y55931344D01*
X2996528Y55949305D01*
X3003481Y55949500D01*
X3016408Y55949500D01*
X61983592Y55949500D01*
X61996519Y55949500D01*
X62003472Y55949305D01*
G37*
G04 #@! TD.AperFunction*
M02*
