G04 #@! TF.GenerationSoftware,KiCad,Pcbnew,9.0.1*
G04 #@! TF.CreationDate,2025-04-21T12:49:12+00:00*
G04 #@! TF.ProjectId,pedalboard-soundcard,70656461-6c62-46f6-9172-642d736f756e,1.0.1-RC*
G04 #@! TF.SameCoordinates,Original*
G04 #@! TF.FileFunction,Legend,Bot*
G04 #@! TF.FilePolarity,Positive*
%FSLAX46Y46*%
G04 Gerber Fmt 4.6, Leading zero omitted, Abs format (unit mm)*
G04 Created by KiCad (PCBNEW 9.0.1) date 2025-04-21 12:49:12*
%MOMM*%
%LPD*%
G01*
G04 APERTURE LIST*
%ADD10C,0.150000*%
%ADD11C,0.120000*%
G04 APERTURE END LIST*
D10*
X62778458Y42641615D02*
X62626077Y42641615D01*
X62626077Y42641615D02*
X62549887Y42603520D01*
X62549887Y42603520D02*
X62473696Y42527330D01*
X62473696Y42527330D02*
X62435601Y42374949D01*
X62435601Y42374949D02*
X62435601Y42108282D01*
X62435601Y42108282D02*
X62473696Y41955901D01*
X62473696Y41955901D02*
X62549887Y41879710D01*
X62549887Y41879710D02*
X62626077Y41841615D01*
X62626077Y41841615D02*
X62778458Y41841615D01*
X62778458Y41841615D02*
X62854649Y41879710D01*
X62854649Y41879710D02*
X62930839Y41955901D01*
X62930839Y41955901D02*
X62968935Y42108282D01*
X62968935Y42108282D02*
X62968935Y42374949D01*
X62968935Y42374949D02*
X62930839Y42527330D01*
X62930839Y42527330D02*
X62854649Y42603520D01*
X62854649Y42603520D02*
X62778458Y42641615D01*
X62092744Y42374949D02*
X62092744Y41574949D01*
X62092744Y42336853D02*
X62016554Y42374949D01*
X62016554Y42374949D02*
X61864173Y42374949D01*
X61864173Y42374949D02*
X61787982Y42336853D01*
X61787982Y42336853D02*
X61749887Y42298758D01*
X61749887Y42298758D02*
X61711792Y42222568D01*
X61711792Y42222568D02*
X61711792Y41993996D01*
X61711792Y41993996D02*
X61749887Y41917806D01*
X61749887Y41917806D02*
X61787982Y41879710D01*
X61787982Y41879710D02*
X61864173Y41841615D01*
X61864173Y41841615D02*
X62016554Y41841615D01*
X62016554Y41841615D02*
X62092744Y41879710D01*
X61064172Y41879710D02*
X61140363Y41841615D01*
X61140363Y41841615D02*
X61292744Y41841615D01*
X61292744Y41841615D02*
X61368934Y41879710D01*
X61368934Y41879710D02*
X61407030Y41955901D01*
X61407030Y41955901D02*
X61407030Y42260663D01*
X61407030Y42260663D02*
X61368934Y42336853D01*
X61368934Y42336853D02*
X61292744Y42374949D01*
X61292744Y42374949D02*
X61140363Y42374949D01*
X61140363Y42374949D02*
X61064172Y42336853D01*
X61064172Y42336853D02*
X61026077Y42260663D01*
X61026077Y42260663D02*
X61026077Y42184472D01*
X61026077Y42184472D02*
X61407030Y42108282D01*
X60683220Y42374949D02*
X60683220Y41841615D01*
X60683220Y42298758D02*
X60645125Y42336853D01*
X60645125Y42336853D02*
X60568935Y42374949D01*
X60568935Y42374949D02*
X60454649Y42374949D01*
X60454649Y42374949D02*
X60378458Y42336853D01*
X60378458Y42336853D02*
X60340363Y42260663D01*
X60340363Y42260663D02*
X60340363Y41841615D01*
X59349886Y41841615D02*
X59349886Y42641615D01*
X59349886Y42641615D02*
X59045124Y42641615D01*
X59045124Y42641615D02*
X58968934Y42603520D01*
X58968934Y42603520D02*
X58930839Y42565425D01*
X58930839Y42565425D02*
X58892743Y42489234D01*
X58892743Y42489234D02*
X58892743Y42374949D01*
X58892743Y42374949D02*
X58930839Y42298758D01*
X58930839Y42298758D02*
X58968934Y42260663D01*
X58968934Y42260663D02*
X59045124Y42222568D01*
X59045124Y42222568D02*
X59349886Y42222568D01*
X58245124Y41879710D02*
X58321315Y41841615D01*
X58321315Y41841615D02*
X58473696Y41841615D01*
X58473696Y41841615D02*
X58549886Y41879710D01*
X58549886Y41879710D02*
X58587982Y41955901D01*
X58587982Y41955901D02*
X58587982Y42260663D01*
X58587982Y42260663D02*
X58549886Y42336853D01*
X58549886Y42336853D02*
X58473696Y42374949D01*
X58473696Y42374949D02*
X58321315Y42374949D01*
X58321315Y42374949D02*
X58245124Y42336853D01*
X58245124Y42336853D02*
X58207029Y42260663D01*
X58207029Y42260663D02*
X58207029Y42184472D01*
X58207029Y42184472D02*
X58587982Y42108282D01*
X57521315Y41841615D02*
X57521315Y42641615D01*
X57521315Y41879710D02*
X57597506Y41841615D01*
X57597506Y41841615D02*
X57749887Y41841615D01*
X57749887Y41841615D02*
X57826077Y41879710D01*
X57826077Y41879710D02*
X57864172Y41917806D01*
X57864172Y41917806D02*
X57902268Y41993996D01*
X57902268Y41993996D02*
X57902268Y42222568D01*
X57902268Y42222568D02*
X57864172Y42298758D01*
X57864172Y42298758D02*
X57826077Y42336853D01*
X57826077Y42336853D02*
X57749887Y42374949D01*
X57749887Y42374949D02*
X57597506Y42374949D01*
X57597506Y42374949D02*
X57521315Y42336853D01*
X56797505Y41841615D02*
X56797505Y42260663D01*
X56797505Y42260663D02*
X56835600Y42336853D01*
X56835600Y42336853D02*
X56911791Y42374949D01*
X56911791Y42374949D02*
X57064172Y42374949D01*
X57064172Y42374949D02*
X57140362Y42336853D01*
X56797505Y41879710D02*
X56873696Y41841615D01*
X56873696Y41841615D02*
X57064172Y41841615D01*
X57064172Y41841615D02*
X57140362Y41879710D01*
X57140362Y41879710D02*
X57178458Y41955901D01*
X57178458Y41955901D02*
X57178458Y42032091D01*
X57178458Y42032091D02*
X57140362Y42108282D01*
X57140362Y42108282D02*
X57064172Y42146377D01*
X57064172Y42146377D02*
X56873696Y42146377D01*
X56873696Y42146377D02*
X56797505Y42184472D01*
X56302267Y41841615D02*
X56378457Y41879710D01*
X56378457Y41879710D02*
X56416552Y41955901D01*
X56416552Y41955901D02*
X56416552Y42641615D01*
X55997504Y41841615D02*
X55997504Y42641615D01*
X55997504Y42336853D02*
X55921314Y42374949D01*
X55921314Y42374949D02*
X55768933Y42374949D01*
X55768933Y42374949D02*
X55692742Y42336853D01*
X55692742Y42336853D02*
X55654647Y42298758D01*
X55654647Y42298758D02*
X55616552Y42222568D01*
X55616552Y42222568D02*
X55616552Y41993996D01*
X55616552Y41993996D02*
X55654647Y41917806D01*
X55654647Y41917806D02*
X55692742Y41879710D01*
X55692742Y41879710D02*
X55768933Y41841615D01*
X55768933Y41841615D02*
X55921314Y41841615D01*
X55921314Y41841615D02*
X55997504Y41879710D01*
X55159409Y41841615D02*
X55235599Y41879710D01*
X55235599Y41879710D02*
X55273694Y41917806D01*
X55273694Y41917806D02*
X55311790Y41993996D01*
X55311790Y41993996D02*
X55311790Y42222568D01*
X55311790Y42222568D02*
X55273694Y42298758D01*
X55273694Y42298758D02*
X55235599Y42336853D01*
X55235599Y42336853D02*
X55159409Y42374949D01*
X55159409Y42374949D02*
X55045123Y42374949D01*
X55045123Y42374949D02*
X54968932Y42336853D01*
X54968932Y42336853D02*
X54930837Y42298758D01*
X54930837Y42298758D02*
X54892742Y42222568D01*
X54892742Y42222568D02*
X54892742Y41993996D01*
X54892742Y41993996D02*
X54930837Y41917806D01*
X54930837Y41917806D02*
X54968932Y41879710D01*
X54968932Y41879710D02*
X55045123Y41841615D01*
X55045123Y41841615D02*
X55159409Y41841615D01*
X54207027Y41841615D02*
X54207027Y42260663D01*
X54207027Y42260663D02*
X54245122Y42336853D01*
X54245122Y42336853D02*
X54321313Y42374949D01*
X54321313Y42374949D02*
X54473694Y42374949D01*
X54473694Y42374949D02*
X54549884Y42336853D01*
X54207027Y41879710D02*
X54283218Y41841615D01*
X54283218Y41841615D02*
X54473694Y41841615D01*
X54473694Y41841615D02*
X54549884Y41879710D01*
X54549884Y41879710D02*
X54587980Y41955901D01*
X54587980Y41955901D02*
X54587980Y42032091D01*
X54587980Y42032091D02*
X54549884Y42108282D01*
X54549884Y42108282D02*
X54473694Y42146377D01*
X54473694Y42146377D02*
X54283218Y42146377D01*
X54283218Y42146377D02*
X54207027Y42184472D01*
X53826074Y41841615D02*
X53826074Y42374949D01*
X53826074Y42222568D02*
X53787979Y42298758D01*
X53787979Y42298758D02*
X53749884Y42336853D01*
X53749884Y42336853D02*
X53673693Y42374949D01*
X53673693Y42374949D02*
X53597503Y42374949D01*
X52987979Y41841615D02*
X52987979Y42641615D01*
X52987979Y41879710D02*
X53064170Y41841615D01*
X53064170Y41841615D02*
X53216551Y41841615D01*
X53216551Y41841615D02*
X53292741Y41879710D01*
X53292741Y41879710D02*
X53330836Y41917806D01*
X53330836Y41917806D02*
X53368932Y41993996D01*
X53368932Y41993996D02*
X53368932Y42222568D01*
X53368932Y42222568D02*
X53330836Y42298758D01*
X53330836Y42298758D02*
X53292741Y42336853D01*
X53292741Y42336853D02*
X53216551Y42374949D01*
X53216551Y42374949D02*
X53064170Y42374949D01*
X53064170Y42374949D02*
X52987979Y42336853D01*
X52035598Y41879710D02*
X51921312Y41841615D01*
X51921312Y41841615D02*
X51730836Y41841615D01*
X51730836Y41841615D02*
X51654645Y41879710D01*
X51654645Y41879710D02*
X51616550Y41917806D01*
X51616550Y41917806D02*
X51578455Y41993996D01*
X51578455Y41993996D02*
X51578455Y42070187D01*
X51578455Y42070187D02*
X51616550Y42146377D01*
X51616550Y42146377D02*
X51654645Y42184472D01*
X51654645Y42184472D02*
X51730836Y42222568D01*
X51730836Y42222568D02*
X51883217Y42260663D01*
X51883217Y42260663D02*
X51959407Y42298758D01*
X51959407Y42298758D02*
X51997502Y42336853D01*
X51997502Y42336853D02*
X52035598Y42413044D01*
X52035598Y42413044D02*
X52035598Y42489234D01*
X52035598Y42489234D02*
X51997502Y42565425D01*
X51997502Y42565425D02*
X51959407Y42603520D01*
X51959407Y42603520D02*
X51883217Y42641615D01*
X51883217Y42641615D02*
X51692740Y42641615D01*
X51692740Y42641615D02*
X51578455Y42603520D01*
X51121312Y41841615D02*
X51197502Y41879710D01*
X51197502Y41879710D02*
X51235597Y41917806D01*
X51235597Y41917806D02*
X51273693Y41993996D01*
X51273693Y41993996D02*
X51273693Y42222568D01*
X51273693Y42222568D02*
X51235597Y42298758D01*
X51235597Y42298758D02*
X51197502Y42336853D01*
X51197502Y42336853D02*
X51121312Y42374949D01*
X51121312Y42374949D02*
X51007026Y42374949D01*
X51007026Y42374949D02*
X50930835Y42336853D01*
X50930835Y42336853D02*
X50892740Y42298758D01*
X50892740Y42298758D02*
X50854645Y42222568D01*
X50854645Y42222568D02*
X50854645Y41993996D01*
X50854645Y41993996D02*
X50892740Y41917806D01*
X50892740Y41917806D02*
X50930835Y41879710D01*
X50930835Y41879710D02*
X51007026Y41841615D01*
X51007026Y41841615D02*
X51121312Y41841615D01*
X50168930Y42374949D02*
X50168930Y41841615D01*
X50511787Y42374949D02*
X50511787Y41955901D01*
X50511787Y41955901D02*
X50473692Y41879710D01*
X50473692Y41879710D02*
X50397502Y41841615D01*
X50397502Y41841615D02*
X50283216Y41841615D01*
X50283216Y41841615D02*
X50207025Y41879710D01*
X50207025Y41879710D02*
X50168930Y41917806D01*
X49787977Y42374949D02*
X49787977Y41841615D01*
X49787977Y42298758D02*
X49749882Y42336853D01*
X49749882Y42336853D02*
X49673692Y42374949D01*
X49673692Y42374949D02*
X49559406Y42374949D01*
X49559406Y42374949D02*
X49483215Y42336853D01*
X49483215Y42336853D02*
X49445120Y42260663D01*
X49445120Y42260663D02*
X49445120Y41841615D01*
X48721310Y41841615D02*
X48721310Y42641615D01*
X48721310Y41879710D02*
X48797501Y41841615D01*
X48797501Y41841615D02*
X48949882Y41841615D01*
X48949882Y41841615D02*
X49026072Y41879710D01*
X49026072Y41879710D02*
X49064167Y41917806D01*
X49064167Y41917806D02*
X49102263Y41993996D01*
X49102263Y41993996D02*
X49102263Y42222568D01*
X49102263Y42222568D02*
X49064167Y42298758D01*
X49064167Y42298758D02*
X49026072Y42336853D01*
X49026072Y42336853D02*
X48949882Y42374949D01*
X48949882Y42374949D02*
X48797501Y42374949D01*
X48797501Y42374949D02*
X48721310Y42336853D01*
X47997500Y41879710D02*
X48073691Y41841615D01*
X48073691Y41841615D02*
X48226072Y41841615D01*
X48226072Y41841615D02*
X48302262Y41879710D01*
X48302262Y41879710D02*
X48340357Y41917806D01*
X48340357Y41917806D02*
X48378453Y41993996D01*
X48378453Y41993996D02*
X48378453Y42222568D01*
X48378453Y42222568D02*
X48340357Y42298758D01*
X48340357Y42298758D02*
X48302262Y42336853D01*
X48302262Y42336853D02*
X48226072Y42374949D01*
X48226072Y42374949D02*
X48073691Y42374949D01*
X48073691Y42374949D02*
X47997500Y42336853D01*
X47311786Y41841615D02*
X47311786Y42260663D01*
X47311786Y42260663D02*
X47349881Y42336853D01*
X47349881Y42336853D02*
X47426072Y42374949D01*
X47426072Y42374949D02*
X47578453Y42374949D01*
X47578453Y42374949D02*
X47654643Y42336853D01*
X47311786Y41879710D02*
X47387977Y41841615D01*
X47387977Y41841615D02*
X47578453Y41841615D01*
X47578453Y41841615D02*
X47654643Y41879710D01*
X47654643Y41879710D02*
X47692739Y41955901D01*
X47692739Y41955901D02*
X47692739Y42032091D01*
X47692739Y42032091D02*
X47654643Y42108282D01*
X47654643Y42108282D02*
X47578453Y42146377D01*
X47578453Y42146377D02*
X47387977Y42146377D01*
X47387977Y42146377D02*
X47311786Y42184472D01*
X46930833Y41841615D02*
X46930833Y42374949D01*
X46930833Y42222568D02*
X46892738Y42298758D01*
X46892738Y42298758D02*
X46854643Y42336853D01*
X46854643Y42336853D02*
X46778452Y42374949D01*
X46778452Y42374949D02*
X46702262Y42374949D01*
X46092738Y41841615D02*
X46092738Y42641615D01*
X46092738Y41879710D02*
X46168929Y41841615D01*
X46168929Y41841615D02*
X46321310Y41841615D01*
X46321310Y41841615D02*
X46397500Y41879710D01*
X46397500Y41879710D02*
X46435595Y41917806D01*
X46435595Y41917806D02*
X46473691Y41993996D01*
X46473691Y41993996D02*
X46473691Y42222568D01*
X46473691Y42222568D02*
X46435595Y42298758D01*
X46435595Y42298758D02*
X46397500Y42336853D01*
X46397500Y42336853D02*
X46321310Y42374949D01*
X46321310Y42374949D02*
X46168929Y42374949D01*
X46168929Y42374949D02*
X46092738Y42336853D01*
X62587982Y41086994D02*
X62587982Y40439375D01*
X62587982Y40439375D02*
X62626077Y40363184D01*
X62626077Y40363184D02*
X62664173Y40325089D01*
X62664173Y40325089D02*
X62740363Y40286994D01*
X62740363Y40286994D02*
X62854649Y40286994D01*
X62854649Y40286994D02*
X62930839Y40325089D01*
X62587982Y40591755D02*
X62664173Y40553660D01*
X62664173Y40553660D02*
X62816554Y40553660D01*
X62816554Y40553660D02*
X62892744Y40591755D01*
X62892744Y40591755D02*
X62930839Y40629851D01*
X62930839Y40629851D02*
X62968935Y40706041D01*
X62968935Y40706041D02*
X62968935Y40934613D01*
X62968935Y40934613D02*
X62930839Y41010803D01*
X62930839Y41010803D02*
X62892744Y41048898D01*
X62892744Y41048898D02*
X62816554Y41086994D01*
X62816554Y41086994D02*
X62664173Y41086994D01*
X62664173Y41086994D02*
X62587982Y41048898D01*
X62207029Y40553660D02*
X62207029Y41086994D01*
X62207029Y41353660D02*
X62245125Y41315565D01*
X62245125Y41315565D02*
X62207029Y41277470D01*
X62207029Y41277470D02*
X62168934Y41315565D01*
X62168934Y41315565D02*
X62207029Y41353660D01*
X62207029Y41353660D02*
X62207029Y41277470D01*
X61940363Y41086994D02*
X61635601Y41086994D01*
X61826077Y41353660D02*
X61826077Y40667946D01*
X61826077Y40667946D02*
X61787982Y40591755D01*
X61787982Y40591755D02*
X61711792Y40553660D01*
X61711792Y40553660D02*
X61635601Y40553660D01*
X61368934Y40553660D02*
X61368934Y41353660D01*
X61026077Y40553660D02*
X61026077Y40972708D01*
X61026077Y40972708D02*
X61064172Y41048898D01*
X61064172Y41048898D02*
X61140363Y41086994D01*
X61140363Y41086994D02*
X61254649Y41086994D01*
X61254649Y41086994D02*
X61330839Y41048898D01*
X61330839Y41048898D02*
X61368934Y41010803D01*
X60302267Y41086994D02*
X60302267Y40553660D01*
X60645124Y41086994D02*
X60645124Y40667946D01*
X60645124Y40667946D02*
X60607029Y40591755D01*
X60607029Y40591755D02*
X60530839Y40553660D01*
X60530839Y40553660D02*
X60416553Y40553660D01*
X60416553Y40553660D02*
X60340362Y40591755D01*
X60340362Y40591755D02*
X60302267Y40629851D01*
X59921314Y40553660D02*
X59921314Y41353660D01*
X59921314Y41048898D02*
X59845124Y41086994D01*
X59845124Y41086994D02*
X59692743Y41086994D01*
X59692743Y41086994D02*
X59616552Y41048898D01*
X59616552Y41048898D02*
X59578457Y41010803D01*
X59578457Y41010803D02*
X59540362Y40934613D01*
X59540362Y40934613D02*
X59540362Y40706041D01*
X59540362Y40706041D02*
X59578457Y40629851D01*
X59578457Y40629851D02*
X59616552Y40591755D01*
X59616552Y40591755D02*
X59692743Y40553660D01*
X59692743Y40553660D02*
X59845124Y40553660D01*
X59845124Y40553660D02*
X59921314Y40591755D01*
X59197504Y40629851D02*
X59159409Y40591755D01*
X59159409Y40591755D02*
X59197504Y40553660D01*
X59197504Y40553660D02*
X59235600Y40591755D01*
X59235600Y40591755D02*
X59197504Y40629851D01*
X59197504Y40629851D02*
X59197504Y40553660D01*
X58473695Y40591755D02*
X58549886Y40553660D01*
X58549886Y40553660D02*
X58702267Y40553660D01*
X58702267Y40553660D02*
X58778457Y40591755D01*
X58778457Y40591755D02*
X58816552Y40629851D01*
X58816552Y40629851D02*
X58854648Y40706041D01*
X58854648Y40706041D02*
X58854648Y40934613D01*
X58854648Y40934613D02*
X58816552Y41010803D01*
X58816552Y41010803D02*
X58778457Y41048898D01*
X58778457Y41048898D02*
X58702267Y41086994D01*
X58702267Y41086994D02*
X58549886Y41086994D01*
X58549886Y41086994D02*
X58473695Y41048898D01*
X58016553Y40553660D02*
X58092743Y40591755D01*
X58092743Y40591755D02*
X58130838Y40629851D01*
X58130838Y40629851D02*
X58168934Y40706041D01*
X58168934Y40706041D02*
X58168934Y40934613D01*
X58168934Y40934613D02*
X58130838Y41010803D01*
X58130838Y41010803D02*
X58092743Y41048898D01*
X58092743Y41048898D02*
X58016553Y41086994D01*
X58016553Y41086994D02*
X57902267Y41086994D01*
X57902267Y41086994D02*
X57826076Y41048898D01*
X57826076Y41048898D02*
X57787981Y41010803D01*
X57787981Y41010803D02*
X57749886Y40934613D01*
X57749886Y40934613D02*
X57749886Y40706041D01*
X57749886Y40706041D02*
X57787981Y40629851D01*
X57787981Y40629851D02*
X57826076Y40591755D01*
X57826076Y40591755D02*
X57902267Y40553660D01*
X57902267Y40553660D02*
X58016553Y40553660D01*
X57407028Y40553660D02*
X57407028Y41086994D01*
X57407028Y41010803D02*
X57368933Y41048898D01*
X57368933Y41048898D02*
X57292743Y41086994D01*
X57292743Y41086994D02*
X57178457Y41086994D01*
X57178457Y41086994D02*
X57102266Y41048898D01*
X57102266Y41048898D02*
X57064171Y40972708D01*
X57064171Y40972708D02*
X57064171Y40553660D01*
X57064171Y40972708D02*
X57026076Y41048898D01*
X57026076Y41048898D02*
X56949885Y41086994D01*
X56949885Y41086994D02*
X56835600Y41086994D01*
X56835600Y41086994D02*
X56759409Y41048898D01*
X56759409Y41048898D02*
X56721314Y40972708D01*
X56721314Y40972708D02*
X56721314Y40553660D01*
X55768933Y41391755D02*
X56454647Y40363184D01*
X55502266Y41086994D02*
X55502266Y40286994D01*
X55502266Y41048898D02*
X55426076Y41086994D01*
X55426076Y41086994D02*
X55273695Y41086994D01*
X55273695Y41086994D02*
X55197504Y41048898D01*
X55197504Y41048898D02*
X55159409Y41010803D01*
X55159409Y41010803D02*
X55121314Y40934613D01*
X55121314Y40934613D02*
X55121314Y40706041D01*
X55121314Y40706041D02*
X55159409Y40629851D01*
X55159409Y40629851D02*
X55197504Y40591755D01*
X55197504Y40591755D02*
X55273695Y40553660D01*
X55273695Y40553660D02*
X55426076Y40553660D01*
X55426076Y40553660D02*
X55502266Y40591755D01*
X54473694Y40591755D02*
X54549885Y40553660D01*
X54549885Y40553660D02*
X54702266Y40553660D01*
X54702266Y40553660D02*
X54778456Y40591755D01*
X54778456Y40591755D02*
X54816552Y40667946D01*
X54816552Y40667946D02*
X54816552Y40972708D01*
X54816552Y40972708D02*
X54778456Y41048898D01*
X54778456Y41048898D02*
X54702266Y41086994D01*
X54702266Y41086994D02*
X54549885Y41086994D01*
X54549885Y41086994D02*
X54473694Y41048898D01*
X54473694Y41048898D02*
X54435599Y40972708D01*
X54435599Y40972708D02*
X54435599Y40896517D01*
X54435599Y40896517D02*
X54816552Y40820327D01*
X53749885Y40553660D02*
X53749885Y41353660D01*
X53749885Y40591755D02*
X53826076Y40553660D01*
X53826076Y40553660D02*
X53978457Y40553660D01*
X53978457Y40553660D02*
X54054647Y40591755D01*
X54054647Y40591755D02*
X54092742Y40629851D01*
X54092742Y40629851D02*
X54130838Y40706041D01*
X54130838Y40706041D02*
X54130838Y40934613D01*
X54130838Y40934613D02*
X54092742Y41010803D01*
X54092742Y41010803D02*
X54054647Y41048898D01*
X54054647Y41048898D02*
X53978457Y41086994D01*
X53978457Y41086994D02*
X53826076Y41086994D01*
X53826076Y41086994D02*
X53749885Y41048898D01*
X53026075Y40553660D02*
X53026075Y40972708D01*
X53026075Y40972708D02*
X53064170Y41048898D01*
X53064170Y41048898D02*
X53140361Y41086994D01*
X53140361Y41086994D02*
X53292742Y41086994D01*
X53292742Y41086994D02*
X53368932Y41048898D01*
X53026075Y40591755D02*
X53102266Y40553660D01*
X53102266Y40553660D02*
X53292742Y40553660D01*
X53292742Y40553660D02*
X53368932Y40591755D01*
X53368932Y40591755D02*
X53407028Y40667946D01*
X53407028Y40667946D02*
X53407028Y40744136D01*
X53407028Y40744136D02*
X53368932Y40820327D01*
X53368932Y40820327D02*
X53292742Y40858422D01*
X53292742Y40858422D02*
X53102266Y40858422D01*
X53102266Y40858422D02*
X53026075Y40896517D01*
X52530837Y40553660D02*
X52607027Y40591755D01*
X52607027Y40591755D02*
X52645122Y40667946D01*
X52645122Y40667946D02*
X52645122Y41353660D01*
X52226074Y40553660D02*
X52226074Y41353660D01*
X52226074Y41048898D02*
X52149884Y41086994D01*
X52149884Y41086994D02*
X51997503Y41086994D01*
X51997503Y41086994D02*
X51921312Y41048898D01*
X51921312Y41048898D02*
X51883217Y41010803D01*
X51883217Y41010803D02*
X51845122Y40934613D01*
X51845122Y40934613D02*
X51845122Y40706041D01*
X51845122Y40706041D02*
X51883217Y40629851D01*
X51883217Y40629851D02*
X51921312Y40591755D01*
X51921312Y40591755D02*
X51997503Y40553660D01*
X51997503Y40553660D02*
X52149884Y40553660D01*
X52149884Y40553660D02*
X52226074Y40591755D01*
X51387979Y40553660D02*
X51464169Y40591755D01*
X51464169Y40591755D02*
X51502264Y40629851D01*
X51502264Y40629851D02*
X51540360Y40706041D01*
X51540360Y40706041D02*
X51540360Y40934613D01*
X51540360Y40934613D02*
X51502264Y41010803D01*
X51502264Y41010803D02*
X51464169Y41048898D01*
X51464169Y41048898D02*
X51387979Y41086994D01*
X51387979Y41086994D02*
X51273693Y41086994D01*
X51273693Y41086994D02*
X51197502Y41048898D01*
X51197502Y41048898D02*
X51159407Y41010803D01*
X51159407Y41010803D02*
X51121312Y40934613D01*
X51121312Y40934613D02*
X51121312Y40706041D01*
X51121312Y40706041D02*
X51159407Y40629851D01*
X51159407Y40629851D02*
X51197502Y40591755D01*
X51197502Y40591755D02*
X51273693Y40553660D01*
X51273693Y40553660D02*
X51387979Y40553660D01*
X50435597Y40553660D02*
X50435597Y40972708D01*
X50435597Y40972708D02*
X50473692Y41048898D01*
X50473692Y41048898D02*
X50549883Y41086994D01*
X50549883Y41086994D02*
X50702264Y41086994D01*
X50702264Y41086994D02*
X50778454Y41048898D01*
X50435597Y40591755D02*
X50511788Y40553660D01*
X50511788Y40553660D02*
X50702264Y40553660D01*
X50702264Y40553660D02*
X50778454Y40591755D01*
X50778454Y40591755D02*
X50816550Y40667946D01*
X50816550Y40667946D02*
X50816550Y40744136D01*
X50816550Y40744136D02*
X50778454Y40820327D01*
X50778454Y40820327D02*
X50702264Y40858422D01*
X50702264Y40858422D02*
X50511788Y40858422D01*
X50511788Y40858422D02*
X50435597Y40896517D01*
X50054644Y40553660D02*
X50054644Y41086994D01*
X50054644Y40934613D02*
X50016549Y41010803D01*
X50016549Y41010803D02*
X49978454Y41048898D01*
X49978454Y41048898D02*
X49902263Y41086994D01*
X49902263Y41086994D02*
X49826073Y41086994D01*
X49216549Y40553660D02*
X49216549Y41353660D01*
X49216549Y40591755D02*
X49292740Y40553660D01*
X49292740Y40553660D02*
X49445121Y40553660D01*
X49445121Y40553660D02*
X49521311Y40591755D01*
X49521311Y40591755D02*
X49559406Y40629851D01*
X49559406Y40629851D02*
X49597502Y40706041D01*
X49597502Y40706041D02*
X49597502Y40934613D01*
X49597502Y40934613D02*
X49559406Y41010803D01*
X49559406Y41010803D02*
X49521311Y41048898D01*
X49521311Y41048898D02*
X49445121Y41086994D01*
X49445121Y41086994D02*
X49292740Y41086994D01*
X49292740Y41086994D02*
X49216549Y41048898D01*
X62930839Y39265705D02*
X62930839Y40065705D01*
X62930839Y40065705D02*
X62626077Y40065705D01*
X62626077Y40065705D02*
X62549887Y40027610D01*
X62549887Y40027610D02*
X62511792Y39989515D01*
X62511792Y39989515D02*
X62473696Y39913324D01*
X62473696Y39913324D02*
X62473696Y39799039D01*
X62473696Y39799039D02*
X62511792Y39722848D01*
X62511792Y39722848D02*
X62549887Y39684753D01*
X62549887Y39684753D02*
X62626077Y39646658D01*
X62626077Y39646658D02*
X62930839Y39646658D01*
X61673696Y39341896D02*
X61711792Y39303800D01*
X61711792Y39303800D02*
X61826077Y39265705D01*
X61826077Y39265705D02*
X61902268Y39265705D01*
X61902268Y39265705D02*
X62016554Y39303800D01*
X62016554Y39303800D02*
X62092744Y39379991D01*
X62092744Y39379991D02*
X62130839Y39456181D01*
X62130839Y39456181D02*
X62168935Y39608562D01*
X62168935Y39608562D02*
X62168935Y39722848D01*
X62168935Y39722848D02*
X62130839Y39875229D01*
X62130839Y39875229D02*
X62092744Y39951420D01*
X62092744Y39951420D02*
X62016554Y40027610D01*
X62016554Y40027610D02*
X61902268Y40065705D01*
X61902268Y40065705D02*
X61826077Y40065705D01*
X61826077Y40065705D02*
X61711792Y40027610D01*
X61711792Y40027610D02*
X61673696Y39989515D01*
X61064173Y39684753D02*
X60949887Y39646658D01*
X60949887Y39646658D02*
X60911792Y39608562D01*
X60911792Y39608562D02*
X60873696Y39532372D01*
X60873696Y39532372D02*
X60873696Y39418086D01*
X60873696Y39418086D02*
X60911792Y39341896D01*
X60911792Y39341896D02*
X60949887Y39303800D01*
X60949887Y39303800D02*
X61026077Y39265705D01*
X61026077Y39265705D02*
X61330839Y39265705D01*
X61330839Y39265705D02*
X61330839Y40065705D01*
X61330839Y40065705D02*
X61064173Y40065705D01*
X61064173Y40065705D02*
X60987982Y40027610D01*
X60987982Y40027610D02*
X60949887Y39989515D01*
X60949887Y39989515D02*
X60911792Y39913324D01*
X60911792Y39913324D02*
X60911792Y39837134D01*
X60911792Y39837134D02*
X60949887Y39760943D01*
X60949887Y39760943D02*
X60987982Y39722848D01*
X60987982Y39722848D02*
X61064173Y39684753D01*
X61064173Y39684753D02*
X61330839Y39684753D01*
X60530839Y39341896D02*
X60492744Y39303800D01*
X60492744Y39303800D02*
X60530839Y39265705D01*
X60530839Y39265705D02*
X60568935Y39303800D01*
X60568935Y39303800D02*
X60530839Y39341896D01*
X60530839Y39341896D02*
X60530839Y39265705D01*
X60530839Y39760943D02*
X60492744Y39722848D01*
X60492744Y39722848D02*
X60530839Y39684753D01*
X60530839Y39684753D02*
X60568935Y39722848D01*
X60568935Y39722848D02*
X60530839Y39760943D01*
X60530839Y39760943D02*
X60530839Y39684753D01*
X59121316Y39265705D02*
X59578459Y39265705D01*
X59349887Y39265705D02*
X59349887Y40065705D01*
X59349887Y40065705D02*
X59426078Y39951420D01*
X59426078Y39951420D02*
X59502268Y39875229D01*
X59502268Y39875229D02*
X59578459Y39837134D01*
X58778458Y39341896D02*
X58740363Y39303800D01*
X58740363Y39303800D02*
X58778458Y39265705D01*
X58778458Y39265705D02*
X58816554Y39303800D01*
X58816554Y39303800D02*
X58778458Y39341896D01*
X58778458Y39341896D02*
X58778458Y39265705D01*
X58245125Y40065705D02*
X58168935Y40065705D01*
X58168935Y40065705D02*
X58092744Y40027610D01*
X58092744Y40027610D02*
X58054649Y39989515D01*
X58054649Y39989515D02*
X58016554Y39913324D01*
X58016554Y39913324D02*
X57978459Y39760943D01*
X57978459Y39760943D02*
X57978459Y39570467D01*
X57978459Y39570467D02*
X58016554Y39418086D01*
X58016554Y39418086D02*
X58054649Y39341896D01*
X58054649Y39341896D02*
X58092744Y39303800D01*
X58092744Y39303800D02*
X58168935Y39265705D01*
X58168935Y39265705D02*
X58245125Y39265705D01*
X58245125Y39265705D02*
X58321316Y39303800D01*
X58321316Y39303800D02*
X58359411Y39341896D01*
X58359411Y39341896D02*
X58397506Y39418086D01*
X58397506Y39418086D02*
X58435602Y39570467D01*
X58435602Y39570467D02*
X58435602Y39760943D01*
X58435602Y39760943D02*
X58397506Y39913324D01*
X58397506Y39913324D02*
X58359411Y39989515D01*
X58359411Y39989515D02*
X58321316Y40027610D01*
X58321316Y40027610D02*
X58245125Y40065705D01*
X57635601Y39341896D02*
X57597506Y39303800D01*
X57597506Y39303800D02*
X57635601Y39265705D01*
X57635601Y39265705D02*
X57673697Y39303800D01*
X57673697Y39303800D02*
X57635601Y39341896D01*
X57635601Y39341896D02*
X57635601Y39265705D01*
X56835602Y39265705D02*
X57292745Y39265705D01*
X57064173Y39265705D02*
X57064173Y40065705D01*
X57064173Y40065705D02*
X57140364Y39951420D01*
X57140364Y39951420D02*
X57216554Y39875229D01*
X57216554Y39875229D02*
X57292745Y39837134D01*
X56492744Y39570467D02*
X55883221Y39570467D01*
X55045125Y39265705D02*
X55311792Y39646658D01*
X55502268Y39265705D02*
X55502268Y40065705D01*
X55502268Y40065705D02*
X55197506Y40065705D01*
X55197506Y40065705D02*
X55121316Y40027610D01*
X55121316Y40027610D02*
X55083221Y39989515D01*
X55083221Y39989515D02*
X55045125Y39913324D01*
X55045125Y39913324D02*
X55045125Y39799039D01*
X55045125Y39799039D02*
X55083221Y39722848D01*
X55083221Y39722848D02*
X55121316Y39684753D01*
X55121316Y39684753D02*
X55197506Y39646658D01*
X55197506Y39646658D02*
X55502268Y39646658D01*
X54245125Y39341896D02*
X54283221Y39303800D01*
X54283221Y39303800D02*
X54397506Y39265705D01*
X54397506Y39265705D02*
X54473697Y39265705D01*
X54473697Y39265705D02*
X54587983Y39303800D01*
X54587983Y39303800D02*
X54664173Y39379991D01*
X54664173Y39379991D02*
X54702268Y39456181D01*
X54702268Y39456181D02*
X54740364Y39608562D01*
X54740364Y39608562D02*
X54740364Y39722848D01*
X54740364Y39722848D02*
X54702268Y39875229D01*
X54702268Y39875229D02*
X54664173Y39951420D01*
X54664173Y39951420D02*
X54587983Y40027610D01*
X54587983Y40027610D02*
X54473697Y40065705D01*
X54473697Y40065705D02*
X54397506Y40065705D01*
X54397506Y40065705D02*
X54283221Y40027610D01*
X54283221Y40027610D02*
X54245125Y39989515D01*
X52949887Y40065705D02*
X53102268Y40065705D01*
X53102268Y40065705D02*
X53178459Y40027610D01*
X53178459Y40027610D02*
X53216554Y39989515D01*
X53216554Y39989515D02*
X53292744Y39875229D01*
X53292744Y39875229D02*
X53330840Y39722848D01*
X53330840Y39722848D02*
X53330840Y39418086D01*
X53330840Y39418086D02*
X53292744Y39341896D01*
X53292744Y39341896D02*
X53254649Y39303800D01*
X53254649Y39303800D02*
X53178459Y39265705D01*
X53178459Y39265705D02*
X53026078Y39265705D01*
X53026078Y39265705D02*
X52949887Y39303800D01*
X52949887Y39303800D02*
X52911792Y39341896D01*
X52911792Y39341896D02*
X52873697Y39418086D01*
X52873697Y39418086D02*
X52873697Y39608562D01*
X52873697Y39608562D02*
X52911792Y39684753D01*
X52911792Y39684753D02*
X52949887Y39722848D01*
X52949887Y39722848D02*
X53026078Y39760943D01*
X53026078Y39760943D02*
X53178459Y39760943D01*
X53178459Y39760943D02*
X53254649Y39722848D01*
X53254649Y39722848D02*
X53292744Y39684753D01*
X53292744Y39684753D02*
X53330840Y39608562D01*
X52492744Y39265705D02*
X52340363Y39265705D01*
X52340363Y39265705D02*
X52264173Y39303800D01*
X52264173Y39303800D02*
X52226077Y39341896D01*
X52226077Y39341896D02*
X52149887Y39456181D01*
X52149887Y39456181D02*
X52111792Y39608562D01*
X52111792Y39608562D02*
X52111792Y39913324D01*
X52111792Y39913324D02*
X52149887Y39989515D01*
X52149887Y39989515D02*
X52187982Y40027610D01*
X52187982Y40027610D02*
X52264173Y40065705D01*
X52264173Y40065705D02*
X52416554Y40065705D01*
X52416554Y40065705D02*
X52492744Y40027610D01*
X52492744Y40027610D02*
X52530839Y39989515D01*
X52530839Y39989515D02*
X52568935Y39913324D01*
X52568935Y39913324D02*
X52568935Y39722848D01*
X52568935Y39722848D02*
X52530839Y39646658D01*
X52530839Y39646658D02*
X52492744Y39608562D01*
X52492744Y39608562D02*
X52416554Y39570467D01*
X52416554Y39570467D02*
X52264173Y39570467D01*
X52264173Y39570467D02*
X52187982Y39608562D01*
X52187982Y39608562D02*
X52149887Y39646658D01*
X52149887Y39646658D02*
X52111792Y39722848D01*
X51768934Y39265705D02*
X51768934Y40065705D01*
X51768934Y39760943D02*
X51692744Y39799039D01*
X51692744Y39799039D02*
X51540363Y39799039D01*
X51540363Y39799039D02*
X51464172Y39760943D01*
X51464172Y39760943D02*
X51426077Y39722848D01*
X51426077Y39722848D02*
X51387982Y39646658D01*
X51387982Y39646658D02*
X51387982Y39418086D01*
X51387982Y39418086D02*
X51426077Y39341896D01*
X51426077Y39341896D02*
X51464172Y39303800D01*
X51464172Y39303800D02*
X51540363Y39265705D01*
X51540363Y39265705D02*
X51692744Y39265705D01*
X51692744Y39265705D02*
X51768934Y39303800D01*
X50740362Y39303800D02*
X50816553Y39265705D01*
X50816553Y39265705D02*
X50968934Y39265705D01*
X50968934Y39265705D02*
X51045124Y39303800D01*
X51045124Y39303800D02*
X51083220Y39379991D01*
X51083220Y39379991D02*
X51083220Y39684753D01*
X51083220Y39684753D02*
X51045124Y39760943D01*
X51045124Y39760943D02*
X50968934Y39799039D01*
X50968934Y39799039D02*
X50816553Y39799039D01*
X50816553Y39799039D02*
X50740362Y39760943D01*
X50740362Y39760943D02*
X50702267Y39684753D01*
X50702267Y39684753D02*
X50702267Y39608562D01*
X50702267Y39608562D02*
X51083220Y39532372D01*
X50435601Y40065705D02*
X49940363Y40065705D01*
X49940363Y40065705D02*
X50207029Y39760943D01*
X50207029Y39760943D02*
X50092744Y39760943D01*
X50092744Y39760943D02*
X50016553Y39722848D01*
X50016553Y39722848D02*
X49978458Y39684753D01*
X49978458Y39684753D02*
X49940363Y39608562D01*
X49940363Y39608562D02*
X49940363Y39418086D01*
X49940363Y39418086D02*
X49978458Y39341896D01*
X49978458Y39341896D02*
X50016553Y39303800D01*
X50016553Y39303800D02*
X50092744Y39265705D01*
X50092744Y39265705D02*
X50321315Y39265705D01*
X50321315Y39265705D02*
X50397506Y39303800D01*
X50397506Y39303800D02*
X50435601Y39341896D01*
X49292743Y39303800D02*
X49368934Y39265705D01*
X49368934Y39265705D02*
X49521315Y39265705D01*
X49521315Y39265705D02*
X49597505Y39303800D01*
X49597505Y39303800D02*
X49635601Y39379991D01*
X49635601Y39379991D02*
X49635601Y39684753D01*
X49635601Y39684753D02*
X49597505Y39760943D01*
X49597505Y39760943D02*
X49521315Y39799039D01*
X49521315Y39799039D02*
X49368934Y39799039D01*
X49368934Y39799039D02*
X49292743Y39760943D01*
X49292743Y39760943D02*
X49254648Y39684753D01*
X49254648Y39684753D02*
X49254648Y39608562D01*
X49254648Y39608562D02*
X49635601Y39532372D01*
X48873696Y39265705D02*
X48721315Y39265705D01*
X48721315Y39265705D02*
X48645125Y39303800D01*
X48645125Y39303800D02*
X48607029Y39341896D01*
X48607029Y39341896D02*
X48530839Y39456181D01*
X48530839Y39456181D02*
X48492744Y39608562D01*
X48492744Y39608562D02*
X48492744Y39913324D01*
X48492744Y39913324D02*
X48530839Y39989515D01*
X48530839Y39989515D02*
X48568934Y40027610D01*
X48568934Y40027610D02*
X48645125Y40065705D01*
X48645125Y40065705D02*
X48797506Y40065705D01*
X48797506Y40065705D02*
X48873696Y40027610D01*
X48873696Y40027610D02*
X48911791Y39989515D01*
X48911791Y39989515D02*
X48949887Y39913324D01*
X48949887Y39913324D02*
X48949887Y39722848D01*
X48949887Y39722848D02*
X48911791Y39646658D01*
X48911791Y39646658D02*
X48873696Y39608562D01*
X48873696Y39608562D02*
X48797506Y39570467D01*
X48797506Y39570467D02*
X48645125Y39570467D01*
X48645125Y39570467D02*
X48568934Y39608562D01*
X48568934Y39608562D02*
X48530839Y39646658D01*
X48530839Y39646658D02*
X48492744Y39722848D01*
X21003333Y13265181D02*
X21003333Y12550896D01*
X21003333Y12550896D02*
X21050952Y12408039D01*
X21050952Y12408039D02*
X21146190Y12312800D01*
X21146190Y12312800D02*
X21289047Y12265181D01*
X21289047Y12265181D02*
X21384285Y12265181D01*
X20622380Y13265181D02*
X20003333Y13265181D01*
X20003333Y13265181D02*
X20336666Y12884229D01*
X20336666Y12884229D02*
X20193809Y12884229D01*
X20193809Y12884229D02*
X20098571Y12836610D01*
X20098571Y12836610D02*
X20050952Y12788991D01*
X20050952Y12788991D02*
X20003333Y12693753D01*
X20003333Y12693753D02*
X20003333Y12455658D01*
X20003333Y12455658D02*
X20050952Y12360420D01*
X20050952Y12360420D02*
X20098571Y12312800D01*
X20098571Y12312800D02*
X20193809Y12265181D01*
X20193809Y12265181D02*
X20479523Y12265181D01*
X20479523Y12265181D02*
X20574761Y12312800D01*
X20574761Y12312800D02*
X20622380Y12360420D01*
X62453333Y12075181D02*
X62453333Y11360896D01*
X62453333Y11360896D02*
X62500952Y11218039D01*
X62500952Y11218039D02*
X62596190Y11122800D01*
X62596190Y11122800D02*
X62739047Y11075181D01*
X62739047Y11075181D02*
X62834285Y11075181D01*
X62024761Y11979943D02*
X61977142Y12027562D01*
X61977142Y12027562D02*
X61881904Y12075181D01*
X61881904Y12075181D02*
X61643809Y12075181D01*
X61643809Y12075181D02*
X61548571Y12027562D01*
X61548571Y12027562D02*
X61500952Y11979943D01*
X61500952Y11979943D02*
X61453333Y11884705D01*
X61453333Y11884705D02*
X61453333Y11789467D01*
X61453333Y11789467D02*
X61500952Y11646610D01*
X61500952Y11646610D02*
X62072380Y11075181D01*
X62072380Y11075181D02*
X61453333Y11075181D01*
D11*
X13510000Y16190000D02*
X13510000Y18790000D01*
X13510000Y13590000D02*
X13510000Y14920000D01*
X14840000Y13590000D02*
X13510000Y13590000D01*
X16110000Y16190000D02*
X13510000Y16190000D01*
X16110000Y13590000D02*
X16110000Y16190000D01*
X21250000Y18790000D02*
X13510000Y18790000D01*
X21250000Y13590000D02*
X16110000Y13590000D01*
X21250000Y13590000D02*
X21250000Y18790000D01*
X57820000Y20430000D02*
X59150000Y20430000D01*
X57820000Y19100000D02*
X57820000Y20430000D01*
X57820000Y17830000D02*
X60420000Y17830000D01*
X57820000Y12690000D02*
X57820000Y17830000D01*
X57820000Y12690000D02*
X63020000Y12690000D01*
X60420000Y20430000D02*
X63020000Y20430000D01*
X60420000Y17830000D02*
X60420000Y20430000D01*
X63020000Y12690000D02*
X63020000Y20430000D01*
M02*
