G04 #@! TF.GenerationSoftware,KiCad,Pcbnew,7.0.9-7.0.9~ubuntu23.04.1*
G04 #@! TF.CreationDate,2023-12-23T16:27:10+00:00*
G04 #@! TF.ProjectId,pedalboard-soundcard,70656461-6c62-46f6-9172-642d736f756e,0.0.1*
G04 #@! TF.SameCoordinates,Original*
G04 #@! TF.FileFunction,Legend,Top*
G04 #@! TF.FilePolarity,Positive*
%FSLAX46Y46*%
G04 Gerber Fmt 4.6, Leading zero omitted, Abs format (unit mm)*
G04 Created by KiCad (PCBNEW 7.0.9-7.0.9~ubuntu23.04.1) date 2023-12-23 16:27:10*
%MOMM*%
%LPD*%
G01*
G04 APERTURE LIST*
%ADD10C,0.150000*%
%ADD11C,0.120000*%
G04 APERTURE END LIST*
D10*
X7824819Y47975667D02*
X8539104Y47975667D01*
X8539104Y47975667D02*
X8681961Y47928048D01*
X8681961Y47928048D02*
X8777200Y47832810D01*
X8777200Y47832810D02*
X8824819Y47689953D01*
X8824819Y47689953D02*
X8824819Y47594715D01*
X8824819Y48975667D02*
X8824819Y48404239D01*
X8824819Y48689953D02*
X7824819Y48689953D01*
X7824819Y48689953D02*
X7967676Y48594715D01*
X7967676Y48594715D02*
X8062914Y48499477D01*
X8062914Y48499477D02*
X8110533Y48404239D01*
X37408333Y42670181D02*
X37075000Y43146372D01*
X36836905Y42670181D02*
X36836905Y43670181D01*
X36836905Y43670181D02*
X37217857Y43670181D01*
X37217857Y43670181D02*
X37313095Y43622562D01*
X37313095Y43622562D02*
X37360714Y43574943D01*
X37360714Y43574943D02*
X37408333Y43479705D01*
X37408333Y43479705D02*
X37408333Y43336848D01*
X37408333Y43336848D02*
X37360714Y43241610D01*
X37360714Y43241610D02*
X37313095Y43193991D01*
X37313095Y43193991D02*
X37217857Y43146372D01*
X37217857Y43146372D02*
X36836905Y43146372D01*
X37741667Y43670181D02*
X38408333Y43670181D01*
X38408333Y43670181D02*
X37979762Y42670181D01*
X36154819Y37132143D02*
X35678628Y36798810D01*
X36154819Y36560715D02*
X35154819Y36560715D01*
X35154819Y36560715D02*
X35154819Y36941667D01*
X35154819Y36941667D02*
X35202438Y37036905D01*
X35202438Y37036905D02*
X35250057Y37084524D01*
X35250057Y37084524D02*
X35345295Y37132143D01*
X35345295Y37132143D02*
X35488152Y37132143D01*
X35488152Y37132143D02*
X35583390Y37084524D01*
X35583390Y37084524D02*
X35631009Y37036905D01*
X35631009Y37036905D02*
X35678628Y36941667D01*
X35678628Y36941667D02*
X35678628Y36560715D01*
X35250057Y37513096D02*
X35202438Y37560715D01*
X35202438Y37560715D02*
X35154819Y37655953D01*
X35154819Y37655953D02*
X35154819Y37894048D01*
X35154819Y37894048D02*
X35202438Y37989286D01*
X35202438Y37989286D02*
X35250057Y38036905D01*
X35250057Y38036905D02*
X35345295Y38084524D01*
X35345295Y38084524D02*
X35440533Y38084524D01*
X35440533Y38084524D02*
X35583390Y38036905D01*
X35583390Y38036905D02*
X36154819Y37465477D01*
X36154819Y37465477D02*
X36154819Y38084524D01*
X35154819Y38989286D02*
X35154819Y38513096D01*
X35154819Y38513096D02*
X35631009Y38465477D01*
X35631009Y38465477D02*
X35583390Y38513096D01*
X35583390Y38513096D02*
X35535771Y38608334D01*
X35535771Y38608334D02*
X35535771Y38846429D01*
X35535771Y38846429D02*
X35583390Y38941667D01*
X35583390Y38941667D02*
X35631009Y38989286D01*
X35631009Y38989286D02*
X35726247Y39036905D01*
X35726247Y39036905D02*
X35964342Y39036905D01*
X35964342Y39036905D02*
X36059580Y38989286D01*
X36059580Y38989286D02*
X36107200Y38941667D01*
X36107200Y38941667D02*
X36154819Y38846429D01*
X36154819Y38846429D02*
X36154819Y38608334D01*
X36154819Y38608334D02*
X36107200Y38513096D01*
X36107200Y38513096D02*
X36059580Y38465477D01*
X52534580Y10207143D02*
X52582200Y10159524D01*
X52582200Y10159524D02*
X52629819Y10016667D01*
X52629819Y10016667D02*
X52629819Y9921429D01*
X52629819Y9921429D02*
X52582200Y9778572D01*
X52582200Y9778572D02*
X52486961Y9683334D01*
X52486961Y9683334D02*
X52391723Y9635715D01*
X52391723Y9635715D02*
X52201247Y9588096D01*
X52201247Y9588096D02*
X52058390Y9588096D01*
X52058390Y9588096D02*
X51867914Y9635715D01*
X51867914Y9635715D02*
X51772676Y9683334D01*
X51772676Y9683334D02*
X51677438Y9778572D01*
X51677438Y9778572D02*
X51629819Y9921429D01*
X51629819Y9921429D02*
X51629819Y10016667D01*
X51629819Y10016667D02*
X51677438Y10159524D01*
X51677438Y10159524D02*
X51725057Y10207143D01*
X51725057Y10588096D02*
X51677438Y10635715D01*
X51677438Y10635715D02*
X51629819Y10730953D01*
X51629819Y10730953D02*
X51629819Y10969048D01*
X51629819Y10969048D02*
X51677438Y11064286D01*
X51677438Y11064286D02*
X51725057Y11111905D01*
X51725057Y11111905D02*
X51820295Y11159524D01*
X51820295Y11159524D02*
X51915533Y11159524D01*
X51915533Y11159524D02*
X52058390Y11111905D01*
X52058390Y11111905D02*
X52629819Y10540477D01*
X52629819Y10540477D02*
X52629819Y11159524D01*
X52629819Y12111905D02*
X52629819Y11540477D01*
X52629819Y11826191D02*
X51629819Y11826191D01*
X51629819Y11826191D02*
X51772676Y11730953D01*
X51772676Y11730953D02*
X51867914Y11635715D01*
X51867914Y11635715D02*
X51915533Y11540477D01*
X30254819Y33640477D02*
X31254819Y34307143D01*
X30254819Y34307143D02*
X31254819Y33640477D01*
X31254819Y35211905D02*
X31254819Y34640477D01*
X31254819Y34926191D02*
X30254819Y34926191D01*
X30254819Y34926191D02*
X30397676Y34830953D01*
X30397676Y34830953D02*
X30492914Y34735715D01*
X30492914Y34735715D02*
X30540533Y34640477D01*
X20754819Y43888096D02*
X21564342Y43888096D01*
X21564342Y43888096D02*
X21659580Y43935715D01*
X21659580Y43935715D02*
X21707200Y43983334D01*
X21707200Y43983334D02*
X21754819Y44078572D01*
X21754819Y44078572D02*
X21754819Y44269048D01*
X21754819Y44269048D02*
X21707200Y44364286D01*
X21707200Y44364286D02*
X21659580Y44411905D01*
X21659580Y44411905D02*
X21564342Y44459524D01*
X21564342Y44459524D02*
X20754819Y44459524D01*
X20850057Y44888096D02*
X20802438Y44935715D01*
X20802438Y44935715D02*
X20754819Y45030953D01*
X20754819Y45030953D02*
X20754819Y45269048D01*
X20754819Y45269048D02*
X20802438Y45364286D01*
X20802438Y45364286D02*
X20850057Y45411905D01*
X20850057Y45411905D02*
X20945295Y45459524D01*
X20945295Y45459524D02*
X21040533Y45459524D01*
X21040533Y45459524D02*
X21183390Y45411905D01*
X21183390Y45411905D02*
X21754819Y44840477D01*
X21754819Y44840477D02*
X21754819Y45459524D01*
X52754819Y13382143D02*
X52278628Y13048810D01*
X52754819Y12810715D02*
X51754819Y12810715D01*
X51754819Y12810715D02*
X51754819Y13191667D01*
X51754819Y13191667D02*
X51802438Y13286905D01*
X51802438Y13286905D02*
X51850057Y13334524D01*
X51850057Y13334524D02*
X51945295Y13382143D01*
X51945295Y13382143D02*
X52088152Y13382143D01*
X52088152Y13382143D02*
X52183390Y13334524D01*
X52183390Y13334524D02*
X52231009Y13286905D01*
X52231009Y13286905D02*
X52278628Y13191667D01*
X52278628Y13191667D02*
X52278628Y12810715D01*
X52754819Y14334524D02*
X52754819Y13763096D01*
X52754819Y14048810D02*
X51754819Y14048810D01*
X51754819Y14048810D02*
X51897676Y13953572D01*
X51897676Y13953572D02*
X51992914Y13858334D01*
X51992914Y13858334D02*
X52040533Y13763096D01*
X51754819Y15191667D02*
X51754819Y15001191D01*
X51754819Y15001191D02*
X51802438Y14905953D01*
X51802438Y14905953D02*
X51850057Y14858334D01*
X51850057Y14858334D02*
X51992914Y14763096D01*
X51992914Y14763096D02*
X52183390Y14715477D01*
X52183390Y14715477D02*
X52564342Y14715477D01*
X52564342Y14715477D02*
X52659580Y14763096D01*
X52659580Y14763096D02*
X52707200Y14810715D01*
X52707200Y14810715D02*
X52754819Y14905953D01*
X52754819Y14905953D02*
X52754819Y15096429D01*
X52754819Y15096429D02*
X52707200Y15191667D01*
X52707200Y15191667D02*
X52659580Y15239286D01*
X52659580Y15239286D02*
X52564342Y15286905D01*
X52564342Y15286905D02*
X52326247Y15286905D01*
X52326247Y15286905D02*
X52231009Y15239286D01*
X52231009Y15239286D02*
X52183390Y15191667D01*
X52183390Y15191667D02*
X52135771Y15096429D01*
X52135771Y15096429D02*
X52135771Y14905953D01*
X52135771Y14905953D02*
X52183390Y14810715D01*
X52183390Y14810715D02*
X52231009Y14763096D01*
X52231009Y14763096D02*
X52326247Y14715477D01*
X13333333Y12390420D02*
X13285714Y12342800D01*
X13285714Y12342800D02*
X13142857Y12295181D01*
X13142857Y12295181D02*
X13047619Y12295181D01*
X13047619Y12295181D02*
X12904762Y12342800D01*
X12904762Y12342800D02*
X12809524Y12438039D01*
X12809524Y12438039D02*
X12761905Y12533277D01*
X12761905Y12533277D02*
X12714286Y12723753D01*
X12714286Y12723753D02*
X12714286Y12866610D01*
X12714286Y12866610D02*
X12761905Y13057086D01*
X12761905Y13057086D02*
X12809524Y13152324D01*
X12809524Y13152324D02*
X12904762Y13247562D01*
X12904762Y13247562D02*
X13047619Y13295181D01*
X13047619Y13295181D02*
X13142857Y13295181D01*
X13142857Y13295181D02*
X13285714Y13247562D01*
X13285714Y13247562D02*
X13333333Y13199943D01*
X13666667Y13295181D02*
X14285714Y13295181D01*
X14285714Y13295181D02*
X13952381Y12914229D01*
X13952381Y12914229D02*
X14095238Y12914229D01*
X14095238Y12914229D02*
X14190476Y12866610D01*
X14190476Y12866610D02*
X14238095Y12818991D01*
X14238095Y12818991D02*
X14285714Y12723753D01*
X14285714Y12723753D02*
X14285714Y12485658D01*
X14285714Y12485658D02*
X14238095Y12390420D01*
X14238095Y12390420D02*
X14190476Y12342800D01*
X14190476Y12342800D02*
X14095238Y12295181D01*
X14095238Y12295181D02*
X13809524Y12295181D01*
X13809524Y12295181D02*
X13714286Y12342800D01*
X13714286Y12342800D02*
X13666667Y12390420D01*
X18259580Y35882143D02*
X18307200Y35834524D01*
X18307200Y35834524D02*
X18354819Y35691667D01*
X18354819Y35691667D02*
X18354819Y35596429D01*
X18354819Y35596429D02*
X18307200Y35453572D01*
X18307200Y35453572D02*
X18211961Y35358334D01*
X18211961Y35358334D02*
X18116723Y35310715D01*
X18116723Y35310715D02*
X17926247Y35263096D01*
X17926247Y35263096D02*
X17783390Y35263096D01*
X17783390Y35263096D02*
X17592914Y35310715D01*
X17592914Y35310715D02*
X17497676Y35358334D01*
X17497676Y35358334D02*
X17402438Y35453572D01*
X17402438Y35453572D02*
X17354819Y35596429D01*
X17354819Y35596429D02*
X17354819Y35691667D01*
X17354819Y35691667D02*
X17402438Y35834524D01*
X17402438Y35834524D02*
X17450057Y35882143D01*
X18354819Y36834524D02*
X18354819Y36263096D01*
X18354819Y36548810D02*
X17354819Y36548810D01*
X17354819Y36548810D02*
X17497676Y36453572D01*
X17497676Y36453572D02*
X17592914Y36358334D01*
X17592914Y36358334D02*
X17640533Y36263096D01*
X17354819Y37691667D02*
X17354819Y37501191D01*
X17354819Y37501191D02*
X17402438Y37405953D01*
X17402438Y37405953D02*
X17450057Y37358334D01*
X17450057Y37358334D02*
X17592914Y37263096D01*
X17592914Y37263096D02*
X17783390Y37215477D01*
X17783390Y37215477D02*
X18164342Y37215477D01*
X18164342Y37215477D02*
X18259580Y37263096D01*
X18259580Y37263096D02*
X18307200Y37310715D01*
X18307200Y37310715D02*
X18354819Y37405953D01*
X18354819Y37405953D02*
X18354819Y37596429D01*
X18354819Y37596429D02*
X18307200Y37691667D01*
X18307200Y37691667D02*
X18259580Y37739286D01*
X18259580Y37739286D02*
X18164342Y37786905D01*
X18164342Y37786905D02*
X17926247Y37786905D01*
X17926247Y37786905D02*
X17831009Y37739286D01*
X17831009Y37739286D02*
X17783390Y37691667D01*
X17783390Y37691667D02*
X17735771Y37596429D01*
X17735771Y37596429D02*
X17735771Y37405953D01*
X17735771Y37405953D02*
X17783390Y37310715D01*
X17783390Y37310715D02*
X17831009Y37263096D01*
X17831009Y37263096D02*
X17926247Y37215477D01*
X33057142Y29615420D02*
X33009523Y29567800D01*
X33009523Y29567800D02*
X32866666Y29520181D01*
X32866666Y29520181D02*
X32771428Y29520181D01*
X32771428Y29520181D02*
X32628571Y29567800D01*
X32628571Y29567800D02*
X32533333Y29663039D01*
X32533333Y29663039D02*
X32485714Y29758277D01*
X32485714Y29758277D02*
X32438095Y29948753D01*
X32438095Y29948753D02*
X32438095Y30091610D01*
X32438095Y30091610D02*
X32485714Y30282086D01*
X32485714Y30282086D02*
X32533333Y30377324D01*
X32533333Y30377324D02*
X32628571Y30472562D01*
X32628571Y30472562D02*
X32771428Y30520181D01*
X32771428Y30520181D02*
X32866666Y30520181D01*
X32866666Y30520181D02*
X33009523Y30472562D01*
X33009523Y30472562D02*
X33057142Y30424943D01*
X33390476Y30520181D02*
X34009523Y30520181D01*
X34009523Y30520181D02*
X33676190Y30139229D01*
X33676190Y30139229D02*
X33819047Y30139229D01*
X33819047Y30139229D02*
X33914285Y30091610D01*
X33914285Y30091610D02*
X33961904Y30043991D01*
X33961904Y30043991D02*
X34009523Y29948753D01*
X34009523Y29948753D02*
X34009523Y29710658D01*
X34009523Y29710658D02*
X33961904Y29615420D01*
X33961904Y29615420D02*
X33914285Y29567800D01*
X33914285Y29567800D02*
X33819047Y29520181D01*
X33819047Y29520181D02*
X33533333Y29520181D01*
X33533333Y29520181D02*
X33438095Y29567800D01*
X33438095Y29567800D02*
X33390476Y29615420D01*
X34390476Y30424943D02*
X34438095Y30472562D01*
X34438095Y30472562D02*
X34533333Y30520181D01*
X34533333Y30520181D02*
X34771428Y30520181D01*
X34771428Y30520181D02*
X34866666Y30472562D01*
X34866666Y30472562D02*
X34914285Y30424943D01*
X34914285Y30424943D02*
X34961904Y30329705D01*
X34961904Y30329705D02*
X34961904Y30234467D01*
X34961904Y30234467D02*
X34914285Y30091610D01*
X34914285Y30091610D02*
X34342857Y29520181D01*
X34342857Y29520181D02*
X34961904Y29520181D01*
X43658333Y45870181D02*
X43325000Y46346372D01*
X43086905Y45870181D02*
X43086905Y46870181D01*
X43086905Y46870181D02*
X43467857Y46870181D01*
X43467857Y46870181D02*
X43563095Y46822562D01*
X43563095Y46822562D02*
X43610714Y46774943D01*
X43610714Y46774943D02*
X43658333Y46679705D01*
X43658333Y46679705D02*
X43658333Y46536848D01*
X43658333Y46536848D02*
X43610714Y46441610D01*
X43610714Y46441610D02*
X43563095Y46393991D01*
X43563095Y46393991D02*
X43467857Y46346372D01*
X43467857Y46346372D02*
X43086905Y46346372D01*
X44563095Y46870181D02*
X44086905Y46870181D01*
X44086905Y46870181D02*
X44039286Y46393991D01*
X44039286Y46393991D02*
X44086905Y46441610D01*
X44086905Y46441610D02*
X44182143Y46489229D01*
X44182143Y46489229D02*
X44420238Y46489229D01*
X44420238Y46489229D02*
X44515476Y46441610D01*
X44515476Y46441610D02*
X44563095Y46393991D01*
X44563095Y46393991D02*
X44610714Y46298753D01*
X44610714Y46298753D02*
X44610714Y46060658D01*
X44610714Y46060658D02*
X44563095Y45965420D01*
X44563095Y45965420D02*
X44515476Y45917800D01*
X44515476Y45917800D02*
X44420238Y45870181D01*
X44420238Y45870181D02*
X44182143Y45870181D01*
X44182143Y45870181D02*
X44086905Y45917800D01*
X44086905Y45917800D02*
X44039286Y45965420D01*
X30507142Y44495181D02*
X30173809Y44971372D01*
X29935714Y44495181D02*
X29935714Y45495181D01*
X29935714Y45495181D02*
X30316666Y45495181D01*
X30316666Y45495181D02*
X30411904Y45447562D01*
X30411904Y45447562D02*
X30459523Y45399943D01*
X30459523Y45399943D02*
X30507142Y45304705D01*
X30507142Y45304705D02*
X30507142Y45161848D01*
X30507142Y45161848D02*
X30459523Y45066610D01*
X30459523Y45066610D02*
X30411904Y45018991D01*
X30411904Y45018991D02*
X30316666Y44971372D01*
X30316666Y44971372D02*
X29935714Y44971372D01*
X31459523Y44495181D02*
X30888095Y44495181D01*
X31173809Y44495181D02*
X31173809Y45495181D01*
X31173809Y45495181D02*
X31078571Y45352324D01*
X31078571Y45352324D02*
X30983333Y45257086D01*
X30983333Y45257086D02*
X30888095Y45209467D01*
X32078571Y45495181D02*
X32173809Y45495181D01*
X32173809Y45495181D02*
X32269047Y45447562D01*
X32269047Y45447562D02*
X32316666Y45399943D01*
X32316666Y45399943D02*
X32364285Y45304705D01*
X32364285Y45304705D02*
X32411904Y45114229D01*
X32411904Y45114229D02*
X32411904Y44876134D01*
X32411904Y44876134D02*
X32364285Y44685658D01*
X32364285Y44685658D02*
X32316666Y44590420D01*
X32316666Y44590420D02*
X32269047Y44542800D01*
X32269047Y44542800D02*
X32173809Y44495181D01*
X32173809Y44495181D02*
X32078571Y44495181D01*
X32078571Y44495181D02*
X31983333Y44542800D01*
X31983333Y44542800D02*
X31935714Y44590420D01*
X31935714Y44590420D02*
X31888095Y44685658D01*
X31888095Y44685658D02*
X31840476Y44876134D01*
X31840476Y44876134D02*
X31840476Y45114229D01*
X31840476Y45114229D02*
X31888095Y45304705D01*
X31888095Y45304705D02*
X31935714Y45399943D01*
X31935714Y45399943D02*
X31983333Y45447562D01*
X31983333Y45447562D02*
X32078571Y45495181D01*
X36479819Y33715477D02*
X37479819Y34382143D01*
X36479819Y34382143D02*
X37479819Y33715477D01*
X36575057Y34715477D02*
X36527438Y34763096D01*
X36527438Y34763096D02*
X36479819Y34858334D01*
X36479819Y34858334D02*
X36479819Y35096429D01*
X36479819Y35096429D02*
X36527438Y35191667D01*
X36527438Y35191667D02*
X36575057Y35239286D01*
X36575057Y35239286D02*
X36670295Y35286905D01*
X36670295Y35286905D02*
X36765533Y35286905D01*
X36765533Y35286905D02*
X36908390Y35239286D01*
X36908390Y35239286D02*
X37479819Y34667858D01*
X37479819Y34667858D02*
X37479819Y35286905D01*
X46504819Y26186906D02*
X45504819Y26186906D01*
X45504819Y26186906D02*
X45504819Y26425001D01*
X45504819Y26425001D02*
X45552438Y26567858D01*
X45552438Y26567858D02*
X45647676Y26663096D01*
X45647676Y26663096D02*
X45742914Y26710715D01*
X45742914Y26710715D02*
X45933390Y26758334D01*
X45933390Y26758334D02*
X46076247Y26758334D01*
X46076247Y26758334D02*
X46266723Y26710715D01*
X46266723Y26710715D02*
X46361961Y26663096D01*
X46361961Y26663096D02*
X46457200Y26567858D01*
X46457200Y26567858D02*
X46504819Y26425001D01*
X46504819Y26425001D02*
X46504819Y26186906D01*
X45600057Y27139287D02*
X45552438Y27186906D01*
X45552438Y27186906D02*
X45504819Y27282144D01*
X45504819Y27282144D02*
X45504819Y27520239D01*
X45504819Y27520239D02*
X45552438Y27615477D01*
X45552438Y27615477D02*
X45600057Y27663096D01*
X45600057Y27663096D02*
X45695295Y27710715D01*
X45695295Y27710715D02*
X45790533Y27710715D01*
X45790533Y27710715D02*
X45933390Y27663096D01*
X45933390Y27663096D02*
X46504819Y27091668D01*
X46504819Y27091668D02*
X46504819Y27710715D01*
X21009580Y21457143D02*
X21057200Y21409524D01*
X21057200Y21409524D02*
X21104819Y21266667D01*
X21104819Y21266667D02*
X21104819Y21171429D01*
X21104819Y21171429D02*
X21057200Y21028572D01*
X21057200Y21028572D02*
X20961961Y20933334D01*
X20961961Y20933334D02*
X20866723Y20885715D01*
X20866723Y20885715D02*
X20676247Y20838096D01*
X20676247Y20838096D02*
X20533390Y20838096D01*
X20533390Y20838096D02*
X20342914Y20885715D01*
X20342914Y20885715D02*
X20247676Y20933334D01*
X20247676Y20933334D02*
X20152438Y21028572D01*
X20152438Y21028572D02*
X20104819Y21171429D01*
X20104819Y21171429D02*
X20104819Y21266667D01*
X20104819Y21266667D02*
X20152438Y21409524D01*
X20152438Y21409524D02*
X20200057Y21457143D01*
X21104819Y22409524D02*
X21104819Y21838096D01*
X21104819Y22123810D02*
X20104819Y22123810D01*
X20104819Y22123810D02*
X20247676Y22028572D01*
X20247676Y22028572D02*
X20342914Y21933334D01*
X20342914Y21933334D02*
X20390533Y21838096D01*
X20438152Y23266667D02*
X21104819Y23266667D01*
X20057200Y23028572D02*
X20771485Y22790477D01*
X20771485Y22790477D02*
X20771485Y23409524D01*
X40157142Y13445420D02*
X40109523Y13397800D01*
X40109523Y13397800D02*
X39966666Y13350181D01*
X39966666Y13350181D02*
X39871428Y13350181D01*
X39871428Y13350181D02*
X39728571Y13397800D01*
X39728571Y13397800D02*
X39633333Y13493039D01*
X39633333Y13493039D02*
X39585714Y13588277D01*
X39585714Y13588277D02*
X39538095Y13778753D01*
X39538095Y13778753D02*
X39538095Y13921610D01*
X39538095Y13921610D02*
X39585714Y14112086D01*
X39585714Y14112086D02*
X39633333Y14207324D01*
X39633333Y14207324D02*
X39728571Y14302562D01*
X39728571Y14302562D02*
X39871428Y14350181D01*
X39871428Y14350181D02*
X39966666Y14350181D01*
X39966666Y14350181D02*
X40109523Y14302562D01*
X40109523Y14302562D02*
X40157142Y14254943D01*
X40538095Y14254943D02*
X40585714Y14302562D01*
X40585714Y14302562D02*
X40680952Y14350181D01*
X40680952Y14350181D02*
X40919047Y14350181D01*
X40919047Y14350181D02*
X41014285Y14302562D01*
X41014285Y14302562D02*
X41061904Y14254943D01*
X41061904Y14254943D02*
X41109523Y14159705D01*
X41109523Y14159705D02*
X41109523Y14064467D01*
X41109523Y14064467D02*
X41061904Y13921610D01*
X41061904Y13921610D02*
X40490476Y13350181D01*
X40490476Y13350181D02*
X41109523Y13350181D01*
X41680952Y13921610D02*
X41585714Y13969229D01*
X41585714Y13969229D02*
X41538095Y14016848D01*
X41538095Y14016848D02*
X41490476Y14112086D01*
X41490476Y14112086D02*
X41490476Y14159705D01*
X41490476Y14159705D02*
X41538095Y14254943D01*
X41538095Y14254943D02*
X41585714Y14302562D01*
X41585714Y14302562D02*
X41680952Y14350181D01*
X41680952Y14350181D02*
X41871428Y14350181D01*
X41871428Y14350181D02*
X41966666Y14302562D01*
X41966666Y14302562D02*
X42014285Y14254943D01*
X42014285Y14254943D02*
X42061904Y14159705D01*
X42061904Y14159705D02*
X42061904Y14112086D01*
X42061904Y14112086D02*
X42014285Y14016848D01*
X42014285Y14016848D02*
X41966666Y13969229D01*
X41966666Y13969229D02*
X41871428Y13921610D01*
X41871428Y13921610D02*
X41680952Y13921610D01*
X41680952Y13921610D02*
X41585714Y13873991D01*
X41585714Y13873991D02*
X41538095Y13826372D01*
X41538095Y13826372D02*
X41490476Y13731134D01*
X41490476Y13731134D02*
X41490476Y13540658D01*
X41490476Y13540658D02*
X41538095Y13445420D01*
X41538095Y13445420D02*
X41585714Y13397800D01*
X41585714Y13397800D02*
X41680952Y13350181D01*
X41680952Y13350181D02*
X41871428Y13350181D01*
X41871428Y13350181D02*
X41966666Y13397800D01*
X41966666Y13397800D02*
X42014285Y13445420D01*
X42014285Y13445420D02*
X42061904Y13540658D01*
X42061904Y13540658D02*
X42061904Y13731134D01*
X42061904Y13731134D02*
X42014285Y13826372D01*
X42014285Y13826372D02*
X41966666Y13873991D01*
X41966666Y13873991D02*
X41871428Y13921610D01*
X15066666Y20095181D02*
X15066666Y19380896D01*
X15066666Y19380896D02*
X15019047Y19238039D01*
X15019047Y19238039D02*
X14923809Y19142800D01*
X14923809Y19142800D02*
X14780952Y19095181D01*
X14780952Y19095181D02*
X14685714Y19095181D01*
X15447619Y20095181D02*
X16066666Y20095181D01*
X16066666Y20095181D02*
X15733333Y19714229D01*
X15733333Y19714229D02*
X15876190Y19714229D01*
X15876190Y19714229D02*
X15971428Y19666610D01*
X15971428Y19666610D02*
X16019047Y19618991D01*
X16019047Y19618991D02*
X16066666Y19523753D01*
X16066666Y19523753D02*
X16066666Y19285658D01*
X16066666Y19285658D02*
X16019047Y19190420D01*
X16019047Y19190420D02*
X15971428Y19142800D01*
X15971428Y19142800D02*
X15876190Y19095181D01*
X15876190Y19095181D02*
X15590476Y19095181D01*
X15590476Y19095181D02*
X15495238Y19142800D01*
X15495238Y19142800D02*
X15447619Y19190420D01*
X20059580Y33457143D02*
X20107200Y33409524D01*
X20107200Y33409524D02*
X20154819Y33266667D01*
X20154819Y33266667D02*
X20154819Y33171429D01*
X20154819Y33171429D02*
X20107200Y33028572D01*
X20107200Y33028572D02*
X20011961Y32933334D01*
X20011961Y32933334D02*
X19916723Y32885715D01*
X19916723Y32885715D02*
X19726247Y32838096D01*
X19726247Y32838096D02*
X19583390Y32838096D01*
X19583390Y32838096D02*
X19392914Y32885715D01*
X19392914Y32885715D02*
X19297676Y32933334D01*
X19297676Y32933334D02*
X19202438Y33028572D01*
X19202438Y33028572D02*
X19154819Y33171429D01*
X19154819Y33171429D02*
X19154819Y33266667D01*
X19154819Y33266667D02*
X19202438Y33409524D01*
X19202438Y33409524D02*
X19250057Y33457143D01*
X20154819Y34409524D02*
X20154819Y33838096D01*
X20154819Y34123810D02*
X19154819Y34123810D01*
X19154819Y34123810D02*
X19297676Y34028572D01*
X19297676Y34028572D02*
X19392914Y33933334D01*
X19392914Y33933334D02*
X19440533Y33838096D01*
X20154819Y35361905D02*
X20154819Y34790477D01*
X20154819Y35076191D02*
X19154819Y35076191D01*
X19154819Y35076191D02*
X19297676Y34980953D01*
X19297676Y34980953D02*
X19392914Y34885715D01*
X19392914Y34885715D02*
X19440533Y34790477D01*
X20633333Y12215420D02*
X20585714Y12167800D01*
X20585714Y12167800D02*
X20442857Y12120181D01*
X20442857Y12120181D02*
X20347619Y12120181D01*
X20347619Y12120181D02*
X20204762Y12167800D01*
X20204762Y12167800D02*
X20109524Y12263039D01*
X20109524Y12263039D02*
X20061905Y12358277D01*
X20061905Y12358277D02*
X20014286Y12548753D01*
X20014286Y12548753D02*
X20014286Y12691610D01*
X20014286Y12691610D02*
X20061905Y12882086D01*
X20061905Y12882086D02*
X20109524Y12977324D01*
X20109524Y12977324D02*
X20204762Y13072562D01*
X20204762Y13072562D02*
X20347619Y13120181D01*
X20347619Y13120181D02*
X20442857Y13120181D01*
X20442857Y13120181D02*
X20585714Y13072562D01*
X20585714Y13072562D02*
X20633333Y13024943D01*
X21490476Y12786848D02*
X21490476Y12120181D01*
X21252381Y13167800D02*
X21014286Y12453515D01*
X21014286Y12453515D02*
X21633333Y12453515D01*
X21729819Y10057143D02*
X21253628Y9723810D01*
X21729819Y9485715D02*
X20729819Y9485715D01*
X20729819Y9485715D02*
X20729819Y9866667D01*
X20729819Y9866667D02*
X20777438Y9961905D01*
X20777438Y9961905D02*
X20825057Y10009524D01*
X20825057Y10009524D02*
X20920295Y10057143D01*
X20920295Y10057143D02*
X21063152Y10057143D01*
X21063152Y10057143D02*
X21158390Y10009524D01*
X21158390Y10009524D02*
X21206009Y9961905D01*
X21206009Y9961905D02*
X21253628Y9866667D01*
X21253628Y9866667D02*
X21253628Y9485715D01*
X21729819Y11009524D02*
X21729819Y10438096D01*
X21729819Y10723810D02*
X20729819Y10723810D01*
X20729819Y10723810D02*
X20872676Y10628572D01*
X20872676Y10628572D02*
X20967914Y10533334D01*
X20967914Y10533334D02*
X21015533Y10438096D01*
X21729819Y11961905D02*
X21729819Y11390477D01*
X21729819Y11676191D02*
X20729819Y11676191D01*
X20729819Y11676191D02*
X20872676Y11580953D01*
X20872676Y11580953D02*
X20967914Y11485715D01*
X20967914Y11485715D02*
X21015533Y11390477D01*
X26989580Y15783334D02*
X27037200Y15735715D01*
X27037200Y15735715D02*
X27084819Y15592858D01*
X27084819Y15592858D02*
X27084819Y15497620D01*
X27084819Y15497620D02*
X27037200Y15354763D01*
X27037200Y15354763D02*
X26941961Y15259525D01*
X26941961Y15259525D02*
X26846723Y15211906D01*
X26846723Y15211906D02*
X26656247Y15164287D01*
X26656247Y15164287D02*
X26513390Y15164287D01*
X26513390Y15164287D02*
X26322914Y15211906D01*
X26322914Y15211906D02*
X26227676Y15259525D01*
X26227676Y15259525D02*
X26132438Y15354763D01*
X26132438Y15354763D02*
X26084819Y15497620D01*
X26084819Y15497620D02*
X26084819Y15592858D01*
X26084819Y15592858D02*
X26132438Y15735715D01*
X26132438Y15735715D02*
X26180057Y15783334D01*
X26084819Y16116668D02*
X26084819Y16783334D01*
X26084819Y16783334D02*
X27084819Y16354763D01*
X46684580Y5832143D02*
X46732200Y5784524D01*
X46732200Y5784524D02*
X46779819Y5641667D01*
X46779819Y5641667D02*
X46779819Y5546429D01*
X46779819Y5546429D02*
X46732200Y5403572D01*
X46732200Y5403572D02*
X46636961Y5308334D01*
X46636961Y5308334D02*
X46541723Y5260715D01*
X46541723Y5260715D02*
X46351247Y5213096D01*
X46351247Y5213096D02*
X46208390Y5213096D01*
X46208390Y5213096D02*
X46017914Y5260715D01*
X46017914Y5260715D02*
X45922676Y5308334D01*
X45922676Y5308334D02*
X45827438Y5403572D01*
X45827438Y5403572D02*
X45779819Y5546429D01*
X45779819Y5546429D02*
X45779819Y5641667D01*
X45779819Y5641667D02*
X45827438Y5784524D01*
X45827438Y5784524D02*
X45875057Y5832143D01*
X45875057Y6213096D02*
X45827438Y6260715D01*
X45827438Y6260715D02*
X45779819Y6355953D01*
X45779819Y6355953D02*
X45779819Y6594048D01*
X45779819Y6594048D02*
X45827438Y6689286D01*
X45827438Y6689286D02*
X45875057Y6736905D01*
X45875057Y6736905D02*
X45970295Y6784524D01*
X45970295Y6784524D02*
X46065533Y6784524D01*
X46065533Y6784524D02*
X46208390Y6736905D01*
X46208390Y6736905D02*
X46779819Y6165477D01*
X46779819Y6165477D02*
X46779819Y6784524D01*
X46113152Y7641667D02*
X46779819Y7641667D01*
X45732200Y7403572D02*
X46446485Y7165477D01*
X46446485Y7165477D02*
X46446485Y7784524D01*
X21458333Y41040420D02*
X21410714Y40992800D01*
X21410714Y40992800D02*
X21267857Y40945181D01*
X21267857Y40945181D02*
X21172619Y40945181D01*
X21172619Y40945181D02*
X21029762Y40992800D01*
X21029762Y40992800D02*
X20934524Y41088039D01*
X20934524Y41088039D02*
X20886905Y41183277D01*
X20886905Y41183277D02*
X20839286Y41373753D01*
X20839286Y41373753D02*
X20839286Y41516610D01*
X20839286Y41516610D02*
X20886905Y41707086D01*
X20886905Y41707086D02*
X20934524Y41802324D01*
X20934524Y41802324D02*
X21029762Y41897562D01*
X21029762Y41897562D02*
X21172619Y41945181D01*
X21172619Y41945181D02*
X21267857Y41945181D01*
X21267857Y41945181D02*
X21410714Y41897562D01*
X21410714Y41897562D02*
X21458333Y41849943D01*
X22315476Y41945181D02*
X22125000Y41945181D01*
X22125000Y41945181D02*
X22029762Y41897562D01*
X22029762Y41897562D02*
X21982143Y41849943D01*
X21982143Y41849943D02*
X21886905Y41707086D01*
X21886905Y41707086D02*
X21839286Y41516610D01*
X21839286Y41516610D02*
X21839286Y41135658D01*
X21839286Y41135658D02*
X21886905Y41040420D01*
X21886905Y41040420D02*
X21934524Y40992800D01*
X21934524Y40992800D02*
X22029762Y40945181D01*
X22029762Y40945181D02*
X22220238Y40945181D01*
X22220238Y40945181D02*
X22315476Y40992800D01*
X22315476Y40992800D02*
X22363095Y41040420D01*
X22363095Y41040420D02*
X22410714Y41135658D01*
X22410714Y41135658D02*
X22410714Y41373753D01*
X22410714Y41373753D02*
X22363095Y41468991D01*
X22363095Y41468991D02*
X22315476Y41516610D01*
X22315476Y41516610D02*
X22220238Y41564229D01*
X22220238Y41564229D02*
X22029762Y41564229D01*
X22029762Y41564229D02*
X21934524Y41516610D01*
X21934524Y41516610D02*
X21886905Y41468991D01*
X21886905Y41468991D02*
X21839286Y41373753D01*
X52607142Y15895181D02*
X52273809Y16371372D01*
X52035714Y15895181D02*
X52035714Y16895181D01*
X52035714Y16895181D02*
X52416666Y16895181D01*
X52416666Y16895181D02*
X52511904Y16847562D01*
X52511904Y16847562D02*
X52559523Y16799943D01*
X52559523Y16799943D02*
X52607142Y16704705D01*
X52607142Y16704705D02*
X52607142Y16561848D01*
X52607142Y16561848D02*
X52559523Y16466610D01*
X52559523Y16466610D02*
X52511904Y16418991D01*
X52511904Y16418991D02*
X52416666Y16371372D01*
X52416666Y16371372D02*
X52035714Y16371372D01*
X53559523Y15895181D02*
X52988095Y15895181D01*
X53273809Y15895181D02*
X53273809Y16895181D01*
X53273809Y16895181D02*
X53178571Y16752324D01*
X53178571Y16752324D02*
X53083333Y16657086D01*
X53083333Y16657086D02*
X52988095Y16609467D01*
X54035714Y15895181D02*
X54226190Y15895181D01*
X54226190Y15895181D02*
X54321428Y15942800D01*
X54321428Y15942800D02*
X54369047Y15990420D01*
X54369047Y15990420D02*
X54464285Y16133277D01*
X54464285Y16133277D02*
X54511904Y16323753D01*
X54511904Y16323753D02*
X54511904Y16704705D01*
X54511904Y16704705D02*
X54464285Y16799943D01*
X54464285Y16799943D02*
X54416666Y16847562D01*
X54416666Y16847562D02*
X54321428Y16895181D01*
X54321428Y16895181D02*
X54130952Y16895181D01*
X54130952Y16895181D02*
X54035714Y16847562D01*
X54035714Y16847562D02*
X53988095Y16799943D01*
X53988095Y16799943D02*
X53940476Y16704705D01*
X53940476Y16704705D02*
X53940476Y16466610D01*
X53940476Y16466610D02*
X53988095Y16371372D01*
X53988095Y16371372D02*
X54035714Y16323753D01*
X54035714Y16323753D02*
X54130952Y16276134D01*
X54130952Y16276134D02*
X54321428Y16276134D01*
X54321428Y16276134D02*
X54416666Y16323753D01*
X54416666Y16323753D02*
X54464285Y16371372D01*
X54464285Y16371372D02*
X54511904Y16466610D01*
X39832142Y7840420D02*
X39784523Y7792800D01*
X39784523Y7792800D02*
X39641666Y7745181D01*
X39641666Y7745181D02*
X39546428Y7745181D01*
X39546428Y7745181D02*
X39403571Y7792800D01*
X39403571Y7792800D02*
X39308333Y7888039D01*
X39308333Y7888039D02*
X39260714Y7983277D01*
X39260714Y7983277D02*
X39213095Y8173753D01*
X39213095Y8173753D02*
X39213095Y8316610D01*
X39213095Y8316610D02*
X39260714Y8507086D01*
X39260714Y8507086D02*
X39308333Y8602324D01*
X39308333Y8602324D02*
X39403571Y8697562D01*
X39403571Y8697562D02*
X39546428Y8745181D01*
X39546428Y8745181D02*
X39641666Y8745181D01*
X39641666Y8745181D02*
X39784523Y8697562D01*
X39784523Y8697562D02*
X39832142Y8649943D01*
X40213095Y8649943D02*
X40260714Y8697562D01*
X40260714Y8697562D02*
X40355952Y8745181D01*
X40355952Y8745181D02*
X40594047Y8745181D01*
X40594047Y8745181D02*
X40689285Y8697562D01*
X40689285Y8697562D02*
X40736904Y8649943D01*
X40736904Y8649943D02*
X40784523Y8554705D01*
X40784523Y8554705D02*
X40784523Y8459467D01*
X40784523Y8459467D02*
X40736904Y8316610D01*
X40736904Y8316610D02*
X40165476Y7745181D01*
X40165476Y7745181D02*
X40784523Y7745181D01*
X41117857Y8745181D02*
X41736904Y8745181D01*
X41736904Y8745181D02*
X41403571Y8364229D01*
X41403571Y8364229D02*
X41546428Y8364229D01*
X41546428Y8364229D02*
X41641666Y8316610D01*
X41641666Y8316610D02*
X41689285Y8268991D01*
X41689285Y8268991D02*
X41736904Y8173753D01*
X41736904Y8173753D02*
X41736904Y7935658D01*
X41736904Y7935658D02*
X41689285Y7840420D01*
X41689285Y7840420D02*
X41641666Y7792800D01*
X41641666Y7792800D02*
X41546428Y7745181D01*
X41546428Y7745181D02*
X41260714Y7745181D01*
X41260714Y7745181D02*
X41165476Y7792800D01*
X41165476Y7792800D02*
X41117857Y7840420D01*
X20007142Y19295181D02*
X19673809Y19771372D01*
X19435714Y19295181D02*
X19435714Y20295181D01*
X19435714Y20295181D02*
X19816666Y20295181D01*
X19816666Y20295181D02*
X19911904Y20247562D01*
X19911904Y20247562D02*
X19959523Y20199943D01*
X19959523Y20199943D02*
X20007142Y20104705D01*
X20007142Y20104705D02*
X20007142Y19961848D01*
X20007142Y19961848D02*
X19959523Y19866610D01*
X19959523Y19866610D02*
X19911904Y19818991D01*
X19911904Y19818991D02*
X19816666Y19771372D01*
X19816666Y19771372D02*
X19435714Y19771372D01*
X20959523Y19295181D02*
X20388095Y19295181D01*
X20673809Y19295181D02*
X20673809Y20295181D01*
X20673809Y20295181D02*
X20578571Y20152324D01*
X20578571Y20152324D02*
X20483333Y20057086D01*
X20483333Y20057086D02*
X20388095Y20009467D01*
X21340476Y20199943D02*
X21388095Y20247562D01*
X21388095Y20247562D02*
X21483333Y20295181D01*
X21483333Y20295181D02*
X21721428Y20295181D01*
X21721428Y20295181D02*
X21816666Y20247562D01*
X21816666Y20247562D02*
X21864285Y20199943D01*
X21864285Y20199943D02*
X21911904Y20104705D01*
X21911904Y20104705D02*
X21911904Y20009467D01*
X21911904Y20009467D02*
X21864285Y19866610D01*
X21864285Y19866610D02*
X21292857Y19295181D01*
X21292857Y19295181D02*
X21911904Y19295181D01*
X28958333Y27990420D02*
X28910714Y27942800D01*
X28910714Y27942800D02*
X28767857Y27895181D01*
X28767857Y27895181D02*
X28672619Y27895181D01*
X28672619Y27895181D02*
X28529762Y27942800D01*
X28529762Y27942800D02*
X28434524Y28038039D01*
X28434524Y28038039D02*
X28386905Y28133277D01*
X28386905Y28133277D02*
X28339286Y28323753D01*
X28339286Y28323753D02*
X28339286Y28466610D01*
X28339286Y28466610D02*
X28386905Y28657086D01*
X28386905Y28657086D02*
X28434524Y28752324D01*
X28434524Y28752324D02*
X28529762Y28847562D01*
X28529762Y28847562D02*
X28672619Y28895181D01*
X28672619Y28895181D02*
X28767857Y28895181D01*
X28767857Y28895181D02*
X28910714Y28847562D01*
X28910714Y28847562D02*
X28958333Y28799943D01*
X29434524Y27895181D02*
X29625000Y27895181D01*
X29625000Y27895181D02*
X29720238Y27942800D01*
X29720238Y27942800D02*
X29767857Y27990420D01*
X29767857Y27990420D02*
X29863095Y28133277D01*
X29863095Y28133277D02*
X29910714Y28323753D01*
X29910714Y28323753D02*
X29910714Y28704705D01*
X29910714Y28704705D02*
X29863095Y28799943D01*
X29863095Y28799943D02*
X29815476Y28847562D01*
X29815476Y28847562D02*
X29720238Y28895181D01*
X29720238Y28895181D02*
X29529762Y28895181D01*
X29529762Y28895181D02*
X29434524Y28847562D01*
X29434524Y28847562D02*
X29386905Y28799943D01*
X29386905Y28799943D02*
X29339286Y28704705D01*
X29339286Y28704705D02*
X29339286Y28466610D01*
X29339286Y28466610D02*
X29386905Y28371372D01*
X29386905Y28371372D02*
X29434524Y28323753D01*
X29434524Y28323753D02*
X29529762Y28276134D01*
X29529762Y28276134D02*
X29720238Y28276134D01*
X29720238Y28276134D02*
X29815476Y28323753D01*
X29815476Y28323753D02*
X29863095Y28371372D01*
X29863095Y28371372D02*
X29910714Y28466610D01*
X27154819Y11782143D02*
X26678628Y11448810D01*
X27154819Y11210715D02*
X26154819Y11210715D01*
X26154819Y11210715D02*
X26154819Y11591667D01*
X26154819Y11591667D02*
X26202438Y11686905D01*
X26202438Y11686905D02*
X26250057Y11734524D01*
X26250057Y11734524D02*
X26345295Y11782143D01*
X26345295Y11782143D02*
X26488152Y11782143D01*
X26488152Y11782143D02*
X26583390Y11734524D01*
X26583390Y11734524D02*
X26631009Y11686905D01*
X26631009Y11686905D02*
X26678628Y11591667D01*
X26678628Y11591667D02*
X26678628Y11210715D01*
X27154819Y12734524D02*
X27154819Y12163096D01*
X27154819Y12448810D02*
X26154819Y12448810D01*
X26154819Y12448810D02*
X26297676Y12353572D01*
X26297676Y12353572D02*
X26392914Y12258334D01*
X26392914Y12258334D02*
X26440533Y12163096D01*
X26154819Y13067858D02*
X26154819Y13686905D01*
X26154819Y13686905D02*
X26535771Y13353572D01*
X26535771Y13353572D02*
X26535771Y13496429D01*
X26535771Y13496429D02*
X26583390Y13591667D01*
X26583390Y13591667D02*
X26631009Y13639286D01*
X26631009Y13639286D02*
X26726247Y13686905D01*
X26726247Y13686905D02*
X26964342Y13686905D01*
X26964342Y13686905D02*
X27059580Y13639286D01*
X27059580Y13639286D02*
X27107200Y13591667D01*
X27107200Y13591667D02*
X27154819Y13496429D01*
X27154819Y13496429D02*
X27154819Y13210715D01*
X27154819Y13210715D02*
X27107200Y13115477D01*
X27107200Y13115477D02*
X27059580Y13067858D01*
X54784580Y24382143D02*
X54832200Y24334524D01*
X54832200Y24334524D02*
X54879819Y24191667D01*
X54879819Y24191667D02*
X54879819Y24096429D01*
X54879819Y24096429D02*
X54832200Y23953572D01*
X54832200Y23953572D02*
X54736961Y23858334D01*
X54736961Y23858334D02*
X54641723Y23810715D01*
X54641723Y23810715D02*
X54451247Y23763096D01*
X54451247Y23763096D02*
X54308390Y23763096D01*
X54308390Y23763096D02*
X54117914Y23810715D01*
X54117914Y23810715D02*
X54022676Y23858334D01*
X54022676Y23858334D02*
X53927438Y23953572D01*
X53927438Y23953572D02*
X53879819Y24096429D01*
X53879819Y24096429D02*
X53879819Y24191667D01*
X53879819Y24191667D02*
X53927438Y24334524D01*
X53927438Y24334524D02*
X53975057Y24382143D01*
X53975057Y24763096D02*
X53927438Y24810715D01*
X53927438Y24810715D02*
X53879819Y24905953D01*
X53879819Y24905953D02*
X53879819Y25144048D01*
X53879819Y25144048D02*
X53927438Y25239286D01*
X53927438Y25239286D02*
X53975057Y25286905D01*
X53975057Y25286905D02*
X54070295Y25334524D01*
X54070295Y25334524D02*
X54165533Y25334524D01*
X54165533Y25334524D02*
X54308390Y25286905D01*
X54308390Y25286905D02*
X54879819Y24715477D01*
X54879819Y24715477D02*
X54879819Y25334524D01*
X53879819Y26191667D02*
X53879819Y26001191D01*
X53879819Y26001191D02*
X53927438Y25905953D01*
X53927438Y25905953D02*
X53975057Y25858334D01*
X53975057Y25858334D02*
X54117914Y25763096D01*
X54117914Y25763096D02*
X54308390Y25715477D01*
X54308390Y25715477D02*
X54689342Y25715477D01*
X54689342Y25715477D02*
X54784580Y25763096D01*
X54784580Y25763096D02*
X54832200Y25810715D01*
X54832200Y25810715D02*
X54879819Y25905953D01*
X54879819Y25905953D02*
X54879819Y26096429D01*
X54879819Y26096429D02*
X54832200Y26191667D01*
X54832200Y26191667D02*
X54784580Y26239286D01*
X54784580Y26239286D02*
X54689342Y26286905D01*
X54689342Y26286905D02*
X54451247Y26286905D01*
X54451247Y26286905D02*
X54356009Y26239286D01*
X54356009Y26239286D02*
X54308390Y26191667D01*
X54308390Y26191667D02*
X54260771Y26096429D01*
X54260771Y26096429D02*
X54260771Y25905953D01*
X54260771Y25905953D02*
X54308390Y25810715D01*
X54308390Y25810715D02*
X54356009Y25763096D01*
X54356009Y25763096D02*
X54451247Y25715477D01*
X9813333Y31870181D02*
X9480000Y32346372D01*
X9241905Y31870181D02*
X9241905Y32870181D01*
X9241905Y32870181D02*
X9622857Y32870181D01*
X9622857Y32870181D02*
X9718095Y32822562D01*
X9718095Y32822562D02*
X9765714Y32774943D01*
X9765714Y32774943D02*
X9813333Y32679705D01*
X9813333Y32679705D02*
X9813333Y32536848D01*
X9813333Y32536848D02*
X9765714Y32441610D01*
X9765714Y32441610D02*
X9718095Y32393991D01*
X9718095Y32393991D02*
X9622857Y32346372D01*
X9622857Y32346372D02*
X9241905Y32346372D01*
X10765714Y31870181D02*
X10194286Y31870181D01*
X10480000Y31870181D02*
X10480000Y32870181D01*
X10480000Y32870181D02*
X10384762Y32727324D01*
X10384762Y32727324D02*
X10289524Y32632086D01*
X10289524Y32632086D02*
X10194286Y32584467D01*
X21408333Y47215420D02*
X21360714Y47167800D01*
X21360714Y47167800D02*
X21217857Y47120181D01*
X21217857Y47120181D02*
X21122619Y47120181D01*
X21122619Y47120181D02*
X20979762Y47167800D01*
X20979762Y47167800D02*
X20884524Y47263039D01*
X20884524Y47263039D02*
X20836905Y47358277D01*
X20836905Y47358277D02*
X20789286Y47548753D01*
X20789286Y47548753D02*
X20789286Y47691610D01*
X20789286Y47691610D02*
X20836905Y47882086D01*
X20836905Y47882086D02*
X20884524Y47977324D01*
X20884524Y47977324D02*
X20979762Y48072562D01*
X20979762Y48072562D02*
X21122619Y48120181D01*
X21122619Y48120181D02*
X21217857Y48120181D01*
X21217857Y48120181D02*
X21360714Y48072562D01*
X21360714Y48072562D02*
X21408333Y48024943D01*
X22313095Y48120181D02*
X21836905Y48120181D01*
X21836905Y48120181D02*
X21789286Y47643991D01*
X21789286Y47643991D02*
X21836905Y47691610D01*
X21836905Y47691610D02*
X21932143Y47739229D01*
X21932143Y47739229D02*
X22170238Y47739229D01*
X22170238Y47739229D02*
X22265476Y47691610D01*
X22265476Y47691610D02*
X22313095Y47643991D01*
X22313095Y47643991D02*
X22360714Y47548753D01*
X22360714Y47548753D02*
X22360714Y47310658D01*
X22360714Y47310658D02*
X22313095Y47215420D01*
X22313095Y47215420D02*
X22265476Y47167800D01*
X22265476Y47167800D02*
X22170238Y47120181D01*
X22170238Y47120181D02*
X21932143Y47120181D01*
X21932143Y47120181D02*
X21836905Y47167800D01*
X21836905Y47167800D02*
X21789286Y47215420D01*
X21657142Y28765420D02*
X21609523Y28717800D01*
X21609523Y28717800D02*
X21466666Y28670181D01*
X21466666Y28670181D02*
X21371428Y28670181D01*
X21371428Y28670181D02*
X21228571Y28717800D01*
X21228571Y28717800D02*
X21133333Y28813039D01*
X21133333Y28813039D02*
X21085714Y28908277D01*
X21085714Y28908277D02*
X21038095Y29098753D01*
X21038095Y29098753D02*
X21038095Y29241610D01*
X21038095Y29241610D02*
X21085714Y29432086D01*
X21085714Y29432086D02*
X21133333Y29527324D01*
X21133333Y29527324D02*
X21228571Y29622562D01*
X21228571Y29622562D02*
X21371428Y29670181D01*
X21371428Y29670181D02*
X21466666Y29670181D01*
X21466666Y29670181D02*
X21609523Y29622562D01*
X21609523Y29622562D02*
X21657142Y29574943D01*
X22609523Y28670181D02*
X22038095Y28670181D01*
X22323809Y28670181D02*
X22323809Y29670181D01*
X22323809Y29670181D02*
X22228571Y29527324D01*
X22228571Y29527324D02*
X22133333Y29432086D01*
X22133333Y29432086D02*
X22038095Y29384467D01*
X22942857Y29670181D02*
X23561904Y29670181D01*
X23561904Y29670181D02*
X23228571Y29289229D01*
X23228571Y29289229D02*
X23371428Y29289229D01*
X23371428Y29289229D02*
X23466666Y29241610D01*
X23466666Y29241610D02*
X23514285Y29193991D01*
X23514285Y29193991D02*
X23561904Y29098753D01*
X23561904Y29098753D02*
X23561904Y28860658D01*
X23561904Y28860658D02*
X23514285Y28765420D01*
X23514285Y28765420D02*
X23466666Y28717800D01*
X23466666Y28717800D02*
X23371428Y28670181D01*
X23371428Y28670181D02*
X23085714Y28670181D01*
X23085714Y28670181D02*
X22990476Y28717800D01*
X22990476Y28717800D02*
X22942857Y28765420D01*
X54094819Y46217143D02*
X53618628Y45883810D01*
X54094819Y45645715D02*
X53094819Y45645715D01*
X53094819Y45645715D02*
X53094819Y46026667D01*
X53094819Y46026667D02*
X53142438Y46121905D01*
X53142438Y46121905D02*
X53190057Y46169524D01*
X53190057Y46169524D02*
X53285295Y46217143D01*
X53285295Y46217143D02*
X53428152Y46217143D01*
X53428152Y46217143D02*
X53523390Y46169524D01*
X53523390Y46169524D02*
X53571009Y46121905D01*
X53571009Y46121905D02*
X53618628Y46026667D01*
X53618628Y46026667D02*
X53618628Y45645715D01*
X54094819Y47169524D02*
X54094819Y46598096D01*
X54094819Y46883810D02*
X53094819Y46883810D01*
X53094819Y46883810D02*
X53237676Y46788572D01*
X53237676Y46788572D02*
X53332914Y46693334D01*
X53332914Y46693334D02*
X53380533Y46598096D01*
X53094819Y48074286D02*
X53094819Y47598096D01*
X53094819Y47598096D02*
X53571009Y47550477D01*
X53571009Y47550477D02*
X53523390Y47598096D01*
X53523390Y47598096D02*
X53475771Y47693334D01*
X53475771Y47693334D02*
X53475771Y47931429D01*
X53475771Y47931429D02*
X53523390Y48026667D01*
X53523390Y48026667D02*
X53571009Y48074286D01*
X53571009Y48074286D02*
X53666247Y48121905D01*
X53666247Y48121905D02*
X53904342Y48121905D01*
X53904342Y48121905D02*
X53999580Y48074286D01*
X53999580Y48074286D02*
X54047200Y48026667D01*
X54047200Y48026667D02*
X54094819Y47931429D01*
X54094819Y47931429D02*
X54094819Y47693334D01*
X54094819Y47693334D02*
X54047200Y47598096D01*
X54047200Y47598096D02*
X53999580Y47550477D01*
X60086666Y21975181D02*
X60086666Y21260896D01*
X60086666Y21260896D02*
X60039047Y21118039D01*
X60039047Y21118039D02*
X59943809Y21022800D01*
X59943809Y21022800D02*
X59800952Y20975181D01*
X59800952Y20975181D02*
X59705714Y20975181D01*
X60515238Y21879943D02*
X60562857Y21927562D01*
X60562857Y21927562D02*
X60658095Y21975181D01*
X60658095Y21975181D02*
X60896190Y21975181D01*
X60896190Y21975181D02*
X60991428Y21927562D01*
X60991428Y21927562D02*
X61039047Y21879943D01*
X61039047Y21879943D02*
X61086666Y21784705D01*
X61086666Y21784705D02*
X61086666Y21689467D01*
X61086666Y21689467D02*
X61039047Y21546610D01*
X61039047Y21546610D02*
X60467619Y20975181D01*
X60467619Y20975181D02*
X61086666Y20975181D01*
X21632142Y34365420D02*
X21584523Y34317800D01*
X21584523Y34317800D02*
X21441666Y34270181D01*
X21441666Y34270181D02*
X21346428Y34270181D01*
X21346428Y34270181D02*
X21203571Y34317800D01*
X21203571Y34317800D02*
X21108333Y34413039D01*
X21108333Y34413039D02*
X21060714Y34508277D01*
X21060714Y34508277D02*
X21013095Y34698753D01*
X21013095Y34698753D02*
X21013095Y34841610D01*
X21013095Y34841610D02*
X21060714Y35032086D01*
X21060714Y35032086D02*
X21108333Y35127324D01*
X21108333Y35127324D02*
X21203571Y35222562D01*
X21203571Y35222562D02*
X21346428Y35270181D01*
X21346428Y35270181D02*
X21441666Y35270181D01*
X21441666Y35270181D02*
X21584523Y35222562D01*
X21584523Y35222562D02*
X21632142Y35174943D01*
X22584523Y34270181D02*
X22013095Y34270181D01*
X22298809Y34270181D02*
X22298809Y35270181D01*
X22298809Y35270181D02*
X22203571Y35127324D01*
X22203571Y35127324D02*
X22108333Y35032086D01*
X22108333Y35032086D02*
X22013095Y34984467D01*
X23489285Y35270181D02*
X23013095Y35270181D01*
X23013095Y35270181D02*
X22965476Y34793991D01*
X22965476Y34793991D02*
X23013095Y34841610D01*
X23013095Y34841610D02*
X23108333Y34889229D01*
X23108333Y34889229D02*
X23346428Y34889229D01*
X23346428Y34889229D02*
X23441666Y34841610D01*
X23441666Y34841610D02*
X23489285Y34793991D01*
X23489285Y34793991D02*
X23536904Y34698753D01*
X23536904Y34698753D02*
X23536904Y34460658D01*
X23536904Y34460658D02*
X23489285Y34365420D01*
X23489285Y34365420D02*
X23441666Y34317800D01*
X23441666Y34317800D02*
X23346428Y34270181D01*
X23346428Y34270181D02*
X23108333Y34270181D01*
X23108333Y34270181D02*
X23013095Y34317800D01*
X23013095Y34317800D02*
X22965476Y34365420D01*
X48709580Y23407143D02*
X48757200Y23359524D01*
X48757200Y23359524D02*
X48804819Y23216667D01*
X48804819Y23216667D02*
X48804819Y23121429D01*
X48804819Y23121429D02*
X48757200Y22978572D01*
X48757200Y22978572D02*
X48661961Y22883334D01*
X48661961Y22883334D02*
X48566723Y22835715D01*
X48566723Y22835715D02*
X48376247Y22788096D01*
X48376247Y22788096D02*
X48233390Y22788096D01*
X48233390Y22788096D02*
X48042914Y22835715D01*
X48042914Y22835715D02*
X47947676Y22883334D01*
X47947676Y22883334D02*
X47852438Y22978572D01*
X47852438Y22978572D02*
X47804819Y23121429D01*
X47804819Y23121429D02*
X47804819Y23216667D01*
X47804819Y23216667D02*
X47852438Y23359524D01*
X47852438Y23359524D02*
X47900057Y23407143D01*
X47804819Y23740477D02*
X47804819Y24359524D01*
X47804819Y24359524D02*
X48185771Y24026191D01*
X48185771Y24026191D02*
X48185771Y24169048D01*
X48185771Y24169048D02*
X48233390Y24264286D01*
X48233390Y24264286D02*
X48281009Y24311905D01*
X48281009Y24311905D02*
X48376247Y24359524D01*
X48376247Y24359524D02*
X48614342Y24359524D01*
X48614342Y24359524D02*
X48709580Y24311905D01*
X48709580Y24311905D02*
X48757200Y24264286D01*
X48757200Y24264286D02*
X48804819Y24169048D01*
X48804819Y24169048D02*
X48804819Y23883334D01*
X48804819Y23883334D02*
X48757200Y23788096D01*
X48757200Y23788096D02*
X48709580Y23740477D01*
X47804819Y24978572D02*
X47804819Y25073810D01*
X47804819Y25073810D02*
X47852438Y25169048D01*
X47852438Y25169048D02*
X47900057Y25216667D01*
X47900057Y25216667D02*
X47995295Y25264286D01*
X47995295Y25264286D02*
X48185771Y25311905D01*
X48185771Y25311905D02*
X48423866Y25311905D01*
X48423866Y25311905D02*
X48614342Y25264286D01*
X48614342Y25264286D02*
X48709580Y25216667D01*
X48709580Y25216667D02*
X48757200Y25169048D01*
X48757200Y25169048D02*
X48804819Y25073810D01*
X48804819Y25073810D02*
X48804819Y24978572D01*
X48804819Y24978572D02*
X48757200Y24883334D01*
X48757200Y24883334D02*
X48709580Y24835715D01*
X48709580Y24835715D02*
X48614342Y24788096D01*
X48614342Y24788096D02*
X48423866Y24740477D01*
X48423866Y24740477D02*
X48185771Y24740477D01*
X48185771Y24740477D02*
X47995295Y24788096D01*
X47995295Y24788096D02*
X47900057Y24835715D01*
X47900057Y24835715D02*
X47852438Y24883334D01*
X47852438Y24883334D02*
X47804819Y24978572D01*
X56759580Y24407143D02*
X56807200Y24359524D01*
X56807200Y24359524D02*
X56854819Y24216667D01*
X56854819Y24216667D02*
X56854819Y24121429D01*
X56854819Y24121429D02*
X56807200Y23978572D01*
X56807200Y23978572D02*
X56711961Y23883334D01*
X56711961Y23883334D02*
X56616723Y23835715D01*
X56616723Y23835715D02*
X56426247Y23788096D01*
X56426247Y23788096D02*
X56283390Y23788096D01*
X56283390Y23788096D02*
X56092914Y23835715D01*
X56092914Y23835715D02*
X55997676Y23883334D01*
X55997676Y23883334D02*
X55902438Y23978572D01*
X55902438Y23978572D02*
X55854819Y24121429D01*
X55854819Y24121429D02*
X55854819Y24216667D01*
X55854819Y24216667D02*
X55902438Y24359524D01*
X55902438Y24359524D02*
X55950057Y24407143D01*
X55950057Y24788096D02*
X55902438Y24835715D01*
X55902438Y24835715D02*
X55854819Y24930953D01*
X55854819Y24930953D02*
X55854819Y25169048D01*
X55854819Y25169048D02*
X55902438Y25264286D01*
X55902438Y25264286D02*
X55950057Y25311905D01*
X55950057Y25311905D02*
X56045295Y25359524D01*
X56045295Y25359524D02*
X56140533Y25359524D01*
X56140533Y25359524D02*
X56283390Y25311905D01*
X56283390Y25311905D02*
X56854819Y24740477D01*
X56854819Y24740477D02*
X56854819Y25359524D01*
X55854819Y26264286D02*
X55854819Y25788096D01*
X55854819Y25788096D02*
X56331009Y25740477D01*
X56331009Y25740477D02*
X56283390Y25788096D01*
X56283390Y25788096D02*
X56235771Y25883334D01*
X56235771Y25883334D02*
X56235771Y26121429D01*
X56235771Y26121429D02*
X56283390Y26216667D01*
X56283390Y26216667D02*
X56331009Y26264286D01*
X56331009Y26264286D02*
X56426247Y26311905D01*
X56426247Y26311905D02*
X56664342Y26311905D01*
X56664342Y26311905D02*
X56759580Y26264286D01*
X56759580Y26264286D02*
X56807200Y26216667D01*
X56807200Y26216667D02*
X56854819Y26121429D01*
X56854819Y26121429D02*
X56854819Y25883334D01*
X56854819Y25883334D02*
X56807200Y25788096D01*
X56807200Y25788096D02*
X56759580Y25740477D01*
X39182142Y29520181D02*
X38848809Y29996372D01*
X38610714Y29520181D02*
X38610714Y30520181D01*
X38610714Y30520181D02*
X38991666Y30520181D01*
X38991666Y30520181D02*
X39086904Y30472562D01*
X39086904Y30472562D02*
X39134523Y30424943D01*
X39134523Y30424943D02*
X39182142Y30329705D01*
X39182142Y30329705D02*
X39182142Y30186848D01*
X39182142Y30186848D02*
X39134523Y30091610D01*
X39134523Y30091610D02*
X39086904Y30043991D01*
X39086904Y30043991D02*
X38991666Y29996372D01*
X38991666Y29996372D02*
X38610714Y29996372D01*
X39563095Y30424943D02*
X39610714Y30472562D01*
X39610714Y30472562D02*
X39705952Y30520181D01*
X39705952Y30520181D02*
X39944047Y30520181D01*
X39944047Y30520181D02*
X40039285Y30472562D01*
X40039285Y30472562D02*
X40086904Y30424943D01*
X40086904Y30424943D02*
X40134523Y30329705D01*
X40134523Y30329705D02*
X40134523Y30234467D01*
X40134523Y30234467D02*
X40086904Y30091610D01*
X40086904Y30091610D02*
X39515476Y29520181D01*
X39515476Y29520181D02*
X40134523Y29520181D01*
X40467857Y30520181D02*
X41086904Y30520181D01*
X41086904Y30520181D02*
X40753571Y30139229D01*
X40753571Y30139229D02*
X40896428Y30139229D01*
X40896428Y30139229D02*
X40991666Y30091610D01*
X40991666Y30091610D02*
X41039285Y30043991D01*
X41039285Y30043991D02*
X41086904Y29948753D01*
X41086904Y29948753D02*
X41086904Y29710658D01*
X41086904Y29710658D02*
X41039285Y29615420D01*
X41039285Y29615420D02*
X40991666Y29567800D01*
X40991666Y29567800D02*
X40896428Y29520181D01*
X40896428Y29520181D02*
X40610714Y29520181D01*
X40610714Y29520181D02*
X40515476Y29567800D01*
X40515476Y29567800D02*
X40467857Y29615420D01*
X49984580Y12332143D02*
X50032200Y12284524D01*
X50032200Y12284524D02*
X50079819Y12141667D01*
X50079819Y12141667D02*
X50079819Y12046429D01*
X50079819Y12046429D02*
X50032200Y11903572D01*
X50032200Y11903572D02*
X49936961Y11808334D01*
X49936961Y11808334D02*
X49841723Y11760715D01*
X49841723Y11760715D02*
X49651247Y11713096D01*
X49651247Y11713096D02*
X49508390Y11713096D01*
X49508390Y11713096D02*
X49317914Y11760715D01*
X49317914Y11760715D02*
X49222676Y11808334D01*
X49222676Y11808334D02*
X49127438Y11903572D01*
X49127438Y11903572D02*
X49079819Y12046429D01*
X49079819Y12046429D02*
X49079819Y12141667D01*
X49079819Y12141667D02*
X49127438Y12284524D01*
X49127438Y12284524D02*
X49175057Y12332143D01*
X49079819Y12665477D02*
X49079819Y13284524D01*
X49079819Y13284524D02*
X49460771Y12951191D01*
X49460771Y12951191D02*
X49460771Y13094048D01*
X49460771Y13094048D02*
X49508390Y13189286D01*
X49508390Y13189286D02*
X49556009Y13236905D01*
X49556009Y13236905D02*
X49651247Y13284524D01*
X49651247Y13284524D02*
X49889342Y13284524D01*
X49889342Y13284524D02*
X49984580Y13236905D01*
X49984580Y13236905D02*
X50032200Y13189286D01*
X50032200Y13189286D02*
X50079819Y13094048D01*
X50079819Y13094048D02*
X50079819Y12808334D01*
X50079819Y12808334D02*
X50032200Y12713096D01*
X50032200Y12713096D02*
X49984580Y12665477D01*
X50079819Y14236905D02*
X50079819Y13665477D01*
X50079819Y13951191D02*
X49079819Y13951191D01*
X49079819Y13951191D02*
X49222676Y13855953D01*
X49222676Y13855953D02*
X49317914Y13760715D01*
X49317914Y13760715D02*
X49365533Y13665477D01*
X9236905Y26595181D02*
X9236905Y27595181D01*
X9236905Y27595181D02*
X9475000Y27595181D01*
X9475000Y27595181D02*
X9617857Y27547562D01*
X9617857Y27547562D02*
X9713095Y27452324D01*
X9713095Y27452324D02*
X9760714Y27357086D01*
X9760714Y27357086D02*
X9808333Y27166610D01*
X9808333Y27166610D02*
X9808333Y27023753D01*
X9808333Y27023753D02*
X9760714Y26833277D01*
X9760714Y26833277D02*
X9713095Y26738039D01*
X9713095Y26738039D02*
X9617857Y26642800D01*
X9617857Y26642800D02*
X9475000Y26595181D01*
X9475000Y26595181D02*
X9236905Y26595181D01*
X10760714Y26595181D02*
X10189286Y26595181D01*
X10475000Y26595181D02*
X10475000Y27595181D01*
X10475000Y27595181D02*
X10379762Y27452324D01*
X10379762Y27452324D02*
X10284524Y27357086D01*
X10284524Y27357086D02*
X10189286Y27309467D01*
X41384819Y15961096D02*
X42194342Y15961096D01*
X42194342Y15961096D02*
X42289580Y16008715D01*
X42289580Y16008715D02*
X42337200Y16056334D01*
X42337200Y16056334D02*
X42384819Y16151572D01*
X42384819Y16151572D02*
X42384819Y16342048D01*
X42384819Y16342048D02*
X42337200Y16437286D01*
X42337200Y16437286D02*
X42289580Y16484905D01*
X42289580Y16484905D02*
X42194342Y16532524D01*
X42194342Y16532524D02*
X41384819Y16532524D01*
X41384819Y17437286D02*
X41384819Y17246810D01*
X41384819Y17246810D02*
X41432438Y17151572D01*
X41432438Y17151572D02*
X41480057Y17103953D01*
X41480057Y17103953D02*
X41622914Y17008715D01*
X41622914Y17008715D02*
X41813390Y16961096D01*
X41813390Y16961096D02*
X42194342Y16961096D01*
X42194342Y16961096D02*
X42289580Y17008715D01*
X42289580Y17008715D02*
X42337200Y17056334D01*
X42337200Y17056334D02*
X42384819Y17151572D01*
X42384819Y17151572D02*
X42384819Y17342048D01*
X42384819Y17342048D02*
X42337200Y17437286D01*
X42337200Y17437286D02*
X42289580Y17484905D01*
X42289580Y17484905D02*
X42194342Y17532524D01*
X42194342Y17532524D02*
X41956247Y17532524D01*
X41956247Y17532524D02*
X41861009Y17484905D01*
X41861009Y17484905D02*
X41813390Y17437286D01*
X41813390Y17437286D02*
X41765771Y17342048D01*
X41765771Y17342048D02*
X41765771Y17151572D01*
X41765771Y17151572D02*
X41813390Y17056334D01*
X41813390Y17056334D02*
X41861009Y17008715D01*
X41861009Y17008715D02*
X41956247Y16961096D01*
X52604819Y25763096D02*
X53414342Y25763096D01*
X53414342Y25763096D02*
X53509580Y25810715D01*
X53509580Y25810715D02*
X53557200Y25858334D01*
X53557200Y25858334D02*
X53604819Y25953572D01*
X53604819Y25953572D02*
X53604819Y26144048D01*
X53604819Y26144048D02*
X53557200Y26239286D01*
X53557200Y26239286D02*
X53509580Y26286905D01*
X53509580Y26286905D02*
X53414342Y26334524D01*
X53414342Y26334524D02*
X52604819Y26334524D01*
X52604819Y27286905D02*
X52604819Y26810715D01*
X52604819Y26810715D02*
X53081009Y26763096D01*
X53081009Y26763096D02*
X53033390Y26810715D01*
X53033390Y26810715D02*
X52985771Y26905953D01*
X52985771Y26905953D02*
X52985771Y27144048D01*
X52985771Y27144048D02*
X53033390Y27239286D01*
X53033390Y27239286D02*
X53081009Y27286905D01*
X53081009Y27286905D02*
X53176247Y27334524D01*
X53176247Y27334524D02*
X53414342Y27334524D01*
X53414342Y27334524D02*
X53509580Y27286905D01*
X53509580Y27286905D02*
X53557200Y27239286D01*
X53557200Y27239286D02*
X53604819Y27144048D01*
X53604819Y27144048D02*
X53604819Y26905953D01*
X53604819Y26905953D02*
X53557200Y26810715D01*
X53557200Y26810715D02*
X53509580Y26763096D01*
X26383333Y34340420D02*
X26335714Y34292800D01*
X26335714Y34292800D02*
X26192857Y34245181D01*
X26192857Y34245181D02*
X26097619Y34245181D01*
X26097619Y34245181D02*
X25954762Y34292800D01*
X25954762Y34292800D02*
X25859524Y34388039D01*
X25859524Y34388039D02*
X25811905Y34483277D01*
X25811905Y34483277D02*
X25764286Y34673753D01*
X25764286Y34673753D02*
X25764286Y34816610D01*
X25764286Y34816610D02*
X25811905Y35007086D01*
X25811905Y35007086D02*
X25859524Y35102324D01*
X25859524Y35102324D02*
X25954762Y35197562D01*
X25954762Y35197562D02*
X26097619Y35245181D01*
X26097619Y35245181D02*
X26192857Y35245181D01*
X26192857Y35245181D02*
X26335714Y35197562D01*
X26335714Y35197562D02*
X26383333Y35149943D01*
X26954762Y34816610D02*
X26859524Y34864229D01*
X26859524Y34864229D02*
X26811905Y34911848D01*
X26811905Y34911848D02*
X26764286Y35007086D01*
X26764286Y35007086D02*
X26764286Y35054705D01*
X26764286Y35054705D02*
X26811905Y35149943D01*
X26811905Y35149943D02*
X26859524Y35197562D01*
X26859524Y35197562D02*
X26954762Y35245181D01*
X26954762Y35245181D02*
X27145238Y35245181D01*
X27145238Y35245181D02*
X27240476Y35197562D01*
X27240476Y35197562D02*
X27288095Y35149943D01*
X27288095Y35149943D02*
X27335714Y35054705D01*
X27335714Y35054705D02*
X27335714Y35007086D01*
X27335714Y35007086D02*
X27288095Y34911848D01*
X27288095Y34911848D02*
X27240476Y34864229D01*
X27240476Y34864229D02*
X27145238Y34816610D01*
X27145238Y34816610D02*
X26954762Y34816610D01*
X26954762Y34816610D02*
X26859524Y34768991D01*
X26859524Y34768991D02*
X26811905Y34721372D01*
X26811905Y34721372D02*
X26764286Y34626134D01*
X26764286Y34626134D02*
X26764286Y34435658D01*
X26764286Y34435658D02*
X26811905Y34340420D01*
X26811905Y34340420D02*
X26859524Y34292800D01*
X26859524Y34292800D02*
X26954762Y34245181D01*
X26954762Y34245181D02*
X27145238Y34245181D01*
X27145238Y34245181D02*
X27240476Y34292800D01*
X27240476Y34292800D02*
X27288095Y34340420D01*
X27288095Y34340420D02*
X27335714Y34435658D01*
X27335714Y34435658D02*
X27335714Y34626134D01*
X27335714Y34626134D02*
X27288095Y34721372D01*
X27288095Y34721372D02*
X27240476Y34768991D01*
X27240476Y34768991D02*
X27145238Y34816610D01*
X34482142Y20495181D02*
X34148809Y20971372D01*
X33910714Y20495181D02*
X33910714Y21495181D01*
X33910714Y21495181D02*
X34291666Y21495181D01*
X34291666Y21495181D02*
X34386904Y21447562D01*
X34386904Y21447562D02*
X34434523Y21399943D01*
X34434523Y21399943D02*
X34482142Y21304705D01*
X34482142Y21304705D02*
X34482142Y21161848D01*
X34482142Y21161848D02*
X34434523Y21066610D01*
X34434523Y21066610D02*
X34386904Y21018991D01*
X34386904Y21018991D02*
X34291666Y20971372D01*
X34291666Y20971372D02*
X33910714Y20971372D01*
X34863095Y21399943D02*
X34910714Y21447562D01*
X34910714Y21447562D02*
X35005952Y21495181D01*
X35005952Y21495181D02*
X35244047Y21495181D01*
X35244047Y21495181D02*
X35339285Y21447562D01*
X35339285Y21447562D02*
X35386904Y21399943D01*
X35386904Y21399943D02*
X35434523Y21304705D01*
X35434523Y21304705D02*
X35434523Y21209467D01*
X35434523Y21209467D02*
X35386904Y21066610D01*
X35386904Y21066610D02*
X34815476Y20495181D01*
X34815476Y20495181D02*
X35434523Y20495181D01*
X36386904Y20495181D02*
X35815476Y20495181D01*
X36101190Y20495181D02*
X36101190Y21495181D01*
X36101190Y21495181D02*
X36005952Y21352324D01*
X36005952Y21352324D02*
X35910714Y21257086D01*
X35910714Y21257086D02*
X35815476Y21209467D01*
X13704819Y19833334D02*
X13228628Y19500001D01*
X13704819Y19261906D02*
X12704819Y19261906D01*
X12704819Y19261906D02*
X12704819Y19642858D01*
X12704819Y19642858D02*
X12752438Y19738096D01*
X12752438Y19738096D02*
X12800057Y19785715D01*
X12800057Y19785715D02*
X12895295Y19833334D01*
X12895295Y19833334D02*
X13038152Y19833334D01*
X13038152Y19833334D02*
X13133390Y19785715D01*
X13133390Y19785715D02*
X13181009Y19738096D01*
X13181009Y19738096D02*
X13228628Y19642858D01*
X13228628Y19642858D02*
X13228628Y19261906D01*
X13133390Y20404763D02*
X13085771Y20309525D01*
X13085771Y20309525D02*
X13038152Y20261906D01*
X13038152Y20261906D02*
X12942914Y20214287D01*
X12942914Y20214287D02*
X12895295Y20214287D01*
X12895295Y20214287D02*
X12800057Y20261906D01*
X12800057Y20261906D02*
X12752438Y20309525D01*
X12752438Y20309525D02*
X12704819Y20404763D01*
X12704819Y20404763D02*
X12704819Y20595239D01*
X12704819Y20595239D02*
X12752438Y20690477D01*
X12752438Y20690477D02*
X12800057Y20738096D01*
X12800057Y20738096D02*
X12895295Y20785715D01*
X12895295Y20785715D02*
X12942914Y20785715D01*
X12942914Y20785715D02*
X13038152Y20738096D01*
X13038152Y20738096D02*
X13085771Y20690477D01*
X13085771Y20690477D02*
X13133390Y20595239D01*
X13133390Y20595239D02*
X13133390Y20404763D01*
X13133390Y20404763D02*
X13181009Y20309525D01*
X13181009Y20309525D02*
X13228628Y20261906D01*
X13228628Y20261906D02*
X13323866Y20214287D01*
X13323866Y20214287D02*
X13514342Y20214287D01*
X13514342Y20214287D02*
X13609580Y20261906D01*
X13609580Y20261906D02*
X13657200Y20309525D01*
X13657200Y20309525D02*
X13704819Y20404763D01*
X13704819Y20404763D02*
X13704819Y20595239D01*
X13704819Y20595239D02*
X13657200Y20690477D01*
X13657200Y20690477D02*
X13609580Y20738096D01*
X13609580Y20738096D02*
X13514342Y20785715D01*
X13514342Y20785715D02*
X13323866Y20785715D01*
X13323866Y20785715D02*
X13228628Y20738096D01*
X13228628Y20738096D02*
X13181009Y20690477D01*
X13181009Y20690477D02*
X13133390Y20595239D01*
X27054819Y18707143D02*
X26578628Y18373810D01*
X27054819Y18135715D02*
X26054819Y18135715D01*
X26054819Y18135715D02*
X26054819Y18516667D01*
X26054819Y18516667D02*
X26102438Y18611905D01*
X26102438Y18611905D02*
X26150057Y18659524D01*
X26150057Y18659524D02*
X26245295Y18707143D01*
X26245295Y18707143D02*
X26388152Y18707143D01*
X26388152Y18707143D02*
X26483390Y18659524D01*
X26483390Y18659524D02*
X26531009Y18611905D01*
X26531009Y18611905D02*
X26578628Y18516667D01*
X26578628Y18516667D02*
X26578628Y18135715D01*
X27054819Y19659524D02*
X27054819Y19088096D01*
X27054819Y19373810D02*
X26054819Y19373810D01*
X26054819Y19373810D02*
X26197676Y19278572D01*
X26197676Y19278572D02*
X26292914Y19183334D01*
X26292914Y19183334D02*
X26340533Y19088096D01*
X26388152Y20516667D02*
X27054819Y20516667D01*
X26007200Y20278572D02*
X26721485Y20040477D01*
X26721485Y20040477D02*
X26721485Y20659524D01*
X49607142Y15915420D02*
X49559523Y15867800D01*
X49559523Y15867800D02*
X49416666Y15820181D01*
X49416666Y15820181D02*
X49321428Y15820181D01*
X49321428Y15820181D02*
X49178571Y15867800D01*
X49178571Y15867800D02*
X49083333Y15963039D01*
X49083333Y15963039D02*
X49035714Y16058277D01*
X49035714Y16058277D02*
X48988095Y16248753D01*
X48988095Y16248753D02*
X48988095Y16391610D01*
X48988095Y16391610D02*
X49035714Y16582086D01*
X49035714Y16582086D02*
X49083333Y16677324D01*
X49083333Y16677324D02*
X49178571Y16772562D01*
X49178571Y16772562D02*
X49321428Y16820181D01*
X49321428Y16820181D02*
X49416666Y16820181D01*
X49416666Y16820181D02*
X49559523Y16772562D01*
X49559523Y16772562D02*
X49607142Y16724943D01*
X50559523Y15820181D02*
X49988095Y15820181D01*
X50273809Y15820181D02*
X50273809Y16820181D01*
X50273809Y16820181D02*
X50178571Y16677324D01*
X50178571Y16677324D02*
X50083333Y16582086D01*
X50083333Y16582086D02*
X49988095Y16534467D01*
X50940476Y16724943D02*
X50988095Y16772562D01*
X50988095Y16772562D02*
X51083333Y16820181D01*
X51083333Y16820181D02*
X51321428Y16820181D01*
X51321428Y16820181D02*
X51416666Y16772562D01*
X51416666Y16772562D02*
X51464285Y16724943D01*
X51464285Y16724943D02*
X51511904Y16629705D01*
X51511904Y16629705D02*
X51511904Y16534467D01*
X51511904Y16534467D02*
X51464285Y16391610D01*
X51464285Y16391610D02*
X50892857Y15820181D01*
X50892857Y15820181D02*
X51511904Y15820181D01*
X58459580Y7607143D02*
X58507200Y7559524D01*
X58507200Y7559524D02*
X58554819Y7416667D01*
X58554819Y7416667D02*
X58554819Y7321429D01*
X58554819Y7321429D02*
X58507200Y7178572D01*
X58507200Y7178572D02*
X58411961Y7083334D01*
X58411961Y7083334D02*
X58316723Y7035715D01*
X58316723Y7035715D02*
X58126247Y6988096D01*
X58126247Y6988096D02*
X57983390Y6988096D01*
X57983390Y6988096D02*
X57792914Y7035715D01*
X57792914Y7035715D02*
X57697676Y7083334D01*
X57697676Y7083334D02*
X57602438Y7178572D01*
X57602438Y7178572D02*
X57554819Y7321429D01*
X57554819Y7321429D02*
X57554819Y7416667D01*
X57554819Y7416667D02*
X57602438Y7559524D01*
X57602438Y7559524D02*
X57650057Y7607143D01*
X57650057Y7988096D02*
X57602438Y8035715D01*
X57602438Y8035715D02*
X57554819Y8130953D01*
X57554819Y8130953D02*
X57554819Y8369048D01*
X57554819Y8369048D02*
X57602438Y8464286D01*
X57602438Y8464286D02*
X57650057Y8511905D01*
X57650057Y8511905D02*
X57745295Y8559524D01*
X57745295Y8559524D02*
X57840533Y8559524D01*
X57840533Y8559524D02*
X57983390Y8511905D01*
X57983390Y8511905D02*
X58554819Y7940477D01*
X58554819Y7940477D02*
X58554819Y8559524D01*
X57650057Y8940477D02*
X57602438Y8988096D01*
X57602438Y8988096D02*
X57554819Y9083334D01*
X57554819Y9083334D02*
X57554819Y9321429D01*
X57554819Y9321429D02*
X57602438Y9416667D01*
X57602438Y9416667D02*
X57650057Y9464286D01*
X57650057Y9464286D02*
X57745295Y9511905D01*
X57745295Y9511905D02*
X57840533Y9511905D01*
X57840533Y9511905D02*
X57983390Y9464286D01*
X57983390Y9464286D02*
X58554819Y8892858D01*
X58554819Y8892858D02*
X58554819Y9511905D01*
X48709580Y5857143D02*
X48757200Y5809524D01*
X48757200Y5809524D02*
X48804819Y5666667D01*
X48804819Y5666667D02*
X48804819Y5571429D01*
X48804819Y5571429D02*
X48757200Y5428572D01*
X48757200Y5428572D02*
X48661961Y5333334D01*
X48661961Y5333334D02*
X48566723Y5285715D01*
X48566723Y5285715D02*
X48376247Y5238096D01*
X48376247Y5238096D02*
X48233390Y5238096D01*
X48233390Y5238096D02*
X48042914Y5285715D01*
X48042914Y5285715D02*
X47947676Y5333334D01*
X47947676Y5333334D02*
X47852438Y5428572D01*
X47852438Y5428572D02*
X47804819Y5571429D01*
X47804819Y5571429D02*
X47804819Y5666667D01*
X47804819Y5666667D02*
X47852438Y5809524D01*
X47852438Y5809524D02*
X47900057Y5857143D01*
X47900057Y6238096D02*
X47852438Y6285715D01*
X47852438Y6285715D02*
X47804819Y6380953D01*
X47804819Y6380953D02*
X47804819Y6619048D01*
X47804819Y6619048D02*
X47852438Y6714286D01*
X47852438Y6714286D02*
X47900057Y6761905D01*
X47900057Y6761905D02*
X47995295Y6809524D01*
X47995295Y6809524D02*
X48090533Y6809524D01*
X48090533Y6809524D02*
X48233390Y6761905D01*
X48233390Y6761905D02*
X48804819Y6190477D01*
X48804819Y6190477D02*
X48804819Y6809524D01*
X47804819Y7142858D02*
X47804819Y7809524D01*
X47804819Y7809524D02*
X48804819Y7380953D01*
X34437142Y25925181D02*
X34103809Y26401372D01*
X33865714Y25925181D02*
X33865714Y26925181D01*
X33865714Y26925181D02*
X34246666Y26925181D01*
X34246666Y26925181D02*
X34341904Y26877562D01*
X34341904Y26877562D02*
X34389523Y26829943D01*
X34389523Y26829943D02*
X34437142Y26734705D01*
X34437142Y26734705D02*
X34437142Y26591848D01*
X34437142Y26591848D02*
X34389523Y26496610D01*
X34389523Y26496610D02*
X34341904Y26448991D01*
X34341904Y26448991D02*
X34246666Y26401372D01*
X34246666Y26401372D02*
X33865714Y26401372D01*
X34818095Y26829943D02*
X34865714Y26877562D01*
X34865714Y26877562D02*
X34960952Y26925181D01*
X34960952Y26925181D02*
X35199047Y26925181D01*
X35199047Y26925181D02*
X35294285Y26877562D01*
X35294285Y26877562D02*
X35341904Y26829943D01*
X35341904Y26829943D02*
X35389523Y26734705D01*
X35389523Y26734705D02*
X35389523Y26639467D01*
X35389523Y26639467D02*
X35341904Y26496610D01*
X35341904Y26496610D02*
X34770476Y25925181D01*
X34770476Y25925181D02*
X35389523Y25925181D01*
X35770476Y26829943D02*
X35818095Y26877562D01*
X35818095Y26877562D02*
X35913333Y26925181D01*
X35913333Y26925181D02*
X36151428Y26925181D01*
X36151428Y26925181D02*
X36246666Y26877562D01*
X36246666Y26877562D02*
X36294285Y26829943D01*
X36294285Y26829943D02*
X36341904Y26734705D01*
X36341904Y26734705D02*
X36341904Y26639467D01*
X36341904Y26639467D02*
X36294285Y26496610D01*
X36294285Y26496610D02*
X35722857Y25925181D01*
X35722857Y25925181D02*
X36341904Y25925181D01*
X55732142Y15870181D02*
X55398809Y16346372D01*
X55160714Y15870181D02*
X55160714Y16870181D01*
X55160714Y16870181D02*
X55541666Y16870181D01*
X55541666Y16870181D02*
X55636904Y16822562D01*
X55636904Y16822562D02*
X55684523Y16774943D01*
X55684523Y16774943D02*
X55732142Y16679705D01*
X55732142Y16679705D02*
X55732142Y16536848D01*
X55732142Y16536848D02*
X55684523Y16441610D01*
X55684523Y16441610D02*
X55636904Y16393991D01*
X55636904Y16393991D02*
X55541666Y16346372D01*
X55541666Y16346372D02*
X55160714Y16346372D01*
X56684523Y15870181D02*
X56113095Y15870181D01*
X56398809Y15870181D02*
X56398809Y16870181D01*
X56398809Y16870181D02*
X56303571Y16727324D01*
X56303571Y16727324D02*
X56208333Y16632086D01*
X56208333Y16632086D02*
X56113095Y16584467D01*
X57255952Y16441610D02*
X57160714Y16489229D01*
X57160714Y16489229D02*
X57113095Y16536848D01*
X57113095Y16536848D02*
X57065476Y16632086D01*
X57065476Y16632086D02*
X57065476Y16679705D01*
X57065476Y16679705D02*
X57113095Y16774943D01*
X57113095Y16774943D02*
X57160714Y16822562D01*
X57160714Y16822562D02*
X57255952Y16870181D01*
X57255952Y16870181D02*
X57446428Y16870181D01*
X57446428Y16870181D02*
X57541666Y16822562D01*
X57541666Y16822562D02*
X57589285Y16774943D01*
X57589285Y16774943D02*
X57636904Y16679705D01*
X57636904Y16679705D02*
X57636904Y16632086D01*
X57636904Y16632086D02*
X57589285Y16536848D01*
X57589285Y16536848D02*
X57541666Y16489229D01*
X57541666Y16489229D02*
X57446428Y16441610D01*
X57446428Y16441610D02*
X57255952Y16441610D01*
X57255952Y16441610D02*
X57160714Y16393991D01*
X57160714Y16393991D02*
X57113095Y16346372D01*
X57113095Y16346372D02*
X57065476Y16251134D01*
X57065476Y16251134D02*
X57065476Y16060658D01*
X57065476Y16060658D02*
X57113095Y15965420D01*
X57113095Y15965420D02*
X57160714Y15917800D01*
X57160714Y15917800D02*
X57255952Y15870181D01*
X57255952Y15870181D02*
X57446428Y15870181D01*
X57446428Y15870181D02*
X57541666Y15917800D01*
X57541666Y15917800D02*
X57589285Y15965420D01*
X57589285Y15965420D02*
X57636904Y16060658D01*
X57636904Y16060658D02*
X57636904Y16251134D01*
X57636904Y16251134D02*
X57589285Y16346372D01*
X57589285Y16346372D02*
X57541666Y16393991D01*
X57541666Y16393991D02*
X57446428Y16441610D01*
X48659580Y20582143D02*
X48707200Y20534524D01*
X48707200Y20534524D02*
X48754819Y20391667D01*
X48754819Y20391667D02*
X48754819Y20296429D01*
X48754819Y20296429D02*
X48707200Y20153572D01*
X48707200Y20153572D02*
X48611961Y20058334D01*
X48611961Y20058334D02*
X48516723Y20010715D01*
X48516723Y20010715D02*
X48326247Y19963096D01*
X48326247Y19963096D02*
X48183390Y19963096D01*
X48183390Y19963096D02*
X47992914Y20010715D01*
X47992914Y20010715D02*
X47897676Y20058334D01*
X47897676Y20058334D02*
X47802438Y20153572D01*
X47802438Y20153572D02*
X47754819Y20296429D01*
X47754819Y20296429D02*
X47754819Y20391667D01*
X47754819Y20391667D02*
X47802438Y20534524D01*
X47802438Y20534524D02*
X47850057Y20582143D01*
X47850057Y20963096D02*
X47802438Y21010715D01*
X47802438Y21010715D02*
X47754819Y21105953D01*
X47754819Y21105953D02*
X47754819Y21344048D01*
X47754819Y21344048D02*
X47802438Y21439286D01*
X47802438Y21439286D02*
X47850057Y21486905D01*
X47850057Y21486905D02*
X47945295Y21534524D01*
X47945295Y21534524D02*
X48040533Y21534524D01*
X48040533Y21534524D02*
X48183390Y21486905D01*
X48183390Y21486905D02*
X48754819Y20915477D01*
X48754819Y20915477D02*
X48754819Y21534524D01*
X48754819Y22010715D02*
X48754819Y22201191D01*
X48754819Y22201191D02*
X48707200Y22296429D01*
X48707200Y22296429D02*
X48659580Y22344048D01*
X48659580Y22344048D02*
X48516723Y22439286D01*
X48516723Y22439286D02*
X48326247Y22486905D01*
X48326247Y22486905D02*
X47945295Y22486905D01*
X47945295Y22486905D02*
X47850057Y22439286D01*
X47850057Y22439286D02*
X47802438Y22391667D01*
X47802438Y22391667D02*
X47754819Y22296429D01*
X47754819Y22296429D02*
X47754819Y22105953D01*
X47754819Y22105953D02*
X47802438Y22010715D01*
X47802438Y22010715D02*
X47850057Y21963096D01*
X47850057Y21963096D02*
X47945295Y21915477D01*
X47945295Y21915477D02*
X48183390Y21915477D01*
X48183390Y21915477D02*
X48278628Y21963096D01*
X48278628Y21963096D02*
X48326247Y22010715D01*
X48326247Y22010715D02*
X48373866Y22105953D01*
X48373866Y22105953D02*
X48373866Y22296429D01*
X48373866Y22296429D02*
X48326247Y22391667D01*
X48326247Y22391667D02*
X48278628Y22439286D01*
X48278628Y22439286D02*
X48183390Y22486905D01*
X15838095Y22945181D02*
X15838095Y22135658D01*
X15838095Y22135658D02*
X15885714Y22040420D01*
X15885714Y22040420D02*
X15933333Y21992800D01*
X15933333Y21992800D02*
X16028571Y21945181D01*
X16028571Y21945181D02*
X16219047Y21945181D01*
X16219047Y21945181D02*
X16314285Y21992800D01*
X16314285Y21992800D02*
X16361904Y22040420D01*
X16361904Y22040420D02*
X16409523Y22135658D01*
X16409523Y22135658D02*
X16409523Y22945181D01*
X17314285Y22611848D02*
X17314285Y21945181D01*
X17076190Y22992800D02*
X16838095Y22278515D01*
X16838095Y22278515D02*
X17457142Y22278515D01*
X28204819Y29288096D02*
X29014342Y29288096D01*
X29014342Y29288096D02*
X29109580Y29335715D01*
X29109580Y29335715D02*
X29157200Y29383334D01*
X29157200Y29383334D02*
X29204819Y29478572D01*
X29204819Y29478572D02*
X29204819Y29669048D01*
X29204819Y29669048D02*
X29157200Y29764286D01*
X29157200Y29764286D02*
X29109580Y29811905D01*
X29109580Y29811905D02*
X29014342Y29859524D01*
X29014342Y29859524D02*
X28204819Y29859524D01*
X28204819Y30240477D02*
X28204819Y30859524D01*
X28204819Y30859524D02*
X28585771Y30526191D01*
X28585771Y30526191D02*
X28585771Y30669048D01*
X28585771Y30669048D02*
X28633390Y30764286D01*
X28633390Y30764286D02*
X28681009Y30811905D01*
X28681009Y30811905D02*
X28776247Y30859524D01*
X28776247Y30859524D02*
X29014342Y30859524D01*
X29014342Y30859524D02*
X29109580Y30811905D01*
X29109580Y30811905D02*
X29157200Y30764286D01*
X29157200Y30764286D02*
X29204819Y30669048D01*
X29204819Y30669048D02*
X29204819Y30383334D01*
X29204819Y30383334D02*
X29157200Y30288096D01*
X29157200Y30288096D02*
X29109580Y30240477D01*
X31554819Y37007143D02*
X31078628Y36673810D01*
X31554819Y36435715D02*
X30554819Y36435715D01*
X30554819Y36435715D02*
X30554819Y36816667D01*
X30554819Y36816667D02*
X30602438Y36911905D01*
X30602438Y36911905D02*
X30650057Y36959524D01*
X30650057Y36959524D02*
X30745295Y37007143D01*
X30745295Y37007143D02*
X30888152Y37007143D01*
X30888152Y37007143D02*
X30983390Y36959524D01*
X30983390Y36959524D02*
X31031009Y36911905D01*
X31031009Y36911905D02*
X31078628Y36816667D01*
X31078628Y36816667D02*
X31078628Y36435715D01*
X30650057Y37388096D02*
X30602438Y37435715D01*
X30602438Y37435715D02*
X30554819Y37530953D01*
X30554819Y37530953D02*
X30554819Y37769048D01*
X30554819Y37769048D02*
X30602438Y37864286D01*
X30602438Y37864286D02*
X30650057Y37911905D01*
X30650057Y37911905D02*
X30745295Y37959524D01*
X30745295Y37959524D02*
X30840533Y37959524D01*
X30840533Y37959524D02*
X30983390Y37911905D01*
X30983390Y37911905D02*
X31554819Y37340477D01*
X31554819Y37340477D02*
X31554819Y37959524D01*
X30554819Y38816667D02*
X30554819Y38626191D01*
X30554819Y38626191D02*
X30602438Y38530953D01*
X30602438Y38530953D02*
X30650057Y38483334D01*
X30650057Y38483334D02*
X30792914Y38388096D01*
X30792914Y38388096D02*
X30983390Y38340477D01*
X30983390Y38340477D02*
X31364342Y38340477D01*
X31364342Y38340477D02*
X31459580Y38388096D01*
X31459580Y38388096D02*
X31507200Y38435715D01*
X31507200Y38435715D02*
X31554819Y38530953D01*
X31554819Y38530953D02*
X31554819Y38721429D01*
X31554819Y38721429D02*
X31507200Y38816667D01*
X31507200Y38816667D02*
X31459580Y38864286D01*
X31459580Y38864286D02*
X31364342Y38911905D01*
X31364342Y38911905D02*
X31126247Y38911905D01*
X31126247Y38911905D02*
X31031009Y38864286D01*
X31031009Y38864286D02*
X30983390Y38816667D01*
X30983390Y38816667D02*
X30935771Y38721429D01*
X30935771Y38721429D02*
X30935771Y38530953D01*
X30935771Y38530953D02*
X30983390Y38435715D01*
X30983390Y38435715D02*
X31031009Y38388096D01*
X31031009Y38388096D02*
X31126247Y38340477D01*
X33029580Y47458334D02*
X33077200Y47410715D01*
X33077200Y47410715D02*
X33124819Y47267858D01*
X33124819Y47267858D02*
X33124819Y47172620D01*
X33124819Y47172620D02*
X33077200Y47029763D01*
X33077200Y47029763D02*
X32981961Y46934525D01*
X32981961Y46934525D02*
X32886723Y46886906D01*
X32886723Y46886906D02*
X32696247Y46839287D01*
X32696247Y46839287D02*
X32553390Y46839287D01*
X32553390Y46839287D02*
X32362914Y46886906D01*
X32362914Y46886906D02*
X32267676Y46934525D01*
X32267676Y46934525D02*
X32172438Y47029763D01*
X32172438Y47029763D02*
X32124819Y47172620D01*
X32124819Y47172620D02*
X32124819Y47267858D01*
X32124819Y47267858D02*
X32172438Y47410715D01*
X32172438Y47410715D02*
X32220057Y47458334D01*
X33124819Y48410715D02*
X33124819Y47839287D01*
X33124819Y48125001D02*
X32124819Y48125001D01*
X32124819Y48125001D02*
X32267676Y48029763D01*
X32267676Y48029763D02*
X32362914Y47934525D01*
X32362914Y47934525D02*
X32410533Y47839287D01*
X8104819Y19308334D02*
X7628628Y18975001D01*
X8104819Y18736906D02*
X7104819Y18736906D01*
X7104819Y18736906D02*
X7104819Y19117858D01*
X7104819Y19117858D02*
X7152438Y19213096D01*
X7152438Y19213096D02*
X7200057Y19260715D01*
X7200057Y19260715D02*
X7295295Y19308334D01*
X7295295Y19308334D02*
X7438152Y19308334D01*
X7438152Y19308334D02*
X7533390Y19260715D01*
X7533390Y19260715D02*
X7581009Y19213096D01*
X7581009Y19213096D02*
X7628628Y19117858D01*
X7628628Y19117858D02*
X7628628Y18736906D01*
X7104819Y19641668D02*
X7104819Y20260715D01*
X7104819Y20260715D02*
X7485771Y19927382D01*
X7485771Y19927382D02*
X7485771Y20070239D01*
X7485771Y20070239D02*
X7533390Y20165477D01*
X7533390Y20165477D02*
X7581009Y20213096D01*
X7581009Y20213096D02*
X7676247Y20260715D01*
X7676247Y20260715D02*
X7914342Y20260715D01*
X7914342Y20260715D02*
X8009580Y20213096D01*
X8009580Y20213096D02*
X8057200Y20165477D01*
X8057200Y20165477D02*
X8104819Y20070239D01*
X8104819Y20070239D02*
X8104819Y19784525D01*
X8104819Y19784525D02*
X8057200Y19689287D01*
X8057200Y19689287D02*
X8009580Y19641668D01*
X37754819Y37107143D02*
X37278628Y36773810D01*
X37754819Y36535715D02*
X36754819Y36535715D01*
X36754819Y36535715D02*
X36754819Y36916667D01*
X36754819Y36916667D02*
X36802438Y37011905D01*
X36802438Y37011905D02*
X36850057Y37059524D01*
X36850057Y37059524D02*
X36945295Y37107143D01*
X36945295Y37107143D02*
X37088152Y37107143D01*
X37088152Y37107143D02*
X37183390Y37059524D01*
X37183390Y37059524D02*
X37231009Y37011905D01*
X37231009Y37011905D02*
X37278628Y36916667D01*
X37278628Y36916667D02*
X37278628Y36535715D01*
X36850057Y37488096D02*
X36802438Y37535715D01*
X36802438Y37535715D02*
X36754819Y37630953D01*
X36754819Y37630953D02*
X36754819Y37869048D01*
X36754819Y37869048D02*
X36802438Y37964286D01*
X36802438Y37964286D02*
X36850057Y38011905D01*
X36850057Y38011905D02*
X36945295Y38059524D01*
X36945295Y38059524D02*
X37040533Y38059524D01*
X37040533Y38059524D02*
X37183390Y38011905D01*
X37183390Y38011905D02*
X37754819Y37440477D01*
X37754819Y37440477D02*
X37754819Y38059524D01*
X36754819Y38392858D02*
X36754819Y39059524D01*
X36754819Y39059524D02*
X37754819Y38630953D01*
X44559580Y5707143D02*
X44607200Y5659524D01*
X44607200Y5659524D02*
X44654819Y5516667D01*
X44654819Y5516667D02*
X44654819Y5421429D01*
X44654819Y5421429D02*
X44607200Y5278572D01*
X44607200Y5278572D02*
X44511961Y5183334D01*
X44511961Y5183334D02*
X44416723Y5135715D01*
X44416723Y5135715D02*
X44226247Y5088096D01*
X44226247Y5088096D02*
X44083390Y5088096D01*
X44083390Y5088096D02*
X43892914Y5135715D01*
X43892914Y5135715D02*
X43797676Y5183334D01*
X43797676Y5183334D02*
X43702438Y5278572D01*
X43702438Y5278572D02*
X43654819Y5421429D01*
X43654819Y5421429D02*
X43654819Y5516667D01*
X43654819Y5516667D02*
X43702438Y5659524D01*
X43702438Y5659524D02*
X43750057Y5707143D01*
X43750057Y6088096D02*
X43702438Y6135715D01*
X43702438Y6135715D02*
X43654819Y6230953D01*
X43654819Y6230953D02*
X43654819Y6469048D01*
X43654819Y6469048D02*
X43702438Y6564286D01*
X43702438Y6564286D02*
X43750057Y6611905D01*
X43750057Y6611905D02*
X43845295Y6659524D01*
X43845295Y6659524D02*
X43940533Y6659524D01*
X43940533Y6659524D02*
X44083390Y6611905D01*
X44083390Y6611905D02*
X44654819Y6040477D01*
X44654819Y6040477D02*
X44654819Y6659524D01*
X43654819Y7278572D02*
X43654819Y7373810D01*
X43654819Y7373810D02*
X43702438Y7469048D01*
X43702438Y7469048D02*
X43750057Y7516667D01*
X43750057Y7516667D02*
X43845295Y7564286D01*
X43845295Y7564286D02*
X44035771Y7611905D01*
X44035771Y7611905D02*
X44273866Y7611905D01*
X44273866Y7611905D02*
X44464342Y7564286D01*
X44464342Y7564286D02*
X44559580Y7516667D01*
X44559580Y7516667D02*
X44607200Y7469048D01*
X44607200Y7469048D02*
X44654819Y7373810D01*
X44654819Y7373810D02*
X44654819Y7278572D01*
X44654819Y7278572D02*
X44607200Y7183334D01*
X44607200Y7183334D02*
X44559580Y7135715D01*
X44559580Y7135715D02*
X44464342Y7088096D01*
X44464342Y7088096D02*
X44273866Y7040477D01*
X44273866Y7040477D02*
X44035771Y7040477D01*
X44035771Y7040477D02*
X43845295Y7088096D01*
X43845295Y7088096D02*
X43750057Y7135715D01*
X43750057Y7135715D02*
X43702438Y7183334D01*
X43702438Y7183334D02*
X43654819Y7278572D01*
X58154819Y10807143D02*
X57678628Y10473810D01*
X58154819Y10235715D02*
X57154819Y10235715D01*
X57154819Y10235715D02*
X57154819Y10616667D01*
X57154819Y10616667D02*
X57202438Y10711905D01*
X57202438Y10711905D02*
X57250057Y10759524D01*
X57250057Y10759524D02*
X57345295Y10807143D01*
X57345295Y10807143D02*
X57488152Y10807143D01*
X57488152Y10807143D02*
X57583390Y10759524D01*
X57583390Y10759524D02*
X57631009Y10711905D01*
X57631009Y10711905D02*
X57678628Y10616667D01*
X57678628Y10616667D02*
X57678628Y10235715D01*
X58154819Y11759524D02*
X58154819Y11188096D01*
X58154819Y11473810D02*
X57154819Y11473810D01*
X57154819Y11473810D02*
X57297676Y11378572D01*
X57297676Y11378572D02*
X57392914Y11283334D01*
X57392914Y11283334D02*
X57440533Y11188096D01*
X57154819Y12092858D02*
X57154819Y12759524D01*
X57154819Y12759524D02*
X58154819Y12330953D01*
X44504819Y26632143D02*
X44028628Y26298810D01*
X44504819Y26060715D02*
X43504819Y26060715D01*
X43504819Y26060715D02*
X43504819Y26441667D01*
X43504819Y26441667D02*
X43552438Y26536905D01*
X43552438Y26536905D02*
X43600057Y26584524D01*
X43600057Y26584524D02*
X43695295Y26632143D01*
X43695295Y26632143D02*
X43838152Y26632143D01*
X43838152Y26632143D02*
X43933390Y26584524D01*
X43933390Y26584524D02*
X43981009Y26536905D01*
X43981009Y26536905D02*
X44028628Y26441667D01*
X44028628Y26441667D02*
X44028628Y26060715D01*
X43600057Y27013096D02*
X43552438Y27060715D01*
X43552438Y27060715D02*
X43504819Y27155953D01*
X43504819Y27155953D02*
X43504819Y27394048D01*
X43504819Y27394048D02*
X43552438Y27489286D01*
X43552438Y27489286D02*
X43600057Y27536905D01*
X43600057Y27536905D02*
X43695295Y27584524D01*
X43695295Y27584524D02*
X43790533Y27584524D01*
X43790533Y27584524D02*
X43933390Y27536905D01*
X43933390Y27536905D02*
X44504819Y26965477D01*
X44504819Y26965477D02*
X44504819Y27584524D01*
X43838152Y28441667D02*
X44504819Y28441667D01*
X43457200Y28203572D02*
X44171485Y27965477D01*
X44171485Y27965477D02*
X44171485Y28584524D01*
X50157142Y29820420D02*
X50109523Y29772800D01*
X50109523Y29772800D02*
X49966666Y29725181D01*
X49966666Y29725181D02*
X49871428Y29725181D01*
X49871428Y29725181D02*
X49728571Y29772800D01*
X49728571Y29772800D02*
X49633333Y29868039D01*
X49633333Y29868039D02*
X49585714Y29963277D01*
X49585714Y29963277D02*
X49538095Y30153753D01*
X49538095Y30153753D02*
X49538095Y30296610D01*
X49538095Y30296610D02*
X49585714Y30487086D01*
X49585714Y30487086D02*
X49633333Y30582324D01*
X49633333Y30582324D02*
X49728571Y30677562D01*
X49728571Y30677562D02*
X49871428Y30725181D01*
X49871428Y30725181D02*
X49966666Y30725181D01*
X49966666Y30725181D02*
X50109523Y30677562D01*
X50109523Y30677562D02*
X50157142Y30629943D01*
X51109523Y29725181D02*
X50538095Y29725181D01*
X50823809Y29725181D02*
X50823809Y30725181D01*
X50823809Y30725181D02*
X50728571Y30582324D01*
X50728571Y30582324D02*
X50633333Y30487086D01*
X50633333Y30487086D02*
X50538095Y30439467D01*
X51728571Y30725181D02*
X51823809Y30725181D01*
X51823809Y30725181D02*
X51919047Y30677562D01*
X51919047Y30677562D02*
X51966666Y30629943D01*
X51966666Y30629943D02*
X52014285Y30534705D01*
X52014285Y30534705D02*
X52061904Y30344229D01*
X52061904Y30344229D02*
X52061904Y30106134D01*
X52061904Y30106134D02*
X52014285Y29915658D01*
X52014285Y29915658D02*
X51966666Y29820420D01*
X51966666Y29820420D02*
X51919047Y29772800D01*
X51919047Y29772800D02*
X51823809Y29725181D01*
X51823809Y29725181D02*
X51728571Y29725181D01*
X51728571Y29725181D02*
X51633333Y29772800D01*
X51633333Y29772800D02*
X51585714Y29820420D01*
X51585714Y29820420D02*
X51538095Y29915658D01*
X51538095Y29915658D02*
X51490476Y30106134D01*
X51490476Y30106134D02*
X51490476Y30344229D01*
X51490476Y30344229D02*
X51538095Y30534705D01*
X51538095Y30534705D02*
X51585714Y30629943D01*
X51585714Y30629943D02*
X51633333Y30677562D01*
X51633333Y30677562D02*
X51728571Y30725181D01*
X44157142Y20395181D02*
X43823809Y20871372D01*
X43585714Y20395181D02*
X43585714Y21395181D01*
X43585714Y21395181D02*
X43966666Y21395181D01*
X43966666Y21395181D02*
X44061904Y21347562D01*
X44061904Y21347562D02*
X44109523Y21299943D01*
X44109523Y21299943D02*
X44157142Y21204705D01*
X44157142Y21204705D02*
X44157142Y21061848D01*
X44157142Y21061848D02*
X44109523Y20966610D01*
X44109523Y20966610D02*
X44061904Y20918991D01*
X44061904Y20918991D02*
X43966666Y20871372D01*
X43966666Y20871372D02*
X43585714Y20871372D01*
X44538095Y21299943D02*
X44585714Y21347562D01*
X44585714Y21347562D02*
X44680952Y21395181D01*
X44680952Y21395181D02*
X44919047Y21395181D01*
X44919047Y21395181D02*
X45014285Y21347562D01*
X45014285Y21347562D02*
X45061904Y21299943D01*
X45061904Y21299943D02*
X45109523Y21204705D01*
X45109523Y21204705D02*
X45109523Y21109467D01*
X45109523Y21109467D02*
X45061904Y20966610D01*
X45061904Y20966610D02*
X44490476Y20395181D01*
X44490476Y20395181D02*
X45109523Y20395181D01*
X45728571Y21395181D02*
X45823809Y21395181D01*
X45823809Y21395181D02*
X45919047Y21347562D01*
X45919047Y21347562D02*
X45966666Y21299943D01*
X45966666Y21299943D02*
X46014285Y21204705D01*
X46014285Y21204705D02*
X46061904Y21014229D01*
X46061904Y21014229D02*
X46061904Y20776134D01*
X46061904Y20776134D02*
X46014285Y20585658D01*
X46014285Y20585658D02*
X45966666Y20490420D01*
X45966666Y20490420D02*
X45919047Y20442800D01*
X45919047Y20442800D02*
X45823809Y20395181D01*
X45823809Y20395181D02*
X45728571Y20395181D01*
X45728571Y20395181D02*
X45633333Y20442800D01*
X45633333Y20442800D02*
X45585714Y20490420D01*
X45585714Y20490420D02*
X45538095Y20585658D01*
X45538095Y20585658D02*
X45490476Y20776134D01*
X45490476Y20776134D02*
X45490476Y21014229D01*
X45490476Y21014229D02*
X45538095Y21204705D01*
X45538095Y21204705D02*
X45585714Y21299943D01*
X45585714Y21299943D02*
X45633333Y21347562D01*
X45633333Y21347562D02*
X45728571Y21395181D01*
X13904819Y10783334D02*
X13428628Y10450001D01*
X13904819Y10211906D02*
X12904819Y10211906D01*
X12904819Y10211906D02*
X12904819Y10592858D01*
X12904819Y10592858D02*
X12952438Y10688096D01*
X12952438Y10688096D02*
X13000057Y10735715D01*
X13000057Y10735715D02*
X13095295Y10783334D01*
X13095295Y10783334D02*
X13238152Y10783334D01*
X13238152Y10783334D02*
X13333390Y10735715D01*
X13333390Y10735715D02*
X13381009Y10688096D01*
X13381009Y10688096D02*
X13428628Y10592858D01*
X13428628Y10592858D02*
X13428628Y10211906D01*
X13904819Y11259525D02*
X13904819Y11450001D01*
X13904819Y11450001D02*
X13857200Y11545239D01*
X13857200Y11545239D02*
X13809580Y11592858D01*
X13809580Y11592858D02*
X13666723Y11688096D01*
X13666723Y11688096D02*
X13476247Y11735715D01*
X13476247Y11735715D02*
X13095295Y11735715D01*
X13095295Y11735715D02*
X13000057Y11688096D01*
X13000057Y11688096D02*
X12952438Y11640477D01*
X12952438Y11640477D02*
X12904819Y11545239D01*
X12904819Y11545239D02*
X12904819Y11354763D01*
X12904819Y11354763D02*
X12952438Y11259525D01*
X12952438Y11259525D02*
X13000057Y11211906D01*
X13000057Y11211906D02*
X13095295Y11164287D01*
X13095295Y11164287D02*
X13333390Y11164287D01*
X13333390Y11164287D02*
X13428628Y11211906D01*
X13428628Y11211906D02*
X13476247Y11259525D01*
X13476247Y11259525D02*
X13523866Y11354763D01*
X13523866Y11354763D02*
X13523866Y11545239D01*
X13523866Y11545239D02*
X13476247Y11640477D01*
X13476247Y11640477D02*
X13428628Y11688096D01*
X13428628Y11688096D02*
X13333390Y11735715D01*
X28207142Y24615420D02*
X28159523Y24567800D01*
X28159523Y24567800D02*
X28016666Y24520181D01*
X28016666Y24520181D02*
X27921428Y24520181D01*
X27921428Y24520181D02*
X27778571Y24567800D01*
X27778571Y24567800D02*
X27683333Y24663039D01*
X27683333Y24663039D02*
X27635714Y24758277D01*
X27635714Y24758277D02*
X27588095Y24948753D01*
X27588095Y24948753D02*
X27588095Y25091610D01*
X27588095Y25091610D02*
X27635714Y25282086D01*
X27635714Y25282086D02*
X27683333Y25377324D01*
X27683333Y25377324D02*
X27778571Y25472562D01*
X27778571Y25472562D02*
X27921428Y25520181D01*
X27921428Y25520181D02*
X28016666Y25520181D01*
X28016666Y25520181D02*
X28159523Y25472562D01*
X28159523Y25472562D02*
X28207142Y25424943D01*
X29159523Y24520181D02*
X28588095Y24520181D01*
X28873809Y24520181D02*
X28873809Y25520181D01*
X28873809Y25520181D02*
X28778571Y25377324D01*
X28778571Y25377324D02*
X28683333Y25282086D01*
X28683333Y25282086D02*
X28588095Y25234467D01*
X29730952Y25091610D02*
X29635714Y25139229D01*
X29635714Y25139229D02*
X29588095Y25186848D01*
X29588095Y25186848D02*
X29540476Y25282086D01*
X29540476Y25282086D02*
X29540476Y25329705D01*
X29540476Y25329705D02*
X29588095Y25424943D01*
X29588095Y25424943D02*
X29635714Y25472562D01*
X29635714Y25472562D02*
X29730952Y25520181D01*
X29730952Y25520181D02*
X29921428Y25520181D01*
X29921428Y25520181D02*
X30016666Y25472562D01*
X30016666Y25472562D02*
X30064285Y25424943D01*
X30064285Y25424943D02*
X30111904Y25329705D01*
X30111904Y25329705D02*
X30111904Y25282086D01*
X30111904Y25282086D02*
X30064285Y25186848D01*
X30064285Y25186848D02*
X30016666Y25139229D01*
X30016666Y25139229D02*
X29921428Y25091610D01*
X29921428Y25091610D02*
X29730952Y25091610D01*
X29730952Y25091610D02*
X29635714Y25043991D01*
X29635714Y25043991D02*
X29588095Y24996372D01*
X29588095Y24996372D02*
X29540476Y24901134D01*
X29540476Y24901134D02*
X29540476Y24710658D01*
X29540476Y24710658D02*
X29588095Y24615420D01*
X29588095Y24615420D02*
X29635714Y24567800D01*
X29635714Y24567800D02*
X29730952Y24520181D01*
X29730952Y24520181D02*
X29921428Y24520181D01*
X29921428Y24520181D02*
X30016666Y24567800D01*
X30016666Y24567800D02*
X30064285Y24615420D01*
X30064285Y24615420D02*
X30111904Y24710658D01*
X30111904Y24710658D02*
X30111904Y24901134D01*
X30111904Y24901134D02*
X30064285Y24996372D01*
X30064285Y24996372D02*
X30016666Y25043991D01*
X30016666Y25043991D02*
X29921428Y25091610D01*
X43833333Y47845181D02*
X43500000Y48321372D01*
X43261905Y47845181D02*
X43261905Y48845181D01*
X43261905Y48845181D02*
X43642857Y48845181D01*
X43642857Y48845181D02*
X43738095Y48797562D01*
X43738095Y48797562D02*
X43785714Y48749943D01*
X43785714Y48749943D02*
X43833333Y48654705D01*
X43833333Y48654705D02*
X43833333Y48511848D01*
X43833333Y48511848D02*
X43785714Y48416610D01*
X43785714Y48416610D02*
X43738095Y48368991D01*
X43738095Y48368991D02*
X43642857Y48321372D01*
X43642857Y48321372D02*
X43261905Y48321372D01*
X44690476Y48845181D02*
X44500000Y48845181D01*
X44500000Y48845181D02*
X44404762Y48797562D01*
X44404762Y48797562D02*
X44357143Y48749943D01*
X44357143Y48749943D02*
X44261905Y48607086D01*
X44261905Y48607086D02*
X44214286Y48416610D01*
X44214286Y48416610D02*
X44214286Y48035658D01*
X44214286Y48035658D02*
X44261905Y47940420D01*
X44261905Y47940420D02*
X44309524Y47892800D01*
X44309524Y47892800D02*
X44404762Y47845181D01*
X44404762Y47845181D02*
X44595238Y47845181D01*
X44595238Y47845181D02*
X44690476Y47892800D01*
X44690476Y47892800D02*
X44738095Y47940420D01*
X44738095Y47940420D02*
X44785714Y48035658D01*
X44785714Y48035658D02*
X44785714Y48273753D01*
X44785714Y48273753D02*
X44738095Y48368991D01*
X44738095Y48368991D02*
X44690476Y48416610D01*
X44690476Y48416610D02*
X44595238Y48464229D01*
X44595238Y48464229D02*
X44404762Y48464229D01*
X44404762Y48464229D02*
X44309524Y48416610D01*
X44309524Y48416610D02*
X44261905Y48368991D01*
X44261905Y48368991D02*
X44214286Y48273753D01*
X50724819Y46703334D02*
X50248628Y46370001D01*
X50724819Y46131906D02*
X49724819Y46131906D01*
X49724819Y46131906D02*
X49724819Y46512858D01*
X49724819Y46512858D02*
X49772438Y46608096D01*
X49772438Y46608096D02*
X49820057Y46655715D01*
X49820057Y46655715D02*
X49915295Y46703334D01*
X49915295Y46703334D02*
X50058152Y46703334D01*
X50058152Y46703334D02*
X50153390Y46655715D01*
X50153390Y46655715D02*
X50201009Y46608096D01*
X50201009Y46608096D02*
X50248628Y46512858D01*
X50248628Y46512858D02*
X50248628Y46131906D01*
X49820057Y47084287D02*
X49772438Y47131906D01*
X49772438Y47131906D02*
X49724819Y47227144D01*
X49724819Y47227144D02*
X49724819Y47465239D01*
X49724819Y47465239D02*
X49772438Y47560477D01*
X49772438Y47560477D02*
X49820057Y47608096D01*
X49820057Y47608096D02*
X49915295Y47655715D01*
X49915295Y47655715D02*
X50010533Y47655715D01*
X50010533Y47655715D02*
X50153390Y47608096D01*
X50153390Y47608096D02*
X50724819Y47036668D01*
X50724819Y47036668D02*
X50724819Y47655715D01*
X28007142Y26390420D02*
X27959523Y26342800D01*
X27959523Y26342800D02*
X27816666Y26295181D01*
X27816666Y26295181D02*
X27721428Y26295181D01*
X27721428Y26295181D02*
X27578571Y26342800D01*
X27578571Y26342800D02*
X27483333Y26438039D01*
X27483333Y26438039D02*
X27435714Y26533277D01*
X27435714Y26533277D02*
X27388095Y26723753D01*
X27388095Y26723753D02*
X27388095Y26866610D01*
X27388095Y26866610D02*
X27435714Y27057086D01*
X27435714Y27057086D02*
X27483333Y27152324D01*
X27483333Y27152324D02*
X27578571Y27247562D01*
X27578571Y27247562D02*
X27721428Y27295181D01*
X27721428Y27295181D02*
X27816666Y27295181D01*
X27816666Y27295181D02*
X27959523Y27247562D01*
X27959523Y27247562D02*
X28007142Y27199943D01*
X28959523Y26295181D02*
X28388095Y26295181D01*
X28673809Y26295181D02*
X28673809Y27295181D01*
X28673809Y27295181D02*
X28578571Y27152324D01*
X28578571Y27152324D02*
X28483333Y27057086D01*
X28483333Y27057086D02*
X28388095Y27009467D01*
X29435714Y26295181D02*
X29626190Y26295181D01*
X29626190Y26295181D02*
X29721428Y26342800D01*
X29721428Y26342800D02*
X29769047Y26390420D01*
X29769047Y26390420D02*
X29864285Y26533277D01*
X29864285Y26533277D02*
X29911904Y26723753D01*
X29911904Y26723753D02*
X29911904Y27104705D01*
X29911904Y27104705D02*
X29864285Y27199943D01*
X29864285Y27199943D02*
X29816666Y27247562D01*
X29816666Y27247562D02*
X29721428Y27295181D01*
X29721428Y27295181D02*
X29530952Y27295181D01*
X29530952Y27295181D02*
X29435714Y27247562D01*
X29435714Y27247562D02*
X29388095Y27199943D01*
X29388095Y27199943D02*
X29340476Y27104705D01*
X29340476Y27104705D02*
X29340476Y26866610D01*
X29340476Y26866610D02*
X29388095Y26771372D01*
X29388095Y26771372D02*
X29435714Y26723753D01*
X29435714Y26723753D02*
X29530952Y26676134D01*
X29530952Y26676134D02*
X29721428Y26676134D01*
X29721428Y26676134D02*
X29816666Y26723753D01*
X29816666Y26723753D02*
X29864285Y26771372D01*
X29864285Y26771372D02*
X29911904Y26866610D01*
X8109580Y16033334D02*
X8157200Y15985715D01*
X8157200Y15985715D02*
X8204819Y15842858D01*
X8204819Y15842858D02*
X8204819Y15747620D01*
X8204819Y15747620D02*
X8157200Y15604763D01*
X8157200Y15604763D02*
X8061961Y15509525D01*
X8061961Y15509525D02*
X7966723Y15461906D01*
X7966723Y15461906D02*
X7776247Y15414287D01*
X7776247Y15414287D02*
X7633390Y15414287D01*
X7633390Y15414287D02*
X7442914Y15461906D01*
X7442914Y15461906D02*
X7347676Y15509525D01*
X7347676Y15509525D02*
X7252438Y15604763D01*
X7252438Y15604763D02*
X7204819Y15747620D01*
X7204819Y15747620D02*
X7204819Y15842858D01*
X7204819Y15842858D02*
X7252438Y15985715D01*
X7252438Y15985715D02*
X7300057Y16033334D01*
X7300057Y16414287D02*
X7252438Y16461906D01*
X7252438Y16461906D02*
X7204819Y16557144D01*
X7204819Y16557144D02*
X7204819Y16795239D01*
X7204819Y16795239D02*
X7252438Y16890477D01*
X7252438Y16890477D02*
X7300057Y16938096D01*
X7300057Y16938096D02*
X7395295Y16985715D01*
X7395295Y16985715D02*
X7490533Y16985715D01*
X7490533Y16985715D02*
X7633390Y16938096D01*
X7633390Y16938096D02*
X8204819Y16366668D01*
X8204819Y16366668D02*
X8204819Y16985715D01*
X8404819Y12483334D02*
X7928628Y12150001D01*
X8404819Y11911906D02*
X7404819Y11911906D01*
X7404819Y11911906D02*
X7404819Y12292858D01*
X7404819Y12292858D02*
X7452438Y12388096D01*
X7452438Y12388096D02*
X7500057Y12435715D01*
X7500057Y12435715D02*
X7595295Y12483334D01*
X7595295Y12483334D02*
X7738152Y12483334D01*
X7738152Y12483334D02*
X7833390Y12435715D01*
X7833390Y12435715D02*
X7881009Y12388096D01*
X7881009Y12388096D02*
X7928628Y12292858D01*
X7928628Y12292858D02*
X7928628Y11911906D01*
X7738152Y13340477D02*
X8404819Y13340477D01*
X7357200Y13102382D02*
X8071485Y12864287D01*
X8071485Y12864287D02*
X8071485Y13483334D01*
X39688095Y45095181D02*
X39688095Y44285658D01*
X39688095Y44285658D02*
X39735714Y44190420D01*
X39735714Y44190420D02*
X39783333Y44142800D01*
X39783333Y44142800D02*
X39878571Y44095181D01*
X39878571Y44095181D02*
X40069047Y44095181D01*
X40069047Y44095181D02*
X40164285Y44142800D01*
X40164285Y44142800D02*
X40211904Y44190420D01*
X40211904Y44190420D02*
X40259523Y44285658D01*
X40259523Y44285658D02*
X40259523Y45095181D01*
X41259523Y44095181D02*
X40688095Y44095181D01*
X40973809Y44095181D02*
X40973809Y45095181D01*
X40973809Y45095181D02*
X40878571Y44952324D01*
X40878571Y44952324D02*
X40783333Y44857086D01*
X40783333Y44857086D02*
X40688095Y44809467D01*
X16009580Y35957143D02*
X16057200Y35909524D01*
X16057200Y35909524D02*
X16104819Y35766667D01*
X16104819Y35766667D02*
X16104819Y35671429D01*
X16104819Y35671429D02*
X16057200Y35528572D01*
X16057200Y35528572D02*
X15961961Y35433334D01*
X15961961Y35433334D02*
X15866723Y35385715D01*
X15866723Y35385715D02*
X15676247Y35338096D01*
X15676247Y35338096D02*
X15533390Y35338096D01*
X15533390Y35338096D02*
X15342914Y35385715D01*
X15342914Y35385715D02*
X15247676Y35433334D01*
X15247676Y35433334D02*
X15152438Y35528572D01*
X15152438Y35528572D02*
X15104819Y35671429D01*
X15104819Y35671429D02*
X15104819Y35766667D01*
X15104819Y35766667D02*
X15152438Y35909524D01*
X15152438Y35909524D02*
X15200057Y35957143D01*
X16104819Y36909524D02*
X16104819Y36338096D01*
X16104819Y36623810D02*
X15104819Y36623810D01*
X15104819Y36623810D02*
X15247676Y36528572D01*
X15247676Y36528572D02*
X15342914Y36433334D01*
X15342914Y36433334D02*
X15390533Y36338096D01*
X15104819Y37242858D02*
X15104819Y37909524D01*
X15104819Y37909524D02*
X16104819Y37480953D01*
X6820000Y49680000D02*
X8370000Y49680000D01*
X9640000Y49960000D02*
X57900000Y49960000D01*
X6820000Y51230000D02*
X6820000Y49680000D01*
X7100000Y52500000D02*
X9640000Y52500000D01*
X9640000Y52500000D02*
X9640000Y49960000D01*
X7100000Y55040000D02*
X7100000Y52500000D01*
X57900000Y55040000D02*
X57900000Y49960000D01*
X57900000Y55040000D02*
X7100000Y55040000D01*
D11*
X37497936Y45660000D02*
X37952064Y45660000D01*
X37497936Y44190000D02*
X37952064Y44190000D01*
X34990000Y34347936D02*
X34990000Y34802064D01*
X36460000Y34347936D02*
X36460000Y34802064D01*
X54735000Y11031252D02*
X54735000Y10508748D01*
X53265000Y11031252D02*
X53265000Y10508748D01*
X33250000Y33100000D02*
X34390000Y33100000D01*
X20460000Y44650000D02*
X20460000Y46450000D01*
X20460000Y44650000D02*
X20460000Y43850000D01*
X17340000Y44650000D02*
X17340000Y45450000D01*
X17340000Y44650000D02*
X17340000Y43850000D01*
X54760000Y14422064D02*
X54760000Y13967936D01*
X53290000Y14422064D02*
X53290000Y13967936D01*
X12335000Y16311252D02*
X12335000Y15788748D01*
X10865000Y16311252D02*
X10865000Y15788748D01*
X17065000Y32938748D02*
X17065000Y33461252D01*
X18535000Y32938748D02*
X18535000Y33461252D01*
X32913748Y32635000D02*
X33436252Y32635000D01*
X32913748Y31165000D02*
X33436252Y31165000D01*
X40897936Y47135000D02*
X41352064Y47135000D01*
X40897936Y45665000D02*
X41352064Y45665000D01*
X34122936Y45660000D02*
X34577064Y45660000D01*
X34122936Y44190000D02*
X34577064Y44190000D01*
X39475000Y33175000D02*
X40615000Y33175000D01*
X46970000Y25885000D02*
X45050000Y25885000D01*
X45050000Y25885000D02*
X45050000Y23200000D01*
X46970000Y23200000D02*
X46970000Y25885000D01*
X21490000Y23088748D02*
X21490000Y23611252D01*
X22960000Y23088748D02*
X22960000Y23611252D01*
X40538748Y12860000D02*
X41061252Y12860000D01*
X40538748Y11390000D02*
X41061252Y11390000D01*
X13510000Y13590000D02*
X13510000Y14920000D01*
X14840000Y13590000D02*
X13510000Y13590000D01*
X16110000Y13590000D02*
X21250000Y13590000D01*
X16110000Y13590000D02*
X16110000Y16190000D01*
X21250000Y13590000D02*
X21250000Y18790000D01*
X13510000Y16190000D02*
X13510000Y18790000D01*
X16110000Y16190000D02*
X13510000Y16190000D01*
X13510000Y18790000D02*
X21250000Y18790000D01*
X21988748Y31535000D02*
X22511252Y31535000D01*
X21988748Y30065000D02*
X22511252Y30065000D01*
X23710000Y16211252D02*
X23710000Y15688748D01*
X22240000Y16211252D02*
X22240000Y15688748D01*
X22240000Y12322936D02*
X22240000Y12777064D01*
X23710000Y12322936D02*
X23710000Y12777064D01*
X25685000Y16211252D02*
X25685000Y15688748D01*
X24215000Y16211252D02*
X24215000Y15688748D01*
X45240000Y9538748D02*
X45240000Y10061252D01*
X46710000Y9538748D02*
X46710000Y10061252D01*
X19186252Y40740000D02*
X18663748Y40740000D01*
X19186252Y42210000D02*
X18663748Y42210000D01*
X53240000Y18195436D02*
X53240000Y18649564D01*
X54710000Y18195436D02*
X54710000Y18649564D01*
X40538748Y10885000D02*
X41061252Y10885000D01*
X40538748Y9415000D02*
X41061252Y9415000D01*
X23710000Y19577064D02*
X23710000Y19122936D01*
X22240000Y19577064D02*
X22240000Y19122936D01*
X25238748Y27710000D02*
X25761252Y27710000D01*
X25238748Y26240000D02*
X25761252Y26240000D01*
X24215000Y12322936D02*
X24215000Y12777064D01*
X25685000Y12322936D02*
X25685000Y12777064D01*
X53245000Y21546248D02*
X53245000Y22068752D01*
X54715000Y21546248D02*
X54715000Y22068752D01*
X9752936Y31410000D02*
X10207064Y31410000D01*
X9752936Y29940000D02*
X10207064Y29940000D01*
X19161252Y46945000D02*
X18638748Y46945000D01*
X19161252Y48415000D02*
X18638748Y48415000D01*
X22935000Y27111252D02*
X22935000Y26588748D01*
X21465000Y27111252D02*
X21465000Y26588748D01*
X54555000Y46632936D02*
X54555000Y47087064D01*
X56025000Y46632936D02*
X56025000Y47087064D01*
X57820000Y20430000D02*
X59150000Y20430000D01*
X57820000Y19100000D02*
X57820000Y20430000D01*
X57820000Y17830000D02*
X57820000Y12690000D01*
X57820000Y17830000D02*
X60420000Y17830000D01*
X57820000Y12690000D02*
X63020000Y12690000D01*
X60420000Y20430000D02*
X63020000Y20430000D01*
X60420000Y17830000D02*
X60420000Y20430000D01*
X63020000Y20430000D02*
X63020000Y12690000D01*
X21988748Y33510000D02*
X22511252Y33510000D01*
X21988748Y32040000D02*
X22511252Y32040000D01*
X50961252Y21290000D02*
X50438748Y21290000D01*
X50961252Y22760000D02*
X50438748Y22760000D01*
X55205000Y21561248D02*
X55205000Y22083752D01*
X56675000Y21561248D02*
X56675000Y22083752D01*
X39702064Y31140000D02*
X39247936Y31140000D01*
X39702064Y32610000D02*
X39247936Y32610000D01*
X47286252Y11805000D02*
X46763748Y11805000D01*
X47286252Y13275000D02*
X46763748Y13275000D01*
X8320000Y29710000D02*
X8320000Y27790000D01*
X8320000Y27790000D02*
X11005000Y27790000D01*
X11005000Y29710000D02*
X8320000Y29710000D01*
X48360000Y14113000D02*
X47885000Y14113000D01*
X43140000Y14588000D02*
X43140000Y14113000D01*
X48360000Y14588000D02*
X48360000Y14113000D01*
X43140000Y18858000D02*
X43140000Y19333000D01*
X48360000Y18858000D02*
X48360000Y19333000D01*
X43140000Y19333000D02*
X43615000Y19333000D01*
X48360000Y19333000D02*
X47885000Y19333000D01*
X52360000Y25375000D02*
X52360000Y27175000D01*
X52360000Y25375000D02*
X52360000Y24575000D01*
X49240000Y25375000D02*
X49240000Y26175000D01*
X49240000Y25375000D02*
X49240000Y24575000D01*
X26661252Y32365000D02*
X26138748Y32365000D01*
X26661252Y33835000D02*
X26138748Y33835000D01*
X34852936Y23515000D02*
X35307064Y23515000D01*
X34852936Y22045000D02*
X35307064Y22045000D01*
X12335000Y19677064D02*
X12335000Y19222936D01*
X10865000Y19677064D02*
X10865000Y19222936D01*
X25685000Y19577064D02*
X25685000Y19122936D01*
X24215000Y19577064D02*
X24215000Y19122936D01*
X50463748Y18785000D02*
X50986252Y18785000D01*
X50463748Y17315000D02*
X50986252Y17315000D01*
X56735000Y11031252D02*
X56735000Y10508748D01*
X55265000Y11031252D02*
X55265000Y10508748D01*
X47535000Y9598748D02*
X47535000Y10121252D01*
X49005000Y9598748D02*
X49005000Y10121252D01*
X34852936Y25465000D02*
X35307064Y25465000D01*
X34852936Y23995000D02*
X35307064Y23995000D01*
X55205000Y18195436D02*
X55205000Y18649564D01*
X56675000Y18195436D02*
X56675000Y18649564D01*
X50463748Y20785000D02*
X50986252Y20785000D01*
X50463748Y19315000D02*
X50986252Y19315000D01*
X16600000Y23240000D02*
X20200000Y23240000D01*
X16600000Y23240000D02*
X14400000Y23240000D01*
X16600000Y31260000D02*
X18800000Y31260000D01*
X16600000Y31260000D02*
X14400000Y31260000D01*
X27910000Y30050000D02*
X27910000Y31850000D01*
X27910000Y30050000D02*
X27910000Y29250000D01*
X24790000Y30050000D02*
X24790000Y30850000D01*
X24790000Y30050000D02*
X24790000Y29250000D01*
X32015000Y37422936D02*
X32015000Y37877064D01*
X33485000Y37422936D02*
X33485000Y37877064D01*
X33615000Y47363748D02*
X33615000Y47886252D01*
X35085000Y47363748D02*
X35085000Y47886252D01*
X10335000Y19677064D02*
X10335000Y19222936D01*
X8865000Y19677064D02*
X8865000Y19222936D01*
X38215000Y37522936D02*
X38215000Y37977064D01*
X39685000Y37522936D02*
X39685000Y37977064D01*
X43265000Y9538748D02*
X43265000Y10061252D01*
X44735000Y9538748D02*
X44735000Y10061252D01*
X56710000Y14422064D02*
X56710000Y13967936D01*
X55240000Y14422064D02*
X55240000Y13967936D01*
X43325000Y24002936D02*
X43325000Y24457064D01*
X44795000Y24002936D02*
X44795000Y24457064D01*
X50538748Y29235000D02*
X51061252Y29235000D01*
X50538748Y27765000D02*
X51061252Y27765000D01*
X41952064Y20065000D02*
X41497936Y20065000D01*
X41952064Y21535000D02*
X41497936Y21535000D01*
X10865000Y12422936D02*
X10865000Y12877064D01*
X12335000Y12422936D02*
X12335000Y12877064D01*
X26238748Y23735000D02*
X26761252Y23735000D01*
X26238748Y22265000D02*
X26761252Y22265000D01*
X40897936Y49060000D02*
X41352064Y49060000D01*
X40897936Y47590000D02*
X41352064Y47590000D01*
X51185000Y46642936D02*
X51185000Y47097064D01*
X52655000Y46642936D02*
X52655000Y47097064D01*
X25238748Y25710000D02*
X25761252Y25710000D01*
X25238748Y24240000D02*
X25761252Y24240000D01*
X10335000Y16311252D02*
X10335000Y15788748D01*
X8865000Y16311252D02*
X8865000Y15788748D01*
X8865000Y12422936D02*
X8865000Y12877064D01*
X10335000Y12422936D02*
X10335000Y12877064D01*
X37390000Y46020000D02*
X39190000Y46020000D01*
X37390000Y46020000D02*
X36590000Y46020000D01*
X37390000Y49140000D02*
X38190000Y49140000D01*
X37390000Y49140000D02*
X36590000Y49140000D01*
X15065000Y32938748D02*
X15065000Y33461252D01*
X16535000Y32938748D02*
X16535000Y33461252D01*
M02*
