G04 #@! TF.GenerationSoftware,KiCad,Pcbnew,7.0.9-7.0.9~ubuntu23.04.1*
G04 #@! TF.CreationDate,2023-12-23T19:33:35+00:00*
G04 #@! TF.ProjectId,pedalboard-soundcard,70656461-6c62-46f6-9172-642d736f756e,0.0.1*
G04 #@! TF.SameCoordinates,Original*
G04 #@! TF.FileFunction,Soldermask,Top*
G04 #@! TF.FilePolarity,Negative*
%FSLAX46Y46*%
G04 Gerber Fmt 4.6, Leading zero omitted, Abs format (unit mm)*
G04 Created by KiCad (PCBNEW 7.0.9-7.0.9~ubuntu23.04.1) date 2023-12-23 19:33:35*
%MOMM*%
%LPD*%
G01*
G04 APERTURE LIST*
%ADD10C,6.200000*%
%ADD11R,1.727200X1.727200*%
%ADD12O,1.727200X1.727200*%
%ADD13R,0.850000X0.650000*%
%ADD14R,1.700000X1.700000*%
%ADD15O,1.700000X1.700000*%
%ADD16R,3.100000X3.100000*%
G04 APERTURE END LIST*
D10*
X61500000Y52500000D03*
X3500000Y52500000D03*
X3500000Y3500000D03*
X61500000Y3500000D03*
D11*
X8370000Y51230000D03*
D12*
X8370000Y53770000D03*
X10910000Y51230000D03*
X10910000Y53770000D03*
X13450000Y51230000D03*
X13450000Y53770000D03*
X15990000Y51230000D03*
X15990000Y53770000D03*
X18530000Y51230000D03*
X18530000Y53770000D03*
X21070000Y51230000D03*
X21070000Y53770000D03*
X23610000Y51230000D03*
X23610000Y53770000D03*
X26150000Y51230000D03*
X26150000Y53770000D03*
X28690000Y51230000D03*
X28690000Y53770000D03*
X31230000Y51230000D03*
X31230000Y53770000D03*
X33770000Y51230000D03*
X33770000Y53770000D03*
X36310000Y51230000D03*
X36310000Y53770000D03*
X38850000Y51230000D03*
X38850000Y53770000D03*
X41390000Y51230000D03*
X41390000Y53770000D03*
X43930000Y51230000D03*
X43930000Y53770000D03*
X46470000Y51230000D03*
X46470000Y53770000D03*
X49010000Y51230000D03*
X49010000Y53770000D03*
X51550000Y51230000D03*
X51550000Y53770000D03*
X54090000Y51230000D03*
X54090000Y53770000D03*
X56630000Y51230000D03*
X56630000Y53770000D03*
G36*
G01*
X36300000Y44475000D02*
X36300000Y45375000D01*
G75*
G02*
X36550000Y45625000I250000J0D01*
G01*
X37075000Y45625000D01*
G75*
G02*
X37325000Y45375000I0J-250000D01*
G01*
X37325000Y44475000D01*
G75*
G02*
X37075000Y44225000I-250000J0D01*
G01*
X36550000Y44225000D01*
G75*
G02*
X36300000Y44475000I0J250000D01*
G01*
G37*
G36*
G01*
X38125000Y44475000D02*
X38125000Y45375000D01*
G75*
G02*
X38375000Y45625000I250000J0D01*
G01*
X38900000Y45625000D01*
G75*
G02*
X39150000Y45375000I0J-250000D01*
G01*
X39150000Y44475000D01*
G75*
G02*
X38900000Y44225000I-250000J0D01*
G01*
X38375000Y44225000D01*
G75*
G02*
X38125000Y44475000I0J250000D01*
G01*
G37*
G36*
G01*
X36100000Y33195000D02*
X35200000Y33195000D01*
G75*
G02*
X34950000Y33445000I0J250000D01*
G01*
X34950000Y33970000D01*
G75*
G02*
X35200000Y34220000I250000J0D01*
G01*
X36100000Y34220000D01*
G75*
G02*
X36350000Y33970000I0J-250000D01*
G01*
X36350000Y33445000D01*
G75*
G02*
X36100000Y33195000I-250000J0D01*
G01*
G37*
G36*
G01*
X36100000Y35020000D02*
X35200000Y35020000D01*
G75*
G02*
X34950000Y35270000I0J250000D01*
G01*
X34950000Y35795000D01*
G75*
G02*
X35200000Y36045000I250000J0D01*
G01*
X36100000Y36045000D01*
G75*
G02*
X36350000Y35795000I0J-250000D01*
G01*
X36350000Y35270000D01*
G75*
G02*
X36100000Y35020000I-250000J0D01*
G01*
G37*
G36*
G01*
X53525000Y12220000D02*
X54475000Y12220000D01*
G75*
G02*
X54725000Y11970000I0J-250000D01*
G01*
X54725000Y11470000D01*
G75*
G02*
X54475000Y11220000I-250000J0D01*
G01*
X53525000Y11220000D01*
G75*
G02*
X53275000Y11470000I0J250000D01*
G01*
X53275000Y11970000D01*
G75*
G02*
X53525000Y12220000I250000J0D01*
G01*
G37*
G36*
G01*
X53525000Y10320000D02*
X54475000Y10320000D01*
G75*
G02*
X54725000Y10070000I0J-250000D01*
G01*
X54725000Y9570000D01*
G75*
G02*
X54475000Y9320000I-250000J0D01*
G01*
X53525000Y9320000D01*
G75*
G02*
X53275000Y9570000I0J250000D01*
G01*
X53275000Y10070000D01*
G75*
G02*
X53525000Y10320000I250000J0D01*
G01*
G37*
D13*
X34025000Y33625000D03*
X34025000Y35275000D03*
X32475000Y35275000D03*
X32475000Y33625000D03*
G36*
G01*
X19700000Y46450000D02*
X20000000Y46450000D01*
G75*
G02*
X20150000Y46300000I0J-150000D01*
G01*
X20150000Y45275000D01*
G75*
G02*
X20000000Y45125000I-150000J0D01*
G01*
X19700000Y45125000D01*
G75*
G02*
X19550000Y45275000I0J150000D01*
G01*
X19550000Y46300000D01*
G75*
G02*
X19700000Y46450000I150000J0D01*
G01*
G37*
G36*
G01*
X18750000Y46450000D02*
X19050000Y46450000D01*
G75*
G02*
X19200000Y46300000I0J-150000D01*
G01*
X19200000Y45275000D01*
G75*
G02*
X19050000Y45125000I-150000J0D01*
G01*
X18750000Y45125000D01*
G75*
G02*
X18600000Y45275000I0J150000D01*
G01*
X18600000Y46300000D01*
G75*
G02*
X18750000Y46450000I150000J0D01*
G01*
G37*
G36*
G01*
X17800000Y46450000D02*
X18100000Y46450000D01*
G75*
G02*
X18250000Y46300000I0J-150000D01*
G01*
X18250000Y45275000D01*
G75*
G02*
X18100000Y45125000I-150000J0D01*
G01*
X17800000Y45125000D01*
G75*
G02*
X17650000Y45275000I0J150000D01*
G01*
X17650000Y46300000D01*
G75*
G02*
X17800000Y46450000I150000J0D01*
G01*
G37*
G36*
G01*
X17800000Y44175000D02*
X18100000Y44175000D01*
G75*
G02*
X18250000Y44025000I0J-150000D01*
G01*
X18250000Y43000000D01*
G75*
G02*
X18100000Y42850000I-150000J0D01*
G01*
X17800000Y42850000D01*
G75*
G02*
X17650000Y43000000I0J150000D01*
G01*
X17650000Y44025000D01*
G75*
G02*
X17800000Y44175000I150000J0D01*
G01*
G37*
G36*
G01*
X19700000Y44175000D02*
X20000000Y44175000D01*
G75*
G02*
X20150000Y44025000I0J-150000D01*
G01*
X20150000Y43000000D01*
G75*
G02*
X20000000Y42850000I-150000J0D01*
G01*
X19700000Y42850000D01*
G75*
G02*
X19550000Y43000000I0J150000D01*
G01*
X19550000Y44025000D01*
G75*
G02*
X19700000Y44175000I150000J0D01*
G01*
G37*
G36*
G01*
X53575000Y15620000D02*
X54475000Y15620000D01*
G75*
G02*
X54725000Y15370000I0J-250000D01*
G01*
X54725000Y14845000D01*
G75*
G02*
X54475000Y14595000I-250000J0D01*
G01*
X53575000Y14595000D01*
G75*
G02*
X53325000Y14845000I0J250000D01*
G01*
X53325000Y15370000D01*
G75*
G02*
X53575000Y15620000I250000J0D01*
G01*
G37*
G36*
G01*
X53575000Y13795000D02*
X54475000Y13795000D01*
G75*
G02*
X54725000Y13545000I0J-250000D01*
G01*
X54725000Y13020000D01*
G75*
G02*
X54475000Y12770000I-250000J0D01*
G01*
X53575000Y12770000D01*
G75*
G02*
X53325000Y13020000I0J250000D01*
G01*
X53325000Y13545000D01*
G75*
G02*
X53575000Y13795000I250000J0D01*
G01*
G37*
G36*
G01*
X11125000Y17500000D02*
X12075000Y17500000D01*
G75*
G02*
X12325000Y17250000I0J-250000D01*
G01*
X12325000Y16750000D01*
G75*
G02*
X12075000Y16500000I-250000J0D01*
G01*
X11125000Y16500000D01*
G75*
G02*
X10875000Y16750000I0J250000D01*
G01*
X10875000Y17250000D01*
G75*
G02*
X11125000Y17500000I250000J0D01*
G01*
G37*
G36*
G01*
X11125000Y15600000D02*
X12075000Y15600000D01*
G75*
G02*
X12325000Y15350000I0J-250000D01*
G01*
X12325000Y14850000D01*
G75*
G02*
X12075000Y14600000I-250000J0D01*
G01*
X11125000Y14600000D01*
G75*
G02*
X10875000Y14850000I0J250000D01*
G01*
X10875000Y15350000D01*
G75*
G02*
X11125000Y15600000I250000J0D01*
G01*
G37*
G36*
G01*
X18275000Y31750000D02*
X17325000Y31750000D01*
G75*
G02*
X17075000Y32000000I0J250000D01*
G01*
X17075000Y32500000D01*
G75*
G02*
X17325000Y32750000I250000J0D01*
G01*
X18275000Y32750000D01*
G75*
G02*
X18525000Y32500000I0J-250000D01*
G01*
X18525000Y32000000D01*
G75*
G02*
X18275000Y31750000I-250000J0D01*
G01*
G37*
G36*
G01*
X18275000Y33650000D02*
X17325000Y33650000D01*
G75*
G02*
X17075000Y33900000I0J250000D01*
G01*
X17075000Y34400000D01*
G75*
G02*
X17325000Y34650000I250000J0D01*
G01*
X18275000Y34650000D01*
G75*
G02*
X18525000Y34400000I0J-250000D01*
G01*
X18525000Y33900000D01*
G75*
G02*
X18275000Y33650000I-250000J0D01*
G01*
G37*
G36*
G01*
X31725000Y31485000D02*
X31725000Y32435000D01*
G75*
G02*
X31975000Y32685000I250000J0D01*
G01*
X32475000Y32685000D01*
G75*
G02*
X32725000Y32435000I0J-250000D01*
G01*
X32725000Y31485000D01*
G75*
G02*
X32475000Y31235000I-250000J0D01*
G01*
X31975000Y31235000D01*
G75*
G02*
X31725000Y31485000I0J250000D01*
G01*
G37*
G36*
G01*
X33625000Y31485000D02*
X33625000Y32435000D01*
G75*
G02*
X33875000Y32685000I250000J0D01*
G01*
X34375000Y32685000D01*
G75*
G02*
X34625000Y32435000I0J-250000D01*
G01*
X34625000Y31485000D01*
G75*
G02*
X34375000Y31235000I-250000J0D01*
G01*
X33875000Y31235000D01*
G75*
G02*
X33625000Y31485000I0J250000D01*
G01*
G37*
G36*
G01*
X39700000Y45950000D02*
X39700000Y46850000D01*
G75*
G02*
X39950000Y47100000I250000J0D01*
G01*
X40475000Y47100000D01*
G75*
G02*
X40725000Y46850000I0J-250000D01*
G01*
X40725000Y45950000D01*
G75*
G02*
X40475000Y45700000I-250000J0D01*
G01*
X39950000Y45700000D01*
G75*
G02*
X39700000Y45950000I0J250000D01*
G01*
G37*
G36*
G01*
X41525000Y45950000D02*
X41525000Y46850000D01*
G75*
G02*
X41775000Y47100000I250000J0D01*
G01*
X42300000Y47100000D01*
G75*
G02*
X42550000Y46850000I0J-250000D01*
G01*
X42550000Y45950000D01*
G75*
G02*
X42300000Y45700000I-250000J0D01*
G01*
X41775000Y45700000D01*
G75*
G02*
X41525000Y45950000I0J250000D01*
G01*
G37*
G36*
G01*
X32925000Y44475000D02*
X32925000Y45375000D01*
G75*
G02*
X33175000Y45625000I250000J0D01*
G01*
X33700000Y45625000D01*
G75*
G02*
X33950000Y45375000I0J-250000D01*
G01*
X33950000Y44475000D01*
G75*
G02*
X33700000Y44225000I-250000J0D01*
G01*
X33175000Y44225000D01*
G75*
G02*
X32925000Y44475000I0J250000D01*
G01*
G37*
G36*
G01*
X34750000Y44475000D02*
X34750000Y45375000D01*
G75*
G02*
X35000000Y45625000I250000J0D01*
G01*
X35525000Y45625000D01*
G75*
G02*
X35775000Y45375000I0J-250000D01*
G01*
X35775000Y44475000D01*
G75*
G02*
X35525000Y44225000I-250000J0D01*
G01*
X35000000Y44225000D01*
G75*
G02*
X34750000Y44475000I0J250000D01*
G01*
G37*
X40250000Y33575000D03*
X40250000Y35225000D03*
X38700000Y35225000D03*
X38700000Y33575000D03*
G36*
G01*
X45553750Y25625000D02*
X46466250Y25625000D01*
G75*
G02*
X46710000Y25381250I0J-243750D01*
G01*
X46710000Y24893750D01*
G75*
G02*
X46466250Y24650000I-243750J0D01*
G01*
X45553750Y24650000D01*
G75*
G02*
X45310000Y24893750I0J243750D01*
G01*
X45310000Y25381250D01*
G75*
G02*
X45553750Y25625000I243750J0D01*
G01*
G37*
G36*
G01*
X45553750Y23750000D02*
X46466250Y23750000D01*
G75*
G02*
X46710000Y23506250I0J-243750D01*
G01*
X46710000Y23018750D01*
G75*
G02*
X46466250Y22775000I-243750J0D01*
G01*
X45553750Y22775000D01*
G75*
G02*
X45310000Y23018750I0J243750D01*
G01*
X45310000Y23506250D01*
G75*
G02*
X45553750Y23750000I243750J0D01*
G01*
G37*
G36*
G01*
X22700000Y21900000D02*
X21750000Y21900000D01*
G75*
G02*
X21500000Y22150000I0J250000D01*
G01*
X21500000Y22650000D01*
G75*
G02*
X21750000Y22900000I250000J0D01*
G01*
X22700000Y22900000D01*
G75*
G02*
X22950000Y22650000I0J-250000D01*
G01*
X22950000Y22150000D01*
G75*
G02*
X22700000Y21900000I-250000J0D01*
G01*
G37*
G36*
G01*
X22700000Y23800000D02*
X21750000Y23800000D01*
G75*
G02*
X21500000Y24050000I0J250000D01*
G01*
X21500000Y24550000D01*
G75*
G02*
X21750000Y24800000I250000J0D01*
G01*
X22700000Y24800000D01*
G75*
G02*
X22950000Y24550000I0J-250000D01*
G01*
X22950000Y24050000D01*
G75*
G02*
X22700000Y23800000I-250000J0D01*
G01*
G37*
G36*
G01*
X39350000Y11650000D02*
X39350000Y12600000D01*
G75*
G02*
X39600000Y12850000I250000J0D01*
G01*
X40100000Y12850000D01*
G75*
G02*
X40350000Y12600000I0J-250000D01*
G01*
X40350000Y11650000D01*
G75*
G02*
X40100000Y11400000I-250000J0D01*
G01*
X39600000Y11400000D01*
G75*
G02*
X39350000Y11650000I0J250000D01*
G01*
G37*
G36*
G01*
X41250000Y11650000D02*
X41250000Y12600000D01*
G75*
G02*
X41500000Y12850000I250000J0D01*
G01*
X42000000Y12850000D01*
G75*
G02*
X42250000Y12600000I0J-250000D01*
G01*
X42250000Y11650000D01*
G75*
G02*
X42000000Y11400000I-250000J0D01*
G01*
X41500000Y11400000D01*
G75*
G02*
X41250000Y11650000I0J250000D01*
G01*
G37*
D14*
X14840000Y14920000D03*
D15*
X14840000Y17460000D03*
X17380000Y14920000D03*
X17380000Y17460000D03*
X19920000Y14920000D03*
X19920000Y17460000D03*
G36*
G01*
X20800000Y30325000D02*
X20800000Y31275000D01*
G75*
G02*
X21050000Y31525000I250000J0D01*
G01*
X21550000Y31525000D01*
G75*
G02*
X21800000Y31275000I0J-250000D01*
G01*
X21800000Y30325000D01*
G75*
G02*
X21550000Y30075000I-250000J0D01*
G01*
X21050000Y30075000D01*
G75*
G02*
X20800000Y30325000I0J250000D01*
G01*
G37*
G36*
G01*
X22700000Y30325000D02*
X22700000Y31275000D01*
G75*
G02*
X22950000Y31525000I250000J0D01*
G01*
X23450000Y31525000D01*
G75*
G02*
X23700000Y31275000I0J-250000D01*
G01*
X23700000Y30325000D01*
G75*
G02*
X23450000Y30075000I-250000J0D01*
G01*
X22950000Y30075000D01*
G75*
G02*
X22700000Y30325000I0J250000D01*
G01*
G37*
G36*
G01*
X22500000Y17400000D02*
X23450000Y17400000D01*
G75*
G02*
X23700000Y17150000I0J-250000D01*
G01*
X23700000Y16650000D01*
G75*
G02*
X23450000Y16400000I-250000J0D01*
G01*
X22500000Y16400000D01*
G75*
G02*
X22250000Y16650000I0J250000D01*
G01*
X22250000Y17150000D01*
G75*
G02*
X22500000Y17400000I250000J0D01*
G01*
G37*
G36*
G01*
X22500000Y15500000D02*
X23450000Y15500000D01*
G75*
G02*
X23700000Y15250000I0J-250000D01*
G01*
X23700000Y14750000D01*
G75*
G02*
X23450000Y14500000I-250000J0D01*
G01*
X22500000Y14500000D01*
G75*
G02*
X22250000Y14750000I0J250000D01*
G01*
X22250000Y15250000D01*
G75*
G02*
X22500000Y15500000I250000J0D01*
G01*
G37*
G36*
G01*
X23425000Y11125000D02*
X22525000Y11125000D01*
G75*
G02*
X22275000Y11375000I0J250000D01*
G01*
X22275000Y11900000D01*
G75*
G02*
X22525000Y12150000I250000J0D01*
G01*
X23425000Y12150000D01*
G75*
G02*
X23675000Y11900000I0J-250000D01*
G01*
X23675000Y11375000D01*
G75*
G02*
X23425000Y11125000I-250000J0D01*
G01*
G37*
G36*
G01*
X23425000Y12950000D02*
X22525000Y12950000D01*
G75*
G02*
X22275000Y13200000I0J250000D01*
G01*
X22275000Y13725000D01*
G75*
G02*
X22525000Y13975000I250000J0D01*
G01*
X23425000Y13975000D01*
G75*
G02*
X23675000Y13725000I0J-250000D01*
G01*
X23675000Y13200000D01*
G75*
G02*
X23425000Y12950000I-250000J0D01*
G01*
G37*
G36*
G01*
X24475000Y17400000D02*
X25425000Y17400000D01*
G75*
G02*
X25675000Y17150000I0J-250000D01*
G01*
X25675000Y16650000D01*
G75*
G02*
X25425000Y16400000I-250000J0D01*
G01*
X24475000Y16400000D01*
G75*
G02*
X24225000Y16650000I0J250000D01*
G01*
X24225000Y17150000D01*
G75*
G02*
X24475000Y17400000I250000J0D01*
G01*
G37*
G36*
G01*
X24475000Y15500000D02*
X25425000Y15500000D01*
G75*
G02*
X25675000Y15250000I0J-250000D01*
G01*
X25675000Y14750000D01*
G75*
G02*
X25425000Y14500000I-250000J0D01*
G01*
X24475000Y14500000D01*
G75*
G02*
X24225000Y14750000I0J250000D01*
G01*
X24225000Y15250000D01*
G75*
G02*
X24475000Y15500000I250000J0D01*
G01*
G37*
G36*
G01*
X46450000Y8350000D02*
X45500000Y8350000D01*
G75*
G02*
X45250000Y8600000I0J250000D01*
G01*
X45250000Y9100000D01*
G75*
G02*
X45500000Y9350000I250000J0D01*
G01*
X46450000Y9350000D01*
G75*
G02*
X46700000Y9100000I0J-250000D01*
G01*
X46700000Y8600000D01*
G75*
G02*
X46450000Y8350000I-250000J0D01*
G01*
G37*
G36*
G01*
X46450000Y10250000D02*
X45500000Y10250000D01*
G75*
G02*
X45250000Y10500000I0J250000D01*
G01*
X45250000Y11000000D01*
G75*
G02*
X45500000Y11250000I250000J0D01*
G01*
X46450000Y11250000D01*
G75*
G02*
X46700000Y11000000I0J-250000D01*
G01*
X46700000Y10500000D01*
G75*
G02*
X46450000Y10250000I-250000J0D01*
G01*
G37*
G36*
G01*
X20375000Y41950000D02*
X20375000Y41000000D01*
G75*
G02*
X20125000Y40750000I-250000J0D01*
G01*
X19625000Y40750000D01*
G75*
G02*
X19375000Y41000000I0J250000D01*
G01*
X19375000Y41950000D01*
G75*
G02*
X19625000Y42200000I250000J0D01*
G01*
X20125000Y42200000D01*
G75*
G02*
X20375000Y41950000I0J-250000D01*
G01*
G37*
G36*
G01*
X18475000Y41950000D02*
X18475000Y41000000D01*
G75*
G02*
X18225000Y40750000I-250000J0D01*
G01*
X17725000Y40750000D01*
G75*
G02*
X17475000Y41000000I0J250000D01*
G01*
X17475000Y41950000D01*
G75*
G02*
X17725000Y42200000I250000J0D01*
G01*
X18225000Y42200000D01*
G75*
G02*
X18475000Y41950000I0J-250000D01*
G01*
G37*
G36*
G01*
X54425000Y16997500D02*
X53525000Y16997500D01*
G75*
G02*
X53275000Y17247500I0J250000D01*
G01*
X53275000Y17772500D01*
G75*
G02*
X53525000Y18022500I250000J0D01*
G01*
X54425000Y18022500D01*
G75*
G02*
X54675000Y17772500I0J-250000D01*
G01*
X54675000Y17247500D01*
G75*
G02*
X54425000Y16997500I-250000J0D01*
G01*
G37*
G36*
G01*
X54425000Y18822500D02*
X53525000Y18822500D01*
G75*
G02*
X53275000Y19072500I0J250000D01*
G01*
X53275000Y19597500D01*
G75*
G02*
X53525000Y19847500I250000J0D01*
G01*
X54425000Y19847500D01*
G75*
G02*
X54675000Y19597500I0J-250000D01*
G01*
X54675000Y19072500D01*
G75*
G02*
X54425000Y18822500I-250000J0D01*
G01*
G37*
G36*
G01*
X39350000Y9675000D02*
X39350000Y10625000D01*
G75*
G02*
X39600000Y10875000I250000J0D01*
G01*
X40100000Y10875000D01*
G75*
G02*
X40350000Y10625000I0J-250000D01*
G01*
X40350000Y9675000D01*
G75*
G02*
X40100000Y9425000I-250000J0D01*
G01*
X39600000Y9425000D01*
G75*
G02*
X39350000Y9675000I0J250000D01*
G01*
G37*
G36*
G01*
X41250000Y9675000D02*
X41250000Y10625000D01*
G75*
G02*
X41500000Y10875000I250000J0D01*
G01*
X42000000Y10875000D01*
G75*
G02*
X42250000Y10625000I0J-250000D01*
G01*
X42250000Y9675000D01*
G75*
G02*
X42000000Y9425000I-250000J0D01*
G01*
X41500000Y9425000D01*
G75*
G02*
X41250000Y9675000I0J250000D01*
G01*
G37*
G36*
G01*
X22525000Y20775000D02*
X23425000Y20775000D01*
G75*
G02*
X23675000Y20525000I0J-250000D01*
G01*
X23675000Y20000000D01*
G75*
G02*
X23425000Y19750000I-250000J0D01*
G01*
X22525000Y19750000D01*
G75*
G02*
X22275000Y20000000I0J250000D01*
G01*
X22275000Y20525000D01*
G75*
G02*
X22525000Y20775000I250000J0D01*
G01*
G37*
G36*
G01*
X22525000Y18950000D02*
X23425000Y18950000D01*
G75*
G02*
X23675000Y18700000I0J-250000D01*
G01*
X23675000Y18175000D01*
G75*
G02*
X23425000Y17925000I-250000J0D01*
G01*
X22525000Y17925000D01*
G75*
G02*
X22275000Y18175000I0J250000D01*
G01*
X22275000Y18700000D01*
G75*
G02*
X22525000Y18950000I250000J0D01*
G01*
G37*
G36*
G01*
X24050000Y26500000D02*
X24050000Y27450000D01*
G75*
G02*
X24300000Y27700000I250000J0D01*
G01*
X24800000Y27700000D01*
G75*
G02*
X25050000Y27450000I0J-250000D01*
G01*
X25050000Y26500000D01*
G75*
G02*
X24800000Y26250000I-250000J0D01*
G01*
X24300000Y26250000D01*
G75*
G02*
X24050000Y26500000I0J250000D01*
G01*
G37*
G36*
G01*
X25950000Y26500000D02*
X25950000Y27450000D01*
G75*
G02*
X26200000Y27700000I250000J0D01*
G01*
X26700000Y27700000D01*
G75*
G02*
X26950000Y27450000I0J-250000D01*
G01*
X26950000Y26500000D01*
G75*
G02*
X26700000Y26250000I-250000J0D01*
G01*
X26200000Y26250000D01*
G75*
G02*
X25950000Y26500000I0J250000D01*
G01*
G37*
G36*
G01*
X25400000Y11125000D02*
X24500000Y11125000D01*
G75*
G02*
X24250000Y11375000I0J250000D01*
G01*
X24250000Y11900000D01*
G75*
G02*
X24500000Y12150000I250000J0D01*
G01*
X25400000Y12150000D01*
G75*
G02*
X25650000Y11900000I0J-250000D01*
G01*
X25650000Y11375000D01*
G75*
G02*
X25400000Y11125000I-250000J0D01*
G01*
G37*
G36*
G01*
X25400000Y12950000D02*
X24500000Y12950000D01*
G75*
G02*
X24250000Y13200000I0J250000D01*
G01*
X24250000Y13725000D01*
G75*
G02*
X24500000Y13975000I250000J0D01*
G01*
X25400000Y13975000D01*
G75*
G02*
X25650000Y13725000I0J-250000D01*
G01*
X25650000Y13200000D01*
G75*
G02*
X25400000Y12950000I-250000J0D01*
G01*
G37*
G36*
G01*
X54455000Y20357500D02*
X53505000Y20357500D01*
G75*
G02*
X53255000Y20607500I0J250000D01*
G01*
X53255000Y21107500D01*
G75*
G02*
X53505000Y21357500I250000J0D01*
G01*
X54455000Y21357500D01*
G75*
G02*
X54705000Y21107500I0J-250000D01*
G01*
X54705000Y20607500D01*
G75*
G02*
X54455000Y20357500I-250000J0D01*
G01*
G37*
G36*
G01*
X54455000Y22257500D02*
X53505000Y22257500D01*
G75*
G02*
X53255000Y22507500I0J250000D01*
G01*
X53255000Y23007500D01*
G75*
G02*
X53505000Y23257500I250000J0D01*
G01*
X54455000Y23257500D01*
G75*
G02*
X54705000Y23007500I0J-250000D01*
G01*
X54705000Y22507500D01*
G75*
G02*
X54455000Y22257500I-250000J0D01*
G01*
G37*
G36*
G01*
X8555000Y30225000D02*
X8555000Y31125000D01*
G75*
G02*
X8805000Y31375000I250000J0D01*
G01*
X9330000Y31375000D01*
G75*
G02*
X9580000Y31125000I0J-250000D01*
G01*
X9580000Y30225000D01*
G75*
G02*
X9330000Y29975000I-250000J0D01*
G01*
X8805000Y29975000D01*
G75*
G02*
X8555000Y30225000I0J250000D01*
G01*
G37*
G36*
G01*
X10380000Y30225000D02*
X10380000Y31125000D01*
G75*
G02*
X10630000Y31375000I250000J0D01*
G01*
X11155000Y31375000D01*
G75*
G02*
X11405000Y31125000I0J-250000D01*
G01*
X11405000Y30225000D01*
G75*
G02*
X11155000Y29975000I-250000J0D01*
G01*
X10630000Y29975000D01*
G75*
G02*
X10380000Y30225000I0J250000D01*
G01*
G37*
G36*
G01*
X20350000Y48155000D02*
X20350000Y47205000D01*
G75*
G02*
X20100000Y46955000I-250000J0D01*
G01*
X19600000Y46955000D01*
G75*
G02*
X19350000Y47205000I0J250000D01*
G01*
X19350000Y48155000D01*
G75*
G02*
X19600000Y48405000I250000J0D01*
G01*
X20100000Y48405000D01*
G75*
G02*
X20350000Y48155000I0J-250000D01*
G01*
G37*
G36*
G01*
X18450000Y48155000D02*
X18450000Y47205000D01*
G75*
G02*
X18200000Y46955000I-250000J0D01*
G01*
X17700000Y46955000D01*
G75*
G02*
X17450000Y47205000I0J250000D01*
G01*
X17450000Y48155000D01*
G75*
G02*
X17700000Y48405000I250000J0D01*
G01*
X18200000Y48405000D01*
G75*
G02*
X18450000Y48155000I0J-250000D01*
G01*
G37*
G36*
G01*
X21725000Y28300000D02*
X22675000Y28300000D01*
G75*
G02*
X22925000Y28050000I0J-250000D01*
G01*
X22925000Y27550000D01*
G75*
G02*
X22675000Y27300000I-250000J0D01*
G01*
X21725000Y27300000D01*
G75*
G02*
X21475000Y27550000I0J250000D01*
G01*
X21475000Y28050000D01*
G75*
G02*
X21725000Y28300000I250000J0D01*
G01*
G37*
G36*
G01*
X21725000Y26400000D02*
X22675000Y26400000D01*
G75*
G02*
X22925000Y26150000I0J-250000D01*
G01*
X22925000Y25650000D01*
G75*
G02*
X22675000Y25400000I-250000J0D01*
G01*
X21725000Y25400000D01*
G75*
G02*
X21475000Y25650000I0J250000D01*
G01*
X21475000Y26150000D01*
G75*
G02*
X21725000Y26400000I250000J0D01*
G01*
G37*
G36*
G01*
X55740000Y45435000D02*
X54840000Y45435000D01*
G75*
G02*
X54590000Y45685000I0J250000D01*
G01*
X54590000Y46210000D01*
G75*
G02*
X54840000Y46460000I250000J0D01*
G01*
X55740000Y46460000D01*
G75*
G02*
X55990000Y46210000I0J-250000D01*
G01*
X55990000Y45685000D01*
G75*
G02*
X55740000Y45435000I-250000J0D01*
G01*
G37*
G36*
G01*
X55740000Y47260000D02*
X54840000Y47260000D01*
G75*
G02*
X54590000Y47510000I0J250000D01*
G01*
X54590000Y48035000D01*
G75*
G02*
X54840000Y48285000I250000J0D01*
G01*
X55740000Y48285000D01*
G75*
G02*
X55990000Y48035000I0J-250000D01*
G01*
X55990000Y47510000D01*
G75*
G02*
X55740000Y47260000I-250000J0D01*
G01*
G37*
D14*
X59150000Y19100000D03*
D15*
X61690000Y19100000D03*
X59150000Y16560000D03*
X61690000Y16560000D03*
X59150000Y14020000D03*
X61690000Y14020000D03*
G36*
G01*
X20800000Y32300000D02*
X20800000Y33250000D01*
G75*
G02*
X21050000Y33500000I250000J0D01*
G01*
X21550000Y33500000D01*
G75*
G02*
X21800000Y33250000I0J-250000D01*
G01*
X21800000Y32300000D01*
G75*
G02*
X21550000Y32050000I-250000J0D01*
G01*
X21050000Y32050000D01*
G75*
G02*
X20800000Y32300000I0J250000D01*
G01*
G37*
G36*
G01*
X22700000Y32300000D02*
X22700000Y33250000D01*
G75*
G02*
X22950000Y33500000I250000J0D01*
G01*
X23450000Y33500000D01*
G75*
G02*
X23700000Y33250000I0J-250000D01*
G01*
X23700000Y32300000D01*
G75*
G02*
X23450000Y32050000I-250000J0D01*
G01*
X22950000Y32050000D01*
G75*
G02*
X22700000Y32300000I0J250000D01*
G01*
G37*
G36*
G01*
X52150000Y22500000D02*
X52150000Y21550000D01*
G75*
G02*
X51900000Y21300000I-250000J0D01*
G01*
X51400000Y21300000D01*
G75*
G02*
X51150000Y21550000I0J250000D01*
G01*
X51150000Y22500000D01*
G75*
G02*
X51400000Y22750000I250000J0D01*
G01*
X51900000Y22750000D01*
G75*
G02*
X52150000Y22500000I0J-250000D01*
G01*
G37*
G36*
G01*
X50250000Y22500000D02*
X50250000Y21550000D01*
G75*
G02*
X50000000Y21300000I-250000J0D01*
G01*
X49500000Y21300000D01*
G75*
G02*
X49250000Y21550000I0J250000D01*
G01*
X49250000Y22500000D01*
G75*
G02*
X49500000Y22750000I250000J0D01*
G01*
X50000000Y22750000D01*
G75*
G02*
X50250000Y22500000I0J-250000D01*
G01*
G37*
G36*
G01*
X56415000Y20372500D02*
X55465000Y20372500D01*
G75*
G02*
X55215000Y20622500I0J250000D01*
G01*
X55215000Y21122500D01*
G75*
G02*
X55465000Y21372500I250000J0D01*
G01*
X56415000Y21372500D01*
G75*
G02*
X56665000Y21122500I0J-250000D01*
G01*
X56665000Y20622500D01*
G75*
G02*
X56415000Y20372500I-250000J0D01*
G01*
G37*
G36*
G01*
X56415000Y22272500D02*
X55465000Y22272500D01*
G75*
G02*
X55215000Y22522500I0J250000D01*
G01*
X55215000Y23022500D01*
G75*
G02*
X55465000Y23272500I250000J0D01*
G01*
X56415000Y23272500D01*
G75*
G02*
X56665000Y23022500I0J-250000D01*
G01*
X56665000Y22522500D01*
G75*
G02*
X56415000Y22272500I-250000J0D01*
G01*
G37*
G36*
G01*
X40900000Y32400000D02*
X40900000Y31500000D01*
G75*
G02*
X40650000Y31250000I-250000J0D01*
G01*
X40125000Y31250000D01*
G75*
G02*
X39875000Y31500000I0J250000D01*
G01*
X39875000Y32400000D01*
G75*
G02*
X40125000Y32650000I250000J0D01*
G01*
X40650000Y32650000D01*
G75*
G02*
X40900000Y32400000I0J-250000D01*
G01*
G37*
G36*
G01*
X39075000Y32400000D02*
X39075000Y31500000D01*
G75*
G02*
X38825000Y31250000I-250000J0D01*
G01*
X38300000Y31250000D01*
G75*
G02*
X38050000Y31500000I0J250000D01*
G01*
X38050000Y32400000D01*
G75*
G02*
X38300000Y32650000I250000J0D01*
G01*
X38825000Y32650000D01*
G75*
G02*
X39075000Y32400000I0J-250000D01*
G01*
G37*
G36*
G01*
X48475000Y13015000D02*
X48475000Y12065000D01*
G75*
G02*
X48225000Y11815000I-250000J0D01*
G01*
X47725000Y11815000D01*
G75*
G02*
X47475000Y12065000I0J250000D01*
G01*
X47475000Y13015000D01*
G75*
G02*
X47725000Y13265000I250000J0D01*
G01*
X48225000Y13265000D01*
G75*
G02*
X48475000Y13015000I0J-250000D01*
G01*
G37*
G36*
G01*
X46575000Y13015000D02*
X46575000Y12065000D01*
G75*
G02*
X46325000Y11815000I-250000J0D01*
G01*
X45825000Y11815000D01*
G75*
G02*
X45575000Y12065000I0J250000D01*
G01*
X45575000Y13015000D01*
G75*
G02*
X45825000Y13265000I250000J0D01*
G01*
X46325000Y13265000D01*
G75*
G02*
X46575000Y13015000I0J-250000D01*
G01*
G37*
G36*
G01*
X8580000Y28293750D02*
X8580000Y29206250D01*
G75*
G02*
X8823750Y29450000I243750J0D01*
G01*
X9311250Y29450000D01*
G75*
G02*
X9555000Y29206250I0J-243750D01*
G01*
X9555000Y28293750D01*
G75*
G02*
X9311250Y28050000I-243750J0D01*
G01*
X8823750Y28050000D01*
G75*
G02*
X8580000Y28293750I0J243750D01*
G01*
G37*
G36*
G01*
X10455000Y28293750D02*
X10455000Y29206250D01*
G75*
G02*
X10698750Y29450000I243750J0D01*
G01*
X11186250Y29450000D01*
G75*
G02*
X11430000Y29206250I0J-243750D01*
G01*
X11430000Y28293750D01*
G75*
G02*
X11186250Y28050000I-243750J0D01*
G01*
X10698750Y28050000D01*
G75*
G02*
X10455000Y28293750I0J243750D01*
G01*
G37*
G36*
G01*
X44062500Y13848000D02*
X43937500Y13848000D01*
G75*
G02*
X43875000Y13910500I0J62500D01*
G01*
X43875000Y14660500D01*
G75*
G02*
X43937500Y14723000I62500J0D01*
G01*
X44062500Y14723000D01*
G75*
G02*
X44125000Y14660500I0J-62500D01*
G01*
X44125000Y13910500D01*
G75*
G02*
X44062500Y13848000I-62500J0D01*
G01*
G37*
G36*
G01*
X44562500Y13848000D02*
X44437500Y13848000D01*
G75*
G02*
X44375000Y13910500I0J62500D01*
G01*
X44375000Y14660500D01*
G75*
G02*
X44437500Y14723000I62500J0D01*
G01*
X44562500Y14723000D01*
G75*
G02*
X44625000Y14660500I0J-62500D01*
G01*
X44625000Y13910500D01*
G75*
G02*
X44562500Y13848000I-62500J0D01*
G01*
G37*
G36*
G01*
X45062500Y13848000D02*
X44937500Y13848000D01*
G75*
G02*
X44875000Y13910500I0J62500D01*
G01*
X44875000Y14660500D01*
G75*
G02*
X44937500Y14723000I62500J0D01*
G01*
X45062500Y14723000D01*
G75*
G02*
X45125000Y14660500I0J-62500D01*
G01*
X45125000Y13910500D01*
G75*
G02*
X45062500Y13848000I-62500J0D01*
G01*
G37*
G36*
G01*
X45562500Y13848000D02*
X45437500Y13848000D01*
G75*
G02*
X45375000Y13910500I0J62500D01*
G01*
X45375000Y14660500D01*
G75*
G02*
X45437500Y14723000I62500J0D01*
G01*
X45562500Y14723000D01*
G75*
G02*
X45625000Y14660500I0J-62500D01*
G01*
X45625000Y13910500D01*
G75*
G02*
X45562500Y13848000I-62500J0D01*
G01*
G37*
G36*
G01*
X46062500Y13848000D02*
X45937500Y13848000D01*
G75*
G02*
X45875000Y13910500I0J62500D01*
G01*
X45875000Y14660500D01*
G75*
G02*
X45937500Y14723000I62500J0D01*
G01*
X46062500Y14723000D01*
G75*
G02*
X46125000Y14660500I0J-62500D01*
G01*
X46125000Y13910500D01*
G75*
G02*
X46062500Y13848000I-62500J0D01*
G01*
G37*
G36*
G01*
X46562500Y13848000D02*
X46437500Y13848000D01*
G75*
G02*
X46375000Y13910500I0J62500D01*
G01*
X46375000Y14660500D01*
G75*
G02*
X46437500Y14723000I62500J0D01*
G01*
X46562500Y14723000D01*
G75*
G02*
X46625000Y14660500I0J-62500D01*
G01*
X46625000Y13910500D01*
G75*
G02*
X46562500Y13848000I-62500J0D01*
G01*
G37*
G36*
G01*
X47062500Y13848000D02*
X46937500Y13848000D01*
G75*
G02*
X46875000Y13910500I0J62500D01*
G01*
X46875000Y14660500D01*
G75*
G02*
X46937500Y14723000I62500J0D01*
G01*
X47062500Y14723000D01*
G75*
G02*
X47125000Y14660500I0J-62500D01*
G01*
X47125000Y13910500D01*
G75*
G02*
X47062500Y13848000I-62500J0D01*
G01*
G37*
G36*
G01*
X47562500Y13848000D02*
X47437500Y13848000D01*
G75*
G02*
X47375000Y13910500I0J62500D01*
G01*
X47375000Y14660500D01*
G75*
G02*
X47437500Y14723000I62500J0D01*
G01*
X47562500Y14723000D01*
G75*
G02*
X47625000Y14660500I0J-62500D01*
G01*
X47625000Y13910500D01*
G75*
G02*
X47562500Y13848000I-62500J0D01*
G01*
G37*
G36*
G01*
X48562500Y14848000D02*
X47812500Y14848000D01*
G75*
G02*
X47750000Y14910500I0J62500D01*
G01*
X47750000Y15035500D01*
G75*
G02*
X47812500Y15098000I62500J0D01*
G01*
X48562500Y15098000D01*
G75*
G02*
X48625000Y15035500I0J-62500D01*
G01*
X48625000Y14910500D01*
G75*
G02*
X48562500Y14848000I-62500J0D01*
G01*
G37*
G36*
G01*
X48562500Y15348000D02*
X47812500Y15348000D01*
G75*
G02*
X47750000Y15410500I0J62500D01*
G01*
X47750000Y15535500D01*
G75*
G02*
X47812500Y15598000I62500J0D01*
G01*
X48562500Y15598000D01*
G75*
G02*
X48625000Y15535500I0J-62500D01*
G01*
X48625000Y15410500D01*
G75*
G02*
X48562500Y15348000I-62500J0D01*
G01*
G37*
G36*
G01*
X48562500Y15848000D02*
X47812500Y15848000D01*
G75*
G02*
X47750000Y15910500I0J62500D01*
G01*
X47750000Y16035500D01*
G75*
G02*
X47812500Y16098000I62500J0D01*
G01*
X48562500Y16098000D01*
G75*
G02*
X48625000Y16035500I0J-62500D01*
G01*
X48625000Y15910500D01*
G75*
G02*
X48562500Y15848000I-62500J0D01*
G01*
G37*
G36*
G01*
X48562500Y16348000D02*
X47812500Y16348000D01*
G75*
G02*
X47750000Y16410500I0J62500D01*
G01*
X47750000Y16535500D01*
G75*
G02*
X47812500Y16598000I62500J0D01*
G01*
X48562500Y16598000D01*
G75*
G02*
X48625000Y16535500I0J-62500D01*
G01*
X48625000Y16410500D01*
G75*
G02*
X48562500Y16348000I-62500J0D01*
G01*
G37*
G36*
G01*
X48562500Y16848000D02*
X47812500Y16848000D01*
G75*
G02*
X47750000Y16910500I0J62500D01*
G01*
X47750000Y17035500D01*
G75*
G02*
X47812500Y17098000I62500J0D01*
G01*
X48562500Y17098000D01*
G75*
G02*
X48625000Y17035500I0J-62500D01*
G01*
X48625000Y16910500D01*
G75*
G02*
X48562500Y16848000I-62500J0D01*
G01*
G37*
G36*
G01*
X48562500Y17348000D02*
X47812500Y17348000D01*
G75*
G02*
X47750000Y17410500I0J62500D01*
G01*
X47750000Y17535500D01*
G75*
G02*
X47812500Y17598000I62500J0D01*
G01*
X48562500Y17598000D01*
G75*
G02*
X48625000Y17535500I0J-62500D01*
G01*
X48625000Y17410500D01*
G75*
G02*
X48562500Y17348000I-62500J0D01*
G01*
G37*
G36*
G01*
X48562500Y17848000D02*
X47812500Y17848000D01*
G75*
G02*
X47750000Y17910500I0J62500D01*
G01*
X47750000Y18035500D01*
G75*
G02*
X47812500Y18098000I62500J0D01*
G01*
X48562500Y18098000D01*
G75*
G02*
X48625000Y18035500I0J-62500D01*
G01*
X48625000Y17910500D01*
G75*
G02*
X48562500Y17848000I-62500J0D01*
G01*
G37*
G36*
G01*
X48562500Y18348000D02*
X47812500Y18348000D01*
G75*
G02*
X47750000Y18410500I0J62500D01*
G01*
X47750000Y18535500D01*
G75*
G02*
X47812500Y18598000I62500J0D01*
G01*
X48562500Y18598000D01*
G75*
G02*
X48625000Y18535500I0J-62500D01*
G01*
X48625000Y18410500D01*
G75*
G02*
X48562500Y18348000I-62500J0D01*
G01*
G37*
G36*
G01*
X47562500Y18723000D02*
X47437500Y18723000D01*
G75*
G02*
X47375000Y18785500I0J62500D01*
G01*
X47375000Y19535500D01*
G75*
G02*
X47437500Y19598000I62500J0D01*
G01*
X47562500Y19598000D01*
G75*
G02*
X47625000Y19535500I0J-62500D01*
G01*
X47625000Y18785500D01*
G75*
G02*
X47562500Y18723000I-62500J0D01*
G01*
G37*
G36*
G01*
X47062500Y18723000D02*
X46937500Y18723000D01*
G75*
G02*
X46875000Y18785500I0J62500D01*
G01*
X46875000Y19535500D01*
G75*
G02*
X46937500Y19598000I62500J0D01*
G01*
X47062500Y19598000D01*
G75*
G02*
X47125000Y19535500I0J-62500D01*
G01*
X47125000Y18785500D01*
G75*
G02*
X47062500Y18723000I-62500J0D01*
G01*
G37*
G36*
G01*
X46562500Y18723000D02*
X46437500Y18723000D01*
G75*
G02*
X46375000Y18785500I0J62500D01*
G01*
X46375000Y19535500D01*
G75*
G02*
X46437500Y19598000I62500J0D01*
G01*
X46562500Y19598000D01*
G75*
G02*
X46625000Y19535500I0J-62500D01*
G01*
X46625000Y18785500D01*
G75*
G02*
X46562500Y18723000I-62500J0D01*
G01*
G37*
G36*
G01*
X46062500Y18723000D02*
X45937500Y18723000D01*
G75*
G02*
X45875000Y18785500I0J62500D01*
G01*
X45875000Y19535500D01*
G75*
G02*
X45937500Y19598000I62500J0D01*
G01*
X46062500Y19598000D01*
G75*
G02*
X46125000Y19535500I0J-62500D01*
G01*
X46125000Y18785500D01*
G75*
G02*
X46062500Y18723000I-62500J0D01*
G01*
G37*
G36*
G01*
X45562500Y18723000D02*
X45437500Y18723000D01*
G75*
G02*
X45375000Y18785500I0J62500D01*
G01*
X45375000Y19535500D01*
G75*
G02*
X45437500Y19598000I62500J0D01*
G01*
X45562500Y19598000D01*
G75*
G02*
X45625000Y19535500I0J-62500D01*
G01*
X45625000Y18785500D01*
G75*
G02*
X45562500Y18723000I-62500J0D01*
G01*
G37*
G36*
G01*
X45062500Y18723000D02*
X44937500Y18723000D01*
G75*
G02*
X44875000Y18785500I0J62500D01*
G01*
X44875000Y19535500D01*
G75*
G02*
X44937500Y19598000I62500J0D01*
G01*
X45062500Y19598000D01*
G75*
G02*
X45125000Y19535500I0J-62500D01*
G01*
X45125000Y18785500D01*
G75*
G02*
X45062500Y18723000I-62500J0D01*
G01*
G37*
G36*
G01*
X44562500Y18723000D02*
X44437500Y18723000D01*
G75*
G02*
X44375000Y18785500I0J62500D01*
G01*
X44375000Y19535500D01*
G75*
G02*
X44437500Y19598000I62500J0D01*
G01*
X44562500Y19598000D01*
G75*
G02*
X44625000Y19535500I0J-62500D01*
G01*
X44625000Y18785500D01*
G75*
G02*
X44562500Y18723000I-62500J0D01*
G01*
G37*
G36*
G01*
X44062500Y18723000D02*
X43937500Y18723000D01*
G75*
G02*
X43875000Y18785500I0J62500D01*
G01*
X43875000Y19535500D01*
G75*
G02*
X43937500Y19598000I62500J0D01*
G01*
X44062500Y19598000D01*
G75*
G02*
X44125000Y19535500I0J-62500D01*
G01*
X44125000Y18785500D01*
G75*
G02*
X44062500Y18723000I-62500J0D01*
G01*
G37*
G36*
G01*
X43687500Y18348000D02*
X42937500Y18348000D01*
G75*
G02*
X42875000Y18410500I0J62500D01*
G01*
X42875000Y18535500D01*
G75*
G02*
X42937500Y18598000I62500J0D01*
G01*
X43687500Y18598000D01*
G75*
G02*
X43750000Y18535500I0J-62500D01*
G01*
X43750000Y18410500D01*
G75*
G02*
X43687500Y18348000I-62500J0D01*
G01*
G37*
G36*
G01*
X43687500Y17848000D02*
X42937500Y17848000D01*
G75*
G02*
X42875000Y17910500I0J62500D01*
G01*
X42875000Y18035500D01*
G75*
G02*
X42937500Y18098000I62500J0D01*
G01*
X43687500Y18098000D01*
G75*
G02*
X43750000Y18035500I0J-62500D01*
G01*
X43750000Y17910500D01*
G75*
G02*
X43687500Y17848000I-62500J0D01*
G01*
G37*
G36*
G01*
X43687500Y17348000D02*
X42937500Y17348000D01*
G75*
G02*
X42875000Y17410500I0J62500D01*
G01*
X42875000Y17535500D01*
G75*
G02*
X42937500Y17598000I62500J0D01*
G01*
X43687500Y17598000D01*
G75*
G02*
X43750000Y17535500I0J-62500D01*
G01*
X43750000Y17410500D01*
G75*
G02*
X43687500Y17348000I-62500J0D01*
G01*
G37*
G36*
G01*
X43687500Y16848000D02*
X42937500Y16848000D01*
G75*
G02*
X42875000Y16910500I0J62500D01*
G01*
X42875000Y17035500D01*
G75*
G02*
X42937500Y17098000I62500J0D01*
G01*
X43687500Y17098000D01*
G75*
G02*
X43750000Y17035500I0J-62500D01*
G01*
X43750000Y16910500D01*
G75*
G02*
X43687500Y16848000I-62500J0D01*
G01*
G37*
G36*
G01*
X43687500Y16348000D02*
X42937500Y16348000D01*
G75*
G02*
X42875000Y16410500I0J62500D01*
G01*
X42875000Y16535500D01*
G75*
G02*
X42937500Y16598000I62500J0D01*
G01*
X43687500Y16598000D01*
G75*
G02*
X43750000Y16535500I0J-62500D01*
G01*
X43750000Y16410500D01*
G75*
G02*
X43687500Y16348000I-62500J0D01*
G01*
G37*
G36*
G01*
X43687500Y15848000D02*
X42937500Y15848000D01*
G75*
G02*
X42875000Y15910500I0J62500D01*
G01*
X42875000Y16035500D01*
G75*
G02*
X42937500Y16098000I62500J0D01*
G01*
X43687500Y16098000D01*
G75*
G02*
X43750000Y16035500I0J-62500D01*
G01*
X43750000Y15910500D01*
G75*
G02*
X43687500Y15848000I-62500J0D01*
G01*
G37*
G36*
G01*
X43687500Y15348000D02*
X42937500Y15348000D01*
G75*
G02*
X42875000Y15410500I0J62500D01*
G01*
X42875000Y15535500D01*
G75*
G02*
X42937500Y15598000I62500J0D01*
G01*
X43687500Y15598000D01*
G75*
G02*
X43750000Y15535500I0J-62500D01*
G01*
X43750000Y15410500D01*
G75*
G02*
X43687500Y15348000I-62500J0D01*
G01*
G37*
G36*
G01*
X43687500Y14848000D02*
X42937500Y14848000D01*
G75*
G02*
X42875000Y14910500I0J62500D01*
G01*
X42875000Y15035500D01*
G75*
G02*
X42937500Y15098000I62500J0D01*
G01*
X43687500Y15098000D01*
G75*
G02*
X43750000Y15035500I0J-62500D01*
G01*
X43750000Y14910500D01*
G75*
G02*
X43687500Y14848000I-62500J0D01*
G01*
G37*
D16*
X45750000Y16723000D03*
G36*
G01*
X51600000Y27175000D02*
X51900000Y27175000D01*
G75*
G02*
X52050000Y27025000I0J-150000D01*
G01*
X52050000Y26000000D01*
G75*
G02*
X51900000Y25850000I-150000J0D01*
G01*
X51600000Y25850000D01*
G75*
G02*
X51450000Y26000000I0J150000D01*
G01*
X51450000Y27025000D01*
G75*
G02*
X51600000Y27175000I150000J0D01*
G01*
G37*
G36*
G01*
X50650000Y27175000D02*
X50950000Y27175000D01*
G75*
G02*
X51100000Y27025000I0J-150000D01*
G01*
X51100000Y26000000D01*
G75*
G02*
X50950000Y25850000I-150000J0D01*
G01*
X50650000Y25850000D01*
G75*
G02*
X50500000Y26000000I0J150000D01*
G01*
X50500000Y27025000D01*
G75*
G02*
X50650000Y27175000I150000J0D01*
G01*
G37*
G36*
G01*
X49700000Y27175000D02*
X50000000Y27175000D01*
G75*
G02*
X50150000Y27025000I0J-150000D01*
G01*
X50150000Y26000000D01*
G75*
G02*
X50000000Y25850000I-150000J0D01*
G01*
X49700000Y25850000D01*
G75*
G02*
X49550000Y26000000I0J150000D01*
G01*
X49550000Y27025000D01*
G75*
G02*
X49700000Y27175000I150000J0D01*
G01*
G37*
G36*
G01*
X49700000Y24900000D02*
X50000000Y24900000D01*
G75*
G02*
X50150000Y24750000I0J-150000D01*
G01*
X50150000Y23725000D01*
G75*
G02*
X50000000Y23575000I-150000J0D01*
G01*
X49700000Y23575000D01*
G75*
G02*
X49550000Y23725000I0J150000D01*
G01*
X49550000Y24750000D01*
G75*
G02*
X49700000Y24900000I150000J0D01*
G01*
G37*
G36*
G01*
X51600000Y24900000D02*
X51900000Y24900000D01*
G75*
G02*
X52050000Y24750000I0J-150000D01*
G01*
X52050000Y23725000D01*
G75*
G02*
X51900000Y23575000I-150000J0D01*
G01*
X51600000Y23575000D01*
G75*
G02*
X51450000Y23725000I0J150000D01*
G01*
X51450000Y24750000D01*
G75*
G02*
X51600000Y24900000I150000J0D01*
G01*
G37*
G36*
G01*
X27850000Y33575000D02*
X27850000Y32625000D01*
G75*
G02*
X27600000Y32375000I-250000J0D01*
G01*
X27100000Y32375000D01*
G75*
G02*
X26850000Y32625000I0J250000D01*
G01*
X26850000Y33575000D01*
G75*
G02*
X27100000Y33825000I250000J0D01*
G01*
X27600000Y33825000D01*
G75*
G02*
X27850000Y33575000I0J-250000D01*
G01*
G37*
G36*
G01*
X25950000Y33575000D02*
X25950000Y32625000D01*
G75*
G02*
X25700000Y32375000I-250000J0D01*
G01*
X25200000Y32375000D01*
G75*
G02*
X24950000Y32625000I0J250000D01*
G01*
X24950000Y33575000D01*
G75*
G02*
X25200000Y33825000I250000J0D01*
G01*
X25700000Y33825000D01*
G75*
G02*
X25950000Y33575000I0J-250000D01*
G01*
G37*
G36*
G01*
X33655000Y22330000D02*
X33655000Y23230000D01*
G75*
G02*
X33905000Y23480000I250000J0D01*
G01*
X34430000Y23480000D01*
G75*
G02*
X34680000Y23230000I0J-250000D01*
G01*
X34680000Y22330000D01*
G75*
G02*
X34430000Y22080000I-250000J0D01*
G01*
X33905000Y22080000D01*
G75*
G02*
X33655000Y22330000I0J250000D01*
G01*
G37*
G36*
G01*
X35480000Y22330000D02*
X35480000Y23230000D01*
G75*
G02*
X35730000Y23480000I250000J0D01*
G01*
X36255000Y23480000D01*
G75*
G02*
X36505000Y23230000I0J-250000D01*
G01*
X36505000Y22330000D01*
G75*
G02*
X36255000Y22080000I-250000J0D01*
G01*
X35730000Y22080000D01*
G75*
G02*
X35480000Y22330000I0J250000D01*
G01*
G37*
G36*
G01*
X11150000Y20875000D02*
X12050000Y20875000D01*
G75*
G02*
X12300000Y20625000I0J-250000D01*
G01*
X12300000Y20100000D01*
G75*
G02*
X12050000Y19850000I-250000J0D01*
G01*
X11150000Y19850000D01*
G75*
G02*
X10900000Y20100000I0J250000D01*
G01*
X10900000Y20625000D01*
G75*
G02*
X11150000Y20875000I250000J0D01*
G01*
G37*
G36*
G01*
X11150000Y19050000D02*
X12050000Y19050000D01*
G75*
G02*
X12300000Y18800000I0J-250000D01*
G01*
X12300000Y18275000D01*
G75*
G02*
X12050000Y18025000I-250000J0D01*
G01*
X11150000Y18025000D01*
G75*
G02*
X10900000Y18275000I0J250000D01*
G01*
X10900000Y18800000D01*
G75*
G02*
X11150000Y19050000I250000J0D01*
G01*
G37*
G36*
G01*
X24500000Y20775000D02*
X25400000Y20775000D01*
G75*
G02*
X25650000Y20525000I0J-250000D01*
G01*
X25650000Y20000000D01*
G75*
G02*
X25400000Y19750000I-250000J0D01*
G01*
X24500000Y19750000D01*
G75*
G02*
X24250000Y20000000I0J250000D01*
G01*
X24250000Y20525000D01*
G75*
G02*
X24500000Y20775000I250000J0D01*
G01*
G37*
G36*
G01*
X24500000Y18950000D02*
X25400000Y18950000D01*
G75*
G02*
X25650000Y18700000I0J-250000D01*
G01*
X25650000Y18175000D01*
G75*
G02*
X25400000Y17925000I-250000J0D01*
G01*
X24500000Y17925000D01*
G75*
G02*
X24250000Y18175000I0J250000D01*
G01*
X24250000Y18700000D01*
G75*
G02*
X24500000Y18950000I250000J0D01*
G01*
G37*
G36*
G01*
X49275000Y17575000D02*
X49275000Y18525000D01*
G75*
G02*
X49525000Y18775000I250000J0D01*
G01*
X50025000Y18775000D01*
G75*
G02*
X50275000Y18525000I0J-250000D01*
G01*
X50275000Y17575000D01*
G75*
G02*
X50025000Y17325000I-250000J0D01*
G01*
X49525000Y17325000D01*
G75*
G02*
X49275000Y17575000I0J250000D01*
G01*
G37*
G36*
G01*
X51175000Y17575000D02*
X51175000Y18525000D01*
G75*
G02*
X51425000Y18775000I250000J0D01*
G01*
X51925000Y18775000D01*
G75*
G02*
X52175000Y18525000I0J-250000D01*
G01*
X52175000Y17575000D01*
G75*
G02*
X51925000Y17325000I-250000J0D01*
G01*
X51425000Y17325000D01*
G75*
G02*
X51175000Y17575000I0J250000D01*
G01*
G37*
G36*
G01*
X55525000Y12220000D02*
X56475000Y12220000D01*
G75*
G02*
X56725000Y11970000I0J-250000D01*
G01*
X56725000Y11470000D01*
G75*
G02*
X56475000Y11220000I-250000J0D01*
G01*
X55525000Y11220000D01*
G75*
G02*
X55275000Y11470000I0J250000D01*
G01*
X55275000Y11970000D01*
G75*
G02*
X55525000Y12220000I250000J0D01*
G01*
G37*
G36*
G01*
X55525000Y10320000D02*
X56475000Y10320000D01*
G75*
G02*
X56725000Y10070000I0J-250000D01*
G01*
X56725000Y9570000D01*
G75*
G02*
X56475000Y9320000I-250000J0D01*
G01*
X55525000Y9320000D01*
G75*
G02*
X55275000Y9570000I0J250000D01*
G01*
X55275000Y10070000D01*
G75*
G02*
X55525000Y10320000I250000J0D01*
G01*
G37*
G36*
G01*
X48745000Y8410000D02*
X47795000Y8410000D01*
G75*
G02*
X47545000Y8660000I0J250000D01*
G01*
X47545000Y9160000D01*
G75*
G02*
X47795000Y9410000I250000J0D01*
G01*
X48745000Y9410000D01*
G75*
G02*
X48995000Y9160000I0J-250000D01*
G01*
X48995000Y8660000D01*
G75*
G02*
X48745000Y8410000I-250000J0D01*
G01*
G37*
G36*
G01*
X48745000Y10310000D02*
X47795000Y10310000D01*
G75*
G02*
X47545000Y10560000I0J250000D01*
G01*
X47545000Y11060000D01*
G75*
G02*
X47795000Y11310000I250000J0D01*
G01*
X48745000Y11310000D01*
G75*
G02*
X48995000Y11060000I0J-250000D01*
G01*
X48995000Y10560000D01*
G75*
G02*
X48745000Y10310000I-250000J0D01*
G01*
G37*
G36*
G01*
X33655000Y24280000D02*
X33655000Y25180000D01*
G75*
G02*
X33905000Y25430000I250000J0D01*
G01*
X34430000Y25430000D01*
G75*
G02*
X34680000Y25180000I0J-250000D01*
G01*
X34680000Y24280000D01*
G75*
G02*
X34430000Y24030000I-250000J0D01*
G01*
X33905000Y24030000D01*
G75*
G02*
X33655000Y24280000I0J250000D01*
G01*
G37*
G36*
G01*
X35480000Y24280000D02*
X35480000Y25180000D01*
G75*
G02*
X35730000Y25430000I250000J0D01*
G01*
X36255000Y25430000D01*
G75*
G02*
X36505000Y25180000I0J-250000D01*
G01*
X36505000Y24280000D01*
G75*
G02*
X36255000Y24030000I-250000J0D01*
G01*
X35730000Y24030000D01*
G75*
G02*
X35480000Y24280000I0J250000D01*
G01*
G37*
G36*
G01*
X56390000Y16997500D02*
X55490000Y16997500D01*
G75*
G02*
X55240000Y17247500I0J250000D01*
G01*
X55240000Y17772500D01*
G75*
G02*
X55490000Y18022500I250000J0D01*
G01*
X56390000Y18022500D01*
G75*
G02*
X56640000Y17772500I0J-250000D01*
G01*
X56640000Y17247500D01*
G75*
G02*
X56390000Y16997500I-250000J0D01*
G01*
G37*
G36*
G01*
X56390000Y18822500D02*
X55490000Y18822500D01*
G75*
G02*
X55240000Y19072500I0J250000D01*
G01*
X55240000Y19597500D01*
G75*
G02*
X55490000Y19847500I250000J0D01*
G01*
X56390000Y19847500D01*
G75*
G02*
X56640000Y19597500I0J-250000D01*
G01*
X56640000Y19072500D01*
G75*
G02*
X56390000Y18822500I-250000J0D01*
G01*
G37*
G36*
G01*
X49275000Y19575000D02*
X49275000Y20525000D01*
G75*
G02*
X49525000Y20775000I250000J0D01*
G01*
X50025000Y20775000D01*
G75*
G02*
X50275000Y20525000I0J-250000D01*
G01*
X50275000Y19575000D01*
G75*
G02*
X50025000Y19325000I-250000J0D01*
G01*
X49525000Y19325000D01*
G75*
G02*
X49275000Y19575000I0J250000D01*
G01*
G37*
G36*
G01*
X51175000Y19575000D02*
X51175000Y20525000D01*
G75*
G02*
X51425000Y20775000I250000J0D01*
G01*
X51925000Y20775000D01*
G75*
G02*
X52175000Y20525000I0J-250000D01*
G01*
X52175000Y19575000D01*
G75*
G02*
X51925000Y19325000I-250000J0D01*
G01*
X51425000Y19325000D01*
G75*
G02*
X51175000Y19575000I0J250000D01*
G01*
G37*
G36*
G01*
X20200000Y23825000D02*
X20200000Y23675000D01*
G75*
G02*
X20125000Y23600000I-75000J0D01*
G01*
X18800000Y23600000D01*
G75*
G02*
X18725000Y23675000I0J75000D01*
G01*
X18725000Y23825000D01*
G75*
G02*
X18800000Y23900000I75000J0D01*
G01*
X20125000Y23900000D01*
G75*
G02*
X20200000Y23825000I0J-75000D01*
G01*
G37*
G36*
G01*
X20200000Y24325000D02*
X20200000Y24175000D01*
G75*
G02*
X20125000Y24100000I-75000J0D01*
G01*
X18800000Y24100000D01*
G75*
G02*
X18725000Y24175000I0J75000D01*
G01*
X18725000Y24325000D01*
G75*
G02*
X18800000Y24400000I75000J0D01*
G01*
X20125000Y24400000D01*
G75*
G02*
X20200000Y24325000I0J-75000D01*
G01*
G37*
G36*
G01*
X20200000Y24825000D02*
X20200000Y24675000D01*
G75*
G02*
X20125000Y24600000I-75000J0D01*
G01*
X18800000Y24600000D01*
G75*
G02*
X18725000Y24675000I0J75000D01*
G01*
X18725000Y24825000D01*
G75*
G02*
X18800000Y24900000I75000J0D01*
G01*
X20125000Y24900000D01*
G75*
G02*
X20200000Y24825000I0J-75000D01*
G01*
G37*
G36*
G01*
X20200000Y25325000D02*
X20200000Y25175000D01*
G75*
G02*
X20125000Y25100000I-75000J0D01*
G01*
X18800000Y25100000D01*
G75*
G02*
X18725000Y25175000I0J75000D01*
G01*
X18725000Y25325000D01*
G75*
G02*
X18800000Y25400000I75000J0D01*
G01*
X20125000Y25400000D01*
G75*
G02*
X20200000Y25325000I0J-75000D01*
G01*
G37*
G36*
G01*
X20200000Y25825000D02*
X20200000Y25675000D01*
G75*
G02*
X20125000Y25600000I-75000J0D01*
G01*
X18800000Y25600000D01*
G75*
G02*
X18725000Y25675000I0J75000D01*
G01*
X18725000Y25825000D01*
G75*
G02*
X18800000Y25900000I75000J0D01*
G01*
X20125000Y25900000D01*
G75*
G02*
X20200000Y25825000I0J-75000D01*
G01*
G37*
G36*
G01*
X20200000Y26325000D02*
X20200000Y26175000D01*
G75*
G02*
X20125000Y26100000I-75000J0D01*
G01*
X18800000Y26100000D01*
G75*
G02*
X18725000Y26175000I0J75000D01*
G01*
X18725000Y26325000D01*
G75*
G02*
X18800000Y26400000I75000J0D01*
G01*
X20125000Y26400000D01*
G75*
G02*
X20200000Y26325000I0J-75000D01*
G01*
G37*
G36*
G01*
X20200000Y26825000D02*
X20200000Y26675000D01*
G75*
G02*
X20125000Y26600000I-75000J0D01*
G01*
X18800000Y26600000D01*
G75*
G02*
X18725000Y26675000I0J75000D01*
G01*
X18725000Y26825000D01*
G75*
G02*
X18800000Y26900000I75000J0D01*
G01*
X20125000Y26900000D01*
G75*
G02*
X20200000Y26825000I0J-75000D01*
G01*
G37*
G36*
G01*
X20200000Y27325000D02*
X20200000Y27175000D01*
G75*
G02*
X20125000Y27100000I-75000J0D01*
G01*
X18800000Y27100000D01*
G75*
G02*
X18725000Y27175000I0J75000D01*
G01*
X18725000Y27325000D01*
G75*
G02*
X18800000Y27400000I75000J0D01*
G01*
X20125000Y27400000D01*
G75*
G02*
X20200000Y27325000I0J-75000D01*
G01*
G37*
G36*
G01*
X20200000Y27825000D02*
X20200000Y27675000D01*
G75*
G02*
X20125000Y27600000I-75000J0D01*
G01*
X18800000Y27600000D01*
G75*
G02*
X18725000Y27675000I0J75000D01*
G01*
X18725000Y27825000D01*
G75*
G02*
X18800000Y27900000I75000J0D01*
G01*
X20125000Y27900000D01*
G75*
G02*
X20200000Y27825000I0J-75000D01*
G01*
G37*
G36*
G01*
X20200000Y28325000D02*
X20200000Y28175000D01*
G75*
G02*
X20125000Y28100000I-75000J0D01*
G01*
X18800000Y28100000D01*
G75*
G02*
X18725000Y28175000I0J75000D01*
G01*
X18725000Y28325000D01*
G75*
G02*
X18800000Y28400000I75000J0D01*
G01*
X20125000Y28400000D01*
G75*
G02*
X20200000Y28325000I0J-75000D01*
G01*
G37*
G36*
G01*
X20200000Y28825000D02*
X20200000Y28675000D01*
G75*
G02*
X20125000Y28600000I-75000J0D01*
G01*
X18800000Y28600000D01*
G75*
G02*
X18725000Y28675000I0J75000D01*
G01*
X18725000Y28825000D01*
G75*
G02*
X18800000Y28900000I75000J0D01*
G01*
X20125000Y28900000D01*
G75*
G02*
X20200000Y28825000I0J-75000D01*
G01*
G37*
G36*
G01*
X20200000Y29325000D02*
X20200000Y29175000D01*
G75*
G02*
X20125000Y29100000I-75000J0D01*
G01*
X18800000Y29100000D01*
G75*
G02*
X18725000Y29175000I0J75000D01*
G01*
X18725000Y29325000D01*
G75*
G02*
X18800000Y29400000I75000J0D01*
G01*
X20125000Y29400000D01*
G75*
G02*
X20200000Y29325000I0J-75000D01*
G01*
G37*
G36*
G01*
X20200000Y29825000D02*
X20200000Y29675000D01*
G75*
G02*
X20125000Y29600000I-75000J0D01*
G01*
X18800000Y29600000D01*
G75*
G02*
X18725000Y29675000I0J75000D01*
G01*
X18725000Y29825000D01*
G75*
G02*
X18800000Y29900000I75000J0D01*
G01*
X20125000Y29900000D01*
G75*
G02*
X20200000Y29825000I0J-75000D01*
G01*
G37*
G36*
G01*
X20200000Y30325000D02*
X20200000Y30175000D01*
G75*
G02*
X20125000Y30100000I-75000J0D01*
G01*
X18800000Y30100000D01*
G75*
G02*
X18725000Y30175000I0J75000D01*
G01*
X18725000Y30325000D01*
G75*
G02*
X18800000Y30400000I75000J0D01*
G01*
X20125000Y30400000D01*
G75*
G02*
X20200000Y30325000I0J-75000D01*
G01*
G37*
G36*
G01*
X20200000Y30825000D02*
X20200000Y30675000D01*
G75*
G02*
X20125000Y30600000I-75000J0D01*
G01*
X18800000Y30600000D01*
G75*
G02*
X18725000Y30675000I0J75000D01*
G01*
X18725000Y30825000D01*
G75*
G02*
X18800000Y30900000I75000J0D01*
G01*
X20125000Y30900000D01*
G75*
G02*
X20200000Y30825000I0J-75000D01*
G01*
G37*
G36*
G01*
X14475000Y30825000D02*
X14475000Y30675000D01*
G75*
G02*
X14400000Y30600000I-75000J0D01*
G01*
X13075000Y30600000D01*
G75*
G02*
X13000000Y30675000I0J75000D01*
G01*
X13000000Y30825000D01*
G75*
G02*
X13075000Y30900000I75000J0D01*
G01*
X14400000Y30900000D01*
G75*
G02*
X14475000Y30825000I0J-75000D01*
G01*
G37*
G36*
G01*
X14475000Y30325000D02*
X14475000Y30175000D01*
G75*
G02*
X14400000Y30100000I-75000J0D01*
G01*
X13075000Y30100000D01*
G75*
G02*
X13000000Y30175000I0J75000D01*
G01*
X13000000Y30325000D01*
G75*
G02*
X13075000Y30400000I75000J0D01*
G01*
X14400000Y30400000D01*
G75*
G02*
X14475000Y30325000I0J-75000D01*
G01*
G37*
G36*
G01*
X14475000Y29825000D02*
X14475000Y29675000D01*
G75*
G02*
X14400000Y29600000I-75000J0D01*
G01*
X13075000Y29600000D01*
G75*
G02*
X13000000Y29675000I0J75000D01*
G01*
X13000000Y29825000D01*
G75*
G02*
X13075000Y29900000I75000J0D01*
G01*
X14400000Y29900000D01*
G75*
G02*
X14475000Y29825000I0J-75000D01*
G01*
G37*
G36*
G01*
X14475000Y29325000D02*
X14475000Y29175000D01*
G75*
G02*
X14400000Y29100000I-75000J0D01*
G01*
X13075000Y29100000D01*
G75*
G02*
X13000000Y29175000I0J75000D01*
G01*
X13000000Y29325000D01*
G75*
G02*
X13075000Y29400000I75000J0D01*
G01*
X14400000Y29400000D01*
G75*
G02*
X14475000Y29325000I0J-75000D01*
G01*
G37*
G36*
G01*
X14475000Y28825000D02*
X14475000Y28675000D01*
G75*
G02*
X14400000Y28600000I-75000J0D01*
G01*
X13075000Y28600000D01*
G75*
G02*
X13000000Y28675000I0J75000D01*
G01*
X13000000Y28825000D01*
G75*
G02*
X13075000Y28900000I75000J0D01*
G01*
X14400000Y28900000D01*
G75*
G02*
X14475000Y28825000I0J-75000D01*
G01*
G37*
G36*
G01*
X14475000Y28325000D02*
X14475000Y28175000D01*
G75*
G02*
X14400000Y28100000I-75000J0D01*
G01*
X13075000Y28100000D01*
G75*
G02*
X13000000Y28175000I0J75000D01*
G01*
X13000000Y28325000D01*
G75*
G02*
X13075000Y28400000I75000J0D01*
G01*
X14400000Y28400000D01*
G75*
G02*
X14475000Y28325000I0J-75000D01*
G01*
G37*
G36*
G01*
X14475000Y27825000D02*
X14475000Y27675000D01*
G75*
G02*
X14400000Y27600000I-75000J0D01*
G01*
X13075000Y27600000D01*
G75*
G02*
X13000000Y27675000I0J75000D01*
G01*
X13000000Y27825000D01*
G75*
G02*
X13075000Y27900000I75000J0D01*
G01*
X14400000Y27900000D01*
G75*
G02*
X14475000Y27825000I0J-75000D01*
G01*
G37*
G36*
G01*
X14475000Y27325000D02*
X14475000Y27175000D01*
G75*
G02*
X14400000Y27100000I-75000J0D01*
G01*
X13075000Y27100000D01*
G75*
G02*
X13000000Y27175000I0J75000D01*
G01*
X13000000Y27325000D01*
G75*
G02*
X13075000Y27400000I75000J0D01*
G01*
X14400000Y27400000D01*
G75*
G02*
X14475000Y27325000I0J-75000D01*
G01*
G37*
G36*
G01*
X14475000Y26825000D02*
X14475000Y26675000D01*
G75*
G02*
X14400000Y26600000I-75000J0D01*
G01*
X13075000Y26600000D01*
G75*
G02*
X13000000Y26675000I0J75000D01*
G01*
X13000000Y26825000D01*
G75*
G02*
X13075000Y26900000I75000J0D01*
G01*
X14400000Y26900000D01*
G75*
G02*
X14475000Y26825000I0J-75000D01*
G01*
G37*
G36*
G01*
X14475000Y26325000D02*
X14475000Y26175000D01*
G75*
G02*
X14400000Y26100000I-75000J0D01*
G01*
X13075000Y26100000D01*
G75*
G02*
X13000000Y26175000I0J75000D01*
G01*
X13000000Y26325000D01*
G75*
G02*
X13075000Y26400000I75000J0D01*
G01*
X14400000Y26400000D01*
G75*
G02*
X14475000Y26325000I0J-75000D01*
G01*
G37*
G36*
G01*
X14475000Y25825000D02*
X14475000Y25675000D01*
G75*
G02*
X14400000Y25600000I-75000J0D01*
G01*
X13075000Y25600000D01*
G75*
G02*
X13000000Y25675000I0J75000D01*
G01*
X13000000Y25825000D01*
G75*
G02*
X13075000Y25900000I75000J0D01*
G01*
X14400000Y25900000D01*
G75*
G02*
X14475000Y25825000I0J-75000D01*
G01*
G37*
G36*
G01*
X14475000Y25325000D02*
X14475000Y25175000D01*
G75*
G02*
X14400000Y25100000I-75000J0D01*
G01*
X13075000Y25100000D01*
G75*
G02*
X13000000Y25175000I0J75000D01*
G01*
X13000000Y25325000D01*
G75*
G02*
X13075000Y25400000I75000J0D01*
G01*
X14400000Y25400000D01*
G75*
G02*
X14475000Y25325000I0J-75000D01*
G01*
G37*
G36*
G01*
X14475000Y24825000D02*
X14475000Y24675000D01*
G75*
G02*
X14400000Y24600000I-75000J0D01*
G01*
X13075000Y24600000D01*
G75*
G02*
X13000000Y24675000I0J75000D01*
G01*
X13000000Y24825000D01*
G75*
G02*
X13075000Y24900000I75000J0D01*
G01*
X14400000Y24900000D01*
G75*
G02*
X14475000Y24825000I0J-75000D01*
G01*
G37*
G36*
G01*
X14475000Y24325000D02*
X14475000Y24175000D01*
G75*
G02*
X14400000Y24100000I-75000J0D01*
G01*
X13075000Y24100000D01*
G75*
G02*
X13000000Y24175000I0J75000D01*
G01*
X13000000Y24325000D01*
G75*
G02*
X13075000Y24400000I75000J0D01*
G01*
X14400000Y24400000D01*
G75*
G02*
X14475000Y24325000I0J-75000D01*
G01*
G37*
G36*
G01*
X14475000Y23825000D02*
X14475000Y23675000D01*
G75*
G02*
X14400000Y23600000I-75000J0D01*
G01*
X13075000Y23600000D01*
G75*
G02*
X13000000Y23675000I0J75000D01*
G01*
X13000000Y23825000D01*
G75*
G02*
X13075000Y23900000I75000J0D01*
G01*
X14400000Y23900000D01*
G75*
G02*
X14475000Y23825000I0J-75000D01*
G01*
G37*
G36*
G01*
X27150000Y31850000D02*
X27450000Y31850000D01*
G75*
G02*
X27600000Y31700000I0J-150000D01*
G01*
X27600000Y30675000D01*
G75*
G02*
X27450000Y30525000I-150000J0D01*
G01*
X27150000Y30525000D01*
G75*
G02*
X27000000Y30675000I0J150000D01*
G01*
X27000000Y31700000D01*
G75*
G02*
X27150000Y31850000I150000J0D01*
G01*
G37*
G36*
G01*
X26200000Y31850000D02*
X26500000Y31850000D01*
G75*
G02*
X26650000Y31700000I0J-150000D01*
G01*
X26650000Y30675000D01*
G75*
G02*
X26500000Y30525000I-150000J0D01*
G01*
X26200000Y30525000D01*
G75*
G02*
X26050000Y30675000I0J150000D01*
G01*
X26050000Y31700000D01*
G75*
G02*
X26200000Y31850000I150000J0D01*
G01*
G37*
G36*
G01*
X25250000Y31850000D02*
X25550000Y31850000D01*
G75*
G02*
X25700000Y31700000I0J-150000D01*
G01*
X25700000Y30675000D01*
G75*
G02*
X25550000Y30525000I-150000J0D01*
G01*
X25250000Y30525000D01*
G75*
G02*
X25100000Y30675000I0J150000D01*
G01*
X25100000Y31700000D01*
G75*
G02*
X25250000Y31850000I150000J0D01*
G01*
G37*
G36*
G01*
X25250000Y29575000D02*
X25550000Y29575000D01*
G75*
G02*
X25700000Y29425000I0J-150000D01*
G01*
X25700000Y28400000D01*
G75*
G02*
X25550000Y28250000I-150000J0D01*
G01*
X25250000Y28250000D01*
G75*
G02*
X25100000Y28400000I0J150000D01*
G01*
X25100000Y29425000D01*
G75*
G02*
X25250000Y29575000I150000J0D01*
G01*
G37*
G36*
G01*
X27150000Y29575000D02*
X27450000Y29575000D01*
G75*
G02*
X27600000Y29425000I0J-150000D01*
G01*
X27600000Y28400000D01*
G75*
G02*
X27450000Y28250000I-150000J0D01*
G01*
X27150000Y28250000D01*
G75*
G02*
X27000000Y28400000I0J150000D01*
G01*
X27000000Y29425000D01*
G75*
G02*
X27150000Y29575000I150000J0D01*
G01*
G37*
G36*
G01*
X33200000Y36205000D02*
X32300000Y36205000D01*
G75*
G02*
X32050000Y36455000I0J250000D01*
G01*
X32050000Y36980000D01*
G75*
G02*
X32300000Y37230000I250000J0D01*
G01*
X33200000Y37230000D01*
G75*
G02*
X33450000Y36980000I0J-250000D01*
G01*
X33450000Y36455000D01*
G75*
G02*
X33200000Y36205000I-250000J0D01*
G01*
G37*
G36*
G01*
X33200000Y38030000D02*
X32300000Y38030000D01*
G75*
G02*
X32050000Y38280000I0J250000D01*
G01*
X32050000Y38805000D01*
G75*
G02*
X32300000Y39055000I250000J0D01*
G01*
X33200000Y39055000D01*
G75*
G02*
X33450000Y38805000I0J-250000D01*
G01*
X33450000Y38280000D01*
G75*
G02*
X33200000Y38030000I-250000J0D01*
G01*
G37*
G36*
G01*
X34825000Y46175000D02*
X33875000Y46175000D01*
G75*
G02*
X33625000Y46425000I0J250000D01*
G01*
X33625000Y46925000D01*
G75*
G02*
X33875000Y47175000I250000J0D01*
G01*
X34825000Y47175000D01*
G75*
G02*
X35075000Y46925000I0J-250000D01*
G01*
X35075000Y46425000D01*
G75*
G02*
X34825000Y46175000I-250000J0D01*
G01*
G37*
G36*
G01*
X34825000Y48075000D02*
X33875000Y48075000D01*
G75*
G02*
X33625000Y48325000I0J250000D01*
G01*
X33625000Y48825000D01*
G75*
G02*
X33875000Y49075000I250000J0D01*
G01*
X34825000Y49075000D01*
G75*
G02*
X35075000Y48825000I0J-250000D01*
G01*
X35075000Y48325000D01*
G75*
G02*
X34825000Y48075000I-250000J0D01*
G01*
G37*
G36*
G01*
X9150000Y20875000D02*
X10050000Y20875000D01*
G75*
G02*
X10300000Y20625000I0J-250000D01*
G01*
X10300000Y20100000D01*
G75*
G02*
X10050000Y19850000I-250000J0D01*
G01*
X9150000Y19850000D01*
G75*
G02*
X8900000Y20100000I0J250000D01*
G01*
X8900000Y20625000D01*
G75*
G02*
X9150000Y20875000I250000J0D01*
G01*
G37*
G36*
G01*
X9150000Y19050000D02*
X10050000Y19050000D01*
G75*
G02*
X10300000Y18800000I0J-250000D01*
G01*
X10300000Y18275000D01*
G75*
G02*
X10050000Y18025000I-250000J0D01*
G01*
X9150000Y18025000D01*
G75*
G02*
X8900000Y18275000I0J250000D01*
G01*
X8900000Y18800000D01*
G75*
G02*
X9150000Y19050000I250000J0D01*
G01*
G37*
G36*
G01*
X39400000Y36155000D02*
X38500000Y36155000D01*
G75*
G02*
X38250000Y36405000I0J250000D01*
G01*
X38250000Y36930000D01*
G75*
G02*
X38500000Y37180000I250000J0D01*
G01*
X39400000Y37180000D01*
G75*
G02*
X39650000Y36930000I0J-250000D01*
G01*
X39650000Y36405000D01*
G75*
G02*
X39400000Y36155000I-250000J0D01*
G01*
G37*
G36*
G01*
X39400000Y37980000D02*
X38500000Y37980000D01*
G75*
G02*
X38250000Y38230000I0J250000D01*
G01*
X38250000Y38755000D01*
G75*
G02*
X38500000Y39005000I250000J0D01*
G01*
X39400000Y39005000D01*
G75*
G02*
X39650000Y38755000I0J-250000D01*
G01*
X39650000Y38230000D01*
G75*
G02*
X39400000Y37980000I-250000J0D01*
G01*
G37*
G36*
G01*
X44475000Y8350000D02*
X43525000Y8350000D01*
G75*
G02*
X43275000Y8600000I0J250000D01*
G01*
X43275000Y9100000D01*
G75*
G02*
X43525000Y9350000I250000J0D01*
G01*
X44475000Y9350000D01*
G75*
G02*
X44725000Y9100000I0J-250000D01*
G01*
X44725000Y8600000D01*
G75*
G02*
X44475000Y8350000I-250000J0D01*
G01*
G37*
G36*
G01*
X44475000Y10250000D02*
X43525000Y10250000D01*
G75*
G02*
X43275000Y10500000I0J250000D01*
G01*
X43275000Y11000000D01*
G75*
G02*
X43525000Y11250000I250000J0D01*
G01*
X44475000Y11250000D01*
G75*
G02*
X44725000Y11000000I0J-250000D01*
G01*
X44725000Y10500000D01*
G75*
G02*
X44475000Y10250000I-250000J0D01*
G01*
G37*
G36*
G01*
X55525000Y15620000D02*
X56425000Y15620000D01*
G75*
G02*
X56675000Y15370000I0J-250000D01*
G01*
X56675000Y14845000D01*
G75*
G02*
X56425000Y14595000I-250000J0D01*
G01*
X55525000Y14595000D01*
G75*
G02*
X55275000Y14845000I0J250000D01*
G01*
X55275000Y15370000D01*
G75*
G02*
X55525000Y15620000I250000J0D01*
G01*
G37*
G36*
G01*
X55525000Y13795000D02*
X56425000Y13795000D01*
G75*
G02*
X56675000Y13545000I0J-250000D01*
G01*
X56675000Y13020000D01*
G75*
G02*
X56425000Y12770000I-250000J0D01*
G01*
X55525000Y12770000D01*
G75*
G02*
X55275000Y13020000I0J250000D01*
G01*
X55275000Y13545000D01*
G75*
G02*
X55525000Y13795000I250000J0D01*
G01*
G37*
G36*
G01*
X44510000Y22805000D02*
X43610000Y22805000D01*
G75*
G02*
X43360000Y23055000I0J250000D01*
G01*
X43360000Y23580000D01*
G75*
G02*
X43610000Y23830000I250000J0D01*
G01*
X44510000Y23830000D01*
G75*
G02*
X44760000Y23580000I0J-250000D01*
G01*
X44760000Y23055000D01*
G75*
G02*
X44510000Y22805000I-250000J0D01*
G01*
G37*
G36*
G01*
X44510000Y24630000D02*
X43610000Y24630000D01*
G75*
G02*
X43360000Y24880000I0J250000D01*
G01*
X43360000Y25405000D01*
G75*
G02*
X43610000Y25655000I250000J0D01*
G01*
X44510000Y25655000D01*
G75*
G02*
X44760000Y25405000I0J-250000D01*
G01*
X44760000Y24880000D01*
G75*
G02*
X44510000Y24630000I-250000J0D01*
G01*
G37*
G36*
G01*
X49350000Y28025000D02*
X49350000Y28975000D01*
G75*
G02*
X49600000Y29225000I250000J0D01*
G01*
X50100000Y29225000D01*
G75*
G02*
X50350000Y28975000I0J-250000D01*
G01*
X50350000Y28025000D01*
G75*
G02*
X50100000Y27775000I-250000J0D01*
G01*
X49600000Y27775000D01*
G75*
G02*
X49350000Y28025000I0J250000D01*
G01*
G37*
G36*
G01*
X51250000Y28025000D02*
X51250000Y28975000D01*
G75*
G02*
X51500000Y29225000I250000J0D01*
G01*
X52000000Y29225000D01*
G75*
G02*
X52250000Y28975000I0J-250000D01*
G01*
X52250000Y28025000D01*
G75*
G02*
X52000000Y27775000I-250000J0D01*
G01*
X51500000Y27775000D01*
G75*
G02*
X51250000Y28025000I0J250000D01*
G01*
G37*
G36*
G01*
X43150000Y21250000D02*
X43150000Y20350000D01*
G75*
G02*
X42900000Y20100000I-250000J0D01*
G01*
X42375000Y20100000D01*
G75*
G02*
X42125000Y20350000I0J250000D01*
G01*
X42125000Y21250000D01*
G75*
G02*
X42375000Y21500000I250000J0D01*
G01*
X42900000Y21500000D01*
G75*
G02*
X43150000Y21250000I0J-250000D01*
G01*
G37*
G36*
G01*
X41325000Y21250000D02*
X41325000Y20350000D01*
G75*
G02*
X41075000Y20100000I-250000J0D01*
G01*
X40550000Y20100000D01*
G75*
G02*
X40300000Y20350000I0J250000D01*
G01*
X40300000Y21250000D01*
G75*
G02*
X40550000Y21500000I250000J0D01*
G01*
X41075000Y21500000D01*
G75*
G02*
X41325000Y21250000I0J-250000D01*
G01*
G37*
G36*
G01*
X12050000Y11225000D02*
X11150000Y11225000D01*
G75*
G02*
X10900000Y11475000I0J250000D01*
G01*
X10900000Y12000000D01*
G75*
G02*
X11150000Y12250000I250000J0D01*
G01*
X12050000Y12250000D01*
G75*
G02*
X12300000Y12000000I0J-250000D01*
G01*
X12300000Y11475000D01*
G75*
G02*
X12050000Y11225000I-250000J0D01*
G01*
G37*
G36*
G01*
X12050000Y13050000D02*
X11150000Y13050000D01*
G75*
G02*
X10900000Y13300000I0J250000D01*
G01*
X10900000Y13825000D01*
G75*
G02*
X11150000Y14075000I250000J0D01*
G01*
X12050000Y14075000D01*
G75*
G02*
X12300000Y13825000I0J-250000D01*
G01*
X12300000Y13300000D01*
G75*
G02*
X12050000Y13050000I-250000J0D01*
G01*
G37*
G36*
G01*
X25050000Y22525000D02*
X25050000Y23475000D01*
G75*
G02*
X25300000Y23725000I250000J0D01*
G01*
X25800000Y23725000D01*
G75*
G02*
X26050000Y23475000I0J-250000D01*
G01*
X26050000Y22525000D01*
G75*
G02*
X25800000Y22275000I-250000J0D01*
G01*
X25300000Y22275000D01*
G75*
G02*
X25050000Y22525000I0J250000D01*
G01*
G37*
G36*
G01*
X26950000Y22525000D02*
X26950000Y23475000D01*
G75*
G02*
X27200000Y23725000I250000J0D01*
G01*
X27700000Y23725000D01*
G75*
G02*
X27950000Y23475000I0J-250000D01*
G01*
X27950000Y22525000D01*
G75*
G02*
X27700000Y22275000I-250000J0D01*
G01*
X27200000Y22275000D01*
G75*
G02*
X26950000Y22525000I0J250000D01*
G01*
G37*
G36*
G01*
X39700000Y47875000D02*
X39700000Y48775000D01*
G75*
G02*
X39950000Y49025000I250000J0D01*
G01*
X40475000Y49025000D01*
G75*
G02*
X40725000Y48775000I0J-250000D01*
G01*
X40725000Y47875000D01*
G75*
G02*
X40475000Y47625000I-250000J0D01*
G01*
X39950000Y47625000D01*
G75*
G02*
X39700000Y47875000I0J250000D01*
G01*
G37*
G36*
G01*
X41525000Y47875000D02*
X41525000Y48775000D01*
G75*
G02*
X41775000Y49025000I250000J0D01*
G01*
X42300000Y49025000D01*
G75*
G02*
X42550000Y48775000I0J-250000D01*
G01*
X42550000Y47875000D01*
G75*
G02*
X42300000Y47625000I-250000J0D01*
G01*
X41775000Y47625000D01*
G75*
G02*
X41525000Y47875000I0J250000D01*
G01*
G37*
G36*
G01*
X52370000Y45445000D02*
X51470000Y45445000D01*
G75*
G02*
X51220000Y45695000I0J250000D01*
G01*
X51220000Y46220000D01*
G75*
G02*
X51470000Y46470000I250000J0D01*
G01*
X52370000Y46470000D01*
G75*
G02*
X52620000Y46220000I0J-250000D01*
G01*
X52620000Y45695000D01*
G75*
G02*
X52370000Y45445000I-250000J0D01*
G01*
G37*
G36*
G01*
X52370000Y47270000D02*
X51470000Y47270000D01*
G75*
G02*
X51220000Y47520000I0J250000D01*
G01*
X51220000Y48045000D01*
G75*
G02*
X51470000Y48295000I250000J0D01*
G01*
X52370000Y48295000D01*
G75*
G02*
X52620000Y48045000I0J-250000D01*
G01*
X52620000Y47520000D01*
G75*
G02*
X52370000Y47270000I-250000J0D01*
G01*
G37*
G36*
G01*
X24050000Y24500000D02*
X24050000Y25450000D01*
G75*
G02*
X24300000Y25700000I250000J0D01*
G01*
X24800000Y25700000D01*
G75*
G02*
X25050000Y25450000I0J-250000D01*
G01*
X25050000Y24500000D01*
G75*
G02*
X24800000Y24250000I-250000J0D01*
G01*
X24300000Y24250000D01*
G75*
G02*
X24050000Y24500000I0J250000D01*
G01*
G37*
G36*
G01*
X25950000Y24500000D02*
X25950000Y25450000D01*
G75*
G02*
X26200000Y25700000I250000J0D01*
G01*
X26700000Y25700000D01*
G75*
G02*
X26950000Y25450000I0J-250000D01*
G01*
X26950000Y24500000D01*
G75*
G02*
X26700000Y24250000I-250000J0D01*
G01*
X26200000Y24250000D01*
G75*
G02*
X25950000Y24500000I0J250000D01*
G01*
G37*
G36*
G01*
X9125000Y17500000D02*
X10075000Y17500000D01*
G75*
G02*
X10325000Y17250000I0J-250000D01*
G01*
X10325000Y16750000D01*
G75*
G02*
X10075000Y16500000I-250000J0D01*
G01*
X9125000Y16500000D01*
G75*
G02*
X8875000Y16750000I0J250000D01*
G01*
X8875000Y17250000D01*
G75*
G02*
X9125000Y17500000I250000J0D01*
G01*
G37*
G36*
G01*
X9125000Y15600000D02*
X10075000Y15600000D01*
G75*
G02*
X10325000Y15350000I0J-250000D01*
G01*
X10325000Y14850000D01*
G75*
G02*
X10075000Y14600000I-250000J0D01*
G01*
X9125000Y14600000D01*
G75*
G02*
X8875000Y14850000I0J250000D01*
G01*
X8875000Y15350000D01*
G75*
G02*
X9125000Y15600000I250000J0D01*
G01*
G37*
G36*
G01*
X10050000Y11225000D02*
X9150000Y11225000D01*
G75*
G02*
X8900000Y11475000I0J250000D01*
G01*
X8900000Y12000000D01*
G75*
G02*
X9150000Y12250000I250000J0D01*
G01*
X10050000Y12250000D01*
G75*
G02*
X10300000Y12000000I0J-250000D01*
G01*
X10300000Y11475000D01*
G75*
G02*
X10050000Y11225000I-250000J0D01*
G01*
G37*
G36*
G01*
X10050000Y13050000D02*
X9150000Y13050000D01*
G75*
G02*
X8900000Y13300000I0J250000D01*
G01*
X8900000Y13825000D01*
G75*
G02*
X9150000Y14075000I250000J0D01*
G01*
X10050000Y14075000D01*
G75*
G02*
X10300000Y13825000I0J-250000D01*
G01*
X10300000Y13300000D01*
G75*
G02*
X10050000Y13050000I-250000J0D01*
G01*
G37*
G36*
G01*
X39190000Y46780000D02*
X39190000Y46480000D01*
G75*
G02*
X39040000Y46330000I-150000J0D01*
G01*
X38015000Y46330000D01*
G75*
G02*
X37865000Y46480000I0J150000D01*
G01*
X37865000Y46780000D01*
G75*
G02*
X38015000Y46930000I150000J0D01*
G01*
X39040000Y46930000D01*
G75*
G02*
X39190000Y46780000I0J-150000D01*
G01*
G37*
G36*
G01*
X39190000Y47730000D02*
X39190000Y47430000D01*
G75*
G02*
X39040000Y47280000I-150000J0D01*
G01*
X38015000Y47280000D01*
G75*
G02*
X37865000Y47430000I0J150000D01*
G01*
X37865000Y47730000D01*
G75*
G02*
X38015000Y47880000I150000J0D01*
G01*
X39040000Y47880000D01*
G75*
G02*
X39190000Y47730000I0J-150000D01*
G01*
G37*
G36*
G01*
X39190000Y48680000D02*
X39190000Y48380000D01*
G75*
G02*
X39040000Y48230000I-150000J0D01*
G01*
X38015000Y48230000D01*
G75*
G02*
X37865000Y48380000I0J150000D01*
G01*
X37865000Y48680000D01*
G75*
G02*
X38015000Y48830000I150000J0D01*
G01*
X39040000Y48830000D01*
G75*
G02*
X39190000Y48680000I0J-150000D01*
G01*
G37*
G36*
G01*
X36915000Y48680000D02*
X36915000Y48380000D01*
G75*
G02*
X36765000Y48230000I-150000J0D01*
G01*
X35740000Y48230000D01*
G75*
G02*
X35590000Y48380000I0J150000D01*
G01*
X35590000Y48680000D01*
G75*
G02*
X35740000Y48830000I150000J0D01*
G01*
X36765000Y48830000D01*
G75*
G02*
X36915000Y48680000I0J-150000D01*
G01*
G37*
G36*
G01*
X36915000Y46780000D02*
X36915000Y46480000D01*
G75*
G02*
X36765000Y46330000I-150000J0D01*
G01*
X35740000Y46330000D01*
G75*
G02*
X35590000Y46480000I0J150000D01*
G01*
X35590000Y46780000D01*
G75*
G02*
X35740000Y46930000I150000J0D01*
G01*
X36765000Y46930000D01*
G75*
G02*
X36915000Y46780000I0J-150000D01*
G01*
G37*
G36*
G01*
X16275000Y31750000D02*
X15325000Y31750000D01*
G75*
G02*
X15075000Y32000000I0J250000D01*
G01*
X15075000Y32500000D01*
G75*
G02*
X15325000Y32750000I250000J0D01*
G01*
X16275000Y32750000D01*
G75*
G02*
X16525000Y32500000I0J-250000D01*
G01*
X16525000Y32000000D01*
G75*
G02*
X16275000Y31750000I-250000J0D01*
G01*
G37*
G36*
G01*
X16275000Y33650000D02*
X15325000Y33650000D01*
G75*
G02*
X15075000Y33900000I0J250000D01*
G01*
X15075000Y34400000D01*
G75*
G02*
X15325000Y34650000I250000J0D01*
G01*
X16275000Y34650000D01*
G75*
G02*
X16525000Y34400000I0J-250000D01*
G01*
X16525000Y33900000D01*
G75*
G02*
X16275000Y33650000I-250000J0D01*
G01*
G37*
M02*
