M48
; DRILL file {KiCad 8.0.4+1} date 2024-10-16T16:34:42+0000
; FORMAT={-:-/ absolute / metric / decimal}
; #@! TF.CreationDate,2024-10-16T16:34:42+00:00
; #@! TF.GenerationSoftware,Kicad,Pcbnew,8.0.4+1
; #@! TF.FileFunction,MixedPlating,1,2
FMAT,2
METRIC
; #@! TA.AperFunction,Plated,PTH,ComponentDrill
T1C0.300
; #@! TA.AperFunction,Plated,PTH,ViaDrill
T2C0.400
; #@! TA.AperFunction,Plated,PTH,ComponentDrill
T3C0.400
; #@! TA.AperFunction,Plated,PTH,ViaDrill
T4C0.600
; #@! TA.AperFunction,Plated,PTH,ComponentDrill
T5C0.800
; #@! TA.AperFunction,Plated,PTH,ComponentDrill
T6C1.000
; #@! TA.AperFunction,Plated,PTH,ComponentDrill
T7C1.016
; #@! TA.AperFunction,NonPlated,NPTH,ComponentDrill
T8C1.200
; #@! TA.AperFunction,NonPlated,NPTH,ComponentDrill
T9C2.750
%
G90
G05
T1
X44.45Y18.023
X44.45Y17.156
X44.45Y16.29
X44.45Y15.423
X45.317Y18.023
X45.317Y17.156
X45.317Y16.29
X45.317Y15.423
X46.183Y18.023
X46.183Y17.156
X46.183Y16.29
X46.183Y15.423
X47.05Y18.023
X47.05Y17.156
X47.05Y16.29
X47.05Y15.423
T2
X5.87Y13.38
X9.95Y12.58
X10.92Y31.51
X12.275Y30.25
X12.29Y25.96
X12.42Y48.209
X12.844Y31.881
X15.0Y26.0
X15.42Y28.82
X15.81Y34.86
X16.42Y28.11
X17.345Y27.755
X17.79Y34.8
X19.851Y32.35
X23.12Y22.4
X23.21Y33.69
X23.21Y30.15
X24.57Y12.57
X25.27Y34.03
X27.15Y24.99
X28.12Y22.97
X28.61Y13.43
X33.63Y23.03
X34.03Y35.81
X34.125Y30.925
X34.13Y25.89
X34.34Y47.35
X35.74Y36.14
X36.88Y48.53
X38.53Y30.9
X38.62Y44.06
X39.088Y26.965
X39.3Y24.02
X39.74Y26.31
X40.27Y35.9
X40.95Y19.63
X42.28Y16.82
X42.34Y30.96
X42.65Y47.9
X42.93Y14.51
X43.401Y19.811
X44.0Y11.43
X44.0Y8.17
X44.06Y22.61
X45.97Y8.21
X48.31Y8.27
X51.44Y45.72
X52.25Y22.01
X52.25Y20.06
X52.25Y18.09
X52.4Y28.54
X57.1Y24.8
X57.5Y7.9
T4
X7.595Y48.965
X19.9Y37.05
X21.049Y43.05
X28.33Y32.77
X32.22Y28.83
X38.47Y28.83
X49.235Y29.175
T6
X14.84Y17.46
X14.84Y14.92
X17.38Y17.46
X17.38Y14.92
X19.92Y17.46
X19.92Y14.92
X59.15Y19.1
X59.15Y16.56
X59.15Y14.02
X61.69Y19.1
X61.69Y16.56
X61.69Y14.02
T7
X8.37Y53.77
X8.37Y51.23
X10.91Y53.77
X10.91Y51.23
X13.45Y53.77
X13.45Y51.23
X15.99Y53.77
X15.99Y51.23
X18.53Y53.77
X18.53Y51.23
X21.07Y53.77
X21.07Y51.23
X23.61Y53.77
X23.61Y51.23
X26.15Y53.77
X26.15Y51.23
X28.69Y53.77
X28.69Y51.23
X31.23Y53.77
X31.23Y51.23
X33.77Y53.77
X33.77Y51.23
X36.31Y53.77
X36.31Y51.23
X38.85Y53.77
X38.85Y51.23
X41.39Y53.77
X41.39Y51.23
X43.93Y53.77
X43.93Y51.23
X46.47Y53.77
X46.47Y51.23
X49.01Y53.77
X49.01Y51.23
X51.55Y53.77
X51.55Y51.23
X54.09Y53.77
X54.09Y51.23
X56.63Y53.77
X56.63Y51.23
T8
X12.44Y4.5
X12.44Y2.0
X17.44Y9.5
X22.44Y4.5
X22.44Y2.0
X31.6Y4.5
X31.6Y2.0
X36.6Y9.5
X41.6Y4.5
X41.6Y2.0
T9
X3.5Y52.5
X3.5Y3.5
X61.5Y52.5
X61.5Y3.5
T3
G00X12.44Y10.0
M15
G01X12.44Y9.0
M16
G05
G00X16.94Y4.5
M15
G01X17.94Y4.5
M16
G05
G00X22.44Y9.0
M15
G01X22.44Y10.0
M16
G05
G00X31.6Y10.0
M15
G01X31.6Y9.0
M16
G05
G00X36.1Y4.5
M15
G01X37.1Y4.5
M16
G05
G00X41.6Y9.0
M15
G01X41.6Y10.0
M16
G05
T5
G00X14.94Y9.85
M15
G01X14.94Y9.15
M16
G05
G00X19.94Y9.15
M15
G01X19.94Y9.85
M16
G05
G00X34.1Y9.85
M15
G01X34.1Y9.15
M16
G05
G00X39.1Y9.15
M15
G01X39.1Y9.85
M16
G05
M30
