G04 #@! TF.GenerationSoftware,KiCad,Pcbnew,8.0.4+1*
G04 #@! TF.CreationDate,2024-10-16T16:44:14+00:00*
G04 #@! TF.ProjectId,pedalboard-soundcard,70656461-6c62-46f6-9172-642d736f756e,1.0.0*
G04 #@! TF.SameCoordinates,Original*
G04 #@! TF.FileFunction,Copper,L2,Bot*
G04 #@! TF.FilePolarity,Positive*
%FSLAX46Y46*%
G04 Gerber Fmt 4.6, Leading zero omitted, Abs format (unit mm)*
G04 Created by KiCad (PCBNEW 8.0.4+1) date 2024-10-16 16:44:14*
%MOMM*%
%LPD*%
G01*
G04 APERTURE LIST*
G04 #@! TA.AperFunction,ComponentPad*
%ADD10R,1.727200X1.727200*%
G04 #@! TD*
G04 #@! TA.AperFunction,ComponentPad*
%ADD11O,1.727200X1.727200*%
G04 #@! TD*
G04 #@! TA.AperFunction,ComponentPad*
%ADD12O,1.200000X2.200000*%
G04 #@! TD*
G04 #@! TA.AperFunction,ComponentPad*
%ADD13O,1.600000X2.300000*%
G04 #@! TD*
G04 #@! TA.AperFunction,ComponentPad*
%ADD14O,2.200000X1.200000*%
G04 #@! TD*
G04 #@! TA.AperFunction,ComponentPad*
%ADD15O,1.600000X2.500000*%
G04 #@! TD*
G04 #@! TA.AperFunction,ComponentPad*
%ADD16C,0.500000*%
G04 #@! TD*
G04 #@! TA.AperFunction,SMDPad,CuDef*
%ADD17R,3.100000X3.100000*%
G04 #@! TD*
G04 #@! TA.AperFunction,ComponentPad*
%ADD18R,1.700000X1.700000*%
G04 #@! TD*
G04 #@! TA.AperFunction,ComponentPad*
%ADD19O,1.700000X1.700000*%
G04 #@! TD*
G04 #@! TA.AperFunction,ViaPad*
%ADD20C,0.600000*%
G04 #@! TD*
G04 #@! TA.AperFunction,ViaPad*
%ADD21C,1.000000*%
G04 #@! TD*
G04 #@! TA.AperFunction,Conductor*
%ADD22C,0.250000*%
G04 #@! TD*
G04 #@! TA.AperFunction,Conductor*
%ADD23C,1.000000*%
G04 #@! TD*
G04 #@! TA.AperFunction,Conductor*
%ADD24C,0.500000*%
G04 #@! TD*
G04 #@! TA.AperFunction,Conductor*
%ADD25C,0.600000*%
G04 #@! TD*
G04 APERTURE END LIST*
D10*
X8370000Y51230000D03*
D11*
X8370000Y53770000D03*
X10910000Y51230000D03*
X10910000Y53770000D03*
X13450000Y51230000D03*
X13450000Y53770000D03*
X15990000Y51230000D03*
X15990000Y53770000D03*
X18530000Y51230000D03*
X18530000Y53770000D03*
X21070000Y51230000D03*
X21070000Y53770000D03*
X23610000Y51230000D03*
X23610000Y53770000D03*
X26150000Y51230000D03*
X26150000Y53770000D03*
X28690000Y51230000D03*
X28690000Y53770000D03*
X31230000Y51230000D03*
X31230000Y53770000D03*
X33770000Y51230000D03*
X33770000Y53770000D03*
X36310000Y51230000D03*
X36310000Y53770000D03*
X38850000Y51230000D03*
X38850000Y53770000D03*
X41390000Y51230000D03*
X41390000Y53770000D03*
X43930000Y51230000D03*
X43930000Y53770000D03*
X46470000Y51230000D03*
X46470000Y53770000D03*
X49010000Y51230000D03*
X49010000Y53770000D03*
X51550000Y51230000D03*
X51550000Y53770000D03*
X54090000Y51230000D03*
X54090000Y53770000D03*
X56630000Y51230000D03*
X56630000Y53770000D03*
D12*
X12440000Y9500000D03*
D13*
X14940000Y9500000D03*
D14*
X17440000Y4500000D03*
D12*
X22440000Y9500000D03*
D15*
X19940000Y9500000D03*
D16*
X44450000Y15423000D03*
X45316667Y15423000D03*
X46183333Y15423000D03*
X47050000Y15423000D03*
X44450000Y16289667D03*
X45316667Y16289667D03*
X46183333Y16289667D03*
X47050000Y16289667D03*
D17*
X45750000Y16723000D03*
D16*
X44450000Y17156333D03*
X45316667Y17156333D03*
X46183333Y17156333D03*
X47050000Y17156333D03*
X44450000Y18023000D03*
X45316667Y18023000D03*
X46183333Y18023000D03*
X47050000Y18023000D03*
D12*
X31600000Y9500000D03*
D13*
X34100000Y9500000D03*
D14*
X36600000Y4500000D03*
D12*
X41600000Y9500000D03*
D15*
X39100000Y9500000D03*
D18*
X14840000Y14920000D03*
D19*
X14840000Y17460000D03*
X17380000Y14920000D03*
X17380000Y17460000D03*
X19920000Y14920000D03*
X19920000Y17460000D03*
D18*
X59150000Y19100000D03*
D19*
X61690000Y19100000D03*
X59150000Y16560000D03*
X61690000Y16560000D03*
X59150000Y14020000D03*
X61690000Y14020000D03*
D20*
X52250000Y20060000D03*
X44000000Y8170000D03*
X39300000Y24020000D03*
X28610000Y13430000D03*
X15810000Y34860000D03*
X34125000Y30925000D03*
X12290000Y25960000D03*
X24570000Y12570000D03*
X52400000Y28540000D03*
X34340000Y47350000D03*
X35740000Y36140000D03*
X44060000Y22610000D03*
X25270000Y34030000D03*
X38620000Y44060000D03*
X52250000Y22010000D03*
X40270000Y35900000D03*
X10920000Y31510000D03*
X57500000Y7900000D03*
X48310000Y8270000D03*
X27150000Y24990000D03*
X23120000Y22400000D03*
X15000000Y26000000D03*
X57100000Y24800000D03*
X23210000Y30150000D03*
X34030000Y35810000D03*
X17790000Y34800000D03*
X28120000Y22970000D03*
X9950000Y12580000D03*
X23210000Y33690000D03*
X45970000Y8210000D03*
X38530000Y30900000D03*
X52250000Y18090000D03*
X15420000Y28820000D03*
X5870000Y13380000D03*
X40950000Y19630000D03*
X44000000Y11430000D03*
X42650000Y47900000D03*
D21*
X38470000Y28830000D03*
D20*
X19850500Y32350000D03*
D21*
X32220000Y28830000D03*
D20*
X36880000Y48530000D03*
D21*
X19900000Y37050000D03*
X49235000Y29175000D03*
X21049500Y43050000D03*
X28330000Y32770000D03*
X7595000Y48965000D03*
D20*
X39088178Y26965000D03*
X16419647Y28109647D03*
X39740000Y26310000D03*
X17344722Y27755500D03*
X34130000Y25890000D03*
X12275000Y30249999D03*
X12843707Y31881190D03*
X33630000Y23030000D03*
X51440000Y45720000D03*
X12420000Y48209500D03*
X42340000Y30960000D03*
X42280000Y16820000D03*
X42930000Y14510000D03*
X43401382Y19811382D03*
D22*
X36880000Y48530000D02*
X42020000Y48530000D01*
D23*
X40950000Y14440000D02*
X44000000Y11390000D01*
D22*
X42020000Y48530000D02*
X42650000Y47900000D01*
D23*
X44000000Y11390000D02*
X44000000Y11430000D01*
X19860000Y31000000D02*
X22030000Y28830000D01*
X40060000Y28830000D02*
X32220000Y28830000D01*
X19860000Y37010000D02*
X19860000Y32350000D01*
X40950000Y19630000D02*
X40950000Y14440000D01*
X40950000Y19630000D02*
X40950000Y27940000D01*
X19900000Y37050000D02*
X19860000Y37010000D01*
X40950000Y27940000D02*
X40060000Y28830000D01*
X22030000Y28830000D02*
X32220000Y28830000D01*
X19860000Y32350000D02*
X19860000Y31000000D01*
X19860000Y32350000D02*
X19850500Y32350000D01*
X28330000Y32770000D02*
X45640000Y32770000D01*
D24*
X8370000Y53770000D02*
X7976400Y53770000D01*
D25*
X7976400Y53770000D02*
X6950000Y52743600D01*
D23*
X26360000Y34740000D02*
X26360000Y37320000D01*
X16470000Y47210000D02*
X9350000Y47210000D01*
D24*
X8370000Y53770000D02*
X8093600Y53493600D01*
D25*
X6950000Y52743600D02*
X6950000Y49610000D01*
D23*
X9350000Y47210000D02*
X7595000Y48965000D01*
X6950000Y49610000D02*
X9370000Y47190000D01*
X28330000Y32770000D02*
X26360000Y34740000D01*
X26360000Y37320000D02*
X16470000Y47210000D01*
X45640000Y32770000D02*
X49235000Y29175000D01*
D22*
X38165000Y28005000D02*
X39088178Y27081822D01*
X39088178Y27081822D02*
X39088178Y26965000D01*
X16690500Y28380500D02*
X17603606Y28380500D01*
X21662774Y28030500D02*
X21688274Y28005000D01*
X21688274Y28005000D02*
X38165000Y28005000D01*
X17953606Y28030500D02*
X21662774Y28030500D01*
X16419647Y28109647D02*
X16690500Y28380500D01*
X17603606Y28380500D02*
X17953606Y28030500D01*
X38860000Y26310000D02*
X39740000Y26310000D01*
X17519722Y27580500D02*
X21476378Y27580500D01*
X21501878Y27555000D02*
X37615000Y27555000D01*
X17344722Y27755500D02*
X17519722Y27580500D01*
X37615000Y27555000D02*
X38860000Y26310000D01*
X21476378Y27580500D02*
X21501878Y27555000D01*
X21315482Y27105000D02*
X34130000Y27105000D01*
X14166396Y27710000D02*
X15936116Y27710000D01*
X12275000Y30249999D02*
X12275000Y29601396D01*
X15936116Y27710000D02*
X16515616Y27130500D01*
X34130000Y27105000D02*
X34130000Y25890000D01*
X16515616Y27130500D02*
X21289982Y27130500D01*
X21289982Y27130500D02*
X21315482Y27105000D01*
X12275000Y29601396D02*
X14166396Y27710000D01*
X33220000Y23440000D02*
X33630000Y23030000D01*
X15749720Y27260000D02*
X16329220Y26680500D01*
X21103586Y26680500D02*
X21129086Y26655000D01*
X12843707Y31881190D02*
X11650000Y30687483D01*
X16329220Y26680500D02*
X21103586Y26680500D01*
X33220000Y26655000D02*
X33220000Y23440000D01*
X11650000Y29590000D02*
X13980000Y27260000D01*
X21129086Y26655000D02*
X33220000Y26655000D01*
X13980000Y27260000D02*
X15749720Y27260000D01*
X11650000Y30687483D02*
X11650000Y29590000D01*
X12420000Y48209500D02*
X12594500Y48035000D01*
X19126726Y45720000D02*
X51440000Y45720000D01*
X12594500Y48035000D02*
X16811726Y48035000D01*
X16811726Y48035000D02*
X19126726Y45720000D01*
X41775000Y28281726D02*
X41770000Y28286726D01*
X41770000Y28286726D02*
X41770000Y30390000D01*
X41770000Y30390000D02*
X42340000Y30960000D01*
X42280000Y16820000D02*
X41775000Y17325000D01*
X41775000Y17325000D02*
X41775000Y28281726D01*
X43100000Y14680000D02*
X42930000Y14510000D01*
X43401382Y19811382D02*
X43100000Y19510000D01*
X43100000Y19510000D02*
X43100000Y14680000D01*
G04 #@! TA.AperFunction,Conductor*
G36*
X61224075Y16752993D02*
G01*
X61190000Y16625826D01*
X61190000Y16494174D01*
X61224075Y16367007D01*
X61256988Y16310000D01*
X59583012Y16310000D01*
X59615925Y16367007D01*
X59650000Y16494174D01*
X59650000Y16625826D01*
X59615925Y16752993D01*
X59583012Y16810000D01*
X61256988Y16810000D01*
X61224075Y16752993D01*
G37*
G04 #@! TD.AperFunction*
G04 #@! TA.AperFunction,Conductor*
G36*
X17630000Y15353012D02*
G01*
X17572993Y15385925D01*
X17445826Y15420000D01*
X17314174Y15420000D01*
X17187007Y15385925D01*
X17130000Y15353012D01*
X17130000Y17026988D01*
X17187007Y16994075D01*
X17314174Y16960000D01*
X17445826Y16960000D01*
X17572993Y16994075D01*
X17630000Y17026988D01*
X17630000Y15353012D01*
G37*
G04 #@! TD.AperFunction*
G04 #@! TA.AperFunction,Conductor*
G36*
X62003472Y55949305D02*
G01*
X62323297Y55931344D01*
X62337094Y55929790D01*
X62649457Y55876717D01*
X62663014Y55873623D01*
X62967469Y55785911D01*
X62980593Y55781318D01*
X63273304Y55660074D01*
X63285826Y55654045D01*
X63563139Y55500779D01*
X63574900Y55493389D01*
X63833314Y55310034D01*
X63844174Y55301373D01*
X64080418Y55090251D01*
X64090250Y55080419D01*
X64301372Y54844175D01*
X64310035Y54833313D01*
X64493385Y54574906D01*
X64500778Y54563140D01*
X64654040Y54285834D01*
X64660073Y54273305D01*
X64781317Y53980594D01*
X64785910Y53967470D01*
X64873622Y53663015D01*
X64876716Y53649458D01*
X64929787Y53337106D01*
X64931344Y53323288D01*
X64949305Y53003473D01*
X64949500Y52996520D01*
X64949500Y3003481D01*
X64949305Y2996528D01*
X64931344Y2676713D01*
X64929787Y2662895D01*
X64876716Y2350543D01*
X64873622Y2336986D01*
X64785910Y2032531D01*
X64781317Y2019407D01*
X64660073Y1726696D01*
X64654040Y1714167D01*
X64500778Y1436861D01*
X64493380Y1425088D01*
X64315145Y1173888D01*
X64310043Y1166698D01*
X64301372Y1155826D01*
X64090250Y919582D01*
X64080418Y909750D01*
X63844174Y698628D01*
X63833302Y689957D01*
X63574913Y506620D01*
X63563139Y499222D01*
X63285833Y345960D01*
X63273304Y339927D01*
X62980593Y218683D01*
X62967469Y214090D01*
X62663014Y126378D01*
X62649457Y123284D01*
X62337105Y70213D01*
X62323287Y68656D01*
X62003472Y50695D01*
X61996519Y50500D01*
X38974500Y50500D01*
X38907461Y70185D01*
X38861706Y122989D01*
X38850500Y174500D01*
X38850500Y1059307D01*
X38850500Y1059309D01*
X38819799Y1173886D01*
X38760489Y1276613D01*
X38676613Y1360489D01*
X38573886Y1419799D01*
X38459309Y1450500D01*
X38420918Y1450500D01*
X34816408Y1450500D01*
X34800000Y1450500D01*
X34740691Y1450500D01*
X34626114Y1419799D01*
X34626112Y1419799D01*
X34626112Y1419798D01*
X34523387Y1360489D01*
X34523384Y1360487D01*
X34439513Y1276616D01*
X34439511Y1276613D01*
X34386326Y1184494D01*
X34380201Y1173886D01*
X34349500Y1059309D01*
X34349500Y1059307D01*
X34349500Y174500D01*
X34329815Y107461D01*
X34277011Y61706D01*
X34225500Y50500D01*
X19814500Y50500D01*
X19747461Y70185D01*
X19701706Y122989D01*
X19690500Y174500D01*
X19690500Y1059307D01*
X19690500Y1059309D01*
X19659799Y1173886D01*
X19600489Y1276613D01*
X19516613Y1360489D01*
X19413886Y1419799D01*
X19299309Y1450500D01*
X19260918Y1450500D01*
X15656408Y1450500D01*
X15640000Y1450500D01*
X15580691Y1450500D01*
X15466114Y1419799D01*
X15466112Y1419799D01*
X15466112Y1419798D01*
X15363387Y1360489D01*
X15363384Y1360487D01*
X15279513Y1276616D01*
X15279511Y1276613D01*
X15226326Y1184494D01*
X15220201Y1173886D01*
X15189500Y1059309D01*
X15189500Y1059307D01*
X15189500Y174500D01*
X15169815Y107461D01*
X15117011Y61706D01*
X15065500Y50500D01*
X3003481Y50500D01*
X2996528Y50695D01*
X2676712Y68656D01*
X2662894Y70213D01*
X2350542Y123284D01*
X2336985Y126378D01*
X2032530Y214090D01*
X2019406Y218683D01*
X1726695Y339927D01*
X1714166Y345960D01*
X1436860Y499222D01*
X1425094Y506615D01*
X1166687Y689965D01*
X1155825Y698628D01*
X919581Y909750D01*
X909749Y919582D01*
X698627Y1155826D01*
X689966Y1166686D01*
X506611Y1425100D01*
X499221Y1436861D01*
X491683Y1450500D01*
X345955Y1714174D01*
X339926Y1726696D01*
X329475Y1751926D01*
X261418Y1916232D01*
X218682Y2019407D01*
X214089Y2032531D01*
X126377Y2336986D01*
X123283Y2350543D01*
X114394Y2402861D01*
X70210Y2662906D01*
X68656Y2676703D01*
X50695Y2996528D01*
X50500Y3003481D01*
X50500Y3674125D01*
X399500Y3674125D01*
X399500Y3325876D01*
X438489Y2979842D01*
X438491Y2979830D01*
X515982Y2640316D01*
X515985Y2640308D01*
X630999Y2311618D01*
X782092Y1997870D01*
X967371Y1703001D01*
X967372Y1702999D01*
X1184487Y1430744D01*
X1430743Y1184488D01*
X1702998Y967373D01*
X1703001Y967372D01*
X1703003Y967370D01*
X1997867Y782094D01*
X2311621Y630998D01*
X2558488Y544616D01*
X2640307Y515986D01*
X2640315Y515983D01*
X2640318Y515983D01*
X2640319Y515982D01*
X2979829Y438491D01*
X3325876Y399501D01*
X3325877Y399500D01*
X3325880Y399500D01*
X3674123Y399500D01*
X3674123Y399501D01*
X4020171Y438491D01*
X4359681Y515982D01*
X4688379Y630998D01*
X5002133Y782094D01*
X5296997Y967370D01*
X5337914Y1000000D01*
X5569256Y1184488D01*
X5569258Y1184491D01*
X5569263Y1184494D01*
X5815506Y1430737D01*
X5815534Y1430771D01*
X6032627Y1702999D01*
X6032628Y1703001D01*
X6032630Y1703003D01*
X6217906Y1997867D01*
X6259276Y2083772D01*
X11589500Y2083772D01*
X11589500Y1916229D01*
X11622182Y1751926D01*
X11622184Y1751918D01*
X11686295Y1597140D01*
X11779373Y1457838D01*
X11897837Y1339374D01*
X11952760Y1302676D01*
X12037137Y1246297D01*
X12191918Y1182184D01*
X12298333Y1161017D01*
X12356228Y1149501D01*
X12356232Y1149500D01*
X12356233Y1149500D01*
X12523768Y1149500D01*
X12523769Y1149501D01*
X12688082Y1182184D01*
X12842863Y1246297D01*
X12982162Y1339374D01*
X13100626Y1457838D01*
X13193703Y1597137D01*
X13257816Y1751918D01*
X13290500Y1916233D01*
X13290500Y2083767D01*
X13290499Y2083772D01*
X21589500Y2083772D01*
X21589500Y1916229D01*
X21622182Y1751926D01*
X21622184Y1751918D01*
X21686295Y1597140D01*
X21779373Y1457838D01*
X21897837Y1339374D01*
X21952760Y1302676D01*
X22037137Y1246297D01*
X22191918Y1182184D01*
X22298333Y1161017D01*
X22356228Y1149501D01*
X22356232Y1149500D01*
X22356233Y1149500D01*
X22523768Y1149500D01*
X22523769Y1149501D01*
X22688082Y1182184D01*
X22842863Y1246297D01*
X22982162Y1339374D01*
X23100626Y1457838D01*
X23193703Y1597137D01*
X23257816Y1751918D01*
X23290500Y1916233D01*
X23290500Y2083767D01*
X23290499Y2083772D01*
X30749500Y2083772D01*
X30749500Y1916229D01*
X30782182Y1751926D01*
X30782184Y1751918D01*
X30846295Y1597140D01*
X30939373Y1457838D01*
X31057837Y1339374D01*
X31112760Y1302676D01*
X31197137Y1246297D01*
X31351918Y1182184D01*
X31458333Y1161017D01*
X31516228Y1149501D01*
X31516232Y1149500D01*
X31516233Y1149500D01*
X31683768Y1149500D01*
X31683769Y1149501D01*
X31848082Y1182184D01*
X32002863Y1246297D01*
X32142162Y1339374D01*
X32260626Y1457838D01*
X32353703Y1597137D01*
X32417816Y1751918D01*
X32450500Y1916233D01*
X32450500Y2083767D01*
X32450499Y2083772D01*
X40749500Y2083772D01*
X40749500Y1916229D01*
X40782182Y1751926D01*
X40782184Y1751918D01*
X40846295Y1597140D01*
X40939373Y1457838D01*
X41057837Y1339374D01*
X41112760Y1302676D01*
X41197137Y1246297D01*
X41351918Y1182184D01*
X41458333Y1161017D01*
X41516228Y1149501D01*
X41516232Y1149500D01*
X41516233Y1149500D01*
X41683768Y1149500D01*
X41683769Y1149501D01*
X41848082Y1182184D01*
X42002863Y1246297D01*
X42142162Y1339374D01*
X42260626Y1457838D01*
X42353703Y1597137D01*
X42417816Y1751918D01*
X42450500Y1916233D01*
X42450500Y2083767D01*
X42417816Y2248082D01*
X42353703Y2402863D01*
X42322537Y2449506D01*
X42260626Y2542163D01*
X42142162Y2660627D01*
X42002860Y2753705D01*
X41848082Y2817816D01*
X41848074Y2817818D01*
X41683771Y2850500D01*
X41683767Y2850500D01*
X41516233Y2850500D01*
X41516228Y2850500D01*
X41351925Y2817818D01*
X41351917Y2817816D01*
X41197139Y2753705D01*
X41057837Y2660627D01*
X40939373Y2542163D01*
X40846295Y2402861D01*
X40782184Y2248083D01*
X40782182Y2248075D01*
X40749500Y2083772D01*
X32450499Y2083772D01*
X32417816Y2248082D01*
X32353703Y2402863D01*
X32322537Y2449506D01*
X32260626Y2542163D01*
X32142162Y2660627D01*
X32002860Y2753705D01*
X31848082Y2817816D01*
X31848074Y2817818D01*
X31683771Y2850500D01*
X31683767Y2850500D01*
X31516233Y2850500D01*
X31516228Y2850500D01*
X31351925Y2817818D01*
X31351917Y2817816D01*
X31197139Y2753705D01*
X31057837Y2660627D01*
X30939373Y2542163D01*
X30846295Y2402861D01*
X30782184Y2248083D01*
X30782182Y2248075D01*
X30749500Y2083772D01*
X23290499Y2083772D01*
X23257816Y2248082D01*
X23193703Y2402863D01*
X23162537Y2449506D01*
X23100626Y2542163D01*
X22982162Y2660627D01*
X22842860Y2753705D01*
X22688082Y2817816D01*
X22688074Y2817818D01*
X22523771Y2850500D01*
X22523767Y2850500D01*
X22356233Y2850500D01*
X22356228Y2850500D01*
X22191925Y2817818D01*
X22191917Y2817816D01*
X22037139Y2753705D01*
X21897837Y2660627D01*
X21779373Y2542163D01*
X21686295Y2402861D01*
X21622184Y2248083D01*
X21622182Y2248075D01*
X21589500Y2083772D01*
X13290499Y2083772D01*
X13257816Y2248082D01*
X13193703Y2402863D01*
X13162537Y2449506D01*
X13100626Y2542163D01*
X12982162Y2660627D01*
X12842860Y2753705D01*
X12688082Y2817816D01*
X12688074Y2817818D01*
X12523771Y2850500D01*
X12523767Y2850500D01*
X12356233Y2850500D01*
X12356228Y2850500D01*
X12191925Y2817818D01*
X12191917Y2817816D01*
X12037139Y2753705D01*
X11897837Y2660627D01*
X11779373Y2542163D01*
X11686295Y2402861D01*
X11622184Y2248083D01*
X11622182Y2248075D01*
X11589500Y2083772D01*
X6259276Y2083772D01*
X6369002Y2311621D01*
X6484018Y2640319D01*
X6561509Y2979829D01*
X6600500Y3325880D01*
X6600500Y3674120D01*
X6561509Y4020171D01*
X6484018Y4359681D01*
X6405605Y4583772D01*
X11589500Y4583772D01*
X11589500Y4416229D01*
X11622182Y4251926D01*
X11622184Y4251918D01*
X11686295Y4097140D01*
X11779373Y3957838D01*
X11897837Y3839374D01*
X11981612Y3783398D01*
X12037137Y3746297D01*
X12191918Y3682184D01*
X12356228Y3649501D01*
X12356232Y3649500D01*
X12356233Y3649500D01*
X12523768Y3649500D01*
X12523769Y3649501D01*
X12688082Y3682184D01*
X12842863Y3746297D01*
X12982162Y3839374D01*
X13100626Y3957838D01*
X13193703Y4097137D01*
X13257022Y4250000D01*
X15865885Y4250000D01*
X15867085Y4242416D01*
X15920591Y4077745D01*
X15999195Y3923476D01*
X16100967Y3783398D01*
X16223397Y3660968D01*
X16363475Y3559196D01*
X16517742Y3480592D01*
X16682415Y3427086D01*
X16853429Y3400000D01*
X17190000Y3400000D01*
X17690000Y3400000D01*
X18026571Y3400000D01*
X18197584Y3427086D01*
X18362257Y3480592D01*
X18516524Y3559196D01*
X18656602Y3660968D01*
X18779032Y3783398D01*
X18880804Y3923476D01*
X18959408Y4077745D01*
X19012914Y4242416D01*
X19014115Y4250000D01*
X17690000Y4250000D01*
X17690000Y3400000D01*
X17190000Y3400000D01*
X17190000Y4250000D01*
X15865885Y4250000D01*
X13257022Y4250000D01*
X13257816Y4251918D01*
X13290500Y4416233D01*
X13290500Y4539782D01*
X16740000Y4539782D01*
X16740000Y4460218D01*
X16770448Y4386709D01*
X16826709Y4330448D01*
X16900218Y4300000D01*
X17979782Y4300000D01*
X18053291Y4330448D01*
X18109552Y4386709D01*
X18140000Y4460218D01*
X18140000Y4539782D01*
X18121779Y4583772D01*
X21589500Y4583772D01*
X21589500Y4416229D01*
X21622182Y4251926D01*
X21622184Y4251918D01*
X21686295Y4097140D01*
X21779373Y3957838D01*
X21897837Y3839374D01*
X21981612Y3783398D01*
X22037137Y3746297D01*
X22191918Y3682184D01*
X22356228Y3649501D01*
X22356232Y3649500D01*
X22356233Y3649500D01*
X22523768Y3649500D01*
X22523769Y3649501D01*
X22688082Y3682184D01*
X22842863Y3746297D01*
X22982162Y3839374D01*
X23100626Y3957838D01*
X23193703Y4097137D01*
X23257816Y4251918D01*
X23290500Y4416233D01*
X23290500Y4583767D01*
X23290499Y4583772D01*
X30749500Y4583772D01*
X30749500Y4416229D01*
X30782182Y4251926D01*
X30782184Y4251918D01*
X30846295Y4097140D01*
X30939373Y3957838D01*
X31057837Y3839374D01*
X31141612Y3783398D01*
X31197137Y3746297D01*
X31351918Y3682184D01*
X31516228Y3649501D01*
X31516232Y3649500D01*
X31516233Y3649500D01*
X31683768Y3649500D01*
X31683769Y3649501D01*
X31848082Y3682184D01*
X32002863Y3746297D01*
X32142162Y3839374D01*
X32260626Y3957838D01*
X32353703Y4097137D01*
X32417022Y4250000D01*
X35025885Y4250000D01*
X35027085Y4242416D01*
X35080591Y4077745D01*
X35159195Y3923476D01*
X35260967Y3783398D01*
X35383397Y3660968D01*
X35523475Y3559196D01*
X35677742Y3480592D01*
X35842415Y3427086D01*
X36013429Y3400000D01*
X36350000Y3400000D01*
X36850000Y3400000D01*
X37186571Y3400000D01*
X37357584Y3427086D01*
X37522257Y3480592D01*
X37676524Y3559196D01*
X37816602Y3660968D01*
X37939032Y3783398D01*
X38040804Y3923476D01*
X38119408Y4077745D01*
X38172914Y4242416D01*
X38174115Y4250000D01*
X36850000Y4250000D01*
X36850000Y3400000D01*
X36350000Y3400000D01*
X36350000Y4250000D01*
X35025885Y4250000D01*
X32417022Y4250000D01*
X32417816Y4251918D01*
X32450500Y4416233D01*
X32450500Y4539782D01*
X35900000Y4539782D01*
X35900000Y4460218D01*
X35930448Y4386709D01*
X35986709Y4330448D01*
X36060218Y4300000D01*
X37139782Y4300000D01*
X37213291Y4330448D01*
X37269552Y4386709D01*
X37300000Y4460218D01*
X37300000Y4539782D01*
X37281779Y4583772D01*
X40749500Y4583772D01*
X40749500Y4416229D01*
X40782182Y4251926D01*
X40782184Y4251918D01*
X40846295Y4097140D01*
X40939373Y3957838D01*
X41057837Y3839374D01*
X41141612Y3783398D01*
X41197137Y3746297D01*
X41351918Y3682184D01*
X41516228Y3649501D01*
X41516232Y3649500D01*
X41516233Y3649500D01*
X41683768Y3649500D01*
X41683769Y3649501D01*
X41807566Y3674125D01*
X58399500Y3674125D01*
X58399500Y3325876D01*
X58438489Y2979842D01*
X58438491Y2979830D01*
X58515982Y2640316D01*
X58515985Y2640308D01*
X58630999Y2311618D01*
X58782092Y1997870D01*
X58967371Y1703001D01*
X58967372Y1702999D01*
X59184487Y1430744D01*
X59430743Y1184488D01*
X59702998Y967373D01*
X59703001Y967372D01*
X59703003Y967370D01*
X59997867Y782094D01*
X60311621Y630998D01*
X60558488Y544616D01*
X60640307Y515986D01*
X60640315Y515983D01*
X60640318Y515983D01*
X60640319Y515982D01*
X60979829Y438491D01*
X61325876Y399501D01*
X61325877Y399500D01*
X61325880Y399500D01*
X61674123Y399500D01*
X61674123Y399501D01*
X62020171Y438491D01*
X62359681Y515982D01*
X62688379Y630998D01*
X63002133Y782094D01*
X63296997Y967370D01*
X63337914Y1000000D01*
X63569256Y1184488D01*
X63569258Y1184491D01*
X63569263Y1184494D01*
X63815506Y1430737D01*
X63815534Y1430771D01*
X64032627Y1702999D01*
X64032628Y1703001D01*
X64032630Y1703003D01*
X64217906Y1997867D01*
X64369002Y2311621D01*
X64484018Y2640319D01*
X64561509Y2979829D01*
X64600500Y3325880D01*
X64600500Y3674120D01*
X64561509Y4020171D01*
X64484018Y4359681D01*
X64369002Y4688379D01*
X64217906Y5002133D01*
X64032630Y5296997D01*
X64032628Y5297000D01*
X64032627Y5297002D01*
X63815512Y5569257D01*
X63569256Y5815513D01*
X63297001Y6032628D01*
X63296999Y6032629D01*
X63002130Y6217908D01*
X62688382Y6369001D01*
X62359692Y6484015D01*
X62359684Y6484018D01*
X62105048Y6542137D01*
X62020171Y6561509D01*
X62020167Y6561510D01*
X62020158Y6561511D01*
X61674124Y6600500D01*
X61674120Y6600500D01*
X61325880Y6600500D01*
X61325875Y6600500D01*
X60979841Y6561511D01*
X60979829Y6561509D01*
X60640315Y6484018D01*
X60640307Y6484015D01*
X60311617Y6369001D01*
X59997869Y6217908D01*
X59703000Y6032629D01*
X59702998Y6032628D01*
X59430743Y5815513D01*
X59184487Y5569257D01*
X58967372Y5297002D01*
X58967371Y5297000D01*
X58782092Y5002131D01*
X58630999Y4688383D01*
X58515985Y4359693D01*
X58515982Y4359685D01*
X58438491Y4020171D01*
X58438489Y4020159D01*
X58399500Y3674125D01*
X41807566Y3674125D01*
X41848082Y3682184D01*
X42002863Y3746297D01*
X42142162Y3839374D01*
X42260626Y3957838D01*
X42353703Y4097137D01*
X42417816Y4251918D01*
X42450500Y4416233D01*
X42450500Y4583767D01*
X42417816Y4748082D01*
X42353703Y4902863D01*
X42287373Y5002133D01*
X42260626Y5042163D01*
X42142162Y5160627D01*
X42002860Y5253705D01*
X41848082Y5317816D01*
X41848074Y5317818D01*
X41683771Y5350500D01*
X41683767Y5350500D01*
X41516233Y5350500D01*
X41516228Y5350500D01*
X41351925Y5317818D01*
X41351917Y5317816D01*
X41197139Y5253705D01*
X41057837Y5160627D01*
X40939373Y5042163D01*
X40846295Y4902861D01*
X40782184Y4748083D01*
X40782182Y4748075D01*
X40749500Y4583772D01*
X37281779Y4583772D01*
X37269552Y4613291D01*
X37213291Y4669552D01*
X37139782Y4700000D01*
X36060218Y4700000D01*
X35986709Y4669552D01*
X35930448Y4613291D01*
X35900000Y4539782D01*
X32450500Y4539782D01*
X32450500Y4583767D01*
X32417816Y4748082D01*
X32417021Y4750001D01*
X35025884Y4750001D01*
X35025885Y4750000D01*
X36350000Y4750000D01*
X36850000Y4750000D01*
X38174115Y4750000D01*
X38174115Y4750001D01*
X38172914Y4757585D01*
X38119408Y4922256D01*
X38040804Y5076525D01*
X37939032Y5216603D01*
X37816602Y5339033D01*
X37676524Y5440805D01*
X37522257Y5519409D01*
X37357584Y5572915D01*
X37186571Y5600000D01*
X36850000Y5600000D01*
X36850000Y4750000D01*
X36350000Y4750000D01*
X36350000Y5600000D01*
X36013429Y5600000D01*
X35842415Y5572915D01*
X35677742Y5519409D01*
X35523475Y5440805D01*
X35383397Y5339033D01*
X35260967Y5216603D01*
X35159195Y5076525D01*
X35080591Y4922256D01*
X35027085Y4757585D01*
X35025884Y4750001D01*
X32417021Y4750001D01*
X32353703Y4902863D01*
X32287373Y5002133D01*
X32260626Y5042163D01*
X32142162Y5160627D01*
X32002860Y5253705D01*
X31848082Y5317816D01*
X31848074Y5317818D01*
X31683771Y5350500D01*
X31683767Y5350500D01*
X31516233Y5350500D01*
X31516228Y5350500D01*
X31351925Y5317818D01*
X31351917Y5317816D01*
X31197139Y5253705D01*
X31057837Y5160627D01*
X30939373Y5042163D01*
X30846295Y4902861D01*
X30782184Y4748083D01*
X30782182Y4748075D01*
X30749500Y4583772D01*
X23290499Y4583772D01*
X23257816Y4748082D01*
X23193703Y4902863D01*
X23127373Y5002133D01*
X23100626Y5042163D01*
X22982162Y5160627D01*
X22842860Y5253705D01*
X22688082Y5317816D01*
X22688074Y5317818D01*
X22523771Y5350500D01*
X22523767Y5350500D01*
X22356233Y5350500D01*
X22356228Y5350500D01*
X22191925Y5317818D01*
X22191917Y5317816D01*
X22037139Y5253705D01*
X21897837Y5160627D01*
X21779373Y5042163D01*
X21686295Y4902861D01*
X21622184Y4748083D01*
X21622182Y4748075D01*
X21589500Y4583772D01*
X18121779Y4583772D01*
X18109552Y4613291D01*
X18053291Y4669552D01*
X17979782Y4700000D01*
X16900218Y4700000D01*
X16826709Y4669552D01*
X16770448Y4613291D01*
X16740000Y4539782D01*
X13290500Y4539782D01*
X13290500Y4583767D01*
X13257816Y4748082D01*
X13257021Y4750001D01*
X15865884Y4750001D01*
X15865885Y4750000D01*
X17190000Y4750000D01*
X17690000Y4750000D01*
X19014115Y4750000D01*
X19014115Y4750001D01*
X19012914Y4757585D01*
X18959408Y4922256D01*
X18880804Y5076525D01*
X18779032Y5216603D01*
X18656602Y5339033D01*
X18516524Y5440805D01*
X18362257Y5519409D01*
X18197584Y5572915D01*
X18026571Y5600000D01*
X17690000Y5600000D01*
X17690000Y4750000D01*
X17190000Y4750000D01*
X17190000Y5600000D01*
X16853429Y5600000D01*
X16682415Y5572915D01*
X16517742Y5519409D01*
X16363475Y5440805D01*
X16223397Y5339033D01*
X16100967Y5216603D01*
X15999195Y5076525D01*
X15920591Y4922256D01*
X15867085Y4757585D01*
X15865884Y4750001D01*
X13257021Y4750001D01*
X13193703Y4902863D01*
X13127373Y5002133D01*
X13100626Y5042163D01*
X12982162Y5160627D01*
X12842860Y5253705D01*
X12688082Y5317816D01*
X12688074Y5317818D01*
X12523771Y5350500D01*
X12523767Y5350500D01*
X12356233Y5350500D01*
X12356228Y5350500D01*
X12191925Y5317818D01*
X12191917Y5317816D01*
X12037139Y5253705D01*
X11897837Y5160627D01*
X11779373Y5042163D01*
X11686295Y4902861D01*
X11622184Y4748083D01*
X11622182Y4748075D01*
X11589500Y4583772D01*
X6405605Y4583772D01*
X6369002Y4688379D01*
X6217906Y5002133D01*
X6032630Y5296997D01*
X6032628Y5297000D01*
X6032627Y5297002D01*
X5815512Y5569257D01*
X5569256Y5815513D01*
X5297001Y6032628D01*
X5296999Y6032629D01*
X5002130Y6217908D01*
X4688382Y6369001D01*
X4359692Y6484015D01*
X4359684Y6484018D01*
X4105048Y6542137D01*
X4020171Y6561509D01*
X4020167Y6561510D01*
X4020158Y6561511D01*
X3674124Y6600500D01*
X3674120Y6600500D01*
X3325880Y6600500D01*
X3325875Y6600500D01*
X2979841Y6561511D01*
X2979829Y6561509D01*
X2640315Y6484018D01*
X2640307Y6484015D01*
X2311617Y6369001D01*
X1997869Y6217908D01*
X1703000Y6032629D01*
X1702998Y6032628D01*
X1430743Y5815513D01*
X1184487Y5569257D01*
X967372Y5297002D01*
X967371Y5297000D01*
X782092Y5002131D01*
X630999Y4688383D01*
X515985Y4359693D01*
X515982Y4359685D01*
X438491Y4020171D01*
X438489Y4020159D01*
X399500Y3674125D01*
X50500Y3674125D01*
X50500Y10086611D01*
X11339500Y10086611D01*
X11339500Y8913390D01*
X11365964Y8746297D01*
X11366598Y8742299D01*
X11420127Y8577555D01*
X11498768Y8423212D01*
X11600586Y8283072D01*
X11723072Y8160586D01*
X11863212Y8058768D01*
X12017555Y7980127D01*
X12182299Y7926598D01*
X12353389Y7899500D01*
X12353390Y7899500D01*
X12526610Y7899500D01*
X12526611Y7899500D01*
X12697701Y7926598D01*
X12862445Y7980127D01*
X13016788Y8058768D01*
X13156928Y8160586D01*
X13279414Y8283072D01*
X13381232Y8423212D01*
X13459873Y8577555D01*
X13491292Y8674255D01*
X13530728Y8731928D01*
X13595086Y8759127D01*
X13663933Y8747213D01*
X13715409Y8699969D01*
X13727152Y8674256D01*
X13734780Y8650780D01*
X13827715Y8468387D01*
X13948028Y8302787D01*
X14092786Y8158029D01*
X14229410Y8058768D01*
X14258390Y8037713D01*
X14371405Y7980129D01*
X14440776Y7944782D01*
X14440778Y7944782D01*
X14440781Y7944780D01*
X14545137Y7910873D01*
X14635465Y7881523D01*
X14736557Y7865512D01*
X14837648Y7849500D01*
X14837649Y7849500D01*
X15042351Y7849500D01*
X15042352Y7849500D01*
X15244534Y7881523D01*
X15439219Y7944780D01*
X15621610Y8037713D01*
X15714590Y8105268D01*
X15787213Y8158029D01*
X15787215Y8158032D01*
X15787219Y8158034D01*
X15931966Y8302781D01*
X15931968Y8302785D01*
X15931971Y8302787D01*
X15984732Y8375410D01*
X16052287Y8468390D01*
X16145220Y8650781D01*
X16208477Y8845466D01*
X16240500Y9047648D01*
X16240500Y9583772D01*
X16589500Y9583772D01*
X16589500Y9416229D01*
X16622182Y9251926D01*
X16622184Y9251918D01*
X16686295Y9097140D01*
X16779373Y8957838D01*
X16897837Y8839374D01*
X16990494Y8777463D01*
X17037137Y8746297D01*
X17037138Y8746297D01*
X17037139Y8746296D01*
X17072201Y8731773D01*
X17191918Y8682184D01*
X17349793Y8650781D01*
X17356228Y8649501D01*
X17356232Y8649500D01*
X17356233Y8649500D01*
X17523768Y8649500D01*
X17523769Y8649501D01*
X17688082Y8682184D01*
X17842863Y8746297D01*
X17982162Y8839374D01*
X18100626Y8957838D01*
X18193703Y9097137D01*
X18257816Y9251918D01*
X18290500Y9416233D01*
X18290500Y9583767D01*
X18257816Y9748082D01*
X18193703Y9902863D01*
X18160635Y9952352D01*
X18100626Y10042163D01*
X18090437Y10052352D01*
X18639500Y10052352D01*
X18639500Y8947649D01*
X18671522Y8745466D01*
X18734781Y8550777D01*
X18827715Y8368387D01*
X18948028Y8202787D01*
X19092786Y8058029D01*
X19247749Y7945444D01*
X19258390Y7937713D01*
X19368669Y7881523D01*
X19440776Y7844782D01*
X19440778Y7844782D01*
X19440781Y7844780D01*
X19545137Y7810873D01*
X19635465Y7781523D01*
X19736557Y7765512D01*
X19837648Y7749500D01*
X19837649Y7749500D01*
X20042351Y7749500D01*
X20042352Y7749500D01*
X20244534Y7781523D01*
X20439219Y7844780D01*
X20621610Y7937713D01*
X20714590Y8005268D01*
X20787213Y8058029D01*
X20787215Y8058032D01*
X20787219Y8058034D01*
X20931966Y8202781D01*
X20931968Y8202785D01*
X20931971Y8202787D01*
X20990300Y8283072D01*
X21052287Y8368390D01*
X21145220Y8550781D01*
X21169092Y8624255D01*
X21208529Y8681928D01*
X21272888Y8709127D01*
X21341734Y8697213D01*
X21393210Y8649969D01*
X21404952Y8624259D01*
X21420127Y8577555D01*
X21498768Y8423212D01*
X21600586Y8283072D01*
X21723072Y8160586D01*
X21863212Y8058768D01*
X22017555Y7980127D01*
X22182299Y7926598D01*
X22353389Y7899500D01*
X22353390Y7899500D01*
X22526610Y7899500D01*
X22526611Y7899500D01*
X22697701Y7926598D01*
X22862445Y7980127D01*
X23016788Y8058768D01*
X23156928Y8160586D01*
X23279414Y8283072D01*
X23381232Y8423212D01*
X23459873Y8577555D01*
X23513402Y8742299D01*
X23540500Y8913389D01*
X23540500Y10086611D01*
X30499500Y10086611D01*
X30499500Y8913390D01*
X30525964Y8746297D01*
X30526598Y8742299D01*
X30580127Y8577555D01*
X30658768Y8423212D01*
X30760586Y8283072D01*
X30883072Y8160586D01*
X31023212Y8058768D01*
X31177555Y7980127D01*
X31342299Y7926598D01*
X31513389Y7899500D01*
X31513390Y7899500D01*
X31686610Y7899500D01*
X31686611Y7899500D01*
X31857701Y7926598D01*
X32022445Y7980127D01*
X32176788Y8058768D01*
X32316928Y8160586D01*
X32439414Y8283072D01*
X32541232Y8423212D01*
X32619873Y8577555D01*
X32651292Y8674255D01*
X32690728Y8731928D01*
X32755086Y8759127D01*
X32823933Y8747213D01*
X32875409Y8699969D01*
X32887152Y8674256D01*
X32894780Y8650780D01*
X32987715Y8468387D01*
X33108028Y8302787D01*
X33252786Y8158029D01*
X33389410Y8058768D01*
X33418390Y8037713D01*
X33531405Y7980129D01*
X33600776Y7944782D01*
X33600778Y7944782D01*
X33600781Y7944780D01*
X33705137Y7910873D01*
X33795465Y7881523D01*
X33896557Y7865512D01*
X33997648Y7849500D01*
X33997649Y7849500D01*
X34202351Y7849500D01*
X34202352Y7849500D01*
X34404534Y7881523D01*
X34599219Y7944780D01*
X34781610Y8037713D01*
X34874590Y8105268D01*
X34947213Y8158029D01*
X34947215Y8158032D01*
X34947219Y8158034D01*
X35091966Y8302781D01*
X35091968Y8302785D01*
X35091971Y8302787D01*
X35144732Y8375410D01*
X35212287Y8468390D01*
X35305220Y8650781D01*
X35368477Y8845466D01*
X35400500Y9047648D01*
X35400500Y9583772D01*
X35749500Y9583772D01*
X35749500Y9416229D01*
X35782182Y9251926D01*
X35782184Y9251918D01*
X35846295Y9097140D01*
X35939373Y8957838D01*
X36057837Y8839374D01*
X36150494Y8777463D01*
X36197137Y8746297D01*
X36197138Y8746297D01*
X36197139Y8746296D01*
X36232201Y8731773D01*
X36351918Y8682184D01*
X36509793Y8650781D01*
X36516228Y8649501D01*
X36516232Y8649500D01*
X36516233Y8649500D01*
X36683768Y8649500D01*
X36683769Y8649501D01*
X36848082Y8682184D01*
X37002863Y8746297D01*
X37142162Y8839374D01*
X37260626Y8957838D01*
X37353703Y9097137D01*
X37417816Y9251918D01*
X37450500Y9416233D01*
X37450500Y9583767D01*
X37417816Y9748082D01*
X37353703Y9902863D01*
X37320635Y9952352D01*
X37260626Y10042163D01*
X37250437Y10052352D01*
X37799500Y10052352D01*
X37799500Y8947649D01*
X37831522Y8745466D01*
X37894781Y8550777D01*
X37987715Y8368387D01*
X38108028Y8202787D01*
X38252786Y8058029D01*
X38407749Y7945444D01*
X38418390Y7937713D01*
X38528669Y7881523D01*
X38600776Y7844782D01*
X38600778Y7844782D01*
X38600781Y7844780D01*
X38705137Y7810873D01*
X38795465Y7781523D01*
X38896557Y7765512D01*
X38997648Y7749500D01*
X38997649Y7749500D01*
X39202351Y7749500D01*
X39202352Y7749500D01*
X39404534Y7781523D01*
X39599219Y7844780D01*
X39781610Y7937713D01*
X39874590Y8005268D01*
X39947213Y8058029D01*
X39947215Y8058032D01*
X39947219Y8058034D01*
X40091966Y8202781D01*
X40091968Y8202785D01*
X40091971Y8202787D01*
X40150300Y8283072D01*
X40212287Y8368390D01*
X40305220Y8550781D01*
X40329092Y8624255D01*
X40368529Y8681928D01*
X40432888Y8709127D01*
X40501734Y8697213D01*
X40553210Y8649969D01*
X40564952Y8624259D01*
X40580127Y8577555D01*
X40658768Y8423212D01*
X40760586Y8283072D01*
X40883072Y8160586D01*
X41023212Y8058768D01*
X41177555Y7980127D01*
X41342299Y7926598D01*
X41513389Y7899500D01*
X41513390Y7899500D01*
X41686610Y7899500D01*
X41686611Y7899500D01*
X41857701Y7926598D01*
X42022445Y7980127D01*
X42176788Y8058768D01*
X42316928Y8160586D01*
X42439414Y8283072D01*
X42541232Y8423212D01*
X42619873Y8577555D01*
X42673402Y8742299D01*
X42700500Y8913389D01*
X42700500Y10086611D01*
X42673402Y10257701D01*
X42619873Y10422445D01*
X42541232Y10576788D01*
X42439414Y10716928D01*
X42316928Y10839414D01*
X42176788Y10941232D01*
X42022445Y11019873D01*
X41857701Y11073402D01*
X41857699Y11073403D01*
X41857698Y11073403D01*
X41726271Y11094219D01*
X41686611Y11100500D01*
X41513389Y11100500D01*
X41473728Y11094219D01*
X41342302Y11073403D01*
X41177552Y11019872D01*
X41023211Y10941232D01*
X40988593Y10916080D01*
X40883072Y10839414D01*
X40883070Y10839412D01*
X40883069Y10839412D01*
X40760588Y10716931D01*
X40760588Y10716930D01*
X40760586Y10716928D01*
X40746267Y10697219D01*
X40658768Y10576789D01*
X40580128Y10422450D01*
X40564954Y10375747D01*
X40525516Y10318072D01*
X40461157Y10290874D01*
X40392311Y10302789D01*
X40340835Y10350034D01*
X40329092Y10375747D01*
X40305220Y10449219D01*
X40212287Y10631610D01*
X40204556Y10642251D01*
X40091971Y10797214D01*
X39947213Y10941972D01*
X39781613Y11062285D01*
X39781612Y11062286D01*
X39781610Y11062287D01*
X39724653Y11091309D01*
X39599223Y11155219D01*
X39404534Y11218478D01*
X39229995Y11246122D01*
X39202352Y11250500D01*
X38997648Y11250500D01*
X38973329Y11246649D01*
X38795465Y11218478D01*
X38600776Y11155219D01*
X38418386Y11062285D01*
X38252786Y10941972D01*
X38108028Y10797214D01*
X37987715Y10631614D01*
X37894781Y10449224D01*
X37831522Y10254535D01*
X37799500Y10052352D01*
X37250437Y10052352D01*
X37142162Y10160627D01*
X37002860Y10253705D01*
X36848082Y10317816D01*
X36848074Y10317818D01*
X36683771Y10350500D01*
X36683767Y10350500D01*
X36516233Y10350500D01*
X36516228Y10350500D01*
X36351925Y10317818D01*
X36351917Y10317816D01*
X36197139Y10253705D01*
X36057837Y10160627D01*
X35939373Y10042163D01*
X35846295Y9902861D01*
X35782184Y9748083D01*
X35782182Y9748075D01*
X35749500Y9583772D01*
X35400500Y9583772D01*
X35400500Y9952352D01*
X35368477Y10154534D01*
X35366497Y10160627D01*
X35305218Y10349224D01*
X35267907Y10422450D01*
X35212287Y10531610D01*
X35179463Y10576789D01*
X35091971Y10697214D01*
X34947213Y10841972D01*
X34781613Y10962285D01*
X34781612Y10962286D01*
X34781610Y10962287D01*
X34724653Y10991309D01*
X34599223Y11055219D01*
X34404534Y11118478D01*
X34229995Y11146122D01*
X34202352Y11150500D01*
X33997648Y11150500D01*
X33973329Y11146649D01*
X33795465Y11118478D01*
X33600776Y11055219D01*
X33418386Y10962285D01*
X33252786Y10841972D01*
X33108028Y10697214D01*
X32987715Y10531614D01*
X32894781Y10349223D01*
X32887152Y10325744D01*
X32847712Y10268070D01*
X32783352Y10240874D01*
X32714507Y10252791D01*
X32663032Y10300037D01*
X32651293Y10325744D01*
X32619873Y10422445D01*
X32541232Y10576788D01*
X32439414Y10716928D01*
X32316928Y10839414D01*
X32176788Y10941232D01*
X32022445Y11019873D01*
X31857701Y11073402D01*
X31857699Y11073403D01*
X31857698Y11073403D01*
X31726271Y11094219D01*
X31686611Y11100500D01*
X31513389Y11100500D01*
X31473728Y11094219D01*
X31342302Y11073403D01*
X31177552Y11019872D01*
X31023211Y10941232D01*
X30988593Y10916080D01*
X30883072Y10839414D01*
X30883070Y10839412D01*
X30883069Y10839412D01*
X30760588Y10716931D01*
X30760588Y10716930D01*
X30760586Y10716928D01*
X30746267Y10697219D01*
X30658768Y10576789D01*
X30580128Y10422448D01*
X30526597Y10257698D01*
X30499500Y10086611D01*
X23540500Y10086611D01*
X23513402Y10257701D01*
X23459873Y10422445D01*
X23381232Y10576788D01*
X23279414Y10716928D01*
X23156928Y10839414D01*
X23016788Y10941232D01*
X22862445Y11019873D01*
X22697701Y11073402D01*
X22697699Y11073403D01*
X22697698Y11073403D01*
X22566271Y11094219D01*
X22526611Y11100500D01*
X22353389Y11100500D01*
X22313728Y11094219D01*
X22182302Y11073403D01*
X22017552Y11019872D01*
X21863211Y10941232D01*
X21828593Y10916080D01*
X21723072Y10839414D01*
X21723070Y10839412D01*
X21723069Y10839412D01*
X21600588Y10716931D01*
X21600588Y10716930D01*
X21600586Y10716928D01*
X21586267Y10697219D01*
X21498768Y10576789D01*
X21420128Y10422450D01*
X21404954Y10375747D01*
X21365516Y10318072D01*
X21301157Y10290874D01*
X21232311Y10302789D01*
X21180835Y10350034D01*
X21169092Y10375747D01*
X21145220Y10449219D01*
X21052287Y10631610D01*
X21044556Y10642251D01*
X20931971Y10797214D01*
X20787213Y10941972D01*
X20621613Y11062285D01*
X20621612Y11062286D01*
X20621610Y11062287D01*
X20564653Y11091309D01*
X20439223Y11155219D01*
X20244534Y11218478D01*
X20069995Y11246122D01*
X20042352Y11250500D01*
X19837648Y11250500D01*
X19813329Y11246649D01*
X19635465Y11218478D01*
X19440776Y11155219D01*
X19258386Y11062285D01*
X19092786Y10941972D01*
X18948028Y10797214D01*
X18827715Y10631614D01*
X18734781Y10449224D01*
X18671522Y10254535D01*
X18639500Y10052352D01*
X18090437Y10052352D01*
X17982162Y10160627D01*
X17842860Y10253705D01*
X17688082Y10317816D01*
X17688074Y10317818D01*
X17523771Y10350500D01*
X17523767Y10350500D01*
X17356233Y10350500D01*
X17356228Y10350500D01*
X17191925Y10317818D01*
X17191917Y10317816D01*
X17037139Y10253705D01*
X16897837Y10160627D01*
X16779373Y10042163D01*
X16686295Y9902861D01*
X16622184Y9748083D01*
X16622182Y9748075D01*
X16589500Y9583772D01*
X16240500Y9583772D01*
X16240500Y9952352D01*
X16208477Y10154534D01*
X16206497Y10160627D01*
X16145218Y10349224D01*
X16107907Y10422450D01*
X16052287Y10531610D01*
X16019463Y10576789D01*
X15931971Y10697214D01*
X15787213Y10841972D01*
X15621613Y10962285D01*
X15621612Y10962286D01*
X15621610Y10962287D01*
X15564653Y10991309D01*
X15439223Y11055219D01*
X15244534Y11118478D01*
X15069995Y11146122D01*
X15042352Y11150500D01*
X14837648Y11150500D01*
X14813329Y11146649D01*
X14635465Y11118478D01*
X14440776Y11055219D01*
X14258386Y10962285D01*
X14092786Y10841972D01*
X13948028Y10697214D01*
X13827715Y10531614D01*
X13734781Y10349223D01*
X13727152Y10325744D01*
X13687712Y10268070D01*
X13623352Y10240874D01*
X13554507Y10252791D01*
X13503032Y10300037D01*
X13491293Y10325744D01*
X13459873Y10422445D01*
X13381232Y10576788D01*
X13279414Y10716928D01*
X13156928Y10839414D01*
X13016788Y10941232D01*
X12862445Y11019873D01*
X12697701Y11073402D01*
X12697699Y11073403D01*
X12697698Y11073403D01*
X12566271Y11094219D01*
X12526611Y11100500D01*
X12353389Y11100500D01*
X12313728Y11094219D01*
X12182302Y11073403D01*
X12017552Y11019872D01*
X11863211Y10941232D01*
X11828593Y10916080D01*
X11723072Y10839414D01*
X11723070Y10839412D01*
X11723069Y10839412D01*
X11600588Y10716931D01*
X11600588Y10716930D01*
X11600586Y10716928D01*
X11586267Y10697219D01*
X11498768Y10576789D01*
X11420128Y10422448D01*
X11366597Y10257698D01*
X11339500Y10086611D01*
X50500Y10086611D01*
X50500Y17460001D01*
X13484341Y17460001D01*
X13484341Y17460000D01*
X13504936Y17224597D01*
X13504938Y17224587D01*
X13566094Y16996345D01*
X13566096Y16996341D01*
X13566097Y16996337D01*
X13645801Y16825412D01*
X13665965Y16782170D01*
X13665967Y16782166D01*
X13759032Y16649257D01*
X13801504Y16588600D01*
X13801506Y16588598D01*
X13923430Y16466674D01*
X13956915Y16405351D01*
X13951931Y16335659D01*
X13910059Y16279726D01*
X13879083Y16262811D01*
X13747669Y16213797D01*
X13747664Y16213794D01*
X13632455Y16127548D01*
X13632452Y16127545D01*
X13546206Y16012336D01*
X13546202Y16012329D01*
X13495908Y15877483D01*
X13489501Y15817884D01*
X13489500Y15817865D01*
X13489500Y14022130D01*
X13489501Y14022124D01*
X13495908Y13962517D01*
X13546202Y13827672D01*
X13546206Y13827665D01*
X13632452Y13712456D01*
X13632455Y13712453D01*
X13747664Y13626207D01*
X13747671Y13626203D01*
X13882517Y13575909D01*
X13882516Y13575909D01*
X13889444Y13575165D01*
X13942127Y13569500D01*
X15737872Y13569501D01*
X15797483Y13575909D01*
X15932331Y13626204D01*
X16047546Y13712454D01*
X16133796Y13827669D01*
X16183002Y13959599D01*
X16224872Y14015532D01*
X16290337Y14039950D01*
X16358610Y14025099D01*
X16386865Y14003947D01*
X16508917Y13881895D01*
X16702421Y13746400D01*
X16916507Y13646571D01*
X16916516Y13646567D01*
X17130000Y13589366D01*
X17130000Y14486988D01*
X17187007Y14454075D01*
X17314174Y14420000D01*
X17445826Y14420000D01*
X17572993Y14454075D01*
X17630000Y14486988D01*
X17630000Y13589367D01*
X17843483Y13646567D01*
X17843492Y13646571D01*
X18057578Y13746400D01*
X18251082Y13881895D01*
X18418105Y14048918D01*
X18548119Y14234595D01*
X18602696Y14278219D01*
X18672195Y14285412D01*
X18734549Y14253890D01*
X18751269Y14234595D01*
X18881505Y14048599D01*
X19048599Y13881505D01*
X19145384Y13813735D01*
X19242165Y13745968D01*
X19242167Y13745967D01*
X19242170Y13745965D01*
X19456337Y13646097D01*
X19456343Y13646096D01*
X19456344Y13646095D01*
X19511285Y13631374D01*
X19684592Y13584937D01*
X19861034Y13569500D01*
X19919999Y13564341D01*
X19920000Y13564341D01*
X19920001Y13564341D01*
X19978966Y13569500D01*
X20155408Y13584937D01*
X20383663Y13646097D01*
X20597830Y13745965D01*
X20791401Y13881505D01*
X20958495Y14048599D01*
X21094035Y14242170D01*
X21193903Y14456337D01*
X21255063Y14684592D01*
X21275659Y14920000D01*
X21255063Y15155408D01*
X21201566Y15355063D01*
X21193905Y15383656D01*
X21193904Y15383657D01*
X21193903Y15383663D01*
X21094035Y15597829D01*
X21088731Y15605405D01*
X20958494Y15791403D01*
X20791402Y15958494D01*
X20791396Y15958499D01*
X20605842Y16088425D01*
X20562217Y16143002D01*
X20555023Y16212500D01*
X20586546Y16274855D01*
X20605842Y16291575D01*
X20628026Y16307109D01*
X20791401Y16421505D01*
X20958495Y16588599D01*
X21094035Y16782170D01*
X21193903Y16996337D01*
X21255063Y17224592D01*
X21275659Y17460000D01*
X21255063Y17695408D01*
X21193903Y17923663D01*
X21094035Y18137829D01*
X21090753Y18142517D01*
X20958494Y18331403D01*
X20791402Y18498494D01*
X20791395Y18498499D01*
X20789251Y18500000D01*
X20703726Y18559886D01*
X20597834Y18634033D01*
X20597830Y18634035D01*
X20597828Y18634036D01*
X20383663Y18733903D01*
X20383659Y18733904D01*
X20383655Y18733906D01*
X20155413Y18795062D01*
X20155403Y18795064D01*
X19920001Y18815659D01*
X19919999Y18815659D01*
X19684596Y18795064D01*
X19684586Y18795062D01*
X19456344Y18733906D01*
X19456335Y18733902D01*
X19242171Y18634036D01*
X19242169Y18634035D01*
X19048597Y18498495D01*
X18881508Y18331406D01*
X18751269Y18145405D01*
X18696692Y18101781D01*
X18627193Y18094588D01*
X18564839Y18126110D01*
X18548119Y18145406D01*
X18418113Y18331074D01*
X18418108Y18331080D01*
X18251082Y18498106D01*
X18057578Y18633601D01*
X17843492Y18733430D01*
X17843486Y18733433D01*
X17630000Y18790636D01*
X17630000Y17893012D01*
X17572993Y17925925D01*
X17445826Y17960000D01*
X17314174Y17960000D01*
X17187007Y17925925D01*
X17130000Y17893012D01*
X17130000Y18790636D01*
X17129999Y18790636D01*
X16916513Y18733433D01*
X16916507Y18733430D01*
X16702422Y18633601D01*
X16702420Y18633600D01*
X16508926Y18498114D01*
X16508920Y18498109D01*
X16341891Y18331080D01*
X16341890Y18331078D01*
X16211880Y18145405D01*
X16157303Y18101781D01*
X16087804Y18094588D01*
X16025450Y18126110D01*
X16008730Y18145406D01*
X15878494Y18331403D01*
X15711402Y18498494D01*
X15711395Y18498499D01*
X15709251Y18500000D01*
X15623726Y18559886D01*
X15517834Y18634033D01*
X15517830Y18634035D01*
X15517828Y18634036D01*
X15303663Y18733903D01*
X15303659Y18733904D01*
X15303655Y18733906D01*
X15075413Y18795062D01*
X15075403Y18795064D01*
X14840001Y18815659D01*
X14839999Y18815659D01*
X14604596Y18795064D01*
X14604586Y18795062D01*
X14376344Y18733906D01*
X14376335Y18733902D01*
X14162171Y18634036D01*
X14162169Y18634035D01*
X13968597Y18498495D01*
X13801505Y18331403D01*
X13665965Y18137831D01*
X13665964Y18137829D01*
X13589531Y17973917D01*
X13567171Y17925965D01*
X13566098Y17923665D01*
X13566094Y17923656D01*
X13504938Y17695414D01*
X13504936Y17695404D01*
X13484341Y17460001D01*
X50500Y17460001D01*
X50500Y18494589D01*
X50972Y18505396D01*
X51820Y18515087D01*
X63979Y18654072D01*
X67732Y18675355D01*
X104956Y18814279D01*
X112342Y18834572D01*
X173127Y18964926D01*
X183927Y18983631D01*
X266423Y19101448D01*
X280306Y19117993D01*
X382007Y19219694D01*
X398552Y19233577D01*
X516369Y19316073D01*
X535074Y19326873D01*
X665428Y19387658D01*
X685721Y19395044D01*
X824645Y19432269D01*
X845928Y19436021D01*
X994605Y19449028D01*
X1005412Y19449500D01*
X4091905Y19449500D01*
X4091907Y19449500D01*
X4272928Y19481419D01*
X4445656Y19544287D01*
X4604844Y19636194D01*
X4745653Y19754347D01*
X4863806Y19895156D01*
X4955713Y20054344D01*
X5018581Y20227072D01*
X5050500Y20408093D01*
X5050500Y20500000D01*
X5050500Y20516408D01*
X5050500Y35520918D01*
X5050500Y35591907D01*
X5018581Y35772928D01*
X4955713Y35945656D01*
X4863806Y36104844D01*
X4863804Y36104846D01*
X4863804Y36104847D01*
X4823521Y36152853D01*
X4745653Y36245653D01*
X4654320Y36322291D01*
X4604846Y36363805D01*
X4604842Y36363807D01*
X4445660Y36455711D01*
X4445657Y36455712D01*
X4445656Y36455713D01*
X4375030Y36481419D01*
X4272927Y36518582D01*
X4091909Y36550500D01*
X4091907Y36550500D01*
X4020918Y36550500D01*
X1005412Y36550500D01*
X994605Y36550972D01*
X977265Y36552489D01*
X845930Y36563980D01*
X824645Y36567733D01*
X685729Y36604955D01*
X665417Y36612348D01*
X535081Y36673125D01*
X516363Y36683932D01*
X398559Y36766419D01*
X382001Y36780313D01*
X280312Y36882002D01*
X266418Y36898560D01*
X263299Y36903014D01*
X183930Y37016365D01*
X173124Y37035082D01*
X143252Y37099143D01*
X112344Y37165425D01*
X104954Y37185730D01*
X101937Y37196989D01*
X67732Y37324646D01*
X63979Y37345932D01*
X50972Y37494605D01*
X50500Y37505412D01*
X50500Y52674125D01*
X399500Y52674125D01*
X399500Y52325876D01*
X438489Y51979842D01*
X438491Y51979830D01*
X515982Y51640316D01*
X515985Y51640308D01*
X630999Y51311618D01*
X782092Y50997870D01*
X967371Y50703001D01*
X967372Y50702999D01*
X1184487Y50430744D01*
X1430743Y50184488D01*
X1702998Y49967373D01*
X1703001Y49967372D01*
X1703003Y49967370D01*
X1997867Y49782094D01*
X2311621Y49630998D01*
X2558488Y49544616D01*
X2640307Y49515986D01*
X2640315Y49515983D01*
X2640318Y49515983D01*
X2640319Y49515982D01*
X2979829Y49438491D01*
X3325876Y49399501D01*
X3325877Y49399500D01*
X3325880Y49399500D01*
X3674123Y49399500D01*
X3674123Y49399501D01*
X4020171Y49438491D01*
X4359681Y49515982D01*
X4688379Y49630998D01*
X5002133Y49782094D01*
X5296997Y49967370D01*
X5297001Y49967373D01*
X5569256Y50184488D01*
X5569258Y50184491D01*
X5569263Y50184494D01*
X5815506Y50430737D01*
X5928554Y50572496D01*
X5985741Y50612635D01*
X6055552Y50615485D01*
X6115822Y50580140D01*
X6147416Y50517821D01*
X6149500Y50495182D01*
X6149500Y50250433D01*
X6129815Y50183394D01*
X6128602Y50181542D01*
X6063368Y50083914D01*
X5987949Y49901837D01*
X5987947Y49901829D01*
X5949500Y49708545D01*
X5949500Y49511456D01*
X5987947Y49318172D01*
X5987949Y49318164D01*
X6063367Y49136090D01*
X6063372Y49136080D01*
X6172860Y48972220D01*
X6172863Y48972216D01*
X6848475Y48296605D01*
X6856646Y48287590D01*
X6884118Y48254116D01*
X6917587Y48226649D01*
X6926604Y48218476D01*
X8569735Y46575345D01*
X8569764Y46575314D01*
X8716540Y46428538D01*
X8716560Y46428520D01*
X8732216Y46412863D01*
X8732219Y46412861D01*
X8896079Y46303373D01*
X8896083Y46303371D01*
X8896086Y46303369D01*
X9078164Y46227949D01*
X9269876Y46189815D01*
X9271455Y46189501D01*
X9271458Y46189500D01*
X9271460Y46189500D01*
X9468541Y46189500D01*
X9468541Y46189501D01*
X9557107Y46207118D01*
X9581298Y46209500D01*
X16004218Y46209500D01*
X16071257Y46189815D01*
X16091899Y46173181D01*
X25323181Y36941899D01*
X25356666Y36880576D01*
X25359500Y36854218D01*
X25359500Y34641459D01*
X25359500Y34641457D01*
X25359499Y34641457D01*
X25397947Y34448171D01*
X25397950Y34448161D01*
X25473364Y34266093D01*
X25473371Y34266080D01*
X25582859Y34102220D01*
X25582860Y34102219D01*
X25582861Y34102218D01*
X25722218Y33962861D01*
X25722219Y33962861D01*
X25729286Y33955794D01*
X25729285Y33955794D01*
X25729289Y33955791D01*
X27583479Y32101600D01*
X27591652Y32092583D01*
X27619116Y32059117D01*
X27652581Y32031654D01*
X27661598Y32023481D01*
X27692221Y31992858D01*
X27728212Y31968811D01*
X27737987Y31961562D01*
X27771462Y31934090D01*
X27771464Y31934089D01*
X27809640Y31913684D01*
X27820078Y31907428D01*
X27856086Y31883368D01*
X27896095Y31866797D01*
X27907094Y31861594D01*
X27945273Y31841186D01*
X27986708Y31828616D01*
X27998163Y31824517D01*
X28031880Y31810552D01*
X28038165Y31807948D01*
X28080643Y31799500D01*
X28092421Y31796550D01*
X28133868Y31783976D01*
X28176965Y31779732D01*
X28188981Y31777950D01*
X28199389Y31775879D01*
X28231457Y31769501D01*
X28231458Y31769500D01*
X28231459Y31769500D01*
X28231460Y31769500D01*
X28274756Y31769500D01*
X28286909Y31768904D01*
X28330000Y31764659D01*
X28373090Y31768904D01*
X28385244Y31769500D01*
X28428540Y31769500D01*
X41718060Y31769500D01*
X41785099Y31749815D01*
X41830854Y31697011D01*
X41840798Y31627853D01*
X41811773Y31564297D01*
X41805741Y31557819D01*
X41710184Y31462263D01*
X41614210Y31309522D01*
X41554630Y31139250D01*
X41549326Y31092175D01*
X41522258Y31027761D01*
X41513788Y31018379D01*
X41371269Y30875860D01*
X41371267Y30875858D01*
X41327704Y30832296D01*
X41284142Y30788734D01*
X41257652Y30749088D01*
X41257651Y30749087D01*
X41215690Y30686292D01*
X41215686Y30686284D01*
X41190666Y30625877D01*
X41190666Y30625876D01*
X41168538Y30572455D01*
X41168535Y30572445D01*
X41144500Y30451611D01*
X41144500Y29459782D01*
X41124815Y29392743D01*
X41072011Y29346988D01*
X41002853Y29337044D01*
X40939297Y29366069D01*
X40932819Y29372101D01*
X40841479Y29463441D01*
X40841459Y29463463D01*
X40697785Y29607137D01*
X40697781Y29607140D01*
X40533920Y29716629D01*
X40533907Y29716636D01*
X40399154Y29772451D01*
X40351836Y29792051D01*
X40351828Y29792053D01*
X40231316Y29816024D01*
X40207057Y29820850D01*
X40158543Y29830500D01*
X40158541Y29830500D01*
X38525244Y29830500D01*
X38513090Y29831097D01*
X38470000Y29835341D01*
X38426910Y29831097D01*
X38414756Y29830500D01*
X32275244Y29830500D01*
X32263090Y29831097D01*
X32220000Y29835341D01*
X32176910Y29831097D01*
X32164756Y29830500D01*
X22495783Y29830500D01*
X22428744Y29850185D01*
X22408102Y29866819D01*
X20896819Y31378102D01*
X20863334Y31439425D01*
X20860500Y31465783D01*
X20860500Y36738149D01*
X20862882Y36762339D01*
X20870500Y36800639D01*
X20873458Y36812447D01*
X20886024Y36853868D01*
X20890267Y36896953D01*
X20892051Y36908984D01*
X20900501Y36951460D01*
X20900501Y36994766D01*
X20901098Y37006920D01*
X20902903Y37025250D01*
X20905341Y37050000D01*
X20901098Y37093083D01*
X20900501Y37105236D01*
X20900501Y37148542D01*
X20895188Y37175252D01*
X20892051Y37191020D01*
X20890267Y37203049D01*
X20886024Y37246132D01*
X20873454Y37287566D01*
X20870499Y37299365D01*
X20870007Y37301840D01*
X20862052Y37341836D01*
X20845479Y37381845D01*
X20841381Y37393301D01*
X20828814Y37434726D01*
X20828813Y37434730D01*
X20808405Y37472908D01*
X20803207Y37483897D01*
X20786632Y37523915D01*
X20786630Y37523918D01*
X20786629Y37523921D01*
X20762573Y37559922D01*
X20756315Y37570362D01*
X20735911Y37608536D01*
X20735910Y37608538D01*
X20708443Y37642006D01*
X20701199Y37651775D01*
X20677141Y37687781D01*
X20677137Y37687786D01*
X20646516Y37718406D01*
X20638342Y37727424D01*
X20610884Y37760882D01*
X20610875Y37760889D01*
X20577421Y37788345D01*
X20568405Y37796517D01*
X20537788Y37827135D01*
X20537783Y37827139D01*
X20537777Y37827143D01*
X20526386Y37834755D01*
X20501765Y37851207D01*
X20491996Y37858452D01*
X20458537Y37885911D01*
X20458534Y37885912D01*
X20420362Y37906316D01*
X20409926Y37912571D01*
X20373919Y37936630D01*
X20373909Y37936635D01*
X20333900Y37953208D01*
X20322903Y37958409D01*
X20284726Y37978815D01*
X20284723Y37978816D01*
X20243299Y37991382D01*
X20231855Y37995476D01*
X20191836Y38012052D01*
X20191834Y38012053D01*
X20149368Y38020500D01*
X20137566Y38023456D01*
X20096134Y38036024D01*
X20096130Y38036025D01*
X20053045Y38040269D01*
X20041016Y38042054D01*
X19998544Y38050501D01*
X19998541Y38050501D01*
X19955234Y38050501D01*
X19943080Y38051098D01*
X19900000Y38055341D01*
X19856920Y38051098D01*
X19844766Y38050501D01*
X19801456Y38050501D01*
X19758984Y38042054D01*
X19746955Y38040269D01*
X19703870Y38036025D01*
X19703863Y38036023D01*
X19662437Y38023457D01*
X19650636Y38020501D01*
X19608171Y38012054D01*
X19608170Y38012054D01*
X19568152Y37995479D01*
X19556701Y37991382D01*
X19515272Y37978814D01*
X19477090Y37958406D01*
X19466097Y37953207D01*
X19426084Y37936632D01*
X19426083Y37936631D01*
X19390070Y37912570D01*
X19379640Y37906318D01*
X19341464Y37885912D01*
X19341463Y37885911D01*
X19307999Y37858448D01*
X19298228Y37851202D01*
X19262225Y37827145D01*
X19262222Y37827143D01*
X19231600Y37796522D01*
X19222589Y37788356D01*
X19189121Y37760889D01*
X19161655Y37727422D01*
X19153487Y37718411D01*
X19082862Y37647785D01*
X19082858Y37647779D01*
X18973371Y37483921D01*
X18973364Y37483908D01*
X18897950Y37301840D01*
X18897947Y37301830D01*
X18859500Y37108544D01*
X18859500Y32508513D01*
X18857116Y32484321D01*
X18850000Y32448541D01*
X18850000Y32251459D01*
X18854126Y32230714D01*
X18857117Y32215681D01*
X18859500Y32191488D01*
X18859500Y30901459D01*
X18864592Y30875860D01*
X18864664Y30875501D01*
X18864664Y30875498D01*
X18897947Y30708171D01*
X18897948Y30708167D01*
X18897949Y30708164D01*
X18916361Y30663715D01*
X18973364Y30526094D01*
X18973366Y30526089D01*
X18973368Y30526086D01*
X19082861Y30362218D01*
X19222218Y30222861D01*
X19222220Y30222860D01*
X19229286Y30215794D01*
X19229285Y30215794D01*
X19229289Y30215791D01*
X20577398Y28867681D01*
X20610883Y28806358D01*
X20605899Y28736666D01*
X20564027Y28680733D01*
X20498563Y28656316D01*
X20489717Y28656000D01*
X18264058Y28656000D01*
X18197019Y28675685D01*
X18176377Y28692319D01*
X18093804Y28774892D01*
X18093784Y28774914D01*
X18002341Y28866357D01*
X17945381Y28904416D01*
X17933693Y28912226D01*
X17933694Y28912226D01*
X17933692Y28912228D01*
X17899896Y28934810D01*
X17899892Y28934812D01*
X17893562Y28937434D01*
X17819398Y28968153D01*
X17786058Y28981963D01*
X17786054Y28981964D01*
X17786050Y28981965D01*
X17695723Y28999933D01*
X17695714Y28999933D01*
X17665213Y29006000D01*
X17665212Y29006000D01*
X16752107Y29006000D01*
X16628893Y29006000D01*
X16613642Y29002967D01*
X16598391Y28999933D01*
X16598390Y28999934D01*
X16508054Y28981965D01*
X16508045Y28981963D01*
X16488043Y28973677D01*
X16474707Y28968153D01*
X16394218Y28934815D01*
X16394213Y28934812D01*
X16378830Y28924533D01*
X16323823Y28904416D01*
X16240397Y28895017D01*
X16240392Y28895016D01*
X16070123Y28835436D01*
X15917384Y28739463D01*
X15789831Y28611910D01*
X15693859Y28459172D01*
X15693857Y28459169D01*
X15679643Y28418545D01*
X15638922Y28361769D01*
X15573969Y28336022D01*
X15562602Y28335500D01*
X14476848Y28335500D01*
X14409809Y28355185D01*
X14389167Y28371819D01*
X13016581Y29744405D01*
X12983096Y29805728D01*
X12988080Y29875420D01*
X12999271Y29898063D01*
X13000789Y29900477D01*
X13060368Y30070744D01*
X13067147Y30130910D01*
X13080565Y30249996D01*
X13080565Y30250003D01*
X13060369Y30429249D01*
X13060368Y30429254D01*
X13000788Y30599523D01*
X12932523Y30708165D01*
X12904816Y30752261D01*
X12839773Y30817304D01*
X12806288Y30878627D01*
X12811272Y30948319D01*
X12839770Y30992664D01*
X12902088Y31054982D01*
X12963407Y31088464D01*
X12975865Y31090516D01*
X13022962Y31095822D01*
X13193229Y31155401D01*
X13345969Y31251374D01*
X13473523Y31378928D01*
X13569496Y31531668D01*
X13629075Y31701935D01*
X13634470Y31749815D01*
X13649272Y31881187D01*
X13649272Y31881194D01*
X13629076Y32060440D01*
X13629075Y32060445D01*
X13578948Y32203700D01*
X13569496Y32230712D01*
X13556460Y32251458D01*
X13473522Y32383453D01*
X13345969Y32511006D01*
X13193230Y32606979D01*
X13022961Y32666559D01*
X13022956Y32666560D01*
X12843711Y32686755D01*
X12843703Y32686755D01*
X12664457Y32666560D01*
X12664452Y32666559D01*
X12494183Y32606979D01*
X12341444Y32511006D01*
X12213891Y32383453D01*
X12117917Y32230712D01*
X12058337Y32060440D01*
X12053033Y32013365D01*
X12025965Y31948952D01*
X12017494Y31939570D01*
X11387450Y31309524D01*
X11251269Y31173343D01*
X11251267Y31173341D01*
X11217181Y31139255D01*
X11164140Y31086215D01*
X11143663Y31055567D01*
X11143661Y31055564D01*
X11101633Y30992666D01*
X11095684Y30983763D01*
X11065045Y30909790D01*
X11048538Y30869940D01*
X11048535Y30869930D01*
X11036518Y30809517D01*
X11036518Y30809512D01*
X11030798Y30780748D01*
X11030797Y30780744D01*
X11024500Y30749090D01*
X11024500Y29528389D01*
X11048535Y29407556D01*
X11048540Y29407539D01*
X11095685Y29293720D01*
X11095690Y29293711D01*
X11129914Y29242493D01*
X11129915Y29242491D01*
X11164140Y29191269D01*
X11164141Y29191268D01*
X11164142Y29191267D01*
X11251267Y29104142D01*
X11251268Y29104142D01*
X11258335Y29097075D01*
X11258334Y29097075D01*
X11258338Y29097072D01*
X13581263Y26774145D01*
X13581267Y26774142D01*
X13683710Y26705691D01*
X13683711Y26705691D01*
X13683715Y26705688D01*
X13750396Y26678069D01*
X13750398Y26678067D01*
X13797543Y26658539D01*
X13797548Y26658537D01*
X13817597Y26654549D01*
X13851196Y26647866D01*
X13918392Y26634499D01*
X13918394Y26634499D01*
X14047721Y26634499D01*
X14047741Y26634500D01*
X15439268Y26634500D01*
X15506307Y26614815D01*
X15526949Y26598181D01*
X15840236Y26284894D01*
X15840265Y26284863D01*
X15930484Y26194644D01*
X15930487Y26194642D01*
X15983178Y26159435D01*
X16032935Y26126188D01*
X16094496Y26100689D01*
X16146768Y26079037D01*
X16195947Y26069255D01*
X16267611Y26055001D01*
X16267612Y26055000D01*
X16267613Y26055000D01*
X16267614Y26055000D01*
X20927067Y26055000D01*
X20951258Y26052617D01*
X21067474Y26029501D01*
X21067478Y26029500D01*
X21067479Y26029500D01*
X21067480Y26029500D01*
X32470500Y26029500D01*
X32537539Y26009815D01*
X32583294Y25957011D01*
X32594500Y25905500D01*
X32594500Y23378389D01*
X32618535Y23257556D01*
X32618540Y23257539D01*
X32665685Y23143720D01*
X32665690Y23143711D01*
X32699914Y23092493D01*
X32699915Y23092491D01*
X32734141Y23041267D01*
X32803787Y22971621D01*
X32837272Y22910298D01*
X32839326Y22897825D01*
X32844630Y22850751D01*
X32904210Y22680479D01*
X33000184Y22527738D01*
X33127738Y22400184D01*
X33280478Y22304211D01*
X33450745Y22244632D01*
X33450750Y22244631D01*
X33629996Y22224435D01*
X33630000Y22224435D01*
X33630004Y22224435D01*
X33809249Y22244631D01*
X33809252Y22244632D01*
X33809255Y22244632D01*
X33979522Y22304211D01*
X34132262Y22400184D01*
X34259816Y22527738D01*
X34355789Y22680478D01*
X34415368Y22850745D01*
X34427018Y22954142D01*
X34435565Y23029997D01*
X34435565Y23030004D01*
X34415369Y23209250D01*
X34415368Y23209255D01*
X34355788Y23379524D01*
X34259815Y23532263D01*
X34132262Y23659816D01*
X33979524Y23755788D01*
X33979520Y23755790D01*
X33928545Y23773627D01*
X33871769Y23814349D01*
X33846022Y23879302D01*
X33845500Y23890668D01*
X33845500Y24977734D01*
X33865185Y25044773D01*
X33917989Y25090528D01*
X33983383Y25100954D01*
X34129996Y25084435D01*
X34130000Y25084435D01*
X34130004Y25084435D01*
X34309249Y25104631D01*
X34309252Y25104632D01*
X34309255Y25104632D01*
X34479522Y25164211D01*
X34632262Y25260184D01*
X34759816Y25387738D01*
X34855789Y25540478D01*
X34915368Y25710745D01*
X34935565Y25890000D01*
X34933168Y25911271D01*
X34915369Y26069250D01*
X34915368Y26069255D01*
X34895446Y26126189D01*
X34855789Y26239522D01*
X34774505Y26368884D01*
X34755500Y26434855D01*
X34755500Y26805500D01*
X34775185Y26872539D01*
X34827989Y26918294D01*
X34879500Y26929500D01*
X37304548Y26929500D01*
X37371587Y26909815D01*
X37392229Y26893181D01*
X38371016Y25914394D01*
X38371045Y25914363D01*
X38461264Y25824144D01*
X38461267Y25824142D01*
X38538190Y25772744D01*
X38563710Y25755691D01*
X38563712Y25755690D01*
X38563715Y25755688D01*
X38627504Y25729266D01*
X38677548Y25708537D01*
X38737971Y25696519D01*
X38798393Y25684500D01*
X38798394Y25684500D01*
X39195145Y25684500D01*
X39261116Y25665495D01*
X39390478Y25584211D01*
X39515460Y25540478D01*
X39560745Y25524632D01*
X39560750Y25524631D01*
X39739996Y25504435D01*
X39740000Y25504435D01*
X39740003Y25504435D01*
X39811616Y25512504D01*
X39880438Y25500450D01*
X39931818Y25453101D01*
X39949500Y25389284D01*
X39949500Y14341456D01*
X39987947Y14148167D01*
X39987949Y14148163D01*
X40010038Y14094836D01*
X40063366Y13966089D01*
X40063371Y13966080D01*
X40172859Y13802220D01*
X40172860Y13802219D01*
X40172861Y13802218D01*
X40312218Y13662861D01*
X40312219Y13662861D01*
X40319286Y13655794D01*
X40319285Y13655794D01*
X40319288Y13655792D01*
X43222860Y10752219D01*
X43222861Y10752218D01*
X43343465Y10631614D01*
X43362219Y10612860D01*
X43416205Y10576788D01*
X43526086Y10503368D01*
X43632745Y10459189D01*
X43708164Y10427949D01*
X43901454Y10389501D01*
X43901457Y10389500D01*
X43901459Y10389500D01*
X44098543Y10389500D01*
X44228582Y10415368D01*
X44291835Y10427949D01*
X44473914Y10503368D01*
X44637782Y10612861D01*
X44777139Y10752218D01*
X44886632Y10916086D01*
X44962051Y11098165D01*
X45000500Y11291459D01*
X45000500Y11528541D01*
X45000500Y11528544D01*
X44962052Y11721830D01*
X44962051Y11721831D01*
X44962051Y11721835D01*
X44962049Y11721840D01*
X44886635Y11903908D01*
X44886628Y11903921D01*
X44777139Y12067782D01*
X44777136Y12067786D01*
X44637785Y12207137D01*
X44637781Y12207140D01*
X44527387Y12280903D01*
X44508597Y12296324D01*
X43958953Y12845968D01*
X43227339Y13577581D01*
X43193855Y13638903D01*
X43198839Y13708595D01*
X43240711Y13764528D01*
X43274072Y13782305D01*
X43279522Y13784211D01*
X43432262Y13880184D01*
X43559816Y14007738D01*
X43567521Y14020001D01*
X57794341Y14020001D01*
X57794341Y14020000D01*
X57814936Y13784597D01*
X57814938Y13784587D01*
X57876094Y13556345D01*
X57876096Y13556341D01*
X57876097Y13556337D01*
X57880000Y13547968D01*
X57975965Y13342170D01*
X57975967Y13342166D01*
X58084281Y13187479D01*
X58111505Y13148599D01*
X58278599Y12981505D01*
X58375384Y12913735D01*
X58472165Y12845968D01*
X58472167Y12845967D01*
X58472170Y12845965D01*
X58686337Y12746097D01*
X58914592Y12684937D01*
X59102918Y12668461D01*
X59149999Y12664341D01*
X59150000Y12664341D01*
X59150001Y12664341D01*
X59189234Y12667774D01*
X59385408Y12684937D01*
X59613663Y12746097D01*
X59827830Y12845965D01*
X60021401Y12981505D01*
X60188495Y13148599D01*
X60318425Y13334158D01*
X60373002Y13377783D01*
X60442500Y13384977D01*
X60504855Y13353454D01*
X60521575Y13334158D01*
X60651500Y13148605D01*
X60651505Y13148599D01*
X60818599Y12981505D01*
X60915384Y12913735D01*
X61012165Y12845968D01*
X61012167Y12845967D01*
X61012170Y12845965D01*
X61226337Y12746097D01*
X61454592Y12684937D01*
X61642918Y12668461D01*
X61689999Y12664341D01*
X61690000Y12664341D01*
X61690001Y12664341D01*
X61729234Y12667774D01*
X61925408Y12684937D01*
X62153663Y12746097D01*
X62367830Y12845965D01*
X62561401Y12981505D01*
X62728495Y13148599D01*
X62864035Y13342170D01*
X62963903Y13556337D01*
X63025063Y13784592D01*
X63045659Y14020000D01*
X63025063Y14255408D01*
X62963903Y14483663D01*
X62864035Y14697829D01*
X62858425Y14705842D01*
X62728494Y14891403D01*
X62561402Y15058494D01*
X62561401Y15058495D01*
X62375405Y15188731D01*
X62331781Y15243308D01*
X62324588Y15312807D01*
X62356110Y15375161D01*
X62375405Y15391881D01*
X62561082Y15521895D01*
X62728105Y15688918D01*
X62863600Y15882422D01*
X62963429Y16096508D01*
X62963432Y16096514D01*
X63020636Y16310000D01*
X62123012Y16310000D01*
X62155925Y16367007D01*
X62190000Y16494174D01*
X62190000Y16625826D01*
X62155925Y16752993D01*
X62123012Y16810000D01*
X63020636Y16810000D01*
X63020635Y16810001D01*
X62963432Y17023487D01*
X62963429Y17023493D01*
X62863600Y17237578D01*
X62863599Y17237580D01*
X62728113Y17431074D01*
X62728108Y17431080D01*
X62561078Y17598110D01*
X62375405Y17728121D01*
X62331780Y17782698D01*
X62324588Y17852196D01*
X62356110Y17914551D01*
X62375406Y17931270D01*
X62385063Y17938032D01*
X62561401Y18061505D01*
X62728495Y18228599D01*
X62864035Y18422170D01*
X62963903Y18636337D01*
X63025063Y18864592D01*
X63045659Y19100000D01*
X63044755Y19110327D01*
X63026755Y19316069D01*
X63025063Y19335408D01*
X62963903Y19563663D01*
X62864035Y19777829D01*
X62844110Y19806286D01*
X62728494Y19971403D01*
X62561402Y20138494D01*
X62561395Y20138499D01*
X62367834Y20274033D01*
X62367830Y20274035D01*
X62367828Y20274036D01*
X62153663Y20373903D01*
X62153659Y20373904D01*
X62153655Y20373906D01*
X61925413Y20435062D01*
X61925403Y20435064D01*
X61690001Y20455659D01*
X61689999Y20455659D01*
X61454596Y20435064D01*
X61454586Y20435062D01*
X61226344Y20373906D01*
X61226335Y20373902D01*
X61012171Y20274036D01*
X61012169Y20274035D01*
X60818600Y20138497D01*
X60696673Y20016570D01*
X60635350Y19983086D01*
X60565658Y19988070D01*
X60509725Y20029942D01*
X60492810Y20060919D01*
X60443797Y20192329D01*
X60443793Y20192336D01*
X60357547Y20307545D01*
X60357544Y20307548D01*
X60242335Y20393794D01*
X60242328Y20393798D01*
X60107482Y20444092D01*
X60107483Y20444092D01*
X60047883Y20450499D01*
X60047881Y20450500D01*
X60047873Y20450500D01*
X60047864Y20450500D01*
X58252129Y20450500D01*
X58252123Y20450499D01*
X58192516Y20444092D01*
X58057671Y20393798D01*
X58057664Y20393794D01*
X57942455Y20307548D01*
X57942452Y20307545D01*
X57856206Y20192336D01*
X57856202Y20192329D01*
X57805908Y20057483D01*
X57799501Y19997884D01*
X57799500Y19997865D01*
X57799500Y18202130D01*
X57799501Y18202124D01*
X57805908Y18142517D01*
X57856202Y18007672D01*
X57856206Y18007665D01*
X57942452Y17892456D01*
X57942455Y17892453D01*
X58057664Y17806207D01*
X58057671Y17806203D01*
X58057674Y17806202D01*
X58189598Y17756998D01*
X58245531Y17715127D01*
X58269949Y17649663D01*
X58255098Y17581390D01*
X58233947Y17553135D01*
X58111886Y17431074D01*
X57976400Y17237580D01*
X57976399Y17237578D01*
X57876570Y17023493D01*
X57876567Y17023487D01*
X57819364Y16810001D01*
X57819364Y16810000D01*
X58716988Y16810000D01*
X58684075Y16752993D01*
X58650000Y16625826D01*
X58650000Y16494174D01*
X58684075Y16367007D01*
X58716988Y16310000D01*
X57819364Y16310000D01*
X57876567Y16096514D01*
X57876570Y16096508D01*
X57976399Y15882422D01*
X58111894Y15688918D01*
X58278917Y15521895D01*
X58464595Y15391881D01*
X58508219Y15337304D01*
X58515412Y15267805D01*
X58483890Y15205451D01*
X58464595Y15188731D01*
X58278594Y15058492D01*
X58111505Y14891403D01*
X57975965Y14697831D01*
X57975964Y14697829D01*
X57876098Y14483665D01*
X57876094Y14483656D01*
X57814938Y14255414D01*
X57814936Y14255404D01*
X57794341Y14020001D01*
X43567521Y14020001D01*
X43655789Y14160478D01*
X43715368Y14330745D01*
X43716576Y14341460D01*
X43735565Y14509998D01*
X43735565Y14510000D01*
X43732349Y14538540D01*
X43725962Y14595217D01*
X43725846Y14612298D01*
X43725500Y14612298D01*
X43725500Y14655908D01*
X43745185Y14722947D01*
X43797989Y14768702D01*
X43867147Y14778646D01*
X43923812Y14755174D01*
X43957910Y14729648D01*
X43957913Y14729646D01*
X44092620Y14679404D01*
X44092627Y14679402D01*
X44152155Y14673001D01*
X44152172Y14673000D01*
X44400916Y14673000D01*
X44414800Y14672220D01*
X44449998Y14668254D01*
X44450002Y14668254D01*
X44485200Y14672220D01*
X44499084Y14673000D01*
X45267583Y14673000D01*
X45281467Y14672220D01*
X45316665Y14668254D01*
X45316669Y14668254D01*
X45351867Y14672220D01*
X45365751Y14673000D01*
X45500000Y14673000D01*
X45500000Y14886114D01*
X45499999Y14886115D01*
X46000000Y14886115D01*
X46000000Y14673000D01*
X46134249Y14673000D01*
X46148133Y14672220D01*
X46183331Y14668254D01*
X46183335Y14668254D01*
X46218533Y14672220D01*
X46232417Y14673000D01*
X47000916Y14673000D01*
X47014800Y14672220D01*
X47049998Y14668254D01*
X47050002Y14668254D01*
X47085200Y14672220D01*
X47099084Y14673000D01*
X47347828Y14673000D01*
X47347844Y14673001D01*
X47407372Y14679402D01*
X47407379Y14679404D01*
X47542086Y14729646D01*
X47542093Y14729650D01*
X47657187Y14815810D01*
X47657190Y14815813D01*
X47743350Y14930907D01*
X47743354Y14930914D01*
X47793596Y15065621D01*
X47793598Y15065628D01*
X47799999Y15125156D01*
X47800000Y15125173D01*
X47800000Y15373917D01*
X47800780Y15387802D01*
X47804746Y15422999D01*
X47804746Y15423002D01*
X47800780Y15458200D01*
X47800000Y15472084D01*
X47800000Y16240584D01*
X47800780Y16254469D01*
X47804746Y16289666D01*
X47804746Y16289669D01*
X47800780Y16324867D01*
X47800000Y16338751D01*
X47800000Y16473000D01*
X47586885Y16473000D01*
X47403553Y16289667D01*
X47701818Y15991402D01*
X47735303Y15930079D01*
X47738137Y15903721D01*
X47738137Y15808946D01*
X47718452Y15741907D01*
X47701818Y15721265D01*
X46751735Y14771182D01*
X46690412Y14737697D01*
X46664054Y14734863D01*
X46569279Y14734863D01*
X46502240Y14754548D01*
X46481598Y14771182D01*
X46183333Y15069447D01*
X46000000Y14886115D01*
X45499999Y14886115D01*
X45316667Y15069447D01*
X45018402Y14771182D01*
X44957079Y14737697D01*
X44930721Y14734863D01*
X44835946Y14734863D01*
X44768907Y14754548D01*
X44748265Y14771182D01*
X44066610Y15452837D01*
X44300000Y15452837D01*
X44300000Y15393163D01*
X44322836Y15338032D01*
X44365032Y15295836D01*
X44420163Y15273000D01*
X44479837Y15273000D01*
X44534968Y15295836D01*
X44577164Y15338032D01*
X44600000Y15393163D01*
X44600000Y15423000D01*
X44803553Y15423000D01*
X44803553Y15422999D01*
X44883332Y15343220D01*
X44963113Y15423001D01*
X44933277Y15452837D01*
X45166667Y15452837D01*
X45166667Y15393163D01*
X45189503Y15338032D01*
X45231699Y15295836D01*
X45286830Y15273000D01*
X45346504Y15273000D01*
X45401635Y15295836D01*
X45443831Y15338032D01*
X45466667Y15393163D01*
X45466667Y15452837D01*
X46033333Y15452837D01*
X46033333Y15393163D01*
X46056169Y15338032D01*
X46098365Y15295836D01*
X46153496Y15273000D01*
X46213170Y15273000D01*
X46268301Y15295836D01*
X46310497Y15338032D01*
X46333333Y15393163D01*
X46333333Y15423000D01*
X46536886Y15423000D01*
X46536886Y15422999D01*
X46616665Y15343220D01*
X46696446Y15423001D01*
X46666610Y15452837D01*
X46900000Y15452837D01*
X46900000Y15393163D01*
X46922836Y15338032D01*
X46965032Y15295836D01*
X47020163Y15273000D01*
X47079837Y15273000D01*
X47134968Y15295836D01*
X47177164Y15338032D01*
X47200000Y15393163D01*
X47200000Y15452837D01*
X47177164Y15507968D01*
X47134968Y15550164D01*
X47079837Y15573000D01*
X47020163Y15573000D01*
X46965032Y15550164D01*
X46922836Y15507968D01*
X46900000Y15452837D01*
X46666610Y15452837D01*
X46616666Y15502781D01*
X46536886Y15423000D01*
X46333333Y15423000D01*
X46333333Y15452837D01*
X46310497Y15507968D01*
X46268301Y15550164D01*
X46213170Y15573000D01*
X46153496Y15573000D01*
X46098365Y15550164D01*
X46056169Y15507968D01*
X46033333Y15452837D01*
X45466667Y15452837D01*
X45443831Y15507968D01*
X45401635Y15550164D01*
X45346504Y15573000D01*
X45286830Y15573000D01*
X45231699Y15550164D01*
X45189503Y15507968D01*
X45166667Y15452837D01*
X44933277Y15452837D01*
X44883333Y15502781D01*
X44803553Y15423000D01*
X44600000Y15423000D01*
X44600000Y15452837D01*
X44577164Y15507968D01*
X44534968Y15550164D01*
X44479837Y15573000D01*
X44420163Y15573000D01*
X44365032Y15550164D01*
X44322836Y15507968D01*
X44300000Y15452837D01*
X44066610Y15452837D01*
X43798181Y15721266D01*
X43764696Y15782589D01*
X43761862Y15808947D01*
X43761862Y15856334D01*
X44370219Y15856334D01*
X44449999Y15776554D01*
X44529779Y15856334D01*
X45236886Y15856334D01*
X45316666Y15776554D01*
X45396446Y15856334D01*
X46103552Y15856334D01*
X46183332Y15776554D01*
X46263112Y15856334D01*
X46970219Y15856334D01*
X47049999Y15776554D01*
X47129780Y15856335D01*
X47050001Y15936114D01*
X46970219Y15856334D01*
X46263112Y15856334D01*
X46263113Y15856335D01*
X46183334Y15936114D01*
X46103552Y15856334D01*
X45396446Y15856334D01*
X45396447Y15856335D01*
X45316668Y15936114D01*
X45236886Y15856334D01*
X44529779Y15856334D01*
X44529780Y15856335D01*
X44450001Y15936114D01*
X44370219Y15856334D01*
X43761862Y15856334D01*
X43761862Y15903720D01*
X43781547Y15970759D01*
X43798181Y15991401D01*
X44096447Y16289667D01*
X44066610Y16319504D01*
X44300000Y16319504D01*
X44300000Y16259830D01*
X44322836Y16204699D01*
X44365032Y16162503D01*
X44420163Y16139667D01*
X44479837Y16139667D01*
X44534968Y16162503D01*
X44577164Y16204699D01*
X44600000Y16259830D01*
X44600000Y16289667D01*
X44803553Y16289667D01*
X44803553Y16289666D01*
X44883332Y16209887D01*
X44963113Y16289668D01*
X44933277Y16319504D01*
X45166667Y16319504D01*
X45166667Y16259830D01*
X45189503Y16204699D01*
X45231699Y16162503D01*
X45286830Y16139667D01*
X45346504Y16139667D01*
X45401635Y16162503D01*
X45443831Y16204699D01*
X45466667Y16259830D01*
X45466667Y16319504D01*
X46033333Y16319504D01*
X46033333Y16259830D01*
X46056169Y16204699D01*
X46098365Y16162503D01*
X46153496Y16139667D01*
X46213170Y16139667D01*
X46268301Y16162503D01*
X46310497Y16204699D01*
X46333333Y16259830D01*
X46333333Y16289667D01*
X46536886Y16289667D01*
X46536886Y16289666D01*
X46616665Y16209887D01*
X46696446Y16289668D01*
X46666610Y16319504D01*
X46900000Y16319504D01*
X46900000Y16259830D01*
X46922836Y16204699D01*
X46965032Y16162503D01*
X47020163Y16139667D01*
X47079837Y16139667D01*
X47134968Y16162503D01*
X47177164Y16204699D01*
X47200000Y16259830D01*
X47200000Y16319504D01*
X47177164Y16374635D01*
X47134968Y16416831D01*
X47079837Y16439667D01*
X47020163Y16439667D01*
X46965032Y16416831D01*
X46922836Y16374635D01*
X46900000Y16319504D01*
X46666610Y16319504D01*
X46616666Y16369448D01*
X46536886Y16289667D01*
X46333333Y16289667D01*
X46333333Y16319504D01*
X46310497Y16374635D01*
X46268301Y16416831D01*
X46213170Y16439667D01*
X46153496Y16439667D01*
X46098365Y16416831D01*
X46056169Y16374635D01*
X46033333Y16319504D01*
X45466667Y16319504D01*
X45443831Y16374635D01*
X45401635Y16416831D01*
X45346504Y16439667D01*
X45286830Y16439667D01*
X45231699Y16416831D01*
X45189503Y16374635D01*
X45166667Y16319504D01*
X44933277Y16319504D01*
X44883333Y16369448D01*
X44803553Y16289667D01*
X44600000Y16289667D01*
X44600000Y16319504D01*
X44577164Y16374635D01*
X44534968Y16416831D01*
X44479837Y16439667D01*
X44420163Y16439667D01*
X44365032Y16416831D01*
X44322836Y16374635D01*
X44300000Y16319504D01*
X44066610Y16319504D01*
X43798180Y16587934D01*
X43764695Y16649257D01*
X43761861Y16675615D01*
X43761861Y16723000D01*
X44370220Y16723000D01*
X44450000Y16643220D01*
X44529780Y16723000D01*
X45236887Y16723000D01*
X45316667Y16643220D01*
X45396447Y16723000D01*
X45316667Y16802780D01*
X45236887Y16723000D01*
X44529780Y16723000D01*
X44450000Y16802780D01*
X44370220Y16723000D01*
X43761861Y16723000D01*
X43761861Y16770385D01*
X43781546Y16837424D01*
X43798180Y16858066D01*
X44096447Y17156333D01*
X44066610Y17186170D01*
X44300000Y17186170D01*
X44300000Y17126496D01*
X44322836Y17071365D01*
X44365032Y17029169D01*
X44420163Y17006333D01*
X44479837Y17006333D01*
X44534968Y17029169D01*
X44577164Y17071365D01*
X44600000Y17126496D01*
X44600000Y17156333D01*
X44803553Y17156333D01*
X44803553Y17156332D01*
X44883332Y17076553D01*
X44963113Y17156334D01*
X44933277Y17186170D01*
X45166667Y17186170D01*
X45166667Y17126496D01*
X45189503Y17071365D01*
X45231699Y17029169D01*
X45286830Y17006333D01*
X45346504Y17006333D01*
X45401635Y17029169D01*
X45443831Y17071365D01*
X45466667Y17126496D01*
X45466667Y17186170D01*
X46033333Y17186170D01*
X46033333Y17126496D01*
X46056169Y17071365D01*
X46098365Y17029169D01*
X46153496Y17006333D01*
X46213170Y17006333D01*
X46268301Y17029169D01*
X46310497Y17071365D01*
X46333333Y17126496D01*
X46333333Y17156333D01*
X46536886Y17156333D01*
X46536886Y17156332D01*
X46616665Y17076553D01*
X46696446Y17156334D01*
X46666610Y17186170D01*
X46900000Y17186170D01*
X46900000Y17126496D01*
X46922836Y17071365D01*
X46965032Y17029169D01*
X47020163Y17006333D01*
X47079837Y17006333D01*
X47134968Y17029169D01*
X47177164Y17071365D01*
X47200000Y17126496D01*
X47200000Y17186170D01*
X47177164Y17241301D01*
X47134968Y17283497D01*
X47079837Y17306333D01*
X47020163Y17306333D01*
X46965032Y17283497D01*
X46922836Y17241301D01*
X46900000Y17186170D01*
X46666610Y17186170D01*
X46616666Y17236114D01*
X46536886Y17156333D01*
X46333333Y17156333D01*
X46333333Y17186170D01*
X46310497Y17241301D01*
X46268301Y17283497D01*
X46213170Y17306333D01*
X46153496Y17306333D01*
X46098365Y17283497D01*
X46056169Y17241301D01*
X46033333Y17186170D01*
X45466667Y17186170D01*
X45443831Y17241301D01*
X45401635Y17283497D01*
X45346504Y17306333D01*
X45286830Y17306333D01*
X45231699Y17283497D01*
X45189503Y17241301D01*
X45166667Y17186170D01*
X44933277Y17186170D01*
X44883333Y17236114D01*
X44803553Y17156333D01*
X44600000Y17156333D01*
X44600000Y17186170D01*
X44577164Y17241301D01*
X44534968Y17283497D01*
X44479837Y17306333D01*
X44420163Y17306333D01*
X44365032Y17283497D01*
X44322836Y17241301D01*
X44300000Y17186170D01*
X44066610Y17186170D01*
X43798181Y17454599D01*
X43764696Y17515922D01*
X43761862Y17542280D01*
X43761862Y17589667D01*
X44370219Y17589667D01*
X44449999Y17509887D01*
X44529779Y17589667D01*
X45236886Y17589667D01*
X45316666Y17509887D01*
X45396446Y17589667D01*
X46103552Y17589667D01*
X46183332Y17509887D01*
X46263112Y17589667D01*
X46970219Y17589667D01*
X47049999Y17509887D01*
X47129780Y17589668D01*
X47050001Y17669447D01*
X46970219Y17589667D01*
X46263112Y17589667D01*
X46263113Y17589668D01*
X46183334Y17669447D01*
X46103552Y17589667D01*
X45396446Y17589667D01*
X45396447Y17589668D01*
X45316668Y17669447D01*
X45236886Y17589667D01*
X44529779Y17589667D01*
X44529780Y17589668D01*
X44450001Y17669447D01*
X44370219Y17589667D01*
X43761862Y17589667D01*
X43761862Y17637053D01*
X43781547Y17704092D01*
X43798181Y17724734D01*
X44126284Y18052837D01*
X44300000Y18052837D01*
X44300000Y17993163D01*
X44322836Y17938032D01*
X44365032Y17895836D01*
X44420163Y17873000D01*
X44479837Y17873000D01*
X44534968Y17895836D01*
X44577164Y17938032D01*
X44600000Y17993163D01*
X44600000Y18023000D01*
X44803553Y18023000D01*
X44803553Y18022999D01*
X44883332Y17943220D01*
X44963113Y18023001D01*
X44933277Y18052837D01*
X45166667Y18052837D01*
X45166667Y17993163D01*
X45189503Y17938032D01*
X45231699Y17895836D01*
X45286830Y17873000D01*
X45346504Y17873000D01*
X45401635Y17895836D01*
X45443831Y17938032D01*
X45466667Y17993163D01*
X45466667Y18052837D01*
X46033333Y18052837D01*
X46033333Y17993163D01*
X46056169Y17938032D01*
X46098365Y17895836D01*
X46153496Y17873000D01*
X46213170Y17873000D01*
X46268301Y17895836D01*
X46310497Y17938032D01*
X46333333Y17993163D01*
X46333333Y18023000D01*
X46536886Y18023000D01*
X46536886Y18022999D01*
X46616665Y17943220D01*
X46696446Y18023001D01*
X46666610Y18052837D01*
X46900000Y18052837D01*
X46900000Y17993163D01*
X46922836Y17938032D01*
X46965032Y17895836D01*
X47020163Y17873000D01*
X47079837Y17873000D01*
X47134968Y17895836D01*
X47177164Y17938032D01*
X47200000Y17993163D01*
X47200000Y18052837D01*
X47177164Y18107968D01*
X47134968Y18150164D01*
X47079837Y18173000D01*
X47020163Y18173000D01*
X46965032Y18150164D01*
X46922836Y18107968D01*
X46900000Y18052837D01*
X46666610Y18052837D01*
X46616666Y18102781D01*
X46536886Y18023000D01*
X46333333Y18023000D01*
X46333333Y18052837D01*
X46310497Y18107968D01*
X46268301Y18150164D01*
X46213170Y18173000D01*
X46153496Y18173000D01*
X46098365Y18150164D01*
X46056169Y18107968D01*
X46033333Y18052837D01*
X45466667Y18052837D01*
X45443831Y18107968D01*
X45401635Y18150164D01*
X45346504Y18173000D01*
X45286830Y18173000D01*
X45231699Y18150164D01*
X45189503Y18107968D01*
X45166667Y18052837D01*
X44933277Y18052837D01*
X44883333Y18102781D01*
X44803553Y18023000D01*
X44600000Y18023000D01*
X44600000Y18052837D01*
X44577164Y18107968D01*
X44534968Y18150164D01*
X44479837Y18173000D01*
X44420163Y18173000D01*
X44365032Y18150164D01*
X44322836Y18107968D01*
X44300000Y18052837D01*
X44126284Y18052837D01*
X44748266Y18674819D01*
X44809589Y18708304D01*
X44835947Y18711138D01*
X44930720Y18711138D01*
X44997759Y18691453D01*
X45018401Y18674819D01*
X45316667Y18376553D01*
X45499999Y18559886D01*
X45500000Y18559887D01*
X45500000Y18773000D01*
X46000000Y18773000D01*
X46000000Y18559886D01*
X46183333Y18376553D01*
X46481599Y18674819D01*
X46542922Y18708304D01*
X46569280Y18711138D01*
X46664053Y18711138D01*
X46731092Y18691453D01*
X46751734Y18674819D01*
X47701818Y17724735D01*
X47735303Y17663412D01*
X47738137Y17637054D01*
X47738137Y17542279D01*
X47718452Y17475240D01*
X47701818Y17454598D01*
X47403553Y17156333D01*
X47586886Y16973000D01*
X47800000Y16973000D01*
X47800000Y17107250D01*
X47800780Y17121135D01*
X47804746Y17156332D01*
X47804746Y17156335D01*
X47800780Y17191533D01*
X47800000Y17205417D01*
X47800000Y17973917D01*
X47800780Y17987802D01*
X47804746Y18022999D01*
X47804746Y18023002D01*
X47800780Y18058200D01*
X47800000Y18072084D01*
X47800000Y18320828D01*
X47799999Y18320845D01*
X47793598Y18380373D01*
X47793596Y18380380D01*
X47743354Y18515087D01*
X47743350Y18515094D01*
X47657190Y18630188D01*
X47657187Y18630191D01*
X47542093Y18716351D01*
X47542086Y18716355D01*
X47407379Y18766597D01*
X47407372Y18766599D01*
X47347844Y18773000D01*
X47099084Y18773000D01*
X47085200Y18773780D01*
X47050002Y18777746D01*
X47049998Y18777746D01*
X47014800Y18773780D01*
X47000916Y18773000D01*
X46232417Y18773000D01*
X46218533Y18773780D01*
X46183335Y18777746D01*
X46183331Y18777746D01*
X46148133Y18773780D01*
X46134249Y18773000D01*
X46000000Y18773000D01*
X45500000Y18773000D01*
X45365751Y18773000D01*
X45351867Y18773780D01*
X45316669Y18777746D01*
X45316665Y18777746D01*
X45281467Y18773780D01*
X45267583Y18773000D01*
X44499084Y18773000D01*
X44485200Y18773780D01*
X44450002Y18777746D01*
X44449998Y18777746D01*
X44414800Y18773780D01*
X44400916Y18773000D01*
X44152155Y18773000D01*
X44092627Y18766599D01*
X44092620Y18766597D01*
X43957913Y18716355D01*
X43957910Y18716353D01*
X43923811Y18690826D01*
X43858346Y18666409D01*
X43790073Y18681261D01*
X43740668Y18730666D01*
X43725500Y18790093D01*
X43725500Y19001099D01*
X43745185Y19068138D01*
X43783525Y19106091D01*
X43903644Y19181566D01*
X44031198Y19309120D01*
X44127171Y19461860D01*
X44186750Y19632127D01*
X44186751Y19632133D01*
X44206947Y19811379D01*
X44206947Y19811386D01*
X44186751Y19990632D01*
X44186750Y19990637D01*
X44172997Y20029942D01*
X44127171Y20160904D01*
X44031198Y20313644D01*
X43903644Y20441198D01*
X43888840Y20450500D01*
X43750905Y20537171D01*
X43580636Y20596751D01*
X43580631Y20596752D01*
X43401386Y20616947D01*
X43401378Y20616947D01*
X43222132Y20596752D01*
X43222127Y20596751D01*
X43051858Y20537171D01*
X42899119Y20441198D01*
X42771566Y20313645D01*
X42675592Y20160904D01*
X42641542Y20063592D01*
X42600820Y20006816D01*
X42535867Y19981068D01*
X42467306Y19994524D01*
X42416903Y20042911D01*
X42400500Y20104546D01*
X42400500Y28343333D01*
X42397882Y28356495D01*
X42395500Y28380684D01*
X42395500Y30049875D01*
X42415185Y30116914D01*
X42467989Y30162669D01*
X42505615Y30173096D01*
X42519255Y30174632D01*
X42689522Y30234211D01*
X42842262Y30330184D01*
X42969816Y30457738D01*
X43065789Y30610478D01*
X43125368Y30780745D01*
X43145565Y30960000D01*
X43141884Y30992666D01*
X43125369Y31139250D01*
X43125368Y31139255D01*
X43086136Y31251374D01*
X43065789Y31309522D01*
X42969816Y31462262D01*
X42874259Y31557819D01*
X42840774Y31619142D01*
X42845758Y31688834D01*
X42887630Y31744767D01*
X42953094Y31769184D01*
X42961940Y31769500D01*
X45174218Y31769500D01*
X45241257Y31749815D01*
X45261898Y31733182D01*
X46878165Y30116914D01*
X48488479Y28506600D01*
X48496652Y28497583D01*
X48524116Y28464117D01*
X48557581Y28436654D01*
X48566599Y28428480D01*
X48597215Y28397863D01*
X48597219Y28397860D01*
X48633223Y28373803D01*
X48642988Y28366562D01*
X48676462Y28339090D01*
X48676465Y28339089D01*
X48676468Y28339086D01*
X48714653Y28318676D01*
X48725082Y28312426D01*
X48761086Y28288369D01*
X48777432Y28281599D01*
X48801087Y28271799D01*
X48812082Y28266599D01*
X48850273Y28246186D01*
X48891721Y28233613D01*
X48903166Y28229517D01*
X48943156Y28212952D01*
X48943157Y28212952D01*
X48943164Y28212949D01*
X48985632Y28204503D01*
X48997424Y28201549D01*
X49038868Y28188976D01*
X49081965Y28184732D01*
X49093991Y28182948D01*
X49124481Y28176883D01*
X49136459Y28174500D01*
X49136460Y28174500D01*
X49179756Y28174500D01*
X49191909Y28173904D01*
X49235000Y28169659D01*
X49278090Y28173904D01*
X49290244Y28174500D01*
X49333541Y28174500D01*
X49349453Y28177666D01*
X49376004Y28182947D01*
X49388036Y28184732D01*
X49431132Y28188976D01*
X49472570Y28201548D01*
X49484370Y28204503D01*
X49526836Y28212949D01*
X49566855Y28229527D01*
X49578275Y28233613D01*
X49619727Y28246186D01*
X49657922Y28266603D01*
X49668901Y28271796D01*
X49708914Y28288369D01*
X49744914Y28312425D01*
X49755338Y28318673D01*
X49793538Y28339090D01*
X49798708Y28343333D01*
X49827009Y28366559D01*
X49836780Y28373806D01*
X49872781Y28397860D01*
X49903400Y28428481D01*
X49912417Y28436653D01*
X49912418Y28436654D01*
X49945883Y28464117D01*
X49973348Y28497585D01*
X49981521Y28506601D01*
X50012140Y28537219D01*
X50036194Y28573220D01*
X50043441Y28582991D01*
X50070907Y28616458D01*
X50070907Y28616459D01*
X50070910Y28616462D01*
X50091327Y28654662D01*
X50097576Y28665086D01*
X50108031Y28680733D01*
X50121631Y28701086D01*
X50138204Y28741099D01*
X50143401Y28752084D01*
X50163814Y28790273D01*
X50176387Y28831725D01*
X50180473Y28843145D01*
X50197051Y28883164D01*
X50205497Y28925630D01*
X50208454Y28937434D01*
X50221024Y28978868D01*
X50225268Y29021964D01*
X50227054Y29034002D01*
X50235500Y29076460D01*
X50235500Y29119756D01*
X50236097Y29131910D01*
X50240341Y29175000D01*
X50236097Y29218093D01*
X50235500Y29230246D01*
X50235500Y29273541D01*
X50231486Y29293720D01*
X50227052Y29316009D01*
X50225268Y29328038D01*
X50221024Y29371132D01*
X50208451Y29412576D01*
X50205496Y29424375D01*
X50197051Y29466836D01*
X50196660Y29467779D01*
X50180483Y29506834D01*
X50176387Y29518279D01*
X50163814Y29559727D01*
X50143402Y29597916D01*
X50138201Y29608913D01*
X50121631Y29648913D01*
X50121631Y29648914D01*
X50097574Y29684918D01*
X50091324Y29695347D01*
X50070914Y29733532D01*
X50070911Y29733535D01*
X50070910Y29733538D01*
X50043438Y29767012D01*
X50036194Y29776781D01*
X50012141Y29812780D01*
X50012137Y29812785D01*
X49981520Y29843401D01*
X49973346Y29852419D01*
X49945883Y29885884D01*
X49912417Y29913348D01*
X49903400Y29921521D01*
X46424209Y33400711D01*
X46424206Y33400715D01*
X46424206Y33400714D01*
X46417139Y33407781D01*
X46417139Y33407782D01*
X46277782Y33547139D01*
X46277781Y33547140D01*
X46277780Y33547141D01*
X46113920Y33656629D01*
X46113911Y33656634D01*
X46030683Y33691108D01*
X45985165Y33709962D01*
X45958500Y33721007D01*
X45931837Y33732051D01*
X45931833Y33732052D01*
X45811316Y33756024D01*
X45787057Y33760850D01*
X45738543Y33770500D01*
X45738541Y33770500D01*
X28795783Y33770500D01*
X28728744Y33790185D01*
X28708102Y33806819D01*
X27396819Y35118102D01*
X27363334Y35179425D01*
X27360500Y35205783D01*
X27360500Y37418544D01*
X27333901Y37552261D01*
X27333901Y37552262D01*
X27322051Y37611836D01*
X27307162Y37647782D01*
X27299961Y37665167D01*
X27246635Y37793908D01*
X27246628Y37793921D01*
X27137139Y37957782D01*
X27137136Y37957786D01*
X26994686Y38100236D01*
X26994655Y38100265D01*
X22087297Y43007623D01*
X22053812Y43068946D01*
X22051577Y43083135D01*
X22035524Y43246132D01*
X21978314Y43434727D01*
X21978311Y43434731D01*
X21978311Y43434734D01*
X21885413Y43608533D01*
X21885409Y43608540D01*
X21760383Y43760884D01*
X21608039Y43885910D01*
X21608032Y43885914D01*
X21434233Y43978812D01*
X21434227Y43978814D01*
X21245632Y44036024D01*
X21245629Y44036025D01*
X21082648Y44052077D01*
X21017860Y44078238D01*
X21007121Y44087799D01*
X20212101Y44882819D01*
X20178616Y44944142D01*
X20183600Y45013834D01*
X20225472Y45069767D01*
X20290936Y45094184D01*
X20299782Y45094500D01*
X50895145Y45094500D01*
X50961116Y45075495D01*
X51090478Y44994211D01*
X51233567Y44944142D01*
X51260745Y44934632D01*
X51260750Y44934631D01*
X51439996Y44914435D01*
X51440000Y44914435D01*
X51440004Y44914435D01*
X51619249Y44934631D01*
X51619252Y44934632D01*
X51619255Y44934632D01*
X51789522Y44994211D01*
X51942262Y45090184D01*
X52069816Y45217738D01*
X52165789Y45370478D01*
X52225368Y45540745D01*
X52245565Y45720000D01*
X52225368Y45899255D01*
X52165789Y46069522D01*
X52069816Y46222262D01*
X51942262Y46349816D01*
X51918883Y46364506D01*
X51789523Y46445789D01*
X51619254Y46505369D01*
X51619249Y46505370D01*
X51440004Y46525565D01*
X51439996Y46525565D01*
X51260750Y46505370D01*
X51260745Y46505369D01*
X51090476Y46445789D01*
X50961117Y46364506D01*
X50895145Y46345500D01*
X19437179Y46345500D01*
X19370140Y46365185D01*
X19349498Y46381819D01*
X17304654Y48426662D01*
X17304651Y48426666D01*
X17304651Y48426665D01*
X17297584Y48433732D01*
X17297584Y48433733D01*
X17210459Y48520858D01*
X17196771Y48530004D01*
X36074435Y48530004D01*
X36074435Y48529997D01*
X36094630Y48350751D01*
X36094631Y48350746D01*
X36154211Y48180477D01*
X36217817Y48079250D01*
X36250184Y48027738D01*
X36377738Y47900184D01*
X36530478Y47804211D01*
X36700745Y47744632D01*
X36700750Y47744631D01*
X36879996Y47724435D01*
X36880000Y47724435D01*
X36880004Y47724435D01*
X37059249Y47744631D01*
X37059252Y47744632D01*
X37059255Y47744632D01*
X37229522Y47804211D01*
X37358883Y47885495D01*
X37424855Y47904500D01*
X41709547Y47904500D01*
X41776586Y47884815D01*
X41797230Y47868180D01*
X41823789Y47841620D01*
X41857273Y47780296D01*
X41859326Y47767825D01*
X41864630Y47720751D01*
X41924210Y47550479D01*
X42020184Y47397738D01*
X42147738Y47270184D01*
X42300478Y47174211D01*
X42470745Y47114632D01*
X42470750Y47114631D01*
X42649996Y47094435D01*
X42650000Y47094435D01*
X42650004Y47094435D01*
X42829249Y47114631D01*
X42829252Y47114632D01*
X42829255Y47114632D01*
X42999522Y47174211D01*
X43152262Y47270184D01*
X43279816Y47397738D01*
X43375789Y47550478D01*
X43435368Y47720745D01*
X43435784Y47724435D01*
X43455565Y47899997D01*
X43455565Y47900004D01*
X43435369Y48079250D01*
X43435368Y48079255D01*
X43399949Y48180477D01*
X43375789Y48249522D01*
X43372902Y48254116D01*
X43312186Y48350746D01*
X43279816Y48402262D01*
X43152262Y48529816D01*
X42999524Y48625788D01*
X42999521Y48625790D01*
X42829249Y48685370D01*
X42782174Y48690674D01*
X42717760Y48717741D01*
X42708378Y48726213D01*
X42512928Y48921662D01*
X42512925Y48921666D01*
X42512925Y48921665D01*
X42505858Y48928732D01*
X42505858Y48928733D01*
X42418733Y49015858D01*
X42418732Y49015859D01*
X42418731Y49015860D01*
X42367509Y49050085D01*
X42316287Y49084311D01*
X42316286Y49084312D01*
X42316283Y49084314D01*
X42316280Y49084315D01*
X42235792Y49117653D01*
X42202454Y49131462D01*
X42202455Y49131462D01*
X42202452Y49131463D01*
X42202448Y49131464D01*
X42202444Y49131465D01*
X42138139Y49144256D01*
X42138138Y49144256D01*
X42081611Y49155500D01*
X42081607Y49155500D01*
X42081606Y49155500D01*
X37424855Y49155500D01*
X37358883Y49174506D01*
X37229523Y49255789D01*
X37059254Y49315369D01*
X37059249Y49315370D01*
X36880004Y49335565D01*
X36879996Y49335565D01*
X36700750Y49315370D01*
X36700745Y49315369D01*
X36530476Y49255789D01*
X36377737Y49159816D01*
X36250184Y49032263D01*
X36154211Y48879524D01*
X36094631Y48709255D01*
X36094630Y48709250D01*
X36074435Y48530004D01*
X17196771Y48530004D01*
X17152193Y48559790D01*
X17152194Y48559790D01*
X17152192Y48559792D01*
X17108016Y48589310D01*
X17108012Y48589312D01*
X17019947Y48625789D01*
X17019945Y48625790D01*
X16994179Y48636463D01*
X16984153Y48638457D01*
X16933755Y48648482D01*
X16873336Y48660500D01*
X16873333Y48660500D01*
X16873332Y48660500D01*
X13150411Y48660500D01*
X13083372Y48680185D01*
X13053464Y48707187D01*
X13049818Y48711759D01*
X13049816Y48711762D01*
X12922262Y48839316D01*
X12858275Y48879522D01*
X12769523Y48935289D01*
X12599254Y48994869D01*
X12599249Y48994870D01*
X12420004Y49015065D01*
X12419996Y49015065D01*
X12240750Y48994870D01*
X12240745Y48994869D01*
X12070476Y48935289D01*
X11917737Y48839316D01*
X11790184Y48711763D01*
X11694211Y48559024D01*
X11634631Y48388755D01*
X11634630Y48388751D01*
X11626954Y48320616D01*
X11599887Y48256202D01*
X11542293Y48216647D01*
X11503734Y48210500D01*
X9815782Y48210500D01*
X9748743Y48230185D01*
X9728101Y48246819D01*
X8341524Y49633396D01*
X8333350Y49642414D01*
X8316261Y49663238D01*
X8288949Y49727549D01*
X8300742Y49796416D01*
X8347896Y49847975D01*
X8412116Y49865901D01*
X9281471Y49865901D01*
X9281472Y49865901D01*
X9341083Y49872309D01*
X9475931Y49922604D01*
X9591146Y50008854D01*
X9677396Y50124069D01*
X9714280Y50222960D01*
X9721154Y50241390D01*
X9763025Y50297324D01*
X9828489Y50321742D01*
X9896762Y50306891D01*
X9928564Y50282043D01*
X9982954Y50222960D01*
X10161351Y50084107D01*
X10360169Y49976512D01*
X10360172Y49976511D01*
X10573982Y49903110D01*
X10573984Y49903110D01*
X10573986Y49903109D01*
X10796967Y49865900D01*
X10796968Y49865900D01*
X11023032Y49865900D01*
X11023033Y49865900D01*
X11246014Y49903109D01*
X11459831Y49976512D01*
X11658649Y50084107D01*
X11837046Y50222960D01*
X11990156Y50389281D01*
X12076193Y50520972D01*
X12129338Y50566325D01*
X12198569Y50575749D01*
X12261905Y50546247D01*
X12283804Y50520975D01*
X12369844Y50389281D01*
X12369849Y50389276D01*
X12369850Y50389273D01*
X12522605Y50223339D01*
X12522954Y50222960D01*
X12701351Y50084107D01*
X12900169Y49976512D01*
X12900172Y49976511D01*
X13113982Y49903110D01*
X13113984Y49903110D01*
X13113986Y49903109D01*
X13336967Y49865900D01*
X13336968Y49865900D01*
X13563032Y49865900D01*
X13563033Y49865900D01*
X13786014Y49903109D01*
X13999831Y49976512D01*
X14198649Y50084107D01*
X14377046Y50222960D01*
X14530156Y50389281D01*
X14616193Y50520972D01*
X14669338Y50566325D01*
X14738569Y50575749D01*
X14801905Y50546247D01*
X14823804Y50520975D01*
X14909844Y50389281D01*
X14909849Y50389276D01*
X14909850Y50389273D01*
X15062605Y50223339D01*
X15062954Y50222960D01*
X15241351Y50084107D01*
X15440169Y49976512D01*
X15440172Y49976511D01*
X15653982Y49903110D01*
X15653984Y49903110D01*
X15653986Y49903109D01*
X15876967Y49865900D01*
X15876968Y49865900D01*
X16103032Y49865900D01*
X16103033Y49865900D01*
X16326014Y49903109D01*
X16539831Y49976512D01*
X16738649Y50084107D01*
X16917046Y50222960D01*
X17070156Y50389281D01*
X17156491Y50521428D01*
X17209635Y50566782D01*
X17278867Y50576206D01*
X17342203Y50546704D01*
X17364107Y50521425D01*
X17450240Y50389588D01*
X17603284Y50223339D01*
X17603296Y50223328D01*
X17781623Y50084530D01*
X17980369Y49976973D01*
X17980375Y49976971D01*
X18194106Y49903597D01*
X18280000Y49889264D01*
X18280000Y50787749D01*
X18333919Y50756619D01*
X18463120Y50722000D01*
X18596880Y50722000D01*
X18726081Y50756619D01*
X18780000Y50787749D01*
X18780000Y49889265D01*
X18865893Y49903597D01*
X19079624Y49976971D01*
X19079630Y49976973D01*
X19278376Y50084530D01*
X19456703Y50223328D01*
X19456715Y50223339D01*
X19609759Y50389588D01*
X19695892Y50521425D01*
X19749038Y50566782D01*
X19818269Y50576206D01*
X19881605Y50546704D01*
X19903509Y50521426D01*
X19989842Y50389284D01*
X19989850Y50389273D01*
X20142605Y50223339D01*
X20142954Y50222960D01*
X20321351Y50084107D01*
X20520169Y49976512D01*
X20520172Y49976511D01*
X20733982Y49903110D01*
X20733984Y49903110D01*
X20733986Y49903109D01*
X20956967Y49865900D01*
X20956968Y49865900D01*
X21183032Y49865900D01*
X21183033Y49865900D01*
X21406014Y49903109D01*
X21619831Y49976512D01*
X21818649Y50084107D01*
X21997046Y50222960D01*
X22150156Y50389281D01*
X22236193Y50520972D01*
X22289338Y50566325D01*
X22358569Y50575749D01*
X22421905Y50546247D01*
X22443804Y50520975D01*
X22529844Y50389281D01*
X22529849Y50389276D01*
X22529850Y50389273D01*
X22682605Y50223339D01*
X22682954Y50222960D01*
X22861351Y50084107D01*
X23060169Y49976512D01*
X23060172Y49976511D01*
X23273982Y49903110D01*
X23273984Y49903110D01*
X23273986Y49903109D01*
X23496967Y49865900D01*
X23496968Y49865900D01*
X23723032Y49865900D01*
X23723033Y49865900D01*
X23946014Y49903109D01*
X24159831Y49976512D01*
X24358649Y50084107D01*
X24537046Y50222960D01*
X24690156Y50389281D01*
X24776193Y50520972D01*
X24829338Y50566325D01*
X24898569Y50575749D01*
X24961905Y50546247D01*
X24983804Y50520975D01*
X25069844Y50389281D01*
X25069849Y50389276D01*
X25069850Y50389273D01*
X25222605Y50223339D01*
X25222954Y50222960D01*
X25401351Y50084107D01*
X25600169Y49976512D01*
X25600172Y49976511D01*
X25813982Y49903110D01*
X25813984Y49903110D01*
X25813986Y49903109D01*
X26036967Y49865900D01*
X26036968Y49865900D01*
X26263032Y49865900D01*
X26263033Y49865900D01*
X26486014Y49903109D01*
X26699831Y49976512D01*
X26898649Y50084107D01*
X27077046Y50222960D01*
X27230156Y50389281D01*
X27316193Y50520972D01*
X27369338Y50566325D01*
X27438569Y50575749D01*
X27501905Y50546247D01*
X27523804Y50520975D01*
X27609844Y50389281D01*
X27609849Y50389276D01*
X27609850Y50389273D01*
X27762605Y50223339D01*
X27762954Y50222960D01*
X27941351Y50084107D01*
X28140169Y49976512D01*
X28140172Y49976511D01*
X28353982Y49903110D01*
X28353984Y49903110D01*
X28353986Y49903109D01*
X28576967Y49865900D01*
X28576968Y49865900D01*
X28803032Y49865900D01*
X28803033Y49865900D01*
X29026014Y49903109D01*
X29239831Y49976512D01*
X29438649Y50084107D01*
X29617046Y50222960D01*
X29770156Y50389281D01*
X29856193Y50520972D01*
X29909338Y50566325D01*
X29978569Y50575749D01*
X30041905Y50546247D01*
X30063804Y50520975D01*
X30149844Y50389281D01*
X30149849Y50389276D01*
X30149850Y50389273D01*
X30302605Y50223339D01*
X30302954Y50222960D01*
X30481351Y50084107D01*
X30680169Y49976512D01*
X30680172Y49976511D01*
X30893982Y49903110D01*
X30893984Y49903110D01*
X30893986Y49903109D01*
X31116967Y49865900D01*
X31116968Y49865900D01*
X31343032Y49865900D01*
X31343033Y49865900D01*
X31566014Y49903109D01*
X31779831Y49976512D01*
X31978649Y50084107D01*
X32157046Y50222960D01*
X32310156Y50389281D01*
X32396193Y50520972D01*
X32449338Y50566325D01*
X32518569Y50575749D01*
X32581905Y50546247D01*
X32603804Y50520975D01*
X32689844Y50389281D01*
X32689849Y50389276D01*
X32689850Y50389273D01*
X32842605Y50223339D01*
X32842954Y50222960D01*
X33021351Y50084107D01*
X33220169Y49976512D01*
X33220172Y49976511D01*
X33433982Y49903110D01*
X33433984Y49903110D01*
X33433986Y49903109D01*
X33656967Y49865900D01*
X33656968Y49865900D01*
X33883032Y49865900D01*
X33883033Y49865900D01*
X34106014Y49903109D01*
X34319831Y49976512D01*
X34518649Y50084107D01*
X34697046Y50222960D01*
X34850156Y50389281D01*
X34936193Y50520972D01*
X34989338Y50566325D01*
X35058569Y50575749D01*
X35121905Y50546247D01*
X35143804Y50520975D01*
X35229844Y50389281D01*
X35229849Y50389276D01*
X35229850Y50389273D01*
X35382605Y50223339D01*
X35382954Y50222960D01*
X35561351Y50084107D01*
X35760169Y49976512D01*
X35760172Y49976511D01*
X35973982Y49903110D01*
X35973984Y49903110D01*
X35973986Y49903109D01*
X36196967Y49865900D01*
X36196968Y49865900D01*
X36423032Y49865900D01*
X36423033Y49865900D01*
X36646014Y49903109D01*
X36859831Y49976512D01*
X37058649Y50084107D01*
X37237046Y50222960D01*
X37390156Y50389281D01*
X37476491Y50521428D01*
X37529635Y50566782D01*
X37598867Y50576206D01*
X37662203Y50546704D01*
X37684107Y50521425D01*
X37770240Y50389588D01*
X37923284Y50223339D01*
X37923296Y50223328D01*
X38101623Y50084530D01*
X38300369Y49976973D01*
X38300375Y49976971D01*
X38514106Y49903597D01*
X38600000Y49889264D01*
X38600000Y50787749D01*
X38653919Y50756619D01*
X38783120Y50722000D01*
X38916880Y50722000D01*
X39046081Y50756619D01*
X39100000Y50787749D01*
X39100000Y49889264D01*
X39185893Y49903597D01*
X39399624Y49976971D01*
X39399630Y49976973D01*
X39598376Y50084530D01*
X39776703Y50223328D01*
X39776715Y50223339D01*
X39929759Y50389588D01*
X40015892Y50521425D01*
X40069038Y50566782D01*
X40138269Y50576206D01*
X40201605Y50546704D01*
X40223509Y50521426D01*
X40309842Y50389284D01*
X40309850Y50389273D01*
X40462605Y50223339D01*
X40462954Y50222960D01*
X40641351Y50084107D01*
X40840169Y49976512D01*
X40840172Y49976511D01*
X41053982Y49903110D01*
X41053984Y49903110D01*
X41053986Y49903109D01*
X41276967Y49865900D01*
X41276968Y49865900D01*
X41503032Y49865900D01*
X41503033Y49865900D01*
X41726014Y49903109D01*
X41939831Y49976512D01*
X42138649Y50084107D01*
X42317046Y50222960D01*
X42470156Y50389281D01*
X42556193Y50520972D01*
X42609338Y50566325D01*
X42678569Y50575749D01*
X42741905Y50546247D01*
X42763804Y50520975D01*
X42849844Y50389281D01*
X42849849Y50389276D01*
X42849850Y50389273D01*
X43002605Y50223339D01*
X43002954Y50222960D01*
X43181351Y50084107D01*
X43380169Y49976512D01*
X43380172Y49976511D01*
X43593982Y49903110D01*
X43593984Y49903110D01*
X43593986Y49903109D01*
X43816967Y49865900D01*
X43816968Y49865900D01*
X44043032Y49865900D01*
X44043033Y49865900D01*
X44266014Y49903109D01*
X44479831Y49976512D01*
X44678649Y50084107D01*
X44857046Y50222960D01*
X45010156Y50389281D01*
X45096193Y50520972D01*
X45149338Y50566325D01*
X45218569Y50575749D01*
X45281905Y50546247D01*
X45303804Y50520975D01*
X45389844Y50389281D01*
X45389849Y50389276D01*
X45389850Y50389273D01*
X45542605Y50223339D01*
X45542954Y50222960D01*
X45721351Y50084107D01*
X45920169Y49976512D01*
X45920172Y49976511D01*
X46133982Y49903110D01*
X46133984Y49903110D01*
X46133986Y49903109D01*
X46356967Y49865900D01*
X46356968Y49865900D01*
X46583032Y49865900D01*
X46583033Y49865900D01*
X46806014Y49903109D01*
X47019831Y49976512D01*
X47218649Y50084107D01*
X47397046Y50222960D01*
X47550156Y50389281D01*
X47636193Y50520972D01*
X47689338Y50566325D01*
X47758569Y50575749D01*
X47821905Y50546247D01*
X47843804Y50520975D01*
X47929844Y50389281D01*
X47929849Y50389276D01*
X47929850Y50389273D01*
X48082605Y50223339D01*
X48082954Y50222960D01*
X48261351Y50084107D01*
X48460169Y49976512D01*
X48460172Y49976511D01*
X48673982Y49903110D01*
X48673984Y49903110D01*
X48673986Y49903109D01*
X48896967Y49865900D01*
X48896968Y49865900D01*
X49123032Y49865900D01*
X49123033Y49865900D01*
X49346014Y49903109D01*
X49559831Y49976512D01*
X49758649Y50084107D01*
X49937046Y50222960D01*
X50090156Y50389281D01*
X50176193Y50520972D01*
X50229338Y50566325D01*
X50298569Y50575749D01*
X50361905Y50546247D01*
X50383804Y50520975D01*
X50469844Y50389281D01*
X50469849Y50389276D01*
X50469850Y50389273D01*
X50622605Y50223339D01*
X50622954Y50222960D01*
X50801351Y50084107D01*
X51000169Y49976512D01*
X51000172Y49976511D01*
X51213982Y49903110D01*
X51213984Y49903110D01*
X51213986Y49903109D01*
X51436967Y49865900D01*
X51436968Y49865900D01*
X51663032Y49865900D01*
X51663033Y49865900D01*
X51886014Y49903109D01*
X52099831Y49976512D01*
X52298649Y50084107D01*
X52477046Y50222960D01*
X52630156Y50389281D01*
X52716193Y50520972D01*
X52769338Y50566325D01*
X52838569Y50575749D01*
X52901905Y50546247D01*
X52923804Y50520975D01*
X53009844Y50389281D01*
X53009849Y50389276D01*
X53009850Y50389273D01*
X53162605Y50223339D01*
X53162954Y50222960D01*
X53341351Y50084107D01*
X53540169Y49976512D01*
X53540172Y49976511D01*
X53753982Y49903110D01*
X53753984Y49903110D01*
X53753986Y49903109D01*
X53976967Y49865900D01*
X53976968Y49865900D01*
X54203032Y49865900D01*
X54203033Y49865900D01*
X54426014Y49903109D01*
X54639831Y49976512D01*
X54838649Y50084107D01*
X55017046Y50222960D01*
X55170156Y50389281D01*
X55256491Y50521428D01*
X55309635Y50566782D01*
X55378867Y50576206D01*
X55442203Y50546704D01*
X55464107Y50521425D01*
X55550240Y50389588D01*
X55703284Y50223339D01*
X55703296Y50223328D01*
X55881623Y50084530D01*
X56080369Y49976973D01*
X56080375Y49976971D01*
X56294106Y49903597D01*
X56380000Y49889264D01*
X56380000Y50787749D01*
X56433919Y50756619D01*
X56563120Y50722000D01*
X56696880Y50722000D01*
X56826081Y50756619D01*
X56880000Y50787749D01*
X56880000Y49889265D01*
X56965893Y49903597D01*
X57179624Y49976971D01*
X57179630Y49976973D01*
X57378376Y50084530D01*
X57556703Y50223328D01*
X57556715Y50223339D01*
X57709759Y50389588D01*
X57833360Y50578775D01*
X57924135Y50785722D01*
X57973334Y50980000D01*
X57072251Y50980000D01*
X57103381Y51033919D01*
X57138000Y51163120D01*
X57138000Y51296880D01*
X57103381Y51426081D01*
X57072251Y51480000D01*
X57973334Y51480000D01*
X57924135Y51674279D01*
X57833360Y51881226D01*
X57709759Y52070413D01*
X57556715Y52236662D01*
X57556703Y52236673D01*
X57378376Y52375471D01*
X57378371Y52375474D01*
X57350307Y52390662D01*
X57300717Y52439883D01*
X57285610Y52508099D01*
X57309782Y52573655D01*
X57350308Y52608770D01*
X57378649Y52624107D01*
X57442912Y52674125D01*
X58399500Y52674125D01*
X58399500Y52325876D01*
X58438489Y51979842D01*
X58438491Y51979830D01*
X58515982Y51640316D01*
X58515985Y51640308D01*
X58630999Y51311618D01*
X58782092Y50997870D01*
X58967371Y50703001D01*
X58967372Y50702999D01*
X59184487Y50430744D01*
X59430743Y50184488D01*
X59702998Y49967373D01*
X59703001Y49967372D01*
X59703003Y49967370D01*
X59997867Y49782094D01*
X60311621Y49630998D01*
X60558488Y49544616D01*
X60640307Y49515986D01*
X60640315Y49515983D01*
X60640318Y49515983D01*
X60640319Y49515982D01*
X60979829Y49438491D01*
X61325876Y49399501D01*
X61325877Y49399500D01*
X61325880Y49399500D01*
X61674123Y49399500D01*
X61674123Y49399501D01*
X62020171Y49438491D01*
X62359681Y49515982D01*
X62688379Y49630998D01*
X63002133Y49782094D01*
X63296997Y49967370D01*
X63297001Y49967373D01*
X63569256Y50184488D01*
X63569258Y50184491D01*
X63569263Y50184494D01*
X63815506Y50430737D01*
X63887464Y50520969D01*
X64032627Y50702999D01*
X64032628Y50703001D01*
X64032630Y50703003D01*
X64217906Y50997867D01*
X64369002Y51311621D01*
X64484018Y51640319D01*
X64561509Y51979829D01*
X64600500Y52325880D01*
X64600500Y52674120D01*
X64561509Y53020171D01*
X64484018Y53359681D01*
X64482682Y53363498D01*
X64433941Y53502792D01*
X64369002Y53688379D01*
X64217906Y54002133D01*
X64032630Y54296997D01*
X64032628Y54297000D01*
X64032627Y54297002D01*
X63815512Y54569257D01*
X63569256Y54815513D01*
X63297001Y55032628D01*
X63296999Y55032629D01*
X63002130Y55217908D01*
X62688382Y55369001D01*
X62359692Y55484015D01*
X62359684Y55484018D01*
X62105048Y55542137D01*
X62020171Y55561509D01*
X62020167Y55561510D01*
X62020158Y55561511D01*
X61674124Y55600500D01*
X61674120Y55600500D01*
X61325880Y55600500D01*
X61325875Y55600500D01*
X60979841Y55561511D01*
X60979829Y55561509D01*
X60640315Y55484018D01*
X60640307Y55484015D01*
X60311617Y55369001D01*
X59997869Y55217908D01*
X59703000Y55032629D01*
X59702998Y55032628D01*
X59430743Y54815513D01*
X59184487Y54569257D01*
X58967372Y54297002D01*
X58967371Y54297000D01*
X58782092Y54002131D01*
X58630999Y53688383D01*
X58515985Y53359693D01*
X58515982Y53359685D01*
X58438491Y53020171D01*
X58438489Y53020159D01*
X58399500Y52674125D01*
X57442912Y52674125D01*
X57557046Y52762960D01*
X57710156Y52929281D01*
X57833802Y53118535D01*
X57924611Y53325559D01*
X57980107Y53544707D01*
X57992012Y53688383D01*
X57998775Y53769994D01*
X57998775Y53770007D01*
X57984599Y53941079D01*
X57980107Y53995293D01*
X57924611Y54214441D01*
X57833802Y54421465D01*
X57826123Y54433218D01*
X57737263Y54569229D01*
X57710156Y54610719D01*
X57710153Y54610722D01*
X57710149Y54610728D01*
X57557049Y54777037D01*
X57557048Y54777038D01*
X57557046Y54777040D01*
X57378649Y54915893D01*
X57352390Y54930104D01*
X57179832Y55023488D01*
X57179827Y55023490D01*
X56966017Y55096891D01*
X56798778Y55124798D01*
X56743033Y55134100D01*
X56516967Y55134100D01*
X56472370Y55126659D01*
X56293982Y55096891D01*
X56080172Y55023490D01*
X56080167Y55023488D01*
X55881352Y54915894D01*
X55702955Y54777041D01*
X55702950Y54777037D01*
X55549850Y54610728D01*
X55549842Y54610717D01*
X55463808Y54479032D01*
X55410662Y54433675D01*
X55341430Y54424252D01*
X55278095Y54453754D01*
X55256192Y54479032D01*
X55197263Y54569229D01*
X55170156Y54610719D01*
X55170153Y54610722D01*
X55170149Y54610728D01*
X55017049Y54777037D01*
X55017048Y54777038D01*
X55017046Y54777040D01*
X54838649Y54915893D01*
X54812390Y54930104D01*
X54639832Y55023488D01*
X54639827Y55023490D01*
X54426017Y55096891D01*
X54258778Y55124798D01*
X54203033Y55134100D01*
X53976967Y55134100D01*
X53932370Y55126659D01*
X53753982Y55096891D01*
X53540172Y55023490D01*
X53540167Y55023488D01*
X53341352Y54915894D01*
X53162955Y54777041D01*
X53162950Y54777037D01*
X53009850Y54610728D01*
X53009842Y54610717D01*
X52923808Y54479032D01*
X52870662Y54433675D01*
X52801430Y54424252D01*
X52738095Y54453754D01*
X52716192Y54479032D01*
X52657263Y54569229D01*
X52630156Y54610719D01*
X52630153Y54610722D01*
X52630149Y54610728D01*
X52477049Y54777037D01*
X52477048Y54777038D01*
X52477046Y54777040D01*
X52298649Y54915893D01*
X52272390Y54930104D01*
X52099832Y55023488D01*
X52099827Y55023490D01*
X51886017Y55096891D01*
X51718778Y55124798D01*
X51663033Y55134100D01*
X51436967Y55134100D01*
X51392370Y55126659D01*
X51213982Y55096891D01*
X51000172Y55023490D01*
X51000167Y55023488D01*
X50801352Y54915894D01*
X50622955Y54777041D01*
X50622950Y54777037D01*
X50469850Y54610728D01*
X50469842Y54610717D01*
X50383509Y54478575D01*
X50330363Y54433218D01*
X50261131Y54423795D01*
X50197796Y54453298D01*
X50175892Y54478576D01*
X50089759Y54610413D01*
X49936715Y54776662D01*
X49936703Y54776673D01*
X49758376Y54915471D01*
X49559630Y55023028D01*
X49559624Y55023030D01*
X49345893Y55096404D01*
X49260000Y55110737D01*
X49260000Y54212252D01*
X49206081Y54243381D01*
X49076880Y54278000D01*
X48943120Y54278000D01*
X48813919Y54243381D01*
X48760000Y54212252D01*
X48760000Y55110737D01*
X48759999Y55110737D01*
X48674106Y55096404D01*
X48460375Y55023030D01*
X48460369Y55023028D01*
X48261623Y54915471D01*
X48083296Y54776673D01*
X48083284Y54776662D01*
X47930240Y54610412D01*
X47930238Y54610410D01*
X47844106Y54478575D01*
X47790960Y54433219D01*
X47721729Y54423795D01*
X47658393Y54453297D01*
X47636493Y54478570D01*
X47550156Y54610719D01*
X47550149Y54610726D01*
X47550149Y54610728D01*
X47397049Y54777037D01*
X47397048Y54777038D01*
X47397046Y54777040D01*
X47218649Y54915893D01*
X47192390Y54930104D01*
X47019832Y55023488D01*
X47019827Y55023490D01*
X46806017Y55096891D01*
X46638778Y55124798D01*
X46583033Y55134100D01*
X46356967Y55134100D01*
X46312370Y55126659D01*
X46133982Y55096891D01*
X45920172Y55023490D01*
X45920167Y55023488D01*
X45721352Y54915894D01*
X45542955Y54777041D01*
X45542950Y54777037D01*
X45389850Y54610728D01*
X45389842Y54610717D01*
X45303509Y54478575D01*
X45250363Y54433218D01*
X45181131Y54423795D01*
X45117796Y54453298D01*
X45095892Y54478576D01*
X45009759Y54610413D01*
X44856715Y54776662D01*
X44856703Y54776673D01*
X44678376Y54915471D01*
X44479630Y55023028D01*
X44479624Y55023030D01*
X44265893Y55096404D01*
X44180000Y55110737D01*
X44180000Y54212252D01*
X44126081Y54243381D01*
X43996880Y54278000D01*
X43863120Y54278000D01*
X43733919Y54243381D01*
X43680000Y54212252D01*
X43680000Y55110737D01*
X43594106Y55096404D01*
X43380375Y55023030D01*
X43380369Y55023028D01*
X43181623Y54915471D01*
X43003296Y54776673D01*
X43003284Y54776662D01*
X42850240Y54610412D01*
X42850238Y54610410D01*
X42764106Y54478575D01*
X42710960Y54433219D01*
X42641729Y54423795D01*
X42578393Y54453297D01*
X42556493Y54478570D01*
X42470156Y54610719D01*
X42470149Y54610726D01*
X42470149Y54610728D01*
X42317049Y54777037D01*
X42317048Y54777038D01*
X42317046Y54777040D01*
X42138649Y54915893D01*
X42112390Y54930104D01*
X41939832Y55023488D01*
X41939827Y55023490D01*
X41726017Y55096891D01*
X41558778Y55124798D01*
X41503033Y55134100D01*
X41276967Y55134100D01*
X41232370Y55126659D01*
X41053982Y55096891D01*
X40840172Y55023490D01*
X40840167Y55023488D01*
X40641352Y54915894D01*
X40462955Y54777041D01*
X40462950Y54777037D01*
X40309850Y54610728D01*
X40309842Y54610717D01*
X40223808Y54479032D01*
X40170662Y54433675D01*
X40101430Y54424252D01*
X40038095Y54453754D01*
X40016192Y54479032D01*
X39957263Y54569229D01*
X39930156Y54610719D01*
X39930153Y54610722D01*
X39930149Y54610728D01*
X39777049Y54777037D01*
X39777048Y54777038D01*
X39777046Y54777040D01*
X39598649Y54915893D01*
X39572390Y54930104D01*
X39399832Y55023488D01*
X39399827Y55023490D01*
X39186017Y55096891D01*
X39018778Y55124798D01*
X38963033Y55134100D01*
X38736967Y55134100D01*
X38692370Y55126659D01*
X38513982Y55096891D01*
X38300172Y55023490D01*
X38300167Y55023488D01*
X38101352Y54915894D01*
X37922955Y54777041D01*
X37922950Y54777037D01*
X37769850Y54610728D01*
X37769842Y54610717D01*
X37683808Y54479032D01*
X37630662Y54433675D01*
X37561430Y54424252D01*
X37498095Y54453754D01*
X37476192Y54479032D01*
X37417263Y54569229D01*
X37390156Y54610719D01*
X37390153Y54610722D01*
X37390149Y54610728D01*
X37237049Y54777037D01*
X37237048Y54777038D01*
X37237046Y54777040D01*
X37058649Y54915893D01*
X37032390Y54930104D01*
X36859832Y55023488D01*
X36859827Y55023490D01*
X36646017Y55096891D01*
X36478778Y55124798D01*
X36423033Y55134100D01*
X36196967Y55134100D01*
X36152370Y55126659D01*
X35973982Y55096891D01*
X35760172Y55023490D01*
X35760167Y55023488D01*
X35561352Y54915894D01*
X35382955Y54777041D01*
X35382950Y54777037D01*
X35229850Y54610728D01*
X35229842Y54610717D01*
X35143808Y54479032D01*
X35090662Y54433675D01*
X35021430Y54424252D01*
X34958095Y54453754D01*
X34936192Y54479032D01*
X34877263Y54569229D01*
X34850156Y54610719D01*
X34850153Y54610722D01*
X34850149Y54610728D01*
X34697049Y54777037D01*
X34697048Y54777038D01*
X34697046Y54777040D01*
X34518649Y54915893D01*
X34492390Y54930104D01*
X34319832Y55023488D01*
X34319827Y55023490D01*
X34106017Y55096891D01*
X33938778Y55124798D01*
X33883033Y55134100D01*
X33656967Y55134100D01*
X33612370Y55126659D01*
X33433982Y55096891D01*
X33220172Y55023490D01*
X33220167Y55023488D01*
X33021352Y54915894D01*
X32842955Y54777041D01*
X32842950Y54777037D01*
X32689850Y54610728D01*
X32689842Y54610717D01*
X32603509Y54478575D01*
X32550363Y54433218D01*
X32481131Y54423795D01*
X32417796Y54453298D01*
X32395892Y54478576D01*
X32309759Y54610413D01*
X32156715Y54776662D01*
X32156703Y54776673D01*
X31978376Y54915471D01*
X31779630Y55023028D01*
X31779624Y55023030D01*
X31565893Y55096404D01*
X31480000Y55110737D01*
X31480000Y54212252D01*
X31426081Y54243381D01*
X31296880Y54278000D01*
X31163120Y54278000D01*
X31033919Y54243381D01*
X30980000Y54212252D01*
X30980000Y55110737D01*
X30894106Y55096404D01*
X30680375Y55023030D01*
X30680369Y55023028D01*
X30481623Y54915471D01*
X30303296Y54776673D01*
X30303284Y54776662D01*
X30150240Y54610412D01*
X30150238Y54610410D01*
X30064106Y54478575D01*
X30010960Y54433219D01*
X29941729Y54423795D01*
X29878393Y54453297D01*
X29856493Y54478570D01*
X29770156Y54610719D01*
X29770149Y54610726D01*
X29770149Y54610728D01*
X29617049Y54777037D01*
X29617048Y54777038D01*
X29617046Y54777040D01*
X29438649Y54915893D01*
X29412390Y54930104D01*
X29239832Y55023488D01*
X29239827Y55023490D01*
X29026017Y55096891D01*
X28858778Y55124798D01*
X28803033Y55134100D01*
X28576967Y55134100D01*
X28532370Y55126659D01*
X28353982Y55096891D01*
X28140172Y55023490D01*
X28140167Y55023488D01*
X27941352Y54915894D01*
X27762955Y54777041D01*
X27762950Y54777037D01*
X27609850Y54610728D01*
X27609842Y54610717D01*
X27523808Y54479032D01*
X27470662Y54433675D01*
X27401430Y54424252D01*
X27338095Y54453754D01*
X27316192Y54479032D01*
X27257263Y54569229D01*
X27230156Y54610719D01*
X27230153Y54610722D01*
X27230149Y54610728D01*
X27077049Y54777037D01*
X27077048Y54777038D01*
X27077046Y54777040D01*
X26898649Y54915893D01*
X26872390Y54930104D01*
X26699832Y55023488D01*
X26699827Y55023490D01*
X26486017Y55096891D01*
X26318778Y55124798D01*
X26263033Y55134100D01*
X26036967Y55134100D01*
X25992370Y55126659D01*
X25813982Y55096891D01*
X25600172Y55023490D01*
X25600167Y55023488D01*
X25401352Y54915894D01*
X25222955Y54777041D01*
X25222950Y54777037D01*
X25069850Y54610728D01*
X25069842Y54610717D01*
X24983509Y54478575D01*
X24930363Y54433218D01*
X24861131Y54423795D01*
X24797796Y54453298D01*
X24775892Y54478576D01*
X24689759Y54610413D01*
X24536715Y54776662D01*
X24536703Y54776673D01*
X24358376Y54915471D01*
X24159630Y55023028D01*
X24159624Y55023030D01*
X23945893Y55096404D01*
X23860000Y55110737D01*
X23860000Y54212252D01*
X23806081Y54243381D01*
X23676880Y54278000D01*
X23543120Y54278000D01*
X23413919Y54243381D01*
X23360000Y54212252D01*
X23360000Y55110737D01*
X23359999Y55110737D01*
X23274106Y55096404D01*
X23060375Y55023030D01*
X23060369Y55023028D01*
X22861623Y54915471D01*
X22683296Y54776673D01*
X22683284Y54776662D01*
X22530240Y54610412D01*
X22530238Y54610410D01*
X22444106Y54478575D01*
X22390960Y54433219D01*
X22321729Y54423795D01*
X22258393Y54453297D01*
X22236493Y54478570D01*
X22150156Y54610719D01*
X22150149Y54610726D01*
X22150149Y54610728D01*
X21997049Y54777037D01*
X21997048Y54777038D01*
X21997046Y54777040D01*
X21818649Y54915893D01*
X21792390Y54930104D01*
X21619832Y55023488D01*
X21619827Y55023490D01*
X21406017Y55096891D01*
X21238778Y55124798D01*
X21183033Y55134100D01*
X20956967Y55134100D01*
X20912370Y55126659D01*
X20733982Y55096891D01*
X20520172Y55023490D01*
X20520167Y55023488D01*
X20321352Y54915894D01*
X20142955Y54777041D01*
X20142950Y54777037D01*
X19989850Y54610728D01*
X19989842Y54610717D01*
X19903808Y54479032D01*
X19850662Y54433675D01*
X19781430Y54424252D01*
X19718095Y54453754D01*
X19696192Y54479032D01*
X19637263Y54569229D01*
X19610156Y54610719D01*
X19610153Y54610722D01*
X19610149Y54610728D01*
X19457049Y54777037D01*
X19457048Y54777038D01*
X19457046Y54777040D01*
X19278649Y54915893D01*
X19252390Y54930104D01*
X19079832Y55023488D01*
X19079827Y55023490D01*
X18866017Y55096891D01*
X18698778Y55124798D01*
X18643033Y55134100D01*
X18416967Y55134100D01*
X18372370Y55126659D01*
X18193982Y55096891D01*
X17980172Y55023490D01*
X17980167Y55023488D01*
X17781352Y54915894D01*
X17602955Y54777041D01*
X17602950Y54777037D01*
X17449850Y54610728D01*
X17449842Y54610717D01*
X17363808Y54479032D01*
X17310662Y54433675D01*
X17241430Y54424252D01*
X17178095Y54453754D01*
X17156192Y54479032D01*
X17097263Y54569229D01*
X17070156Y54610719D01*
X17070153Y54610722D01*
X17070149Y54610728D01*
X16917049Y54777037D01*
X16917048Y54777038D01*
X16917046Y54777040D01*
X16738649Y54915893D01*
X16712390Y54930104D01*
X16539832Y55023488D01*
X16539827Y55023490D01*
X16326017Y55096891D01*
X16158778Y55124798D01*
X16103033Y55134100D01*
X15876967Y55134100D01*
X15832370Y55126659D01*
X15653982Y55096891D01*
X15440172Y55023490D01*
X15440167Y55023488D01*
X15241352Y54915894D01*
X15062955Y54777041D01*
X15062950Y54777037D01*
X14909850Y54610728D01*
X14909842Y54610717D01*
X14823509Y54478575D01*
X14770363Y54433218D01*
X14701131Y54423795D01*
X14637796Y54453298D01*
X14615892Y54478576D01*
X14529759Y54610413D01*
X14376715Y54776662D01*
X14376703Y54776673D01*
X14198376Y54915471D01*
X13999630Y55023028D01*
X13999624Y55023030D01*
X13785893Y55096404D01*
X13700000Y55110737D01*
X13700000Y54212252D01*
X13646081Y54243381D01*
X13516880Y54278000D01*
X13383120Y54278000D01*
X13253919Y54243381D01*
X13200000Y54212252D01*
X13200000Y55110737D01*
X13114106Y55096404D01*
X12900375Y55023030D01*
X12900369Y55023028D01*
X12701623Y54915471D01*
X12523296Y54776673D01*
X12523284Y54776662D01*
X12370240Y54610412D01*
X12370238Y54610410D01*
X12284106Y54478575D01*
X12230960Y54433219D01*
X12161729Y54423795D01*
X12098393Y54453297D01*
X12076493Y54478570D01*
X11990156Y54610719D01*
X11990149Y54610726D01*
X11990149Y54610728D01*
X11837049Y54777037D01*
X11837048Y54777038D01*
X11837046Y54777040D01*
X11658649Y54915893D01*
X11632390Y54930104D01*
X11459832Y55023488D01*
X11459827Y55023490D01*
X11246017Y55096891D01*
X11078778Y55124798D01*
X11023033Y55134100D01*
X10796967Y55134100D01*
X10752370Y55126659D01*
X10573982Y55096891D01*
X10360172Y55023490D01*
X10360167Y55023488D01*
X10161352Y54915894D01*
X9982955Y54777041D01*
X9982950Y54777037D01*
X9829850Y54610728D01*
X9829842Y54610717D01*
X9743808Y54479032D01*
X9690662Y54433675D01*
X9621430Y54424252D01*
X9558095Y54453754D01*
X9536192Y54479032D01*
X9477263Y54569229D01*
X9450156Y54610719D01*
X9450153Y54610722D01*
X9450149Y54610728D01*
X9297049Y54777037D01*
X9297048Y54777038D01*
X9297046Y54777040D01*
X9118649Y54915893D01*
X9092390Y54930104D01*
X8919832Y55023488D01*
X8919827Y55023490D01*
X8706017Y55096891D01*
X8538778Y55124798D01*
X8483033Y55134100D01*
X8256967Y55134100D01*
X8212370Y55126659D01*
X8033982Y55096891D01*
X7820172Y55023490D01*
X7820167Y55023488D01*
X7621352Y54915894D01*
X7442955Y54777041D01*
X7442950Y54777037D01*
X7289850Y54610728D01*
X7289842Y54610717D01*
X7166198Y54421467D01*
X7075388Y54214440D01*
X7019892Y53995293D01*
X7019153Y53986372D01*
X6993996Y53921189D01*
X6983258Y53908938D01*
X6610597Y53536277D01*
X6549274Y53502792D01*
X6479582Y53507776D01*
X6423649Y53549648D01*
X6405874Y53583004D01*
X6369001Y53688381D01*
X6217907Y54002131D01*
X6084503Y54214441D01*
X6032630Y54296997D01*
X6032628Y54297000D01*
X6032627Y54297002D01*
X5815512Y54569257D01*
X5569256Y54815513D01*
X5297001Y55032628D01*
X5296999Y55032629D01*
X5002130Y55217908D01*
X4688382Y55369001D01*
X4359692Y55484015D01*
X4359684Y55484018D01*
X4105048Y55542137D01*
X4020171Y55561509D01*
X4020167Y55561510D01*
X4020158Y55561511D01*
X3674124Y55600500D01*
X3674120Y55600500D01*
X3325880Y55600500D01*
X3325875Y55600500D01*
X2979841Y55561511D01*
X2979829Y55561509D01*
X2640315Y55484018D01*
X2640307Y55484015D01*
X2311617Y55369001D01*
X1997869Y55217908D01*
X1703000Y55032629D01*
X1702998Y55032628D01*
X1430743Y54815513D01*
X1184487Y54569257D01*
X967372Y54297002D01*
X967371Y54297000D01*
X782092Y54002131D01*
X630999Y53688383D01*
X515985Y53359693D01*
X515982Y53359685D01*
X438491Y53020171D01*
X438489Y53020159D01*
X399500Y52674125D01*
X50500Y52674125D01*
X50500Y52996520D01*
X50695Y53003473D01*
X53924Y53060969D01*
X68656Y53323300D01*
X70210Y53337093D01*
X123283Y53649463D01*
X126377Y53663015D01*
X133685Y53688379D01*
X214090Y53967474D01*
X218682Y53980594D01*
X299829Y54176502D01*
X339929Y54273314D01*
X345951Y54285820D01*
X499227Y54563150D01*
X506605Y54574893D01*
X689972Y54833324D01*
X698619Y54844166D01*
X909750Y55080421D01*
X919581Y55090251D01*
X968648Y55134100D01*
X1155834Y55301381D01*
X1166676Y55310028D01*
X1425107Y55493395D01*
X1436850Y55500773D01*
X1714180Y55654049D01*
X1726686Y55660071D01*
X2019406Y55781318D01*
X2032526Y55785910D01*
X2336990Y55873625D01*
X2350537Y55876717D01*
X2662907Y55929790D01*
X2676700Y55931344D01*
X2996528Y55949305D01*
X3003481Y55949500D01*
X3016408Y55949500D01*
X61983592Y55949500D01*
X61996519Y55949500D01*
X62003472Y55949305D01*
G37*
G04 #@! TD.AperFunction*
M02*
