G04 #@! TF.GenerationSoftware,KiCad,Pcbnew,7.0.9-7.0.9~ubuntu23.04.1*
G04 #@! TF.CreationDate,2023-12-27T19:29:48+00:00*
G04 #@! TF.ProjectId,pedalboard-soundcard,70656461-6c62-46f6-9172-642d736f756e,0.0.1*
G04 #@! TF.SameCoordinates,Original*
G04 #@! TF.FileFunction,Copper,L2,Bot*
G04 #@! TF.FilePolarity,Positive*
%FSLAX46Y46*%
G04 Gerber Fmt 4.6, Leading zero omitted, Abs format (unit mm)*
G04 Created by KiCad (PCBNEW 7.0.9-7.0.9~ubuntu23.04.1) date 2023-12-27 19:29:48*
%MOMM*%
%LPD*%
G01*
G04 APERTURE LIST*
G04 #@! TA.AperFunction,ComponentPad*
%ADD10R,1.727200X1.727200*%
G04 #@! TD*
G04 #@! TA.AperFunction,ComponentPad*
%ADD11O,1.727200X1.727200*%
G04 #@! TD*
G04 #@! TA.AperFunction,ComponentPad*
%ADD12R,1.700000X1.700000*%
G04 #@! TD*
G04 #@! TA.AperFunction,ComponentPad*
%ADD13O,1.700000X1.700000*%
G04 #@! TD*
G04 #@! TA.AperFunction,ComponentPad*
%ADD14C,0.500000*%
G04 #@! TD*
G04 #@! TA.AperFunction,SMDPad,CuDef*
%ADD15R,3.100000X3.100000*%
G04 #@! TD*
G04 #@! TA.AperFunction,ViaPad*
%ADD16C,0.600000*%
G04 #@! TD*
G04 #@! TA.AperFunction,ViaPad*
%ADD17C,1.000000*%
G04 #@! TD*
G04 #@! TA.AperFunction,Conductor*
%ADD18C,0.250000*%
G04 #@! TD*
G04 #@! TA.AperFunction,Conductor*
%ADD19C,1.000000*%
G04 #@! TD*
G04 #@! TA.AperFunction,Conductor*
%ADD20C,0.500000*%
G04 #@! TD*
G04 #@! TA.AperFunction,Conductor*
%ADD21C,0.600000*%
G04 #@! TD*
G04 APERTURE END LIST*
D10*
X8370000Y51230000D03*
D11*
X8370000Y53770000D03*
X10910000Y51230000D03*
X10910000Y53770000D03*
X13450000Y51230000D03*
X13450000Y53770000D03*
X15990000Y51230000D03*
X15990000Y53770000D03*
X18530000Y51230000D03*
X18530000Y53770000D03*
X21070000Y51230000D03*
X21070000Y53770000D03*
X23610000Y51230000D03*
X23610000Y53770000D03*
X26150000Y51230000D03*
X26150000Y53770000D03*
X28690000Y51230000D03*
X28690000Y53770000D03*
X31230000Y51230000D03*
X31230000Y53770000D03*
X33770000Y51230000D03*
X33770000Y53770000D03*
X36310000Y51230000D03*
X36310000Y53770000D03*
X38850000Y51230000D03*
X38850000Y53770000D03*
X41390000Y51230000D03*
X41390000Y53770000D03*
X43930000Y51230000D03*
X43930000Y53770000D03*
X46470000Y51230000D03*
X46470000Y53770000D03*
X49010000Y51230000D03*
X49010000Y53770000D03*
X51550000Y51230000D03*
X51550000Y53770000D03*
X54090000Y51230000D03*
X54090000Y53770000D03*
X56630000Y51230000D03*
X56630000Y53770000D03*
D12*
X14840000Y14920000D03*
D13*
X14840000Y17460000D03*
X17380000Y14920000D03*
X17380000Y17460000D03*
X19920000Y14920000D03*
X19920000Y17460000D03*
D12*
X59150000Y19100000D03*
D13*
X61690000Y19100000D03*
X59150000Y16560000D03*
X61690000Y16560000D03*
X59150000Y14020000D03*
X61690000Y14020000D03*
D14*
X44450000Y15423000D03*
X45316667Y15423000D03*
X46183333Y15423000D03*
X47050000Y15423000D03*
X44450000Y16289667D03*
X45316667Y16289667D03*
X46183333Y16289667D03*
X47050000Y16289667D03*
D15*
X45750000Y16723000D03*
D14*
X44450000Y17156333D03*
X45316667Y17156333D03*
X46183333Y17156333D03*
X47050000Y17156333D03*
X44450000Y18023000D03*
X45316667Y18023000D03*
X46183333Y18023000D03*
X47050000Y18023000D03*
D16*
X9600000Y11040000D03*
X55940000Y23520000D03*
X52250000Y20060000D03*
X39200000Y12110000D03*
X44000000Y8170000D03*
X39300000Y24020000D03*
X54030000Y9080000D03*
X15810000Y34860000D03*
X34125000Y30925000D03*
X39200000Y10170000D03*
X52400000Y28540000D03*
X34340000Y47350000D03*
X35740000Y36140000D03*
X56000000Y9130000D03*
X44060000Y22610000D03*
X25270000Y34030000D03*
X53960000Y23520000D03*
X38620000Y44060000D03*
X52250000Y22010000D03*
X40270000Y35900000D03*
X10920000Y31510000D03*
X48310000Y8270000D03*
X27150000Y24990000D03*
X23120000Y22400000D03*
X11600000Y11080000D03*
X23210000Y30150000D03*
X34030000Y35810000D03*
X17790000Y34800000D03*
X24970000Y10960000D03*
X28120000Y22970000D03*
X22970000Y10970000D03*
X23210000Y33690000D03*
X45970000Y8210000D03*
X38530000Y30900000D03*
X52250000Y18090000D03*
X15420000Y28820000D03*
X40950000Y19630000D03*
X44000000Y11430000D03*
X42650000Y47900000D03*
D17*
X38470000Y28830000D03*
D16*
X19850500Y32350000D03*
D17*
X32220000Y28830000D03*
D16*
X36880000Y48530000D03*
D17*
X19900000Y37050000D03*
X49235000Y29175000D03*
X21049500Y43050000D03*
X28330000Y32770000D03*
X7595000Y48965000D03*
D16*
X39088178Y26965000D03*
X16419647Y28109647D03*
X39740000Y26310000D03*
X17344722Y27755500D03*
X34130000Y25890000D03*
X12275000Y30249999D03*
X12843707Y31881190D03*
X33630000Y23030000D03*
X51440000Y45720000D03*
X12420000Y48209500D03*
X42340000Y30960000D03*
X42280000Y16820000D03*
X42930000Y14510000D03*
X43401382Y19811382D03*
D18*
X36880000Y48530000D02*
X42020000Y48530000D01*
D19*
X40950000Y14440000D02*
X44000000Y11390000D01*
D18*
X42020000Y48530000D02*
X42650000Y47900000D01*
D19*
X44000000Y11390000D02*
X44000000Y11430000D01*
X19860000Y31000000D02*
X22030000Y28830000D01*
X40060000Y28830000D02*
X32220000Y28830000D01*
X19860000Y37010000D02*
X19860000Y32350000D01*
X40950000Y19630000D02*
X40950000Y14440000D01*
X40950000Y19630000D02*
X40950000Y27940000D01*
X19900000Y37050000D02*
X19860000Y37010000D01*
X40950000Y27940000D02*
X40060000Y28830000D01*
X22030000Y28830000D02*
X32220000Y28830000D01*
X19860000Y32350000D02*
X19860000Y31000000D01*
X19860000Y32350000D02*
X19850500Y32350000D01*
X28330000Y32770000D02*
X45640000Y32770000D01*
D20*
X8370000Y53770000D02*
X7976400Y53770000D01*
D21*
X7976400Y53770000D02*
X6950000Y52743600D01*
D19*
X26360000Y34740000D02*
X26360000Y37320000D01*
X16470000Y47210000D02*
X9350000Y47210000D01*
D20*
X8370000Y53770000D02*
X8093600Y53493600D01*
D21*
X6950000Y52743600D02*
X6950000Y49610000D01*
D19*
X9350000Y47210000D02*
X7595000Y48965000D01*
X6950000Y49610000D02*
X9370000Y47190000D01*
X28330000Y32770000D02*
X26360000Y34740000D01*
X26360000Y37320000D02*
X16470000Y47210000D01*
X45640000Y32770000D02*
X49235000Y29175000D01*
D18*
X38165000Y28005000D02*
X39088178Y27081822D01*
X39088178Y27081822D02*
X39088178Y26965000D01*
X16690500Y28380500D02*
X17603606Y28380500D01*
X21662774Y28030500D02*
X21688274Y28005000D01*
X21688274Y28005000D02*
X38165000Y28005000D01*
X17953606Y28030500D02*
X21662774Y28030500D01*
X16419647Y28109647D02*
X16690500Y28380500D01*
X17603606Y28380500D02*
X17953606Y28030500D01*
X38860000Y26310000D02*
X39740000Y26310000D01*
X17519722Y27580500D02*
X21476378Y27580500D01*
X21501878Y27555000D02*
X37615000Y27555000D01*
X17344722Y27755500D02*
X17519722Y27580500D01*
X37615000Y27555000D02*
X38860000Y26310000D01*
X21476378Y27580500D02*
X21501878Y27555000D01*
X21315482Y27105000D02*
X34130000Y27105000D01*
X14166396Y27710000D02*
X15936116Y27710000D01*
X12275000Y30249999D02*
X12275000Y29601396D01*
X15936116Y27710000D02*
X16515616Y27130500D01*
X34130000Y27105000D02*
X34130000Y25890000D01*
X16515616Y27130500D02*
X21289982Y27130500D01*
X21289982Y27130500D02*
X21315482Y27105000D01*
X12275000Y29601396D02*
X14166396Y27710000D01*
X33220000Y23440000D02*
X33630000Y23030000D01*
X15749720Y27260000D02*
X16329220Y26680500D01*
X21103586Y26680500D02*
X21129086Y26655000D01*
X12843707Y31881190D02*
X11650000Y30687483D01*
X16329220Y26680500D02*
X21103586Y26680500D01*
X33220000Y26655000D02*
X33220000Y23440000D01*
X11650000Y29590000D02*
X13980000Y27260000D01*
X21129086Y26655000D02*
X33220000Y26655000D01*
X13980000Y27260000D02*
X15749720Y27260000D01*
X11650000Y30687483D02*
X11650000Y29590000D01*
X12420000Y48209500D02*
X12594500Y48035000D01*
X19126726Y45720000D02*
X51440000Y45720000D01*
X12594500Y48035000D02*
X16811726Y48035000D01*
X16811726Y48035000D02*
X19126726Y45720000D01*
X41775000Y28281726D02*
X41770000Y28286726D01*
X41770000Y28286726D02*
X41770000Y30390000D01*
X41770000Y30390000D02*
X42340000Y30960000D01*
X42280000Y16820000D02*
X41775000Y17325000D01*
X41775000Y17325000D02*
X41775000Y28281726D01*
X43100000Y14680000D02*
X42930000Y14510000D01*
X43401382Y19811382D02*
X43100000Y19510000D01*
X43100000Y19510000D02*
X43100000Y14680000D01*
G04 #@! TA.AperFunction,Conductor*
G36*
X61230507Y16769844D02*
G01*
X61190000Y16631889D01*
X61190000Y16488111D01*
X61230507Y16350156D01*
X61256314Y16310000D01*
X59583686Y16310000D01*
X59609493Y16350156D01*
X59650000Y16488111D01*
X59650000Y16631889D01*
X59609493Y16769844D01*
X59583686Y16810000D01*
X61256314Y16810000D01*
X61230507Y16769844D01*
G37*
G04 #@! TD.AperFunction*
G04 #@! TA.AperFunction,Conductor*
G36*
X17630000Y15355502D02*
G01*
X17522315Y15404680D01*
X17415763Y15420000D01*
X17344237Y15420000D01*
X17237685Y15404680D01*
X17130000Y15355502D01*
X17130000Y17024499D01*
X17237685Y16975320D01*
X17344237Y16960000D01*
X17415763Y16960000D01*
X17522315Y16975320D01*
X17630000Y17024499D01*
X17630000Y15355502D01*
G37*
G04 #@! TD.AperFunction*
G04 #@! TA.AperFunction,Conductor*
G36*
X62001735Y55949402D02*
G01*
X62156276Y55940724D01*
X62326771Y55931149D01*
X62333661Y55930373D01*
X62606033Y55884095D01*
X62652887Y55876134D01*
X62659671Y55874586D01*
X62970812Y55784948D01*
X62977376Y55782651D01*
X63276531Y55658738D01*
X63282779Y55655728D01*
X63566184Y55499096D01*
X63572062Y55495403D01*
X63836148Y55308023D01*
X63841571Y55303699D01*
X63952956Y55204159D01*
X64083012Y55087933D01*
X64087932Y55083013D01*
X64150987Y55012455D01*
X64303696Y54841574D01*
X64308024Y54836147D01*
X64495398Y54572068D01*
X64499095Y54566185D01*
X64655723Y54282789D01*
X64658740Y54276524D01*
X64668519Y54252915D01*
X64782649Y53977380D01*
X64784947Y53970813D01*
X64874585Y53659672D01*
X64876133Y53652888D01*
X64930370Y53333676D01*
X64931149Y53326762D01*
X64949402Y53001736D01*
X64949500Y52998259D01*
X64949500Y3001742D01*
X64949402Y2998265D01*
X64931149Y2673239D01*
X64930370Y2666325D01*
X64876133Y2347113D01*
X64874585Y2340329D01*
X64784947Y2029188D01*
X64782649Y2022621D01*
X64658742Y1723481D01*
X64655723Y1717212D01*
X64499095Y1433816D01*
X64495393Y1427924D01*
X64308029Y1163860D01*
X64303691Y1158420D01*
X64087932Y916988D01*
X64083012Y912068D01*
X63841580Y696309D01*
X63836140Y691971D01*
X63572076Y504607D01*
X63566184Y500905D01*
X63282788Y344277D01*
X63276519Y341258D01*
X62977379Y217351D01*
X62970812Y215053D01*
X62659671Y125415D01*
X62652887Y123867D01*
X62333675Y69630D01*
X62326761Y68851D01*
X62001735Y50598D01*
X61998258Y50500D01*
X3001742Y50500D01*
X2998265Y50598D01*
X2673238Y68851D01*
X2666324Y69630D01*
X2347112Y123867D01*
X2340328Y125415D01*
X2029187Y215053D01*
X2022620Y217351D01*
X1832992Y295897D01*
X1723476Y341260D01*
X1717211Y344277D01*
X1433815Y500905D01*
X1427932Y504602D01*
X1163853Y691976D01*
X1158426Y696304D01*
X944552Y887434D01*
X916987Y912068D01*
X912067Y916988D01*
X820064Y1019939D01*
X696301Y1158429D01*
X691977Y1163852D01*
X504597Y1427938D01*
X500904Y1433816D01*
X482953Y1466296D01*
X344272Y1717221D01*
X341262Y1723469D01*
X217349Y2022624D01*
X215052Y2029188D01*
X125414Y2340329D01*
X123866Y2347113D01*
X91036Y2540334D01*
X69627Y2666339D01*
X68851Y2673229D01*
X57056Y2883264D01*
X50598Y2998265D01*
X50500Y3001742D01*
X50500Y3411322D01*
X395700Y3411322D01*
X426044Y3058039D01*
X426047Y3058017D01*
X496459Y2710521D01*
X496465Y2710499D01*
X606038Y2373271D01*
X753333Y2050739D01*
X753338Y2050729D01*
X936434Y1747099D01*
X936438Y1747094D01*
X936443Y1747085D01*
X957128Y1720260D01*
X1152963Y1466296D01*
X1152975Y1466282D01*
X1400086Y1212012D01*
X1400095Y1212003D01*
X1674595Y987545D01*
X1674597Y987544D01*
X1972875Y795850D01*
X1972881Y795847D01*
X1972883Y795846D01*
X1972891Y795841D01*
X2291096Y639391D01*
X2625061Y520232D01*
X2970432Y439920D01*
X3256953Y407045D01*
X3322705Y399500D01*
X3322707Y399500D01*
X3588578Y399500D01*
X3677053Y404560D01*
X3854008Y414678D01*
X4203400Y475143D01*
X4543623Y575041D01*
X4870241Y713071D01*
X5178995Y887432D01*
X5465861Y1095853D01*
X5727099Y1335615D01*
X5959304Y1603593D01*
X6159448Y1896294D01*
X6324921Y2209902D01*
X6453568Y2540328D01*
X6488505Y2673240D01*
X6543709Y2883261D01*
X6543710Y2883264D01*
X6594173Y3234241D01*
X6599232Y3411322D01*
X58395700Y3411322D01*
X58426044Y3058039D01*
X58426047Y3058017D01*
X58496459Y2710521D01*
X58496465Y2710499D01*
X58606038Y2373271D01*
X58753333Y2050739D01*
X58753338Y2050729D01*
X58936434Y1747099D01*
X58936438Y1747094D01*
X58936443Y1747085D01*
X58957128Y1720260D01*
X59152963Y1466296D01*
X59152975Y1466282D01*
X59400086Y1212012D01*
X59400095Y1212003D01*
X59674595Y987545D01*
X59674597Y987544D01*
X59972875Y795850D01*
X59972881Y795847D01*
X59972883Y795846D01*
X59972891Y795841D01*
X60291096Y639391D01*
X60625061Y520232D01*
X60970432Y439920D01*
X61256953Y407045D01*
X61322705Y399500D01*
X61322707Y399500D01*
X61588578Y399500D01*
X61677053Y404560D01*
X61854008Y414678D01*
X62203400Y475143D01*
X62543623Y575041D01*
X62870241Y713071D01*
X63178995Y887432D01*
X63465861Y1095853D01*
X63727099Y1335615D01*
X63959304Y1603593D01*
X64159448Y1896294D01*
X64324921Y2209902D01*
X64453568Y2540328D01*
X64488505Y2673240D01*
X64543709Y2883261D01*
X64543710Y2883264D01*
X64594173Y3234241D01*
X64604299Y3588683D01*
X64573955Y3941968D01*
X64573952Y3941984D01*
X64503540Y4289480D01*
X64503534Y4289502D01*
X64448242Y4459672D01*
X64393964Y4626723D01*
X64319357Y4790089D01*
X64246666Y4949262D01*
X64246661Y4949272D01*
X64063565Y5252902D01*
X64063563Y5252904D01*
X64063557Y5252915D01*
X63952908Y5396407D01*
X63847036Y5533705D01*
X63847024Y5533719D01*
X63599913Y5787989D01*
X63599910Y5787992D01*
X63599905Y5787997D01*
X63325405Y6012455D01*
X63325402Y6012457D01*
X63027124Y6204151D01*
X63027118Y6204154D01*
X63027112Y6204157D01*
X63027109Y6204159D01*
X62708904Y6360609D01*
X62708900Y6360611D01*
X62708899Y6360611D01*
X62374940Y6479768D01*
X62181031Y6524859D01*
X62029568Y6560080D01*
X61912143Y6573554D01*
X61677295Y6600500D01*
X61677293Y6600500D01*
X61411424Y6600500D01*
X61411422Y6600500D01*
X61145995Y6585323D01*
X60796608Y6524859D01*
X60796591Y6524855D01*
X60456380Y6424960D01*
X60456377Y6424959D01*
X60304107Y6360609D01*
X60129766Y6286932D01*
X60129761Y6286930D01*
X59821005Y6112569D01*
X59821002Y6112567D01*
X59534138Y5904147D01*
X59272901Y5664385D01*
X59272900Y5664384D01*
X59040695Y5396407D01*
X58840555Y5103712D01*
X58840548Y5103701D01*
X58675085Y4790111D01*
X58675075Y4790089D01*
X58546429Y4459667D01*
X58456290Y4116740D01*
X58405828Y3765767D01*
X58405826Y3765747D01*
X58395700Y3411329D01*
X58395700Y3411322D01*
X6599232Y3411322D01*
X6604299Y3588683D01*
X6573955Y3941968D01*
X6573952Y3941984D01*
X6503540Y4289480D01*
X6503534Y4289502D01*
X6448242Y4459672D01*
X6393964Y4626723D01*
X6319357Y4790089D01*
X6246666Y4949262D01*
X6246661Y4949272D01*
X6063565Y5252902D01*
X6063563Y5252904D01*
X6063557Y5252915D01*
X5952908Y5396407D01*
X5847036Y5533705D01*
X5847024Y5533719D01*
X5599913Y5787989D01*
X5599910Y5787992D01*
X5599905Y5787997D01*
X5325405Y6012455D01*
X5325402Y6012457D01*
X5027124Y6204151D01*
X5027118Y6204154D01*
X5027112Y6204157D01*
X5027109Y6204159D01*
X4708904Y6360609D01*
X4708900Y6360611D01*
X4708899Y6360611D01*
X4374940Y6479768D01*
X4181031Y6524859D01*
X4029568Y6560080D01*
X3912143Y6573554D01*
X3677295Y6600500D01*
X3677293Y6600500D01*
X3411424Y6600500D01*
X3411422Y6600500D01*
X3145995Y6585323D01*
X2796608Y6524859D01*
X2796591Y6524855D01*
X2456380Y6424960D01*
X2456377Y6424959D01*
X2304107Y6360609D01*
X2129766Y6286932D01*
X2129761Y6286930D01*
X1821005Y6112569D01*
X1821002Y6112567D01*
X1534138Y5904147D01*
X1272901Y5664385D01*
X1272900Y5664384D01*
X1040695Y5396407D01*
X840555Y5103712D01*
X840548Y5103701D01*
X675085Y4790111D01*
X675075Y4790089D01*
X546429Y4459667D01*
X456290Y4116740D01*
X405828Y3765767D01*
X405826Y3765747D01*
X395700Y3411329D01*
X395700Y3411322D01*
X50500Y3411322D01*
X50500Y17460000D01*
X13484341Y17460000D01*
X13504936Y17224597D01*
X13504938Y17224587D01*
X13566094Y16996345D01*
X13566096Y16996341D01*
X13566097Y16996337D01*
X13645801Y16825412D01*
X13665965Y16782170D01*
X13665967Y16782166D01*
X13707396Y16723000D01*
X13801504Y16588600D01*
X13801506Y16588598D01*
X13923430Y16466674D01*
X13956915Y16405351D01*
X13951931Y16335659D01*
X13910059Y16279726D01*
X13879083Y16262811D01*
X13747669Y16213797D01*
X13747664Y16213794D01*
X13632455Y16127548D01*
X13632452Y16127545D01*
X13546206Y16012336D01*
X13546202Y16012329D01*
X13495908Y15877483D01*
X13489501Y15817884D01*
X13489500Y15817865D01*
X13489500Y14022130D01*
X13489501Y14022124D01*
X13495908Y13962517D01*
X13546202Y13827672D01*
X13546206Y13827665D01*
X13632452Y13712456D01*
X13632455Y13712453D01*
X13747664Y13626207D01*
X13747671Y13626203D01*
X13882517Y13575909D01*
X13882516Y13575909D01*
X13889444Y13575165D01*
X13942127Y13569500D01*
X15737872Y13569501D01*
X15797483Y13575909D01*
X15932331Y13626204D01*
X16047546Y13712454D01*
X16133796Y13827669D01*
X16183002Y13959599D01*
X16224872Y14015532D01*
X16290337Y14039950D01*
X16358610Y14025099D01*
X16386865Y14003947D01*
X16508917Y13881895D01*
X16702421Y13746400D01*
X16916507Y13646571D01*
X16916516Y13646567D01*
X17130000Y13589366D01*
X17130000Y14484499D01*
X17237685Y14435320D01*
X17344237Y14420000D01*
X17415763Y14420000D01*
X17522315Y14435320D01*
X17630000Y14484499D01*
X17630000Y13589367D01*
X17843483Y13646567D01*
X17843492Y13646571D01*
X18057578Y13746400D01*
X18251082Y13881895D01*
X18418105Y14048918D01*
X18548119Y14234595D01*
X18602696Y14278219D01*
X18672195Y14285412D01*
X18734549Y14253890D01*
X18751269Y14234595D01*
X18881505Y14048599D01*
X19048599Y13881505D01*
X19145384Y13813735D01*
X19242165Y13745968D01*
X19242167Y13745967D01*
X19242170Y13745965D01*
X19456337Y13646097D01*
X19456343Y13646096D01*
X19456344Y13646095D01*
X19511285Y13631374D01*
X19684592Y13584937D01*
X19861034Y13569500D01*
X19919999Y13564341D01*
X19920000Y13564341D01*
X19920001Y13564341D01*
X19978966Y13569500D01*
X20155408Y13584937D01*
X20383663Y13646097D01*
X20597830Y13745965D01*
X20791401Y13881505D01*
X20958495Y14048599D01*
X21094035Y14242170D01*
X21193903Y14456337D01*
X21255063Y14684592D01*
X21275659Y14920000D01*
X21255063Y15155408D01*
X21204168Y15345354D01*
X21193905Y15383656D01*
X21193904Y15383657D01*
X21193903Y15383663D01*
X21094035Y15597829D01*
X21088731Y15605405D01*
X20958494Y15791403D01*
X20791402Y15958494D01*
X20791396Y15958499D01*
X20605842Y16088425D01*
X20562217Y16143002D01*
X20555023Y16212500D01*
X20586546Y16274855D01*
X20605842Y16291575D01*
X20628026Y16307109D01*
X20791401Y16421505D01*
X20958495Y16588599D01*
X21094035Y16782170D01*
X21193903Y16996337D01*
X21255063Y17224592D01*
X21275659Y17460000D01*
X21255063Y17695408D01*
X21193903Y17923663D01*
X21094035Y18137829D01*
X21090753Y18142517D01*
X20958494Y18331403D01*
X20791402Y18498494D01*
X20791395Y18498499D01*
X20789251Y18500000D01*
X20703726Y18559886D01*
X20597834Y18634033D01*
X20597830Y18634035D01*
X20597828Y18634036D01*
X20383663Y18733903D01*
X20383659Y18733904D01*
X20383655Y18733906D01*
X20155413Y18795062D01*
X20155403Y18795064D01*
X19920001Y18815659D01*
X19919999Y18815659D01*
X19684596Y18795064D01*
X19684586Y18795062D01*
X19456344Y18733906D01*
X19456335Y18733902D01*
X19242171Y18634036D01*
X19242169Y18634035D01*
X19048597Y18498495D01*
X18881508Y18331406D01*
X18751269Y18145405D01*
X18696692Y18101781D01*
X18627193Y18094588D01*
X18564839Y18126110D01*
X18548119Y18145406D01*
X18418113Y18331074D01*
X18418108Y18331080D01*
X18251082Y18498106D01*
X18057578Y18633601D01*
X17843492Y18733430D01*
X17843486Y18733433D01*
X17630000Y18790636D01*
X17630000Y17895502D01*
X17522315Y17944680D01*
X17415763Y17960000D01*
X17344237Y17960000D01*
X17237685Y17944680D01*
X17130000Y17895502D01*
X17130000Y18790636D01*
X17129999Y18790636D01*
X16916513Y18733433D01*
X16916507Y18733430D01*
X16702422Y18633601D01*
X16702420Y18633600D01*
X16508926Y18498114D01*
X16508920Y18498109D01*
X16341891Y18331080D01*
X16341890Y18331078D01*
X16211880Y18145405D01*
X16157303Y18101781D01*
X16087804Y18094588D01*
X16025450Y18126110D01*
X16008730Y18145406D01*
X15878494Y18331403D01*
X15711402Y18498494D01*
X15711395Y18498499D01*
X15709251Y18500000D01*
X15623726Y18559886D01*
X15517834Y18634033D01*
X15517830Y18634035D01*
X15517828Y18634036D01*
X15303663Y18733903D01*
X15303659Y18733904D01*
X15303655Y18733906D01*
X15075413Y18795062D01*
X15075403Y18795064D01*
X14840001Y18815659D01*
X14839999Y18815659D01*
X14604596Y18795064D01*
X14604586Y18795062D01*
X14376344Y18733906D01*
X14376335Y18733902D01*
X14162171Y18634036D01*
X14162169Y18634035D01*
X13968597Y18498495D01*
X13801505Y18331403D01*
X13665965Y18137831D01*
X13665964Y18137829D01*
X13612419Y18023001D01*
X13567171Y17925965D01*
X13566098Y17923665D01*
X13566094Y17923656D01*
X13504938Y17695414D01*
X13504936Y17695404D01*
X13484341Y17460001D01*
X13484341Y17460000D01*
X50500Y17460000D01*
X50500Y18497295D01*
X50736Y18502701D01*
X51821Y18515094D01*
X63979Y18654072D01*
X67732Y18675355D01*
X104956Y18814279D01*
X112342Y18834572D01*
X173127Y18964926D01*
X183927Y18983631D01*
X266423Y19101448D01*
X280306Y19117993D01*
X382007Y19219694D01*
X398552Y19233577D01*
X516369Y19316073D01*
X535074Y19326873D01*
X665428Y19387658D01*
X685721Y19395044D01*
X824645Y19432269D01*
X845928Y19436021D01*
X997304Y19449265D01*
X1002706Y19449500D01*
X4091905Y19449500D01*
X4091907Y19449500D01*
X4272928Y19481419D01*
X4445656Y19544287D01*
X4604844Y19636194D01*
X4745653Y19754347D01*
X4863806Y19895156D01*
X4955713Y20054344D01*
X5018581Y20227072D01*
X5050500Y20408093D01*
X5050500Y20500000D01*
X5050500Y20516408D01*
X5050500Y35510045D01*
X5050500Y35591907D01*
X5018581Y35772928D01*
X4955713Y35945656D01*
X4863806Y36104844D01*
X4863804Y36104846D01*
X4863804Y36104847D01*
X4823521Y36152853D01*
X4745653Y36245653D01*
X4654320Y36322291D01*
X4604846Y36363805D01*
X4604842Y36363807D01*
X4445660Y36455711D01*
X4445657Y36455712D01*
X4445656Y36455713D01*
X4375030Y36481419D01*
X4272927Y36518582D01*
X4091909Y36550500D01*
X4091907Y36550500D01*
X4010045Y36550500D01*
X1002706Y36550500D01*
X997304Y36550736D01*
X959718Y36554025D01*
X845930Y36563980D01*
X824645Y36567733D01*
X685729Y36604955D01*
X665417Y36612348D01*
X535081Y36673125D01*
X516363Y36683932D01*
X398559Y36766419D01*
X382001Y36780313D01*
X280312Y36882002D01*
X266418Y36898560D01*
X232819Y36946544D01*
X183930Y37016365D01*
X173124Y37035082D01*
X168176Y37045694D01*
X112344Y37165425D01*
X104954Y37185730D01*
X104500Y37187423D01*
X67732Y37324646D01*
X63979Y37345932D01*
X56211Y37434725D01*
X50735Y37497305D01*
X50500Y37502706D01*
X50500Y52411322D01*
X395700Y52411322D01*
X426044Y52058039D01*
X426047Y52058017D01*
X496459Y51710521D01*
X496465Y51710499D01*
X606038Y51373271D01*
X753333Y51050739D01*
X753338Y51050729D01*
X936434Y50747099D01*
X936438Y50747094D01*
X936443Y50747085D01*
X992840Y50673948D01*
X1152963Y50466296D01*
X1152975Y50466282D01*
X1389447Y50222959D01*
X1400095Y50212003D01*
X1674595Y49987545D01*
X1691761Y49976513D01*
X1972875Y49795850D01*
X1972881Y49795847D01*
X1972883Y49795846D01*
X1972891Y49795841D01*
X2291096Y49639391D01*
X2625061Y49520232D01*
X2970432Y49439920D01*
X3256953Y49407045D01*
X3322705Y49399500D01*
X3322707Y49399500D01*
X3588578Y49399500D01*
X3677053Y49404560D01*
X3854008Y49414678D01*
X4203400Y49475143D01*
X4543623Y49575041D01*
X4870241Y49713071D01*
X5178995Y49887432D01*
X5465861Y50095853D01*
X5727099Y50335615D01*
X5931787Y50571838D01*
X5990565Y50609611D01*
X6060435Y50609611D01*
X6119213Y50571837D01*
X6148238Y50508281D01*
X6149500Y50490634D01*
X6149500Y50250889D01*
X6129815Y50183850D01*
X6125448Y50177497D01*
X6083352Y50120171D01*
X6083349Y50120165D01*
X5998397Y49935275D01*
X5998393Y49935263D01*
X5952396Y49737055D01*
X5947242Y49533642D01*
X5983140Y49333352D01*
X5983142Y49333346D01*
X6014122Y49255789D01*
X6054182Y49155500D01*
X6058623Y49144384D01*
X6058629Y49144372D01*
X6170596Y48974483D01*
X6170599Y48974479D01*
X6815597Y48329482D01*
X6850632Y48294447D01*
X6854719Y48289938D01*
X6884117Y48254117D01*
X6884121Y48254114D01*
X6919936Y48224721D01*
X6924448Y48220632D01*
X7747342Y47397738D01*
X8633548Y46511532D01*
X8694941Y46446947D01*
X8696605Y46445789D01*
X8714367Y46433427D01*
X8718131Y46430588D01*
X8816591Y46350303D01*
X8816593Y46350302D01*
X8996951Y46256091D01*
X9192582Y46200113D01*
X9260213Y46194963D01*
X9395474Y46184663D01*
X9395476Y46184663D01*
X9395477Y46184663D01*
X9424705Y46188386D01*
X9586600Y46209004D01*
X9594430Y46209500D01*
X16004217Y46209500D01*
X16071256Y46189815D01*
X16091898Y46173181D01*
X25323181Y36941899D01*
X25356666Y36880576D01*
X25359500Y36854218D01*
X25359500Y34752717D01*
X25357243Y34663638D01*
X25357243Y34663630D01*
X25368064Y34603261D01*
X25368718Y34598596D01*
X25374925Y34537570D01*
X25374927Y34537556D01*
X25385208Y34504787D01*
X25387079Y34497163D01*
X25393142Y34463348D01*
X25393142Y34463345D01*
X25415894Y34406388D01*
X25417474Y34401949D01*
X25435841Y34343412D01*
X25435844Y34343405D01*
X25452509Y34313381D01*
X25455879Y34306286D01*
X25468622Y34274386D01*
X25468627Y34274376D01*
X25502377Y34223167D01*
X25504818Y34219137D01*
X25534588Y34165502D01*
X25534589Y34165501D01*
X25534591Y34165498D01*
X25556968Y34139433D01*
X25561693Y34133165D01*
X25574263Y34114094D01*
X25580598Y34104481D01*
X25623978Y34061101D01*
X25627169Y34057657D01*
X25667131Y34011108D01*
X25667134Y34011105D01*
X25694294Y33990082D01*
X25700190Y33984889D01*
X27585641Y32099438D01*
X27589720Y32094937D01*
X27619117Y32059117D01*
X27644502Y32038283D01*
X27650093Y32033086D01*
X27668840Y32013365D01*
X27674939Y32006949D01*
X27674941Y32006947D01*
X27723907Y31972865D01*
X27727822Y31969903D01*
X27771458Y31934092D01*
X27771692Y31933936D01*
X27776440Y31930427D01*
X27776594Y31930301D01*
X27776596Y31930300D01*
X27807038Y31914399D01*
X27813756Y31910329D01*
X27841951Y31890705D01*
X27841953Y31890704D01*
X27841952Y31890704D01*
X27893683Y31868505D01*
X27898446Y31866216D01*
X27942155Y31842853D01*
X27945271Y31841187D01*
X27952027Y31838388D01*
X27956901Y31836112D01*
X27956945Y31836094D01*
X27956951Y31836091D01*
X27984489Y31828212D01*
X27989974Y31826642D01*
X27997368Y31824010D01*
X28028942Y31810460D01*
X28080792Y31799805D01*
X28086286Y31798410D01*
X28126943Y31786077D01*
X28133871Y31783975D01*
X28139843Y31782787D01*
X28139795Y31782547D01*
X28152337Y31780157D01*
X28152581Y31780113D01*
X28156326Y31779828D01*
X28186839Y31777505D01*
X28194614Y31776414D01*
X28228255Y31769500D01*
X28228259Y31769500D01*
X28277800Y31769500D01*
X28283880Y31769201D01*
X28301569Y31767460D01*
X28330000Y31764659D01*
X28330346Y31764694D01*
X28351921Y31764934D01*
X28355477Y31764663D01*
X28389559Y31769004D01*
X28397391Y31769500D01*
X41718060Y31769500D01*
X41785099Y31749815D01*
X41830854Y31697011D01*
X41840798Y31627853D01*
X41811773Y31564297D01*
X41805741Y31557819D01*
X41710184Y31462263D01*
X41614210Y31309522D01*
X41554630Y31139250D01*
X41549326Y31092175D01*
X41522258Y31027762D01*
X41513787Y31018380D01*
X41386208Y30890801D01*
X41373951Y30880980D01*
X41374134Y30880759D01*
X41368123Y30875787D01*
X41320772Y30825364D01*
X41299889Y30804481D01*
X41299877Y30804468D01*
X41295621Y30798983D01*
X41291837Y30794553D01*
X41259937Y30760582D01*
X41259936Y30760580D01*
X41250284Y30743024D01*
X41239610Y30726774D01*
X41227329Y30710939D01*
X41227324Y30710932D01*
X41208815Y30668162D01*
X41206245Y30662916D01*
X41183803Y30622094D01*
X41178822Y30602693D01*
X41172521Y30584290D01*
X41164562Y30565898D01*
X41164561Y30565895D01*
X41157271Y30519873D01*
X41156087Y30514154D01*
X41144501Y30469028D01*
X41144500Y30469018D01*
X41144500Y30448984D01*
X41142973Y30429587D01*
X41142920Y30429249D01*
X41139840Y30409806D01*
X41139840Y30409805D01*
X41144225Y30363417D01*
X41144500Y30357579D01*
X41144500Y29459783D01*
X41124815Y29392744D01*
X41072011Y29346989D01*
X41002853Y29337045D01*
X40939297Y29366070D01*
X40932819Y29372102D01*
X40776451Y29528469D01*
X40715061Y29593051D01*
X40715060Y29593052D01*
X40715059Y29593053D01*
X40687204Y29612441D01*
X40664709Y29628098D01*
X40660946Y29630936D01*
X40613413Y29669695D01*
X40613406Y29669700D01*
X40582959Y29685603D01*
X40576251Y29689666D01*
X40548049Y29709295D01*
X40548046Y29709297D01*
X40548045Y29709297D01*
X40548041Y29709299D01*
X40491680Y29733486D01*
X40487424Y29735507D01*
X40433057Y29763906D01*
X40433050Y29763909D01*
X40433049Y29763909D01*
X40423086Y29766760D01*
X40400030Y29773358D01*
X40392630Y29775992D01*
X40361057Y29789541D01*
X40361058Y29789541D01*
X40300966Y29801891D01*
X40296391Y29803014D01*
X40237420Y29819887D01*
X40237425Y29819887D01*
X40203158Y29822497D01*
X40195380Y29823588D01*
X40161742Y29830500D01*
X40161741Y29830500D01*
X40100402Y29830500D01*
X40095695Y29830679D01*
X40090121Y29831104D01*
X40034524Y29835338D01*
X40014589Y29832799D01*
X40000440Y29830997D01*
X39992611Y29830500D01*
X38522200Y29830500D01*
X38516119Y29830799D01*
X38470000Y29835341D01*
X38423881Y29830799D01*
X38417800Y29830500D01*
X32272200Y29830500D01*
X32266119Y29830799D01*
X32220000Y29835341D01*
X32173881Y29830799D01*
X32167800Y29830500D01*
X22495783Y29830500D01*
X22428744Y29850185D01*
X22408102Y29866819D01*
X20896819Y31378102D01*
X20863334Y31439425D01*
X20860500Y31465783D01*
X20860500Y32323072D01*
X20860580Y32326212D01*
X20863482Y32383453D01*
X20864369Y32400936D01*
X20861930Y32416858D01*
X20860500Y32435634D01*
X20860500Y36751336D01*
X20865839Y36787330D01*
X20886024Y36853868D01*
X20886024Y36853874D01*
X20887212Y36859842D01*
X20887453Y36859795D01*
X20889831Y36872273D01*
X20889884Y36872573D01*
X20889887Y36872582D01*
X20896771Y36962989D01*
X20905341Y37050000D01*
X20905306Y37050346D01*
X20905067Y37071936D01*
X20905337Y37075477D01*
X20894284Y37162264D01*
X20886024Y37246132D01*
X20884879Y37249907D01*
X20880532Y37270242D01*
X20879629Y37277333D01*
X20852353Y37357127D01*
X20828815Y37434724D01*
X20828815Y37434725D01*
X20828814Y37434727D01*
X20825265Y37441367D01*
X20817288Y37459715D01*
X20813818Y37469868D01*
X20813811Y37469883D01*
X20772640Y37539820D01*
X20742263Y37596653D01*
X20735910Y37608538D01*
X20735909Y37608540D01*
X20728863Y37617125D01*
X20717857Y37632884D01*
X20710592Y37645225D01*
X20710590Y37645228D01*
X20692677Y37665055D01*
X20659287Y37702013D01*
X20657372Y37704237D01*
X20616760Y37753722D01*
X20610883Y37760883D01*
X20610881Y37760885D01*
X20610880Y37760886D01*
X20606300Y37764644D01*
X20599522Y37770207D01*
X20586189Y37782921D01*
X20574179Y37796214D01*
X20515218Y37839509D01*
X20512585Y37841555D01*
X20458539Y37885909D01*
X20458538Y37885910D01*
X20442413Y37894529D01*
X20427478Y37903938D01*
X20410172Y37916646D01*
X20410166Y37916650D01*
X20346763Y37945783D01*
X20343422Y37947441D01*
X20284727Y37978814D01*
X20259767Y37986387D01*
X20251877Y37989381D01*
X20225269Y38001606D01*
X20225263Y38001608D01*
X20160575Y38016620D01*
X20156593Y38017685D01*
X20096140Y38036022D01*
X20096134Y38036024D01*
X20096132Y38036024D01*
X20096130Y38036025D01*
X20096127Y38036025D01*
X20066818Y38038912D01*
X20058878Y38040219D01*
X20050201Y38042232D01*
X20027052Y38047604D01*
X19964030Y38049201D01*
X19959524Y38049480D01*
X19900002Y38055341D01*
X19899995Y38055341D01*
X19867320Y38052124D01*
X19859670Y38051845D01*
X19823641Y38052757D01*
X19823632Y38052757D01*
X19764910Y38042232D01*
X19760048Y38041558D01*
X19703868Y38036025D01*
X19669214Y38025513D01*
X19662152Y38023815D01*
X19623348Y38016860D01*
X19623346Y38016859D01*
X19571069Y37995978D01*
X19566069Y37994224D01*
X19515273Y37978815D01*
X19480363Y37960156D01*
X19474134Y37957257D01*
X19434384Y37941379D01*
X19390191Y37912254D01*
X19385299Y37909343D01*
X19341461Y37885910D01*
X19308246Y37858651D01*
X19303029Y37854808D01*
X19264485Y37829405D01*
X19264483Y37829404D01*
X19229449Y37794371D01*
X19224941Y37790285D01*
X19189119Y37760886D01*
X19189118Y37760886D01*
X19160909Y37726513D01*
X19155695Y37720905D01*
X19096949Y37665062D01*
X19096943Y37665055D01*
X19074552Y37632884D01*
X19063584Y37617125D01*
X19061902Y37614709D01*
X19059065Y37610947D01*
X19020303Y37563409D01*
X19020299Y37563403D01*
X19004392Y37532953D01*
X19000324Y37526239D01*
X18980702Y37498046D01*
X18956509Y37441670D01*
X18954488Y37437416D01*
X18926091Y37383049D01*
X18926090Y37383048D01*
X18916640Y37350025D01*
X18914007Y37342629D01*
X18900459Y37311057D01*
X18888113Y37250981D01*
X18886990Y37246405D01*
X18870113Y37187423D01*
X18870113Y37187421D01*
X18867503Y37153159D01*
X18866414Y37145392D01*
X18860980Y37118948D01*
X18859500Y37111742D01*
X18859500Y37050403D01*
X18859321Y37045694D01*
X18854662Y36984526D01*
X18856707Y36968473D01*
X18859003Y36950440D01*
X18859500Y36942612D01*
X18859500Y32529907D01*
X18856786Y32508595D01*
X18857390Y32508502D01*
X18856437Y32502283D01*
X18846131Y32299064D01*
X18858070Y32221132D01*
X18859500Y32202355D01*
X18859500Y31012717D01*
X18857243Y30923638D01*
X18857243Y30923630D01*
X18868064Y30863261D01*
X18868718Y30858596D01*
X18874925Y30797570D01*
X18874927Y30797556D01*
X18885208Y30764787D01*
X18887079Y30757163D01*
X18893142Y30723348D01*
X18893142Y30723345D01*
X18915894Y30666388D01*
X18917474Y30661949D01*
X18935841Y30603412D01*
X18935844Y30603405D01*
X18952509Y30573381D01*
X18955879Y30566286D01*
X18968622Y30534386D01*
X18968627Y30534376D01*
X19002377Y30483167D01*
X19004818Y30479137D01*
X19034588Y30425502D01*
X19034589Y30425501D01*
X19034591Y30425498D01*
X19056968Y30399433D01*
X19061693Y30393165D01*
X19074263Y30374094D01*
X19080598Y30364481D01*
X19123978Y30321101D01*
X19127169Y30317657D01*
X19167131Y30271108D01*
X19167134Y30271105D01*
X19194294Y30250082D01*
X19200190Y30244889D01*
X20577398Y28867681D01*
X20610883Y28806358D01*
X20605899Y28736666D01*
X20564027Y28680733D01*
X20498563Y28656316D01*
X20489717Y28656000D01*
X18264060Y28656000D01*
X18197021Y28675685D01*
X18176379Y28692318D01*
X18104410Y28764286D01*
X18094592Y28776543D01*
X18094370Y28776359D01*
X18089395Y28782371D01*
X18089392Y28782377D01*
X18054410Y28815227D01*
X18038969Y28829728D01*
X18018080Y28850617D01*
X18018079Y28850618D01*
X18018077Y28850620D01*
X18012590Y28854877D01*
X18008156Y28858664D01*
X17974188Y28890562D01*
X17974187Y28890563D01*
X17974183Y28890565D01*
X17956635Y28900212D01*
X17940369Y28910896D01*
X17924542Y28923173D01*
X17924541Y28923174D01*
X17924539Y28923175D01*
X17881774Y28941682D01*
X17876528Y28944252D01*
X17835699Y28966697D01*
X17835698Y28966698D01*
X17816299Y28971678D01*
X17797887Y28977982D01*
X17779504Y28985938D01*
X17779498Y28985940D01*
X17733480Y28993228D01*
X17727758Y28994413D01*
X17682627Y29006000D01*
X17682625Y29006000D01*
X17662590Y29006000D01*
X17643192Y29007527D01*
X17635768Y29008703D01*
X17623411Y29010660D01*
X17623410Y29010660D01*
X17577022Y29006275D01*
X17571184Y29006000D01*
X16773243Y29006000D01*
X16757622Y29007725D01*
X16757596Y29007439D01*
X16749834Y29008173D01*
X16749833Y29008173D01*
X16680686Y29006000D01*
X16651149Y29006000D01*
X16644266Y29005131D01*
X16638449Y29004674D01*
X16591873Y29003210D01*
X16572629Y28997619D01*
X16553579Y28993675D01*
X16533711Y28991166D01*
X16490384Y28974012D01*
X16484858Y28972121D01*
X16440114Y28959121D01*
X16440110Y28959119D01*
X16422866Y28948921D01*
X16405405Y28940367D01*
X16386774Y28932990D01*
X16386768Y28932986D01*
X16378255Y28926801D01*
X16319257Y28903902D01*
X16240397Y28895017D01*
X16070125Y28835437D01*
X15917384Y28739463D01*
X15789831Y28611910D01*
X15693859Y28459172D01*
X15693857Y28459169D01*
X15679643Y28418545D01*
X15638922Y28361769D01*
X15573969Y28336022D01*
X15562602Y28335500D01*
X14476848Y28335500D01*
X14409809Y28355185D01*
X14389167Y28371819D01*
X13016581Y29744406D01*
X12983096Y29805729D01*
X12988080Y29875421D01*
X12999269Y29898059D01*
X13000789Y29900477D01*
X13060368Y30070744D01*
X13067147Y30130910D01*
X13080565Y30249996D01*
X13080565Y30250003D01*
X13060369Y30429249D01*
X13060368Y30429254D01*
X13030660Y30514154D01*
X13000789Y30599521D01*
X12986605Y30622094D01*
X12922983Y30723348D01*
X12904816Y30752261D01*
X12839772Y30817305D01*
X12806287Y30878628D01*
X12811271Y30948320D01*
X12839770Y30992665D01*
X12902086Y31054981D01*
X12963407Y31088464D01*
X12975863Y31090516D01*
X13022962Y31095822D01*
X13193229Y31155401D01*
X13345969Y31251374D01*
X13473523Y31378928D01*
X13569496Y31531668D01*
X13629075Y31701935D01*
X13634470Y31749815D01*
X13649272Y31881187D01*
X13649272Y31881194D01*
X13629076Y32060440D01*
X13629075Y32060445D01*
X13615427Y32099448D01*
X13569496Y32230712D01*
X13473523Y32383452D01*
X13345969Y32511006D01*
X13193230Y32606979D01*
X13022961Y32666559D01*
X13022956Y32666560D01*
X12843711Y32686755D01*
X12843703Y32686755D01*
X12664457Y32666560D01*
X12664452Y32666559D01*
X12494183Y32606979D01*
X12341444Y32511006D01*
X12213891Y32383453D01*
X12117917Y32230712D01*
X12058337Y32060440D01*
X12053033Y32013365D01*
X12025965Y31948951D01*
X12017494Y31939569D01*
X11266208Y31188284D01*
X11253951Y31178463D01*
X11254134Y31178242D01*
X11248123Y31173270D01*
X11200772Y31122847D01*
X11179889Y31101964D01*
X11179877Y31101951D01*
X11175621Y31096466D01*
X11171837Y31092036D01*
X11139937Y31058065D01*
X11139936Y31058063D01*
X11130284Y31040507D01*
X11119610Y31024257D01*
X11107329Y31008422D01*
X11107324Y31008415D01*
X11088815Y30965645D01*
X11086245Y30960399D01*
X11063803Y30919577D01*
X11058822Y30900176D01*
X11052521Y30881773D01*
X11044562Y30863381D01*
X11044561Y30863378D01*
X11037271Y30817356D01*
X11036087Y30811637D01*
X11024501Y30766511D01*
X11024500Y30766501D01*
X11024500Y30746467D01*
X11022973Y30727068D01*
X11019840Y30707289D01*
X11019840Y30707288D01*
X11024225Y30660900D01*
X11024500Y30655062D01*
X11024500Y29672745D01*
X11022775Y29657128D01*
X11023061Y29657101D01*
X11022326Y29649335D01*
X11024500Y29580186D01*
X11024500Y29550657D01*
X11024501Y29550640D01*
X11025368Y29543769D01*
X11025826Y29537950D01*
X11027290Y29491376D01*
X11027291Y29491373D01*
X11032880Y29472133D01*
X11036824Y29453089D01*
X11039336Y29433208D01*
X11056490Y29389881D01*
X11058382Y29384353D01*
X11071381Y29339612D01*
X11081580Y29322366D01*
X11090138Y29304897D01*
X11097514Y29286268D01*
X11124898Y29248577D01*
X11128106Y29243693D01*
X11151827Y29203584D01*
X11151833Y29203576D01*
X11165990Y29189420D01*
X11178628Y29174624D01*
X11190405Y29158414D01*
X11190406Y29158413D01*
X11226309Y29128712D01*
X11230620Y29124790D01*
X12525910Y27829500D01*
X13479194Y26876216D01*
X13489019Y26863952D01*
X13489240Y26864134D01*
X13494210Y26858127D01*
X13494213Y26858124D01*
X13494214Y26858123D01*
X13544651Y26810759D01*
X13565530Y26789880D01*
X13571004Y26785634D01*
X13575442Y26781844D01*
X13609418Y26749938D01*
X13609422Y26749936D01*
X13626973Y26740287D01*
X13643231Y26729608D01*
X13659064Y26717326D01*
X13681015Y26707828D01*
X13701837Y26698817D01*
X13707081Y26696248D01*
X13747908Y26673803D01*
X13767312Y26668821D01*
X13785710Y26662522D01*
X13804105Y26654562D01*
X13850129Y26647274D01*
X13855832Y26646093D01*
X13900981Y26634500D01*
X13921016Y26634500D01*
X13940413Y26632974D01*
X13960196Y26629840D01*
X14006584Y26634225D01*
X14012422Y26634500D01*
X15439268Y26634500D01*
X15506307Y26614815D01*
X15526949Y26598181D01*
X15828414Y26296716D01*
X15838239Y26284452D01*
X15838460Y26284634D01*
X15843430Y26278627D01*
X15843433Y26278624D01*
X15843434Y26278623D01*
X15893871Y26231259D01*
X15914750Y26210380D01*
X15920224Y26206134D01*
X15924662Y26202344D01*
X15958638Y26170438D01*
X15958642Y26170436D01*
X15976193Y26160787D01*
X15992451Y26150108D01*
X16008284Y26137826D01*
X16030235Y26128328D01*
X16051057Y26119317D01*
X16056301Y26116748D01*
X16097128Y26094303D01*
X16116532Y26089321D01*
X16134930Y26083022D01*
X16153325Y26075062D01*
X16199349Y26067774D01*
X16205052Y26066593D01*
X16250201Y26055000D01*
X16270236Y26055000D01*
X16289633Y26053474D01*
X16309416Y26050340D01*
X16355804Y26054725D01*
X16361642Y26055000D01*
X20916827Y26055000D01*
X20951419Y26050077D01*
X20953183Y26049565D01*
X20953186Y26049565D01*
X20953190Y26049563D01*
X20997161Y26042599D01*
X20999205Y26042275D01*
X21004925Y26041091D01*
X21050067Y26029500D01*
X21070102Y26029500D01*
X21089500Y26027974D01*
X21109280Y26024841D01*
X21109281Y26024840D01*
X21109281Y26024841D01*
X21109282Y26024840D01*
X21155670Y26029225D01*
X21161508Y26029500D01*
X32470500Y26029500D01*
X32537539Y26009815D01*
X32583294Y25957011D01*
X32594500Y25905500D01*
X32594500Y23522745D01*
X32592775Y23507128D01*
X32593061Y23507101D01*
X32592326Y23499335D01*
X32594500Y23430186D01*
X32594500Y23400657D01*
X32594501Y23400640D01*
X32595368Y23393769D01*
X32595826Y23387950D01*
X32597290Y23341376D01*
X32597291Y23341373D01*
X32602880Y23322133D01*
X32606824Y23303089D01*
X32609336Y23283209D01*
X32626490Y23239881D01*
X32628382Y23234353D01*
X32641381Y23189612D01*
X32651580Y23172366D01*
X32660138Y23154897D01*
X32667514Y23136268D01*
X32694898Y23098577D01*
X32698106Y23093693D01*
X32721827Y23053584D01*
X32721833Y23053576D01*
X32735990Y23039420D01*
X32748628Y23024624D01*
X32760405Y23008414D01*
X32760406Y23008413D01*
X32796309Y22978712D01*
X32800620Y22974790D01*
X32803787Y22971623D01*
X32837272Y22910300D01*
X32839326Y22897827D01*
X32844630Y22850751D01*
X32904210Y22680479D01*
X33000184Y22527738D01*
X33127738Y22400184D01*
X33280478Y22304211D01*
X33450745Y22244632D01*
X33450750Y22244631D01*
X33629996Y22224435D01*
X33630000Y22224435D01*
X33630004Y22224435D01*
X33809249Y22244631D01*
X33809252Y22244632D01*
X33809255Y22244632D01*
X33979522Y22304211D01*
X34132262Y22400184D01*
X34259816Y22527738D01*
X34355789Y22680478D01*
X34415368Y22850745D01*
X34420673Y22897827D01*
X34435565Y23029997D01*
X34435565Y23030004D01*
X34415369Y23209250D01*
X34415368Y23209255D01*
X34389490Y23283209D01*
X34355789Y23379522D01*
X34350493Y23387950D01*
X34316582Y23441920D01*
X34259816Y23532262D01*
X34132262Y23659816D01*
X33979522Y23755789D01*
X33979520Y23755790D01*
X33928545Y23773627D01*
X33871769Y23814349D01*
X33846022Y23879302D01*
X33845500Y23890668D01*
X33845500Y24977734D01*
X33865185Y25044773D01*
X33917989Y25090528D01*
X33983383Y25100954D01*
X34129996Y25084435D01*
X34130000Y25084435D01*
X34130004Y25084435D01*
X34309249Y25104631D01*
X34309252Y25104632D01*
X34309255Y25104632D01*
X34479522Y25164211D01*
X34632262Y25260184D01*
X34759816Y25387738D01*
X34855789Y25540478D01*
X34915368Y25710745D01*
X34916839Y25723802D01*
X34935565Y25889997D01*
X34935565Y25890004D01*
X34915369Y26069250D01*
X34915368Y26069255D01*
X34906603Y26094305D01*
X34855789Y26239522D01*
X34774505Y26368884D01*
X34755500Y26434855D01*
X34755500Y26805500D01*
X34775185Y26872539D01*
X34827989Y26918294D01*
X34879500Y26929500D01*
X37304548Y26929500D01*
X37371587Y26909815D01*
X37392229Y26893181D01*
X38359197Y25926212D01*
X38369022Y25913949D01*
X38369243Y25914131D01*
X38374214Y25908122D01*
X38393513Y25890000D01*
X38424635Y25860774D01*
X38445529Y25839880D01*
X38451011Y25835627D01*
X38455443Y25831843D01*
X38489418Y25799938D01*
X38506976Y25790286D01*
X38523233Y25779607D01*
X38539064Y25767327D01*
X38558737Y25758814D01*
X38581833Y25748818D01*
X38587077Y25746250D01*
X38627908Y25723803D01*
X38640523Y25720565D01*
X38647305Y25718823D01*
X38665719Y25712519D01*
X38684104Y25704562D01*
X38730157Y25697268D01*
X38735826Y25696094D01*
X38780981Y25684500D01*
X38801016Y25684500D01*
X38820413Y25682974D01*
X38840196Y25679840D01*
X38886584Y25684225D01*
X38892422Y25684500D01*
X39195145Y25684500D01*
X39261116Y25665495D01*
X39390478Y25584211D01*
X39515460Y25540478D01*
X39560745Y25524632D01*
X39560750Y25524631D01*
X39739996Y25504435D01*
X39740000Y25504435D01*
X39740003Y25504435D01*
X39811616Y25512504D01*
X39880438Y25500450D01*
X39931818Y25453101D01*
X39949500Y25389284D01*
X39949500Y14452717D01*
X39947243Y14363638D01*
X39947243Y14363630D01*
X39958064Y14303261D01*
X39958718Y14298596D01*
X39964925Y14237570D01*
X39964927Y14237556D01*
X39975208Y14204787D01*
X39977079Y14197163D01*
X39983142Y14163348D01*
X39983142Y14163345D01*
X40005894Y14106388D01*
X40007474Y14101949D01*
X40025841Y14043412D01*
X40025844Y14043405D01*
X40042509Y14013381D01*
X40045879Y14006286D01*
X40058622Y13974386D01*
X40058627Y13974376D01*
X40092377Y13923167D01*
X40094818Y13919137D01*
X40124588Y13865502D01*
X40124589Y13865501D01*
X40124591Y13865498D01*
X40146968Y13839433D01*
X40151693Y13833165D01*
X40155318Y13827665D01*
X40170598Y13804481D01*
X40213978Y13761101D01*
X40217169Y13757657D01*
X40257131Y13711108D01*
X40257134Y13711105D01*
X40260377Y13708595D01*
X40284294Y13690082D01*
X40290190Y13684889D01*
X43263966Y10711113D01*
X43267170Y10707657D01*
X43307130Y10661108D01*
X43307134Y10661105D01*
X43377561Y10606590D01*
X43446593Y10550302D01*
X43448155Y10549486D01*
X43466645Y10537634D01*
X43468042Y10536552D01*
X43548020Y10497321D01*
X43626951Y10456091D01*
X43628644Y10455607D01*
X43649142Y10447719D01*
X43650729Y10446940D01*
X43736966Y10424612D01*
X43822582Y10400114D01*
X43824336Y10399981D01*
X43846003Y10396381D01*
X43847715Y10395937D01*
X43936671Y10391426D01*
X43954432Y10390074D01*
X44025472Y10384663D01*
X44025473Y10384664D01*
X44025476Y10384663D01*
X44027220Y10384886D01*
X44049167Y10385721D01*
X44050936Y10385631D01*
X44138957Y10399116D01*
X44227328Y10410370D01*
X44228994Y10410940D01*
X44250343Y10416180D01*
X44252071Y10416444D01*
X44335572Y10447370D01*
X44361087Y10456091D01*
X44419867Y10476182D01*
X44419868Y10476183D01*
X44419872Y10476184D01*
X44421386Y10477076D01*
X44441243Y10486505D01*
X44442882Y10487112D01*
X44442883Y10487113D01*
X44442887Y10487114D01*
X44442891Y10487117D01*
X44442894Y10487118D01*
X44470723Y10504466D01*
X44518488Y10534237D01*
X44595227Y10579410D01*
X44596524Y10580583D01*
X44614087Y10593824D01*
X44615571Y10594748D01*
X44628028Y10606590D01*
X44680148Y10656134D01*
X44737176Y10707657D01*
X44746213Y10715821D01*
X44747256Y10717242D01*
X44761771Y10733723D01*
X44763053Y10734941D01*
X44813944Y10808059D01*
X44866649Y10879833D01*
X44867381Y10881427D01*
X44878290Y10900509D01*
X44879295Y10901951D01*
X44914427Y10983819D01*
X44951605Y11064732D01*
X44952000Y11066436D01*
X44958847Y11087330D01*
X44959540Y11088942D01*
X44977470Y11176195D01*
X44997602Y11262947D01*
X44997646Y11264693D01*
X45000148Y11286548D01*
X45000500Y11288259D01*
X45000500Y11377325D01*
X45002756Y11466364D01*
X45001336Y11474284D01*
X45000683Y11478945D01*
X44985074Y11632440D01*
X44924162Y11826580D01*
X44924160Y11826584D01*
X44924159Y11826588D01*
X44825409Y12004502D01*
X44825408Y12004503D01*
X44825407Y12004505D01*
X44692868Y12158893D01*
X44692867Y12158894D01*
X44692866Y12158895D01*
X44531958Y12283448D01*
X44529873Y12284471D01*
X44526855Y12286629D01*
X44526625Y12286772D01*
X44526634Y12286787D01*
X44496804Y12308116D01*
X43227340Y13577580D01*
X43193855Y13638903D01*
X43198839Y13708595D01*
X43240711Y13764528D01*
X43274072Y13782305D01*
X43279522Y13784211D01*
X43432262Y13880184D01*
X43559816Y14007738D01*
X43567521Y14020000D01*
X57794341Y14020000D01*
X57814936Y13784597D01*
X57814938Y13784587D01*
X57876094Y13556345D01*
X57876096Y13556341D01*
X57876097Y13556337D01*
X57880000Y13547968D01*
X57975965Y13342170D01*
X57975967Y13342166D01*
X58084281Y13187479D01*
X58111505Y13148599D01*
X58278599Y12981505D01*
X58375384Y12913735D01*
X58472165Y12845968D01*
X58472167Y12845967D01*
X58472170Y12845965D01*
X58686337Y12746097D01*
X58914592Y12684937D01*
X59102918Y12668461D01*
X59149999Y12664341D01*
X59150000Y12664341D01*
X59150001Y12664341D01*
X59189234Y12667774D01*
X59385408Y12684937D01*
X59613663Y12746097D01*
X59827830Y12845965D01*
X60021401Y12981505D01*
X60188495Y13148599D01*
X60318425Y13334158D01*
X60373002Y13377783D01*
X60442500Y13384977D01*
X60504855Y13353454D01*
X60521575Y13334158D01*
X60651500Y13148605D01*
X60651505Y13148599D01*
X60818599Y12981505D01*
X60915384Y12913735D01*
X61012165Y12845968D01*
X61012167Y12845967D01*
X61012170Y12845965D01*
X61226337Y12746097D01*
X61454592Y12684937D01*
X61642918Y12668461D01*
X61689999Y12664341D01*
X61690000Y12664341D01*
X61690001Y12664341D01*
X61729234Y12667774D01*
X61925408Y12684937D01*
X62153663Y12746097D01*
X62367830Y12845965D01*
X62561401Y12981505D01*
X62728495Y13148599D01*
X62864035Y13342170D01*
X62963903Y13556337D01*
X63025063Y13784592D01*
X63045659Y14020000D01*
X63025063Y14255408D01*
X62963903Y14483663D01*
X62864035Y14697829D01*
X62858425Y14705842D01*
X62728494Y14891403D01*
X62561402Y15058494D01*
X62561401Y15058495D01*
X62375405Y15188731D01*
X62331781Y15243308D01*
X62324588Y15312807D01*
X62356110Y15375161D01*
X62375405Y15391881D01*
X62561082Y15521895D01*
X62728105Y15688918D01*
X62863600Y15882422D01*
X62963429Y16096508D01*
X62963432Y16096514D01*
X63020636Y16310000D01*
X62123686Y16310000D01*
X62149493Y16350156D01*
X62190000Y16488111D01*
X62190000Y16631889D01*
X62149493Y16769844D01*
X62123686Y16810000D01*
X63020636Y16810000D01*
X63020635Y16810001D01*
X62963432Y17023487D01*
X62963429Y17023493D01*
X62863600Y17237578D01*
X62863599Y17237580D01*
X62728113Y17431074D01*
X62728108Y17431080D01*
X62561078Y17598110D01*
X62375405Y17728121D01*
X62331780Y17782698D01*
X62324588Y17852196D01*
X62356110Y17914551D01*
X62375406Y17931270D01*
X62561401Y18061505D01*
X62728495Y18228599D01*
X62864035Y18422170D01*
X62963903Y18636337D01*
X63025063Y18864592D01*
X63045659Y19100000D01*
X63044755Y19110327D01*
X63026755Y19316069D01*
X63025063Y19335408D01*
X62963903Y19563663D01*
X62864035Y19777829D01*
X62840544Y19811379D01*
X62728494Y19971403D01*
X62561402Y20138494D01*
X62561395Y20138499D01*
X62367834Y20274033D01*
X62367830Y20274035D01*
X62367828Y20274036D01*
X62153663Y20373903D01*
X62153659Y20373904D01*
X62153655Y20373906D01*
X61925413Y20435062D01*
X61925403Y20435064D01*
X61690001Y20455659D01*
X61689999Y20455659D01*
X61454596Y20435064D01*
X61454586Y20435062D01*
X61226344Y20373906D01*
X61226335Y20373902D01*
X61012171Y20274036D01*
X61012169Y20274035D01*
X60818600Y20138497D01*
X60696673Y20016570D01*
X60635350Y19983086D01*
X60565658Y19988070D01*
X60509725Y20029942D01*
X60492810Y20060919D01*
X60443797Y20192329D01*
X60443793Y20192336D01*
X60357547Y20307545D01*
X60357544Y20307548D01*
X60242335Y20393794D01*
X60242328Y20393798D01*
X60107482Y20444092D01*
X60107483Y20444092D01*
X60047883Y20450499D01*
X60047881Y20450500D01*
X60047873Y20450500D01*
X60047864Y20450500D01*
X58252129Y20450500D01*
X58252123Y20450499D01*
X58192516Y20444092D01*
X58057671Y20393798D01*
X58057664Y20393794D01*
X57942455Y20307548D01*
X57942452Y20307545D01*
X57856206Y20192336D01*
X57856202Y20192329D01*
X57805908Y20057483D01*
X57799501Y19997884D01*
X57799500Y19997865D01*
X57799500Y18202130D01*
X57799501Y18202124D01*
X57805908Y18142517D01*
X57856202Y18007672D01*
X57856206Y18007665D01*
X57942452Y17892456D01*
X57942455Y17892453D01*
X58057664Y17806207D01*
X58057671Y17806203D01*
X58119902Y17782993D01*
X58189598Y17756998D01*
X58245531Y17715127D01*
X58269949Y17649663D01*
X58255098Y17581390D01*
X58233947Y17553135D01*
X58111886Y17431074D01*
X57976400Y17237580D01*
X57976399Y17237578D01*
X57876570Y17023493D01*
X57876567Y17023487D01*
X57819364Y16810001D01*
X57819364Y16810000D01*
X58716314Y16810000D01*
X58690507Y16769844D01*
X58650000Y16631889D01*
X58650000Y16488111D01*
X58690507Y16350156D01*
X58716314Y16310000D01*
X57819364Y16310000D01*
X57876567Y16096514D01*
X57876570Y16096508D01*
X57976399Y15882422D01*
X58111894Y15688918D01*
X58278917Y15521895D01*
X58464595Y15391881D01*
X58508219Y15337304D01*
X58515412Y15267805D01*
X58483890Y15205451D01*
X58464595Y15188731D01*
X58278594Y15058492D01*
X58111505Y14891403D01*
X57975965Y14697831D01*
X57975964Y14697829D01*
X57876098Y14483665D01*
X57876094Y14483656D01*
X57814938Y14255414D01*
X57814936Y14255404D01*
X57794341Y14020001D01*
X57794341Y14020000D01*
X43567521Y14020000D01*
X43655789Y14160478D01*
X43715368Y14330745D01*
X43719074Y14363630D01*
X43735565Y14509998D01*
X43735565Y14510001D01*
X43733224Y14530771D01*
X43725889Y14595867D01*
X43725500Y14602808D01*
X43725500Y14621017D01*
X43727027Y14640418D01*
X43731381Y14667904D01*
X43733682Y14667540D01*
X43751818Y14722829D01*
X43806030Y14766906D01*
X43875466Y14774677D01*
X43928292Y14751819D01*
X43957906Y14729650D01*
X43957913Y14729646D01*
X44092620Y14679404D01*
X44092627Y14679402D01*
X44152155Y14673001D01*
X44152172Y14673000D01*
X44404395Y14673000D01*
X44411343Y14672610D01*
X44449998Y14668254D01*
X44450002Y14668254D01*
X44488657Y14672610D01*
X44495605Y14673000D01*
X45271062Y14673000D01*
X45278010Y14672610D01*
X45316665Y14668254D01*
X45316669Y14668254D01*
X45355324Y14672610D01*
X45362272Y14673000D01*
X45500000Y14673000D01*
X46000000Y14673000D01*
X46137728Y14673000D01*
X46144676Y14672610D01*
X46183331Y14668254D01*
X46183335Y14668254D01*
X46221990Y14672610D01*
X46228938Y14673000D01*
X47004395Y14673000D01*
X47011343Y14672610D01*
X47049998Y14668254D01*
X47050002Y14668254D01*
X47088657Y14672610D01*
X47095605Y14673000D01*
X47347828Y14673000D01*
X47347844Y14673001D01*
X47407372Y14679402D01*
X47407379Y14679404D01*
X47542086Y14729646D01*
X47542093Y14729650D01*
X47657187Y14815810D01*
X47657190Y14815813D01*
X47743350Y14930907D01*
X47743354Y14930914D01*
X47793596Y15065621D01*
X47793598Y15065628D01*
X47799999Y15125156D01*
X47800000Y15125173D01*
X47800000Y15377396D01*
X47800390Y15384344D01*
X47804746Y15423000D01*
X47804746Y15423001D01*
X47800390Y15461657D01*
X47800000Y15468605D01*
X47800000Y16244063D01*
X47800390Y16251011D01*
X47804746Y16289667D01*
X47804746Y16289668D01*
X47800390Y16328324D01*
X47800000Y16335272D01*
X47800000Y16473000D01*
X47586885Y16473000D01*
X47403553Y16289667D01*
X47697709Y15995511D01*
X47731194Y15934188D01*
X47729300Y15907697D01*
X47733895Y15907697D01*
X47733895Y15804972D01*
X47729320Y15804972D01*
X47726211Y15761504D01*
X47697710Y15717157D01*
X46755843Y14775290D01*
X46694520Y14741805D01*
X46668028Y14743700D01*
X46668028Y14739105D01*
X46565303Y14739105D01*
X46565303Y14743682D01*
X46521836Y14746790D01*
X46477489Y14775291D01*
X46183333Y15069447D01*
X46000000Y14886115D01*
X46000000Y14673000D01*
X45500000Y14673000D01*
X45500000Y14886114D01*
X45316667Y15069447D01*
X45022510Y14775290D01*
X44961187Y14741805D01*
X44934695Y14743700D01*
X44934695Y14739105D01*
X44831970Y14739105D01*
X44831970Y14743682D01*
X44788503Y14746790D01*
X44744156Y14775291D01*
X44096447Y15423000D01*
X44294709Y15423000D01*
X44315514Y15345355D01*
X44372355Y15288514D01*
X44430254Y15273000D01*
X44469746Y15273000D01*
X44527645Y15288514D01*
X44584486Y15345354D01*
X44605291Y15422999D01*
X44803553Y15422999D01*
X44883332Y15343220D01*
X44963112Y15423000D01*
X45161376Y15423000D01*
X45182181Y15345355D01*
X45239022Y15288514D01*
X45296921Y15273000D01*
X45336413Y15273000D01*
X45394312Y15288514D01*
X45451153Y15345354D01*
X45471958Y15423000D01*
X46028042Y15423000D01*
X46048847Y15345355D01*
X46105688Y15288514D01*
X46163587Y15273000D01*
X46203079Y15273000D01*
X46260978Y15288514D01*
X46317819Y15345354D01*
X46338624Y15422999D01*
X46536886Y15422999D01*
X46616665Y15343220D01*
X46696445Y15423000D01*
X46894709Y15423000D01*
X46915514Y15345355D01*
X46972355Y15288514D01*
X47030254Y15273000D01*
X47069746Y15273000D01*
X47127645Y15288514D01*
X47184486Y15345354D01*
X47205291Y15423000D01*
X47184486Y15500645D01*
X47127645Y15557486D01*
X47069746Y15573000D01*
X47030254Y15573000D01*
X46972355Y15557486D01*
X46915514Y15500646D01*
X46894709Y15423000D01*
X46696445Y15423000D01*
X46696446Y15423001D01*
X46616666Y15502781D01*
X46536886Y15423000D01*
X46536886Y15422999D01*
X46338624Y15422999D01*
X46338624Y15423000D01*
X46317819Y15500645D01*
X46260978Y15557486D01*
X46203079Y15573000D01*
X46163587Y15573000D01*
X46105688Y15557486D01*
X46048847Y15500646D01*
X46028042Y15423000D01*
X45471958Y15423000D01*
X45451153Y15500645D01*
X45394312Y15557486D01*
X45336413Y15573000D01*
X45296921Y15573000D01*
X45239022Y15557486D01*
X45182181Y15500646D01*
X45161376Y15423000D01*
X44963112Y15423000D01*
X44963113Y15423001D01*
X44883333Y15502781D01*
X44803553Y15423000D01*
X44803553Y15422999D01*
X44605291Y15422999D01*
X44605291Y15423000D01*
X44584486Y15500645D01*
X44527645Y15557486D01*
X44469746Y15573000D01*
X44430254Y15573000D01*
X44372355Y15557486D01*
X44315514Y15500646D01*
X44294709Y15423000D01*
X44096447Y15423000D01*
X43802289Y15717158D01*
X43768804Y15778481D01*
X43770698Y15804972D01*
X43766104Y15804972D01*
X43766104Y15856334D01*
X44370219Y15856334D01*
X44449999Y15776554D01*
X44529779Y15856334D01*
X45236886Y15856334D01*
X45316666Y15776554D01*
X45396446Y15856334D01*
X46103552Y15856334D01*
X46183332Y15776554D01*
X46263112Y15856334D01*
X46970219Y15856334D01*
X47049999Y15776554D01*
X47129780Y15856335D01*
X47050001Y15936114D01*
X46970219Y15856334D01*
X46263112Y15856334D01*
X46263113Y15856335D01*
X46183334Y15936114D01*
X46103552Y15856334D01*
X45396446Y15856334D01*
X45396447Y15856335D01*
X45316668Y15936114D01*
X45236886Y15856334D01*
X44529779Y15856334D01*
X44529780Y15856335D01*
X44450001Y15936114D01*
X44370219Y15856334D01*
X43766104Y15856334D01*
X43766104Y15907696D01*
X43770647Y15907696D01*
X43773952Y15951598D01*
X43802290Y15995511D01*
X44096445Y16289667D01*
X44294709Y16289667D01*
X44315514Y16212022D01*
X44372355Y16155181D01*
X44430254Y16139667D01*
X44469746Y16139667D01*
X44527645Y16155181D01*
X44584486Y16212021D01*
X44605291Y16289666D01*
X44803553Y16289666D01*
X44883332Y16209887D01*
X44963112Y16289667D01*
X45161376Y16289667D01*
X45182181Y16212022D01*
X45239022Y16155181D01*
X45296921Y16139667D01*
X45336413Y16139667D01*
X45394312Y16155181D01*
X45451153Y16212021D01*
X45471958Y16289667D01*
X46028042Y16289667D01*
X46048847Y16212022D01*
X46105688Y16155181D01*
X46163587Y16139667D01*
X46203079Y16139667D01*
X46260978Y16155181D01*
X46317819Y16212021D01*
X46338624Y16289666D01*
X46536886Y16289666D01*
X46616665Y16209887D01*
X46696445Y16289667D01*
X46894709Y16289667D01*
X46915514Y16212022D01*
X46972355Y16155181D01*
X47030254Y16139667D01*
X47069746Y16139667D01*
X47127645Y16155181D01*
X47184486Y16212021D01*
X47205291Y16289667D01*
X47184486Y16367312D01*
X47127645Y16424153D01*
X47069746Y16439667D01*
X47030254Y16439667D01*
X46972355Y16424153D01*
X46915514Y16367313D01*
X46894709Y16289667D01*
X46696445Y16289667D01*
X46696446Y16289668D01*
X46616666Y16369448D01*
X46536886Y16289667D01*
X46536886Y16289666D01*
X46338624Y16289666D01*
X46338624Y16289667D01*
X46317819Y16367312D01*
X46260978Y16424153D01*
X46203079Y16439667D01*
X46163587Y16439667D01*
X46105688Y16424153D01*
X46048847Y16367313D01*
X46028042Y16289667D01*
X45471958Y16289667D01*
X45451153Y16367312D01*
X45394312Y16424153D01*
X45336413Y16439667D01*
X45296921Y16439667D01*
X45239022Y16424153D01*
X45182181Y16367313D01*
X45161376Y16289667D01*
X44963112Y16289667D01*
X44963113Y16289668D01*
X44883333Y16369448D01*
X44803553Y16289667D01*
X44803553Y16289666D01*
X44605291Y16289666D01*
X44605291Y16289667D01*
X44584486Y16367312D01*
X44527645Y16424153D01*
X44469746Y16439667D01*
X44430254Y16439667D01*
X44372355Y16424153D01*
X44315514Y16367313D01*
X44294709Y16289667D01*
X44096445Y16289667D01*
X44096446Y16289668D01*
X43802290Y16583824D01*
X43768805Y16645147D01*
X43770699Y16671637D01*
X43766104Y16671637D01*
X43766104Y16723000D01*
X44370220Y16723000D01*
X44450000Y16643220D01*
X44529780Y16723000D01*
X45236887Y16723000D01*
X45316667Y16643220D01*
X45396447Y16723000D01*
X45316667Y16802780D01*
X45236887Y16723000D01*
X44529780Y16723000D01*
X44450000Y16802780D01*
X44370220Y16723000D01*
X43766104Y16723000D01*
X43766104Y16774361D01*
X43770679Y16774361D01*
X43773788Y16817829D01*
X43802289Y16862176D01*
X44096445Y17156333D01*
X44294709Y17156333D01*
X44315514Y17078688D01*
X44372355Y17021847D01*
X44430254Y17006333D01*
X44469746Y17006333D01*
X44527645Y17021847D01*
X44584486Y17078687D01*
X44605291Y17156332D01*
X44803553Y17156332D01*
X44883332Y17076553D01*
X44963112Y17156333D01*
X45161376Y17156333D01*
X45182181Y17078688D01*
X45239022Y17021847D01*
X45296921Y17006333D01*
X45336413Y17006333D01*
X45394312Y17021847D01*
X45451153Y17078687D01*
X45471958Y17156333D01*
X46028042Y17156333D01*
X46048847Y17078688D01*
X46105688Y17021847D01*
X46163587Y17006333D01*
X46203079Y17006333D01*
X46260978Y17021847D01*
X46317819Y17078687D01*
X46338624Y17156332D01*
X46536886Y17156332D01*
X46616665Y17076553D01*
X46696445Y17156333D01*
X46894709Y17156333D01*
X46915514Y17078688D01*
X46972355Y17021847D01*
X47030254Y17006333D01*
X47069746Y17006333D01*
X47127645Y17021847D01*
X47184486Y17078687D01*
X47205291Y17156333D01*
X47184486Y17233978D01*
X47127645Y17290819D01*
X47069746Y17306333D01*
X47030254Y17306333D01*
X46972355Y17290819D01*
X46915514Y17233979D01*
X46894709Y17156333D01*
X46696445Y17156333D01*
X46696446Y17156334D01*
X46616666Y17236114D01*
X46536886Y17156333D01*
X46536886Y17156332D01*
X46338624Y17156332D01*
X46338624Y17156333D01*
X46317819Y17233978D01*
X46260978Y17290819D01*
X46203079Y17306333D01*
X46163587Y17306333D01*
X46105688Y17290819D01*
X46048847Y17233979D01*
X46028042Y17156333D01*
X45471958Y17156333D01*
X45451153Y17233978D01*
X45394312Y17290819D01*
X45336413Y17306333D01*
X45296921Y17306333D01*
X45239022Y17290819D01*
X45182181Y17233979D01*
X45161376Y17156333D01*
X44963112Y17156333D01*
X44963113Y17156334D01*
X44883333Y17236114D01*
X44803553Y17156333D01*
X44803553Y17156332D01*
X44605291Y17156332D01*
X44605291Y17156333D01*
X44584486Y17233978D01*
X44527645Y17290819D01*
X44469746Y17306333D01*
X44430254Y17306333D01*
X44372355Y17290819D01*
X44315514Y17233979D01*
X44294709Y17156333D01*
X44096445Y17156333D01*
X44096446Y17156334D01*
X43802289Y17450491D01*
X43768804Y17511814D01*
X43770698Y17538305D01*
X43766104Y17538305D01*
X43766104Y17589667D01*
X44370219Y17589667D01*
X44449999Y17509887D01*
X44529779Y17589667D01*
X45236886Y17589667D01*
X45316666Y17509887D01*
X45396446Y17589667D01*
X46103552Y17589667D01*
X46183332Y17509887D01*
X46263112Y17589667D01*
X46970219Y17589667D01*
X47049999Y17509887D01*
X47129780Y17589668D01*
X47050001Y17669447D01*
X46970219Y17589667D01*
X46263112Y17589667D01*
X46263113Y17589668D01*
X46183334Y17669447D01*
X46103552Y17589667D01*
X45396446Y17589667D01*
X45396447Y17589668D01*
X45316668Y17669447D01*
X45236886Y17589667D01*
X44529779Y17589667D01*
X44529780Y17589668D01*
X44450001Y17669447D01*
X44370219Y17589667D01*
X43766104Y17589667D01*
X43766104Y17641029D01*
X43770647Y17641029D01*
X43773952Y17684931D01*
X43802290Y17728844D01*
X44096446Y18023000D01*
X44294709Y18023000D01*
X44315514Y17945355D01*
X44372355Y17888514D01*
X44430254Y17873000D01*
X44469746Y17873000D01*
X44527645Y17888514D01*
X44584486Y17945354D01*
X44605291Y18022999D01*
X44803553Y18022999D01*
X44883332Y17943220D01*
X44963112Y18023000D01*
X45161376Y18023000D01*
X45182181Y17945355D01*
X45239022Y17888514D01*
X45296921Y17873000D01*
X45336413Y17873000D01*
X45394312Y17888514D01*
X45451153Y17945354D01*
X45471958Y18023000D01*
X46028042Y18023000D01*
X46048847Y17945355D01*
X46105688Y17888514D01*
X46163587Y17873000D01*
X46203079Y17873000D01*
X46260978Y17888514D01*
X46317819Y17945354D01*
X46338624Y18022999D01*
X46536886Y18022999D01*
X46616665Y17943220D01*
X46696445Y18023000D01*
X46894709Y18023000D01*
X46915514Y17945355D01*
X46972355Y17888514D01*
X47030254Y17873000D01*
X47069746Y17873000D01*
X47127645Y17888514D01*
X47184486Y17945354D01*
X47205291Y18023000D01*
X47184486Y18100645D01*
X47127645Y18157486D01*
X47069746Y18173000D01*
X47030254Y18173000D01*
X46972355Y18157486D01*
X46915514Y18100646D01*
X46894709Y18023000D01*
X46696445Y18023000D01*
X46696446Y18023001D01*
X46616666Y18102781D01*
X46536886Y18023000D01*
X46536886Y18022999D01*
X46338624Y18022999D01*
X46338624Y18023000D01*
X46317819Y18100645D01*
X46260978Y18157486D01*
X46203079Y18173000D01*
X46163587Y18173000D01*
X46105688Y18157486D01*
X46048847Y18100646D01*
X46028042Y18023000D01*
X45471958Y18023000D01*
X45451153Y18100645D01*
X45394312Y18157486D01*
X45336413Y18173000D01*
X45296921Y18173000D01*
X45239022Y18157486D01*
X45182181Y18100646D01*
X45161376Y18023000D01*
X44963112Y18023000D01*
X44963113Y18023001D01*
X44883333Y18102781D01*
X44803553Y18023000D01*
X44803553Y18022999D01*
X44605291Y18022999D01*
X44605291Y18023000D01*
X44584486Y18100645D01*
X44527645Y18157486D01*
X44469746Y18173000D01*
X44430254Y18173000D01*
X44372355Y18157486D01*
X44315514Y18100646D01*
X44294709Y18023000D01*
X44096446Y18023000D01*
X44450000Y18376553D01*
X44744156Y18670710D01*
X44805479Y18704195D01*
X44831970Y18702301D01*
X44831970Y18706896D01*
X44934695Y18706896D01*
X44934695Y18702290D01*
X44977726Y18699373D01*
X45022509Y18670711D01*
X45316667Y18376553D01*
X45499999Y18559886D01*
X46000000Y18559886D01*
X46183332Y18376554D01*
X46477489Y18670710D01*
X46538812Y18704195D01*
X46565303Y18702301D01*
X46565303Y18706896D01*
X46668028Y18706896D01*
X46668028Y18702290D01*
X46711059Y18699373D01*
X46755842Y18670711D01*
X47697709Y17728844D01*
X47731194Y17667521D01*
X47729300Y17641030D01*
X47733895Y17641030D01*
X47733895Y17538305D01*
X47729320Y17538305D01*
X47726211Y17494837D01*
X47697710Y17450490D01*
X47403553Y17156333D01*
X47586886Y16973000D01*
X47800000Y16973000D01*
X47800000Y17110729D01*
X47800390Y17117677D01*
X47804746Y17156333D01*
X47804746Y17156334D01*
X47800390Y17194990D01*
X47800000Y17201938D01*
X47800000Y17977396D01*
X47800390Y17984344D01*
X47804746Y18023000D01*
X47804746Y18023001D01*
X47800390Y18061657D01*
X47800000Y18068605D01*
X47800000Y18320828D01*
X47799999Y18320845D01*
X47793598Y18380373D01*
X47793596Y18380380D01*
X47743354Y18515087D01*
X47743350Y18515094D01*
X47657190Y18630188D01*
X47657187Y18630191D01*
X47542093Y18716351D01*
X47542086Y18716355D01*
X47407379Y18766597D01*
X47407372Y18766599D01*
X47347844Y18773000D01*
X47095605Y18773000D01*
X47088657Y18773390D01*
X47050002Y18777746D01*
X47049998Y18777746D01*
X47011343Y18773390D01*
X47004395Y18773000D01*
X46228938Y18773000D01*
X46221990Y18773390D01*
X46183335Y18777746D01*
X46183331Y18777746D01*
X46144676Y18773390D01*
X46137728Y18773000D01*
X46000000Y18773000D01*
X46000000Y18559886D01*
X45499999Y18559886D01*
X45500000Y18559887D01*
X45500000Y18773000D01*
X45362272Y18773000D01*
X45355324Y18773390D01*
X45316669Y18777746D01*
X45316665Y18777746D01*
X45278010Y18773390D01*
X45271062Y18773000D01*
X44495605Y18773000D01*
X44488657Y18773390D01*
X44450002Y18777746D01*
X44449998Y18777746D01*
X44411343Y18773390D01*
X44404395Y18773000D01*
X44152155Y18773000D01*
X44092627Y18766599D01*
X44092620Y18766597D01*
X43957913Y18716355D01*
X43957910Y18716353D01*
X43923811Y18690826D01*
X43858346Y18666409D01*
X43790073Y18681261D01*
X43740668Y18730666D01*
X43725500Y18790093D01*
X43725500Y19001099D01*
X43745185Y19068138D01*
X43783525Y19106091D01*
X43903644Y19181566D01*
X44031198Y19309120D01*
X44127171Y19461860D01*
X44186750Y19632127D01*
X44186751Y19632133D01*
X44206947Y19811379D01*
X44206947Y19811386D01*
X44186751Y19990632D01*
X44186750Y19990637D01*
X44172997Y20029942D01*
X44127171Y20160904D01*
X44031198Y20313644D01*
X43903644Y20441198D01*
X43888840Y20450500D01*
X43750905Y20537171D01*
X43580636Y20596751D01*
X43580631Y20596752D01*
X43401386Y20616947D01*
X43401378Y20616947D01*
X43222132Y20596752D01*
X43222127Y20596751D01*
X43051858Y20537171D01*
X42899119Y20441198D01*
X42771566Y20313645D01*
X42675592Y20160904D01*
X42641542Y20063592D01*
X42600820Y20006816D01*
X42535867Y19981068D01*
X42467306Y19994524D01*
X42416903Y20042911D01*
X42400500Y20104546D01*
X42400500Y28198988D01*
X42402224Y28214602D01*
X42401938Y28214629D01*
X42402672Y28222392D01*
X42400500Y28291523D01*
X42400500Y28321075D01*
X42400500Y28321076D01*
X42399629Y28327967D01*
X42399172Y28333781D01*
X42397709Y28380353D01*
X42397706Y28380361D01*
X42397027Y28384658D01*
X42395500Y28404058D01*
X42395500Y30049875D01*
X42415185Y30116914D01*
X42467989Y30162669D01*
X42505615Y30173096D01*
X42519255Y30174632D01*
X42689522Y30234211D01*
X42842262Y30330184D01*
X42969816Y30457738D01*
X43065789Y30610478D01*
X43125368Y30780745D01*
X43128041Y30804468D01*
X43145565Y30959997D01*
X43145565Y30960004D01*
X43125369Y31139250D01*
X43125368Y31139255D01*
X43111726Y31178242D01*
X43065789Y31309522D01*
X42969816Y31462262D01*
X42874259Y31557819D01*
X42840774Y31619142D01*
X42845758Y31688834D01*
X42887630Y31744767D01*
X42953094Y31769184D01*
X42961940Y31769500D01*
X45174217Y31769500D01*
X45241256Y31749815D01*
X45261898Y31733181D01*
X48490641Y28504438D01*
X48494720Y28499937D01*
X48524117Y28464117D01*
X48559828Y28434809D01*
X48562058Y28432889D01*
X48563416Y28431662D01*
X48601704Y28400442D01*
X48676461Y28339091D01*
X48676693Y28338936D01*
X48681423Y28335441D01*
X48681593Y28335302D01*
X48681594Y28335302D01*
X48681596Y28335300D01*
X48708827Y28321076D01*
X48767592Y28290380D01*
X48850273Y28246186D01*
X48850276Y28246186D01*
X48857027Y28243388D01*
X48861901Y28241112D01*
X48861947Y28241093D01*
X48861951Y28241091D01*
X48952172Y28215276D01*
X49038868Y28188976D01*
X49038870Y28188976D01*
X49038873Y28188975D01*
X49044842Y28187787D01*
X49044794Y28187549D01*
X49057365Y28185152D01*
X49057580Y28185114D01*
X49057582Y28185113D01*
X49102785Y28181671D01*
X49147987Y28178229D01*
X49160150Y28177032D01*
X49235000Y28169659D01*
X49235346Y28169694D01*
X49256921Y28169934D01*
X49260477Y28169663D01*
X49347263Y28180716D01*
X49431132Y28188976D01*
X49434896Y28190119D01*
X49455228Y28194466D01*
X49462328Y28195370D01*
X49480313Y28201518D01*
X49542122Y28222644D01*
X49593285Y28238165D01*
X49619727Y28246186D01*
X49626372Y28249739D01*
X49644712Y28257712D01*
X49654872Y28261184D01*
X49704469Y28290380D01*
X49724814Y28302356D01*
X49759836Y28321076D01*
X49793538Y28339090D01*
X49802125Y28346139D01*
X49817883Y28357144D01*
X49830227Y28364409D01*
X49887025Y28415726D01*
X49889211Y28417609D01*
X49945883Y28464117D01*
X49955211Y28475484D01*
X49967923Y28488815D01*
X49981213Y28500821D01*
X50024526Y28559808D01*
X50026540Y28562398D01*
X50027812Y28563949D01*
X50070910Y28616462D01*
X50079527Y28632586D01*
X50088933Y28647518D01*
X50101649Y28664833D01*
X50130786Y28728249D01*
X50132435Y28731569D01*
X50163812Y28790269D01*
X50163814Y28790274D01*
X50171383Y28815227D01*
X50174381Y28823129D01*
X50180036Y28835436D01*
X50186605Y28849731D01*
X50201623Y28914453D01*
X50202669Y28918366D01*
X50221024Y28978868D01*
X50223911Y29008194D01*
X50225216Y29016119D01*
X50232603Y29047946D01*
X50234200Y29110982D01*
X50234478Y29115474D01*
X50240341Y29175000D01*
X50237122Y29207678D01*
X50236843Y29215337D01*
X50237563Y29243693D01*
X50237757Y29251363D01*
X50227229Y29310098D01*
X50226557Y29314953D01*
X50221024Y29371132D01*
X50210509Y29405793D01*
X50208810Y29412862D01*
X50208624Y29413899D01*
X50201858Y29451653D01*
X50180977Y29503926D01*
X50179223Y29508929D01*
X50169534Y29540870D01*
X50163814Y29559727D01*
X50163812Y29559730D01*
X50163812Y29559732D01*
X50163811Y29559733D01*
X50152878Y29580186D01*
X50145148Y29594648D01*
X50142258Y29600862D01*
X50126378Y29640617D01*
X50126374Y29640622D01*
X50126373Y29640626D01*
X50097251Y29684811D01*
X50094347Y29689689D01*
X50070910Y29733538D01*
X50043645Y29766760D01*
X50039810Y29771965D01*
X50014402Y29810518D01*
X50014399Y29810521D01*
X50014398Y29810523D01*
X49989579Y29835341D01*
X49979362Y29845558D01*
X49975283Y29850059D01*
X49945884Y29885882D01*
X49945883Y29885883D01*
X49910046Y29915294D01*
X49905547Y29919373D01*
X46356452Y33468468D01*
X46295061Y33533051D01*
X46295060Y33533052D01*
X46295059Y33533053D01*
X46267204Y33552441D01*
X46244709Y33568098D01*
X46240946Y33570936D01*
X46193413Y33609695D01*
X46193406Y33609700D01*
X46162959Y33625603D01*
X46156251Y33629666D01*
X46128049Y33649295D01*
X46128046Y33649297D01*
X46128045Y33649297D01*
X46128041Y33649299D01*
X46071680Y33673486D01*
X46067424Y33675507D01*
X46013057Y33703906D01*
X46013050Y33703909D01*
X46013049Y33703909D01*
X46007008Y33705638D01*
X45980030Y33713358D01*
X45972630Y33715992D01*
X45941057Y33729541D01*
X45941058Y33729541D01*
X45880966Y33741891D01*
X45876391Y33743014D01*
X45817420Y33759887D01*
X45817425Y33759887D01*
X45783158Y33762497D01*
X45775380Y33763588D01*
X45741742Y33770500D01*
X45741741Y33770500D01*
X45680402Y33770500D01*
X45675695Y33770679D01*
X45670121Y33771104D01*
X45614524Y33775338D01*
X45594589Y33772799D01*
X45580440Y33770997D01*
X45572611Y33770500D01*
X28795782Y33770500D01*
X28728743Y33790185D01*
X28708101Y33806819D01*
X27396819Y35118101D01*
X27363334Y35179424D01*
X27360500Y35205782D01*
X27360500Y37307302D01*
X27362757Y37396359D01*
X27362756Y37396360D01*
X27362757Y37396363D01*
X27351933Y37456751D01*
X27351280Y37461413D01*
X27345074Y37522437D01*
X27342867Y37529472D01*
X27334784Y37555232D01*
X27332917Y37562845D01*
X27332816Y37563407D01*
X27326858Y37596653D01*
X27304100Y37653626D01*
X27302521Y37658062D01*
X27288390Y37703101D01*
X27284159Y37716588D01*
X27284158Y37716590D01*
X27284157Y37716593D01*
X27267488Y37746622D01*
X27264117Y37753722D01*
X27251378Y37785614D01*
X27251377Y37785617D01*
X27217620Y37836837D01*
X27215180Y37840866D01*
X27204379Y37860325D01*
X27185409Y37894502D01*
X27185407Y37894505D01*
X27170169Y37912254D01*
X27163030Y37920569D01*
X27158302Y37926841D01*
X27139402Y37955519D01*
X27096012Y37998909D01*
X27092822Y38002352D01*
X27052867Y38048894D01*
X27052863Y38048898D01*
X27025698Y38069926D01*
X27019803Y38075118D01*
X22087297Y43007623D01*
X22053812Y43068946D01*
X22051577Y43083135D01*
X22035524Y43246132D01*
X21978314Y43434727D01*
X21978311Y43434731D01*
X21978311Y43434734D01*
X21885413Y43608533D01*
X21885409Y43608540D01*
X21760383Y43760884D01*
X21608039Y43885910D01*
X21608032Y43885914D01*
X21434233Y43978812D01*
X21434227Y43978814D01*
X21245632Y44036024D01*
X21245629Y44036025D01*
X21082648Y44052077D01*
X21017860Y44078238D01*
X21007121Y44087799D01*
X20212101Y44882819D01*
X20178616Y44944142D01*
X20183600Y45013834D01*
X20225472Y45069767D01*
X20290936Y45094184D01*
X20299782Y45094500D01*
X50895145Y45094500D01*
X50961116Y45075495D01*
X51090478Y44994211D01*
X51233567Y44944142D01*
X51260745Y44934632D01*
X51260750Y44934631D01*
X51439996Y44914435D01*
X51440000Y44914435D01*
X51440004Y44914435D01*
X51619249Y44934631D01*
X51619252Y44934632D01*
X51619255Y44934632D01*
X51789522Y44994211D01*
X51942262Y45090184D01*
X52069816Y45217738D01*
X52165789Y45370478D01*
X52225368Y45540745D01*
X52245565Y45720000D01*
X52225368Y45899255D01*
X52165789Y46069522D01*
X52069816Y46222262D01*
X51942262Y46349816D01*
X51918883Y46364506D01*
X51789523Y46445789D01*
X51619254Y46505369D01*
X51619249Y46505370D01*
X51440004Y46525565D01*
X51439996Y46525565D01*
X51260750Y46505370D01*
X51260745Y46505369D01*
X51090476Y46445789D01*
X50961117Y46364506D01*
X50895145Y46345500D01*
X19437179Y46345500D01*
X19370140Y46365185D01*
X19349498Y46381819D01*
X17312529Y48418788D01*
X17302706Y48431050D01*
X17302485Y48430866D01*
X17297512Y48436877D01*
X17247090Y48484227D01*
X17236645Y48494672D01*
X17226201Y48505117D01*
X17220712Y48509375D01*
X17216287Y48513153D01*
X17198350Y48529997D01*
X36074435Y48529997D01*
X36094630Y48350751D01*
X36094631Y48350746D01*
X36154211Y48180477D01*
X36217817Y48079250D01*
X36250184Y48027738D01*
X36377738Y47900184D01*
X36530478Y47804211D01*
X36700745Y47744632D01*
X36700750Y47744631D01*
X36879996Y47724435D01*
X36880000Y47724435D01*
X36880004Y47724435D01*
X37059249Y47744631D01*
X37059252Y47744632D01*
X37059255Y47744632D01*
X37229522Y47804211D01*
X37358883Y47885495D01*
X37424855Y47904500D01*
X41709548Y47904500D01*
X41776587Y47884815D01*
X41797229Y47868181D01*
X41823787Y47841623D01*
X41857272Y47780300D01*
X41859326Y47767827D01*
X41864630Y47720751D01*
X41924210Y47550479D01*
X42020184Y47397738D01*
X42147738Y47270184D01*
X42300478Y47174211D01*
X42470745Y47114632D01*
X42470750Y47114631D01*
X42649996Y47094435D01*
X42650000Y47094435D01*
X42650004Y47094435D01*
X42829249Y47114631D01*
X42829252Y47114632D01*
X42829255Y47114632D01*
X42999522Y47174211D01*
X43152262Y47270184D01*
X43279816Y47397738D01*
X43375789Y47550478D01*
X43435368Y47720745D01*
X43435784Y47724435D01*
X43455565Y47899997D01*
X43455565Y47900004D01*
X43435369Y48079250D01*
X43435368Y48079255D01*
X43399949Y48180477D01*
X43375789Y48249522D01*
X43279816Y48402262D01*
X43152262Y48529816D01*
X43076095Y48577675D01*
X42999521Y48625790D01*
X42829249Y48685370D01*
X42782174Y48690674D01*
X42717760Y48717741D01*
X42708378Y48726213D01*
X42520803Y48913788D01*
X42510980Y48926050D01*
X42510759Y48925866D01*
X42505786Y48931877D01*
X42502153Y48935289D01*
X42455364Y48979227D01*
X42439721Y48994870D01*
X42434475Y49000117D01*
X42428986Y49004375D01*
X42424561Y49008153D01*
X42390582Y49040062D01*
X42390580Y49040064D01*
X42390577Y49040065D01*
X42373029Y49049712D01*
X42356763Y49060396D01*
X42340933Y49072675D01*
X42298168Y49091182D01*
X42292922Y49093752D01*
X42252093Y49116197D01*
X42252092Y49116198D01*
X42232693Y49121178D01*
X42214281Y49127482D01*
X42195898Y49135438D01*
X42195892Y49135440D01*
X42149874Y49142728D01*
X42144152Y49143913D01*
X42099021Y49155500D01*
X42099019Y49155500D01*
X42078984Y49155500D01*
X42059586Y49157027D01*
X42052162Y49158203D01*
X42039805Y49160160D01*
X42039804Y49160160D01*
X41993416Y49155775D01*
X41987578Y49155500D01*
X37424855Y49155500D01*
X37358883Y49174506D01*
X37229523Y49255789D01*
X37059254Y49315369D01*
X37059249Y49315370D01*
X36880004Y49335565D01*
X36879996Y49335565D01*
X36700750Y49315370D01*
X36700745Y49315369D01*
X36530476Y49255789D01*
X36377737Y49159816D01*
X36250184Y49032263D01*
X36154211Y48879524D01*
X36094631Y48709255D01*
X36094630Y48709250D01*
X36074435Y48530004D01*
X36074435Y48529997D01*
X17198350Y48529997D01*
X17182308Y48545062D01*
X17182306Y48545064D01*
X17182303Y48545065D01*
X17164755Y48554712D01*
X17148489Y48565396D01*
X17132659Y48577675D01*
X17089894Y48596182D01*
X17084648Y48598752D01*
X17043819Y48621197D01*
X17043818Y48621198D01*
X17024419Y48626178D01*
X17006007Y48632482D01*
X16987624Y48640438D01*
X16987618Y48640440D01*
X16941600Y48647728D01*
X16935878Y48648913D01*
X16890747Y48660500D01*
X16890745Y48660500D01*
X16870710Y48660500D01*
X16851312Y48662027D01*
X16843888Y48663203D01*
X16831531Y48665160D01*
X16831530Y48665160D01*
X16785142Y48660775D01*
X16779304Y48660500D01*
X13150411Y48660500D01*
X13083372Y48680185D01*
X13053464Y48707187D01*
X13049818Y48711759D01*
X13049816Y48711762D01*
X12922262Y48839316D01*
X12858275Y48879522D01*
X12769523Y48935289D01*
X12599254Y48994869D01*
X12599249Y48994870D01*
X12420004Y49015065D01*
X12419996Y49015065D01*
X12240750Y48994870D01*
X12240745Y48994869D01*
X12070476Y48935289D01*
X11917737Y48839316D01*
X11790184Y48711763D01*
X11694211Y48559024D01*
X11634631Y48388755D01*
X11634630Y48388751D01*
X11626954Y48320616D01*
X11599887Y48256202D01*
X11542293Y48216647D01*
X11503734Y48210500D01*
X9815782Y48210500D01*
X9748743Y48230185D01*
X9728101Y48246819D01*
X8339371Y49635549D01*
X8335281Y49640061D01*
X8316261Y49663238D01*
X8288949Y49727549D01*
X8300742Y49796416D01*
X8347896Y49847975D01*
X8412116Y49865901D01*
X9281471Y49865901D01*
X9281472Y49865901D01*
X9341083Y49872309D01*
X9475931Y49922604D01*
X9591146Y50008854D01*
X9677396Y50124069D01*
X9699693Y50183850D01*
X9721154Y50241390D01*
X9763025Y50297324D01*
X9828489Y50321742D01*
X9896762Y50306891D01*
X9928565Y50282042D01*
X9982955Y50222959D01*
X9999284Y50210250D01*
X10161351Y50084107D01*
X10360169Y49976512D01*
X10360172Y49976511D01*
X10573982Y49903110D01*
X10573984Y49903110D01*
X10573986Y49903109D01*
X10796967Y49865900D01*
X10796968Y49865900D01*
X11023032Y49865900D01*
X11023033Y49865900D01*
X11246014Y49903109D01*
X11459831Y49976512D01*
X11658649Y50084107D01*
X11837046Y50222960D01*
X11990156Y50389281D01*
X12076193Y50520972D01*
X12129338Y50566325D01*
X12198569Y50575749D01*
X12261905Y50546247D01*
X12283804Y50520975D01*
X12369844Y50389281D01*
X12369849Y50389276D01*
X12369850Y50389273D01*
X12522605Y50223339D01*
X12522954Y50222960D01*
X12701351Y50084107D01*
X12900169Y49976512D01*
X12900172Y49976511D01*
X13113982Y49903110D01*
X13113984Y49903110D01*
X13113986Y49903109D01*
X13336967Y49865900D01*
X13336968Y49865900D01*
X13563032Y49865900D01*
X13563033Y49865900D01*
X13786014Y49903109D01*
X13999831Y49976512D01*
X14198649Y50084107D01*
X14377046Y50222960D01*
X14530156Y50389281D01*
X14616193Y50520972D01*
X14669338Y50566325D01*
X14738569Y50575749D01*
X14801905Y50546247D01*
X14823804Y50520975D01*
X14909844Y50389281D01*
X14909849Y50389276D01*
X14909850Y50389273D01*
X15062605Y50223339D01*
X15062954Y50222960D01*
X15241351Y50084107D01*
X15440169Y49976512D01*
X15440172Y49976511D01*
X15653982Y49903110D01*
X15653984Y49903110D01*
X15653986Y49903109D01*
X15876967Y49865900D01*
X15876968Y49865900D01*
X16103032Y49865900D01*
X16103033Y49865900D01*
X16326014Y49903109D01*
X16539831Y49976512D01*
X16738649Y50084107D01*
X16917046Y50222960D01*
X17070156Y50389281D01*
X17156491Y50521428D01*
X17209635Y50566782D01*
X17278867Y50576206D01*
X17342203Y50546704D01*
X17364107Y50521425D01*
X17450240Y50389588D01*
X17603284Y50223339D01*
X17603296Y50223328D01*
X17781623Y50084530D01*
X17980369Y49976973D01*
X17980375Y49976971D01*
X18194106Y49903597D01*
X18280000Y49889264D01*
X18280000Y50785703D01*
X18385408Y50737565D01*
X18493666Y50722000D01*
X18566334Y50722000D01*
X18674592Y50737565D01*
X18780000Y50785703D01*
X18780000Y49889265D01*
X18865893Y49903597D01*
X19079624Y49976971D01*
X19079630Y49976973D01*
X19278376Y50084530D01*
X19456703Y50223328D01*
X19456715Y50223339D01*
X19609759Y50389588D01*
X19695892Y50521425D01*
X19749038Y50566782D01*
X19818269Y50576206D01*
X19881605Y50546704D01*
X19903509Y50521426D01*
X19989842Y50389284D01*
X19989850Y50389273D01*
X20142605Y50223339D01*
X20142954Y50222960D01*
X20321351Y50084107D01*
X20520169Y49976512D01*
X20520172Y49976511D01*
X20733982Y49903110D01*
X20733984Y49903110D01*
X20733986Y49903109D01*
X20956967Y49865900D01*
X20956968Y49865900D01*
X21183032Y49865900D01*
X21183033Y49865900D01*
X21406014Y49903109D01*
X21619831Y49976512D01*
X21818649Y50084107D01*
X21997046Y50222960D01*
X22150156Y50389281D01*
X22236193Y50520972D01*
X22289338Y50566325D01*
X22358569Y50575749D01*
X22421905Y50546247D01*
X22443804Y50520975D01*
X22529844Y50389281D01*
X22529849Y50389276D01*
X22529850Y50389273D01*
X22682605Y50223339D01*
X22682954Y50222960D01*
X22861351Y50084107D01*
X23060169Y49976512D01*
X23060172Y49976511D01*
X23273982Y49903110D01*
X23273984Y49903110D01*
X23273986Y49903109D01*
X23496967Y49865900D01*
X23496968Y49865900D01*
X23723032Y49865900D01*
X23723033Y49865900D01*
X23946014Y49903109D01*
X24159831Y49976512D01*
X24358649Y50084107D01*
X24537046Y50222960D01*
X24690156Y50389281D01*
X24776193Y50520972D01*
X24829338Y50566325D01*
X24898569Y50575749D01*
X24961905Y50546247D01*
X24983804Y50520975D01*
X25069844Y50389281D01*
X25069849Y50389276D01*
X25069850Y50389273D01*
X25222605Y50223339D01*
X25222954Y50222960D01*
X25401351Y50084107D01*
X25600169Y49976512D01*
X25600172Y49976511D01*
X25813982Y49903110D01*
X25813984Y49903110D01*
X25813986Y49903109D01*
X26036967Y49865900D01*
X26036968Y49865900D01*
X26263032Y49865900D01*
X26263033Y49865900D01*
X26486014Y49903109D01*
X26699831Y49976512D01*
X26898649Y50084107D01*
X27077046Y50222960D01*
X27230156Y50389281D01*
X27316193Y50520972D01*
X27369338Y50566325D01*
X27438569Y50575749D01*
X27501905Y50546247D01*
X27523804Y50520975D01*
X27609844Y50389281D01*
X27609849Y50389276D01*
X27609850Y50389273D01*
X27762605Y50223339D01*
X27762954Y50222960D01*
X27941351Y50084107D01*
X28140169Y49976512D01*
X28140172Y49976511D01*
X28353982Y49903110D01*
X28353984Y49903110D01*
X28353986Y49903109D01*
X28576967Y49865900D01*
X28576968Y49865900D01*
X28803032Y49865900D01*
X28803033Y49865900D01*
X29026014Y49903109D01*
X29239831Y49976512D01*
X29438649Y50084107D01*
X29617046Y50222960D01*
X29770156Y50389281D01*
X29856193Y50520972D01*
X29909338Y50566325D01*
X29978569Y50575749D01*
X30041905Y50546247D01*
X30063804Y50520975D01*
X30149844Y50389281D01*
X30149849Y50389276D01*
X30149850Y50389273D01*
X30302605Y50223339D01*
X30302954Y50222960D01*
X30481351Y50084107D01*
X30680169Y49976512D01*
X30680172Y49976511D01*
X30893982Y49903110D01*
X30893984Y49903110D01*
X30893986Y49903109D01*
X31116967Y49865900D01*
X31116968Y49865900D01*
X31343032Y49865900D01*
X31343033Y49865900D01*
X31566014Y49903109D01*
X31779831Y49976512D01*
X31978649Y50084107D01*
X32157046Y50222960D01*
X32310156Y50389281D01*
X32396193Y50520972D01*
X32449338Y50566325D01*
X32518569Y50575749D01*
X32581905Y50546247D01*
X32603804Y50520975D01*
X32689844Y50389281D01*
X32689849Y50389276D01*
X32689850Y50389273D01*
X32842605Y50223339D01*
X32842954Y50222960D01*
X33021351Y50084107D01*
X33220169Y49976512D01*
X33220172Y49976511D01*
X33433982Y49903110D01*
X33433984Y49903110D01*
X33433986Y49903109D01*
X33656967Y49865900D01*
X33656968Y49865900D01*
X33883032Y49865900D01*
X33883033Y49865900D01*
X34106014Y49903109D01*
X34319831Y49976512D01*
X34518649Y50084107D01*
X34697046Y50222960D01*
X34850156Y50389281D01*
X34936193Y50520972D01*
X34989338Y50566325D01*
X35058569Y50575749D01*
X35121905Y50546247D01*
X35143804Y50520975D01*
X35229844Y50389281D01*
X35229849Y50389276D01*
X35229850Y50389273D01*
X35382605Y50223339D01*
X35382954Y50222960D01*
X35561351Y50084107D01*
X35760169Y49976512D01*
X35760172Y49976511D01*
X35973982Y49903110D01*
X35973984Y49903110D01*
X35973986Y49903109D01*
X36196967Y49865900D01*
X36196968Y49865900D01*
X36423032Y49865900D01*
X36423033Y49865900D01*
X36646014Y49903109D01*
X36859831Y49976512D01*
X37058649Y50084107D01*
X37237046Y50222960D01*
X37390156Y50389281D01*
X37476491Y50521428D01*
X37529635Y50566782D01*
X37598867Y50576206D01*
X37662203Y50546704D01*
X37684107Y50521425D01*
X37770240Y50389588D01*
X37923284Y50223339D01*
X37923296Y50223328D01*
X38101623Y50084530D01*
X38300369Y49976973D01*
X38300375Y49976971D01*
X38514106Y49903597D01*
X38600000Y49889264D01*
X38600000Y50785703D01*
X38705408Y50737565D01*
X38813666Y50722000D01*
X38886334Y50722000D01*
X38994592Y50737565D01*
X39100000Y50785703D01*
X39100000Y49889265D01*
X39185893Y49903597D01*
X39399624Y49976971D01*
X39399630Y49976973D01*
X39598376Y50084530D01*
X39776703Y50223328D01*
X39776715Y50223339D01*
X39929759Y50389588D01*
X40015892Y50521425D01*
X40069038Y50566782D01*
X40138269Y50576206D01*
X40201605Y50546704D01*
X40223509Y50521426D01*
X40309842Y50389284D01*
X40309850Y50389273D01*
X40462605Y50223339D01*
X40462954Y50222960D01*
X40641351Y50084107D01*
X40840169Y49976512D01*
X40840172Y49976511D01*
X41053982Y49903110D01*
X41053984Y49903110D01*
X41053986Y49903109D01*
X41276967Y49865900D01*
X41276968Y49865900D01*
X41503032Y49865900D01*
X41503033Y49865900D01*
X41726014Y49903109D01*
X41939831Y49976512D01*
X42138649Y50084107D01*
X42317046Y50222960D01*
X42470156Y50389281D01*
X42556193Y50520972D01*
X42609338Y50566325D01*
X42678569Y50575749D01*
X42741905Y50546247D01*
X42763804Y50520975D01*
X42849844Y50389281D01*
X42849849Y50389276D01*
X42849850Y50389273D01*
X43002605Y50223339D01*
X43002954Y50222960D01*
X43181351Y50084107D01*
X43380169Y49976512D01*
X43380172Y49976511D01*
X43593982Y49903110D01*
X43593984Y49903110D01*
X43593986Y49903109D01*
X43816967Y49865900D01*
X43816968Y49865900D01*
X44043032Y49865900D01*
X44043033Y49865900D01*
X44266014Y49903109D01*
X44479831Y49976512D01*
X44678649Y50084107D01*
X44857046Y50222960D01*
X45010156Y50389281D01*
X45096193Y50520972D01*
X45149338Y50566325D01*
X45218569Y50575749D01*
X45281905Y50546247D01*
X45303804Y50520975D01*
X45389844Y50389281D01*
X45389849Y50389276D01*
X45389850Y50389273D01*
X45542605Y50223339D01*
X45542954Y50222960D01*
X45721351Y50084107D01*
X45920169Y49976512D01*
X45920172Y49976511D01*
X46133982Y49903110D01*
X46133984Y49903110D01*
X46133986Y49903109D01*
X46356967Y49865900D01*
X46356968Y49865900D01*
X46583032Y49865900D01*
X46583033Y49865900D01*
X46806014Y49903109D01*
X47019831Y49976512D01*
X47218649Y50084107D01*
X47397046Y50222960D01*
X47550156Y50389281D01*
X47636193Y50520972D01*
X47689338Y50566325D01*
X47758569Y50575749D01*
X47821905Y50546247D01*
X47843804Y50520975D01*
X47929844Y50389281D01*
X47929849Y50389276D01*
X47929850Y50389273D01*
X48082605Y50223339D01*
X48082954Y50222960D01*
X48261351Y50084107D01*
X48460169Y49976512D01*
X48460172Y49976511D01*
X48673982Y49903110D01*
X48673984Y49903110D01*
X48673986Y49903109D01*
X48896967Y49865900D01*
X48896968Y49865900D01*
X49123032Y49865900D01*
X49123033Y49865900D01*
X49346014Y49903109D01*
X49559831Y49976512D01*
X49758649Y50084107D01*
X49937046Y50222960D01*
X50090156Y50389281D01*
X50176193Y50520972D01*
X50229338Y50566325D01*
X50298569Y50575749D01*
X50361905Y50546247D01*
X50383804Y50520975D01*
X50469844Y50389281D01*
X50469849Y50389276D01*
X50469850Y50389273D01*
X50622605Y50223339D01*
X50622954Y50222960D01*
X50801351Y50084107D01*
X51000169Y49976512D01*
X51000172Y49976511D01*
X51213982Y49903110D01*
X51213984Y49903110D01*
X51213986Y49903109D01*
X51436967Y49865900D01*
X51436968Y49865900D01*
X51663032Y49865900D01*
X51663033Y49865900D01*
X51886014Y49903109D01*
X52099831Y49976512D01*
X52298649Y50084107D01*
X52477046Y50222960D01*
X52630156Y50389281D01*
X52716193Y50520972D01*
X52769338Y50566325D01*
X52838569Y50575749D01*
X52901905Y50546247D01*
X52923804Y50520975D01*
X53009844Y50389281D01*
X53009849Y50389276D01*
X53009850Y50389273D01*
X53162605Y50223339D01*
X53162954Y50222960D01*
X53341351Y50084107D01*
X53540169Y49976512D01*
X53540172Y49976511D01*
X53753982Y49903110D01*
X53753984Y49903110D01*
X53753986Y49903109D01*
X53976967Y49865900D01*
X53976968Y49865900D01*
X54203032Y49865900D01*
X54203033Y49865900D01*
X54426014Y49903109D01*
X54639831Y49976512D01*
X54838649Y50084107D01*
X55017046Y50222960D01*
X55170156Y50389281D01*
X55256491Y50521428D01*
X55309635Y50566782D01*
X55378867Y50576206D01*
X55442203Y50546704D01*
X55464107Y50521425D01*
X55550240Y50389588D01*
X55703284Y50223339D01*
X55703296Y50223328D01*
X55881623Y50084530D01*
X56080369Y49976973D01*
X56080375Y49976971D01*
X56294106Y49903597D01*
X56380000Y49889264D01*
X56380000Y50785703D01*
X56485408Y50737565D01*
X56593666Y50722000D01*
X56666334Y50722000D01*
X56774592Y50737565D01*
X56880000Y50785703D01*
X56880000Y49889265D01*
X56965893Y49903597D01*
X57179624Y49976971D01*
X57179630Y49976973D01*
X57378376Y50084530D01*
X57556703Y50223328D01*
X57556715Y50223339D01*
X57709759Y50389588D01*
X57833360Y50578775D01*
X57924135Y50785722D01*
X57973334Y50980000D01*
X57073196Y50980000D01*
X57096845Y51016799D01*
X57138000Y51156961D01*
X57138000Y51303039D01*
X57096845Y51443201D01*
X57073196Y51480000D01*
X57973334Y51480000D01*
X57924135Y51674279D01*
X57833360Y51881226D01*
X57709759Y52070413D01*
X57556715Y52236662D01*
X57556703Y52236673D01*
X57378376Y52375471D01*
X57378371Y52375474D01*
X57350307Y52390662D01*
X57329492Y52411322D01*
X58395700Y52411322D01*
X58426044Y52058039D01*
X58426047Y52058017D01*
X58496459Y51710521D01*
X58496465Y51710499D01*
X58606038Y51373271D01*
X58753333Y51050739D01*
X58753338Y51050729D01*
X58936434Y50747099D01*
X58936438Y50747094D01*
X58936443Y50747085D01*
X58992840Y50673948D01*
X59152963Y50466296D01*
X59152975Y50466282D01*
X59389447Y50222959D01*
X59400095Y50212003D01*
X59674595Y49987545D01*
X59691761Y49976513D01*
X59972875Y49795850D01*
X59972881Y49795847D01*
X59972883Y49795846D01*
X59972891Y49795841D01*
X60291096Y49639391D01*
X60625061Y49520232D01*
X60970432Y49439920D01*
X61256953Y49407045D01*
X61322705Y49399500D01*
X61322707Y49399500D01*
X61588578Y49399500D01*
X61677053Y49404560D01*
X61854008Y49414678D01*
X62203400Y49475143D01*
X62543623Y49575041D01*
X62870241Y49713071D01*
X63178995Y49887432D01*
X63465861Y50095853D01*
X63727099Y50335615D01*
X63959304Y50603593D01*
X64159448Y50896294D01*
X64324921Y51209902D01*
X64453568Y51540328D01*
X64498301Y51710508D01*
X64543709Y51883261D01*
X64543710Y51883264D01*
X64594173Y52234241D01*
X64601534Y52491903D01*
X64604299Y52588672D01*
X64604299Y52588683D01*
X64601220Y52624530D01*
X64573955Y52941968D01*
X64562196Y53000000D01*
X64503540Y53289480D01*
X64503534Y53289502D01*
X64433661Y53504548D01*
X64393964Y53626723D01*
X64361887Y53696961D01*
X64246666Y53949262D01*
X64246661Y53949272D01*
X64063565Y54252902D01*
X64063563Y54252904D01*
X64063557Y54252915D01*
X63952908Y54396407D01*
X63847036Y54533705D01*
X63847024Y54533719D01*
X63599913Y54787989D01*
X63599910Y54787992D01*
X63599905Y54787997D01*
X63541027Y54836141D01*
X63325406Y55012454D01*
X63325402Y55012457D01*
X63027124Y55204151D01*
X63027118Y55204154D01*
X63027112Y55204157D01*
X63027109Y55204159D01*
X62708904Y55360609D01*
X62708900Y55360611D01*
X62708899Y55360611D01*
X62374940Y55479768D01*
X62181031Y55524859D01*
X62029568Y55560080D01*
X61912143Y55573554D01*
X61677295Y55600500D01*
X61677293Y55600500D01*
X61411424Y55600500D01*
X61411422Y55600500D01*
X61145995Y55585323D01*
X60796608Y55524859D01*
X60796591Y55524855D01*
X60456380Y55424960D01*
X60456377Y55424959D01*
X60304107Y55360609D01*
X60129766Y55286932D01*
X60129761Y55286930D01*
X59821005Y55112569D01*
X59821002Y55112567D01*
X59534138Y54904147D01*
X59272901Y54664385D01*
X59272900Y54664384D01*
X59040695Y54396407D01*
X58840555Y54103712D01*
X58840548Y54103701D01*
X58675085Y53790111D01*
X58675075Y53790089D01*
X58546429Y53459667D01*
X58456290Y53116740D01*
X58405828Y52765767D01*
X58405826Y52765747D01*
X58395700Y52411329D01*
X58395700Y52411322D01*
X57329492Y52411322D01*
X57300717Y52439883D01*
X57285610Y52508099D01*
X57309782Y52573655D01*
X57350308Y52608770D01*
X57378649Y52624107D01*
X57557046Y52762960D01*
X57710156Y52929281D01*
X57833802Y53118535D01*
X57924611Y53325559D01*
X57980107Y53544707D01*
X57998775Y53770000D01*
X57998775Y53770007D01*
X57980107Y53995290D01*
X57980107Y53995293D01*
X57924611Y54214441D01*
X57833802Y54421465D01*
X57826123Y54433218D01*
X57760463Y54533719D01*
X57710156Y54610719D01*
X57710153Y54610722D01*
X57710149Y54610728D01*
X57557049Y54777037D01*
X57557048Y54777038D01*
X57557046Y54777040D01*
X57378649Y54915893D01*
X57352390Y54930104D01*
X57179832Y55023488D01*
X57179827Y55023490D01*
X56966017Y55096891D01*
X56798778Y55124798D01*
X56743033Y55134100D01*
X56516967Y55134100D01*
X56472370Y55126659D01*
X56293982Y55096891D01*
X56080172Y55023490D01*
X56080167Y55023488D01*
X55881352Y54915894D01*
X55702955Y54777041D01*
X55702950Y54777037D01*
X55549850Y54610728D01*
X55549842Y54610717D01*
X55463808Y54479032D01*
X55410662Y54433675D01*
X55341430Y54424252D01*
X55278095Y54453754D01*
X55256192Y54479032D01*
X55170358Y54610410D01*
X55170156Y54610719D01*
X55170153Y54610722D01*
X55170149Y54610728D01*
X55017049Y54777037D01*
X55017048Y54777038D01*
X55017046Y54777040D01*
X54838649Y54915893D01*
X54812390Y54930104D01*
X54639832Y55023488D01*
X54639827Y55023490D01*
X54426017Y55096891D01*
X54258778Y55124798D01*
X54203033Y55134100D01*
X53976967Y55134100D01*
X53932370Y55126659D01*
X53753982Y55096891D01*
X53540172Y55023490D01*
X53540167Y55023488D01*
X53341352Y54915894D01*
X53162955Y54777041D01*
X53162950Y54777037D01*
X53009850Y54610728D01*
X53009842Y54610717D01*
X52923808Y54479032D01*
X52870662Y54433675D01*
X52801430Y54424252D01*
X52738095Y54453754D01*
X52716192Y54479032D01*
X52630358Y54610410D01*
X52630156Y54610719D01*
X52630153Y54610722D01*
X52630149Y54610728D01*
X52477049Y54777037D01*
X52477048Y54777038D01*
X52477046Y54777040D01*
X52298649Y54915893D01*
X52272390Y54930104D01*
X52099832Y55023488D01*
X52099827Y55023490D01*
X51886017Y55096891D01*
X51718778Y55124798D01*
X51663033Y55134100D01*
X51436967Y55134100D01*
X51392370Y55126659D01*
X51213982Y55096891D01*
X51000172Y55023490D01*
X51000167Y55023488D01*
X50801352Y54915894D01*
X50622955Y54777041D01*
X50622950Y54777037D01*
X50469850Y54610728D01*
X50469842Y54610717D01*
X50383509Y54478575D01*
X50330363Y54433218D01*
X50261131Y54423795D01*
X50197796Y54453298D01*
X50175892Y54478576D01*
X50089759Y54610413D01*
X49936715Y54776662D01*
X49936703Y54776673D01*
X49758376Y54915471D01*
X49559630Y55023028D01*
X49559624Y55023030D01*
X49345893Y55096404D01*
X49260000Y55110737D01*
X49260000Y54214298D01*
X49154592Y54262435D01*
X49046334Y54278000D01*
X48973666Y54278000D01*
X48865408Y54262435D01*
X48760000Y54214298D01*
X48760000Y55110737D01*
X48759999Y55110737D01*
X48674106Y55096404D01*
X48460375Y55023030D01*
X48460369Y55023028D01*
X48261623Y54915471D01*
X48083296Y54776673D01*
X48083284Y54776662D01*
X47930240Y54610412D01*
X47930238Y54610410D01*
X47844106Y54478575D01*
X47790960Y54433219D01*
X47721729Y54423795D01*
X47658393Y54453297D01*
X47636493Y54478570D01*
X47550156Y54610719D01*
X47550149Y54610726D01*
X47550149Y54610728D01*
X47397049Y54777037D01*
X47397048Y54777038D01*
X47397046Y54777040D01*
X47218649Y54915893D01*
X47192390Y54930104D01*
X47019832Y55023488D01*
X47019827Y55023490D01*
X46806017Y55096891D01*
X46638778Y55124798D01*
X46583033Y55134100D01*
X46356967Y55134100D01*
X46312370Y55126659D01*
X46133982Y55096891D01*
X45920172Y55023490D01*
X45920167Y55023488D01*
X45721352Y54915894D01*
X45542955Y54777041D01*
X45542950Y54777037D01*
X45389850Y54610728D01*
X45389842Y54610717D01*
X45303509Y54478575D01*
X45250363Y54433218D01*
X45181131Y54423795D01*
X45117796Y54453298D01*
X45095892Y54478576D01*
X45009759Y54610413D01*
X44856715Y54776662D01*
X44856703Y54776673D01*
X44678376Y54915471D01*
X44479630Y55023028D01*
X44479624Y55023030D01*
X44265893Y55096404D01*
X44180000Y55110737D01*
X44180000Y54214298D01*
X44074592Y54262435D01*
X43966334Y54278000D01*
X43893666Y54278000D01*
X43785408Y54262435D01*
X43680000Y54214298D01*
X43680000Y55110737D01*
X43594106Y55096404D01*
X43380375Y55023030D01*
X43380369Y55023028D01*
X43181623Y54915471D01*
X43003296Y54776673D01*
X43003284Y54776662D01*
X42850240Y54610412D01*
X42850238Y54610410D01*
X42764106Y54478575D01*
X42710960Y54433219D01*
X42641729Y54423795D01*
X42578393Y54453297D01*
X42556493Y54478570D01*
X42470156Y54610719D01*
X42470149Y54610726D01*
X42470149Y54610728D01*
X42317049Y54777037D01*
X42317048Y54777038D01*
X42317046Y54777040D01*
X42138649Y54915893D01*
X42112390Y54930104D01*
X41939832Y55023488D01*
X41939827Y55023490D01*
X41726017Y55096891D01*
X41558778Y55124798D01*
X41503033Y55134100D01*
X41276967Y55134100D01*
X41232370Y55126659D01*
X41053982Y55096891D01*
X40840172Y55023490D01*
X40840167Y55023488D01*
X40641352Y54915894D01*
X40462955Y54777041D01*
X40462950Y54777037D01*
X40309850Y54610728D01*
X40309842Y54610717D01*
X40223808Y54479032D01*
X40170662Y54433675D01*
X40101430Y54424252D01*
X40038095Y54453754D01*
X40016192Y54479032D01*
X39930358Y54610410D01*
X39930156Y54610719D01*
X39930153Y54610722D01*
X39930149Y54610728D01*
X39777049Y54777037D01*
X39777048Y54777038D01*
X39777046Y54777040D01*
X39598649Y54915893D01*
X39572390Y54930104D01*
X39399832Y55023488D01*
X39399827Y55023490D01*
X39186017Y55096891D01*
X39018778Y55124798D01*
X38963033Y55134100D01*
X38736967Y55134100D01*
X38692370Y55126659D01*
X38513982Y55096891D01*
X38300172Y55023490D01*
X38300167Y55023488D01*
X38101352Y54915894D01*
X37922955Y54777041D01*
X37922950Y54777037D01*
X37769850Y54610728D01*
X37769842Y54610717D01*
X37683808Y54479032D01*
X37630662Y54433675D01*
X37561430Y54424252D01*
X37498095Y54453754D01*
X37476192Y54479032D01*
X37390358Y54610410D01*
X37390156Y54610719D01*
X37390153Y54610722D01*
X37390149Y54610728D01*
X37237049Y54777037D01*
X37237048Y54777038D01*
X37237046Y54777040D01*
X37058649Y54915893D01*
X37032390Y54930104D01*
X36859832Y55023488D01*
X36859827Y55023490D01*
X36646017Y55096891D01*
X36478778Y55124798D01*
X36423033Y55134100D01*
X36196967Y55134100D01*
X36152370Y55126659D01*
X35973982Y55096891D01*
X35760172Y55023490D01*
X35760167Y55023488D01*
X35561352Y54915894D01*
X35382955Y54777041D01*
X35382950Y54777037D01*
X35229850Y54610728D01*
X35229842Y54610717D01*
X35143808Y54479032D01*
X35090662Y54433675D01*
X35021430Y54424252D01*
X34958095Y54453754D01*
X34936192Y54479032D01*
X34850358Y54610410D01*
X34850156Y54610719D01*
X34850153Y54610722D01*
X34850149Y54610728D01*
X34697049Y54777037D01*
X34697048Y54777038D01*
X34697046Y54777040D01*
X34518649Y54915893D01*
X34492390Y54930104D01*
X34319832Y55023488D01*
X34319827Y55023490D01*
X34106017Y55096891D01*
X33938778Y55124798D01*
X33883033Y55134100D01*
X33656967Y55134100D01*
X33612370Y55126659D01*
X33433982Y55096891D01*
X33220172Y55023490D01*
X33220167Y55023488D01*
X33021352Y54915894D01*
X32842955Y54777041D01*
X32842950Y54777037D01*
X32689850Y54610728D01*
X32689842Y54610717D01*
X32603509Y54478575D01*
X32550363Y54433218D01*
X32481131Y54423795D01*
X32417796Y54453298D01*
X32395892Y54478576D01*
X32309759Y54610413D01*
X32156715Y54776662D01*
X32156703Y54776673D01*
X31978376Y54915471D01*
X31779630Y55023028D01*
X31779624Y55023030D01*
X31565893Y55096404D01*
X31480000Y55110737D01*
X31480000Y54214298D01*
X31374592Y54262435D01*
X31266334Y54278000D01*
X31193666Y54278000D01*
X31085408Y54262435D01*
X30980000Y54214298D01*
X30980000Y55110737D01*
X30894106Y55096404D01*
X30680375Y55023030D01*
X30680369Y55023028D01*
X30481623Y54915471D01*
X30303296Y54776673D01*
X30303284Y54776662D01*
X30150240Y54610412D01*
X30150238Y54610410D01*
X30064106Y54478575D01*
X30010960Y54433219D01*
X29941729Y54423795D01*
X29878393Y54453297D01*
X29856493Y54478570D01*
X29770156Y54610719D01*
X29770149Y54610726D01*
X29770149Y54610728D01*
X29617049Y54777037D01*
X29617048Y54777038D01*
X29617046Y54777040D01*
X29438649Y54915893D01*
X29412390Y54930104D01*
X29239832Y55023488D01*
X29239827Y55023490D01*
X29026017Y55096891D01*
X28858778Y55124798D01*
X28803033Y55134100D01*
X28576967Y55134100D01*
X28532370Y55126659D01*
X28353982Y55096891D01*
X28140172Y55023490D01*
X28140167Y55023488D01*
X27941352Y54915894D01*
X27762955Y54777041D01*
X27762950Y54777037D01*
X27609850Y54610728D01*
X27609842Y54610717D01*
X27523808Y54479032D01*
X27470662Y54433675D01*
X27401430Y54424252D01*
X27338095Y54453754D01*
X27316192Y54479032D01*
X27230358Y54610410D01*
X27230156Y54610719D01*
X27230153Y54610722D01*
X27230149Y54610728D01*
X27077049Y54777037D01*
X27077048Y54777038D01*
X27077046Y54777040D01*
X26898649Y54915893D01*
X26872390Y54930104D01*
X26699832Y55023488D01*
X26699827Y55023490D01*
X26486017Y55096891D01*
X26318778Y55124798D01*
X26263033Y55134100D01*
X26036967Y55134100D01*
X25992370Y55126659D01*
X25813982Y55096891D01*
X25600172Y55023490D01*
X25600167Y55023488D01*
X25401352Y54915894D01*
X25222955Y54777041D01*
X25222950Y54777037D01*
X25069850Y54610728D01*
X25069842Y54610717D01*
X24983509Y54478575D01*
X24930363Y54433218D01*
X24861131Y54423795D01*
X24797796Y54453298D01*
X24775892Y54478576D01*
X24689759Y54610413D01*
X24536715Y54776662D01*
X24536703Y54776673D01*
X24358376Y54915471D01*
X24159630Y55023028D01*
X24159624Y55023030D01*
X23945893Y55096404D01*
X23860000Y55110737D01*
X23860000Y54214298D01*
X23754592Y54262435D01*
X23646334Y54278000D01*
X23573666Y54278000D01*
X23465408Y54262435D01*
X23360000Y54214298D01*
X23360000Y55110737D01*
X23359999Y55110737D01*
X23274106Y55096404D01*
X23060375Y55023030D01*
X23060369Y55023028D01*
X22861623Y54915471D01*
X22683296Y54776673D01*
X22683284Y54776662D01*
X22530240Y54610412D01*
X22530238Y54610410D01*
X22444106Y54478575D01*
X22390960Y54433219D01*
X22321729Y54423795D01*
X22258393Y54453297D01*
X22236493Y54478570D01*
X22150156Y54610719D01*
X22150149Y54610726D01*
X22150149Y54610728D01*
X21997049Y54777037D01*
X21997048Y54777038D01*
X21997046Y54777040D01*
X21818649Y54915893D01*
X21792390Y54930104D01*
X21619832Y55023488D01*
X21619827Y55023490D01*
X21406017Y55096891D01*
X21238778Y55124798D01*
X21183033Y55134100D01*
X20956967Y55134100D01*
X20912370Y55126659D01*
X20733982Y55096891D01*
X20520172Y55023490D01*
X20520167Y55023488D01*
X20321352Y54915894D01*
X20142955Y54777041D01*
X20142950Y54777037D01*
X19989850Y54610728D01*
X19989842Y54610717D01*
X19903808Y54479032D01*
X19850662Y54433675D01*
X19781430Y54424252D01*
X19718095Y54453754D01*
X19696192Y54479032D01*
X19610358Y54610410D01*
X19610156Y54610719D01*
X19610153Y54610722D01*
X19610149Y54610728D01*
X19457049Y54777037D01*
X19457048Y54777038D01*
X19457046Y54777040D01*
X19278649Y54915893D01*
X19252390Y54930104D01*
X19079832Y55023488D01*
X19079827Y55023490D01*
X18866017Y55096891D01*
X18698778Y55124798D01*
X18643033Y55134100D01*
X18416967Y55134100D01*
X18372370Y55126659D01*
X18193982Y55096891D01*
X17980172Y55023490D01*
X17980167Y55023488D01*
X17781352Y54915894D01*
X17602955Y54777041D01*
X17602950Y54777037D01*
X17449850Y54610728D01*
X17449842Y54610717D01*
X17363808Y54479032D01*
X17310662Y54433675D01*
X17241430Y54424252D01*
X17178095Y54453754D01*
X17156192Y54479032D01*
X17070358Y54610410D01*
X17070156Y54610719D01*
X17070153Y54610722D01*
X17070149Y54610728D01*
X16917049Y54777037D01*
X16917048Y54777038D01*
X16917046Y54777040D01*
X16738649Y54915893D01*
X16712390Y54930104D01*
X16539832Y55023488D01*
X16539827Y55023490D01*
X16326017Y55096891D01*
X16158778Y55124798D01*
X16103033Y55134100D01*
X15876967Y55134100D01*
X15832370Y55126659D01*
X15653982Y55096891D01*
X15440172Y55023490D01*
X15440167Y55023488D01*
X15241352Y54915894D01*
X15062955Y54777041D01*
X15062950Y54777037D01*
X14909850Y54610728D01*
X14909842Y54610717D01*
X14823509Y54478575D01*
X14770363Y54433218D01*
X14701131Y54423795D01*
X14637796Y54453298D01*
X14615892Y54478576D01*
X14529759Y54610413D01*
X14376715Y54776662D01*
X14376703Y54776673D01*
X14198376Y54915471D01*
X13999630Y55023028D01*
X13999624Y55023030D01*
X13785893Y55096404D01*
X13700000Y55110737D01*
X13700000Y54214298D01*
X13594592Y54262435D01*
X13486334Y54278000D01*
X13413666Y54278000D01*
X13305408Y54262435D01*
X13200000Y54214298D01*
X13200000Y55110737D01*
X13114106Y55096404D01*
X12900375Y55023030D01*
X12900369Y55023028D01*
X12701623Y54915471D01*
X12523296Y54776673D01*
X12523284Y54776662D01*
X12370240Y54610412D01*
X12370238Y54610410D01*
X12284106Y54478575D01*
X12230960Y54433219D01*
X12161729Y54423795D01*
X12098393Y54453297D01*
X12076493Y54478570D01*
X11990156Y54610719D01*
X11990149Y54610726D01*
X11990149Y54610728D01*
X11837049Y54777037D01*
X11837048Y54777038D01*
X11837046Y54777040D01*
X11658649Y54915893D01*
X11632390Y54930104D01*
X11459832Y55023488D01*
X11459827Y55023490D01*
X11246017Y55096891D01*
X11078778Y55124798D01*
X11023033Y55134100D01*
X10796967Y55134100D01*
X10752370Y55126659D01*
X10573982Y55096891D01*
X10360172Y55023490D01*
X10360167Y55023488D01*
X10161352Y54915894D01*
X9982955Y54777041D01*
X9982950Y54777037D01*
X9829850Y54610728D01*
X9829842Y54610717D01*
X9743808Y54479032D01*
X9690662Y54433675D01*
X9621430Y54424252D01*
X9558095Y54453754D01*
X9536192Y54479032D01*
X9450358Y54610410D01*
X9450156Y54610719D01*
X9450153Y54610722D01*
X9450149Y54610728D01*
X9297049Y54777037D01*
X9297048Y54777038D01*
X9297046Y54777040D01*
X9118649Y54915893D01*
X9092390Y54930104D01*
X8919832Y55023488D01*
X8919827Y55023490D01*
X8706017Y55096891D01*
X8538778Y55124798D01*
X8483033Y55134100D01*
X8256967Y55134100D01*
X8212370Y55126659D01*
X8033982Y55096891D01*
X7820172Y55023490D01*
X7820167Y55023488D01*
X7621352Y54915894D01*
X7442955Y54777041D01*
X7442950Y54777037D01*
X7289850Y54610728D01*
X7289842Y54610717D01*
X7166198Y54421467D01*
X7075388Y54214440D01*
X7019892Y53995293D01*
X7019153Y53986372D01*
X6993996Y53921189D01*
X6983258Y53908938D01*
X6612353Y53538033D01*
X6551030Y53504548D01*
X6481338Y53509532D01*
X6425405Y53551404D01*
X6406743Y53587391D01*
X6393964Y53626723D01*
X6378917Y53659672D01*
X6246666Y53949262D01*
X6246661Y53949272D01*
X6063565Y54252902D01*
X6063563Y54252904D01*
X6063557Y54252915D01*
X5952908Y54396407D01*
X5847036Y54533705D01*
X5847024Y54533719D01*
X5599913Y54787989D01*
X5599910Y54787992D01*
X5599905Y54787997D01*
X5541027Y54836141D01*
X5325406Y55012454D01*
X5325402Y55012457D01*
X5027124Y55204151D01*
X5027118Y55204154D01*
X5027112Y55204157D01*
X5027109Y55204159D01*
X4708904Y55360609D01*
X4708900Y55360611D01*
X4708899Y55360611D01*
X4374940Y55479768D01*
X4181031Y55524859D01*
X4029568Y55560080D01*
X3912143Y55573554D01*
X3677295Y55600500D01*
X3677293Y55600500D01*
X3411424Y55600500D01*
X3411422Y55600500D01*
X3145995Y55585323D01*
X2796608Y55524859D01*
X2796591Y55524855D01*
X2456380Y55424960D01*
X2456377Y55424959D01*
X2304107Y55360609D01*
X2129766Y55286932D01*
X2129761Y55286930D01*
X1821005Y55112569D01*
X1821002Y55112567D01*
X1534138Y54904147D01*
X1272901Y54664385D01*
X1272900Y54664384D01*
X1040695Y54396407D01*
X840555Y54103712D01*
X840548Y54103701D01*
X675085Y53790111D01*
X675075Y53790089D01*
X546429Y53459667D01*
X456290Y53116740D01*
X405828Y52765767D01*
X405826Y52765747D01*
X395700Y52411329D01*
X395700Y52411322D01*
X50500Y52411322D01*
X50500Y52998259D01*
X50598Y53001736D01*
X59478Y53159870D01*
X68851Y53326773D01*
X69627Y53333660D01*
X123866Y53652889D01*
X125414Y53659672D01*
X157201Y53770007D01*
X215053Y53970819D01*
X217346Y53977371D01*
X341265Y54276539D01*
X344268Y54282774D01*
X500909Y54566194D01*
X504592Y54572056D01*
X691983Y54836158D01*
X696293Y54841564D01*
X912069Y55083016D01*
X916987Y55087933D01*
X927011Y55096891D01*
X1158436Y55303707D01*
X1163842Y55308017D01*
X1427944Y55495408D01*
X1433806Y55499091D01*
X1717226Y55655732D01*
X1723461Y55658735D01*
X2022629Y55782654D01*
X2029181Y55784947D01*
X2340332Y55874587D01*
X2347112Y55876134D01*
X2666340Y55930373D01*
X2673227Y55931149D01*
X2850713Y55941117D01*
X2998265Y55949402D01*
X3001742Y55949500D01*
X3016408Y55949500D01*
X61983592Y55949500D01*
X61998258Y55949500D01*
X62001735Y55949402D01*
G37*
G04 #@! TD.AperFunction*
M02*
