G04 #@! TF.GenerationSoftware,KiCad,Pcbnew,7.0.11+1*
G04 #@! TF.CreationDate,2024-10-04T12:25:26+00:00*
G04 #@! TF.ProjectId,pedalboard-soundcard,70656461-6c62-46f6-9172-642d736f756e,0.0.1*
G04 #@! TF.SameCoordinates,Original*
G04 #@! TF.FileFunction,Legend,Bot*
G04 #@! TF.FilePolarity,Positive*
%FSLAX46Y46*%
G04 Gerber Fmt 4.6, Leading zero omitted, Abs format (unit mm)*
G04 Created by KiCad (PCBNEW 7.0.11+1) date 2024-10-04 12:25:26*
%MOMM*%
%LPD*%
G01*
G04 APERTURE LIST*
%ADD10C,0.150000*%
%ADD11C,0.120000*%
G04 APERTURE END LIST*
D10*
X63522744Y43310181D02*
X63332268Y43310181D01*
X63332268Y43310181D02*
X63237030Y43262562D01*
X63237030Y43262562D02*
X63141792Y43167324D01*
X63141792Y43167324D02*
X63094173Y42976848D01*
X63094173Y42976848D02*
X63094173Y42643515D01*
X63094173Y42643515D02*
X63141792Y42453039D01*
X63141792Y42453039D02*
X63237030Y42357800D01*
X63237030Y42357800D02*
X63332268Y42310181D01*
X63332268Y42310181D02*
X63522744Y42310181D01*
X63522744Y42310181D02*
X63617982Y42357800D01*
X63617982Y42357800D02*
X63713220Y42453039D01*
X63713220Y42453039D02*
X63760839Y42643515D01*
X63760839Y42643515D02*
X63760839Y42976848D01*
X63760839Y42976848D02*
X63713220Y43167324D01*
X63713220Y43167324D02*
X63617982Y43262562D01*
X63617982Y43262562D02*
X63522744Y43310181D01*
X62665601Y42976848D02*
X62665601Y41976848D01*
X62665601Y42929229D02*
X62570363Y42976848D01*
X62570363Y42976848D02*
X62379887Y42976848D01*
X62379887Y42976848D02*
X62284649Y42929229D01*
X62284649Y42929229D02*
X62237030Y42881610D01*
X62237030Y42881610D02*
X62189411Y42786372D01*
X62189411Y42786372D02*
X62189411Y42500658D01*
X62189411Y42500658D02*
X62237030Y42405420D01*
X62237030Y42405420D02*
X62284649Y42357800D01*
X62284649Y42357800D02*
X62379887Y42310181D01*
X62379887Y42310181D02*
X62570363Y42310181D01*
X62570363Y42310181D02*
X62665601Y42357800D01*
X61379887Y42357800D02*
X61475125Y42310181D01*
X61475125Y42310181D02*
X61665601Y42310181D01*
X61665601Y42310181D02*
X61760839Y42357800D01*
X61760839Y42357800D02*
X61808458Y42453039D01*
X61808458Y42453039D02*
X61808458Y42833991D01*
X61808458Y42833991D02*
X61760839Y42929229D01*
X61760839Y42929229D02*
X61665601Y42976848D01*
X61665601Y42976848D02*
X61475125Y42976848D01*
X61475125Y42976848D02*
X61379887Y42929229D01*
X61379887Y42929229D02*
X61332268Y42833991D01*
X61332268Y42833991D02*
X61332268Y42738753D01*
X61332268Y42738753D02*
X61808458Y42643515D01*
X60903696Y42976848D02*
X60903696Y42310181D01*
X60903696Y42881610D02*
X60856077Y42929229D01*
X60856077Y42929229D02*
X60760839Y42976848D01*
X60760839Y42976848D02*
X60617982Y42976848D01*
X60617982Y42976848D02*
X60522744Y42929229D01*
X60522744Y42929229D02*
X60475125Y42833991D01*
X60475125Y42833991D02*
X60475125Y42310181D01*
X59237029Y42310181D02*
X59237029Y43310181D01*
X59237029Y43310181D02*
X58856077Y43310181D01*
X58856077Y43310181D02*
X58760839Y43262562D01*
X58760839Y43262562D02*
X58713220Y43214943D01*
X58713220Y43214943D02*
X58665601Y43119705D01*
X58665601Y43119705D02*
X58665601Y42976848D01*
X58665601Y42976848D02*
X58713220Y42881610D01*
X58713220Y42881610D02*
X58760839Y42833991D01*
X58760839Y42833991D02*
X58856077Y42786372D01*
X58856077Y42786372D02*
X59237029Y42786372D01*
X57856077Y42357800D02*
X57951315Y42310181D01*
X57951315Y42310181D02*
X58141791Y42310181D01*
X58141791Y42310181D02*
X58237029Y42357800D01*
X58237029Y42357800D02*
X58284648Y42453039D01*
X58284648Y42453039D02*
X58284648Y42833991D01*
X58284648Y42833991D02*
X58237029Y42929229D01*
X58237029Y42929229D02*
X58141791Y42976848D01*
X58141791Y42976848D02*
X57951315Y42976848D01*
X57951315Y42976848D02*
X57856077Y42929229D01*
X57856077Y42929229D02*
X57808458Y42833991D01*
X57808458Y42833991D02*
X57808458Y42738753D01*
X57808458Y42738753D02*
X58284648Y42643515D01*
X56951315Y42310181D02*
X56951315Y43310181D01*
X56951315Y42357800D02*
X57046553Y42310181D01*
X57046553Y42310181D02*
X57237029Y42310181D01*
X57237029Y42310181D02*
X57332267Y42357800D01*
X57332267Y42357800D02*
X57379886Y42405420D01*
X57379886Y42405420D02*
X57427505Y42500658D01*
X57427505Y42500658D02*
X57427505Y42786372D01*
X57427505Y42786372D02*
X57379886Y42881610D01*
X57379886Y42881610D02*
X57332267Y42929229D01*
X57332267Y42929229D02*
X57237029Y42976848D01*
X57237029Y42976848D02*
X57046553Y42976848D01*
X57046553Y42976848D02*
X56951315Y42929229D01*
X56046553Y42310181D02*
X56046553Y42833991D01*
X56046553Y42833991D02*
X56094172Y42929229D01*
X56094172Y42929229D02*
X56189410Y42976848D01*
X56189410Y42976848D02*
X56379886Y42976848D01*
X56379886Y42976848D02*
X56475124Y42929229D01*
X56046553Y42357800D02*
X56141791Y42310181D01*
X56141791Y42310181D02*
X56379886Y42310181D01*
X56379886Y42310181D02*
X56475124Y42357800D01*
X56475124Y42357800D02*
X56522743Y42453039D01*
X56522743Y42453039D02*
X56522743Y42548277D01*
X56522743Y42548277D02*
X56475124Y42643515D01*
X56475124Y42643515D02*
X56379886Y42691134D01*
X56379886Y42691134D02*
X56141791Y42691134D01*
X56141791Y42691134D02*
X56046553Y42738753D01*
X55427505Y42310181D02*
X55522743Y42357800D01*
X55522743Y42357800D02*
X55570362Y42453039D01*
X55570362Y42453039D02*
X55570362Y43310181D01*
X55046552Y42310181D02*
X55046552Y43310181D01*
X55046552Y42929229D02*
X54951314Y42976848D01*
X54951314Y42976848D02*
X54760838Y42976848D01*
X54760838Y42976848D02*
X54665600Y42929229D01*
X54665600Y42929229D02*
X54617981Y42881610D01*
X54617981Y42881610D02*
X54570362Y42786372D01*
X54570362Y42786372D02*
X54570362Y42500658D01*
X54570362Y42500658D02*
X54617981Y42405420D01*
X54617981Y42405420D02*
X54665600Y42357800D01*
X54665600Y42357800D02*
X54760838Y42310181D01*
X54760838Y42310181D02*
X54951314Y42310181D01*
X54951314Y42310181D02*
X55046552Y42357800D01*
X53998933Y42310181D02*
X54094171Y42357800D01*
X54094171Y42357800D02*
X54141790Y42405420D01*
X54141790Y42405420D02*
X54189409Y42500658D01*
X54189409Y42500658D02*
X54189409Y42786372D01*
X54189409Y42786372D02*
X54141790Y42881610D01*
X54141790Y42881610D02*
X54094171Y42929229D01*
X54094171Y42929229D02*
X53998933Y42976848D01*
X53998933Y42976848D02*
X53856076Y42976848D01*
X53856076Y42976848D02*
X53760838Y42929229D01*
X53760838Y42929229D02*
X53713219Y42881610D01*
X53713219Y42881610D02*
X53665600Y42786372D01*
X53665600Y42786372D02*
X53665600Y42500658D01*
X53665600Y42500658D02*
X53713219Y42405420D01*
X53713219Y42405420D02*
X53760838Y42357800D01*
X53760838Y42357800D02*
X53856076Y42310181D01*
X53856076Y42310181D02*
X53998933Y42310181D01*
X52808457Y42310181D02*
X52808457Y42833991D01*
X52808457Y42833991D02*
X52856076Y42929229D01*
X52856076Y42929229D02*
X52951314Y42976848D01*
X52951314Y42976848D02*
X53141790Y42976848D01*
X53141790Y42976848D02*
X53237028Y42929229D01*
X52808457Y42357800D02*
X52903695Y42310181D01*
X52903695Y42310181D02*
X53141790Y42310181D01*
X53141790Y42310181D02*
X53237028Y42357800D01*
X53237028Y42357800D02*
X53284647Y42453039D01*
X53284647Y42453039D02*
X53284647Y42548277D01*
X53284647Y42548277D02*
X53237028Y42643515D01*
X53237028Y42643515D02*
X53141790Y42691134D01*
X53141790Y42691134D02*
X52903695Y42691134D01*
X52903695Y42691134D02*
X52808457Y42738753D01*
X52332266Y42310181D02*
X52332266Y42976848D01*
X52332266Y42786372D02*
X52284647Y42881610D01*
X52284647Y42881610D02*
X52237028Y42929229D01*
X52237028Y42929229D02*
X52141790Y42976848D01*
X52141790Y42976848D02*
X52046552Y42976848D01*
X51284647Y42310181D02*
X51284647Y43310181D01*
X51284647Y42357800D02*
X51379885Y42310181D01*
X51379885Y42310181D02*
X51570361Y42310181D01*
X51570361Y42310181D02*
X51665599Y42357800D01*
X51665599Y42357800D02*
X51713218Y42405420D01*
X51713218Y42405420D02*
X51760837Y42500658D01*
X51760837Y42500658D02*
X51760837Y42786372D01*
X51760837Y42786372D02*
X51713218Y42881610D01*
X51713218Y42881610D02*
X51665599Y42929229D01*
X51665599Y42929229D02*
X51570361Y42976848D01*
X51570361Y42976848D02*
X51379885Y42976848D01*
X51379885Y42976848D02*
X51284647Y42929229D01*
X50094170Y42357800D02*
X49951313Y42310181D01*
X49951313Y42310181D02*
X49713218Y42310181D01*
X49713218Y42310181D02*
X49617980Y42357800D01*
X49617980Y42357800D02*
X49570361Y42405420D01*
X49570361Y42405420D02*
X49522742Y42500658D01*
X49522742Y42500658D02*
X49522742Y42595896D01*
X49522742Y42595896D02*
X49570361Y42691134D01*
X49570361Y42691134D02*
X49617980Y42738753D01*
X49617980Y42738753D02*
X49713218Y42786372D01*
X49713218Y42786372D02*
X49903694Y42833991D01*
X49903694Y42833991D02*
X49998932Y42881610D01*
X49998932Y42881610D02*
X50046551Y42929229D01*
X50046551Y42929229D02*
X50094170Y43024467D01*
X50094170Y43024467D02*
X50094170Y43119705D01*
X50094170Y43119705D02*
X50046551Y43214943D01*
X50046551Y43214943D02*
X49998932Y43262562D01*
X49998932Y43262562D02*
X49903694Y43310181D01*
X49903694Y43310181D02*
X49665599Y43310181D01*
X49665599Y43310181D02*
X49522742Y43262562D01*
X48951313Y42310181D02*
X49046551Y42357800D01*
X49046551Y42357800D02*
X49094170Y42405420D01*
X49094170Y42405420D02*
X49141789Y42500658D01*
X49141789Y42500658D02*
X49141789Y42786372D01*
X49141789Y42786372D02*
X49094170Y42881610D01*
X49094170Y42881610D02*
X49046551Y42929229D01*
X49046551Y42929229D02*
X48951313Y42976848D01*
X48951313Y42976848D02*
X48808456Y42976848D01*
X48808456Y42976848D02*
X48713218Y42929229D01*
X48713218Y42929229D02*
X48665599Y42881610D01*
X48665599Y42881610D02*
X48617980Y42786372D01*
X48617980Y42786372D02*
X48617980Y42500658D01*
X48617980Y42500658D02*
X48665599Y42405420D01*
X48665599Y42405420D02*
X48713218Y42357800D01*
X48713218Y42357800D02*
X48808456Y42310181D01*
X48808456Y42310181D02*
X48951313Y42310181D01*
X47760837Y42976848D02*
X47760837Y42310181D01*
X48189408Y42976848D02*
X48189408Y42453039D01*
X48189408Y42453039D02*
X48141789Y42357800D01*
X48141789Y42357800D02*
X48046551Y42310181D01*
X48046551Y42310181D02*
X47903694Y42310181D01*
X47903694Y42310181D02*
X47808456Y42357800D01*
X47808456Y42357800D02*
X47760837Y42405420D01*
X47284646Y42976848D02*
X47284646Y42310181D01*
X47284646Y42881610D02*
X47237027Y42929229D01*
X47237027Y42929229D02*
X47141789Y42976848D01*
X47141789Y42976848D02*
X46998932Y42976848D01*
X46998932Y42976848D02*
X46903694Y42929229D01*
X46903694Y42929229D02*
X46856075Y42833991D01*
X46856075Y42833991D02*
X46856075Y42310181D01*
X45951313Y42310181D02*
X45951313Y43310181D01*
X45951313Y42357800D02*
X46046551Y42310181D01*
X46046551Y42310181D02*
X46237027Y42310181D01*
X46237027Y42310181D02*
X46332265Y42357800D01*
X46332265Y42357800D02*
X46379884Y42405420D01*
X46379884Y42405420D02*
X46427503Y42500658D01*
X46427503Y42500658D02*
X46427503Y42786372D01*
X46427503Y42786372D02*
X46379884Y42881610D01*
X46379884Y42881610D02*
X46332265Y42929229D01*
X46332265Y42929229D02*
X46237027Y42976848D01*
X46237027Y42976848D02*
X46046551Y42976848D01*
X46046551Y42976848D02*
X45951313Y42929229D01*
X45046551Y42357800D02*
X45141789Y42310181D01*
X45141789Y42310181D02*
X45332265Y42310181D01*
X45332265Y42310181D02*
X45427503Y42357800D01*
X45427503Y42357800D02*
X45475122Y42405420D01*
X45475122Y42405420D02*
X45522741Y42500658D01*
X45522741Y42500658D02*
X45522741Y42786372D01*
X45522741Y42786372D02*
X45475122Y42881610D01*
X45475122Y42881610D02*
X45427503Y42929229D01*
X45427503Y42929229D02*
X45332265Y42976848D01*
X45332265Y42976848D02*
X45141789Y42976848D01*
X45141789Y42976848D02*
X45046551Y42929229D01*
X44189408Y42310181D02*
X44189408Y42833991D01*
X44189408Y42833991D02*
X44237027Y42929229D01*
X44237027Y42929229D02*
X44332265Y42976848D01*
X44332265Y42976848D02*
X44522741Y42976848D01*
X44522741Y42976848D02*
X44617979Y42929229D01*
X44189408Y42357800D02*
X44284646Y42310181D01*
X44284646Y42310181D02*
X44522741Y42310181D01*
X44522741Y42310181D02*
X44617979Y42357800D01*
X44617979Y42357800D02*
X44665598Y42453039D01*
X44665598Y42453039D02*
X44665598Y42548277D01*
X44665598Y42548277D02*
X44617979Y42643515D01*
X44617979Y42643515D02*
X44522741Y42691134D01*
X44522741Y42691134D02*
X44284646Y42691134D01*
X44284646Y42691134D02*
X44189408Y42738753D01*
X43713217Y42310181D02*
X43713217Y42976848D01*
X43713217Y42786372D02*
X43665598Y42881610D01*
X43665598Y42881610D02*
X43617979Y42929229D01*
X43617979Y42929229D02*
X43522741Y42976848D01*
X43522741Y42976848D02*
X43427503Y42976848D01*
X42665598Y42310181D02*
X42665598Y43310181D01*
X42665598Y42357800D02*
X42760836Y42310181D01*
X42760836Y42310181D02*
X42951312Y42310181D01*
X42951312Y42310181D02*
X43046550Y42357800D01*
X43046550Y42357800D02*
X43094169Y42405420D01*
X43094169Y42405420D02*
X43141788Y42500658D01*
X43141788Y42500658D02*
X43141788Y42786372D01*
X43141788Y42786372D02*
X43094169Y42881610D01*
X43094169Y42881610D02*
X43046550Y42929229D01*
X43046550Y42929229D02*
X42951312Y42976848D01*
X42951312Y42976848D02*
X42760836Y42976848D01*
X42760836Y42976848D02*
X42665598Y42929229D01*
X63284649Y41366848D02*
X63284649Y40557324D01*
X63284649Y40557324D02*
X63332268Y40462086D01*
X63332268Y40462086D02*
X63379887Y40414467D01*
X63379887Y40414467D02*
X63475125Y40366848D01*
X63475125Y40366848D02*
X63617982Y40366848D01*
X63617982Y40366848D02*
X63713220Y40414467D01*
X63284649Y40747800D02*
X63379887Y40700181D01*
X63379887Y40700181D02*
X63570363Y40700181D01*
X63570363Y40700181D02*
X63665601Y40747800D01*
X63665601Y40747800D02*
X63713220Y40795420D01*
X63713220Y40795420D02*
X63760839Y40890658D01*
X63760839Y40890658D02*
X63760839Y41176372D01*
X63760839Y41176372D02*
X63713220Y41271610D01*
X63713220Y41271610D02*
X63665601Y41319229D01*
X63665601Y41319229D02*
X63570363Y41366848D01*
X63570363Y41366848D02*
X63379887Y41366848D01*
X63379887Y41366848D02*
X63284649Y41319229D01*
X62808458Y40700181D02*
X62808458Y41366848D01*
X62808458Y41700181D02*
X62856077Y41652562D01*
X62856077Y41652562D02*
X62808458Y41604943D01*
X62808458Y41604943D02*
X62760839Y41652562D01*
X62760839Y41652562D02*
X62808458Y41700181D01*
X62808458Y41700181D02*
X62808458Y41604943D01*
X62475125Y41366848D02*
X62094173Y41366848D01*
X62332268Y41700181D02*
X62332268Y40843039D01*
X62332268Y40843039D02*
X62284649Y40747800D01*
X62284649Y40747800D02*
X62189411Y40700181D01*
X62189411Y40700181D02*
X62094173Y40700181D01*
X61760839Y40700181D02*
X61760839Y41700181D01*
X61332268Y40700181D02*
X61332268Y41223991D01*
X61332268Y41223991D02*
X61379887Y41319229D01*
X61379887Y41319229D02*
X61475125Y41366848D01*
X61475125Y41366848D02*
X61617982Y41366848D01*
X61617982Y41366848D02*
X61713220Y41319229D01*
X61713220Y41319229D02*
X61760839Y41271610D01*
X60427506Y41366848D02*
X60427506Y40700181D01*
X60856077Y41366848D02*
X60856077Y40843039D01*
X60856077Y40843039D02*
X60808458Y40747800D01*
X60808458Y40747800D02*
X60713220Y40700181D01*
X60713220Y40700181D02*
X60570363Y40700181D01*
X60570363Y40700181D02*
X60475125Y40747800D01*
X60475125Y40747800D02*
X60427506Y40795420D01*
X59951315Y40700181D02*
X59951315Y41700181D01*
X59951315Y41319229D02*
X59856077Y41366848D01*
X59856077Y41366848D02*
X59665601Y41366848D01*
X59665601Y41366848D02*
X59570363Y41319229D01*
X59570363Y41319229D02*
X59522744Y41271610D01*
X59522744Y41271610D02*
X59475125Y41176372D01*
X59475125Y41176372D02*
X59475125Y40890658D01*
X59475125Y40890658D02*
X59522744Y40795420D01*
X59522744Y40795420D02*
X59570363Y40747800D01*
X59570363Y40747800D02*
X59665601Y40700181D01*
X59665601Y40700181D02*
X59856077Y40700181D01*
X59856077Y40700181D02*
X59951315Y40747800D01*
X59046553Y40795420D02*
X58998934Y40747800D01*
X58998934Y40747800D02*
X59046553Y40700181D01*
X59046553Y40700181D02*
X59094172Y40747800D01*
X59094172Y40747800D02*
X59046553Y40795420D01*
X59046553Y40795420D02*
X59046553Y40700181D01*
X58141792Y40747800D02*
X58237030Y40700181D01*
X58237030Y40700181D02*
X58427506Y40700181D01*
X58427506Y40700181D02*
X58522744Y40747800D01*
X58522744Y40747800D02*
X58570363Y40795420D01*
X58570363Y40795420D02*
X58617982Y40890658D01*
X58617982Y40890658D02*
X58617982Y41176372D01*
X58617982Y41176372D02*
X58570363Y41271610D01*
X58570363Y41271610D02*
X58522744Y41319229D01*
X58522744Y41319229D02*
X58427506Y41366848D01*
X58427506Y41366848D02*
X58237030Y41366848D01*
X58237030Y41366848D02*
X58141792Y41319229D01*
X57570363Y40700181D02*
X57665601Y40747800D01*
X57665601Y40747800D02*
X57713220Y40795420D01*
X57713220Y40795420D02*
X57760839Y40890658D01*
X57760839Y40890658D02*
X57760839Y41176372D01*
X57760839Y41176372D02*
X57713220Y41271610D01*
X57713220Y41271610D02*
X57665601Y41319229D01*
X57665601Y41319229D02*
X57570363Y41366848D01*
X57570363Y41366848D02*
X57427506Y41366848D01*
X57427506Y41366848D02*
X57332268Y41319229D01*
X57332268Y41319229D02*
X57284649Y41271610D01*
X57284649Y41271610D02*
X57237030Y41176372D01*
X57237030Y41176372D02*
X57237030Y40890658D01*
X57237030Y40890658D02*
X57284649Y40795420D01*
X57284649Y40795420D02*
X57332268Y40747800D01*
X57332268Y40747800D02*
X57427506Y40700181D01*
X57427506Y40700181D02*
X57570363Y40700181D01*
X56808458Y40700181D02*
X56808458Y41366848D01*
X56808458Y41271610D02*
X56760839Y41319229D01*
X56760839Y41319229D02*
X56665601Y41366848D01*
X56665601Y41366848D02*
X56522744Y41366848D01*
X56522744Y41366848D02*
X56427506Y41319229D01*
X56427506Y41319229D02*
X56379887Y41223991D01*
X56379887Y41223991D02*
X56379887Y40700181D01*
X56379887Y41223991D02*
X56332268Y41319229D01*
X56332268Y41319229D02*
X56237030Y41366848D01*
X56237030Y41366848D02*
X56094173Y41366848D01*
X56094173Y41366848D02*
X55998934Y41319229D01*
X55998934Y41319229D02*
X55951315Y41223991D01*
X55951315Y41223991D02*
X55951315Y40700181D01*
X54760840Y41747800D02*
X55617982Y40462086D01*
X54427506Y41366848D02*
X54427506Y40366848D01*
X54427506Y41319229D02*
X54332268Y41366848D01*
X54332268Y41366848D02*
X54141792Y41366848D01*
X54141792Y41366848D02*
X54046554Y41319229D01*
X54046554Y41319229D02*
X53998935Y41271610D01*
X53998935Y41271610D02*
X53951316Y41176372D01*
X53951316Y41176372D02*
X53951316Y40890658D01*
X53951316Y40890658D02*
X53998935Y40795420D01*
X53998935Y40795420D02*
X54046554Y40747800D01*
X54046554Y40747800D02*
X54141792Y40700181D01*
X54141792Y40700181D02*
X54332268Y40700181D01*
X54332268Y40700181D02*
X54427506Y40747800D01*
X53141792Y40747800D02*
X53237030Y40700181D01*
X53237030Y40700181D02*
X53427506Y40700181D01*
X53427506Y40700181D02*
X53522744Y40747800D01*
X53522744Y40747800D02*
X53570363Y40843039D01*
X53570363Y40843039D02*
X53570363Y41223991D01*
X53570363Y41223991D02*
X53522744Y41319229D01*
X53522744Y41319229D02*
X53427506Y41366848D01*
X53427506Y41366848D02*
X53237030Y41366848D01*
X53237030Y41366848D02*
X53141792Y41319229D01*
X53141792Y41319229D02*
X53094173Y41223991D01*
X53094173Y41223991D02*
X53094173Y41128753D01*
X53094173Y41128753D02*
X53570363Y41033515D01*
X52237030Y40700181D02*
X52237030Y41700181D01*
X52237030Y40747800D02*
X52332268Y40700181D01*
X52332268Y40700181D02*
X52522744Y40700181D01*
X52522744Y40700181D02*
X52617982Y40747800D01*
X52617982Y40747800D02*
X52665601Y40795420D01*
X52665601Y40795420D02*
X52713220Y40890658D01*
X52713220Y40890658D02*
X52713220Y41176372D01*
X52713220Y41176372D02*
X52665601Y41271610D01*
X52665601Y41271610D02*
X52617982Y41319229D01*
X52617982Y41319229D02*
X52522744Y41366848D01*
X52522744Y41366848D02*
X52332268Y41366848D01*
X52332268Y41366848D02*
X52237030Y41319229D01*
X51332268Y40700181D02*
X51332268Y41223991D01*
X51332268Y41223991D02*
X51379887Y41319229D01*
X51379887Y41319229D02*
X51475125Y41366848D01*
X51475125Y41366848D02*
X51665601Y41366848D01*
X51665601Y41366848D02*
X51760839Y41319229D01*
X51332268Y40747800D02*
X51427506Y40700181D01*
X51427506Y40700181D02*
X51665601Y40700181D01*
X51665601Y40700181D02*
X51760839Y40747800D01*
X51760839Y40747800D02*
X51808458Y40843039D01*
X51808458Y40843039D02*
X51808458Y40938277D01*
X51808458Y40938277D02*
X51760839Y41033515D01*
X51760839Y41033515D02*
X51665601Y41081134D01*
X51665601Y41081134D02*
X51427506Y41081134D01*
X51427506Y41081134D02*
X51332268Y41128753D01*
X50713220Y40700181D02*
X50808458Y40747800D01*
X50808458Y40747800D02*
X50856077Y40843039D01*
X50856077Y40843039D02*
X50856077Y41700181D01*
X50332267Y40700181D02*
X50332267Y41700181D01*
X50332267Y41319229D02*
X50237029Y41366848D01*
X50237029Y41366848D02*
X50046553Y41366848D01*
X50046553Y41366848D02*
X49951315Y41319229D01*
X49951315Y41319229D02*
X49903696Y41271610D01*
X49903696Y41271610D02*
X49856077Y41176372D01*
X49856077Y41176372D02*
X49856077Y40890658D01*
X49856077Y40890658D02*
X49903696Y40795420D01*
X49903696Y40795420D02*
X49951315Y40747800D01*
X49951315Y40747800D02*
X50046553Y40700181D01*
X50046553Y40700181D02*
X50237029Y40700181D01*
X50237029Y40700181D02*
X50332267Y40747800D01*
X49284648Y40700181D02*
X49379886Y40747800D01*
X49379886Y40747800D02*
X49427505Y40795420D01*
X49427505Y40795420D02*
X49475124Y40890658D01*
X49475124Y40890658D02*
X49475124Y41176372D01*
X49475124Y41176372D02*
X49427505Y41271610D01*
X49427505Y41271610D02*
X49379886Y41319229D01*
X49379886Y41319229D02*
X49284648Y41366848D01*
X49284648Y41366848D02*
X49141791Y41366848D01*
X49141791Y41366848D02*
X49046553Y41319229D01*
X49046553Y41319229D02*
X48998934Y41271610D01*
X48998934Y41271610D02*
X48951315Y41176372D01*
X48951315Y41176372D02*
X48951315Y40890658D01*
X48951315Y40890658D02*
X48998934Y40795420D01*
X48998934Y40795420D02*
X49046553Y40747800D01*
X49046553Y40747800D02*
X49141791Y40700181D01*
X49141791Y40700181D02*
X49284648Y40700181D01*
X48094172Y40700181D02*
X48094172Y41223991D01*
X48094172Y41223991D02*
X48141791Y41319229D01*
X48141791Y41319229D02*
X48237029Y41366848D01*
X48237029Y41366848D02*
X48427505Y41366848D01*
X48427505Y41366848D02*
X48522743Y41319229D01*
X48094172Y40747800D02*
X48189410Y40700181D01*
X48189410Y40700181D02*
X48427505Y40700181D01*
X48427505Y40700181D02*
X48522743Y40747800D01*
X48522743Y40747800D02*
X48570362Y40843039D01*
X48570362Y40843039D02*
X48570362Y40938277D01*
X48570362Y40938277D02*
X48522743Y41033515D01*
X48522743Y41033515D02*
X48427505Y41081134D01*
X48427505Y41081134D02*
X48189410Y41081134D01*
X48189410Y41081134D02*
X48094172Y41128753D01*
X47617981Y40700181D02*
X47617981Y41366848D01*
X47617981Y41176372D02*
X47570362Y41271610D01*
X47570362Y41271610D02*
X47522743Y41319229D01*
X47522743Y41319229D02*
X47427505Y41366848D01*
X47427505Y41366848D02*
X47332267Y41366848D01*
X46570362Y40700181D02*
X46570362Y41700181D01*
X46570362Y40747800D02*
X46665600Y40700181D01*
X46665600Y40700181D02*
X46856076Y40700181D01*
X46856076Y40700181D02*
X46951314Y40747800D01*
X46951314Y40747800D02*
X46998933Y40795420D01*
X46998933Y40795420D02*
X47046552Y40890658D01*
X47046552Y40890658D02*
X47046552Y41176372D01*
X47046552Y41176372D02*
X46998933Y41271610D01*
X46998933Y41271610D02*
X46951314Y41319229D01*
X46951314Y41319229D02*
X46856076Y41366848D01*
X46856076Y41366848D02*
X46665600Y41366848D01*
X46665600Y41366848D02*
X46570362Y41319229D01*
X63713220Y39090181D02*
X63713220Y40090181D01*
X63713220Y40090181D02*
X63332268Y40090181D01*
X63332268Y40090181D02*
X63237030Y40042562D01*
X63237030Y40042562D02*
X63189411Y39994943D01*
X63189411Y39994943D02*
X63141792Y39899705D01*
X63141792Y39899705D02*
X63141792Y39756848D01*
X63141792Y39756848D02*
X63189411Y39661610D01*
X63189411Y39661610D02*
X63237030Y39613991D01*
X63237030Y39613991D02*
X63332268Y39566372D01*
X63332268Y39566372D02*
X63713220Y39566372D01*
X62141792Y39185420D02*
X62189411Y39137800D01*
X62189411Y39137800D02*
X62332268Y39090181D01*
X62332268Y39090181D02*
X62427506Y39090181D01*
X62427506Y39090181D02*
X62570363Y39137800D01*
X62570363Y39137800D02*
X62665601Y39233039D01*
X62665601Y39233039D02*
X62713220Y39328277D01*
X62713220Y39328277D02*
X62760839Y39518753D01*
X62760839Y39518753D02*
X62760839Y39661610D01*
X62760839Y39661610D02*
X62713220Y39852086D01*
X62713220Y39852086D02*
X62665601Y39947324D01*
X62665601Y39947324D02*
X62570363Y40042562D01*
X62570363Y40042562D02*
X62427506Y40090181D01*
X62427506Y40090181D02*
X62332268Y40090181D01*
X62332268Y40090181D02*
X62189411Y40042562D01*
X62189411Y40042562D02*
X62141792Y39994943D01*
X61379887Y39613991D02*
X61237030Y39566372D01*
X61237030Y39566372D02*
X61189411Y39518753D01*
X61189411Y39518753D02*
X61141792Y39423515D01*
X61141792Y39423515D02*
X61141792Y39280658D01*
X61141792Y39280658D02*
X61189411Y39185420D01*
X61189411Y39185420D02*
X61237030Y39137800D01*
X61237030Y39137800D02*
X61332268Y39090181D01*
X61332268Y39090181D02*
X61713220Y39090181D01*
X61713220Y39090181D02*
X61713220Y40090181D01*
X61713220Y40090181D02*
X61379887Y40090181D01*
X61379887Y40090181D02*
X61284649Y40042562D01*
X61284649Y40042562D02*
X61237030Y39994943D01*
X61237030Y39994943D02*
X61189411Y39899705D01*
X61189411Y39899705D02*
X61189411Y39804467D01*
X61189411Y39804467D02*
X61237030Y39709229D01*
X61237030Y39709229D02*
X61284649Y39661610D01*
X61284649Y39661610D02*
X61379887Y39613991D01*
X61379887Y39613991D02*
X61713220Y39613991D01*
X60713220Y39185420D02*
X60665601Y39137800D01*
X60665601Y39137800D02*
X60713220Y39090181D01*
X60713220Y39090181D02*
X60760839Y39137800D01*
X60760839Y39137800D02*
X60713220Y39185420D01*
X60713220Y39185420D02*
X60713220Y39090181D01*
X60713220Y39709229D02*
X60665601Y39661610D01*
X60665601Y39661610D02*
X60713220Y39613991D01*
X60713220Y39613991D02*
X60760839Y39661610D01*
X60760839Y39661610D02*
X60713220Y39709229D01*
X60713220Y39709229D02*
X60713220Y39613991D01*
X59284649Y40090181D02*
X59189411Y40090181D01*
X59189411Y40090181D02*
X59094173Y40042562D01*
X59094173Y40042562D02*
X59046554Y39994943D01*
X59046554Y39994943D02*
X58998935Y39899705D01*
X58998935Y39899705D02*
X58951316Y39709229D01*
X58951316Y39709229D02*
X58951316Y39471134D01*
X58951316Y39471134D02*
X58998935Y39280658D01*
X58998935Y39280658D02*
X59046554Y39185420D01*
X59046554Y39185420D02*
X59094173Y39137800D01*
X59094173Y39137800D02*
X59189411Y39090181D01*
X59189411Y39090181D02*
X59284649Y39090181D01*
X59284649Y39090181D02*
X59379887Y39137800D01*
X59379887Y39137800D02*
X59427506Y39185420D01*
X59427506Y39185420D02*
X59475125Y39280658D01*
X59475125Y39280658D02*
X59522744Y39471134D01*
X59522744Y39471134D02*
X59522744Y39709229D01*
X59522744Y39709229D02*
X59475125Y39899705D01*
X59475125Y39899705D02*
X59427506Y39994943D01*
X59427506Y39994943D02*
X59379887Y40042562D01*
X59379887Y40042562D02*
X59284649Y40090181D01*
X58522744Y39185420D02*
X58475125Y39137800D01*
X58475125Y39137800D02*
X58522744Y39090181D01*
X58522744Y39090181D02*
X58570363Y39137800D01*
X58570363Y39137800D02*
X58522744Y39185420D01*
X58522744Y39185420D02*
X58522744Y39090181D01*
X57856078Y40090181D02*
X57760840Y40090181D01*
X57760840Y40090181D02*
X57665602Y40042562D01*
X57665602Y40042562D02*
X57617983Y39994943D01*
X57617983Y39994943D02*
X57570364Y39899705D01*
X57570364Y39899705D02*
X57522745Y39709229D01*
X57522745Y39709229D02*
X57522745Y39471134D01*
X57522745Y39471134D02*
X57570364Y39280658D01*
X57570364Y39280658D02*
X57617983Y39185420D01*
X57617983Y39185420D02*
X57665602Y39137800D01*
X57665602Y39137800D02*
X57760840Y39090181D01*
X57760840Y39090181D02*
X57856078Y39090181D01*
X57856078Y39090181D02*
X57951316Y39137800D01*
X57951316Y39137800D02*
X57998935Y39185420D01*
X57998935Y39185420D02*
X58046554Y39280658D01*
X58046554Y39280658D02*
X58094173Y39471134D01*
X58094173Y39471134D02*
X58094173Y39709229D01*
X58094173Y39709229D02*
X58046554Y39899705D01*
X58046554Y39899705D02*
X57998935Y39994943D01*
X57998935Y39994943D02*
X57951316Y40042562D01*
X57951316Y40042562D02*
X57856078Y40090181D01*
X57094173Y39185420D02*
X57046554Y39137800D01*
X57046554Y39137800D02*
X57094173Y39090181D01*
X57094173Y39090181D02*
X57141792Y39137800D01*
X57141792Y39137800D02*
X57094173Y39185420D01*
X57094173Y39185420D02*
X57094173Y39090181D01*
X56094174Y39090181D02*
X56665602Y39090181D01*
X56379888Y39090181D02*
X56379888Y40090181D01*
X56379888Y40090181D02*
X56475126Y39947324D01*
X56475126Y39947324D02*
X56570364Y39852086D01*
X56570364Y39852086D02*
X56665602Y39804467D01*
X54427507Y40090181D02*
X54903697Y40090181D01*
X54903697Y40090181D02*
X54951316Y39613991D01*
X54951316Y39613991D02*
X54903697Y39661610D01*
X54903697Y39661610D02*
X54808459Y39709229D01*
X54808459Y39709229D02*
X54570364Y39709229D01*
X54570364Y39709229D02*
X54475126Y39661610D01*
X54475126Y39661610D02*
X54427507Y39613991D01*
X54427507Y39613991D02*
X54379888Y39518753D01*
X54379888Y39518753D02*
X54379888Y39280658D01*
X54379888Y39280658D02*
X54427507Y39185420D01*
X54427507Y39185420D02*
X54475126Y39137800D01*
X54475126Y39137800D02*
X54570364Y39090181D01*
X54570364Y39090181D02*
X54808459Y39090181D01*
X54808459Y39090181D02*
X54903697Y39137800D01*
X54903697Y39137800D02*
X54951316Y39185420D01*
X53760840Y40090181D02*
X53665602Y40090181D01*
X53665602Y40090181D02*
X53570364Y40042562D01*
X53570364Y40042562D02*
X53522745Y39994943D01*
X53522745Y39994943D02*
X53475126Y39899705D01*
X53475126Y39899705D02*
X53427507Y39709229D01*
X53427507Y39709229D02*
X53427507Y39471134D01*
X53427507Y39471134D02*
X53475126Y39280658D01*
X53475126Y39280658D02*
X53522745Y39185420D01*
X53522745Y39185420D02*
X53570364Y39137800D01*
X53570364Y39137800D02*
X53665602Y39090181D01*
X53665602Y39090181D02*
X53760840Y39090181D01*
X53760840Y39090181D02*
X53856078Y39137800D01*
X53856078Y39137800D02*
X53903697Y39185420D01*
X53903697Y39185420D02*
X53951316Y39280658D01*
X53951316Y39280658D02*
X53998935Y39471134D01*
X53998935Y39471134D02*
X53998935Y39709229D01*
X53998935Y39709229D02*
X53951316Y39899705D01*
X53951316Y39899705D02*
X53903697Y39994943D01*
X53903697Y39994943D02*
X53856078Y40042562D01*
X53856078Y40042562D02*
X53760840Y40090181D01*
X52570364Y40090181D02*
X52760840Y40090181D01*
X52760840Y40090181D02*
X52856078Y40042562D01*
X52856078Y40042562D02*
X52903697Y39994943D01*
X52903697Y39994943D02*
X52998935Y39852086D01*
X52998935Y39852086D02*
X53046554Y39661610D01*
X53046554Y39661610D02*
X53046554Y39280658D01*
X53046554Y39280658D02*
X52998935Y39185420D01*
X52998935Y39185420D02*
X52951316Y39137800D01*
X52951316Y39137800D02*
X52856078Y39090181D01*
X52856078Y39090181D02*
X52665602Y39090181D01*
X52665602Y39090181D02*
X52570364Y39137800D01*
X52570364Y39137800D02*
X52522745Y39185420D01*
X52522745Y39185420D02*
X52475126Y39280658D01*
X52475126Y39280658D02*
X52475126Y39518753D01*
X52475126Y39518753D02*
X52522745Y39613991D01*
X52522745Y39613991D02*
X52570364Y39661610D01*
X52570364Y39661610D02*
X52665602Y39709229D01*
X52665602Y39709229D02*
X52856078Y39709229D01*
X52856078Y39709229D02*
X52951316Y39661610D01*
X52951316Y39661610D02*
X52998935Y39613991D01*
X52998935Y39613991D02*
X53046554Y39518753D01*
X52094173Y39994943D02*
X52046554Y40042562D01*
X52046554Y40042562D02*
X51951316Y40090181D01*
X51951316Y40090181D02*
X51713221Y40090181D01*
X51713221Y40090181D02*
X51617983Y40042562D01*
X51617983Y40042562D02*
X51570364Y39994943D01*
X51570364Y39994943D02*
X51522745Y39899705D01*
X51522745Y39899705D02*
X51522745Y39804467D01*
X51522745Y39804467D02*
X51570364Y39661610D01*
X51570364Y39661610D02*
X52141792Y39090181D01*
X52141792Y39090181D02*
X51522745Y39090181D01*
X50617983Y40090181D02*
X51094173Y40090181D01*
X51094173Y40090181D02*
X51141792Y39613991D01*
X51141792Y39613991D02*
X51094173Y39661610D01*
X51094173Y39661610D02*
X50998935Y39709229D01*
X50998935Y39709229D02*
X50760840Y39709229D01*
X50760840Y39709229D02*
X50665602Y39661610D01*
X50665602Y39661610D02*
X50617983Y39613991D01*
X50617983Y39613991D02*
X50570364Y39518753D01*
X50570364Y39518753D02*
X50570364Y39280658D01*
X50570364Y39280658D02*
X50617983Y39185420D01*
X50617983Y39185420D02*
X50665602Y39137800D01*
X50665602Y39137800D02*
X50760840Y39090181D01*
X50760840Y39090181D02*
X50998935Y39090181D01*
X50998935Y39090181D02*
X51094173Y39137800D01*
X51094173Y39137800D02*
X51141792Y39185420D01*
X50189411Y39994943D02*
X50141792Y40042562D01*
X50141792Y40042562D02*
X50046554Y40090181D01*
X50046554Y40090181D02*
X49808459Y40090181D01*
X49808459Y40090181D02*
X49713221Y40042562D01*
X49713221Y40042562D02*
X49665602Y39994943D01*
X49665602Y39994943D02*
X49617983Y39899705D01*
X49617983Y39899705D02*
X49617983Y39804467D01*
X49617983Y39804467D02*
X49665602Y39661610D01*
X49665602Y39661610D02*
X50237030Y39090181D01*
X50237030Y39090181D02*
X49617983Y39090181D01*
X49284649Y40090181D02*
X48617983Y40090181D01*
X48617983Y40090181D02*
X49046554Y39090181D01*
X21003333Y13265181D02*
X21003333Y12550896D01*
X21003333Y12550896D02*
X21050952Y12408039D01*
X21050952Y12408039D02*
X21146190Y12312800D01*
X21146190Y12312800D02*
X21289047Y12265181D01*
X21289047Y12265181D02*
X21384285Y12265181D01*
X20622380Y13265181D02*
X20003333Y13265181D01*
X20003333Y13265181D02*
X20336666Y12884229D01*
X20336666Y12884229D02*
X20193809Y12884229D01*
X20193809Y12884229D02*
X20098571Y12836610D01*
X20098571Y12836610D02*
X20050952Y12788991D01*
X20050952Y12788991D02*
X20003333Y12693753D01*
X20003333Y12693753D02*
X20003333Y12455658D01*
X20003333Y12455658D02*
X20050952Y12360420D01*
X20050952Y12360420D02*
X20098571Y12312800D01*
X20098571Y12312800D02*
X20193809Y12265181D01*
X20193809Y12265181D02*
X20479523Y12265181D01*
X20479523Y12265181D02*
X20574761Y12312800D01*
X20574761Y12312800D02*
X20622380Y12360420D01*
X62453333Y12075181D02*
X62453333Y11360896D01*
X62453333Y11360896D02*
X62500952Y11218039D01*
X62500952Y11218039D02*
X62596190Y11122800D01*
X62596190Y11122800D02*
X62739047Y11075181D01*
X62739047Y11075181D02*
X62834285Y11075181D01*
X62024761Y11979943D02*
X61977142Y12027562D01*
X61977142Y12027562D02*
X61881904Y12075181D01*
X61881904Y12075181D02*
X61643809Y12075181D01*
X61643809Y12075181D02*
X61548571Y12027562D01*
X61548571Y12027562D02*
X61500952Y11979943D01*
X61500952Y11979943D02*
X61453333Y11884705D01*
X61453333Y11884705D02*
X61453333Y11789467D01*
X61453333Y11789467D02*
X61500952Y11646610D01*
X61500952Y11646610D02*
X62072380Y11075181D01*
X62072380Y11075181D02*
X61453333Y11075181D01*
D11*
X21250000Y18790000D02*
X21250000Y13590000D01*
X13510000Y18790000D02*
X21250000Y18790000D01*
X13510000Y18790000D02*
X13510000Y16190000D01*
X16110000Y16190000D02*
X16110000Y13590000D01*
X13510000Y16190000D02*
X16110000Y16190000D01*
X13510000Y14920000D02*
X13510000Y13590000D01*
X16110000Y13590000D02*
X21250000Y13590000D01*
X13510000Y13590000D02*
X14840000Y13590000D01*
X63020000Y12690000D02*
X57820000Y12690000D01*
X63020000Y20430000D02*
X63020000Y12690000D01*
X63020000Y20430000D02*
X60420000Y20430000D01*
X60420000Y17830000D02*
X57820000Y17830000D01*
X60420000Y20430000D02*
X60420000Y17830000D01*
X59150000Y20430000D02*
X57820000Y20430000D01*
X57820000Y17830000D02*
X57820000Y12690000D01*
X57820000Y20430000D02*
X57820000Y19100000D01*
M02*
