%TF.GenerationSoftware,KiCad,Pcbnew,7.0.9-7.0.9~ubuntu23.04.1*%
%TF.CreationDate,2023-12-27T19:05:02+00:00*%
%TF.ProjectId,pedalboard-soundcard,70656461-6c62-46f6-9172-642d736f756e,0.0.1*%
%TF.SameCoordinates,Original*%
%TF.FileFunction,Plated,1,2,PTH,Drill*%
%TF.FilePolarity,Positive*%
%FSLAX46Y46*%
G04 Gerber Fmt 4.6, Leading zero omitted, Abs format (unit mm)*
G04 Created by KiCad (PCBNEW 7.0.9-7.0.9~ubuntu23.04.1) date 2023-12-27 19:05:02*
%MOMM*%
%LPD*%
G01*
G04 APERTURE LIST*
%TA.AperFunction,ComponentDrill*%
%ADD10C,0.300000*%
%TD*%
%TA.AperFunction,ViaDrill*%
%ADD11C,0.400000*%
%TD*%
%TA.AperFunction,ViaDrill*%
%ADD12C,0.600000*%
%TD*%
%TA.AperFunction,ComponentDrill*%
%ADD13C,1.000000*%
%TD*%
%TA.AperFunction,ComponentDrill*%
%ADD14C,1.016000*%
%TD*%
G04 APERTURE END LIST*
D10*
%TO.C,U6*%
X92950000Y-90477000D03*
X92950000Y-91343667D03*
X92950000Y-92210333D03*
X92950000Y-93077000D03*
X93816667Y-90477000D03*
X93816667Y-91343667D03*
X93816667Y-92210333D03*
X93816667Y-93077000D03*
X94683333Y-90477000D03*
X94683333Y-91343667D03*
X94683333Y-92210333D03*
X94683333Y-93077000D03*
X95550000Y-90477000D03*
X95550000Y-91343667D03*
X95550000Y-92210333D03*
X95550000Y-93077000D03*
%TD*%
D11*
X58100000Y-97460000D03*
X59420000Y-76990000D03*
X60100000Y-97420000D03*
X60775000Y-78250001D03*
X60920000Y-60290500D03*
X61343707Y-76618810D03*
X63920000Y-79680000D03*
X64310000Y-73640000D03*
X64919647Y-80390353D03*
X65844722Y-80744500D03*
X66290000Y-73700000D03*
X68350500Y-76150000D03*
X71470000Y-97530000D03*
X71620000Y-86100000D03*
X71710000Y-74810000D03*
X71710000Y-78350000D03*
X73470000Y-97540000D03*
X73770000Y-74470000D03*
X75650000Y-83510000D03*
X76620000Y-85530000D03*
X82130000Y-85470000D03*
X82530000Y-72690000D03*
X82625000Y-77575000D03*
X82630000Y-82610000D03*
X82840000Y-61150000D03*
X84240000Y-72360000D03*
X85380000Y-59970000D03*
X87030000Y-77600000D03*
X87120000Y-64440000D03*
X87588178Y-81535000D03*
X87700000Y-96390000D03*
X87700000Y-98330000D03*
X87800000Y-84480000D03*
X88240000Y-82190000D03*
X88770000Y-72600000D03*
X89450000Y-88870000D03*
X90780000Y-91680000D03*
X90840000Y-77540000D03*
X91150000Y-60600000D03*
X91430000Y-93990000D03*
X91901382Y-88688618D03*
X92500000Y-97070000D03*
X92500000Y-100330000D03*
X92560000Y-85890000D03*
X94470000Y-100290000D03*
X96810000Y-100230000D03*
X99940000Y-62780000D03*
X100750000Y-86490000D03*
X100750000Y-88440000D03*
X100750000Y-90410000D03*
X100900000Y-79960000D03*
X102460000Y-84980000D03*
X102530000Y-99420000D03*
X104440000Y-84980000D03*
X104500000Y-99370000D03*
D12*
X56095000Y-59535000D03*
X68400000Y-71450000D03*
X69549500Y-65450000D03*
X76830000Y-75730000D03*
X80720000Y-79670000D03*
X86970000Y-79670000D03*
X97735000Y-79325000D03*
D13*
%TO.C,J3*%
X63340000Y-91040000D03*
X63340000Y-93580000D03*
X65880000Y-91040000D03*
X65880000Y-93580000D03*
X68420000Y-91040000D03*
X68420000Y-93580000D03*
%TO.C,J2*%
X107650000Y-89400000D03*
X107650000Y-91940000D03*
X107650000Y-94480000D03*
X110190000Y-89400000D03*
X110190000Y-91940000D03*
X110190000Y-94480000D03*
D14*
%TO.C,J1*%
X56870000Y-54730000D03*
X56870000Y-57270000D03*
X59410000Y-54730000D03*
X59410000Y-57270000D03*
X61950000Y-54730000D03*
X61950000Y-57270000D03*
X64490000Y-54730000D03*
X64490000Y-57270000D03*
X67030000Y-54730000D03*
X67030000Y-57270000D03*
X69570000Y-54730000D03*
X69570000Y-57270000D03*
X72110000Y-54730000D03*
X72110000Y-57270000D03*
X74650000Y-54730000D03*
X74650000Y-57270000D03*
X77190000Y-54730000D03*
X77190000Y-57270000D03*
X79730000Y-54730000D03*
X79730000Y-57270000D03*
X82270000Y-54730000D03*
X82270000Y-57270000D03*
X84810000Y-54730000D03*
X84810000Y-57270000D03*
X87350000Y-54730000D03*
X87350000Y-57270000D03*
X89890000Y-54730000D03*
X89890000Y-57270000D03*
X92430000Y-54730000D03*
X92430000Y-57270000D03*
X94970000Y-54730000D03*
X94970000Y-57270000D03*
X97510000Y-54730000D03*
X97510000Y-57270000D03*
X100050000Y-54730000D03*
X100050000Y-57270000D03*
X102590000Y-54730000D03*
X102590000Y-57270000D03*
X105130000Y-54730000D03*
X105130000Y-57270000D03*
M02*
