%TF.GenerationSoftware,KiCad,Pcbnew,8.0.4+1*%
%TF.CreationDate,2024-10-17T10:41:02+00:00*%
%TF.ProjectId,pedalboard-soundcard,70656461-6c62-46f6-9172-642d736f756e,1.0.1-RC*%
%TF.SameCoordinates,Original*%
%TF.FileFunction,Other,User*%
%FSLAX46Y46*%
G04 Gerber Fmt 4.6, Leading zero omitted, Abs format (unit mm)*
G04 Created by KiCad (PCBNEW 8.0.4+1) date 2024-10-17 10:41:02*
%MOMM*%
%LPD*%
G01*
G04 APERTURE LIST*
%ADD10C,0.150000*%
%ADD11C,0.050000*%
G04 APERTURE END LIST*
D10*
%TO.C,H4*%
X113100000Y-56000000D02*
G75*
G02*
X106900000Y-56000000I-3100000J0D01*
G01*
X106900000Y-56000000D02*
G75*
G02*
X113100000Y-56000000I3100000J0D01*
G01*
%TO.C,H3*%
X55100000Y-56000000D02*
G75*
G02*
X48900000Y-56000000I-3100000J0D01*
G01*
X48900000Y-56000000D02*
G75*
G02*
X55100000Y-56000000I3100000J0D01*
G01*
%TO.C,H1*%
X55100000Y-105000000D02*
G75*
G02*
X48900000Y-105000000I-3100000J0D01*
G01*
X48900000Y-105000000D02*
G75*
G02*
X55100000Y-105000000I3100000J0D01*
G01*
%TO.C,H2*%
X113100000Y-105000000D02*
G75*
G02*
X106900000Y-105000000I-3100000J0D01*
G01*
X106900000Y-105000000D02*
G75*
G02*
X113100000Y-105000000I3100000J0D01*
G01*
D11*
%TO.C,J1*%
X55120000Y-52970000D02*
X106920000Y-52970000D01*
X55120000Y-59020000D02*
X55120000Y-52970000D01*
X55120000Y-59020000D02*
X106920000Y-59020000D01*
X106920000Y-59020000D02*
X106920000Y-52970000D01*
%TO.C,JP1*%
X102650000Y-99450000D02*
X102650000Y-101950000D01*
X102650000Y-99450000D02*
X105950000Y-99450000D01*
X105950000Y-101950000D02*
X102650000Y-101950000D01*
X105950000Y-101950000D02*
X105950000Y-99450000D01*
%TO.C,R7*%
X84545000Y-62625000D02*
X87905000Y-62625000D01*
X84545000Y-64525000D02*
X84545000Y-62625000D01*
X87905000Y-62625000D02*
X87905000Y-64525000D01*
X87905000Y-64525000D02*
X84545000Y-64525000D01*
%TO.C,R25*%
X83200000Y-72200000D02*
X85100000Y-72200000D01*
X83200000Y-75560000D02*
X83200000Y-72200000D01*
X85100000Y-72200000D02*
X85100000Y-75560000D01*
X85100000Y-75560000D02*
X83200000Y-75560000D01*
%TO.C,C21*%
X101520000Y-96030000D02*
X103480000Y-96030000D01*
X101520000Y-99430000D02*
X101520000Y-96030000D01*
X103480000Y-96030000D02*
X103480000Y-99430000D01*
X103480000Y-99430000D02*
X101520000Y-99430000D01*
%TO.C,X1*%
X80300000Y-72550000D02*
X80300000Y-75550000D01*
X80300000Y-75550000D02*
X83200000Y-75550000D01*
X83200000Y-72550000D02*
X80300000Y-72550000D01*
X83200000Y-75550000D02*
X83200000Y-72550000D01*
%TO.C,FID4*%
X58000000Y-105000000D02*
G75*
G02*
X56000000Y-105000000I-1000000J0D01*
G01*
X56000000Y-105000000D02*
G75*
G02*
X58000000Y-105000000I1000000J0D01*
G01*
%TO.C,U2*%
X65700000Y-61800000D02*
X65700000Y-65900000D01*
X65700000Y-65900000D02*
X69100000Y-65900000D01*
X69100000Y-61800000D02*
X65700000Y-61800000D01*
X69100000Y-65900000D02*
X69100000Y-61800000D01*
%TO.C,R16*%
X101575000Y-92625000D02*
X103475000Y-92625000D01*
X101575000Y-95985000D02*
X101575000Y-92625000D01*
X103475000Y-92625000D02*
X103475000Y-95985000D01*
X103475000Y-95985000D02*
X101575000Y-95985000D01*
%TO.C,C3*%
X59120000Y-90730000D02*
X61080000Y-90730000D01*
X59120000Y-94130000D02*
X59120000Y-90730000D01*
X61080000Y-90730000D02*
X61080000Y-94130000D01*
X61080000Y-94130000D02*
X59120000Y-94130000D01*
%TO.C,C16*%
X65320000Y-73600000D02*
X67280000Y-73600000D01*
X65320000Y-77000000D02*
X65320000Y-73600000D01*
X67280000Y-73600000D02*
X67280000Y-77000000D01*
X67280000Y-77000000D02*
X65320000Y-77000000D01*
%TO.C,C32*%
X79975000Y-75560000D02*
X83375000Y-75560000D01*
X79975000Y-77520000D02*
X79975000Y-75560000D01*
X83375000Y-75560000D02*
X83375000Y-77520000D01*
X83375000Y-77520000D02*
X79975000Y-77520000D01*
%TO.C,R5*%
X87945000Y-61150000D02*
X91305000Y-61150000D01*
X87945000Y-63050000D02*
X87945000Y-61150000D01*
X91305000Y-61150000D02*
X91305000Y-63050000D01*
X91305000Y-63050000D02*
X87945000Y-63050000D01*
%TO.C,R10*%
X81170000Y-62625000D02*
X84530000Y-62625000D01*
X81170000Y-64525000D02*
X81170000Y-62625000D01*
X84530000Y-62625000D02*
X84530000Y-64525000D01*
X84530000Y-64525000D02*
X81170000Y-64525000D01*
%TO.C,X2*%
X86525000Y-72600000D02*
X86525000Y-75600000D01*
X86525000Y-75600000D02*
X89425000Y-75600000D01*
X89425000Y-72600000D02*
X86525000Y-72600000D01*
X89425000Y-75600000D02*
X89425000Y-72600000D01*
%TO.C,D2*%
X93560000Y-82620000D02*
X95460000Y-82620000D01*
X93560000Y-85980000D02*
X93560000Y-82620000D01*
X95460000Y-82620000D02*
X95460000Y-85980000D01*
X95460000Y-85980000D02*
X93560000Y-85980000D01*
%TO.C,C14*%
X69745000Y-83450000D02*
X71705000Y-83450000D01*
X69745000Y-86850000D02*
X69745000Y-83450000D01*
X71705000Y-83450000D02*
X71705000Y-86850000D01*
X71705000Y-86850000D02*
X69745000Y-86850000D01*
%TO.C,C28*%
X86670000Y-91730000D02*
X90070000Y-91730000D01*
X86670000Y-93690000D02*
X86670000Y-91730000D01*
X90070000Y-91730000D02*
X90070000Y-93690000D01*
X90070000Y-93690000D02*
X86670000Y-93690000D01*
%TO.C,C11*%
X69050000Y-76720000D02*
X72450000Y-76720000D01*
X69050000Y-78680000D02*
X69050000Y-76720000D01*
X72450000Y-76720000D02*
X72450000Y-78680000D01*
X72450000Y-78680000D02*
X69050000Y-78680000D01*
%TO.C,C4*%
X70495000Y-90710000D02*
X72455000Y-90710000D01*
X70495000Y-94110000D02*
X70495000Y-90710000D01*
X72455000Y-90710000D02*
X72455000Y-94110000D01*
X72455000Y-94110000D02*
X70495000Y-94110000D01*
%TO.C,R11*%
X70490000Y-94110000D02*
X73850000Y-94110000D01*
X70490000Y-96010000D02*
X70490000Y-94110000D01*
X73850000Y-94110000D02*
X73850000Y-96010000D01*
X73850000Y-96010000D02*
X70490000Y-96010000D01*
%TO.C,C7*%
X72470000Y-90710000D02*
X74430000Y-90710000D01*
X72470000Y-94110000D02*
X72470000Y-90710000D01*
X74430000Y-90710000D02*
X74430000Y-94110000D01*
X74430000Y-94110000D02*
X72470000Y-94110000D01*
%TO.C,FID1*%
X53000000Y-61000000D02*
G75*
G02*
X51000000Y-61000000I-1000000J0D01*
G01*
X51000000Y-61000000D02*
G75*
G02*
X53000000Y-61000000I1000000J0D01*
G01*
%TO.C,C24*%
X93495000Y-97000000D02*
X95455000Y-97000000D01*
X93495000Y-100400000D02*
X93495000Y-97000000D01*
X95455000Y-97000000D02*
X95455000Y-100400000D01*
X95455000Y-100400000D02*
X93495000Y-100400000D01*
%TO.C,FID2*%
X111000000Y-61000000D02*
G75*
G02*
X109000000Y-61000000I-1000000J0D01*
G01*
X109000000Y-61000000D02*
G75*
G02*
X111000000Y-61000000I1000000J0D01*
G01*
%TO.C,C6*%
X65725000Y-66045000D02*
X69125000Y-66045000D01*
X65725000Y-68005000D02*
X65725000Y-66045000D01*
X69125000Y-66045000D02*
X69125000Y-68005000D01*
X69125000Y-68005000D02*
X65725000Y-68005000D01*
%TO.C,R19*%
X101525000Y-88397500D02*
X103425000Y-88397500D01*
X101525000Y-91757500D02*
X101525000Y-88397500D01*
X103425000Y-88397500D02*
X103425000Y-91757500D01*
X103425000Y-91757500D02*
X101525000Y-91757500D01*
%TO.C,C23*%
X87720000Y-93740000D02*
X91120000Y-93740000D01*
X87720000Y-95700000D02*
X87720000Y-93740000D01*
X91120000Y-93740000D02*
X91120000Y-95700000D01*
X91120000Y-95700000D02*
X87720000Y-95700000D01*
%TO.C,R12*%
X70525000Y-87350000D02*
X72425000Y-87350000D01*
X70525000Y-90710000D02*
X70525000Y-87350000D01*
X72425000Y-87350000D02*
X72425000Y-90710000D01*
X72425000Y-90710000D02*
X70525000Y-90710000D01*
%TO.C,C9*%
X72300000Y-80545000D02*
X75700000Y-80545000D01*
X72300000Y-82505000D02*
X72300000Y-80545000D01*
X75700000Y-80545000D02*
X75700000Y-82505000D01*
X75700000Y-82505000D02*
X72300000Y-82505000D01*
%TO.C,J4*%
X59690000Y-96050000D02*
X59690000Y-108750000D01*
X59690000Y-108750000D02*
X62690000Y-108750000D01*
X62690000Y-108750000D02*
X62690000Y-110550000D01*
X62690000Y-110550000D02*
X69190000Y-110550000D01*
X69190000Y-108750000D02*
X72190000Y-108750000D01*
X69190000Y-110550000D02*
X69190000Y-108750000D01*
X72190000Y-96050000D02*
X59690000Y-96050000D01*
X72190000Y-108500000D02*
X72190000Y-96050000D01*
X72190000Y-108750000D02*
X72190000Y-108500000D01*
%TO.C,R13*%
X73860000Y-94110000D02*
X77220000Y-94110000D01*
X73860000Y-96010000D02*
X73860000Y-94110000D01*
X77220000Y-94110000D02*
X77220000Y-96010000D01*
X77220000Y-96010000D02*
X73860000Y-96010000D01*
%TO.C,C26*%
X101500000Y-84992500D02*
X103460000Y-84992500D01*
X101500000Y-88392500D02*
X101500000Y-84992500D01*
X103460000Y-84992500D02*
X103460000Y-88392500D01*
X103460000Y-88392500D02*
X101500000Y-88392500D01*
%TO.C,R1*%
X56800000Y-76875000D02*
X60160000Y-76875000D01*
X56800000Y-78775000D02*
X56800000Y-76875000D01*
X60160000Y-76875000D02*
X60160000Y-78775000D01*
X60160000Y-78775000D02*
X56800000Y-78775000D01*
%TO.C,C5*%
X65700000Y-59840000D02*
X69100000Y-59840000D01*
X65700000Y-61800000D02*
X65700000Y-59840000D01*
X69100000Y-59840000D02*
X69100000Y-61800000D01*
X69100000Y-61800000D02*
X65700000Y-61800000D01*
%TO.C,C13*%
X69720000Y-79950000D02*
X71680000Y-79950000D01*
X69720000Y-83350000D02*
X69720000Y-79950000D01*
X71680000Y-79950000D02*
X71680000Y-83350000D01*
X71680000Y-83350000D02*
X69720000Y-83350000D01*
%TO.C,R15*%
X102840000Y-59960000D02*
X104740000Y-59960000D01*
X102840000Y-63320000D02*
X102840000Y-59960000D01*
X104740000Y-59960000D02*
X104740000Y-63320000D01*
X104740000Y-63320000D02*
X102840000Y-63320000D01*
%TO.C,C15*%
X69050000Y-74745000D02*
X72450000Y-74745000D01*
X69050000Y-76705000D02*
X69050000Y-74745000D01*
X72450000Y-74745000D02*
X72450000Y-76705000D01*
X72450000Y-76705000D02*
X69050000Y-76705000D01*
%TO.C,C30*%
X97500000Y-85495000D02*
X100900000Y-85495000D01*
X97500000Y-87455000D02*
X97500000Y-85495000D01*
X100900000Y-85495000D02*
X100900000Y-87455000D01*
X100900000Y-87455000D02*
X97500000Y-87455000D01*
%TO.C,C25*%
X103460000Y-84977500D02*
X105420000Y-84977500D01*
X103460000Y-88377500D02*
X103460000Y-84977500D01*
X105420000Y-84977500D02*
X105420000Y-88377500D01*
X105420000Y-88377500D02*
X103460000Y-88377500D01*
%TO.C,R23*%
X86295000Y-75600000D02*
X89655000Y-75600000D01*
X86295000Y-77500000D02*
X86295000Y-75600000D01*
X89655000Y-75600000D02*
X89655000Y-77500000D01*
X89655000Y-77500000D02*
X86295000Y-77500000D01*
%TO.C,C31*%
X93825000Y-94980000D02*
X97225000Y-94980000D01*
X93825000Y-96940000D02*
X93825000Y-94980000D01*
X97225000Y-94980000D02*
X97225000Y-96940000D01*
X97225000Y-96940000D02*
X93825000Y-96940000D01*
%TO.C,D1*%
X56825000Y-78800000D02*
X60185000Y-78800000D01*
X56825000Y-80700000D02*
X56825000Y-78800000D01*
X60185000Y-78800000D02*
X60185000Y-80700000D01*
X60185000Y-80700000D02*
X56825000Y-80700000D01*
%TO.C,U6*%
X91130000Y-88657000D02*
X91130000Y-94897000D01*
X91130000Y-94897000D02*
X97370000Y-94897000D01*
X97370000Y-88657000D02*
X91130000Y-88657000D01*
X97370000Y-94897000D02*
X97370000Y-88657000D01*
%TO.C,U5*%
X97600000Y-81075000D02*
X97600000Y-85175000D01*
X97600000Y-85175000D02*
X101000000Y-85175000D01*
X101000000Y-81075000D02*
X97600000Y-81075000D01*
X101000000Y-85175000D02*
X101000000Y-81075000D01*
%TO.C,C8*%
X73200000Y-74420000D02*
X76600000Y-74420000D01*
X73200000Y-76380000D02*
X73200000Y-74420000D01*
X76600000Y-74420000D02*
X76600000Y-76380000D01*
X76600000Y-76380000D02*
X73200000Y-76380000D01*
%TO.C,R21*%
X81900000Y-84770000D02*
X85260000Y-84770000D01*
X81900000Y-86670000D02*
X81900000Y-84770000D01*
X85260000Y-84770000D02*
X85260000Y-86670000D01*
X85260000Y-86670000D02*
X81900000Y-86670000D01*
%TO.C,JP2*%
X102450000Y-82450000D02*
X102450000Y-84950000D01*
X102450000Y-82450000D02*
X105750000Y-82450000D01*
X105750000Y-84950000D02*
X102450000Y-84950000D01*
X105750000Y-84950000D02*
X105750000Y-82450000D01*
%TO.C,R8*%
X59150000Y-87330000D02*
X61050000Y-87330000D01*
X59150000Y-90690000D02*
X59150000Y-87330000D01*
X61050000Y-87330000D02*
X61050000Y-90690000D01*
X61050000Y-90690000D02*
X59150000Y-90690000D01*
%TO.C,R14*%
X72500000Y-87350000D02*
X74400000Y-87350000D01*
X72500000Y-90710000D02*
X72500000Y-87350000D01*
X74400000Y-87350000D02*
X74400000Y-90710000D01*
X74400000Y-90710000D02*
X72500000Y-90710000D01*
%TO.C,C34*%
X62290000Y-85400000D02*
X65690000Y-85400000D01*
X62290000Y-87360000D02*
X62290000Y-85400000D01*
X65690000Y-85400000D02*
X65690000Y-87360000D01*
X65690000Y-87360000D02*
X62290000Y-87360000D01*
%TO.C,C12*%
X97525000Y-89470000D02*
X100925000Y-89470000D01*
X97525000Y-91430000D02*
X97525000Y-89470000D01*
X100925000Y-89470000D02*
X100925000Y-91430000D01*
X100925000Y-91430000D02*
X97525000Y-91430000D01*
%TO.C,C22*%
X103520000Y-96030000D02*
X105480000Y-96030000D01*
X103520000Y-99430000D02*
X103520000Y-96030000D01*
X105480000Y-96030000D02*
X105480000Y-99430000D01*
X105480000Y-99430000D02*
X103520000Y-99430000D01*
%TO.C,C27*%
X95790000Y-96940000D02*
X97750000Y-96940000D01*
X95790000Y-100340000D02*
X95790000Y-96940000D01*
X97750000Y-96940000D02*
X97750000Y-100340000D01*
X97750000Y-100340000D02*
X95790000Y-100340000D01*
%TO.C,R22*%
X81900000Y-82820000D02*
X85260000Y-82820000D01*
X81900000Y-84720000D02*
X81900000Y-82820000D01*
X85260000Y-82820000D02*
X85260000Y-84720000D01*
X85260000Y-84720000D02*
X81900000Y-84720000D01*
%TO.C,FID3*%
X106000000Y-105000000D02*
G75*
G02*
X104000000Y-105000000I-1000000J0D01*
G01*
X104000000Y-105000000D02*
G75*
G02*
X106000000Y-105000000I1000000J0D01*
G01*
%TO.C,R18*%
X103490000Y-88397500D02*
X105390000Y-88397500D01*
X103490000Y-91757500D02*
X103490000Y-88397500D01*
X105390000Y-88397500D02*
X105390000Y-91757500D01*
X105390000Y-91757500D02*
X103490000Y-91757500D01*
%TO.C,C29*%
X97525000Y-87470000D02*
X100925000Y-87470000D01*
X97525000Y-89430000D02*
X97525000Y-87470000D01*
X100925000Y-87470000D02*
X100925000Y-89430000D01*
X100925000Y-89430000D02*
X97525000Y-89430000D01*
%TO.C,J5*%
X78850000Y-96050000D02*
X78850000Y-108750000D01*
X78850000Y-108750000D02*
X81850000Y-108750000D01*
X81850000Y-108750000D02*
X81850000Y-110550000D01*
X81850000Y-110550000D02*
X88350000Y-110550000D01*
X88350000Y-108750000D02*
X91350000Y-108750000D01*
X88350000Y-110550000D02*
X88350000Y-108750000D01*
X91350000Y-96050000D02*
X78850000Y-96050000D01*
X91350000Y-108500000D02*
X91350000Y-96050000D01*
X91350000Y-108750000D02*
X91350000Y-108500000D01*
%TO.C,U4*%
X61250000Y-77100000D02*
X61250000Y-85400000D01*
X61250000Y-85400000D02*
X68950000Y-85400000D01*
X68950000Y-77100000D02*
X61250000Y-77100000D01*
X68950000Y-85400000D02*
X68950000Y-77100000D01*
%TO.C,U3*%
X73150000Y-76400000D02*
X73150000Y-80500000D01*
X73150000Y-80500000D02*
X76550000Y-80500000D01*
X76550000Y-76400000D02*
X73150000Y-76400000D01*
X76550000Y-80500000D02*
X76550000Y-76400000D01*
%TO.C,R26*%
X80300000Y-69190000D02*
X82200000Y-69190000D01*
X80300000Y-72550000D02*
X80300000Y-69190000D01*
X82200000Y-69190000D02*
X82200000Y-72550000D01*
X82200000Y-72550000D02*
X80300000Y-72550000D01*
%TO.C,C1*%
X81870000Y-59175000D02*
X83830000Y-59175000D01*
X81870000Y-62575000D02*
X81870000Y-59175000D01*
X83830000Y-59175000D02*
X83830000Y-62575000D01*
X83830000Y-62575000D02*
X81870000Y-62575000D01*
%TO.C,C33*%
X66340000Y-85410000D02*
X69740000Y-85410000D01*
X66340000Y-87370000D02*
X66340000Y-85410000D01*
X69740000Y-85410000D02*
X69740000Y-87370000D01*
X69740000Y-87370000D02*
X66340000Y-87370000D01*
%TO.C,R3*%
X57150000Y-87330000D02*
X59050000Y-87330000D01*
X57150000Y-90690000D02*
X57150000Y-87330000D01*
X59050000Y-87330000D02*
X59050000Y-90690000D01*
X59050000Y-90690000D02*
X57150000Y-90690000D01*
%TO.C,R27*%
X86500000Y-69240000D02*
X88400000Y-69240000D01*
X86500000Y-72600000D02*
X86500000Y-69240000D01*
X88400000Y-69240000D02*
X88400000Y-72600000D01*
X88400000Y-72600000D02*
X86500000Y-72600000D01*
%TO.C,C20*%
X91520000Y-97000000D02*
X93480000Y-97000000D01*
X91520000Y-100400000D02*
X91520000Y-97000000D01*
X93480000Y-97000000D02*
X93480000Y-100400000D01*
X93480000Y-100400000D02*
X91520000Y-100400000D01*
%TO.C,R17*%
X103525000Y-92625000D02*
X105425000Y-92625000D01*
X103525000Y-95985000D02*
X103525000Y-92625000D01*
X105425000Y-92625000D02*
X105425000Y-95985000D01*
X105425000Y-95985000D02*
X103525000Y-95985000D01*
%TO.C,R24*%
X91610000Y-82590000D02*
X93510000Y-82590000D01*
X91610000Y-85950000D02*
X91610000Y-82590000D01*
X93510000Y-82590000D02*
X93510000Y-85950000D01*
X93510000Y-85950000D02*
X91610000Y-85950000D01*
%TO.C,C10*%
X97600000Y-79020000D02*
X101000000Y-79020000D01*
X97600000Y-80980000D02*
X97600000Y-79020000D01*
X101000000Y-79020000D02*
X101000000Y-80980000D01*
X101000000Y-80980000D02*
X97600000Y-80980000D01*
%TO.C,R20*%
X88545000Y-86750000D02*
X91905000Y-86750000D01*
X88545000Y-88650000D02*
X88545000Y-86750000D01*
X91905000Y-86750000D02*
X91905000Y-88650000D01*
X91905000Y-88650000D02*
X88545000Y-88650000D01*
%TO.C,R9*%
X57690000Y-94140000D02*
X61050000Y-94140000D01*
X57690000Y-96040000D02*
X57690000Y-94140000D01*
X61050000Y-94140000D02*
X61050000Y-96040000D01*
X61050000Y-96040000D02*
X57690000Y-96040000D01*
%TO.C,C18*%
X73300000Y-84520000D02*
X76700000Y-84520000D01*
X73300000Y-86480000D02*
X73300000Y-84520000D01*
X76700000Y-84520000D02*
X76700000Y-86480000D01*
X76700000Y-86480000D02*
X73300000Y-86480000D01*
%TO.C,R6*%
X87945000Y-59225000D02*
X91305000Y-59225000D01*
X87945000Y-61125000D02*
X87945000Y-59225000D01*
X91305000Y-59225000D02*
X91305000Y-61125000D01*
X91305000Y-61125000D02*
X87945000Y-61125000D01*
%TO.C,R2*%
X99470000Y-59950000D02*
X101370000Y-59950000D01*
X99470000Y-63310000D02*
X99470000Y-59950000D01*
X101370000Y-59950000D02*
X101370000Y-63310000D01*
X101370000Y-63310000D02*
X99470000Y-63310000D01*
%TO.C,C19*%
X72300000Y-82545000D02*
X75700000Y-82545000D01*
X72300000Y-84505000D02*
X72300000Y-82545000D01*
X75700000Y-82545000D02*
X75700000Y-84505000D01*
X75700000Y-84505000D02*
X72300000Y-84505000D01*
%TO.C,C2*%
X57120000Y-90730000D02*
X59080000Y-90730000D01*
X57120000Y-94130000D02*
X57120000Y-90730000D01*
X59080000Y-90730000D02*
X59080000Y-94130000D01*
X59080000Y-94130000D02*
X57120000Y-94130000D01*
%TO.C,R4*%
X54320000Y-94140000D02*
X57680000Y-94140000D01*
X54320000Y-96040000D02*
X54320000Y-94140000D01*
X57680000Y-94140000D02*
X57680000Y-96040000D01*
X57680000Y-96040000D02*
X54320000Y-96040000D01*
%TO.C,U1*%
X83840000Y-59220000D02*
X83840000Y-62620000D01*
X83840000Y-62620000D02*
X87940000Y-62620000D01*
X87940000Y-59220000D02*
X83840000Y-59220000D01*
X87940000Y-62620000D02*
X87940000Y-59220000D01*
%TO.C,C17*%
X63320000Y-73600000D02*
X65280000Y-73600000D01*
X63320000Y-77000000D02*
X63320000Y-73600000D01*
X65280000Y-73600000D02*
X65280000Y-77000000D01*
X65280000Y-77000000D02*
X63320000Y-77000000D01*
%TD*%
M02*
