%TF.GenerationSoftware,KiCad,Pcbnew,7.0.9-7.0.9~ubuntu23.04.1*%
%TF.CreationDate,2023-12-28T20:46:07+00:00*%
%TF.ProjectId,pedalboard-soundcard,70656461-6c62-46f6-9172-642d736f756e,0.0.1*%
%TF.SameCoordinates,Original*%
%TF.FileFunction,Other,Comment*%
%FSLAX46Y46*%
G04 Gerber Fmt 4.6, Leading zero omitted, Abs format (unit mm)*
G04 Created by KiCad (PCBNEW 7.0.9-7.0.9~ubuntu23.04.1) date 2023-12-28 20:46:07*
%MOMM*%
%LPD*%
G01*
G04 APERTURE LIST*
%ADD10C,0.150000*%
G04 APERTURE END LIST*
D10*
X72241071Y-118478628D02*
X72428571Y-116978628D01*
X72428571Y-116978628D02*
X72785714Y-116978628D01*
X72785714Y-116978628D02*
X72991071Y-117050057D01*
X72991071Y-117050057D02*
X73116071Y-117192914D01*
X73116071Y-117192914D02*
X73169642Y-117335771D01*
X73169642Y-117335771D02*
X73205357Y-117621485D01*
X73205357Y-117621485D02*
X73178571Y-117835771D01*
X73178571Y-117835771D02*
X73071428Y-118121485D01*
X73071428Y-118121485D02*
X72982142Y-118264342D01*
X72982142Y-118264342D02*
X72821428Y-118407200D01*
X72821428Y-118407200D02*
X72598214Y-118478628D01*
X72598214Y-118478628D02*
X72241071Y-118478628D01*
X73741071Y-118478628D02*
X73866071Y-117478628D01*
X73928571Y-116978628D02*
X73848214Y-117050057D01*
X73848214Y-117050057D02*
X73910714Y-117121485D01*
X73910714Y-117121485D02*
X73991071Y-117050057D01*
X73991071Y-117050057D02*
X73928571Y-116978628D01*
X73928571Y-116978628D02*
X73910714Y-117121485D01*
X74455357Y-118478628D02*
X74580357Y-117478628D01*
X74562500Y-117621485D02*
X74642857Y-117550057D01*
X74642857Y-117550057D02*
X74794643Y-117478628D01*
X74794643Y-117478628D02*
X75008928Y-117478628D01*
X75008928Y-117478628D02*
X75142857Y-117550057D01*
X75142857Y-117550057D02*
X75196428Y-117692914D01*
X75196428Y-117692914D02*
X75098214Y-118478628D01*
X75196428Y-117692914D02*
X75285714Y-117550057D01*
X75285714Y-117550057D02*
X75437500Y-117478628D01*
X75437500Y-117478628D02*
X75651785Y-117478628D01*
X75651785Y-117478628D02*
X75785714Y-117550057D01*
X75785714Y-117550057D02*
X75839285Y-117692914D01*
X75839285Y-117692914D02*
X75741071Y-118478628D01*
X77035714Y-118407200D02*
X76883928Y-118478628D01*
X76883928Y-118478628D02*
X76598214Y-118478628D01*
X76598214Y-118478628D02*
X76464285Y-118407200D01*
X76464285Y-118407200D02*
X76410714Y-118264342D01*
X76410714Y-118264342D02*
X76482143Y-117692914D01*
X76482143Y-117692914D02*
X76571428Y-117550057D01*
X76571428Y-117550057D02*
X76723214Y-117478628D01*
X76723214Y-117478628D02*
X77008928Y-117478628D01*
X77008928Y-117478628D02*
X77142857Y-117550057D01*
X77142857Y-117550057D02*
X77196428Y-117692914D01*
X77196428Y-117692914D02*
X77178571Y-117835771D01*
X77178571Y-117835771D02*
X76446428Y-117978628D01*
X77866071Y-117478628D02*
X77741071Y-118478628D01*
X77848214Y-117621485D02*
X77928571Y-117550057D01*
X77928571Y-117550057D02*
X78080357Y-117478628D01*
X78080357Y-117478628D02*
X78294642Y-117478628D01*
X78294642Y-117478628D02*
X78428571Y-117550057D01*
X78428571Y-117550057D02*
X78482142Y-117692914D01*
X78482142Y-117692914D02*
X78383928Y-118478628D01*
X79035714Y-118407200D02*
X79169642Y-118478628D01*
X79169642Y-118478628D02*
X79455357Y-118478628D01*
X79455357Y-118478628D02*
X79607142Y-118407200D01*
X79607142Y-118407200D02*
X79696428Y-118264342D01*
X79696428Y-118264342D02*
X79705357Y-118192914D01*
X79705357Y-118192914D02*
X79651785Y-118050057D01*
X79651785Y-118050057D02*
X79517857Y-117978628D01*
X79517857Y-117978628D02*
X79303571Y-117978628D01*
X79303571Y-117978628D02*
X79169642Y-117907200D01*
X79169642Y-117907200D02*
X79116071Y-117764342D01*
X79116071Y-117764342D02*
X79125000Y-117692914D01*
X79125000Y-117692914D02*
X79214285Y-117550057D01*
X79214285Y-117550057D02*
X79366071Y-117478628D01*
X79366071Y-117478628D02*
X79580357Y-117478628D01*
X79580357Y-117478628D02*
X79714285Y-117550057D01*
X80312500Y-118478628D02*
X80437500Y-117478628D01*
X80500000Y-116978628D02*
X80419643Y-117050057D01*
X80419643Y-117050057D02*
X80482143Y-117121485D01*
X80482143Y-117121485D02*
X80562500Y-117050057D01*
X80562500Y-117050057D02*
X80500000Y-116978628D01*
X80500000Y-116978628D02*
X80482143Y-117121485D01*
X81241072Y-118478628D02*
X81107143Y-118407200D01*
X81107143Y-118407200D02*
X81044643Y-118335771D01*
X81044643Y-118335771D02*
X80991072Y-118192914D01*
X80991072Y-118192914D02*
X81044643Y-117764342D01*
X81044643Y-117764342D02*
X81133929Y-117621485D01*
X81133929Y-117621485D02*
X81214286Y-117550057D01*
X81214286Y-117550057D02*
X81366072Y-117478628D01*
X81366072Y-117478628D02*
X81580357Y-117478628D01*
X81580357Y-117478628D02*
X81714286Y-117550057D01*
X81714286Y-117550057D02*
X81776786Y-117621485D01*
X81776786Y-117621485D02*
X81830357Y-117764342D01*
X81830357Y-117764342D02*
X81776786Y-118192914D01*
X81776786Y-118192914D02*
X81687500Y-118335771D01*
X81687500Y-118335771D02*
X81607143Y-118407200D01*
X81607143Y-118407200D02*
X81455357Y-118478628D01*
X81455357Y-118478628D02*
X81241072Y-118478628D01*
X82508929Y-117478628D02*
X82383929Y-118478628D01*
X82491072Y-117621485D02*
X82571429Y-117550057D01*
X82571429Y-117550057D02*
X82723215Y-117478628D01*
X82723215Y-117478628D02*
X82937500Y-117478628D01*
X82937500Y-117478628D02*
X83071429Y-117550057D01*
X83071429Y-117550057D02*
X83125000Y-117692914D01*
X83125000Y-117692914D02*
X83026786Y-118478628D01*
X83678572Y-118407200D02*
X83812500Y-118478628D01*
X83812500Y-118478628D02*
X84098215Y-118478628D01*
X84098215Y-118478628D02*
X84250000Y-118407200D01*
X84250000Y-118407200D02*
X84339286Y-118264342D01*
X84339286Y-118264342D02*
X84348215Y-118192914D01*
X84348215Y-118192914D02*
X84294643Y-118050057D01*
X84294643Y-118050057D02*
X84160715Y-117978628D01*
X84160715Y-117978628D02*
X83946429Y-117978628D01*
X83946429Y-117978628D02*
X83812500Y-117907200D01*
X83812500Y-117907200D02*
X83758929Y-117764342D01*
X83758929Y-117764342D02*
X83767858Y-117692914D01*
X83767858Y-117692914D02*
X83857143Y-117550057D01*
X83857143Y-117550057D02*
X84008929Y-117478628D01*
X84008929Y-117478628D02*
X84223215Y-117478628D01*
X84223215Y-117478628D02*
X84357143Y-117550057D01*
X86008929Y-117478628D02*
X86580358Y-117478628D01*
X86285715Y-116978628D02*
X86125001Y-118264342D01*
X86125001Y-118264342D02*
X86178572Y-118407200D01*
X86178572Y-118407200D02*
X86312501Y-118478628D01*
X86312501Y-118478628D02*
X86455358Y-118478628D01*
X87598215Y-118478628D02*
X87696429Y-117692914D01*
X87696429Y-117692914D02*
X87642858Y-117550057D01*
X87642858Y-117550057D02*
X87508929Y-117478628D01*
X87508929Y-117478628D02*
X87223215Y-117478628D01*
X87223215Y-117478628D02*
X87071429Y-117550057D01*
X87607144Y-118407200D02*
X87455358Y-118478628D01*
X87455358Y-118478628D02*
X87098215Y-118478628D01*
X87098215Y-118478628D02*
X86964286Y-118407200D01*
X86964286Y-118407200D02*
X86910715Y-118264342D01*
X86910715Y-118264342D02*
X86928572Y-118121485D01*
X86928572Y-118121485D02*
X87017858Y-117978628D01*
X87017858Y-117978628D02*
X87169644Y-117907200D01*
X87169644Y-117907200D02*
X87526786Y-117907200D01*
X87526786Y-117907200D02*
X87678572Y-117835771D01*
X88312501Y-118478628D02*
X88500001Y-116978628D01*
X88526787Y-117907200D02*
X88883929Y-118478628D01*
X89008929Y-117478628D02*
X88366072Y-118050057D01*
X90107144Y-118407200D02*
X89955358Y-118478628D01*
X89955358Y-118478628D02*
X89669644Y-118478628D01*
X89669644Y-118478628D02*
X89535715Y-118407200D01*
X89535715Y-118407200D02*
X89482144Y-118264342D01*
X89482144Y-118264342D02*
X89553573Y-117692914D01*
X89553573Y-117692914D02*
X89642858Y-117550057D01*
X89642858Y-117550057D02*
X89794644Y-117478628D01*
X89794644Y-117478628D02*
X90080358Y-117478628D01*
X90080358Y-117478628D02*
X90214287Y-117550057D01*
X90214287Y-117550057D02*
X90267858Y-117692914D01*
X90267858Y-117692914D02*
X90250001Y-117835771D01*
X90250001Y-117835771D02*
X89517858Y-117978628D01*
X90937501Y-117478628D02*
X90812501Y-118478628D01*
X90919644Y-117621485D02*
X91000001Y-117550057D01*
X91000001Y-117550057D02*
X91151787Y-117478628D01*
X91151787Y-117478628D02*
X91366072Y-117478628D01*
X91366072Y-117478628D02*
X91500001Y-117550057D01*
X91500001Y-117550057D02*
X91553572Y-117692914D01*
X91553572Y-117692914D02*
X91455358Y-118478628D01*
X93223215Y-117478628D02*
X93794644Y-117478628D01*
X93312501Y-118478628D02*
X93473215Y-117192914D01*
X93473215Y-117192914D02*
X93562501Y-117050057D01*
X93562501Y-117050057D02*
X93714287Y-116978628D01*
X93714287Y-116978628D02*
X93857144Y-116978628D01*
X94169644Y-118478628D02*
X94294644Y-117478628D01*
X94258930Y-117764342D02*
X94348215Y-117621485D01*
X94348215Y-117621485D02*
X94428572Y-117550057D01*
X94428572Y-117550057D02*
X94580358Y-117478628D01*
X94580358Y-117478628D02*
X94723215Y-117478628D01*
X95312501Y-118478628D02*
X95178572Y-118407200D01*
X95178572Y-118407200D02*
X95116072Y-118335771D01*
X95116072Y-118335771D02*
X95062501Y-118192914D01*
X95062501Y-118192914D02*
X95116072Y-117764342D01*
X95116072Y-117764342D02*
X95205358Y-117621485D01*
X95205358Y-117621485D02*
X95285715Y-117550057D01*
X95285715Y-117550057D02*
X95437501Y-117478628D01*
X95437501Y-117478628D02*
X95651786Y-117478628D01*
X95651786Y-117478628D02*
X95785715Y-117550057D01*
X95785715Y-117550057D02*
X95848215Y-117621485D01*
X95848215Y-117621485D02*
X95901786Y-117764342D01*
X95901786Y-117764342D02*
X95848215Y-118192914D01*
X95848215Y-118192914D02*
X95758929Y-118335771D01*
X95758929Y-118335771D02*
X95678572Y-118407200D01*
X95678572Y-118407200D02*
X95526786Y-118478628D01*
X95526786Y-118478628D02*
X95312501Y-118478628D01*
X96455358Y-118478628D02*
X96580358Y-117478628D01*
X96562501Y-117621485D02*
X96642858Y-117550057D01*
X96642858Y-117550057D02*
X96794644Y-117478628D01*
X96794644Y-117478628D02*
X97008929Y-117478628D01*
X97008929Y-117478628D02*
X97142858Y-117550057D01*
X97142858Y-117550057D02*
X97196429Y-117692914D01*
X97196429Y-117692914D02*
X97098215Y-118478628D01*
X97196429Y-117692914D02*
X97285715Y-117550057D01*
X97285715Y-117550057D02*
X97437501Y-117478628D01*
X97437501Y-117478628D02*
X97651786Y-117478628D01*
X97651786Y-117478628D02*
X97785715Y-117550057D01*
X97785715Y-117550057D02*
X97839286Y-117692914D01*
X97839286Y-117692914D02*
X97741072Y-118478628D01*
X40205354Y-120893628D02*
X40392854Y-119393628D01*
X40848211Y-120893628D02*
X40946425Y-120107914D01*
X40946425Y-120107914D02*
X40892854Y-119965057D01*
X40892854Y-119965057D02*
X40758925Y-119893628D01*
X40758925Y-119893628D02*
X40544640Y-119893628D01*
X40544640Y-119893628D02*
X40392854Y-119965057D01*
X40392854Y-119965057D02*
X40312497Y-120036485D01*
X41473211Y-119893628D02*
X42044640Y-119893628D01*
X41749997Y-119393628D02*
X41589283Y-120679342D01*
X41589283Y-120679342D02*
X41642854Y-120822200D01*
X41642854Y-120822200D02*
X41776783Y-120893628D01*
X41776783Y-120893628D02*
X41919640Y-120893628D01*
X42330354Y-119893628D02*
X42901783Y-119893628D01*
X42607140Y-119393628D02*
X42446426Y-120679342D01*
X42446426Y-120679342D02*
X42499997Y-120822200D01*
X42499997Y-120822200D02*
X42633926Y-120893628D01*
X42633926Y-120893628D02*
X42776783Y-120893628D01*
X43401783Y-119893628D02*
X43214283Y-121393628D01*
X43392854Y-119965057D02*
X43544640Y-119893628D01*
X43544640Y-119893628D02*
X43830354Y-119893628D01*
X43830354Y-119893628D02*
X43964283Y-119965057D01*
X43964283Y-119965057D02*
X44026783Y-120036485D01*
X44026783Y-120036485D02*
X44080354Y-120179342D01*
X44080354Y-120179342D02*
X44026783Y-120607914D01*
X44026783Y-120607914D02*
X43937497Y-120750771D01*
X43937497Y-120750771D02*
X43857140Y-120822200D01*
X43857140Y-120822200D02*
X43705354Y-120893628D01*
X43705354Y-120893628D02*
X43419640Y-120893628D01*
X43419640Y-120893628D02*
X43285711Y-120822200D01*
X44571426Y-120822200D02*
X44705354Y-120893628D01*
X44705354Y-120893628D02*
X44991069Y-120893628D01*
X44991069Y-120893628D02*
X45142854Y-120822200D01*
X45142854Y-120822200D02*
X45232140Y-120679342D01*
X45232140Y-120679342D02*
X45241069Y-120607914D01*
X45241069Y-120607914D02*
X45187497Y-120465057D01*
X45187497Y-120465057D02*
X45053569Y-120393628D01*
X45053569Y-120393628D02*
X44839283Y-120393628D01*
X44839283Y-120393628D02*
X44705354Y-120322200D01*
X44705354Y-120322200D02*
X44651783Y-120179342D01*
X44651783Y-120179342D02*
X44660712Y-120107914D01*
X44660712Y-120107914D02*
X44749997Y-119965057D01*
X44749997Y-119965057D02*
X44901783Y-119893628D01*
X44901783Y-119893628D02*
X45116069Y-119893628D01*
X45116069Y-119893628D02*
X45249997Y-119965057D01*
X45866069Y-120750771D02*
X45928569Y-120822200D01*
X45928569Y-120822200D02*
X45848212Y-120893628D01*
X45848212Y-120893628D02*
X45785712Y-120822200D01*
X45785712Y-120822200D02*
X45866069Y-120750771D01*
X45866069Y-120750771D02*
X45848212Y-120893628D01*
X45964283Y-119965057D02*
X46026783Y-120036485D01*
X46026783Y-120036485D02*
X45946426Y-120107914D01*
X45946426Y-120107914D02*
X45883926Y-120036485D01*
X45883926Y-120036485D02*
X45964283Y-119965057D01*
X45964283Y-119965057D02*
X45946426Y-120107914D01*
X47830355Y-119322200D02*
X46303569Y-121250771D01*
X49401784Y-119322200D02*
X47874998Y-121250771D01*
X50473213Y-119893628D02*
X50321427Y-121107914D01*
X50321427Y-121107914D02*
X50232142Y-121250771D01*
X50232142Y-121250771D02*
X50151784Y-121322200D01*
X50151784Y-121322200D02*
X49999999Y-121393628D01*
X49999999Y-121393628D02*
X49785713Y-121393628D01*
X49785713Y-121393628D02*
X49651784Y-121322200D01*
X50357142Y-120822200D02*
X50205356Y-120893628D01*
X50205356Y-120893628D02*
X49919642Y-120893628D01*
X49919642Y-120893628D02*
X49785713Y-120822200D01*
X49785713Y-120822200D02*
X49723213Y-120750771D01*
X49723213Y-120750771D02*
X49669642Y-120607914D01*
X49669642Y-120607914D02*
X49723213Y-120179342D01*
X49723213Y-120179342D02*
X49812499Y-120036485D01*
X49812499Y-120036485D02*
X49892856Y-119965057D01*
X49892856Y-119965057D02*
X50044642Y-119893628D01*
X50044642Y-119893628D02*
X50330356Y-119893628D01*
X50330356Y-119893628D02*
X50464284Y-119965057D01*
X51062499Y-120893628D02*
X51187499Y-119893628D01*
X51249999Y-119393628D02*
X51169642Y-119465057D01*
X51169642Y-119465057D02*
X51232142Y-119536485D01*
X51232142Y-119536485D02*
X51312499Y-119465057D01*
X51312499Y-119465057D02*
X51249999Y-119393628D01*
X51249999Y-119393628D02*
X51232142Y-119536485D01*
X51687499Y-119893628D02*
X52258928Y-119893628D01*
X51964285Y-119393628D02*
X51803571Y-120679342D01*
X51803571Y-120679342D02*
X51857142Y-120822200D01*
X51857142Y-120822200D02*
X51991071Y-120893628D01*
X51991071Y-120893628D02*
X52133928Y-120893628D01*
X52633928Y-120893628D02*
X52821428Y-119393628D01*
X53276785Y-120893628D02*
X53374999Y-120107914D01*
X53374999Y-120107914D02*
X53321428Y-119965057D01*
X53321428Y-119965057D02*
X53187499Y-119893628D01*
X53187499Y-119893628D02*
X52973214Y-119893628D01*
X52973214Y-119893628D02*
X52821428Y-119965057D01*
X52821428Y-119965057D02*
X52741071Y-120036485D01*
X54758928Y-119893628D02*
X54633928Y-120893628D01*
X54116071Y-119893628D02*
X54017857Y-120679342D01*
X54017857Y-120679342D02*
X54071428Y-120822200D01*
X54071428Y-120822200D02*
X54205357Y-120893628D01*
X54205357Y-120893628D02*
X54419642Y-120893628D01*
X54419642Y-120893628D02*
X54571428Y-120822200D01*
X54571428Y-120822200D02*
X54651785Y-120750771D01*
X55348214Y-120893628D02*
X55535714Y-119393628D01*
X55464285Y-119965057D02*
X55616071Y-119893628D01*
X55616071Y-119893628D02*
X55901785Y-119893628D01*
X55901785Y-119893628D02*
X56035714Y-119965057D01*
X56035714Y-119965057D02*
X56098214Y-120036485D01*
X56098214Y-120036485D02*
X56151785Y-120179342D01*
X56151785Y-120179342D02*
X56098214Y-120607914D01*
X56098214Y-120607914D02*
X56008928Y-120750771D01*
X56008928Y-120750771D02*
X55928571Y-120822200D01*
X55928571Y-120822200D02*
X55776785Y-120893628D01*
X55776785Y-120893628D02*
X55491071Y-120893628D01*
X55491071Y-120893628D02*
X55357142Y-120822200D01*
X56723214Y-120750771D02*
X56785714Y-120822200D01*
X56785714Y-120822200D02*
X56705357Y-120893628D01*
X56705357Y-120893628D02*
X56642857Y-120822200D01*
X56642857Y-120822200D02*
X56723214Y-120750771D01*
X56723214Y-120750771D02*
X56705357Y-120893628D01*
X58071429Y-120822200D02*
X57919643Y-120893628D01*
X57919643Y-120893628D02*
X57633929Y-120893628D01*
X57633929Y-120893628D02*
X57500000Y-120822200D01*
X57500000Y-120822200D02*
X57437500Y-120750771D01*
X57437500Y-120750771D02*
X57383929Y-120607914D01*
X57383929Y-120607914D02*
X57437500Y-120179342D01*
X57437500Y-120179342D02*
X57526786Y-120036485D01*
X57526786Y-120036485D02*
X57607143Y-119965057D01*
X57607143Y-119965057D02*
X57758929Y-119893628D01*
X57758929Y-119893628D02*
X58044643Y-119893628D01*
X58044643Y-119893628D02*
X58178571Y-119965057D01*
X58919643Y-120893628D02*
X58785714Y-120822200D01*
X58785714Y-120822200D02*
X58723214Y-120750771D01*
X58723214Y-120750771D02*
X58669643Y-120607914D01*
X58669643Y-120607914D02*
X58723214Y-120179342D01*
X58723214Y-120179342D02*
X58812500Y-120036485D01*
X58812500Y-120036485D02*
X58892857Y-119965057D01*
X58892857Y-119965057D02*
X59044643Y-119893628D01*
X59044643Y-119893628D02*
X59258928Y-119893628D01*
X59258928Y-119893628D02*
X59392857Y-119965057D01*
X59392857Y-119965057D02*
X59455357Y-120036485D01*
X59455357Y-120036485D02*
X59508928Y-120179342D01*
X59508928Y-120179342D02*
X59455357Y-120607914D01*
X59455357Y-120607914D02*
X59366071Y-120750771D01*
X59366071Y-120750771D02*
X59285714Y-120822200D01*
X59285714Y-120822200D02*
X59133928Y-120893628D01*
X59133928Y-120893628D02*
X58919643Y-120893628D01*
X60062500Y-120893628D02*
X60187500Y-119893628D01*
X60169643Y-120036485D02*
X60250000Y-119965057D01*
X60250000Y-119965057D02*
X60401786Y-119893628D01*
X60401786Y-119893628D02*
X60616071Y-119893628D01*
X60616071Y-119893628D02*
X60750000Y-119965057D01*
X60750000Y-119965057D02*
X60803571Y-120107914D01*
X60803571Y-120107914D02*
X60705357Y-120893628D01*
X60803571Y-120107914D02*
X60892857Y-119965057D01*
X60892857Y-119965057D02*
X61044643Y-119893628D01*
X61044643Y-119893628D02*
X61258928Y-119893628D01*
X61258928Y-119893628D02*
X61392857Y-119965057D01*
X61392857Y-119965057D02*
X61446428Y-120107914D01*
X61446428Y-120107914D02*
X61348214Y-120893628D01*
X63330357Y-119322200D02*
X61803571Y-121250771D01*
X63633929Y-120893628D02*
X63758929Y-119893628D01*
X63723215Y-120179342D02*
X63812500Y-120036485D01*
X63812500Y-120036485D02*
X63892857Y-119965057D01*
X63892857Y-119965057D02*
X64044643Y-119893628D01*
X64044643Y-119893628D02*
X64187500Y-119893628D01*
X65205357Y-120893628D02*
X65303571Y-120107914D01*
X65303571Y-120107914D02*
X65250000Y-119965057D01*
X65250000Y-119965057D02*
X65116071Y-119893628D01*
X65116071Y-119893628D02*
X64830357Y-119893628D01*
X64830357Y-119893628D02*
X64678571Y-119965057D01*
X65214286Y-120822200D02*
X65062500Y-120893628D01*
X65062500Y-120893628D02*
X64705357Y-120893628D01*
X64705357Y-120893628D02*
X64571428Y-120822200D01*
X64571428Y-120822200D02*
X64517857Y-120679342D01*
X64517857Y-120679342D02*
X64535714Y-120536485D01*
X64535714Y-120536485D02*
X64625000Y-120393628D01*
X64625000Y-120393628D02*
X64776786Y-120322200D01*
X64776786Y-120322200D02*
X65133928Y-120322200D01*
X65133928Y-120322200D02*
X65285714Y-120250771D01*
X65857143Y-120822200D02*
X65991071Y-120893628D01*
X65991071Y-120893628D02*
X66276786Y-120893628D01*
X66276786Y-120893628D02*
X66428571Y-120822200D01*
X66428571Y-120822200D02*
X66517857Y-120679342D01*
X66517857Y-120679342D02*
X66526786Y-120607914D01*
X66526786Y-120607914D02*
X66473214Y-120465057D01*
X66473214Y-120465057D02*
X66339286Y-120393628D01*
X66339286Y-120393628D02*
X66125000Y-120393628D01*
X66125000Y-120393628D02*
X65991071Y-120322200D01*
X65991071Y-120322200D02*
X65937500Y-120179342D01*
X65937500Y-120179342D02*
X65946429Y-120107914D01*
X65946429Y-120107914D02*
X66035714Y-119965057D01*
X66035714Y-119965057D02*
X66187500Y-119893628D01*
X66187500Y-119893628D02*
X66401786Y-119893628D01*
X66401786Y-119893628D02*
X66535714Y-119965057D01*
X67258929Y-119893628D02*
X67071429Y-121393628D01*
X67250000Y-119965057D02*
X67401786Y-119893628D01*
X67401786Y-119893628D02*
X67687500Y-119893628D01*
X67687500Y-119893628D02*
X67821429Y-119965057D01*
X67821429Y-119965057D02*
X67883929Y-120036485D01*
X67883929Y-120036485D02*
X67937500Y-120179342D01*
X67937500Y-120179342D02*
X67883929Y-120607914D01*
X67883929Y-120607914D02*
X67794643Y-120750771D01*
X67794643Y-120750771D02*
X67714286Y-120822200D01*
X67714286Y-120822200D02*
X67562500Y-120893628D01*
X67562500Y-120893628D02*
X67276786Y-120893628D01*
X67276786Y-120893628D02*
X67142857Y-120822200D01*
X68491072Y-120893628D02*
X68678572Y-119393628D01*
X68607143Y-119965057D02*
X68758929Y-119893628D01*
X68758929Y-119893628D02*
X69044643Y-119893628D01*
X69044643Y-119893628D02*
X69178572Y-119965057D01*
X69178572Y-119965057D02*
X69241072Y-120036485D01*
X69241072Y-120036485D02*
X69294643Y-120179342D01*
X69294643Y-120179342D02*
X69241072Y-120607914D01*
X69241072Y-120607914D02*
X69151786Y-120750771D01*
X69151786Y-120750771D02*
X69071429Y-120822200D01*
X69071429Y-120822200D02*
X68919643Y-120893628D01*
X68919643Y-120893628D02*
X68633929Y-120893628D01*
X68633929Y-120893628D02*
X68500000Y-120822200D01*
X70428572Y-120822200D02*
X70276786Y-120893628D01*
X70276786Y-120893628D02*
X69991072Y-120893628D01*
X69991072Y-120893628D02*
X69857143Y-120822200D01*
X69857143Y-120822200D02*
X69803572Y-120679342D01*
X69803572Y-120679342D02*
X69875001Y-120107914D01*
X69875001Y-120107914D02*
X69964286Y-119965057D01*
X69964286Y-119965057D02*
X70116072Y-119893628D01*
X70116072Y-119893628D02*
X70401786Y-119893628D01*
X70401786Y-119893628D02*
X70535715Y-119965057D01*
X70535715Y-119965057D02*
X70589286Y-120107914D01*
X70589286Y-120107914D02*
X70571429Y-120250771D01*
X70571429Y-120250771D02*
X69839286Y-120393628D01*
X71133929Y-120893628D02*
X71258929Y-119893628D01*
X71223215Y-120179342D02*
X71312500Y-120036485D01*
X71312500Y-120036485D02*
X71392857Y-119965057D01*
X71392857Y-119965057D02*
X71544643Y-119893628D01*
X71544643Y-119893628D02*
X71687500Y-119893628D01*
X72062500Y-120893628D02*
X72187500Y-119893628D01*
X72151786Y-120179342D02*
X72241071Y-120036485D01*
X72241071Y-120036485D02*
X72321428Y-119965057D01*
X72321428Y-119965057D02*
X72473214Y-119893628D01*
X72473214Y-119893628D02*
X72616071Y-119893628D01*
X72973214Y-119893628D02*
X73205357Y-120893628D01*
X73687499Y-119893628D02*
X73205357Y-120893628D01*
X73205357Y-120893628D02*
X73017857Y-121250771D01*
X73017857Y-121250771D02*
X72937499Y-121322200D01*
X72937499Y-121322200D02*
X72785714Y-121393628D01*
X74258928Y-119893628D02*
X74071428Y-121393628D01*
X74249999Y-119965057D02*
X74401785Y-119893628D01*
X74401785Y-119893628D02*
X74687499Y-119893628D01*
X74687499Y-119893628D02*
X74821428Y-119965057D01*
X74821428Y-119965057D02*
X74883928Y-120036485D01*
X74883928Y-120036485D02*
X74937499Y-120179342D01*
X74937499Y-120179342D02*
X74883928Y-120607914D01*
X74883928Y-120607914D02*
X74794642Y-120750771D01*
X74794642Y-120750771D02*
X74714285Y-120822200D01*
X74714285Y-120822200D02*
X74562499Y-120893628D01*
X74562499Y-120893628D02*
X74276785Y-120893628D01*
X74276785Y-120893628D02*
X74142856Y-120822200D01*
X75491071Y-120893628D02*
X75616071Y-119893628D01*
X75678571Y-119393628D02*
X75598214Y-119465057D01*
X75598214Y-119465057D02*
X75660714Y-119536485D01*
X75660714Y-119536485D02*
X75741071Y-119465057D01*
X75741071Y-119465057D02*
X75678571Y-119393628D01*
X75678571Y-119393628D02*
X75660714Y-119536485D01*
X77473214Y-119322200D02*
X75946428Y-121250771D01*
X77776786Y-120893628D02*
X77964286Y-119393628D01*
X78419643Y-120893628D02*
X78517857Y-120107914D01*
X78517857Y-120107914D02*
X78464286Y-119965057D01*
X78464286Y-119965057D02*
X78330357Y-119893628D01*
X78330357Y-119893628D02*
X78116072Y-119893628D01*
X78116072Y-119893628D02*
X77964286Y-119965057D01*
X77964286Y-119965057D02*
X77883929Y-120036485D01*
X79776786Y-120893628D02*
X79875000Y-120107914D01*
X79875000Y-120107914D02*
X79821429Y-119965057D01*
X79821429Y-119965057D02*
X79687500Y-119893628D01*
X79687500Y-119893628D02*
X79401786Y-119893628D01*
X79401786Y-119893628D02*
X79250000Y-119965057D01*
X79785715Y-120822200D02*
X79633929Y-120893628D01*
X79633929Y-120893628D02*
X79276786Y-120893628D01*
X79276786Y-120893628D02*
X79142857Y-120822200D01*
X79142857Y-120822200D02*
X79089286Y-120679342D01*
X79089286Y-120679342D02*
X79107143Y-120536485D01*
X79107143Y-120536485D02*
X79196429Y-120393628D01*
X79196429Y-120393628D02*
X79348215Y-120322200D01*
X79348215Y-120322200D02*
X79705357Y-120322200D01*
X79705357Y-120322200D02*
X79857143Y-120250771D01*
X80401786Y-119893628D02*
X80973215Y-119893628D01*
X80678572Y-119393628D02*
X80517858Y-120679342D01*
X80517858Y-120679342D02*
X80571429Y-120822200D01*
X80571429Y-120822200D02*
X80705358Y-120893628D01*
X80705358Y-120893628D02*
X80848215Y-120893628D01*
X81285715Y-120822200D02*
X81419643Y-120893628D01*
X81419643Y-120893628D02*
X81705358Y-120893628D01*
X81705358Y-120893628D02*
X81857143Y-120822200D01*
X81857143Y-120822200D02*
X81946429Y-120679342D01*
X81946429Y-120679342D02*
X81955358Y-120607914D01*
X81955358Y-120607914D02*
X81901786Y-120465057D01*
X81901786Y-120465057D02*
X81767858Y-120393628D01*
X81767858Y-120393628D02*
X81553572Y-120393628D01*
X81553572Y-120393628D02*
X81419643Y-120322200D01*
X81419643Y-120322200D02*
X81366072Y-120179342D01*
X81366072Y-120179342D02*
X81375001Y-120107914D01*
X81375001Y-120107914D02*
X81464286Y-119965057D01*
X81464286Y-119965057D02*
X81616072Y-119893628D01*
X81616072Y-119893628D02*
X81830358Y-119893628D01*
X81830358Y-119893628D02*
X81964286Y-119965057D01*
X83830358Y-119322200D02*
X82303572Y-121250771D01*
X84133930Y-120893628D02*
X84321430Y-119393628D01*
X84250001Y-119965057D02*
X84401787Y-119893628D01*
X84401787Y-119893628D02*
X84687501Y-119893628D01*
X84687501Y-119893628D02*
X84821430Y-119965057D01*
X84821430Y-119965057D02*
X84883930Y-120036485D01*
X84883930Y-120036485D02*
X84937501Y-120179342D01*
X84937501Y-120179342D02*
X84883930Y-120607914D01*
X84883930Y-120607914D02*
X84794644Y-120750771D01*
X84794644Y-120750771D02*
X84714287Y-120822200D01*
X84714287Y-120822200D02*
X84562501Y-120893628D01*
X84562501Y-120893628D02*
X84276787Y-120893628D01*
X84276787Y-120893628D02*
X84142858Y-120822200D01*
X85705359Y-120893628D02*
X85571430Y-120822200D01*
X85571430Y-120822200D02*
X85517859Y-120679342D01*
X85517859Y-120679342D02*
X85678573Y-119393628D01*
X86491073Y-120893628D02*
X86357144Y-120822200D01*
X86357144Y-120822200D02*
X86294644Y-120750771D01*
X86294644Y-120750771D02*
X86241073Y-120607914D01*
X86241073Y-120607914D02*
X86294644Y-120179342D01*
X86294644Y-120179342D02*
X86383930Y-120036485D01*
X86383930Y-120036485D02*
X86464287Y-119965057D01*
X86464287Y-119965057D02*
X86616073Y-119893628D01*
X86616073Y-119893628D02*
X86830358Y-119893628D01*
X86830358Y-119893628D02*
X86964287Y-119965057D01*
X86964287Y-119965057D02*
X87026787Y-120036485D01*
X87026787Y-120036485D02*
X87080358Y-120179342D01*
X87080358Y-120179342D02*
X87026787Y-120607914D01*
X87026787Y-120607914D02*
X86937501Y-120750771D01*
X86937501Y-120750771D02*
X86857144Y-120822200D01*
X86857144Y-120822200D02*
X86705358Y-120893628D01*
X86705358Y-120893628D02*
X86491073Y-120893628D01*
X87633930Y-120893628D02*
X87821430Y-119393628D01*
X87750001Y-119965057D02*
X87901787Y-119893628D01*
X87901787Y-119893628D02*
X88187501Y-119893628D01*
X88187501Y-119893628D02*
X88321430Y-119965057D01*
X88321430Y-119965057D02*
X88383930Y-120036485D01*
X88383930Y-120036485D02*
X88437501Y-120179342D01*
X88437501Y-120179342D02*
X88383930Y-120607914D01*
X88383930Y-120607914D02*
X88294644Y-120750771D01*
X88294644Y-120750771D02*
X88214287Y-120822200D01*
X88214287Y-120822200D02*
X88062501Y-120893628D01*
X88062501Y-120893628D02*
X87776787Y-120893628D01*
X87776787Y-120893628D02*
X87642858Y-120822200D01*
X90258930Y-119322200D02*
X88732144Y-121250771D01*
X90562502Y-120893628D02*
X90687502Y-119893628D01*
X90669645Y-120036485D02*
X90750002Y-119965057D01*
X90750002Y-119965057D02*
X90901788Y-119893628D01*
X90901788Y-119893628D02*
X91116073Y-119893628D01*
X91116073Y-119893628D02*
X91250002Y-119965057D01*
X91250002Y-119965057D02*
X91303573Y-120107914D01*
X91303573Y-120107914D02*
X91205359Y-120893628D01*
X91303573Y-120107914D02*
X91392859Y-119965057D01*
X91392859Y-119965057D02*
X91544645Y-119893628D01*
X91544645Y-119893628D02*
X91758930Y-119893628D01*
X91758930Y-119893628D02*
X91892859Y-119965057D01*
X91892859Y-119965057D02*
X91946430Y-120107914D01*
X91946430Y-120107914D02*
X91848216Y-120893628D01*
X93205359Y-120893628D02*
X93303573Y-120107914D01*
X93303573Y-120107914D02*
X93250002Y-119965057D01*
X93250002Y-119965057D02*
X93116073Y-119893628D01*
X93116073Y-119893628D02*
X92830359Y-119893628D01*
X92830359Y-119893628D02*
X92678573Y-119965057D01*
X93214288Y-120822200D02*
X93062502Y-120893628D01*
X93062502Y-120893628D02*
X92705359Y-120893628D01*
X92705359Y-120893628D02*
X92571430Y-120822200D01*
X92571430Y-120822200D02*
X92517859Y-120679342D01*
X92517859Y-120679342D02*
X92535716Y-120536485D01*
X92535716Y-120536485D02*
X92625002Y-120393628D01*
X92625002Y-120393628D02*
X92776788Y-120322200D01*
X92776788Y-120322200D02*
X93133930Y-120322200D01*
X93133930Y-120322200D02*
X93285716Y-120250771D01*
X93857145Y-120822200D02*
X93991073Y-120893628D01*
X93991073Y-120893628D02*
X94276788Y-120893628D01*
X94276788Y-120893628D02*
X94428573Y-120822200D01*
X94428573Y-120822200D02*
X94517859Y-120679342D01*
X94517859Y-120679342D02*
X94526788Y-120607914D01*
X94526788Y-120607914D02*
X94473216Y-120465057D01*
X94473216Y-120465057D02*
X94339288Y-120393628D01*
X94339288Y-120393628D02*
X94125002Y-120393628D01*
X94125002Y-120393628D02*
X93991073Y-120322200D01*
X93991073Y-120322200D02*
X93937502Y-120179342D01*
X93937502Y-120179342D02*
X93946431Y-120107914D01*
X93946431Y-120107914D02*
X94035716Y-119965057D01*
X94035716Y-119965057D02*
X94187502Y-119893628D01*
X94187502Y-119893628D02*
X94401788Y-119893628D01*
X94401788Y-119893628D02*
X94535716Y-119965057D01*
X95044645Y-119893628D02*
X95616074Y-119893628D01*
X95321431Y-119393628D02*
X95160717Y-120679342D01*
X95160717Y-120679342D02*
X95214288Y-120822200D01*
X95214288Y-120822200D02*
X95348217Y-120893628D01*
X95348217Y-120893628D02*
X95491074Y-120893628D01*
X96571431Y-120822200D02*
X96419645Y-120893628D01*
X96419645Y-120893628D02*
X96133931Y-120893628D01*
X96133931Y-120893628D02*
X96000002Y-120822200D01*
X96000002Y-120822200D02*
X95946431Y-120679342D01*
X95946431Y-120679342D02*
X96017860Y-120107914D01*
X96017860Y-120107914D02*
X96107145Y-119965057D01*
X96107145Y-119965057D02*
X96258931Y-119893628D01*
X96258931Y-119893628D02*
X96544645Y-119893628D01*
X96544645Y-119893628D02*
X96678574Y-119965057D01*
X96678574Y-119965057D02*
X96732145Y-120107914D01*
X96732145Y-120107914D02*
X96714288Y-120250771D01*
X96714288Y-120250771D02*
X95982145Y-120393628D01*
X97276788Y-120893628D02*
X97401788Y-119893628D01*
X97366074Y-120179342D02*
X97455359Y-120036485D01*
X97455359Y-120036485D02*
X97535716Y-119965057D01*
X97535716Y-119965057D02*
X97687502Y-119893628D01*
X97687502Y-119893628D02*
X97830359Y-119893628D01*
X99473216Y-119322200D02*
X97946430Y-121250771D01*
X99776788Y-120893628D02*
X99964288Y-119393628D01*
X100419645Y-120893628D02*
X100517859Y-120107914D01*
X100517859Y-120107914D02*
X100464288Y-119965057D01*
X100464288Y-119965057D02*
X100330359Y-119893628D01*
X100330359Y-119893628D02*
X100116074Y-119893628D01*
X100116074Y-119893628D02*
X99964288Y-119965057D01*
X99964288Y-119965057D02*
X99883931Y-120036485D01*
X101776788Y-120893628D02*
X101875002Y-120107914D01*
X101875002Y-120107914D02*
X101821431Y-119965057D01*
X101821431Y-119965057D02*
X101687502Y-119893628D01*
X101687502Y-119893628D02*
X101401788Y-119893628D01*
X101401788Y-119893628D02*
X101250002Y-119965057D01*
X101785717Y-120822200D02*
X101633931Y-120893628D01*
X101633931Y-120893628D02*
X101276788Y-120893628D01*
X101276788Y-120893628D02*
X101142859Y-120822200D01*
X101142859Y-120822200D02*
X101089288Y-120679342D01*
X101089288Y-120679342D02*
X101107145Y-120536485D01*
X101107145Y-120536485D02*
X101196431Y-120393628D01*
X101196431Y-120393628D02*
X101348217Y-120322200D01*
X101348217Y-120322200D02*
X101705359Y-120322200D01*
X101705359Y-120322200D02*
X101857145Y-120250771D01*
X102401788Y-119893628D02*
X102973217Y-119893628D01*
X102678574Y-119393628D02*
X102517860Y-120679342D01*
X102517860Y-120679342D02*
X102571431Y-120822200D01*
X102571431Y-120822200D02*
X102705360Y-120893628D01*
X102705360Y-120893628D02*
X102848217Y-120893628D01*
X103419645Y-120322200D02*
X104562503Y-120322200D01*
X105205360Y-120893628D02*
X105392860Y-119393628D01*
X105321431Y-119965057D02*
X105473217Y-119893628D01*
X105473217Y-119893628D02*
X105758931Y-119893628D01*
X105758931Y-119893628D02*
X105892860Y-119965057D01*
X105892860Y-119965057D02*
X105955360Y-120036485D01*
X105955360Y-120036485D02*
X106008931Y-120179342D01*
X106008931Y-120179342D02*
X105955360Y-120607914D01*
X105955360Y-120607914D02*
X105866074Y-120750771D01*
X105866074Y-120750771D02*
X105785717Y-120822200D01*
X105785717Y-120822200D02*
X105633931Y-120893628D01*
X105633931Y-120893628D02*
X105348217Y-120893628D01*
X105348217Y-120893628D02*
X105214288Y-120822200D01*
X106776789Y-120893628D02*
X106642860Y-120822200D01*
X106642860Y-120822200D02*
X106580360Y-120750771D01*
X106580360Y-120750771D02*
X106526789Y-120607914D01*
X106526789Y-120607914D02*
X106580360Y-120179342D01*
X106580360Y-120179342D02*
X106669646Y-120036485D01*
X106669646Y-120036485D02*
X106750003Y-119965057D01*
X106750003Y-119965057D02*
X106901789Y-119893628D01*
X106901789Y-119893628D02*
X107116074Y-119893628D01*
X107116074Y-119893628D02*
X107250003Y-119965057D01*
X107250003Y-119965057D02*
X107312503Y-120036485D01*
X107312503Y-120036485D02*
X107366074Y-120179342D01*
X107366074Y-120179342D02*
X107312503Y-120607914D01*
X107312503Y-120607914D02*
X107223217Y-120750771D01*
X107223217Y-120750771D02*
X107142860Y-120822200D01*
X107142860Y-120822200D02*
X106991074Y-120893628D01*
X106991074Y-120893628D02*
X106776789Y-120893628D01*
X108562503Y-120893628D02*
X108660717Y-120107914D01*
X108660717Y-120107914D02*
X108607146Y-119965057D01*
X108607146Y-119965057D02*
X108473217Y-119893628D01*
X108473217Y-119893628D02*
X108187503Y-119893628D01*
X108187503Y-119893628D02*
X108035717Y-119965057D01*
X108571432Y-120822200D02*
X108419646Y-120893628D01*
X108419646Y-120893628D02*
X108062503Y-120893628D01*
X108062503Y-120893628D02*
X107928574Y-120822200D01*
X107928574Y-120822200D02*
X107875003Y-120679342D01*
X107875003Y-120679342D02*
X107892860Y-120536485D01*
X107892860Y-120536485D02*
X107982146Y-120393628D01*
X107982146Y-120393628D02*
X108133932Y-120322200D01*
X108133932Y-120322200D02*
X108491074Y-120322200D01*
X108491074Y-120322200D02*
X108642860Y-120250771D01*
X109276789Y-120893628D02*
X109401789Y-119893628D01*
X109366075Y-120179342D02*
X109455360Y-120036485D01*
X109455360Y-120036485D02*
X109535717Y-119965057D01*
X109535717Y-119965057D02*
X109687503Y-119893628D01*
X109687503Y-119893628D02*
X109830360Y-119893628D01*
X110848217Y-120893628D02*
X111035717Y-119393628D01*
X110857146Y-120822200D02*
X110705360Y-120893628D01*
X110705360Y-120893628D02*
X110419646Y-120893628D01*
X110419646Y-120893628D02*
X110285717Y-120822200D01*
X110285717Y-120822200D02*
X110223217Y-120750771D01*
X110223217Y-120750771D02*
X110169646Y-120607914D01*
X110169646Y-120607914D02*
X110223217Y-120179342D01*
X110223217Y-120179342D02*
X110312503Y-120036485D01*
X110312503Y-120036485D02*
X110392860Y-119965057D01*
X110392860Y-119965057D02*
X110544646Y-119893628D01*
X110544646Y-119893628D02*
X110830360Y-119893628D01*
X110830360Y-119893628D02*
X110964288Y-119965057D01*
X111633931Y-120322200D02*
X112776789Y-120322200D01*
X113419646Y-120893628D02*
X113544646Y-119893628D01*
X113526789Y-120036485D02*
X113607146Y-119965057D01*
X113607146Y-119965057D02*
X113758932Y-119893628D01*
X113758932Y-119893628D02*
X113973217Y-119893628D01*
X113973217Y-119893628D02*
X114107146Y-119965057D01*
X114107146Y-119965057D02*
X114160717Y-120107914D01*
X114160717Y-120107914D02*
X114062503Y-120893628D01*
X114160717Y-120107914D02*
X114250003Y-119965057D01*
X114250003Y-119965057D02*
X114401789Y-119893628D01*
X114401789Y-119893628D02*
X114616074Y-119893628D01*
X114616074Y-119893628D02*
X114750003Y-119965057D01*
X114750003Y-119965057D02*
X114803574Y-120107914D01*
X114803574Y-120107914D02*
X114705360Y-120893628D01*
X116000003Y-120822200D02*
X115848217Y-120893628D01*
X115848217Y-120893628D02*
X115562503Y-120893628D01*
X115562503Y-120893628D02*
X115428574Y-120822200D01*
X115428574Y-120822200D02*
X115375003Y-120679342D01*
X115375003Y-120679342D02*
X115446432Y-120107914D01*
X115446432Y-120107914D02*
X115535717Y-119965057D01*
X115535717Y-119965057D02*
X115687503Y-119893628D01*
X115687503Y-119893628D02*
X115973217Y-119893628D01*
X115973217Y-119893628D02*
X116107146Y-119965057D01*
X116107146Y-119965057D02*
X116160717Y-120107914D01*
X116160717Y-120107914D02*
X116142860Y-120250771D01*
X116142860Y-120250771D02*
X115410717Y-120393628D01*
X117357146Y-120822200D02*
X117205360Y-120893628D01*
X117205360Y-120893628D02*
X116919646Y-120893628D01*
X116919646Y-120893628D02*
X116785717Y-120822200D01*
X116785717Y-120822200D02*
X116723217Y-120750771D01*
X116723217Y-120750771D02*
X116669646Y-120607914D01*
X116669646Y-120607914D02*
X116723217Y-120179342D01*
X116723217Y-120179342D02*
X116812503Y-120036485D01*
X116812503Y-120036485D02*
X116892860Y-119965057D01*
X116892860Y-119965057D02*
X117044646Y-119893628D01*
X117044646Y-119893628D02*
X117330360Y-119893628D01*
X117330360Y-119893628D02*
X117464288Y-119965057D01*
X117991074Y-120893628D02*
X118178574Y-119393628D01*
X118633931Y-120893628D02*
X118732145Y-120107914D01*
X118732145Y-120107914D02*
X118678574Y-119965057D01*
X118678574Y-119965057D02*
X118544645Y-119893628D01*
X118544645Y-119893628D02*
X118330360Y-119893628D01*
X118330360Y-119893628D02*
X118178574Y-119965057D01*
X118178574Y-119965057D02*
X118098217Y-120036485D01*
X119991074Y-120893628D02*
X120089288Y-120107914D01*
X120089288Y-120107914D02*
X120035717Y-119965057D01*
X120035717Y-119965057D02*
X119901788Y-119893628D01*
X119901788Y-119893628D02*
X119616074Y-119893628D01*
X119616074Y-119893628D02*
X119464288Y-119965057D01*
X120000003Y-120822200D02*
X119848217Y-120893628D01*
X119848217Y-120893628D02*
X119491074Y-120893628D01*
X119491074Y-120893628D02*
X119357145Y-120822200D01*
X119357145Y-120822200D02*
X119303574Y-120679342D01*
X119303574Y-120679342D02*
X119321431Y-120536485D01*
X119321431Y-120536485D02*
X119410717Y-120393628D01*
X119410717Y-120393628D02*
X119562503Y-120322200D01*
X119562503Y-120322200D02*
X119919645Y-120322200D01*
X119919645Y-120322200D02*
X120071431Y-120250771D01*
X120830360Y-119893628D02*
X120705360Y-120893628D01*
X120812503Y-120036485D02*
X120892860Y-119965057D01*
X120892860Y-119965057D02*
X121044646Y-119893628D01*
X121044646Y-119893628D02*
X121258931Y-119893628D01*
X121258931Y-119893628D02*
X121392860Y-119965057D01*
X121392860Y-119965057D02*
X121446431Y-120107914D01*
X121446431Y-120107914D02*
X121348217Y-120893628D01*
X122062503Y-120893628D02*
X122187503Y-119893628D01*
X122250003Y-119393628D02*
X122169646Y-119465057D01*
X122169646Y-119465057D02*
X122232146Y-119536485D01*
X122232146Y-119536485D02*
X122312503Y-119465057D01*
X122312503Y-119465057D02*
X122250003Y-119393628D01*
X122250003Y-119393628D02*
X122232146Y-119536485D01*
X123428575Y-120822200D02*
X123276789Y-120893628D01*
X123276789Y-120893628D02*
X122991075Y-120893628D01*
X122991075Y-120893628D02*
X122857146Y-120822200D01*
X122857146Y-120822200D02*
X122794646Y-120750771D01*
X122794646Y-120750771D02*
X122741075Y-120607914D01*
X122741075Y-120607914D02*
X122794646Y-120179342D01*
X122794646Y-120179342D02*
X122883932Y-120036485D01*
X122883932Y-120036485D02*
X122964289Y-119965057D01*
X122964289Y-119965057D02*
X123116075Y-119893628D01*
X123116075Y-119893628D02*
X123401789Y-119893628D01*
X123401789Y-119893628D02*
X123535717Y-119965057D01*
X124705360Y-120893628D02*
X124803574Y-120107914D01*
X124803574Y-120107914D02*
X124750003Y-119965057D01*
X124750003Y-119965057D02*
X124616074Y-119893628D01*
X124616074Y-119893628D02*
X124330360Y-119893628D01*
X124330360Y-119893628D02*
X124178574Y-119965057D01*
X124714289Y-120822200D02*
X124562503Y-120893628D01*
X124562503Y-120893628D02*
X124205360Y-120893628D01*
X124205360Y-120893628D02*
X124071431Y-120822200D01*
X124071431Y-120822200D02*
X124017860Y-120679342D01*
X124017860Y-120679342D02*
X124035717Y-120536485D01*
X124035717Y-120536485D02*
X124125003Y-120393628D01*
X124125003Y-120393628D02*
X124276789Y-120322200D01*
X124276789Y-120322200D02*
X124633931Y-120322200D01*
X124633931Y-120322200D02*
X124785717Y-120250771D01*
X125633932Y-120893628D02*
X125500003Y-120822200D01*
X125500003Y-120822200D02*
X125446432Y-120679342D01*
X125446432Y-120679342D02*
X125607146Y-119393628D01*
X126223217Y-120750771D02*
X126285717Y-120822200D01*
X126285717Y-120822200D02*
X126205360Y-120893628D01*
X126205360Y-120893628D02*
X126142860Y-120822200D01*
X126142860Y-120822200D02*
X126223217Y-120750771D01*
X126223217Y-120750771D02*
X126205360Y-120893628D01*
X127044646Y-119893628D02*
X126857146Y-121393628D01*
X127035717Y-119965057D02*
X127187503Y-119893628D01*
X127187503Y-119893628D02*
X127473217Y-119893628D01*
X127473217Y-119893628D02*
X127607146Y-119965057D01*
X127607146Y-119965057D02*
X127669646Y-120036485D01*
X127669646Y-120036485D02*
X127723217Y-120179342D01*
X127723217Y-120179342D02*
X127669646Y-120607914D01*
X127669646Y-120607914D02*
X127580360Y-120750771D01*
X127580360Y-120750771D02*
X127500003Y-120822200D01*
X127500003Y-120822200D02*
X127348217Y-120893628D01*
X127348217Y-120893628D02*
X127062503Y-120893628D01*
X127062503Y-120893628D02*
X126928574Y-120822200D01*
X128919646Y-120893628D02*
X129107146Y-119393628D01*
X128928575Y-120822200D02*
X128776789Y-120893628D01*
X128776789Y-120893628D02*
X128491075Y-120893628D01*
X128491075Y-120893628D02*
X128357146Y-120822200D01*
X128357146Y-120822200D02*
X128294646Y-120750771D01*
X128294646Y-120750771D02*
X128241075Y-120607914D01*
X128241075Y-120607914D02*
X128294646Y-120179342D01*
X128294646Y-120179342D02*
X128383932Y-120036485D01*
X128383932Y-120036485D02*
X128464289Y-119965057D01*
X128464289Y-119965057D02*
X128616075Y-119893628D01*
X128616075Y-119893628D02*
X128901789Y-119893628D01*
X128901789Y-119893628D02*
X129035717Y-119965057D01*
X129544646Y-119893628D02*
X130116075Y-119893628D01*
X129633932Y-120893628D02*
X129794646Y-119607914D01*
X129794646Y-119607914D02*
X129883932Y-119465057D01*
X129883932Y-119465057D02*
X130035718Y-119393628D01*
X130035718Y-119393628D02*
X130178575Y-119393628D01*
M02*
