%TF.GenerationSoftware,KiCad,Pcbnew,8.0.4+1*%
%TF.CreationDate,2024-10-16T11:13:56+00:00*%
%TF.ProjectId,pedalboard-soundcard,70656461-6c62-46f6-9172-642d736f756e,0.0.1*%
%TF.SameCoordinates,Original*%
%TF.FileFunction,Drillmap*%
%TF.FilePolarity,Positive*%
%FSLAX45Y45*%
G04 Gerber Fmt 4.5, Leading zero omitted, Abs format (unit mm)*
G04 Created by KiCad (PCBNEW 8.0.4+1) date 2024-10-16 11:13:56*
%MOMM*%
%LPD*%
G01*
G04 APERTURE LIST*
%ADD10C,0.100000*%
%ADD11C,0.120000*%
%ADD12C,0.200000*%
%ADD13C,0.101600*%
G04 APERTURE END LIST*
D10*
X5150000Y-10850000D02*
G75*
G02*
X4850000Y-10550000I0J300000D01*
G01*
X11350000Y-10550000D02*
G75*
G02*
X11050000Y-10850000I-300000J0D01*
G01*
X4950000Y-7200000D02*
G75*
G02*
X4850000Y-7100000I0J100000D01*
G01*
X5250000Y-7200000D02*
G75*
G02*
X5350000Y-7300000I0J-100000D01*
G01*
X5350000Y-8800000D02*
G75*
G02*
X5250000Y-8900000I-100000J0D01*
G01*
X4850000Y-9000000D02*
G75*
G02*
X4950000Y-8900000I100000J0D01*
G01*
X4850000Y-5550000D02*
G75*
G02*
X5150000Y-5250000I300000J0D01*
G01*
X5150000Y-5250000D02*
X11050000Y-5250000D01*
X11050000Y-5250000D02*
G75*
G02*
X11350000Y-5550000I0J-300000D01*
G01*
X7244000Y-10850000D02*
X7860000Y-10850000D01*
X4850000Y-5550000D02*
X4850000Y-7100000D01*
X5350000Y-7300000D02*
X5350000Y-8800000D01*
X4950000Y-7200000D02*
X5250000Y-7200000D01*
X4850000Y-9000000D02*
X4850000Y-10550000D01*
X5150000Y-10850000D02*
X5944000Y-10850000D01*
X9160000Y-10850000D02*
X11050000Y-10850000D01*
X11350000Y-5550000D02*
X11350000Y-10550000D01*
X4950000Y-8900000D02*
X5250000Y-8900000D01*
D11*
X6374000Y-10750000D02*
X6374000Y-10850000D01*
X6374000Y-10850000D02*
X5944000Y-10850000D01*
X6774000Y-10710000D02*
X6414000Y-10710000D01*
X6814000Y-10750000D02*
X6814000Y-10850000D01*
X6814000Y-10850000D02*
X7244000Y-10850000D01*
X6374000Y-10750000D02*
G75*
G02*
X6414000Y-10710000I40000J0D01*
G01*
X6774000Y-10710000D02*
G75*
G02*
X6814000Y-10750000I0J-40000D01*
G01*
X8290000Y-10750000D02*
X8290000Y-10850000D01*
X8290000Y-10850000D02*
X7860000Y-10850000D01*
X8690000Y-10710000D02*
X8330000Y-10710000D01*
X8730000Y-10750000D02*
X8730000Y-10850000D01*
X8730000Y-10850000D02*
X9160000Y-10850000D01*
X8290000Y-10750000D02*
G75*
G02*
X8330000Y-10710000I40000J0D01*
G01*
X8690000Y-10710000D02*
G75*
G02*
X8730000Y-10750000I0J-40000D01*
G01*
D12*
D10*
X9280000Y-9032700D02*
X9310000Y-9062700D01*
X9310000Y-9032700D02*
X9280000Y-9062700D01*
X9280000Y-9119367D02*
X9310000Y-9149367D01*
X9310000Y-9119367D02*
X9280000Y-9149367D01*
X9280000Y-9206033D02*
X9310000Y-9236033D01*
X9310000Y-9206033D02*
X9280000Y-9236033D01*
X9280000Y-9292700D02*
X9310000Y-9322700D01*
X9310000Y-9292700D02*
X9280000Y-9322700D01*
X9366667Y-9032700D02*
X9396667Y-9062700D01*
X9396667Y-9032700D02*
X9366667Y-9062700D01*
X9366667Y-9119367D02*
X9396667Y-9149367D01*
X9396667Y-9119367D02*
X9366667Y-9149367D01*
X9366667Y-9206033D02*
X9396667Y-9236033D01*
X9396667Y-9206033D02*
X9366667Y-9236033D01*
X9366667Y-9292700D02*
X9396667Y-9322700D01*
X9396667Y-9292700D02*
X9366667Y-9322700D01*
X9453333Y-9032700D02*
X9483333Y-9062700D01*
X9483333Y-9032700D02*
X9453333Y-9062700D01*
X9453333Y-9119367D02*
X9483333Y-9149367D01*
X9483333Y-9119367D02*
X9453333Y-9149367D01*
X9453333Y-9206033D02*
X9483333Y-9236033D01*
X9483333Y-9206033D02*
X9453333Y-9236033D01*
X9453333Y-9292700D02*
X9483333Y-9322700D01*
X9483333Y-9292700D02*
X9453333Y-9322700D01*
X9540000Y-9032700D02*
X9570000Y-9062700D01*
X9570000Y-9032700D02*
X9540000Y-9062700D01*
X9540000Y-9119367D02*
X9570000Y-9149367D01*
X9570000Y-9119367D02*
X9540000Y-9149367D01*
X9540000Y-9206033D02*
X9570000Y-9236033D01*
X9570000Y-9206033D02*
X9540000Y-9236033D01*
X9540000Y-9292700D02*
X9570000Y-9322700D01*
X9570000Y-9292700D02*
X9540000Y-9322700D01*
X5457000Y-9512000D02*
G75*
G02*
X5417000Y-9512000I-20000J0D01*
G01*
X5417000Y-9512000D02*
G75*
G02*
X5457000Y-9512000I20000J0D01*
G01*
X5865000Y-9592000D02*
G75*
G02*
X5825000Y-9592000I-20000J0D01*
G01*
X5825000Y-9592000D02*
G75*
G02*
X5865000Y-9592000I20000J0D01*
G01*
X5962000Y-7699000D02*
G75*
G02*
X5922000Y-7699000I-20000J0D01*
G01*
X5922000Y-7699000D02*
G75*
G02*
X5962000Y-7699000I20000J0D01*
G01*
X6097500Y-7825000D02*
G75*
G02*
X6057500Y-7825000I-20000J0D01*
G01*
X6057500Y-7825000D02*
G75*
G02*
X6097500Y-7825000I20000J0D01*
G01*
X6099000Y-8254000D02*
G75*
G02*
X6059000Y-8254000I-20000J0D01*
G01*
X6059000Y-8254000D02*
G75*
G02*
X6099000Y-8254000I20000J0D01*
G01*
X6112000Y-6029050D02*
G75*
G02*
X6072000Y-6029050I-20000J0D01*
G01*
X6072000Y-6029050D02*
G75*
G02*
X6112000Y-6029050I20000J0D01*
G01*
X6154371Y-7661881D02*
G75*
G02*
X6114371Y-7661881I-20000J0D01*
G01*
X6114371Y-7661881D02*
G75*
G02*
X6154371Y-7661881I20000J0D01*
G01*
X6370000Y-8250000D02*
G75*
G02*
X6330000Y-8250000I-20000J0D01*
G01*
X6330000Y-8250000D02*
G75*
G02*
X6370000Y-8250000I20000J0D01*
G01*
X6412000Y-7968000D02*
G75*
G02*
X6372000Y-7968000I-20000J0D01*
G01*
X6372000Y-7968000D02*
G75*
G02*
X6412000Y-7968000I20000J0D01*
G01*
X6451000Y-7364000D02*
G75*
G02*
X6411000Y-7364000I-20000J0D01*
G01*
X6411000Y-7364000D02*
G75*
G02*
X6451000Y-7364000I20000J0D01*
G01*
X6511965Y-8039035D02*
G75*
G02*
X6471965Y-8039035I-20000J0D01*
G01*
X6471965Y-8039035D02*
G75*
G02*
X6511965Y-8039035I20000J0D01*
G01*
X6604472Y-8074450D02*
G75*
G02*
X6564472Y-8074450I-20000J0D01*
G01*
X6564472Y-8074450D02*
G75*
G02*
X6604472Y-8074450I20000J0D01*
G01*
X6649000Y-7370000D02*
G75*
G02*
X6609000Y-7370000I-20000J0D01*
G01*
X6609000Y-7370000D02*
G75*
G02*
X6649000Y-7370000I20000J0D01*
G01*
X6855050Y-7615000D02*
G75*
G02*
X6815050Y-7615000I-20000J0D01*
G01*
X6815050Y-7615000D02*
G75*
G02*
X6855050Y-7615000I20000J0D01*
G01*
X7182000Y-8610000D02*
G75*
G02*
X7142000Y-8610000I-20000J0D01*
G01*
X7142000Y-8610000D02*
G75*
G02*
X7182000Y-8610000I20000J0D01*
G01*
X7191000Y-7481000D02*
G75*
G02*
X7151000Y-7481000I-20000J0D01*
G01*
X7151000Y-7481000D02*
G75*
G02*
X7191000Y-7481000I20000J0D01*
G01*
X7191000Y-7835000D02*
G75*
G02*
X7151000Y-7835000I-20000J0D01*
G01*
X7151000Y-7835000D02*
G75*
G02*
X7191000Y-7835000I20000J0D01*
G01*
X7327000Y-9593000D02*
G75*
G02*
X7287000Y-9593000I-20000J0D01*
G01*
X7287000Y-9593000D02*
G75*
G02*
X7327000Y-9593000I20000J0D01*
G01*
X7397000Y-7447000D02*
G75*
G02*
X7357000Y-7447000I-20000J0D01*
G01*
X7357000Y-7447000D02*
G75*
G02*
X7397000Y-7447000I20000J0D01*
G01*
X7585000Y-8351000D02*
G75*
G02*
X7545000Y-8351000I-20000J0D01*
G01*
X7545000Y-8351000D02*
G75*
G02*
X7585000Y-8351000I20000J0D01*
G01*
X7682000Y-8553000D02*
G75*
G02*
X7642000Y-8553000I-20000J0D01*
G01*
X7642000Y-8553000D02*
G75*
G02*
X7682000Y-8553000I20000J0D01*
G01*
X7731000Y-9507000D02*
G75*
G02*
X7691000Y-9507000I-20000J0D01*
G01*
X7691000Y-9507000D02*
G75*
G02*
X7731000Y-9507000I20000J0D01*
G01*
X8233000Y-8547000D02*
G75*
G02*
X8193000Y-8547000I-20000J0D01*
G01*
X8193000Y-8547000D02*
G75*
G02*
X8233000Y-8547000I20000J0D01*
G01*
X8273000Y-7269000D02*
G75*
G02*
X8233000Y-7269000I-20000J0D01*
G01*
X8233000Y-7269000D02*
G75*
G02*
X8273000Y-7269000I20000J0D01*
G01*
X8282500Y-7757500D02*
G75*
G02*
X8242500Y-7757500I-20000J0D01*
G01*
X8242500Y-7757500D02*
G75*
G02*
X8282500Y-7757500I20000J0D01*
G01*
X8283000Y-8261000D02*
G75*
G02*
X8243000Y-8261000I-20000J0D01*
G01*
X8243000Y-8261000D02*
G75*
G02*
X8283000Y-8261000I20000J0D01*
G01*
X8304000Y-6115000D02*
G75*
G02*
X8264000Y-6115000I-20000J0D01*
G01*
X8264000Y-6115000D02*
G75*
G02*
X8304000Y-6115000I20000J0D01*
G01*
X8444000Y-7236000D02*
G75*
G02*
X8404000Y-7236000I-20000J0D01*
G01*
X8404000Y-7236000D02*
G75*
G02*
X8444000Y-7236000I20000J0D01*
G01*
X8558000Y-5997000D02*
G75*
G02*
X8518000Y-5997000I-20000J0D01*
G01*
X8518000Y-5997000D02*
G75*
G02*
X8558000Y-5997000I20000J0D01*
G01*
X8723000Y-7760000D02*
G75*
G02*
X8683000Y-7760000I-20000J0D01*
G01*
X8683000Y-7760000D02*
G75*
G02*
X8723000Y-7760000I20000J0D01*
G01*
X8732000Y-6444000D02*
G75*
G02*
X8692000Y-6444000I-20000J0D01*
G01*
X8692000Y-6444000D02*
G75*
G02*
X8732000Y-6444000I20000J0D01*
G01*
X8778818Y-8153500D02*
G75*
G02*
X8738818Y-8153500I-20000J0D01*
G01*
X8738818Y-8153500D02*
G75*
G02*
X8778818Y-8153500I20000J0D01*
G01*
X8800000Y-8448000D02*
G75*
G02*
X8760000Y-8448000I-20000J0D01*
G01*
X8760000Y-8448000D02*
G75*
G02*
X8800000Y-8448000I20000J0D01*
G01*
X8844000Y-8219000D02*
G75*
G02*
X8804000Y-8219000I-20000J0D01*
G01*
X8804000Y-8219000D02*
G75*
G02*
X8844000Y-8219000I20000J0D01*
G01*
X8897000Y-7260000D02*
G75*
G02*
X8857000Y-7260000I-20000J0D01*
G01*
X8857000Y-7260000D02*
G75*
G02*
X8897000Y-7260000I20000J0D01*
G01*
X8965000Y-8887000D02*
G75*
G02*
X8925000Y-8887000I-20000J0D01*
G01*
X8925000Y-8887000D02*
G75*
G02*
X8965000Y-8887000I20000J0D01*
G01*
X9098000Y-9168000D02*
G75*
G02*
X9058000Y-9168000I-20000J0D01*
G01*
X9058000Y-9168000D02*
G75*
G02*
X9098000Y-9168000I20000J0D01*
G01*
X9104000Y-7754000D02*
G75*
G02*
X9064000Y-7754000I-20000J0D01*
G01*
X9064000Y-7754000D02*
G75*
G02*
X9104000Y-7754000I20000J0D01*
G01*
X9135000Y-6060000D02*
G75*
G02*
X9095000Y-6060000I-20000J0D01*
G01*
X9095000Y-6060000D02*
G75*
G02*
X9135000Y-6060000I20000J0D01*
G01*
X9163000Y-9399000D02*
G75*
G02*
X9123000Y-9399000I-20000J0D01*
G01*
X9123000Y-9399000D02*
G75*
G02*
X9163000Y-9399000I20000J0D01*
G01*
X9210138Y-8868862D02*
G75*
G02*
X9170138Y-8868862I-20000J0D01*
G01*
X9170138Y-8868862D02*
G75*
G02*
X9210138Y-8868862I20000J0D01*
G01*
X9270000Y-9707000D02*
G75*
G02*
X9230000Y-9707000I-20000J0D01*
G01*
X9230000Y-9707000D02*
G75*
G02*
X9270000Y-9707000I20000J0D01*
G01*
X9270000Y-10033000D02*
G75*
G02*
X9230000Y-10033000I-20000J0D01*
G01*
X9230000Y-10033000D02*
G75*
G02*
X9270000Y-10033000I20000J0D01*
G01*
X9276000Y-8589000D02*
G75*
G02*
X9236000Y-8589000I-20000J0D01*
G01*
X9236000Y-8589000D02*
G75*
G02*
X9276000Y-8589000I20000J0D01*
G01*
X9467000Y-10029000D02*
G75*
G02*
X9427000Y-10029000I-20000J0D01*
G01*
X9427000Y-10029000D02*
G75*
G02*
X9467000Y-10029000I20000J0D01*
G01*
X9701000Y-10023000D02*
G75*
G02*
X9661000Y-10023000I-20000J0D01*
G01*
X9661000Y-10023000D02*
G75*
G02*
X9701000Y-10023000I20000J0D01*
G01*
X10014000Y-6278000D02*
G75*
G02*
X9974000Y-6278000I-20000J0D01*
G01*
X9974000Y-6278000D02*
G75*
G02*
X10014000Y-6278000I20000J0D01*
G01*
X10095000Y-8649000D02*
G75*
G02*
X10055000Y-8649000I-20000J0D01*
G01*
X10055000Y-8649000D02*
G75*
G02*
X10095000Y-8649000I20000J0D01*
G01*
X10095000Y-8844000D02*
G75*
G02*
X10055000Y-8844000I-20000J0D01*
G01*
X10055000Y-8844000D02*
G75*
G02*
X10095000Y-8844000I20000J0D01*
G01*
X10095000Y-9041000D02*
G75*
G02*
X10055000Y-9041000I-20000J0D01*
G01*
X10055000Y-9041000D02*
G75*
G02*
X10095000Y-9041000I20000J0D01*
G01*
X10110000Y-7996000D02*
G75*
G02*
X10070000Y-7996000I-20000J0D01*
G01*
X10070000Y-7996000D02*
G75*
G02*
X10110000Y-7996000I20000J0D01*
G01*
X10580000Y-8370000D02*
G75*
G02*
X10540000Y-8370000I-20000J0D01*
G01*
X10540000Y-8370000D02*
G75*
G02*
X10580000Y-8370000I20000J0D01*
G01*
X10620000Y-10060000D02*
G75*
G02*
X10580000Y-10060000I-20000J0D01*
G01*
X10580000Y-10060000D02*
G75*
G02*
X10620000Y-10060000I20000J0D01*
G01*
X6094000Y-9880000D02*
X6094000Y-9920000D01*
X6074000Y-9900000D02*
X6114000Y-9900000D01*
X6074000Y-9850000D02*
X6074000Y-9950000D01*
X6114000Y-9950000D02*
G75*
G02*
X6074000Y-9950000I-20000J0D01*
G01*
X6114000Y-9950000D02*
X6114000Y-9850000D01*
X6114000Y-9850000D02*
G75*
G03*
X6074000Y-9850000I-20000J0D01*
G01*
X6594000Y-10380000D02*
X6594000Y-10420000D01*
X6574000Y-10400000D02*
X6614000Y-10400000D01*
X6544000Y-10420000D02*
X6644000Y-10420000D01*
X6644000Y-10380000D02*
G75*
G02*
X6644000Y-10420000I0J-20000D01*
G01*
X6644000Y-10380000D02*
X6544000Y-10380000D01*
X6544000Y-10380000D02*
G75*
G03*
X6544000Y-10420000I0J-20000D01*
G01*
X7094000Y-9880000D02*
X7094000Y-9920000D01*
X7074000Y-9900000D02*
X7114000Y-9900000D01*
X7114000Y-9950000D02*
X7114000Y-9850000D01*
X7074000Y-9850000D02*
G75*
G02*
X7114000Y-9850000I20000J0D01*
G01*
X7074000Y-9850000D02*
X7074000Y-9950000D01*
X7074000Y-9950000D02*
G75*
G03*
X7114000Y-9950000I20000J0D01*
G01*
X8010000Y-9880000D02*
X8010000Y-9920000D01*
X7990000Y-9900000D02*
X8030000Y-9900000D01*
X7990000Y-9850000D02*
X7990000Y-9950000D01*
X8030000Y-9950000D02*
G75*
G02*
X7990000Y-9950000I-20000J0D01*
G01*
X8030000Y-9950000D02*
X8030000Y-9850000D01*
X8030000Y-9850000D02*
G75*
G03*
X7990000Y-9850000I-20000J0D01*
G01*
X8510000Y-10380000D02*
X8510000Y-10420000D01*
X8490000Y-10400000D02*
X8530000Y-10400000D01*
X8460000Y-10420000D02*
X8560000Y-10420000D01*
X8560000Y-10380000D02*
G75*
G02*
X8560000Y-10420000I0J-20000D01*
G01*
X8560000Y-10380000D02*
X8460000Y-10380000D01*
X8460000Y-10380000D02*
G75*
G03*
X8460000Y-10420000I0J-20000D01*
G01*
X9010000Y-9880000D02*
X9010000Y-9920000D01*
X8990000Y-9900000D02*
X9030000Y-9900000D01*
X9030000Y-9950000D02*
X9030000Y-9850000D01*
X8990000Y-9850000D02*
G75*
G02*
X9030000Y-9850000I20000J0D01*
G01*
X8990000Y-9850000D02*
X8990000Y-9950000D01*
X8990000Y-9950000D02*
G75*
G03*
X9030000Y-9950000I20000J0D01*
G01*
X5630713Y-5974713D02*
X5630713Y-5932287D01*
X5588287Y-5932287D01*
X5588287Y-5974713D01*
X5630713Y-5974713D01*
X6861213Y-7166213D02*
X6861213Y-7123787D01*
X6818787Y-7123787D01*
X6818787Y-7166213D01*
X6861213Y-7166213D01*
X6976163Y-6566213D02*
X6976163Y-6523787D01*
X6933737Y-6523787D01*
X6933737Y-6566213D01*
X6976163Y-6566213D01*
X7704213Y-7594213D02*
X7704213Y-7551787D01*
X7661787Y-7551787D01*
X7661787Y-7594213D01*
X7704213Y-7594213D01*
X8093213Y-7988213D02*
X8093213Y-7945787D01*
X8050787Y-7945787D01*
X8050787Y-7988213D01*
X8093213Y-7988213D01*
X8718213Y-7988213D02*
X8718213Y-7945787D01*
X8675787Y-7945787D01*
X8675787Y-7988213D01*
X8718213Y-7988213D01*
X9794713Y-7953713D02*
X9794713Y-7911287D01*
X9752287Y-7911287D01*
X9752287Y-7953713D01*
X9794713Y-7953713D01*
X6344000Y-9940000D02*
X6384000Y-9900000D01*
X6344000Y-9860000D01*
X6304000Y-9900000D01*
X6344000Y-9940000D01*
X6304000Y-9865000D02*
X6304000Y-9935000D01*
X6384000Y-9935000D02*
G75*
G02*
X6304000Y-9935000I-40000J0D01*
G01*
X6384000Y-9935000D02*
X6384000Y-9865000D01*
X6384000Y-9865000D02*
G75*
G03*
X6304000Y-9865000I-40000J0D01*
G01*
X6844000Y-9940000D02*
X6884000Y-9900000D01*
X6844000Y-9860000D01*
X6804000Y-9900000D01*
X6844000Y-9940000D01*
X6884000Y-9935000D02*
X6884000Y-9865000D01*
X6804000Y-9865000D02*
G75*
G02*
X6884000Y-9865000I40000J0D01*
G01*
X6804000Y-9865000D02*
X6804000Y-9935000D01*
X6804000Y-9935000D02*
G75*
G03*
X6884000Y-9935000I40000J0D01*
G01*
X8260000Y-9940000D02*
X8300000Y-9900000D01*
X8260000Y-9860000D01*
X8220000Y-9900000D01*
X8260000Y-9940000D01*
X8220000Y-9865000D02*
X8220000Y-9935000D01*
X8300000Y-9935000D02*
G75*
G02*
X8220000Y-9935000I-40000J0D01*
G01*
X8300000Y-9935000D02*
X8300000Y-9865000D01*
X8300000Y-9865000D02*
G75*
G03*
X8220000Y-9865000I-40000J0D01*
G01*
X8760000Y-9940000D02*
X8800000Y-9900000D01*
X8760000Y-9860000D01*
X8720000Y-9900000D01*
X8760000Y-9940000D01*
X8800000Y-9935000D02*
X8800000Y-9865000D01*
X8720000Y-9865000D02*
G75*
G02*
X8800000Y-9865000I40000J0D01*
G01*
X8720000Y-9865000D02*
X8720000Y-9935000D01*
X8720000Y-9935000D02*
G75*
G03*
X8800000Y-9935000I40000J0D01*
G01*
X6284000Y-9054000D02*
X6384000Y-9154000D01*
X6384000Y-9054000D02*
X6284000Y-9154000D01*
X6384000Y-9104000D02*
G75*
G02*
X6284000Y-9104000I-50000J0D01*
G01*
X6284000Y-9104000D02*
G75*
G02*
X6384000Y-9104000I50000J0D01*
G01*
X6284000Y-9308000D02*
X6384000Y-9408000D01*
X6384000Y-9308000D02*
X6284000Y-9408000D01*
X6384000Y-9358000D02*
G75*
G02*
X6284000Y-9358000I-50000J0D01*
G01*
X6284000Y-9358000D02*
G75*
G02*
X6384000Y-9358000I50000J0D01*
G01*
X6538000Y-9054000D02*
X6638000Y-9154000D01*
X6638000Y-9054000D02*
X6538000Y-9154000D01*
X6638000Y-9104000D02*
G75*
G02*
X6538000Y-9104000I-50000J0D01*
G01*
X6538000Y-9104000D02*
G75*
G02*
X6638000Y-9104000I50000J0D01*
G01*
X6538000Y-9308000D02*
X6638000Y-9408000D01*
X6638000Y-9308000D02*
X6538000Y-9408000D01*
X6638000Y-9358000D02*
G75*
G02*
X6538000Y-9358000I-50000J0D01*
G01*
X6538000Y-9358000D02*
G75*
G02*
X6638000Y-9358000I50000J0D01*
G01*
X6792000Y-9054000D02*
X6892000Y-9154000D01*
X6892000Y-9054000D02*
X6792000Y-9154000D01*
X6892000Y-9104000D02*
G75*
G02*
X6792000Y-9104000I-50000J0D01*
G01*
X6792000Y-9104000D02*
G75*
G02*
X6892000Y-9104000I50000J0D01*
G01*
X6792000Y-9308000D02*
X6892000Y-9408000D01*
X6892000Y-9308000D02*
X6792000Y-9408000D01*
X6892000Y-9358000D02*
G75*
G02*
X6792000Y-9358000I-50000J0D01*
G01*
X6792000Y-9358000D02*
G75*
G02*
X6892000Y-9358000I50000J0D01*
G01*
X10715000Y-8890000D02*
X10815000Y-8990000D01*
X10815000Y-8890000D02*
X10715000Y-8990000D01*
X10815000Y-8940000D02*
G75*
G02*
X10715000Y-8940000I-50000J0D01*
G01*
X10715000Y-8940000D02*
G75*
G02*
X10815000Y-8940000I50000J0D01*
G01*
X10715000Y-9144000D02*
X10815000Y-9244000D01*
X10815000Y-9144000D02*
X10715000Y-9244000D01*
X10815000Y-9194000D02*
G75*
G02*
X10715000Y-9194000I-50000J0D01*
G01*
X10715000Y-9194000D02*
G75*
G02*
X10815000Y-9194000I50000J0D01*
G01*
X10715000Y-9398000D02*
X10815000Y-9498000D01*
X10815000Y-9398000D02*
X10715000Y-9498000D01*
X10815000Y-9448000D02*
G75*
G02*
X10715000Y-9448000I-50000J0D01*
G01*
X10715000Y-9448000D02*
G75*
G02*
X10815000Y-9448000I50000J0D01*
G01*
X10969000Y-8890000D02*
X11069000Y-8990000D01*
X11069000Y-8890000D02*
X10969000Y-8990000D01*
X11069000Y-8940000D02*
G75*
G02*
X10969000Y-8940000I-50000J0D01*
G01*
X10969000Y-8940000D02*
G75*
G02*
X11069000Y-8940000I50000J0D01*
G01*
X10969000Y-9144000D02*
X11069000Y-9244000D01*
X11069000Y-9144000D02*
X10969000Y-9244000D01*
X11069000Y-9194000D02*
G75*
G02*
X10969000Y-9194000I-50000J0D01*
G01*
X10969000Y-9194000D02*
G75*
G02*
X11069000Y-9194000I50000J0D01*
G01*
X10969000Y-9398000D02*
X11069000Y-9498000D01*
X11069000Y-9398000D02*
X10969000Y-9498000D01*
X11069000Y-9448000D02*
G75*
G02*
X10969000Y-9448000I-50000J0D01*
G01*
X10969000Y-9448000D02*
G75*
G02*
X11069000Y-9448000I50000J0D01*
G01*
D13*
X5636200Y-5422200D02*
X5737800Y-5523800D01*
X5737800Y-5422200D02*
X5636200Y-5523800D01*
X5687000Y-5422200D02*
X5687000Y-5523800D01*
X5636200Y-5473000D02*
X5737800Y-5473000D01*
X5636200Y-5676200D02*
X5737800Y-5777800D01*
X5737800Y-5676200D02*
X5636200Y-5777800D01*
X5687000Y-5676200D02*
X5687000Y-5777800D01*
X5636200Y-5727000D02*
X5737800Y-5727000D01*
X5890200Y-5422200D02*
X5991800Y-5523800D01*
X5991800Y-5422200D02*
X5890200Y-5523800D01*
X5941000Y-5422200D02*
X5941000Y-5523800D01*
X5890200Y-5473000D02*
X5991800Y-5473000D01*
X5890200Y-5676200D02*
X5991800Y-5777800D01*
X5991800Y-5676200D02*
X5890200Y-5777800D01*
X5941000Y-5676200D02*
X5941000Y-5777800D01*
X5890200Y-5727000D02*
X5991800Y-5727000D01*
X6144200Y-5422200D02*
X6245800Y-5523800D01*
X6245800Y-5422200D02*
X6144200Y-5523800D01*
X6195000Y-5422200D02*
X6195000Y-5523800D01*
X6144200Y-5473000D02*
X6245800Y-5473000D01*
X6144200Y-5676200D02*
X6245800Y-5777800D01*
X6245800Y-5676200D02*
X6144200Y-5777800D01*
X6195000Y-5676200D02*
X6195000Y-5777800D01*
X6144200Y-5727000D02*
X6245800Y-5727000D01*
X6398200Y-5422200D02*
X6499800Y-5523800D01*
X6499800Y-5422200D02*
X6398200Y-5523800D01*
X6449000Y-5422200D02*
X6449000Y-5523800D01*
X6398200Y-5473000D02*
X6499800Y-5473000D01*
X6398200Y-5676200D02*
X6499800Y-5777800D01*
X6499800Y-5676200D02*
X6398200Y-5777800D01*
X6449000Y-5676200D02*
X6449000Y-5777800D01*
X6398200Y-5727000D02*
X6499800Y-5727000D01*
X6652200Y-5422200D02*
X6753800Y-5523800D01*
X6753800Y-5422200D02*
X6652200Y-5523800D01*
X6703000Y-5422200D02*
X6703000Y-5523800D01*
X6652200Y-5473000D02*
X6753800Y-5473000D01*
X6652200Y-5676200D02*
X6753800Y-5777800D01*
X6753800Y-5676200D02*
X6652200Y-5777800D01*
X6703000Y-5676200D02*
X6703000Y-5777800D01*
X6652200Y-5727000D02*
X6753800Y-5727000D01*
X6906200Y-5422200D02*
X7007800Y-5523800D01*
X7007800Y-5422200D02*
X6906200Y-5523800D01*
X6957000Y-5422200D02*
X6957000Y-5523800D01*
X6906200Y-5473000D02*
X7007800Y-5473000D01*
X6906200Y-5676200D02*
X7007800Y-5777800D01*
X7007800Y-5676200D02*
X6906200Y-5777800D01*
X6957000Y-5676200D02*
X6957000Y-5777800D01*
X6906200Y-5727000D02*
X7007800Y-5727000D01*
X7160200Y-5422200D02*
X7261800Y-5523800D01*
X7261800Y-5422200D02*
X7160200Y-5523800D01*
X7211000Y-5422200D02*
X7211000Y-5523800D01*
X7160200Y-5473000D02*
X7261800Y-5473000D01*
X7160200Y-5676200D02*
X7261800Y-5777800D01*
X7261800Y-5676200D02*
X7160200Y-5777800D01*
X7211000Y-5676200D02*
X7211000Y-5777800D01*
X7160200Y-5727000D02*
X7261800Y-5727000D01*
X7414200Y-5422200D02*
X7515800Y-5523800D01*
X7515800Y-5422200D02*
X7414200Y-5523800D01*
X7465000Y-5422200D02*
X7465000Y-5523800D01*
X7414200Y-5473000D02*
X7515800Y-5473000D01*
X7414200Y-5676200D02*
X7515800Y-5777800D01*
X7515800Y-5676200D02*
X7414200Y-5777800D01*
X7465000Y-5676200D02*
X7465000Y-5777800D01*
X7414200Y-5727000D02*
X7515800Y-5727000D01*
X7668200Y-5422200D02*
X7769800Y-5523800D01*
X7769800Y-5422200D02*
X7668200Y-5523800D01*
X7719000Y-5422200D02*
X7719000Y-5523800D01*
X7668200Y-5473000D02*
X7769800Y-5473000D01*
X7668200Y-5676200D02*
X7769800Y-5777800D01*
X7769800Y-5676200D02*
X7668200Y-5777800D01*
X7719000Y-5676200D02*
X7719000Y-5777800D01*
X7668200Y-5727000D02*
X7769800Y-5727000D01*
X7922200Y-5422200D02*
X8023800Y-5523800D01*
X8023800Y-5422200D02*
X7922200Y-5523800D01*
X7973000Y-5422200D02*
X7973000Y-5523800D01*
X7922200Y-5473000D02*
X8023800Y-5473000D01*
X7922200Y-5676200D02*
X8023800Y-5777800D01*
X8023800Y-5676200D02*
X7922200Y-5777800D01*
X7973000Y-5676200D02*
X7973000Y-5777800D01*
X7922200Y-5727000D02*
X8023800Y-5727000D01*
X8176200Y-5422200D02*
X8277800Y-5523800D01*
X8277800Y-5422200D02*
X8176200Y-5523800D01*
X8227000Y-5422200D02*
X8227000Y-5523800D01*
X8176200Y-5473000D02*
X8277800Y-5473000D01*
X8176200Y-5676200D02*
X8277800Y-5777800D01*
X8277800Y-5676200D02*
X8176200Y-5777800D01*
X8227000Y-5676200D02*
X8227000Y-5777800D01*
X8176200Y-5727000D02*
X8277800Y-5727000D01*
X8430200Y-5422200D02*
X8531800Y-5523800D01*
X8531800Y-5422200D02*
X8430200Y-5523800D01*
X8481000Y-5422200D02*
X8481000Y-5523800D01*
X8430200Y-5473000D02*
X8531800Y-5473000D01*
X8430200Y-5676200D02*
X8531800Y-5777800D01*
X8531800Y-5676200D02*
X8430200Y-5777800D01*
X8481000Y-5676200D02*
X8481000Y-5777800D01*
X8430200Y-5727000D02*
X8531800Y-5727000D01*
X8684200Y-5422200D02*
X8785800Y-5523800D01*
X8785800Y-5422200D02*
X8684200Y-5523800D01*
X8735000Y-5422200D02*
X8735000Y-5523800D01*
X8684200Y-5473000D02*
X8785800Y-5473000D01*
X8684200Y-5676200D02*
X8785800Y-5777800D01*
X8785800Y-5676200D02*
X8684200Y-5777800D01*
X8735000Y-5676200D02*
X8735000Y-5777800D01*
X8684200Y-5727000D02*
X8785800Y-5727000D01*
X8938200Y-5422200D02*
X9039800Y-5523800D01*
X9039800Y-5422200D02*
X8938200Y-5523800D01*
X8989000Y-5422200D02*
X8989000Y-5523800D01*
X8938200Y-5473000D02*
X9039800Y-5473000D01*
X8938200Y-5676200D02*
X9039800Y-5777800D01*
X9039800Y-5676200D02*
X8938200Y-5777800D01*
X8989000Y-5676200D02*
X8989000Y-5777800D01*
X8938200Y-5727000D02*
X9039800Y-5727000D01*
X9192200Y-5422200D02*
X9293800Y-5523800D01*
X9293800Y-5422200D02*
X9192200Y-5523800D01*
X9243000Y-5422200D02*
X9243000Y-5523800D01*
X9192200Y-5473000D02*
X9293800Y-5473000D01*
X9192200Y-5676200D02*
X9293800Y-5777800D01*
X9293800Y-5676200D02*
X9192200Y-5777800D01*
X9243000Y-5676200D02*
X9243000Y-5777800D01*
X9192200Y-5727000D02*
X9293800Y-5727000D01*
X9446200Y-5422200D02*
X9547800Y-5523800D01*
X9547800Y-5422200D02*
X9446200Y-5523800D01*
X9497000Y-5422200D02*
X9497000Y-5523800D01*
X9446200Y-5473000D02*
X9547800Y-5473000D01*
X9446200Y-5676200D02*
X9547800Y-5777800D01*
X9547800Y-5676200D02*
X9446200Y-5777800D01*
X9497000Y-5676200D02*
X9497000Y-5777800D01*
X9446200Y-5727000D02*
X9547800Y-5727000D01*
X9700200Y-5422200D02*
X9801800Y-5523800D01*
X9801800Y-5422200D02*
X9700200Y-5523800D01*
X9751000Y-5422200D02*
X9751000Y-5523800D01*
X9700200Y-5473000D02*
X9801800Y-5473000D01*
X9700200Y-5676200D02*
X9801800Y-5777800D01*
X9801800Y-5676200D02*
X9700200Y-5777800D01*
X9751000Y-5676200D02*
X9751000Y-5777800D01*
X9700200Y-5727000D02*
X9801800Y-5727000D01*
X9954200Y-5422200D02*
X10055800Y-5523800D01*
X10055800Y-5422200D02*
X9954200Y-5523800D01*
X10005000Y-5422200D02*
X10005000Y-5523800D01*
X9954200Y-5473000D02*
X10055800Y-5473000D01*
X9954200Y-5676200D02*
X10055800Y-5777800D01*
X10055800Y-5676200D02*
X9954200Y-5777800D01*
X10005000Y-5676200D02*
X10005000Y-5777800D01*
X9954200Y-5727000D02*
X10055800Y-5727000D01*
X10208200Y-5422200D02*
X10309800Y-5523800D01*
X10309800Y-5422200D02*
X10208200Y-5523800D01*
X10259000Y-5422200D02*
X10259000Y-5523800D01*
X10208200Y-5473000D02*
X10309800Y-5473000D01*
X10208200Y-5676200D02*
X10309800Y-5777800D01*
X10309800Y-5676200D02*
X10208200Y-5777800D01*
X10259000Y-5676200D02*
X10259000Y-5777800D01*
X10208200Y-5727000D02*
X10309800Y-5727000D01*
X10462200Y-5422200D02*
X10563800Y-5523800D01*
X10563800Y-5422200D02*
X10462200Y-5523800D01*
X10513000Y-5422200D02*
X10513000Y-5523800D01*
X10462200Y-5473000D02*
X10563800Y-5473000D01*
X10462200Y-5676200D02*
X10563800Y-5777800D01*
X10563800Y-5676200D02*
X10462200Y-5777800D01*
X10513000Y-5676200D02*
X10513000Y-5777800D01*
X10462200Y-5727000D02*
X10563800Y-5727000D01*
D12*
X5105777Y-11167484D02*
X5105777Y-10967484D01*
X5105777Y-10967484D02*
X5153396Y-10967484D01*
X5153396Y-10967484D02*
X5181967Y-10977008D01*
X5181967Y-10977008D02*
X5201015Y-10996055D01*
X5201015Y-10996055D02*
X5210539Y-11015103D01*
X5210539Y-11015103D02*
X5220063Y-11053198D01*
X5220063Y-11053198D02*
X5220063Y-11081770D01*
X5220063Y-11081770D02*
X5210539Y-11119865D01*
X5210539Y-11119865D02*
X5201015Y-11138912D01*
X5201015Y-11138912D02*
X5181967Y-11157960D01*
X5181967Y-11157960D02*
X5153396Y-11167484D01*
X5153396Y-11167484D02*
X5105777Y-11167484D01*
X5305777Y-11167484D02*
X5305777Y-11034150D01*
X5305777Y-11072246D02*
X5315301Y-11053198D01*
X5315301Y-11053198D02*
X5324824Y-11043674D01*
X5324824Y-11043674D02*
X5343872Y-11034150D01*
X5343872Y-11034150D02*
X5362920Y-11034150D01*
X5429586Y-11167484D02*
X5429586Y-11034150D01*
X5429586Y-10967484D02*
X5420063Y-10977008D01*
X5420063Y-10977008D02*
X5429586Y-10986531D01*
X5429586Y-10986531D02*
X5439110Y-10977008D01*
X5439110Y-10977008D02*
X5429586Y-10967484D01*
X5429586Y-10967484D02*
X5429586Y-10986531D01*
X5553396Y-11167484D02*
X5534348Y-11157960D01*
X5534348Y-11157960D02*
X5524824Y-11138912D01*
X5524824Y-11138912D02*
X5524824Y-10967484D01*
X5658158Y-11167484D02*
X5639110Y-11157960D01*
X5639110Y-11157960D02*
X5629586Y-11138912D01*
X5629586Y-11138912D02*
X5629586Y-10967484D01*
X5886729Y-11167484D02*
X5886729Y-10967484D01*
X5886729Y-10967484D02*
X5953396Y-11110341D01*
X5953396Y-11110341D02*
X6020062Y-10967484D01*
X6020062Y-10967484D02*
X6020062Y-11167484D01*
X6201015Y-11167484D02*
X6201015Y-11062722D01*
X6201015Y-11062722D02*
X6191491Y-11043674D01*
X6191491Y-11043674D02*
X6172443Y-11034150D01*
X6172443Y-11034150D02*
X6134348Y-11034150D01*
X6134348Y-11034150D02*
X6115301Y-11043674D01*
X6201015Y-11157960D02*
X6181967Y-11167484D01*
X6181967Y-11167484D02*
X6134348Y-11167484D01*
X6134348Y-11167484D02*
X6115301Y-11157960D01*
X6115301Y-11157960D02*
X6105777Y-11138912D01*
X6105777Y-11138912D02*
X6105777Y-11119865D01*
X6105777Y-11119865D02*
X6115301Y-11100817D01*
X6115301Y-11100817D02*
X6134348Y-11091293D01*
X6134348Y-11091293D02*
X6181967Y-11091293D01*
X6181967Y-11091293D02*
X6201015Y-11081770D01*
X6296253Y-11034150D02*
X6296253Y-11234150D01*
X6296253Y-11043674D02*
X6315301Y-11034150D01*
X6315301Y-11034150D02*
X6353396Y-11034150D01*
X6353396Y-11034150D02*
X6372443Y-11043674D01*
X6372443Y-11043674D02*
X6381967Y-11053198D01*
X6381967Y-11053198D02*
X6391491Y-11072246D01*
X6391491Y-11072246D02*
X6391491Y-11129389D01*
X6391491Y-11129389D02*
X6381967Y-11148436D01*
X6381967Y-11148436D02*
X6372443Y-11157960D01*
X6372443Y-11157960D02*
X6353396Y-11167484D01*
X6353396Y-11167484D02*
X6315301Y-11167484D01*
X6315301Y-11167484D02*
X6296253Y-11157960D01*
X6477205Y-11148436D02*
X6486729Y-11157960D01*
X6486729Y-11157960D02*
X6477205Y-11167484D01*
X6477205Y-11167484D02*
X6467682Y-11157960D01*
X6467682Y-11157960D02*
X6477205Y-11148436D01*
X6477205Y-11148436D02*
X6477205Y-11167484D01*
X6477205Y-11043674D02*
X6486729Y-11053198D01*
X6486729Y-11053198D02*
X6477205Y-11062722D01*
X6477205Y-11062722D02*
X6467682Y-11053198D01*
X6467682Y-11053198D02*
X6477205Y-11043674D01*
X6477205Y-11043674D02*
X6477205Y-11062722D01*
D10*
X4815000Y-11481000D02*
X4845000Y-11511000D01*
X4845000Y-11481000D02*
X4815000Y-11511000D01*
D12*
X5143872Y-11387484D02*
X5162920Y-11387484D01*
X5162920Y-11387484D02*
X5181967Y-11397008D01*
X5181967Y-11397008D02*
X5191491Y-11406531D01*
X5191491Y-11406531D02*
X5201015Y-11425579D01*
X5201015Y-11425579D02*
X5210539Y-11463674D01*
X5210539Y-11463674D02*
X5210539Y-11511293D01*
X5210539Y-11511293D02*
X5201015Y-11549388D01*
X5201015Y-11549388D02*
X5191491Y-11568436D01*
X5191491Y-11568436D02*
X5181967Y-11577960D01*
X5181967Y-11577960D02*
X5162920Y-11587484D01*
X5162920Y-11587484D02*
X5143872Y-11587484D01*
X5143872Y-11587484D02*
X5124824Y-11577960D01*
X5124824Y-11577960D02*
X5115301Y-11568436D01*
X5115301Y-11568436D02*
X5105777Y-11549388D01*
X5105777Y-11549388D02*
X5096253Y-11511293D01*
X5096253Y-11511293D02*
X5096253Y-11463674D01*
X5096253Y-11463674D02*
X5105777Y-11425579D01*
X5105777Y-11425579D02*
X5115301Y-11406531D01*
X5115301Y-11406531D02*
X5124824Y-11397008D01*
X5124824Y-11397008D02*
X5143872Y-11387484D01*
X5296253Y-11568436D02*
X5305777Y-11577960D01*
X5305777Y-11577960D02*
X5296253Y-11587484D01*
X5296253Y-11587484D02*
X5286729Y-11577960D01*
X5286729Y-11577960D02*
X5296253Y-11568436D01*
X5296253Y-11568436D02*
X5296253Y-11587484D01*
X5372444Y-11387484D02*
X5496253Y-11387484D01*
X5496253Y-11387484D02*
X5429586Y-11463674D01*
X5429586Y-11463674D02*
X5458158Y-11463674D01*
X5458158Y-11463674D02*
X5477205Y-11473198D01*
X5477205Y-11473198D02*
X5486729Y-11482722D01*
X5486729Y-11482722D02*
X5496253Y-11501769D01*
X5496253Y-11501769D02*
X5496253Y-11549388D01*
X5496253Y-11549388D02*
X5486729Y-11568436D01*
X5486729Y-11568436D02*
X5477205Y-11577960D01*
X5477205Y-11577960D02*
X5458158Y-11587484D01*
X5458158Y-11587484D02*
X5401015Y-11587484D01*
X5401015Y-11587484D02*
X5381967Y-11577960D01*
X5381967Y-11577960D02*
X5372444Y-11568436D01*
X5620062Y-11387484D02*
X5639110Y-11387484D01*
X5639110Y-11387484D02*
X5658158Y-11397008D01*
X5658158Y-11397008D02*
X5667682Y-11406531D01*
X5667682Y-11406531D02*
X5677205Y-11425579D01*
X5677205Y-11425579D02*
X5686729Y-11463674D01*
X5686729Y-11463674D02*
X5686729Y-11511293D01*
X5686729Y-11511293D02*
X5677205Y-11549388D01*
X5677205Y-11549388D02*
X5667682Y-11568436D01*
X5667682Y-11568436D02*
X5658158Y-11577960D01*
X5658158Y-11577960D02*
X5639110Y-11587484D01*
X5639110Y-11587484D02*
X5620062Y-11587484D01*
X5620062Y-11587484D02*
X5601015Y-11577960D01*
X5601015Y-11577960D02*
X5591491Y-11568436D01*
X5591491Y-11568436D02*
X5581967Y-11549388D01*
X5581967Y-11549388D02*
X5572444Y-11511293D01*
X5572444Y-11511293D02*
X5572444Y-11463674D01*
X5572444Y-11463674D02*
X5581967Y-11425579D01*
X5581967Y-11425579D02*
X5591491Y-11406531D01*
X5591491Y-11406531D02*
X5601015Y-11397008D01*
X5601015Y-11397008D02*
X5620062Y-11387484D01*
X5810539Y-11387484D02*
X5829586Y-11387484D01*
X5829586Y-11387484D02*
X5848634Y-11397008D01*
X5848634Y-11397008D02*
X5858158Y-11406531D01*
X5858158Y-11406531D02*
X5867682Y-11425579D01*
X5867682Y-11425579D02*
X5877205Y-11463674D01*
X5877205Y-11463674D02*
X5877205Y-11511293D01*
X5877205Y-11511293D02*
X5867682Y-11549388D01*
X5867682Y-11549388D02*
X5858158Y-11568436D01*
X5858158Y-11568436D02*
X5848634Y-11577960D01*
X5848634Y-11577960D02*
X5829586Y-11587484D01*
X5829586Y-11587484D02*
X5810539Y-11587484D01*
X5810539Y-11587484D02*
X5791491Y-11577960D01*
X5791491Y-11577960D02*
X5781967Y-11568436D01*
X5781967Y-11568436D02*
X5772443Y-11549388D01*
X5772443Y-11549388D02*
X5762920Y-11511293D01*
X5762920Y-11511293D02*
X5762920Y-11463674D01*
X5762920Y-11463674D02*
X5772443Y-11425579D01*
X5772443Y-11425579D02*
X5781967Y-11406531D01*
X5781967Y-11406531D02*
X5791491Y-11397008D01*
X5791491Y-11397008D02*
X5810539Y-11387484D01*
X5962920Y-11587484D02*
X5962920Y-11454150D01*
X5962920Y-11473198D02*
X5972443Y-11463674D01*
X5972443Y-11463674D02*
X5991491Y-11454150D01*
X5991491Y-11454150D02*
X6020063Y-11454150D01*
X6020063Y-11454150D02*
X6039110Y-11463674D01*
X6039110Y-11463674D02*
X6048634Y-11482722D01*
X6048634Y-11482722D02*
X6048634Y-11587484D01*
X6048634Y-11482722D02*
X6058158Y-11463674D01*
X6058158Y-11463674D02*
X6077205Y-11454150D01*
X6077205Y-11454150D02*
X6105777Y-11454150D01*
X6105777Y-11454150D02*
X6124824Y-11463674D01*
X6124824Y-11463674D02*
X6134348Y-11482722D01*
X6134348Y-11482722D02*
X6134348Y-11587484D01*
X6229586Y-11587484D02*
X6229586Y-11454150D01*
X6229586Y-11473198D02*
X6239110Y-11463674D01*
X6239110Y-11463674D02*
X6258158Y-11454150D01*
X6258158Y-11454150D02*
X6286729Y-11454150D01*
X6286729Y-11454150D02*
X6305777Y-11463674D01*
X6305777Y-11463674D02*
X6315301Y-11482722D01*
X6315301Y-11482722D02*
X6315301Y-11587484D01*
X6315301Y-11482722D02*
X6324824Y-11463674D01*
X6324824Y-11463674D02*
X6343872Y-11454150D01*
X6343872Y-11454150D02*
X6372443Y-11454150D01*
X6372443Y-11454150D02*
X6391491Y-11463674D01*
X6391491Y-11463674D02*
X6401015Y-11482722D01*
X6401015Y-11482722D02*
X6401015Y-11587484D01*
X6791491Y-11377960D02*
X6620063Y-11635103D01*
X7048634Y-11387484D02*
X7067682Y-11387484D01*
X7067682Y-11387484D02*
X7086729Y-11397008D01*
X7086729Y-11397008D02*
X7096253Y-11406531D01*
X7096253Y-11406531D02*
X7105777Y-11425579D01*
X7105777Y-11425579D02*
X7115301Y-11463674D01*
X7115301Y-11463674D02*
X7115301Y-11511293D01*
X7115301Y-11511293D02*
X7105777Y-11549388D01*
X7105777Y-11549388D02*
X7096253Y-11568436D01*
X7096253Y-11568436D02*
X7086729Y-11577960D01*
X7086729Y-11577960D02*
X7067682Y-11587484D01*
X7067682Y-11587484D02*
X7048634Y-11587484D01*
X7048634Y-11587484D02*
X7029586Y-11577960D01*
X7029586Y-11577960D02*
X7020063Y-11568436D01*
X7020063Y-11568436D02*
X7010539Y-11549388D01*
X7010539Y-11549388D02*
X7001015Y-11511293D01*
X7001015Y-11511293D02*
X7001015Y-11463674D01*
X7001015Y-11463674D02*
X7010539Y-11425579D01*
X7010539Y-11425579D02*
X7020063Y-11406531D01*
X7020063Y-11406531D02*
X7029586Y-11397008D01*
X7029586Y-11397008D02*
X7048634Y-11387484D01*
X7201015Y-11568436D02*
X7210539Y-11577960D01*
X7210539Y-11577960D02*
X7201015Y-11587484D01*
X7201015Y-11587484D02*
X7191491Y-11577960D01*
X7191491Y-11577960D02*
X7201015Y-11568436D01*
X7201015Y-11568436D02*
X7201015Y-11587484D01*
X7334348Y-11387484D02*
X7353396Y-11387484D01*
X7353396Y-11387484D02*
X7372444Y-11397008D01*
X7372444Y-11397008D02*
X7381967Y-11406531D01*
X7381967Y-11406531D02*
X7391491Y-11425579D01*
X7391491Y-11425579D02*
X7401015Y-11463674D01*
X7401015Y-11463674D02*
X7401015Y-11511293D01*
X7401015Y-11511293D02*
X7391491Y-11549388D01*
X7391491Y-11549388D02*
X7381967Y-11568436D01*
X7381967Y-11568436D02*
X7372444Y-11577960D01*
X7372444Y-11577960D02*
X7353396Y-11587484D01*
X7353396Y-11587484D02*
X7334348Y-11587484D01*
X7334348Y-11587484D02*
X7315301Y-11577960D01*
X7315301Y-11577960D02*
X7305777Y-11568436D01*
X7305777Y-11568436D02*
X7296253Y-11549388D01*
X7296253Y-11549388D02*
X7286729Y-11511293D01*
X7286729Y-11511293D02*
X7286729Y-11463674D01*
X7286729Y-11463674D02*
X7296253Y-11425579D01*
X7296253Y-11425579D02*
X7305777Y-11406531D01*
X7305777Y-11406531D02*
X7315301Y-11397008D01*
X7315301Y-11397008D02*
X7334348Y-11387484D01*
X7591491Y-11587484D02*
X7477206Y-11587484D01*
X7534348Y-11587484D02*
X7534348Y-11387484D01*
X7534348Y-11387484D02*
X7515301Y-11416055D01*
X7515301Y-11416055D02*
X7496253Y-11435103D01*
X7496253Y-11435103D02*
X7477206Y-11444627D01*
X7781967Y-11587484D02*
X7667682Y-11587484D01*
X7724825Y-11587484D02*
X7724825Y-11387484D01*
X7724825Y-11387484D02*
X7705777Y-11416055D01*
X7705777Y-11416055D02*
X7686729Y-11435103D01*
X7686729Y-11435103D02*
X7667682Y-11444627D01*
X7896253Y-11473198D02*
X7877206Y-11463674D01*
X7877206Y-11463674D02*
X7867682Y-11454150D01*
X7867682Y-11454150D02*
X7858158Y-11435103D01*
X7858158Y-11435103D02*
X7858158Y-11425579D01*
X7858158Y-11425579D02*
X7867682Y-11406531D01*
X7867682Y-11406531D02*
X7877206Y-11397008D01*
X7877206Y-11397008D02*
X7896253Y-11387484D01*
X7896253Y-11387484D02*
X7934348Y-11387484D01*
X7934348Y-11387484D02*
X7953396Y-11397008D01*
X7953396Y-11397008D02*
X7962920Y-11406531D01*
X7962920Y-11406531D02*
X7972444Y-11425579D01*
X7972444Y-11425579D02*
X7972444Y-11435103D01*
X7972444Y-11435103D02*
X7962920Y-11454150D01*
X7962920Y-11454150D02*
X7953396Y-11463674D01*
X7953396Y-11463674D02*
X7934348Y-11473198D01*
X7934348Y-11473198D02*
X7896253Y-11473198D01*
X7896253Y-11473198D02*
X7877206Y-11482722D01*
X7877206Y-11482722D02*
X7867682Y-11492246D01*
X7867682Y-11492246D02*
X7858158Y-11511293D01*
X7858158Y-11511293D02*
X7858158Y-11549388D01*
X7858158Y-11549388D02*
X7867682Y-11568436D01*
X7867682Y-11568436D02*
X7877206Y-11577960D01*
X7877206Y-11577960D02*
X7896253Y-11587484D01*
X7896253Y-11587484D02*
X7934348Y-11587484D01*
X7934348Y-11587484D02*
X7953396Y-11577960D01*
X7953396Y-11577960D02*
X7962920Y-11568436D01*
X7962920Y-11568436D02*
X7972444Y-11549388D01*
X7972444Y-11549388D02*
X7972444Y-11511293D01*
X7972444Y-11511293D02*
X7962920Y-11492246D01*
X7962920Y-11492246D02*
X7953396Y-11482722D01*
X7953396Y-11482722D02*
X7934348Y-11473198D01*
X8048634Y-11387484D02*
X8048634Y-11425579D01*
X8124825Y-11387484D02*
X8124825Y-11425579D01*
X8420063Y-11663674D02*
X8410539Y-11654150D01*
X8410539Y-11654150D02*
X8391491Y-11625579D01*
X8391491Y-11625579D02*
X8381968Y-11606531D01*
X8381968Y-11606531D02*
X8372444Y-11577960D01*
X8372444Y-11577960D02*
X8362920Y-11530341D01*
X8362920Y-11530341D02*
X8362920Y-11492246D01*
X8362920Y-11492246D02*
X8372444Y-11444627D01*
X8372444Y-11444627D02*
X8381968Y-11416055D01*
X8381968Y-11416055D02*
X8391491Y-11397008D01*
X8391491Y-11397008D02*
X8410539Y-11368436D01*
X8410539Y-11368436D02*
X8420063Y-11358912D01*
X8601015Y-11587484D02*
X8486730Y-11587484D01*
X8543872Y-11587484D02*
X8543872Y-11387484D01*
X8543872Y-11387484D02*
X8524825Y-11416055D01*
X8524825Y-11416055D02*
X8505777Y-11435103D01*
X8505777Y-11435103D02*
X8486730Y-11444627D01*
X8772444Y-11387484D02*
X8734349Y-11387484D01*
X8734349Y-11387484D02*
X8715301Y-11397008D01*
X8715301Y-11397008D02*
X8705777Y-11406531D01*
X8705777Y-11406531D02*
X8686730Y-11435103D01*
X8686730Y-11435103D02*
X8677206Y-11473198D01*
X8677206Y-11473198D02*
X8677206Y-11549388D01*
X8677206Y-11549388D02*
X8686730Y-11568436D01*
X8686730Y-11568436D02*
X8696253Y-11577960D01*
X8696253Y-11577960D02*
X8715301Y-11587484D01*
X8715301Y-11587484D02*
X8753396Y-11587484D01*
X8753396Y-11587484D02*
X8772444Y-11577960D01*
X8772444Y-11577960D02*
X8781968Y-11568436D01*
X8781968Y-11568436D02*
X8791491Y-11549388D01*
X8791491Y-11549388D02*
X8791491Y-11501769D01*
X8791491Y-11501769D02*
X8781968Y-11482722D01*
X8781968Y-11482722D02*
X8772444Y-11473198D01*
X8772444Y-11473198D02*
X8753396Y-11463674D01*
X8753396Y-11463674D02*
X8715301Y-11463674D01*
X8715301Y-11463674D02*
X8696253Y-11473198D01*
X8696253Y-11473198D02*
X8686730Y-11482722D01*
X8686730Y-11482722D02*
X8677206Y-11501769D01*
X9029587Y-11587484D02*
X9029587Y-11387484D01*
X9115301Y-11587484D02*
X9115301Y-11482722D01*
X9115301Y-11482722D02*
X9105777Y-11463674D01*
X9105777Y-11463674D02*
X9086730Y-11454150D01*
X9086730Y-11454150D02*
X9058158Y-11454150D01*
X9058158Y-11454150D02*
X9039111Y-11463674D01*
X9039111Y-11463674D02*
X9029587Y-11473198D01*
X9239111Y-11587484D02*
X9220063Y-11577960D01*
X9220063Y-11577960D02*
X9210539Y-11568436D01*
X9210539Y-11568436D02*
X9201015Y-11549388D01*
X9201015Y-11549388D02*
X9201015Y-11492246D01*
X9201015Y-11492246D02*
X9210539Y-11473198D01*
X9210539Y-11473198D02*
X9220063Y-11463674D01*
X9220063Y-11463674D02*
X9239111Y-11454150D01*
X9239111Y-11454150D02*
X9267682Y-11454150D01*
X9267682Y-11454150D02*
X9286730Y-11463674D01*
X9286730Y-11463674D02*
X9296253Y-11473198D01*
X9296253Y-11473198D02*
X9305777Y-11492246D01*
X9305777Y-11492246D02*
X9305777Y-11549388D01*
X9305777Y-11549388D02*
X9296253Y-11568436D01*
X9296253Y-11568436D02*
X9286730Y-11577960D01*
X9286730Y-11577960D02*
X9267682Y-11587484D01*
X9267682Y-11587484D02*
X9239111Y-11587484D01*
X9420063Y-11587484D02*
X9401015Y-11577960D01*
X9401015Y-11577960D02*
X9391492Y-11558912D01*
X9391492Y-11558912D02*
X9391492Y-11387484D01*
X9572444Y-11577960D02*
X9553396Y-11587484D01*
X9553396Y-11587484D02*
X9515301Y-11587484D01*
X9515301Y-11587484D02*
X9496253Y-11577960D01*
X9496253Y-11577960D02*
X9486730Y-11558912D01*
X9486730Y-11558912D02*
X9486730Y-11482722D01*
X9486730Y-11482722D02*
X9496253Y-11463674D01*
X9496253Y-11463674D02*
X9515301Y-11454150D01*
X9515301Y-11454150D02*
X9553396Y-11454150D01*
X9553396Y-11454150D02*
X9572444Y-11463674D01*
X9572444Y-11463674D02*
X9581968Y-11482722D01*
X9581968Y-11482722D02*
X9581968Y-11501769D01*
X9581968Y-11501769D02*
X9486730Y-11520817D01*
X9658158Y-11577960D02*
X9677206Y-11587484D01*
X9677206Y-11587484D02*
X9715301Y-11587484D01*
X9715301Y-11587484D02*
X9734349Y-11577960D01*
X9734349Y-11577960D02*
X9743873Y-11558912D01*
X9743873Y-11558912D02*
X9743873Y-11549388D01*
X9743873Y-11549388D02*
X9734349Y-11530341D01*
X9734349Y-11530341D02*
X9715301Y-11520817D01*
X9715301Y-11520817D02*
X9686730Y-11520817D01*
X9686730Y-11520817D02*
X9667682Y-11511293D01*
X9667682Y-11511293D02*
X9658158Y-11492246D01*
X9658158Y-11492246D02*
X9658158Y-11482722D01*
X9658158Y-11482722D02*
X9667682Y-11463674D01*
X9667682Y-11463674D02*
X9686730Y-11454150D01*
X9686730Y-11454150D02*
X9715301Y-11454150D01*
X9715301Y-11454150D02*
X9734349Y-11463674D01*
X9810539Y-11663674D02*
X9820063Y-11654150D01*
X9820063Y-11654150D02*
X9839111Y-11625579D01*
X9839111Y-11625579D02*
X9848634Y-11606531D01*
X9848634Y-11606531D02*
X9858158Y-11577960D01*
X9858158Y-11577960D02*
X9867682Y-11530341D01*
X9867682Y-11530341D02*
X9867682Y-11492246D01*
X9867682Y-11492246D02*
X9858158Y-11444627D01*
X9858158Y-11444627D02*
X9848634Y-11416055D01*
X9848634Y-11416055D02*
X9839111Y-11397008D01*
X9839111Y-11397008D02*
X9820063Y-11368436D01*
X9820063Y-11368436D02*
X9810539Y-11358912D01*
D10*
X4845000Y-11760000D02*
G75*
G02*
X4805000Y-11760000I-20000J0D01*
G01*
X4805000Y-11760000D02*
G75*
G02*
X4845000Y-11760000I20000J0D01*
G01*
D12*
X5143872Y-11651484D02*
X5162920Y-11651484D01*
X5162920Y-11651484D02*
X5181967Y-11661008D01*
X5181967Y-11661008D02*
X5191491Y-11670531D01*
X5191491Y-11670531D02*
X5201015Y-11689579D01*
X5201015Y-11689579D02*
X5210539Y-11727674D01*
X5210539Y-11727674D02*
X5210539Y-11775293D01*
X5210539Y-11775293D02*
X5201015Y-11813388D01*
X5201015Y-11813388D02*
X5191491Y-11832436D01*
X5191491Y-11832436D02*
X5181967Y-11841960D01*
X5181967Y-11841960D02*
X5162920Y-11851484D01*
X5162920Y-11851484D02*
X5143872Y-11851484D01*
X5143872Y-11851484D02*
X5124824Y-11841960D01*
X5124824Y-11841960D02*
X5115301Y-11832436D01*
X5115301Y-11832436D02*
X5105777Y-11813388D01*
X5105777Y-11813388D02*
X5096253Y-11775293D01*
X5096253Y-11775293D02*
X5096253Y-11727674D01*
X5096253Y-11727674D02*
X5105777Y-11689579D01*
X5105777Y-11689579D02*
X5115301Y-11670531D01*
X5115301Y-11670531D02*
X5124824Y-11661008D01*
X5124824Y-11661008D02*
X5143872Y-11651484D01*
X5296253Y-11832436D02*
X5305777Y-11841960D01*
X5305777Y-11841960D02*
X5296253Y-11851484D01*
X5296253Y-11851484D02*
X5286729Y-11841960D01*
X5286729Y-11841960D02*
X5296253Y-11832436D01*
X5296253Y-11832436D02*
X5296253Y-11851484D01*
X5477205Y-11718150D02*
X5477205Y-11851484D01*
X5429586Y-11641960D02*
X5381967Y-11784817D01*
X5381967Y-11784817D02*
X5505777Y-11784817D01*
X5620062Y-11651484D02*
X5639110Y-11651484D01*
X5639110Y-11651484D02*
X5658158Y-11661008D01*
X5658158Y-11661008D02*
X5667682Y-11670531D01*
X5667682Y-11670531D02*
X5677205Y-11689579D01*
X5677205Y-11689579D02*
X5686729Y-11727674D01*
X5686729Y-11727674D02*
X5686729Y-11775293D01*
X5686729Y-11775293D02*
X5677205Y-11813388D01*
X5677205Y-11813388D02*
X5667682Y-11832436D01*
X5667682Y-11832436D02*
X5658158Y-11841960D01*
X5658158Y-11841960D02*
X5639110Y-11851484D01*
X5639110Y-11851484D02*
X5620062Y-11851484D01*
X5620062Y-11851484D02*
X5601015Y-11841960D01*
X5601015Y-11841960D02*
X5591491Y-11832436D01*
X5591491Y-11832436D02*
X5581967Y-11813388D01*
X5581967Y-11813388D02*
X5572444Y-11775293D01*
X5572444Y-11775293D02*
X5572444Y-11727674D01*
X5572444Y-11727674D02*
X5581967Y-11689579D01*
X5581967Y-11689579D02*
X5591491Y-11670531D01*
X5591491Y-11670531D02*
X5601015Y-11661008D01*
X5601015Y-11661008D02*
X5620062Y-11651484D01*
X5810539Y-11651484D02*
X5829586Y-11651484D01*
X5829586Y-11651484D02*
X5848634Y-11661008D01*
X5848634Y-11661008D02*
X5858158Y-11670531D01*
X5858158Y-11670531D02*
X5867682Y-11689579D01*
X5867682Y-11689579D02*
X5877205Y-11727674D01*
X5877205Y-11727674D02*
X5877205Y-11775293D01*
X5877205Y-11775293D02*
X5867682Y-11813388D01*
X5867682Y-11813388D02*
X5858158Y-11832436D01*
X5858158Y-11832436D02*
X5848634Y-11841960D01*
X5848634Y-11841960D02*
X5829586Y-11851484D01*
X5829586Y-11851484D02*
X5810539Y-11851484D01*
X5810539Y-11851484D02*
X5791491Y-11841960D01*
X5791491Y-11841960D02*
X5781967Y-11832436D01*
X5781967Y-11832436D02*
X5772443Y-11813388D01*
X5772443Y-11813388D02*
X5762920Y-11775293D01*
X5762920Y-11775293D02*
X5762920Y-11727674D01*
X5762920Y-11727674D02*
X5772443Y-11689579D01*
X5772443Y-11689579D02*
X5781967Y-11670531D01*
X5781967Y-11670531D02*
X5791491Y-11661008D01*
X5791491Y-11661008D02*
X5810539Y-11651484D01*
X5962920Y-11851484D02*
X5962920Y-11718150D01*
X5962920Y-11737198D02*
X5972443Y-11727674D01*
X5972443Y-11727674D02*
X5991491Y-11718150D01*
X5991491Y-11718150D02*
X6020063Y-11718150D01*
X6020063Y-11718150D02*
X6039110Y-11727674D01*
X6039110Y-11727674D02*
X6048634Y-11746722D01*
X6048634Y-11746722D02*
X6048634Y-11851484D01*
X6048634Y-11746722D02*
X6058158Y-11727674D01*
X6058158Y-11727674D02*
X6077205Y-11718150D01*
X6077205Y-11718150D02*
X6105777Y-11718150D01*
X6105777Y-11718150D02*
X6124824Y-11727674D01*
X6124824Y-11727674D02*
X6134348Y-11746722D01*
X6134348Y-11746722D02*
X6134348Y-11851484D01*
X6229586Y-11851484D02*
X6229586Y-11718150D01*
X6229586Y-11737198D02*
X6239110Y-11727674D01*
X6239110Y-11727674D02*
X6258158Y-11718150D01*
X6258158Y-11718150D02*
X6286729Y-11718150D01*
X6286729Y-11718150D02*
X6305777Y-11727674D01*
X6305777Y-11727674D02*
X6315301Y-11746722D01*
X6315301Y-11746722D02*
X6315301Y-11851484D01*
X6315301Y-11746722D02*
X6324824Y-11727674D01*
X6324824Y-11727674D02*
X6343872Y-11718150D01*
X6343872Y-11718150D02*
X6372443Y-11718150D01*
X6372443Y-11718150D02*
X6391491Y-11727674D01*
X6391491Y-11727674D02*
X6401015Y-11746722D01*
X6401015Y-11746722D02*
X6401015Y-11851484D01*
X6791491Y-11641960D02*
X6620063Y-11899103D01*
X7048634Y-11651484D02*
X7067682Y-11651484D01*
X7067682Y-11651484D02*
X7086729Y-11661008D01*
X7086729Y-11661008D02*
X7096253Y-11670531D01*
X7096253Y-11670531D02*
X7105777Y-11689579D01*
X7105777Y-11689579D02*
X7115301Y-11727674D01*
X7115301Y-11727674D02*
X7115301Y-11775293D01*
X7115301Y-11775293D02*
X7105777Y-11813388D01*
X7105777Y-11813388D02*
X7096253Y-11832436D01*
X7096253Y-11832436D02*
X7086729Y-11841960D01*
X7086729Y-11841960D02*
X7067682Y-11851484D01*
X7067682Y-11851484D02*
X7048634Y-11851484D01*
X7048634Y-11851484D02*
X7029586Y-11841960D01*
X7029586Y-11841960D02*
X7020063Y-11832436D01*
X7020063Y-11832436D02*
X7010539Y-11813388D01*
X7010539Y-11813388D02*
X7001015Y-11775293D01*
X7001015Y-11775293D02*
X7001015Y-11727674D01*
X7001015Y-11727674D02*
X7010539Y-11689579D01*
X7010539Y-11689579D02*
X7020063Y-11670531D01*
X7020063Y-11670531D02*
X7029586Y-11661008D01*
X7029586Y-11661008D02*
X7048634Y-11651484D01*
X7201015Y-11832436D02*
X7210539Y-11841960D01*
X7210539Y-11841960D02*
X7201015Y-11851484D01*
X7201015Y-11851484D02*
X7191491Y-11841960D01*
X7191491Y-11841960D02*
X7201015Y-11832436D01*
X7201015Y-11832436D02*
X7201015Y-11851484D01*
X7334348Y-11651484D02*
X7353396Y-11651484D01*
X7353396Y-11651484D02*
X7372444Y-11661008D01*
X7372444Y-11661008D02*
X7381967Y-11670531D01*
X7381967Y-11670531D02*
X7391491Y-11689579D01*
X7391491Y-11689579D02*
X7401015Y-11727674D01*
X7401015Y-11727674D02*
X7401015Y-11775293D01*
X7401015Y-11775293D02*
X7391491Y-11813388D01*
X7391491Y-11813388D02*
X7381967Y-11832436D01*
X7381967Y-11832436D02*
X7372444Y-11841960D01*
X7372444Y-11841960D02*
X7353396Y-11851484D01*
X7353396Y-11851484D02*
X7334348Y-11851484D01*
X7334348Y-11851484D02*
X7315301Y-11841960D01*
X7315301Y-11841960D02*
X7305777Y-11832436D01*
X7305777Y-11832436D02*
X7296253Y-11813388D01*
X7296253Y-11813388D02*
X7286729Y-11775293D01*
X7286729Y-11775293D02*
X7286729Y-11727674D01*
X7286729Y-11727674D02*
X7296253Y-11689579D01*
X7296253Y-11689579D02*
X7305777Y-11670531D01*
X7305777Y-11670531D02*
X7315301Y-11661008D01*
X7315301Y-11661008D02*
X7334348Y-11651484D01*
X7591491Y-11851484D02*
X7477206Y-11851484D01*
X7534348Y-11851484D02*
X7534348Y-11651484D01*
X7534348Y-11651484D02*
X7515301Y-11680055D01*
X7515301Y-11680055D02*
X7496253Y-11699103D01*
X7496253Y-11699103D02*
X7477206Y-11708627D01*
X7772444Y-11651484D02*
X7677206Y-11651484D01*
X7677206Y-11651484D02*
X7667682Y-11746722D01*
X7667682Y-11746722D02*
X7677206Y-11737198D01*
X7677206Y-11737198D02*
X7696253Y-11727674D01*
X7696253Y-11727674D02*
X7743872Y-11727674D01*
X7743872Y-11727674D02*
X7762920Y-11737198D01*
X7762920Y-11737198D02*
X7772444Y-11746722D01*
X7772444Y-11746722D02*
X7781967Y-11765769D01*
X7781967Y-11765769D02*
X7781967Y-11813388D01*
X7781967Y-11813388D02*
X7772444Y-11832436D01*
X7772444Y-11832436D02*
X7762920Y-11841960D01*
X7762920Y-11841960D02*
X7743872Y-11851484D01*
X7743872Y-11851484D02*
X7696253Y-11851484D01*
X7696253Y-11851484D02*
X7677206Y-11841960D01*
X7677206Y-11841960D02*
X7667682Y-11832436D01*
X7848634Y-11651484D02*
X7981967Y-11651484D01*
X7981967Y-11651484D02*
X7896253Y-11851484D01*
X8048634Y-11651484D02*
X8048634Y-11689579D01*
X8124825Y-11651484D02*
X8124825Y-11689579D01*
X8420063Y-11927674D02*
X8410539Y-11918150D01*
X8410539Y-11918150D02*
X8391491Y-11889579D01*
X8391491Y-11889579D02*
X8381968Y-11870531D01*
X8381968Y-11870531D02*
X8372444Y-11841960D01*
X8372444Y-11841960D02*
X8362920Y-11794341D01*
X8362920Y-11794341D02*
X8362920Y-11756246D01*
X8362920Y-11756246D02*
X8372444Y-11708627D01*
X8372444Y-11708627D02*
X8381968Y-11680055D01*
X8381968Y-11680055D02*
X8391491Y-11661008D01*
X8391491Y-11661008D02*
X8410539Y-11632436D01*
X8410539Y-11632436D02*
X8420063Y-11622912D01*
X8591491Y-11651484D02*
X8496253Y-11651484D01*
X8496253Y-11651484D02*
X8486730Y-11746722D01*
X8486730Y-11746722D02*
X8496253Y-11737198D01*
X8496253Y-11737198D02*
X8515301Y-11727674D01*
X8515301Y-11727674D02*
X8562920Y-11727674D01*
X8562920Y-11727674D02*
X8581968Y-11737198D01*
X8581968Y-11737198D02*
X8591491Y-11746722D01*
X8591491Y-11746722D02*
X8601015Y-11765769D01*
X8601015Y-11765769D02*
X8601015Y-11813388D01*
X8601015Y-11813388D02*
X8591491Y-11832436D01*
X8591491Y-11832436D02*
X8581968Y-11841960D01*
X8581968Y-11841960D02*
X8562920Y-11851484D01*
X8562920Y-11851484D02*
X8515301Y-11851484D01*
X8515301Y-11851484D02*
X8496253Y-11841960D01*
X8496253Y-11841960D02*
X8486730Y-11832436D01*
X8667682Y-11651484D02*
X8791491Y-11651484D01*
X8791491Y-11651484D02*
X8724825Y-11727674D01*
X8724825Y-11727674D02*
X8753396Y-11727674D01*
X8753396Y-11727674D02*
X8772444Y-11737198D01*
X8772444Y-11737198D02*
X8781968Y-11746722D01*
X8781968Y-11746722D02*
X8791491Y-11765769D01*
X8791491Y-11765769D02*
X8791491Y-11813388D01*
X8791491Y-11813388D02*
X8781968Y-11832436D01*
X8781968Y-11832436D02*
X8772444Y-11841960D01*
X8772444Y-11841960D02*
X8753396Y-11851484D01*
X8753396Y-11851484D02*
X8696253Y-11851484D01*
X8696253Y-11851484D02*
X8677206Y-11841960D01*
X8677206Y-11841960D02*
X8667682Y-11832436D01*
X9029587Y-11851484D02*
X9029587Y-11651484D01*
X9115301Y-11851484D02*
X9115301Y-11746722D01*
X9115301Y-11746722D02*
X9105777Y-11727674D01*
X9105777Y-11727674D02*
X9086730Y-11718150D01*
X9086730Y-11718150D02*
X9058158Y-11718150D01*
X9058158Y-11718150D02*
X9039111Y-11727674D01*
X9039111Y-11727674D02*
X9029587Y-11737198D01*
X9239111Y-11851484D02*
X9220063Y-11841960D01*
X9220063Y-11841960D02*
X9210539Y-11832436D01*
X9210539Y-11832436D02*
X9201015Y-11813388D01*
X9201015Y-11813388D02*
X9201015Y-11756246D01*
X9201015Y-11756246D02*
X9210539Y-11737198D01*
X9210539Y-11737198D02*
X9220063Y-11727674D01*
X9220063Y-11727674D02*
X9239111Y-11718150D01*
X9239111Y-11718150D02*
X9267682Y-11718150D01*
X9267682Y-11718150D02*
X9286730Y-11727674D01*
X9286730Y-11727674D02*
X9296253Y-11737198D01*
X9296253Y-11737198D02*
X9305777Y-11756246D01*
X9305777Y-11756246D02*
X9305777Y-11813388D01*
X9305777Y-11813388D02*
X9296253Y-11832436D01*
X9296253Y-11832436D02*
X9286730Y-11841960D01*
X9286730Y-11841960D02*
X9267682Y-11851484D01*
X9267682Y-11851484D02*
X9239111Y-11851484D01*
X9420063Y-11851484D02*
X9401015Y-11841960D01*
X9401015Y-11841960D02*
X9391492Y-11822912D01*
X9391492Y-11822912D02*
X9391492Y-11651484D01*
X9572444Y-11841960D02*
X9553396Y-11851484D01*
X9553396Y-11851484D02*
X9515301Y-11851484D01*
X9515301Y-11851484D02*
X9496253Y-11841960D01*
X9496253Y-11841960D02*
X9486730Y-11822912D01*
X9486730Y-11822912D02*
X9486730Y-11746722D01*
X9486730Y-11746722D02*
X9496253Y-11727674D01*
X9496253Y-11727674D02*
X9515301Y-11718150D01*
X9515301Y-11718150D02*
X9553396Y-11718150D01*
X9553396Y-11718150D02*
X9572444Y-11727674D01*
X9572444Y-11727674D02*
X9581968Y-11746722D01*
X9581968Y-11746722D02*
X9581968Y-11765769D01*
X9581968Y-11765769D02*
X9486730Y-11784817D01*
X9658158Y-11841960D02*
X9677206Y-11851484D01*
X9677206Y-11851484D02*
X9715301Y-11851484D01*
X9715301Y-11851484D02*
X9734349Y-11841960D01*
X9734349Y-11841960D02*
X9743873Y-11822912D01*
X9743873Y-11822912D02*
X9743873Y-11813388D01*
X9743873Y-11813388D02*
X9734349Y-11794341D01*
X9734349Y-11794341D02*
X9715301Y-11784817D01*
X9715301Y-11784817D02*
X9686730Y-11784817D01*
X9686730Y-11784817D02*
X9667682Y-11775293D01*
X9667682Y-11775293D02*
X9658158Y-11756246D01*
X9658158Y-11756246D02*
X9658158Y-11746722D01*
X9658158Y-11746722D02*
X9667682Y-11727674D01*
X9667682Y-11727674D02*
X9686730Y-11718150D01*
X9686730Y-11718150D02*
X9715301Y-11718150D01*
X9715301Y-11718150D02*
X9734349Y-11727674D01*
X9810539Y-11927674D02*
X9820063Y-11918150D01*
X9820063Y-11918150D02*
X9839111Y-11889579D01*
X9839111Y-11889579D02*
X9848634Y-11870531D01*
X9848634Y-11870531D02*
X9858158Y-11841960D01*
X9858158Y-11841960D02*
X9867682Y-11794341D01*
X9867682Y-11794341D02*
X9867682Y-11756246D01*
X9867682Y-11756246D02*
X9858158Y-11708627D01*
X9858158Y-11708627D02*
X9848634Y-11680055D01*
X9848634Y-11680055D02*
X9839111Y-11661008D01*
X9839111Y-11661008D02*
X9820063Y-11632436D01*
X9820063Y-11632436D02*
X9810539Y-11622912D01*
D10*
X4825000Y-12004000D02*
X4825000Y-12044000D01*
X4805000Y-12024000D02*
X4845000Y-12024000D01*
D12*
X5143872Y-11915484D02*
X5162920Y-11915484D01*
X5162920Y-11915484D02*
X5181967Y-11925008D01*
X5181967Y-11925008D02*
X5191491Y-11934531D01*
X5191491Y-11934531D02*
X5201015Y-11953579D01*
X5201015Y-11953579D02*
X5210539Y-11991674D01*
X5210539Y-11991674D02*
X5210539Y-12039293D01*
X5210539Y-12039293D02*
X5201015Y-12077388D01*
X5201015Y-12077388D02*
X5191491Y-12096436D01*
X5191491Y-12096436D02*
X5181967Y-12105960D01*
X5181967Y-12105960D02*
X5162920Y-12115484D01*
X5162920Y-12115484D02*
X5143872Y-12115484D01*
X5143872Y-12115484D02*
X5124824Y-12105960D01*
X5124824Y-12105960D02*
X5115301Y-12096436D01*
X5115301Y-12096436D02*
X5105777Y-12077388D01*
X5105777Y-12077388D02*
X5096253Y-12039293D01*
X5096253Y-12039293D02*
X5096253Y-11991674D01*
X5096253Y-11991674D02*
X5105777Y-11953579D01*
X5105777Y-11953579D02*
X5115301Y-11934531D01*
X5115301Y-11934531D02*
X5124824Y-11925008D01*
X5124824Y-11925008D02*
X5143872Y-11915484D01*
X5296253Y-12096436D02*
X5305777Y-12105960D01*
X5305777Y-12105960D02*
X5296253Y-12115484D01*
X5296253Y-12115484D02*
X5286729Y-12105960D01*
X5286729Y-12105960D02*
X5296253Y-12096436D01*
X5296253Y-12096436D02*
X5296253Y-12115484D01*
X5477205Y-11982150D02*
X5477205Y-12115484D01*
X5429586Y-11905960D02*
X5381967Y-12048817D01*
X5381967Y-12048817D02*
X5505777Y-12048817D01*
X5620062Y-11915484D02*
X5639110Y-11915484D01*
X5639110Y-11915484D02*
X5658158Y-11925008D01*
X5658158Y-11925008D02*
X5667682Y-11934531D01*
X5667682Y-11934531D02*
X5677205Y-11953579D01*
X5677205Y-11953579D02*
X5686729Y-11991674D01*
X5686729Y-11991674D02*
X5686729Y-12039293D01*
X5686729Y-12039293D02*
X5677205Y-12077388D01*
X5677205Y-12077388D02*
X5667682Y-12096436D01*
X5667682Y-12096436D02*
X5658158Y-12105960D01*
X5658158Y-12105960D02*
X5639110Y-12115484D01*
X5639110Y-12115484D02*
X5620062Y-12115484D01*
X5620062Y-12115484D02*
X5601015Y-12105960D01*
X5601015Y-12105960D02*
X5591491Y-12096436D01*
X5591491Y-12096436D02*
X5581967Y-12077388D01*
X5581967Y-12077388D02*
X5572444Y-12039293D01*
X5572444Y-12039293D02*
X5572444Y-11991674D01*
X5572444Y-11991674D02*
X5581967Y-11953579D01*
X5581967Y-11953579D02*
X5591491Y-11934531D01*
X5591491Y-11934531D02*
X5601015Y-11925008D01*
X5601015Y-11925008D02*
X5620062Y-11915484D01*
X5810539Y-11915484D02*
X5829586Y-11915484D01*
X5829586Y-11915484D02*
X5848634Y-11925008D01*
X5848634Y-11925008D02*
X5858158Y-11934531D01*
X5858158Y-11934531D02*
X5867682Y-11953579D01*
X5867682Y-11953579D02*
X5877205Y-11991674D01*
X5877205Y-11991674D02*
X5877205Y-12039293D01*
X5877205Y-12039293D02*
X5867682Y-12077388D01*
X5867682Y-12077388D02*
X5858158Y-12096436D01*
X5858158Y-12096436D02*
X5848634Y-12105960D01*
X5848634Y-12105960D02*
X5829586Y-12115484D01*
X5829586Y-12115484D02*
X5810539Y-12115484D01*
X5810539Y-12115484D02*
X5791491Y-12105960D01*
X5791491Y-12105960D02*
X5781967Y-12096436D01*
X5781967Y-12096436D02*
X5772443Y-12077388D01*
X5772443Y-12077388D02*
X5762920Y-12039293D01*
X5762920Y-12039293D02*
X5762920Y-11991674D01*
X5762920Y-11991674D02*
X5772443Y-11953579D01*
X5772443Y-11953579D02*
X5781967Y-11934531D01*
X5781967Y-11934531D02*
X5791491Y-11925008D01*
X5791491Y-11925008D02*
X5810539Y-11915484D01*
X5962920Y-12115484D02*
X5962920Y-11982150D01*
X5962920Y-12001198D02*
X5972443Y-11991674D01*
X5972443Y-11991674D02*
X5991491Y-11982150D01*
X5991491Y-11982150D02*
X6020063Y-11982150D01*
X6020063Y-11982150D02*
X6039110Y-11991674D01*
X6039110Y-11991674D02*
X6048634Y-12010722D01*
X6048634Y-12010722D02*
X6048634Y-12115484D01*
X6048634Y-12010722D02*
X6058158Y-11991674D01*
X6058158Y-11991674D02*
X6077205Y-11982150D01*
X6077205Y-11982150D02*
X6105777Y-11982150D01*
X6105777Y-11982150D02*
X6124824Y-11991674D01*
X6124824Y-11991674D02*
X6134348Y-12010722D01*
X6134348Y-12010722D02*
X6134348Y-12115484D01*
X6229586Y-12115484D02*
X6229586Y-11982150D01*
X6229586Y-12001198D02*
X6239110Y-11991674D01*
X6239110Y-11991674D02*
X6258158Y-11982150D01*
X6258158Y-11982150D02*
X6286729Y-11982150D01*
X6286729Y-11982150D02*
X6305777Y-11991674D01*
X6305777Y-11991674D02*
X6315301Y-12010722D01*
X6315301Y-12010722D02*
X6315301Y-12115484D01*
X6315301Y-12010722D02*
X6324824Y-11991674D01*
X6324824Y-11991674D02*
X6343872Y-11982150D01*
X6343872Y-11982150D02*
X6372443Y-11982150D01*
X6372443Y-11982150D02*
X6391491Y-11991674D01*
X6391491Y-11991674D02*
X6401015Y-12010722D01*
X6401015Y-12010722D02*
X6401015Y-12115484D01*
X6791491Y-11905960D02*
X6620063Y-12163103D01*
X7048634Y-11915484D02*
X7067682Y-11915484D01*
X7067682Y-11915484D02*
X7086729Y-11925008D01*
X7086729Y-11925008D02*
X7096253Y-11934531D01*
X7096253Y-11934531D02*
X7105777Y-11953579D01*
X7105777Y-11953579D02*
X7115301Y-11991674D01*
X7115301Y-11991674D02*
X7115301Y-12039293D01*
X7115301Y-12039293D02*
X7105777Y-12077388D01*
X7105777Y-12077388D02*
X7096253Y-12096436D01*
X7096253Y-12096436D02*
X7086729Y-12105960D01*
X7086729Y-12105960D02*
X7067682Y-12115484D01*
X7067682Y-12115484D02*
X7048634Y-12115484D01*
X7048634Y-12115484D02*
X7029586Y-12105960D01*
X7029586Y-12105960D02*
X7020063Y-12096436D01*
X7020063Y-12096436D02*
X7010539Y-12077388D01*
X7010539Y-12077388D02*
X7001015Y-12039293D01*
X7001015Y-12039293D02*
X7001015Y-11991674D01*
X7001015Y-11991674D02*
X7010539Y-11953579D01*
X7010539Y-11953579D02*
X7020063Y-11934531D01*
X7020063Y-11934531D02*
X7029586Y-11925008D01*
X7029586Y-11925008D02*
X7048634Y-11915484D01*
X7201015Y-12096436D02*
X7210539Y-12105960D01*
X7210539Y-12105960D02*
X7201015Y-12115484D01*
X7201015Y-12115484D02*
X7191491Y-12105960D01*
X7191491Y-12105960D02*
X7201015Y-12096436D01*
X7201015Y-12096436D02*
X7201015Y-12115484D01*
X7334348Y-11915484D02*
X7353396Y-11915484D01*
X7353396Y-11915484D02*
X7372444Y-11925008D01*
X7372444Y-11925008D02*
X7381967Y-11934531D01*
X7381967Y-11934531D02*
X7391491Y-11953579D01*
X7391491Y-11953579D02*
X7401015Y-11991674D01*
X7401015Y-11991674D02*
X7401015Y-12039293D01*
X7401015Y-12039293D02*
X7391491Y-12077388D01*
X7391491Y-12077388D02*
X7381967Y-12096436D01*
X7381967Y-12096436D02*
X7372444Y-12105960D01*
X7372444Y-12105960D02*
X7353396Y-12115484D01*
X7353396Y-12115484D02*
X7334348Y-12115484D01*
X7334348Y-12115484D02*
X7315301Y-12105960D01*
X7315301Y-12105960D02*
X7305777Y-12096436D01*
X7305777Y-12096436D02*
X7296253Y-12077388D01*
X7296253Y-12077388D02*
X7286729Y-12039293D01*
X7286729Y-12039293D02*
X7286729Y-11991674D01*
X7286729Y-11991674D02*
X7296253Y-11953579D01*
X7296253Y-11953579D02*
X7305777Y-11934531D01*
X7305777Y-11934531D02*
X7315301Y-11925008D01*
X7315301Y-11925008D02*
X7334348Y-11915484D01*
X7591491Y-12115484D02*
X7477206Y-12115484D01*
X7534348Y-12115484D02*
X7534348Y-11915484D01*
X7534348Y-11915484D02*
X7515301Y-11944055D01*
X7515301Y-11944055D02*
X7496253Y-11963103D01*
X7496253Y-11963103D02*
X7477206Y-11972627D01*
X7772444Y-11915484D02*
X7677206Y-11915484D01*
X7677206Y-11915484D02*
X7667682Y-12010722D01*
X7667682Y-12010722D02*
X7677206Y-12001198D01*
X7677206Y-12001198D02*
X7696253Y-11991674D01*
X7696253Y-11991674D02*
X7743872Y-11991674D01*
X7743872Y-11991674D02*
X7762920Y-12001198D01*
X7762920Y-12001198D02*
X7772444Y-12010722D01*
X7772444Y-12010722D02*
X7781967Y-12029769D01*
X7781967Y-12029769D02*
X7781967Y-12077388D01*
X7781967Y-12077388D02*
X7772444Y-12096436D01*
X7772444Y-12096436D02*
X7762920Y-12105960D01*
X7762920Y-12105960D02*
X7743872Y-12115484D01*
X7743872Y-12115484D02*
X7696253Y-12115484D01*
X7696253Y-12115484D02*
X7677206Y-12105960D01*
X7677206Y-12105960D02*
X7667682Y-12096436D01*
X7848634Y-11915484D02*
X7981967Y-11915484D01*
X7981967Y-11915484D02*
X7896253Y-12115484D01*
X8048634Y-11915484D02*
X8048634Y-11953579D01*
X8124825Y-11915484D02*
X8124825Y-11953579D01*
X8420063Y-12191674D02*
X8410539Y-12182150D01*
X8410539Y-12182150D02*
X8391491Y-12153579D01*
X8391491Y-12153579D02*
X8381968Y-12134531D01*
X8381968Y-12134531D02*
X8372444Y-12105960D01*
X8372444Y-12105960D02*
X8362920Y-12058341D01*
X8362920Y-12058341D02*
X8362920Y-12020246D01*
X8362920Y-12020246D02*
X8372444Y-11972627D01*
X8372444Y-11972627D02*
X8381968Y-11944055D01*
X8381968Y-11944055D02*
X8391491Y-11925008D01*
X8391491Y-11925008D02*
X8410539Y-11896436D01*
X8410539Y-11896436D02*
X8420063Y-11886912D01*
X8534349Y-11915484D02*
X8553396Y-11915484D01*
X8553396Y-11915484D02*
X8572444Y-11925008D01*
X8572444Y-11925008D02*
X8581968Y-11934531D01*
X8581968Y-11934531D02*
X8591491Y-11953579D01*
X8591491Y-11953579D02*
X8601015Y-11991674D01*
X8601015Y-11991674D02*
X8601015Y-12039293D01*
X8601015Y-12039293D02*
X8591491Y-12077388D01*
X8591491Y-12077388D02*
X8581968Y-12096436D01*
X8581968Y-12096436D02*
X8572444Y-12105960D01*
X8572444Y-12105960D02*
X8553396Y-12115484D01*
X8553396Y-12115484D02*
X8534349Y-12115484D01*
X8534349Y-12115484D02*
X8515301Y-12105960D01*
X8515301Y-12105960D02*
X8505777Y-12096436D01*
X8505777Y-12096436D02*
X8496253Y-12077388D01*
X8496253Y-12077388D02*
X8486730Y-12039293D01*
X8486730Y-12039293D02*
X8486730Y-11991674D01*
X8486730Y-11991674D02*
X8496253Y-11953579D01*
X8496253Y-11953579D02*
X8505777Y-11934531D01*
X8505777Y-11934531D02*
X8515301Y-11925008D01*
X8515301Y-11925008D02*
X8534349Y-11915484D01*
X8839111Y-12115484D02*
X8839111Y-11915484D01*
X8924825Y-12115484D02*
X8924825Y-12010722D01*
X8924825Y-12010722D02*
X8915301Y-11991674D01*
X8915301Y-11991674D02*
X8896253Y-11982150D01*
X8896253Y-11982150D02*
X8867682Y-11982150D01*
X8867682Y-11982150D02*
X8848634Y-11991674D01*
X8848634Y-11991674D02*
X8839111Y-12001198D01*
X9048634Y-12115484D02*
X9029587Y-12105960D01*
X9029587Y-12105960D02*
X9020063Y-12096436D01*
X9020063Y-12096436D02*
X9010539Y-12077388D01*
X9010539Y-12077388D02*
X9010539Y-12020246D01*
X9010539Y-12020246D02*
X9020063Y-12001198D01*
X9020063Y-12001198D02*
X9029587Y-11991674D01*
X9029587Y-11991674D02*
X9048634Y-11982150D01*
X9048634Y-11982150D02*
X9077206Y-11982150D01*
X9077206Y-11982150D02*
X9096253Y-11991674D01*
X9096253Y-11991674D02*
X9105777Y-12001198D01*
X9105777Y-12001198D02*
X9115301Y-12020246D01*
X9115301Y-12020246D02*
X9115301Y-12077388D01*
X9115301Y-12077388D02*
X9105777Y-12096436D01*
X9105777Y-12096436D02*
X9096253Y-12105960D01*
X9096253Y-12105960D02*
X9077206Y-12115484D01*
X9077206Y-12115484D02*
X9048634Y-12115484D01*
X9229587Y-12115484D02*
X9210539Y-12105960D01*
X9210539Y-12105960D02*
X9201015Y-12086912D01*
X9201015Y-12086912D02*
X9201015Y-11915484D01*
X9381968Y-12105960D02*
X9362920Y-12115484D01*
X9362920Y-12115484D02*
X9324825Y-12115484D01*
X9324825Y-12115484D02*
X9305777Y-12105960D01*
X9305777Y-12105960D02*
X9296253Y-12086912D01*
X9296253Y-12086912D02*
X9296253Y-12010722D01*
X9296253Y-12010722D02*
X9305777Y-11991674D01*
X9305777Y-11991674D02*
X9324825Y-11982150D01*
X9324825Y-11982150D02*
X9362920Y-11982150D01*
X9362920Y-11982150D02*
X9381968Y-11991674D01*
X9381968Y-11991674D02*
X9391492Y-12010722D01*
X9391492Y-12010722D02*
X9391492Y-12029769D01*
X9391492Y-12029769D02*
X9296253Y-12048817D01*
X9467682Y-12105960D02*
X9486730Y-12115484D01*
X9486730Y-12115484D02*
X9524825Y-12115484D01*
X9524825Y-12115484D02*
X9543873Y-12105960D01*
X9543873Y-12105960D02*
X9553396Y-12086912D01*
X9553396Y-12086912D02*
X9553396Y-12077388D01*
X9553396Y-12077388D02*
X9543873Y-12058341D01*
X9543873Y-12058341D02*
X9524825Y-12048817D01*
X9524825Y-12048817D02*
X9496253Y-12048817D01*
X9496253Y-12048817D02*
X9477206Y-12039293D01*
X9477206Y-12039293D02*
X9467682Y-12020246D01*
X9467682Y-12020246D02*
X9467682Y-12010722D01*
X9467682Y-12010722D02*
X9477206Y-11991674D01*
X9477206Y-11991674D02*
X9496253Y-11982150D01*
X9496253Y-11982150D02*
X9524825Y-11982150D01*
X9524825Y-11982150D02*
X9543873Y-11991674D01*
X9791492Y-12039293D02*
X9943873Y-12039293D01*
X9867682Y-12115484D02*
X9867682Y-11963103D01*
X10277206Y-11915484D02*
X10239111Y-11915484D01*
X10239111Y-11915484D02*
X10220063Y-11925008D01*
X10220063Y-11925008D02*
X10210539Y-11934531D01*
X10210539Y-11934531D02*
X10191492Y-11963103D01*
X10191492Y-11963103D02*
X10181968Y-12001198D01*
X10181968Y-12001198D02*
X10181968Y-12077388D01*
X10181968Y-12077388D02*
X10191492Y-12096436D01*
X10191492Y-12096436D02*
X10201015Y-12105960D01*
X10201015Y-12105960D02*
X10220063Y-12115484D01*
X10220063Y-12115484D02*
X10258158Y-12115484D01*
X10258158Y-12115484D02*
X10277206Y-12105960D01*
X10277206Y-12105960D02*
X10286730Y-12096436D01*
X10286730Y-12096436D02*
X10296254Y-12077388D01*
X10296254Y-12077388D02*
X10296254Y-12029769D01*
X10296254Y-12029769D02*
X10286730Y-12010722D01*
X10286730Y-12010722D02*
X10277206Y-12001198D01*
X10277206Y-12001198D02*
X10258158Y-11991674D01*
X10258158Y-11991674D02*
X10220063Y-11991674D01*
X10220063Y-11991674D02*
X10201015Y-12001198D01*
X10201015Y-12001198D02*
X10191492Y-12010722D01*
X10191492Y-12010722D02*
X10181968Y-12029769D01*
X10524825Y-12105960D02*
X10543873Y-12115484D01*
X10543873Y-12115484D02*
X10581968Y-12115484D01*
X10581968Y-12115484D02*
X10601016Y-12105960D01*
X10601016Y-12105960D02*
X10610539Y-12086912D01*
X10610539Y-12086912D02*
X10610539Y-12077388D01*
X10610539Y-12077388D02*
X10601016Y-12058341D01*
X10601016Y-12058341D02*
X10581968Y-12048817D01*
X10581968Y-12048817D02*
X10553396Y-12048817D01*
X10553396Y-12048817D02*
X10534349Y-12039293D01*
X10534349Y-12039293D02*
X10524825Y-12020246D01*
X10524825Y-12020246D02*
X10524825Y-12010722D01*
X10524825Y-12010722D02*
X10534349Y-11991674D01*
X10534349Y-11991674D02*
X10553396Y-11982150D01*
X10553396Y-11982150D02*
X10581968Y-11982150D01*
X10581968Y-11982150D02*
X10601016Y-11991674D01*
X10724825Y-12115484D02*
X10705777Y-12105960D01*
X10705777Y-12105960D02*
X10696254Y-12086912D01*
X10696254Y-12086912D02*
X10696254Y-11915484D01*
X10829587Y-12115484D02*
X10810539Y-12105960D01*
X10810539Y-12105960D02*
X10801016Y-12096436D01*
X10801016Y-12096436D02*
X10791492Y-12077388D01*
X10791492Y-12077388D02*
X10791492Y-12020246D01*
X10791492Y-12020246D02*
X10801016Y-12001198D01*
X10801016Y-12001198D02*
X10810539Y-11991674D01*
X10810539Y-11991674D02*
X10829587Y-11982150D01*
X10829587Y-11982150D02*
X10858158Y-11982150D01*
X10858158Y-11982150D02*
X10877206Y-11991674D01*
X10877206Y-11991674D02*
X10886730Y-12001198D01*
X10886730Y-12001198D02*
X10896254Y-12020246D01*
X10896254Y-12020246D02*
X10896254Y-12077388D01*
X10896254Y-12077388D02*
X10886730Y-12096436D01*
X10886730Y-12096436D02*
X10877206Y-12105960D01*
X10877206Y-12105960D02*
X10858158Y-12115484D01*
X10858158Y-12115484D02*
X10829587Y-12115484D01*
X10953397Y-11982150D02*
X11029587Y-11982150D01*
X10981968Y-11915484D02*
X10981968Y-12086912D01*
X10981968Y-12086912D02*
X10991492Y-12105960D01*
X10991492Y-12105960D02*
X11010539Y-12115484D01*
X11010539Y-12115484D02*
X11029587Y-12115484D01*
X11086730Y-12105960D02*
X11105777Y-12115484D01*
X11105777Y-12115484D02*
X11143873Y-12115484D01*
X11143873Y-12115484D02*
X11162920Y-12105960D01*
X11162920Y-12105960D02*
X11172444Y-12086912D01*
X11172444Y-12086912D02*
X11172444Y-12077388D01*
X11172444Y-12077388D02*
X11162920Y-12058341D01*
X11162920Y-12058341D02*
X11143873Y-12048817D01*
X11143873Y-12048817D02*
X11115301Y-12048817D01*
X11115301Y-12048817D02*
X11096254Y-12039293D01*
X11096254Y-12039293D02*
X11086730Y-12020246D01*
X11086730Y-12020246D02*
X11086730Y-12010722D01*
X11086730Y-12010722D02*
X11096254Y-11991674D01*
X11096254Y-11991674D02*
X11115301Y-11982150D01*
X11115301Y-11982150D02*
X11143873Y-11982150D01*
X11143873Y-11982150D02*
X11162920Y-11991674D01*
X11239111Y-12191674D02*
X11248635Y-12182150D01*
X11248635Y-12182150D02*
X11267682Y-12153579D01*
X11267682Y-12153579D02*
X11277206Y-12134531D01*
X11277206Y-12134531D02*
X11286730Y-12105960D01*
X11286730Y-12105960D02*
X11296254Y-12058341D01*
X11296254Y-12058341D02*
X11296254Y-12020246D01*
X11296254Y-12020246D02*
X11286730Y-11972627D01*
X11286730Y-11972627D02*
X11277206Y-11944055D01*
X11277206Y-11944055D02*
X11267682Y-11925008D01*
X11267682Y-11925008D02*
X11248635Y-11896436D01*
X11248635Y-11896436D02*
X11239111Y-11886912D01*
D10*
X4836213Y-12309213D02*
X4836213Y-12266787D01*
X4793787Y-12266787D01*
X4793787Y-12309213D01*
X4836213Y-12309213D01*
D12*
X5143872Y-12179484D02*
X5162920Y-12179484D01*
X5162920Y-12179484D02*
X5181967Y-12189008D01*
X5181967Y-12189008D02*
X5191491Y-12198531D01*
X5191491Y-12198531D02*
X5201015Y-12217579D01*
X5201015Y-12217579D02*
X5210539Y-12255674D01*
X5210539Y-12255674D02*
X5210539Y-12303293D01*
X5210539Y-12303293D02*
X5201015Y-12341388D01*
X5201015Y-12341388D02*
X5191491Y-12360436D01*
X5191491Y-12360436D02*
X5181967Y-12369960D01*
X5181967Y-12369960D02*
X5162920Y-12379484D01*
X5162920Y-12379484D02*
X5143872Y-12379484D01*
X5143872Y-12379484D02*
X5124824Y-12369960D01*
X5124824Y-12369960D02*
X5115301Y-12360436D01*
X5115301Y-12360436D02*
X5105777Y-12341388D01*
X5105777Y-12341388D02*
X5096253Y-12303293D01*
X5096253Y-12303293D02*
X5096253Y-12255674D01*
X5096253Y-12255674D02*
X5105777Y-12217579D01*
X5105777Y-12217579D02*
X5115301Y-12198531D01*
X5115301Y-12198531D02*
X5124824Y-12189008D01*
X5124824Y-12189008D02*
X5143872Y-12179484D01*
X5296253Y-12360436D02*
X5305777Y-12369960D01*
X5305777Y-12369960D02*
X5296253Y-12379484D01*
X5296253Y-12379484D02*
X5286729Y-12369960D01*
X5286729Y-12369960D02*
X5296253Y-12360436D01*
X5296253Y-12360436D02*
X5296253Y-12379484D01*
X5477205Y-12179484D02*
X5439110Y-12179484D01*
X5439110Y-12179484D02*
X5420063Y-12189008D01*
X5420063Y-12189008D02*
X5410539Y-12198531D01*
X5410539Y-12198531D02*
X5391491Y-12227103D01*
X5391491Y-12227103D02*
X5381967Y-12265198D01*
X5381967Y-12265198D02*
X5381967Y-12341388D01*
X5381967Y-12341388D02*
X5391491Y-12360436D01*
X5391491Y-12360436D02*
X5401015Y-12369960D01*
X5401015Y-12369960D02*
X5420063Y-12379484D01*
X5420063Y-12379484D02*
X5458158Y-12379484D01*
X5458158Y-12379484D02*
X5477205Y-12369960D01*
X5477205Y-12369960D02*
X5486729Y-12360436D01*
X5486729Y-12360436D02*
X5496253Y-12341388D01*
X5496253Y-12341388D02*
X5496253Y-12293769D01*
X5496253Y-12293769D02*
X5486729Y-12274722D01*
X5486729Y-12274722D02*
X5477205Y-12265198D01*
X5477205Y-12265198D02*
X5458158Y-12255674D01*
X5458158Y-12255674D02*
X5420063Y-12255674D01*
X5420063Y-12255674D02*
X5401015Y-12265198D01*
X5401015Y-12265198D02*
X5391491Y-12274722D01*
X5391491Y-12274722D02*
X5381967Y-12293769D01*
X5620062Y-12179484D02*
X5639110Y-12179484D01*
X5639110Y-12179484D02*
X5658158Y-12189008D01*
X5658158Y-12189008D02*
X5667682Y-12198531D01*
X5667682Y-12198531D02*
X5677205Y-12217579D01*
X5677205Y-12217579D02*
X5686729Y-12255674D01*
X5686729Y-12255674D02*
X5686729Y-12303293D01*
X5686729Y-12303293D02*
X5677205Y-12341388D01*
X5677205Y-12341388D02*
X5667682Y-12360436D01*
X5667682Y-12360436D02*
X5658158Y-12369960D01*
X5658158Y-12369960D02*
X5639110Y-12379484D01*
X5639110Y-12379484D02*
X5620062Y-12379484D01*
X5620062Y-12379484D02*
X5601015Y-12369960D01*
X5601015Y-12369960D02*
X5591491Y-12360436D01*
X5591491Y-12360436D02*
X5581967Y-12341388D01*
X5581967Y-12341388D02*
X5572444Y-12303293D01*
X5572444Y-12303293D02*
X5572444Y-12255674D01*
X5572444Y-12255674D02*
X5581967Y-12217579D01*
X5581967Y-12217579D02*
X5591491Y-12198531D01*
X5591491Y-12198531D02*
X5601015Y-12189008D01*
X5601015Y-12189008D02*
X5620062Y-12179484D01*
X5810539Y-12179484D02*
X5829586Y-12179484D01*
X5829586Y-12179484D02*
X5848634Y-12189008D01*
X5848634Y-12189008D02*
X5858158Y-12198531D01*
X5858158Y-12198531D02*
X5867682Y-12217579D01*
X5867682Y-12217579D02*
X5877205Y-12255674D01*
X5877205Y-12255674D02*
X5877205Y-12303293D01*
X5877205Y-12303293D02*
X5867682Y-12341388D01*
X5867682Y-12341388D02*
X5858158Y-12360436D01*
X5858158Y-12360436D02*
X5848634Y-12369960D01*
X5848634Y-12369960D02*
X5829586Y-12379484D01*
X5829586Y-12379484D02*
X5810539Y-12379484D01*
X5810539Y-12379484D02*
X5791491Y-12369960D01*
X5791491Y-12369960D02*
X5781967Y-12360436D01*
X5781967Y-12360436D02*
X5772443Y-12341388D01*
X5772443Y-12341388D02*
X5762920Y-12303293D01*
X5762920Y-12303293D02*
X5762920Y-12255674D01*
X5762920Y-12255674D02*
X5772443Y-12217579D01*
X5772443Y-12217579D02*
X5781967Y-12198531D01*
X5781967Y-12198531D02*
X5791491Y-12189008D01*
X5791491Y-12189008D02*
X5810539Y-12179484D01*
X5962920Y-12379484D02*
X5962920Y-12246150D01*
X5962920Y-12265198D02*
X5972443Y-12255674D01*
X5972443Y-12255674D02*
X5991491Y-12246150D01*
X5991491Y-12246150D02*
X6020063Y-12246150D01*
X6020063Y-12246150D02*
X6039110Y-12255674D01*
X6039110Y-12255674D02*
X6048634Y-12274722D01*
X6048634Y-12274722D02*
X6048634Y-12379484D01*
X6048634Y-12274722D02*
X6058158Y-12255674D01*
X6058158Y-12255674D02*
X6077205Y-12246150D01*
X6077205Y-12246150D02*
X6105777Y-12246150D01*
X6105777Y-12246150D02*
X6124824Y-12255674D01*
X6124824Y-12255674D02*
X6134348Y-12274722D01*
X6134348Y-12274722D02*
X6134348Y-12379484D01*
X6229586Y-12379484D02*
X6229586Y-12246150D01*
X6229586Y-12265198D02*
X6239110Y-12255674D01*
X6239110Y-12255674D02*
X6258158Y-12246150D01*
X6258158Y-12246150D02*
X6286729Y-12246150D01*
X6286729Y-12246150D02*
X6305777Y-12255674D01*
X6305777Y-12255674D02*
X6315301Y-12274722D01*
X6315301Y-12274722D02*
X6315301Y-12379484D01*
X6315301Y-12274722D02*
X6324824Y-12255674D01*
X6324824Y-12255674D02*
X6343872Y-12246150D01*
X6343872Y-12246150D02*
X6372443Y-12246150D01*
X6372443Y-12246150D02*
X6391491Y-12255674D01*
X6391491Y-12255674D02*
X6401015Y-12274722D01*
X6401015Y-12274722D02*
X6401015Y-12379484D01*
X6791491Y-12169960D02*
X6620063Y-12427103D01*
X7048634Y-12179484D02*
X7067682Y-12179484D01*
X7067682Y-12179484D02*
X7086729Y-12189008D01*
X7086729Y-12189008D02*
X7096253Y-12198531D01*
X7096253Y-12198531D02*
X7105777Y-12217579D01*
X7105777Y-12217579D02*
X7115301Y-12255674D01*
X7115301Y-12255674D02*
X7115301Y-12303293D01*
X7115301Y-12303293D02*
X7105777Y-12341388D01*
X7105777Y-12341388D02*
X7096253Y-12360436D01*
X7096253Y-12360436D02*
X7086729Y-12369960D01*
X7086729Y-12369960D02*
X7067682Y-12379484D01*
X7067682Y-12379484D02*
X7048634Y-12379484D01*
X7048634Y-12379484D02*
X7029586Y-12369960D01*
X7029586Y-12369960D02*
X7020063Y-12360436D01*
X7020063Y-12360436D02*
X7010539Y-12341388D01*
X7010539Y-12341388D02*
X7001015Y-12303293D01*
X7001015Y-12303293D02*
X7001015Y-12255674D01*
X7001015Y-12255674D02*
X7010539Y-12217579D01*
X7010539Y-12217579D02*
X7020063Y-12198531D01*
X7020063Y-12198531D02*
X7029586Y-12189008D01*
X7029586Y-12189008D02*
X7048634Y-12179484D01*
X7201015Y-12360436D02*
X7210539Y-12369960D01*
X7210539Y-12369960D02*
X7201015Y-12379484D01*
X7201015Y-12379484D02*
X7191491Y-12369960D01*
X7191491Y-12369960D02*
X7201015Y-12360436D01*
X7201015Y-12360436D02*
X7201015Y-12379484D01*
X7334348Y-12179484D02*
X7353396Y-12179484D01*
X7353396Y-12179484D02*
X7372444Y-12189008D01*
X7372444Y-12189008D02*
X7381967Y-12198531D01*
X7381967Y-12198531D02*
X7391491Y-12217579D01*
X7391491Y-12217579D02*
X7401015Y-12255674D01*
X7401015Y-12255674D02*
X7401015Y-12303293D01*
X7401015Y-12303293D02*
X7391491Y-12341388D01*
X7391491Y-12341388D02*
X7381967Y-12360436D01*
X7381967Y-12360436D02*
X7372444Y-12369960D01*
X7372444Y-12369960D02*
X7353396Y-12379484D01*
X7353396Y-12379484D02*
X7334348Y-12379484D01*
X7334348Y-12379484D02*
X7315301Y-12369960D01*
X7315301Y-12369960D02*
X7305777Y-12360436D01*
X7305777Y-12360436D02*
X7296253Y-12341388D01*
X7296253Y-12341388D02*
X7286729Y-12303293D01*
X7286729Y-12303293D02*
X7286729Y-12255674D01*
X7286729Y-12255674D02*
X7296253Y-12217579D01*
X7296253Y-12217579D02*
X7305777Y-12198531D01*
X7305777Y-12198531D02*
X7315301Y-12189008D01*
X7315301Y-12189008D02*
X7334348Y-12179484D01*
X7477206Y-12198531D02*
X7486729Y-12189008D01*
X7486729Y-12189008D02*
X7505777Y-12179484D01*
X7505777Y-12179484D02*
X7553396Y-12179484D01*
X7553396Y-12179484D02*
X7572444Y-12189008D01*
X7572444Y-12189008D02*
X7581967Y-12198531D01*
X7581967Y-12198531D02*
X7591491Y-12217579D01*
X7591491Y-12217579D02*
X7591491Y-12236627D01*
X7591491Y-12236627D02*
X7581967Y-12265198D01*
X7581967Y-12265198D02*
X7467682Y-12379484D01*
X7467682Y-12379484D02*
X7591491Y-12379484D01*
X7658158Y-12179484D02*
X7781967Y-12179484D01*
X7781967Y-12179484D02*
X7715301Y-12255674D01*
X7715301Y-12255674D02*
X7743872Y-12255674D01*
X7743872Y-12255674D02*
X7762920Y-12265198D01*
X7762920Y-12265198D02*
X7772444Y-12274722D01*
X7772444Y-12274722D02*
X7781967Y-12293769D01*
X7781967Y-12293769D02*
X7781967Y-12341388D01*
X7781967Y-12341388D02*
X7772444Y-12360436D01*
X7772444Y-12360436D02*
X7762920Y-12369960D01*
X7762920Y-12369960D02*
X7743872Y-12379484D01*
X7743872Y-12379484D02*
X7686729Y-12379484D01*
X7686729Y-12379484D02*
X7667682Y-12369960D01*
X7667682Y-12369960D02*
X7658158Y-12360436D01*
X7953396Y-12179484D02*
X7915301Y-12179484D01*
X7915301Y-12179484D02*
X7896253Y-12189008D01*
X7896253Y-12189008D02*
X7886729Y-12198531D01*
X7886729Y-12198531D02*
X7867682Y-12227103D01*
X7867682Y-12227103D02*
X7858158Y-12265198D01*
X7858158Y-12265198D02*
X7858158Y-12341388D01*
X7858158Y-12341388D02*
X7867682Y-12360436D01*
X7867682Y-12360436D02*
X7877206Y-12369960D01*
X7877206Y-12369960D02*
X7896253Y-12379484D01*
X7896253Y-12379484D02*
X7934348Y-12379484D01*
X7934348Y-12379484D02*
X7953396Y-12369960D01*
X7953396Y-12369960D02*
X7962920Y-12360436D01*
X7962920Y-12360436D02*
X7972444Y-12341388D01*
X7972444Y-12341388D02*
X7972444Y-12293769D01*
X7972444Y-12293769D02*
X7962920Y-12274722D01*
X7962920Y-12274722D02*
X7953396Y-12265198D01*
X7953396Y-12265198D02*
X7934348Y-12255674D01*
X7934348Y-12255674D02*
X7896253Y-12255674D01*
X7896253Y-12255674D02*
X7877206Y-12265198D01*
X7877206Y-12265198D02*
X7867682Y-12274722D01*
X7867682Y-12274722D02*
X7858158Y-12293769D01*
X8048634Y-12179484D02*
X8048634Y-12217579D01*
X8124825Y-12179484D02*
X8124825Y-12217579D01*
X8420063Y-12455674D02*
X8410539Y-12446150D01*
X8410539Y-12446150D02*
X8391491Y-12417579D01*
X8391491Y-12417579D02*
X8381968Y-12398531D01*
X8381968Y-12398531D02*
X8372444Y-12369960D01*
X8372444Y-12369960D02*
X8362920Y-12322341D01*
X8362920Y-12322341D02*
X8362920Y-12284246D01*
X8362920Y-12284246D02*
X8372444Y-12236627D01*
X8372444Y-12236627D02*
X8381968Y-12208055D01*
X8381968Y-12208055D02*
X8391491Y-12189008D01*
X8391491Y-12189008D02*
X8410539Y-12160436D01*
X8410539Y-12160436D02*
X8420063Y-12150912D01*
X8477206Y-12179484D02*
X8610539Y-12179484D01*
X8610539Y-12179484D02*
X8524825Y-12379484D01*
X8839111Y-12379484D02*
X8839111Y-12179484D01*
X8924825Y-12379484D02*
X8924825Y-12274722D01*
X8924825Y-12274722D02*
X8915301Y-12255674D01*
X8915301Y-12255674D02*
X8896253Y-12246150D01*
X8896253Y-12246150D02*
X8867682Y-12246150D01*
X8867682Y-12246150D02*
X8848634Y-12255674D01*
X8848634Y-12255674D02*
X8839111Y-12265198D01*
X9048634Y-12379484D02*
X9029587Y-12369960D01*
X9029587Y-12369960D02*
X9020063Y-12360436D01*
X9020063Y-12360436D02*
X9010539Y-12341388D01*
X9010539Y-12341388D02*
X9010539Y-12284246D01*
X9010539Y-12284246D02*
X9020063Y-12265198D01*
X9020063Y-12265198D02*
X9029587Y-12255674D01*
X9029587Y-12255674D02*
X9048634Y-12246150D01*
X9048634Y-12246150D02*
X9077206Y-12246150D01*
X9077206Y-12246150D02*
X9096253Y-12255674D01*
X9096253Y-12255674D02*
X9105777Y-12265198D01*
X9105777Y-12265198D02*
X9115301Y-12284246D01*
X9115301Y-12284246D02*
X9115301Y-12341388D01*
X9115301Y-12341388D02*
X9105777Y-12360436D01*
X9105777Y-12360436D02*
X9096253Y-12369960D01*
X9096253Y-12369960D02*
X9077206Y-12379484D01*
X9077206Y-12379484D02*
X9048634Y-12379484D01*
X9229587Y-12379484D02*
X9210539Y-12369960D01*
X9210539Y-12369960D02*
X9201015Y-12350912D01*
X9201015Y-12350912D02*
X9201015Y-12179484D01*
X9381968Y-12369960D02*
X9362920Y-12379484D01*
X9362920Y-12379484D02*
X9324825Y-12379484D01*
X9324825Y-12379484D02*
X9305777Y-12369960D01*
X9305777Y-12369960D02*
X9296253Y-12350912D01*
X9296253Y-12350912D02*
X9296253Y-12274722D01*
X9296253Y-12274722D02*
X9305777Y-12255674D01*
X9305777Y-12255674D02*
X9324825Y-12246150D01*
X9324825Y-12246150D02*
X9362920Y-12246150D01*
X9362920Y-12246150D02*
X9381968Y-12255674D01*
X9381968Y-12255674D02*
X9391492Y-12274722D01*
X9391492Y-12274722D02*
X9391492Y-12293769D01*
X9391492Y-12293769D02*
X9296253Y-12312817D01*
X9467682Y-12369960D02*
X9486730Y-12379484D01*
X9486730Y-12379484D02*
X9524825Y-12379484D01*
X9524825Y-12379484D02*
X9543873Y-12369960D01*
X9543873Y-12369960D02*
X9553396Y-12350912D01*
X9553396Y-12350912D02*
X9553396Y-12341388D01*
X9553396Y-12341388D02*
X9543873Y-12322341D01*
X9543873Y-12322341D02*
X9524825Y-12312817D01*
X9524825Y-12312817D02*
X9496253Y-12312817D01*
X9496253Y-12312817D02*
X9477206Y-12303293D01*
X9477206Y-12303293D02*
X9467682Y-12284246D01*
X9467682Y-12284246D02*
X9467682Y-12274722D01*
X9467682Y-12274722D02*
X9477206Y-12255674D01*
X9477206Y-12255674D02*
X9496253Y-12246150D01*
X9496253Y-12246150D02*
X9524825Y-12246150D01*
X9524825Y-12246150D02*
X9543873Y-12255674D01*
X9620063Y-12455674D02*
X9629587Y-12446150D01*
X9629587Y-12446150D02*
X9648634Y-12417579D01*
X9648634Y-12417579D02*
X9658158Y-12398531D01*
X9658158Y-12398531D02*
X9667682Y-12369960D01*
X9667682Y-12369960D02*
X9677206Y-12322341D01*
X9677206Y-12322341D02*
X9677206Y-12284246D01*
X9677206Y-12284246D02*
X9667682Y-12236627D01*
X9667682Y-12236627D02*
X9658158Y-12208055D01*
X9658158Y-12208055D02*
X9648634Y-12189008D01*
X9648634Y-12189008D02*
X9629587Y-12160436D01*
X9629587Y-12160436D02*
X9620063Y-12150912D01*
D10*
X4805000Y-12592000D02*
X4845000Y-12552000D01*
X4805000Y-12512000D01*
X4765000Y-12552000D01*
X4805000Y-12592000D01*
D12*
X5143872Y-12443484D02*
X5162920Y-12443484D01*
X5162920Y-12443484D02*
X5181967Y-12453008D01*
X5181967Y-12453008D02*
X5191491Y-12462531D01*
X5191491Y-12462531D02*
X5201015Y-12481579D01*
X5201015Y-12481579D02*
X5210539Y-12519674D01*
X5210539Y-12519674D02*
X5210539Y-12567293D01*
X5210539Y-12567293D02*
X5201015Y-12605388D01*
X5201015Y-12605388D02*
X5191491Y-12624436D01*
X5191491Y-12624436D02*
X5181967Y-12633960D01*
X5181967Y-12633960D02*
X5162920Y-12643484D01*
X5162920Y-12643484D02*
X5143872Y-12643484D01*
X5143872Y-12643484D02*
X5124824Y-12633960D01*
X5124824Y-12633960D02*
X5115301Y-12624436D01*
X5115301Y-12624436D02*
X5105777Y-12605388D01*
X5105777Y-12605388D02*
X5096253Y-12567293D01*
X5096253Y-12567293D02*
X5096253Y-12519674D01*
X5096253Y-12519674D02*
X5105777Y-12481579D01*
X5105777Y-12481579D02*
X5115301Y-12462531D01*
X5115301Y-12462531D02*
X5124824Y-12453008D01*
X5124824Y-12453008D02*
X5143872Y-12443484D01*
X5296253Y-12624436D02*
X5305777Y-12633960D01*
X5305777Y-12633960D02*
X5296253Y-12643484D01*
X5296253Y-12643484D02*
X5286729Y-12633960D01*
X5286729Y-12633960D02*
X5296253Y-12624436D01*
X5296253Y-12624436D02*
X5296253Y-12643484D01*
X5420063Y-12529198D02*
X5401015Y-12519674D01*
X5401015Y-12519674D02*
X5391491Y-12510150D01*
X5391491Y-12510150D02*
X5381967Y-12491103D01*
X5381967Y-12491103D02*
X5381967Y-12481579D01*
X5381967Y-12481579D02*
X5391491Y-12462531D01*
X5391491Y-12462531D02*
X5401015Y-12453008D01*
X5401015Y-12453008D02*
X5420063Y-12443484D01*
X5420063Y-12443484D02*
X5458158Y-12443484D01*
X5458158Y-12443484D02*
X5477205Y-12453008D01*
X5477205Y-12453008D02*
X5486729Y-12462531D01*
X5486729Y-12462531D02*
X5496253Y-12481579D01*
X5496253Y-12481579D02*
X5496253Y-12491103D01*
X5496253Y-12491103D02*
X5486729Y-12510150D01*
X5486729Y-12510150D02*
X5477205Y-12519674D01*
X5477205Y-12519674D02*
X5458158Y-12529198D01*
X5458158Y-12529198D02*
X5420063Y-12529198D01*
X5420063Y-12529198D02*
X5401015Y-12538722D01*
X5401015Y-12538722D02*
X5391491Y-12548246D01*
X5391491Y-12548246D02*
X5381967Y-12567293D01*
X5381967Y-12567293D02*
X5381967Y-12605388D01*
X5381967Y-12605388D02*
X5391491Y-12624436D01*
X5391491Y-12624436D02*
X5401015Y-12633960D01*
X5401015Y-12633960D02*
X5420063Y-12643484D01*
X5420063Y-12643484D02*
X5458158Y-12643484D01*
X5458158Y-12643484D02*
X5477205Y-12633960D01*
X5477205Y-12633960D02*
X5486729Y-12624436D01*
X5486729Y-12624436D02*
X5496253Y-12605388D01*
X5496253Y-12605388D02*
X5496253Y-12567293D01*
X5496253Y-12567293D02*
X5486729Y-12548246D01*
X5486729Y-12548246D02*
X5477205Y-12538722D01*
X5477205Y-12538722D02*
X5458158Y-12529198D01*
X5620062Y-12443484D02*
X5639110Y-12443484D01*
X5639110Y-12443484D02*
X5658158Y-12453008D01*
X5658158Y-12453008D02*
X5667682Y-12462531D01*
X5667682Y-12462531D02*
X5677205Y-12481579D01*
X5677205Y-12481579D02*
X5686729Y-12519674D01*
X5686729Y-12519674D02*
X5686729Y-12567293D01*
X5686729Y-12567293D02*
X5677205Y-12605388D01*
X5677205Y-12605388D02*
X5667682Y-12624436D01*
X5667682Y-12624436D02*
X5658158Y-12633960D01*
X5658158Y-12633960D02*
X5639110Y-12643484D01*
X5639110Y-12643484D02*
X5620062Y-12643484D01*
X5620062Y-12643484D02*
X5601015Y-12633960D01*
X5601015Y-12633960D02*
X5591491Y-12624436D01*
X5591491Y-12624436D02*
X5581967Y-12605388D01*
X5581967Y-12605388D02*
X5572444Y-12567293D01*
X5572444Y-12567293D02*
X5572444Y-12519674D01*
X5572444Y-12519674D02*
X5581967Y-12481579D01*
X5581967Y-12481579D02*
X5591491Y-12462531D01*
X5591491Y-12462531D02*
X5601015Y-12453008D01*
X5601015Y-12453008D02*
X5620062Y-12443484D01*
X5810539Y-12443484D02*
X5829586Y-12443484D01*
X5829586Y-12443484D02*
X5848634Y-12453008D01*
X5848634Y-12453008D02*
X5858158Y-12462531D01*
X5858158Y-12462531D02*
X5867682Y-12481579D01*
X5867682Y-12481579D02*
X5877205Y-12519674D01*
X5877205Y-12519674D02*
X5877205Y-12567293D01*
X5877205Y-12567293D02*
X5867682Y-12605388D01*
X5867682Y-12605388D02*
X5858158Y-12624436D01*
X5858158Y-12624436D02*
X5848634Y-12633960D01*
X5848634Y-12633960D02*
X5829586Y-12643484D01*
X5829586Y-12643484D02*
X5810539Y-12643484D01*
X5810539Y-12643484D02*
X5791491Y-12633960D01*
X5791491Y-12633960D02*
X5781967Y-12624436D01*
X5781967Y-12624436D02*
X5772443Y-12605388D01*
X5772443Y-12605388D02*
X5762920Y-12567293D01*
X5762920Y-12567293D02*
X5762920Y-12519674D01*
X5762920Y-12519674D02*
X5772443Y-12481579D01*
X5772443Y-12481579D02*
X5781967Y-12462531D01*
X5781967Y-12462531D02*
X5791491Y-12453008D01*
X5791491Y-12453008D02*
X5810539Y-12443484D01*
X5962920Y-12643484D02*
X5962920Y-12510150D01*
X5962920Y-12529198D02*
X5972443Y-12519674D01*
X5972443Y-12519674D02*
X5991491Y-12510150D01*
X5991491Y-12510150D02*
X6020063Y-12510150D01*
X6020063Y-12510150D02*
X6039110Y-12519674D01*
X6039110Y-12519674D02*
X6048634Y-12538722D01*
X6048634Y-12538722D02*
X6048634Y-12643484D01*
X6048634Y-12538722D02*
X6058158Y-12519674D01*
X6058158Y-12519674D02*
X6077205Y-12510150D01*
X6077205Y-12510150D02*
X6105777Y-12510150D01*
X6105777Y-12510150D02*
X6124824Y-12519674D01*
X6124824Y-12519674D02*
X6134348Y-12538722D01*
X6134348Y-12538722D02*
X6134348Y-12643484D01*
X6229586Y-12643484D02*
X6229586Y-12510150D01*
X6229586Y-12529198D02*
X6239110Y-12519674D01*
X6239110Y-12519674D02*
X6258158Y-12510150D01*
X6258158Y-12510150D02*
X6286729Y-12510150D01*
X6286729Y-12510150D02*
X6305777Y-12519674D01*
X6305777Y-12519674D02*
X6315301Y-12538722D01*
X6315301Y-12538722D02*
X6315301Y-12643484D01*
X6315301Y-12538722D02*
X6324824Y-12519674D01*
X6324824Y-12519674D02*
X6343872Y-12510150D01*
X6343872Y-12510150D02*
X6372443Y-12510150D01*
X6372443Y-12510150D02*
X6391491Y-12519674D01*
X6391491Y-12519674D02*
X6401015Y-12538722D01*
X6401015Y-12538722D02*
X6401015Y-12643484D01*
X6791491Y-12433960D02*
X6620063Y-12691103D01*
X7048634Y-12443484D02*
X7067682Y-12443484D01*
X7067682Y-12443484D02*
X7086729Y-12453008D01*
X7086729Y-12453008D02*
X7096253Y-12462531D01*
X7096253Y-12462531D02*
X7105777Y-12481579D01*
X7105777Y-12481579D02*
X7115301Y-12519674D01*
X7115301Y-12519674D02*
X7115301Y-12567293D01*
X7115301Y-12567293D02*
X7105777Y-12605388D01*
X7105777Y-12605388D02*
X7096253Y-12624436D01*
X7096253Y-12624436D02*
X7086729Y-12633960D01*
X7086729Y-12633960D02*
X7067682Y-12643484D01*
X7067682Y-12643484D02*
X7048634Y-12643484D01*
X7048634Y-12643484D02*
X7029586Y-12633960D01*
X7029586Y-12633960D02*
X7020063Y-12624436D01*
X7020063Y-12624436D02*
X7010539Y-12605388D01*
X7010539Y-12605388D02*
X7001015Y-12567293D01*
X7001015Y-12567293D02*
X7001015Y-12519674D01*
X7001015Y-12519674D02*
X7010539Y-12481579D01*
X7010539Y-12481579D02*
X7020063Y-12462531D01*
X7020063Y-12462531D02*
X7029586Y-12453008D01*
X7029586Y-12453008D02*
X7048634Y-12443484D01*
X7201015Y-12624436D02*
X7210539Y-12633960D01*
X7210539Y-12633960D02*
X7201015Y-12643484D01*
X7201015Y-12643484D02*
X7191491Y-12633960D01*
X7191491Y-12633960D02*
X7201015Y-12624436D01*
X7201015Y-12624436D02*
X7201015Y-12643484D01*
X7334348Y-12443484D02*
X7353396Y-12443484D01*
X7353396Y-12443484D02*
X7372444Y-12453008D01*
X7372444Y-12453008D02*
X7381967Y-12462531D01*
X7381967Y-12462531D02*
X7391491Y-12481579D01*
X7391491Y-12481579D02*
X7401015Y-12519674D01*
X7401015Y-12519674D02*
X7401015Y-12567293D01*
X7401015Y-12567293D02*
X7391491Y-12605388D01*
X7391491Y-12605388D02*
X7381967Y-12624436D01*
X7381967Y-12624436D02*
X7372444Y-12633960D01*
X7372444Y-12633960D02*
X7353396Y-12643484D01*
X7353396Y-12643484D02*
X7334348Y-12643484D01*
X7334348Y-12643484D02*
X7315301Y-12633960D01*
X7315301Y-12633960D02*
X7305777Y-12624436D01*
X7305777Y-12624436D02*
X7296253Y-12605388D01*
X7296253Y-12605388D02*
X7286729Y-12567293D01*
X7286729Y-12567293D02*
X7286729Y-12519674D01*
X7286729Y-12519674D02*
X7296253Y-12481579D01*
X7296253Y-12481579D02*
X7305777Y-12462531D01*
X7305777Y-12462531D02*
X7315301Y-12453008D01*
X7315301Y-12453008D02*
X7334348Y-12443484D01*
X7467682Y-12443484D02*
X7591491Y-12443484D01*
X7591491Y-12443484D02*
X7524825Y-12519674D01*
X7524825Y-12519674D02*
X7553396Y-12519674D01*
X7553396Y-12519674D02*
X7572444Y-12529198D01*
X7572444Y-12529198D02*
X7581967Y-12538722D01*
X7581967Y-12538722D02*
X7591491Y-12557769D01*
X7591491Y-12557769D02*
X7591491Y-12605388D01*
X7591491Y-12605388D02*
X7581967Y-12624436D01*
X7581967Y-12624436D02*
X7572444Y-12633960D01*
X7572444Y-12633960D02*
X7553396Y-12643484D01*
X7553396Y-12643484D02*
X7496253Y-12643484D01*
X7496253Y-12643484D02*
X7477206Y-12633960D01*
X7477206Y-12633960D02*
X7467682Y-12624436D01*
X7781967Y-12643484D02*
X7667682Y-12643484D01*
X7724825Y-12643484D02*
X7724825Y-12443484D01*
X7724825Y-12443484D02*
X7705777Y-12472055D01*
X7705777Y-12472055D02*
X7686729Y-12491103D01*
X7686729Y-12491103D02*
X7667682Y-12500627D01*
X7962920Y-12443484D02*
X7867682Y-12443484D01*
X7867682Y-12443484D02*
X7858158Y-12538722D01*
X7858158Y-12538722D02*
X7867682Y-12529198D01*
X7867682Y-12529198D02*
X7886729Y-12519674D01*
X7886729Y-12519674D02*
X7934348Y-12519674D01*
X7934348Y-12519674D02*
X7953396Y-12529198D01*
X7953396Y-12529198D02*
X7962920Y-12538722D01*
X7962920Y-12538722D02*
X7972444Y-12557769D01*
X7972444Y-12557769D02*
X7972444Y-12605388D01*
X7972444Y-12605388D02*
X7962920Y-12624436D01*
X7962920Y-12624436D02*
X7953396Y-12633960D01*
X7953396Y-12633960D02*
X7934348Y-12643484D01*
X7934348Y-12643484D02*
X7886729Y-12643484D01*
X7886729Y-12643484D02*
X7867682Y-12633960D01*
X7867682Y-12633960D02*
X7858158Y-12624436D01*
X8048634Y-12443484D02*
X8048634Y-12481579D01*
X8124825Y-12443484D02*
X8124825Y-12481579D01*
X8420063Y-12719674D02*
X8410539Y-12710150D01*
X8410539Y-12710150D02*
X8391491Y-12681579D01*
X8391491Y-12681579D02*
X8381968Y-12662531D01*
X8381968Y-12662531D02*
X8372444Y-12633960D01*
X8372444Y-12633960D02*
X8362920Y-12586341D01*
X8362920Y-12586341D02*
X8362920Y-12548246D01*
X8362920Y-12548246D02*
X8372444Y-12500627D01*
X8372444Y-12500627D02*
X8381968Y-12472055D01*
X8381968Y-12472055D02*
X8391491Y-12453008D01*
X8391491Y-12453008D02*
X8410539Y-12424436D01*
X8410539Y-12424436D02*
X8420063Y-12414912D01*
X8534349Y-12443484D02*
X8553396Y-12443484D01*
X8553396Y-12443484D02*
X8572444Y-12453008D01*
X8572444Y-12453008D02*
X8581968Y-12462531D01*
X8581968Y-12462531D02*
X8591491Y-12481579D01*
X8591491Y-12481579D02*
X8601015Y-12519674D01*
X8601015Y-12519674D02*
X8601015Y-12567293D01*
X8601015Y-12567293D02*
X8591491Y-12605388D01*
X8591491Y-12605388D02*
X8581968Y-12624436D01*
X8581968Y-12624436D02*
X8572444Y-12633960D01*
X8572444Y-12633960D02*
X8553396Y-12643484D01*
X8553396Y-12643484D02*
X8534349Y-12643484D01*
X8534349Y-12643484D02*
X8515301Y-12633960D01*
X8515301Y-12633960D02*
X8505777Y-12624436D01*
X8505777Y-12624436D02*
X8496253Y-12605388D01*
X8496253Y-12605388D02*
X8486730Y-12567293D01*
X8486730Y-12567293D02*
X8486730Y-12519674D01*
X8486730Y-12519674D02*
X8496253Y-12481579D01*
X8496253Y-12481579D02*
X8505777Y-12462531D01*
X8505777Y-12462531D02*
X8515301Y-12453008D01*
X8515301Y-12453008D02*
X8534349Y-12443484D01*
X8839111Y-12643484D02*
X8839111Y-12443484D01*
X8924825Y-12643484D02*
X8924825Y-12538722D01*
X8924825Y-12538722D02*
X8915301Y-12519674D01*
X8915301Y-12519674D02*
X8896253Y-12510150D01*
X8896253Y-12510150D02*
X8867682Y-12510150D01*
X8867682Y-12510150D02*
X8848634Y-12519674D01*
X8848634Y-12519674D02*
X8839111Y-12529198D01*
X9048634Y-12643484D02*
X9029587Y-12633960D01*
X9029587Y-12633960D02*
X9020063Y-12624436D01*
X9020063Y-12624436D02*
X9010539Y-12605388D01*
X9010539Y-12605388D02*
X9010539Y-12548246D01*
X9010539Y-12548246D02*
X9020063Y-12529198D01*
X9020063Y-12529198D02*
X9029587Y-12519674D01*
X9029587Y-12519674D02*
X9048634Y-12510150D01*
X9048634Y-12510150D02*
X9077206Y-12510150D01*
X9077206Y-12510150D02*
X9096253Y-12519674D01*
X9096253Y-12519674D02*
X9105777Y-12529198D01*
X9105777Y-12529198D02*
X9115301Y-12548246D01*
X9115301Y-12548246D02*
X9115301Y-12605388D01*
X9115301Y-12605388D02*
X9105777Y-12624436D01*
X9105777Y-12624436D02*
X9096253Y-12633960D01*
X9096253Y-12633960D02*
X9077206Y-12643484D01*
X9077206Y-12643484D02*
X9048634Y-12643484D01*
X9229587Y-12643484D02*
X9210539Y-12633960D01*
X9210539Y-12633960D02*
X9201015Y-12614912D01*
X9201015Y-12614912D02*
X9201015Y-12443484D01*
X9381968Y-12633960D02*
X9362920Y-12643484D01*
X9362920Y-12643484D02*
X9324825Y-12643484D01*
X9324825Y-12643484D02*
X9305777Y-12633960D01*
X9305777Y-12633960D02*
X9296253Y-12614912D01*
X9296253Y-12614912D02*
X9296253Y-12538722D01*
X9296253Y-12538722D02*
X9305777Y-12519674D01*
X9305777Y-12519674D02*
X9324825Y-12510150D01*
X9324825Y-12510150D02*
X9362920Y-12510150D01*
X9362920Y-12510150D02*
X9381968Y-12519674D01*
X9381968Y-12519674D02*
X9391492Y-12538722D01*
X9391492Y-12538722D02*
X9391492Y-12557769D01*
X9391492Y-12557769D02*
X9296253Y-12576817D01*
X9467682Y-12633960D02*
X9486730Y-12643484D01*
X9486730Y-12643484D02*
X9524825Y-12643484D01*
X9524825Y-12643484D02*
X9543873Y-12633960D01*
X9543873Y-12633960D02*
X9553396Y-12614912D01*
X9553396Y-12614912D02*
X9553396Y-12605388D01*
X9553396Y-12605388D02*
X9543873Y-12586341D01*
X9543873Y-12586341D02*
X9524825Y-12576817D01*
X9524825Y-12576817D02*
X9496253Y-12576817D01*
X9496253Y-12576817D02*
X9477206Y-12567293D01*
X9477206Y-12567293D02*
X9467682Y-12548246D01*
X9467682Y-12548246D02*
X9467682Y-12538722D01*
X9467682Y-12538722D02*
X9477206Y-12519674D01*
X9477206Y-12519674D02*
X9496253Y-12510150D01*
X9496253Y-12510150D02*
X9524825Y-12510150D01*
X9524825Y-12510150D02*
X9543873Y-12519674D01*
X9791492Y-12567293D02*
X9943873Y-12567293D01*
X9867682Y-12643484D02*
X9867682Y-12491103D01*
X10277206Y-12510150D02*
X10277206Y-12643484D01*
X10229587Y-12433960D02*
X10181968Y-12576817D01*
X10181968Y-12576817D02*
X10305777Y-12576817D01*
X10524825Y-12633960D02*
X10543873Y-12643484D01*
X10543873Y-12643484D02*
X10581968Y-12643484D01*
X10581968Y-12643484D02*
X10601016Y-12633960D01*
X10601016Y-12633960D02*
X10610539Y-12614912D01*
X10610539Y-12614912D02*
X10610539Y-12605388D01*
X10610539Y-12605388D02*
X10601016Y-12586341D01*
X10601016Y-12586341D02*
X10581968Y-12576817D01*
X10581968Y-12576817D02*
X10553396Y-12576817D01*
X10553396Y-12576817D02*
X10534349Y-12567293D01*
X10534349Y-12567293D02*
X10524825Y-12548246D01*
X10524825Y-12548246D02*
X10524825Y-12538722D01*
X10524825Y-12538722D02*
X10534349Y-12519674D01*
X10534349Y-12519674D02*
X10553396Y-12510150D01*
X10553396Y-12510150D02*
X10581968Y-12510150D01*
X10581968Y-12510150D02*
X10601016Y-12519674D01*
X10724825Y-12643484D02*
X10705777Y-12633960D01*
X10705777Y-12633960D02*
X10696254Y-12614912D01*
X10696254Y-12614912D02*
X10696254Y-12443484D01*
X10829587Y-12643484D02*
X10810539Y-12633960D01*
X10810539Y-12633960D02*
X10801016Y-12624436D01*
X10801016Y-12624436D02*
X10791492Y-12605388D01*
X10791492Y-12605388D02*
X10791492Y-12548246D01*
X10791492Y-12548246D02*
X10801016Y-12529198D01*
X10801016Y-12529198D02*
X10810539Y-12519674D01*
X10810539Y-12519674D02*
X10829587Y-12510150D01*
X10829587Y-12510150D02*
X10858158Y-12510150D01*
X10858158Y-12510150D02*
X10877206Y-12519674D01*
X10877206Y-12519674D02*
X10886730Y-12529198D01*
X10886730Y-12529198D02*
X10896254Y-12548246D01*
X10896254Y-12548246D02*
X10896254Y-12605388D01*
X10896254Y-12605388D02*
X10886730Y-12624436D01*
X10886730Y-12624436D02*
X10877206Y-12633960D01*
X10877206Y-12633960D02*
X10858158Y-12643484D01*
X10858158Y-12643484D02*
X10829587Y-12643484D01*
X10953397Y-12510150D02*
X11029587Y-12510150D01*
X10981968Y-12443484D02*
X10981968Y-12614912D01*
X10981968Y-12614912D02*
X10991492Y-12633960D01*
X10991492Y-12633960D02*
X11010539Y-12643484D01*
X11010539Y-12643484D02*
X11029587Y-12643484D01*
X11086730Y-12633960D02*
X11105777Y-12643484D01*
X11105777Y-12643484D02*
X11143873Y-12643484D01*
X11143873Y-12643484D02*
X11162920Y-12633960D01*
X11162920Y-12633960D02*
X11172444Y-12614912D01*
X11172444Y-12614912D02*
X11172444Y-12605388D01*
X11172444Y-12605388D02*
X11162920Y-12586341D01*
X11162920Y-12586341D02*
X11143873Y-12576817D01*
X11143873Y-12576817D02*
X11115301Y-12576817D01*
X11115301Y-12576817D02*
X11096254Y-12567293D01*
X11096254Y-12567293D02*
X11086730Y-12548246D01*
X11086730Y-12548246D02*
X11086730Y-12538722D01*
X11086730Y-12538722D02*
X11096254Y-12519674D01*
X11096254Y-12519674D02*
X11115301Y-12510150D01*
X11115301Y-12510150D02*
X11143873Y-12510150D01*
X11143873Y-12510150D02*
X11162920Y-12519674D01*
X11239111Y-12719674D02*
X11248635Y-12710150D01*
X11248635Y-12710150D02*
X11267682Y-12681579D01*
X11267682Y-12681579D02*
X11277206Y-12662531D01*
X11277206Y-12662531D02*
X11286730Y-12633960D01*
X11286730Y-12633960D02*
X11296254Y-12586341D01*
X11296254Y-12586341D02*
X11296254Y-12548246D01*
X11296254Y-12548246D02*
X11286730Y-12500627D01*
X11286730Y-12500627D02*
X11277206Y-12472055D01*
X11277206Y-12472055D02*
X11267682Y-12453008D01*
X11267682Y-12453008D02*
X11248635Y-12424436D01*
X11248635Y-12424436D02*
X11239111Y-12414912D01*
D10*
X4745000Y-12766000D02*
X4845000Y-12866000D01*
X4845000Y-12766000D02*
X4745000Y-12866000D01*
X4845000Y-12816000D02*
G75*
G02*
X4745000Y-12816000I-50000J0D01*
G01*
X4745000Y-12816000D02*
G75*
G02*
X4845000Y-12816000I50000J0D01*
G01*
D12*
X5210539Y-12907484D02*
X5096253Y-12907484D01*
X5153396Y-12907484D02*
X5153396Y-12707484D01*
X5153396Y-12707484D02*
X5134348Y-12736055D01*
X5134348Y-12736055D02*
X5115301Y-12755103D01*
X5115301Y-12755103D02*
X5096253Y-12764627D01*
X5296253Y-12888436D02*
X5305777Y-12897960D01*
X5305777Y-12897960D02*
X5296253Y-12907484D01*
X5296253Y-12907484D02*
X5286729Y-12897960D01*
X5286729Y-12897960D02*
X5296253Y-12888436D01*
X5296253Y-12888436D02*
X5296253Y-12907484D01*
X5429586Y-12707484D02*
X5448634Y-12707484D01*
X5448634Y-12707484D02*
X5467682Y-12717008D01*
X5467682Y-12717008D02*
X5477205Y-12726531D01*
X5477205Y-12726531D02*
X5486729Y-12745579D01*
X5486729Y-12745579D02*
X5496253Y-12783674D01*
X5496253Y-12783674D02*
X5496253Y-12831293D01*
X5496253Y-12831293D02*
X5486729Y-12869388D01*
X5486729Y-12869388D02*
X5477205Y-12888436D01*
X5477205Y-12888436D02*
X5467682Y-12897960D01*
X5467682Y-12897960D02*
X5448634Y-12907484D01*
X5448634Y-12907484D02*
X5429586Y-12907484D01*
X5429586Y-12907484D02*
X5410539Y-12897960D01*
X5410539Y-12897960D02*
X5401015Y-12888436D01*
X5401015Y-12888436D02*
X5391491Y-12869388D01*
X5391491Y-12869388D02*
X5381967Y-12831293D01*
X5381967Y-12831293D02*
X5381967Y-12783674D01*
X5381967Y-12783674D02*
X5391491Y-12745579D01*
X5391491Y-12745579D02*
X5401015Y-12726531D01*
X5401015Y-12726531D02*
X5410539Y-12717008D01*
X5410539Y-12717008D02*
X5429586Y-12707484D01*
X5620062Y-12707484D02*
X5639110Y-12707484D01*
X5639110Y-12707484D02*
X5658158Y-12717008D01*
X5658158Y-12717008D02*
X5667682Y-12726531D01*
X5667682Y-12726531D02*
X5677205Y-12745579D01*
X5677205Y-12745579D02*
X5686729Y-12783674D01*
X5686729Y-12783674D02*
X5686729Y-12831293D01*
X5686729Y-12831293D02*
X5677205Y-12869388D01*
X5677205Y-12869388D02*
X5667682Y-12888436D01*
X5667682Y-12888436D02*
X5658158Y-12897960D01*
X5658158Y-12897960D02*
X5639110Y-12907484D01*
X5639110Y-12907484D02*
X5620062Y-12907484D01*
X5620062Y-12907484D02*
X5601015Y-12897960D01*
X5601015Y-12897960D02*
X5591491Y-12888436D01*
X5591491Y-12888436D02*
X5581967Y-12869388D01*
X5581967Y-12869388D02*
X5572444Y-12831293D01*
X5572444Y-12831293D02*
X5572444Y-12783674D01*
X5572444Y-12783674D02*
X5581967Y-12745579D01*
X5581967Y-12745579D02*
X5591491Y-12726531D01*
X5591491Y-12726531D02*
X5601015Y-12717008D01*
X5601015Y-12717008D02*
X5620062Y-12707484D01*
X5810539Y-12707484D02*
X5829586Y-12707484D01*
X5829586Y-12707484D02*
X5848634Y-12717008D01*
X5848634Y-12717008D02*
X5858158Y-12726531D01*
X5858158Y-12726531D02*
X5867682Y-12745579D01*
X5867682Y-12745579D02*
X5877205Y-12783674D01*
X5877205Y-12783674D02*
X5877205Y-12831293D01*
X5877205Y-12831293D02*
X5867682Y-12869388D01*
X5867682Y-12869388D02*
X5858158Y-12888436D01*
X5858158Y-12888436D02*
X5848634Y-12897960D01*
X5848634Y-12897960D02*
X5829586Y-12907484D01*
X5829586Y-12907484D02*
X5810539Y-12907484D01*
X5810539Y-12907484D02*
X5791491Y-12897960D01*
X5791491Y-12897960D02*
X5781967Y-12888436D01*
X5781967Y-12888436D02*
X5772443Y-12869388D01*
X5772443Y-12869388D02*
X5762920Y-12831293D01*
X5762920Y-12831293D02*
X5762920Y-12783674D01*
X5762920Y-12783674D02*
X5772443Y-12745579D01*
X5772443Y-12745579D02*
X5781967Y-12726531D01*
X5781967Y-12726531D02*
X5791491Y-12717008D01*
X5791491Y-12717008D02*
X5810539Y-12707484D01*
X5962920Y-12907484D02*
X5962920Y-12774150D01*
X5962920Y-12793198D02*
X5972443Y-12783674D01*
X5972443Y-12783674D02*
X5991491Y-12774150D01*
X5991491Y-12774150D02*
X6020063Y-12774150D01*
X6020063Y-12774150D02*
X6039110Y-12783674D01*
X6039110Y-12783674D02*
X6048634Y-12802722D01*
X6048634Y-12802722D02*
X6048634Y-12907484D01*
X6048634Y-12802722D02*
X6058158Y-12783674D01*
X6058158Y-12783674D02*
X6077205Y-12774150D01*
X6077205Y-12774150D02*
X6105777Y-12774150D01*
X6105777Y-12774150D02*
X6124824Y-12783674D01*
X6124824Y-12783674D02*
X6134348Y-12802722D01*
X6134348Y-12802722D02*
X6134348Y-12907484D01*
X6229586Y-12907484D02*
X6229586Y-12774150D01*
X6229586Y-12793198D02*
X6239110Y-12783674D01*
X6239110Y-12783674D02*
X6258158Y-12774150D01*
X6258158Y-12774150D02*
X6286729Y-12774150D01*
X6286729Y-12774150D02*
X6305777Y-12783674D01*
X6305777Y-12783674D02*
X6315301Y-12802722D01*
X6315301Y-12802722D02*
X6315301Y-12907484D01*
X6315301Y-12802722D02*
X6324824Y-12783674D01*
X6324824Y-12783674D02*
X6343872Y-12774150D01*
X6343872Y-12774150D02*
X6372443Y-12774150D01*
X6372443Y-12774150D02*
X6391491Y-12783674D01*
X6391491Y-12783674D02*
X6401015Y-12802722D01*
X6401015Y-12802722D02*
X6401015Y-12907484D01*
X6791491Y-12697960D02*
X6620063Y-12955103D01*
X7048634Y-12707484D02*
X7067682Y-12707484D01*
X7067682Y-12707484D02*
X7086729Y-12717008D01*
X7086729Y-12717008D02*
X7096253Y-12726531D01*
X7096253Y-12726531D02*
X7105777Y-12745579D01*
X7105777Y-12745579D02*
X7115301Y-12783674D01*
X7115301Y-12783674D02*
X7115301Y-12831293D01*
X7115301Y-12831293D02*
X7105777Y-12869388D01*
X7105777Y-12869388D02*
X7096253Y-12888436D01*
X7096253Y-12888436D02*
X7086729Y-12897960D01*
X7086729Y-12897960D02*
X7067682Y-12907484D01*
X7067682Y-12907484D02*
X7048634Y-12907484D01*
X7048634Y-12907484D02*
X7029586Y-12897960D01*
X7029586Y-12897960D02*
X7020063Y-12888436D01*
X7020063Y-12888436D02*
X7010539Y-12869388D01*
X7010539Y-12869388D02*
X7001015Y-12831293D01*
X7001015Y-12831293D02*
X7001015Y-12783674D01*
X7001015Y-12783674D02*
X7010539Y-12745579D01*
X7010539Y-12745579D02*
X7020063Y-12726531D01*
X7020063Y-12726531D02*
X7029586Y-12717008D01*
X7029586Y-12717008D02*
X7048634Y-12707484D01*
X7201015Y-12888436D02*
X7210539Y-12897960D01*
X7210539Y-12897960D02*
X7201015Y-12907484D01*
X7201015Y-12907484D02*
X7191491Y-12897960D01*
X7191491Y-12897960D02*
X7201015Y-12888436D01*
X7201015Y-12888436D02*
X7201015Y-12907484D01*
X7334348Y-12707484D02*
X7353396Y-12707484D01*
X7353396Y-12707484D02*
X7372444Y-12717008D01*
X7372444Y-12717008D02*
X7381967Y-12726531D01*
X7381967Y-12726531D02*
X7391491Y-12745579D01*
X7391491Y-12745579D02*
X7401015Y-12783674D01*
X7401015Y-12783674D02*
X7401015Y-12831293D01*
X7401015Y-12831293D02*
X7391491Y-12869388D01*
X7391491Y-12869388D02*
X7381967Y-12888436D01*
X7381967Y-12888436D02*
X7372444Y-12897960D01*
X7372444Y-12897960D02*
X7353396Y-12907484D01*
X7353396Y-12907484D02*
X7334348Y-12907484D01*
X7334348Y-12907484D02*
X7315301Y-12897960D01*
X7315301Y-12897960D02*
X7305777Y-12888436D01*
X7305777Y-12888436D02*
X7296253Y-12869388D01*
X7296253Y-12869388D02*
X7286729Y-12831293D01*
X7286729Y-12831293D02*
X7286729Y-12783674D01*
X7286729Y-12783674D02*
X7296253Y-12745579D01*
X7296253Y-12745579D02*
X7305777Y-12726531D01*
X7305777Y-12726531D02*
X7315301Y-12717008D01*
X7315301Y-12717008D02*
X7334348Y-12707484D01*
X7467682Y-12707484D02*
X7591491Y-12707484D01*
X7591491Y-12707484D02*
X7524825Y-12783674D01*
X7524825Y-12783674D02*
X7553396Y-12783674D01*
X7553396Y-12783674D02*
X7572444Y-12793198D01*
X7572444Y-12793198D02*
X7581967Y-12802722D01*
X7581967Y-12802722D02*
X7591491Y-12821769D01*
X7591491Y-12821769D02*
X7591491Y-12869388D01*
X7591491Y-12869388D02*
X7581967Y-12888436D01*
X7581967Y-12888436D02*
X7572444Y-12897960D01*
X7572444Y-12897960D02*
X7553396Y-12907484D01*
X7553396Y-12907484D02*
X7496253Y-12907484D01*
X7496253Y-12907484D02*
X7477206Y-12897960D01*
X7477206Y-12897960D02*
X7467682Y-12888436D01*
X7686729Y-12907484D02*
X7724825Y-12907484D01*
X7724825Y-12907484D02*
X7743872Y-12897960D01*
X7743872Y-12897960D02*
X7753396Y-12888436D01*
X7753396Y-12888436D02*
X7772444Y-12859865D01*
X7772444Y-12859865D02*
X7781967Y-12821769D01*
X7781967Y-12821769D02*
X7781967Y-12745579D01*
X7781967Y-12745579D02*
X7772444Y-12726531D01*
X7772444Y-12726531D02*
X7762920Y-12717008D01*
X7762920Y-12717008D02*
X7743872Y-12707484D01*
X7743872Y-12707484D02*
X7705777Y-12707484D01*
X7705777Y-12707484D02*
X7686729Y-12717008D01*
X7686729Y-12717008D02*
X7677206Y-12726531D01*
X7677206Y-12726531D02*
X7667682Y-12745579D01*
X7667682Y-12745579D02*
X7667682Y-12793198D01*
X7667682Y-12793198D02*
X7677206Y-12812246D01*
X7677206Y-12812246D02*
X7686729Y-12821769D01*
X7686729Y-12821769D02*
X7705777Y-12831293D01*
X7705777Y-12831293D02*
X7743872Y-12831293D01*
X7743872Y-12831293D02*
X7762920Y-12821769D01*
X7762920Y-12821769D02*
X7772444Y-12812246D01*
X7772444Y-12812246D02*
X7781967Y-12793198D01*
X7953396Y-12774150D02*
X7953396Y-12907484D01*
X7905777Y-12697960D02*
X7858158Y-12840817D01*
X7858158Y-12840817D02*
X7981967Y-12840817D01*
X8048634Y-12707484D02*
X8048634Y-12745579D01*
X8124825Y-12707484D02*
X8124825Y-12745579D01*
X8420063Y-12983674D02*
X8410539Y-12974150D01*
X8410539Y-12974150D02*
X8391491Y-12945579D01*
X8391491Y-12945579D02*
X8381968Y-12926531D01*
X8381968Y-12926531D02*
X8372444Y-12897960D01*
X8372444Y-12897960D02*
X8362920Y-12850341D01*
X8362920Y-12850341D02*
X8362920Y-12812246D01*
X8362920Y-12812246D02*
X8372444Y-12764627D01*
X8372444Y-12764627D02*
X8381968Y-12736055D01*
X8381968Y-12736055D02*
X8391491Y-12717008D01*
X8391491Y-12717008D02*
X8410539Y-12688436D01*
X8410539Y-12688436D02*
X8420063Y-12678912D01*
X8601015Y-12907484D02*
X8486730Y-12907484D01*
X8543872Y-12907484D02*
X8543872Y-12707484D01*
X8543872Y-12707484D02*
X8524825Y-12736055D01*
X8524825Y-12736055D02*
X8505777Y-12755103D01*
X8505777Y-12755103D02*
X8486730Y-12764627D01*
X8677206Y-12726531D02*
X8686730Y-12717008D01*
X8686730Y-12717008D02*
X8705777Y-12707484D01*
X8705777Y-12707484D02*
X8753396Y-12707484D01*
X8753396Y-12707484D02*
X8772444Y-12717008D01*
X8772444Y-12717008D02*
X8781968Y-12726531D01*
X8781968Y-12726531D02*
X8791491Y-12745579D01*
X8791491Y-12745579D02*
X8791491Y-12764627D01*
X8791491Y-12764627D02*
X8781968Y-12793198D01*
X8781968Y-12793198D02*
X8667682Y-12907484D01*
X8667682Y-12907484D02*
X8791491Y-12907484D01*
X9029587Y-12907484D02*
X9029587Y-12707484D01*
X9115301Y-12907484D02*
X9115301Y-12802722D01*
X9115301Y-12802722D02*
X9105777Y-12783674D01*
X9105777Y-12783674D02*
X9086730Y-12774150D01*
X9086730Y-12774150D02*
X9058158Y-12774150D01*
X9058158Y-12774150D02*
X9039111Y-12783674D01*
X9039111Y-12783674D02*
X9029587Y-12793198D01*
X9239111Y-12907484D02*
X9220063Y-12897960D01*
X9220063Y-12897960D02*
X9210539Y-12888436D01*
X9210539Y-12888436D02*
X9201015Y-12869388D01*
X9201015Y-12869388D02*
X9201015Y-12812246D01*
X9201015Y-12812246D02*
X9210539Y-12793198D01*
X9210539Y-12793198D02*
X9220063Y-12783674D01*
X9220063Y-12783674D02*
X9239111Y-12774150D01*
X9239111Y-12774150D02*
X9267682Y-12774150D01*
X9267682Y-12774150D02*
X9286730Y-12783674D01*
X9286730Y-12783674D02*
X9296253Y-12793198D01*
X9296253Y-12793198D02*
X9305777Y-12812246D01*
X9305777Y-12812246D02*
X9305777Y-12869388D01*
X9305777Y-12869388D02*
X9296253Y-12888436D01*
X9296253Y-12888436D02*
X9286730Y-12897960D01*
X9286730Y-12897960D02*
X9267682Y-12907484D01*
X9267682Y-12907484D02*
X9239111Y-12907484D01*
X9420063Y-12907484D02*
X9401015Y-12897960D01*
X9401015Y-12897960D02*
X9391492Y-12878912D01*
X9391492Y-12878912D02*
X9391492Y-12707484D01*
X9572444Y-12897960D02*
X9553396Y-12907484D01*
X9553396Y-12907484D02*
X9515301Y-12907484D01*
X9515301Y-12907484D02*
X9496253Y-12897960D01*
X9496253Y-12897960D02*
X9486730Y-12878912D01*
X9486730Y-12878912D02*
X9486730Y-12802722D01*
X9486730Y-12802722D02*
X9496253Y-12783674D01*
X9496253Y-12783674D02*
X9515301Y-12774150D01*
X9515301Y-12774150D02*
X9553396Y-12774150D01*
X9553396Y-12774150D02*
X9572444Y-12783674D01*
X9572444Y-12783674D02*
X9581968Y-12802722D01*
X9581968Y-12802722D02*
X9581968Y-12821769D01*
X9581968Y-12821769D02*
X9486730Y-12840817D01*
X9658158Y-12897960D02*
X9677206Y-12907484D01*
X9677206Y-12907484D02*
X9715301Y-12907484D01*
X9715301Y-12907484D02*
X9734349Y-12897960D01*
X9734349Y-12897960D02*
X9743873Y-12878912D01*
X9743873Y-12878912D02*
X9743873Y-12869388D01*
X9743873Y-12869388D02*
X9734349Y-12850341D01*
X9734349Y-12850341D02*
X9715301Y-12840817D01*
X9715301Y-12840817D02*
X9686730Y-12840817D01*
X9686730Y-12840817D02*
X9667682Y-12831293D01*
X9667682Y-12831293D02*
X9658158Y-12812246D01*
X9658158Y-12812246D02*
X9658158Y-12802722D01*
X9658158Y-12802722D02*
X9667682Y-12783674D01*
X9667682Y-12783674D02*
X9686730Y-12774150D01*
X9686730Y-12774150D02*
X9715301Y-12774150D01*
X9715301Y-12774150D02*
X9734349Y-12783674D01*
X9810539Y-12983674D02*
X9820063Y-12974150D01*
X9820063Y-12974150D02*
X9839111Y-12945579D01*
X9839111Y-12945579D02*
X9848634Y-12926531D01*
X9848634Y-12926531D02*
X9858158Y-12897960D01*
X9858158Y-12897960D02*
X9867682Y-12850341D01*
X9867682Y-12850341D02*
X9867682Y-12812246D01*
X9867682Y-12812246D02*
X9858158Y-12764627D01*
X9858158Y-12764627D02*
X9848634Y-12736055D01*
X9848634Y-12736055D02*
X9839111Y-12717008D01*
X9839111Y-12717008D02*
X9820063Y-12688436D01*
X9820063Y-12688436D02*
X9810539Y-12678912D01*
D13*
X4743400Y-13029200D02*
X4845000Y-13130800D01*
X4845000Y-13029200D02*
X4743400Y-13130800D01*
X4794200Y-13029200D02*
X4794200Y-13130800D01*
X4743400Y-13080000D02*
X4845000Y-13080000D01*
D12*
X5210539Y-13171484D02*
X5096253Y-13171484D01*
X5153396Y-13171484D02*
X5153396Y-12971484D01*
X5153396Y-12971484D02*
X5134348Y-13000055D01*
X5134348Y-13000055D02*
X5115301Y-13019103D01*
X5115301Y-13019103D02*
X5096253Y-13028627D01*
X5296253Y-13152436D02*
X5305777Y-13161960D01*
X5305777Y-13161960D02*
X5296253Y-13171484D01*
X5296253Y-13171484D02*
X5286729Y-13161960D01*
X5286729Y-13161960D02*
X5296253Y-13152436D01*
X5296253Y-13152436D02*
X5296253Y-13171484D01*
X5429586Y-12971484D02*
X5448634Y-12971484D01*
X5448634Y-12971484D02*
X5467682Y-12981008D01*
X5467682Y-12981008D02*
X5477205Y-12990531D01*
X5477205Y-12990531D02*
X5486729Y-13009579D01*
X5486729Y-13009579D02*
X5496253Y-13047674D01*
X5496253Y-13047674D02*
X5496253Y-13095293D01*
X5496253Y-13095293D02*
X5486729Y-13133388D01*
X5486729Y-13133388D02*
X5477205Y-13152436D01*
X5477205Y-13152436D02*
X5467682Y-13161960D01*
X5467682Y-13161960D02*
X5448634Y-13171484D01*
X5448634Y-13171484D02*
X5429586Y-13171484D01*
X5429586Y-13171484D02*
X5410539Y-13161960D01*
X5410539Y-13161960D02*
X5401015Y-13152436D01*
X5401015Y-13152436D02*
X5391491Y-13133388D01*
X5391491Y-13133388D02*
X5381967Y-13095293D01*
X5381967Y-13095293D02*
X5381967Y-13047674D01*
X5381967Y-13047674D02*
X5391491Y-13009579D01*
X5391491Y-13009579D02*
X5401015Y-12990531D01*
X5401015Y-12990531D02*
X5410539Y-12981008D01*
X5410539Y-12981008D02*
X5429586Y-12971484D01*
X5686729Y-13171484D02*
X5572444Y-13171484D01*
X5629586Y-13171484D02*
X5629586Y-12971484D01*
X5629586Y-12971484D02*
X5610539Y-13000055D01*
X5610539Y-13000055D02*
X5591491Y-13019103D01*
X5591491Y-13019103D02*
X5572444Y-13028627D01*
X5858158Y-12971484D02*
X5820062Y-12971484D01*
X5820062Y-12971484D02*
X5801015Y-12981008D01*
X5801015Y-12981008D02*
X5791491Y-12990531D01*
X5791491Y-12990531D02*
X5772443Y-13019103D01*
X5772443Y-13019103D02*
X5762920Y-13057198D01*
X5762920Y-13057198D02*
X5762920Y-13133388D01*
X5762920Y-13133388D02*
X5772443Y-13152436D01*
X5772443Y-13152436D02*
X5781967Y-13161960D01*
X5781967Y-13161960D02*
X5801015Y-13171484D01*
X5801015Y-13171484D02*
X5839110Y-13171484D01*
X5839110Y-13171484D02*
X5858158Y-13161960D01*
X5858158Y-13161960D02*
X5867682Y-13152436D01*
X5867682Y-13152436D02*
X5877205Y-13133388D01*
X5877205Y-13133388D02*
X5877205Y-13085769D01*
X5877205Y-13085769D02*
X5867682Y-13066722D01*
X5867682Y-13066722D02*
X5858158Y-13057198D01*
X5858158Y-13057198D02*
X5839110Y-13047674D01*
X5839110Y-13047674D02*
X5801015Y-13047674D01*
X5801015Y-13047674D02*
X5781967Y-13057198D01*
X5781967Y-13057198D02*
X5772443Y-13066722D01*
X5772443Y-13066722D02*
X5762920Y-13085769D01*
X5962920Y-13171484D02*
X5962920Y-13038150D01*
X5962920Y-13057198D02*
X5972443Y-13047674D01*
X5972443Y-13047674D02*
X5991491Y-13038150D01*
X5991491Y-13038150D02*
X6020063Y-13038150D01*
X6020063Y-13038150D02*
X6039110Y-13047674D01*
X6039110Y-13047674D02*
X6048634Y-13066722D01*
X6048634Y-13066722D02*
X6048634Y-13171484D01*
X6048634Y-13066722D02*
X6058158Y-13047674D01*
X6058158Y-13047674D02*
X6077205Y-13038150D01*
X6077205Y-13038150D02*
X6105777Y-13038150D01*
X6105777Y-13038150D02*
X6124824Y-13047674D01*
X6124824Y-13047674D02*
X6134348Y-13066722D01*
X6134348Y-13066722D02*
X6134348Y-13171484D01*
X6229586Y-13171484D02*
X6229586Y-13038150D01*
X6229586Y-13057198D02*
X6239110Y-13047674D01*
X6239110Y-13047674D02*
X6258158Y-13038150D01*
X6258158Y-13038150D02*
X6286729Y-13038150D01*
X6286729Y-13038150D02*
X6305777Y-13047674D01*
X6305777Y-13047674D02*
X6315301Y-13066722D01*
X6315301Y-13066722D02*
X6315301Y-13171484D01*
X6315301Y-13066722D02*
X6324824Y-13047674D01*
X6324824Y-13047674D02*
X6343872Y-13038150D01*
X6343872Y-13038150D02*
X6372443Y-13038150D01*
X6372443Y-13038150D02*
X6391491Y-13047674D01*
X6391491Y-13047674D02*
X6401015Y-13066722D01*
X6401015Y-13066722D02*
X6401015Y-13171484D01*
X6791491Y-12961960D02*
X6620063Y-13219103D01*
X7048634Y-12971484D02*
X7067682Y-12971484D01*
X7067682Y-12971484D02*
X7086729Y-12981008D01*
X7086729Y-12981008D02*
X7096253Y-12990531D01*
X7096253Y-12990531D02*
X7105777Y-13009579D01*
X7105777Y-13009579D02*
X7115301Y-13047674D01*
X7115301Y-13047674D02*
X7115301Y-13095293D01*
X7115301Y-13095293D02*
X7105777Y-13133388D01*
X7105777Y-13133388D02*
X7096253Y-13152436D01*
X7096253Y-13152436D02*
X7086729Y-13161960D01*
X7086729Y-13161960D02*
X7067682Y-13171484D01*
X7067682Y-13171484D02*
X7048634Y-13171484D01*
X7048634Y-13171484D02*
X7029586Y-13161960D01*
X7029586Y-13161960D02*
X7020063Y-13152436D01*
X7020063Y-13152436D02*
X7010539Y-13133388D01*
X7010539Y-13133388D02*
X7001015Y-13095293D01*
X7001015Y-13095293D02*
X7001015Y-13047674D01*
X7001015Y-13047674D02*
X7010539Y-13009579D01*
X7010539Y-13009579D02*
X7020063Y-12990531D01*
X7020063Y-12990531D02*
X7029586Y-12981008D01*
X7029586Y-12981008D02*
X7048634Y-12971484D01*
X7201015Y-13152436D02*
X7210539Y-13161960D01*
X7210539Y-13161960D02*
X7201015Y-13171484D01*
X7201015Y-13171484D02*
X7191491Y-13161960D01*
X7191491Y-13161960D02*
X7201015Y-13152436D01*
X7201015Y-13152436D02*
X7201015Y-13171484D01*
X7334348Y-12971484D02*
X7353396Y-12971484D01*
X7353396Y-12971484D02*
X7372444Y-12981008D01*
X7372444Y-12981008D02*
X7381967Y-12990531D01*
X7381967Y-12990531D02*
X7391491Y-13009579D01*
X7391491Y-13009579D02*
X7401015Y-13047674D01*
X7401015Y-13047674D02*
X7401015Y-13095293D01*
X7401015Y-13095293D02*
X7391491Y-13133388D01*
X7391491Y-13133388D02*
X7381967Y-13152436D01*
X7381967Y-13152436D02*
X7372444Y-13161960D01*
X7372444Y-13161960D02*
X7353396Y-13171484D01*
X7353396Y-13171484D02*
X7334348Y-13171484D01*
X7334348Y-13171484D02*
X7315301Y-13161960D01*
X7315301Y-13161960D02*
X7305777Y-13152436D01*
X7305777Y-13152436D02*
X7296253Y-13133388D01*
X7296253Y-13133388D02*
X7286729Y-13095293D01*
X7286729Y-13095293D02*
X7286729Y-13047674D01*
X7286729Y-13047674D02*
X7296253Y-13009579D01*
X7296253Y-13009579D02*
X7305777Y-12990531D01*
X7305777Y-12990531D02*
X7315301Y-12981008D01*
X7315301Y-12981008D02*
X7334348Y-12971484D01*
X7572444Y-13038150D02*
X7572444Y-13171484D01*
X7524825Y-12961960D02*
X7477206Y-13104817D01*
X7477206Y-13104817D02*
X7601015Y-13104817D01*
X7715301Y-12971484D02*
X7734348Y-12971484D01*
X7734348Y-12971484D02*
X7753396Y-12981008D01*
X7753396Y-12981008D02*
X7762920Y-12990531D01*
X7762920Y-12990531D02*
X7772444Y-13009579D01*
X7772444Y-13009579D02*
X7781967Y-13047674D01*
X7781967Y-13047674D02*
X7781967Y-13095293D01*
X7781967Y-13095293D02*
X7772444Y-13133388D01*
X7772444Y-13133388D02*
X7762920Y-13152436D01*
X7762920Y-13152436D02*
X7753396Y-13161960D01*
X7753396Y-13161960D02*
X7734348Y-13171484D01*
X7734348Y-13171484D02*
X7715301Y-13171484D01*
X7715301Y-13171484D02*
X7696253Y-13161960D01*
X7696253Y-13161960D02*
X7686729Y-13152436D01*
X7686729Y-13152436D02*
X7677206Y-13133388D01*
X7677206Y-13133388D02*
X7667682Y-13095293D01*
X7667682Y-13095293D02*
X7667682Y-13047674D01*
X7667682Y-13047674D02*
X7677206Y-13009579D01*
X7677206Y-13009579D02*
X7686729Y-12990531D01*
X7686729Y-12990531D02*
X7696253Y-12981008D01*
X7696253Y-12981008D02*
X7715301Y-12971484D01*
X7905777Y-12971484D02*
X7924825Y-12971484D01*
X7924825Y-12971484D02*
X7943872Y-12981008D01*
X7943872Y-12981008D02*
X7953396Y-12990531D01*
X7953396Y-12990531D02*
X7962920Y-13009579D01*
X7962920Y-13009579D02*
X7972444Y-13047674D01*
X7972444Y-13047674D02*
X7972444Y-13095293D01*
X7972444Y-13095293D02*
X7962920Y-13133388D01*
X7962920Y-13133388D02*
X7953396Y-13152436D01*
X7953396Y-13152436D02*
X7943872Y-13161960D01*
X7943872Y-13161960D02*
X7924825Y-13171484D01*
X7924825Y-13171484D02*
X7905777Y-13171484D01*
X7905777Y-13171484D02*
X7886729Y-13161960D01*
X7886729Y-13161960D02*
X7877206Y-13152436D01*
X7877206Y-13152436D02*
X7867682Y-13133388D01*
X7867682Y-13133388D02*
X7858158Y-13095293D01*
X7858158Y-13095293D02*
X7858158Y-13047674D01*
X7858158Y-13047674D02*
X7867682Y-13009579D01*
X7867682Y-13009579D02*
X7877206Y-12990531D01*
X7877206Y-12990531D02*
X7886729Y-12981008D01*
X7886729Y-12981008D02*
X7905777Y-12971484D01*
X8048634Y-12971484D02*
X8048634Y-13009579D01*
X8124825Y-12971484D02*
X8124825Y-13009579D01*
X8420063Y-13247674D02*
X8410539Y-13238150D01*
X8410539Y-13238150D02*
X8391491Y-13209579D01*
X8391491Y-13209579D02*
X8381968Y-13190531D01*
X8381968Y-13190531D02*
X8372444Y-13161960D01*
X8372444Y-13161960D02*
X8362920Y-13114341D01*
X8362920Y-13114341D02*
X8362920Y-13076246D01*
X8362920Y-13076246D02*
X8372444Y-13028627D01*
X8372444Y-13028627D02*
X8381968Y-13000055D01*
X8381968Y-13000055D02*
X8391491Y-12981008D01*
X8391491Y-12981008D02*
X8410539Y-12952436D01*
X8410539Y-12952436D02*
X8420063Y-12942912D01*
X8581968Y-13038150D02*
X8581968Y-13171484D01*
X8534349Y-12961960D02*
X8486730Y-13104817D01*
X8486730Y-13104817D02*
X8610539Y-13104817D01*
X8724825Y-12971484D02*
X8743872Y-12971484D01*
X8743872Y-12971484D02*
X8762920Y-12981008D01*
X8762920Y-12981008D02*
X8772444Y-12990531D01*
X8772444Y-12990531D02*
X8781968Y-13009579D01*
X8781968Y-13009579D02*
X8791491Y-13047674D01*
X8791491Y-13047674D02*
X8791491Y-13095293D01*
X8791491Y-13095293D02*
X8781968Y-13133388D01*
X8781968Y-13133388D02*
X8772444Y-13152436D01*
X8772444Y-13152436D02*
X8762920Y-13161960D01*
X8762920Y-13161960D02*
X8743872Y-13171484D01*
X8743872Y-13171484D02*
X8724825Y-13171484D01*
X8724825Y-13171484D02*
X8705777Y-13161960D01*
X8705777Y-13161960D02*
X8696253Y-13152436D01*
X8696253Y-13152436D02*
X8686730Y-13133388D01*
X8686730Y-13133388D02*
X8677206Y-13095293D01*
X8677206Y-13095293D02*
X8677206Y-13047674D01*
X8677206Y-13047674D02*
X8686730Y-13009579D01*
X8686730Y-13009579D02*
X8696253Y-12990531D01*
X8696253Y-12990531D02*
X8705777Y-12981008D01*
X8705777Y-12981008D02*
X8724825Y-12971484D01*
X9029587Y-13171484D02*
X9029587Y-12971484D01*
X9115301Y-13171484D02*
X9115301Y-13066722D01*
X9115301Y-13066722D02*
X9105777Y-13047674D01*
X9105777Y-13047674D02*
X9086730Y-13038150D01*
X9086730Y-13038150D02*
X9058158Y-13038150D01*
X9058158Y-13038150D02*
X9039111Y-13047674D01*
X9039111Y-13047674D02*
X9029587Y-13057198D01*
X9239111Y-13171484D02*
X9220063Y-13161960D01*
X9220063Y-13161960D02*
X9210539Y-13152436D01*
X9210539Y-13152436D02*
X9201015Y-13133388D01*
X9201015Y-13133388D02*
X9201015Y-13076246D01*
X9201015Y-13076246D02*
X9210539Y-13057198D01*
X9210539Y-13057198D02*
X9220063Y-13047674D01*
X9220063Y-13047674D02*
X9239111Y-13038150D01*
X9239111Y-13038150D02*
X9267682Y-13038150D01*
X9267682Y-13038150D02*
X9286730Y-13047674D01*
X9286730Y-13047674D02*
X9296253Y-13057198D01*
X9296253Y-13057198D02*
X9305777Y-13076246D01*
X9305777Y-13076246D02*
X9305777Y-13133388D01*
X9305777Y-13133388D02*
X9296253Y-13152436D01*
X9296253Y-13152436D02*
X9286730Y-13161960D01*
X9286730Y-13161960D02*
X9267682Y-13171484D01*
X9267682Y-13171484D02*
X9239111Y-13171484D01*
X9420063Y-13171484D02*
X9401015Y-13161960D01*
X9401015Y-13161960D02*
X9391492Y-13142912D01*
X9391492Y-13142912D02*
X9391492Y-12971484D01*
X9572444Y-13161960D02*
X9553396Y-13171484D01*
X9553396Y-13171484D02*
X9515301Y-13171484D01*
X9515301Y-13171484D02*
X9496253Y-13161960D01*
X9496253Y-13161960D02*
X9486730Y-13142912D01*
X9486730Y-13142912D02*
X9486730Y-13066722D01*
X9486730Y-13066722D02*
X9496253Y-13047674D01*
X9496253Y-13047674D02*
X9515301Y-13038150D01*
X9515301Y-13038150D02*
X9553396Y-13038150D01*
X9553396Y-13038150D02*
X9572444Y-13047674D01*
X9572444Y-13047674D02*
X9581968Y-13066722D01*
X9581968Y-13066722D02*
X9581968Y-13085769D01*
X9581968Y-13085769D02*
X9486730Y-13104817D01*
X9658158Y-13161960D02*
X9677206Y-13171484D01*
X9677206Y-13171484D02*
X9715301Y-13171484D01*
X9715301Y-13171484D02*
X9734349Y-13161960D01*
X9734349Y-13161960D02*
X9743873Y-13142912D01*
X9743873Y-13142912D02*
X9743873Y-13133388D01*
X9743873Y-13133388D02*
X9734349Y-13114341D01*
X9734349Y-13114341D02*
X9715301Y-13104817D01*
X9715301Y-13104817D02*
X9686730Y-13104817D01*
X9686730Y-13104817D02*
X9667682Y-13095293D01*
X9667682Y-13095293D02*
X9658158Y-13076246D01*
X9658158Y-13076246D02*
X9658158Y-13066722D01*
X9658158Y-13066722D02*
X9667682Y-13047674D01*
X9667682Y-13047674D02*
X9686730Y-13038150D01*
X9686730Y-13038150D02*
X9715301Y-13038150D01*
X9715301Y-13038150D02*
X9734349Y-13047674D01*
X9810539Y-13247674D02*
X9820063Y-13238150D01*
X9820063Y-13238150D02*
X9839111Y-13209579D01*
X9839111Y-13209579D02*
X9848634Y-13190531D01*
X9848634Y-13190531D02*
X9858158Y-13161960D01*
X9858158Y-13161960D02*
X9867682Y-13114341D01*
X9867682Y-13114341D02*
X9867682Y-13076246D01*
X9867682Y-13076246D02*
X9858158Y-13028627D01*
X9858158Y-13028627D02*
X9848634Y-13000055D01*
X9848634Y-13000055D02*
X9839111Y-12981008D01*
X9839111Y-12981008D02*
X9820063Y-12952436D01*
X9820063Y-12952436D02*
X9810539Y-12942912D01*
M02*
