%TF.GenerationSoftware,KiCad,Pcbnew,8.0.4+1*%
%TF.CreationDate,2024-10-14T18:24:08+00:00*%
%TF.ProjectId,pedalboard-soundcard,70656461-6c62-46f6-9172-642d736f756e,0.0.1*%
%TF.SameCoordinates,Original*%
%TF.FileFunction,Copper,L2,Bot*%
%TF.FilePolarity,Positive*%
%FSLAX46Y46*%
G04 Gerber Fmt 4.6, Leading zero omitted, Abs format (unit mm)*
G04 Created by KiCad (PCBNEW 8.0.4+1) date 2024-10-14 18:24:08*
%MOMM*%
%LPD*%
G01*
G04 APERTURE LIST*
%TA.AperFunction,ComponentPad*%
%ADD10R,1.727200X1.727200*%
%TD*%
%TA.AperFunction,ComponentPad*%
%ADD11O,1.727200X1.727200*%
%TD*%
%TA.AperFunction,ComponentPad*%
%ADD12O,1.200000X2.200000*%
%TD*%
%TA.AperFunction,ComponentPad*%
%ADD13O,1.600000X2.300000*%
%TD*%
%TA.AperFunction,ComponentPad*%
%ADD14O,2.200000X1.200000*%
%TD*%
%TA.AperFunction,ComponentPad*%
%ADD15O,1.600000X2.500000*%
%TD*%
%TA.AperFunction,ComponentPad*%
%ADD16C,0.500000*%
%TD*%
%TA.AperFunction,SMDPad,CuDef*%
%ADD17R,3.100000X3.100000*%
%TD*%
%TA.AperFunction,ComponentPad*%
%ADD18R,1.700000X1.700000*%
%TD*%
%TA.AperFunction,ComponentPad*%
%ADD19O,1.700000X1.700000*%
%TD*%
%TA.AperFunction,ViaPad*%
%ADD20C,0.600000*%
%TD*%
%TA.AperFunction,ViaPad*%
%ADD21C,1.000000*%
%TD*%
%TA.AperFunction,Conductor*%
%ADD22C,0.250000*%
%TD*%
%TA.AperFunction,Conductor*%
%ADD23C,1.000000*%
%TD*%
%TA.AperFunction,Conductor*%
%ADD24C,0.500000*%
%TD*%
%TA.AperFunction,Conductor*%
%ADD25C,0.600000*%
%TD*%
G04 APERTURE END LIST*
D10*
%TO.P,J1,1,3.3V*%
%TO.N,unconnected-(J1-3.3V-Pad1)*%
X56870000Y-57270000D03*
D11*
%TO.P,J1,2,5V*%
%TO.N,+5V*%
X56870000Y-54730000D03*
%TO.P,J1,3,BCM2_SDA*%
%TO.N,sda*%
X59410000Y-57270000D03*
%TO.P,J1,4,5V*%
%TO.N,+5V*%
X59410000Y-54730000D03*
%TO.P,J1,5,BCM3_SCL*%
%TO.N,scl*%
X61950000Y-57270000D03*
%TO.P,J1,6,GND*%
%TO.N,GND*%
X61950000Y-54730000D03*
%TO.P,J1,7,BCM4_GPCLK0*%
%TO.N,unconnected-(J1-BCM4_GPCLK0-Pad7)*%
X64490000Y-57270000D03*
%TO.P,J1,8,BCM14_TXD*%
%TO.N,unconnected-(J1-BCM14_TXD-Pad8)*%
X64490000Y-54730000D03*
%TO.P,J1,9,GND*%
%TO.N,GND*%
X67030000Y-57270000D03*
%TO.P,J1,10,BCM15_RXD*%
%TO.N,unconnected-(J1-BCM15_RXD-Pad10)*%
X67030000Y-54730000D03*
%TO.P,J1,11,BCM17*%
%TO.N,unconnected-(J1-BCM17-Pad11)*%
X69570000Y-57270000D03*
%TO.P,J1,12,BCM18_PCM_C*%
%TO.N,pcm_clk*%
X69570000Y-54730000D03*
%TO.P,J1,13,BCM27*%
%TO.N,unconnected-(J1-BCM27-Pad13)*%
X72110000Y-57270000D03*
%TO.P,J1,14,GND*%
%TO.N,GND*%
X72110000Y-54730000D03*
%TO.P,J1,15,BCM22*%
%TO.N,unconnected-(J1-BCM22-Pad15)*%
X74650000Y-57270000D03*
%TO.P,J1,16,BCM23*%
%TO.N,unconnected-(J1-BCM23-Pad16)*%
X74650000Y-54730000D03*
%TO.P,J1,17,3.3V*%
%TO.N,unconnected-(J1-3.3V-Pad17)*%
X77190000Y-57270000D03*
%TO.P,J1,18,BCM24*%
%TO.N,unconnected-(J1-BCM24-Pad18)*%
X77190000Y-54730000D03*
%TO.P,J1,19,BCM10_MOSI*%
%TO.N,unconnected-(J1-BCM10_MOSI-Pad19)*%
X79730000Y-57270000D03*
%TO.P,J1,20,GND*%
%TO.N,GND*%
X79730000Y-54730000D03*
%TO.P,J1,21,BCM9_MISO*%
%TO.N,unconnected-(J1-BCM9_MISO-Pad21)*%
X82270000Y-57270000D03*
%TO.P,J1,22,BCM25*%
%TO.N,unconnected-(J1-BCM25-Pad22)*%
X82270000Y-54730000D03*
%TO.P,J1,23,BCM11_SCLK*%
%TO.N,unconnected-(J1-BCM11_SCLK-Pad23)*%
X84810000Y-57270000D03*
%TO.P,J1,24,BCM8_CE0*%
%TO.N,unconnected-(J1-BCM8_CE0-Pad24)*%
X84810000Y-54730000D03*
%TO.P,J1,25,GND*%
%TO.N,GND*%
X87350000Y-57270000D03*
%TO.P,J1,26,BCM7_CE1*%
%TO.N,unconnected-(J1-BCM7_CE1-Pad26)*%
X87350000Y-54730000D03*
%TO.P,J1,27,BCM0_ID_SD*%
%TO.N,/ID_SD*%
X89890000Y-57270000D03*
%TO.P,J1,28,BCM1_ID_SC*%
%TO.N,/ID_SC*%
X89890000Y-54730000D03*
%TO.P,J1,29,BCM5*%
%TO.N,unconnected-(J1-BCM5-Pad29)*%
X92430000Y-57270000D03*
%TO.P,J1,30,GND*%
%TO.N,GND*%
X92430000Y-54730000D03*
%TO.P,J1,31,BCM6*%
%TO.N,unconnected-(J1-BCM6-Pad31)*%
X94970000Y-57270000D03*
%TO.P,J1,32,BCM12_PWM0*%
%TO.N,unconnected-(J1-BCM12_PWM0-Pad32)*%
X94970000Y-54730000D03*
%TO.P,J1,33,BCM13_PWM1*%
%TO.N,unconnected-(J1-BCM13_PWM1-Pad33)*%
X97510000Y-57270000D03*
%TO.P,J1,34,GND*%
%TO.N,GND*%
X97510000Y-54730000D03*
%TO.P,J1,35,BCM19_MISO_PCM_FS*%
%TO.N,pcm_fs*%
X100050000Y-57270000D03*
%TO.P,J1,36,BCM16*%
%TO.N,unconnected-(J1-BCM16-Pad36)*%
X100050000Y-54730000D03*
%TO.P,J1,37,BCM26*%
%TO.N,unconnected-(J1-BCM26-Pad37)*%
X102590000Y-57270000D03*
%TO.P,J1,38,BCM20_MOSI_PCM_DI*%
%TO.N,DOUT*%
X102590000Y-54730000D03*
%TO.P,J1,39,GND*%
%TO.N,GND*%
X105130000Y-57270000D03*
%TO.P,J1,40,BCM21_SCLK_PCM_DO*%
%TO.N,Net-(J1-BCM21_SCLK_PCM_DO)*%
X105130000Y-54730000D03*
%TD*%
D12*
%TO.P,J4,R*%
%TO.N,/ADC/inr+*%
X60940000Y-99000000D03*
D13*
%TO.P,J4,RN*%
%TO.N,unconnected-(J4-PadRN)*%
X63440000Y-99000000D03*
D14*
%TO.P,J4,S*%
%TO.N,GND*%
X65940000Y-104000000D03*
D12*
%TO.P,J4,T*%
%TO.N,/ADC/inl+*%
X70940000Y-99000000D03*
D15*
%TO.P,J4,TN*%
%TO.N,unconnected-(J4-PadTN)*%
X68440000Y-99000000D03*
%TD*%
D16*
%TO.P,U6,33,EPAD*%
%TO.N,GND*%
X92950000Y-93077000D03*
X93816667Y-93077000D03*
X94683333Y-93077000D03*
X95550000Y-93077000D03*
X92950000Y-92210333D03*
X93816667Y-92210333D03*
X94683333Y-92210333D03*
X95550000Y-92210333D03*
D17*
X94250000Y-91777000D03*
D16*
X92950000Y-91343667D03*
X93816667Y-91343667D03*
X94683333Y-91343667D03*
X95550000Y-91343667D03*
X92950000Y-90477000D03*
X93816667Y-90477000D03*
X94683333Y-90477000D03*
X95550000Y-90477000D03*
%TD*%
D12*
%TO.P,J5,R*%
%TO.N,/DAC/outr+*%
X80100000Y-99000000D03*
D13*
%TO.P,J5,RN*%
%TO.N,unconnected-(J5-PadRN)*%
X82600000Y-99000000D03*
D14*
%TO.P,J5,S*%
%TO.N,GND*%
X85100000Y-104000000D03*
D12*
%TO.P,J5,T*%
%TO.N,/DAC/outl+*%
X90100000Y-99000000D03*
D15*
%TO.P,J5,TN*%
%TO.N,unconnected-(J5-PadTN)*%
X87600000Y-99000000D03*
%TD*%
D18*
%TO.P,J3,1,Pin_1*%
%TO.N,/ADC/inr-*%
X63340000Y-93580000D03*
D19*
%TO.P,J3,2,Pin_2*%
%TO.N,/ADC/inr+*%
X63340000Y-91040000D03*
%TO.P,J3,3,Pin_3*%
%TO.N,GND*%
X65880000Y-93580000D03*
%TO.P,J3,4,Pin_4*%
X65880000Y-91040000D03*
%TO.P,J3,5,Pin_5*%
%TO.N,/ADC/inl+*%
X68420000Y-93580000D03*
%TO.P,J3,6,Pin_6*%
%TO.N,/ADC/inl-*%
X68420000Y-91040000D03*
%TD*%
D18*
%TO.P,J2,1,Pin_1*%
%TO.N,/DAC/outr-*%
X107650000Y-89400000D03*
D19*
%TO.P,J2,2,Pin_2*%
%TO.N,/DAC/outr+*%
X110190000Y-89400000D03*
%TO.P,J2,3,Pin_3*%
%TO.N,GND*%
X107650000Y-91940000D03*
%TO.P,J2,4,Pin_4*%
X110190000Y-91940000D03*
%TO.P,J2,5,Pin_5*%
%TO.N,/DAC/outl-*%
X107650000Y-94480000D03*
%TO.P,J2,6,Pin_6*%
%TO.N,/DAC/outl+*%
X110190000Y-94480000D03*
%TD*%
D20*
%TO.N,GND*%
X104440000Y-84980000D03*
X100750000Y-88440000D03*
X92500000Y-100330000D03*
X87800000Y-84480000D03*
X102530000Y-99420000D03*
X77110000Y-95070000D03*
X64310000Y-73640000D03*
X82625000Y-77575000D03*
X73070000Y-95930000D03*
X100900000Y-79960000D03*
X82840000Y-61150000D03*
X84240000Y-72360000D03*
X104500000Y-99370000D03*
X92560000Y-85890000D03*
X73770000Y-74470000D03*
X102460000Y-84980000D03*
X87120000Y-64440000D03*
X100750000Y-86490000D03*
X88770000Y-72600000D03*
X59420000Y-76990000D03*
X96810000Y-100230000D03*
X75650000Y-83510000D03*
X71620000Y-86100000D03*
X71710000Y-78350000D03*
X82530000Y-72690000D03*
X66290000Y-73700000D03*
X76620000Y-85530000D03*
X58450000Y-95920000D03*
X71710000Y-74810000D03*
X94470000Y-100290000D03*
X87030000Y-77600000D03*
X100750000Y-90410000D03*
X63920000Y-79680000D03*
X54370000Y-95120000D03*
%TO.N,VDD*%
X89450000Y-88870000D03*
X92500000Y-97070000D03*
X91150000Y-60600000D03*
D21*
X86970000Y-79670000D03*
D20*
X68350500Y-76150000D03*
D21*
X80720000Y-79670000D03*
D20*
X85380000Y-59970000D03*
D21*
X68400000Y-71450000D03*
%TO.N,+5V*%
X97735000Y-79325000D03*
X69549500Y-65450000D03*
X76830000Y-75730000D03*
X56095000Y-59535000D03*
D20*
%TO.N,sda*%
X87588178Y-81535000D03*
X64919647Y-80390353D03*
%TO.N,scl*%
X88240000Y-82190000D03*
X65844722Y-80744500D03*
%TO.N,pcm_clk*%
X82630000Y-82610000D03*
X60775000Y-78250001D03*
%TO.N,pcm_fs*%
X61343707Y-76618810D03*
X82130000Y-85470000D03*
%TO.N,Net-(U4-DOUT)*%
X99940000Y-62780000D03*
X60920000Y-60290500D03*
%TO.N,DIN*%
X90840000Y-77540000D03*
X90780000Y-91680000D03*
%TO.N,Net-(U6-ADR1)*%
X91430000Y-93990000D03*
X91901382Y-88688618D03*
%TD*%
D22*
%TO.N,VDD*%
X85380000Y-59970000D02*
X90520000Y-59970000D01*
D23*
X89450000Y-94060000D02*
X92500000Y-97110000D01*
D22*
X90520000Y-59970000D02*
X91150000Y-60600000D01*
D23*
X92500000Y-97110000D02*
X92500000Y-97070000D01*
X68360000Y-77500000D02*
X70530000Y-79670000D01*
X88560000Y-79670000D02*
X80720000Y-79670000D01*
X68360000Y-71490000D02*
X68360000Y-76150000D01*
X89450000Y-88870000D02*
X89450000Y-94060000D01*
X89450000Y-88870000D02*
X89450000Y-80560000D01*
X68400000Y-71450000D02*
X68360000Y-71490000D01*
X89450000Y-80560000D02*
X88560000Y-79670000D01*
X70530000Y-79670000D02*
X80720000Y-79670000D01*
X68360000Y-76150000D02*
X68360000Y-77500000D01*
X68360000Y-76150000D02*
X68350500Y-76150000D01*
%TO.N,+5V*%
X76830000Y-75730000D02*
X94140000Y-75730000D01*
D24*
X56870000Y-54730000D02*
X56476400Y-54730000D01*
D25*
X56476400Y-54730000D02*
X55450000Y-55756400D01*
D23*
X74860000Y-73760000D02*
X74860000Y-71180000D01*
X64970000Y-61290000D02*
X57850000Y-61290000D01*
D24*
X56870000Y-54730000D02*
X56593600Y-55006400D01*
D25*
X55450000Y-55756400D02*
X55450000Y-58890000D01*
D23*
X57850000Y-61290000D02*
X56095000Y-59535000D01*
X55450000Y-58890000D02*
X57870000Y-61310000D01*
X76830000Y-75730000D02*
X74860000Y-73760000D01*
X74860000Y-71180000D02*
X64970000Y-61290000D01*
X94140000Y-75730000D02*
X97735000Y-79325000D01*
D22*
%TO.N,sda*%
X86665000Y-80495000D02*
X87588178Y-81418178D01*
X87588178Y-81418178D02*
X87588178Y-81535000D01*
X65190500Y-80119500D02*
X66103606Y-80119500D01*
X70162774Y-80469500D02*
X70188274Y-80495000D01*
X70188274Y-80495000D02*
X86665000Y-80495000D01*
X66453606Y-80469500D02*
X70162774Y-80469500D01*
X64919647Y-80390353D02*
X65190500Y-80119500D01*
X66103606Y-80119500D02*
X66453606Y-80469500D01*
%TO.N,scl*%
X87360000Y-82190000D02*
X88240000Y-82190000D01*
X66019722Y-80919500D02*
X69976378Y-80919500D01*
X70001878Y-80945000D02*
X86115000Y-80945000D01*
X65844722Y-80744500D02*
X66019722Y-80919500D01*
X86115000Y-80945000D02*
X87360000Y-82190000D01*
X69976378Y-80919500D02*
X70001878Y-80945000D01*
%TO.N,pcm_clk*%
X69815482Y-81395000D02*
X82630000Y-81395000D01*
X62666396Y-80790000D02*
X64436116Y-80790000D01*
X60775000Y-78250001D02*
X60775000Y-78898604D01*
X64436116Y-80790000D02*
X65015616Y-81369500D01*
X82630000Y-81395000D02*
X82630000Y-82610000D01*
X65015616Y-81369500D02*
X69789982Y-81369500D01*
X69789982Y-81369500D02*
X69815482Y-81395000D01*
X60775000Y-78898604D02*
X62666396Y-80790000D01*
%TO.N,pcm_fs*%
X81720000Y-85060000D02*
X82130000Y-85470000D01*
X64249720Y-81240000D02*
X64829220Y-81819500D01*
X69603586Y-81819500D02*
X69629086Y-81845000D01*
X61343707Y-76618810D02*
X60150000Y-77812517D01*
X64829220Y-81819500D02*
X69603586Y-81819500D01*
X81720000Y-81845000D02*
X81720000Y-85060000D01*
X60150000Y-78910000D02*
X62480000Y-81240000D01*
X69629086Y-81845000D02*
X81720000Y-81845000D01*
X62480000Y-81240000D02*
X64249720Y-81240000D01*
X60150000Y-77812517D02*
X60150000Y-78910000D01*
%TO.N,Net-(U4-DOUT)*%
X60920000Y-60290500D02*
X61094500Y-60465000D01*
X67626726Y-62780000D02*
X99940000Y-62780000D01*
X61094500Y-60465000D02*
X65311726Y-60465000D01*
X65311726Y-60465000D02*
X67626726Y-62780000D01*
%TO.N,DIN*%
X90275000Y-80218274D02*
X90270000Y-80213274D01*
X90270000Y-80213274D02*
X90270000Y-78110000D01*
X90270000Y-78110000D02*
X90840000Y-77540000D01*
X90780000Y-91680000D02*
X90275000Y-91175000D01*
X90275000Y-91175000D02*
X90275000Y-80218274D01*
%TO.N,Net-(U6-ADR1)*%
X91600000Y-93820000D02*
X91430000Y-93990000D01*
X91901382Y-88688618D02*
X91600000Y-88990000D01*
X91600000Y-88990000D02*
X91600000Y-93820000D01*
%TD*%
%TA.AperFunction,Conductor*%
%TO.N,GND*%
G36*
X109724075Y-91747007D02*
G01*
X109690000Y-91874174D01*
X109690000Y-92005826D01*
X109724075Y-92132993D01*
X109756988Y-92190000D01*
X108083012Y-92190000D01*
X108115925Y-92132993D01*
X108150000Y-92005826D01*
X108150000Y-91874174D01*
X108115925Y-91747007D01*
X108083012Y-91690000D01*
X109756988Y-91690000D01*
X109724075Y-91747007D01*
G37*
%TD.AperFunction*%
%TA.AperFunction,Conductor*%
G36*
X66130000Y-93146988D02*
G01*
X66072993Y-93114075D01*
X65945826Y-93080000D01*
X65814174Y-93080000D01*
X65687007Y-93114075D01*
X65630000Y-93146988D01*
X65630000Y-91473012D01*
X65687007Y-91505925D01*
X65814174Y-91540000D01*
X65945826Y-91540000D01*
X66072993Y-91505925D01*
X66130000Y-91473012D01*
X66130000Y-93146988D01*
G37*
%TD.AperFunction*%
%TA.AperFunction,Conductor*%
G36*
X110503472Y-52550695D02*
G01*
X110823297Y-52568656D01*
X110837094Y-52570210D01*
X111149457Y-52623283D01*
X111163014Y-52626377D01*
X111467469Y-52714089D01*
X111480593Y-52718682D01*
X111773304Y-52839926D01*
X111785826Y-52845955D01*
X112063139Y-52999221D01*
X112074900Y-53006611D01*
X112333314Y-53189966D01*
X112344174Y-53198627D01*
X112580418Y-53409749D01*
X112590250Y-53419581D01*
X112801372Y-53655825D01*
X112810035Y-53666687D01*
X112993385Y-53925094D01*
X113000778Y-53936860D01*
X113154040Y-54214166D01*
X113160073Y-54226695D01*
X113281317Y-54519406D01*
X113285910Y-54532530D01*
X113373622Y-54836985D01*
X113376716Y-54850542D01*
X113429787Y-55162894D01*
X113431344Y-55176712D01*
X113449305Y-55496527D01*
X113449500Y-55503480D01*
X113449500Y-105496519D01*
X113449305Y-105503472D01*
X113431344Y-105823287D01*
X113429787Y-105837105D01*
X113376716Y-106149457D01*
X113373622Y-106163014D01*
X113285910Y-106467469D01*
X113281317Y-106480593D01*
X113160073Y-106773304D01*
X113154040Y-106785833D01*
X113000778Y-107063139D01*
X112993380Y-107074912D01*
X112815145Y-107326112D01*
X112810043Y-107333302D01*
X112801372Y-107344174D01*
X112590250Y-107580418D01*
X112580418Y-107590250D01*
X112344174Y-107801372D01*
X112333302Y-107810043D01*
X112074913Y-107993380D01*
X112063139Y-108000778D01*
X111785833Y-108154040D01*
X111773304Y-108160073D01*
X111480593Y-108281317D01*
X111467469Y-108285910D01*
X111163014Y-108373622D01*
X111149457Y-108376716D01*
X110837105Y-108429787D01*
X110823287Y-108431344D01*
X110503472Y-108449305D01*
X110496519Y-108449500D01*
X87474500Y-108449500D01*
X87407461Y-108429815D01*
X87361706Y-108377011D01*
X87350500Y-108325500D01*
X87350500Y-107440693D01*
X87350500Y-107440691D01*
X87319799Y-107326114D01*
X87260489Y-107223387D01*
X87176613Y-107139511D01*
X87073886Y-107080201D01*
X86959309Y-107049500D01*
X86920918Y-107049500D01*
X83316408Y-107049500D01*
X83300000Y-107049500D01*
X83240691Y-107049500D01*
X83126114Y-107080201D01*
X83126112Y-107080201D01*
X83126112Y-107080202D01*
X83023387Y-107139511D01*
X83023384Y-107139513D01*
X82939513Y-107223384D01*
X82939511Y-107223387D01*
X82886326Y-107315506D01*
X82880201Y-107326114D01*
X82849500Y-107440691D01*
X82849500Y-107440693D01*
X82849500Y-108325500D01*
X82829815Y-108392539D01*
X82777011Y-108438294D01*
X82725500Y-108449500D01*
X68314500Y-108449500D01*
X68247461Y-108429815D01*
X68201706Y-108377011D01*
X68190500Y-108325500D01*
X68190500Y-107440693D01*
X68190500Y-107440691D01*
X68159799Y-107326114D01*
X68100489Y-107223387D01*
X68016613Y-107139511D01*
X67913886Y-107080201D01*
X67799309Y-107049500D01*
X67760918Y-107049500D01*
X64156408Y-107049500D01*
X64140000Y-107049500D01*
X64080691Y-107049500D01*
X63966114Y-107080201D01*
X63966112Y-107080201D01*
X63966112Y-107080202D01*
X63863387Y-107139511D01*
X63863384Y-107139513D01*
X63779513Y-107223384D01*
X63779511Y-107223387D01*
X63726326Y-107315506D01*
X63720201Y-107326114D01*
X63689500Y-107440691D01*
X63689500Y-107440693D01*
X63689500Y-108325500D01*
X63669815Y-108392539D01*
X63617011Y-108438294D01*
X63565500Y-108449500D01*
X51503481Y-108449500D01*
X51496528Y-108449305D01*
X51176712Y-108431344D01*
X51162894Y-108429787D01*
X50850542Y-108376716D01*
X50836985Y-108373622D01*
X50532530Y-108285910D01*
X50519406Y-108281317D01*
X50226695Y-108160073D01*
X50214166Y-108154040D01*
X49936860Y-108000778D01*
X49925094Y-107993385D01*
X49666687Y-107810035D01*
X49655825Y-107801372D01*
X49419581Y-107590250D01*
X49409749Y-107580418D01*
X49198627Y-107344174D01*
X49189966Y-107333314D01*
X49006611Y-107074900D01*
X48999221Y-107063139D01*
X48991683Y-107049500D01*
X48845955Y-106785826D01*
X48839926Y-106773304D01*
X48829475Y-106748074D01*
X48761418Y-106583768D01*
X48718682Y-106480593D01*
X48714089Y-106467469D01*
X48626377Y-106163014D01*
X48623283Y-106149457D01*
X48614394Y-106097139D01*
X48570210Y-105837094D01*
X48568656Y-105823297D01*
X48550695Y-105503472D01*
X48550500Y-105496519D01*
X48550500Y-104825875D01*
X48899500Y-104825875D01*
X48899500Y-105174124D01*
X48938489Y-105520158D01*
X48938491Y-105520170D01*
X49015982Y-105859684D01*
X49015985Y-105859692D01*
X49130999Y-106188382D01*
X49282092Y-106502130D01*
X49467371Y-106796999D01*
X49467372Y-106797001D01*
X49684487Y-107069256D01*
X49930743Y-107315512D01*
X50202998Y-107532627D01*
X50203001Y-107532628D01*
X50203003Y-107532630D01*
X50497867Y-107717906D01*
X50811621Y-107869002D01*
X51058488Y-107955384D01*
X51140307Y-107984014D01*
X51140315Y-107984017D01*
X51140318Y-107984017D01*
X51140319Y-107984018D01*
X51479829Y-108061509D01*
X51825876Y-108100499D01*
X51825877Y-108100500D01*
X51825880Y-108100500D01*
X52174123Y-108100500D01*
X52174123Y-108100499D01*
X52520171Y-108061509D01*
X52859681Y-107984018D01*
X53188379Y-107869002D01*
X53502133Y-107717906D01*
X53796997Y-107532630D01*
X53837914Y-107500000D01*
X54069256Y-107315512D01*
X54069258Y-107315509D01*
X54069263Y-107315506D01*
X54315506Y-107069263D01*
X54315534Y-107069229D01*
X54532627Y-106797001D01*
X54532628Y-106796999D01*
X54532630Y-106796997D01*
X54717906Y-106502133D01*
X54759276Y-106416228D01*
X60089500Y-106416228D01*
X60089500Y-106583771D01*
X60122182Y-106748074D01*
X60122184Y-106748082D01*
X60186295Y-106902860D01*
X60279373Y-107042162D01*
X60397837Y-107160626D01*
X60452760Y-107197324D01*
X60537137Y-107253703D01*
X60691918Y-107317816D01*
X60798333Y-107338983D01*
X60856228Y-107350499D01*
X60856232Y-107350500D01*
X60856233Y-107350500D01*
X61023768Y-107350500D01*
X61023769Y-107350499D01*
X61188082Y-107317816D01*
X61342863Y-107253703D01*
X61482162Y-107160626D01*
X61600626Y-107042162D01*
X61693703Y-106902863D01*
X61757816Y-106748082D01*
X61790500Y-106583767D01*
X61790500Y-106416233D01*
X61790499Y-106416228D01*
X70089500Y-106416228D01*
X70089500Y-106583771D01*
X70122182Y-106748074D01*
X70122184Y-106748082D01*
X70186295Y-106902860D01*
X70279373Y-107042162D01*
X70397837Y-107160626D01*
X70452760Y-107197324D01*
X70537137Y-107253703D01*
X70691918Y-107317816D01*
X70798333Y-107338983D01*
X70856228Y-107350499D01*
X70856232Y-107350500D01*
X70856233Y-107350500D01*
X71023768Y-107350500D01*
X71023769Y-107350499D01*
X71188082Y-107317816D01*
X71342863Y-107253703D01*
X71482162Y-107160626D01*
X71600626Y-107042162D01*
X71693703Y-106902863D01*
X71757816Y-106748082D01*
X71790500Y-106583767D01*
X71790500Y-106416233D01*
X71790499Y-106416228D01*
X79249500Y-106416228D01*
X79249500Y-106583771D01*
X79282182Y-106748074D01*
X79282184Y-106748082D01*
X79346295Y-106902860D01*
X79439373Y-107042162D01*
X79557837Y-107160626D01*
X79612760Y-107197324D01*
X79697137Y-107253703D01*
X79851918Y-107317816D01*
X79958333Y-107338983D01*
X80016228Y-107350499D01*
X80016232Y-107350500D01*
X80016233Y-107350500D01*
X80183768Y-107350500D01*
X80183769Y-107350499D01*
X80348082Y-107317816D01*
X80502863Y-107253703D01*
X80642162Y-107160626D01*
X80760626Y-107042162D01*
X80853703Y-106902863D01*
X80917816Y-106748082D01*
X80950500Y-106583767D01*
X80950500Y-106416233D01*
X80950499Y-106416228D01*
X89249500Y-106416228D01*
X89249500Y-106583771D01*
X89282182Y-106748074D01*
X89282184Y-106748082D01*
X89346295Y-106902860D01*
X89439373Y-107042162D01*
X89557837Y-107160626D01*
X89612760Y-107197324D01*
X89697137Y-107253703D01*
X89851918Y-107317816D01*
X89958333Y-107338983D01*
X90016228Y-107350499D01*
X90016232Y-107350500D01*
X90016233Y-107350500D01*
X90183768Y-107350500D01*
X90183769Y-107350499D01*
X90348082Y-107317816D01*
X90502863Y-107253703D01*
X90642162Y-107160626D01*
X90760626Y-107042162D01*
X90853703Y-106902863D01*
X90917816Y-106748082D01*
X90950500Y-106583767D01*
X90950500Y-106416233D01*
X90917816Y-106251918D01*
X90853703Y-106097137D01*
X90822537Y-106050494D01*
X90760626Y-105957837D01*
X90642162Y-105839373D01*
X90502860Y-105746295D01*
X90348082Y-105682184D01*
X90348074Y-105682182D01*
X90183771Y-105649500D01*
X90183767Y-105649500D01*
X90016233Y-105649500D01*
X90016228Y-105649500D01*
X89851925Y-105682182D01*
X89851917Y-105682184D01*
X89697139Y-105746295D01*
X89557837Y-105839373D01*
X89439373Y-105957837D01*
X89346295Y-106097139D01*
X89282184Y-106251917D01*
X89282182Y-106251925D01*
X89249500Y-106416228D01*
X80950499Y-106416228D01*
X80917816Y-106251918D01*
X80853703Y-106097137D01*
X80822537Y-106050494D01*
X80760626Y-105957837D01*
X80642162Y-105839373D01*
X80502860Y-105746295D01*
X80348082Y-105682184D01*
X80348074Y-105682182D01*
X80183771Y-105649500D01*
X80183767Y-105649500D01*
X80016233Y-105649500D01*
X80016228Y-105649500D01*
X79851925Y-105682182D01*
X79851917Y-105682184D01*
X79697139Y-105746295D01*
X79557837Y-105839373D01*
X79439373Y-105957837D01*
X79346295Y-106097139D01*
X79282184Y-106251917D01*
X79282182Y-106251925D01*
X79249500Y-106416228D01*
X71790499Y-106416228D01*
X71757816Y-106251918D01*
X71693703Y-106097137D01*
X71662537Y-106050494D01*
X71600626Y-105957837D01*
X71482162Y-105839373D01*
X71342860Y-105746295D01*
X71188082Y-105682184D01*
X71188074Y-105682182D01*
X71023771Y-105649500D01*
X71023767Y-105649500D01*
X70856233Y-105649500D01*
X70856228Y-105649500D01*
X70691925Y-105682182D01*
X70691917Y-105682184D01*
X70537139Y-105746295D01*
X70397837Y-105839373D01*
X70279373Y-105957837D01*
X70186295Y-106097139D01*
X70122184Y-106251917D01*
X70122182Y-106251925D01*
X70089500Y-106416228D01*
X61790499Y-106416228D01*
X61757816Y-106251918D01*
X61693703Y-106097137D01*
X61662537Y-106050494D01*
X61600626Y-105957837D01*
X61482162Y-105839373D01*
X61342860Y-105746295D01*
X61188082Y-105682184D01*
X61188074Y-105682182D01*
X61023771Y-105649500D01*
X61023767Y-105649500D01*
X60856233Y-105649500D01*
X60856228Y-105649500D01*
X60691925Y-105682182D01*
X60691917Y-105682184D01*
X60537139Y-105746295D01*
X60397837Y-105839373D01*
X60279373Y-105957837D01*
X60186295Y-106097139D01*
X60122184Y-106251917D01*
X60122182Y-106251925D01*
X60089500Y-106416228D01*
X54759276Y-106416228D01*
X54869002Y-106188379D01*
X54984018Y-105859681D01*
X55061509Y-105520171D01*
X55100500Y-105174120D01*
X55100500Y-104825880D01*
X55061509Y-104479829D01*
X54984018Y-104140319D01*
X54905605Y-103916228D01*
X60089500Y-103916228D01*
X60089500Y-104083771D01*
X60122182Y-104248074D01*
X60122184Y-104248082D01*
X60186295Y-104402860D01*
X60279373Y-104542162D01*
X60397837Y-104660626D01*
X60481612Y-104716602D01*
X60537137Y-104753703D01*
X60691918Y-104817816D01*
X60856228Y-104850499D01*
X60856232Y-104850500D01*
X60856233Y-104850500D01*
X61023768Y-104850500D01*
X61023769Y-104850499D01*
X61188082Y-104817816D01*
X61342863Y-104753703D01*
X61482162Y-104660626D01*
X61600626Y-104542162D01*
X61693703Y-104402863D01*
X61757022Y-104250000D01*
X64365885Y-104250000D01*
X64367085Y-104257584D01*
X64420591Y-104422255D01*
X64499195Y-104576524D01*
X64600967Y-104716602D01*
X64723397Y-104839032D01*
X64863475Y-104940804D01*
X65017742Y-105019408D01*
X65182415Y-105072914D01*
X65353429Y-105100000D01*
X65690000Y-105100000D01*
X66190000Y-105100000D01*
X66526571Y-105100000D01*
X66697584Y-105072914D01*
X66862257Y-105019408D01*
X67016524Y-104940804D01*
X67156602Y-104839032D01*
X67279032Y-104716602D01*
X67380804Y-104576524D01*
X67459408Y-104422255D01*
X67512914Y-104257584D01*
X67514115Y-104250000D01*
X66190000Y-104250000D01*
X66190000Y-105100000D01*
X65690000Y-105100000D01*
X65690000Y-104250000D01*
X64365885Y-104250000D01*
X61757022Y-104250000D01*
X61757816Y-104248082D01*
X61790500Y-104083767D01*
X61790500Y-103960218D01*
X65240000Y-103960218D01*
X65240000Y-104039782D01*
X65270448Y-104113291D01*
X65326709Y-104169552D01*
X65400218Y-104200000D01*
X66479782Y-104200000D01*
X66553291Y-104169552D01*
X66609552Y-104113291D01*
X66640000Y-104039782D01*
X66640000Y-103960218D01*
X66621779Y-103916228D01*
X70089500Y-103916228D01*
X70089500Y-104083771D01*
X70122182Y-104248074D01*
X70122184Y-104248082D01*
X70186295Y-104402860D01*
X70279373Y-104542162D01*
X70397837Y-104660626D01*
X70481612Y-104716602D01*
X70537137Y-104753703D01*
X70691918Y-104817816D01*
X70856228Y-104850499D01*
X70856232Y-104850500D01*
X70856233Y-104850500D01*
X71023768Y-104850500D01*
X71023769Y-104850499D01*
X71188082Y-104817816D01*
X71342863Y-104753703D01*
X71482162Y-104660626D01*
X71600626Y-104542162D01*
X71693703Y-104402863D01*
X71757816Y-104248082D01*
X71790500Y-104083767D01*
X71790500Y-103916233D01*
X71790499Y-103916228D01*
X79249500Y-103916228D01*
X79249500Y-104083771D01*
X79282182Y-104248074D01*
X79282184Y-104248082D01*
X79346295Y-104402860D01*
X79439373Y-104542162D01*
X79557837Y-104660626D01*
X79641612Y-104716602D01*
X79697137Y-104753703D01*
X79851918Y-104817816D01*
X80016228Y-104850499D01*
X80016232Y-104850500D01*
X80016233Y-104850500D01*
X80183768Y-104850500D01*
X80183769Y-104850499D01*
X80348082Y-104817816D01*
X80502863Y-104753703D01*
X80642162Y-104660626D01*
X80760626Y-104542162D01*
X80853703Y-104402863D01*
X80917022Y-104250000D01*
X83525885Y-104250000D01*
X83527085Y-104257584D01*
X83580591Y-104422255D01*
X83659195Y-104576524D01*
X83760967Y-104716602D01*
X83883397Y-104839032D01*
X84023475Y-104940804D01*
X84177742Y-105019408D01*
X84342415Y-105072914D01*
X84513429Y-105100000D01*
X84850000Y-105100000D01*
X85350000Y-105100000D01*
X85686571Y-105100000D01*
X85857584Y-105072914D01*
X86022257Y-105019408D01*
X86176524Y-104940804D01*
X86316602Y-104839032D01*
X86439032Y-104716602D01*
X86540804Y-104576524D01*
X86619408Y-104422255D01*
X86672914Y-104257584D01*
X86674115Y-104250000D01*
X85350000Y-104250000D01*
X85350000Y-105100000D01*
X84850000Y-105100000D01*
X84850000Y-104250000D01*
X83525885Y-104250000D01*
X80917022Y-104250000D01*
X80917816Y-104248082D01*
X80950500Y-104083767D01*
X80950500Y-103960218D01*
X84400000Y-103960218D01*
X84400000Y-104039782D01*
X84430448Y-104113291D01*
X84486709Y-104169552D01*
X84560218Y-104200000D01*
X85639782Y-104200000D01*
X85713291Y-104169552D01*
X85769552Y-104113291D01*
X85800000Y-104039782D01*
X85800000Y-103960218D01*
X85781779Y-103916228D01*
X89249500Y-103916228D01*
X89249500Y-104083771D01*
X89282182Y-104248074D01*
X89282184Y-104248082D01*
X89346295Y-104402860D01*
X89439373Y-104542162D01*
X89557837Y-104660626D01*
X89641612Y-104716602D01*
X89697137Y-104753703D01*
X89851918Y-104817816D01*
X90016228Y-104850499D01*
X90016232Y-104850500D01*
X90016233Y-104850500D01*
X90183768Y-104850500D01*
X90183769Y-104850499D01*
X90307566Y-104825875D01*
X106899500Y-104825875D01*
X106899500Y-105174124D01*
X106938489Y-105520158D01*
X106938491Y-105520170D01*
X107015982Y-105859684D01*
X107015985Y-105859692D01*
X107130999Y-106188382D01*
X107282092Y-106502130D01*
X107467371Y-106796999D01*
X107467372Y-106797001D01*
X107684487Y-107069256D01*
X107930743Y-107315512D01*
X108202998Y-107532627D01*
X108203001Y-107532628D01*
X108203003Y-107532630D01*
X108497867Y-107717906D01*
X108811621Y-107869002D01*
X109058488Y-107955384D01*
X109140307Y-107984014D01*
X109140315Y-107984017D01*
X109140318Y-107984017D01*
X109140319Y-107984018D01*
X109479829Y-108061509D01*
X109825876Y-108100499D01*
X109825877Y-108100500D01*
X109825880Y-108100500D01*
X110174123Y-108100500D01*
X110174123Y-108100499D01*
X110520171Y-108061509D01*
X110859681Y-107984018D01*
X111188379Y-107869002D01*
X111502133Y-107717906D01*
X111796997Y-107532630D01*
X111837914Y-107500000D01*
X112069256Y-107315512D01*
X112069258Y-107315509D01*
X112069263Y-107315506D01*
X112315506Y-107069263D01*
X112315534Y-107069229D01*
X112532627Y-106797001D01*
X112532628Y-106796999D01*
X112532630Y-106796997D01*
X112717906Y-106502133D01*
X112869002Y-106188379D01*
X112984018Y-105859681D01*
X113061509Y-105520171D01*
X113100500Y-105174120D01*
X113100500Y-104825880D01*
X113061509Y-104479829D01*
X112984018Y-104140319D01*
X112869002Y-103811621D01*
X112717906Y-103497867D01*
X112532630Y-103203003D01*
X112532628Y-103203000D01*
X112532627Y-103202998D01*
X112315512Y-102930743D01*
X112069256Y-102684487D01*
X111797001Y-102467372D01*
X111796999Y-102467371D01*
X111502130Y-102282092D01*
X111188382Y-102130999D01*
X110859692Y-102015985D01*
X110859684Y-102015982D01*
X110605048Y-101957863D01*
X110520171Y-101938491D01*
X110520167Y-101938490D01*
X110520158Y-101938489D01*
X110174124Y-101899500D01*
X110174120Y-101899500D01*
X109825880Y-101899500D01*
X109825875Y-101899500D01*
X109479841Y-101938489D01*
X109479829Y-101938491D01*
X109140315Y-102015982D01*
X109140307Y-102015985D01*
X108811617Y-102130999D01*
X108497869Y-102282092D01*
X108203000Y-102467371D01*
X108202998Y-102467372D01*
X107930743Y-102684487D01*
X107684487Y-102930743D01*
X107467372Y-103202998D01*
X107467371Y-103203000D01*
X107282092Y-103497869D01*
X107130999Y-103811617D01*
X107015985Y-104140307D01*
X107015982Y-104140315D01*
X106938491Y-104479829D01*
X106938489Y-104479841D01*
X106899500Y-104825875D01*
X90307566Y-104825875D01*
X90348082Y-104817816D01*
X90502863Y-104753703D01*
X90642162Y-104660626D01*
X90760626Y-104542162D01*
X90853703Y-104402863D01*
X90917816Y-104248082D01*
X90950500Y-104083767D01*
X90950500Y-103916233D01*
X90917816Y-103751918D01*
X90853703Y-103597137D01*
X90787373Y-103497867D01*
X90760626Y-103457837D01*
X90642162Y-103339373D01*
X90502860Y-103246295D01*
X90348082Y-103182184D01*
X90348074Y-103182182D01*
X90183771Y-103149500D01*
X90183767Y-103149500D01*
X90016233Y-103149500D01*
X90016228Y-103149500D01*
X89851925Y-103182182D01*
X89851917Y-103182184D01*
X89697139Y-103246295D01*
X89557837Y-103339373D01*
X89439373Y-103457837D01*
X89346295Y-103597139D01*
X89282184Y-103751917D01*
X89282182Y-103751925D01*
X89249500Y-103916228D01*
X85781779Y-103916228D01*
X85769552Y-103886709D01*
X85713291Y-103830448D01*
X85639782Y-103800000D01*
X84560218Y-103800000D01*
X84486709Y-103830448D01*
X84430448Y-103886709D01*
X84400000Y-103960218D01*
X80950500Y-103960218D01*
X80950500Y-103916233D01*
X80917816Y-103751918D01*
X80917021Y-103749999D01*
X83525884Y-103749999D01*
X83525885Y-103750000D01*
X84850000Y-103750000D01*
X85350000Y-103750000D01*
X86674115Y-103750000D01*
X86674115Y-103749999D01*
X86672914Y-103742415D01*
X86619408Y-103577744D01*
X86540804Y-103423475D01*
X86439032Y-103283397D01*
X86316602Y-103160967D01*
X86176524Y-103059195D01*
X86022257Y-102980591D01*
X85857584Y-102927085D01*
X85686571Y-102900000D01*
X85350000Y-102900000D01*
X85350000Y-103750000D01*
X84850000Y-103750000D01*
X84850000Y-102900000D01*
X84513429Y-102900000D01*
X84342415Y-102927085D01*
X84177742Y-102980591D01*
X84023475Y-103059195D01*
X83883397Y-103160967D01*
X83760967Y-103283397D01*
X83659195Y-103423475D01*
X83580591Y-103577744D01*
X83527085Y-103742415D01*
X83525884Y-103749999D01*
X80917021Y-103749999D01*
X80853703Y-103597137D01*
X80787373Y-103497867D01*
X80760626Y-103457837D01*
X80642162Y-103339373D01*
X80502860Y-103246295D01*
X80348082Y-103182184D01*
X80348074Y-103182182D01*
X80183771Y-103149500D01*
X80183767Y-103149500D01*
X80016233Y-103149500D01*
X80016228Y-103149500D01*
X79851925Y-103182182D01*
X79851917Y-103182184D01*
X79697139Y-103246295D01*
X79557837Y-103339373D01*
X79439373Y-103457837D01*
X79346295Y-103597139D01*
X79282184Y-103751917D01*
X79282182Y-103751925D01*
X79249500Y-103916228D01*
X71790499Y-103916228D01*
X71757816Y-103751918D01*
X71693703Y-103597137D01*
X71627373Y-103497867D01*
X71600626Y-103457837D01*
X71482162Y-103339373D01*
X71342860Y-103246295D01*
X71188082Y-103182184D01*
X71188074Y-103182182D01*
X71023771Y-103149500D01*
X71023767Y-103149500D01*
X70856233Y-103149500D01*
X70856228Y-103149500D01*
X70691925Y-103182182D01*
X70691917Y-103182184D01*
X70537139Y-103246295D01*
X70397837Y-103339373D01*
X70279373Y-103457837D01*
X70186295Y-103597139D01*
X70122184Y-103751917D01*
X70122182Y-103751925D01*
X70089500Y-103916228D01*
X66621779Y-103916228D01*
X66609552Y-103886709D01*
X66553291Y-103830448D01*
X66479782Y-103800000D01*
X65400218Y-103800000D01*
X65326709Y-103830448D01*
X65270448Y-103886709D01*
X65240000Y-103960218D01*
X61790500Y-103960218D01*
X61790500Y-103916233D01*
X61757816Y-103751918D01*
X61757021Y-103749999D01*
X64365884Y-103749999D01*
X64365885Y-103750000D01*
X65690000Y-103750000D01*
X66190000Y-103750000D01*
X67514115Y-103750000D01*
X67514115Y-103749999D01*
X67512914Y-103742415D01*
X67459408Y-103577744D01*
X67380804Y-103423475D01*
X67279032Y-103283397D01*
X67156602Y-103160967D01*
X67016524Y-103059195D01*
X66862257Y-102980591D01*
X66697584Y-102927085D01*
X66526571Y-102900000D01*
X66190000Y-102900000D01*
X66190000Y-103750000D01*
X65690000Y-103750000D01*
X65690000Y-102900000D01*
X65353429Y-102900000D01*
X65182415Y-102927085D01*
X65017742Y-102980591D01*
X64863475Y-103059195D01*
X64723397Y-103160967D01*
X64600967Y-103283397D01*
X64499195Y-103423475D01*
X64420591Y-103577744D01*
X64367085Y-103742415D01*
X64365884Y-103749999D01*
X61757021Y-103749999D01*
X61693703Y-103597137D01*
X61627373Y-103497867D01*
X61600626Y-103457837D01*
X61482162Y-103339373D01*
X61342860Y-103246295D01*
X61188082Y-103182184D01*
X61188074Y-103182182D01*
X61023771Y-103149500D01*
X61023767Y-103149500D01*
X60856233Y-103149500D01*
X60856228Y-103149500D01*
X60691925Y-103182182D01*
X60691917Y-103182184D01*
X60537139Y-103246295D01*
X60397837Y-103339373D01*
X60279373Y-103457837D01*
X60186295Y-103597139D01*
X60122184Y-103751917D01*
X60122182Y-103751925D01*
X60089500Y-103916228D01*
X54905605Y-103916228D01*
X54869002Y-103811621D01*
X54717906Y-103497867D01*
X54532630Y-103203003D01*
X54532628Y-103203000D01*
X54532627Y-103202998D01*
X54315512Y-102930743D01*
X54069256Y-102684487D01*
X53797001Y-102467372D01*
X53796999Y-102467371D01*
X53502130Y-102282092D01*
X53188382Y-102130999D01*
X52859692Y-102015985D01*
X52859684Y-102015982D01*
X52605048Y-101957863D01*
X52520171Y-101938491D01*
X52520167Y-101938490D01*
X52520158Y-101938489D01*
X52174124Y-101899500D01*
X52174120Y-101899500D01*
X51825880Y-101899500D01*
X51825875Y-101899500D01*
X51479841Y-101938489D01*
X51479829Y-101938491D01*
X51140315Y-102015982D01*
X51140307Y-102015985D01*
X50811617Y-102130999D01*
X50497869Y-102282092D01*
X50203000Y-102467371D01*
X50202998Y-102467372D01*
X49930743Y-102684487D01*
X49684487Y-102930743D01*
X49467372Y-103202998D01*
X49467371Y-103203000D01*
X49282092Y-103497869D01*
X49130999Y-103811617D01*
X49015985Y-104140307D01*
X49015982Y-104140315D01*
X48938491Y-104479829D01*
X48938489Y-104479841D01*
X48899500Y-104825875D01*
X48550500Y-104825875D01*
X48550500Y-98413389D01*
X59839500Y-98413389D01*
X59839500Y-99586610D01*
X59865964Y-99753703D01*
X59866598Y-99757701D01*
X59920127Y-99922445D01*
X59998768Y-100076788D01*
X60100586Y-100216928D01*
X60223072Y-100339414D01*
X60363212Y-100441232D01*
X60517555Y-100519873D01*
X60682299Y-100573402D01*
X60853389Y-100600500D01*
X60853390Y-100600500D01*
X61026610Y-100600500D01*
X61026611Y-100600500D01*
X61197701Y-100573402D01*
X61362445Y-100519873D01*
X61516788Y-100441232D01*
X61656928Y-100339414D01*
X61779414Y-100216928D01*
X61881232Y-100076788D01*
X61959873Y-99922445D01*
X61991292Y-99825745D01*
X62030728Y-99768072D01*
X62095086Y-99740873D01*
X62163933Y-99752787D01*
X62215409Y-99800031D01*
X62227152Y-99825744D01*
X62234780Y-99849220D01*
X62327715Y-100031613D01*
X62448028Y-100197213D01*
X62592786Y-100341971D01*
X62729410Y-100441232D01*
X62758390Y-100462287D01*
X62871405Y-100519871D01*
X62940776Y-100555218D01*
X62940778Y-100555218D01*
X62940781Y-100555220D01*
X63045137Y-100589127D01*
X63135465Y-100618477D01*
X63236557Y-100634488D01*
X63337648Y-100650500D01*
X63337649Y-100650500D01*
X63542351Y-100650500D01*
X63542352Y-100650500D01*
X63744534Y-100618477D01*
X63939219Y-100555220D01*
X64121610Y-100462287D01*
X64214590Y-100394732D01*
X64287213Y-100341971D01*
X64287215Y-100341968D01*
X64287219Y-100341966D01*
X64431966Y-100197219D01*
X64431968Y-100197215D01*
X64431971Y-100197213D01*
X64484732Y-100124590D01*
X64552287Y-100031610D01*
X64645220Y-99849219D01*
X64708477Y-99654534D01*
X64740500Y-99452352D01*
X64740500Y-98916228D01*
X65089500Y-98916228D01*
X65089500Y-99083771D01*
X65122182Y-99248074D01*
X65122184Y-99248082D01*
X65186295Y-99402860D01*
X65279373Y-99542162D01*
X65397837Y-99660626D01*
X65490494Y-99722537D01*
X65537137Y-99753703D01*
X65537138Y-99753703D01*
X65537139Y-99753704D01*
X65572201Y-99768227D01*
X65691918Y-99817816D01*
X65849793Y-99849219D01*
X65856228Y-99850499D01*
X65856232Y-99850500D01*
X65856233Y-99850500D01*
X66023768Y-99850500D01*
X66023769Y-99850499D01*
X66188082Y-99817816D01*
X66342863Y-99753703D01*
X66482162Y-99660626D01*
X66600626Y-99542162D01*
X66693703Y-99402863D01*
X66757816Y-99248082D01*
X66790500Y-99083767D01*
X66790500Y-98916233D01*
X66757816Y-98751918D01*
X66693703Y-98597137D01*
X66660635Y-98547648D01*
X66600626Y-98457837D01*
X66590437Y-98447648D01*
X67139500Y-98447648D01*
X67139500Y-99552351D01*
X67171522Y-99754534D01*
X67234781Y-99949223D01*
X67327715Y-100131613D01*
X67448028Y-100297213D01*
X67592786Y-100441971D01*
X67747749Y-100554556D01*
X67758390Y-100562287D01*
X67868669Y-100618477D01*
X67940776Y-100655218D01*
X67940778Y-100655218D01*
X67940781Y-100655220D01*
X68045137Y-100689127D01*
X68135465Y-100718477D01*
X68236557Y-100734488D01*
X68337648Y-100750500D01*
X68337649Y-100750500D01*
X68542351Y-100750500D01*
X68542352Y-100750500D01*
X68744534Y-100718477D01*
X68939219Y-100655220D01*
X69121610Y-100562287D01*
X69214590Y-100494732D01*
X69287213Y-100441971D01*
X69287215Y-100441968D01*
X69287219Y-100441966D01*
X69431966Y-100297219D01*
X69431968Y-100297215D01*
X69431971Y-100297213D01*
X69490300Y-100216928D01*
X69552287Y-100131610D01*
X69645220Y-99949219D01*
X69669092Y-99875745D01*
X69708529Y-99818072D01*
X69772888Y-99790873D01*
X69841734Y-99802787D01*
X69893210Y-99850031D01*
X69904952Y-99875741D01*
X69920127Y-99922445D01*
X69998768Y-100076788D01*
X70100586Y-100216928D01*
X70223072Y-100339414D01*
X70363212Y-100441232D01*
X70517555Y-100519873D01*
X70682299Y-100573402D01*
X70853389Y-100600500D01*
X70853390Y-100600500D01*
X71026610Y-100600500D01*
X71026611Y-100600500D01*
X71197701Y-100573402D01*
X71362445Y-100519873D01*
X71516788Y-100441232D01*
X71656928Y-100339414D01*
X71779414Y-100216928D01*
X71881232Y-100076788D01*
X71959873Y-99922445D01*
X72013402Y-99757701D01*
X72040500Y-99586611D01*
X72040500Y-98413389D01*
X78999500Y-98413389D01*
X78999500Y-99586610D01*
X79025964Y-99753703D01*
X79026598Y-99757701D01*
X79080127Y-99922445D01*
X79158768Y-100076788D01*
X79260586Y-100216928D01*
X79383072Y-100339414D01*
X79523212Y-100441232D01*
X79677555Y-100519873D01*
X79842299Y-100573402D01*
X80013389Y-100600500D01*
X80013390Y-100600500D01*
X80186610Y-100600500D01*
X80186611Y-100600500D01*
X80357701Y-100573402D01*
X80522445Y-100519873D01*
X80676788Y-100441232D01*
X80816928Y-100339414D01*
X80939414Y-100216928D01*
X81041232Y-100076788D01*
X81119873Y-99922445D01*
X81151292Y-99825745D01*
X81190728Y-99768072D01*
X81255086Y-99740873D01*
X81323933Y-99752787D01*
X81375409Y-99800031D01*
X81387152Y-99825744D01*
X81394780Y-99849220D01*
X81487715Y-100031613D01*
X81608028Y-100197213D01*
X81752786Y-100341971D01*
X81889410Y-100441232D01*
X81918390Y-100462287D01*
X82031405Y-100519871D01*
X82100776Y-100555218D01*
X82100778Y-100555218D01*
X82100781Y-100555220D01*
X82205137Y-100589127D01*
X82295465Y-100618477D01*
X82396557Y-100634488D01*
X82497648Y-100650500D01*
X82497649Y-100650500D01*
X82702351Y-100650500D01*
X82702352Y-100650500D01*
X82904534Y-100618477D01*
X83099219Y-100555220D01*
X83281610Y-100462287D01*
X83374590Y-100394732D01*
X83447213Y-100341971D01*
X83447215Y-100341968D01*
X83447219Y-100341966D01*
X83591966Y-100197219D01*
X83591968Y-100197215D01*
X83591971Y-100197213D01*
X83644732Y-100124590D01*
X83712287Y-100031610D01*
X83805220Y-99849219D01*
X83868477Y-99654534D01*
X83900500Y-99452352D01*
X83900500Y-98916228D01*
X84249500Y-98916228D01*
X84249500Y-99083771D01*
X84282182Y-99248074D01*
X84282184Y-99248082D01*
X84346295Y-99402860D01*
X84439373Y-99542162D01*
X84557837Y-99660626D01*
X84650494Y-99722537D01*
X84697137Y-99753703D01*
X84697138Y-99753703D01*
X84697139Y-99753704D01*
X84732201Y-99768227D01*
X84851918Y-99817816D01*
X85009793Y-99849219D01*
X85016228Y-99850499D01*
X85016232Y-99850500D01*
X85016233Y-99850500D01*
X85183768Y-99850500D01*
X85183769Y-99850499D01*
X85348082Y-99817816D01*
X85502863Y-99753703D01*
X85642162Y-99660626D01*
X85760626Y-99542162D01*
X85853703Y-99402863D01*
X85917816Y-99248082D01*
X85950500Y-99083767D01*
X85950500Y-98916233D01*
X85917816Y-98751918D01*
X85853703Y-98597137D01*
X85820635Y-98547648D01*
X85760626Y-98457837D01*
X85750437Y-98447648D01*
X86299500Y-98447648D01*
X86299500Y-99552351D01*
X86331522Y-99754534D01*
X86394781Y-99949223D01*
X86487715Y-100131613D01*
X86608028Y-100297213D01*
X86752786Y-100441971D01*
X86907749Y-100554556D01*
X86918390Y-100562287D01*
X87028669Y-100618477D01*
X87100776Y-100655218D01*
X87100778Y-100655218D01*
X87100781Y-100655220D01*
X87205137Y-100689127D01*
X87295465Y-100718477D01*
X87396557Y-100734488D01*
X87497648Y-100750500D01*
X87497649Y-100750500D01*
X87702351Y-100750500D01*
X87702352Y-100750500D01*
X87904534Y-100718477D01*
X88099219Y-100655220D01*
X88281610Y-100562287D01*
X88374590Y-100494732D01*
X88447213Y-100441971D01*
X88447215Y-100441968D01*
X88447219Y-100441966D01*
X88591966Y-100297219D01*
X88591968Y-100297215D01*
X88591971Y-100297213D01*
X88650300Y-100216928D01*
X88712287Y-100131610D01*
X88805220Y-99949219D01*
X88829092Y-99875745D01*
X88868529Y-99818072D01*
X88932888Y-99790873D01*
X89001734Y-99802787D01*
X89053210Y-99850031D01*
X89064952Y-99875741D01*
X89080127Y-99922445D01*
X89158768Y-100076788D01*
X89260586Y-100216928D01*
X89383072Y-100339414D01*
X89523212Y-100441232D01*
X89677555Y-100519873D01*
X89842299Y-100573402D01*
X90013389Y-100600500D01*
X90013390Y-100600500D01*
X90186610Y-100600500D01*
X90186611Y-100600500D01*
X90357701Y-100573402D01*
X90522445Y-100519873D01*
X90676788Y-100441232D01*
X90816928Y-100339414D01*
X90939414Y-100216928D01*
X91041232Y-100076788D01*
X91119873Y-99922445D01*
X91173402Y-99757701D01*
X91200500Y-99586611D01*
X91200500Y-98413389D01*
X91173402Y-98242299D01*
X91119873Y-98077555D01*
X91041232Y-97923212D01*
X90939414Y-97783072D01*
X90816928Y-97660586D01*
X90676788Y-97558768D01*
X90522445Y-97480127D01*
X90357701Y-97426598D01*
X90357699Y-97426597D01*
X90357698Y-97426597D01*
X90226271Y-97405781D01*
X90186611Y-97399500D01*
X90013389Y-97399500D01*
X89973728Y-97405781D01*
X89842302Y-97426597D01*
X89677552Y-97480128D01*
X89523211Y-97558768D01*
X89488593Y-97583920D01*
X89383072Y-97660586D01*
X89383070Y-97660588D01*
X89383069Y-97660588D01*
X89260588Y-97783069D01*
X89260588Y-97783070D01*
X89260586Y-97783072D01*
X89246267Y-97802781D01*
X89158768Y-97923211D01*
X89080128Y-98077550D01*
X89064954Y-98124253D01*
X89025516Y-98181928D01*
X88961157Y-98209126D01*
X88892311Y-98197211D01*
X88840835Y-98149966D01*
X88829092Y-98124253D01*
X88805220Y-98050781D01*
X88712287Y-97868390D01*
X88704556Y-97857749D01*
X88591971Y-97702786D01*
X88447213Y-97558028D01*
X88281613Y-97437715D01*
X88281612Y-97437714D01*
X88281610Y-97437713D01*
X88224653Y-97408691D01*
X88099223Y-97344781D01*
X87904534Y-97281522D01*
X87729995Y-97253878D01*
X87702352Y-97249500D01*
X87497648Y-97249500D01*
X87473329Y-97253351D01*
X87295465Y-97281522D01*
X87100776Y-97344781D01*
X86918386Y-97437715D01*
X86752786Y-97558028D01*
X86608028Y-97702786D01*
X86487715Y-97868386D01*
X86394781Y-98050776D01*
X86331522Y-98245465D01*
X86299500Y-98447648D01*
X85750437Y-98447648D01*
X85642162Y-98339373D01*
X85502860Y-98246295D01*
X85348082Y-98182184D01*
X85348074Y-98182182D01*
X85183771Y-98149500D01*
X85183767Y-98149500D01*
X85016233Y-98149500D01*
X85016228Y-98149500D01*
X84851925Y-98182182D01*
X84851917Y-98182184D01*
X84697139Y-98246295D01*
X84557837Y-98339373D01*
X84439373Y-98457837D01*
X84346295Y-98597139D01*
X84282184Y-98751917D01*
X84282182Y-98751925D01*
X84249500Y-98916228D01*
X83900500Y-98916228D01*
X83900500Y-98547648D01*
X83868477Y-98345466D01*
X83866497Y-98339373D01*
X83805218Y-98150776D01*
X83767907Y-98077550D01*
X83712287Y-97968390D01*
X83679463Y-97923211D01*
X83591971Y-97802786D01*
X83447213Y-97658028D01*
X83281613Y-97537715D01*
X83281612Y-97537714D01*
X83281610Y-97537713D01*
X83224653Y-97508691D01*
X83099223Y-97444781D01*
X82904534Y-97381522D01*
X82729995Y-97353878D01*
X82702352Y-97349500D01*
X82497648Y-97349500D01*
X82473329Y-97353351D01*
X82295465Y-97381522D01*
X82100776Y-97444781D01*
X81918386Y-97537715D01*
X81752786Y-97658028D01*
X81608028Y-97802786D01*
X81487715Y-97968386D01*
X81394781Y-98150777D01*
X81387152Y-98174256D01*
X81347712Y-98231930D01*
X81283352Y-98259126D01*
X81214507Y-98247209D01*
X81163032Y-98199963D01*
X81151293Y-98174256D01*
X81119873Y-98077555D01*
X81041232Y-97923212D01*
X80939414Y-97783072D01*
X80816928Y-97660586D01*
X80676788Y-97558768D01*
X80522445Y-97480127D01*
X80357701Y-97426598D01*
X80357699Y-97426597D01*
X80357698Y-97426597D01*
X80226271Y-97405781D01*
X80186611Y-97399500D01*
X80013389Y-97399500D01*
X79973728Y-97405781D01*
X79842302Y-97426597D01*
X79677552Y-97480128D01*
X79523211Y-97558768D01*
X79488593Y-97583920D01*
X79383072Y-97660586D01*
X79383070Y-97660588D01*
X79383069Y-97660588D01*
X79260588Y-97783069D01*
X79260588Y-97783070D01*
X79260586Y-97783072D01*
X79246267Y-97802781D01*
X79158768Y-97923211D01*
X79080128Y-98077552D01*
X79026597Y-98242302D01*
X78999500Y-98413389D01*
X72040500Y-98413389D01*
X72013402Y-98242299D01*
X71959873Y-98077555D01*
X71881232Y-97923212D01*
X71779414Y-97783072D01*
X71656928Y-97660586D01*
X71516788Y-97558768D01*
X71362445Y-97480127D01*
X71197701Y-97426598D01*
X71197699Y-97426597D01*
X71197698Y-97426597D01*
X71066271Y-97405781D01*
X71026611Y-97399500D01*
X70853389Y-97399500D01*
X70813728Y-97405781D01*
X70682302Y-97426597D01*
X70517552Y-97480128D01*
X70363211Y-97558768D01*
X70328593Y-97583920D01*
X70223072Y-97660586D01*
X70223070Y-97660588D01*
X70223069Y-97660588D01*
X70100588Y-97783069D01*
X70100588Y-97783070D01*
X70100586Y-97783072D01*
X70086267Y-97802781D01*
X69998768Y-97923211D01*
X69920128Y-98077550D01*
X69904954Y-98124253D01*
X69865516Y-98181928D01*
X69801157Y-98209126D01*
X69732311Y-98197211D01*
X69680835Y-98149966D01*
X69669092Y-98124253D01*
X69645220Y-98050781D01*
X69552287Y-97868390D01*
X69544556Y-97857749D01*
X69431971Y-97702786D01*
X69287213Y-97558028D01*
X69121613Y-97437715D01*
X69121612Y-97437714D01*
X69121610Y-97437713D01*
X69064653Y-97408691D01*
X68939223Y-97344781D01*
X68744534Y-97281522D01*
X68569995Y-97253878D01*
X68542352Y-97249500D01*
X68337648Y-97249500D01*
X68313329Y-97253351D01*
X68135465Y-97281522D01*
X67940776Y-97344781D01*
X67758386Y-97437715D01*
X67592786Y-97558028D01*
X67448028Y-97702786D01*
X67327715Y-97868386D01*
X67234781Y-98050776D01*
X67171522Y-98245465D01*
X67139500Y-98447648D01*
X66590437Y-98447648D01*
X66482162Y-98339373D01*
X66342860Y-98246295D01*
X66188082Y-98182184D01*
X66188074Y-98182182D01*
X66023771Y-98149500D01*
X66023767Y-98149500D01*
X65856233Y-98149500D01*
X65856228Y-98149500D01*
X65691925Y-98182182D01*
X65691917Y-98182184D01*
X65537139Y-98246295D01*
X65397837Y-98339373D01*
X65279373Y-98457837D01*
X65186295Y-98597139D01*
X65122184Y-98751917D01*
X65122182Y-98751925D01*
X65089500Y-98916228D01*
X64740500Y-98916228D01*
X64740500Y-98547648D01*
X64708477Y-98345466D01*
X64706497Y-98339373D01*
X64645218Y-98150776D01*
X64607907Y-98077550D01*
X64552287Y-97968390D01*
X64519463Y-97923211D01*
X64431971Y-97802786D01*
X64287213Y-97658028D01*
X64121613Y-97537715D01*
X64121612Y-97537714D01*
X64121610Y-97537713D01*
X64064653Y-97508691D01*
X63939223Y-97444781D01*
X63744534Y-97381522D01*
X63569995Y-97353878D01*
X63542352Y-97349500D01*
X63337648Y-97349500D01*
X63313329Y-97353351D01*
X63135465Y-97381522D01*
X62940776Y-97444781D01*
X62758386Y-97537715D01*
X62592786Y-97658028D01*
X62448028Y-97802786D01*
X62327715Y-97968386D01*
X62234781Y-98150777D01*
X62227152Y-98174256D01*
X62187712Y-98231930D01*
X62123352Y-98259126D01*
X62054507Y-98247209D01*
X62003032Y-98199963D01*
X61991293Y-98174256D01*
X61959873Y-98077555D01*
X61881232Y-97923212D01*
X61779414Y-97783072D01*
X61656928Y-97660586D01*
X61516788Y-97558768D01*
X61362445Y-97480127D01*
X61197701Y-97426598D01*
X61197699Y-97426597D01*
X61197698Y-97426597D01*
X61066271Y-97405781D01*
X61026611Y-97399500D01*
X60853389Y-97399500D01*
X60813728Y-97405781D01*
X60682302Y-97426597D01*
X60517552Y-97480128D01*
X60363211Y-97558768D01*
X60328593Y-97583920D01*
X60223072Y-97660586D01*
X60223070Y-97660588D01*
X60223069Y-97660588D01*
X60100588Y-97783069D01*
X60100588Y-97783070D01*
X60100586Y-97783072D01*
X60086267Y-97802781D01*
X59998768Y-97923211D01*
X59920128Y-98077552D01*
X59866597Y-98242302D01*
X59839500Y-98413389D01*
X48550500Y-98413389D01*
X48550500Y-91039999D01*
X61984341Y-91039999D01*
X61984341Y-91040000D01*
X62004936Y-91275403D01*
X62004938Y-91275413D01*
X62066094Y-91503655D01*
X62066096Y-91503659D01*
X62066097Y-91503663D01*
X62145801Y-91674588D01*
X62165965Y-91717830D01*
X62165967Y-91717834D01*
X62259032Y-91850743D01*
X62301504Y-91911400D01*
X62301506Y-91911402D01*
X62423430Y-92033326D01*
X62456915Y-92094649D01*
X62451931Y-92164341D01*
X62410059Y-92220274D01*
X62379083Y-92237189D01*
X62247669Y-92286203D01*
X62247664Y-92286206D01*
X62132455Y-92372452D01*
X62132452Y-92372455D01*
X62046206Y-92487664D01*
X62046202Y-92487671D01*
X61995908Y-92622517D01*
X61989501Y-92682116D01*
X61989500Y-92682135D01*
X61989500Y-94477870D01*
X61989501Y-94477876D01*
X61995908Y-94537483D01*
X62046202Y-94672328D01*
X62046206Y-94672335D01*
X62132452Y-94787544D01*
X62132455Y-94787547D01*
X62247664Y-94873793D01*
X62247671Y-94873797D01*
X62382517Y-94924091D01*
X62382516Y-94924091D01*
X62389444Y-94924835D01*
X62442127Y-94930500D01*
X64237872Y-94930499D01*
X64297483Y-94924091D01*
X64432331Y-94873796D01*
X64547546Y-94787546D01*
X64633796Y-94672331D01*
X64683002Y-94540401D01*
X64724872Y-94484468D01*
X64790337Y-94460050D01*
X64858610Y-94474901D01*
X64886865Y-94496053D01*
X65008917Y-94618105D01*
X65202421Y-94753600D01*
X65416507Y-94853429D01*
X65416516Y-94853433D01*
X65630000Y-94910634D01*
X65630000Y-94013012D01*
X65687007Y-94045925D01*
X65814174Y-94080000D01*
X65945826Y-94080000D01*
X66072993Y-94045925D01*
X66130000Y-94013012D01*
X66130000Y-94910633D01*
X66343483Y-94853433D01*
X66343492Y-94853429D01*
X66557578Y-94753600D01*
X66751082Y-94618105D01*
X66918105Y-94451082D01*
X67048119Y-94265405D01*
X67102696Y-94221781D01*
X67172195Y-94214588D01*
X67234549Y-94246110D01*
X67251269Y-94265405D01*
X67381505Y-94451401D01*
X67548599Y-94618495D01*
X67645384Y-94686265D01*
X67742165Y-94754032D01*
X67742167Y-94754033D01*
X67742170Y-94754035D01*
X67956337Y-94853903D01*
X67956343Y-94853904D01*
X67956344Y-94853905D01*
X68011285Y-94868626D01*
X68184592Y-94915063D01*
X68361034Y-94930500D01*
X68419999Y-94935659D01*
X68420000Y-94935659D01*
X68420001Y-94935659D01*
X68478966Y-94930500D01*
X68655408Y-94915063D01*
X68883663Y-94853903D01*
X69097830Y-94754035D01*
X69291401Y-94618495D01*
X69458495Y-94451401D01*
X69594035Y-94257830D01*
X69693903Y-94043663D01*
X69755063Y-93815408D01*
X69775659Y-93580000D01*
X69755063Y-93344592D01*
X69701566Y-93144937D01*
X69693905Y-93116344D01*
X69693904Y-93116343D01*
X69693903Y-93116337D01*
X69594035Y-92902171D01*
X69588731Y-92894595D01*
X69458494Y-92708597D01*
X69291402Y-92541506D01*
X69291396Y-92541501D01*
X69105842Y-92411575D01*
X69062217Y-92356998D01*
X69055023Y-92287500D01*
X69086546Y-92225145D01*
X69105842Y-92208425D01*
X69128026Y-92192891D01*
X69291401Y-92078495D01*
X69458495Y-91911401D01*
X69594035Y-91717830D01*
X69693903Y-91503663D01*
X69755063Y-91275408D01*
X69775659Y-91040000D01*
X69755063Y-90804592D01*
X69693903Y-90576337D01*
X69594035Y-90362171D01*
X69590753Y-90357483D01*
X69458494Y-90168597D01*
X69291402Y-90001506D01*
X69291395Y-90001501D01*
X69289251Y-90000000D01*
X69203726Y-89940114D01*
X69097834Y-89865967D01*
X69097830Y-89865965D01*
X69097828Y-89865964D01*
X68883663Y-89766097D01*
X68883659Y-89766096D01*
X68883655Y-89766094D01*
X68655413Y-89704938D01*
X68655403Y-89704936D01*
X68420001Y-89684341D01*
X68419999Y-89684341D01*
X68184596Y-89704936D01*
X68184586Y-89704938D01*
X67956344Y-89766094D01*
X67956335Y-89766098D01*
X67742171Y-89865964D01*
X67742169Y-89865965D01*
X67548597Y-90001505D01*
X67381508Y-90168594D01*
X67251269Y-90354595D01*
X67196692Y-90398219D01*
X67127193Y-90405412D01*
X67064839Y-90373890D01*
X67048119Y-90354594D01*
X66918113Y-90168926D01*
X66918108Y-90168920D01*
X66751082Y-90001894D01*
X66557578Y-89866399D01*
X66343492Y-89766570D01*
X66343486Y-89766567D01*
X66130000Y-89709364D01*
X66130000Y-90606988D01*
X66072993Y-90574075D01*
X65945826Y-90540000D01*
X65814174Y-90540000D01*
X65687007Y-90574075D01*
X65630000Y-90606988D01*
X65630000Y-89709364D01*
X65629999Y-89709364D01*
X65416513Y-89766567D01*
X65416507Y-89766570D01*
X65202422Y-89866399D01*
X65202420Y-89866400D01*
X65008926Y-90001886D01*
X65008920Y-90001891D01*
X64841891Y-90168920D01*
X64841890Y-90168922D01*
X64711880Y-90354595D01*
X64657303Y-90398219D01*
X64587804Y-90405412D01*
X64525450Y-90373890D01*
X64508730Y-90354594D01*
X64378494Y-90168597D01*
X64211402Y-90001506D01*
X64211395Y-90001501D01*
X64209251Y-90000000D01*
X64123726Y-89940114D01*
X64017834Y-89865967D01*
X64017830Y-89865965D01*
X64017828Y-89865964D01*
X63803663Y-89766097D01*
X63803659Y-89766096D01*
X63803655Y-89766094D01*
X63575413Y-89704938D01*
X63575403Y-89704936D01*
X63340001Y-89684341D01*
X63339999Y-89684341D01*
X63104596Y-89704936D01*
X63104586Y-89704938D01*
X62876344Y-89766094D01*
X62876335Y-89766098D01*
X62662171Y-89865964D01*
X62662169Y-89865965D01*
X62468597Y-90001505D01*
X62301505Y-90168597D01*
X62165965Y-90362169D01*
X62165964Y-90362171D01*
X62089531Y-90526083D01*
X62067171Y-90574035D01*
X62066098Y-90576335D01*
X62066094Y-90576344D01*
X62004938Y-90804586D01*
X62004936Y-90804596D01*
X61984341Y-91039999D01*
X48550500Y-91039999D01*
X48550500Y-90005411D01*
X48550972Y-89994604D01*
X48551820Y-89984913D01*
X48563979Y-89845928D01*
X48567732Y-89824645D01*
X48604956Y-89685721D01*
X48612342Y-89665428D01*
X48673127Y-89535074D01*
X48683927Y-89516369D01*
X48766423Y-89398552D01*
X48780306Y-89382007D01*
X48882007Y-89280306D01*
X48898552Y-89266423D01*
X49016369Y-89183927D01*
X49035074Y-89173127D01*
X49165428Y-89112342D01*
X49185721Y-89104956D01*
X49324645Y-89067731D01*
X49345928Y-89063979D01*
X49494605Y-89050972D01*
X49505412Y-89050500D01*
X52591905Y-89050500D01*
X52591907Y-89050500D01*
X52772928Y-89018581D01*
X52945656Y-88955713D01*
X53104844Y-88863806D01*
X53245653Y-88745653D01*
X53363806Y-88604844D01*
X53455713Y-88445656D01*
X53518581Y-88272928D01*
X53550500Y-88091907D01*
X53550500Y-88000000D01*
X53550500Y-87983592D01*
X53550500Y-72979082D01*
X53550500Y-72908093D01*
X53518581Y-72727072D01*
X53455713Y-72554344D01*
X53363806Y-72395156D01*
X53363804Y-72395154D01*
X53363804Y-72395153D01*
X53323521Y-72347147D01*
X53245653Y-72254347D01*
X53154320Y-72177709D01*
X53104846Y-72136195D01*
X53104842Y-72136193D01*
X52945660Y-72044289D01*
X52945657Y-72044288D01*
X52945656Y-72044287D01*
X52875030Y-72018581D01*
X52772927Y-71981418D01*
X52591909Y-71949500D01*
X52591907Y-71949500D01*
X52520918Y-71949500D01*
X49505412Y-71949500D01*
X49494605Y-71949028D01*
X49477265Y-71947511D01*
X49345930Y-71936020D01*
X49324645Y-71932267D01*
X49185729Y-71895045D01*
X49165417Y-71887652D01*
X49035081Y-71826875D01*
X49016363Y-71816068D01*
X48898559Y-71733581D01*
X48882001Y-71719687D01*
X48780312Y-71617998D01*
X48766418Y-71601440D01*
X48763299Y-71596986D01*
X48683930Y-71483635D01*
X48673124Y-71464918D01*
X48643252Y-71400857D01*
X48612344Y-71334575D01*
X48604954Y-71314270D01*
X48601937Y-71303011D01*
X48567732Y-71175354D01*
X48563979Y-71154068D01*
X48550972Y-71005395D01*
X48550500Y-70994588D01*
X48550500Y-55825875D01*
X48899500Y-55825875D01*
X48899500Y-56174124D01*
X48938489Y-56520158D01*
X48938491Y-56520170D01*
X49015982Y-56859684D01*
X49015985Y-56859692D01*
X49130999Y-57188382D01*
X49282092Y-57502130D01*
X49467371Y-57796999D01*
X49467372Y-57797001D01*
X49684487Y-58069256D01*
X49930743Y-58315512D01*
X50202998Y-58532627D01*
X50203001Y-58532628D01*
X50203003Y-58532630D01*
X50497867Y-58717906D01*
X50811621Y-58869002D01*
X51058488Y-58955384D01*
X51140307Y-58984014D01*
X51140315Y-58984017D01*
X51140318Y-58984017D01*
X51140319Y-58984018D01*
X51479829Y-59061509D01*
X51825876Y-59100499D01*
X51825877Y-59100500D01*
X51825880Y-59100500D01*
X52174123Y-59100500D01*
X52174123Y-59100499D01*
X52520171Y-59061509D01*
X52859681Y-58984018D01*
X53188379Y-58869002D01*
X53502133Y-58717906D01*
X53796997Y-58532630D01*
X53797001Y-58532627D01*
X54069256Y-58315512D01*
X54069258Y-58315509D01*
X54069263Y-58315506D01*
X54315506Y-58069263D01*
X54428554Y-57927504D01*
X54485741Y-57887365D01*
X54555552Y-57884515D01*
X54615822Y-57919860D01*
X54647416Y-57982179D01*
X54649500Y-58004818D01*
X54649500Y-58249567D01*
X54629815Y-58316606D01*
X54628602Y-58318458D01*
X54563368Y-58416086D01*
X54487949Y-58598163D01*
X54487947Y-58598171D01*
X54449500Y-58791455D01*
X54449500Y-58988544D01*
X54487947Y-59181828D01*
X54487949Y-59181836D01*
X54563367Y-59363910D01*
X54563372Y-59363920D01*
X54672860Y-59527780D01*
X54672863Y-59527784D01*
X55348475Y-60203395D01*
X55356646Y-60212410D01*
X55384118Y-60245884D01*
X55417587Y-60273351D01*
X55426604Y-60281524D01*
X57069735Y-61924655D01*
X57069764Y-61924686D01*
X57216540Y-62071462D01*
X57216560Y-62071480D01*
X57232216Y-62087137D01*
X57232219Y-62087139D01*
X57396079Y-62196627D01*
X57396083Y-62196629D01*
X57396086Y-62196631D01*
X57578164Y-62272051D01*
X57769876Y-62310185D01*
X57771455Y-62310499D01*
X57771458Y-62310500D01*
X57771460Y-62310500D01*
X57968541Y-62310500D01*
X57968541Y-62310499D01*
X58057107Y-62292882D01*
X58081298Y-62290500D01*
X64504218Y-62290500D01*
X64571257Y-62310185D01*
X64591899Y-62326819D01*
X73823181Y-71558101D01*
X73856666Y-71619424D01*
X73859500Y-71645782D01*
X73859500Y-73858541D01*
X73859500Y-73858543D01*
X73859499Y-73858543D01*
X73897947Y-74051829D01*
X73897950Y-74051839D01*
X73973364Y-74233907D01*
X73973371Y-74233920D01*
X74082859Y-74397780D01*
X74082860Y-74397781D01*
X74082861Y-74397782D01*
X74222218Y-74537139D01*
X74222219Y-74537139D01*
X74229286Y-74544206D01*
X74229285Y-74544206D01*
X74229289Y-74544209D01*
X76083479Y-76398400D01*
X76091652Y-76407417D01*
X76119116Y-76440883D01*
X76152581Y-76468346D01*
X76161598Y-76476519D01*
X76192221Y-76507142D01*
X76228212Y-76531189D01*
X76237987Y-76538438D01*
X76271462Y-76565910D01*
X76271464Y-76565911D01*
X76309640Y-76586316D01*
X76320078Y-76592572D01*
X76356086Y-76616632D01*
X76396095Y-76633203D01*
X76407094Y-76638406D01*
X76445273Y-76658814D01*
X76486708Y-76671384D01*
X76498163Y-76675483D01*
X76531880Y-76689448D01*
X76538165Y-76692052D01*
X76580643Y-76700500D01*
X76592421Y-76703450D01*
X76633868Y-76716024D01*
X76676965Y-76720268D01*
X76688981Y-76722050D01*
X76699389Y-76724121D01*
X76731457Y-76730499D01*
X76731458Y-76730500D01*
X76731459Y-76730500D01*
X76731460Y-76730500D01*
X76774756Y-76730500D01*
X76786909Y-76731096D01*
X76830000Y-76735341D01*
X76873090Y-76731096D01*
X76885244Y-76730500D01*
X76928540Y-76730500D01*
X90218060Y-76730500D01*
X90285099Y-76750185D01*
X90330854Y-76802989D01*
X90340798Y-76872147D01*
X90311773Y-76935703D01*
X90305741Y-76942181D01*
X90210184Y-77037737D01*
X90114210Y-77190478D01*
X90054630Y-77360750D01*
X90049326Y-77407825D01*
X90022258Y-77472239D01*
X90013788Y-77481621D01*
X89871269Y-77624140D01*
X89871267Y-77624142D01*
X89827704Y-77667704D01*
X89784142Y-77711266D01*
X89757652Y-77750912D01*
X89757651Y-77750913D01*
X89715690Y-77813708D01*
X89715686Y-77813716D01*
X89690666Y-77874123D01*
X89690666Y-77874124D01*
X89668538Y-77927545D01*
X89668535Y-77927555D01*
X89644500Y-78048389D01*
X89644500Y-79040218D01*
X89624815Y-79107257D01*
X89572011Y-79153012D01*
X89502853Y-79162956D01*
X89439297Y-79133931D01*
X89432819Y-79127899D01*
X89341479Y-79036559D01*
X89341459Y-79036537D01*
X89197785Y-78892863D01*
X89197781Y-78892860D01*
X89033920Y-78783371D01*
X89033907Y-78783364D01*
X88899154Y-78727549D01*
X88851836Y-78707949D01*
X88851828Y-78707947D01*
X88731316Y-78683976D01*
X88707057Y-78679150D01*
X88658543Y-78669500D01*
X88658541Y-78669500D01*
X87025244Y-78669500D01*
X87013090Y-78668903D01*
X86970000Y-78664659D01*
X86926910Y-78668903D01*
X86914756Y-78669500D01*
X80775244Y-78669500D01*
X80763090Y-78668903D01*
X80720000Y-78664659D01*
X80676910Y-78668903D01*
X80664756Y-78669500D01*
X70995783Y-78669500D01*
X70928744Y-78649815D01*
X70908102Y-78633181D01*
X69396819Y-77121898D01*
X69363334Y-77060575D01*
X69360500Y-77034217D01*
X69360500Y-71761851D01*
X69362882Y-71737661D01*
X69370500Y-71699361D01*
X69373458Y-71687553D01*
X69386024Y-71646132D01*
X69390267Y-71603047D01*
X69392051Y-71591016D01*
X69400501Y-71548540D01*
X69400501Y-71505234D01*
X69401098Y-71493080D01*
X69402903Y-71474750D01*
X69405341Y-71450000D01*
X69401098Y-71406917D01*
X69400501Y-71394764D01*
X69400501Y-71351458D01*
X69395188Y-71324748D01*
X69392051Y-71308980D01*
X69390267Y-71296951D01*
X69386024Y-71253868D01*
X69373454Y-71212434D01*
X69370499Y-71200635D01*
X69370007Y-71198160D01*
X69362052Y-71158164D01*
X69345479Y-71118155D01*
X69341381Y-71106699D01*
X69328814Y-71065274D01*
X69328813Y-71065270D01*
X69308405Y-71027092D01*
X69303207Y-71016103D01*
X69286632Y-70976085D01*
X69286630Y-70976082D01*
X69286629Y-70976079D01*
X69262573Y-70940078D01*
X69256315Y-70929638D01*
X69235911Y-70891464D01*
X69235910Y-70891462D01*
X69208443Y-70857994D01*
X69201199Y-70848225D01*
X69177141Y-70812219D01*
X69177137Y-70812214D01*
X69146516Y-70781594D01*
X69138342Y-70772576D01*
X69110884Y-70739118D01*
X69110875Y-70739111D01*
X69077421Y-70711655D01*
X69068405Y-70703483D01*
X69037788Y-70672865D01*
X69037783Y-70672861D01*
X69037777Y-70672857D01*
X69026386Y-70665245D01*
X69001765Y-70648793D01*
X68991996Y-70641548D01*
X68958537Y-70614089D01*
X68958534Y-70614088D01*
X68920362Y-70593684D01*
X68909926Y-70587429D01*
X68873919Y-70563370D01*
X68873909Y-70563365D01*
X68833900Y-70546792D01*
X68822903Y-70541591D01*
X68784726Y-70521185D01*
X68784723Y-70521184D01*
X68743299Y-70508618D01*
X68731855Y-70504524D01*
X68691836Y-70487948D01*
X68691834Y-70487947D01*
X68649368Y-70479500D01*
X68637566Y-70476544D01*
X68596134Y-70463976D01*
X68596130Y-70463975D01*
X68553045Y-70459731D01*
X68541016Y-70457946D01*
X68498544Y-70449499D01*
X68498541Y-70449499D01*
X68455234Y-70449499D01*
X68443080Y-70448902D01*
X68400000Y-70444659D01*
X68356920Y-70448902D01*
X68344766Y-70449499D01*
X68301456Y-70449499D01*
X68258984Y-70457946D01*
X68246955Y-70459731D01*
X68203870Y-70463975D01*
X68203863Y-70463977D01*
X68162437Y-70476543D01*
X68150636Y-70479499D01*
X68108171Y-70487946D01*
X68108170Y-70487946D01*
X68068152Y-70504521D01*
X68056701Y-70508618D01*
X68015272Y-70521186D01*
X67977090Y-70541594D01*
X67966097Y-70546793D01*
X67926084Y-70563368D01*
X67926083Y-70563369D01*
X67890070Y-70587430D01*
X67879640Y-70593682D01*
X67841464Y-70614088D01*
X67841463Y-70614089D01*
X67807999Y-70641552D01*
X67798228Y-70648798D01*
X67762225Y-70672855D01*
X67762222Y-70672857D01*
X67731600Y-70703478D01*
X67722589Y-70711644D01*
X67689121Y-70739111D01*
X67661655Y-70772578D01*
X67653487Y-70781589D01*
X67582862Y-70852215D01*
X67582858Y-70852221D01*
X67473371Y-71016079D01*
X67473364Y-71016092D01*
X67397950Y-71198160D01*
X67397947Y-71198170D01*
X67359500Y-71391456D01*
X67359500Y-75991487D01*
X67357116Y-76015679D01*
X67350000Y-76051459D01*
X67350000Y-76248541D01*
X67354126Y-76269286D01*
X67357117Y-76284319D01*
X67359500Y-76308512D01*
X67359500Y-77598541D01*
X67364592Y-77624140D01*
X67364664Y-77624499D01*
X67364664Y-77624502D01*
X67397947Y-77791829D01*
X67397948Y-77791833D01*
X67397949Y-77791836D01*
X67416361Y-77836285D01*
X67473364Y-77973906D01*
X67473366Y-77973911D01*
X67473368Y-77973914D01*
X67582861Y-78137782D01*
X67722218Y-78277139D01*
X67722220Y-78277140D01*
X67729286Y-78284206D01*
X67729285Y-78284206D01*
X67729289Y-78284209D01*
X69077398Y-79632319D01*
X69110883Y-79693642D01*
X69105899Y-79763334D01*
X69064027Y-79819267D01*
X68998563Y-79843684D01*
X68989717Y-79844000D01*
X66764058Y-79844000D01*
X66697019Y-79824315D01*
X66676377Y-79807681D01*
X66593804Y-79725108D01*
X66593784Y-79725086D01*
X66502341Y-79633643D01*
X66445381Y-79595584D01*
X66433693Y-79587774D01*
X66433694Y-79587774D01*
X66433692Y-79587772D01*
X66399896Y-79565190D01*
X66399892Y-79565188D01*
X66393562Y-79562566D01*
X66319398Y-79531847D01*
X66286058Y-79518037D01*
X66286054Y-79518036D01*
X66286050Y-79518035D01*
X66195723Y-79500067D01*
X66195714Y-79500067D01*
X66165213Y-79494000D01*
X66165212Y-79494000D01*
X65252107Y-79494000D01*
X65128893Y-79494000D01*
X65113642Y-79497033D01*
X65098391Y-79500067D01*
X65098390Y-79500066D01*
X65008054Y-79518035D01*
X65008045Y-79518037D01*
X64988043Y-79526323D01*
X64974707Y-79531847D01*
X64894218Y-79565185D01*
X64894213Y-79565188D01*
X64878830Y-79575467D01*
X64823823Y-79595584D01*
X64740397Y-79604983D01*
X64740392Y-79604984D01*
X64570123Y-79664564D01*
X64417384Y-79760537D01*
X64289831Y-79888090D01*
X64193859Y-80040828D01*
X64193857Y-80040831D01*
X64179643Y-80081455D01*
X64138922Y-80138231D01*
X64073969Y-80163978D01*
X64062602Y-80164500D01*
X62976848Y-80164500D01*
X62909809Y-80144815D01*
X62889167Y-80128181D01*
X61516581Y-78755595D01*
X61483096Y-78694272D01*
X61488080Y-78624580D01*
X61499271Y-78601937D01*
X61500789Y-78599523D01*
X61560368Y-78429256D01*
X61567147Y-78369090D01*
X61580565Y-78250004D01*
X61580565Y-78249997D01*
X61560369Y-78070751D01*
X61560368Y-78070746D01*
X61500788Y-77900477D01*
X61432523Y-77791835D01*
X61404816Y-77747739D01*
X61339773Y-77682696D01*
X61306288Y-77621373D01*
X61311272Y-77551681D01*
X61339770Y-77507336D01*
X61402088Y-77445018D01*
X61463407Y-77411536D01*
X61475865Y-77409484D01*
X61522962Y-77404178D01*
X61693229Y-77344599D01*
X61845969Y-77248626D01*
X61973523Y-77121072D01*
X62069496Y-76968332D01*
X62129075Y-76798065D01*
X62134470Y-76750185D01*
X62149272Y-76618813D01*
X62149272Y-76618806D01*
X62129076Y-76439560D01*
X62129075Y-76439555D01*
X62078948Y-76296300D01*
X62069496Y-76269288D01*
X62056460Y-76248542D01*
X61973522Y-76116547D01*
X61845969Y-75988994D01*
X61693230Y-75893021D01*
X61522961Y-75833441D01*
X61522956Y-75833440D01*
X61343711Y-75813245D01*
X61343703Y-75813245D01*
X61164457Y-75833440D01*
X61164452Y-75833441D01*
X60994183Y-75893021D01*
X60841444Y-75988994D01*
X60713891Y-76116547D01*
X60617917Y-76269288D01*
X60558337Y-76439560D01*
X60553033Y-76486635D01*
X60525965Y-76551048D01*
X60517494Y-76560430D01*
X59887450Y-77190476D01*
X59751269Y-77326657D01*
X59751267Y-77326659D01*
X59717181Y-77360745D01*
X59664140Y-77413785D01*
X59643663Y-77444433D01*
X59643661Y-77444436D01*
X59601633Y-77507334D01*
X59595684Y-77516237D01*
X59565045Y-77590210D01*
X59548538Y-77630060D01*
X59548535Y-77630070D01*
X59536518Y-77690483D01*
X59536518Y-77690488D01*
X59530798Y-77719252D01*
X59530797Y-77719256D01*
X59524500Y-77750910D01*
X59524500Y-78971611D01*
X59548535Y-79092444D01*
X59548540Y-79092461D01*
X59595685Y-79206280D01*
X59595690Y-79206289D01*
X59629914Y-79257507D01*
X59629915Y-79257509D01*
X59664140Y-79308731D01*
X59664141Y-79308732D01*
X59664142Y-79308733D01*
X59751267Y-79395858D01*
X59751268Y-79395858D01*
X59758335Y-79402925D01*
X59758334Y-79402925D01*
X59758338Y-79402928D01*
X62081263Y-81725855D01*
X62081267Y-81725858D01*
X62183710Y-81794309D01*
X62183711Y-81794309D01*
X62183715Y-81794312D01*
X62250396Y-81821931D01*
X62250398Y-81821933D01*
X62297543Y-81841461D01*
X62297548Y-81841463D01*
X62317597Y-81845451D01*
X62351196Y-81852134D01*
X62418392Y-81865501D01*
X62418394Y-81865501D01*
X62547721Y-81865501D01*
X62547741Y-81865500D01*
X63939268Y-81865500D01*
X64006307Y-81885185D01*
X64026949Y-81901819D01*
X64340236Y-82215106D01*
X64340265Y-82215137D01*
X64430484Y-82305356D01*
X64430487Y-82305358D01*
X64483178Y-82340565D01*
X64532935Y-82373812D01*
X64594496Y-82399311D01*
X64646768Y-82420963D01*
X64695947Y-82430745D01*
X64767611Y-82444999D01*
X64767612Y-82445000D01*
X64767613Y-82445000D01*
X64767614Y-82445000D01*
X69427067Y-82445000D01*
X69451258Y-82447383D01*
X69567474Y-82470499D01*
X69567478Y-82470500D01*
X69567479Y-82470500D01*
X69567480Y-82470500D01*
X80970500Y-82470500D01*
X81037539Y-82490185D01*
X81083294Y-82542989D01*
X81094500Y-82594500D01*
X81094500Y-85121611D01*
X81118535Y-85242444D01*
X81118540Y-85242461D01*
X81165685Y-85356280D01*
X81165690Y-85356289D01*
X81199914Y-85407507D01*
X81199915Y-85407509D01*
X81234141Y-85458733D01*
X81303787Y-85528379D01*
X81337272Y-85589702D01*
X81339326Y-85602175D01*
X81344630Y-85649249D01*
X81404210Y-85819521D01*
X81500184Y-85972262D01*
X81627738Y-86099816D01*
X81780478Y-86195789D01*
X81950745Y-86255368D01*
X81950750Y-86255369D01*
X82129996Y-86275565D01*
X82130000Y-86275565D01*
X82130004Y-86275565D01*
X82309249Y-86255369D01*
X82309252Y-86255368D01*
X82309255Y-86255368D01*
X82479522Y-86195789D01*
X82632262Y-86099816D01*
X82759816Y-85972262D01*
X82855789Y-85819522D01*
X82915368Y-85649255D01*
X82927018Y-85545858D01*
X82935565Y-85470003D01*
X82935565Y-85469996D01*
X82915369Y-85290750D01*
X82915368Y-85290745D01*
X82855788Y-85120476D01*
X82759815Y-84967737D01*
X82632262Y-84840184D01*
X82479524Y-84744212D01*
X82479520Y-84744210D01*
X82428545Y-84726373D01*
X82371769Y-84685651D01*
X82346022Y-84620698D01*
X82345500Y-84609332D01*
X82345500Y-83522266D01*
X82365185Y-83455227D01*
X82417989Y-83409472D01*
X82483383Y-83399046D01*
X82629996Y-83415565D01*
X82630000Y-83415565D01*
X82630004Y-83415565D01*
X82809249Y-83395369D01*
X82809252Y-83395368D01*
X82809255Y-83395368D01*
X82979522Y-83335789D01*
X83132262Y-83239816D01*
X83259816Y-83112262D01*
X83355789Y-82959522D01*
X83415368Y-82789255D01*
X83435565Y-82610000D01*
X83433168Y-82588729D01*
X83415369Y-82430750D01*
X83415368Y-82430745D01*
X83395446Y-82373811D01*
X83355789Y-82260478D01*
X83274505Y-82131116D01*
X83255500Y-82065145D01*
X83255500Y-81694500D01*
X83275185Y-81627461D01*
X83327989Y-81581706D01*
X83379500Y-81570500D01*
X85804548Y-81570500D01*
X85871587Y-81590185D01*
X85892229Y-81606819D01*
X86871016Y-82585606D01*
X86871045Y-82585637D01*
X86961264Y-82675856D01*
X86961267Y-82675858D01*
X87038190Y-82727256D01*
X87063710Y-82744309D01*
X87063712Y-82744310D01*
X87063715Y-82744312D01*
X87127504Y-82770734D01*
X87177548Y-82791463D01*
X87237971Y-82803481D01*
X87298393Y-82815500D01*
X87298394Y-82815500D01*
X87695145Y-82815500D01*
X87761116Y-82834505D01*
X87890478Y-82915789D01*
X88015460Y-82959522D01*
X88060745Y-82975368D01*
X88060750Y-82975369D01*
X88239996Y-82995565D01*
X88240000Y-82995565D01*
X88240003Y-82995565D01*
X88311616Y-82987496D01*
X88380438Y-82999550D01*
X88431818Y-83046899D01*
X88449500Y-83110716D01*
X88449500Y-94158544D01*
X88487947Y-94351833D01*
X88487949Y-94351837D01*
X88510038Y-94405164D01*
X88563366Y-94533911D01*
X88563371Y-94533920D01*
X88672859Y-94697780D01*
X88672860Y-94697781D01*
X88672861Y-94697782D01*
X88812218Y-94837139D01*
X88812219Y-94837139D01*
X88819286Y-94844206D01*
X88819285Y-94844206D01*
X88819288Y-94844208D01*
X91722860Y-97747781D01*
X91722861Y-97747782D01*
X91843465Y-97868386D01*
X91862219Y-97887140D01*
X91916205Y-97923212D01*
X92026086Y-97996632D01*
X92132745Y-98040811D01*
X92208164Y-98072051D01*
X92401454Y-98110499D01*
X92401457Y-98110500D01*
X92401459Y-98110500D01*
X92598543Y-98110500D01*
X92728582Y-98084632D01*
X92791835Y-98072051D01*
X92973914Y-97996632D01*
X93137782Y-97887139D01*
X93277139Y-97747782D01*
X93386632Y-97583914D01*
X93462051Y-97401835D01*
X93500500Y-97208541D01*
X93500500Y-96971459D01*
X93500500Y-96971456D01*
X93462052Y-96778170D01*
X93462051Y-96778169D01*
X93462051Y-96778165D01*
X93462049Y-96778160D01*
X93386635Y-96596092D01*
X93386628Y-96596079D01*
X93277139Y-96432218D01*
X93277136Y-96432214D01*
X93137785Y-96292863D01*
X93137781Y-96292860D01*
X93027387Y-96219097D01*
X93008597Y-96203676D01*
X92458953Y-95654032D01*
X91727339Y-94922419D01*
X91693855Y-94861097D01*
X91698839Y-94791405D01*
X91740711Y-94735472D01*
X91774072Y-94717695D01*
X91779522Y-94715789D01*
X91932262Y-94619816D01*
X92059816Y-94492262D01*
X92067521Y-94479999D01*
X106294341Y-94479999D01*
X106294341Y-94480000D01*
X106314936Y-94715403D01*
X106314938Y-94715413D01*
X106376094Y-94943655D01*
X106376096Y-94943659D01*
X106376097Y-94943663D01*
X106380000Y-94952032D01*
X106475965Y-95157830D01*
X106475967Y-95157834D01*
X106584281Y-95312521D01*
X106611505Y-95351401D01*
X106778599Y-95518495D01*
X106875384Y-95586265D01*
X106972165Y-95654032D01*
X106972167Y-95654033D01*
X106972170Y-95654035D01*
X107186337Y-95753903D01*
X107414592Y-95815063D01*
X107602918Y-95831539D01*
X107649999Y-95835659D01*
X107650000Y-95835659D01*
X107650001Y-95835659D01*
X107689234Y-95832226D01*
X107885408Y-95815063D01*
X108113663Y-95753903D01*
X108327830Y-95654035D01*
X108521401Y-95518495D01*
X108688495Y-95351401D01*
X108818425Y-95165842D01*
X108873002Y-95122217D01*
X108942500Y-95115023D01*
X109004855Y-95146546D01*
X109021575Y-95165842D01*
X109151500Y-95351395D01*
X109151505Y-95351401D01*
X109318599Y-95518495D01*
X109415384Y-95586265D01*
X109512165Y-95654032D01*
X109512167Y-95654033D01*
X109512170Y-95654035D01*
X109726337Y-95753903D01*
X109954592Y-95815063D01*
X110142918Y-95831539D01*
X110189999Y-95835659D01*
X110190000Y-95835659D01*
X110190001Y-95835659D01*
X110229234Y-95832226D01*
X110425408Y-95815063D01*
X110653663Y-95753903D01*
X110867830Y-95654035D01*
X111061401Y-95518495D01*
X111228495Y-95351401D01*
X111364035Y-95157830D01*
X111463903Y-94943663D01*
X111525063Y-94715408D01*
X111545659Y-94480000D01*
X111525063Y-94244592D01*
X111463903Y-94016337D01*
X111364035Y-93802171D01*
X111358425Y-93794158D01*
X111228494Y-93608597D01*
X111061402Y-93441506D01*
X111061401Y-93441505D01*
X110875405Y-93311269D01*
X110831781Y-93256692D01*
X110824588Y-93187193D01*
X110856110Y-93124839D01*
X110875405Y-93108119D01*
X111061082Y-92978105D01*
X111228105Y-92811082D01*
X111363600Y-92617578D01*
X111463429Y-92403492D01*
X111463432Y-92403486D01*
X111520636Y-92190000D01*
X110623012Y-92190000D01*
X110655925Y-92132993D01*
X110690000Y-92005826D01*
X110690000Y-91874174D01*
X110655925Y-91747007D01*
X110623012Y-91690000D01*
X111520636Y-91690000D01*
X111520635Y-91689999D01*
X111463432Y-91476513D01*
X111463429Y-91476507D01*
X111363600Y-91262422D01*
X111363599Y-91262420D01*
X111228113Y-91068926D01*
X111228108Y-91068920D01*
X111061078Y-90901890D01*
X110875405Y-90771879D01*
X110831780Y-90717302D01*
X110824588Y-90647804D01*
X110856110Y-90585449D01*
X110875406Y-90568730D01*
X110885063Y-90561968D01*
X111061401Y-90438495D01*
X111228495Y-90271401D01*
X111364035Y-90077830D01*
X111463903Y-89863663D01*
X111525063Y-89635408D01*
X111545659Y-89400000D01*
X111544755Y-89389673D01*
X111526755Y-89183931D01*
X111525063Y-89164592D01*
X111463903Y-88936337D01*
X111364035Y-88722171D01*
X111344110Y-88693714D01*
X111228494Y-88528597D01*
X111061402Y-88361506D01*
X111061395Y-88361501D01*
X110867834Y-88225967D01*
X110867830Y-88225965D01*
X110867828Y-88225964D01*
X110653663Y-88126097D01*
X110653659Y-88126096D01*
X110653655Y-88126094D01*
X110425413Y-88064938D01*
X110425403Y-88064936D01*
X110190001Y-88044341D01*
X110189999Y-88044341D01*
X109954596Y-88064936D01*
X109954586Y-88064938D01*
X109726344Y-88126094D01*
X109726335Y-88126098D01*
X109512171Y-88225964D01*
X109512169Y-88225965D01*
X109318600Y-88361503D01*
X109196673Y-88483430D01*
X109135350Y-88516914D01*
X109065658Y-88511930D01*
X109009725Y-88470058D01*
X108992810Y-88439081D01*
X108943797Y-88307671D01*
X108943793Y-88307664D01*
X108857547Y-88192455D01*
X108857544Y-88192452D01*
X108742335Y-88106206D01*
X108742328Y-88106202D01*
X108607482Y-88055908D01*
X108607483Y-88055908D01*
X108547883Y-88049501D01*
X108547881Y-88049500D01*
X108547873Y-88049500D01*
X108547864Y-88049500D01*
X106752129Y-88049500D01*
X106752123Y-88049501D01*
X106692516Y-88055908D01*
X106557671Y-88106202D01*
X106557664Y-88106206D01*
X106442455Y-88192452D01*
X106442452Y-88192455D01*
X106356206Y-88307664D01*
X106356202Y-88307671D01*
X106305908Y-88442517D01*
X106299501Y-88502116D01*
X106299500Y-88502135D01*
X106299500Y-90297870D01*
X106299501Y-90297876D01*
X106305908Y-90357483D01*
X106356202Y-90492328D01*
X106356206Y-90492335D01*
X106442452Y-90607544D01*
X106442455Y-90607547D01*
X106557664Y-90693793D01*
X106557671Y-90693797D01*
X106557674Y-90693798D01*
X106689598Y-90743002D01*
X106745531Y-90784873D01*
X106769949Y-90850337D01*
X106755098Y-90918610D01*
X106733947Y-90946865D01*
X106611886Y-91068926D01*
X106476400Y-91262420D01*
X106476399Y-91262422D01*
X106376570Y-91476507D01*
X106376567Y-91476513D01*
X106319364Y-91689999D01*
X106319364Y-91690000D01*
X107216988Y-91690000D01*
X107184075Y-91747007D01*
X107150000Y-91874174D01*
X107150000Y-92005826D01*
X107184075Y-92132993D01*
X107216988Y-92190000D01*
X106319364Y-92190000D01*
X106376567Y-92403486D01*
X106376570Y-92403492D01*
X106476399Y-92617578D01*
X106611894Y-92811082D01*
X106778917Y-92978105D01*
X106964595Y-93108119D01*
X107008219Y-93162696D01*
X107015412Y-93232195D01*
X106983890Y-93294549D01*
X106964595Y-93311269D01*
X106778594Y-93441508D01*
X106611505Y-93608597D01*
X106475965Y-93802169D01*
X106475964Y-93802171D01*
X106376098Y-94016335D01*
X106376094Y-94016344D01*
X106314938Y-94244586D01*
X106314936Y-94244596D01*
X106294341Y-94479999D01*
X92067521Y-94479999D01*
X92155789Y-94339522D01*
X92215368Y-94169255D01*
X92216576Y-94158540D01*
X92235565Y-93990002D01*
X92235565Y-93990000D01*
X92232349Y-93961460D01*
X92225962Y-93904783D01*
X92225846Y-93887702D01*
X92225500Y-93887702D01*
X92225500Y-93844092D01*
X92245185Y-93777053D01*
X92297989Y-93731298D01*
X92367147Y-93721354D01*
X92423812Y-93744826D01*
X92457910Y-93770352D01*
X92457913Y-93770354D01*
X92592620Y-93820596D01*
X92592627Y-93820598D01*
X92652155Y-93826999D01*
X92652172Y-93827000D01*
X92900916Y-93827000D01*
X92914800Y-93827780D01*
X92949998Y-93831746D01*
X92950002Y-93831746D01*
X92985200Y-93827780D01*
X92999084Y-93827000D01*
X93767583Y-93827000D01*
X93781467Y-93827780D01*
X93816665Y-93831746D01*
X93816669Y-93831746D01*
X93851867Y-93827780D01*
X93865751Y-93827000D01*
X94000000Y-93827000D01*
X94000000Y-93613886D01*
X93999999Y-93613885D01*
X94500000Y-93613885D01*
X94500000Y-93827000D01*
X94634249Y-93827000D01*
X94648133Y-93827780D01*
X94683331Y-93831746D01*
X94683335Y-93831746D01*
X94718533Y-93827780D01*
X94732417Y-93827000D01*
X95500916Y-93827000D01*
X95514800Y-93827780D01*
X95549998Y-93831746D01*
X95550002Y-93831746D01*
X95585200Y-93827780D01*
X95599084Y-93827000D01*
X95847828Y-93827000D01*
X95847844Y-93826999D01*
X95907372Y-93820598D01*
X95907379Y-93820596D01*
X96042086Y-93770354D01*
X96042093Y-93770350D01*
X96157187Y-93684190D01*
X96157190Y-93684187D01*
X96243350Y-93569093D01*
X96243354Y-93569086D01*
X96293596Y-93434379D01*
X96293598Y-93434372D01*
X96299999Y-93374844D01*
X96300000Y-93374827D01*
X96300000Y-93126083D01*
X96300780Y-93112198D01*
X96304746Y-93077001D01*
X96304746Y-93076998D01*
X96300780Y-93041800D01*
X96300000Y-93027916D01*
X96300000Y-92259416D01*
X96300780Y-92245531D01*
X96304746Y-92210334D01*
X96304746Y-92210331D01*
X96300780Y-92175133D01*
X96300000Y-92161249D01*
X96300000Y-92027000D01*
X96086885Y-92027000D01*
X95903553Y-92210333D01*
X96201818Y-92508598D01*
X96235303Y-92569921D01*
X96238137Y-92596279D01*
X96238137Y-92691054D01*
X96218452Y-92758093D01*
X96201818Y-92778735D01*
X95251735Y-93728818D01*
X95190412Y-93762303D01*
X95164054Y-93765137D01*
X95069279Y-93765137D01*
X95002240Y-93745452D01*
X94981598Y-93728818D01*
X94683333Y-93430553D01*
X94500000Y-93613885D01*
X93999999Y-93613885D01*
X93816667Y-93430553D01*
X93518402Y-93728818D01*
X93457079Y-93762303D01*
X93430721Y-93765137D01*
X93335946Y-93765137D01*
X93268907Y-93745452D01*
X93248265Y-93728818D01*
X92566610Y-93047163D01*
X92800000Y-93047163D01*
X92800000Y-93106837D01*
X92822836Y-93161968D01*
X92865032Y-93204164D01*
X92920163Y-93227000D01*
X92979837Y-93227000D01*
X93034968Y-93204164D01*
X93077164Y-93161968D01*
X93100000Y-93106837D01*
X93100000Y-93077000D01*
X93303553Y-93077000D01*
X93303553Y-93077001D01*
X93383332Y-93156780D01*
X93463113Y-93076999D01*
X93433277Y-93047163D01*
X93666667Y-93047163D01*
X93666667Y-93106837D01*
X93689503Y-93161968D01*
X93731699Y-93204164D01*
X93786830Y-93227000D01*
X93846504Y-93227000D01*
X93901635Y-93204164D01*
X93943831Y-93161968D01*
X93966667Y-93106837D01*
X93966667Y-93047163D01*
X94533333Y-93047163D01*
X94533333Y-93106837D01*
X94556169Y-93161968D01*
X94598365Y-93204164D01*
X94653496Y-93227000D01*
X94713170Y-93227000D01*
X94768301Y-93204164D01*
X94810497Y-93161968D01*
X94833333Y-93106837D01*
X94833333Y-93077000D01*
X95036886Y-93077000D01*
X95036886Y-93077001D01*
X95116665Y-93156780D01*
X95196446Y-93076999D01*
X95166610Y-93047163D01*
X95400000Y-93047163D01*
X95400000Y-93106837D01*
X95422836Y-93161968D01*
X95465032Y-93204164D01*
X95520163Y-93227000D01*
X95579837Y-93227000D01*
X95634968Y-93204164D01*
X95677164Y-93161968D01*
X95700000Y-93106837D01*
X95700000Y-93047163D01*
X95677164Y-92992032D01*
X95634968Y-92949836D01*
X95579837Y-92927000D01*
X95520163Y-92927000D01*
X95465032Y-92949836D01*
X95422836Y-92992032D01*
X95400000Y-93047163D01*
X95166610Y-93047163D01*
X95116666Y-92997219D01*
X95036886Y-93077000D01*
X94833333Y-93077000D01*
X94833333Y-93047163D01*
X94810497Y-92992032D01*
X94768301Y-92949836D01*
X94713170Y-92927000D01*
X94653496Y-92927000D01*
X94598365Y-92949836D01*
X94556169Y-92992032D01*
X94533333Y-93047163D01*
X93966667Y-93047163D01*
X93943831Y-92992032D01*
X93901635Y-92949836D01*
X93846504Y-92927000D01*
X93786830Y-92927000D01*
X93731699Y-92949836D01*
X93689503Y-92992032D01*
X93666667Y-93047163D01*
X93433277Y-93047163D01*
X93383333Y-92997219D01*
X93303553Y-93077000D01*
X93100000Y-93077000D01*
X93100000Y-93047163D01*
X93077164Y-92992032D01*
X93034968Y-92949836D01*
X92979837Y-92927000D01*
X92920163Y-92927000D01*
X92865032Y-92949836D01*
X92822836Y-92992032D01*
X92800000Y-93047163D01*
X92566610Y-93047163D01*
X92298181Y-92778734D01*
X92264696Y-92717411D01*
X92261862Y-92691053D01*
X92261862Y-92643666D01*
X92870219Y-92643666D01*
X92949999Y-92723446D01*
X93029779Y-92643666D01*
X93736886Y-92643666D01*
X93816666Y-92723446D01*
X93896446Y-92643666D01*
X94603552Y-92643666D01*
X94683332Y-92723446D01*
X94763112Y-92643666D01*
X95470219Y-92643666D01*
X95549999Y-92723446D01*
X95629780Y-92643665D01*
X95550001Y-92563886D01*
X95470219Y-92643666D01*
X94763112Y-92643666D01*
X94763113Y-92643665D01*
X94683334Y-92563886D01*
X94603552Y-92643666D01*
X93896446Y-92643666D01*
X93896447Y-92643665D01*
X93816668Y-92563886D01*
X93736886Y-92643666D01*
X93029779Y-92643666D01*
X93029780Y-92643665D01*
X92950001Y-92563886D01*
X92870219Y-92643666D01*
X92261862Y-92643666D01*
X92261862Y-92596280D01*
X92281547Y-92529241D01*
X92298181Y-92508599D01*
X92596447Y-92210333D01*
X92566610Y-92180496D01*
X92800000Y-92180496D01*
X92800000Y-92240170D01*
X92822836Y-92295301D01*
X92865032Y-92337497D01*
X92920163Y-92360333D01*
X92979837Y-92360333D01*
X93034968Y-92337497D01*
X93077164Y-92295301D01*
X93100000Y-92240170D01*
X93100000Y-92210333D01*
X93303553Y-92210333D01*
X93303553Y-92210334D01*
X93383332Y-92290113D01*
X93463113Y-92210332D01*
X93433277Y-92180496D01*
X93666667Y-92180496D01*
X93666667Y-92240170D01*
X93689503Y-92295301D01*
X93731699Y-92337497D01*
X93786830Y-92360333D01*
X93846504Y-92360333D01*
X93901635Y-92337497D01*
X93943831Y-92295301D01*
X93966667Y-92240170D01*
X93966667Y-92180496D01*
X94533333Y-92180496D01*
X94533333Y-92240170D01*
X94556169Y-92295301D01*
X94598365Y-92337497D01*
X94653496Y-92360333D01*
X94713170Y-92360333D01*
X94768301Y-92337497D01*
X94810497Y-92295301D01*
X94833333Y-92240170D01*
X94833333Y-92210333D01*
X95036886Y-92210333D01*
X95036886Y-92210334D01*
X95116665Y-92290113D01*
X95196446Y-92210332D01*
X95166610Y-92180496D01*
X95400000Y-92180496D01*
X95400000Y-92240170D01*
X95422836Y-92295301D01*
X95465032Y-92337497D01*
X95520163Y-92360333D01*
X95579837Y-92360333D01*
X95634968Y-92337497D01*
X95677164Y-92295301D01*
X95700000Y-92240170D01*
X95700000Y-92180496D01*
X95677164Y-92125365D01*
X95634968Y-92083169D01*
X95579837Y-92060333D01*
X95520163Y-92060333D01*
X95465032Y-92083169D01*
X95422836Y-92125365D01*
X95400000Y-92180496D01*
X95166610Y-92180496D01*
X95116666Y-92130552D01*
X95036886Y-92210333D01*
X94833333Y-92210333D01*
X94833333Y-92180496D01*
X94810497Y-92125365D01*
X94768301Y-92083169D01*
X94713170Y-92060333D01*
X94653496Y-92060333D01*
X94598365Y-92083169D01*
X94556169Y-92125365D01*
X94533333Y-92180496D01*
X93966667Y-92180496D01*
X93943831Y-92125365D01*
X93901635Y-92083169D01*
X93846504Y-92060333D01*
X93786830Y-92060333D01*
X93731699Y-92083169D01*
X93689503Y-92125365D01*
X93666667Y-92180496D01*
X93433277Y-92180496D01*
X93383333Y-92130552D01*
X93303553Y-92210333D01*
X93100000Y-92210333D01*
X93100000Y-92180496D01*
X93077164Y-92125365D01*
X93034968Y-92083169D01*
X92979837Y-92060333D01*
X92920163Y-92060333D01*
X92865032Y-92083169D01*
X92822836Y-92125365D01*
X92800000Y-92180496D01*
X92566610Y-92180496D01*
X92298180Y-91912066D01*
X92264695Y-91850743D01*
X92261861Y-91824385D01*
X92261861Y-91777000D01*
X92870220Y-91777000D01*
X92950000Y-91856780D01*
X93029780Y-91777000D01*
X93736887Y-91777000D01*
X93816667Y-91856780D01*
X93896447Y-91777000D01*
X93816667Y-91697220D01*
X93736887Y-91777000D01*
X93029780Y-91777000D01*
X92950000Y-91697220D01*
X92870220Y-91777000D01*
X92261861Y-91777000D01*
X92261861Y-91729615D01*
X92281546Y-91662576D01*
X92298180Y-91641934D01*
X92596447Y-91343667D01*
X92566610Y-91313830D01*
X92800000Y-91313830D01*
X92800000Y-91373504D01*
X92822836Y-91428635D01*
X92865032Y-91470831D01*
X92920163Y-91493667D01*
X92979837Y-91493667D01*
X93034968Y-91470831D01*
X93077164Y-91428635D01*
X93100000Y-91373504D01*
X93100000Y-91343667D01*
X93303553Y-91343667D01*
X93303553Y-91343668D01*
X93383332Y-91423447D01*
X93463113Y-91343666D01*
X93433277Y-91313830D01*
X93666667Y-91313830D01*
X93666667Y-91373504D01*
X93689503Y-91428635D01*
X93731699Y-91470831D01*
X93786830Y-91493667D01*
X93846504Y-91493667D01*
X93901635Y-91470831D01*
X93943831Y-91428635D01*
X93966667Y-91373504D01*
X93966667Y-91313830D01*
X94533333Y-91313830D01*
X94533333Y-91373504D01*
X94556169Y-91428635D01*
X94598365Y-91470831D01*
X94653496Y-91493667D01*
X94713170Y-91493667D01*
X94768301Y-91470831D01*
X94810497Y-91428635D01*
X94833333Y-91373504D01*
X94833333Y-91343667D01*
X95036886Y-91343667D01*
X95036886Y-91343668D01*
X95116665Y-91423447D01*
X95196446Y-91343666D01*
X95166610Y-91313830D01*
X95400000Y-91313830D01*
X95400000Y-91373504D01*
X95422836Y-91428635D01*
X95465032Y-91470831D01*
X95520163Y-91493667D01*
X95579837Y-91493667D01*
X95634968Y-91470831D01*
X95677164Y-91428635D01*
X95700000Y-91373504D01*
X95700000Y-91313830D01*
X95677164Y-91258699D01*
X95634968Y-91216503D01*
X95579837Y-91193667D01*
X95520163Y-91193667D01*
X95465032Y-91216503D01*
X95422836Y-91258699D01*
X95400000Y-91313830D01*
X95166610Y-91313830D01*
X95116666Y-91263886D01*
X95036886Y-91343667D01*
X94833333Y-91343667D01*
X94833333Y-91313830D01*
X94810497Y-91258699D01*
X94768301Y-91216503D01*
X94713170Y-91193667D01*
X94653496Y-91193667D01*
X94598365Y-91216503D01*
X94556169Y-91258699D01*
X94533333Y-91313830D01*
X93966667Y-91313830D01*
X93943831Y-91258699D01*
X93901635Y-91216503D01*
X93846504Y-91193667D01*
X93786830Y-91193667D01*
X93731699Y-91216503D01*
X93689503Y-91258699D01*
X93666667Y-91313830D01*
X93433277Y-91313830D01*
X93383333Y-91263886D01*
X93303553Y-91343667D01*
X93100000Y-91343667D01*
X93100000Y-91313830D01*
X93077164Y-91258699D01*
X93034968Y-91216503D01*
X92979837Y-91193667D01*
X92920163Y-91193667D01*
X92865032Y-91216503D01*
X92822836Y-91258699D01*
X92800000Y-91313830D01*
X92566610Y-91313830D01*
X92298181Y-91045401D01*
X92264696Y-90984078D01*
X92261862Y-90957720D01*
X92261862Y-90910333D01*
X92870219Y-90910333D01*
X92949999Y-90990113D01*
X93029779Y-90910333D01*
X93736886Y-90910333D01*
X93816666Y-90990113D01*
X93896446Y-90910333D01*
X94603552Y-90910333D01*
X94683332Y-90990113D01*
X94763112Y-90910333D01*
X95470219Y-90910333D01*
X95549999Y-90990113D01*
X95629780Y-90910332D01*
X95550001Y-90830553D01*
X95470219Y-90910333D01*
X94763112Y-90910333D01*
X94763113Y-90910332D01*
X94683334Y-90830553D01*
X94603552Y-90910333D01*
X93896446Y-90910333D01*
X93896447Y-90910332D01*
X93816668Y-90830553D01*
X93736886Y-90910333D01*
X93029779Y-90910333D01*
X93029780Y-90910332D01*
X92950001Y-90830553D01*
X92870219Y-90910333D01*
X92261862Y-90910333D01*
X92261862Y-90862947D01*
X92281547Y-90795908D01*
X92298181Y-90775266D01*
X92626284Y-90447163D01*
X92800000Y-90447163D01*
X92800000Y-90506837D01*
X92822836Y-90561968D01*
X92865032Y-90604164D01*
X92920163Y-90627000D01*
X92979837Y-90627000D01*
X93034968Y-90604164D01*
X93077164Y-90561968D01*
X93100000Y-90506837D01*
X93100000Y-90477000D01*
X93303553Y-90477000D01*
X93303553Y-90477001D01*
X93383332Y-90556780D01*
X93463113Y-90476999D01*
X93433277Y-90447163D01*
X93666667Y-90447163D01*
X93666667Y-90506837D01*
X93689503Y-90561968D01*
X93731699Y-90604164D01*
X93786830Y-90627000D01*
X93846504Y-90627000D01*
X93901635Y-90604164D01*
X93943831Y-90561968D01*
X93966667Y-90506837D01*
X93966667Y-90447163D01*
X94533333Y-90447163D01*
X94533333Y-90506837D01*
X94556169Y-90561968D01*
X94598365Y-90604164D01*
X94653496Y-90627000D01*
X94713170Y-90627000D01*
X94768301Y-90604164D01*
X94810497Y-90561968D01*
X94833333Y-90506837D01*
X94833333Y-90477000D01*
X95036886Y-90477000D01*
X95036886Y-90477001D01*
X95116665Y-90556780D01*
X95196446Y-90476999D01*
X95166610Y-90447163D01*
X95400000Y-90447163D01*
X95400000Y-90506837D01*
X95422836Y-90561968D01*
X95465032Y-90604164D01*
X95520163Y-90627000D01*
X95579837Y-90627000D01*
X95634968Y-90604164D01*
X95677164Y-90561968D01*
X95700000Y-90506837D01*
X95700000Y-90447163D01*
X95677164Y-90392032D01*
X95634968Y-90349836D01*
X95579837Y-90327000D01*
X95520163Y-90327000D01*
X95465032Y-90349836D01*
X95422836Y-90392032D01*
X95400000Y-90447163D01*
X95166610Y-90447163D01*
X95116666Y-90397219D01*
X95036886Y-90477000D01*
X94833333Y-90477000D01*
X94833333Y-90447163D01*
X94810497Y-90392032D01*
X94768301Y-90349836D01*
X94713170Y-90327000D01*
X94653496Y-90327000D01*
X94598365Y-90349836D01*
X94556169Y-90392032D01*
X94533333Y-90447163D01*
X93966667Y-90447163D01*
X93943831Y-90392032D01*
X93901635Y-90349836D01*
X93846504Y-90327000D01*
X93786830Y-90327000D01*
X93731699Y-90349836D01*
X93689503Y-90392032D01*
X93666667Y-90447163D01*
X93433277Y-90447163D01*
X93383333Y-90397219D01*
X93303553Y-90477000D01*
X93100000Y-90477000D01*
X93100000Y-90447163D01*
X93077164Y-90392032D01*
X93034968Y-90349836D01*
X92979837Y-90327000D01*
X92920163Y-90327000D01*
X92865032Y-90349836D01*
X92822836Y-90392032D01*
X92800000Y-90447163D01*
X92626284Y-90447163D01*
X93248266Y-89825181D01*
X93309589Y-89791696D01*
X93335947Y-89788862D01*
X93430720Y-89788862D01*
X93497759Y-89808547D01*
X93518401Y-89825181D01*
X93816667Y-90123447D01*
X93999999Y-89940114D01*
X94000000Y-89940113D01*
X94000000Y-89727000D01*
X94500000Y-89727000D01*
X94500000Y-89940114D01*
X94683333Y-90123447D01*
X94981599Y-89825181D01*
X95042922Y-89791696D01*
X95069280Y-89788862D01*
X95164053Y-89788862D01*
X95231092Y-89808547D01*
X95251734Y-89825181D01*
X96201818Y-90775265D01*
X96235303Y-90836588D01*
X96238137Y-90862946D01*
X96238137Y-90957721D01*
X96218452Y-91024760D01*
X96201818Y-91045402D01*
X95903553Y-91343667D01*
X96086886Y-91527000D01*
X96300000Y-91527000D01*
X96300000Y-91392750D01*
X96300780Y-91378865D01*
X96304746Y-91343668D01*
X96304746Y-91343665D01*
X96300780Y-91308467D01*
X96300000Y-91294583D01*
X96300000Y-90526083D01*
X96300780Y-90512198D01*
X96304746Y-90477001D01*
X96304746Y-90476998D01*
X96300780Y-90441800D01*
X96300000Y-90427916D01*
X96300000Y-90179172D01*
X96299999Y-90179155D01*
X96293598Y-90119627D01*
X96293596Y-90119620D01*
X96243354Y-89984913D01*
X96243350Y-89984906D01*
X96157190Y-89869812D01*
X96157187Y-89869809D01*
X96042093Y-89783649D01*
X96042086Y-89783645D01*
X95907379Y-89733403D01*
X95907372Y-89733401D01*
X95847844Y-89727000D01*
X95599084Y-89727000D01*
X95585200Y-89726220D01*
X95550002Y-89722254D01*
X95549998Y-89722254D01*
X95514800Y-89726220D01*
X95500916Y-89727000D01*
X94732417Y-89727000D01*
X94718533Y-89726220D01*
X94683335Y-89722254D01*
X94683331Y-89722254D01*
X94648133Y-89726220D01*
X94634249Y-89727000D01*
X94500000Y-89727000D01*
X94000000Y-89727000D01*
X93865751Y-89727000D01*
X93851867Y-89726220D01*
X93816669Y-89722254D01*
X93816665Y-89722254D01*
X93781467Y-89726220D01*
X93767583Y-89727000D01*
X92999084Y-89727000D01*
X92985200Y-89726220D01*
X92950002Y-89722254D01*
X92949998Y-89722254D01*
X92914800Y-89726220D01*
X92900916Y-89727000D01*
X92652155Y-89727000D01*
X92592627Y-89733401D01*
X92592620Y-89733403D01*
X92457913Y-89783645D01*
X92457910Y-89783647D01*
X92423811Y-89809174D01*
X92358346Y-89833591D01*
X92290073Y-89818739D01*
X92240668Y-89769334D01*
X92225500Y-89709907D01*
X92225500Y-89498901D01*
X92245185Y-89431862D01*
X92283525Y-89393909D01*
X92403644Y-89318434D01*
X92531198Y-89190880D01*
X92627171Y-89038140D01*
X92686750Y-88867873D01*
X92686751Y-88867867D01*
X92706947Y-88688621D01*
X92706947Y-88688614D01*
X92686751Y-88509368D01*
X92686750Y-88509363D01*
X92672997Y-88470058D01*
X92627171Y-88339096D01*
X92531198Y-88186356D01*
X92403644Y-88058802D01*
X92388840Y-88049500D01*
X92250905Y-87962829D01*
X92080636Y-87903249D01*
X92080631Y-87903248D01*
X91901386Y-87883053D01*
X91901378Y-87883053D01*
X91722132Y-87903248D01*
X91722127Y-87903249D01*
X91551858Y-87962829D01*
X91399119Y-88058802D01*
X91271566Y-88186355D01*
X91175592Y-88339096D01*
X91141542Y-88436408D01*
X91100820Y-88493184D01*
X91035867Y-88518932D01*
X90967306Y-88505476D01*
X90916903Y-88457089D01*
X90900500Y-88395454D01*
X90900500Y-80156667D01*
X90897882Y-80143505D01*
X90895500Y-80119316D01*
X90895500Y-78450125D01*
X90915185Y-78383086D01*
X90967989Y-78337331D01*
X91005615Y-78326904D01*
X91019255Y-78325368D01*
X91189522Y-78265789D01*
X91342262Y-78169816D01*
X91469816Y-78042262D01*
X91565789Y-77889522D01*
X91625368Y-77719255D01*
X91645565Y-77540000D01*
X91641884Y-77507334D01*
X91625369Y-77360750D01*
X91625368Y-77360745D01*
X91586136Y-77248626D01*
X91565789Y-77190478D01*
X91469816Y-77037738D01*
X91374259Y-76942181D01*
X91340774Y-76880858D01*
X91345758Y-76811166D01*
X91387630Y-76755233D01*
X91453094Y-76730816D01*
X91461940Y-76730500D01*
X93674218Y-76730500D01*
X93741257Y-76750185D01*
X93761898Y-76766818D01*
X95378165Y-78383086D01*
X96988479Y-79993400D01*
X96996652Y-80002417D01*
X97024116Y-80035883D01*
X97057581Y-80063346D01*
X97066599Y-80071520D01*
X97097215Y-80102137D01*
X97097219Y-80102140D01*
X97133223Y-80126197D01*
X97142988Y-80133438D01*
X97176462Y-80160910D01*
X97176465Y-80160911D01*
X97176468Y-80160914D01*
X97214653Y-80181324D01*
X97225082Y-80187574D01*
X97261086Y-80211631D01*
X97277432Y-80218401D01*
X97301087Y-80228201D01*
X97312082Y-80233401D01*
X97350273Y-80253814D01*
X97391721Y-80266387D01*
X97403166Y-80270483D01*
X97443156Y-80287048D01*
X97443157Y-80287048D01*
X97443164Y-80287051D01*
X97485632Y-80295497D01*
X97497424Y-80298451D01*
X97538868Y-80311024D01*
X97581965Y-80315268D01*
X97593991Y-80317052D01*
X97624481Y-80323117D01*
X97636459Y-80325500D01*
X97636460Y-80325500D01*
X97679756Y-80325500D01*
X97691909Y-80326096D01*
X97735000Y-80330341D01*
X97778090Y-80326096D01*
X97790244Y-80325500D01*
X97833541Y-80325500D01*
X97849453Y-80322334D01*
X97876004Y-80317053D01*
X97888036Y-80315268D01*
X97931132Y-80311024D01*
X97972570Y-80298452D01*
X97984370Y-80295497D01*
X98026836Y-80287051D01*
X98066855Y-80270473D01*
X98078275Y-80266387D01*
X98119727Y-80253814D01*
X98157922Y-80233397D01*
X98168901Y-80228204D01*
X98208914Y-80211631D01*
X98244914Y-80187575D01*
X98255338Y-80181327D01*
X98293538Y-80160910D01*
X98298708Y-80156667D01*
X98327009Y-80133441D01*
X98336780Y-80126194D01*
X98372781Y-80102140D01*
X98403400Y-80071519D01*
X98412417Y-80063347D01*
X98412418Y-80063346D01*
X98445883Y-80035883D01*
X98473348Y-80002415D01*
X98481521Y-79993399D01*
X98512140Y-79962781D01*
X98536194Y-79926780D01*
X98543441Y-79917009D01*
X98570907Y-79883542D01*
X98570907Y-79883541D01*
X98570910Y-79883538D01*
X98591327Y-79845338D01*
X98597576Y-79834914D01*
X98608031Y-79819267D01*
X98621631Y-79798914D01*
X98638204Y-79758901D01*
X98643401Y-79747916D01*
X98663814Y-79709727D01*
X98676387Y-79668275D01*
X98680473Y-79656855D01*
X98697051Y-79616836D01*
X98705497Y-79574370D01*
X98708454Y-79562566D01*
X98721024Y-79521132D01*
X98725268Y-79478036D01*
X98727054Y-79465998D01*
X98735500Y-79423540D01*
X98735500Y-79380244D01*
X98736097Y-79368090D01*
X98740341Y-79325000D01*
X98736097Y-79281907D01*
X98735500Y-79269754D01*
X98735500Y-79226459D01*
X98731486Y-79206280D01*
X98727052Y-79183991D01*
X98725268Y-79171962D01*
X98721024Y-79128868D01*
X98708451Y-79087424D01*
X98705496Y-79075625D01*
X98697051Y-79033164D01*
X98696660Y-79032221D01*
X98680483Y-78993166D01*
X98676387Y-78981721D01*
X98663814Y-78940273D01*
X98643402Y-78902084D01*
X98638201Y-78891087D01*
X98621631Y-78851087D01*
X98621631Y-78851086D01*
X98597574Y-78815082D01*
X98591324Y-78804653D01*
X98570914Y-78766468D01*
X98570911Y-78766465D01*
X98570910Y-78766462D01*
X98543438Y-78732988D01*
X98536194Y-78723219D01*
X98512141Y-78687220D01*
X98512137Y-78687215D01*
X98481520Y-78656599D01*
X98473346Y-78647581D01*
X98445883Y-78614116D01*
X98412417Y-78586652D01*
X98403400Y-78578479D01*
X94924209Y-75099289D01*
X94924206Y-75099285D01*
X94924206Y-75099286D01*
X94917139Y-75092219D01*
X94917139Y-75092218D01*
X94777782Y-74952861D01*
X94777781Y-74952860D01*
X94777780Y-74952859D01*
X94613920Y-74843371D01*
X94613911Y-74843366D01*
X94530683Y-74808892D01*
X94485165Y-74790038D01*
X94458500Y-74778993D01*
X94431837Y-74767949D01*
X94431833Y-74767948D01*
X94311316Y-74743976D01*
X94287057Y-74739150D01*
X94238543Y-74729500D01*
X94238541Y-74729500D01*
X77295783Y-74729500D01*
X77228744Y-74709815D01*
X77208102Y-74693181D01*
X75896819Y-73381898D01*
X75863334Y-73320575D01*
X75860500Y-73294217D01*
X75860500Y-71081456D01*
X75833901Y-70947739D01*
X75833901Y-70947738D01*
X75822051Y-70888164D01*
X75807162Y-70852218D01*
X75799961Y-70834833D01*
X75746635Y-70706092D01*
X75746628Y-70706079D01*
X75637139Y-70542218D01*
X75637136Y-70542214D01*
X75494686Y-70399764D01*
X75494655Y-70399735D01*
X70587297Y-65492377D01*
X70553812Y-65431054D01*
X70551577Y-65416865D01*
X70535524Y-65253868D01*
X70478314Y-65065273D01*
X70478311Y-65065269D01*
X70478311Y-65065266D01*
X70385413Y-64891467D01*
X70385409Y-64891460D01*
X70260383Y-64739116D01*
X70108039Y-64614090D01*
X70108032Y-64614086D01*
X69934233Y-64521188D01*
X69934227Y-64521186D01*
X69745632Y-64463976D01*
X69745629Y-64463975D01*
X69582648Y-64447923D01*
X69517860Y-64421762D01*
X69507121Y-64412201D01*
X68712101Y-63617181D01*
X68678616Y-63555858D01*
X68683600Y-63486166D01*
X68725472Y-63430233D01*
X68790936Y-63405816D01*
X68799782Y-63405500D01*
X99395145Y-63405500D01*
X99461116Y-63424505D01*
X99590478Y-63505789D01*
X99733567Y-63555858D01*
X99760745Y-63565368D01*
X99760750Y-63565369D01*
X99939996Y-63585565D01*
X99940000Y-63585565D01*
X99940004Y-63585565D01*
X100119249Y-63565369D01*
X100119252Y-63565368D01*
X100119255Y-63565368D01*
X100289522Y-63505789D01*
X100442262Y-63409816D01*
X100569816Y-63282262D01*
X100665789Y-63129522D01*
X100725368Y-62959255D01*
X100745565Y-62780000D01*
X100725368Y-62600745D01*
X100665789Y-62430478D01*
X100569816Y-62277738D01*
X100442262Y-62150184D01*
X100418883Y-62135494D01*
X100289523Y-62054211D01*
X100119254Y-61994631D01*
X100119249Y-61994630D01*
X99940004Y-61974435D01*
X99939996Y-61974435D01*
X99760750Y-61994630D01*
X99760745Y-61994631D01*
X99590476Y-62054211D01*
X99461117Y-62135494D01*
X99395145Y-62154500D01*
X67937179Y-62154500D01*
X67870140Y-62134815D01*
X67849498Y-62118181D01*
X65804654Y-60073338D01*
X65804651Y-60073334D01*
X65804651Y-60073335D01*
X65797584Y-60066268D01*
X65797584Y-60066267D01*
X65710459Y-59979142D01*
X65696771Y-59969996D01*
X84574435Y-59969996D01*
X84574435Y-59970003D01*
X84594630Y-60149249D01*
X84594631Y-60149254D01*
X84654211Y-60319523D01*
X84717817Y-60420750D01*
X84750184Y-60472262D01*
X84877738Y-60599816D01*
X85030478Y-60695789D01*
X85200745Y-60755368D01*
X85200750Y-60755369D01*
X85379996Y-60775565D01*
X85380000Y-60775565D01*
X85380004Y-60775565D01*
X85559249Y-60755369D01*
X85559252Y-60755368D01*
X85559255Y-60755368D01*
X85729522Y-60695789D01*
X85858883Y-60614505D01*
X85924855Y-60595500D01*
X90209547Y-60595500D01*
X90276586Y-60615185D01*
X90297230Y-60631820D01*
X90323789Y-60658380D01*
X90357273Y-60719704D01*
X90359326Y-60732175D01*
X90364630Y-60779249D01*
X90424210Y-60949521D01*
X90520184Y-61102262D01*
X90647738Y-61229816D01*
X90800478Y-61325789D01*
X90970745Y-61385368D01*
X90970750Y-61385369D01*
X91149996Y-61405565D01*
X91150000Y-61405565D01*
X91150004Y-61405565D01*
X91329249Y-61385369D01*
X91329252Y-61385368D01*
X91329255Y-61385368D01*
X91499522Y-61325789D01*
X91652262Y-61229816D01*
X91779816Y-61102262D01*
X91875789Y-60949522D01*
X91935368Y-60779255D01*
X91935784Y-60775565D01*
X91955565Y-60600003D01*
X91955565Y-60599996D01*
X91935369Y-60420750D01*
X91935368Y-60420745D01*
X91899949Y-60319523D01*
X91875789Y-60250478D01*
X91872902Y-60245884D01*
X91812186Y-60149254D01*
X91779816Y-60097738D01*
X91652262Y-59970184D01*
X91499524Y-59874212D01*
X91499521Y-59874210D01*
X91329249Y-59814630D01*
X91282174Y-59809326D01*
X91217760Y-59782259D01*
X91208378Y-59773787D01*
X91012928Y-59578338D01*
X91012925Y-59578334D01*
X91012925Y-59578335D01*
X91005858Y-59571268D01*
X91005858Y-59571267D01*
X90918733Y-59484142D01*
X90918732Y-59484141D01*
X90918731Y-59484140D01*
X90867509Y-59449915D01*
X90816287Y-59415689D01*
X90816286Y-59415688D01*
X90816283Y-59415686D01*
X90816280Y-59415685D01*
X90735792Y-59382347D01*
X90702454Y-59368538D01*
X90702455Y-59368538D01*
X90702452Y-59368537D01*
X90702448Y-59368536D01*
X90702444Y-59368535D01*
X90638139Y-59355744D01*
X90638138Y-59355744D01*
X90581611Y-59344500D01*
X90581607Y-59344500D01*
X90581606Y-59344500D01*
X85924855Y-59344500D01*
X85858883Y-59325494D01*
X85729523Y-59244211D01*
X85559254Y-59184631D01*
X85559249Y-59184630D01*
X85380004Y-59164435D01*
X85379996Y-59164435D01*
X85200750Y-59184630D01*
X85200745Y-59184631D01*
X85030476Y-59244211D01*
X84877737Y-59340184D01*
X84750184Y-59467737D01*
X84654211Y-59620476D01*
X84594631Y-59790745D01*
X84594630Y-59790750D01*
X84574435Y-59969996D01*
X65696771Y-59969996D01*
X65652193Y-59940210D01*
X65652194Y-59940210D01*
X65652192Y-59940208D01*
X65608016Y-59910690D01*
X65608012Y-59910688D01*
X65519947Y-59874211D01*
X65519945Y-59874210D01*
X65494179Y-59863537D01*
X65484153Y-59861543D01*
X65433755Y-59851518D01*
X65373336Y-59839500D01*
X65373333Y-59839500D01*
X65373332Y-59839500D01*
X61650411Y-59839500D01*
X61583372Y-59819815D01*
X61553464Y-59792813D01*
X61549818Y-59788241D01*
X61549816Y-59788238D01*
X61422262Y-59660684D01*
X61358275Y-59620478D01*
X61269523Y-59564711D01*
X61099254Y-59505131D01*
X61099249Y-59505130D01*
X60920004Y-59484935D01*
X60919996Y-59484935D01*
X60740750Y-59505130D01*
X60740745Y-59505131D01*
X60570476Y-59564711D01*
X60417737Y-59660684D01*
X60290184Y-59788237D01*
X60194211Y-59940976D01*
X60134631Y-60111245D01*
X60134630Y-60111249D01*
X60126954Y-60179384D01*
X60099887Y-60243798D01*
X60042293Y-60283353D01*
X60003734Y-60289500D01*
X58315782Y-60289500D01*
X58248743Y-60269815D01*
X58228101Y-60253181D01*
X56841524Y-58866604D01*
X56833350Y-58857586D01*
X56816261Y-58836762D01*
X56788949Y-58772451D01*
X56800742Y-58703584D01*
X56847896Y-58652025D01*
X56912116Y-58634099D01*
X57781471Y-58634099D01*
X57781472Y-58634099D01*
X57841083Y-58627691D01*
X57975931Y-58577396D01*
X58091146Y-58491146D01*
X58177396Y-58375931D01*
X58214280Y-58277040D01*
X58221154Y-58258610D01*
X58263025Y-58202676D01*
X58328489Y-58178258D01*
X58396762Y-58193109D01*
X58428564Y-58217957D01*
X58482954Y-58277040D01*
X58661351Y-58415893D01*
X58860169Y-58523488D01*
X58860172Y-58523489D01*
X59073982Y-58596890D01*
X59073984Y-58596890D01*
X59073986Y-58596891D01*
X59296967Y-58634100D01*
X59296968Y-58634100D01*
X59523032Y-58634100D01*
X59523033Y-58634100D01*
X59746014Y-58596891D01*
X59959831Y-58523488D01*
X60158649Y-58415893D01*
X60337046Y-58277040D01*
X60490156Y-58110719D01*
X60576193Y-57979028D01*
X60629338Y-57933675D01*
X60698569Y-57924251D01*
X60761905Y-57953753D01*
X60783804Y-57979025D01*
X60869844Y-58110719D01*
X60869849Y-58110724D01*
X60869850Y-58110727D01*
X61022605Y-58276661D01*
X61022954Y-58277040D01*
X61201351Y-58415893D01*
X61400169Y-58523488D01*
X61400172Y-58523489D01*
X61613982Y-58596890D01*
X61613984Y-58596890D01*
X61613986Y-58596891D01*
X61836967Y-58634100D01*
X61836968Y-58634100D01*
X62063032Y-58634100D01*
X62063033Y-58634100D01*
X62286014Y-58596891D01*
X62499831Y-58523488D01*
X62698649Y-58415893D01*
X62877046Y-58277040D01*
X63030156Y-58110719D01*
X63116193Y-57979028D01*
X63169338Y-57933675D01*
X63238569Y-57924251D01*
X63301905Y-57953753D01*
X63323804Y-57979025D01*
X63409844Y-58110719D01*
X63409849Y-58110724D01*
X63409850Y-58110727D01*
X63562605Y-58276661D01*
X63562954Y-58277040D01*
X63741351Y-58415893D01*
X63940169Y-58523488D01*
X63940172Y-58523489D01*
X64153982Y-58596890D01*
X64153984Y-58596890D01*
X64153986Y-58596891D01*
X64376967Y-58634100D01*
X64376968Y-58634100D01*
X64603032Y-58634100D01*
X64603033Y-58634100D01*
X64826014Y-58596891D01*
X65039831Y-58523488D01*
X65238649Y-58415893D01*
X65417046Y-58277040D01*
X65570156Y-58110719D01*
X65656491Y-57978572D01*
X65709635Y-57933218D01*
X65778867Y-57923794D01*
X65842203Y-57953296D01*
X65864107Y-57978575D01*
X65950240Y-58110412D01*
X66103284Y-58276661D01*
X66103296Y-58276672D01*
X66281623Y-58415470D01*
X66480369Y-58523027D01*
X66480375Y-58523029D01*
X66694106Y-58596403D01*
X66780000Y-58610736D01*
X66780000Y-57712251D01*
X66833919Y-57743381D01*
X66963120Y-57778000D01*
X67096880Y-57778000D01*
X67226081Y-57743381D01*
X67280000Y-57712251D01*
X67280000Y-58610735D01*
X67365893Y-58596403D01*
X67579624Y-58523029D01*
X67579630Y-58523027D01*
X67778376Y-58415470D01*
X67956703Y-58276672D01*
X67956715Y-58276661D01*
X68109759Y-58110412D01*
X68195892Y-57978575D01*
X68249038Y-57933218D01*
X68318269Y-57923794D01*
X68381605Y-57953296D01*
X68403509Y-57978574D01*
X68489842Y-58110716D01*
X68489850Y-58110727D01*
X68642605Y-58276661D01*
X68642954Y-58277040D01*
X68821351Y-58415893D01*
X69020169Y-58523488D01*
X69020172Y-58523489D01*
X69233982Y-58596890D01*
X69233984Y-58596890D01*
X69233986Y-58596891D01*
X69456967Y-58634100D01*
X69456968Y-58634100D01*
X69683032Y-58634100D01*
X69683033Y-58634100D01*
X69906014Y-58596891D01*
X70119831Y-58523488D01*
X70318649Y-58415893D01*
X70497046Y-58277040D01*
X70650156Y-58110719D01*
X70736193Y-57979028D01*
X70789338Y-57933675D01*
X70858569Y-57924251D01*
X70921905Y-57953753D01*
X70943804Y-57979025D01*
X71029844Y-58110719D01*
X71029849Y-58110724D01*
X71029850Y-58110727D01*
X71182605Y-58276661D01*
X71182954Y-58277040D01*
X71361351Y-58415893D01*
X71560169Y-58523488D01*
X71560172Y-58523489D01*
X71773982Y-58596890D01*
X71773984Y-58596890D01*
X71773986Y-58596891D01*
X71996967Y-58634100D01*
X71996968Y-58634100D01*
X72223032Y-58634100D01*
X72223033Y-58634100D01*
X72446014Y-58596891D01*
X72659831Y-58523488D01*
X72858649Y-58415893D01*
X73037046Y-58277040D01*
X73190156Y-58110719D01*
X73276193Y-57979028D01*
X73329338Y-57933675D01*
X73398569Y-57924251D01*
X73461905Y-57953753D01*
X73483804Y-57979025D01*
X73569844Y-58110719D01*
X73569849Y-58110724D01*
X73569850Y-58110727D01*
X73722605Y-58276661D01*
X73722954Y-58277040D01*
X73901351Y-58415893D01*
X74100169Y-58523488D01*
X74100172Y-58523489D01*
X74313982Y-58596890D01*
X74313984Y-58596890D01*
X74313986Y-58596891D01*
X74536967Y-58634100D01*
X74536968Y-58634100D01*
X74763032Y-58634100D01*
X74763033Y-58634100D01*
X74986014Y-58596891D01*
X75199831Y-58523488D01*
X75398649Y-58415893D01*
X75577046Y-58277040D01*
X75730156Y-58110719D01*
X75816193Y-57979028D01*
X75869338Y-57933675D01*
X75938569Y-57924251D01*
X76001905Y-57953753D01*
X76023804Y-57979025D01*
X76109844Y-58110719D01*
X76109849Y-58110724D01*
X76109850Y-58110727D01*
X76262605Y-58276661D01*
X76262954Y-58277040D01*
X76441351Y-58415893D01*
X76640169Y-58523488D01*
X76640172Y-58523489D01*
X76853982Y-58596890D01*
X76853984Y-58596890D01*
X76853986Y-58596891D01*
X77076967Y-58634100D01*
X77076968Y-58634100D01*
X77303032Y-58634100D01*
X77303033Y-58634100D01*
X77526014Y-58596891D01*
X77739831Y-58523488D01*
X77938649Y-58415893D01*
X78117046Y-58277040D01*
X78270156Y-58110719D01*
X78356193Y-57979028D01*
X78409338Y-57933675D01*
X78478569Y-57924251D01*
X78541905Y-57953753D01*
X78563804Y-57979025D01*
X78649844Y-58110719D01*
X78649849Y-58110724D01*
X78649850Y-58110727D01*
X78802605Y-58276661D01*
X78802954Y-58277040D01*
X78981351Y-58415893D01*
X79180169Y-58523488D01*
X79180172Y-58523489D01*
X79393982Y-58596890D01*
X79393984Y-58596890D01*
X79393986Y-58596891D01*
X79616967Y-58634100D01*
X79616968Y-58634100D01*
X79843032Y-58634100D01*
X79843033Y-58634100D01*
X80066014Y-58596891D01*
X80279831Y-58523488D01*
X80478649Y-58415893D01*
X80657046Y-58277040D01*
X80810156Y-58110719D01*
X80896193Y-57979028D01*
X80949338Y-57933675D01*
X81018569Y-57924251D01*
X81081905Y-57953753D01*
X81103804Y-57979025D01*
X81189844Y-58110719D01*
X81189849Y-58110724D01*
X81189850Y-58110727D01*
X81342605Y-58276661D01*
X81342954Y-58277040D01*
X81521351Y-58415893D01*
X81720169Y-58523488D01*
X81720172Y-58523489D01*
X81933982Y-58596890D01*
X81933984Y-58596890D01*
X81933986Y-58596891D01*
X82156967Y-58634100D01*
X82156968Y-58634100D01*
X82383032Y-58634100D01*
X82383033Y-58634100D01*
X82606014Y-58596891D01*
X82819831Y-58523488D01*
X83018649Y-58415893D01*
X83197046Y-58277040D01*
X83350156Y-58110719D01*
X83436193Y-57979028D01*
X83489338Y-57933675D01*
X83558569Y-57924251D01*
X83621905Y-57953753D01*
X83643804Y-57979025D01*
X83729844Y-58110719D01*
X83729849Y-58110724D01*
X83729850Y-58110727D01*
X83882605Y-58276661D01*
X83882954Y-58277040D01*
X84061351Y-58415893D01*
X84260169Y-58523488D01*
X84260172Y-58523489D01*
X84473982Y-58596890D01*
X84473984Y-58596890D01*
X84473986Y-58596891D01*
X84696967Y-58634100D01*
X84696968Y-58634100D01*
X84923032Y-58634100D01*
X84923033Y-58634100D01*
X85146014Y-58596891D01*
X85359831Y-58523488D01*
X85558649Y-58415893D01*
X85737046Y-58277040D01*
X85890156Y-58110719D01*
X85976491Y-57978572D01*
X86029635Y-57933218D01*
X86098867Y-57923794D01*
X86162203Y-57953296D01*
X86184107Y-57978575D01*
X86270240Y-58110412D01*
X86423284Y-58276661D01*
X86423296Y-58276672D01*
X86601623Y-58415470D01*
X86800369Y-58523027D01*
X86800375Y-58523029D01*
X87014106Y-58596403D01*
X87100000Y-58610736D01*
X87100000Y-57712251D01*
X87153919Y-57743381D01*
X87283120Y-57778000D01*
X87416880Y-57778000D01*
X87546081Y-57743381D01*
X87600000Y-57712251D01*
X87600000Y-58610736D01*
X87685893Y-58596403D01*
X87899624Y-58523029D01*
X87899630Y-58523027D01*
X88098376Y-58415470D01*
X88276703Y-58276672D01*
X88276715Y-58276661D01*
X88429759Y-58110412D01*
X88515892Y-57978575D01*
X88569038Y-57933218D01*
X88638269Y-57923794D01*
X88701605Y-57953296D01*
X88723509Y-57978574D01*
X88809842Y-58110716D01*
X88809850Y-58110727D01*
X88962605Y-58276661D01*
X88962954Y-58277040D01*
X89141351Y-58415893D01*
X89340169Y-58523488D01*
X89340172Y-58523489D01*
X89553982Y-58596890D01*
X89553984Y-58596890D01*
X89553986Y-58596891D01*
X89776967Y-58634100D01*
X89776968Y-58634100D01*
X90003032Y-58634100D01*
X90003033Y-58634100D01*
X90226014Y-58596891D01*
X90439831Y-58523488D01*
X90638649Y-58415893D01*
X90817046Y-58277040D01*
X90970156Y-58110719D01*
X91056193Y-57979028D01*
X91109338Y-57933675D01*
X91178569Y-57924251D01*
X91241905Y-57953753D01*
X91263804Y-57979025D01*
X91349844Y-58110719D01*
X91349849Y-58110724D01*
X91349850Y-58110727D01*
X91502605Y-58276661D01*
X91502954Y-58277040D01*
X91681351Y-58415893D01*
X91880169Y-58523488D01*
X91880172Y-58523489D01*
X92093982Y-58596890D01*
X92093984Y-58596890D01*
X92093986Y-58596891D01*
X92316967Y-58634100D01*
X92316968Y-58634100D01*
X92543032Y-58634100D01*
X92543033Y-58634100D01*
X92766014Y-58596891D01*
X92979831Y-58523488D01*
X93178649Y-58415893D01*
X93357046Y-58277040D01*
X93510156Y-58110719D01*
X93596193Y-57979028D01*
X93649338Y-57933675D01*
X93718569Y-57924251D01*
X93781905Y-57953753D01*
X93803804Y-57979025D01*
X93889844Y-58110719D01*
X93889849Y-58110724D01*
X93889850Y-58110727D01*
X94042605Y-58276661D01*
X94042954Y-58277040D01*
X94221351Y-58415893D01*
X94420169Y-58523488D01*
X94420172Y-58523489D01*
X94633982Y-58596890D01*
X94633984Y-58596890D01*
X94633986Y-58596891D01*
X94856967Y-58634100D01*
X94856968Y-58634100D01*
X95083032Y-58634100D01*
X95083033Y-58634100D01*
X95306014Y-58596891D01*
X95519831Y-58523488D01*
X95718649Y-58415893D01*
X95897046Y-58277040D01*
X96050156Y-58110719D01*
X96136193Y-57979028D01*
X96189338Y-57933675D01*
X96258569Y-57924251D01*
X96321905Y-57953753D01*
X96343804Y-57979025D01*
X96429844Y-58110719D01*
X96429849Y-58110724D01*
X96429850Y-58110727D01*
X96582605Y-58276661D01*
X96582954Y-58277040D01*
X96761351Y-58415893D01*
X96960169Y-58523488D01*
X96960172Y-58523489D01*
X97173982Y-58596890D01*
X97173984Y-58596890D01*
X97173986Y-58596891D01*
X97396967Y-58634100D01*
X97396968Y-58634100D01*
X97623032Y-58634100D01*
X97623033Y-58634100D01*
X97846014Y-58596891D01*
X98059831Y-58523488D01*
X98258649Y-58415893D01*
X98437046Y-58277040D01*
X98590156Y-58110719D01*
X98676193Y-57979028D01*
X98729338Y-57933675D01*
X98798569Y-57924251D01*
X98861905Y-57953753D01*
X98883804Y-57979025D01*
X98969844Y-58110719D01*
X98969849Y-58110724D01*
X98969850Y-58110727D01*
X99122605Y-58276661D01*
X99122954Y-58277040D01*
X99301351Y-58415893D01*
X99500169Y-58523488D01*
X99500172Y-58523489D01*
X99713982Y-58596890D01*
X99713984Y-58596890D01*
X99713986Y-58596891D01*
X99936967Y-58634100D01*
X99936968Y-58634100D01*
X100163032Y-58634100D01*
X100163033Y-58634100D01*
X100386014Y-58596891D01*
X100599831Y-58523488D01*
X100798649Y-58415893D01*
X100977046Y-58277040D01*
X101130156Y-58110719D01*
X101216193Y-57979028D01*
X101269338Y-57933675D01*
X101338569Y-57924251D01*
X101401905Y-57953753D01*
X101423804Y-57979025D01*
X101509844Y-58110719D01*
X101509849Y-58110724D01*
X101509850Y-58110727D01*
X101662605Y-58276661D01*
X101662954Y-58277040D01*
X101841351Y-58415893D01*
X102040169Y-58523488D01*
X102040172Y-58523489D01*
X102253982Y-58596890D01*
X102253984Y-58596890D01*
X102253986Y-58596891D01*
X102476967Y-58634100D01*
X102476968Y-58634100D01*
X102703032Y-58634100D01*
X102703033Y-58634100D01*
X102926014Y-58596891D01*
X103139831Y-58523488D01*
X103338649Y-58415893D01*
X103517046Y-58277040D01*
X103670156Y-58110719D01*
X103756491Y-57978572D01*
X103809635Y-57933218D01*
X103878867Y-57923794D01*
X103942203Y-57953296D01*
X103964107Y-57978575D01*
X104050240Y-58110412D01*
X104203284Y-58276661D01*
X104203296Y-58276672D01*
X104381623Y-58415470D01*
X104580369Y-58523027D01*
X104580375Y-58523029D01*
X104794106Y-58596403D01*
X104880000Y-58610736D01*
X104880000Y-57712251D01*
X104933919Y-57743381D01*
X105063120Y-57778000D01*
X105196880Y-57778000D01*
X105326081Y-57743381D01*
X105380000Y-57712251D01*
X105380000Y-58610735D01*
X105465893Y-58596403D01*
X105679624Y-58523029D01*
X105679630Y-58523027D01*
X105878376Y-58415470D01*
X106056703Y-58276672D01*
X106056715Y-58276661D01*
X106209759Y-58110412D01*
X106333360Y-57921225D01*
X106424135Y-57714278D01*
X106473334Y-57520000D01*
X105572251Y-57520000D01*
X105603381Y-57466081D01*
X105638000Y-57336880D01*
X105638000Y-57203120D01*
X105603381Y-57073919D01*
X105572251Y-57020000D01*
X106473334Y-57020000D01*
X106424135Y-56825721D01*
X106333360Y-56618774D01*
X106209759Y-56429587D01*
X106056715Y-56263338D01*
X106056703Y-56263327D01*
X105878376Y-56124529D01*
X105878371Y-56124526D01*
X105850307Y-56109338D01*
X105800717Y-56060117D01*
X105785610Y-55991901D01*
X105809782Y-55926345D01*
X105850308Y-55891230D01*
X105878649Y-55875893D01*
X105942912Y-55825875D01*
X106899500Y-55825875D01*
X106899500Y-56174124D01*
X106938489Y-56520158D01*
X106938491Y-56520170D01*
X107015982Y-56859684D01*
X107015985Y-56859692D01*
X107130999Y-57188382D01*
X107282092Y-57502130D01*
X107467371Y-57796999D01*
X107467372Y-57797001D01*
X107684487Y-58069256D01*
X107930743Y-58315512D01*
X108202998Y-58532627D01*
X108203001Y-58532628D01*
X108203003Y-58532630D01*
X108497867Y-58717906D01*
X108811621Y-58869002D01*
X109058488Y-58955384D01*
X109140307Y-58984014D01*
X109140315Y-58984017D01*
X109140318Y-58984017D01*
X109140319Y-58984018D01*
X109479829Y-59061509D01*
X109825876Y-59100499D01*
X109825877Y-59100500D01*
X109825880Y-59100500D01*
X110174123Y-59100500D01*
X110174123Y-59100499D01*
X110520171Y-59061509D01*
X110859681Y-58984018D01*
X111188379Y-58869002D01*
X111502133Y-58717906D01*
X111796997Y-58532630D01*
X111797001Y-58532627D01*
X112069256Y-58315512D01*
X112069258Y-58315509D01*
X112069263Y-58315506D01*
X112315506Y-58069263D01*
X112387464Y-57979031D01*
X112532627Y-57797001D01*
X112532628Y-57796999D01*
X112532630Y-57796997D01*
X112717906Y-57502133D01*
X112869002Y-57188379D01*
X112984018Y-56859681D01*
X113061509Y-56520171D01*
X113100500Y-56174120D01*
X113100500Y-55825880D01*
X113061509Y-55479829D01*
X112984018Y-55140319D01*
X112982682Y-55136502D01*
X112933941Y-54997208D01*
X112869002Y-54811621D01*
X112717906Y-54497867D01*
X112532630Y-54203003D01*
X112532628Y-54203000D01*
X112532627Y-54202998D01*
X112315512Y-53930743D01*
X112069256Y-53684487D01*
X111797001Y-53467372D01*
X111796999Y-53467371D01*
X111502130Y-53282092D01*
X111188382Y-53130999D01*
X110859692Y-53015985D01*
X110859684Y-53015982D01*
X110605048Y-52957863D01*
X110520171Y-52938491D01*
X110520167Y-52938490D01*
X110520158Y-52938489D01*
X110174124Y-52899500D01*
X110174120Y-52899500D01*
X109825880Y-52899500D01*
X109825875Y-52899500D01*
X109479841Y-52938489D01*
X109479829Y-52938491D01*
X109140315Y-53015982D01*
X109140307Y-53015985D01*
X108811617Y-53130999D01*
X108497869Y-53282092D01*
X108203000Y-53467371D01*
X108202998Y-53467372D01*
X107930743Y-53684487D01*
X107684487Y-53930743D01*
X107467372Y-54202998D01*
X107467371Y-54203000D01*
X107282092Y-54497869D01*
X107130999Y-54811617D01*
X107015985Y-55140307D01*
X107015982Y-55140315D01*
X106938491Y-55479829D01*
X106938489Y-55479841D01*
X106899500Y-55825875D01*
X105942912Y-55825875D01*
X106057046Y-55737040D01*
X106210156Y-55570719D01*
X106333802Y-55381465D01*
X106424611Y-55174441D01*
X106480107Y-54955293D01*
X106492012Y-54811617D01*
X106498775Y-54730006D01*
X106498775Y-54729993D01*
X106484599Y-54558921D01*
X106480107Y-54504707D01*
X106424611Y-54285559D01*
X106333802Y-54078535D01*
X106326123Y-54066782D01*
X106237263Y-53930771D01*
X106210156Y-53889281D01*
X106210153Y-53889278D01*
X106210149Y-53889272D01*
X106057049Y-53722963D01*
X106057048Y-53722962D01*
X106057046Y-53722960D01*
X105878649Y-53584107D01*
X105852390Y-53569896D01*
X105679832Y-53476512D01*
X105679827Y-53476510D01*
X105466017Y-53403109D01*
X105298778Y-53375202D01*
X105243033Y-53365900D01*
X105016967Y-53365900D01*
X104972370Y-53373341D01*
X104793982Y-53403109D01*
X104580172Y-53476510D01*
X104580167Y-53476512D01*
X104381352Y-53584106D01*
X104202955Y-53722959D01*
X104202950Y-53722963D01*
X104049850Y-53889272D01*
X104049842Y-53889283D01*
X103963808Y-54020968D01*
X103910662Y-54066325D01*
X103841430Y-54075748D01*
X103778095Y-54046246D01*
X103756192Y-54020968D01*
X103697263Y-53930771D01*
X103670156Y-53889281D01*
X103670153Y-53889278D01*
X103670149Y-53889272D01*
X103517049Y-53722963D01*
X103517048Y-53722962D01*
X103517046Y-53722960D01*
X103338649Y-53584107D01*
X103312390Y-53569896D01*
X103139832Y-53476512D01*
X103139827Y-53476510D01*
X102926017Y-53403109D01*
X102758778Y-53375202D01*
X102703033Y-53365900D01*
X102476967Y-53365900D01*
X102432370Y-53373341D01*
X102253982Y-53403109D01*
X102040172Y-53476510D01*
X102040167Y-53476512D01*
X101841352Y-53584106D01*
X101662955Y-53722959D01*
X101662950Y-53722963D01*
X101509850Y-53889272D01*
X101509842Y-53889283D01*
X101423808Y-54020968D01*
X101370662Y-54066325D01*
X101301430Y-54075748D01*
X101238095Y-54046246D01*
X101216192Y-54020968D01*
X101157263Y-53930771D01*
X101130156Y-53889281D01*
X101130153Y-53889278D01*
X101130149Y-53889272D01*
X100977049Y-53722963D01*
X100977048Y-53722962D01*
X100977046Y-53722960D01*
X100798649Y-53584107D01*
X100772390Y-53569896D01*
X100599832Y-53476512D01*
X100599827Y-53476510D01*
X100386017Y-53403109D01*
X100218778Y-53375202D01*
X100163033Y-53365900D01*
X99936967Y-53365900D01*
X99892370Y-53373341D01*
X99713982Y-53403109D01*
X99500172Y-53476510D01*
X99500167Y-53476512D01*
X99301352Y-53584106D01*
X99122955Y-53722959D01*
X99122950Y-53722963D01*
X98969850Y-53889272D01*
X98969842Y-53889283D01*
X98883509Y-54021425D01*
X98830363Y-54066782D01*
X98761131Y-54076205D01*
X98697796Y-54046702D01*
X98675892Y-54021424D01*
X98589759Y-53889587D01*
X98436715Y-53723338D01*
X98436703Y-53723327D01*
X98258376Y-53584529D01*
X98059630Y-53476972D01*
X98059624Y-53476970D01*
X97845893Y-53403596D01*
X97760000Y-53389263D01*
X97760000Y-54287748D01*
X97706081Y-54256619D01*
X97576880Y-54222000D01*
X97443120Y-54222000D01*
X97313919Y-54256619D01*
X97260000Y-54287748D01*
X97260000Y-53389263D01*
X97259999Y-53389263D01*
X97174106Y-53403596D01*
X96960375Y-53476970D01*
X96960369Y-53476972D01*
X96761623Y-53584529D01*
X96583296Y-53723327D01*
X96583284Y-53723338D01*
X96430240Y-53889588D01*
X96430238Y-53889590D01*
X96344106Y-54021425D01*
X96290960Y-54066781D01*
X96221729Y-54076205D01*
X96158393Y-54046703D01*
X96136493Y-54021430D01*
X96050156Y-53889281D01*
X96050149Y-53889274D01*
X96050149Y-53889272D01*
X95897049Y-53722963D01*
X95897048Y-53722962D01*
X95897046Y-53722960D01*
X95718649Y-53584107D01*
X95692390Y-53569896D01*
X95519832Y-53476512D01*
X95519827Y-53476510D01*
X95306017Y-53403109D01*
X95138778Y-53375202D01*
X95083033Y-53365900D01*
X94856967Y-53365900D01*
X94812370Y-53373341D01*
X94633982Y-53403109D01*
X94420172Y-53476510D01*
X94420167Y-53476512D01*
X94221352Y-53584106D01*
X94042955Y-53722959D01*
X94042950Y-53722963D01*
X93889850Y-53889272D01*
X93889842Y-53889283D01*
X93803509Y-54021425D01*
X93750363Y-54066782D01*
X93681131Y-54076205D01*
X93617796Y-54046702D01*
X93595892Y-54021424D01*
X93509759Y-53889587D01*
X93356715Y-53723338D01*
X93356703Y-53723327D01*
X93178376Y-53584529D01*
X92979630Y-53476972D01*
X92979624Y-53476970D01*
X92765893Y-53403596D01*
X92680000Y-53389263D01*
X92680000Y-54287748D01*
X92626081Y-54256619D01*
X92496880Y-54222000D01*
X92363120Y-54222000D01*
X92233919Y-54256619D01*
X92180000Y-54287748D01*
X92180000Y-53389263D01*
X92094106Y-53403596D01*
X91880375Y-53476970D01*
X91880369Y-53476972D01*
X91681623Y-53584529D01*
X91503296Y-53723327D01*
X91503284Y-53723338D01*
X91350240Y-53889588D01*
X91350238Y-53889590D01*
X91264106Y-54021425D01*
X91210960Y-54066781D01*
X91141729Y-54076205D01*
X91078393Y-54046703D01*
X91056493Y-54021430D01*
X90970156Y-53889281D01*
X90970149Y-53889274D01*
X90970149Y-53889272D01*
X90817049Y-53722963D01*
X90817048Y-53722962D01*
X90817046Y-53722960D01*
X90638649Y-53584107D01*
X90612390Y-53569896D01*
X90439832Y-53476512D01*
X90439827Y-53476510D01*
X90226017Y-53403109D01*
X90058778Y-53375202D01*
X90003033Y-53365900D01*
X89776967Y-53365900D01*
X89732370Y-53373341D01*
X89553982Y-53403109D01*
X89340172Y-53476510D01*
X89340167Y-53476512D01*
X89141352Y-53584106D01*
X88962955Y-53722959D01*
X88962950Y-53722963D01*
X88809850Y-53889272D01*
X88809842Y-53889283D01*
X88723808Y-54020968D01*
X88670662Y-54066325D01*
X88601430Y-54075748D01*
X88538095Y-54046246D01*
X88516192Y-54020968D01*
X88457263Y-53930771D01*
X88430156Y-53889281D01*
X88430153Y-53889278D01*
X88430149Y-53889272D01*
X88277049Y-53722963D01*
X88277048Y-53722962D01*
X88277046Y-53722960D01*
X88098649Y-53584107D01*
X88072390Y-53569896D01*
X87899832Y-53476512D01*
X87899827Y-53476510D01*
X87686017Y-53403109D01*
X87518778Y-53375202D01*
X87463033Y-53365900D01*
X87236967Y-53365900D01*
X87192370Y-53373341D01*
X87013982Y-53403109D01*
X86800172Y-53476510D01*
X86800167Y-53476512D01*
X86601352Y-53584106D01*
X86422955Y-53722959D01*
X86422950Y-53722963D01*
X86269850Y-53889272D01*
X86269842Y-53889283D01*
X86183808Y-54020968D01*
X86130662Y-54066325D01*
X86061430Y-54075748D01*
X85998095Y-54046246D01*
X85976192Y-54020968D01*
X85917263Y-53930771D01*
X85890156Y-53889281D01*
X85890153Y-53889278D01*
X85890149Y-53889272D01*
X85737049Y-53722963D01*
X85737048Y-53722962D01*
X85737046Y-53722960D01*
X85558649Y-53584107D01*
X85532390Y-53569896D01*
X85359832Y-53476512D01*
X85359827Y-53476510D01*
X85146017Y-53403109D01*
X84978778Y-53375202D01*
X84923033Y-53365900D01*
X84696967Y-53365900D01*
X84652370Y-53373341D01*
X84473982Y-53403109D01*
X84260172Y-53476510D01*
X84260167Y-53476512D01*
X84061352Y-53584106D01*
X83882955Y-53722959D01*
X83882950Y-53722963D01*
X83729850Y-53889272D01*
X83729842Y-53889283D01*
X83643808Y-54020968D01*
X83590662Y-54066325D01*
X83521430Y-54075748D01*
X83458095Y-54046246D01*
X83436192Y-54020968D01*
X83377263Y-53930771D01*
X83350156Y-53889281D01*
X83350153Y-53889278D01*
X83350149Y-53889272D01*
X83197049Y-53722963D01*
X83197048Y-53722962D01*
X83197046Y-53722960D01*
X83018649Y-53584107D01*
X82992390Y-53569896D01*
X82819832Y-53476512D01*
X82819827Y-53476510D01*
X82606017Y-53403109D01*
X82438778Y-53375202D01*
X82383033Y-53365900D01*
X82156967Y-53365900D01*
X82112370Y-53373341D01*
X81933982Y-53403109D01*
X81720172Y-53476510D01*
X81720167Y-53476512D01*
X81521352Y-53584106D01*
X81342955Y-53722959D01*
X81342950Y-53722963D01*
X81189850Y-53889272D01*
X81189842Y-53889283D01*
X81103509Y-54021425D01*
X81050363Y-54066782D01*
X80981131Y-54076205D01*
X80917796Y-54046702D01*
X80895892Y-54021424D01*
X80809759Y-53889587D01*
X80656715Y-53723338D01*
X80656703Y-53723327D01*
X80478376Y-53584529D01*
X80279630Y-53476972D01*
X80279624Y-53476970D01*
X80065893Y-53403596D01*
X79980000Y-53389263D01*
X79980000Y-54287748D01*
X79926081Y-54256619D01*
X79796880Y-54222000D01*
X79663120Y-54222000D01*
X79533919Y-54256619D01*
X79480000Y-54287748D01*
X79480000Y-53389263D01*
X79394106Y-53403596D01*
X79180375Y-53476970D01*
X79180369Y-53476972D01*
X78981623Y-53584529D01*
X78803296Y-53723327D01*
X78803284Y-53723338D01*
X78650240Y-53889588D01*
X78650238Y-53889590D01*
X78564106Y-54021425D01*
X78510960Y-54066781D01*
X78441729Y-54076205D01*
X78378393Y-54046703D01*
X78356493Y-54021430D01*
X78270156Y-53889281D01*
X78270149Y-53889274D01*
X78270149Y-53889272D01*
X78117049Y-53722963D01*
X78117048Y-53722962D01*
X78117046Y-53722960D01*
X77938649Y-53584107D01*
X77912390Y-53569896D01*
X77739832Y-53476512D01*
X77739827Y-53476510D01*
X77526017Y-53403109D01*
X77358778Y-53375202D01*
X77303033Y-53365900D01*
X77076967Y-53365900D01*
X77032370Y-53373341D01*
X76853982Y-53403109D01*
X76640172Y-53476510D01*
X76640167Y-53476512D01*
X76441352Y-53584106D01*
X76262955Y-53722959D01*
X76262950Y-53722963D01*
X76109850Y-53889272D01*
X76109842Y-53889283D01*
X76023808Y-54020968D01*
X75970662Y-54066325D01*
X75901430Y-54075748D01*
X75838095Y-54046246D01*
X75816192Y-54020968D01*
X75757263Y-53930771D01*
X75730156Y-53889281D01*
X75730153Y-53889278D01*
X75730149Y-53889272D01*
X75577049Y-53722963D01*
X75577048Y-53722962D01*
X75577046Y-53722960D01*
X75398649Y-53584107D01*
X75372390Y-53569896D01*
X75199832Y-53476512D01*
X75199827Y-53476510D01*
X74986017Y-53403109D01*
X74818778Y-53375202D01*
X74763033Y-53365900D01*
X74536967Y-53365900D01*
X74492370Y-53373341D01*
X74313982Y-53403109D01*
X74100172Y-53476510D01*
X74100167Y-53476512D01*
X73901352Y-53584106D01*
X73722955Y-53722959D01*
X73722950Y-53722963D01*
X73569850Y-53889272D01*
X73569842Y-53889283D01*
X73483509Y-54021425D01*
X73430363Y-54066782D01*
X73361131Y-54076205D01*
X73297796Y-54046702D01*
X73275892Y-54021424D01*
X73189759Y-53889587D01*
X73036715Y-53723338D01*
X73036703Y-53723327D01*
X72858376Y-53584529D01*
X72659630Y-53476972D01*
X72659624Y-53476970D01*
X72445893Y-53403596D01*
X72360000Y-53389263D01*
X72360000Y-54287748D01*
X72306081Y-54256619D01*
X72176880Y-54222000D01*
X72043120Y-54222000D01*
X71913919Y-54256619D01*
X71860000Y-54287748D01*
X71860000Y-53389263D01*
X71859999Y-53389263D01*
X71774106Y-53403596D01*
X71560375Y-53476970D01*
X71560369Y-53476972D01*
X71361623Y-53584529D01*
X71183296Y-53723327D01*
X71183284Y-53723338D01*
X71030240Y-53889588D01*
X71030238Y-53889590D01*
X70944106Y-54021425D01*
X70890960Y-54066781D01*
X70821729Y-54076205D01*
X70758393Y-54046703D01*
X70736493Y-54021430D01*
X70650156Y-53889281D01*
X70650149Y-53889274D01*
X70650149Y-53889272D01*
X70497049Y-53722963D01*
X70497048Y-53722962D01*
X70497046Y-53722960D01*
X70318649Y-53584107D01*
X70292390Y-53569896D01*
X70119832Y-53476512D01*
X70119827Y-53476510D01*
X69906017Y-53403109D01*
X69738778Y-53375202D01*
X69683033Y-53365900D01*
X69456967Y-53365900D01*
X69412370Y-53373341D01*
X69233982Y-53403109D01*
X69020172Y-53476510D01*
X69020167Y-53476512D01*
X68821352Y-53584106D01*
X68642955Y-53722959D01*
X68642950Y-53722963D01*
X68489850Y-53889272D01*
X68489842Y-53889283D01*
X68403808Y-54020968D01*
X68350662Y-54066325D01*
X68281430Y-54075748D01*
X68218095Y-54046246D01*
X68196192Y-54020968D01*
X68137263Y-53930771D01*
X68110156Y-53889281D01*
X68110153Y-53889278D01*
X68110149Y-53889272D01*
X67957049Y-53722963D01*
X67957048Y-53722962D01*
X67957046Y-53722960D01*
X67778649Y-53584107D01*
X67752390Y-53569896D01*
X67579832Y-53476512D01*
X67579827Y-53476510D01*
X67366017Y-53403109D01*
X67198778Y-53375202D01*
X67143033Y-53365900D01*
X66916967Y-53365900D01*
X66872370Y-53373341D01*
X66693982Y-53403109D01*
X66480172Y-53476510D01*
X66480167Y-53476512D01*
X66281352Y-53584106D01*
X66102955Y-53722959D01*
X66102950Y-53722963D01*
X65949850Y-53889272D01*
X65949842Y-53889283D01*
X65863808Y-54020968D01*
X65810662Y-54066325D01*
X65741430Y-54075748D01*
X65678095Y-54046246D01*
X65656192Y-54020968D01*
X65597263Y-53930771D01*
X65570156Y-53889281D01*
X65570153Y-53889278D01*
X65570149Y-53889272D01*
X65417049Y-53722963D01*
X65417048Y-53722962D01*
X65417046Y-53722960D01*
X65238649Y-53584107D01*
X65212390Y-53569896D01*
X65039832Y-53476512D01*
X65039827Y-53476510D01*
X64826017Y-53403109D01*
X64658778Y-53375202D01*
X64603033Y-53365900D01*
X64376967Y-53365900D01*
X64332370Y-53373341D01*
X64153982Y-53403109D01*
X63940172Y-53476510D01*
X63940167Y-53476512D01*
X63741352Y-53584106D01*
X63562955Y-53722959D01*
X63562950Y-53722963D01*
X63409850Y-53889272D01*
X63409842Y-53889283D01*
X63323509Y-54021425D01*
X63270363Y-54066782D01*
X63201131Y-54076205D01*
X63137796Y-54046702D01*
X63115892Y-54021424D01*
X63029759Y-53889587D01*
X62876715Y-53723338D01*
X62876703Y-53723327D01*
X62698376Y-53584529D01*
X62499630Y-53476972D01*
X62499624Y-53476970D01*
X62285893Y-53403596D01*
X62200000Y-53389263D01*
X62200000Y-54287748D01*
X62146081Y-54256619D01*
X62016880Y-54222000D01*
X61883120Y-54222000D01*
X61753919Y-54256619D01*
X61700000Y-54287748D01*
X61700000Y-53389263D01*
X61614106Y-53403596D01*
X61400375Y-53476970D01*
X61400369Y-53476972D01*
X61201623Y-53584529D01*
X61023296Y-53723327D01*
X61023284Y-53723338D01*
X60870240Y-53889588D01*
X60870238Y-53889590D01*
X60784106Y-54021425D01*
X60730960Y-54066781D01*
X60661729Y-54076205D01*
X60598393Y-54046703D01*
X60576493Y-54021430D01*
X60490156Y-53889281D01*
X60490149Y-53889274D01*
X60490149Y-53889272D01*
X60337049Y-53722963D01*
X60337048Y-53722962D01*
X60337046Y-53722960D01*
X60158649Y-53584107D01*
X60132390Y-53569896D01*
X59959832Y-53476512D01*
X59959827Y-53476510D01*
X59746017Y-53403109D01*
X59578778Y-53375202D01*
X59523033Y-53365900D01*
X59296967Y-53365900D01*
X59252370Y-53373341D01*
X59073982Y-53403109D01*
X58860172Y-53476510D01*
X58860167Y-53476512D01*
X58661352Y-53584106D01*
X58482955Y-53722959D01*
X58482950Y-53722963D01*
X58329850Y-53889272D01*
X58329842Y-53889283D01*
X58243808Y-54020968D01*
X58190662Y-54066325D01*
X58121430Y-54075748D01*
X58058095Y-54046246D01*
X58036192Y-54020968D01*
X57977263Y-53930771D01*
X57950156Y-53889281D01*
X57950153Y-53889278D01*
X57950149Y-53889272D01*
X57797049Y-53722963D01*
X57797048Y-53722962D01*
X57797046Y-53722960D01*
X57618649Y-53584107D01*
X57592390Y-53569896D01*
X57419832Y-53476512D01*
X57419827Y-53476510D01*
X57206017Y-53403109D01*
X57038778Y-53375202D01*
X56983033Y-53365900D01*
X56756967Y-53365900D01*
X56712370Y-53373341D01*
X56533982Y-53403109D01*
X56320172Y-53476510D01*
X56320167Y-53476512D01*
X56121352Y-53584106D01*
X55942955Y-53722959D01*
X55942950Y-53722963D01*
X55789850Y-53889272D01*
X55789842Y-53889283D01*
X55666198Y-54078533D01*
X55575388Y-54285560D01*
X55519892Y-54504707D01*
X55519153Y-54513628D01*
X55493996Y-54578811D01*
X55483258Y-54591062D01*
X55110597Y-54963723D01*
X55049274Y-54997208D01*
X54979582Y-54992224D01*
X54923649Y-54950352D01*
X54905874Y-54916996D01*
X54869001Y-54811619D01*
X54717907Y-54497869D01*
X54584503Y-54285559D01*
X54532630Y-54203003D01*
X54532628Y-54203000D01*
X54532627Y-54202998D01*
X54315512Y-53930743D01*
X54069256Y-53684487D01*
X53797001Y-53467372D01*
X53796999Y-53467371D01*
X53502130Y-53282092D01*
X53188382Y-53130999D01*
X52859692Y-53015985D01*
X52859684Y-53015982D01*
X52605048Y-52957863D01*
X52520171Y-52938491D01*
X52520167Y-52938490D01*
X52520158Y-52938489D01*
X52174124Y-52899500D01*
X52174120Y-52899500D01*
X51825880Y-52899500D01*
X51825875Y-52899500D01*
X51479841Y-52938489D01*
X51479829Y-52938491D01*
X51140315Y-53015982D01*
X51140307Y-53015985D01*
X50811617Y-53130999D01*
X50497869Y-53282092D01*
X50203000Y-53467371D01*
X50202998Y-53467372D01*
X49930743Y-53684487D01*
X49684487Y-53930743D01*
X49467372Y-54202998D01*
X49467371Y-54203000D01*
X49282092Y-54497869D01*
X49130999Y-54811617D01*
X49015985Y-55140307D01*
X49015982Y-55140315D01*
X48938491Y-55479829D01*
X48938489Y-55479841D01*
X48899500Y-55825875D01*
X48550500Y-55825875D01*
X48550500Y-55503480D01*
X48550695Y-55496527D01*
X48553924Y-55439031D01*
X48568656Y-55176700D01*
X48570210Y-55162907D01*
X48623283Y-54850537D01*
X48626377Y-54836985D01*
X48633685Y-54811621D01*
X48714090Y-54532526D01*
X48718682Y-54519406D01*
X48799829Y-54323498D01*
X48839929Y-54226686D01*
X48845951Y-54214180D01*
X48999227Y-53936850D01*
X49006605Y-53925107D01*
X49189972Y-53666676D01*
X49198619Y-53655834D01*
X49409750Y-53419579D01*
X49419581Y-53409749D01*
X49468648Y-53365900D01*
X49655834Y-53198619D01*
X49666676Y-53189972D01*
X49925107Y-53006605D01*
X49936850Y-52999227D01*
X50214180Y-52845951D01*
X50226686Y-52839929D01*
X50519406Y-52718682D01*
X50532526Y-52714090D01*
X50836990Y-52626375D01*
X50850537Y-52623283D01*
X51162907Y-52570210D01*
X51176700Y-52568656D01*
X51496528Y-52550695D01*
X51503481Y-52550500D01*
X51516408Y-52550500D01*
X110483592Y-52550500D01*
X110496519Y-52550500D01*
X110503472Y-52550695D01*
G37*
%TD.AperFunction*%
%TD*%
M02*
