%TF.GenerationSoftware,KiCad,Pcbnew,7.0.9-7.0.9~ubuntu23.04.1*%
%TF.CreationDate,2023-12-27T18:11:19+00:00*%
%TF.ProjectId,pedalboard-soundcard,70656461-6c62-46f6-9172-642d736f756e,0.0.1*%
%TF.SameCoordinates,Original*%
%TF.FileFunction,Soldermask,Top*%
%TF.FilePolarity,Negative*%
%FSLAX46Y46*%
G04 Gerber Fmt 4.6, Leading zero omitted, Abs format (unit mm)*
G04 Created by KiCad (PCBNEW 7.0.9-7.0.9~ubuntu23.04.1) date 2023-12-27 18:11:19*
%MOMM*%
%LPD*%
G01*
G04 APERTURE LIST*
G04 Aperture macros list*
%AMRoundRect*
0 Rectangle with rounded corners*
0 $1 Rounding radius*
0 $2 $3 $4 $5 $6 $7 $8 $9 X,Y pos of 4 corners*
0 Add a 4 corners polygon primitive as box body*
4,1,4,$2,$3,$4,$5,$6,$7,$8,$9,$2,$3,0*
0 Add four circle primitives for the rounded corners*
1,1,$1+$1,$2,$3*
1,1,$1+$1,$4,$5*
1,1,$1+$1,$6,$7*
1,1,$1+$1,$8,$9*
0 Add four rect primitives between the rounded corners*
20,1,$1+$1,$2,$3,$4,$5,0*
20,1,$1+$1,$4,$5,$6,$7,0*
20,1,$1+$1,$6,$7,$8,$9,0*
20,1,$1+$1,$8,$9,$2,$3,0*%
G04 Aperture macros list end*
%ADD10C,6.200000*%
%ADD11R,1.727200X1.727200*%
%ADD12O,1.727200X1.727200*%
%ADD13RoundRect,0.250000X-0.262500X-0.450000X0.262500X-0.450000X0.262500X0.450000X-0.262500X0.450000X0*%
%ADD14RoundRect,0.250000X0.450000X-0.262500X0.450000X0.262500X-0.450000X0.262500X-0.450000X-0.262500X0*%
%ADD15RoundRect,0.250000X-0.475000X0.250000X-0.475000X-0.250000X0.475000X-0.250000X0.475000X0.250000X0*%
%ADD16R,0.850000X0.650000*%
%ADD17RoundRect,0.150000X-0.150000X0.512500X-0.150000X-0.512500X0.150000X-0.512500X0.150000X0.512500X0*%
%ADD18RoundRect,0.250000X-0.450000X0.262500X-0.450000X-0.262500X0.450000X-0.262500X0.450000X0.262500X0*%
%ADD19RoundRect,0.250000X0.475000X-0.250000X0.475000X0.250000X-0.475000X0.250000X-0.475000X-0.250000X0*%
%ADD20RoundRect,0.250000X-0.250000X-0.475000X0.250000X-0.475000X0.250000X0.475000X-0.250000X0.475000X0*%
%ADD21RoundRect,0.243750X-0.456250X0.243750X-0.456250X-0.243750X0.456250X-0.243750X0.456250X0.243750X0*%
%ADD22R,1.700000X1.700000*%
%ADD23O,1.700000X1.700000*%
%ADD24RoundRect,0.250000X0.250000X0.475000X-0.250000X0.475000X-0.250000X-0.475000X0.250000X-0.475000X0*%
%ADD25RoundRect,0.250000X0.262500X0.450000X-0.262500X0.450000X-0.262500X-0.450000X0.262500X-0.450000X0*%
%ADD26RoundRect,0.243750X-0.243750X-0.456250X0.243750X-0.456250X0.243750X0.456250X-0.243750X0.456250X0*%
%ADD27RoundRect,0.062500X0.062500X-0.375000X0.062500X0.375000X-0.062500X0.375000X-0.062500X-0.375000X0*%
%ADD28RoundRect,0.062500X0.375000X-0.062500X0.375000X0.062500X-0.375000X0.062500X-0.375000X-0.062500X0*%
%ADD29R,3.100000X3.100000*%
%ADD30RoundRect,0.075000X0.662500X0.075000X-0.662500X0.075000X-0.662500X-0.075000X0.662500X-0.075000X0*%
%ADD31RoundRect,0.150000X0.512500X0.150000X-0.512500X0.150000X-0.512500X-0.150000X0.512500X-0.150000X0*%
G04 APERTURE END LIST*
D10*
%TO.C,H4*%
X110000000Y-56000000D03*
%TD*%
%TO.C,H3*%
X52000000Y-56000000D03*
%TD*%
%TO.C,H1*%
X52000000Y-105000000D03*
%TD*%
%TO.C,H2*%
X110000000Y-105000000D03*
%TD*%
D11*
%TO.C,J1*%
X56870000Y-57270000D03*
D12*
X56870000Y-54730000D03*
X59410000Y-57270000D03*
X59410000Y-54730000D03*
X61950000Y-57270000D03*
X61950000Y-54730000D03*
X64490000Y-57270000D03*
X64490000Y-54730000D03*
X67030000Y-57270000D03*
X67030000Y-54730000D03*
X69570000Y-57270000D03*
X69570000Y-54730000D03*
X72110000Y-57270000D03*
X72110000Y-54730000D03*
X74650000Y-57270000D03*
X74650000Y-54730000D03*
X77190000Y-57270000D03*
X77190000Y-54730000D03*
X79730000Y-57270000D03*
X79730000Y-54730000D03*
X82270000Y-57270000D03*
X82270000Y-54730000D03*
X84810000Y-57270000D03*
X84810000Y-54730000D03*
X87350000Y-57270000D03*
X87350000Y-54730000D03*
X89890000Y-57270000D03*
X89890000Y-54730000D03*
X92430000Y-57270000D03*
X92430000Y-54730000D03*
X94970000Y-57270000D03*
X94970000Y-54730000D03*
X97510000Y-57270000D03*
X97510000Y-54730000D03*
X100050000Y-57270000D03*
X100050000Y-54730000D03*
X102590000Y-57270000D03*
X102590000Y-54730000D03*
X105130000Y-57270000D03*
X105130000Y-54730000D03*
%TD*%
D13*
%TO.C,R7*%
X85312500Y-63575000D03*
X87137500Y-63575000D03*
%TD*%
D14*
%TO.C,R25*%
X84150000Y-74792500D03*
X84150000Y-72967500D03*
%TD*%
D15*
%TO.C,C21*%
X102500000Y-96780000D03*
X102500000Y-98680000D03*
%TD*%
D16*
%TO.C,X1*%
X82525000Y-74875000D03*
X82525000Y-73225000D03*
X80975000Y-73225000D03*
X80975000Y-74875000D03*
%TD*%
D17*
%TO.C,U2*%
X68350000Y-62712500D03*
X67400000Y-62712500D03*
X66450000Y-62712500D03*
X66450000Y-64987500D03*
X68350000Y-64987500D03*
%TD*%
D18*
%TO.C,R16*%
X102525000Y-93392500D03*
X102525000Y-95217500D03*
%TD*%
D15*
%TO.C,C3*%
X60100000Y-91500000D03*
X60100000Y-93400000D03*
%TD*%
D19*
%TO.C,C16*%
X66300000Y-76250000D03*
X66300000Y-74350000D03*
%TD*%
D20*
%TO.C,C32*%
X80725000Y-76540000D03*
X82625000Y-76540000D03*
%TD*%
D13*
%TO.C,R5*%
X88712500Y-62100000D03*
X90537500Y-62100000D03*
%TD*%
%TO.C,R10*%
X81937500Y-63575000D03*
X83762500Y-63575000D03*
%TD*%
D16*
%TO.C,X2*%
X88750000Y-74925000D03*
X88750000Y-73275000D03*
X87200000Y-73275000D03*
X87200000Y-74925000D03*
%TD*%
D21*
%TO.C,D2*%
X94510000Y-83362500D03*
X94510000Y-85237500D03*
%TD*%
D19*
%TO.C,C14*%
X70725000Y-86100000D03*
X70725000Y-84200000D03*
%TD*%
D20*
%TO.C,C28*%
X88350000Y-96375000D03*
X90250000Y-96375000D03*
%TD*%
D22*
%TO.C,J3*%
X63340000Y-93580000D03*
D23*
X63340000Y-91040000D03*
X65880000Y-93580000D03*
X65880000Y-91040000D03*
X68420000Y-93580000D03*
X68420000Y-91040000D03*
%TD*%
D20*
%TO.C,C11*%
X69800000Y-77700000D03*
X71700000Y-77700000D03*
%TD*%
D15*
%TO.C,C4*%
X71475000Y-91600000D03*
X71475000Y-93500000D03*
%TD*%
D14*
%TO.C,R11*%
X71475000Y-96862500D03*
X71475000Y-95037500D03*
%TD*%
D15*
%TO.C,C7*%
X73450000Y-91600000D03*
X73450000Y-93500000D03*
%TD*%
D19*
%TO.C,C24*%
X94475000Y-99650000D03*
X94475000Y-97750000D03*
%TD*%
D24*
%TO.C,C6*%
X68375000Y-67025000D03*
X66475000Y-67025000D03*
%TD*%
D14*
%TO.C,R19*%
X102475000Y-90990000D03*
X102475000Y-89165000D03*
%TD*%
D20*
%TO.C,C23*%
X88350000Y-98350000D03*
X90250000Y-98350000D03*
%TD*%
D18*
%TO.C,R12*%
X71475000Y-88237500D03*
X71475000Y-90062500D03*
%TD*%
D20*
%TO.C,C9*%
X73050000Y-81525000D03*
X74950000Y-81525000D03*
%TD*%
D14*
%TO.C,R13*%
X73450000Y-96862500D03*
X73450000Y-95037500D03*
%TD*%
D19*
%TO.C,C26*%
X102480000Y-87642500D03*
X102480000Y-85742500D03*
%TD*%
D13*
%TO.C,R1*%
X57567500Y-77825000D03*
X59392500Y-77825000D03*
%TD*%
D24*
%TO.C,C5*%
X68350000Y-60820000D03*
X66450000Y-60820000D03*
%TD*%
D15*
%TO.C,C13*%
X70700000Y-80700000D03*
X70700000Y-82600000D03*
%TD*%
D14*
%TO.C,R15*%
X103790000Y-62552500D03*
X103790000Y-60727500D03*
%TD*%
D22*
%TO.C,J2*%
X107650000Y-89400000D03*
D23*
X110190000Y-89400000D03*
X107650000Y-91940000D03*
X110190000Y-91940000D03*
X107650000Y-94480000D03*
X110190000Y-94480000D03*
%TD*%
D20*
%TO.C,C15*%
X69800000Y-75725000D03*
X71700000Y-75725000D03*
%TD*%
D24*
%TO.C,C30*%
X100150000Y-86475000D03*
X98250000Y-86475000D03*
%TD*%
D19*
%TO.C,C25*%
X104440000Y-87627500D03*
X104440000Y-85727500D03*
%TD*%
D25*
%TO.C,R23*%
X88887500Y-76550000D03*
X87062500Y-76550000D03*
%TD*%
D24*
%TO.C,C31*%
X96475000Y-95960000D03*
X94575000Y-95960000D03*
%TD*%
D26*
%TO.C,D1*%
X57567500Y-79750000D03*
X59442500Y-79750000D03*
%TD*%
D27*
%TO.C,U6*%
X92500000Y-94214500D03*
X93000000Y-94214500D03*
X93500000Y-94214500D03*
X94000000Y-94214500D03*
X94500000Y-94214500D03*
X95000000Y-94214500D03*
X95500000Y-94214500D03*
X96000000Y-94214500D03*
D28*
X96687500Y-93527000D03*
X96687500Y-93027000D03*
X96687500Y-92527000D03*
X96687500Y-92027000D03*
X96687500Y-91527000D03*
X96687500Y-91027000D03*
X96687500Y-90527000D03*
X96687500Y-90027000D03*
D27*
X96000000Y-89339500D03*
X95500000Y-89339500D03*
X95000000Y-89339500D03*
X94500000Y-89339500D03*
X94000000Y-89339500D03*
X93500000Y-89339500D03*
X93000000Y-89339500D03*
X92500000Y-89339500D03*
D28*
X91812500Y-90027000D03*
X91812500Y-90527000D03*
X91812500Y-91027000D03*
X91812500Y-91527000D03*
X91812500Y-92027000D03*
X91812500Y-92527000D03*
X91812500Y-93027000D03*
X91812500Y-93527000D03*
D29*
X94250000Y-91777000D03*
%TD*%
D17*
%TO.C,U5*%
X100250000Y-81987500D03*
X99300000Y-81987500D03*
X98350000Y-81987500D03*
X98350000Y-84262500D03*
X100250000Y-84262500D03*
%TD*%
D24*
%TO.C,C8*%
X75850000Y-75400000D03*
X73950000Y-75400000D03*
%TD*%
D13*
%TO.C,R21*%
X82667500Y-85720000D03*
X84492500Y-85720000D03*
%TD*%
D18*
%TO.C,R8*%
X60100000Y-88137500D03*
X60100000Y-89962500D03*
%TD*%
%TO.C,R14*%
X73450000Y-88237500D03*
X73450000Y-90062500D03*
%TD*%
D20*
%TO.C,C12*%
X98275000Y-90450000D03*
X100175000Y-90450000D03*
%TD*%
D15*
%TO.C,C22*%
X104500000Y-96780000D03*
X104500000Y-98680000D03*
%TD*%
D19*
%TO.C,C27*%
X96770000Y-99590000D03*
X96770000Y-97690000D03*
%TD*%
D13*
%TO.C,R22*%
X82667500Y-83770000D03*
X84492500Y-83770000D03*
%TD*%
D14*
%TO.C,R18*%
X104440000Y-90990000D03*
X104440000Y-89165000D03*
%TD*%
D20*
%TO.C,C29*%
X98275000Y-88450000D03*
X100175000Y-88450000D03*
%TD*%
D30*
%TO.C,U4*%
X67962500Y-84750000D03*
X67962500Y-84250000D03*
X67962500Y-83750000D03*
X67962500Y-83250000D03*
X67962500Y-82750000D03*
X67962500Y-82250000D03*
X67962500Y-81750000D03*
X67962500Y-81250000D03*
X67962500Y-80750000D03*
X67962500Y-80250000D03*
X67962500Y-79750000D03*
X67962500Y-79250000D03*
X67962500Y-78750000D03*
X67962500Y-78250000D03*
X67962500Y-77750000D03*
X62237500Y-77750000D03*
X62237500Y-78250000D03*
X62237500Y-78750000D03*
X62237500Y-79250000D03*
X62237500Y-79750000D03*
X62237500Y-80250000D03*
X62237500Y-80750000D03*
X62237500Y-81250000D03*
X62237500Y-81750000D03*
X62237500Y-82250000D03*
X62237500Y-82750000D03*
X62237500Y-83250000D03*
X62237500Y-83750000D03*
X62237500Y-84250000D03*
X62237500Y-84750000D03*
%TD*%
D17*
%TO.C,U3*%
X75800000Y-77312500D03*
X74850000Y-77312500D03*
X73900000Y-77312500D03*
X73900000Y-79587500D03*
X75800000Y-79587500D03*
%TD*%
D14*
%TO.C,R26*%
X81250000Y-71782500D03*
X81250000Y-69957500D03*
%TD*%
D19*
%TO.C,C1*%
X82850000Y-61825000D03*
X82850000Y-59925000D03*
%TD*%
D18*
%TO.C,R3*%
X58100000Y-88137500D03*
X58100000Y-89962500D03*
%TD*%
D14*
%TO.C,R27*%
X87450000Y-71832500D03*
X87450000Y-70007500D03*
%TD*%
D19*
%TO.C,C20*%
X92500000Y-99650000D03*
X92500000Y-97750000D03*
%TD*%
D18*
%TO.C,R17*%
X104475000Y-93392500D03*
X104475000Y-95217500D03*
%TD*%
D14*
%TO.C,R24*%
X92560000Y-85182500D03*
X92560000Y-83357500D03*
%TD*%
D20*
%TO.C,C10*%
X98350000Y-80000000D03*
X100250000Y-80000000D03*
%TD*%
D25*
%TO.C,R20*%
X91137500Y-87700000D03*
X89312500Y-87700000D03*
%TD*%
D14*
%TO.C,R9*%
X60100000Y-96762500D03*
X60100000Y-94937500D03*
%TD*%
D20*
%TO.C,C18*%
X74050000Y-85500000D03*
X75950000Y-85500000D03*
%TD*%
D13*
%TO.C,R6*%
X88712500Y-60175000D03*
X90537500Y-60175000D03*
%TD*%
D14*
%TO.C,R2*%
X100420000Y-62542500D03*
X100420000Y-60717500D03*
%TD*%
D20*
%TO.C,C19*%
X73050000Y-83525000D03*
X74950000Y-83525000D03*
%TD*%
D15*
%TO.C,C2*%
X58100000Y-91500000D03*
X58100000Y-93400000D03*
%TD*%
D14*
%TO.C,R4*%
X58100000Y-96762500D03*
X58100000Y-94937500D03*
%TD*%
D31*
%TO.C,U1*%
X87027500Y-61870000D03*
X87027500Y-60920000D03*
X87027500Y-59970000D03*
X84752500Y-59970000D03*
X84752500Y-61870000D03*
%TD*%
D19*
%TO.C,C17*%
X64300000Y-76250000D03*
X64300000Y-74350000D03*
%TD*%
M02*
