%TF.GenerationSoftware,KiCad,Pcbnew,9.0.1*%
%TF.CreationDate,2025-04-21T13:17:34+00:00*%
%TF.ProjectId,pedalboard-soundcard,70656461-6c62-46f6-9172-642d736f756e,1.0.1-RC*%
%TF.SameCoordinates,Original*%
%TF.FileFunction,Copper,L2,Bot*%
%TF.FilePolarity,Positive*%
%FSLAX46Y46*%
G04 Gerber Fmt 4.6, Leading zero omitted, Abs format (unit mm)*
G04 Created by KiCad (PCBNEW 9.0.1) date 2025-04-21 13:17:34*
%MOMM*%
%LPD*%
G01*
G04 APERTURE LIST*
%TA.AperFunction,ComponentPad*%
%ADD10R,1.727200X1.727200*%
%TD*%
%TA.AperFunction,ComponentPad*%
%ADD11O,1.727200X1.727200*%
%TD*%
%TA.AperFunction,ComponentPad*%
%ADD12O,1.200000X2.200000*%
%TD*%
%TA.AperFunction,ComponentPad*%
%ADD13O,1.600000X2.300000*%
%TD*%
%TA.AperFunction,ComponentPad*%
%ADD14O,2.200000X1.200000*%
%TD*%
%TA.AperFunction,ComponentPad*%
%ADD15O,1.600000X2.500000*%
%TD*%
%TA.AperFunction,ComponentPad*%
%ADD16C,0.500000*%
%TD*%
%TA.AperFunction,SMDPad,CuDef*%
%ADD17R,3.100000X3.100000*%
%TD*%
%TA.AperFunction,ComponentPad*%
%ADD18R,1.700000X1.700000*%
%TD*%
%TA.AperFunction,ComponentPad*%
%ADD19O,1.700000X1.700000*%
%TD*%
%TA.AperFunction,ViaPad*%
%ADD20C,0.600000*%
%TD*%
%TA.AperFunction,ViaPad*%
%ADD21C,1.000000*%
%TD*%
%TA.AperFunction,Conductor*%
%ADD22C,0.250000*%
%TD*%
%TA.AperFunction,Conductor*%
%ADD23C,1.000000*%
%TD*%
%TA.AperFunction,Conductor*%
%ADD24C,0.500000*%
%TD*%
%TA.AperFunction,Conductor*%
%ADD25C,0.600000*%
%TD*%
G04 APERTURE END LIST*
D10*
%TO.P,J1,1,3.3V*%
%TO.N,unconnected-(J1-3.3V-Pad1)*%
X56870000Y-57270000D03*
D11*
%TO.P,J1,2,5V*%
%TO.N,+5V*%
X56870000Y-54730000D03*
%TO.P,J1,3,BCM2_SDA*%
%TO.N,sda*%
X59410000Y-57270000D03*
%TO.P,J1,4,5V*%
%TO.N,+5V*%
X59410000Y-54730000D03*
%TO.P,J1,5,BCM3_SCL*%
%TO.N,scl*%
X61950000Y-57270000D03*
%TO.P,J1,6,GND*%
%TO.N,GND*%
X61950000Y-54730000D03*
%TO.P,J1,7,BCM4_GPCLK0*%
%TO.N,unconnected-(J1-BCM4_GPCLK0-Pad7)*%
X64490000Y-57270000D03*
%TO.P,J1,8,BCM14_TXD*%
%TO.N,unconnected-(J1-BCM14_TXD-Pad8)*%
X64490000Y-54730000D03*
%TO.P,J1,9,GND*%
%TO.N,GND*%
X67030000Y-57270000D03*
%TO.P,J1,10,BCM15_RXD*%
%TO.N,unconnected-(J1-BCM15_RXD-Pad10)*%
X67030000Y-54730000D03*
%TO.P,J1,11,BCM17*%
%TO.N,unconnected-(J1-BCM17-Pad11)*%
X69570000Y-57270000D03*
%TO.P,J1,12,BCM18_PCM_C*%
%TO.N,pcm_clk*%
X69570000Y-54730000D03*
%TO.P,J1,13,BCM27*%
%TO.N,unconnected-(J1-BCM27-Pad13)*%
X72110000Y-57270000D03*
%TO.P,J1,14,GND*%
%TO.N,GND*%
X72110000Y-54730000D03*
%TO.P,J1,15,BCM22*%
%TO.N,unconnected-(J1-BCM22-Pad15)*%
X74650000Y-57270000D03*
%TO.P,J1,16,BCM23*%
%TO.N,unconnected-(J1-BCM23-Pad16)*%
X74650000Y-54730000D03*
%TO.P,J1,17,3.3V*%
%TO.N,unconnected-(J1-3.3V-Pad17)*%
X77190000Y-57270000D03*
%TO.P,J1,18,BCM24*%
%TO.N,unconnected-(J1-BCM24-Pad18)*%
X77190000Y-54730000D03*
%TO.P,J1,19,BCM10_MOSI*%
%TO.N,unconnected-(J1-BCM10_MOSI-Pad19)*%
X79730000Y-57270000D03*
%TO.P,J1,20,GND*%
%TO.N,GND*%
X79730000Y-54730000D03*
%TO.P,J1,21,BCM9_MISO*%
%TO.N,unconnected-(J1-BCM9_MISO-Pad21)*%
X82270000Y-57270000D03*
%TO.P,J1,22,BCM25*%
%TO.N,unconnected-(J1-BCM25-Pad22)*%
X82270000Y-54730000D03*
%TO.P,J1,23,BCM11_SCLK*%
%TO.N,unconnected-(J1-BCM11_SCLK-Pad23)*%
X84810000Y-57270000D03*
%TO.P,J1,24,BCM8_CE0*%
%TO.N,unconnected-(J1-BCM8_CE0-Pad24)*%
X84810000Y-54730000D03*
%TO.P,J1,25,GND*%
%TO.N,GND*%
X87350000Y-57270000D03*
%TO.P,J1,26,BCM7_CE1*%
%TO.N,unconnected-(J1-BCM7_CE1-Pad26)*%
X87350000Y-54730000D03*
%TO.P,J1,27,BCM0_ID_SD*%
%TO.N,/ID_SD*%
X89890000Y-57270000D03*
%TO.P,J1,28,BCM1_ID_SC*%
%TO.N,/ID_SC*%
X89890000Y-54730000D03*
%TO.P,J1,29,BCM5*%
%TO.N,unconnected-(J1-BCM5-Pad29)*%
X92430000Y-57270000D03*
%TO.P,J1,30,GND*%
%TO.N,GND*%
X92430000Y-54730000D03*
%TO.P,J1,31,BCM6*%
%TO.N,unconnected-(J1-BCM6-Pad31)*%
X94970000Y-57270000D03*
%TO.P,J1,32,BCM12_PWM0*%
%TO.N,unconnected-(J1-BCM12_PWM0-Pad32)*%
X94970000Y-54730000D03*
%TO.P,J1,33,BCM13_PWM1*%
%TO.N,unconnected-(J1-BCM13_PWM1-Pad33)*%
X97510000Y-57270000D03*
%TO.P,J1,34,GND*%
%TO.N,GND*%
X97510000Y-54730000D03*
%TO.P,J1,35,BCM19_MISO_PCM_FS*%
%TO.N,pcm_fs*%
X100050000Y-57270000D03*
%TO.P,J1,36,BCM16*%
%TO.N,unconnected-(J1-BCM16-Pad36)*%
X100050000Y-54730000D03*
%TO.P,J1,37,BCM26*%
%TO.N,unconnected-(J1-BCM26-Pad37)*%
X102590000Y-57270000D03*
%TO.P,J1,38,BCM20_MOSI_PCM_DI*%
%TO.N,DOUT*%
X102590000Y-54730000D03*
%TO.P,J1,39,GND*%
%TO.N,GND*%
X105130000Y-57270000D03*
%TO.P,J1,40,BCM21_SCLK_PCM_DO*%
%TO.N,Net-(J1-BCM21_SCLK_PCM_DO)*%
X105130000Y-54730000D03*
%TD*%
D12*
%TO.P,J4,R*%
%TO.N,/ADC/inr+*%
X60940000Y-99000000D03*
D13*
%TO.P,J4,RN*%
%TO.N,unconnected-(J4-PadRN)*%
X63440000Y-99000000D03*
D14*
%TO.P,J4,S*%
%TO.N,GND*%
X65940000Y-104000000D03*
D12*
%TO.P,J4,T*%
%TO.N,/ADC/inl+*%
X70940000Y-99000000D03*
D15*
%TO.P,J4,TN*%
%TO.N,unconnected-(J4-PadTN)*%
X68440000Y-99000000D03*
%TD*%
D16*
%TO.P,U6,33,EPAD*%
%TO.N,GND*%
X92950000Y-93077000D03*
X93816667Y-93077000D03*
X94683333Y-93077000D03*
X95550000Y-93077000D03*
X92950000Y-92210333D03*
X93816667Y-92210333D03*
X94683333Y-92210333D03*
X95550000Y-92210333D03*
D17*
X94250000Y-91777000D03*
D16*
X92950000Y-91343667D03*
X93816667Y-91343667D03*
X94683333Y-91343667D03*
X95550000Y-91343667D03*
X92950000Y-90477000D03*
X93816667Y-90477000D03*
X94683333Y-90477000D03*
X95550000Y-90477000D03*
%TD*%
D12*
%TO.P,J5,R*%
%TO.N,/DAC/outr+*%
X80100000Y-99000000D03*
D13*
%TO.P,J5,RN*%
%TO.N,unconnected-(J5-PadRN)*%
X82600000Y-99000000D03*
D14*
%TO.P,J5,S*%
%TO.N,GND*%
X85100000Y-104000000D03*
D12*
%TO.P,J5,T*%
%TO.N,/DAC/outl+*%
X90100000Y-99000000D03*
D15*
%TO.P,J5,TN*%
%TO.N,unconnected-(J5-PadTN)*%
X87600000Y-99000000D03*
%TD*%
D18*
%TO.P,J3,1,Pin_1*%
%TO.N,/ADC/inr-*%
X63340000Y-93580000D03*
D19*
%TO.P,J3,2,Pin_2*%
%TO.N,/ADC/inr+*%
X63340000Y-91040000D03*
%TO.P,J3,3,Pin_3*%
%TO.N,GND*%
X65880000Y-93580000D03*
%TO.P,J3,4,Pin_4*%
X65880000Y-91040000D03*
%TO.P,J3,5,Pin_5*%
%TO.N,/ADC/inl+*%
X68420000Y-93580000D03*
%TO.P,J3,6,Pin_6*%
%TO.N,/ADC/inl-*%
X68420000Y-91040000D03*
%TD*%
D18*
%TO.P,J2,1,Pin_1*%
%TO.N,/DAC/outr-*%
X107650000Y-89400000D03*
D19*
%TO.P,J2,2,Pin_2*%
%TO.N,/DAC/outr+*%
X110190000Y-89400000D03*
%TO.P,J2,3,Pin_3*%
%TO.N,GND*%
X107650000Y-91940000D03*
%TO.P,J2,4,Pin_4*%
X110190000Y-91940000D03*
%TO.P,J2,5,Pin_5*%
%TO.N,/DAC/outl-*%
X107650000Y-94480000D03*
%TO.P,J2,6,Pin_6*%
%TO.N,/DAC/outl+*%
X110190000Y-94480000D03*
%TD*%
D20*
%TO.N,GND*%
X100750000Y-88440000D03*
X92500000Y-100330000D03*
X87800000Y-84480000D03*
X77110000Y-95070000D03*
X64310000Y-73640000D03*
X82625000Y-77575000D03*
X60790000Y-82540000D03*
X73070000Y-95930000D03*
X100900000Y-79960000D03*
X82840000Y-61150000D03*
X84240000Y-72360000D03*
X92560000Y-85890000D03*
X73770000Y-74470000D03*
X87120000Y-64440000D03*
X100750000Y-86490000D03*
X88770000Y-72600000D03*
X59420000Y-76990000D03*
X106000000Y-100600000D03*
X96810000Y-100230000D03*
X75650000Y-83510000D03*
X71620000Y-86100000D03*
X63500000Y-82500000D03*
X105600000Y-83700000D03*
X71710000Y-78350000D03*
X82530000Y-72690000D03*
X66290000Y-73700000D03*
X76620000Y-85530000D03*
X58450000Y-95920000D03*
X71710000Y-74810000D03*
X94470000Y-100290000D03*
X87030000Y-77600000D03*
X100750000Y-90410000D03*
X63920000Y-79680000D03*
X54370000Y-95120000D03*
%TO.N,VDD*%
X89450000Y-88870000D03*
X92500000Y-97070000D03*
X91150000Y-60600000D03*
D21*
X86970000Y-79670000D03*
D20*
X68350500Y-76150000D03*
D21*
X80720000Y-79670000D03*
D20*
X85380000Y-59970000D03*
D21*
X68400000Y-71450000D03*
%TO.N,+5V*%
X97735000Y-79325000D03*
X69549500Y-65450000D03*
X76830000Y-75730000D03*
X56095000Y-59535000D03*
D20*
%TO.N,sda*%
X87588178Y-81535000D03*
X64919647Y-80390353D03*
%TO.N,scl*%
X88240000Y-82190000D03*
X65844722Y-80744500D03*
%TO.N,pcm_clk*%
X82630000Y-82610000D03*
X60775000Y-78250001D03*
%TO.N,pcm_fs*%
X61343707Y-76618810D03*
X82130000Y-85470000D03*
%TO.N,Net-(U4-DOUT)*%
X99940000Y-62780000D03*
X60920000Y-60290500D03*
%TO.N,DIN*%
X90840000Y-77540000D03*
X90780000Y-91680000D03*
%TO.N,Net-(U6-ADR1)*%
X91430000Y-93990000D03*
X91901382Y-88688618D03*
%TD*%
D22*
%TO.N,VDD*%
X85380000Y-59970000D02*
X90520000Y-59970000D01*
D23*
X89450000Y-94060000D02*
X92500000Y-97110000D01*
D22*
X90520000Y-59970000D02*
X91150000Y-60600000D01*
D23*
X92500000Y-97110000D02*
X92500000Y-97070000D01*
X68360000Y-77500000D02*
X70530000Y-79670000D01*
X88560000Y-79670000D02*
X80720000Y-79670000D01*
X68360000Y-71490000D02*
X68360000Y-76150000D01*
X89450000Y-88870000D02*
X89450000Y-94060000D01*
X89450000Y-88870000D02*
X89450000Y-80560000D01*
X68400000Y-71450000D02*
X68360000Y-71490000D01*
X89450000Y-80560000D02*
X88560000Y-79670000D01*
X70530000Y-79670000D02*
X80720000Y-79670000D01*
X68360000Y-76150000D02*
X68360000Y-77500000D01*
X68360000Y-76150000D02*
X68350500Y-76150000D01*
%TO.N,+5V*%
X76830000Y-75730000D02*
X94140000Y-75730000D01*
D24*
X56870000Y-54730000D02*
X56476400Y-54730000D01*
D25*
X56476400Y-54730000D02*
X55450000Y-55756400D01*
D23*
X74860000Y-73760000D02*
X74860000Y-71180000D01*
X64970000Y-61290000D02*
X57850000Y-61290000D01*
D24*
X56870000Y-54730000D02*
X56593600Y-55006400D01*
D25*
X55450000Y-55756400D02*
X55450000Y-58890000D01*
D23*
X57850000Y-61290000D02*
X56095000Y-59535000D01*
X55450000Y-58890000D02*
X57870000Y-61310000D01*
X76830000Y-75730000D02*
X74860000Y-73760000D01*
X74860000Y-71180000D02*
X64970000Y-61290000D01*
X94140000Y-75730000D02*
X97735000Y-79325000D01*
D22*
%TO.N,sda*%
X86665000Y-80495000D02*
X87588178Y-81418178D01*
X87588178Y-81418178D02*
X87588178Y-81535000D01*
X65190500Y-80119500D02*
X66103606Y-80119500D01*
X70162774Y-80469500D02*
X70188274Y-80495000D01*
X70188274Y-80495000D02*
X86665000Y-80495000D01*
X66453606Y-80469500D02*
X70162774Y-80469500D01*
X64919647Y-80390353D02*
X65190500Y-80119500D01*
X66103606Y-80119500D02*
X66453606Y-80469500D01*
%TO.N,scl*%
X87360000Y-82190000D02*
X88240000Y-82190000D01*
X66019722Y-80919500D02*
X69976378Y-80919500D01*
X70001878Y-80945000D02*
X86115000Y-80945000D01*
X65844722Y-80744500D02*
X66019722Y-80919500D01*
X86115000Y-80945000D02*
X87360000Y-82190000D01*
X69976378Y-80919500D02*
X70001878Y-80945000D01*
%TO.N,pcm_clk*%
X69815482Y-81395000D02*
X82630000Y-81395000D01*
X62666396Y-80790000D02*
X64436116Y-80790000D01*
X60775000Y-78250001D02*
X60775000Y-78898604D01*
X64436116Y-80790000D02*
X65015616Y-81369500D01*
X82630000Y-81395000D02*
X82630000Y-82610000D01*
X65015616Y-81369500D02*
X69789982Y-81369500D01*
X69789982Y-81369500D02*
X69815482Y-81395000D01*
X60775000Y-78898604D02*
X62666396Y-80790000D01*
%TO.N,pcm_fs*%
X81720000Y-85060000D02*
X82130000Y-85470000D01*
X64249720Y-81240000D02*
X64829220Y-81819500D01*
X69603586Y-81819500D02*
X69629086Y-81845000D01*
X61343707Y-76618810D02*
X60150000Y-77812517D01*
X64829220Y-81819500D02*
X69603586Y-81819500D01*
X81720000Y-81845000D02*
X81720000Y-85060000D01*
X60150000Y-78910000D02*
X62480000Y-81240000D01*
X69629086Y-81845000D02*
X81720000Y-81845000D01*
X62480000Y-81240000D02*
X64249720Y-81240000D01*
X60150000Y-77812517D02*
X60150000Y-78910000D01*
%TO.N,Net-(U4-DOUT)*%
X60920000Y-60290500D02*
X61094500Y-60465000D01*
X67626726Y-62780000D02*
X99940000Y-62780000D01*
X61094500Y-60465000D02*
X65311726Y-60465000D01*
X65311726Y-60465000D02*
X67626726Y-62780000D01*
%TO.N,DIN*%
X90275000Y-80218274D02*
X90270000Y-80213274D01*
X90270000Y-80213274D02*
X90270000Y-78110000D01*
X90270000Y-78110000D02*
X90840000Y-77540000D01*
X90780000Y-91680000D02*
X90275000Y-91175000D01*
X90275000Y-91175000D02*
X90275000Y-80218274D01*
%TO.N,Net-(U6-ADR1)*%
X91600000Y-93820000D02*
X91430000Y-93990000D01*
X91901382Y-88688618D02*
X91600000Y-88990000D01*
X91600000Y-88990000D02*
X91600000Y-93820000D01*
%TD*%
%TA.AperFunction,Conductor*%
%TO.N,GND*%
G36*
X109724075Y-91747007D02*
G01*
X109690000Y-91874174D01*
X109690000Y-92005826D01*
X109724075Y-92132993D01*
X109756988Y-92190000D01*
X108083012Y-92190000D01*
X108115925Y-92132993D01*
X108150000Y-92005826D01*
X108150000Y-91874174D01*
X108115925Y-91747007D01*
X108083012Y-91690000D01*
X109756988Y-91690000D01*
X109724075Y-91747007D01*
G37*
%TD.AperFunction*%
%TA.AperFunction,Conductor*%
G36*
X66130000Y-93146988D02*
G01*
X66072993Y-93114075D01*
X65945826Y-93080000D01*
X65814174Y-93080000D01*
X65687007Y-93114075D01*
X65630000Y-93146988D01*
X65630000Y-91473012D01*
X65687007Y-91505925D01*
X65814174Y-91540000D01*
X65945826Y-91540000D01*
X66072993Y-91505925D01*
X66130000Y-91473012D01*
X66130000Y-93146988D01*
G37*
%TD.AperFunction*%
%TA.AperFunction,Conductor*%
G36*
X110503472Y-52550695D02*
G01*
X110823297Y-52568656D01*
X110837094Y-52570210D01*
X111149457Y-52623283D01*
X111163014Y-52626377D01*
X111467469Y-52714089D01*
X111480593Y-52718682D01*
X111773304Y-52839926D01*
X111785826Y-52845955D01*
X112063139Y-52999221D01*
X112074900Y-53006611D01*
X112333314Y-53189966D01*
X112344174Y-53198627D01*
X112580418Y-53409749D01*
X112590250Y-53419581D01*
X112801372Y-53655825D01*
X112810035Y-53666687D01*
X112993385Y-53925094D01*
X113000778Y-53936860D01*
X113154040Y-54214166D01*
X113160073Y-54226695D01*
X113281317Y-54519406D01*
X113285910Y-54532530D01*
X113373622Y-54836985D01*
X113376716Y-54850542D01*
X113429787Y-55162894D01*
X113431344Y-55176712D01*
X113449305Y-55496527D01*
X113449500Y-55503480D01*
X113449500Y-105496519D01*
X113449305Y-105503472D01*
X113431344Y-105823287D01*
X113429787Y-105837105D01*
X113376716Y-106149457D01*
X113373622Y-106163014D01*
X113285910Y-106467469D01*
X113281317Y-106480593D01*
X113160073Y-106773304D01*
X113154040Y-106785833D01*
X113000778Y-107063139D01*
X112993380Y-107074912D01*
X112815145Y-107326112D01*
X112810043Y-107333302D01*
X112801372Y-107344174D01*
X112590250Y-107580418D01*
X112580418Y-107590250D01*
X112344174Y-107801372D01*
X112333302Y-107810043D01*
X112074913Y-107993380D01*
X112063139Y-108000778D01*
X111785833Y-108154040D01*
X111773304Y-108160073D01*
X111480593Y-108281317D01*
X111467469Y-108285910D01*
X111163014Y-108373622D01*
X111149457Y-108376716D01*
X110837105Y-108429787D01*
X110823287Y-108431344D01*
X110503472Y-108449305D01*
X110496519Y-108449500D01*
X87474500Y-108449500D01*
X87407461Y-108429815D01*
X87361706Y-108377011D01*
X87350500Y-108325500D01*
X87350500Y-107440693D01*
X87350500Y-107440691D01*
X87319799Y-107326114D01*
X87260489Y-107223387D01*
X87176613Y-107139511D01*
X87073886Y-107080201D01*
X86959309Y-107049500D01*
X86920918Y-107049500D01*
X83316408Y-107049500D01*
X83300000Y-107049500D01*
X83240691Y-107049500D01*
X83126114Y-107080201D01*
X83126112Y-107080201D01*
X83126112Y-107080202D01*
X83023387Y-107139511D01*
X83023384Y-107139513D01*
X82939513Y-107223384D01*
X82939511Y-107223387D01*
X82886326Y-107315506D01*
X82880201Y-107326114D01*
X82849500Y-107440691D01*
X82849500Y-107440693D01*
X82849500Y-108325500D01*
X82829815Y-108392539D01*
X82777011Y-108438294D01*
X82725500Y-108449500D01*
X68314500Y-108449500D01*
X68247461Y-108429815D01*
X68201706Y-108377011D01*
X68190500Y-108325500D01*
X68190500Y-107440693D01*
X68190500Y-107440691D01*
X68159799Y-107326114D01*
X68100489Y-107223387D01*
X68016613Y-107139511D01*
X67913886Y-107080201D01*
X67799309Y-107049500D01*
X67760918Y-107049500D01*
X64156408Y-107049500D01*
X64140000Y-107049500D01*
X64080691Y-107049500D01*
X63966114Y-107080201D01*
X63966112Y-107080201D01*
X63966112Y-107080202D01*
X63863387Y-107139511D01*
X63863384Y-107139513D01*
X63779513Y-107223384D01*
X63779511Y-107223387D01*
X63726326Y-107315506D01*
X63720201Y-107326114D01*
X63689500Y-107440691D01*
X63689500Y-107440693D01*
X63689500Y-108325500D01*
X63669815Y-108392539D01*
X63617011Y-108438294D01*
X63565500Y-108449500D01*
X51503481Y-108449500D01*
X51496528Y-108449305D01*
X51176712Y-108431344D01*
X51162894Y-108429787D01*
X50850542Y-108376716D01*
X50836985Y-108373622D01*
X50532530Y-108285910D01*
X50519406Y-108281317D01*
X50226695Y-108160073D01*
X50214166Y-108154040D01*
X49936860Y-108000778D01*
X49925094Y-107993385D01*
X49666687Y-107810035D01*
X49655825Y-107801372D01*
X49419581Y-107590250D01*
X49409749Y-107580418D01*
X49198627Y-107344174D01*
X49189966Y-107333314D01*
X49006611Y-107074900D01*
X48999221Y-107063139D01*
X48991683Y-107049500D01*
X48845955Y-106785826D01*
X48839926Y-106773304D01*
X48829475Y-106748074D01*
X48761418Y-106583768D01*
X48718682Y-106480593D01*
X48714089Y-106467469D01*
X48626377Y-106163014D01*
X48623283Y-106149457D01*
X48614394Y-106097139D01*
X48570210Y-105837094D01*
X48568656Y-105823297D01*
X48550695Y-105503472D01*
X48550500Y-105496519D01*
X48550500Y-104825875D01*
X48899500Y-104825875D01*
X48899500Y-105174124D01*
X48938489Y-105520158D01*
X48938491Y-105520170D01*
X49015982Y-105859684D01*
X49015985Y-105859692D01*
X49130999Y-106188382D01*
X49282092Y-106502130D01*
X49467371Y-106796999D01*
X49467372Y-106797001D01*
X49684487Y-107069256D01*
X49930743Y-107315512D01*
X50202998Y-107532627D01*
X50203001Y-107532628D01*
X50203003Y-107532630D01*
X50497867Y-107717906D01*
X50811621Y-107869002D01*
X51058488Y-107955384D01*
X51140307Y-107984014D01*
X51140315Y-107984017D01*
X51140318Y-107984017D01*
X51140319Y-107984018D01*
X51479829Y-108061509D01*
X51825876Y-108100499D01*
X51825877Y-108100500D01*
X51825880Y-108100500D01*
X52174123Y-108100500D01*
X52174123Y-108100499D01*
X52520171Y-108061509D01*
X52859681Y-107984018D01*
X53188379Y-107869002D01*
X53502133Y-107717906D01*
X53796997Y-107532630D01*
X53837914Y-107500000D01*
X54069256Y-107315512D01*
X54069258Y-107315509D01*
X54069263Y-107315506D01*
X54315506Y-107069263D01*
X54315534Y-107069229D01*
X54532627Y-106797001D01*
X54532628Y-106796999D01*
X54532630Y-106796997D01*
X54717906Y-106502133D01*
X54759276Y-106416228D01*
X60089500Y-106416228D01*
X60089500Y-106583771D01*
X60122182Y-106748074D01*
X60122184Y-106748082D01*
X60186295Y-106902860D01*
X60279373Y-107042162D01*
X60397837Y-107160626D01*
X60452760Y-107197324D01*
X60537137Y-107253703D01*
X60691918Y-107317816D01*
X60798333Y-107338983D01*
X60856228Y-107350499D01*
X60856232Y-107350500D01*
X60856233Y-107350500D01*
X61023768Y-107350500D01*
X61023769Y-107350499D01*
X61188082Y-107317816D01*
X61342863Y-107253703D01*
X61482162Y-107160626D01*
X61600626Y-107042162D01*
X61693703Y-106902863D01*
X61757816Y-106748082D01*
X61790500Y-106583767D01*
X61790500Y-106416233D01*
X61790499Y-106416228D01*
X70089500Y-106416228D01*
X70089500Y-106583771D01*
X70122182Y-106748074D01*
X70122184Y-106748082D01*
X70186295Y-106902860D01*
X70279373Y-107042162D01*
X70397837Y-107160626D01*
X70452760Y-107197324D01*
X70537137Y-107253703D01*
X70691918Y-107317816D01*
X70798333Y-107338983D01*
X70856228Y-107350499D01*
X70856232Y-107350500D01*
X70856233Y-107350500D01*
X71023768Y-107350500D01*
X71023769Y-107350499D01*
X71188082Y-107317816D01*
X71342863Y-107253703D01*
X71482162Y-107160626D01*
X71600626Y-107042162D01*
X71693703Y-106902863D01*
X71757816Y-106748082D01*
X71790500Y-106583767D01*
X71790500Y-106416233D01*
X71790499Y-106416228D01*
X79249500Y-106416228D01*
X79249500Y-106583771D01*
X79282182Y-106748074D01*
X79282184Y-106748082D01*
X79346295Y-106902860D01*
X79439373Y-107042162D01*
X79557837Y-107160626D01*
X79612760Y-107197324D01*
X79697137Y-107253703D01*
X79851918Y-107317816D01*
X79958333Y-107338983D01*
X80016228Y-107350499D01*
X80016232Y-107350500D01*
X80016233Y-107350500D01*
X80183768Y-107350500D01*
X80183769Y-107350499D01*
X80348082Y-107317816D01*
X80502863Y-107253703D01*
X80642162Y-107160626D01*
X80760626Y-107042162D01*
X80853703Y-106902863D01*
X80917816Y-106748082D01*
X80950500Y-106583767D01*
X80950500Y-106416233D01*
X80950499Y-106416228D01*
X89249500Y-106416228D01*
X89249500Y-106583771D01*
X89282182Y-106748074D01*
X89282184Y-106748082D01*
X89346295Y-106902860D01*
X89439373Y-107042162D01*
X89557837Y-107160626D01*
X89612760Y-107197324D01*
X89697137Y-107253703D01*
X89851918Y-107317816D01*
X89958333Y-107338983D01*
X90016228Y-107350499D01*
X90016232Y-107350500D01*
X90016233Y-107350500D01*
X90183768Y-107350500D01*
X90183769Y-107350499D01*
X90348082Y-107317816D01*
X90502863Y-107253703D01*
X90642162Y-107160626D01*
X90760626Y-107042162D01*
X90853703Y-106902863D01*
X90917816Y-106748082D01*
X90950500Y-106583767D01*
X90950500Y-106416233D01*
X90917816Y-106251918D01*
X90853703Y-106097137D01*
X90822537Y-106050494D01*
X90760626Y-105957837D01*
X90642162Y-105839373D01*
X90502860Y-105746295D01*
X90348082Y-105682184D01*
X90348074Y-105682182D01*
X90183771Y-105649500D01*
X90183767Y-105649500D01*
X90016233Y-105649500D01*
X90016228Y-105649500D01*
X89851925Y-105682182D01*
X89851917Y-105682184D01*
X89697139Y-105746295D01*
X89557837Y-105839373D01*
X89439373Y-105957837D01*
X89346295Y-106097139D01*
X89282184Y-106251917D01*
X89282182Y-106251925D01*
X89249500Y-106416228D01*
X80950499Y-106416228D01*
X80917816Y-106251918D01*
X80853703Y-106097137D01*
X80822537Y-106050494D01*
X80760626Y-105957837D01*
X80642162Y-105839373D01*
X80502860Y-105746295D01*
X80348082Y-105682184D01*
X80348074Y-105682182D01*
X80183771Y-105649500D01*
X80183767Y-105649500D01*
X80016233Y-105649500D01*
X80016228Y-105649500D01*
X79851925Y-105682182D01*
X79851917Y-105682184D01*
X79697139Y-105746295D01*
X79557837Y-105839373D01*
X79439373Y-105957837D01*
X79346295Y-106097139D01*
X79282184Y-106251917D01*
X79282182Y-106251925D01*
X79249500Y-106416228D01*
X71790499Y-106416228D01*
X71757816Y-106251918D01*
X71693703Y-106097137D01*
X71662537Y-106050494D01*
X71600626Y-105957837D01*
X71482162Y-105839373D01*
X71342860Y-105746295D01*
X71188082Y-105682184D01*
X71188074Y-105682182D01*
X71023771Y-105649500D01*
X71023767Y-105649500D01*
X70856233Y-105649500D01*
X70856228Y-105649500D01*
X70691925Y-105682182D01*
X70691917Y-105682184D01*
X70537139Y-105746295D01*
X70397837Y-105839373D01*
X70279373Y-105957837D01*
X70186295Y-106097139D01*
X70122184Y-106251917D01*
X70122182Y-106251925D01*
X70089500Y-106416228D01*
X61790499Y-106416228D01*
X61757816Y-106251918D01*
X61693703Y-106097137D01*
X61662537Y-106050494D01*
X61600626Y-105957837D01*
X61482162Y-105839373D01*
X61342860Y-105746295D01*
X61188082Y-105682184D01*
X61188074Y-105682182D01*
X61023771Y-105649500D01*
X61023767Y-105649500D01*
X60856233Y-105649500D01*
X60856228Y-105649500D01*
X60691925Y-105682182D01*
X60691917Y-105682184D01*
X60537139Y-105746295D01*
X60397837Y-105839373D01*
X60279373Y-105957837D01*
X60186295Y-106097139D01*
X60122184Y-106251917D01*
X60122182Y-106251925D01*
X60089500Y-106416228D01*
X54759276Y-106416228D01*
X54869002Y-106188379D01*
X54984018Y-105859681D01*
X55061509Y-105520171D01*
X55100500Y-105174120D01*
X55100500Y-104825880D01*
X55061509Y-104479829D01*
X54984018Y-104140319D01*
X54905605Y-103916228D01*
X60089500Y-103916228D01*
X60089500Y-104083771D01*
X60122182Y-104248074D01*
X60122184Y-104248082D01*
X60186295Y-104402860D01*
X60279373Y-104542162D01*
X60397837Y-104660626D01*
X60481612Y-104716602D01*
X60537137Y-104753703D01*
X60691918Y-104817816D01*
X60856228Y-104850499D01*
X60856232Y-104850500D01*
X60856233Y-104850500D01*
X61023768Y-104850500D01*
X61023769Y-104850499D01*
X61188082Y-104817816D01*
X61342863Y-104753703D01*
X61482162Y-104660626D01*
X61600626Y-104542162D01*
X61693703Y-104402863D01*
X61757022Y-104250000D01*
X64365885Y-104250000D01*
X64367085Y-104257584D01*
X64420591Y-104422255D01*
X64499195Y-104576524D01*
X64600967Y-104716602D01*
X64723397Y-104839032D01*
X64863475Y-104940804D01*
X65017742Y-105019408D01*
X65182415Y-105072914D01*
X65353429Y-105100000D01*
X65690000Y-105100000D01*
X66190000Y-105100000D01*
X66526571Y-105100000D01*
X66697584Y-105072914D01*
X66862257Y-105019408D01*
X67016524Y-104940804D01*
X67156602Y-104839032D01*
X67279032Y-104716602D01*
X67380804Y-104576524D01*
X67459408Y-104422255D01*
X67512914Y-104257584D01*
X67514115Y-104250000D01*
X66190000Y-104250000D01*
X66190000Y-105100000D01*
X65690000Y-105100000D01*
X65690000Y-104250000D01*
X64365885Y-104250000D01*
X61757022Y-104250000D01*
X61757816Y-104248082D01*
X61790500Y-104083767D01*
X61790500Y-103960218D01*
X65240000Y-103960218D01*
X65240000Y-104039782D01*
X65270448Y-104113291D01*
X65326709Y-104169552D01*
X65400218Y-104200000D01*
X66479782Y-104200000D01*
X66553291Y-104169552D01*
X66609552Y-104113291D01*
X66640000Y-104039782D01*
X66640000Y-103960218D01*
X66621779Y-103916228D01*
X70089500Y-103916228D01*
X70089500Y-104083771D01*
X70122182Y-104248074D01*
X70122184Y-104248082D01*
X70186295Y-104402860D01*
X70279373Y-104542162D01*
X70397837Y-104660626D01*
X70481612Y-104716602D01*
X70537137Y-104753703D01*
X70691918Y-104817816D01*
X70856228Y-104850499D01*
X70856232Y-104850500D01*
X70856233Y-104850500D01*
X71023768Y-104850500D01*
X71023769Y-104850499D01*
X71188082Y-104817816D01*
X71342863Y-104753703D01*
X71482162Y-104660626D01*
X71600626Y-104542162D01*
X71693703Y-104402863D01*
X71757816Y-104248082D01*
X71790500Y-104083767D01*
X71790500Y-103916233D01*
X71790499Y-103916228D01*
X79249500Y-103916228D01*
X79249500Y-104083771D01*
X79282182Y-104248074D01*
X79282184Y-104248082D01*
X79346295Y-104402860D01*
X79439373Y-104542162D01*
X79557837Y-104660626D01*
X79641612Y-104716602D01*
X79697137Y-104753703D01*
X79851918Y-104817816D01*
X80016228Y-104850499D01*
X80016232Y-104850500D01*
X80016233Y-104850500D01*
X80183768Y-104850500D01*
X80183769Y-104850499D01*
X80348082Y-104817816D01*
X80502863Y-104753703D01*
X80642162Y-104660626D01*
X80760626Y-104542162D01*
X80853703Y-104402863D01*
X80917022Y-104250000D01*
X83525885Y-104250000D01*
X83527085Y-104257584D01*
X83580591Y-104422255D01*
X83659195Y-104576524D01*
X83760967Y-104716602D01*
X83883397Y-104839032D01*
X84023475Y-104940804D01*
X84177742Y-105019408D01*
X84342415Y-105072914D01*
X84513429Y-105100000D01*
X84850000Y-105100000D01*
X85350000Y-105100000D01*
X85686571Y-105100000D01*
X85857584Y-105072914D01*
X86022257Y-105019408D01*
X86176524Y-104940804D01*
X86316602Y-104839032D01*
X86439032Y-104716602D01*
X86540804Y-104576524D01*
X86619408Y-104422255D01*
X86672914Y-104257584D01*
X86674115Y-104250000D01*
X85350000Y-104250000D01*
X85350000Y-105100000D01*
X84850000Y-105100000D01*
X84850000Y-104250000D01*
X83525885Y-104250000D01*
X80917022Y-104250000D01*
X80917816Y-104248082D01*
X80950500Y-104083767D01*
X80950500Y-103960218D01*
X84400000Y-103960218D01*
X84400000Y-104039782D01*
X84430448Y-104113291D01*
X84486709Y-104169552D01*
X84560218Y-104200000D01*
X85639782Y-104200000D01*
X85713291Y-104169552D01*
X85769552Y-104113291D01*
X85800000Y-104039782D01*
X85800000Y-103960218D01*
X85781779Y-103916228D01*
X89249500Y-103916228D01*
X89249500Y-104083771D01*
X89282182Y-104248074D01*
X89282184Y-104248082D01*
X89346295Y-104402860D01*
X89439373Y-104542162D01*
X89557837Y-104660626D01*
X89641612Y-104716602D01*
X89697137Y-104753703D01*
X89851918Y-104817816D01*
X90016228Y-104850499D01*
X90016232Y-104850500D01*
X90016233Y-104850500D01*
X90183768Y-104850500D01*
X90183769Y-104850499D01*
X90307566Y-104825875D01*
X106899500Y-104825875D01*
X106899500Y-105174124D01*
X106938489Y-105520158D01*
X106938491Y-105520170D01*
X107015982Y-105859684D01*
X107015985Y-105859692D01*
X107130999Y-106188382D01*
X107282092Y-106502130D01*
X107467371Y-106796999D01*
X107467372Y-106797001D01*
X107684487Y-107069256D01*
X107930743Y-107315512D01*
X108202998Y-107532627D01*
X108203001Y-107532628D01*
X108203003Y-107532630D01*
X108497867Y-107717906D01*
X108811621Y-107869002D01*
X109058488Y-107955384D01*
X109140307Y-107984014D01*
X109140315Y-107984017D01*
X109140318Y-107984017D01*
X109140319Y-107984018D01*
X109479829Y-108061509D01*
X109825876Y-108100499D01*
X109825877Y-108100500D01*
X109825880Y-108100500D01*
X110174123Y-108100500D01*
X110174123Y-108100499D01*
X110520171Y-108061509D01*
X110859681Y-107984018D01*
X111188379Y-107869002D01*
X111502133Y-107717906D01*
X111796997Y-107532630D01*
X111837914Y-107500000D01*
X112069256Y-107315512D01*
X112069258Y-107315509D01*
X112069263Y-107315506D01*
X112315506Y-107069263D01*
X112315534Y-107069229D01*
X112532627Y-106797001D01*
X112532628Y-106796999D01*
X112532630Y-106796997D01*
X112717906Y-106502133D01*
X112869002Y-106188379D01*
X112984018Y-105859681D01*
X113061509Y-105520171D01*
X113100500Y-105174120D01*
X113100500Y-104825880D01*
X113061509Y-104479829D01*
X112984018Y-104140319D01*
X112869002Y-103811621D01*
X112717906Y-103497867D01*
X112532630Y-103203003D01*
X112532628Y-103203000D01*
X112532627Y-103202998D01*
X112315512Y-102930743D01*
X112069256Y-102684487D01*
X111797001Y-102467372D01*
X111796999Y-102467371D01*
X111502130Y-102282092D01*
X111188382Y-102130999D01*
X110859692Y-102015985D01*
X110859684Y-102015982D01*
X110605048Y-101957863D01*
X110520171Y-101938491D01*
X110520167Y-101938490D01*
X110520158Y-101938489D01*
X110174124Y-101899500D01*
X110174120Y-101899500D01*
X109825880Y-101899500D01*
X109825875Y-101899500D01*
X109479841Y-101938489D01*
X109479829Y-101938491D01*
X109140315Y-102015982D01*
X109140307Y-102015985D01*
X108811617Y-102130999D01*
X108497869Y-102282092D01*
X108203000Y-102467371D01*
X108202998Y-102467372D01*
X107930743Y-102684487D01*
X107684487Y-102930743D01*
X107467372Y-103202998D01*
X107467371Y-103203000D01*
X107282092Y-103497869D01*
X107130999Y-103811617D01*
X107015985Y-104140307D01*
X107015982Y-104140315D01*
X106938491Y-104479829D01*
X106938489Y-104479841D01*
X106899500Y-104825875D01*
X90307566Y-104825875D01*
X90348082Y-104817816D01*
X90502863Y-104753703D01*
X90642162Y-104660626D01*
X90760626Y-104542162D01*
X90853703Y-104402863D01*
X90917816Y-104248082D01*
X90950500Y-104083767D01*
X90950500Y-103916233D01*
X90917816Y-103751918D01*
X90853703Y-103597137D01*
X90787373Y-103497867D01*
X90760626Y-103457837D01*
X90642162Y-103339373D01*
X90502860Y-103246295D01*
X90348082Y-103182184D01*
X90348074Y-103182182D01*
X90183771Y-103149500D01*
X90183767Y-103149500D01*
X90016233Y-103149500D01*
X90016228Y-103149500D01*
X89851925Y-103182182D01*
X89851917Y-103182184D01*
X89697139Y-103246295D01*
X89557837Y-103339373D01*
X89439373Y-103457837D01*
X89346295Y-103597139D01*
X89282184Y-103751917D01*
X89282182Y-103751925D01*
X89249500Y-103916228D01*
X85781779Y-103916228D01*
X85769552Y-103886709D01*
X85713291Y-103830448D01*
X85639782Y-103800000D01*
X84560218Y-103800000D01*
X84486709Y-103830448D01*
X84430448Y-103886709D01*
X84400000Y-103960218D01*
X80950500Y-103960218D01*
X80950500Y-103916233D01*
X80917816Y-103751918D01*
X80917021Y-103749999D01*
X83525884Y-103749999D01*
X83525885Y-103750000D01*
X84850000Y-103750000D01*
X85350000Y-103750000D01*
X86674115Y-103750000D01*
X86674115Y-103749999D01*
X86672914Y-103742415D01*
X86619408Y-103577744D01*
X86540804Y-103423475D01*
X86439032Y-103283397D01*
X86316602Y-103160967D01*
X86176524Y-103059195D01*
X86022257Y-102980591D01*
X85857584Y-102927085D01*
X85686571Y-102900000D01*
X85350000Y-102900000D01*
X85350000Y-103750000D01*
X84850000Y-103750000D01*
X84850000Y-102900000D01*
X84513429Y-102900000D01*
X84342415Y-102927085D01*
X84177742Y-102980591D01*
X84023475Y-103059195D01*
X83883397Y-103160967D01*
X83760967Y-103283397D01*
X83659195Y-103423475D01*
X83580591Y-103577744D01*
X83527085Y-103742415D01*
X83525884Y-103749999D01*
X80917021Y-103749999D01*
X80853703Y-103597137D01*
X80787373Y-103497867D01*
X80760626Y-103457837D01*
X80642162Y-103339373D01*
X80502860Y-103246295D01*
X80348082Y-103182184D01*
X80348074Y-103182182D01*
X80183771Y-103149500D01*
X80183767Y-103149500D01*
X80016233Y-103149500D01*
X80016228Y-103149500D01*
X79851925Y-103182182D01*
X79851917Y-103182184D01*
X79697139Y-103246295D01*
X79557837Y-103339373D01*
X79439373Y-103457837D01*
X79346295Y-103597139D01*
X79282184Y-103751917D01*
X79282182Y-103751925D01*
X79249500Y-103916228D01*
X71790499Y-103916228D01*
X71757816Y-103751918D01*
X71693703Y-103597137D01*
X71627373Y-103497867D01*
X71600626Y-103457837D01*
X71482162Y-103339373D01*
X71342860Y-103246295D01*
X71188082Y-103182184D01*
X71188074Y-103182182D01*
X71023771Y-103149500D01*
X71023767Y-103149500D01*
X70856233Y-103149500D01*
X70856228Y-103149500D01*
X70691925Y-103182182D01*
X70691917Y-103182184D01*
X70537139Y-103246295D01*
X70397837Y-103339373D01*
X70279373Y-103457837D01*
X70186295Y-103597139D01*
X70122184Y-103751917D01*
X70122182Y-103751925D01*
X70089500Y-103916228D01*
X66621779Y-103916228D01*
X66609552Y-103886709D01*
X66553291Y-103830448D01*
X66479782Y-103800000D01*
X65400218Y-103800000D01*
X65326709Y-103830448D01*
X65270448Y-103886709D01*
X65240000Y-103960218D01*
X61790500Y-103960218D01*
X61790500Y-103916233D01*
X61757816Y-103751918D01*
X61757021Y-103749999D01*
X64365884Y-103749999D01*
X64365885Y-103750000D01*
X65690000Y-103750000D01*
X66190000Y-103750000D01*
X67514115Y-103750000D01*
X67514115Y-103749999D01*
X67512914Y-103742415D01*
X67459408Y-103577744D01*
X67380804Y-103423475D01*
X67279032Y-103283397D01*
X67156602Y-103160967D01*
X67016524Y-103059195D01*
X66862257Y-102980591D01*
X66697584Y-102927085D01*
X66526571Y-102900000D01*
X66190000Y-102900000D01*
X66190000Y-103750000D01*
X65690000Y-103750000D01*
X65690000Y-102900000D01*
X65353429Y-102900000D01*
X65182415Y-102927085D01*
X65017742Y-102980591D01*
X64863475Y-103059195D01*
X64723397Y-103160967D01*
X64600967Y-103283397D01*
X64499195Y-103423475D01*
X64420591Y-103577744D01*
X64367085Y-103742415D01*
X64365884Y-103749999D01*
X61757021Y-103749999D01*
X61693703Y-103597137D01*
X61627373Y-103497867D01*
X61600626Y-103457837D01*
X61482162Y-103339373D01*
X61342860Y-103246295D01*
X61188082Y-103182184D01*
X61188074Y-103182182D01*
X61023771Y-103149500D01*
X61023767Y-103149500D01*
X60856233Y-103149500D01*
X60856228Y-103149500D01*
X60691925Y-103182182D01*
X60691917Y-103182184D01*
X60537139Y-103246295D01*
X60397837Y-103339373D01*
X60279373Y-103457837D01*
X60186295Y-103597139D01*
X60122184Y-103751917D01*
X60122182Y-103751925D01*
X60089500Y-103916228D01*
X54905605Y-103916228D01*
X54869002Y-103811621D01*
X54868585Y-103810756D01*
X54717907Y-103497869D01*
X54559833Y-103246297D01*
X54532630Y-103203003D01*
X54532628Y-103203000D01*
X54532627Y-103202998D01*
X54315512Y-102930743D01*
X54069256Y-102684487D01*
X53797001Y-102467372D01*
X53796999Y-102467371D01*
X53502130Y-102282092D01*
X53188382Y-102130999D01*
X52859692Y-102015985D01*
X52859684Y-102015982D01*
X52605048Y-101957863D01*
X52520171Y-101938491D01*
X52520167Y-101938490D01*
X52520158Y-101938489D01*
X52174124Y-101899500D01*
X52174120Y-101899500D01*
X51825880Y-101899500D01*
X51825875Y-101899500D01*
X51479841Y-101938489D01*
X51479829Y-101938491D01*
X51140315Y-102015982D01*
X51140307Y-102015985D01*
X50811617Y-102130999D01*
X50497869Y-102282092D01*
X50203000Y-102467371D01*
X50202998Y-102467372D01*
X49930743Y-102684487D01*
X49684487Y-102930743D01*
X49467372Y-103202998D01*
X49467371Y-103203000D01*
X49282092Y-103497869D01*
X49130999Y-103811617D01*
X49015985Y-104140307D01*
X49015982Y-104140315D01*
X48938491Y-104479829D01*
X48938489Y-104479841D01*
X48899500Y-104825875D01*
X48550500Y-104825875D01*
X48550500Y-98413389D01*
X59839500Y-98413389D01*
X59839500Y-99586610D01*
X59865964Y-99753703D01*
X59866598Y-99757701D01*
X59920127Y-99922445D01*
X59998768Y-100076788D01*
X60100586Y-100216928D01*
X60223072Y-100339414D01*
X60363212Y-100441232D01*
X60517555Y-100519873D01*
X60682299Y-100573402D01*
X60853389Y-100600500D01*
X60853390Y-100600500D01*
X61026610Y-100600500D01*
X61026611Y-100600500D01*
X61197701Y-100573402D01*
X61362445Y-100519873D01*
X61516788Y-100441232D01*
X61656928Y-100339414D01*
X61779414Y-100216928D01*
X61881232Y-100076788D01*
X61959873Y-99922445D01*
X61991292Y-99825745D01*
X62030728Y-99768072D01*
X62095086Y-99740873D01*
X62163933Y-99752787D01*
X62215409Y-99800031D01*
X62227152Y-99825744D01*
X62234780Y-99849220D01*
X62327715Y-100031613D01*
X62448028Y-100197213D01*
X62592786Y-100341971D01*
X62729410Y-100441232D01*
X62758390Y-100462287D01*
X62871405Y-100519871D01*
X62940776Y-100555218D01*
X62940778Y-100555218D01*
X62940781Y-100555220D01*
X63045137Y-100589127D01*
X63135465Y-100618477D01*
X63236557Y-100634488D01*
X63337648Y-100650500D01*
X63337649Y-100650500D01*
X63542351Y-100650500D01*
X63542352Y-100650500D01*
X63744534Y-100618477D01*
X63939219Y-100555220D01*
X64121610Y-100462287D01*
X64214590Y-100394732D01*
X64287213Y-100341971D01*
X64287215Y-100341968D01*
X64287219Y-100341966D01*
X64431966Y-100197219D01*
X64431968Y-100197215D01*
X64431971Y-100197213D01*
X64484732Y-100124590D01*
X64552287Y-100031610D01*
X64645220Y-99849219D01*
X64708477Y-99654534D01*
X64740500Y-99452352D01*
X64740500Y-98916228D01*
X65089500Y-98916228D01*
X65089500Y-99083771D01*
X65122182Y-99248074D01*
X65122184Y-99248082D01*
X65186295Y-99402860D01*
X65279373Y-99542162D01*
X65397837Y-99660626D01*
X65490494Y-99722537D01*
X65537137Y-99753703D01*
X65537138Y-99753703D01*
X65537139Y-99753704D01*
X65572201Y-99768227D01*
X65691918Y-99817816D01*
X65849793Y-99849219D01*
X65856228Y-99850499D01*
X65856232Y-99850500D01*
X65856233Y-99850500D01*
X66023768Y-99850500D01*
X66023769Y-99850499D01*
X66188082Y-99817816D01*
X66342863Y-99753703D01*
X66482162Y-99660626D01*
X66600626Y-99542162D01*
X66693703Y-99402863D01*
X66757816Y-99248082D01*
X66790500Y-99083767D01*
X66790500Y-98916233D01*
X66757816Y-98751918D01*
X66693703Y-98597137D01*
X66600626Y-98457838D01*
X66600625Y-98457837D01*
X66600623Y-98457834D01*
X66590437Y-98447648D01*
X67139500Y-98447648D01*
X67139500Y-99552351D01*
X67171522Y-99754534D01*
X67234781Y-99949223D01*
X67327715Y-100131613D01*
X67448028Y-100297213D01*
X67592786Y-100441971D01*
X67747749Y-100554556D01*
X67758390Y-100562287D01*
X67868669Y-100618477D01*
X67940776Y-100655218D01*
X67940778Y-100655218D01*
X67940781Y-100655220D01*
X68045137Y-100689127D01*
X68135465Y-100718477D01*
X68236557Y-100734488D01*
X68337648Y-100750500D01*
X68337649Y-100750500D01*
X68542351Y-100750500D01*
X68542352Y-100750500D01*
X68744534Y-100718477D01*
X68939219Y-100655220D01*
X69121610Y-100562287D01*
X69214590Y-100494732D01*
X69287213Y-100441971D01*
X69287215Y-100441968D01*
X69287219Y-100441966D01*
X69431966Y-100297219D01*
X69431968Y-100297215D01*
X69431971Y-100297213D01*
X69490300Y-100216928D01*
X69552287Y-100131610D01*
X69645220Y-99949219D01*
X69669092Y-99875745D01*
X69708529Y-99818072D01*
X69772888Y-99790873D01*
X69841734Y-99802787D01*
X69893210Y-99850031D01*
X69904952Y-99875741D01*
X69920127Y-99922445D01*
X69998768Y-100076788D01*
X70100586Y-100216928D01*
X70223072Y-100339414D01*
X70363212Y-100441232D01*
X70517555Y-100519873D01*
X70682299Y-100573402D01*
X70853389Y-100600500D01*
X70853390Y-100600500D01*
X71026610Y-100600500D01*
X71026611Y-100600500D01*
X71197701Y-100573402D01*
X71362445Y-100519873D01*
X71516788Y-100441232D01*
X71656928Y-100339414D01*
X71779414Y-100216928D01*
X71881232Y-100076788D01*
X71959873Y-99922445D01*
X72013402Y-99757701D01*
X72040500Y-99586611D01*
X72040500Y-98413389D01*
X78999500Y-98413389D01*
X78999500Y-99586610D01*
X79025964Y-99753703D01*
X79026598Y-99757701D01*
X79080127Y-99922445D01*
X79158768Y-100076788D01*
X79260586Y-100216928D01*
X79383072Y-100339414D01*
X79523212Y-100441232D01*
X79677555Y-100519873D01*
X79842299Y-100573402D01*
X80013389Y-100600500D01*
X80013390Y-100600500D01*
X80186610Y-100600500D01*
X80186611Y-100600500D01*
X80357701Y-100573402D01*
X80522445Y-100519873D01*
X80676788Y-100441232D01*
X80816928Y-100339414D01*
X80939414Y-100216928D01*
X81041232Y-100076788D01*
X81119873Y-99922445D01*
X81151292Y-99825745D01*
X81190728Y-99768072D01*
X81255086Y-99740873D01*
X81323933Y-99752787D01*
X81375409Y-99800031D01*
X81387152Y-99825744D01*
X81394780Y-99849220D01*
X81487715Y-100031613D01*
X81608028Y-100197213D01*
X81752786Y-100341971D01*
X81889410Y-100441232D01*
X81918390Y-100462287D01*
X82031405Y-100519871D01*
X82100776Y-100555218D01*
X82100778Y-100555218D01*
X82100781Y-100555220D01*
X82205137Y-100589127D01*
X82295465Y-100618477D01*
X82396557Y-100634488D01*
X82497648Y-100650500D01*
X82497649Y-100650500D01*
X82702351Y-100650500D01*
X82702352Y-100650500D01*
X82904534Y-100618477D01*
X83099219Y-100555220D01*
X83281610Y-100462287D01*
X83374590Y-100394732D01*
X83447213Y-100341971D01*
X83447215Y-100341968D01*
X83447219Y-100341966D01*
X83591966Y-100197219D01*
X83591968Y-100197215D01*
X83591971Y-100197213D01*
X83644732Y-100124590D01*
X83712287Y-100031610D01*
X83805220Y-99849219D01*
X83868477Y-99654534D01*
X83900500Y-99452352D01*
X83900500Y-98916228D01*
X84249500Y-98916228D01*
X84249500Y-99083771D01*
X84282182Y-99248074D01*
X84282184Y-99248082D01*
X84346295Y-99402860D01*
X84439373Y-99542162D01*
X84557837Y-99660626D01*
X84650494Y-99722537D01*
X84697137Y-99753703D01*
X84697138Y-99753703D01*
X84697139Y-99753704D01*
X84732201Y-99768227D01*
X84851918Y-99817816D01*
X85009793Y-99849219D01*
X85016228Y-99850499D01*
X85016232Y-99850500D01*
X85016233Y-99850500D01*
X85183768Y-99850500D01*
X85183769Y-99850499D01*
X85348082Y-99817816D01*
X85502863Y-99753703D01*
X85642162Y-99660626D01*
X85760626Y-99542162D01*
X85853703Y-99402863D01*
X85917816Y-99248082D01*
X85950500Y-99083767D01*
X85950500Y-98916233D01*
X85917816Y-98751918D01*
X85853703Y-98597137D01*
X85760626Y-98457838D01*
X85760625Y-98457837D01*
X85760623Y-98457834D01*
X85750437Y-98447648D01*
X86299500Y-98447648D01*
X86299500Y-99552351D01*
X86331522Y-99754534D01*
X86394781Y-99949223D01*
X86487715Y-100131613D01*
X86608028Y-100297213D01*
X86752786Y-100441971D01*
X86907749Y-100554556D01*
X86918390Y-100562287D01*
X87028669Y-100618477D01*
X87100776Y-100655218D01*
X87100778Y-100655218D01*
X87100781Y-100655220D01*
X87205137Y-100689127D01*
X87295465Y-100718477D01*
X87396557Y-100734488D01*
X87497648Y-100750500D01*
X87497649Y-100750500D01*
X87702351Y-100750500D01*
X87702352Y-100750500D01*
X87904534Y-100718477D01*
X88099219Y-100655220D01*
X88281610Y-100562287D01*
X88374590Y-100494732D01*
X88447213Y-100441971D01*
X88447215Y-100441968D01*
X88447219Y-100441966D01*
X88591966Y-100297219D01*
X88591968Y-100297215D01*
X88591971Y-100297213D01*
X88650300Y-100216928D01*
X88712287Y-100131610D01*
X88805220Y-99949219D01*
X88829092Y-99875745D01*
X88868529Y-99818072D01*
X88932888Y-99790873D01*
X89001734Y-99802787D01*
X89053210Y-99850031D01*
X89064952Y-99875741D01*
X89080127Y-99922445D01*
X89158768Y-100076788D01*
X89260586Y-100216928D01*
X89383072Y-100339414D01*
X89523212Y-100441232D01*
X89677555Y-100519873D01*
X89842299Y-100573402D01*
X90013389Y-100600500D01*
X90013390Y-100600500D01*
X90186610Y-100600500D01*
X90186611Y-100600500D01*
X90357701Y-100573402D01*
X90522445Y-100519873D01*
X90676788Y-100441232D01*
X90816928Y-100339414D01*
X90939414Y-100216928D01*
X91041232Y-100076788D01*
X91119873Y-99922445D01*
X91173402Y-99757701D01*
X91200500Y-99586611D01*
X91200500Y-98413389D01*
X91173402Y-98242299D01*
X91119873Y-98077555D01*
X91041232Y-97923212D01*
X90939414Y-97783072D01*
X90816928Y-97660586D01*
X90676788Y-97558768D01*
X90522445Y-97480127D01*
X90357701Y-97426598D01*
X90357699Y-97426597D01*
X90357698Y-97426597D01*
X90226271Y-97405781D01*
X90186611Y-97399500D01*
X90013389Y-97399500D01*
X89973728Y-97405781D01*
X89842302Y-97426597D01*
X89677552Y-97480128D01*
X89523211Y-97558768D01*
X89488593Y-97583920D01*
X89383072Y-97660586D01*
X89383070Y-97660588D01*
X89383069Y-97660588D01*
X89260588Y-97783069D01*
X89260588Y-97783070D01*
X89260586Y-97783072D01*
X89246267Y-97802781D01*
X89158768Y-97923211D01*
X89080128Y-98077550D01*
X89064954Y-98124253D01*
X89025516Y-98181928D01*
X88961157Y-98209126D01*
X88892311Y-98197211D01*
X88840835Y-98149966D01*
X88829092Y-98124253D01*
X88805220Y-98050781D01*
X88712287Y-97868390D01*
X88704556Y-97857749D01*
X88591971Y-97702786D01*
X88447213Y-97558028D01*
X88281613Y-97437715D01*
X88281612Y-97437714D01*
X88281610Y-97437713D01*
X88224653Y-97408691D01*
X88099223Y-97344781D01*
X87904534Y-97281522D01*
X87729995Y-97253878D01*
X87702352Y-97249500D01*
X87497648Y-97249500D01*
X87473329Y-97253351D01*
X87295465Y-97281522D01*
X87100776Y-97344781D01*
X86918386Y-97437715D01*
X86752786Y-97558028D01*
X86608028Y-97702786D01*
X86487715Y-97868386D01*
X86394781Y-98050776D01*
X86331522Y-98245465D01*
X86299500Y-98447648D01*
X85750437Y-98447648D01*
X85642162Y-98339373D01*
X85502860Y-98246295D01*
X85348082Y-98182184D01*
X85348074Y-98182182D01*
X85183771Y-98149500D01*
X85183767Y-98149500D01*
X85016233Y-98149500D01*
X85016228Y-98149500D01*
X84851925Y-98182182D01*
X84851917Y-98182184D01*
X84697139Y-98246295D01*
X84557837Y-98339373D01*
X84439373Y-98457837D01*
X84346295Y-98597139D01*
X84282184Y-98751917D01*
X84282182Y-98751925D01*
X84249500Y-98916228D01*
X83900500Y-98916228D01*
X83900500Y-98547648D01*
X83868477Y-98345466D01*
X83866497Y-98339373D01*
X83805218Y-98150776D01*
X83767907Y-98077550D01*
X83712287Y-97968390D01*
X83679463Y-97923211D01*
X83591971Y-97802786D01*
X83447213Y-97658028D01*
X83281613Y-97537715D01*
X83281612Y-97537714D01*
X83281610Y-97537713D01*
X83224653Y-97508691D01*
X83099223Y-97444781D01*
X82904534Y-97381522D01*
X82729995Y-97353878D01*
X82702352Y-97349500D01*
X82497648Y-97349500D01*
X82473329Y-97353351D01*
X82295465Y-97381522D01*
X82100776Y-97444781D01*
X81918386Y-97537715D01*
X81752786Y-97658028D01*
X81608028Y-97802786D01*
X81487715Y-97968386D01*
X81394781Y-98150777D01*
X81387152Y-98174256D01*
X81347712Y-98231930D01*
X81283352Y-98259126D01*
X81214507Y-98247209D01*
X81163032Y-98199963D01*
X81151293Y-98174256D01*
X81119873Y-98077555D01*
X81041232Y-97923212D01*
X80939414Y-97783072D01*
X80816928Y-97660586D01*
X80676788Y-97558768D01*
X80522445Y-97480127D01*
X80357701Y-97426598D01*
X80357699Y-97426597D01*
X80357698Y-97426597D01*
X80226271Y-97405781D01*
X80186611Y-97399500D01*
X80013389Y-97399500D01*
X79973728Y-97405781D01*
X79842302Y-97426597D01*
X79677552Y-97480128D01*
X79523211Y-97558768D01*
X79488593Y-97583920D01*
X79383072Y-97660586D01*
X79383070Y-97660588D01*
X79383069Y-97660588D01*
X79260588Y-97783069D01*
X79260588Y-97783070D01*
X79260586Y-97783072D01*
X79246267Y-97802781D01*
X79158768Y-97923211D01*
X79080128Y-98077552D01*
X79026597Y-98242302D01*
X78999500Y-98413389D01*
X72040500Y-98413389D01*
X72013402Y-98242299D01*
X71959873Y-98077555D01*
X71881232Y-97923212D01*
X71779414Y-97783072D01*
X71656928Y-97660586D01*
X71516788Y-97558768D01*
X71362445Y-97480127D01*
X71197701Y-97426598D01*
X71197699Y-97426597D01*
X71197698Y-97426597D01*
X71066271Y-97405781D01*
X71026611Y-97399500D01*
X70853389Y-97399500D01*
X70813728Y-97405781D01*
X70682302Y-97426597D01*
X70517552Y-97480128D01*
X70363211Y-97558768D01*
X70328593Y-97583920D01*
X70223072Y-97660586D01*
X70223070Y-97660588D01*
X70223069Y-97660588D01*
X70100588Y-97783069D01*
X70100588Y-97783070D01*
X70100586Y-97783072D01*
X70086267Y-97802781D01*
X69998768Y-97923211D01*
X69920128Y-98077550D01*
X69904954Y-98124253D01*
X69865516Y-98181928D01*
X69801157Y-98209126D01*
X69732311Y-98197211D01*
X69680835Y-98149966D01*
X69669092Y-98124253D01*
X69645220Y-98050781D01*
X69552287Y-97868390D01*
X69544556Y-97857749D01*
X69431971Y-97702786D01*
X69287213Y-97558028D01*
X69121613Y-97437715D01*
X69121612Y-97437714D01*
X69121610Y-97437713D01*
X69064653Y-97408691D01*
X68939223Y-97344781D01*
X68744534Y-97281522D01*
X68569995Y-97253878D01*
X68542352Y-97249500D01*
X68337648Y-97249500D01*
X68313329Y-97253351D01*
X68135465Y-97281522D01*
X67940776Y-97344781D01*
X67758386Y-97437715D01*
X67592786Y-97558028D01*
X67448028Y-97702786D01*
X67327715Y-97868386D01*
X67234781Y-98050776D01*
X67171522Y-98245465D01*
X67139500Y-98447648D01*
X66590437Y-98447648D01*
X66482162Y-98339373D01*
X66342860Y-98246295D01*
X66188082Y-98182184D01*
X66188074Y-98182182D01*
X66023771Y-98149500D01*
X66023767Y-98149500D01*
X65856233Y-98149500D01*
X65856228Y-98149500D01*
X65691925Y-98182182D01*
X65691917Y-98182184D01*
X65537139Y-98246295D01*
X65397837Y-98339373D01*
X65279373Y-98457837D01*
X65186295Y-98597139D01*
X65122184Y-98751917D01*
X65122182Y-98751925D01*
X65089500Y-98916228D01*
X64740500Y-98916228D01*
X64740500Y-98547648D01*
X64708477Y-98345466D01*
X64706497Y-98339373D01*
X64645218Y-98150776D01*
X64607907Y-98077550D01*
X64552287Y-97968390D01*
X64519463Y-97923211D01*
X64431971Y-97802786D01*
X64287213Y-97658028D01*
X64121613Y-97537715D01*
X64121612Y-97537714D01*
X64121610Y-97537713D01*
X64064653Y-97508691D01*
X63939223Y-97444781D01*
X63744534Y-97381522D01*
X63569995Y-97353878D01*
X63542352Y-97349500D01*
X63337648Y-97349500D01*
X63313329Y-97353351D01*
X63135465Y-97381522D01*
X62940776Y-97444781D01*
X62758386Y-97537715D01*
X62592786Y-97658028D01*
X62448028Y-97802786D01*
X62327715Y-97968386D01*
X62234781Y-98150777D01*
X62227152Y-98174256D01*
X62187712Y-98231930D01*
X62123352Y-98259126D01*
X62054507Y-98247209D01*
X62003032Y-98199963D01*
X61991293Y-98174256D01*
X61959873Y-98077555D01*
X61881232Y-97923212D01*
X61779414Y-97783072D01*
X61656928Y-97660586D01*
X61516788Y-97558768D01*
X61362445Y-97480127D01*
X61197701Y-97426598D01*
X61197699Y-97426597D01*
X61197698Y-97426597D01*
X61066271Y-97405781D01*
X61026611Y-97399500D01*
X60853389Y-97399500D01*
X60813728Y-97405781D01*
X60682302Y-97426597D01*
X60517552Y-97480128D01*
X60363211Y-97558768D01*
X60328593Y-97583920D01*
X60223072Y-97660586D01*
X60223070Y-97660588D01*
X60223069Y-97660588D01*
X60100588Y-97783069D01*
X60100588Y-97783070D01*
X60100586Y-97783072D01*
X60086267Y-97802781D01*
X59998768Y-97923211D01*
X59920128Y-98077552D01*
X59866597Y-98242302D01*
X59839500Y-98413389D01*
X48550500Y-98413389D01*
X48550500Y-90933713D01*
X61989500Y-90933713D01*
X61989500Y-91146286D01*
X62012712Y-91292844D01*
X62022754Y-91356243D01*
X62082428Y-91539901D01*
X62088444Y-91558414D01*
X62184951Y-91747820D01*
X62309890Y-91919786D01*
X62423430Y-92033326D01*
X62456915Y-92094649D01*
X62451931Y-92164341D01*
X62410059Y-92220274D01*
X62379083Y-92237189D01*
X62247669Y-92286203D01*
X62247664Y-92286206D01*
X62132455Y-92372452D01*
X62132452Y-92372455D01*
X62046206Y-92487664D01*
X62046202Y-92487671D01*
X61995908Y-92622517D01*
X61989501Y-92682116D01*
X61989500Y-92682135D01*
X61989500Y-94477870D01*
X61989501Y-94477876D01*
X61995908Y-94537483D01*
X62046202Y-94672328D01*
X62046206Y-94672335D01*
X62132452Y-94787544D01*
X62132455Y-94787547D01*
X62247664Y-94873793D01*
X62247671Y-94873797D01*
X62382517Y-94924091D01*
X62382516Y-94924091D01*
X62389444Y-94924835D01*
X62442127Y-94930500D01*
X64237872Y-94930499D01*
X64297483Y-94924091D01*
X64432331Y-94873796D01*
X64547546Y-94787546D01*
X64633796Y-94672331D01*
X64683002Y-94540401D01*
X64724872Y-94484468D01*
X64790337Y-94460050D01*
X64858610Y-94474901D01*
X64886865Y-94496053D01*
X65000535Y-94609723D01*
X65000540Y-94609727D01*
X65172442Y-94734620D01*
X65361782Y-94831095D01*
X65563871Y-94896757D01*
X65630000Y-94907231D01*
X65630000Y-94013012D01*
X65687007Y-94045925D01*
X65814174Y-94080000D01*
X65945826Y-94080000D01*
X66072993Y-94045925D01*
X66130000Y-94013012D01*
X66130000Y-94907230D01*
X66196126Y-94896757D01*
X66196129Y-94896757D01*
X66398217Y-94831095D01*
X66587557Y-94734620D01*
X66759459Y-94609727D01*
X66759464Y-94609723D01*
X66909723Y-94459464D01*
X66909727Y-94459459D01*
X67034620Y-94287558D01*
X67039232Y-94278507D01*
X67087205Y-94227709D01*
X67155025Y-94210912D01*
X67221161Y-94233447D01*
X67260204Y-94278504D01*
X67264949Y-94287817D01*
X67389890Y-94459786D01*
X67540213Y-94610109D01*
X67712179Y-94735048D01*
X67712181Y-94735049D01*
X67712184Y-94735051D01*
X67901588Y-94831557D01*
X68103757Y-94897246D01*
X68313713Y-94930500D01*
X68313714Y-94930500D01*
X68526286Y-94930500D01*
X68526287Y-94930500D01*
X68736243Y-94897246D01*
X68938412Y-94831557D01*
X69127816Y-94735051D01*
X69179113Y-94697782D01*
X69299786Y-94610109D01*
X69299788Y-94610106D01*
X69299792Y-94610104D01*
X69450104Y-94459792D01*
X69450106Y-94459788D01*
X69450109Y-94459786D01*
X69575048Y-94287820D01*
X69575050Y-94287817D01*
X69575051Y-94287816D01*
X69671557Y-94098412D01*
X69737246Y-93896243D01*
X69770500Y-93686287D01*
X69770500Y-93473713D01*
X69737246Y-93263757D01*
X69671557Y-93061588D01*
X69575051Y-92872184D01*
X69575049Y-92872181D01*
X69575048Y-92872179D01*
X69450109Y-92700213D01*
X69299786Y-92549890D01*
X69127820Y-92424951D01*
X69127115Y-92424591D01*
X69119054Y-92420485D01*
X69068259Y-92372512D01*
X69051463Y-92304692D01*
X69073999Y-92238556D01*
X69119054Y-92199515D01*
X69127816Y-92195051D01*
X69170085Y-92164341D01*
X69299786Y-92070109D01*
X69299788Y-92070106D01*
X69299792Y-92070104D01*
X69450104Y-91919792D01*
X69450106Y-91919788D01*
X69450109Y-91919786D01*
X69575048Y-91747820D01*
X69575047Y-91747820D01*
X69575051Y-91747816D01*
X69671557Y-91558412D01*
X69737246Y-91356243D01*
X69770500Y-91146287D01*
X69770500Y-90933713D01*
X69737246Y-90723757D01*
X69671557Y-90521588D01*
X69575051Y-90332184D01*
X69575049Y-90332181D01*
X69575048Y-90332179D01*
X69450109Y-90160213D01*
X69299786Y-90009890D01*
X69127820Y-89884951D01*
X68938414Y-89788444D01*
X68938413Y-89788443D01*
X68938412Y-89788443D01*
X68736243Y-89722754D01*
X68736241Y-89722753D01*
X68736240Y-89722753D01*
X68574957Y-89697208D01*
X68526287Y-89689500D01*
X68313713Y-89689500D01*
X68265042Y-89697208D01*
X68103760Y-89722753D01*
X67901585Y-89788444D01*
X67712179Y-89884951D01*
X67540213Y-90009890D01*
X67389890Y-90160213D01*
X67264949Y-90332182D01*
X67260202Y-90341499D01*
X67212227Y-90392293D01*
X67144405Y-90409087D01*
X67078271Y-90386548D01*
X67039234Y-90341495D01*
X67034622Y-90332444D01*
X66909727Y-90160540D01*
X66909723Y-90160535D01*
X66759464Y-90010276D01*
X66759459Y-90010272D01*
X66587557Y-89885379D01*
X66398215Y-89788903D01*
X66196124Y-89723241D01*
X66130000Y-89712768D01*
X66130000Y-90606988D01*
X66072993Y-90574075D01*
X65945826Y-90540000D01*
X65814174Y-90540000D01*
X65687007Y-90574075D01*
X65630000Y-90606988D01*
X65630000Y-89712768D01*
X65629999Y-89712768D01*
X65563875Y-89723241D01*
X65361784Y-89788903D01*
X65172442Y-89885379D01*
X65000540Y-90010272D01*
X65000535Y-90010276D01*
X64850276Y-90160535D01*
X64850272Y-90160540D01*
X64725378Y-90332443D01*
X64720762Y-90341502D01*
X64672784Y-90392295D01*
X64604963Y-90409087D01*
X64538829Y-90386546D01*
X64499794Y-90341493D01*
X64495051Y-90332184D01*
X64495049Y-90332181D01*
X64495048Y-90332179D01*
X64370109Y-90160213D01*
X64219786Y-90009890D01*
X64047820Y-89884951D01*
X63858414Y-89788444D01*
X63858413Y-89788443D01*
X63858412Y-89788443D01*
X63656243Y-89722754D01*
X63656241Y-89722753D01*
X63656240Y-89722753D01*
X63494957Y-89697208D01*
X63446287Y-89689500D01*
X63233713Y-89689500D01*
X63185042Y-89697208D01*
X63023760Y-89722753D01*
X62821585Y-89788444D01*
X62632179Y-89884951D01*
X62460213Y-90009890D01*
X62309890Y-90160213D01*
X62184951Y-90332179D01*
X62088444Y-90521585D01*
X62022753Y-90723760D01*
X61989500Y-90933713D01*
X48550500Y-90933713D01*
X48550500Y-90005411D01*
X48550972Y-89994604D01*
X48560565Y-89884951D01*
X48563979Y-89845928D01*
X48567732Y-89824645D01*
X48568253Y-89822701D01*
X48604956Y-89685721D01*
X48612342Y-89665428D01*
X48673127Y-89535074D01*
X48683927Y-89516369D01*
X48766423Y-89398552D01*
X48780306Y-89382007D01*
X48882007Y-89280306D01*
X48898552Y-89266423D01*
X49016369Y-89183927D01*
X49035074Y-89173127D01*
X49165428Y-89112342D01*
X49185721Y-89104956D01*
X49324645Y-89067731D01*
X49345928Y-89063979D01*
X49494605Y-89050972D01*
X49505412Y-89050500D01*
X52591905Y-89050500D01*
X52591907Y-89050500D01*
X52772928Y-89018581D01*
X52945656Y-88955713D01*
X53104844Y-88863806D01*
X53245653Y-88745653D01*
X53363806Y-88604844D01*
X53455713Y-88445656D01*
X53518581Y-88272928D01*
X53550500Y-88091907D01*
X53550500Y-88000000D01*
X53550500Y-87983592D01*
X53550500Y-72979082D01*
X53550500Y-72908093D01*
X53518581Y-72727072D01*
X53455713Y-72554344D01*
X53363806Y-72395156D01*
X53363804Y-72395154D01*
X53363804Y-72395153D01*
X53323521Y-72347147D01*
X53245653Y-72254347D01*
X53154320Y-72177709D01*
X53104846Y-72136195D01*
X53104842Y-72136193D01*
X52945660Y-72044289D01*
X52945657Y-72044288D01*
X52945656Y-72044287D01*
X52875030Y-72018581D01*
X52772927Y-71981418D01*
X52591909Y-71949500D01*
X52591907Y-71949500D01*
X52520918Y-71949500D01*
X49505412Y-71949500D01*
X49494605Y-71949028D01*
X49477265Y-71947511D01*
X49345930Y-71936020D01*
X49324645Y-71932267D01*
X49185729Y-71895045D01*
X49165417Y-71887652D01*
X49035081Y-71826875D01*
X49016363Y-71816068D01*
X48898559Y-71733581D01*
X48882001Y-71719687D01*
X48780312Y-71617998D01*
X48766418Y-71601440D01*
X48683931Y-71483636D01*
X48673124Y-71464918D01*
X48664142Y-71445656D01*
X48612344Y-71334575D01*
X48604954Y-71314270D01*
X48567732Y-71175354D01*
X48563979Y-71154068D01*
X48557626Y-71081457D01*
X48550972Y-71005395D01*
X48550500Y-70994588D01*
X48550500Y-55825875D01*
X48899500Y-55825875D01*
X48899500Y-56174124D01*
X48938489Y-56520158D01*
X48938490Y-56520167D01*
X48938491Y-56520171D01*
X48952538Y-56581715D01*
X49015982Y-56859684D01*
X49015985Y-56859692D01*
X49130999Y-57188382D01*
X49282092Y-57502130D01*
X49467371Y-57796999D01*
X49467372Y-57797001D01*
X49684487Y-58069256D01*
X49930743Y-58315512D01*
X50202998Y-58532627D01*
X50203001Y-58532628D01*
X50203003Y-58532630D01*
X50492868Y-58714765D01*
X50497869Y-58717907D01*
X50580828Y-58757858D01*
X50811621Y-58869002D01*
X51058488Y-58955384D01*
X51140307Y-58984014D01*
X51140315Y-58984017D01*
X51140318Y-58984017D01*
X51140319Y-58984018D01*
X51479829Y-59061509D01*
X51825876Y-59100499D01*
X51825877Y-59100500D01*
X51825880Y-59100500D01*
X52174123Y-59100500D01*
X52174123Y-59100499D01*
X52520171Y-59061509D01*
X52859681Y-58984018D01*
X53188379Y-58869002D01*
X53502133Y-58717906D01*
X53796997Y-58532630D01*
X53797001Y-58532627D01*
X54069256Y-58315512D01*
X54069258Y-58315509D01*
X54069263Y-58315506D01*
X54315506Y-58069263D01*
X54428554Y-57927504D01*
X54452180Y-57910920D01*
X54473989Y-57892024D01*
X54480420Y-57891099D01*
X54485741Y-57887365D01*
X54514578Y-57886187D01*
X54543147Y-57882080D01*
X54549059Y-57884780D01*
X54555552Y-57884515D01*
X54580445Y-57899113D01*
X54606703Y-57911105D01*
X54610217Y-57916573D01*
X54615822Y-57919860D01*
X54628871Y-57945600D01*
X54644477Y-57969883D01*
X54645781Y-57978954D01*
X54647416Y-57982179D01*
X54649500Y-58004818D01*
X54649500Y-58249567D01*
X54629815Y-58316606D01*
X54628602Y-58318458D01*
X54563368Y-58416086D01*
X54487949Y-58598163D01*
X54487947Y-58598171D01*
X54449500Y-58791455D01*
X54449500Y-58988544D01*
X54487947Y-59181828D01*
X54487949Y-59181836D01*
X54563367Y-59363910D01*
X54563372Y-59363920D01*
X54672860Y-59527780D01*
X54672863Y-59527784D01*
X55008617Y-59863537D01*
X55317858Y-60172778D01*
X55317861Y-60172782D01*
X55457218Y-60312139D01*
X55457221Y-60312141D01*
X57069735Y-61924655D01*
X57069764Y-61924686D01*
X57216540Y-62071462D01*
X57216560Y-62071480D01*
X57232216Y-62087137D01*
X57232219Y-62087139D01*
X57396079Y-62196627D01*
X57396083Y-62196629D01*
X57396086Y-62196631D01*
X57578164Y-62272051D01*
X57769876Y-62310185D01*
X57771455Y-62310499D01*
X57771458Y-62310500D01*
X57771460Y-62310500D01*
X57968541Y-62310500D01*
X57968541Y-62310499D01*
X58057107Y-62292882D01*
X58081298Y-62290500D01*
X64504218Y-62290500D01*
X64571257Y-62310185D01*
X64591899Y-62326819D01*
X73823181Y-71558101D01*
X73856666Y-71619424D01*
X73859500Y-71645782D01*
X73859500Y-73858541D01*
X73859500Y-73858543D01*
X73859499Y-73858543D01*
X73897947Y-74051829D01*
X73897950Y-74051839D01*
X73973364Y-74233907D01*
X73973371Y-74233920D01*
X74082859Y-74397780D01*
X74082860Y-74397781D01*
X74082861Y-74397782D01*
X74222218Y-74537139D01*
X74222219Y-74537139D01*
X74229286Y-74544206D01*
X74229285Y-74544206D01*
X74229288Y-74544208D01*
X76052860Y-76367781D01*
X76052861Y-76367782D01*
X76181603Y-76496524D01*
X76192219Y-76507140D01*
X76356080Y-76616628D01*
X76356086Y-76616632D01*
X76356088Y-76616633D01*
X76356092Y-76616635D01*
X76447123Y-76654340D01*
X76447124Y-76654341D01*
X76511501Y-76681007D01*
X76538165Y-76692052D01*
X76699389Y-76724121D01*
X76731457Y-76730499D01*
X76731458Y-76730500D01*
X76731459Y-76730500D01*
X76731460Y-76730500D01*
X76928540Y-76730500D01*
X90218059Y-76730500D01*
X90285098Y-76750185D01*
X90330853Y-76802989D01*
X90340797Y-76872147D01*
X90311772Y-76935703D01*
X90305740Y-76942181D01*
X90218213Y-77029707D01*
X90218210Y-77029711D01*
X90130609Y-77160814D01*
X90130602Y-77160827D01*
X90070264Y-77306498D01*
X90070261Y-77306508D01*
X90048141Y-77417714D01*
X90039375Y-77434471D01*
X90035356Y-77452948D01*
X90016611Y-77477989D01*
X90015756Y-77479625D01*
X90014206Y-77481203D01*
X89871269Y-77624140D01*
X89871268Y-77624140D01*
X89871267Y-77624141D01*
X89871267Y-77624142D01*
X89827704Y-77667704D01*
X89784142Y-77711266D01*
X89760194Y-77747106D01*
X89760186Y-77747119D01*
X89757653Y-77750911D01*
X89715688Y-77813714D01*
X89700133Y-77851268D01*
X89697220Y-77858299D01*
X89697218Y-77858304D01*
X89668538Y-77927544D01*
X89668535Y-77927556D01*
X89644500Y-78048389D01*
X89644500Y-79040218D01*
X89638261Y-79061463D01*
X89636682Y-79083552D01*
X89628609Y-79094335D01*
X89624815Y-79107257D01*
X89608081Y-79121756D01*
X89594810Y-79139485D01*
X89582189Y-79144192D01*
X89572011Y-79153012D01*
X89550093Y-79156163D01*
X89529346Y-79163902D01*
X89516185Y-79161039D01*
X89502853Y-79162956D01*
X89482709Y-79153756D01*
X89461073Y-79149050D01*
X89443347Y-79135781D01*
X89439297Y-79133931D01*
X89432819Y-79127899D01*
X89341479Y-79036559D01*
X89341459Y-79036537D01*
X89197785Y-78892863D01*
X89197781Y-78892860D01*
X89033920Y-78783371D01*
X89033907Y-78783364D01*
X88906493Y-78730589D01*
X88899154Y-78727549D01*
X88851836Y-78707949D01*
X88747614Y-78687218D01*
X88743453Y-78686390D01*
X88743452Y-78686390D01*
X88658543Y-78669500D01*
X88658541Y-78669500D01*
X80818541Y-78669500D01*
X70995783Y-78669500D01*
X70928744Y-78649815D01*
X70908102Y-78633181D01*
X69396819Y-77121898D01*
X69363334Y-77060575D01*
X69360500Y-77034217D01*
X69360500Y-71761848D01*
X69362883Y-71737656D01*
X69366458Y-71719687D01*
X69388211Y-71610327D01*
X69400501Y-71548542D01*
X69400501Y-71351456D01*
X69400500Y-71351454D01*
X69384880Y-71272928D01*
X69362052Y-71158164D01*
X69286632Y-70976085D01*
X69286631Y-70976084D01*
X69286628Y-70976078D01*
X69177140Y-70812217D01*
X69037785Y-70672862D01*
X69037781Y-70672859D01*
X68873921Y-70563371D01*
X68873912Y-70563366D01*
X68691836Y-70487948D01*
X68691828Y-70487946D01*
X68498544Y-70449499D01*
X68498541Y-70449499D01*
X68301460Y-70449499D01*
X68301457Y-70449499D01*
X68108172Y-70487946D01*
X68108164Y-70487948D01*
X67926088Y-70563366D01*
X67926079Y-70563371D01*
X67762218Y-70672860D01*
X67762214Y-70672863D01*
X67729000Y-70706079D01*
X67722218Y-70712861D01*
X67652538Y-70782540D01*
X67582859Y-70852219D01*
X67473371Y-71016079D01*
X67473364Y-71016092D01*
X67397950Y-71198160D01*
X67397947Y-71198170D01*
X67359500Y-71391456D01*
X67359500Y-75991487D01*
X67357117Y-76015679D01*
X67350000Y-76051457D01*
X67350000Y-76248542D01*
X67357117Y-76284319D01*
X67359500Y-76308512D01*
X67359500Y-77598541D01*
X67364664Y-77624501D01*
X67397949Y-77791836D01*
X67416361Y-77836285D01*
X67419874Y-77844768D01*
X67419875Y-77844769D01*
X67473364Y-77973906D01*
X67473366Y-77973911D01*
X67473368Y-77973914D01*
X67582861Y-78137782D01*
X67722218Y-78277139D01*
X67722220Y-78277140D01*
X67729286Y-78284206D01*
X67729285Y-78284206D01*
X67729289Y-78284209D01*
X69077398Y-79632319D01*
X69110883Y-79693642D01*
X69105899Y-79763334D01*
X69064027Y-79819267D01*
X68998563Y-79843684D01*
X68989717Y-79844000D01*
X66764058Y-79844000D01*
X66734617Y-79835355D01*
X66704631Y-79828832D01*
X66699615Y-79825077D01*
X66697019Y-79824315D01*
X66676377Y-79807681D01*
X66593804Y-79725108D01*
X66593784Y-79725086D01*
X66502339Y-79633641D01*
X66447429Y-79596952D01*
X66447428Y-79596951D01*
X66441176Y-79592774D01*
X66399892Y-79565188D01*
X66319398Y-79531847D01*
X66286058Y-79518037D01*
X66286054Y-79518036D01*
X66286050Y-79518035D01*
X66195723Y-79500067D01*
X66195714Y-79500067D01*
X66165213Y-79494000D01*
X66165212Y-79494000D01*
X65252107Y-79494000D01*
X65128893Y-79494000D01*
X65113642Y-79497033D01*
X65098391Y-79500067D01*
X65098390Y-79500066D01*
X65008054Y-79518035D01*
X65008045Y-79518037D01*
X64982880Y-79528461D01*
X64974707Y-79531847D01*
X64894214Y-79565188D01*
X64876595Y-79576960D01*
X64867622Y-79581078D01*
X64858371Y-79582424D01*
X64840102Y-79589992D01*
X64686155Y-79620614D01*
X64686145Y-79620617D01*
X64540474Y-79680955D01*
X64540461Y-79680962D01*
X64409358Y-79768563D01*
X64409354Y-79768566D01*
X64297860Y-79880060D01*
X64297857Y-79880064D01*
X64210256Y-80011167D01*
X64210251Y-80011176D01*
X64178450Y-80087953D01*
X64134609Y-80142356D01*
X64068315Y-80164421D01*
X64063889Y-80164500D01*
X62976848Y-80164500D01*
X62909809Y-80144815D01*
X62889167Y-80128181D01*
X61515382Y-78754396D01*
X61481897Y-78693073D01*
X61486881Y-78623381D01*
X61488502Y-78619263D01*
X61544735Y-78483502D01*
X61544737Y-78483498D01*
X61575500Y-78328843D01*
X61575500Y-78171159D01*
X61575500Y-78171156D01*
X61575499Y-78171154D01*
X61544738Y-78016511D01*
X61544737Y-78016504D01*
X61527096Y-77973914D01*
X61484397Y-77870828D01*
X61484390Y-77870815D01*
X61396789Y-77739712D01*
X61396785Y-77739707D01*
X61339773Y-77682695D01*
X61335435Y-77674750D01*
X61328187Y-77669325D01*
X61318950Y-77644562D01*
X61306288Y-77621372D01*
X61306933Y-77612343D01*
X61303770Y-77603861D01*
X61309386Y-77578038D01*
X61311272Y-77551680D01*
X61317089Y-77542627D01*
X61318621Y-77535588D01*
X61339767Y-77507338D01*
X61402505Y-77444600D01*
X61463824Y-77411118D01*
X61465833Y-77410699D01*
X61577204Y-77388547D01*
X61722886Y-77328204D01*
X61853996Y-77240599D01*
X61965496Y-77129099D01*
X62053101Y-76997989D01*
X62113444Y-76852307D01*
X62144207Y-76697652D01*
X62144207Y-76539968D01*
X62144207Y-76539965D01*
X62144206Y-76539963D01*
X62113445Y-76385320D01*
X62113445Y-76385318D01*
X62113444Y-76385313D01*
X62113442Y-76385308D01*
X62053104Y-76239637D01*
X62053097Y-76239624D01*
X61965496Y-76108521D01*
X61965493Y-76108517D01*
X61853999Y-75997023D01*
X61853995Y-75997020D01*
X61722892Y-75909419D01*
X61722879Y-75909412D01*
X61577208Y-75849074D01*
X61577196Y-75849071D01*
X61422552Y-75818310D01*
X61422549Y-75818310D01*
X61264865Y-75818310D01*
X61264862Y-75818310D01*
X61110217Y-75849071D01*
X61110205Y-75849074D01*
X60964534Y-75909412D01*
X60964521Y-75909419D01*
X60833418Y-75997020D01*
X60833414Y-75997023D01*
X60721920Y-76108517D01*
X60721917Y-76108521D01*
X60634316Y-76239624D01*
X60634309Y-76239637D01*
X60573971Y-76385308D01*
X60573968Y-76385318D01*
X60551848Y-76496524D01*
X60519463Y-76558435D01*
X60517912Y-76560013D01*
X60079944Y-76997982D01*
X59751269Y-77326657D01*
X59751267Y-77326659D01*
X59707704Y-77370221D01*
X59664142Y-77413783D01*
X59640276Y-77449502D01*
X59640275Y-77449503D01*
X59595690Y-77516226D01*
X59595687Y-77516232D01*
X59570756Y-77576419D01*
X59570757Y-77576420D01*
X59550993Y-77624137D01*
X59550990Y-77624144D01*
X59548538Y-77630062D01*
X59526729Y-77739708D01*
X59524500Y-77750912D01*
X59524500Y-78971611D01*
X59548535Y-79092444D01*
X59548540Y-79092461D01*
X59595685Y-79206280D01*
X59595690Y-79206289D01*
X59609167Y-79226459D01*
X59629915Y-79257509D01*
X59664142Y-79308733D01*
X59751267Y-79395858D01*
X59751269Y-79395859D01*
X59761232Y-79405822D01*
X62081263Y-81725855D01*
X62081267Y-81725858D01*
X62183710Y-81794309D01*
X62183711Y-81794309D01*
X62183715Y-81794312D01*
X62250397Y-81821932D01*
X62297548Y-81841463D01*
X62317597Y-81845451D01*
X62382624Y-81858385D01*
X62418392Y-81865501D01*
X62418394Y-81865501D01*
X62547721Y-81865501D01*
X62547741Y-81865500D01*
X63939268Y-81865500D01*
X64006307Y-81885185D01*
X64026949Y-81901819D01*
X64343359Y-82218229D01*
X64343362Y-82218233D01*
X64430487Y-82305358D01*
X64475598Y-82335500D01*
X64532935Y-82373812D01*
X64582466Y-82394328D01*
X64646768Y-82420963D01*
X64659508Y-82423497D01*
X64767610Y-82444999D01*
X64767612Y-82445000D01*
X64767613Y-82445000D01*
X64767614Y-82445000D01*
X69427067Y-82445000D01*
X69451258Y-82447383D01*
X69567474Y-82470499D01*
X69567478Y-82470500D01*
X69567479Y-82470500D01*
X69567480Y-82470500D01*
X80970500Y-82470500D01*
X81037539Y-82490185D01*
X81083294Y-82542989D01*
X81094500Y-82594500D01*
X81094500Y-85121611D01*
X81118535Y-85242444D01*
X81118540Y-85242461D01*
X81165685Y-85356281D01*
X81165687Y-85356284D01*
X81165688Y-85356286D01*
X81195571Y-85401007D01*
X81234142Y-85458733D01*
X81307848Y-85532439D01*
X81311175Y-85536370D01*
X81323314Y-85563791D01*
X81337690Y-85590118D01*
X81338141Y-85592286D01*
X81360261Y-85703489D01*
X81360264Y-85703501D01*
X81420602Y-85849172D01*
X81420609Y-85849185D01*
X81508210Y-85980288D01*
X81508213Y-85980292D01*
X81619707Y-86091786D01*
X81619711Y-86091789D01*
X81750814Y-86179390D01*
X81750827Y-86179397D01*
X81896498Y-86239735D01*
X81896503Y-86239737D01*
X82051153Y-86270499D01*
X82051156Y-86270500D01*
X82051158Y-86270500D01*
X82208844Y-86270500D01*
X82208845Y-86270499D01*
X82363497Y-86239737D01*
X82509179Y-86179394D01*
X82640289Y-86091789D01*
X82751789Y-85980289D01*
X82839394Y-85849179D01*
X82899737Y-85703497D01*
X82930500Y-85548842D01*
X82930500Y-85391158D01*
X82930500Y-85391155D01*
X82930499Y-85391153D01*
X82900920Y-85242451D01*
X82899737Y-85236503D01*
X82852146Y-85121607D01*
X82839397Y-85090827D01*
X82839390Y-85090814D01*
X82751789Y-84959711D01*
X82751786Y-84959707D01*
X82640292Y-84848213D01*
X82640288Y-84848210D01*
X82509185Y-84760609D01*
X82509172Y-84760602D01*
X82422048Y-84724515D01*
X82367644Y-84680674D01*
X82345579Y-84614380D01*
X82345500Y-84609954D01*
X82345500Y-83520686D01*
X82365185Y-83453647D01*
X82417989Y-83407892D01*
X82487147Y-83397948D01*
X82493677Y-83399066D01*
X82532794Y-83406847D01*
X82551157Y-83410500D01*
X82551158Y-83410500D01*
X82708844Y-83410500D01*
X82708845Y-83410499D01*
X82863497Y-83379737D01*
X83009179Y-83319394D01*
X83140289Y-83231789D01*
X83251789Y-83120289D01*
X83339394Y-82989179D01*
X83399737Y-82843497D01*
X83430500Y-82688842D01*
X83430500Y-82531158D01*
X83430500Y-82531155D01*
X83430499Y-82531153D01*
X83409447Y-82425318D01*
X83399737Y-82376503D01*
X83339394Y-82230821D01*
X83276397Y-82136539D01*
X83255520Y-82069863D01*
X83255500Y-82067650D01*
X83255500Y-81694500D01*
X83275185Y-81627461D01*
X83327989Y-81581706D01*
X83379500Y-81570500D01*
X85804548Y-81570500D01*
X85871587Y-81590185D01*
X85892229Y-81606819D01*
X86871016Y-82585606D01*
X86871045Y-82585637D01*
X86961264Y-82675856D01*
X86961267Y-82675858D01*
X86997831Y-82700289D01*
X87063715Y-82744312D01*
X87130397Y-82771932D01*
X87177548Y-82791463D01*
X87237971Y-82803481D01*
X87298393Y-82815500D01*
X87298394Y-82815500D01*
X87697650Y-82815500D01*
X87764689Y-82835185D01*
X87766541Y-82836398D01*
X87860821Y-82899394D01*
X87860823Y-82899395D01*
X87860827Y-82899397D01*
X88006498Y-82959735D01*
X88006503Y-82959737D01*
X88154482Y-82989172D01*
X88161153Y-82990499D01*
X88161156Y-82990500D01*
X88324934Y-82990500D01*
X88324934Y-82993249D01*
X88381943Y-83004035D01*
X88432675Y-83052077D01*
X88449500Y-83114444D01*
X88449500Y-94158544D01*
X88487947Y-94351833D01*
X88487949Y-94351837D01*
X88510038Y-94405164D01*
X88563366Y-94533911D01*
X88563371Y-94533920D01*
X88672859Y-94697780D01*
X88672860Y-94697781D01*
X88672861Y-94697782D01*
X88812218Y-94837139D01*
X88812219Y-94837139D01*
X88819286Y-94844206D01*
X88819285Y-94844206D01*
X88819288Y-94844208D01*
X91722860Y-97747781D01*
X91722861Y-97747782D01*
X91843465Y-97868386D01*
X91862219Y-97887140D01*
X91916205Y-97923212D01*
X92026086Y-97996632D01*
X92132745Y-98040811D01*
X92208164Y-98072051D01*
X92401454Y-98110499D01*
X92401457Y-98110500D01*
X92401459Y-98110500D01*
X92598543Y-98110500D01*
X92728582Y-98084632D01*
X92791835Y-98072051D01*
X92973914Y-97996632D01*
X93137782Y-97887139D01*
X93277139Y-97747782D01*
X93386632Y-97583914D01*
X93462051Y-97401835D01*
X93500500Y-97208541D01*
X93500500Y-96971459D01*
X93500500Y-96971456D01*
X93462052Y-96778170D01*
X93462051Y-96778169D01*
X93462051Y-96778165D01*
X93462049Y-96778160D01*
X93386635Y-96596092D01*
X93386628Y-96596079D01*
X93277139Y-96432218D01*
X93277136Y-96432214D01*
X93137785Y-96292863D01*
X93137781Y-96292860D01*
X93027387Y-96219097D01*
X93008597Y-96203676D01*
X91724831Y-94919910D01*
X91691346Y-94858587D01*
X91696330Y-94788895D01*
X91738202Y-94732962D01*
X91765057Y-94717669D01*
X91809179Y-94699394D01*
X91940289Y-94611789D01*
X92051789Y-94500289D01*
X92139394Y-94369179D01*
X92199737Y-94223497D01*
X92230500Y-94068842D01*
X92230500Y-93911158D01*
X92227883Y-93898001D01*
X92225500Y-93873810D01*
X92225500Y-93844092D01*
X92245185Y-93777053D01*
X92297989Y-93731298D01*
X92367147Y-93721354D01*
X92423812Y-93744826D01*
X92457910Y-93770352D01*
X92457913Y-93770354D01*
X92592620Y-93820596D01*
X92592627Y-93820598D01*
X92652155Y-93826999D01*
X92652172Y-93827000D01*
X94000000Y-93827000D01*
X94000000Y-93247118D01*
X94500000Y-93247118D01*
X94500000Y-93827000D01*
X95847828Y-93827000D01*
X95847844Y-93826999D01*
X95907372Y-93820598D01*
X95907378Y-93820597D01*
X95931168Y-93811723D01*
X95931168Y-93811722D01*
X95166609Y-93047163D01*
X95400000Y-93047163D01*
X95400000Y-93106837D01*
X95422836Y-93161968D01*
X95465032Y-93204164D01*
X95520163Y-93227000D01*
X95579837Y-93227000D01*
X95634968Y-93204164D01*
X95677164Y-93161968D01*
X95700000Y-93106837D01*
X95700000Y-93047163D01*
X95677164Y-92992032D01*
X95634968Y-92949836D01*
X95579837Y-92927000D01*
X95520163Y-92927000D01*
X95465032Y-92949836D01*
X95422836Y-92992032D01*
X95400000Y-93047163D01*
X95166609Y-93047163D01*
X95116665Y-92997219D01*
X95104523Y-93009364D01*
X95104520Y-93009367D01*
X94947792Y-93166096D01*
X94886468Y-93199581D01*
X94816777Y-93194597D01*
X94793090Y-93179374D01*
X94810497Y-93161968D01*
X94833333Y-93106837D01*
X94833333Y-93047163D01*
X94810497Y-92992032D01*
X94768301Y-92949836D01*
X94713170Y-92927000D01*
X94653496Y-92927000D01*
X94598365Y-92949836D01*
X94556169Y-92992032D01*
X94533333Y-93047163D01*
X94533333Y-93106837D01*
X94556169Y-93161968D01*
X94577266Y-93183065D01*
X94539824Y-93220508D01*
X94500000Y-93247118D01*
X94000000Y-93247118D01*
X93960175Y-93220508D01*
X93922733Y-93183066D01*
X93943831Y-93161968D01*
X93966667Y-93106837D01*
X93966667Y-93047163D01*
X93943831Y-92992032D01*
X93901635Y-92949836D01*
X93846504Y-92927000D01*
X93786830Y-92927000D01*
X93731699Y-92949836D01*
X93689503Y-92992032D01*
X93666667Y-93047163D01*
X93666667Y-93106837D01*
X93689503Y-93161968D01*
X93705618Y-93178083D01*
X93666248Y-93199581D01*
X93596556Y-93194597D01*
X93552209Y-93166096D01*
X93383332Y-92997219D01*
X93371190Y-93009364D01*
X93371187Y-93009367D01*
X93214459Y-93166096D01*
X93153135Y-93199581D01*
X93083444Y-93194597D01*
X93059757Y-93179374D01*
X93077164Y-93161968D01*
X93100000Y-93106837D01*
X93100000Y-93047163D01*
X93077164Y-92992032D01*
X93034968Y-92949836D01*
X92979837Y-92927000D01*
X92920163Y-92927000D01*
X92865032Y-92949836D01*
X92848916Y-92965951D01*
X92827418Y-92926580D01*
X92832402Y-92856888D01*
X92860903Y-92812541D01*
X93029778Y-92643666D01*
X93736887Y-92643666D01*
X93816667Y-92723446D01*
X93884300Y-92655811D01*
X93885099Y-92655011D01*
X93882252Y-92643663D01*
X94603553Y-92643663D01*
X94603553Y-92643666D01*
X94683333Y-92723445D01*
X94763112Y-92643665D01*
X94683334Y-92563887D01*
X94627728Y-92619492D01*
X94627725Y-92619495D01*
X94615427Y-92631792D01*
X94615424Y-92631793D01*
X94603553Y-92643663D01*
X93882252Y-92643663D01*
X93877498Y-92624718D01*
X93816667Y-92563887D01*
X93736887Y-92643666D01*
X93029778Y-92643666D01*
X93029779Y-92643665D01*
X92860904Y-92474790D01*
X92827419Y-92413467D01*
X92832403Y-92343775D01*
X92847624Y-92320089D01*
X92865032Y-92337497D01*
X92920163Y-92360333D01*
X92979837Y-92360333D01*
X93034968Y-92337497D01*
X93077164Y-92295301D01*
X93100000Y-92240170D01*
X93100000Y-92210332D01*
X93303554Y-92210332D01*
X93371190Y-92277968D01*
X93371191Y-92277970D01*
X93383332Y-92290111D01*
X93395478Y-92277967D01*
X93458960Y-92214485D01*
X93417262Y-92180496D01*
X93666667Y-92180496D01*
X93666667Y-92240170D01*
X93689503Y-92295301D01*
X93731699Y-92337497D01*
X93786830Y-92360333D01*
X93846504Y-92360333D01*
X93901635Y-92337497D01*
X93943831Y-92295301D01*
X93966667Y-92240170D01*
X93966667Y-92180496D01*
X94533333Y-92180496D01*
X94533333Y-92240170D01*
X94556169Y-92295301D01*
X94598365Y-92337497D01*
X94653496Y-92360333D01*
X94713170Y-92360333D01*
X94768301Y-92337497D01*
X94810497Y-92295301D01*
X94833333Y-92240170D01*
X94833333Y-92183295D01*
X95063923Y-92183295D01*
X95117320Y-92289456D01*
X95128811Y-92277967D01*
X95196446Y-92210333D01*
X95166609Y-92180496D01*
X95400000Y-92180496D01*
X95400000Y-92240170D01*
X95422836Y-92295301D01*
X95465032Y-92337497D01*
X95520163Y-92360333D01*
X95579837Y-92360333D01*
X95634968Y-92337497D01*
X95651082Y-92321382D01*
X95672580Y-92360751D01*
X95667596Y-92430443D01*
X95639095Y-92474790D01*
X95470220Y-92643665D01*
X95470220Y-92643666D01*
X96284722Y-93458168D01*
X96284723Y-93458168D01*
X96293597Y-93434378D01*
X96293598Y-93434372D01*
X96299999Y-93374844D01*
X96300000Y-93374827D01*
X96300000Y-92027000D01*
X95720118Y-92027000D01*
X95693508Y-92066824D01*
X95656065Y-92104266D01*
X95634968Y-92083169D01*
X95579837Y-92060333D01*
X95520163Y-92060333D01*
X95465032Y-92083169D01*
X95422836Y-92125365D01*
X95400000Y-92180496D01*
X95166609Y-92180496D01*
X95128809Y-92142696D01*
X95087346Y-92159871D01*
X95063923Y-92183295D01*
X94833333Y-92183295D01*
X94833333Y-92180496D01*
X94810497Y-92125365D01*
X94768301Y-92083169D01*
X94713170Y-92060333D01*
X94653496Y-92060333D01*
X94598365Y-92083169D01*
X94556169Y-92125365D01*
X94533333Y-92180496D01*
X93966667Y-92180496D01*
X93943831Y-92125365D01*
X93901635Y-92083169D01*
X93846504Y-92060333D01*
X93786830Y-92060333D01*
X93731699Y-92083169D01*
X93689503Y-92125365D01*
X93666667Y-92180496D01*
X93417262Y-92180496D01*
X93371054Y-92142830D01*
X93359159Y-92154726D01*
X93303554Y-92210332D01*
X93100000Y-92210332D01*
X93100000Y-92180496D01*
X93077164Y-92125365D01*
X93034968Y-92083169D01*
X92979837Y-92060333D01*
X92920163Y-92060333D01*
X92865032Y-92083169D01*
X92848916Y-92099284D01*
X92827419Y-92059914D01*
X92832403Y-91990222D01*
X92860904Y-91945875D01*
X93029779Y-91777000D01*
X93736888Y-91777000D01*
X93816667Y-91856779D01*
X93896446Y-91777000D01*
X93816667Y-91697221D01*
X93736888Y-91777000D01*
X93029779Y-91777000D01*
X92860904Y-91608125D01*
X92827419Y-91546802D01*
X92832403Y-91477110D01*
X92847625Y-91453424D01*
X92865032Y-91470831D01*
X92920163Y-91493667D01*
X92979837Y-91493667D01*
X93034968Y-91470831D01*
X93077164Y-91428635D01*
X93100000Y-91373504D01*
X93100000Y-91343667D01*
X93303554Y-91343667D01*
X93383331Y-91423444D01*
X93395478Y-91411300D01*
X93463113Y-91343667D01*
X93433276Y-91313830D01*
X93666667Y-91313830D01*
X93666667Y-91373504D01*
X93689503Y-91428635D01*
X93731699Y-91470831D01*
X93786830Y-91493667D01*
X93846504Y-91493667D01*
X93901635Y-91470831D01*
X93943831Y-91428635D01*
X93966667Y-91373504D01*
X93966667Y-91313830D01*
X94533333Y-91313830D01*
X94533333Y-91373504D01*
X94556169Y-91428635D01*
X94598365Y-91470831D01*
X94653496Y-91493667D01*
X94713170Y-91493667D01*
X94768301Y-91470831D01*
X94810497Y-91428635D01*
X94833333Y-91373504D01*
X94833333Y-91343667D01*
X95036887Y-91343667D01*
X95116664Y-91423444D01*
X95128811Y-91411300D01*
X95196446Y-91343667D01*
X95166609Y-91313830D01*
X95400000Y-91313830D01*
X95400000Y-91373504D01*
X95422836Y-91428635D01*
X95465032Y-91470831D01*
X95520163Y-91493667D01*
X95579837Y-91493667D01*
X95634968Y-91470831D01*
X95656066Y-91449733D01*
X95693508Y-91487175D01*
X95720119Y-91527000D01*
X96300000Y-91527000D01*
X96300000Y-90179172D01*
X96299999Y-90179155D01*
X96293598Y-90119624D01*
X96284723Y-90095829D01*
X95726777Y-90653777D01*
X95726777Y-90653778D01*
X95470220Y-90910333D01*
X95639096Y-91079209D01*
X95672581Y-91140532D01*
X95667597Y-91210224D01*
X95652374Y-91233909D01*
X95634968Y-91216503D01*
X95579837Y-91193667D01*
X95520163Y-91193667D01*
X95465032Y-91216503D01*
X95422836Y-91258699D01*
X95400000Y-91313830D01*
X95166609Y-91313830D01*
X95116665Y-91263886D01*
X95104523Y-91276031D01*
X95036887Y-91343667D01*
X94833333Y-91343667D01*
X94833333Y-91313830D01*
X94810497Y-91258699D01*
X94768301Y-91216503D01*
X94713170Y-91193667D01*
X94653496Y-91193667D01*
X94598365Y-91216503D01*
X94556169Y-91258699D01*
X94533333Y-91313830D01*
X93966667Y-91313830D01*
X93943831Y-91258699D01*
X93901635Y-91216503D01*
X93846504Y-91193667D01*
X93786830Y-91193667D01*
X93731699Y-91216503D01*
X93689503Y-91258699D01*
X93666667Y-91313830D01*
X93433276Y-91313830D01*
X93383332Y-91263886D01*
X93371190Y-91276031D01*
X93303554Y-91343667D01*
X93100000Y-91343667D01*
X93100000Y-91313830D01*
X93077164Y-91258699D01*
X93034968Y-91216503D01*
X92979837Y-91193667D01*
X92920163Y-91193667D01*
X92865032Y-91216503D01*
X92848916Y-91232618D01*
X92827418Y-91193247D01*
X92832402Y-91123555D01*
X92860903Y-91079208D01*
X93029778Y-90910333D01*
X93736887Y-90910333D01*
X93816667Y-90990113D01*
X93884300Y-90922478D01*
X93885099Y-90921678D01*
X93882252Y-90910330D01*
X94603553Y-90910330D01*
X94603553Y-90910333D01*
X94683333Y-90990112D01*
X94763112Y-90910332D01*
X94683334Y-90830554D01*
X94627728Y-90886159D01*
X94627725Y-90886162D01*
X94615427Y-90898459D01*
X94615424Y-90898460D01*
X94603553Y-90910330D01*
X93882252Y-90910330D01*
X93877498Y-90891385D01*
X93816667Y-90830554D01*
X93736887Y-90910333D01*
X93029778Y-90910333D01*
X93029779Y-90910332D01*
X92860904Y-90741457D01*
X92827419Y-90680134D01*
X92832403Y-90610442D01*
X92847624Y-90586756D01*
X92865032Y-90604164D01*
X92920163Y-90627000D01*
X92979837Y-90627000D01*
X93034968Y-90604164D01*
X93077164Y-90561968D01*
X93100000Y-90506837D01*
X93100000Y-90447163D01*
X93077164Y-90392032D01*
X93059009Y-90373877D01*
X93077226Y-90367083D01*
X93100419Y-90354419D01*
X93109448Y-90355064D01*
X93117931Y-90351901D01*
X93143751Y-90357517D01*
X93170111Y-90359403D01*
X93179164Y-90365221D01*
X93186204Y-90366753D01*
X93214458Y-90387904D01*
X93383332Y-90556778D01*
X93395478Y-90544634D01*
X93552209Y-90387904D01*
X93613532Y-90354419D01*
X93683224Y-90359403D01*
X93706909Y-90374625D01*
X93689503Y-90392032D01*
X93666667Y-90447163D01*
X93666667Y-90506837D01*
X93689503Y-90561968D01*
X93731699Y-90604164D01*
X93786830Y-90627000D01*
X93846504Y-90627000D01*
X93901635Y-90604164D01*
X93943831Y-90561968D01*
X93966667Y-90506837D01*
X93966667Y-90447163D01*
X93943831Y-90392032D01*
X93922732Y-90370933D01*
X93960175Y-90333491D01*
X93999997Y-90306881D01*
X94500000Y-90306881D01*
X94539824Y-90333491D01*
X94577267Y-90370934D01*
X94556169Y-90392032D01*
X94533333Y-90447163D01*
X94533333Y-90506837D01*
X94556169Y-90561968D01*
X94598365Y-90604164D01*
X94653496Y-90627000D01*
X94713170Y-90627000D01*
X94768301Y-90604164D01*
X94810497Y-90561968D01*
X94833333Y-90506837D01*
X94833333Y-90447163D01*
X94810497Y-90392032D01*
X94792342Y-90373877D01*
X94810559Y-90367083D01*
X94833752Y-90354419D01*
X94842781Y-90355064D01*
X94851264Y-90351901D01*
X94877084Y-90357517D01*
X94903444Y-90359403D01*
X94912497Y-90365221D01*
X94919537Y-90366753D01*
X94947791Y-90387904D01*
X95116665Y-90556778D01*
X95128811Y-90544634D01*
X95226282Y-90447163D01*
X95400000Y-90447163D01*
X95400000Y-90506837D01*
X95422836Y-90561968D01*
X95465032Y-90604164D01*
X95520163Y-90627000D01*
X95579837Y-90627000D01*
X95634968Y-90604164D01*
X95677164Y-90561968D01*
X95700000Y-90506837D01*
X95700000Y-90447163D01*
X95677164Y-90392032D01*
X95634968Y-90349836D01*
X95579837Y-90327000D01*
X95520163Y-90327000D01*
X95465032Y-90349836D01*
X95422836Y-90392032D01*
X95400000Y-90447163D01*
X95226282Y-90447163D01*
X95373223Y-90300223D01*
X95931169Y-89742276D01*
X95931168Y-89742275D01*
X95907382Y-89733403D01*
X95907372Y-89733401D01*
X95847844Y-89727000D01*
X94500000Y-89727000D01*
X94500000Y-90306881D01*
X93999997Y-90306881D01*
X94000000Y-90306879D01*
X94000000Y-89727000D01*
X92652155Y-89727000D01*
X92592627Y-89733401D01*
X92592620Y-89733403D01*
X92457913Y-89783645D01*
X92457910Y-89783647D01*
X92423811Y-89809174D01*
X92411188Y-89813881D01*
X92401011Y-89822701D01*
X92379094Y-89825852D01*
X92358346Y-89833591D01*
X92345185Y-89830728D01*
X92331853Y-89832645D01*
X92311709Y-89823445D01*
X92290073Y-89818739D01*
X92280549Y-89809215D01*
X92268297Y-89803620D01*
X92256324Y-89784990D01*
X92240668Y-89769334D01*
X92236981Y-89754892D01*
X92230523Y-89744842D01*
X92225500Y-89709907D01*
X92225500Y-89501081D01*
X92245185Y-89434042D01*
X92280606Y-89397981D01*
X92411671Y-89310407D01*
X92523171Y-89198907D01*
X92610776Y-89067797D01*
X92612358Y-89063979D01*
X92657202Y-88955713D01*
X92671119Y-88922115D01*
X92701882Y-88767460D01*
X92701882Y-88609776D01*
X92701882Y-88609773D01*
X92684621Y-88522998D01*
X92684621Y-88522997D01*
X92680471Y-88502135D01*
X106299500Y-88502135D01*
X106299500Y-90297870D01*
X106299501Y-90297876D01*
X106305908Y-90357483D01*
X106356202Y-90492328D01*
X106356206Y-90492335D01*
X106442452Y-90607544D01*
X106442455Y-90607547D01*
X106557664Y-90693793D01*
X106557671Y-90693797D01*
X106557674Y-90693798D01*
X106689598Y-90743002D01*
X106745531Y-90784873D01*
X106769949Y-90850337D01*
X106755098Y-90918610D01*
X106733947Y-90946865D01*
X106620271Y-91060541D01*
X106495379Y-91232442D01*
X106398904Y-91421782D01*
X106333242Y-91623870D01*
X106333242Y-91623873D01*
X106322769Y-91690000D01*
X107216988Y-91690000D01*
X107184075Y-91747007D01*
X107150000Y-91874174D01*
X107150000Y-92005826D01*
X107184075Y-92132993D01*
X107216988Y-92190000D01*
X106322769Y-92190000D01*
X106333242Y-92256126D01*
X106333242Y-92256129D01*
X106398904Y-92458217D01*
X106495379Y-92647557D01*
X106620272Y-92819459D01*
X106620276Y-92819464D01*
X106770535Y-92969723D01*
X106770540Y-92969727D01*
X106942444Y-93094622D01*
X106951495Y-93099234D01*
X107002292Y-93147208D01*
X107019087Y-93215029D01*
X106996550Y-93281164D01*
X106951499Y-93320202D01*
X106942182Y-93324949D01*
X106770213Y-93449890D01*
X106619890Y-93600213D01*
X106494951Y-93772179D01*
X106398444Y-93961585D01*
X106332753Y-94163760D01*
X106299500Y-94373713D01*
X106299500Y-94586286D01*
X106331376Y-94787547D01*
X106332754Y-94796243D01*
X106376376Y-94930498D01*
X106398444Y-94998414D01*
X106494951Y-95187820D01*
X106619890Y-95359786D01*
X106770213Y-95510109D01*
X106942179Y-95635048D01*
X106942181Y-95635049D01*
X106942184Y-95635051D01*
X107131588Y-95731557D01*
X107333757Y-95797246D01*
X107543713Y-95830500D01*
X107543714Y-95830500D01*
X107756286Y-95830500D01*
X107756287Y-95830500D01*
X107966243Y-95797246D01*
X108168412Y-95731557D01*
X108357816Y-95635051D01*
X108379789Y-95619086D01*
X108529786Y-95510109D01*
X108529788Y-95510106D01*
X108529792Y-95510104D01*
X108680104Y-95359792D01*
X108680106Y-95359788D01*
X108680109Y-95359786D01*
X108805048Y-95187820D01*
X108805047Y-95187820D01*
X108805051Y-95187816D01*
X108809514Y-95179054D01*
X108857488Y-95128259D01*
X108925308Y-95111463D01*
X108991444Y-95133999D01*
X109030486Y-95179056D01*
X109034951Y-95187820D01*
X109159890Y-95359786D01*
X109310213Y-95510109D01*
X109482179Y-95635048D01*
X109482181Y-95635049D01*
X109482184Y-95635051D01*
X109671588Y-95731557D01*
X109873757Y-95797246D01*
X110083713Y-95830500D01*
X110083714Y-95830500D01*
X110296286Y-95830500D01*
X110296287Y-95830500D01*
X110506243Y-95797246D01*
X110708412Y-95731557D01*
X110897816Y-95635051D01*
X110919789Y-95619086D01*
X111069786Y-95510109D01*
X111069788Y-95510106D01*
X111069792Y-95510104D01*
X111220104Y-95359792D01*
X111220106Y-95359788D01*
X111220109Y-95359786D01*
X111345048Y-95187820D01*
X111345047Y-95187820D01*
X111345051Y-95187816D01*
X111441557Y-94998412D01*
X111507246Y-94796243D01*
X111540500Y-94586287D01*
X111540500Y-94373713D01*
X111507246Y-94163757D01*
X111441557Y-93961588D01*
X111345051Y-93772184D01*
X111345049Y-93772181D01*
X111345048Y-93772179D01*
X111220109Y-93600213D01*
X111069786Y-93449890D01*
X110897817Y-93324949D01*
X110888504Y-93320204D01*
X110837707Y-93272230D01*
X110820912Y-93204409D01*
X110843449Y-93138274D01*
X110888507Y-93099232D01*
X110897558Y-93094620D01*
X111069459Y-92969727D01*
X111069464Y-92969723D01*
X111219723Y-92819464D01*
X111219727Y-92819459D01*
X111344620Y-92647557D01*
X111441095Y-92458217D01*
X111506757Y-92256129D01*
X111506757Y-92256126D01*
X111517231Y-92190000D01*
X110623012Y-92190000D01*
X110655925Y-92132993D01*
X110690000Y-92005826D01*
X110690000Y-91874174D01*
X110655925Y-91747007D01*
X110623012Y-91690000D01*
X111517231Y-91690000D01*
X111506757Y-91623873D01*
X111506757Y-91623870D01*
X111441095Y-91421782D01*
X111344620Y-91232442D01*
X111219727Y-91060540D01*
X111219723Y-91060535D01*
X111069464Y-90910276D01*
X111069459Y-90910272D01*
X110897555Y-90785377D01*
X110888500Y-90780763D01*
X110837706Y-90732788D01*
X110820912Y-90664966D01*
X110843451Y-90598832D01*
X110888508Y-90559793D01*
X110897816Y-90555051D01*
X111005246Y-90476999D01*
X111069786Y-90430109D01*
X111069788Y-90430106D01*
X111069792Y-90430104D01*
X111220104Y-90279792D01*
X111220106Y-90279788D01*
X111220109Y-90279786D01*
X111345048Y-90107820D01*
X111345047Y-90107820D01*
X111345051Y-90107816D01*
X111441557Y-89918412D01*
X111507246Y-89716243D01*
X111540500Y-89506287D01*
X111540500Y-89293713D01*
X111507246Y-89083757D01*
X111441557Y-88881588D01*
X111345051Y-88692184D01*
X111345049Y-88692181D01*
X111345048Y-88692179D01*
X111220109Y-88520213D01*
X111069786Y-88369890D01*
X110897820Y-88244951D01*
X110708414Y-88148444D01*
X110708413Y-88148443D01*
X110708412Y-88148443D01*
X110506243Y-88082754D01*
X110506241Y-88082753D01*
X110506240Y-88082753D01*
X110344957Y-88057208D01*
X110296287Y-88049500D01*
X110083713Y-88049500D01*
X110035042Y-88057208D01*
X109873760Y-88082753D01*
X109671585Y-88148444D01*
X109482179Y-88244951D01*
X109310215Y-88369889D01*
X109196673Y-88483431D01*
X109135350Y-88516915D01*
X109065658Y-88511931D01*
X109009725Y-88470059D01*
X108992810Y-88439082D01*
X108943797Y-88307671D01*
X108943793Y-88307664D01*
X108857547Y-88192455D01*
X108857544Y-88192452D01*
X108742335Y-88106206D01*
X108742328Y-88106202D01*
X108607482Y-88055908D01*
X108607483Y-88055908D01*
X108547883Y-88049501D01*
X108547881Y-88049500D01*
X108547873Y-88049500D01*
X108547864Y-88049500D01*
X106752129Y-88049500D01*
X106752123Y-88049501D01*
X106692516Y-88055908D01*
X106557671Y-88106202D01*
X106557664Y-88106206D01*
X106442455Y-88192452D01*
X106442452Y-88192455D01*
X106356206Y-88307664D01*
X106356202Y-88307671D01*
X106305908Y-88442517D01*
X106299501Y-88502116D01*
X106299500Y-88502135D01*
X92680471Y-88502135D01*
X92671120Y-88455128D01*
X92671119Y-88455121D01*
X92667200Y-88445660D01*
X92610779Y-88309445D01*
X92610772Y-88309432D01*
X92523171Y-88178329D01*
X92523168Y-88178325D01*
X92411674Y-88066831D01*
X92411670Y-88066828D01*
X92280567Y-87979227D01*
X92280554Y-87979220D01*
X92134883Y-87918882D01*
X92134871Y-87918879D01*
X91980227Y-87888118D01*
X91980224Y-87888118D01*
X91822540Y-87888118D01*
X91822537Y-87888118D01*
X91667892Y-87918879D01*
X91667880Y-87918882D01*
X91522209Y-87979220D01*
X91522196Y-87979227D01*
X91391093Y-88066828D01*
X91391089Y-88066831D01*
X91279595Y-88178325D01*
X91279592Y-88178329D01*
X91191991Y-88309432D01*
X91191984Y-88309445D01*
X91139061Y-88437216D01*
X91095220Y-88491620D01*
X91028926Y-88513685D01*
X90961227Y-88496406D01*
X90913616Y-88445269D01*
X90900500Y-88389764D01*
X90900500Y-80156667D01*
X90897882Y-80143505D01*
X90895500Y-80119316D01*
X90895500Y-78446906D01*
X90915185Y-78379867D01*
X90967989Y-78334112D01*
X90995302Y-78325290D01*
X91073497Y-78309737D01*
X91219179Y-78249394D01*
X91350289Y-78161789D01*
X91461789Y-78050289D01*
X91549394Y-77919179D01*
X91609737Y-77773497D01*
X91640500Y-77618842D01*
X91640500Y-77461158D01*
X91640500Y-77461155D01*
X91640499Y-77461153D01*
X91630456Y-77410666D01*
X91609737Y-77306503D01*
X91582438Y-77240596D01*
X91549397Y-77160827D01*
X91549390Y-77160814D01*
X91461789Y-77029711D01*
X91461786Y-77029707D01*
X91374260Y-76942181D01*
X91340775Y-76880858D01*
X91345759Y-76811166D01*
X91387631Y-76755233D01*
X91453095Y-76730816D01*
X91461941Y-76730500D01*
X93674218Y-76730500D01*
X93741257Y-76750185D01*
X93761898Y-76766818D01*
X96957860Y-79962781D01*
X96957861Y-79962782D01*
X97083032Y-80087953D01*
X97097219Y-80102140D01*
X97261079Y-80211628D01*
X97261092Y-80211635D01*
X97389833Y-80264961D01*
X97443159Y-80287049D01*
X97443164Y-80287051D01*
X97529086Y-80304142D01*
X97555929Y-80309481D01*
X97636456Y-80325500D01*
X97636459Y-80325500D01*
X97833543Y-80325500D01*
X97881758Y-80315908D01*
X97940914Y-80304142D01*
X98026836Y-80287051D01*
X98080165Y-80264961D01*
X98208914Y-80211632D01*
X98372782Y-80102139D01*
X98512139Y-79962782D01*
X98621632Y-79798914D01*
X98690089Y-79633643D01*
X98697051Y-79616836D01*
X98729657Y-79452915D01*
X98735500Y-79423541D01*
X98735500Y-79226459D01*
X98735500Y-79226456D01*
X98711789Y-79107257D01*
X98706577Y-79081055D01*
X98697051Y-79033164D01*
X98666495Y-78959395D01*
X98621632Y-78851086D01*
X98621631Y-78851085D01*
X98621628Y-78851079D01*
X98512139Y-78687218D01*
X98444184Y-78619263D01*
X98372782Y-78547861D01*
X98372781Y-78547860D01*
X94924208Y-75099288D01*
X94924206Y-75099285D01*
X94924206Y-75099286D01*
X94917139Y-75092219D01*
X94917139Y-75092218D01*
X94777782Y-74952861D01*
X94777781Y-74952860D01*
X94777780Y-74952859D01*
X94613920Y-74843371D01*
X94613911Y-74843366D01*
X94541315Y-74813296D01*
X94485165Y-74790038D01*
X94431836Y-74767949D01*
X94431832Y-74767948D01*
X94431828Y-74767946D01*
X94335188Y-74748724D01*
X94238544Y-74729500D01*
X94238541Y-74729500D01*
X77295783Y-74729500D01*
X77228744Y-74709815D01*
X77208102Y-74693181D01*
X75896819Y-73381898D01*
X75863334Y-73320575D01*
X75860500Y-73294217D01*
X75860500Y-71081458D01*
X75860499Y-71081457D01*
X75835752Y-70957042D01*
X75822051Y-70888164D01*
X75790593Y-70812218D01*
X75749439Y-70712862D01*
X75746635Y-70706092D01*
X75746628Y-70706079D01*
X75637139Y-70542218D01*
X75637136Y-70542214D01*
X75494686Y-70399764D01*
X75494655Y-70399735D01*
X70586319Y-65491399D01*
X70552834Y-65430076D01*
X70550000Y-65403718D01*
X70550000Y-65351456D01*
X70511552Y-65158170D01*
X70511551Y-65158169D01*
X70511551Y-65158165D01*
X70511549Y-65158160D01*
X70436135Y-64976092D01*
X70436128Y-64976079D01*
X70326639Y-64812218D01*
X70326636Y-64812214D01*
X70187285Y-64672863D01*
X70187281Y-64672860D01*
X70023420Y-64563371D01*
X70023407Y-64563364D01*
X69841339Y-64487950D01*
X69841329Y-64487947D01*
X69648043Y-64449500D01*
X69648041Y-64449500D01*
X69595782Y-64449500D01*
X69528743Y-64429815D01*
X69508101Y-64413181D01*
X68712101Y-63617181D01*
X68678616Y-63555858D01*
X68683600Y-63486166D01*
X68725472Y-63430233D01*
X68790936Y-63405816D01*
X68799782Y-63405500D01*
X99397650Y-63405500D01*
X99464689Y-63425185D01*
X99466541Y-63426398D01*
X99560821Y-63489394D01*
X99560823Y-63489395D01*
X99560827Y-63489397D01*
X99706498Y-63549735D01*
X99706503Y-63549737D01*
X99861153Y-63580499D01*
X99861156Y-63580500D01*
X99861158Y-63580500D01*
X100018844Y-63580500D01*
X100018845Y-63580499D01*
X100173497Y-63549737D01*
X100319179Y-63489394D01*
X100450289Y-63401789D01*
X100561789Y-63290289D01*
X100649394Y-63159179D01*
X100709737Y-63013497D01*
X100740500Y-62858842D01*
X100740500Y-62701158D01*
X100740500Y-62701155D01*
X100740499Y-62701153D01*
X100709738Y-62546510D01*
X100709737Y-62546503D01*
X100709735Y-62546498D01*
X100649397Y-62400827D01*
X100649390Y-62400814D01*
X100561789Y-62269711D01*
X100561786Y-62269707D01*
X100450292Y-62158213D01*
X100450288Y-62158210D01*
X100319185Y-62070609D01*
X100319172Y-62070602D01*
X100173501Y-62010264D01*
X100173489Y-62010261D01*
X100018845Y-61979500D01*
X100018842Y-61979500D01*
X99861158Y-61979500D01*
X99861155Y-61979500D01*
X99706510Y-62010261D01*
X99706498Y-62010264D01*
X99560827Y-62070602D01*
X99560815Y-62070609D01*
X99466541Y-62133602D01*
X99399864Y-62154480D01*
X99397650Y-62154500D01*
X67937179Y-62154500D01*
X67870140Y-62134815D01*
X67849498Y-62118181D01*
X65804851Y-60073535D01*
X65797585Y-60066269D01*
X65797584Y-60066267D01*
X65710459Y-59979142D01*
X65709160Y-59978274D01*
X65709159Y-59978273D01*
X65659235Y-59944915D01*
X65608959Y-59911321D01*
X65608012Y-59910688D01*
X65608009Y-59910686D01*
X65608006Y-59910685D01*
X65560850Y-59891153D01*
X84579500Y-59891153D01*
X84579500Y-60048846D01*
X84610261Y-60203489D01*
X84610264Y-60203501D01*
X84670602Y-60349172D01*
X84670609Y-60349185D01*
X84758210Y-60480288D01*
X84758213Y-60480292D01*
X84869707Y-60591786D01*
X84869711Y-60591789D01*
X85000814Y-60679390D01*
X85000827Y-60679397D01*
X85146498Y-60739735D01*
X85146503Y-60739737D01*
X85301153Y-60770499D01*
X85301156Y-60770500D01*
X85301158Y-60770500D01*
X85458844Y-60770500D01*
X85458845Y-60770499D01*
X85613497Y-60739737D01*
X85759179Y-60679394D01*
X85853459Y-60616398D01*
X85920136Y-60595520D01*
X85922350Y-60595500D01*
X90209548Y-60595500D01*
X90238988Y-60604144D01*
X90268975Y-60610668D01*
X90273990Y-60614422D01*
X90276587Y-60615185D01*
X90297229Y-60631819D01*
X90324205Y-60658795D01*
X90357690Y-60720118D01*
X90358141Y-60722285D01*
X90380261Y-60833489D01*
X90380264Y-60833501D01*
X90440602Y-60979172D01*
X90440609Y-60979185D01*
X90528210Y-61110288D01*
X90528213Y-61110292D01*
X90639707Y-61221786D01*
X90639711Y-61221789D01*
X90770814Y-61309390D01*
X90770827Y-61309397D01*
X90916498Y-61369735D01*
X90916503Y-61369737D01*
X91071153Y-61400499D01*
X91071156Y-61400500D01*
X91071158Y-61400500D01*
X91228844Y-61400500D01*
X91228845Y-61400499D01*
X91383497Y-61369737D01*
X91529179Y-61309394D01*
X91660289Y-61221789D01*
X91771789Y-61110289D01*
X91859394Y-60979179D01*
X91919737Y-60833497D01*
X91950500Y-60678842D01*
X91950500Y-60521158D01*
X91950500Y-60521155D01*
X91950499Y-60521153D01*
X91942371Y-60480292D01*
X91919737Y-60366503D01*
X91872144Y-60251602D01*
X91859397Y-60220827D01*
X91859390Y-60220814D01*
X91771789Y-60089711D01*
X91771786Y-60089707D01*
X91660292Y-59978213D01*
X91660288Y-59978210D01*
X91529185Y-59890609D01*
X91529172Y-59890602D01*
X91383501Y-59830264D01*
X91383489Y-59830261D01*
X91272285Y-59808141D01*
X91210374Y-59775756D01*
X91208795Y-59774205D01*
X91015822Y-59581232D01*
X91005859Y-59571269D01*
X91005858Y-59571267D01*
X90918733Y-59484142D01*
X90867509Y-59449915D01*
X90816286Y-59415688D01*
X90816283Y-59415686D01*
X90816280Y-59415685D01*
X90742603Y-59385168D01*
X90742601Y-59385167D01*
X90735792Y-59382347D01*
X90702452Y-59368537D01*
X90642029Y-59356518D01*
X90637306Y-59355578D01*
X90637304Y-59355578D01*
X90581610Y-59344500D01*
X90581607Y-59344500D01*
X90581606Y-59344500D01*
X85922350Y-59344500D01*
X85855311Y-59324815D01*
X85853459Y-59323602D01*
X85759184Y-59260609D01*
X85759172Y-59260602D01*
X85613501Y-59200264D01*
X85613489Y-59200261D01*
X85458845Y-59169500D01*
X85458842Y-59169500D01*
X85301158Y-59169500D01*
X85301155Y-59169500D01*
X85146510Y-59200261D01*
X85146498Y-59200264D01*
X85000827Y-59260602D01*
X85000814Y-59260609D01*
X84869711Y-59348210D01*
X84869707Y-59348213D01*
X84758213Y-59459707D01*
X84758210Y-59459711D01*
X84670609Y-59590814D01*
X84670602Y-59590827D01*
X84610264Y-59736498D01*
X84610261Y-59736510D01*
X84579500Y-59891153D01*
X65560850Y-59891153D01*
X65535408Y-59880615D01*
X65535407Y-59880614D01*
X65527518Y-59877347D01*
X65494178Y-59863537D01*
X65395745Y-59843958D01*
X65392180Y-59843249D01*
X65392173Y-59843247D01*
X65378781Y-59840583D01*
X65373333Y-59839500D01*
X65373332Y-59839500D01*
X61647684Y-59839500D01*
X61580645Y-59819815D01*
X61544580Y-59784388D01*
X61541788Y-59780209D01*
X61430292Y-59668713D01*
X61430288Y-59668710D01*
X61299185Y-59581109D01*
X61299172Y-59581102D01*
X61153501Y-59520764D01*
X61153489Y-59520761D01*
X60998845Y-59490000D01*
X60998842Y-59490000D01*
X60841158Y-59490000D01*
X60841155Y-59490000D01*
X60686510Y-59520761D01*
X60686498Y-59520764D01*
X60540827Y-59581102D01*
X60540814Y-59581109D01*
X60409711Y-59668710D01*
X60409707Y-59668713D01*
X60298213Y-59780207D01*
X60298210Y-59780211D01*
X60210609Y-59911314D01*
X60210602Y-59911327D01*
X60150264Y-60056998D01*
X60150261Y-60057010D01*
X60123869Y-60189691D01*
X60091484Y-60251602D01*
X60030768Y-60286176D01*
X60002252Y-60289500D01*
X58315782Y-60289500D01*
X58248743Y-60269815D01*
X58228101Y-60253181D01*
X56876479Y-58901559D01*
X56872141Y-58897221D01*
X56872139Y-58897218D01*
X56820700Y-58845779D01*
X56787729Y-58785395D01*
X56787217Y-58784457D01*
X56787217Y-58784456D01*
X56787216Y-58784455D01*
X56790224Y-58742416D01*
X56792201Y-58714765D01*
X56834073Y-58658832D01*
X56834073Y-58658831D01*
X56834074Y-58658831D01*
X56867418Y-58646395D01*
X56899537Y-58634415D01*
X56908383Y-58634099D01*
X57781471Y-58634099D01*
X57781472Y-58634099D01*
X57841083Y-58627691D01*
X57975931Y-58577396D01*
X58091146Y-58491146D01*
X58177396Y-58375931D01*
X58221186Y-58258523D01*
X58263055Y-58202591D01*
X58328519Y-58178173D01*
X58396792Y-58193024D01*
X58425048Y-58214176D01*
X58521349Y-58310477D01*
X58695056Y-58436683D01*
X58788888Y-58484492D01*
X58886366Y-58534161D01*
X58886369Y-58534162D01*
X58988470Y-58567336D01*
X59090573Y-58600511D01*
X59302643Y-58634100D01*
X59302644Y-58634100D01*
X59517356Y-58634100D01*
X59517357Y-58634100D01*
X59729427Y-58600511D01*
X59933633Y-58534161D01*
X60124944Y-58436683D01*
X60298651Y-58310477D01*
X60450477Y-58158651D01*
X60576683Y-57984944D01*
X60576683Y-57984943D01*
X60579547Y-57981002D01*
X60581478Y-57982405D01*
X60625927Y-57942078D01*
X60694840Y-57930558D01*
X60759042Y-57958125D01*
X60779478Y-57981709D01*
X60780453Y-57981002D01*
X60783316Y-57984943D01*
X60783317Y-57984944D01*
X60909523Y-58158651D01*
X61061349Y-58310477D01*
X61235056Y-58436683D01*
X61328888Y-58484492D01*
X61426366Y-58534161D01*
X61426369Y-58534162D01*
X61528470Y-58567336D01*
X61630573Y-58600511D01*
X61842643Y-58634100D01*
X61842644Y-58634100D01*
X62057356Y-58634100D01*
X62057357Y-58634100D01*
X62269427Y-58600511D01*
X62473633Y-58534161D01*
X62664944Y-58436683D01*
X62838651Y-58310477D01*
X62990477Y-58158651D01*
X63116683Y-57984944D01*
X63116683Y-57984943D01*
X63119547Y-57981002D01*
X63121478Y-57982405D01*
X63165927Y-57942078D01*
X63234840Y-57930558D01*
X63299042Y-57958125D01*
X63319478Y-57981709D01*
X63320453Y-57981002D01*
X63323316Y-57984943D01*
X63323317Y-57984944D01*
X63449523Y-58158651D01*
X63601349Y-58310477D01*
X63775056Y-58436683D01*
X63868888Y-58484492D01*
X63966366Y-58534161D01*
X63966369Y-58534162D01*
X64068470Y-58567336D01*
X64170573Y-58600511D01*
X64382643Y-58634100D01*
X64382644Y-58634100D01*
X64597356Y-58634100D01*
X64597357Y-58634100D01*
X64809427Y-58600511D01*
X65013633Y-58534161D01*
X65204944Y-58436683D01*
X65378651Y-58310477D01*
X65530477Y-58158651D01*
X65656683Y-57984944D01*
X65656683Y-57984943D01*
X65659547Y-57981002D01*
X65661339Y-57982304D01*
X65706266Y-57941577D01*
X65775184Y-57930085D01*
X65839375Y-57957678D01*
X65859971Y-57981400D01*
X65860880Y-57980740D01*
X65989906Y-58158327D01*
X65989906Y-58158328D01*
X66141671Y-58310093D01*
X66315317Y-58436255D01*
X66506554Y-58533696D01*
X66710683Y-58600022D01*
X66780000Y-58611000D01*
X66780000Y-57712251D01*
X66833919Y-57743381D01*
X66963120Y-57778000D01*
X67096880Y-57778000D01*
X67226081Y-57743381D01*
X67280000Y-57712251D01*
X67280000Y-58610999D01*
X67349316Y-58600022D01*
X67553445Y-58533696D01*
X67744682Y-58436255D01*
X67918327Y-58310093D01*
X67918328Y-58310093D01*
X68070093Y-58158328D01*
X68070093Y-58158327D01*
X68199120Y-57980740D01*
X68200977Y-57982089D01*
X68245715Y-57941559D01*
X68314637Y-57930090D01*
X68378818Y-57957704D01*
X68399574Y-57981640D01*
X68400453Y-57981002D01*
X68403316Y-57984943D01*
X68403317Y-57984944D01*
X68529523Y-58158651D01*
X68681349Y-58310477D01*
X68855056Y-58436683D01*
X68948888Y-58484492D01*
X69046366Y-58534161D01*
X69046369Y-58534162D01*
X69148470Y-58567336D01*
X69250573Y-58600511D01*
X69462643Y-58634100D01*
X69462644Y-58634100D01*
X69677356Y-58634100D01*
X69677357Y-58634100D01*
X69889427Y-58600511D01*
X70093633Y-58534161D01*
X70284944Y-58436683D01*
X70458651Y-58310477D01*
X70610477Y-58158651D01*
X70736683Y-57984944D01*
X70736683Y-57984943D01*
X70739547Y-57981002D01*
X70741478Y-57982405D01*
X70785927Y-57942078D01*
X70854840Y-57930558D01*
X70919042Y-57958125D01*
X70939478Y-57981709D01*
X70940453Y-57981002D01*
X70943316Y-57984943D01*
X70943317Y-57984944D01*
X71069523Y-58158651D01*
X71221349Y-58310477D01*
X71395056Y-58436683D01*
X71488888Y-58484492D01*
X71586366Y-58534161D01*
X71586369Y-58534162D01*
X71688470Y-58567336D01*
X71790573Y-58600511D01*
X72002643Y-58634100D01*
X72002644Y-58634100D01*
X72217356Y-58634100D01*
X72217357Y-58634100D01*
X72429427Y-58600511D01*
X72633633Y-58534161D01*
X72824944Y-58436683D01*
X72998651Y-58310477D01*
X73150477Y-58158651D01*
X73276683Y-57984944D01*
X73276683Y-57984943D01*
X73279547Y-57981002D01*
X73281478Y-57982405D01*
X73325927Y-57942078D01*
X73394840Y-57930558D01*
X73459042Y-57958125D01*
X73479478Y-57981709D01*
X73480453Y-57981002D01*
X73483316Y-57984943D01*
X73483317Y-57984944D01*
X73609523Y-58158651D01*
X73761349Y-58310477D01*
X73935056Y-58436683D01*
X74028888Y-58484492D01*
X74126366Y-58534161D01*
X74126369Y-58534162D01*
X74228470Y-58567336D01*
X74330573Y-58600511D01*
X74542643Y-58634100D01*
X74542644Y-58634100D01*
X74757356Y-58634100D01*
X74757357Y-58634100D01*
X74969427Y-58600511D01*
X75173633Y-58534161D01*
X75364944Y-58436683D01*
X75538651Y-58310477D01*
X75690477Y-58158651D01*
X75816683Y-57984944D01*
X75816683Y-57984943D01*
X75819547Y-57981002D01*
X75821478Y-57982405D01*
X75865927Y-57942078D01*
X75934840Y-57930558D01*
X75999042Y-57958125D01*
X76019478Y-57981709D01*
X76020453Y-57981002D01*
X76023316Y-57984943D01*
X76023317Y-57984944D01*
X76149523Y-58158651D01*
X76301349Y-58310477D01*
X76475056Y-58436683D01*
X76568888Y-58484492D01*
X76666366Y-58534161D01*
X76666369Y-58534162D01*
X76768470Y-58567336D01*
X76870573Y-58600511D01*
X77082643Y-58634100D01*
X77082644Y-58634100D01*
X77297356Y-58634100D01*
X77297357Y-58634100D01*
X77509427Y-58600511D01*
X77713633Y-58534161D01*
X77904944Y-58436683D01*
X78078651Y-58310477D01*
X78230477Y-58158651D01*
X78356683Y-57984944D01*
X78356683Y-57984943D01*
X78359547Y-57981002D01*
X78361478Y-57982405D01*
X78405927Y-57942078D01*
X78474840Y-57930558D01*
X78539042Y-57958125D01*
X78559478Y-57981709D01*
X78560453Y-57981002D01*
X78563316Y-57984943D01*
X78563317Y-57984944D01*
X78689523Y-58158651D01*
X78841349Y-58310477D01*
X79015056Y-58436683D01*
X79108888Y-58484492D01*
X79206366Y-58534161D01*
X79206369Y-58534162D01*
X79308470Y-58567336D01*
X79410573Y-58600511D01*
X79622643Y-58634100D01*
X79622644Y-58634100D01*
X79837356Y-58634100D01*
X79837357Y-58634100D01*
X80049427Y-58600511D01*
X80253633Y-58534161D01*
X80444944Y-58436683D01*
X80618651Y-58310477D01*
X80770477Y-58158651D01*
X80896683Y-57984944D01*
X80896683Y-57984943D01*
X80899547Y-57981002D01*
X80901478Y-57982405D01*
X80945927Y-57942078D01*
X81014840Y-57930558D01*
X81079042Y-57958125D01*
X81099478Y-57981709D01*
X81100453Y-57981002D01*
X81103316Y-57984943D01*
X81103317Y-57984944D01*
X81229523Y-58158651D01*
X81381349Y-58310477D01*
X81555056Y-58436683D01*
X81648888Y-58484492D01*
X81746366Y-58534161D01*
X81746369Y-58534162D01*
X81848470Y-58567336D01*
X81950573Y-58600511D01*
X82162643Y-58634100D01*
X82162644Y-58634100D01*
X82377356Y-58634100D01*
X82377357Y-58634100D01*
X82589427Y-58600511D01*
X82793633Y-58534161D01*
X82984944Y-58436683D01*
X83158651Y-58310477D01*
X83310477Y-58158651D01*
X83436683Y-57984944D01*
X83436683Y-57984943D01*
X83439547Y-57981002D01*
X83441478Y-57982405D01*
X83485927Y-57942078D01*
X83554840Y-57930558D01*
X83619042Y-57958125D01*
X83639478Y-57981709D01*
X83640453Y-57981002D01*
X83643316Y-57984943D01*
X83643317Y-57984944D01*
X83769523Y-58158651D01*
X83921349Y-58310477D01*
X84095056Y-58436683D01*
X84188888Y-58484492D01*
X84286366Y-58534161D01*
X84286369Y-58534162D01*
X84388470Y-58567336D01*
X84490573Y-58600511D01*
X84702643Y-58634100D01*
X84702644Y-58634100D01*
X84917356Y-58634100D01*
X84917357Y-58634100D01*
X85129427Y-58600511D01*
X85333633Y-58534161D01*
X85524944Y-58436683D01*
X85698651Y-58310477D01*
X85850477Y-58158651D01*
X85976683Y-57984944D01*
X85976683Y-57984943D01*
X85979547Y-57981002D01*
X85981339Y-57982304D01*
X86026266Y-57941577D01*
X86095184Y-57930085D01*
X86159375Y-57957678D01*
X86179971Y-57981400D01*
X86180880Y-57980740D01*
X86309906Y-58158327D01*
X86309906Y-58158328D01*
X86461671Y-58310093D01*
X86635317Y-58436255D01*
X86826554Y-58533696D01*
X87030683Y-58600022D01*
X87100000Y-58611000D01*
X87100000Y-57712251D01*
X87153919Y-57743381D01*
X87283120Y-57778000D01*
X87416880Y-57778000D01*
X87546081Y-57743381D01*
X87600000Y-57712251D01*
X87600000Y-58611000D01*
X87669316Y-58600022D01*
X87873445Y-58533696D01*
X88064682Y-58436255D01*
X88238327Y-58310093D01*
X88238328Y-58310093D01*
X88390093Y-58158328D01*
X88390093Y-58158327D01*
X88519120Y-57980740D01*
X88520977Y-57982089D01*
X88565715Y-57941559D01*
X88634637Y-57930090D01*
X88698818Y-57957704D01*
X88719574Y-57981640D01*
X88720453Y-57981002D01*
X88723316Y-57984943D01*
X88723317Y-57984944D01*
X88849523Y-58158651D01*
X89001349Y-58310477D01*
X89175056Y-58436683D01*
X89268888Y-58484492D01*
X89366366Y-58534161D01*
X89366369Y-58534162D01*
X89468470Y-58567336D01*
X89570573Y-58600511D01*
X89782643Y-58634100D01*
X89782644Y-58634100D01*
X89997356Y-58634100D01*
X89997357Y-58634100D01*
X90209427Y-58600511D01*
X90413633Y-58534161D01*
X90604944Y-58436683D01*
X90778651Y-58310477D01*
X90930477Y-58158651D01*
X91056683Y-57984944D01*
X91056683Y-57984943D01*
X91059547Y-57981002D01*
X91061478Y-57982405D01*
X91105927Y-57942078D01*
X91174840Y-57930558D01*
X91239042Y-57958125D01*
X91259478Y-57981709D01*
X91260453Y-57981002D01*
X91263316Y-57984943D01*
X91263317Y-57984944D01*
X91389523Y-58158651D01*
X91541349Y-58310477D01*
X91715056Y-58436683D01*
X91808888Y-58484492D01*
X91906366Y-58534161D01*
X91906369Y-58534162D01*
X92008470Y-58567336D01*
X92110573Y-58600511D01*
X92322643Y-58634100D01*
X92322644Y-58634100D01*
X92537356Y-58634100D01*
X92537357Y-58634100D01*
X92749427Y-58600511D01*
X92953633Y-58534161D01*
X93144944Y-58436683D01*
X93318651Y-58310477D01*
X93470477Y-58158651D01*
X93596683Y-57984944D01*
X93596683Y-57984943D01*
X93599547Y-57981002D01*
X93601478Y-57982405D01*
X93645927Y-57942078D01*
X93714840Y-57930558D01*
X93779042Y-57958125D01*
X93799478Y-57981709D01*
X93800453Y-57981002D01*
X93803316Y-57984943D01*
X93803317Y-57984944D01*
X93929523Y-58158651D01*
X94081349Y-58310477D01*
X94255056Y-58436683D01*
X94348888Y-58484492D01*
X94446366Y-58534161D01*
X94446369Y-58534162D01*
X94548470Y-58567336D01*
X94650573Y-58600511D01*
X94862643Y-58634100D01*
X94862644Y-58634100D01*
X95077356Y-58634100D01*
X95077357Y-58634100D01*
X95289427Y-58600511D01*
X95493633Y-58534161D01*
X95684944Y-58436683D01*
X95858651Y-58310477D01*
X96010477Y-58158651D01*
X96136683Y-57984944D01*
X96136683Y-57984943D01*
X96139547Y-57981002D01*
X96141478Y-57982405D01*
X96185927Y-57942078D01*
X96254840Y-57930558D01*
X96319042Y-57958125D01*
X96339478Y-57981709D01*
X96340453Y-57981002D01*
X96343316Y-57984943D01*
X96343317Y-57984944D01*
X96469523Y-58158651D01*
X96621349Y-58310477D01*
X96795056Y-58436683D01*
X96888888Y-58484492D01*
X96986366Y-58534161D01*
X96986369Y-58534162D01*
X97088470Y-58567336D01*
X97190573Y-58600511D01*
X97402643Y-58634100D01*
X97402644Y-58634100D01*
X97617356Y-58634100D01*
X97617357Y-58634100D01*
X97829427Y-58600511D01*
X98033633Y-58534161D01*
X98224944Y-58436683D01*
X98398651Y-58310477D01*
X98550477Y-58158651D01*
X98676683Y-57984944D01*
X98676683Y-57984943D01*
X98679547Y-57981002D01*
X98681478Y-57982405D01*
X98725927Y-57942078D01*
X98794840Y-57930558D01*
X98859042Y-57958125D01*
X98879478Y-57981709D01*
X98880453Y-57981002D01*
X98883316Y-57984943D01*
X98883317Y-57984944D01*
X99009523Y-58158651D01*
X99161349Y-58310477D01*
X99335056Y-58436683D01*
X99428888Y-58484492D01*
X99526366Y-58534161D01*
X99526369Y-58534162D01*
X99628470Y-58567336D01*
X99730573Y-58600511D01*
X99942643Y-58634100D01*
X99942644Y-58634100D01*
X100157356Y-58634100D01*
X100157357Y-58634100D01*
X100369427Y-58600511D01*
X100573633Y-58534161D01*
X100764944Y-58436683D01*
X100938651Y-58310477D01*
X101090477Y-58158651D01*
X101216683Y-57984944D01*
X101216683Y-57984943D01*
X101219547Y-57981002D01*
X101221478Y-57982405D01*
X101265927Y-57942078D01*
X101334840Y-57930558D01*
X101399042Y-57958125D01*
X101419478Y-57981709D01*
X101420453Y-57981002D01*
X101423316Y-57984943D01*
X101423317Y-57984944D01*
X101549523Y-58158651D01*
X101701349Y-58310477D01*
X101875056Y-58436683D01*
X101968888Y-58484492D01*
X102066366Y-58534161D01*
X102066369Y-58534162D01*
X102168470Y-58567336D01*
X102270573Y-58600511D01*
X102482643Y-58634100D01*
X102482644Y-58634100D01*
X102697356Y-58634100D01*
X102697357Y-58634100D01*
X102909427Y-58600511D01*
X103113633Y-58534161D01*
X103304944Y-58436683D01*
X103478651Y-58310477D01*
X103630477Y-58158651D01*
X103756683Y-57984944D01*
X103756683Y-57984943D01*
X103759547Y-57981002D01*
X103761339Y-57982304D01*
X103806266Y-57941577D01*
X103875184Y-57930085D01*
X103939375Y-57957678D01*
X103959971Y-57981400D01*
X103960880Y-57980740D01*
X104089906Y-58158327D01*
X104089906Y-58158328D01*
X104241671Y-58310093D01*
X104415317Y-58436255D01*
X104606554Y-58533696D01*
X104810683Y-58600022D01*
X104880000Y-58611000D01*
X104880000Y-57712251D01*
X104933919Y-57743381D01*
X105063120Y-57778000D01*
X105196880Y-57778000D01*
X105326081Y-57743381D01*
X105380000Y-57712251D01*
X105380000Y-58610999D01*
X105449316Y-58600022D01*
X105653445Y-58533696D01*
X105844682Y-58436255D01*
X106018327Y-58310093D01*
X106018328Y-58310093D01*
X106170093Y-58158328D01*
X106170093Y-58158327D01*
X106296255Y-57984682D01*
X106393696Y-57793443D01*
X106460024Y-57589307D01*
X106471002Y-57520000D01*
X105572251Y-57520000D01*
X105603381Y-57466081D01*
X105638000Y-57336880D01*
X105638000Y-57203120D01*
X105603381Y-57073919D01*
X105572251Y-57020000D01*
X106471002Y-57020000D01*
X106460024Y-56950692D01*
X106393696Y-56746556D01*
X106296255Y-56555317D01*
X106170093Y-56381672D01*
X106170093Y-56381671D01*
X106018328Y-56229906D01*
X105840740Y-56100880D01*
X105842064Y-56099057D01*
X105801470Y-56054099D01*
X105790115Y-55985158D01*
X105817835Y-55921022D01*
X105841645Y-55900432D01*
X105841002Y-55899547D01*
X105844944Y-55896683D01*
X105942402Y-55825875D01*
X106899500Y-55825875D01*
X106899500Y-56174124D01*
X106938489Y-56520158D01*
X106938490Y-56520167D01*
X106938491Y-56520171D01*
X106952538Y-56581715D01*
X107015982Y-56859684D01*
X107015985Y-56859692D01*
X107130999Y-57188382D01*
X107282092Y-57502130D01*
X107467371Y-57796999D01*
X107467372Y-57797001D01*
X107684487Y-58069256D01*
X107930743Y-58315512D01*
X108202998Y-58532627D01*
X108203001Y-58532628D01*
X108203003Y-58532630D01*
X108492868Y-58714765D01*
X108497869Y-58717907D01*
X108580828Y-58757858D01*
X108811621Y-58869002D01*
X109058488Y-58955384D01*
X109140307Y-58984014D01*
X109140315Y-58984017D01*
X109140318Y-58984017D01*
X109140319Y-58984018D01*
X109479829Y-59061509D01*
X109825876Y-59100499D01*
X109825877Y-59100500D01*
X109825880Y-59100500D01*
X110174123Y-59100500D01*
X110174123Y-59100499D01*
X110520171Y-59061509D01*
X110859681Y-58984018D01*
X111188379Y-58869002D01*
X111502133Y-58717906D01*
X111796997Y-58532630D01*
X111797001Y-58532627D01*
X112069256Y-58315512D01*
X112069258Y-58315509D01*
X112069263Y-58315506D01*
X112315506Y-58069263D01*
X112384854Y-57982304D01*
X112532627Y-57797001D01*
X112532628Y-57796999D01*
X112532630Y-57796997D01*
X112717906Y-57502133D01*
X112869002Y-57188379D01*
X112984018Y-56859681D01*
X113061509Y-56520171D01*
X113100500Y-56174120D01*
X113100500Y-55825880D01*
X113061509Y-55479829D01*
X112984018Y-55140319D01*
X112982682Y-55136502D01*
X112933941Y-54997208D01*
X112869002Y-54811621D01*
X112717906Y-54497867D01*
X112532630Y-54203003D01*
X112532628Y-54203000D01*
X112532627Y-54202998D01*
X112315512Y-53930743D01*
X112069256Y-53684487D01*
X111797001Y-53467372D01*
X111796999Y-53467371D01*
X111502130Y-53282092D01*
X111188382Y-53130999D01*
X110859692Y-53015985D01*
X110859684Y-53015982D01*
X110605048Y-52957863D01*
X110520171Y-52938491D01*
X110520167Y-52938490D01*
X110520158Y-52938489D01*
X110174124Y-52899500D01*
X110174120Y-52899500D01*
X109825880Y-52899500D01*
X109825875Y-52899500D01*
X109479841Y-52938489D01*
X109479829Y-52938491D01*
X109140315Y-53015982D01*
X109140307Y-53015985D01*
X108811617Y-53130999D01*
X108497869Y-53282092D01*
X108203000Y-53467371D01*
X108202998Y-53467372D01*
X107930743Y-53684487D01*
X107684487Y-53930743D01*
X107467372Y-54202998D01*
X107467371Y-54203000D01*
X107282092Y-54497869D01*
X107130999Y-54811617D01*
X107015985Y-55140307D01*
X107015982Y-55140315D01*
X106938491Y-55479829D01*
X106938489Y-55479841D01*
X106899500Y-55825875D01*
X105942402Y-55825875D01*
X106018651Y-55770477D01*
X106170477Y-55618651D01*
X106296683Y-55444944D01*
X106394161Y-55253633D01*
X106460511Y-55049427D01*
X106494100Y-54837357D01*
X106494100Y-54622643D01*
X106460511Y-54410573D01*
X106400000Y-54224337D01*
X106394162Y-54206369D01*
X106394161Y-54206366D01*
X106324378Y-54069411D01*
X106296683Y-54015056D01*
X106170477Y-53841349D01*
X106018651Y-53689523D01*
X105844944Y-53563317D01*
X105653633Y-53465838D01*
X105653630Y-53465837D01*
X105449428Y-53399489D01*
X105343392Y-53382694D01*
X105237357Y-53365900D01*
X105022643Y-53365900D01*
X104951953Y-53377096D01*
X104810571Y-53399489D01*
X104606369Y-53465837D01*
X104606366Y-53465838D01*
X104415055Y-53563317D01*
X104315949Y-53635322D01*
X104241349Y-53689523D01*
X104241347Y-53689525D01*
X104241346Y-53689525D01*
X104089525Y-53841346D01*
X104089525Y-53841347D01*
X104089523Y-53841349D01*
X104024554Y-53930771D01*
X103960453Y-54018998D01*
X103958562Y-54017624D01*
X103913848Y-54058030D01*
X103844911Y-54069411D01*
X103780765Y-54041715D01*
X103760488Y-54018314D01*
X103759547Y-54018998D01*
X103756682Y-54015055D01*
X103630477Y-53841349D01*
X103478651Y-53689523D01*
X103304944Y-53563317D01*
X103113633Y-53465838D01*
X103113630Y-53465837D01*
X102909428Y-53399489D01*
X102803392Y-53382694D01*
X102697357Y-53365900D01*
X102482643Y-53365900D01*
X102411953Y-53377096D01*
X102270571Y-53399489D01*
X102066369Y-53465837D01*
X102066366Y-53465838D01*
X101875055Y-53563317D01*
X101775949Y-53635322D01*
X101701349Y-53689523D01*
X101701347Y-53689525D01*
X101701346Y-53689525D01*
X101549525Y-53841346D01*
X101549525Y-53841347D01*
X101549523Y-53841349D01*
X101484554Y-53930771D01*
X101420453Y-54018998D01*
X101418562Y-54017624D01*
X101373848Y-54058030D01*
X101304911Y-54069411D01*
X101240765Y-54041715D01*
X101220488Y-54018314D01*
X101219547Y-54018998D01*
X101216682Y-54015055D01*
X101090477Y-53841349D01*
X100938651Y-53689523D01*
X100764944Y-53563317D01*
X100573633Y-53465838D01*
X100573630Y-53465837D01*
X100369428Y-53399489D01*
X100263392Y-53382694D01*
X100157357Y-53365900D01*
X99942643Y-53365900D01*
X99871953Y-53377096D01*
X99730571Y-53399489D01*
X99526369Y-53465837D01*
X99526366Y-53465838D01*
X99335055Y-53563317D01*
X99235949Y-53635322D01*
X99161349Y-53689523D01*
X99161347Y-53689525D01*
X99161346Y-53689525D01*
X99009525Y-53841346D01*
X99009525Y-53841347D01*
X99009523Y-53841349D01*
X98944554Y-53930771D01*
X98880453Y-54018998D01*
X98878694Y-54017720D01*
X98833546Y-54058513D01*
X98764608Y-54069888D01*
X98700464Y-54042188D01*
X98680030Y-54018598D01*
X98679120Y-54019260D01*
X98550093Y-53841672D01*
X98550093Y-53841671D01*
X98398328Y-53689906D01*
X98224682Y-53563744D01*
X98033443Y-53466303D01*
X97829307Y-53399975D01*
X97760000Y-53388997D01*
X97760000Y-54287748D01*
X97706081Y-54256619D01*
X97576880Y-54222000D01*
X97443120Y-54222000D01*
X97313919Y-54256619D01*
X97260000Y-54287748D01*
X97260000Y-53388997D01*
X97190692Y-53399975D01*
X96986556Y-53466303D01*
X96795317Y-53563744D01*
X96621672Y-53689906D01*
X96621671Y-53689906D01*
X96469906Y-53841671D01*
X96469906Y-53841672D01*
X96340880Y-54019260D01*
X96339078Y-54017950D01*
X96293985Y-54058584D01*
X96225032Y-54069868D01*
X96160925Y-54042083D01*
X96140420Y-54018363D01*
X96139547Y-54018998D01*
X96136682Y-54015055D01*
X96010477Y-53841349D01*
X95858651Y-53689523D01*
X95684944Y-53563317D01*
X95493633Y-53465838D01*
X95493630Y-53465837D01*
X95289428Y-53399489D01*
X95183392Y-53382694D01*
X95077357Y-53365900D01*
X94862643Y-53365900D01*
X94791953Y-53377096D01*
X94650571Y-53399489D01*
X94446369Y-53465837D01*
X94446366Y-53465838D01*
X94255055Y-53563317D01*
X94155949Y-53635322D01*
X94081349Y-53689523D01*
X94081347Y-53689525D01*
X94081346Y-53689525D01*
X93929525Y-53841346D01*
X93929525Y-53841347D01*
X93929523Y-53841349D01*
X93864554Y-53930771D01*
X93800453Y-54018998D01*
X93798694Y-54017720D01*
X93753546Y-54058513D01*
X93684608Y-54069888D01*
X93620464Y-54042188D01*
X93600030Y-54018598D01*
X93599120Y-54019260D01*
X93470093Y-53841672D01*
X93470093Y-53841671D01*
X93318328Y-53689906D01*
X93144682Y-53563744D01*
X92953443Y-53466303D01*
X92749307Y-53399975D01*
X92680000Y-53388997D01*
X92680000Y-54287748D01*
X92626081Y-54256619D01*
X92496880Y-54222000D01*
X92363120Y-54222000D01*
X92233919Y-54256619D01*
X92180000Y-54287748D01*
X92180000Y-53388997D01*
X92110692Y-53399975D01*
X91906556Y-53466303D01*
X91715317Y-53563744D01*
X91541672Y-53689906D01*
X91541671Y-53689906D01*
X91389906Y-53841671D01*
X91389906Y-53841672D01*
X91260880Y-54019260D01*
X91259078Y-54017950D01*
X91213985Y-54058584D01*
X91145032Y-54069868D01*
X91080925Y-54042083D01*
X91060420Y-54018363D01*
X91059547Y-54018998D01*
X91056682Y-54015055D01*
X90930477Y-53841349D01*
X90778651Y-53689523D01*
X90604944Y-53563317D01*
X90413633Y-53465838D01*
X90413630Y-53465837D01*
X90209428Y-53399489D01*
X90103392Y-53382694D01*
X89997357Y-53365900D01*
X89782643Y-53365900D01*
X89711953Y-53377096D01*
X89570571Y-53399489D01*
X89366369Y-53465837D01*
X89366366Y-53465838D01*
X89175055Y-53563317D01*
X89075949Y-53635322D01*
X89001349Y-53689523D01*
X89001347Y-53689525D01*
X89001346Y-53689525D01*
X88849525Y-53841346D01*
X88849525Y-53841347D01*
X88849523Y-53841349D01*
X88784554Y-53930771D01*
X88720453Y-54018998D01*
X88718562Y-54017624D01*
X88673848Y-54058030D01*
X88604911Y-54069411D01*
X88540765Y-54041715D01*
X88520488Y-54018314D01*
X88519547Y-54018998D01*
X88516682Y-54015055D01*
X88390477Y-53841349D01*
X88238651Y-53689523D01*
X88064944Y-53563317D01*
X87873633Y-53465838D01*
X87873630Y-53465837D01*
X87669428Y-53399489D01*
X87563392Y-53382694D01*
X87457357Y-53365900D01*
X87242643Y-53365900D01*
X87171953Y-53377096D01*
X87030571Y-53399489D01*
X86826369Y-53465837D01*
X86826366Y-53465838D01*
X86635055Y-53563317D01*
X86535949Y-53635322D01*
X86461349Y-53689523D01*
X86461347Y-53689525D01*
X86461346Y-53689525D01*
X86309525Y-53841346D01*
X86309525Y-53841347D01*
X86309523Y-53841349D01*
X86244554Y-53930771D01*
X86180453Y-54018998D01*
X86178562Y-54017624D01*
X86133848Y-54058030D01*
X86064911Y-54069411D01*
X86000765Y-54041715D01*
X85980488Y-54018314D01*
X85979547Y-54018998D01*
X85976682Y-54015055D01*
X85850477Y-53841349D01*
X85698651Y-53689523D01*
X85524944Y-53563317D01*
X85333633Y-53465838D01*
X85333630Y-53465837D01*
X85129428Y-53399489D01*
X85023392Y-53382694D01*
X84917357Y-53365900D01*
X84702643Y-53365900D01*
X84631953Y-53377096D01*
X84490571Y-53399489D01*
X84286369Y-53465837D01*
X84286366Y-53465838D01*
X84095055Y-53563317D01*
X83995949Y-53635322D01*
X83921349Y-53689523D01*
X83921347Y-53689525D01*
X83921346Y-53689525D01*
X83769525Y-53841346D01*
X83769525Y-53841347D01*
X83769523Y-53841349D01*
X83704554Y-53930771D01*
X83640453Y-54018998D01*
X83638562Y-54017624D01*
X83593848Y-54058030D01*
X83524911Y-54069411D01*
X83460765Y-54041715D01*
X83440488Y-54018314D01*
X83439547Y-54018998D01*
X83436682Y-54015055D01*
X83310477Y-53841349D01*
X83158651Y-53689523D01*
X82984944Y-53563317D01*
X82793633Y-53465838D01*
X82793630Y-53465837D01*
X82589428Y-53399489D01*
X82483392Y-53382694D01*
X82377357Y-53365900D01*
X82162643Y-53365900D01*
X82091953Y-53377096D01*
X81950571Y-53399489D01*
X81746369Y-53465837D01*
X81746366Y-53465838D01*
X81555055Y-53563317D01*
X81455949Y-53635322D01*
X81381349Y-53689523D01*
X81381347Y-53689525D01*
X81381346Y-53689525D01*
X81229525Y-53841346D01*
X81229525Y-53841347D01*
X81229523Y-53841349D01*
X81164554Y-53930771D01*
X81100453Y-54018998D01*
X81098694Y-54017720D01*
X81053546Y-54058513D01*
X80984608Y-54069888D01*
X80920464Y-54042188D01*
X80900030Y-54018598D01*
X80899120Y-54019260D01*
X80770093Y-53841672D01*
X80770093Y-53841671D01*
X80618328Y-53689906D01*
X80444682Y-53563744D01*
X80253443Y-53466303D01*
X80049307Y-53399975D01*
X79980000Y-53388997D01*
X79980000Y-54287748D01*
X79926081Y-54256619D01*
X79796880Y-54222000D01*
X79663120Y-54222000D01*
X79533919Y-54256619D01*
X79480000Y-54287748D01*
X79480000Y-53388997D01*
X79410692Y-53399975D01*
X79206556Y-53466303D01*
X79015317Y-53563744D01*
X78841672Y-53689906D01*
X78841671Y-53689906D01*
X78689906Y-53841671D01*
X78689906Y-53841672D01*
X78560880Y-54019260D01*
X78559078Y-54017950D01*
X78513985Y-54058584D01*
X78445032Y-54069868D01*
X78380925Y-54042083D01*
X78360420Y-54018363D01*
X78359547Y-54018998D01*
X78356682Y-54015055D01*
X78230477Y-53841349D01*
X78078651Y-53689523D01*
X77904944Y-53563317D01*
X77713633Y-53465838D01*
X77713630Y-53465837D01*
X77509428Y-53399489D01*
X77403392Y-53382694D01*
X77297357Y-53365900D01*
X77082643Y-53365900D01*
X77011953Y-53377096D01*
X76870571Y-53399489D01*
X76666369Y-53465837D01*
X76666366Y-53465838D01*
X76475055Y-53563317D01*
X76375949Y-53635322D01*
X76301349Y-53689523D01*
X76301347Y-53689525D01*
X76301346Y-53689525D01*
X76149525Y-53841346D01*
X76149525Y-53841347D01*
X76149523Y-53841349D01*
X76084554Y-53930771D01*
X76020453Y-54018998D01*
X76018562Y-54017624D01*
X75973848Y-54058030D01*
X75904911Y-54069411D01*
X75840765Y-54041715D01*
X75820488Y-54018314D01*
X75819547Y-54018998D01*
X75816682Y-54015055D01*
X75690477Y-53841349D01*
X75538651Y-53689523D01*
X75364944Y-53563317D01*
X75173633Y-53465838D01*
X75173630Y-53465837D01*
X74969428Y-53399489D01*
X74863392Y-53382694D01*
X74757357Y-53365900D01*
X74542643Y-53365900D01*
X74471953Y-53377096D01*
X74330571Y-53399489D01*
X74126369Y-53465837D01*
X74126366Y-53465838D01*
X73935055Y-53563317D01*
X73835949Y-53635322D01*
X73761349Y-53689523D01*
X73761347Y-53689525D01*
X73761346Y-53689525D01*
X73609525Y-53841346D01*
X73609525Y-53841347D01*
X73609523Y-53841349D01*
X73544554Y-53930771D01*
X73480453Y-54018998D01*
X73478694Y-54017720D01*
X73433546Y-54058513D01*
X73364608Y-54069888D01*
X73300464Y-54042188D01*
X73280030Y-54018598D01*
X73279120Y-54019260D01*
X73150093Y-53841672D01*
X73150093Y-53841671D01*
X72998328Y-53689906D01*
X72824682Y-53563744D01*
X72633443Y-53466303D01*
X72429307Y-53399975D01*
X72360000Y-53388997D01*
X72360000Y-54287748D01*
X72306081Y-54256619D01*
X72176880Y-54222000D01*
X72043120Y-54222000D01*
X71913919Y-54256619D01*
X71860000Y-54287748D01*
X71860000Y-53388997D01*
X71790692Y-53399975D01*
X71586556Y-53466303D01*
X71395317Y-53563744D01*
X71221672Y-53689906D01*
X71221671Y-53689906D01*
X71069906Y-53841671D01*
X71069906Y-53841672D01*
X70940880Y-54019260D01*
X70939078Y-54017950D01*
X70893985Y-54058584D01*
X70825032Y-54069868D01*
X70760925Y-54042083D01*
X70740420Y-54018363D01*
X70739547Y-54018998D01*
X70736682Y-54015055D01*
X70610477Y-53841349D01*
X70458651Y-53689523D01*
X70284944Y-53563317D01*
X70093633Y-53465838D01*
X70093630Y-53465837D01*
X69889428Y-53399489D01*
X69783392Y-53382694D01*
X69677357Y-53365900D01*
X69462643Y-53365900D01*
X69391953Y-53377096D01*
X69250571Y-53399489D01*
X69046369Y-53465837D01*
X69046366Y-53465838D01*
X68855055Y-53563317D01*
X68755949Y-53635322D01*
X68681349Y-53689523D01*
X68681347Y-53689525D01*
X68681346Y-53689525D01*
X68529525Y-53841346D01*
X68529525Y-53841347D01*
X68529523Y-53841349D01*
X68464554Y-53930771D01*
X68400453Y-54018998D01*
X68398562Y-54017624D01*
X68353848Y-54058030D01*
X68284911Y-54069411D01*
X68220765Y-54041715D01*
X68200488Y-54018314D01*
X68199547Y-54018998D01*
X68196682Y-54015055D01*
X68070477Y-53841349D01*
X67918651Y-53689523D01*
X67744944Y-53563317D01*
X67553633Y-53465838D01*
X67553630Y-53465837D01*
X67349428Y-53399489D01*
X67243392Y-53382694D01*
X67137357Y-53365900D01*
X66922643Y-53365900D01*
X66851953Y-53377096D01*
X66710571Y-53399489D01*
X66506369Y-53465837D01*
X66506366Y-53465838D01*
X66315055Y-53563317D01*
X66215949Y-53635322D01*
X66141349Y-53689523D01*
X66141347Y-53689525D01*
X66141346Y-53689525D01*
X65989525Y-53841346D01*
X65989525Y-53841347D01*
X65989523Y-53841349D01*
X65924554Y-53930771D01*
X65860453Y-54018998D01*
X65858562Y-54017624D01*
X65813848Y-54058030D01*
X65744911Y-54069411D01*
X65680765Y-54041715D01*
X65660488Y-54018314D01*
X65659547Y-54018998D01*
X65656682Y-54015055D01*
X65530477Y-53841349D01*
X65378651Y-53689523D01*
X65204944Y-53563317D01*
X65013633Y-53465838D01*
X65013630Y-53465837D01*
X64809428Y-53399489D01*
X64703392Y-53382694D01*
X64597357Y-53365900D01*
X64382643Y-53365900D01*
X64311953Y-53377096D01*
X64170571Y-53399489D01*
X63966369Y-53465837D01*
X63966366Y-53465838D01*
X63775055Y-53563317D01*
X63675949Y-53635322D01*
X63601349Y-53689523D01*
X63601347Y-53689525D01*
X63601346Y-53689525D01*
X63449525Y-53841346D01*
X63449525Y-53841347D01*
X63449523Y-53841349D01*
X63384554Y-53930771D01*
X63320453Y-54018998D01*
X63318694Y-54017720D01*
X63273546Y-54058513D01*
X63204608Y-54069888D01*
X63140464Y-54042188D01*
X63120030Y-54018598D01*
X63119120Y-54019260D01*
X62990093Y-53841672D01*
X62990093Y-53841671D01*
X62838328Y-53689906D01*
X62664682Y-53563744D01*
X62473443Y-53466303D01*
X62269307Y-53399975D01*
X62200000Y-53388997D01*
X62200000Y-54287748D01*
X62146081Y-54256619D01*
X62016880Y-54222000D01*
X61883120Y-54222000D01*
X61753919Y-54256619D01*
X61700000Y-54287748D01*
X61700000Y-53388997D01*
X61630692Y-53399975D01*
X61426556Y-53466303D01*
X61235317Y-53563744D01*
X61061672Y-53689906D01*
X61061671Y-53689906D01*
X60909906Y-53841671D01*
X60909906Y-53841672D01*
X60780880Y-54019260D01*
X60779078Y-54017950D01*
X60733985Y-54058584D01*
X60665032Y-54069868D01*
X60600925Y-54042083D01*
X60580420Y-54018363D01*
X60579547Y-54018998D01*
X60576682Y-54015055D01*
X60450477Y-53841349D01*
X60298651Y-53689523D01*
X60124944Y-53563317D01*
X59933633Y-53465838D01*
X59933630Y-53465837D01*
X59729428Y-53399489D01*
X59623392Y-53382694D01*
X59517357Y-53365900D01*
X59302643Y-53365900D01*
X59231953Y-53377096D01*
X59090571Y-53399489D01*
X58886369Y-53465837D01*
X58886366Y-53465838D01*
X58695055Y-53563317D01*
X58595949Y-53635322D01*
X58521349Y-53689523D01*
X58521347Y-53689525D01*
X58521346Y-53689525D01*
X58369525Y-53841346D01*
X58369525Y-53841347D01*
X58369523Y-53841349D01*
X58304554Y-53930771D01*
X58240453Y-54018998D01*
X58238562Y-54017624D01*
X58193848Y-54058030D01*
X58124911Y-54069411D01*
X58060765Y-54041715D01*
X58040488Y-54018314D01*
X58039547Y-54018998D01*
X58036682Y-54015055D01*
X57910477Y-53841349D01*
X57758651Y-53689523D01*
X57584944Y-53563317D01*
X57393633Y-53465838D01*
X57393630Y-53465837D01*
X57189428Y-53399489D01*
X57083392Y-53382694D01*
X56977357Y-53365900D01*
X56762643Y-53365900D01*
X56691953Y-53377096D01*
X56550571Y-53399489D01*
X56346369Y-53465837D01*
X56346366Y-53465838D01*
X56155055Y-53563317D01*
X56055949Y-53635322D01*
X55981349Y-53689523D01*
X55981347Y-53689525D01*
X55981346Y-53689525D01*
X55829525Y-53841346D01*
X55829525Y-53841347D01*
X55829523Y-53841349D01*
X55775322Y-53915949D01*
X55703317Y-54015055D01*
X55605838Y-54206366D01*
X55605837Y-54206369D01*
X55539489Y-54410571D01*
X55522406Y-54518424D01*
X55492476Y-54581558D01*
X55487614Y-54586706D01*
X55110597Y-54963723D01*
X55049274Y-54997208D01*
X54979582Y-54992224D01*
X54923649Y-54950352D01*
X54905874Y-54916996D01*
X54869001Y-54811619D01*
X54717907Y-54497869D01*
X54532628Y-54203000D01*
X54532627Y-54202998D01*
X54315512Y-53930743D01*
X54069256Y-53684487D01*
X53797001Y-53467372D01*
X53796999Y-53467371D01*
X53502130Y-53282092D01*
X53188382Y-53130999D01*
X52859692Y-53015985D01*
X52859684Y-53015982D01*
X52605048Y-52957863D01*
X52520171Y-52938491D01*
X52520167Y-52938490D01*
X52520158Y-52938489D01*
X52174124Y-52899500D01*
X52174120Y-52899500D01*
X51825880Y-52899500D01*
X51825875Y-52899500D01*
X51479841Y-52938489D01*
X51479829Y-52938491D01*
X51140315Y-53015982D01*
X51140307Y-53015985D01*
X50811617Y-53130999D01*
X50497869Y-53282092D01*
X50203000Y-53467371D01*
X50202998Y-53467372D01*
X49930743Y-53684487D01*
X49684487Y-53930743D01*
X49467372Y-54202998D01*
X49467371Y-54203000D01*
X49282092Y-54497869D01*
X49130999Y-54811617D01*
X49015985Y-55140307D01*
X49015982Y-55140315D01*
X48938491Y-55479829D01*
X48938489Y-55479841D01*
X48899500Y-55825875D01*
X48550500Y-55825875D01*
X48550500Y-55503480D01*
X48550695Y-55496527D01*
X48553740Y-55442304D01*
X48568656Y-55176700D01*
X48570210Y-55162907D01*
X48623283Y-54850537D01*
X48626377Y-54836985D01*
X48633685Y-54811621D01*
X48714090Y-54532526D01*
X48718682Y-54519406D01*
X48799829Y-54323498D01*
X48839929Y-54226686D01*
X48845951Y-54214180D01*
X48999227Y-53936850D01*
X49006605Y-53925107D01*
X49189972Y-53666676D01*
X49198619Y-53655834D01*
X49409750Y-53419579D01*
X49419581Y-53409749D01*
X49431062Y-53399489D01*
X49655834Y-53198619D01*
X49666676Y-53189972D01*
X49925107Y-53006605D01*
X49936850Y-52999227D01*
X50214180Y-52845951D01*
X50226686Y-52839929D01*
X50519406Y-52718682D01*
X50532526Y-52714090D01*
X50836990Y-52626375D01*
X50850537Y-52623283D01*
X51162907Y-52570210D01*
X51176700Y-52568656D01*
X51496528Y-52550695D01*
X51503481Y-52550500D01*
X51516408Y-52550500D01*
X110483592Y-52550500D01*
X110496519Y-52550500D01*
X110503472Y-52550695D01*
G37*
%TD.AperFunction*%
%TD*%
M02*
