%TF.GenerationSoftware,KiCad,Pcbnew,8.0.6+1*%
%TF.CreationDate,2024-12-15T20:42:44+00:00*%
%TF.ProjectId,pedalboard-soundcard,70656461-6c62-46f6-9172-642d736f756e,1.0.1-RC*%
%TF.SameCoordinates,Original*%
%TF.FileFunction,AssemblyDrawing,Bot*%
%FSLAX46Y46*%
G04 Gerber Fmt 4.6, Leading zero omitted, Abs format (unit mm)*
G04 Created by KiCad (PCBNEW 8.0.6+1) date 2024-12-15 20:42:44*
%MOMM*%
%LPD*%
G01*
G04 APERTURE LIST*
%ADD10C,0.150000*%
%ADD11C,0.100000*%
G04 APERTURE END LIST*
D10*
X71549580Y-84667141D02*
X71597200Y-84619522D01*
X71597200Y-84619522D02*
X71644819Y-84476665D01*
X71644819Y-84476665D02*
X71644819Y-84381427D01*
X71644819Y-84381427D02*
X71597200Y-84238570D01*
X71597200Y-84238570D02*
X71501961Y-84143332D01*
X71501961Y-84143332D02*
X71406723Y-84095713D01*
X71406723Y-84095713D02*
X71216247Y-84048094D01*
X71216247Y-84048094D02*
X71073390Y-84048094D01*
X71073390Y-84048094D02*
X70882914Y-84095713D01*
X70882914Y-84095713D02*
X70787676Y-84143332D01*
X70787676Y-84143332D02*
X70692438Y-84238570D01*
X70692438Y-84238570D02*
X70644819Y-84381427D01*
X70644819Y-84381427D02*
X70644819Y-84476665D01*
X70644819Y-84476665D02*
X70692438Y-84619522D01*
X70692438Y-84619522D02*
X70740057Y-84667141D01*
X71644819Y-85238570D02*
X71597200Y-85143332D01*
X71597200Y-85143332D02*
X71549580Y-85095713D01*
X71549580Y-85095713D02*
X71454342Y-85048094D01*
X71454342Y-85048094D02*
X71168628Y-85048094D01*
X71168628Y-85048094D02*
X71073390Y-85095713D01*
X71073390Y-85095713D02*
X71025771Y-85143332D01*
X71025771Y-85143332D02*
X70978152Y-85238570D01*
X70978152Y-85238570D02*
X70978152Y-85381427D01*
X70978152Y-85381427D02*
X71025771Y-85476665D01*
X71025771Y-85476665D02*
X71073390Y-85524284D01*
X71073390Y-85524284D02*
X71168628Y-85571903D01*
X71168628Y-85571903D02*
X71454342Y-85571903D01*
X71454342Y-85571903D02*
X71549580Y-85524284D01*
X71549580Y-85524284D02*
X71597200Y-85476665D01*
X71597200Y-85476665D02*
X71644819Y-85381427D01*
X71644819Y-85381427D02*
X71644819Y-85238570D01*
X70978152Y-86000475D02*
X71644819Y-86000475D01*
X71073390Y-86000475D02*
X71025771Y-86048094D01*
X71025771Y-86048094D02*
X70978152Y-86143332D01*
X70978152Y-86143332D02*
X70978152Y-86286189D01*
X70978152Y-86286189D02*
X71025771Y-86381427D01*
X71025771Y-86381427D02*
X71121009Y-86429046D01*
X71121009Y-86429046D02*
X71644819Y-86429046D01*
X70978152Y-86905237D02*
X71644819Y-86905237D01*
X71073390Y-86905237D02*
X71025771Y-86952856D01*
X71025771Y-86952856D02*
X70978152Y-87048094D01*
X70978152Y-87048094D02*
X70978152Y-87190951D01*
X70978152Y-87190951D02*
X71025771Y-87286189D01*
X71025771Y-87286189D02*
X71121009Y-87333808D01*
X71121009Y-87333808D02*
X71644819Y-87333808D01*
X71740057Y-87571904D02*
X71740057Y-88333808D01*
X70644819Y-88762380D02*
X70644819Y-88857618D01*
X70644819Y-88857618D02*
X70692438Y-88952856D01*
X70692438Y-88952856D02*
X70740057Y-89000475D01*
X70740057Y-89000475D02*
X70835295Y-89048094D01*
X70835295Y-89048094D02*
X71025771Y-89095713D01*
X71025771Y-89095713D02*
X71263866Y-89095713D01*
X71263866Y-89095713D02*
X71454342Y-89048094D01*
X71454342Y-89048094D02*
X71549580Y-89000475D01*
X71549580Y-89000475D02*
X71597200Y-88952856D01*
X71597200Y-88952856D02*
X71644819Y-88857618D01*
X71644819Y-88857618D02*
X71644819Y-88762380D01*
X71644819Y-88762380D02*
X71597200Y-88667142D01*
X71597200Y-88667142D02*
X71549580Y-88619523D01*
X71549580Y-88619523D02*
X71454342Y-88571904D01*
X71454342Y-88571904D02*
X71263866Y-88524285D01*
X71263866Y-88524285D02*
X71025771Y-88524285D01*
X71025771Y-88524285D02*
X70835295Y-88571904D01*
X70835295Y-88571904D02*
X70740057Y-88619523D01*
X70740057Y-88619523D02*
X70692438Y-88667142D01*
X70692438Y-88667142D02*
X70644819Y-88762380D01*
X70740057Y-89476666D02*
X70692438Y-89524285D01*
X70692438Y-89524285D02*
X70644819Y-89619523D01*
X70644819Y-89619523D02*
X70644819Y-89857618D01*
X70644819Y-89857618D02*
X70692438Y-89952856D01*
X70692438Y-89952856D02*
X70740057Y-90000475D01*
X70740057Y-90000475D02*
X70835295Y-90048094D01*
X70835295Y-90048094D02*
X70930533Y-90048094D01*
X70930533Y-90048094D02*
X71073390Y-90000475D01*
X71073390Y-90000475D02*
X71644819Y-89429047D01*
X71644819Y-89429047D02*
X71644819Y-90048094D01*
X71644819Y-90381428D02*
X70978152Y-90905237D01*
X70978152Y-90381428D02*
X71644819Y-90905237D01*
X70644819Y-91476666D02*
X70644819Y-91571904D01*
X70644819Y-91571904D02*
X70692438Y-91667142D01*
X70692438Y-91667142D02*
X70740057Y-91714761D01*
X70740057Y-91714761D02*
X70835295Y-91762380D01*
X70835295Y-91762380D02*
X71025771Y-91809999D01*
X71025771Y-91809999D02*
X71263866Y-91809999D01*
X71263866Y-91809999D02*
X71454342Y-91762380D01*
X71454342Y-91762380D02*
X71549580Y-91714761D01*
X71549580Y-91714761D02*
X71597200Y-91667142D01*
X71597200Y-91667142D02*
X71644819Y-91571904D01*
X71644819Y-91571904D02*
X71644819Y-91476666D01*
X71644819Y-91476666D02*
X71597200Y-91381428D01*
X71597200Y-91381428D02*
X71549580Y-91333809D01*
X71549580Y-91333809D02*
X71454342Y-91286190D01*
X71454342Y-91286190D02*
X71263866Y-91238571D01*
X71263866Y-91238571D02*
X71025771Y-91238571D01*
X71025771Y-91238571D02*
X70835295Y-91286190D01*
X70835295Y-91286190D02*
X70740057Y-91333809D01*
X70740057Y-91333809D02*
X70692438Y-91381428D01*
X70692438Y-91381428D02*
X70644819Y-91476666D01*
X70644819Y-92143333D02*
X70644819Y-92762380D01*
X70644819Y-92762380D02*
X71025771Y-92429047D01*
X71025771Y-92429047D02*
X71025771Y-92571904D01*
X71025771Y-92571904D02*
X71073390Y-92667142D01*
X71073390Y-92667142D02*
X71121009Y-92714761D01*
X71121009Y-92714761D02*
X71216247Y-92762380D01*
X71216247Y-92762380D02*
X71454342Y-92762380D01*
X71454342Y-92762380D02*
X71549580Y-92714761D01*
X71549580Y-92714761D02*
X71597200Y-92667142D01*
X71597200Y-92667142D02*
X71644819Y-92571904D01*
X71644819Y-92571904D02*
X71644819Y-92286190D01*
X71644819Y-92286190D02*
X71597200Y-92190952D01*
X71597200Y-92190952D02*
X71549580Y-92143333D01*
X71740057Y-92952857D02*
X71740057Y-93714761D01*
X70644819Y-94143333D02*
X70644819Y-94333809D01*
X70644819Y-94333809D02*
X70692438Y-94429047D01*
X70692438Y-94429047D02*
X70787676Y-94524285D01*
X70787676Y-94524285D02*
X70978152Y-94571904D01*
X70978152Y-94571904D02*
X71311485Y-94571904D01*
X71311485Y-94571904D02*
X71501961Y-94524285D01*
X71501961Y-94524285D02*
X71597200Y-94429047D01*
X71597200Y-94429047D02*
X71644819Y-94333809D01*
X71644819Y-94333809D02*
X71644819Y-94143333D01*
X71644819Y-94143333D02*
X71597200Y-94048095D01*
X71597200Y-94048095D02*
X71501961Y-93952857D01*
X71501961Y-93952857D02*
X71311485Y-93905238D01*
X71311485Y-93905238D02*
X70978152Y-93905238D01*
X70978152Y-93905238D02*
X70787676Y-93952857D01*
X70787676Y-93952857D02*
X70692438Y-94048095D01*
X70692438Y-94048095D02*
X70644819Y-94143333D01*
X71644819Y-95429047D02*
X70644819Y-95429047D01*
X71597200Y-95429047D02*
X71644819Y-95333809D01*
X71644819Y-95333809D02*
X71644819Y-95143333D01*
X71644819Y-95143333D02*
X71597200Y-95048095D01*
X71597200Y-95048095D02*
X71549580Y-95000476D01*
X71549580Y-95000476D02*
X71454342Y-94952857D01*
X71454342Y-94952857D02*
X71168628Y-94952857D01*
X71168628Y-94952857D02*
X71073390Y-95000476D01*
X71073390Y-95000476D02*
X71025771Y-95048095D01*
X71025771Y-95048095D02*
X70978152Y-95143333D01*
X70978152Y-95143333D02*
X70978152Y-95333809D01*
X70978152Y-95333809D02*
X71025771Y-95429047D01*
X71644819Y-96333809D02*
X70644819Y-96333809D01*
X71597200Y-96333809D02*
X71644819Y-96238571D01*
X71644819Y-96238571D02*
X71644819Y-96048095D01*
X71644819Y-96048095D02*
X71597200Y-95952857D01*
X71597200Y-95952857D02*
X71549580Y-95905238D01*
X71549580Y-95905238D02*
X71454342Y-95857619D01*
X71454342Y-95857619D02*
X71168628Y-95857619D01*
X71168628Y-95857619D02*
X71073390Y-95905238D01*
X71073390Y-95905238D02*
X71025771Y-95952857D01*
X71025771Y-95952857D02*
X70978152Y-96048095D01*
X70978152Y-96048095D02*
X70978152Y-96238571D01*
X70978152Y-96238571D02*
X71025771Y-96333809D01*
X71740057Y-96571905D02*
X71740057Y-97333809D01*
X71121009Y-97571905D02*
X71121009Y-97905238D01*
X71644819Y-98048095D02*
X71644819Y-97571905D01*
X71644819Y-97571905D02*
X70644819Y-97571905D01*
X70644819Y-97571905D02*
X70644819Y-98048095D01*
X70978152Y-98381429D02*
X71644819Y-98619524D01*
X71644819Y-98619524D02*
X70978152Y-98857619D01*
X71597200Y-99619524D02*
X71644819Y-99524286D01*
X71644819Y-99524286D02*
X71644819Y-99333810D01*
X71644819Y-99333810D02*
X71597200Y-99238572D01*
X71597200Y-99238572D02*
X71501961Y-99190953D01*
X71501961Y-99190953D02*
X71121009Y-99190953D01*
X71121009Y-99190953D02*
X71025771Y-99238572D01*
X71025771Y-99238572D02*
X70978152Y-99333810D01*
X70978152Y-99333810D02*
X70978152Y-99524286D01*
X70978152Y-99524286D02*
X71025771Y-99619524D01*
X71025771Y-99619524D02*
X71121009Y-99667143D01*
X71121009Y-99667143D02*
X71216247Y-99667143D01*
X71216247Y-99667143D02*
X71311485Y-99190953D01*
X70978152Y-100095715D02*
X71644819Y-100095715D01*
X71073390Y-100095715D02*
X71025771Y-100143334D01*
X71025771Y-100143334D02*
X70978152Y-100238572D01*
X70978152Y-100238572D02*
X70978152Y-100381429D01*
X70978152Y-100381429D02*
X71025771Y-100476667D01*
X71025771Y-100476667D02*
X71121009Y-100524286D01*
X71121009Y-100524286D02*
X71644819Y-100524286D01*
X66213333Y-91764819D02*
X66213333Y-92479104D01*
X66213333Y-92479104D02*
X66260952Y-92621961D01*
X66260952Y-92621961D02*
X66356190Y-92717200D01*
X66356190Y-92717200D02*
X66499047Y-92764819D01*
X66499047Y-92764819D02*
X66594285Y-92764819D01*
X65832380Y-91764819D02*
X65213333Y-91764819D01*
X65213333Y-91764819D02*
X65546666Y-92145771D01*
X65546666Y-92145771D02*
X65403809Y-92145771D01*
X65403809Y-92145771D02*
X65308571Y-92193390D01*
X65308571Y-92193390D02*
X65260952Y-92241009D01*
X65260952Y-92241009D02*
X65213333Y-92336247D01*
X65213333Y-92336247D02*
X65213333Y-92574342D01*
X65213333Y-92574342D02*
X65260952Y-92669580D01*
X65260952Y-92669580D02*
X65308571Y-92717200D01*
X65308571Y-92717200D02*
X65403809Y-92764819D01*
X65403809Y-92764819D02*
X65689523Y-92764819D01*
X65689523Y-92764819D02*
X65784761Y-92717200D01*
X65784761Y-92717200D02*
X65832380Y-92669580D01*
X116562858Y-97609580D02*
X116610477Y-97657200D01*
X116610477Y-97657200D02*
X116753334Y-97704819D01*
X116753334Y-97704819D02*
X116848572Y-97704819D01*
X116848572Y-97704819D02*
X116991429Y-97657200D01*
X116991429Y-97657200D02*
X117086667Y-97561961D01*
X117086667Y-97561961D02*
X117134286Y-97466723D01*
X117134286Y-97466723D02*
X117181905Y-97276247D01*
X117181905Y-97276247D02*
X117181905Y-97133390D01*
X117181905Y-97133390D02*
X117134286Y-96942914D01*
X117134286Y-96942914D02*
X117086667Y-96847676D01*
X117086667Y-96847676D02*
X116991429Y-96752438D01*
X116991429Y-96752438D02*
X116848572Y-96704819D01*
X116848572Y-96704819D02*
X116753334Y-96704819D01*
X116753334Y-96704819D02*
X116610477Y-96752438D01*
X116610477Y-96752438D02*
X116562858Y-96800057D01*
X115991429Y-97704819D02*
X116086667Y-97657200D01*
X116086667Y-97657200D02*
X116134286Y-97609580D01*
X116134286Y-97609580D02*
X116181905Y-97514342D01*
X116181905Y-97514342D02*
X116181905Y-97228628D01*
X116181905Y-97228628D02*
X116134286Y-97133390D01*
X116134286Y-97133390D02*
X116086667Y-97085771D01*
X116086667Y-97085771D02*
X115991429Y-97038152D01*
X115991429Y-97038152D02*
X115848572Y-97038152D01*
X115848572Y-97038152D02*
X115753334Y-97085771D01*
X115753334Y-97085771D02*
X115705715Y-97133390D01*
X115705715Y-97133390D02*
X115658096Y-97228628D01*
X115658096Y-97228628D02*
X115658096Y-97514342D01*
X115658096Y-97514342D02*
X115705715Y-97609580D01*
X115705715Y-97609580D02*
X115753334Y-97657200D01*
X115753334Y-97657200D02*
X115848572Y-97704819D01*
X115848572Y-97704819D02*
X115991429Y-97704819D01*
X115229524Y-97038152D02*
X115229524Y-97704819D01*
X115229524Y-97133390D02*
X115181905Y-97085771D01*
X115181905Y-97085771D02*
X115086667Y-97038152D01*
X115086667Y-97038152D02*
X114943810Y-97038152D01*
X114943810Y-97038152D02*
X114848572Y-97085771D01*
X114848572Y-97085771D02*
X114800953Y-97181009D01*
X114800953Y-97181009D02*
X114800953Y-97704819D01*
X114324762Y-97038152D02*
X114324762Y-97704819D01*
X114324762Y-97133390D02*
X114277143Y-97085771D01*
X114277143Y-97085771D02*
X114181905Y-97038152D01*
X114181905Y-97038152D02*
X114039048Y-97038152D01*
X114039048Y-97038152D02*
X113943810Y-97085771D01*
X113943810Y-97085771D02*
X113896191Y-97181009D01*
X113896191Y-97181009D02*
X113896191Y-97704819D01*
X113658096Y-97800057D02*
X112896191Y-97800057D01*
X112467619Y-96704819D02*
X112372381Y-96704819D01*
X112372381Y-96704819D02*
X112277143Y-96752438D01*
X112277143Y-96752438D02*
X112229524Y-96800057D01*
X112229524Y-96800057D02*
X112181905Y-96895295D01*
X112181905Y-96895295D02*
X112134286Y-97085771D01*
X112134286Y-97085771D02*
X112134286Y-97323866D01*
X112134286Y-97323866D02*
X112181905Y-97514342D01*
X112181905Y-97514342D02*
X112229524Y-97609580D01*
X112229524Y-97609580D02*
X112277143Y-97657200D01*
X112277143Y-97657200D02*
X112372381Y-97704819D01*
X112372381Y-97704819D02*
X112467619Y-97704819D01*
X112467619Y-97704819D02*
X112562857Y-97657200D01*
X112562857Y-97657200D02*
X112610476Y-97609580D01*
X112610476Y-97609580D02*
X112658095Y-97514342D01*
X112658095Y-97514342D02*
X112705714Y-97323866D01*
X112705714Y-97323866D02*
X112705714Y-97085771D01*
X112705714Y-97085771D02*
X112658095Y-96895295D01*
X112658095Y-96895295D02*
X112610476Y-96800057D01*
X112610476Y-96800057D02*
X112562857Y-96752438D01*
X112562857Y-96752438D02*
X112467619Y-96704819D01*
X111753333Y-96800057D02*
X111705714Y-96752438D01*
X111705714Y-96752438D02*
X111610476Y-96704819D01*
X111610476Y-96704819D02*
X111372381Y-96704819D01*
X111372381Y-96704819D02*
X111277143Y-96752438D01*
X111277143Y-96752438D02*
X111229524Y-96800057D01*
X111229524Y-96800057D02*
X111181905Y-96895295D01*
X111181905Y-96895295D02*
X111181905Y-96990533D01*
X111181905Y-96990533D02*
X111229524Y-97133390D01*
X111229524Y-97133390D02*
X111800952Y-97704819D01*
X111800952Y-97704819D02*
X111181905Y-97704819D01*
X110848571Y-97704819D02*
X110324762Y-97038152D01*
X110848571Y-97038152D02*
X110324762Y-97704819D01*
X109753333Y-96704819D02*
X109658095Y-96704819D01*
X109658095Y-96704819D02*
X109562857Y-96752438D01*
X109562857Y-96752438D02*
X109515238Y-96800057D01*
X109515238Y-96800057D02*
X109467619Y-96895295D01*
X109467619Y-96895295D02*
X109420000Y-97085771D01*
X109420000Y-97085771D02*
X109420000Y-97323866D01*
X109420000Y-97323866D02*
X109467619Y-97514342D01*
X109467619Y-97514342D02*
X109515238Y-97609580D01*
X109515238Y-97609580D02*
X109562857Y-97657200D01*
X109562857Y-97657200D02*
X109658095Y-97704819D01*
X109658095Y-97704819D02*
X109753333Y-97704819D01*
X109753333Y-97704819D02*
X109848571Y-97657200D01*
X109848571Y-97657200D02*
X109896190Y-97609580D01*
X109896190Y-97609580D02*
X109943809Y-97514342D01*
X109943809Y-97514342D02*
X109991428Y-97323866D01*
X109991428Y-97323866D02*
X109991428Y-97085771D01*
X109991428Y-97085771D02*
X109943809Y-96895295D01*
X109943809Y-96895295D02*
X109896190Y-96800057D01*
X109896190Y-96800057D02*
X109848571Y-96752438D01*
X109848571Y-96752438D02*
X109753333Y-96704819D01*
X109086666Y-96704819D02*
X108467619Y-96704819D01*
X108467619Y-96704819D02*
X108800952Y-97085771D01*
X108800952Y-97085771D02*
X108658095Y-97085771D01*
X108658095Y-97085771D02*
X108562857Y-97133390D01*
X108562857Y-97133390D02*
X108515238Y-97181009D01*
X108515238Y-97181009D02*
X108467619Y-97276247D01*
X108467619Y-97276247D02*
X108467619Y-97514342D01*
X108467619Y-97514342D02*
X108515238Y-97609580D01*
X108515238Y-97609580D02*
X108562857Y-97657200D01*
X108562857Y-97657200D02*
X108658095Y-97704819D01*
X108658095Y-97704819D02*
X108943809Y-97704819D01*
X108943809Y-97704819D02*
X109039047Y-97657200D01*
X109039047Y-97657200D02*
X109086666Y-97609580D01*
X108277143Y-97800057D02*
X107515238Y-97800057D01*
X107086666Y-96704819D02*
X106896190Y-96704819D01*
X106896190Y-96704819D02*
X106800952Y-96752438D01*
X106800952Y-96752438D02*
X106705714Y-96847676D01*
X106705714Y-96847676D02*
X106658095Y-97038152D01*
X106658095Y-97038152D02*
X106658095Y-97371485D01*
X106658095Y-97371485D02*
X106705714Y-97561961D01*
X106705714Y-97561961D02*
X106800952Y-97657200D01*
X106800952Y-97657200D02*
X106896190Y-97704819D01*
X106896190Y-97704819D02*
X107086666Y-97704819D01*
X107086666Y-97704819D02*
X107181904Y-97657200D01*
X107181904Y-97657200D02*
X107277142Y-97561961D01*
X107277142Y-97561961D02*
X107324761Y-97371485D01*
X107324761Y-97371485D02*
X107324761Y-97038152D01*
X107324761Y-97038152D02*
X107277142Y-96847676D01*
X107277142Y-96847676D02*
X107181904Y-96752438D01*
X107181904Y-96752438D02*
X107086666Y-96704819D01*
X105800952Y-97704819D02*
X105800952Y-96704819D01*
X105800952Y-97657200D02*
X105896190Y-97704819D01*
X105896190Y-97704819D02*
X106086666Y-97704819D01*
X106086666Y-97704819D02*
X106181904Y-97657200D01*
X106181904Y-97657200D02*
X106229523Y-97609580D01*
X106229523Y-97609580D02*
X106277142Y-97514342D01*
X106277142Y-97514342D02*
X106277142Y-97228628D01*
X106277142Y-97228628D02*
X106229523Y-97133390D01*
X106229523Y-97133390D02*
X106181904Y-97085771D01*
X106181904Y-97085771D02*
X106086666Y-97038152D01*
X106086666Y-97038152D02*
X105896190Y-97038152D01*
X105896190Y-97038152D02*
X105800952Y-97085771D01*
X104896190Y-97704819D02*
X104896190Y-96704819D01*
X104896190Y-97657200D02*
X104991428Y-97704819D01*
X104991428Y-97704819D02*
X105181904Y-97704819D01*
X105181904Y-97704819D02*
X105277142Y-97657200D01*
X105277142Y-97657200D02*
X105324761Y-97609580D01*
X105324761Y-97609580D02*
X105372380Y-97514342D01*
X105372380Y-97514342D02*
X105372380Y-97228628D01*
X105372380Y-97228628D02*
X105324761Y-97133390D01*
X105324761Y-97133390D02*
X105277142Y-97085771D01*
X105277142Y-97085771D02*
X105181904Y-97038152D01*
X105181904Y-97038152D02*
X104991428Y-97038152D01*
X104991428Y-97038152D02*
X104896190Y-97085771D01*
X104658095Y-97800057D02*
X103896190Y-97800057D01*
X103658094Y-97181009D02*
X103324761Y-97181009D01*
X103181904Y-97704819D02*
X103658094Y-97704819D01*
X103658094Y-97704819D02*
X103658094Y-96704819D01*
X103658094Y-96704819D02*
X103181904Y-96704819D01*
X102848570Y-97038152D02*
X102610475Y-97704819D01*
X102610475Y-97704819D02*
X102372380Y-97038152D01*
X101610475Y-97657200D02*
X101705713Y-97704819D01*
X101705713Y-97704819D02*
X101896189Y-97704819D01*
X101896189Y-97704819D02*
X101991427Y-97657200D01*
X101991427Y-97657200D02*
X102039046Y-97561961D01*
X102039046Y-97561961D02*
X102039046Y-97181009D01*
X102039046Y-97181009D02*
X101991427Y-97085771D01*
X101991427Y-97085771D02*
X101896189Y-97038152D01*
X101896189Y-97038152D02*
X101705713Y-97038152D01*
X101705713Y-97038152D02*
X101610475Y-97085771D01*
X101610475Y-97085771D02*
X101562856Y-97181009D01*
X101562856Y-97181009D02*
X101562856Y-97276247D01*
X101562856Y-97276247D02*
X102039046Y-97371485D01*
X101134284Y-97038152D02*
X101134284Y-97704819D01*
X101134284Y-97133390D02*
X101086665Y-97085771D01*
X101086665Y-97085771D02*
X100991427Y-97038152D01*
X100991427Y-97038152D02*
X100848570Y-97038152D01*
X100848570Y-97038152D02*
X100753332Y-97085771D01*
X100753332Y-97085771D02*
X100705713Y-97181009D01*
X100705713Y-97181009D02*
X100705713Y-97704819D01*
X108374819Y-91606666D02*
X109089104Y-91606666D01*
X109089104Y-91606666D02*
X109231961Y-91559047D01*
X109231961Y-91559047D02*
X109327200Y-91463809D01*
X109327200Y-91463809D02*
X109374819Y-91320952D01*
X109374819Y-91320952D02*
X109374819Y-91225714D01*
X108470057Y-92035238D02*
X108422438Y-92082857D01*
X108422438Y-92082857D02*
X108374819Y-92178095D01*
X108374819Y-92178095D02*
X108374819Y-92416190D01*
X108374819Y-92416190D02*
X108422438Y-92511428D01*
X108422438Y-92511428D02*
X108470057Y-92559047D01*
X108470057Y-92559047D02*
X108565295Y-92606666D01*
X108565295Y-92606666D02*
X108660533Y-92606666D01*
X108660533Y-92606666D02*
X108803390Y-92559047D01*
X108803390Y-92559047D02*
X109374819Y-91987619D01*
X109374819Y-91987619D02*
X109374819Y-92606666D01*
%TO.C,H4*%
X111375000Y-56000000D02*
G75*
G02*
X108625000Y-56000000I-1375000J0D01*
G01*
X108625000Y-56000000D02*
G75*
G02*
X111375000Y-56000000I1375000J0D01*
G01*
X113100000Y-56000000D02*
G75*
G02*
X106900000Y-56000000I-3100000J0D01*
G01*
X106900000Y-56000000D02*
G75*
G02*
X113100000Y-56000000I3100000J0D01*
G01*
%TO.C,H3*%
X53375000Y-56000000D02*
G75*
G02*
X50625000Y-56000000I-1375000J0D01*
G01*
X50625000Y-56000000D02*
G75*
G02*
X53375000Y-56000000I1375000J0D01*
G01*
X55100000Y-56000000D02*
G75*
G02*
X48900000Y-56000000I-3100000J0D01*
G01*
X48900000Y-56000000D02*
G75*
G02*
X55100000Y-56000000I3100000J0D01*
G01*
%TO.C,H1*%
X53375000Y-105000000D02*
G75*
G02*
X50625000Y-105000000I-1375000J0D01*
G01*
X50625000Y-105000000D02*
G75*
G02*
X53375000Y-105000000I1375000J0D01*
G01*
X55100000Y-105000000D02*
G75*
G02*
X48900000Y-105000000I-3100000J0D01*
G01*
X48900000Y-105000000D02*
G75*
G02*
X55100000Y-105000000I3100000J0D01*
G01*
%TO.C,H2*%
X111375000Y-105000000D02*
G75*
G02*
X108625000Y-105000000I-1375000J0D01*
G01*
X108625000Y-105000000D02*
G75*
G02*
X111375000Y-105000000I1375000J0D01*
G01*
X113100000Y-105000000D02*
G75*
G02*
X106900000Y-105000000I-3100000J0D01*
G01*
X106900000Y-105000000D02*
G75*
G02*
X113100000Y-105000000I3100000J0D01*
G01*
D11*
%TO.C,J3*%
X62070000Y-89770000D02*
X69690000Y-89770000D01*
X62070000Y-93850000D02*
X62070000Y-89770000D01*
X63070000Y-94850000D02*
X62070000Y-93850000D01*
X69690000Y-89770000D02*
X69690000Y-94850000D01*
X69690000Y-94850000D02*
X63070000Y-94850000D01*
%TO.C,J2*%
X106380000Y-89130000D02*
X107380000Y-88130000D01*
X106380000Y-95750000D02*
X106380000Y-89130000D01*
X107380000Y-88130000D02*
X111460000Y-88130000D01*
X111460000Y-88130000D02*
X111460000Y-95750000D01*
X111460000Y-95750000D02*
X106380000Y-95750000D01*
%TD*%
M02*
