G04 #@! TF.GenerationSoftware,KiCad,Pcbnew,7.0.9-7.0.9~ubuntu23.04.1*
G04 #@! TF.CreationDate,2023-12-27T00:13:06+00:00*
G04 #@! TF.ProjectId,pedalboard-soundcard,70656461-6c62-46f6-9172-642d736f756e,0.0.1*
G04 #@! TF.SameCoordinates,Original*
G04 #@! TF.FileFunction,Legend,Bot*
G04 #@! TF.FilePolarity,Positive*
%FSLAX46Y46*%
G04 Gerber Fmt 4.6, Leading zero omitted, Abs format (unit mm)*
G04 Created by KiCad (PCBNEW 7.0.9-7.0.9~ubuntu23.04.1) date 2023-12-27 00:13:06*
%MOMM*%
%LPD*%
G01*
G04 APERTURE LIST*
%ADD10C,6.200000*%
%ADD11R,1.727200X1.727200*%
%ADD12O,1.727200X1.727200*%
%ADD13R,1.700000X1.700000*%
%ADD14O,1.700000X1.700000*%
G04 APERTURE END LIST*
%LPC*%
D10*
X110000000Y-56000000D03*
X52000000Y-56000000D03*
X52000000Y-105000000D03*
X110000000Y-105000000D03*
D11*
X56870000Y-57270000D03*
D12*
X56870000Y-54730000D03*
X59410000Y-57270000D03*
X59410000Y-54730000D03*
X61950000Y-57270000D03*
X61950000Y-54730000D03*
X64490000Y-57270000D03*
X64490000Y-54730000D03*
X67030000Y-57270000D03*
X67030000Y-54730000D03*
X69570000Y-57270000D03*
X69570000Y-54730000D03*
X72110000Y-57270000D03*
X72110000Y-54730000D03*
X74650000Y-57270000D03*
X74650000Y-54730000D03*
X77190000Y-57270000D03*
X77190000Y-54730000D03*
X79730000Y-57270000D03*
X79730000Y-54730000D03*
X82270000Y-57270000D03*
X82270000Y-54730000D03*
X84810000Y-57270000D03*
X84810000Y-54730000D03*
X87350000Y-57270000D03*
X87350000Y-54730000D03*
X89890000Y-57270000D03*
X89890000Y-54730000D03*
X92430000Y-57270000D03*
X92430000Y-54730000D03*
X94970000Y-57270000D03*
X94970000Y-54730000D03*
X97510000Y-57270000D03*
X97510000Y-54730000D03*
X100050000Y-57270000D03*
X100050000Y-54730000D03*
X102590000Y-57270000D03*
X102590000Y-54730000D03*
X105130000Y-57270000D03*
X105130000Y-54730000D03*
D13*
X63340000Y-93580000D03*
D14*
X63340000Y-91040000D03*
X65880000Y-93580000D03*
X65880000Y-91040000D03*
X68420000Y-93580000D03*
X68420000Y-91040000D03*
D13*
X107650000Y-89400000D03*
D14*
X110190000Y-89400000D03*
X107650000Y-91940000D03*
X110190000Y-91940000D03*
X107650000Y-94480000D03*
X110190000Y-94480000D03*
%LPD*%
M02*
