M48
; DRILL file {KiCad 8.0.4+1} date 2024-10-04T12:56:34+0000
; FORMAT={-:-/ absolute / metric / decimal}
; #@! TF.CreationDate,2024-10-04T12:56:34+00:00
; #@! TF.GenerationSoftware,Kicad,Pcbnew,8.0.4+1
; #@! TF.FileFunction,Plated,1,2,PTH
FMAT,2
METRIC
; #@! TA.AperFunction,Plated,PTH,ComponentDrill
T1C0.300
; #@! TA.AperFunction,Plated,PTH,ViaDrill
T2C0.400
; #@! TA.AperFunction,Plated,PTH,ComponentDrill
T3C0.400
; #@! TA.AperFunction,Plated,PTH,ViaDrill
T4C0.600
; #@! TA.AperFunction,Plated,PTH,ComponentDrill
T5C0.800
; #@! TA.AperFunction,Plated,PTH,ComponentDrill
T6C1.000
; #@! TA.AperFunction,Plated,PTH,ComponentDrill
T7C1.016
%
G90
G05
T1
X92.95Y-90.477
X92.95Y-91.344
X92.95Y-92.21
X92.95Y-93.077
X93.817Y-90.477
X93.817Y-91.344
X93.817Y-92.21
X93.817Y-93.077
X94.683Y-90.477
X94.683Y-91.344
X94.683Y-92.21
X94.683Y-93.077
X95.55Y-90.477
X95.55Y-91.344
X95.55Y-92.21
X95.55Y-93.077
T2
X54.37Y-95.12
X58.45Y-95.92
X59.42Y-76.99
X60.775Y-78.25
X60.92Y-60.29
X61.344Y-76.619
X63.92Y-79.68
X64.31Y-73.64
X64.92Y-80.39
X65.845Y-80.745
X66.29Y-73.7
X68.35Y-76.15
X71.62Y-86.1
X71.71Y-74.81
X71.71Y-78.35
X73.07Y-95.93
X73.77Y-74.47
X75.65Y-83.51
X76.62Y-85.53
X77.11Y-95.07
X82.13Y-85.47
X82.53Y-72.69
X82.625Y-77.575
X82.63Y-82.61
X82.84Y-61.15
X84.24Y-72.36
X85.38Y-59.97
X87.03Y-77.6
X87.12Y-64.44
X87.588Y-81.535
X87.8Y-84.48
X88.24Y-82.19
X88.77Y-72.6
X89.45Y-88.87
X90.78Y-91.68
X90.84Y-77.54
X91.15Y-60.6
X91.43Y-93.99
X91.901Y-88.689
X92.5Y-97.07
X92.5Y-100.33
X92.56Y-85.89
X94.47Y-100.29
X96.81Y-100.23
X99.94Y-62.78
X100.75Y-86.49
X100.75Y-88.44
X100.75Y-90.41
X100.9Y-79.96
X102.46Y-84.98
X102.53Y-99.42
X104.44Y-84.98
X104.5Y-99.37
T4
X56.095Y-59.535
X68.4Y-71.45
X69.549Y-65.45
X76.83Y-75.73
X80.72Y-79.67
X86.97Y-79.67
X97.735Y-79.325
T6
X63.34Y-91.04
X63.34Y-93.58
X65.88Y-91.04
X65.88Y-93.58
X68.42Y-91.04
X68.42Y-93.58
X107.65Y-89.4
X107.65Y-91.94
X107.65Y-94.48
X110.19Y-89.4
X110.19Y-91.94
X110.19Y-94.48
T7
X56.87Y-54.73
X56.87Y-57.27
X59.41Y-54.73
X59.41Y-57.27
X61.95Y-54.73
X61.95Y-57.27
X64.49Y-54.73
X64.49Y-57.27
X67.03Y-54.73
X67.03Y-57.27
X69.57Y-54.73
X69.57Y-57.27
X72.11Y-54.73
X72.11Y-57.27
X74.65Y-54.73
X74.65Y-57.27
X77.19Y-54.73
X77.19Y-57.27
X79.73Y-54.73
X79.73Y-57.27
X82.27Y-54.73
X82.27Y-57.27
X84.81Y-54.73
X84.81Y-57.27
X87.35Y-54.73
X87.35Y-57.27
X89.89Y-54.73
X89.89Y-57.27
X92.43Y-54.73
X92.43Y-57.27
X94.97Y-54.73
X94.97Y-57.27
X97.51Y-54.73
X97.51Y-57.27
X100.05Y-54.73
X100.05Y-57.27
X102.59Y-54.73
X102.59Y-57.27
X105.13Y-54.73
X105.13Y-57.27
T3
G00X60.94Y-98.5
M15
G01X60.94Y-99.5
M16
G05
G00X65.44Y-104.0
M15
G01X66.44Y-104.0
M16
G05
G00X70.94Y-99.5
M15
G01X70.94Y-98.5
M16
G05
G00X80.1Y-98.5
M15
G01X80.1Y-99.5
M16
G05
G00X84.6Y-104.0
M15
G01X85.6Y-104.0
M16
G05
G00X90.1Y-99.5
M15
G01X90.1Y-98.5
M16
G05
T5
G00X63.44Y-98.65
M15
G01X63.44Y-99.35
M16
G05
G00X68.44Y-99.35
M15
G01X68.44Y-98.65
M16
G05
G00X82.6Y-98.65
M15
G01X82.6Y-99.35
M16
G05
G00X87.6Y-99.35
M15
G01X87.6Y-98.65
M16
G05
M30
