G04 #@! TF.GenerationSoftware,KiCad,Pcbnew,7.0.9-7.0.9~ubuntu23.04.1*
G04 #@! TF.CreationDate,2023-12-27T19:17:46+00:00*
G04 #@! TF.ProjectId,pedalboard-soundcard,70656461-6c62-46f6-9172-642d736f756e,0.0.1*
G04 #@! TF.SameCoordinates,Original*
G04 #@! TF.FileFunction,Soldermask,Top*
G04 #@! TF.FilePolarity,Negative*
%FSLAX46Y46*%
G04 Gerber Fmt 4.6, Leading zero omitted, Abs format (unit mm)*
G04 Created by KiCad (PCBNEW 7.0.9-7.0.9~ubuntu23.04.1) date 2023-12-27 19:17:46*
%MOMM*%
%LPD*%
G01*
G04 APERTURE LIST*
%ADD10C,6.200000*%
%ADD11R,1.727200X1.727200*%
%ADD12O,1.727200X1.727200*%
%ADD13R,0.850000X0.650000*%
%ADD14R,1.700000X1.700000*%
%ADD15O,1.700000X1.700000*%
%ADD16R,3.100000X3.100000*%
G04 APERTURE END LIST*
D10*
X110000000Y-56000000D03*
X52000000Y-56000000D03*
X52000000Y-105000000D03*
X110000000Y-105000000D03*
D11*
X56870000Y-57270000D03*
D12*
X56870000Y-54730000D03*
X59410000Y-57270000D03*
X59410000Y-54730000D03*
X61950000Y-57270000D03*
X61950000Y-54730000D03*
X64490000Y-57270000D03*
X64490000Y-54730000D03*
X67030000Y-57270000D03*
X67030000Y-54730000D03*
X69570000Y-57270000D03*
X69570000Y-54730000D03*
X72110000Y-57270000D03*
X72110000Y-54730000D03*
X74650000Y-57270000D03*
X74650000Y-54730000D03*
X77190000Y-57270000D03*
X77190000Y-54730000D03*
X79730000Y-57270000D03*
X79730000Y-54730000D03*
X82270000Y-57270000D03*
X82270000Y-54730000D03*
X84810000Y-57270000D03*
X84810000Y-54730000D03*
X87350000Y-57270000D03*
X87350000Y-54730000D03*
X89890000Y-57270000D03*
X89890000Y-54730000D03*
X92430000Y-57270000D03*
X92430000Y-54730000D03*
X94970000Y-57270000D03*
X94970000Y-54730000D03*
X97510000Y-57270000D03*
X97510000Y-54730000D03*
X100050000Y-57270000D03*
X100050000Y-54730000D03*
X102590000Y-57270000D03*
X102590000Y-54730000D03*
X105130000Y-57270000D03*
X105130000Y-54730000D03*
G36*
G01*
X84800000Y-64025000D02*
X84800000Y-63125000D01*
G75*
G02*
X85050000Y-62875000I250000J0D01*
G01*
X85575000Y-62875000D01*
G75*
G02*
X85825000Y-63125000I0J-250000D01*
G01*
X85825000Y-64025000D01*
G75*
G02*
X85575000Y-64275000I-250000J0D01*
G01*
X85050000Y-64275000D01*
G75*
G02*
X84800000Y-64025000I0J250000D01*
G01*
G37*
G36*
G01*
X86625000Y-64025000D02*
X86625000Y-63125000D01*
G75*
G02*
X86875000Y-62875000I250000J0D01*
G01*
X87400000Y-62875000D01*
G75*
G02*
X87650000Y-63125000I0J-250000D01*
G01*
X87650000Y-64025000D01*
G75*
G02*
X87400000Y-64275000I-250000J0D01*
G01*
X86875000Y-64275000D01*
G75*
G02*
X86625000Y-64025000I0J250000D01*
G01*
G37*
G36*
G01*
X84600000Y-75305000D02*
X83700000Y-75305000D01*
G75*
G02*
X83450000Y-75055000I0J250000D01*
G01*
X83450000Y-74530000D01*
G75*
G02*
X83700000Y-74280000I250000J0D01*
G01*
X84600000Y-74280000D01*
G75*
G02*
X84850000Y-74530000I0J-250000D01*
G01*
X84850000Y-75055000D01*
G75*
G02*
X84600000Y-75305000I-250000J0D01*
G01*
G37*
G36*
G01*
X84600000Y-73480000D02*
X83700000Y-73480000D01*
G75*
G02*
X83450000Y-73230000I0J250000D01*
G01*
X83450000Y-72705000D01*
G75*
G02*
X83700000Y-72455000I250000J0D01*
G01*
X84600000Y-72455000D01*
G75*
G02*
X84850000Y-72705000I0J-250000D01*
G01*
X84850000Y-73230000D01*
G75*
G02*
X84600000Y-73480000I-250000J0D01*
G01*
G37*
G36*
G01*
X102025000Y-96280000D02*
X102975000Y-96280000D01*
G75*
G02*
X103225000Y-96530000I0J-250000D01*
G01*
X103225000Y-97030000D01*
G75*
G02*
X102975000Y-97280000I-250000J0D01*
G01*
X102025000Y-97280000D01*
G75*
G02*
X101775000Y-97030000I0J250000D01*
G01*
X101775000Y-96530000D01*
G75*
G02*
X102025000Y-96280000I250000J0D01*
G01*
G37*
G36*
G01*
X102025000Y-98180000D02*
X102975000Y-98180000D01*
G75*
G02*
X103225000Y-98430000I0J-250000D01*
G01*
X103225000Y-98930000D01*
G75*
G02*
X102975000Y-99180000I-250000J0D01*
G01*
X102025000Y-99180000D01*
G75*
G02*
X101775000Y-98930000I0J250000D01*
G01*
X101775000Y-98430000D01*
G75*
G02*
X102025000Y-98180000I250000J0D01*
G01*
G37*
D13*
X82525000Y-74875000D03*
X82525000Y-73225000D03*
X80975000Y-73225000D03*
X80975000Y-74875000D03*
G36*
G01*
X68200000Y-62050000D02*
X68500000Y-62050000D01*
G75*
G02*
X68650000Y-62200000I0J-150000D01*
G01*
X68650000Y-63225000D01*
G75*
G02*
X68500000Y-63375000I-150000J0D01*
G01*
X68200000Y-63375000D01*
G75*
G02*
X68050000Y-63225000I0J150000D01*
G01*
X68050000Y-62200000D01*
G75*
G02*
X68200000Y-62050000I150000J0D01*
G01*
G37*
G36*
G01*
X67250000Y-62050000D02*
X67550000Y-62050000D01*
G75*
G02*
X67700000Y-62200000I0J-150000D01*
G01*
X67700000Y-63225000D01*
G75*
G02*
X67550000Y-63375000I-150000J0D01*
G01*
X67250000Y-63375000D01*
G75*
G02*
X67100000Y-63225000I0J150000D01*
G01*
X67100000Y-62200000D01*
G75*
G02*
X67250000Y-62050000I150000J0D01*
G01*
G37*
G36*
G01*
X66300000Y-62050000D02*
X66600000Y-62050000D01*
G75*
G02*
X66750000Y-62200000I0J-150000D01*
G01*
X66750000Y-63225000D01*
G75*
G02*
X66600000Y-63375000I-150000J0D01*
G01*
X66300000Y-63375000D01*
G75*
G02*
X66150000Y-63225000I0J150000D01*
G01*
X66150000Y-62200000D01*
G75*
G02*
X66300000Y-62050000I150000J0D01*
G01*
G37*
G36*
G01*
X66300000Y-64325000D02*
X66600000Y-64325000D01*
G75*
G02*
X66750000Y-64475000I0J-150000D01*
G01*
X66750000Y-65500000D01*
G75*
G02*
X66600000Y-65650000I-150000J0D01*
G01*
X66300000Y-65650000D01*
G75*
G02*
X66150000Y-65500000I0J150000D01*
G01*
X66150000Y-64475000D01*
G75*
G02*
X66300000Y-64325000I150000J0D01*
G01*
G37*
G36*
G01*
X68200000Y-64325000D02*
X68500000Y-64325000D01*
G75*
G02*
X68650000Y-64475000I0J-150000D01*
G01*
X68650000Y-65500000D01*
G75*
G02*
X68500000Y-65650000I-150000J0D01*
G01*
X68200000Y-65650000D01*
G75*
G02*
X68050000Y-65500000I0J150000D01*
G01*
X68050000Y-64475000D01*
G75*
G02*
X68200000Y-64325000I150000J0D01*
G01*
G37*
G36*
G01*
X102075000Y-92880000D02*
X102975000Y-92880000D01*
G75*
G02*
X103225000Y-93130000I0J-250000D01*
G01*
X103225000Y-93655000D01*
G75*
G02*
X102975000Y-93905000I-250000J0D01*
G01*
X102075000Y-93905000D01*
G75*
G02*
X101825000Y-93655000I0J250000D01*
G01*
X101825000Y-93130000D01*
G75*
G02*
X102075000Y-92880000I250000J0D01*
G01*
G37*
G36*
G01*
X102075000Y-94705000D02*
X102975000Y-94705000D01*
G75*
G02*
X103225000Y-94955000I0J-250000D01*
G01*
X103225000Y-95480000D01*
G75*
G02*
X102975000Y-95730000I-250000J0D01*
G01*
X102075000Y-95730000D01*
G75*
G02*
X101825000Y-95480000I0J250000D01*
G01*
X101825000Y-94955000D01*
G75*
G02*
X102075000Y-94705000I250000J0D01*
G01*
G37*
G36*
G01*
X59625000Y-91000000D02*
X60575000Y-91000000D01*
G75*
G02*
X60825000Y-91250000I0J-250000D01*
G01*
X60825000Y-91750000D01*
G75*
G02*
X60575000Y-92000000I-250000J0D01*
G01*
X59625000Y-92000000D01*
G75*
G02*
X59375000Y-91750000I0J250000D01*
G01*
X59375000Y-91250000D01*
G75*
G02*
X59625000Y-91000000I250000J0D01*
G01*
G37*
G36*
G01*
X59625000Y-92900000D02*
X60575000Y-92900000D01*
G75*
G02*
X60825000Y-93150000I0J-250000D01*
G01*
X60825000Y-93650000D01*
G75*
G02*
X60575000Y-93900000I-250000J0D01*
G01*
X59625000Y-93900000D01*
G75*
G02*
X59375000Y-93650000I0J250000D01*
G01*
X59375000Y-93150000D01*
G75*
G02*
X59625000Y-92900000I250000J0D01*
G01*
G37*
G36*
G01*
X66775000Y-76750000D02*
X65825000Y-76750000D01*
G75*
G02*
X65575000Y-76500000I0J250000D01*
G01*
X65575000Y-76000000D01*
G75*
G02*
X65825000Y-75750000I250000J0D01*
G01*
X66775000Y-75750000D01*
G75*
G02*
X67025000Y-76000000I0J-250000D01*
G01*
X67025000Y-76500000D01*
G75*
G02*
X66775000Y-76750000I-250000J0D01*
G01*
G37*
G36*
G01*
X66775000Y-74850000D02*
X65825000Y-74850000D01*
G75*
G02*
X65575000Y-74600000I0J250000D01*
G01*
X65575000Y-74100000D01*
G75*
G02*
X65825000Y-73850000I250000J0D01*
G01*
X66775000Y-73850000D01*
G75*
G02*
X67025000Y-74100000I0J-250000D01*
G01*
X67025000Y-74600000D01*
G75*
G02*
X66775000Y-74850000I-250000J0D01*
G01*
G37*
G36*
G01*
X80225000Y-77015000D02*
X80225000Y-76065000D01*
G75*
G02*
X80475000Y-75815000I250000J0D01*
G01*
X80975000Y-75815000D01*
G75*
G02*
X81225000Y-76065000I0J-250000D01*
G01*
X81225000Y-77015000D01*
G75*
G02*
X80975000Y-77265000I-250000J0D01*
G01*
X80475000Y-77265000D01*
G75*
G02*
X80225000Y-77015000I0J250000D01*
G01*
G37*
G36*
G01*
X82125000Y-77015000D02*
X82125000Y-76065000D01*
G75*
G02*
X82375000Y-75815000I250000J0D01*
G01*
X82875000Y-75815000D01*
G75*
G02*
X83125000Y-76065000I0J-250000D01*
G01*
X83125000Y-77015000D01*
G75*
G02*
X82875000Y-77265000I-250000J0D01*
G01*
X82375000Y-77265000D01*
G75*
G02*
X82125000Y-77015000I0J250000D01*
G01*
G37*
G36*
G01*
X88200000Y-62550000D02*
X88200000Y-61650000D01*
G75*
G02*
X88450000Y-61400000I250000J0D01*
G01*
X88975000Y-61400000D01*
G75*
G02*
X89225000Y-61650000I0J-250000D01*
G01*
X89225000Y-62550000D01*
G75*
G02*
X88975000Y-62800000I-250000J0D01*
G01*
X88450000Y-62800000D01*
G75*
G02*
X88200000Y-62550000I0J250000D01*
G01*
G37*
G36*
G01*
X90025000Y-62550000D02*
X90025000Y-61650000D01*
G75*
G02*
X90275000Y-61400000I250000J0D01*
G01*
X90800000Y-61400000D01*
G75*
G02*
X91050000Y-61650000I0J-250000D01*
G01*
X91050000Y-62550000D01*
G75*
G02*
X90800000Y-62800000I-250000J0D01*
G01*
X90275000Y-62800000D01*
G75*
G02*
X90025000Y-62550000I0J250000D01*
G01*
G37*
G36*
G01*
X81425000Y-64025000D02*
X81425000Y-63125000D01*
G75*
G02*
X81675000Y-62875000I250000J0D01*
G01*
X82200000Y-62875000D01*
G75*
G02*
X82450000Y-63125000I0J-250000D01*
G01*
X82450000Y-64025000D01*
G75*
G02*
X82200000Y-64275000I-250000J0D01*
G01*
X81675000Y-64275000D01*
G75*
G02*
X81425000Y-64025000I0J250000D01*
G01*
G37*
G36*
G01*
X83250000Y-64025000D02*
X83250000Y-63125000D01*
G75*
G02*
X83500000Y-62875000I250000J0D01*
G01*
X84025000Y-62875000D01*
G75*
G02*
X84275000Y-63125000I0J-250000D01*
G01*
X84275000Y-64025000D01*
G75*
G02*
X84025000Y-64275000I-250000J0D01*
G01*
X83500000Y-64275000D01*
G75*
G02*
X83250000Y-64025000I0J250000D01*
G01*
G37*
X88750000Y-74925000D03*
X88750000Y-73275000D03*
X87200000Y-73275000D03*
X87200000Y-74925000D03*
G36*
G01*
X94053750Y-82875000D02*
X94966250Y-82875000D01*
G75*
G02*
X95210000Y-83118750I0J-243750D01*
G01*
X95210000Y-83606250D01*
G75*
G02*
X94966250Y-83850000I-243750J0D01*
G01*
X94053750Y-83850000D01*
G75*
G02*
X93810000Y-83606250I0J243750D01*
G01*
X93810000Y-83118750D01*
G75*
G02*
X94053750Y-82875000I243750J0D01*
G01*
G37*
G36*
G01*
X94053750Y-84750000D02*
X94966250Y-84750000D01*
G75*
G02*
X95210000Y-84993750I0J-243750D01*
G01*
X95210000Y-85481250D01*
G75*
G02*
X94966250Y-85725000I-243750J0D01*
G01*
X94053750Y-85725000D01*
G75*
G02*
X93810000Y-85481250I0J243750D01*
G01*
X93810000Y-84993750D01*
G75*
G02*
X94053750Y-84750000I243750J0D01*
G01*
G37*
G36*
G01*
X71200000Y-86600000D02*
X70250000Y-86600000D01*
G75*
G02*
X70000000Y-86350000I0J250000D01*
G01*
X70000000Y-85850000D01*
G75*
G02*
X70250000Y-85600000I250000J0D01*
G01*
X71200000Y-85600000D01*
G75*
G02*
X71450000Y-85850000I0J-250000D01*
G01*
X71450000Y-86350000D01*
G75*
G02*
X71200000Y-86600000I-250000J0D01*
G01*
G37*
G36*
G01*
X71200000Y-84700000D02*
X70250000Y-84700000D01*
G75*
G02*
X70000000Y-84450000I0J250000D01*
G01*
X70000000Y-83950000D01*
G75*
G02*
X70250000Y-83700000I250000J0D01*
G01*
X71200000Y-83700000D01*
G75*
G02*
X71450000Y-83950000I0J-250000D01*
G01*
X71450000Y-84450000D01*
G75*
G02*
X71200000Y-84700000I-250000J0D01*
G01*
G37*
G36*
G01*
X87850000Y-96850000D02*
X87850000Y-95900000D01*
G75*
G02*
X88100000Y-95650000I250000J0D01*
G01*
X88600000Y-95650000D01*
G75*
G02*
X88850000Y-95900000I0J-250000D01*
G01*
X88850000Y-96850000D01*
G75*
G02*
X88600000Y-97100000I-250000J0D01*
G01*
X88100000Y-97100000D01*
G75*
G02*
X87850000Y-96850000I0J250000D01*
G01*
G37*
G36*
G01*
X89750000Y-96850000D02*
X89750000Y-95900000D01*
G75*
G02*
X90000000Y-95650000I250000J0D01*
G01*
X90500000Y-95650000D01*
G75*
G02*
X90750000Y-95900000I0J-250000D01*
G01*
X90750000Y-96850000D01*
G75*
G02*
X90500000Y-97100000I-250000J0D01*
G01*
X90000000Y-97100000D01*
G75*
G02*
X89750000Y-96850000I0J250000D01*
G01*
G37*
D14*
X63340000Y-93580000D03*
D15*
X63340000Y-91040000D03*
X65880000Y-93580000D03*
X65880000Y-91040000D03*
X68420000Y-93580000D03*
X68420000Y-91040000D03*
G36*
G01*
X69300000Y-78175000D02*
X69300000Y-77225000D01*
G75*
G02*
X69550000Y-76975000I250000J0D01*
G01*
X70050000Y-76975000D01*
G75*
G02*
X70300000Y-77225000I0J-250000D01*
G01*
X70300000Y-78175000D01*
G75*
G02*
X70050000Y-78425000I-250000J0D01*
G01*
X69550000Y-78425000D01*
G75*
G02*
X69300000Y-78175000I0J250000D01*
G01*
G37*
G36*
G01*
X71200000Y-78175000D02*
X71200000Y-77225000D01*
G75*
G02*
X71450000Y-76975000I250000J0D01*
G01*
X71950000Y-76975000D01*
G75*
G02*
X72200000Y-77225000I0J-250000D01*
G01*
X72200000Y-78175000D01*
G75*
G02*
X71950000Y-78425000I-250000J0D01*
G01*
X71450000Y-78425000D01*
G75*
G02*
X71200000Y-78175000I0J250000D01*
G01*
G37*
G36*
G01*
X71000000Y-91100000D02*
X71950000Y-91100000D01*
G75*
G02*
X72200000Y-91350000I0J-250000D01*
G01*
X72200000Y-91850000D01*
G75*
G02*
X71950000Y-92100000I-250000J0D01*
G01*
X71000000Y-92100000D01*
G75*
G02*
X70750000Y-91850000I0J250000D01*
G01*
X70750000Y-91350000D01*
G75*
G02*
X71000000Y-91100000I250000J0D01*
G01*
G37*
G36*
G01*
X71000000Y-93000000D02*
X71950000Y-93000000D01*
G75*
G02*
X72200000Y-93250000I0J-250000D01*
G01*
X72200000Y-93750000D01*
G75*
G02*
X71950000Y-94000000I-250000J0D01*
G01*
X71000000Y-94000000D01*
G75*
G02*
X70750000Y-93750000I0J250000D01*
G01*
X70750000Y-93250000D01*
G75*
G02*
X71000000Y-93000000I250000J0D01*
G01*
G37*
G36*
G01*
X71925000Y-97375000D02*
X71025000Y-97375000D01*
G75*
G02*
X70775000Y-97125000I0J250000D01*
G01*
X70775000Y-96600000D01*
G75*
G02*
X71025000Y-96350000I250000J0D01*
G01*
X71925000Y-96350000D01*
G75*
G02*
X72175000Y-96600000I0J-250000D01*
G01*
X72175000Y-97125000D01*
G75*
G02*
X71925000Y-97375000I-250000J0D01*
G01*
G37*
G36*
G01*
X71925000Y-95550000D02*
X71025000Y-95550000D01*
G75*
G02*
X70775000Y-95300000I0J250000D01*
G01*
X70775000Y-94775000D01*
G75*
G02*
X71025000Y-94525000I250000J0D01*
G01*
X71925000Y-94525000D01*
G75*
G02*
X72175000Y-94775000I0J-250000D01*
G01*
X72175000Y-95300000D01*
G75*
G02*
X71925000Y-95550000I-250000J0D01*
G01*
G37*
G36*
G01*
X72975000Y-91100000D02*
X73925000Y-91100000D01*
G75*
G02*
X74175000Y-91350000I0J-250000D01*
G01*
X74175000Y-91850000D01*
G75*
G02*
X73925000Y-92100000I-250000J0D01*
G01*
X72975000Y-92100000D01*
G75*
G02*
X72725000Y-91850000I0J250000D01*
G01*
X72725000Y-91350000D01*
G75*
G02*
X72975000Y-91100000I250000J0D01*
G01*
G37*
G36*
G01*
X72975000Y-93000000D02*
X73925000Y-93000000D01*
G75*
G02*
X74175000Y-93250000I0J-250000D01*
G01*
X74175000Y-93750000D01*
G75*
G02*
X73925000Y-94000000I-250000J0D01*
G01*
X72975000Y-94000000D01*
G75*
G02*
X72725000Y-93750000I0J250000D01*
G01*
X72725000Y-93250000D01*
G75*
G02*
X72975000Y-93000000I250000J0D01*
G01*
G37*
G36*
G01*
X94950000Y-100150000D02*
X94000000Y-100150000D01*
G75*
G02*
X93750000Y-99900000I0J250000D01*
G01*
X93750000Y-99400000D01*
G75*
G02*
X94000000Y-99150000I250000J0D01*
G01*
X94950000Y-99150000D01*
G75*
G02*
X95200000Y-99400000I0J-250000D01*
G01*
X95200000Y-99900000D01*
G75*
G02*
X94950000Y-100150000I-250000J0D01*
G01*
G37*
G36*
G01*
X94950000Y-98250000D02*
X94000000Y-98250000D01*
G75*
G02*
X93750000Y-98000000I0J250000D01*
G01*
X93750000Y-97500000D01*
G75*
G02*
X94000000Y-97250000I250000J0D01*
G01*
X94950000Y-97250000D01*
G75*
G02*
X95200000Y-97500000I0J-250000D01*
G01*
X95200000Y-98000000D01*
G75*
G02*
X94950000Y-98250000I-250000J0D01*
G01*
G37*
G36*
G01*
X68875000Y-66550000D02*
X68875000Y-67500000D01*
G75*
G02*
X68625000Y-67750000I-250000J0D01*
G01*
X68125000Y-67750000D01*
G75*
G02*
X67875000Y-67500000I0J250000D01*
G01*
X67875000Y-66550000D01*
G75*
G02*
X68125000Y-66300000I250000J0D01*
G01*
X68625000Y-66300000D01*
G75*
G02*
X68875000Y-66550000I0J-250000D01*
G01*
G37*
G36*
G01*
X66975000Y-66550000D02*
X66975000Y-67500000D01*
G75*
G02*
X66725000Y-67750000I-250000J0D01*
G01*
X66225000Y-67750000D01*
G75*
G02*
X65975000Y-67500000I0J250000D01*
G01*
X65975000Y-66550000D01*
G75*
G02*
X66225000Y-66300000I250000J0D01*
G01*
X66725000Y-66300000D01*
G75*
G02*
X66975000Y-66550000I0J-250000D01*
G01*
G37*
G36*
G01*
X102925000Y-91502500D02*
X102025000Y-91502500D01*
G75*
G02*
X101775000Y-91252500I0J250000D01*
G01*
X101775000Y-90727500D01*
G75*
G02*
X102025000Y-90477500I250000J0D01*
G01*
X102925000Y-90477500D01*
G75*
G02*
X103175000Y-90727500I0J-250000D01*
G01*
X103175000Y-91252500D01*
G75*
G02*
X102925000Y-91502500I-250000J0D01*
G01*
G37*
G36*
G01*
X102925000Y-89677500D02*
X102025000Y-89677500D01*
G75*
G02*
X101775000Y-89427500I0J250000D01*
G01*
X101775000Y-88902500D01*
G75*
G02*
X102025000Y-88652500I250000J0D01*
G01*
X102925000Y-88652500D01*
G75*
G02*
X103175000Y-88902500I0J-250000D01*
G01*
X103175000Y-89427500D01*
G75*
G02*
X102925000Y-89677500I-250000J0D01*
G01*
G37*
G36*
G01*
X87850000Y-98825000D02*
X87850000Y-97875000D01*
G75*
G02*
X88100000Y-97625000I250000J0D01*
G01*
X88600000Y-97625000D01*
G75*
G02*
X88850000Y-97875000I0J-250000D01*
G01*
X88850000Y-98825000D01*
G75*
G02*
X88600000Y-99075000I-250000J0D01*
G01*
X88100000Y-99075000D01*
G75*
G02*
X87850000Y-98825000I0J250000D01*
G01*
G37*
G36*
G01*
X89750000Y-98825000D02*
X89750000Y-97875000D01*
G75*
G02*
X90000000Y-97625000I250000J0D01*
G01*
X90500000Y-97625000D01*
G75*
G02*
X90750000Y-97875000I0J-250000D01*
G01*
X90750000Y-98825000D01*
G75*
G02*
X90500000Y-99075000I-250000J0D01*
G01*
X90000000Y-99075000D01*
G75*
G02*
X89750000Y-98825000I0J250000D01*
G01*
G37*
G36*
G01*
X71025000Y-87725000D02*
X71925000Y-87725000D01*
G75*
G02*
X72175000Y-87975000I0J-250000D01*
G01*
X72175000Y-88500000D01*
G75*
G02*
X71925000Y-88750000I-250000J0D01*
G01*
X71025000Y-88750000D01*
G75*
G02*
X70775000Y-88500000I0J250000D01*
G01*
X70775000Y-87975000D01*
G75*
G02*
X71025000Y-87725000I250000J0D01*
G01*
G37*
G36*
G01*
X71025000Y-89550000D02*
X71925000Y-89550000D01*
G75*
G02*
X72175000Y-89800000I0J-250000D01*
G01*
X72175000Y-90325000D01*
G75*
G02*
X71925000Y-90575000I-250000J0D01*
G01*
X71025000Y-90575000D01*
G75*
G02*
X70775000Y-90325000I0J250000D01*
G01*
X70775000Y-89800000D01*
G75*
G02*
X71025000Y-89550000I250000J0D01*
G01*
G37*
G36*
G01*
X72550000Y-82000000D02*
X72550000Y-81050000D01*
G75*
G02*
X72800000Y-80800000I250000J0D01*
G01*
X73300000Y-80800000D01*
G75*
G02*
X73550000Y-81050000I0J-250000D01*
G01*
X73550000Y-82000000D01*
G75*
G02*
X73300000Y-82250000I-250000J0D01*
G01*
X72800000Y-82250000D01*
G75*
G02*
X72550000Y-82000000I0J250000D01*
G01*
G37*
G36*
G01*
X74450000Y-82000000D02*
X74450000Y-81050000D01*
G75*
G02*
X74700000Y-80800000I250000J0D01*
G01*
X75200000Y-80800000D01*
G75*
G02*
X75450000Y-81050000I0J-250000D01*
G01*
X75450000Y-82000000D01*
G75*
G02*
X75200000Y-82250000I-250000J0D01*
G01*
X74700000Y-82250000D01*
G75*
G02*
X74450000Y-82000000I0J250000D01*
G01*
G37*
G36*
G01*
X73900000Y-97375000D02*
X73000000Y-97375000D01*
G75*
G02*
X72750000Y-97125000I0J250000D01*
G01*
X72750000Y-96600000D01*
G75*
G02*
X73000000Y-96350000I250000J0D01*
G01*
X73900000Y-96350000D01*
G75*
G02*
X74150000Y-96600000I0J-250000D01*
G01*
X74150000Y-97125000D01*
G75*
G02*
X73900000Y-97375000I-250000J0D01*
G01*
G37*
G36*
G01*
X73900000Y-95550000D02*
X73000000Y-95550000D01*
G75*
G02*
X72750000Y-95300000I0J250000D01*
G01*
X72750000Y-94775000D01*
G75*
G02*
X73000000Y-94525000I250000J0D01*
G01*
X73900000Y-94525000D01*
G75*
G02*
X74150000Y-94775000I0J-250000D01*
G01*
X74150000Y-95300000D01*
G75*
G02*
X73900000Y-95550000I-250000J0D01*
G01*
G37*
G36*
G01*
X102955000Y-88142500D02*
X102005000Y-88142500D01*
G75*
G02*
X101755000Y-87892500I0J250000D01*
G01*
X101755000Y-87392500D01*
G75*
G02*
X102005000Y-87142500I250000J0D01*
G01*
X102955000Y-87142500D01*
G75*
G02*
X103205000Y-87392500I0J-250000D01*
G01*
X103205000Y-87892500D01*
G75*
G02*
X102955000Y-88142500I-250000J0D01*
G01*
G37*
G36*
G01*
X102955000Y-86242500D02*
X102005000Y-86242500D01*
G75*
G02*
X101755000Y-85992500I0J250000D01*
G01*
X101755000Y-85492500D01*
G75*
G02*
X102005000Y-85242500I250000J0D01*
G01*
X102955000Y-85242500D01*
G75*
G02*
X103205000Y-85492500I0J-250000D01*
G01*
X103205000Y-85992500D01*
G75*
G02*
X102955000Y-86242500I-250000J0D01*
G01*
G37*
G36*
G01*
X57055000Y-78275000D02*
X57055000Y-77375000D01*
G75*
G02*
X57305000Y-77125000I250000J0D01*
G01*
X57830000Y-77125000D01*
G75*
G02*
X58080000Y-77375000I0J-250000D01*
G01*
X58080000Y-78275000D01*
G75*
G02*
X57830000Y-78525000I-250000J0D01*
G01*
X57305000Y-78525000D01*
G75*
G02*
X57055000Y-78275000I0J250000D01*
G01*
G37*
G36*
G01*
X58880000Y-78275000D02*
X58880000Y-77375000D01*
G75*
G02*
X59130000Y-77125000I250000J0D01*
G01*
X59655000Y-77125000D01*
G75*
G02*
X59905000Y-77375000I0J-250000D01*
G01*
X59905000Y-78275000D01*
G75*
G02*
X59655000Y-78525000I-250000J0D01*
G01*
X59130000Y-78525000D01*
G75*
G02*
X58880000Y-78275000I0J250000D01*
G01*
G37*
G36*
G01*
X68850000Y-60345000D02*
X68850000Y-61295000D01*
G75*
G02*
X68600000Y-61545000I-250000J0D01*
G01*
X68100000Y-61545000D01*
G75*
G02*
X67850000Y-61295000I0J250000D01*
G01*
X67850000Y-60345000D01*
G75*
G02*
X68100000Y-60095000I250000J0D01*
G01*
X68600000Y-60095000D01*
G75*
G02*
X68850000Y-60345000I0J-250000D01*
G01*
G37*
G36*
G01*
X66950000Y-60345000D02*
X66950000Y-61295000D01*
G75*
G02*
X66700000Y-61545000I-250000J0D01*
G01*
X66200000Y-61545000D01*
G75*
G02*
X65950000Y-61295000I0J250000D01*
G01*
X65950000Y-60345000D01*
G75*
G02*
X66200000Y-60095000I250000J0D01*
G01*
X66700000Y-60095000D01*
G75*
G02*
X66950000Y-60345000I0J-250000D01*
G01*
G37*
G36*
G01*
X70225000Y-80200000D02*
X71175000Y-80200000D01*
G75*
G02*
X71425000Y-80450000I0J-250000D01*
G01*
X71425000Y-80950000D01*
G75*
G02*
X71175000Y-81200000I-250000J0D01*
G01*
X70225000Y-81200000D01*
G75*
G02*
X69975000Y-80950000I0J250000D01*
G01*
X69975000Y-80450000D01*
G75*
G02*
X70225000Y-80200000I250000J0D01*
G01*
G37*
G36*
G01*
X70225000Y-82100000D02*
X71175000Y-82100000D01*
G75*
G02*
X71425000Y-82350000I0J-250000D01*
G01*
X71425000Y-82850000D01*
G75*
G02*
X71175000Y-83100000I-250000J0D01*
G01*
X70225000Y-83100000D01*
G75*
G02*
X69975000Y-82850000I0J250000D01*
G01*
X69975000Y-82350000D01*
G75*
G02*
X70225000Y-82100000I250000J0D01*
G01*
G37*
G36*
G01*
X104240000Y-63065000D02*
X103340000Y-63065000D01*
G75*
G02*
X103090000Y-62815000I0J250000D01*
G01*
X103090000Y-62290000D01*
G75*
G02*
X103340000Y-62040000I250000J0D01*
G01*
X104240000Y-62040000D01*
G75*
G02*
X104490000Y-62290000I0J-250000D01*
G01*
X104490000Y-62815000D01*
G75*
G02*
X104240000Y-63065000I-250000J0D01*
G01*
G37*
G36*
G01*
X104240000Y-61240000D02*
X103340000Y-61240000D01*
G75*
G02*
X103090000Y-60990000I0J250000D01*
G01*
X103090000Y-60465000D01*
G75*
G02*
X103340000Y-60215000I250000J0D01*
G01*
X104240000Y-60215000D01*
G75*
G02*
X104490000Y-60465000I0J-250000D01*
G01*
X104490000Y-60990000D01*
G75*
G02*
X104240000Y-61240000I-250000J0D01*
G01*
G37*
D14*
X107650000Y-89400000D03*
D15*
X110190000Y-89400000D03*
X107650000Y-91940000D03*
X110190000Y-91940000D03*
X107650000Y-94480000D03*
X110190000Y-94480000D03*
G36*
G01*
X69300000Y-76200000D02*
X69300000Y-75250000D01*
G75*
G02*
X69550000Y-75000000I250000J0D01*
G01*
X70050000Y-75000000D01*
G75*
G02*
X70300000Y-75250000I0J-250000D01*
G01*
X70300000Y-76200000D01*
G75*
G02*
X70050000Y-76450000I-250000J0D01*
G01*
X69550000Y-76450000D01*
G75*
G02*
X69300000Y-76200000I0J250000D01*
G01*
G37*
G36*
G01*
X71200000Y-76200000D02*
X71200000Y-75250000D01*
G75*
G02*
X71450000Y-75000000I250000J0D01*
G01*
X71950000Y-75000000D01*
G75*
G02*
X72200000Y-75250000I0J-250000D01*
G01*
X72200000Y-76200000D01*
G75*
G02*
X71950000Y-76450000I-250000J0D01*
G01*
X71450000Y-76450000D01*
G75*
G02*
X71200000Y-76200000I0J250000D01*
G01*
G37*
G36*
G01*
X100650000Y-86000000D02*
X100650000Y-86950000D01*
G75*
G02*
X100400000Y-87200000I-250000J0D01*
G01*
X99900000Y-87200000D01*
G75*
G02*
X99650000Y-86950000I0J250000D01*
G01*
X99650000Y-86000000D01*
G75*
G02*
X99900000Y-85750000I250000J0D01*
G01*
X100400000Y-85750000D01*
G75*
G02*
X100650000Y-86000000I0J-250000D01*
G01*
G37*
G36*
G01*
X98750000Y-86000000D02*
X98750000Y-86950000D01*
G75*
G02*
X98500000Y-87200000I-250000J0D01*
G01*
X98000000Y-87200000D01*
G75*
G02*
X97750000Y-86950000I0J250000D01*
G01*
X97750000Y-86000000D01*
G75*
G02*
X98000000Y-85750000I250000J0D01*
G01*
X98500000Y-85750000D01*
G75*
G02*
X98750000Y-86000000I0J-250000D01*
G01*
G37*
G36*
G01*
X104915000Y-88127500D02*
X103965000Y-88127500D01*
G75*
G02*
X103715000Y-87877500I0J250000D01*
G01*
X103715000Y-87377500D01*
G75*
G02*
X103965000Y-87127500I250000J0D01*
G01*
X104915000Y-87127500D01*
G75*
G02*
X105165000Y-87377500I0J-250000D01*
G01*
X105165000Y-87877500D01*
G75*
G02*
X104915000Y-88127500I-250000J0D01*
G01*
G37*
G36*
G01*
X104915000Y-86227500D02*
X103965000Y-86227500D01*
G75*
G02*
X103715000Y-85977500I0J250000D01*
G01*
X103715000Y-85477500D01*
G75*
G02*
X103965000Y-85227500I250000J0D01*
G01*
X104915000Y-85227500D01*
G75*
G02*
X105165000Y-85477500I0J-250000D01*
G01*
X105165000Y-85977500D01*
G75*
G02*
X104915000Y-86227500I-250000J0D01*
G01*
G37*
G36*
G01*
X89400000Y-76100000D02*
X89400000Y-77000000D01*
G75*
G02*
X89150000Y-77250000I-250000J0D01*
G01*
X88625000Y-77250000D01*
G75*
G02*
X88375000Y-77000000I0J250000D01*
G01*
X88375000Y-76100000D01*
G75*
G02*
X88625000Y-75850000I250000J0D01*
G01*
X89150000Y-75850000D01*
G75*
G02*
X89400000Y-76100000I0J-250000D01*
G01*
G37*
G36*
G01*
X87575000Y-76100000D02*
X87575000Y-77000000D01*
G75*
G02*
X87325000Y-77250000I-250000J0D01*
G01*
X86800000Y-77250000D01*
G75*
G02*
X86550000Y-77000000I0J250000D01*
G01*
X86550000Y-76100000D01*
G75*
G02*
X86800000Y-75850000I250000J0D01*
G01*
X87325000Y-75850000D01*
G75*
G02*
X87575000Y-76100000I0J-250000D01*
G01*
G37*
G36*
G01*
X96975000Y-95485000D02*
X96975000Y-96435000D01*
G75*
G02*
X96725000Y-96685000I-250000J0D01*
G01*
X96225000Y-96685000D01*
G75*
G02*
X95975000Y-96435000I0J250000D01*
G01*
X95975000Y-95485000D01*
G75*
G02*
X96225000Y-95235000I250000J0D01*
G01*
X96725000Y-95235000D01*
G75*
G02*
X96975000Y-95485000I0J-250000D01*
G01*
G37*
G36*
G01*
X95075000Y-95485000D02*
X95075000Y-96435000D01*
G75*
G02*
X94825000Y-96685000I-250000J0D01*
G01*
X94325000Y-96685000D01*
G75*
G02*
X94075000Y-96435000I0J250000D01*
G01*
X94075000Y-95485000D01*
G75*
G02*
X94325000Y-95235000I250000J0D01*
G01*
X94825000Y-95235000D01*
G75*
G02*
X95075000Y-95485000I0J-250000D01*
G01*
G37*
G36*
G01*
X57080000Y-80206250D02*
X57080000Y-79293750D01*
G75*
G02*
X57323750Y-79050000I243750J0D01*
G01*
X57811250Y-79050000D01*
G75*
G02*
X58055000Y-79293750I0J-243750D01*
G01*
X58055000Y-80206250D01*
G75*
G02*
X57811250Y-80450000I-243750J0D01*
G01*
X57323750Y-80450000D01*
G75*
G02*
X57080000Y-80206250I0J243750D01*
G01*
G37*
G36*
G01*
X58955000Y-80206250D02*
X58955000Y-79293750D01*
G75*
G02*
X59198750Y-79050000I243750J0D01*
G01*
X59686250Y-79050000D01*
G75*
G02*
X59930000Y-79293750I0J-243750D01*
G01*
X59930000Y-80206250D01*
G75*
G02*
X59686250Y-80450000I-243750J0D01*
G01*
X59198750Y-80450000D01*
G75*
G02*
X58955000Y-80206250I0J243750D01*
G01*
G37*
G36*
G01*
X92562500Y-94652000D02*
X92437500Y-94652000D01*
G75*
G02*
X92375000Y-94589500I0J62500D01*
G01*
X92375000Y-93839500D01*
G75*
G02*
X92437500Y-93777000I62500J0D01*
G01*
X92562500Y-93777000D01*
G75*
G02*
X92625000Y-93839500I0J-62500D01*
G01*
X92625000Y-94589500D01*
G75*
G02*
X92562500Y-94652000I-62500J0D01*
G01*
G37*
G36*
G01*
X93062500Y-94652000D02*
X92937500Y-94652000D01*
G75*
G02*
X92875000Y-94589500I0J62500D01*
G01*
X92875000Y-93839500D01*
G75*
G02*
X92937500Y-93777000I62500J0D01*
G01*
X93062500Y-93777000D01*
G75*
G02*
X93125000Y-93839500I0J-62500D01*
G01*
X93125000Y-94589500D01*
G75*
G02*
X93062500Y-94652000I-62500J0D01*
G01*
G37*
G36*
G01*
X93562500Y-94652000D02*
X93437500Y-94652000D01*
G75*
G02*
X93375000Y-94589500I0J62500D01*
G01*
X93375000Y-93839500D01*
G75*
G02*
X93437500Y-93777000I62500J0D01*
G01*
X93562500Y-93777000D01*
G75*
G02*
X93625000Y-93839500I0J-62500D01*
G01*
X93625000Y-94589500D01*
G75*
G02*
X93562500Y-94652000I-62500J0D01*
G01*
G37*
G36*
G01*
X94062500Y-94652000D02*
X93937500Y-94652000D01*
G75*
G02*
X93875000Y-94589500I0J62500D01*
G01*
X93875000Y-93839500D01*
G75*
G02*
X93937500Y-93777000I62500J0D01*
G01*
X94062500Y-93777000D01*
G75*
G02*
X94125000Y-93839500I0J-62500D01*
G01*
X94125000Y-94589500D01*
G75*
G02*
X94062500Y-94652000I-62500J0D01*
G01*
G37*
G36*
G01*
X94562500Y-94652000D02*
X94437500Y-94652000D01*
G75*
G02*
X94375000Y-94589500I0J62500D01*
G01*
X94375000Y-93839500D01*
G75*
G02*
X94437500Y-93777000I62500J0D01*
G01*
X94562500Y-93777000D01*
G75*
G02*
X94625000Y-93839500I0J-62500D01*
G01*
X94625000Y-94589500D01*
G75*
G02*
X94562500Y-94652000I-62500J0D01*
G01*
G37*
G36*
G01*
X95062500Y-94652000D02*
X94937500Y-94652000D01*
G75*
G02*
X94875000Y-94589500I0J62500D01*
G01*
X94875000Y-93839500D01*
G75*
G02*
X94937500Y-93777000I62500J0D01*
G01*
X95062500Y-93777000D01*
G75*
G02*
X95125000Y-93839500I0J-62500D01*
G01*
X95125000Y-94589500D01*
G75*
G02*
X95062500Y-94652000I-62500J0D01*
G01*
G37*
G36*
G01*
X95562500Y-94652000D02*
X95437500Y-94652000D01*
G75*
G02*
X95375000Y-94589500I0J62500D01*
G01*
X95375000Y-93839500D01*
G75*
G02*
X95437500Y-93777000I62500J0D01*
G01*
X95562500Y-93777000D01*
G75*
G02*
X95625000Y-93839500I0J-62500D01*
G01*
X95625000Y-94589500D01*
G75*
G02*
X95562500Y-94652000I-62500J0D01*
G01*
G37*
G36*
G01*
X96062500Y-94652000D02*
X95937500Y-94652000D01*
G75*
G02*
X95875000Y-94589500I0J62500D01*
G01*
X95875000Y-93839500D01*
G75*
G02*
X95937500Y-93777000I62500J0D01*
G01*
X96062500Y-93777000D01*
G75*
G02*
X96125000Y-93839500I0J-62500D01*
G01*
X96125000Y-94589500D01*
G75*
G02*
X96062500Y-94652000I-62500J0D01*
G01*
G37*
G36*
G01*
X97062500Y-93652000D02*
X96312500Y-93652000D01*
G75*
G02*
X96250000Y-93589500I0J62500D01*
G01*
X96250000Y-93464500D01*
G75*
G02*
X96312500Y-93402000I62500J0D01*
G01*
X97062500Y-93402000D01*
G75*
G02*
X97125000Y-93464500I0J-62500D01*
G01*
X97125000Y-93589500D01*
G75*
G02*
X97062500Y-93652000I-62500J0D01*
G01*
G37*
G36*
G01*
X97062500Y-93152000D02*
X96312500Y-93152000D01*
G75*
G02*
X96250000Y-93089500I0J62500D01*
G01*
X96250000Y-92964500D01*
G75*
G02*
X96312500Y-92902000I62500J0D01*
G01*
X97062500Y-92902000D01*
G75*
G02*
X97125000Y-92964500I0J-62500D01*
G01*
X97125000Y-93089500D01*
G75*
G02*
X97062500Y-93152000I-62500J0D01*
G01*
G37*
G36*
G01*
X97062500Y-92652000D02*
X96312500Y-92652000D01*
G75*
G02*
X96250000Y-92589500I0J62500D01*
G01*
X96250000Y-92464500D01*
G75*
G02*
X96312500Y-92402000I62500J0D01*
G01*
X97062500Y-92402000D01*
G75*
G02*
X97125000Y-92464500I0J-62500D01*
G01*
X97125000Y-92589500D01*
G75*
G02*
X97062500Y-92652000I-62500J0D01*
G01*
G37*
G36*
G01*
X97062500Y-92152000D02*
X96312500Y-92152000D01*
G75*
G02*
X96250000Y-92089500I0J62500D01*
G01*
X96250000Y-91964500D01*
G75*
G02*
X96312500Y-91902000I62500J0D01*
G01*
X97062500Y-91902000D01*
G75*
G02*
X97125000Y-91964500I0J-62500D01*
G01*
X97125000Y-92089500D01*
G75*
G02*
X97062500Y-92152000I-62500J0D01*
G01*
G37*
G36*
G01*
X97062500Y-91652000D02*
X96312500Y-91652000D01*
G75*
G02*
X96250000Y-91589500I0J62500D01*
G01*
X96250000Y-91464500D01*
G75*
G02*
X96312500Y-91402000I62500J0D01*
G01*
X97062500Y-91402000D01*
G75*
G02*
X97125000Y-91464500I0J-62500D01*
G01*
X97125000Y-91589500D01*
G75*
G02*
X97062500Y-91652000I-62500J0D01*
G01*
G37*
G36*
G01*
X97062500Y-91152000D02*
X96312500Y-91152000D01*
G75*
G02*
X96250000Y-91089500I0J62500D01*
G01*
X96250000Y-90964500D01*
G75*
G02*
X96312500Y-90902000I62500J0D01*
G01*
X97062500Y-90902000D01*
G75*
G02*
X97125000Y-90964500I0J-62500D01*
G01*
X97125000Y-91089500D01*
G75*
G02*
X97062500Y-91152000I-62500J0D01*
G01*
G37*
G36*
G01*
X97062500Y-90652000D02*
X96312500Y-90652000D01*
G75*
G02*
X96250000Y-90589500I0J62500D01*
G01*
X96250000Y-90464500D01*
G75*
G02*
X96312500Y-90402000I62500J0D01*
G01*
X97062500Y-90402000D01*
G75*
G02*
X97125000Y-90464500I0J-62500D01*
G01*
X97125000Y-90589500D01*
G75*
G02*
X97062500Y-90652000I-62500J0D01*
G01*
G37*
G36*
G01*
X97062500Y-90152000D02*
X96312500Y-90152000D01*
G75*
G02*
X96250000Y-90089500I0J62500D01*
G01*
X96250000Y-89964500D01*
G75*
G02*
X96312500Y-89902000I62500J0D01*
G01*
X97062500Y-89902000D01*
G75*
G02*
X97125000Y-89964500I0J-62500D01*
G01*
X97125000Y-90089500D01*
G75*
G02*
X97062500Y-90152000I-62500J0D01*
G01*
G37*
G36*
G01*
X96062500Y-89777000D02*
X95937500Y-89777000D01*
G75*
G02*
X95875000Y-89714500I0J62500D01*
G01*
X95875000Y-88964500D01*
G75*
G02*
X95937500Y-88902000I62500J0D01*
G01*
X96062500Y-88902000D01*
G75*
G02*
X96125000Y-88964500I0J-62500D01*
G01*
X96125000Y-89714500D01*
G75*
G02*
X96062500Y-89777000I-62500J0D01*
G01*
G37*
G36*
G01*
X95562500Y-89777000D02*
X95437500Y-89777000D01*
G75*
G02*
X95375000Y-89714500I0J62500D01*
G01*
X95375000Y-88964500D01*
G75*
G02*
X95437500Y-88902000I62500J0D01*
G01*
X95562500Y-88902000D01*
G75*
G02*
X95625000Y-88964500I0J-62500D01*
G01*
X95625000Y-89714500D01*
G75*
G02*
X95562500Y-89777000I-62500J0D01*
G01*
G37*
G36*
G01*
X95062500Y-89777000D02*
X94937500Y-89777000D01*
G75*
G02*
X94875000Y-89714500I0J62500D01*
G01*
X94875000Y-88964500D01*
G75*
G02*
X94937500Y-88902000I62500J0D01*
G01*
X95062500Y-88902000D01*
G75*
G02*
X95125000Y-88964500I0J-62500D01*
G01*
X95125000Y-89714500D01*
G75*
G02*
X95062500Y-89777000I-62500J0D01*
G01*
G37*
G36*
G01*
X94562500Y-89777000D02*
X94437500Y-89777000D01*
G75*
G02*
X94375000Y-89714500I0J62500D01*
G01*
X94375000Y-88964500D01*
G75*
G02*
X94437500Y-88902000I62500J0D01*
G01*
X94562500Y-88902000D01*
G75*
G02*
X94625000Y-88964500I0J-62500D01*
G01*
X94625000Y-89714500D01*
G75*
G02*
X94562500Y-89777000I-62500J0D01*
G01*
G37*
G36*
G01*
X94062500Y-89777000D02*
X93937500Y-89777000D01*
G75*
G02*
X93875000Y-89714500I0J62500D01*
G01*
X93875000Y-88964500D01*
G75*
G02*
X93937500Y-88902000I62500J0D01*
G01*
X94062500Y-88902000D01*
G75*
G02*
X94125000Y-88964500I0J-62500D01*
G01*
X94125000Y-89714500D01*
G75*
G02*
X94062500Y-89777000I-62500J0D01*
G01*
G37*
G36*
G01*
X93562500Y-89777000D02*
X93437500Y-89777000D01*
G75*
G02*
X93375000Y-89714500I0J62500D01*
G01*
X93375000Y-88964500D01*
G75*
G02*
X93437500Y-88902000I62500J0D01*
G01*
X93562500Y-88902000D01*
G75*
G02*
X93625000Y-88964500I0J-62500D01*
G01*
X93625000Y-89714500D01*
G75*
G02*
X93562500Y-89777000I-62500J0D01*
G01*
G37*
G36*
G01*
X93062500Y-89777000D02*
X92937500Y-89777000D01*
G75*
G02*
X92875000Y-89714500I0J62500D01*
G01*
X92875000Y-88964500D01*
G75*
G02*
X92937500Y-88902000I62500J0D01*
G01*
X93062500Y-88902000D01*
G75*
G02*
X93125000Y-88964500I0J-62500D01*
G01*
X93125000Y-89714500D01*
G75*
G02*
X93062500Y-89777000I-62500J0D01*
G01*
G37*
G36*
G01*
X92562500Y-89777000D02*
X92437500Y-89777000D01*
G75*
G02*
X92375000Y-89714500I0J62500D01*
G01*
X92375000Y-88964500D01*
G75*
G02*
X92437500Y-88902000I62500J0D01*
G01*
X92562500Y-88902000D01*
G75*
G02*
X92625000Y-88964500I0J-62500D01*
G01*
X92625000Y-89714500D01*
G75*
G02*
X92562500Y-89777000I-62500J0D01*
G01*
G37*
G36*
G01*
X92187500Y-90152000D02*
X91437500Y-90152000D01*
G75*
G02*
X91375000Y-90089500I0J62500D01*
G01*
X91375000Y-89964500D01*
G75*
G02*
X91437500Y-89902000I62500J0D01*
G01*
X92187500Y-89902000D01*
G75*
G02*
X92250000Y-89964500I0J-62500D01*
G01*
X92250000Y-90089500D01*
G75*
G02*
X92187500Y-90152000I-62500J0D01*
G01*
G37*
G36*
G01*
X92187500Y-90652000D02*
X91437500Y-90652000D01*
G75*
G02*
X91375000Y-90589500I0J62500D01*
G01*
X91375000Y-90464500D01*
G75*
G02*
X91437500Y-90402000I62500J0D01*
G01*
X92187500Y-90402000D01*
G75*
G02*
X92250000Y-90464500I0J-62500D01*
G01*
X92250000Y-90589500D01*
G75*
G02*
X92187500Y-90652000I-62500J0D01*
G01*
G37*
G36*
G01*
X92187500Y-91152000D02*
X91437500Y-91152000D01*
G75*
G02*
X91375000Y-91089500I0J62500D01*
G01*
X91375000Y-90964500D01*
G75*
G02*
X91437500Y-90902000I62500J0D01*
G01*
X92187500Y-90902000D01*
G75*
G02*
X92250000Y-90964500I0J-62500D01*
G01*
X92250000Y-91089500D01*
G75*
G02*
X92187500Y-91152000I-62500J0D01*
G01*
G37*
G36*
G01*
X92187500Y-91652000D02*
X91437500Y-91652000D01*
G75*
G02*
X91375000Y-91589500I0J62500D01*
G01*
X91375000Y-91464500D01*
G75*
G02*
X91437500Y-91402000I62500J0D01*
G01*
X92187500Y-91402000D01*
G75*
G02*
X92250000Y-91464500I0J-62500D01*
G01*
X92250000Y-91589500D01*
G75*
G02*
X92187500Y-91652000I-62500J0D01*
G01*
G37*
G36*
G01*
X92187500Y-92152000D02*
X91437500Y-92152000D01*
G75*
G02*
X91375000Y-92089500I0J62500D01*
G01*
X91375000Y-91964500D01*
G75*
G02*
X91437500Y-91902000I62500J0D01*
G01*
X92187500Y-91902000D01*
G75*
G02*
X92250000Y-91964500I0J-62500D01*
G01*
X92250000Y-92089500D01*
G75*
G02*
X92187500Y-92152000I-62500J0D01*
G01*
G37*
G36*
G01*
X92187500Y-92652000D02*
X91437500Y-92652000D01*
G75*
G02*
X91375000Y-92589500I0J62500D01*
G01*
X91375000Y-92464500D01*
G75*
G02*
X91437500Y-92402000I62500J0D01*
G01*
X92187500Y-92402000D01*
G75*
G02*
X92250000Y-92464500I0J-62500D01*
G01*
X92250000Y-92589500D01*
G75*
G02*
X92187500Y-92652000I-62500J0D01*
G01*
G37*
G36*
G01*
X92187500Y-93152000D02*
X91437500Y-93152000D01*
G75*
G02*
X91375000Y-93089500I0J62500D01*
G01*
X91375000Y-92964500D01*
G75*
G02*
X91437500Y-92902000I62500J0D01*
G01*
X92187500Y-92902000D01*
G75*
G02*
X92250000Y-92964500I0J-62500D01*
G01*
X92250000Y-93089500D01*
G75*
G02*
X92187500Y-93152000I-62500J0D01*
G01*
G37*
G36*
G01*
X92187500Y-93652000D02*
X91437500Y-93652000D01*
G75*
G02*
X91375000Y-93589500I0J62500D01*
G01*
X91375000Y-93464500D01*
G75*
G02*
X91437500Y-93402000I62500J0D01*
G01*
X92187500Y-93402000D01*
G75*
G02*
X92250000Y-93464500I0J-62500D01*
G01*
X92250000Y-93589500D01*
G75*
G02*
X92187500Y-93652000I-62500J0D01*
G01*
G37*
D16*
X94250000Y-91777000D03*
G36*
G01*
X100100000Y-81325000D02*
X100400000Y-81325000D01*
G75*
G02*
X100550000Y-81475000I0J-150000D01*
G01*
X100550000Y-82500000D01*
G75*
G02*
X100400000Y-82650000I-150000J0D01*
G01*
X100100000Y-82650000D01*
G75*
G02*
X99950000Y-82500000I0J150000D01*
G01*
X99950000Y-81475000D01*
G75*
G02*
X100100000Y-81325000I150000J0D01*
G01*
G37*
G36*
G01*
X99150000Y-81325000D02*
X99450000Y-81325000D01*
G75*
G02*
X99600000Y-81475000I0J-150000D01*
G01*
X99600000Y-82500000D01*
G75*
G02*
X99450000Y-82650000I-150000J0D01*
G01*
X99150000Y-82650000D01*
G75*
G02*
X99000000Y-82500000I0J150000D01*
G01*
X99000000Y-81475000D01*
G75*
G02*
X99150000Y-81325000I150000J0D01*
G01*
G37*
G36*
G01*
X98200000Y-81325000D02*
X98500000Y-81325000D01*
G75*
G02*
X98650000Y-81475000I0J-150000D01*
G01*
X98650000Y-82500000D01*
G75*
G02*
X98500000Y-82650000I-150000J0D01*
G01*
X98200000Y-82650000D01*
G75*
G02*
X98050000Y-82500000I0J150000D01*
G01*
X98050000Y-81475000D01*
G75*
G02*
X98200000Y-81325000I150000J0D01*
G01*
G37*
G36*
G01*
X98200000Y-83600000D02*
X98500000Y-83600000D01*
G75*
G02*
X98650000Y-83750000I0J-150000D01*
G01*
X98650000Y-84775000D01*
G75*
G02*
X98500000Y-84925000I-150000J0D01*
G01*
X98200000Y-84925000D01*
G75*
G02*
X98050000Y-84775000I0J150000D01*
G01*
X98050000Y-83750000D01*
G75*
G02*
X98200000Y-83600000I150000J0D01*
G01*
G37*
G36*
G01*
X100100000Y-83600000D02*
X100400000Y-83600000D01*
G75*
G02*
X100550000Y-83750000I0J-150000D01*
G01*
X100550000Y-84775000D01*
G75*
G02*
X100400000Y-84925000I-150000J0D01*
G01*
X100100000Y-84925000D01*
G75*
G02*
X99950000Y-84775000I0J150000D01*
G01*
X99950000Y-83750000D01*
G75*
G02*
X100100000Y-83600000I150000J0D01*
G01*
G37*
G36*
G01*
X76350000Y-74925000D02*
X76350000Y-75875000D01*
G75*
G02*
X76100000Y-76125000I-250000J0D01*
G01*
X75600000Y-76125000D01*
G75*
G02*
X75350000Y-75875000I0J250000D01*
G01*
X75350000Y-74925000D01*
G75*
G02*
X75600000Y-74675000I250000J0D01*
G01*
X76100000Y-74675000D01*
G75*
G02*
X76350000Y-74925000I0J-250000D01*
G01*
G37*
G36*
G01*
X74450000Y-74925000D02*
X74450000Y-75875000D01*
G75*
G02*
X74200000Y-76125000I-250000J0D01*
G01*
X73700000Y-76125000D01*
G75*
G02*
X73450000Y-75875000I0J250000D01*
G01*
X73450000Y-74925000D01*
G75*
G02*
X73700000Y-74675000I250000J0D01*
G01*
X74200000Y-74675000D01*
G75*
G02*
X74450000Y-74925000I0J-250000D01*
G01*
G37*
G36*
G01*
X82155000Y-86170000D02*
X82155000Y-85270000D01*
G75*
G02*
X82405000Y-85020000I250000J0D01*
G01*
X82930000Y-85020000D01*
G75*
G02*
X83180000Y-85270000I0J-250000D01*
G01*
X83180000Y-86170000D01*
G75*
G02*
X82930000Y-86420000I-250000J0D01*
G01*
X82405000Y-86420000D01*
G75*
G02*
X82155000Y-86170000I0J250000D01*
G01*
G37*
G36*
G01*
X83980000Y-86170000D02*
X83980000Y-85270000D01*
G75*
G02*
X84230000Y-85020000I250000J0D01*
G01*
X84755000Y-85020000D01*
G75*
G02*
X85005000Y-85270000I0J-250000D01*
G01*
X85005000Y-86170000D01*
G75*
G02*
X84755000Y-86420000I-250000J0D01*
G01*
X84230000Y-86420000D01*
G75*
G02*
X83980000Y-86170000I0J250000D01*
G01*
G37*
G36*
G01*
X59650000Y-87625000D02*
X60550000Y-87625000D01*
G75*
G02*
X60800000Y-87875000I0J-250000D01*
G01*
X60800000Y-88400000D01*
G75*
G02*
X60550000Y-88650000I-250000J0D01*
G01*
X59650000Y-88650000D01*
G75*
G02*
X59400000Y-88400000I0J250000D01*
G01*
X59400000Y-87875000D01*
G75*
G02*
X59650000Y-87625000I250000J0D01*
G01*
G37*
G36*
G01*
X59650000Y-89450000D02*
X60550000Y-89450000D01*
G75*
G02*
X60800000Y-89700000I0J-250000D01*
G01*
X60800000Y-90225000D01*
G75*
G02*
X60550000Y-90475000I-250000J0D01*
G01*
X59650000Y-90475000D01*
G75*
G02*
X59400000Y-90225000I0J250000D01*
G01*
X59400000Y-89700000D01*
G75*
G02*
X59650000Y-89450000I250000J0D01*
G01*
G37*
G36*
G01*
X73000000Y-87725000D02*
X73900000Y-87725000D01*
G75*
G02*
X74150000Y-87975000I0J-250000D01*
G01*
X74150000Y-88500000D01*
G75*
G02*
X73900000Y-88750000I-250000J0D01*
G01*
X73000000Y-88750000D01*
G75*
G02*
X72750000Y-88500000I0J250000D01*
G01*
X72750000Y-87975000D01*
G75*
G02*
X73000000Y-87725000I250000J0D01*
G01*
G37*
G36*
G01*
X73000000Y-89550000D02*
X73900000Y-89550000D01*
G75*
G02*
X74150000Y-89800000I0J-250000D01*
G01*
X74150000Y-90325000D01*
G75*
G02*
X73900000Y-90575000I-250000J0D01*
G01*
X73000000Y-90575000D01*
G75*
G02*
X72750000Y-90325000I0J250000D01*
G01*
X72750000Y-89800000D01*
G75*
G02*
X73000000Y-89550000I250000J0D01*
G01*
G37*
G36*
G01*
X97775000Y-90925000D02*
X97775000Y-89975000D01*
G75*
G02*
X98025000Y-89725000I250000J0D01*
G01*
X98525000Y-89725000D01*
G75*
G02*
X98775000Y-89975000I0J-250000D01*
G01*
X98775000Y-90925000D01*
G75*
G02*
X98525000Y-91175000I-250000J0D01*
G01*
X98025000Y-91175000D01*
G75*
G02*
X97775000Y-90925000I0J250000D01*
G01*
G37*
G36*
G01*
X99675000Y-90925000D02*
X99675000Y-89975000D01*
G75*
G02*
X99925000Y-89725000I250000J0D01*
G01*
X100425000Y-89725000D01*
G75*
G02*
X100675000Y-89975000I0J-250000D01*
G01*
X100675000Y-90925000D01*
G75*
G02*
X100425000Y-91175000I-250000J0D01*
G01*
X99925000Y-91175000D01*
G75*
G02*
X99675000Y-90925000I0J250000D01*
G01*
G37*
G36*
G01*
X104025000Y-96280000D02*
X104975000Y-96280000D01*
G75*
G02*
X105225000Y-96530000I0J-250000D01*
G01*
X105225000Y-97030000D01*
G75*
G02*
X104975000Y-97280000I-250000J0D01*
G01*
X104025000Y-97280000D01*
G75*
G02*
X103775000Y-97030000I0J250000D01*
G01*
X103775000Y-96530000D01*
G75*
G02*
X104025000Y-96280000I250000J0D01*
G01*
G37*
G36*
G01*
X104025000Y-98180000D02*
X104975000Y-98180000D01*
G75*
G02*
X105225000Y-98430000I0J-250000D01*
G01*
X105225000Y-98930000D01*
G75*
G02*
X104975000Y-99180000I-250000J0D01*
G01*
X104025000Y-99180000D01*
G75*
G02*
X103775000Y-98930000I0J250000D01*
G01*
X103775000Y-98430000D01*
G75*
G02*
X104025000Y-98180000I250000J0D01*
G01*
G37*
G36*
G01*
X97245000Y-100090000D02*
X96295000Y-100090000D01*
G75*
G02*
X96045000Y-99840000I0J250000D01*
G01*
X96045000Y-99340000D01*
G75*
G02*
X96295000Y-99090000I250000J0D01*
G01*
X97245000Y-99090000D01*
G75*
G02*
X97495000Y-99340000I0J-250000D01*
G01*
X97495000Y-99840000D01*
G75*
G02*
X97245000Y-100090000I-250000J0D01*
G01*
G37*
G36*
G01*
X97245000Y-98190000D02*
X96295000Y-98190000D01*
G75*
G02*
X96045000Y-97940000I0J250000D01*
G01*
X96045000Y-97440000D01*
G75*
G02*
X96295000Y-97190000I250000J0D01*
G01*
X97245000Y-97190000D01*
G75*
G02*
X97495000Y-97440000I0J-250000D01*
G01*
X97495000Y-97940000D01*
G75*
G02*
X97245000Y-98190000I-250000J0D01*
G01*
G37*
G36*
G01*
X82155000Y-84220000D02*
X82155000Y-83320000D01*
G75*
G02*
X82405000Y-83070000I250000J0D01*
G01*
X82930000Y-83070000D01*
G75*
G02*
X83180000Y-83320000I0J-250000D01*
G01*
X83180000Y-84220000D01*
G75*
G02*
X82930000Y-84470000I-250000J0D01*
G01*
X82405000Y-84470000D01*
G75*
G02*
X82155000Y-84220000I0J250000D01*
G01*
G37*
G36*
G01*
X83980000Y-84220000D02*
X83980000Y-83320000D01*
G75*
G02*
X84230000Y-83070000I250000J0D01*
G01*
X84755000Y-83070000D01*
G75*
G02*
X85005000Y-83320000I0J-250000D01*
G01*
X85005000Y-84220000D01*
G75*
G02*
X84755000Y-84470000I-250000J0D01*
G01*
X84230000Y-84470000D01*
G75*
G02*
X83980000Y-84220000I0J250000D01*
G01*
G37*
G36*
G01*
X104890000Y-91502500D02*
X103990000Y-91502500D01*
G75*
G02*
X103740000Y-91252500I0J250000D01*
G01*
X103740000Y-90727500D01*
G75*
G02*
X103990000Y-90477500I250000J0D01*
G01*
X104890000Y-90477500D01*
G75*
G02*
X105140000Y-90727500I0J-250000D01*
G01*
X105140000Y-91252500D01*
G75*
G02*
X104890000Y-91502500I-250000J0D01*
G01*
G37*
G36*
G01*
X104890000Y-89677500D02*
X103990000Y-89677500D01*
G75*
G02*
X103740000Y-89427500I0J250000D01*
G01*
X103740000Y-88902500D01*
G75*
G02*
X103990000Y-88652500I250000J0D01*
G01*
X104890000Y-88652500D01*
G75*
G02*
X105140000Y-88902500I0J-250000D01*
G01*
X105140000Y-89427500D01*
G75*
G02*
X104890000Y-89677500I-250000J0D01*
G01*
G37*
G36*
G01*
X97775000Y-88925000D02*
X97775000Y-87975000D01*
G75*
G02*
X98025000Y-87725000I250000J0D01*
G01*
X98525000Y-87725000D01*
G75*
G02*
X98775000Y-87975000I0J-250000D01*
G01*
X98775000Y-88925000D01*
G75*
G02*
X98525000Y-89175000I-250000J0D01*
G01*
X98025000Y-89175000D01*
G75*
G02*
X97775000Y-88925000I0J250000D01*
G01*
G37*
G36*
G01*
X99675000Y-88925000D02*
X99675000Y-87975000D01*
G75*
G02*
X99925000Y-87725000I250000J0D01*
G01*
X100425000Y-87725000D01*
G75*
G02*
X100675000Y-87975000I0J-250000D01*
G01*
X100675000Y-88925000D01*
G75*
G02*
X100425000Y-89175000I-250000J0D01*
G01*
X99925000Y-89175000D01*
G75*
G02*
X99675000Y-88925000I0J250000D01*
G01*
G37*
G36*
G01*
X68700000Y-84675000D02*
X68700000Y-84825000D01*
G75*
G02*
X68625000Y-84900000I-75000J0D01*
G01*
X67300000Y-84900000D01*
G75*
G02*
X67225000Y-84825000I0J75000D01*
G01*
X67225000Y-84675000D01*
G75*
G02*
X67300000Y-84600000I75000J0D01*
G01*
X68625000Y-84600000D01*
G75*
G02*
X68700000Y-84675000I0J-75000D01*
G01*
G37*
G36*
G01*
X68700000Y-84175000D02*
X68700000Y-84325000D01*
G75*
G02*
X68625000Y-84400000I-75000J0D01*
G01*
X67300000Y-84400000D01*
G75*
G02*
X67225000Y-84325000I0J75000D01*
G01*
X67225000Y-84175000D01*
G75*
G02*
X67300000Y-84100000I75000J0D01*
G01*
X68625000Y-84100000D01*
G75*
G02*
X68700000Y-84175000I0J-75000D01*
G01*
G37*
G36*
G01*
X68700000Y-83675000D02*
X68700000Y-83825000D01*
G75*
G02*
X68625000Y-83900000I-75000J0D01*
G01*
X67300000Y-83900000D01*
G75*
G02*
X67225000Y-83825000I0J75000D01*
G01*
X67225000Y-83675000D01*
G75*
G02*
X67300000Y-83600000I75000J0D01*
G01*
X68625000Y-83600000D01*
G75*
G02*
X68700000Y-83675000I0J-75000D01*
G01*
G37*
G36*
G01*
X68700000Y-83175000D02*
X68700000Y-83325000D01*
G75*
G02*
X68625000Y-83400000I-75000J0D01*
G01*
X67300000Y-83400000D01*
G75*
G02*
X67225000Y-83325000I0J75000D01*
G01*
X67225000Y-83175000D01*
G75*
G02*
X67300000Y-83100000I75000J0D01*
G01*
X68625000Y-83100000D01*
G75*
G02*
X68700000Y-83175000I0J-75000D01*
G01*
G37*
G36*
G01*
X68700000Y-82675000D02*
X68700000Y-82825000D01*
G75*
G02*
X68625000Y-82900000I-75000J0D01*
G01*
X67300000Y-82900000D01*
G75*
G02*
X67225000Y-82825000I0J75000D01*
G01*
X67225000Y-82675000D01*
G75*
G02*
X67300000Y-82600000I75000J0D01*
G01*
X68625000Y-82600000D01*
G75*
G02*
X68700000Y-82675000I0J-75000D01*
G01*
G37*
G36*
G01*
X68700000Y-82175000D02*
X68700000Y-82325000D01*
G75*
G02*
X68625000Y-82400000I-75000J0D01*
G01*
X67300000Y-82400000D01*
G75*
G02*
X67225000Y-82325000I0J75000D01*
G01*
X67225000Y-82175000D01*
G75*
G02*
X67300000Y-82100000I75000J0D01*
G01*
X68625000Y-82100000D01*
G75*
G02*
X68700000Y-82175000I0J-75000D01*
G01*
G37*
G36*
G01*
X68700000Y-81675000D02*
X68700000Y-81825000D01*
G75*
G02*
X68625000Y-81900000I-75000J0D01*
G01*
X67300000Y-81900000D01*
G75*
G02*
X67225000Y-81825000I0J75000D01*
G01*
X67225000Y-81675000D01*
G75*
G02*
X67300000Y-81600000I75000J0D01*
G01*
X68625000Y-81600000D01*
G75*
G02*
X68700000Y-81675000I0J-75000D01*
G01*
G37*
G36*
G01*
X68700000Y-81175000D02*
X68700000Y-81325000D01*
G75*
G02*
X68625000Y-81400000I-75000J0D01*
G01*
X67300000Y-81400000D01*
G75*
G02*
X67225000Y-81325000I0J75000D01*
G01*
X67225000Y-81175000D01*
G75*
G02*
X67300000Y-81100000I75000J0D01*
G01*
X68625000Y-81100000D01*
G75*
G02*
X68700000Y-81175000I0J-75000D01*
G01*
G37*
G36*
G01*
X68700000Y-80675000D02*
X68700000Y-80825000D01*
G75*
G02*
X68625000Y-80900000I-75000J0D01*
G01*
X67300000Y-80900000D01*
G75*
G02*
X67225000Y-80825000I0J75000D01*
G01*
X67225000Y-80675000D01*
G75*
G02*
X67300000Y-80600000I75000J0D01*
G01*
X68625000Y-80600000D01*
G75*
G02*
X68700000Y-80675000I0J-75000D01*
G01*
G37*
G36*
G01*
X68700000Y-80175000D02*
X68700000Y-80325000D01*
G75*
G02*
X68625000Y-80400000I-75000J0D01*
G01*
X67300000Y-80400000D01*
G75*
G02*
X67225000Y-80325000I0J75000D01*
G01*
X67225000Y-80175000D01*
G75*
G02*
X67300000Y-80100000I75000J0D01*
G01*
X68625000Y-80100000D01*
G75*
G02*
X68700000Y-80175000I0J-75000D01*
G01*
G37*
G36*
G01*
X68700000Y-79675000D02*
X68700000Y-79825000D01*
G75*
G02*
X68625000Y-79900000I-75000J0D01*
G01*
X67300000Y-79900000D01*
G75*
G02*
X67225000Y-79825000I0J75000D01*
G01*
X67225000Y-79675000D01*
G75*
G02*
X67300000Y-79600000I75000J0D01*
G01*
X68625000Y-79600000D01*
G75*
G02*
X68700000Y-79675000I0J-75000D01*
G01*
G37*
G36*
G01*
X68700000Y-79175000D02*
X68700000Y-79325000D01*
G75*
G02*
X68625000Y-79400000I-75000J0D01*
G01*
X67300000Y-79400000D01*
G75*
G02*
X67225000Y-79325000I0J75000D01*
G01*
X67225000Y-79175000D01*
G75*
G02*
X67300000Y-79100000I75000J0D01*
G01*
X68625000Y-79100000D01*
G75*
G02*
X68700000Y-79175000I0J-75000D01*
G01*
G37*
G36*
G01*
X68700000Y-78675000D02*
X68700000Y-78825000D01*
G75*
G02*
X68625000Y-78900000I-75000J0D01*
G01*
X67300000Y-78900000D01*
G75*
G02*
X67225000Y-78825000I0J75000D01*
G01*
X67225000Y-78675000D01*
G75*
G02*
X67300000Y-78600000I75000J0D01*
G01*
X68625000Y-78600000D01*
G75*
G02*
X68700000Y-78675000I0J-75000D01*
G01*
G37*
G36*
G01*
X68700000Y-78175000D02*
X68700000Y-78325000D01*
G75*
G02*
X68625000Y-78400000I-75000J0D01*
G01*
X67300000Y-78400000D01*
G75*
G02*
X67225000Y-78325000I0J75000D01*
G01*
X67225000Y-78175000D01*
G75*
G02*
X67300000Y-78100000I75000J0D01*
G01*
X68625000Y-78100000D01*
G75*
G02*
X68700000Y-78175000I0J-75000D01*
G01*
G37*
G36*
G01*
X68700000Y-77675000D02*
X68700000Y-77825000D01*
G75*
G02*
X68625000Y-77900000I-75000J0D01*
G01*
X67300000Y-77900000D01*
G75*
G02*
X67225000Y-77825000I0J75000D01*
G01*
X67225000Y-77675000D01*
G75*
G02*
X67300000Y-77600000I75000J0D01*
G01*
X68625000Y-77600000D01*
G75*
G02*
X68700000Y-77675000I0J-75000D01*
G01*
G37*
G36*
G01*
X62975000Y-77675000D02*
X62975000Y-77825000D01*
G75*
G02*
X62900000Y-77900000I-75000J0D01*
G01*
X61575000Y-77900000D01*
G75*
G02*
X61500000Y-77825000I0J75000D01*
G01*
X61500000Y-77675000D01*
G75*
G02*
X61575000Y-77600000I75000J0D01*
G01*
X62900000Y-77600000D01*
G75*
G02*
X62975000Y-77675000I0J-75000D01*
G01*
G37*
G36*
G01*
X62975000Y-78175000D02*
X62975000Y-78325000D01*
G75*
G02*
X62900000Y-78400000I-75000J0D01*
G01*
X61575000Y-78400000D01*
G75*
G02*
X61500000Y-78325000I0J75000D01*
G01*
X61500000Y-78175000D01*
G75*
G02*
X61575000Y-78100000I75000J0D01*
G01*
X62900000Y-78100000D01*
G75*
G02*
X62975000Y-78175000I0J-75000D01*
G01*
G37*
G36*
G01*
X62975000Y-78675000D02*
X62975000Y-78825000D01*
G75*
G02*
X62900000Y-78900000I-75000J0D01*
G01*
X61575000Y-78900000D01*
G75*
G02*
X61500000Y-78825000I0J75000D01*
G01*
X61500000Y-78675000D01*
G75*
G02*
X61575000Y-78600000I75000J0D01*
G01*
X62900000Y-78600000D01*
G75*
G02*
X62975000Y-78675000I0J-75000D01*
G01*
G37*
G36*
G01*
X62975000Y-79175000D02*
X62975000Y-79325000D01*
G75*
G02*
X62900000Y-79400000I-75000J0D01*
G01*
X61575000Y-79400000D01*
G75*
G02*
X61500000Y-79325000I0J75000D01*
G01*
X61500000Y-79175000D01*
G75*
G02*
X61575000Y-79100000I75000J0D01*
G01*
X62900000Y-79100000D01*
G75*
G02*
X62975000Y-79175000I0J-75000D01*
G01*
G37*
G36*
G01*
X62975000Y-79675000D02*
X62975000Y-79825000D01*
G75*
G02*
X62900000Y-79900000I-75000J0D01*
G01*
X61575000Y-79900000D01*
G75*
G02*
X61500000Y-79825000I0J75000D01*
G01*
X61500000Y-79675000D01*
G75*
G02*
X61575000Y-79600000I75000J0D01*
G01*
X62900000Y-79600000D01*
G75*
G02*
X62975000Y-79675000I0J-75000D01*
G01*
G37*
G36*
G01*
X62975000Y-80175000D02*
X62975000Y-80325000D01*
G75*
G02*
X62900000Y-80400000I-75000J0D01*
G01*
X61575000Y-80400000D01*
G75*
G02*
X61500000Y-80325000I0J75000D01*
G01*
X61500000Y-80175000D01*
G75*
G02*
X61575000Y-80100000I75000J0D01*
G01*
X62900000Y-80100000D01*
G75*
G02*
X62975000Y-80175000I0J-75000D01*
G01*
G37*
G36*
G01*
X62975000Y-80675000D02*
X62975000Y-80825000D01*
G75*
G02*
X62900000Y-80900000I-75000J0D01*
G01*
X61575000Y-80900000D01*
G75*
G02*
X61500000Y-80825000I0J75000D01*
G01*
X61500000Y-80675000D01*
G75*
G02*
X61575000Y-80600000I75000J0D01*
G01*
X62900000Y-80600000D01*
G75*
G02*
X62975000Y-80675000I0J-75000D01*
G01*
G37*
G36*
G01*
X62975000Y-81175000D02*
X62975000Y-81325000D01*
G75*
G02*
X62900000Y-81400000I-75000J0D01*
G01*
X61575000Y-81400000D01*
G75*
G02*
X61500000Y-81325000I0J75000D01*
G01*
X61500000Y-81175000D01*
G75*
G02*
X61575000Y-81100000I75000J0D01*
G01*
X62900000Y-81100000D01*
G75*
G02*
X62975000Y-81175000I0J-75000D01*
G01*
G37*
G36*
G01*
X62975000Y-81675000D02*
X62975000Y-81825000D01*
G75*
G02*
X62900000Y-81900000I-75000J0D01*
G01*
X61575000Y-81900000D01*
G75*
G02*
X61500000Y-81825000I0J75000D01*
G01*
X61500000Y-81675000D01*
G75*
G02*
X61575000Y-81600000I75000J0D01*
G01*
X62900000Y-81600000D01*
G75*
G02*
X62975000Y-81675000I0J-75000D01*
G01*
G37*
G36*
G01*
X62975000Y-82175000D02*
X62975000Y-82325000D01*
G75*
G02*
X62900000Y-82400000I-75000J0D01*
G01*
X61575000Y-82400000D01*
G75*
G02*
X61500000Y-82325000I0J75000D01*
G01*
X61500000Y-82175000D01*
G75*
G02*
X61575000Y-82100000I75000J0D01*
G01*
X62900000Y-82100000D01*
G75*
G02*
X62975000Y-82175000I0J-75000D01*
G01*
G37*
G36*
G01*
X62975000Y-82675000D02*
X62975000Y-82825000D01*
G75*
G02*
X62900000Y-82900000I-75000J0D01*
G01*
X61575000Y-82900000D01*
G75*
G02*
X61500000Y-82825000I0J75000D01*
G01*
X61500000Y-82675000D01*
G75*
G02*
X61575000Y-82600000I75000J0D01*
G01*
X62900000Y-82600000D01*
G75*
G02*
X62975000Y-82675000I0J-75000D01*
G01*
G37*
G36*
G01*
X62975000Y-83175000D02*
X62975000Y-83325000D01*
G75*
G02*
X62900000Y-83400000I-75000J0D01*
G01*
X61575000Y-83400000D01*
G75*
G02*
X61500000Y-83325000I0J75000D01*
G01*
X61500000Y-83175000D01*
G75*
G02*
X61575000Y-83100000I75000J0D01*
G01*
X62900000Y-83100000D01*
G75*
G02*
X62975000Y-83175000I0J-75000D01*
G01*
G37*
G36*
G01*
X62975000Y-83675000D02*
X62975000Y-83825000D01*
G75*
G02*
X62900000Y-83900000I-75000J0D01*
G01*
X61575000Y-83900000D01*
G75*
G02*
X61500000Y-83825000I0J75000D01*
G01*
X61500000Y-83675000D01*
G75*
G02*
X61575000Y-83600000I75000J0D01*
G01*
X62900000Y-83600000D01*
G75*
G02*
X62975000Y-83675000I0J-75000D01*
G01*
G37*
G36*
G01*
X62975000Y-84175000D02*
X62975000Y-84325000D01*
G75*
G02*
X62900000Y-84400000I-75000J0D01*
G01*
X61575000Y-84400000D01*
G75*
G02*
X61500000Y-84325000I0J75000D01*
G01*
X61500000Y-84175000D01*
G75*
G02*
X61575000Y-84100000I75000J0D01*
G01*
X62900000Y-84100000D01*
G75*
G02*
X62975000Y-84175000I0J-75000D01*
G01*
G37*
G36*
G01*
X62975000Y-84675000D02*
X62975000Y-84825000D01*
G75*
G02*
X62900000Y-84900000I-75000J0D01*
G01*
X61575000Y-84900000D01*
G75*
G02*
X61500000Y-84825000I0J75000D01*
G01*
X61500000Y-84675000D01*
G75*
G02*
X61575000Y-84600000I75000J0D01*
G01*
X62900000Y-84600000D01*
G75*
G02*
X62975000Y-84675000I0J-75000D01*
G01*
G37*
G36*
G01*
X75650000Y-76650000D02*
X75950000Y-76650000D01*
G75*
G02*
X76100000Y-76800000I0J-150000D01*
G01*
X76100000Y-77825000D01*
G75*
G02*
X75950000Y-77975000I-150000J0D01*
G01*
X75650000Y-77975000D01*
G75*
G02*
X75500000Y-77825000I0J150000D01*
G01*
X75500000Y-76800000D01*
G75*
G02*
X75650000Y-76650000I150000J0D01*
G01*
G37*
G36*
G01*
X74700000Y-76650000D02*
X75000000Y-76650000D01*
G75*
G02*
X75150000Y-76800000I0J-150000D01*
G01*
X75150000Y-77825000D01*
G75*
G02*
X75000000Y-77975000I-150000J0D01*
G01*
X74700000Y-77975000D01*
G75*
G02*
X74550000Y-77825000I0J150000D01*
G01*
X74550000Y-76800000D01*
G75*
G02*
X74700000Y-76650000I150000J0D01*
G01*
G37*
G36*
G01*
X73750000Y-76650000D02*
X74050000Y-76650000D01*
G75*
G02*
X74200000Y-76800000I0J-150000D01*
G01*
X74200000Y-77825000D01*
G75*
G02*
X74050000Y-77975000I-150000J0D01*
G01*
X73750000Y-77975000D01*
G75*
G02*
X73600000Y-77825000I0J150000D01*
G01*
X73600000Y-76800000D01*
G75*
G02*
X73750000Y-76650000I150000J0D01*
G01*
G37*
G36*
G01*
X73750000Y-78925000D02*
X74050000Y-78925000D01*
G75*
G02*
X74200000Y-79075000I0J-150000D01*
G01*
X74200000Y-80100000D01*
G75*
G02*
X74050000Y-80250000I-150000J0D01*
G01*
X73750000Y-80250000D01*
G75*
G02*
X73600000Y-80100000I0J150000D01*
G01*
X73600000Y-79075000D01*
G75*
G02*
X73750000Y-78925000I150000J0D01*
G01*
G37*
G36*
G01*
X75650000Y-78925000D02*
X75950000Y-78925000D01*
G75*
G02*
X76100000Y-79075000I0J-150000D01*
G01*
X76100000Y-80100000D01*
G75*
G02*
X75950000Y-80250000I-150000J0D01*
G01*
X75650000Y-80250000D01*
G75*
G02*
X75500000Y-80100000I0J150000D01*
G01*
X75500000Y-79075000D01*
G75*
G02*
X75650000Y-78925000I150000J0D01*
G01*
G37*
G36*
G01*
X81700000Y-72295000D02*
X80800000Y-72295000D01*
G75*
G02*
X80550000Y-72045000I0J250000D01*
G01*
X80550000Y-71520000D01*
G75*
G02*
X80800000Y-71270000I250000J0D01*
G01*
X81700000Y-71270000D01*
G75*
G02*
X81950000Y-71520000I0J-250000D01*
G01*
X81950000Y-72045000D01*
G75*
G02*
X81700000Y-72295000I-250000J0D01*
G01*
G37*
G36*
G01*
X81700000Y-70470000D02*
X80800000Y-70470000D01*
G75*
G02*
X80550000Y-70220000I0J250000D01*
G01*
X80550000Y-69695000D01*
G75*
G02*
X80800000Y-69445000I250000J0D01*
G01*
X81700000Y-69445000D01*
G75*
G02*
X81950000Y-69695000I0J-250000D01*
G01*
X81950000Y-70220000D01*
G75*
G02*
X81700000Y-70470000I-250000J0D01*
G01*
G37*
G36*
G01*
X83325000Y-62325000D02*
X82375000Y-62325000D01*
G75*
G02*
X82125000Y-62075000I0J250000D01*
G01*
X82125000Y-61575000D01*
G75*
G02*
X82375000Y-61325000I250000J0D01*
G01*
X83325000Y-61325000D01*
G75*
G02*
X83575000Y-61575000I0J-250000D01*
G01*
X83575000Y-62075000D01*
G75*
G02*
X83325000Y-62325000I-250000J0D01*
G01*
G37*
G36*
G01*
X83325000Y-60425000D02*
X82375000Y-60425000D01*
G75*
G02*
X82125000Y-60175000I0J250000D01*
G01*
X82125000Y-59675000D01*
G75*
G02*
X82375000Y-59425000I250000J0D01*
G01*
X83325000Y-59425000D01*
G75*
G02*
X83575000Y-59675000I0J-250000D01*
G01*
X83575000Y-60175000D01*
G75*
G02*
X83325000Y-60425000I-250000J0D01*
G01*
G37*
G36*
G01*
X57650000Y-87625000D02*
X58550000Y-87625000D01*
G75*
G02*
X58800000Y-87875000I0J-250000D01*
G01*
X58800000Y-88400000D01*
G75*
G02*
X58550000Y-88650000I-250000J0D01*
G01*
X57650000Y-88650000D01*
G75*
G02*
X57400000Y-88400000I0J250000D01*
G01*
X57400000Y-87875000D01*
G75*
G02*
X57650000Y-87625000I250000J0D01*
G01*
G37*
G36*
G01*
X57650000Y-89450000D02*
X58550000Y-89450000D01*
G75*
G02*
X58800000Y-89700000I0J-250000D01*
G01*
X58800000Y-90225000D01*
G75*
G02*
X58550000Y-90475000I-250000J0D01*
G01*
X57650000Y-90475000D01*
G75*
G02*
X57400000Y-90225000I0J250000D01*
G01*
X57400000Y-89700000D01*
G75*
G02*
X57650000Y-89450000I250000J0D01*
G01*
G37*
G36*
G01*
X87900000Y-72345000D02*
X87000000Y-72345000D01*
G75*
G02*
X86750000Y-72095000I0J250000D01*
G01*
X86750000Y-71570000D01*
G75*
G02*
X87000000Y-71320000I250000J0D01*
G01*
X87900000Y-71320000D01*
G75*
G02*
X88150000Y-71570000I0J-250000D01*
G01*
X88150000Y-72095000D01*
G75*
G02*
X87900000Y-72345000I-250000J0D01*
G01*
G37*
G36*
G01*
X87900000Y-70520000D02*
X87000000Y-70520000D01*
G75*
G02*
X86750000Y-70270000I0J250000D01*
G01*
X86750000Y-69745000D01*
G75*
G02*
X87000000Y-69495000I250000J0D01*
G01*
X87900000Y-69495000D01*
G75*
G02*
X88150000Y-69745000I0J-250000D01*
G01*
X88150000Y-70270000D01*
G75*
G02*
X87900000Y-70520000I-250000J0D01*
G01*
G37*
G36*
G01*
X92975000Y-100150000D02*
X92025000Y-100150000D01*
G75*
G02*
X91775000Y-99900000I0J250000D01*
G01*
X91775000Y-99400000D01*
G75*
G02*
X92025000Y-99150000I250000J0D01*
G01*
X92975000Y-99150000D01*
G75*
G02*
X93225000Y-99400000I0J-250000D01*
G01*
X93225000Y-99900000D01*
G75*
G02*
X92975000Y-100150000I-250000J0D01*
G01*
G37*
G36*
G01*
X92975000Y-98250000D02*
X92025000Y-98250000D01*
G75*
G02*
X91775000Y-98000000I0J250000D01*
G01*
X91775000Y-97500000D01*
G75*
G02*
X92025000Y-97250000I250000J0D01*
G01*
X92975000Y-97250000D01*
G75*
G02*
X93225000Y-97500000I0J-250000D01*
G01*
X93225000Y-98000000D01*
G75*
G02*
X92975000Y-98250000I-250000J0D01*
G01*
G37*
G36*
G01*
X104025000Y-92880000D02*
X104925000Y-92880000D01*
G75*
G02*
X105175000Y-93130000I0J-250000D01*
G01*
X105175000Y-93655000D01*
G75*
G02*
X104925000Y-93905000I-250000J0D01*
G01*
X104025000Y-93905000D01*
G75*
G02*
X103775000Y-93655000I0J250000D01*
G01*
X103775000Y-93130000D01*
G75*
G02*
X104025000Y-92880000I250000J0D01*
G01*
G37*
G36*
G01*
X104025000Y-94705000D02*
X104925000Y-94705000D01*
G75*
G02*
X105175000Y-94955000I0J-250000D01*
G01*
X105175000Y-95480000D01*
G75*
G02*
X104925000Y-95730000I-250000J0D01*
G01*
X104025000Y-95730000D01*
G75*
G02*
X103775000Y-95480000I0J250000D01*
G01*
X103775000Y-94955000D01*
G75*
G02*
X104025000Y-94705000I250000J0D01*
G01*
G37*
G36*
G01*
X93010000Y-85695000D02*
X92110000Y-85695000D01*
G75*
G02*
X91860000Y-85445000I0J250000D01*
G01*
X91860000Y-84920000D01*
G75*
G02*
X92110000Y-84670000I250000J0D01*
G01*
X93010000Y-84670000D01*
G75*
G02*
X93260000Y-84920000I0J-250000D01*
G01*
X93260000Y-85445000D01*
G75*
G02*
X93010000Y-85695000I-250000J0D01*
G01*
G37*
G36*
G01*
X93010000Y-83870000D02*
X92110000Y-83870000D01*
G75*
G02*
X91860000Y-83620000I0J250000D01*
G01*
X91860000Y-83095000D01*
G75*
G02*
X92110000Y-82845000I250000J0D01*
G01*
X93010000Y-82845000D01*
G75*
G02*
X93260000Y-83095000I0J-250000D01*
G01*
X93260000Y-83620000D01*
G75*
G02*
X93010000Y-83870000I-250000J0D01*
G01*
G37*
G36*
G01*
X97850000Y-80475000D02*
X97850000Y-79525000D01*
G75*
G02*
X98100000Y-79275000I250000J0D01*
G01*
X98600000Y-79275000D01*
G75*
G02*
X98850000Y-79525000I0J-250000D01*
G01*
X98850000Y-80475000D01*
G75*
G02*
X98600000Y-80725000I-250000J0D01*
G01*
X98100000Y-80725000D01*
G75*
G02*
X97850000Y-80475000I0J250000D01*
G01*
G37*
G36*
G01*
X99750000Y-80475000D02*
X99750000Y-79525000D01*
G75*
G02*
X100000000Y-79275000I250000J0D01*
G01*
X100500000Y-79275000D01*
G75*
G02*
X100750000Y-79525000I0J-250000D01*
G01*
X100750000Y-80475000D01*
G75*
G02*
X100500000Y-80725000I-250000J0D01*
G01*
X100000000Y-80725000D01*
G75*
G02*
X99750000Y-80475000I0J250000D01*
G01*
G37*
G36*
G01*
X91650000Y-87250000D02*
X91650000Y-88150000D01*
G75*
G02*
X91400000Y-88400000I-250000J0D01*
G01*
X90875000Y-88400000D01*
G75*
G02*
X90625000Y-88150000I0J250000D01*
G01*
X90625000Y-87250000D01*
G75*
G02*
X90875000Y-87000000I250000J0D01*
G01*
X91400000Y-87000000D01*
G75*
G02*
X91650000Y-87250000I0J-250000D01*
G01*
G37*
G36*
G01*
X89825000Y-87250000D02*
X89825000Y-88150000D01*
G75*
G02*
X89575000Y-88400000I-250000J0D01*
G01*
X89050000Y-88400000D01*
G75*
G02*
X88800000Y-88150000I0J250000D01*
G01*
X88800000Y-87250000D01*
G75*
G02*
X89050000Y-87000000I250000J0D01*
G01*
X89575000Y-87000000D01*
G75*
G02*
X89825000Y-87250000I0J-250000D01*
G01*
G37*
G36*
G01*
X60550000Y-97275000D02*
X59650000Y-97275000D01*
G75*
G02*
X59400000Y-97025000I0J250000D01*
G01*
X59400000Y-96500000D01*
G75*
G02*
X59650000Y-96250000I250000J0D01*
G01*
X60550000Y-96250000D01*
G75*
G02*
X60800000Y-96500000I0J-250000D01*
G01*
X60800000Y-97025000D01*
G75*
G02*
X60550000Y-97275000I-250000J0D01*
G01*
G37*
G36*
G01*
X60550000Y-95450000D02*
X59650000Y-95450000D01*
G75*
G02*
X59400000Y-95200000I0J250000D01*
G01*
X59400000Y-94675000D01*
G75*
G02*
X59650000Y-94425000I250000J0D01*
G01*
X60550000Y-94425000D01*
G75*
G02*
X60800000Y-94675000I0J-250000D01*
G01*
X60800000Y-95200000D01*
G75*
G02*
X60550000Y-95450000I-250000J0D01*
G01*
G37*
G36*
G01*
X73550000Y-85975000D02*
X73550000Y-85025000D01*
G75*
G02*
X73800000Y-84775000I250000J0D01*
G01*
X74300000Y-84775000D01*
G75*
G02*
X74550000Y-85025000I0J-250000D01*
G01*
X74550000Y-85975000D01*
G75*
G02*
X74300000Y-86225000I-250000J0D01*
G01*
X73800000Y-86225000D01*
G75*
G02*
X73550000Y-85975000I0J250000D01*
G01*
G37*
G36*
G01*
X75450000Y-85975000D02*
X75450000Y-85025000D01*
G75*
G02*
X75700000Y-84775000I250000J0D01*
G01*
X76200000Y-84775000D01*
G75*
G02*
X76450000Y-85025000I0J-250000D01*
G01*
X76450000Y-85975000D01*
G75*
G02*
X76200000Y-86225000I-250000J0D01*
G01*
X75700000Y-86225000D01*
G75*
G02*
X75450000Y-85975000I0J250000D01*
G01*
G37*
G36*
G01*
X88200000Y-60625000D02*
X88200000Y-59725000D01*
G75*
G02*
X88450000Y-59475000I250000J0D01*
G01*
X88975000Y-59475000D01*
G75*
G02*
X89225000Y-59725000I0J-250000D01*
G01*
X89225000Y-60625000D01*
G75*
G02*
X88975000Y-60875000I-250000J0D01*
G01*
X88450000Y-60875000D01*
G75*
G02*
X88200000Y-60625000I0J250000D01*
G01*
G37*
G36*
G01*
X90025000Y-60625000D02*
X90025000Y-59725000D01*
G75*
G02*
X90275000Y-59475000I250000J0D01*
G01*
X90800000Y-59475000D01*
G75*
G02*
X91050000Y-59725000I0J-250000D01*
G01*
X91050000Y-60625000D01*
G75*
G02*
X90800000Y-60875000I-250000J0D01*
G01*
X90275000Y-60875000D01*
G75*
G02*
X90025000Y-60625000I0J250000D01*
G01*
G37*
G36*
G01*
X100870000Y-63055000D02*
X99970000Y-63055000D01*
G75*
G02*
X99720000Y-62805000I0J250000D01*
G01*
X99720000Y-62280000D01*
G75*
G02*
X99970000Y-62030000I250000J0D01*
G01*
X100870000Y-62030000D01*
G75*
G02*
X101120000Y-62280000I0J-250000D01*
G01*
X101120000Y-62805000D01*
G75*
G02*
X100870000Y-63055000I-250000J0D01*
G01*
G37*
G36*
G01*
X100870000Y-61230000D02*
X99970000Y-61230000D01*
G75*
G02*
X99720000Y-60980000I0J250000D01*
G01*
X99720000Y-60455000D01*
G75*
G02*
X99970000Y-60205000I250000J0D01*
G01*
X100870000Y-60205000D01*
G75*
G02*
X101120000Y-60455000I0J-250000D01*
G01*
X101120000Y-60980000D01*
G75*
G02*
X100870000Y-61230000I-250000J0D01*
G01*
G37*
G36*
G01*
X72550000Y-84000000D02*
X72550000Y-83050000D01*
G75*
G02*
X72800000Y-82800000I250000J0D01*
G01*
X73300000Y-82800000D01*
G75*
G02*
X73550000Y-83050000I0J-250000D01*
G01*
X73550000Y-84000000D01*
G75*
G02*
X73300000Y-84250000I-250000J0D01*
G01*
X72800000Y-84250000D01*
G75*
G02*
X72550000Y-84000000I0J250000D01*
G01*
G37*
G36*
G01*
X74450000Y-84000000D02*
X74450000Y-83050000D01*
G75*
G02*
X74700000Y-82800000I250000J0D01*
G01*
X75200000Y-82800000D01*
G75*
G02*
X75450000Y-83050000I0J-250000D01*
G01*
X75450000Y-84000000D01*
G75*
G02*
X75200000Y-84250000I-250000J0D01*
G01*
X74700000Y-84250000D01*
G75*
G02*
X74450000Y-84000000I0J250000D01*
G01*
G37*
G36*
G01*
X57625000Y-91000000D02*
X58575000Y-91000000D01*
G75*
G02*
X58825000Y-91250000I0J-250000D01*
G01*
X58825000Y-91750000D01*
G75*
G02*
X58575000Y-92000000I-250000J0D01*
G01*
X57625000Y-92000000D01*
G75*
G02*
X57375000Y-91750000I0J250000D01*
G01*
X57375000Y-91250000D01*
G75*
G02*
X57625000Y-91000000I250000J0D01*
G01*
G37*
G36*
G01*
X57625000Y-92900000D02*
X58575000Y-92900000D01*
G75*
G02*
X58825000Y-93150000I0J-250000D01*
G01*
X58825000Y-93650000D01*
G75*
G02*
X58575000Y-93900000I-250000J0D01*
G01*
X57625000Y-93900000D01*
G75*
G02*
X57375000Y-93650000I0J250000D01*
G01*
X57375000Y-93150000D01*
G75*
G02*
X57625000Y-92900000I250000J0D01*
G01*
G37*
G36*
G01*
X58550000Y-97275000D02*
X57650000Y-97275000D01*
G75*
G02*
X57400000Y-97025000I0J250000D01*
G01*
X57400000Y-96500000D01*
G75*
G02*
X57650000Y-96250000I250000J0D01*
G01*
X58550000Y-96250000D01*
G75*
G02*
X58800000Y-96500000I0J-250000D01*
G01*
X58800000Y-97025000D01*
G75*
G02*
X58550000Y-97275000I-250000J0D01*
G01*
G37*
G36*
G01*
X58550000Y-95450000D02*
X57650000Y-95450000D01*
G75*
G02*
X57400000Y-95200000I0J250000D01*
G01*
X57400000Y-94675000D01*
G75*
G02*
X57650000Y-94425000I250000J0D01*
G01*
X58550000Y-94425000D01*
G75*
G02*
X58800000Y-94675000I0J-250000D01*
G01*
X58800000Y-95200000D01*
G75*
G02*
X58550000Y-95450000I-250000J0D01*
G01*
G37*
G36*
G01*
X87690000Y-61720000D02*
X87690000Y-62020000D01*
G75*
G02*
X87540000Y-62170000I-150000J0D01*
G01*
X86515000Y-62170000D01*
G75*
G02*
X86365000Y-62020000I0J150000D01*
G01*
X86365000Y-61720000D01*
G75*
G02*
X86515000Y-61570000I150000J0D01*
G01*
X87540000Y-61570000D01*
G75*
G02*
X87690000Y-61720000I0J-150000D01*
G01*
G37*
G36*
G01*
X87690000Y-60770000D02*
X87690000Y-61070000D01*
G75*
G02*
X87540000Y-61220000I-150000J0D01*
G01*
X86515000Y-61220000D01*
G75*
G02*
X86365000Y-61070000I0J150000D01*
G01*
X86365000Y-60770000D01*
G75*
G02*
X86515000Y-60620000I150000J0D01*
G01*
X87540000Y-60620000D01*
G75*
G02*
X87690000Y-60770000I0J-150000D01*
G01*
G37*
G36*
G01*
X87690000Y-59820000D02*
X87690000Y-60120000D01*
G75*
G02*
X87540000Y-60270000I-150000J0D01*
G01*
X86515000Y-60270000D01*
G75*
G02*
X86365000Y-60120000I0J150000D01*
G01*
X86365000Y-59820000D01*
G75*
G02*
X86515000Y-59670000I150000J0D01*
G01*
X87540000Y-59670000D01*
G75*
G02*
X87690000Y-59820000I0J-150000D01*
G01*
G37*
G36*
G01*
X85415000Y-59820000D02*
X85415000Y-60120000D01*
G75*
G02*
X85265000Y-60270000I-150000J0D01*
G01*
X84240000Y-60270000D01*
G75*
G02*
X84090000Y-60120000I0J150000D01*
G01*
X84090000Y-59820000D01*
G75*
G02*
X84240000Y-59670000I150000J0D01*
G01*
X85265000Y-59670000D01*
G75*
G02*
X85415000Y-59820000I0J-150000D01*
G01*
G37*
G36*
G01*
X85415000Y-61720000D02*
X85415000Y-62020000D01*
G75*
G02*
X85265000Y-62170000I-150000J0D01*
G01*
X84240000Y-62170000D01*
G75*
G02*
X84090000Y-62020000I0J150000D01*
G01*
X84090000Y-61720000D01*
G75*
G02*
X84240000Y-61570000I150000J0D01*
G01*
X85265000Y-61570000D01*
G75*
G02*
X85415000Y-61720000I0J-150000D01*
G01*
G37*
G36*
G01*
X64775000Y-76750000D02*
X63825000Y-76750000D01*
G75*
G02*
X63575000Y-76500000I0J250000D01*
G01*
X63575000Y-76000000D01*
G75*
G02*
X63825000Y-75750000I250000J0D01*
G01*
X64775000Y-75750000D01*
G75*
G02*
X65025000Y-76000000I0J-250000D01*
G01*
X65025000Y-76500000D01*
G75*
G02*
X64775000Y-76750000I-250000J0D01*
G01*
G37*
G36*
G01*
X64775000Y-74850000D02*
X63825000Y-74850000D01*
G75*
G02*
X63575000Y-74600000I0J250000D01*
G01*
X63575000Y-74100000D01*
G75*
G02*
X63825000Y-73850000I250000J0D01*
G01*
X64775000Y-73850000D01*
G75*
G02*
X65025000Y-74100000I0J-250000D01*
G01*
X65025000Y-74600000D01*
G75*
G02*
X64775000Y-74850000I-250000J0D01*
G01*
G37*
M02*
