G04 #@! TF.GenerationSoftware,KiCad,Pcbnew,8.0.6+1*
G04 #@! TF.CreationDate,2024-12-15T19:50:12+00:00*
G04 #@! TF.ProjectId,pedalboard-soundcard,70656461-6c62-46f6-9172-642d736f756e,1.0.1-RC*
G04 #@! TF.SameCoordinates,Original*
G04 #@! TF.FileFunction,Profile,NP*
%FSLAX46Y46*%
G04 Gerber Fmt 4.6, Leading zero omitted, Abs format (unit mm)*
G04 Created by KiCad (PCBNEW 8.0.6+1) date 2024-12-15 19:50:12*
%MOMM*%
%LPD*%
G01*
G04 APERTURE LIST*
G04 #@! TA.AperFunction,Profile*
%ADD10C,0.100000*%
G04 #@! TD*
G04 #@! TA.AperFunction,Profile*
%ADD11C,0.120000*%
G04 #@! TD*
G04 APERTURE END LIST*
D10*
X51500000Y-108500000D02*
G75*
G02*
X48500000Y-105500000I0J3000000D01*
G01*
X113500000Y-105500000D02*
G75*
G02*
X110500000Y-108500000I-3000000J0D01*
G01*
X49500000Y-72000000D02*
G75*
G02*
X48500000Y-71000000I0J1000000D01*
G01*
X52500000Y-72000000D02*
G75*
G02*
X53500000Y-73000000I0J-1000000D01*
G01*
X53500000Y-88000000D02*
G75*
G02*
X52500000Y-89000000I-1000000J0D01*
G01*
X48500000Y-90000000D02*
G75*
G02*
X49500000Y-89000000I1000000J0D01*
G01*
X48500000Y-55500000D02*
G75*
G02*
X51500000Y-52500000I3000000J0D01*
G01*
X51500000Y-52500000D02*
X110500000Y-52500000D01*
X110500000Y-52500000D02*
G75*
G02*
X113500000Y-55500000I0J-3000000D01*
G01*
X72440000Y-108500000D02*
X78600000Y-108500000D01*
X48500000Y-55500000D02*
X48500000Y-71000000D01*
X53500000Y-73000000D02*
X53500000Y-88000000D01*
X49500000Y-72000000D02*
X52500000Y-72000000D01*
X48500000Y-90000000D02*
X48500000Y-105500000D01*
X51500000Y-108500000D02*
X59440000Y-108500000D01*
X91600000Y-108500000D02*
X110500000Y-108500000D01*
X113500000Y-55500000D02*
X113500000Y-105500000D01*
X49500000Y-89000000D02*
X52500000Y-89000000D01*
D11*
X63740000Y-107500000D02*
X63740000Y-108500000D01*
X63740000Y-108500000D02*
X59440000Y-108500000D01*
X67740000Y-107100000D02*
X64140000Y-107100000D01*
X68140000Y-107500000D02*
X68140000Y-108500000D01*
X68140000Y-108500000D02*
X72440000Y-108500000D01*
X63740000Y-107500000D02*
G75*
G02*
X64140000Y-107100000I400002J-2D01*
G01*
X67740000Y-107100000D02*
G75*
G02*
X68140000Y-107500000I0J-400000D01*
G01*
X82900000Y-107500000D02*
X82900000Y-108500000D01*
X82900000Y-108500000D02*
X78600000Y-108500000D01*
X86900000Y-107100000D02*
X83300000Y-107100000D01*
X87300000Y-107500000D02*
X87300000Y-108500000D01*
X87300000Y-108500000D02*
X91600000Y-108500000D01*
X82900000Y-107500000D02*
G75*
G02*
X83300000Y-107100000I400002J-2D01*
G01*
X86900000Y-107100000D02*
G75*
G02*
X87300000Y-107500000I0J-400000D01*
G01*
M02*
