G04 #@! TF.GenerationSoftware,KiCad,Pcbnew,7.0.9-7.0.9~ubuntu23.04.1*
G04 #@! TF.CreationDate,2024-01-07T17:38:14+00:00*
G04 #@! TF.ProjectId,pedalboard-soundcard,70656461-6c62-46f6-9172-642d736f756e,0.0.1*
G04 #@! TF.SameCoordinates,Original*
G04 #@! TF.FileFunction,Legend,Bot*
G04 #@! TF.FilePolarity,Positive*
%FSLAX46Y46*%
G04 Gerber Fmt 4.6, Leading zero omitted, Abs format (unit mm)*
G04 Created by KiCad (PCBNEW 7.0.9-7.0.9~ubuntu23.04.1) date 2024-01-07 17:38:14*
%MOMM*%
%LPD*%
G01*
G04 APERTURE LIST*
%ADD10C,0.150000*%
%ADD11C,0.120000*%
%ADD12C,6.200000*%
%ADD13R,1.727200X1.727200*%
%ADD14O,1.727200X1.727200*%
%ADD15C,1.200000*%
%ADD16O,1.200000X2.200000*%
%ADD17O,1.600000X2.300000*%
%ADD18O,2.200000X1.200000*%
%ADD19O,1.600000X2.500000*%
%ADD20R,1.700000X1.700000*%
%ADD21O,1.700000X1.700000*%
G04 APERTURE END LIST*
D10*
X69503333Y-95234819D02*
X69503333Y-95949104D01*
X69503333Y-95949104D02*
X69550952Y-96091961D01*
X69550952Y-96091961D02*
X69646190Y-96187200D01*
X69646190Y-96187200D02*
X69789047Y-96234819D01*
X69789047Y-96234819D02*
X69884285Y-96234819D01*
X69122380Y-95234819D02*
X68503333Y-95234819D01*
X68503333Y-95234819D02*
X68836666Y-95615771D01*
X68836666Y-95615771D02*
X68693809Y-95615771D01*
X68693809Y-95615771D02*
X68598571Y-95663390D01*
X68598571Y-95663390D02*
X68550952Y-95711009D01*
X68550952Y-95711009D02*
X68503333Y-95806247D01*
X68503333Y-95806247D02*
X68503333Y-96044342D01*
X68503333Y-96044342D02*
X68550952Y-96139580D01*
X68550952Y-96139580D02*
X68598571Y-96187200D01*
X68598571Y-96187200D02*
X68693809Y-96234819D01*
X68693809Y-96234819D02*
X68979523Y-96234819D01*
X68979523Y-96234819D02*
X69074761Y-96187200D01*
X69074761Y-96187200D02*
X69122380Y-96139580D01*
X110953333Y-96424819D02*
X110953333Y-97139104D01*
X110953333Y-97139104D02*
X111000952Y-97281961D01*
X111000952Y-97281961D02*
X111096190Y-97377200D01*
X111096190Y-97377200D02*
X111239047Y-97424819D01*
X111239047Y-97424819D02*
X111334285Y-97424819D01*
X110524761Y-96520057D02*
X110477142Y-96472438D01*
X110477142Y-96472438D02*
X110381904Y-96424819D01*
X110381904Y-96424819D02*
X110143809Y-96424819D01*
X110143809Y-96424819D02*
X110048571Y-96472438D01*
X110048571Y-96472438D02*
X110000952Y-96520057D01*
X110000952Y-96520057D02*
X109953333Y-96615295D01*
X109953333Y-96615295D02*
X109953333Y-96710533D01*
X109953333Y-96710533D02*
X110000952Y-96853390D01*
X110000952Y-96853390D02*
X110572380Y-97424819D01*
X110572380Y-97424819D02*
X109953333Y-97424819D01*
D11*
X69750000Y-89710000D02*
X69750000Y-94910000D01*
X62010000Y-89710000D02*
X69750000Y-89710000D01*
X62010000Y-89710000D02*
X62010000Y-92310000D01*
X64610000Y-92310000D02*
X64610000Y-94910000D01*
X62010000Y-92310000D02*
X64610000Y-92310000D01*
X62010000Y-93580000D02*
X62010000Y-94910000D01*
X64610000Y-94910000D02*
X69750000Y-94910000D01*
X62010000Y-94910000D02*
X63340000Y-94910000D01*
X111520000Y-95810000D02*
X106320000Y-95810000D01*
X111520000Y-88070000D02*
X111520000Y-95810000D01*
X111520000Y-88070000D02*
X108920000Y-88070000D01*
X108920000Y-90670000D02*
X106320000Y-90670000D01*
X108920000Y-88070000D02*
X108920000Y-90670000D01*
X107650000Y-88070000D02*
X106320000Y-88070000D01*
X106320000Y-90670000D02*
X106320000Y-95810000D01*
X106320000Y-88070000D02*
X106320000Y-89400000D01*
%LPC*%
D12*
X110000000Y-56000000D03*
X52000000Y-56000000D03*
X52000000Y-105000000D03*
X110000000Y-105000000D03*
D13*
X56870000Y-57270000D03*
D14*
X56870000Y-54730000D03*
X59410000Y-57270000D03*
X59410000Y-54730000D03*
X61950000Y-57270000D03*
X61950000Y-54730000D03*
X64490000Y-57270000D03*
X64490000Y-54730000D03*
X67030000Y-57270000D03*
X67030000Y-54730000D03*
X69570000Y-57270000D03*
X69570000Y-54730000D03*
X72110000Y-57270000D03*
X72110000Y-54730000D03*
X74650000Y-57270000D03*
X74650000Y-54730000D03*
X77190000Y-57270000D03*
X77190000Y-54730000D03*
X79730000Y-57270000D03*
X79730000Y-54730000D03*
X82270000Y-57270000D03*
X82270000Y-54730000D03*
X84810000Y-57270000D03*
X84810000Y-54730000D03*
X87350000Y-57270000D03*
X87350000Y-54730000D03*
X89890000Y-57270000D03*
X89890000Y-54730000D03*
X92430000Y-57270000D03*
X92430000Y-54730000D03*
X94970000Y-57270000D03*
X94970000Y-54730000D03*
X97510000Y-57270000D03*
X97510000Y-54730000D03*
X100050000Y-57270000D03*
X100050000Y-54730000D03*
X102590000Y-57270000D03*
X102590000Y-54730000D03*
X105130000Y-57270000D03*
X105130000Y-54730000D03*
D15*
X60940000Y-104000000D03*
X60940000Y-106500000D03*
X65940000Y-99000000D03*
X70940000Y-104000000D03*
X70940000Y-106500000D03*
D16*
X60940000Y-99000000D03*
D17*
X63440000Y-99000000D03*
D18*
X65940000Y-104000000D03*
D16*
X70940000Y-99000000D03*
D19*
X68440000Y-99000000D03*
D15*
X80100000Y-104000000D03*
X80100000Y-106500000D03*
X85100000Y-99000000D03*
X90100000Y-104000000D03*
X90100000Y-106500000D03*
D16*
X80100000Y-99000000D03*
D17*
X82600000Y-99000000D03*
D18*
X85100000Y-104000000D03*
D16*
X90100000Y-99000000D03*
D19*
X87600000Y-99000000D03*
D20*
X63340000Y-93580000D03*
D21*
X63340000Y-91040000D03*
X65880000Y-93580000D03*
X65880000Y-91040000D03*
X68420000Y-93580000D03*
X68420000Y-91040000D03*
D20*
X107650000Y-89400000D03*
D21*
X110190000Y-89400000D03*
X107650000Y-91940000D03*
X110190000Y-91940000D03*
X107650000Y-94480000D03*
X110190000Y-94480000D03*
%LPD*%
M02*
