<?xml version="1.0" standalone="no"?>
 <!DOCTYPE svg PUBLIC "-//W3C//DTD SVG 1.1//EN" 
 "http://www.w3.org/Graphics/SVG/1.1/DTD/svg11.dtd"> 
<svg
  xmlns:svg="http://www.w3.org/2000/svg"
  xmlns="http://www.w3.org/2000/svg"
  xmlns:xlink="http://www.w3.org/1999/xlink"
  version="1.1"
  width="297.0022mm" height="210.0072mm" viewBox="0.0000 0.0000 297.0022 210.0072">
<title>SVG Image created as pedalboard-soundcard-B_Silkscreen.svg date 2024/12/16 18:24:10 </title>
  <desc>Image generated by PCBNEW </desc>
<g style="fill:#000000; fill-opacity:1.0000;stroke:#000000; stroke-opacity:1.0000;
stroke-linecap:round; stroke-linejoin:round;"
 transform="translate(0 0) scale(1 1)">
</g>
<g style="fill:none; 
stroke:#000000; stroke-width:0.1500; stroke-opacity:1; 
stroke-linecap:round; stroke-linejoin:round;">
<text x="185.2822" y="66.7641"
textLength="17.5091" font-size="1.0667" lengthAdjust="spacingAndGlyphs"
text-anchor="start" opacity="0" stroke-opacity="0">Open Pedalboard Soundcard</text>
<g class="stroked-text"><desc>Open Pedalboard Soundcard</desc>
<path d="M185.7237 65.8584
L185.8761 65.8584
" />
<path d="M185.8761 65.8584
L185.9523 65.8965
" />
<path d="M185.9523 65.8965
L186.0285 65.9727
" />
<path d="M186.0285 65.9727
L186.0666 66.1251
" />
<path d="M186.0666 66.1251
L186.0666 66.3917
" />
<path d="M186.0666 66.3917
L186.0285 66.5441
" />
<path d="M186.0285 66.5441
L185.9523 66.6203
" />
<path d="M185.9523 66.6203
L185.8761 66.6584
" />
<path d="M185.8761 66.6584
L185.7237 66.6584
" />
<path d="M185.7237 66.6584
L185.6476 66.6203
" />
<path d="M185.6476 66.6203
L185.5714 66.5441
" />
<path d="M185.5714 66.5441
L185.5333 66.3917
" />
<path d="M185.5333 66.3917
L185.5333 66.1251
" />
<path d="M185.5333 66.1251
L185.5714 65.9727
" />
<path d="M185.5714 65.9727
L185.6476 65.8965
" />
<path d="M185.6476 65.8965
L185.7237 65.8584
" />
<path d="M186.4095 66.1251
L186.4095 66.9251
" />
<path d="M186.4095 66.1631
L186.4856 66.1251
" />
<path d="M186.4856 66.1251
L186.6380 66.1251
" />
<path d="M186.6380 66.1251
L186.7142 66.1631
" />
<path d="M186.7142 66.1631
L186.7523 66.2012
" />
<path d="M186.7523 66.2012
L186.7904 66.2774
" />
<path d="M186.7904 66.2774
L186.7904 66.5060
" />
<path d="M186.7904 66.5060
L186.7523 66.5822
" />
<path d="M186.7523 66.5822
L186.7142 66.6203
" />
<path d="M186.7142 66.6203
L186.6380 66.6584
" />
<path d="M186.6380 66.6584
L186.4856 66.6584
" />
<path d="M186.4856 66.6584
L186.4095 66.6203
" />
<path d="M187.4380 66.6203
L187.3618 66.6584
" />
<path d="M187.3618 66.6584
L187.2095 66.6584
" />
<path d="M187.2095 66.6584
L187.1333 66.6203
" />
<path d="M187.1333 66.6203
L187.0952 66.5441
" />
<path d="M187.0952 66.5441
L187.0952 66.2393
" />
<path d="M187.0952 66.2393
L187.1333 66.1631
" />
<path d="M187.1333 66.1631
L187.2095 66.1251
" />
<path d="M187.2095 66.1251
L187.3618 66.1251
" />
<path d="M187.3618 66.1251
L187.4380 66.1631
" />
<path d="M187.4380 66.1631
L187.4761 66.2393
" />
<path d="M187.4761 66.2393
L187.4761 66.3155
" />
<path d="M187.4761 66.3155
L187.0952 66.3917
" />
<path d="M187.8190 66.1251
L187.8190 66.6584
" />
<path d="M187.8190 66.2012
L187.8571 66.1631
" />
<path d="M187.8571 66.1631
L187.9333 66.1251
" />
<path d="M187.9333 66.1251
L188.0476 66.1251
" />
<path d="M188.0476 66.1251
L188.1237 66.1631
" />
<path d="M188.1237 66.1631
L188.1618 66.2393
" />
<path d="M188.1618 66.2393
L188.1618 66.6584
" />
<path d="M189.1523 66.6584
L189.1523 65.8584
" />
<path d="M189.1523 65.8584
L189.4571 65.8584
" />
<path d="M189.4571 65.8584
L189.5333 65.8965
" />
<path d="M189.5333 65.8965
L189.5714 65.9346
" />
<path d="M189.5714 65.9346
L189.6095 66.0108
" />
<path d="M189.6095 66.0108
L189.6095 66.1251
" />
<path d="M189.6095 66.1251
L189.5714 66.2012
" />
<path d="M189.5714 66.2012
L189.5333 66.2393
" />
<path d="M189.5333 66.2393
L189.4571 66.2774
" />
<path d="M189.4571 66.2774
L189.1523 66.2774
" />
<path d="M190.2571 66.6203
L190.1809 66.6584
" />
<path d="M190.1809 66.6584
L190.0285 66.6584
" />
<path d="M190.0285 66.6584
L189.9523 66.6203
" />
<path d="M189.9523 66.6203
L189.9142 66.5441
" />
<path d="M189.9142 66.5441
L189.9142 66.2393
" />
<path d="M189.9142 66.2393
L189.9523 66.1631
" />
<path d="M189.9523 66.1631
L190.0285 66.1251
" />
<path d="M190.0285 66.1251
L190.1809 66.1251
" />
<path d="M190.1809 66.1251
L190.2571 66.1631
" />
<path d="M190.2571 66.1631
L190.2952 66.2393
" />
<path d="M190.2952 66.2393
L190.2952 66.3155
" />
<path d="M190.2952 66.3155
L189.9142 66.3917
" />
<path d="M190.9809 66.6584
L190.9809 65.8584
" />
<path d="M190.9809 66.6203
L190.9047 66.6584
" />
<path d="M190.9047 66.6584
L190.7523 66.6584
" />
<path d="M190.7523 66.6584
L190.6761 66.6203
" />
<path d="M190.6761 66.6203
L190.6380 66.5822
" />
<path d="M190.6380 66.5822
L190.5999 66.5060
" />
<path d="M190.5999 66.5060
L190.5999 66.2774
" />
<path d="M190.5999 66.2774
L190.6380 66.2012
" />
<path d="M190.6380 66.2012
L190.6761 66.1631
" />
<path d="M190.6761 66.1631
L190.7523 66.1251
" />
<path d="M190.7523 66.1251
L190.9047 66.1251
" />
<path d="M190.9047 66.1251
L190.9809 66.1631
" />
<path d="M191.7047 66.6584
L191.7047 66.2393
" />
<path d="M191.7047 66.2393
L191.6666 66.1631
" />
<path d="M191.6666 66.1631
L191.5904 66.1251
" />
<path d="M191.5904 66.1251
L191.4380 66.1251
" />
<path d="M191.4380 66.1251
L191.3618 66.1631
" />
<path d="M191.7047 66.6203
L191.6285 66.6584
" />
<path d="M191.6285 66.6584
L191.4380 66.6584
" />
<path d="M191.4380 66.6584
L191.3618 66.6203
" />
<path d="M191.3618 66.6203
L191.3237 66.5441
" />
<path d="M191.3237 66.5441
L191.3237 66.4679
" />
<path d="M191.3237 66.4679
L191.3618 66.3917
" />
<path d="M191.3618 66.3917
L191.4380 66.3536
" />
<path d="M191.4380 66.3536
L191.6285 66.3536
" />
<path d="M191.6285 66.3536
L191.7047 66.3155
" />
<path d="M192.1999 66.6584
L192.1237 66.6203
" />
<path d="M192.1237 66.6203
L192.0856 66.5441
" />
<path d="M192.0856 66.5441
L192.0856 65.8584
" />
<path d="M192.5047 66.6584
L192.5047 65.8584
" />
<path d="M192.5047 66.1631
L192.5809 66.1251
" />
<path d="M192.5809 66.1251
L192.7333 66.1251
" />
<path d="M192.7333 66.1251
L192.8095 66.1631
" />
<path d="M192.8095 66.1631
L192.8476 66.2012
" />
<path d="M192.8476 66.2012
L192.8856 66.2774
" />
<path d="M192.8856 66.2774
L192.8856 66.5060
" />
<path d="M192.8856 66.5060
L192.8476 66.5822
" />
<path d="M192.8476 66.5822
L192.8095 66.6203
" />
<path d="M192.8095 66.6203
L192.7333 66.6584
" />
<path d="M192.7333 66.6584
L192.5809 66.6584
" />
<path d="M192.5809 66.6584
L192.5047 66.6203
" />
<path d="M193.3428 66.6584
L193.2666 66.6203
" />
<path d="M193.2666 66.6203
L193.2285 66.5822
" />
<path d="M193.2285 66.5822
L193.1904 66.5060
" />
<path d="M193.1904 66.5060
L193.1904 66.2774
" />
<path d="M193.1904 66.2774
L193.2285 66.2012
" />
<path d="M193.2285 66.2012
L193.2666 66.1631
" />
<path d="M193.2666 66.1631
L193.3428 66.1251
" />
<path d="M193.3428 66.1251
L193.4571 66.1251
" />
<path d="M193.4571 66.1251
L193.5333 66.1631
" />
<path d="M193.5333 66.1631
L193.5714 66.2012
" />
<path d="M193.5714 66.2012
L193.6095 66.2774
" />
<path d="M193.6095 66.2774
L193.6095 66.5060
" />
<path d="M193.6095 66.5060
L193.5714 66.5822
" />
<path d="M193.5714 66.5822
L193.5333 66.6203
" />
<path d="M193.5333 66.6203
L193.4571 66.6584
" />
<path d="M193.4571 66.6584
L193.3428 66.6584
" />
<path d="M194.2952 66.6584
L194.2952 66.2393
" />
<path d="M194.2952 66.2393
L194.2571 66.1631
" />
<path d="M194.2571 66.1631
L194.1809 66.1251
" />
<path d="M194.1809 66.1251
L194.0285 66.1251
" />
<path d="M194.0285 66.1251
L193.9523 66.1631
" />
<path d="M194.2952 66.6203
L194.2190 66.6584
" />
<path d="M194.2190 66.6584
L194.0285 66.6584
" />
<path d="M194.0285 66.6584
L193.9523 66.6203
" />
<path d="M193.9523 66.6203
L193.9142 66.5441
" />
<path d="M193.9142 66.5441
L193.9142 66.4679
" />
<path d="M193.9142 66.4679
L193.9523 66.3917
" />
<path d="M193.9523 66.3917
L194.0285 66.3536
" />
<path d="M194.0285 66.3536
L194.2190 66.3536
" />
<path d="M194.2190 66.3536
L194.2952 66.3155
" />
<path d="M194.6761 66.6584
L194.6761 66.1251
" />
<path d="M194.6761 66.2774
L194.7142 66.2012
" />
<path d="M194.7142 66.2012
L194.7523 66.1631
" />
<path d="M194.7523 66.1631
L194.8285 66.1251
" />
<path d="M194.8285 66.1251
L194.9047 66.1251
" />
<path d="M195.5142 66.6584
L195.5142 65.8584
" />
<path d="M195.5142 66.6203
L195.4380 66.6584
" />
<path d="M195.4380 66.6584
L195.2856 66.6584
" />
<path d="M195.2856 66.6584
L195.2095 66.6203
" />
<path d="M195.2095 66.6203
L195.1714 66.5822
" />
<path d="M195.1714 66.5822
L195.1333 66.5060
" />
<path d="M195.1333 66.5060
L195.1333 66.2774
" />
<path d="M195.1333 66.2774
L195.1714 66.2012
" />
<path d="M195.1714 66.2012
L195.2095 66.1631
" />
<path d="M195.2095 66.1631
L195.2856 66.1251
" />
<path d="M195.2856 66.1251
L195.4380 66.1251
" />
<path d="M195.4380 66.1251
L195.5142 66.1631
" />
<path d="M196.4666 66.6203
L196.5809 66.6584
" />
<path d="M196.5809 66.6584
L196.7714 66.6584
" />
<path d="M196.7714 66.6584
L196.8476 66.6203
" />
<path d="M196.8476 66.6203
L196.8856 66.5822
" />
<path d="M196.8856 66.5822
L196.9237 66.5060
" />
<path d="M196.9237 66.5060
L196.9237 66.4298
" />
<path d="M196.9237 66.4298
L196.8856 66.3536
" />
<path d="M196.8856 66.3536
L196.8476 66.3155
" />
<path d="M196.8476 66.3155
L196.7714 66.2774
" />
<path d="M196.7714 66.2774
L196.6190 66.2393
" />
<path d="M196.6190 66.2393
L196.5428 66.2012
" />
<path d="M196.5428 66.2012
L196.5047 66.1631
" />
<path d="M196.5047 66.1631
L196.4666 66.0870
" />
<path d="M196.4666 66.0870
L196.4666 66.0108
" />
<path d="M196.4666 66.0108
L196.5047 65.9346
" />
<path d="M196.5047 65.9346
L196.5428 65.8965
" />
<path d="M196.5428 65.8965
L196.6190 65.8584
" />
<path d="M196.6190 65.8584
L196.8095 65.8584
" />
<path d="M196.8095 65.8584
L196.9237 65.8965
" />
<path d="M197.3809 66.6584
L197.3047 66.6203
" />
<path d="M197.3047 66.6203
L197.2666 66.5822
" />
<path d="M197.2666 66.5822
L197.2285 66.5060
" />
<path d="M197.2285 66.5060
L197.2285 66.2774
" />
<path d="M197.2285 66.2774
L197.2666 66.2012
" />
<path d="M197.2666 66.2012
L197.3047 66.1631
" />
<path d="M197.3047 66.1631
L197.3809 66.1251
" />
<path d="M197.3809 66.1251
L197.4952 66.1251
" />
<path d="M197.4952 66.1251
L197.5714 66.1631
" />
<path d="M197.5714 66.1631
L197.6095 66.2012
" />
<path d="M197.6095 66.2012
L197.6476 66.2774
" />
<path d="M197.6476 66.2774
L197.6476 66.5060
" />
<path d="M197.6476 66.5060
L197.6095 66.5822
" />
<path d="M197.6095 66.5822
L197.5714 66.6203
" />
<path d="M197.5714 66.6203
L197.4952 66.6584
" />
<path d="M197.4952 66.6584
L197.3809 66.6584
" />
<path d="M198.3333 66.1251
L198.3333 66.6584
" />
<path d="M197.9904 66.1251
L197.9904 66.5441
" />
<path d="M197.9904 66.5441
L198.0285 66.6203
" />
<path d="M198.0285 66.6203
L198.1047 66.6584
" />
<path d="M198.1047 66.6584
L198.2190 66.6584
" />
<path d="M198.2190 66.6584
L198.2952 66.6203
" />
<path d="M198.2952 66.6203
L198.3333 66.5822
" />
<path d="M198.7142 66.1251
L198.7142 66.6584
" />
<path d="M198.7142 66.2012
L198.7523 66.1631
" />
<path d="M198.7523 66.1631
L198.8285 66.1251
" />
<path d="M198.8285 66.1251
L198.9428 66.1251
" />
<path d="M198.9428 66.1251
L199.0190 66.1631
" />
<path d="M199.0190 66.1631
L199.0571 66.2393
" />
<path d="M199.0571 66.2393
L199.0571 66.6584
" />
<path d="M199.7809 66.6584
L199.7809 65.8584
" />
<path d="M199.7809 66.6203
L199.7047 66.6584
" />
<path d="M199.7047 66.6584
L199.5523 66.6584
" />
<path d="M199.5523 66.6584
L199.4761 66.6203
" />
<path d="M199.4761 66.6203
L199.4380 66.5822
" />
<path d="M199.4380 66.5822
L199.3999 66.5060
" />
<path d="M199.3999 66.5060
L199.3999 66.2774
" />
<path d="M199.3999 66.2774
L199.4380 66.2012
" />
<path d="M199.4380 66.2012
L199.4761 66.1631
" />
<path d="M199.4761 66.1631
L199.5523 66.1251
" />
<path d="M199.5523 66.1251
L199.7047 66.1251
" />
<path d="M199.7047 66.1251
L199.7809 66.1631
" />
<path d="M200.5047 66.6203
L200.4285 66.6584
" />
<path d="M200.4285 66.6584
L200.2761 66.6584
" />
<path d="M200.2761 66.6584
L200.1999 66.6203
" />
<path d="M200.1999 66.6203
L200.1618 66.5822
" />
<path d="M200.1618 66.5822
L200.1237 66.5060
" />
<path d="M200.1237 66.5060
L200.1237 66.2774
" />
<path d="M200.1237 66.2774
L200.1618 66.2012
" />
<path d="M200.1618 66.2012
L200.1999 66.1631
" />
<path d="M200.1999 66.1631
L200.2761 66.1251
" />
<path d="M200.2761 66.1251
L200.4285 66.1251
" />
<path d="M200.4285 66.1251
L200.5047 66.1631
" />
<path d="M201.1904 66.6584
L201.1904 66.2393
" />
<path d="M201.1904 66.2393
L201.1523 66.1631
" />
<path d="M201.1523 66.1631
L201.0761 66.1251
" />
<path d="M201.0761 66.1251
L200.9237 66.1251
" />
<path d="M200.9237 66.1251
L200.8476 66.1631
" />
<path d="M201.1904 66.6203
L201.1142 66.6584
" />
<path d="M201.1142 66.6584
L200.9237 66.6584
" />
<path d="M200.9237 66.6584
L200.8476 66.6203
" />
<path d="M200.8476 66.6203
L200.8095 66.5441
" />
<path d="M200.8095 66.5441
L200.8095 66.4679
" />
<path d="M200.8095 66.4679
L200.8476 66.3917
" />
<path d="M200.8476 66.3917
L200.9237 66.3536
" />
<path d="M200.9237 66.3536
L201.1142 66.3536
" />
<path d="M201.1142 66.3536
L201.1904 66.3155
" />
<path d="M201.5714 66.6584
L201.5714 66.1251
" />
<path d="M201.5714 66.2774
L201.6095 66.2012
" />
<path d="M201.6095 66.2012
L201.6476 66.1631
" />
<path d="M201.6476 66.1631
L201.7237 66.1251
" />
<path d="M201.7237 66.1251
L201.7999 66.1251
" />
<path d="M202.4095 66.6584
L202.4095 65.8584
" />
<path d="M202.4095 66.6203
L202.3333 66.6584
" />
<path d="M202.3333 66.6584
L202.1809 66.6584
" />
<path d="M202.1809 66.6584
L202.1047 66.6203
" />
<path d="M202.1047 66.6203
L202.0666 66.5822
" />
<path d="M202.0666 66.5822
L202.0285 66.5060
" />
<path d="M202.0285 66.5060
L202.0285 66.2774
" />
<path d="M202.0285 66.2774
L202.0666 66.2012
" />
<path d="M202.0666 66.2012
L202.1047 66.1631
" />
<path d="M202.1047 66.1631
L202.1809 66.1251
" />
<path d="M202.1809 66.1251
L202.3333 66.1251
" />
<path d="M202.3333 66.1251
L202.4095 66.1631
" />
</g><text x="185.2822" y="68.0520"
textLength="14.3852" font-size="1.0667" lengthAdjust="spacingAndGlyphs"
text-anchor="start" opacity="0" stroke-opacity="0">github.com/pedalboard</text>
<g class="stroked-text"><desc>github.com/pedalboard</desc>
<path d="M185.9142 67.4130
L185.9142 68.0606
" />
<path d="M185.9142 68.0606
L185.8761 68.1368
" />
<path d="M185.8761 68.1368
L185.8380 68.1749
" />
<path d="M185.8380 68.1749
L185.7618 68.2130
" />
<path d="M185.7618 68.2130
L185.6476 68.2130
" />
<path d="M185.6476 68.2130
L185.5714 68.1749
" />
<path d="M185.9142 67.9082
L185.8380 67.9463
" />
<path d="M185.8380 67.9463
L185.6856 67.9463
" />
<path d="M185.6856 67.9463
L185.6095 67.9082
" />
<path d="M185.6095 67.9082
L185.5714 67.8701
" />
<path d="M185.5714 67.8701
L185.5333 67.7940
" />
<path d="M185.5333 67.7940
L185.5333 67.5654
" />
<path d="M185.5333 67.5654
L185.5714 67.4892
" />
<path d="M185.5714 67.4892
L185.6095 67.4511
" />
<path d="M185.6095 67.4511
L185.6856 67.4130
" />
<path d="M185.6856 67.4130
L185.8380 67.4130
" />
<path d="M185.8380 67.4130
L185.9142 67.4511
" />
<path d="M186.2952 67.9463
L186.2952 67.4130
" />
<path d="M186.2952 67.1463
L186.2571 67.1844
" />
<path d="M186.2571 67.1844
L186.2952 67.2225
" />
<path d="M186.2952 67.2225
L186.3333 67.1844
" />
<path d="M186.3333 67.1844
L186.2952 67.1463
" />
<path d="M186.2952 67.1463
L186.2952 67.2225
" />
<path d="M186.5618 67.4130
L186.8666 67.4130
" />
<path d="M186.6761 67.1463
L186.6761 67.8321
" />
<path d="M186.6761 67.8321
L186.7142 67.9082
" />
<path d="M186.7142 67.9082
L186.7904 67.9463
" />
<path d="M186.7904 67.9463
L186.8666 67.9463
" />
<path d="M187.1333 67.9463
L187.1333 67.1463
" />
<path d="M187.4761 67.9463
L187.4761 67.5273
" />
<path d="M187.4761 67.5273
L187.4380 67.4511
" />
<path d="M187.4380 67.4511
L187.3618 67.4130
" />
<path d="M187.3618 67.4130
L187.2476 67.4130
" />
<path d="M187.2476 67.4130
L187.1714 67.4511
" />
<path d="M187.1714 67.4511
L187.1333 67.4892
" />
<path d="M188.1999 67.4130
L188.1999 67.9463
" />
<path d="M187.8571 67.4130
L187.8571 67.8321
" />
<path d="M187.8571 67.8321
L187.8952 67.9082
" />
<path d="M187.8952 67.9082
L187.9714 67.9463
" />
<path d="M187.9714 67.9463
L188.0856 67.9463
" />
<path d="M188.0856 67.9463
L188.1618 67.9082
" />
<path d="M188.1618 67.9082
L188.1999 67.8701
" />
<path d="M188.5809 67.9463
L188.5809 67.1463
" />
<path d="M188.5809 67.4511
L188.6571 67.4130
" />
<path d="M188.6571 67.4130
L188.8095 67.4130
" />
<path d="M188.8095 67.4130
L188.8856 67.4511
" />
<path d="M188.8856 67.4511
L188.9237 67.4892
" />
<path d="M188.9237 67.4892
L188.9618 67.5654
" />
<path d="M188.9618 67.5654
L188.9618 67.7940
" />
<path d="M188.9618 67.7940
L188.9237 67.8701
" />
<path d="M188.9237 67.8701
L188.8856 67.9082
" />
<path d="M188.8856 67.9082
L188.8095 67.9463
" />
<path d="M188.8095 67.9463
L188.6571 67.9463
" />
<path d="M188.6571 67.9463
L188.5809 67.9082
" />
<path d="M189.3047 67.8701
L189.3428 67.9082
" />
<path d="M189.3428 67.9082
L189.3047 67.9463
" />
<path d="M189.3047 67.9463
L189.2666 67.9082
" />
<path d="M189.2666 67.9082
L189.3047 67.8701
" />
<path d="M189.3047 67.8701
L189.3047 67.9463
" />
<path d="M190.0285 67.9082
L189.9523 67.9463
" />
<path d="M189.9523 67.9463
L189.7999 67.9463
" />
<path d="M189.7999 67.9463
L189.7237 67.9082
" />
<path d="M189.7237 67.9082
L189.6856 67.8701
" />
<path d="M189.6856 67.8701
L189.6476 67.7940
" />
<path d="M189.6476 67.7940
L189.6476 67.5654
" />
<path d="M189.6476 67.5654
L189.6856 67.4892
" />
<path d="M189.6856 67.4892
L189.7237 67.4511
" />
<path d="M189.7237 67.4511
L189.7999 67.4130
" />
<path d="M189.7999 67.4130
L189.9523 67.4130
" />
<path d="M189.9523 67.4130
L190.0285 67.4511
" />
<path d="M190.4856 67.9463
L190.4095 67.9082
" />
<path d="M190.4095 67.9082
L190.3714 67.8701
" />
<path d="M190.3714 67.8701
L190.3333 67.7940
" />
<path d="M190.3333 67.7940
L190.3333 67.5654
" />
<path d="M190.3333 67.5654
L190.3714 67.4892
" />
<path d="M190.3714 67.4892
L190.4095 67.4511
" />
<path d="M190.4095 67.4511
L190.4856 67.4130
" />
<path d="M190.4856 67.4130
L190.5999 67.4130
" />
<path d="M190.5999 67.4130
L190.6761 67.4511
" />
<path d="M190.6761 67.4511
L190.7142 67.4892
" />
<path d="M190.7142 67.4892
L190.7523 67.5654
" />
<path d="M190.7523 67.5654
L190.7523 67.7940
" />
<path d="M190.7523 67.7940
L190.7142 67.8701
" />
<path d="M190.7142 67.8701
L190.6761 67.9082
" />
<path d="M190.6761 67.9082
L190.5999 67.9463
" />
<path d="M190.5999 67.9463
L190.4856 67.9463
" />
<path d="M191.0952 67.9463
L191.0952 67.4130
" />
<path d="M191.0952 67.4892
L191.1333 67.4511
" />
<path d="M191.1333 67.4511
L191.2095 67.4130
" />
<path d="M191.2095 67.4130
L191.3237 67.4130
" />
<path d="M191.3237 67.4130
L191.3999 67.4511
" />
<path d="M191.3999 67.4511
L191.4380 67.5273
" />
<path d="M191.4380 67.5273
L191.4380 67.9463
" />
<path d="M191.4380 67.5273
L191.4761 67.4511
" />
<path d="M191.4761 67.4511
L191.5523 67.4130
" />
<path d="M191.5523 67.4130
L191.6666 67.4130
" />
<path d="M191.6666 67.4130
L191.7428 67.4511
" />
<path d="M191.7428 67.4511
L191.7809 67.5273
" />
<path d="M191.7809 67.5273
L191.7809 67.9463
" />
<path d="M192.7333 67.1082
L192.0476 68.1368
" />
<path d="M192.9999 67.4130
L192.9999 68.2130
" />
<path d="M192.9999 67.4511
L193.0761 67.4130
" />
<path d="M193.0761 67.4130
L193.2285 67.4130
" />
<path d="M193.2285 67.4130
L193.3047 67.4511
" />
<path d="M193.3047 67.4511
L193.3428 67.4892
" />
<path d="M193.3428 67.4892
L193.3809 67.5654
" />
<path d="M193.3809 67.5654
L193.3809 67.7940
" />
<path d="M193.3809 67.7940
L193.3428 67.8701
" />
<path d="M193.3428 67.8701
L193.3047 67.9082
" />
<path d="M193.3047 67.9082
L193.2285 67.9463
" />
<path d="M193.2285 67.9463
L193.0761 67.9463
" />
<path d="M193.0761 67.9463
L192.9999 67.9082
" />
<path d="M194.0285 67.9082
L193.9523 67.9463
" />
<path d="M193.9523 67.9463
L193.7999 67.9463
" />
<path d="M193.7999 67.9463
L193.7237 67.9082
" />
<path d="M193.7237 67.9082
L193.6856 67.8321
" />
<path d="M193.6856 67.8321
L193.6856 67.5273
" />
<path d="M193.6856 67.5273
L193.7237 67.4511
" />
<path d="M193.7237 67.4511
L193.7999 67.4130
" />
<path d="M193.7999 67.4130
L193.9523 67.4130
" />
<path d="M193.9523 67.4130
L194.0285 67.4511
" />
<path d="M194.0285 67.4511
L194.0666 67.5273
" />
<path d="M194.0666 67.5273
L194.0666 67.6035
" />
<path d="M194.0666 67.6035
L193.6856 67.6797
" />
<path d="M194.7523 67.9463
L194.7523 67.1463
" />
<path d="M194.7523 67.9082
L194.6761 67.9463
" />
<path d="M194.6761 67.9463
L194.5237 67.9463
" />
<path d="M194.5237 67.9463
L194.4476 67.9082
" />
<path d="M194.4476 67.9082
L194.4095 67.8701
" />
<path d="M194.4095 67.8701
L194.3714 67.7940
" />
<path d="M194.3714 67.7940
L194.3714 67.5654
" />
<path d="M194.3714 67.5654
L194.4095 67.4892
" />
<path d="M194.4095 67.4892
L194.4476 67.4511
" />
<path d="M194.4476 67.4511
L194.5237 67.4130
" />
<path d="M194.5237 67.4130
L194.6761 67.4130
" />
<path d="M194.6761 67.4130
L194.7523 67.4511
" />
<path d="M195.4761 67.9463
L195.4761 67.5273
" />
<path d="M195.4761 67.5273
L195.4380 67.4511
" />
<path d="M195.4380 67.4511
L195.3618 67.4130
" />
<path d="M195.3618 67.4130
L195.2095 67.4130
" />
<path d="M195.2095 67.4130
L195.1333 67.4511
" />
<path d="M195.4761 67.9082
L195.3999 67.9463
" />
<path d="M195.3999 67.9463
L195.2095 67.9463
" />
<path d="M195.2095 67.9463
L195.1333 67.9082
" />
<path d="M195.1333 67.9082
L195.0952 67.8321
" />
<path d="M195.0952 67.8321
L195.0952 67.7559
" />
<path d="M195.0952 67.7559
L195.1333 67.6797
" />
<path d="M195.1333 67.6797
L195.2095 67.6416
" />
<path d="M195.2095 67.6416
L195.3999 67.6416
" />
<path d="M195.3999 67.6416
L195.4761 67.6035
" />
<path d="M195.9714 67.9463
L195.8952 67.9082
" />
<path d="M195.8952 67.9082
L195.8571 67.8321
" />
<path d="M195.8571 67.8321
L195.8571 67.1463
" />
<path d="M196.2761 67.9463
L196.2761 67.1463
" />
<path d="M196.2761 67.4511
L196.3523 67.4130
" />
<path d="M196.3523 67.4130
L196.5047 67.4130
" />
<path d="M196.5047 67.4130
L196.5809 67.4511
" />
<path d="M196.5809 67.4511
L196.6190 67.4892
" />
<path d="M196.6190 67.4892
L196.6571 67.5654
" />
<path d="M196.6571 67.5654
L196.6571 67.7940
" />
<path d="M196.6571 67.7940
L196.6190 67.8701
" />
<path d="M196.6190 67.8701
L196.5809 67.9082
" />
<path d="M196.5809 67.9082
L196.5047 67.9463
" />
<path d="M196.5047 67.9463
L196.3523 67.9463
" />
<path d="M196.3523 67.9463
L196.2761 67.9082
" />
<path d="M197.1142 67.9463
L197.0380 67.9082
" />
<path d="M197.0380 67.9082
L196.9999 67.8701
" />
<path d="M196.9999 67.8701
L196.9618 67.7940
" />
<path d="M196.9618 67.7940
L196.9618 67.5654
" />
<path d="M196.9618 67.5654
L196.9999 67.4892
" />
<path d="M196.9999 67.4892
L197.0380 67.4511
" />
<path d="M197.0380 67.4511
L197.1142 67.4130
" />
<path d="M197.1142 67.4130
L197.2285 67.4130
" />
<path d="M197.2285 67.4130
L197.3047 67.4511
" />
<path d="M197.3047 67.4511
L197.3428 67.4892
" />
<path d="M197.3428 67.4892
L197.3809 67.5654
" />
<path d="M197.3809 67.5654
L197.3809 67.7940
" />
<path d="M197.3809 67.7940
L197.3428 67.8701
" />
<path d="M197.3428 67.8701
L197.3047 67.9082
" />
<path d="M197.3047 67.9082
L197.2285 67.9463
" />
<path d="M197.2285 67.9463
L197.1142 67.9463
" />
<path d="M198.0666 67.9463
L198.0666 67.5273
" />
<path d="M198.0666 67.5273
L198.0285 67.4511
" />
<path d="M198.0285 67.4511
L197.9523 67.4130
" />
<path d="M197.9523 67.4130
L197.7999 67.4130
" />
<path d="M197.7999 67.4130
L197.7237 67.4511
" />
<path d="M198.0666 67.9082
L197.9904 67.9463
" />
<path d="M197.9904 67.9463
L197.7999 67.9463
" />
<path d="M197.7999 67.9463
L197.7237 67.9082
" />
<path d="M197.7237 67.9082
L197.6856 67.8321
" />
<path d="M197.6856 67.8321
L197.6856 67.7559
" />
<path d="M197.6856 67.7559
L197.7237 67.6797
" />
<path d="M197.7237 67.6797
L197.7999 67.6416
" />
<path d="M197.7999 67.6416
L197.9904 67.6416
" />
<path d="M197.9904 67.6416
L198.0666 67.6035
" />
<path d="M198.4476 67.9463
L198.4476 67.4130
" />
<path d="M198.4476 67.5654
L198.4857 67.4892
" />
<path d="M198.4857 67.4892
L198.5237 67.4511
" />
<path d="M198.5237 67.4511
L198.5999 67.4130
" />
<path d="M198.5999 67.4130
L198.6761 67.4130
" />
<path d="M199.2857 67.9463
L199.2857 67.1463
" />
<path d="M199.2857 67.9082
L199.2095 67.9463
" />
<path d="M199.2095 67.9463
L199.0571 67.9463
" />
<path d="M199.0571 67.9463
L198.9809 67.9082
" />
<path d="M198.9809 67.9082
L198.9428 67.8701
" />
<path d="M198.9428 67.8701
L198.9047 67.7940
" />
<path d="M198.9047 67.7940
L198.9047 67.5654
" />
<path d="M198.9047 67.5654
L198.9428 67.4892
" />
<path d="M198.9428 67.4892
L198.9809 67.4511
" />
<path d="M198.9809 67.4511
L199.0571 67.4130
" />
<path d="M199.0571 67.4130
L199.2095 67.4130
" />
<path d="M199.2095 67.4130
L199.2857 67.4511
" />
</g><text x="185.2822" y="69.3400"
textLength="15.1090" font-size="1.0667" lengthAdjust="spacingAndGlyphs"
text-anchor="start" opacity="0" stroke-opacity="0">PCB: 1.0.1-RC 13ce387</text>
<g class="stroked-text"><desc>PCB: 1.0.1-RC 13ce387</desc>
<path d="M185.5714 69.2343
L185.5714 68.4343
" />
<path d="M185.5714 68.4343
L185.8761 68.4343
" />
<path d="M185.8761 68.4343
L185.9523 68.4724
" />
<path d="M185.9523 68.4724
L185.9904 68.5105
" />
<path d="M185.9904 68.5105
L186.0285 68.5867
" />
<path d="M186.0285 68.5867
L186.0285 68.7010
" />
<path d="M186.0285 68.7010
L185.9904 68.7772
" />
<path d="M185.9904 68.7772
L185.9523 68.8152
" />
<path d="M185.9523 68.8152
L185.8761 68.8533
" />
<path d="M185.8761 68.8533
L185.5714 68.8533
" />
<path d="M186.8285 69.1581
L186.7904 69.1962
" />
<path d="M186.7904 69.1962
L186.6761 69.2343
" />
<path d="M186.6761 69.2343
L186.5999 69.2343
" />
<path d="M186.5999 69.2343
L186.4856 69.1962
" />
<path d="M186.4856 69.1962
L186.4095 69.1200
" />
<path d="M186.4095 69.1200
L186.3714 69.0438
" />
<path d="M186.3714 69.0438
L186.3333 68.8914
" />
<path d="M186.3333 68.8914
L186.3333 68.7772
" />
<path d="M186.3333 68.7772
L186.3714 68.6248
" />
<path d="M186.3714 68.6248
L186.4095 68.5486
" />
<path d="M186.4095 68.5486
L186.4856 68.4724
" />
<path d="M186.4856 68.4724
L186.5999 68.4343
" />
<path d="M186.5999 68.4343
L186.6761 68.4343
" />
<path d="M186.6761 68.4343
L186.7904 68.4724
" />
<path d="M186.7904 68.4724
L186.8285 68.5105
" />
<path d="M187.4380 68.8152
L187.5523 68.8533
" />
<path d="M187.5523 68.8533
L187.5904 68.8914
" />
<path d="M187.5904 68.8914
L187.6285 68.9676
" />
<path d="M187.6285 68.9676
L187.6285 69.0819
" />
<path d="M187.6285 69.0819
L187.5904 69.1581
" />
<path d="M187.5904 69.1581
L187.5523 69.1962
" />
<path d="M187.5523 69.1962
L187.4761 69.2343
" />
<path d="M187.4761 69.2343
L187.1714 69.2343
" />
<path d="M187.1714 69.2343
L187.1714 68.4343
" />
<path d="M187.1714 68.4343
L187.4380 68.4343
" />
<path d="M187.4380 68.4343
L187.5142 68.4724
" />
<path d="M187.5142 68.4724
L187.5523 68.5105
" />
<path d="M187.5523 68.5105
L187.5904 68.5867
" />
<path d="M187.5904 68.5867
L187.5904 68.6629
" />
<path d="M187.5904 68.6629
L187.5523 68.7391
" />
<path d="M187.5523 68.7391
L187.5142 68.7772
" />
<path d="M187.5142 68.7772
L187.4380 68.8152
" />
<path d="M187.4380 68.8152
L187.1714 68.8152
" />
<path d="M187.9714 69.1581
L188.0095 69.1962
" />
<path d="M188.0095 69.1962
L187.9714 69.2343
" />
<path d="M187.9714 69.2343
L187.9333 69.1962
" />
<path d="M187.9333 69.1962
L187.9714 69.1581
" />
<path d="M187.9714 69.1581
L187.9714 69.2343
" />
<path d="M187.9714 68.7391
L188.0095 68.7772
" />
<path d="M188.0095 68.7772
L187.9714 68.8152
" />
<path d="M187.9714 68.8152
L187.9333 68.7772
" />
<path d="M187.9333 68.7772
L187.9714 68.7391
" />
<path d="M187.9714 68.7391
L187.9714 68.8152
" />
<path d="M189.3809 69.2343
L188.9237 69.2343
" />
<path d="M189.1523 69.2343
L189.1523 68.4343
" />
<path d="M189.1523 68.4343
L189.0761 68.5486
" />
<path d="M189.0761 68.5486
L188.9999 68.6248
" />
<path d="M188.9999 68.6248
L188.9237 68.6629
" />
<path d="M189.7237 69.1581
L189.7618 69.1962
" />
<path d="M189.7618 69.1962
L189.7237 69.2343
" />
<path d="M189.7237 69.2343
L189.6856 69.1962
" />
<path d="M189.6856 69.1962
L189.7237 69.1581
" />
<path d="M189.7237 69.1581
L189.7237 69.2343
" />
<path d="M190.2571 68.4343
L190.3333 68.4343
" />
<path d="M190.3333 68.4343
L190.4095 68.4724
" />
<path d="M190.4095 68.4724
L190.4476 68.5105
" />
<path d="M190.4476 68.5105
L190.4856 68.5867
" />
<path d="M190.4856 68.5867
L190.5237 68.7391
" />
<path d="M190.5237 68.7391
L190.5237 68.9295
" />
<path d="M190.5237 68.9295
L190.4856 69.0819
" />
<path d="M190.4856 69.0819
L190.4476 69.1581
" />
<path d="M190.4476 69.1581
L190.4095 69.1962
" />
<path d="M190.4095 69.1962
L190.3333 69.2343
" />
<path d="M190.3333 69.2343
L190.2571 69.2343
" />
<path d="M190.2571 69.2343
L190.1809 69.1962
" />
<path d="M190.1809 69.1962
L190.1428 69.1581
" />
<path d="M190.1428 69.1581
L190.1047 69.0819
" />
<path d="M190.1047 69.0819
L190.0666 68.9295
" />
<path d="M190.0666 68.9295
L190.0666 68.7391
" />
<path d="M190.0666 68.7391
L190.1047 68.5867
" />
<path d="M190.1047 68.5867
L190.1428 68.5105
" />
<path d="M190.1428 68.5105
L190.1809 68.4724
" />
<path d="M190.1809 68.4724
L190.2571 68.4343
" />
<path d="M190.8666 69.1581
L190.9047 69.1962
" />
<path d="M190.9047 69.1962
L190.8666 69.2343
" />
<path d="M190.8666 69.2343
L190.8285 69.1962
" />
<path d="M190.8285 69.1962
L190.8666 69.1581
" />
<path d="M190.8666 69.1581
L190.8666 69.2343
" />
<path d="M191.6666 69.2343
L191.2095 69.2343
" />
<path d="M191.4380 69.2343
L191.4380 68.4343
" />
<path d="M191.4380 68.4343
L191.3618 68.5486
" />
<path d="M191.3618 68.5486
L191.2856 68.6248
" />
<path d="M191.2856 68.6248
L191.2095 68.6629
" />
<path d="M192.0095 68.9295
L192.6190 68.9295
" />
<path d="M193.4571 69.2343
L193.1904 68.8533
" />
<path d="M192.9999 69.2343
L192.9999 68.4343
" />
<path d="M192.9999 68.4343
L193.3047 68.4343
" />
<path d="M193.3047 68.4343
L193.3809 68.4724
" />
<path d="M193.3809 68.4724
L193.4190 68.5105
" />
<path d="M193.4190 68.5105
L193.4571 68.5867
" />
<path d="M193.4571 68.5867
L193.4571 68.7010
" />
<path d="M193.4571 68.7010
L193.4190 68.7772
" />
<path d="M193.4190 68.7772
L193.3809 68.8152
" />
<path d="M193.3809 68.8152
L193.3047 68.8533
" />
<path d="M193.3047 68.8533
L192.9999 68.8533
" />
<path d="M194.2571 69.1581
L194.2190 69.1962
" />
<path d="M194.2190 69.1962
L194.1047 69.2343
" />
<path d="M194.1047 69.2343
L194.0285 69.2343
" />
<path d="M194.0285 69.2343
L193.9142 69.1962
" />
<path d="M193.9142 69.1962
L193.8380 69.1200
" />
<path d="M193.8380 69.1200
L193.7999 69.0438
" />
<path d="M193.7999 69.0438
L193.7618 68.8914
" />
<path d="M193.7618 68.8914
L193.7618 68.7772
" />
<path d="M193.7618 68.7772
L193.7999 68.6248
" />
<path d="M193.7999 68.6248
L193.8380 68.5486
" />
<path d="M193.8380 68.5486
L193.9142 68.4724
" />
<path d="M193.9142 68.4724
L194.0285 68.4343
" />
<path d="M194.0285 68.4343
L194.1047 68.4343
" />
<path d="M194.1047 68.4343
L194.2190 68.4724
" />
<path d="M194.2190 68.4724
L194.2571 68.5105
" />
<path d="M195.6285 69.2343
L195.1714 69.2343
" />
<path d="M195.3999 69.2343
L195.3999 68.4343
" />
<path d="M195.3999 68.4343
L195.3237 68.5486
" />
<path d="M195.3237 68.5486
L195.2476 68.6248
" />
<path d="M195.2476 68.6248
L195.1714 68.6629
" />
<path d="M195.8952 68.4343
L196.3904 68.4343
" />
<path d="M196.3904 68.4343
L196.1237 68.7391
" />
<path d="M196.1237 68.7391
L196.2380 68.7391
" />
<path d="M196.2380 68.7391
L196.3142 68.7772
" />
<path d="M196.3142 68.7772
L196.3523 68.8152
" />
<path d="M196.3523 68.8152
L196.3904 68.8914
" />
<path d="M196.3904 68.8914
L196.3904 69.0819
" />
<path d="M196.3904 69.0819
L196.3523 69.1581
" />
<path d="M196.3523 69.1581
L196.3142 69.1962
" />
<path d="M196.3142 69.1962
L196.2380 69.2343
" />
<path d="M196.2380 69.2343
L196.0095 69.2343
" />
<path d="M196.0095 69.2343
L195.9333 69.1962
" />
<path d="M195.9333 69.1962
L195.8952 69.1581
" />
<path d="M197.0761 69.1962
L196.9999 69.2343
" />
<path d="M196.9999 69.2343
L196.8476 69.2343
" />
<path d="M196.8476 69.2343
L196.7714 69.1962
" />
<path d="M196.7714 69.1962
L196.7333 69.1581
" />
<path d="M196.7333 69.1581
L196.6952 69.0819
" />
<path d="M196.6952 69.0819
L196.6952 68.8533
" />
<path d="M196.6952 68.8533
L196.7333 68.7772
" />
<path d="M196.7333 68.7772
L196.7714 68.7391
" />
<path d="M196.7714 68.7391
L196.8476 68.7010
" />
<path d="M196.8476 68.7010
L196.9999 68.7010
" />
<path d="M196.9999 68.7010
L197.0761 68.7391
" />
<path d="M197.7237 69.1962
L197.6476 69.2343
" />
<path d="M197.6476 69.2343
L197.4952 69.2343
" />
<path d="M197.4952 69.2343
L197.4190 69.1962
" />
<path d="M197.4190 69.1962
L197.3809 69.1200
" />
<path d="M197.3809 69.1200
L197.3809 68.8152
" />
<path d="M197.3809 68.8152
L197.4190 68.7391
" />
<path d="M197.4190 68.7391
L197.4952 68.7010
" />
<path d="M197.4952 68.7010
L197.6476 68.7010
" />
<path d="M197.6476 68.7010
L197.7237 68.7391
" />
<path d="M197.7237 68.7391
L197.7618 68.8152
" />
<path d="M197.7618 68.8152
L197.7618 68.8914
" />
<path d="M197.7618 68.8914
L197.3809 68.9676
" />
<path d="M198.0285 68.4343
L198.5237 68.4343
" />
<path d="M198.5237 68.4343
L198.2571 68.7391
" />
<path d="M198.2571 68.7391
L198.3714 68.7391
" />
<path d="M198.3714 68.7391
L198.4476 68.7772
" />
<path d="M198.4476 68.7772
L198.4856 68.8152
" />
<path d="M198.4856 68.8152
L198.5237 68.8914
" />
<path d="M198.5237 68.8914
L198.5237 69.0819
" />
<path d="M198.5237 69.0819
L198.4856 69.1581
" />
<path d="M198.4856 69.1581
L198.4476 69.1962
" />
<path d="M198.4476 69.1962
L198.3714 69.2343
" />
<path d="M198.3714 69.2343
L198.1428 69.2343
" />
<path d="M198.1428 69.2343
L198.0666 69.1962
" />
<path d="M198.0666 69.1962
L198.0285 69.1581
" />
<path d="M198.9809 68.7772
L198.9047 68.7391
" />
<path d="M198.9047 68.7391
L198.8666 68.7010
" />
<path d="M198.8666 68.7010
L198.8285 68.6248
" />
<path d="M198.8285 68.6248
L198.8285 68.5867
" />
<path d="M198.8285 68.5867
L198.8666 68.5105
" />
<path d="M198.8666 68.5105
L198.9047 68.4724
" />
<path d="M198.9047 68.4724
L198.9809 68.4343
" />
<path d="M198.9809 68.4343
L199.1333 68.4343
" />
<path d="M199.1333 68.4343
L199.2095 68.4724
" />
<path d="M199.2095 68.4724
L199.2476 68.5105
" />
<path d="M199.2476 68.5105
L199.2856 68.5867
" />
<path d="M199.2856 68.5867
L199.2856 68.6248
" />
<path d="M199.2856 68.6248
L199.2476 68.7010
" />
<path d="M199.2476 68.7010
L199.2095 68.7391
" />
<path d="M199.2095 68.7391
L199.1333 68.7772
" />
<path d="M199.1333 68.7772
L198.9809 68.7772
" />
<path d="M198.9809 68.7772
L198.9047 68.8152
" />
<path d="M198.9047 68.8152
L198.8666 68.8533
" />
<path d="M198.8666 68.8533
L198.8285 68.9295
" />
<path d="M198.8285 68.9295
L198.8285 69.0819
" />
<path d="M198.8285 69.0819
L198.8666 69.1581
" />
<path d="M198.8666 69.1581
L198.9047 69.1962
" />
<path d="M198.9047 69.1962
L198.9809 69.2343
" />
<path d="M198.9809 69.2343
L199.1333 69.2343
" />
<path d="M199.1333 69.2343
L199.2095 69.1962
" />
<path d="M199.2095 69.1962
L199.2476 69.1581
" />
<path d="M199.2476 69.1581
L199.2856 69.0819
" />
<path d="M199.2856 69.0819
L199.2856 68.9295
" />
<path d="M199.2856 68.9295
L199.2476 68.8533
" />
<path d="M199.2476 68.8533
L199.2095 68.8152
" />
<path d="M199.2095 68.8152
L199.1333 68.7772
" />
<path d="M199.5523 68.4343
L200.0856 68.4343
" />
<path d="M200.0856 68.4343
L199.7428 69.2343
" />
</g><text x="227.8322" y="96.2800"
textLength="1.9643" font-size="1.3333" lengthAdjust="spacingAndGlyphs"
text-anchor="middle" opacity="0" stroke-opacity="0">J3</text>
<g class="stroked-text"><desc>J3</desc>
<path d="M227.4989 95.2348
L227.4989 95.9491
" />
<path d="M227.4989 95.9491
L227.4512 96.0920
" />
<path d="M227.4512 96.0920
L227.3560 96.1872
" />
<path d="M227.3560 96.1872
L227.2132 96.2348
" />
<path d="M227.2132 96.2348
L227.1179 96.2348
" />
<path d="M227.8798 95.2348
L228.4989 95.2348
" />
<path d="M228.4989 95.2348
L228.1655 95.6158
" />
<path d="M228.1655 95.6158
L228.3084 95.6158
" />
<path d="M228.3084 95.6158
L228.4036 95.6634
" />
<path d="M228.4036 95.6634
L228.4512 95.7110
" />
<path d="M228.4512 95.7110
L228.4989 95.8062
" />
<path d="M228.4989 95.8062
L228.4989 96.0443
" />
<path d="M228.4989 96.0443
L228.4512 96.1396
" />
<path d="M228.4512 96.1396
L228.4036 96.1872
" />
<path d="M228.4036 96.1872
L228.3084 96.2348
" />
<path d="M228.3084 96.2348
L228.0227 96.2348
" />
<path d="M228.0227 96.2348
L227.9274 96.1872
" />
<path d="M227.9274 96.1872
L227.8798 96.1396
" />
</g><text x="186.3822" y="97.4700"
textLength="1.9643" font-size="1.3333" lengthAdjust="spacingAndGlyphs"
text-anchor="middle" opacity="0" stroke-opacity="0">J2</text>
<g class="stroked-text"><desc>J2</desc>
<path d="M186.0489 96.4248
L186.0489 97.1391
" />
<path d="M186.0489 97.1391
L186.0012 97.2820
" />
<path d="M186.0012 97.2820
L185.9060 97.3772
" />
<path d="M185.9060 97.3772
L185.7632 97.4248
" />
<path d="M185.7632 97.4248
L185.6679 97.4248
" />
<path d="M186.4774 96.5201
L186.5251 96.4724
" />
<path d="M186.5251 96.4724
L186.6203 96.4248
" />
<path d="M186.6203 96.4248
L186.8584 96.4248
" />
<path d="M186.8584 96.4248
L186.9536 96.4724
" />
<path d="M186.9536 96.4724
L187.0012 96.5201
" />
<path d="M187.0012 96.5201
L187.0489 96.6153
" />
<path d="M187.0489 96.6153
L187.0489 96.7105
" />
<path d="M187.0489 96.7105
L187.0012 96.8534
" />
<path d="M187.0012 96.8534
L186.4298 97.4248
" />
<path d="M186.4298 97.4248
L187.0489 97.4248
" />
</g></g>
<g style="fill:none; 
stroke:#000000; stroke-width:0.1200; stroke-opacity:1; 
stroke-linecap:round; stroke-linejoin:round;">
<path d="M234.9922 92.3100
L234.9922 89.7100
" />
<path d="M234.9922 94.9100
L234.9922 93.5800
" />
<path d="M233.6622 94.9100
L234.9922 94.9100
" />
<path d="M232.3922 92.3100
L234.9922 92.3100
" />
<path d="M232.3922 94.9100
L232.3922 92.3100
" />
<path d="M227.2522 89.7100
L234.9922 89.7100
" />
<path d="M227.2522 94.9100
L232.3922 94.9100
" />
<path d="M227.2522 94.9100
L227.2522 89.7100
" />
<path d="M190.6822 88.0700
L189.3522 88.0700
" />
<path d="M190.6822 89.4000
L190.6822 88.0700
" />
<path d="M190.6822 90.6700
L188.0822 90.6700
" />
<path d="M190.6822 95.8100
L190.6822 90.6700
" />
<path d="M190.6822 95.8100
L185.4822 95.8100
" />
<path d="M188.0822 88.0700
L185.4822 88.0700
" />
<path d="M188.0822 90.6700
L188.0822 88.0700
" />
<path d="M185.4822 95.8100
L185.4822 88.0700
" />
</g> 
</svg>
