<?xml version="1.0" standalone="no"?>
 <!DOCTYPE svg PUBLIC "-//W3C//DTD SVG 1.1//EN" 
 "http://www.w3.org/Graphics/SVG/1.1/DTD/svg11.dtd"> 
<svg
  xmlns:svg="http://www.w3.org/2000/svg"
  xmlns="http://www.w3.org/2000/svg"
  xmlns:xlink="http://www.w3.org/1999/xlink"
  version="1.1"
  width="297.0022mm" height="210.0072mm" viewBox="0.0000 0.0000 297.0022 210.0072">
<title>SVG Image created as pedalboard-soundcard-User_Comments3.svg date 2025/04/21 12:49:26 </title>
  <desc>Image generated by PCBNEW </desc>
<g style="fill:#000000; fill-opacity:1.0000;stroke:#000000; stroke-opacity:1.0000;
stroke-linecap:round; stroke-linejoin:round;"
 transform="translate(0 0) scale(1 1)">
</g>
<g style="fill:none; 
stroke:#000000; stroke-width:0.1500; stroke-opacity:1; 
stroke-linecap:round; stroke-linejoin:round;">
<text x="212.0022" y="118.5425"
textLength="26.3643" font-size="2.0000" lengthAdjust="spacingAndGlyphs"
text-anchor="middle" opacity="0" stroke-opacity="0">Dimensions taken from</text>
<g class="stroked-text"><desc>Dimensions taken from</desc>
<path d="M199.2433 118.4787
L199.4308 116.9787
" />
<path d="M199.4308 116.9787
L199.7879 116.9787
" />
<path d="M199.7879 116.9787
L199.9933 117.0501
" />
<path d="M199.9933 117.0501
L200.1183 117.1930
" />
<path d="M200.1183 117.1930
L200.1718 117.3358
" />
<path d="M200.1718 117.3358
L200.2076 117.6215
" />
<path d="M200.2076 117.6215
L200.1808 117.8358
" />
<path d="M200.1808 117.8358
L200.0736 118.1215
" />
<path d="M200.0736 118.1215
L199.9843 118.2644
" />
<path d="M199.9843 118.2644
L199.8236 118.4072
" />
<path d="M199.8236 118.4072
L199.6004 118.4787
" />
<path d="M199.6004 118.4787
L199.2433 118.4787
" />
<path d="M200.7433 118.4787
L200.8683 117.4787
" />
<path d="M200.9308 116.9787
L200.8504 117.0501
" />
<path d="M200.8504 117.0501
L200.9129 117.1215
" />
<path d="M200.9129 117.1215
L200.9933 117.0501
" />
<path d="M200.9933 117.0501
L200.9308 116.9787
" />
<path d="M200.9308 116.9787
L200.9129 117.1215
" />
<path d="M201.4576 118.4787
L201.5826 117.4787
" />
<path d="M201.5647 117.6215
L201.6451 117.5501
" />
<path d="M201.6451 117.5501
L201.7968 117.4787
" />
<path d="M201.7968 117.4787
L202.0111 117.4787
" />
<path d="M202.0111 117.4787
L202.1451 117.5501
" />
<path d="M202.1451 117.5501
L202.1986 117.6930
" />
<path d="M202.1986 117.6930
L202.1004 118.4787
" />
<path d="M202.1986 117.6930
L202.2879 117.5501
" />
<path d="M202.2879 117.5501
L202.4397 117.4787
" />
<path d="M202.4397 117.4787
L202.6540 117.4787
" />
<path d="M202.6540 117.4787
L202.7879 117.5501
" />
<path d="M202.7879 117.5501
L202.8415 117.6930
" />
<path d="M202.8415 117.6930
L202.7433 118.4787
" />
<path d="M204.0379 118.4072
L203.8861 118.4787
" />
<path d="M203.8861 118.4787
L203.6004 118.4787
" />
<path d="M203.6004 118.4787
L203.4665 118.4072
" />
<path d="M203.4665 118.4072
L203.4129 118.2644
" />
<path d="M203.4129 118.2644
L203.4843 117.6930
" />
<path d="M203.4843 117.6930
L203.5736 117.5501
" />
<path d="M203.5736 117.5501
L203.7254 117.4787
" />
<path d="M203.7254 117.4787
L204.0111 117.4787
" />
<path d="M204.0111 117.4787
L204.1451 117.5501
" />
<path d="M204.1451 117.5501
L204.1986 117.6930
" />
<path d="M204.1986 117.6930
L204.1808 117.8358
" />
<path d="M204.1808 117.8358
L203.4486 117.9787
" />
<path d="M204.8683 117.4787
L204.7433 118.4787
" />
<path d="M204.8504 117.6215
L204.9308 117.5501
" />
<path d="M204.9308 117.5501
L205.0826 117.4787
" />
<path d="M205.0826 117.4787
L205.2968 117.4787
" />
<path d="M205.2968 117.4787
L205.4308 117.5501
" />
<path d="M205.4308 117.5501
L205.4843 117.6930
" />
<path d="M205.4843 117.6930
L205.3861 118.4787
" />
<path d="M206.0379 118.4072
L206.1718 118.4787
" />
<path d="M206.1718 118.4787
L206.4576 118.4787
" />
<path d="M206.4576 118.4787
L206.6093 118.4072
" />
<path d="M206.6093 118.4072
L206.6986 118.2644
" />
<path d="M206.6986 118.2644
L206.7076 118.1930
" />
<path d="M206.7076 118.1930
L206.6540 118.0501
" />
<path d="M206.6540 118.0501
L206.5201 117.9787
" />
<path d="M206.5201 117.9787
L206.3058 117.9787
" />
<path d="M206.3058 117.9787
L206.1718 117.9072
" />
<path d="M206.1718 117.9072
L206.1183 117.7644
" />
<path d="M206.1183 117.7644
L206.1272 117.6930
" />
<path d="M206.1272 117.6930
L206.2165 117.5501
" />
<path d="M206.2165 117.5501
L206.3683 117.4787
" />
<path d="M206.3683 117.4787
L206.5826 117.4787
" />
<path d="M206.5826 117.4787
L206.7165 117.5501
" />
<path d="M207.3147 118.4787
L207.4397 117.4787
" />
<path d="M207.5022 116.9787
L207.4218 117.0501
" />
<path d="M207.4218 117.0501
L207.4843 117.1215
" />
<path d="M207.4843 117.1215
L207.5647 117.0501
" />
<path d="M207.5647 117.0501
L207.5022 116.9787
" />
<path d="M207.5022 116.9787
L207.4843 117.1215
" />
<path d="M208.2433 118.4787
L208.1093 118.4072
" />
<path d="M208.1093 118.4072
L208.0468 118.3358
" />
<path d="M208.0468 118.3358
L207.9933 118.1930
" />
<path d="M207.9933 118.1930
L208.0468 117.7644
" />
<path d="M208.0468 117.7644
L208.1361 117.6215
" />
<path d="M208.1361 117.6215
L208.2165 117.5501
" />
<path d="M208.2165 117.5501
L208.3683 117.4787
" />
<path d="M208.3683 117.4787
L208.5826 117.4787
" />
<path d="M208.5826 117.4787
L208.7165 117.5501
" />
<path d="M208.7165 117.5501
L208.7790 117.6215
" />
<path d="M208.7790 117.6215
L208.8326 117.7644
" />
<path d="M208.8326 117.7644
L208.7790 118.1930
" />
<path d="M208.7790 118.1930
L208.6897 118.3358
" />
<path d="M208.6897 118.3358
L208.6093 118.4072
" />
<path d="M208.6093 118.4072
L208.4576 118.4787
" />
<path d="M208.4576 118.4787
L208.2433 118.4787
" />
<path d="M209.5111 117.4787
L209.3861 118.4787
" />
<path d="M209.4933 117.6215
L209.5736 117.5501
" />
<path d="M209.5736 117.5501
L209.7254 117.4787
" />
<path d="M209.7254 117.4787
L209.9397 117.4787
" />
<path d="M209.9397 117.4787
L210.0736 117.5501
" />
<path d="M210.0736 117.5501
L210.1272 117.6930
" />
<path d="M210.1272 117.6930
L210.0290 118.4787
" />
<path d="M210.6808 118.4072
L210.8147 118.4787
" />
<path d="M210.8147 118.4787
L211.1004 118.4787
" />
<path d="M211.1004 118.4787
L211.2522 118.4072
" />
<path d="M211.2522 118.4072
L211.3415 118.2644
" />
<path d="M211.3415 118.2644
L211.3504 118.1930
" />
<path d="M211.3504 118.1930
L211.2968 118.0501
" />
<path d="M211.2968 118.0501
L211.1629 117.9787
" />
<path d="M211.1629 117.9787
L210.9486 117.9787
" />
<path d="M210.9486 117.9787
L210.8147 117.9072
" />
<path d="M210.8147 117.9072
L210.7611 117.7644
" />
<path d="M210.7611 117.7644
L210.7701 117.6930
" />
<path d="M210.7701 117.6930
L210.8593 117.5501
" />
<path d="M210.8593 117.5501
L211.0111 117.4787
" />
<path d="M211.0111 117.4787
L211.2254 117.4787
" />
<path d="M211.2254 117.4787
L211.3593 117.5501
" />
<path d="M213.0111 117.4787
L213.5826 117.4787
" />
<path d="M213.2879 116.9787
L213.1272 118.2644
" />
<path d="M213.1272 118.2644
L213.1808 118.4072
" />
<path d="M213.1808 118.4072
L213.3147 118.4787
" />
<path d="M213.3147 118.4787
L213.4576 118.4787
" />
<path d="M214.6004 118.4787
L214.6986 117.6930
" />
<path d="M214.6986 117.6930
L214.6451 117.5501
" />
<path d="M214.6451 117.5501
L214.5111 117.4787
" />
<path d="M214.5111 117.4787
L214.2254 117.4787
" />
<path d="M214.2254 117.4787
L214.0736 117.5501
" />
<path d="M214.6093 118.4072
L214.4576 118.4787
" />
<path d="M214.4576 118.4787
L214.1004 118.4787
" />
<path d="M214.1004 118.4787
L213.9665 118.4072
" />
<path d="M213.9665 118.4072
L213.9129 118.2644
" />
<path d="M213.9129 118.2644
L213.9308 118.1215
" />
<path d="M213.9308 118.1215
L214.0201 117.9787
" />
<path d="M214.0201 117.9787
L214.1718 117.9072
" />
<path d="M214.1718 117.9072
L214.5290 117.9072
" />
<path d="M214.5290 117.9072
L214.6808 117.8358
" />
<path d="M215.3147 118.4787
L215.5022 116.9787
" />
<path d="M215.5290 117.9072
L215.8861 118.4787
" />
<path d="M216.0111 117.4787
L215.3683 118.0501
" />
<path d="M217.1093 118.4072
L216.9576 118.4787
" />
<path d="M216.9576 118.4787
L216.6718 118.4787
" />
<path d="M216.6718 118.4787
L216.5379 118.4072
" />
<path d="M216.5379 118.4072
L216.4843 118.2644
" />
<path d="M216.4843 118.2644
L216.5558 117.6930
" />
<path d="M216.5558 117.6930
L216.6451 117.5501
" />
<path d="M216.6451 117.5501
L216.7968 117.4787
" />
<path d="M216.7968 117.4787
L217.0826 117.4787
" />
<path d="M217.0826 117.4787
L217.2165 117.5501
" />
<path d="M217.2165 117.5501
L217.2701 117.6930
" />
<path d="M217.2701 117.6930
L217.2522 117.8358
" />
<path d="M217.2522 117.8358
L216.5201 117.9787
" />
<path d="M217.9397 117.4787
L217.8147 118.4787
" />
<path d="M217.9218 117.6215
L218.0022 117.5501
" />
<path d="M218.0022 117.5501
L218.1540 117.4787
" />
<path d="M218.1540 117.4787
L218.3683 117.4787
" />
<path d="M218.3683 117.4787
L218.5022 117.5501
" />
<path d="M218.5022 117.5501
L218.5558 117.6930
" />
<path d="M218.5558 117.6930
L218.4576 118.4787
" />
<path d="M220.2254 117.4787
L220.7968 117.4787
" />
<path d="M220.3147 118.4787
L220.4754 117.1930
" />
<path d="M220.4754 117.1930
L220.5647 117.0501
" />
<path d="M220.5647 117.0501
L220.7165 116.9787
" />
<path d="M220.7165 116.9787
L220.8593 116.9787
" />
<path d="M221.1718 118.4787
L221.2968 117.4787
" />
<path d="M221.2611 117.7644
L221.3504 117.6215
" />
<path d="M221.3504 117.6215
L221.4308 117.5501
" />
<path d="M221.4308 117.5501
L221.5826 117.4787
" />
<path d="M221.5826 117.4787
L221.7254 117.4787
" />
<path d="M222.3147 118.4787
L222.1808 118.4072
" />
<path d="M222.1808 118.4072
L222.1183 118.3358
" />
<path d="M222.1183 118.3358
L222.0647 118.1930
" />
<path d="M222.0647 118.1930
L222.1183 117.7644
" />
<path d="M222.1183 117.7644
L222.2076 117.6215
" />
<path d="M222.2076 117.6215
L222.2879 117.5501
" />
<path d="M222.2879 117.5501
L222.4397 117.4787
" />
<path d="M222.4397 117.4787
L222.6540 117.4787
" />
<path d="M222.6540 117.4787
L222.7879 117.5501
" />
<path d="M222.7879 117.5501
L222.8504 117.6215
" />
<path d="M222.8504 117.6215
L222.9040 117.7644
" />
<path d="M222.9040 117.7644
L222.8504 118.1930
" />
<path d="M222.8504 118.1930
L222.7611 118.3358
" />
<path d="M222.7611 118.3358
L222.6808 118.4072
" />
<path d="M222.6808 118.4072
L222.5290 118.4787
" />
<path d="M222.5290 118.4787
L222.3147 118.4787
" />
<path d="M223.4576 118.4787
L223.5826 117.4787
" />
<path d="M223.5647 117.6215
L223.6451 117.5501
" />
<path d="M223.6451 117.5501
L223.7968 117.4787
" />
<path d="M223.7968 117.4787
L224.0111 117.4787
" />
<path d="M224.0111 117.4787
L224.1451 117.5501
" />
<path d="M224.1451 117.5501
L224.1986 117.6930
" />
<path d="M224.1986 117.6930
L224.1004 118.4787
" />
<path d="M224.1986 117.6930
L224.2879 117.5501
" />
<path d="M224.2879 117.5501
L224.4397 117.4787
" />
<path d="M224.4397 117.4787
L224.6540 117.4787
" />
<path d="M224.6540 117.4787
L224.7879 117.5501
" />
<path d="M224.7879 117.5501
L224.8415 117.6930
" />
<path d="M224.8415 117.6930
L224.7433 118.4787
" />
</g><text x="212.0022" y="120.9575"
textLength="90.4357" font-size="2.0000" lengthAdjust="spacingAndGlyphs"
text-anchor="middle" opacity="0" stroke-opacity="0">https://github.com/raspberrypi/hats/blob/master/hat-board-mechanical.pdf</text>
<g class="stroked-text"><desc>https://github.com/raspberrypi/hats/blob/master/hat-board-mechanical.pdf</desc>
<path d="M167.2076 120.8936
L167.3951 119.3936
" />
<path d="M167.8504 120.8936
L167.9486 120.1079
" />
<path d="M167.9486 120.1079
L167.8951 119.9650
" />
<path d="M167.8951 119.9650
L167.7611 119.8936
" />
<path d="M167.7611 119.8936
L167.5468 119.8936
" />
<path d="M167.5468 119.8936
L167.3951 119.9650
" />
<path d="M167.3951 119.9650
L167.3147 120.0364
" />
<path d="M168.4754 119.8936
L169.0468 119.8936
" />
<path d="M168.7522 119.3936
L168.5915 120.6793
" />
<path d="M168.5915 120.6793
L168.6451 120.8222
" />
<path d="M168.6451 120.8222
L168.7790 120.8936
" />
<path d="M168.7790 120.8936
L168.9218 120.8936
" />
<path d="M169.3326 119.8936
L169.9040 119.8936
" />
<path d="M169.6093 119.3936
L169.4486 120.6793
" />
<path d="M169.4486 120.6793
L169.5022 120.8222
" />
<path d="M169.5022 120.8222
L169.6361 120.8936
" />
<path d="M169.6361 120.8936
L169.7790 120.8936
" />
<path d="M170.4040 119.8936
L170.2165 121.3936
" />
<path d="M170.3951 119.9650
L170.5468 119.8936
" />
<path d="M170.5468 119.8936
L170.8326 119.8936
" />
<path d="M170.8326 119.8936
L170.9665 119.9650
" />
<path d="M170.9665 119.9650
L171.0290 120.0364
" />
<path d="M171.0290 120.0364
L171.0826 120.1793
" />
<path d="M171.0826 120.1793
L171.0290 120.6079
" />
<path d="M171.0290 120.6079
L170.9397 120.7507
" />
<path d="M170.9397 120.7507
L170.8593 120.8222
" />
<path d="M170.8593 120.8222
L170.7076 120.8936
" />
<path d="M170.7076 120.8936
L170.4218 120.8936
" />
<path d="M170.4218 120.8936
L170.2879 120.8222
" />
<path d="M171.5736 120.8222
L171.7076 120.8936
" />
<path d="M171.7076 120.8936
L171.9933 120.8936
" />
<path d="M171.9933 120.8936
L172.1451 120.8222
" />
<path d="M172.1451 120.8222
L172.2343 120.6793
" />
<path d="M172.2343 120.6793
L172.2433 120.6079
" />
<path d="M172.2433 120.6079
L172.1897 120.4650
" />
<path d="M172.1897 120.4650
L172.0558 120.3936
" />
<path d="M172.0558 120.3936
L171.8415 120.3936
" />
<path d="M171.8415 120.3936
L171.7076 120.3222
" />
<path d="M171.7076 120.3222
L171.6540 120.1793
" />
<path d="M171.6540 120.1793
L171.6629 120.1079
" />
<path d="M171.6629 120.1079
L171.7522 119.9650
" />
<path d="M171.7522 119.9650
L171.9040 119.8936
" />
<path d="M171.9040 119.8936
L172.1183 119.8936
" />
<path d="M172.1183 119.8936
L172.2522 119.9650
" />
<path d="M172.8683 120.7507
L172.9308 120.8222
" />
<path d="M172.9308 120.8222
L172.8504 120.8936
" />
<path d="M172.8504 120.8936
L172.7879 120.8222
" />
<path d="M172.7879 120.8222
L172.8683 120.7507
" />
<path d="M172.8683 120.7507
L172.8504 120.8936
" />
<path d="M172.9665 119.9650
L173.0290 120.0364
" />
<path d="M173.0290 120.0364
L172.9486 120.1079
" />
<path d="M172.9486 120.1079
L172.8861 120.0364
" />
<path d="M172.8861 120.0364
L172.9665 119.9650
" />
<path d="M172.9665 119.9650
L172.9486 120.1079
" />
<path d="M174.8326 119.3222
L173.3058 121.2507
" />
<path d="M176.4040 119.3222
L174.8772 121.2507
" />
<path d="M177.4754 119.8936
L177.3236 121.1079
" />
<path d="M177.3236 121.1079
L177.2343 121.2507
" />
<path d="M177.2343 121.2507
L177.1540 121.3222
" />
<path d="M177.1540 121.3222
L177.0022 121.3936
" />
<path d="M177.0022 121.3936
L176.7879 121.3936
" />
<path d="M176.7879 121.3936
L176.6540 121.3222
" />
<path d="M177.3593 120.8222
L177.2076 120.8936
" />
<path d="M177.2076 120.8936
L176.9218 120.8936
" />
<path d="M176.9218 120.8936
L176.7879 120.8222
" />
<path d="M176.7879 120.8222
L176.7254 120.7507
" />
<path d="M176.7254 120.7507
L176.6718 120.6079
" />
<path d="M176.6718 120.6079
L176.7254 120.1793
" />
<path d="M176.7254 120.1793
L176.8147 120.0364
" />
<path d="M176.8147 120.0364
L176.8951 119.9650
" />
<path d="M176.8951 119.9650
L177.0468 119.8936
" />
<path d="M177.0468 119.8936
L177.3326 119.8936
" />
<path d="M177.3326 119.8936
L177.4665 119.9650
" />
<path d="M178.0647 120.8936
L178.1897 119.8936
" />
<path d="M178.2522 119.3936
L178.1718 119.4650
" />
<path d="M178.1718 119.4650
L178.2343 119.5364
" />
<path d="M178.2343 119.5364
L178.3147 119.4650
" />
<path d="M178.3147 119.4650
L178.2522 119.3936
" />
<path d="M178.2522 119.3936
L178.2343 119.5364
" />
<path d="M178.6897 119.8936
L179.2611 119.8936
" />
<path d="M178.9665 119.3936
L178.8058 120.6793
" />
<path d="M178.8058 120.6793
L178.8593 120.8222
" />
<path d="M178.8593 120.8222
L178.9933 120.8936
" />
<path d="M178.9933 120.8936
L179.1361 120.8936
" />
<path d="M179.6361 120.8936
L179.8236 119.3936
" />
<path d="M180.2790 120.8936
L180.3772 120.1079
" />
<path d="M180.3772 120.1079
L180.3236 119.9650
" />
<path d="M180.3236 119.9650
L180.1897 119.8936
" />
<path d="M180.1897 119.8936
L179.9754 119.8936
" />
<path d="M179.9754 119.8936
L179.8236 119.9650
" />
<path d="M179.8236 119.9650
L179.7433 120.0364
" />
<path d="M181.7611 119.8936
L181.6361 120.8936
" />
<path d="M181.1183 119.8936
L181.0201 120.6793
" />
<path d="M181.0201 120.6793
L181.0736 120.8222
" />
<path d="M181.0736 120.8222
L181.2076 120.8936
" />
<path d="M181.2076 120.8936
L181.4218 120.8936
" />
<path d="M181.4218 120.8936
L181.5736 120.8222
" />
<path d="M181.5736 120.8222
L181.6540 120.7507
" />
<path d="M182.3504 120.8936
L182.5379 119.3936
" />
<path d="M182.4665 119.9650
L182.6183 119.8936
" />
<path d="M182.6183 119.8936
L182.9040 119.8936
" />
<path d="M182.9040 119.8936
L183.0379 119.9650
" />
<path d="M183.0379 119.9650
L183.1004 120.0364
" />
<path d="M183.1004 120.0364
L183.1540 120.1793
" />
<path d="M183.1540 120.1793
L183.1004 120.6079
" />
<path d="M183.1004 120.6079
L183.0111 120.7507
" />
<path d="M183.0111 120.7507
L182.9308 120.8222
" />
<path d="M182.9308 120.8222
L182.7790 120.8936
" />
<path d="M182.7790 120.8936
L182.4933 120.8936
" />
<path d="M182.4933 120.8936
L182.3593 120.8222
" />
<path d="M183.7254 120.7507
L183.7879 120.8222
" />
<path d="M183.7879 120.8222
L183.7076 120.8936
" />
<path d="M183.7076 120.8936
L183.6451 120.8222
" />
<path d="M183.6451 120.8222
L183.7254 120.7507
" />
<path d="M183.7254 120.7507
L183.7076 120.8936
" />
<path d="M185.0736 120.8222
L184.9218 120.8936
" />
<path d="M184.9218 120.8936
L184.6361 120.8936
" />
<path d="M184.6361 120.8936
L184.5022 120.8222
" />
<path d="M184.5022 120.8222
L184.4397 120.7507
" />
<path d="M184.4397 120.7507
L184.3861 120.6079
" />
<path d="M184.3861 120.6079
L184.4397 120.1793
" />
<path d="M184.4397 120.1793
L184.5290 120.0364
" />
<path d="M184.5290 120.0364
L184.6093 119.9650
" />
<path d="M184.6093 119.9650
L184.7611 119.8936
" />
<path d="M184.7611 119.8936
L185.0468 119.8936
" />
<path d="M185.0468 119.8936
L185.1808 119.9650
" />
<path d="M185.9218 120.8936
L185.7879 120.8222
" />
<path d="M185.7879 120.8222
L185.7254 120.7507
" />
<path d="M185.7254 120.7507
L185.6718 120.6079
" />
<path d="M185.6718 120.6079
L185.7254 120.1793
" />
<path d="M185.7254 120.1793
L185.8147 120.0364
" />
<path d="M185.8147 120.0364
L185.8951 119.9650
" />
<path d="M185.8951 119.9650
L186.0468 119.8936
" />
<path d="M186.0468 119.8936
L186.2611 119.8936
" />
<path d="M186.2611 119.8936
L186.3951 119.9650
" />
<path d="M186.3951 119.9650
L186.4576 120.0364
" />
<path d="M186.4576 120.0364
L186.5111 120.1793
" />
<path d="M186.5111 120.1793
L186.4576 120.6079
" />
<path d="M186.4576 120.6079
L186.3683 120.7507
" />
<path d="M186.3683 120.7507
L186.2879 120.8222
" />
<path d="M186.2879 120.8222
L186.1361 120.8936
" />
<path d="M186.1361 120.8936
L185.9218 120.8936
" />
<path d="M187.0647 120.8936
L187.1897 119.8936
" />
<path d="M187.1718 120.0364
L187.2522 119.9650
" />
<path d="M187.2522 119.9650
L187.4040 119.8936
" />
<path d="M187.4040 119.8936
L187.6183 119.8936
" />
<path d="M187.6183 119.8936
L187.7522 119.9650
" />
<path d="M187.7522 119.9650
L187.8058 120.1079
" />
<path d="M187.8058 120.1079
L187.7076 120.8936
" />
<path d="M187.8058 120.1079
L187.8951 119.9650
" />
<path d="M187.8951 119.9650
L188.0468 119.8936
" />
<path d="M188.0468 119.8936
L188.2611 119.8936
" />
<path d="M188.2611 119.8936
L188.3951 119.9650
" />
<path d="M188.3951 119.9650
L188.4486 120.1079
" />
<path d="M188.4486 120.1079
L188.3504 120.8936
" />
<path d="M190.3326 119.3222
L188.8058 121.2507
" />
<path d="M190.6361 120.8936
L190.7611 119.8936
" />
<path d="M190.7254 120.1793
L190.8147 120.0364
" />
<path d="M190.8147 120.0364
L190.8951 119.9650
" />
<path d="M190.8951 119.9650
L191.0468 119.8936
" />
<path d="M191.0468 119.8936
L191.1897 119.8936
" />
<path d="M192.2076 120.8936
L192.3058 120.1079
" />
<path d="M192.3058 120.1079
L192.2522 119.9650
" />
<path d="M192.2522 119.9650
L192.1183 119.8936
" />
<path d="M192.1183 119.8936
L191.8326 119.8936
" />
<path d="M191.8326 119.8936
L191.6808 119.9650
" />
<path d="M192.2165 120.8222
L192.0647 120.8936
" />
<path d="M192.0647 120.8936
L191.7076 120.8936
" />
<path d="M191.7076 120.8936
L191.5736 120.8222
" />
<path d="M191.5736 120.8222
L191.5201 120.6793
" />
<path d="M191.5201 120.6793
L191.5379 120.5364
" />
<path d="M191.5379 120.5364
L191.6272 120.3936
" />
<path d="M191.6272 120.3936
L191.7790 120.3222
" />
<path d="M191.7790 120.3222
L192.1361 120.3222
" />
<path d="M192.1361 120.3222
L192.2879 120.2507
" />
<path d="M192.8593 120.8222
L192.9933 120.8936
" />
<path d="M192.9933 120.8936
L193.2790 120.8936
" />
<path d="M193.2790 120.8936
L193.4308 120.8222
" />
<path d="M193.4308 120.8222
L193.5201 120.6793
" />
<path d="M193.5201 120.6793
L193.5290 120.6079
" />
<path d="M193.5290 120.6079
L193.4754 120.4650
" />
<path d="M193.4754 120.4650
L193.3415 120.3936
" />
<path d="M193.3415 120.3936
L193.1272 120.3936
" />
<path d="M193.1272 120.3936
L192.9933 120.3222
" />
<path d="M192.9933 120.3222
L192.9397 120.1793
" />
<path d="M192.9397 120.1793
L192.9486 120.1079
" />
<path d="M192.9486 120.1079
L193.0379 119.9650
" />
<path d="M193.0379 119.9650
L193.1897 119.8936
" />
<path d="M193.1897 119.8936
L193.4040 119.8936
" />
<path d="M193.4040 119.8936
L193.5379 119.9650
" />
<path d="M194.2611 119.8936
L194.0736 121.3936
" />
<path d="M194.2522 119.9650
L194.4040 119.8936
" />
<path d="M194.4040 119.8936
L194.6897 119.8936
" />
<path d="M194.6897 119.8936
L194.8236 119.9650
" />
<path d="M194.8236 119.9650
L194.8861 120.0364
" />
<path d="M194.8861 120.0364
L194.9397 120.1793
" />
<path d="M194.9397 120.1793
L194.8861 120.6079
" />
<path d="M194.8861 120.6079
L194.7968 120.7507
" />
<path d="M194.7968 120.7507
L194.7165 120.8222
" />
<path d="M194.7165 120.8222
L194.5647 120.8936
" />
<path d="M194.5647 120.8936
L194.2790 120.8936
" />
<path d="M194.2790 120.8936
L194.1451 120.8222
" />
<path d="M195.4933 120.8936
L195.6808 119.3936
" />
<path d="M195.6093 119.9650
L195.7611 119.8936
" />
<path d="M195.7611 119.8936
L196.0468 119.8936
" />
<path d="M196.0468 119.8936
L196.1808 119.9650
" />
<path d="M196.1808 119.9650
L196.2433 120.0364
" />
<path d="M196.2433 120.0364
L196.2968 120.1793
" />
<path d="M196.2968 120.1793
L196.2433 120.6079
" />
<path d="M196.2433 120.6079
L196.1540 120.7507
" />
<path d="M196.1540 120.7507
L196.0736 120.8222
" />
<path d="M196.0736 120.8222
L195.9218 120.8936
" />
<path d="M195.9218 120.8936
L195.6361 120.8936
" />
<path d="M195.6361 120.8936
L195.5022 120.8222
" />
<path d="M197.4308 120.8222
L197.2790 120.8936
" />
<path d="M197.2790 120.8936
L196.9933 120.8936
" />
<path d="M196.9933 120.8936
L196.8593 120.8222
" />
<path d="M196.8593 120.8222
L196.8058 120.6793
" />
<path d="M196.8058 120.6793
L196.8772 120.1079
" />
<path d="M196.8772 120.1079
L196.9665 119.9650
" />
<path d="M196.9665 119.9650
L197.1183 119.8936
" />
<path d="M197.1183 119.8936
L197.4040 119.8936
" />
<path d="M197.4040 119.8936
L197.5379 119.9650
" />
<path d="M197.5379 119.9650
L197.5915 120.1079
" />
<path d="M197.5915 120.1079
L197.5736 120.2507
" />
<path d="M197.5736 120.2507
L196.8415 120.3936
" />
<path d="M198.1361 120.8936
L198.2611 119.8936
" />
<path d="M198.2254 120.1793
L198.3147 120.0364
" />
<path d="M198.3147 120.0364
L198.3951 119.9650
" />
<path d="M198.3951 119.9650
L198.5468 119.8936
" />
<path d="M198.5468 119.8936
L198.6897 119.8936
" />
<path d="M199.0647 120.8936
L199.1897 119.8936
" />
<path d="M199.1540 120.1793
L199.2433 120.0364
" />
<path d="M199.2433 120.0364
L199.3236 119.9650
" />
<path d="M199.3236 119.9650
L199.4754 119.8936
" />
<path d="M199.4754 119.8936
L199.6183 119.8936
" />
<path d="M199.9754 119.8936
L200.2076 120.8936
" />
<path d="M200.6897 119.8936
L200.2076 120.8936
" />
<path d="M200.2076 120.8936
L200.0201 121.2507
" />
<path d="M200.0201 121.2507
L199.9397 121.3222
" />
<path d="M199.9397 121.3222
L199.7879 121.3936
" />
<path d="M201.2611 119.8936
L201.0736 121.3936
" />
<path d="M201.2522 119.9650
L201.4040 119.8936
" />
<path d="M201.4040 119.8936
L201.6897 119.8936
" />
<path d="M201.6897 119.8936
L201.8236 119.9650
" />
<path d="M201.8236 119.9650
L201.8861 120.0364
" />
<path d="M201.8861 120.0364
L201.9397 120.1793
" />
<path d="M201.9397 120.1793
L201.8861 120.6079
" />
<path d="M201.8861 120.6079
L201.7968 120.7507
" />
<path d="M201.7968 120.7507
L201.7165 120.8222
" />
<path d="M201.7165 120.8222
L201.5647 120.8936
" />
<path d="M201.5647 120.8936
L201.2790 120.8936
" />
<path d="M201.2790 120.8936
L201.1451 120.8222
" />
<path d="M202.4933 120.8936
L202.6183 119.8936
" />
<path d="M202.6808 119.3936
L202.6004 119.4650
" />
<path d="M202.6004 119.4650
L202.6629 119.5364
" />
<path d="M202.6629 119.5364
L202.7433 119.4650
" />
<path d="M202.7433 119.4650
L202.6808 119.3936
" />
<path d="M202.6808 119.3936
L202.6629 119.5364
" />
<path d="M204.4754 119.3222
L202.9486 121.2507
" />
<path d="M204.7790 120.8936
L204.9665 119.3936
" />
<path d="M205.4218 120.8936
L205.5201 120.1079
" />
<path d="M205.5201 120.1079
L205.4665 119.9650
" />
<path d="M205.4665 119.9650
L205.3326 119.8936
" />
<path d="M205.3326 119.8936
L205.1183 119.8936
" />
<path d="M205.1183 119.8936
L204.9665 119.9650
" />
<path d="M204.9665 119.9650
L204.8861 120.0364
" />
<path d="M206.7790 120.8936
L206.8772 120.1079
" />
<path d="M206.8772 120.1079
L206.8236 119.9650
" />
<path d="M206.8236 119.9650
L206.6897 119.8936
" />
<path d="M206.6897 119.8936
L206.4040 119.8936
" />
<path d="M206.4040 119.8936
L206.2522 119.9650
" />
<path d="M206.7879 120.8222
L206.6361 120.8936
" />
<path d="M206.6361 120.8936
L206.2790 120.8936
" />
<path d="M206.2790 120.8936
L206.1451 120.8222
" />
<path d="M206.1451 120.8222
L206.0915 120.6793
" />
<path d="M206.0915 120.6793
L206.1093 120.5364
" />
<path d="M206.1093 120.5364
L206.1986 120.3936
" />
<path d="M206.1986 120.3936
L206.3504 120.3222
" />
<path d="M206.3504 120.3222
L206.7076 120.3222
" />
<path d="M206.7076 120.3222
L206.8593 120.2507
" />
<path d="M207.4040 119.8936
L207.9754 119.8936
" />
<path d="M207.6808 119.3936
L207.5201 120.6793
" />
<path d="M207.5201 120.6793
L207.5736 120.8222
" />
<path d="M207.5736 120.8222
L207.7076 120.8936
" />
<path d="M207.7076 120.8936
L207.8504 120.8936
" />
<path d="M208.2879 120.8222
L208.4218 120.8936
" />
<path d="M208.4218 120.8936
L208.7076 120.8936
" />
<path d="M208.7076 120.8936
L208.8593 120.8222
" />
<path d="M208.8593 120.8222
L208.9486 120.6793
" />
<path d="M208.9486 120.6793
L208.9576 120.6079
" />
<path d="M208.9576 120.6079
L208.9040 120.4650
" />
<path d="M208.9040 120.4650
L208.7701 120.3936
" />
<path d="M208.7701 120.3936
L208.5558 120.3936
" />
<path d="M208.5558 120.3936
L208.4218 120.3222
" />
<path d="M208.4218 120.3222
L208.3683 120.1793
" />
<path d="M208.3683 120.1793
L208.3772 120.1079
" />
<path d="M208.3772 120.1079
L208.4665 119.9650
" />
<path d="M208.4665 119.9650
L208.6183 119.8936
" />
<path d="M208.6183 119.8936
L208.8326 119.8936
" />
<path d="M208.8326 119.8936
L208.9665 119.9650
" />
<path d="M210.8326 119.3222
L209.3058 121.2507
" />
<path d="M211.1361 120.8936
L211.3236 119.3936
" />
<path d="M211.2522 119.9650
L211.4040 119.8936
" />
<path d="M211.4040 119.8936
L211.6897 119.8936
" />
<path d="M211.6897 119.8936
L211.8236 119.9650
" />
<path d="M211.8236 119.9650
L211.8861 120.0364
" />
<path d="M211.8861 120.0364
L211.9397 120.1793
" />
<path d="M211.9397 120.1793
L211.8861 120.6079
" />
<path d="M211.8861 120.6079
L211.7968 120.7507
" />
<path d="M211.7968 120.7507
L211.7165 120.8222
" />
<path d="M211.7165 120.8222
L211.5647 120.8936
" />
<path d="M211.5647 120.8936
L211.2790 120.8936
" />
<path d="M211.2790 120.8936
L211.1451 120.8222
" />
<path d="M212.7076 120.8936
L212.5736 120.8222
" />
<path d="M212.5736 120.8222
L212.5201 120.6793
" />
<path d="M212.5201 120.6793
L212.6808 119.3936
" />
<path d="M213.4933 120.8936
L213.3593 120.8222
" />
<path d="M213.3593 120.8222
L213.2968 120.7507
" />
<path d="M213.2968 120.7507
L213.2433 120.6079
" />
<path d="M213.2433 120.6079
L213.2968 120.1793
" />
<path d="M213.2968 120.1793
L213.3861 120.0364
" />
<path d="M213.3861 120.0364
L213.4665 119.9650
" />
<path d="M213.4665 119.9650
L213.6183 119.8936
" />
<path d="M213.6183 119.8936
L213.8326 119.8936
" />
<path d="M213.8326 119.8936
L213.9665 119.9650
" />
<path d="M213.9665 119.9650
L214.0290 120.0364
" />
<path d="M214.0290 120.0364
L214.0826 120.1793
" />
<path d="M214.0826 120.1793
L214.0290 120.6079
" />
<path d="M214.0290 120.6079
L213.9397 120.7507
" />
<path d="M213.9397 120.7507
L213.8593 120.8222
" />
<path d="M213.8593 120.8222
L213.7076 120.8936
" />
<path d="M213.7076 120.8936
L213.4933 120.8936
" />
<path d="M214.6361 120.8936
L214.8236 119.3936
" />
<path d="M214.7522 119.9650
L214.9040 119.8936
" />
<path d="M214.9040 119.8936
L215.1897 119.8936
" />
<path d="M215.1897 119.8936
L215.3236 119.9650
" />
<path d="M215.3236 119.9650
L215.3861 120.0364
" />
<path d="M215.3861 120.0364
L215.4397 120.1793
" />
<path d="M215.4397 120.1793
L215.3861 120.6079
" />
<path d="M215.3861 120.6079
L215.2968 120.7507
" />
<path d="M215.2968 120.7507
L215.2165 120.8222
" />
<path d="M215.2165 120.8222
L215.0647 120.8936
" />
<path d="M215.0647 120.8936
L214.7790 120.8936
" />
<path d="M214.7790 120.8936
L214.6451 120.8222
" />
<path d="M217.2611 119.3222
L215.7343 121.2507
" />
<path d="M217.5647 120.8936
L217.6897 119.8936
" />
<path d="M217.6718 120.0364
L217.7522 119.9650
" />
<path d="M217.7522 119.9650
L217.9040 119.8936
" />
<path d="M217.9040 119.8936
L218.1183 119.8936
" />
<path d="M218.1183 119.8936
L218.2522 119.9650
" />
<path d="M218.2522 119.9650
L218.3058 120.1079
" />
<path d="M218.3058 120.1079
L218.2076 120.8936
" />
<path d="M218.3058 120.1079
L218.3951 119.9650
" />
<path d="M218.3951 119.9650
L218.5468 119.8936
" />
<path d="M218.5468 119.8936
L218.7611 119.8936
" />
<path d="M218.7611 119.8936
L218.8951 119.9650
" />
<path d="M218.8951 119.9650
L218.9486 120.1079
" />
<path d="M218.9486 120.1079
L218.8504 120.8936
" />
<path d="M220.2076 120.8936
L220.3058 120.1079
" />
<path d="M220.3058 120.1079
L220.2522 119.9650
" />
<path d="M220.2522 119.9650
L220.1183 119.8936
" />
<path d="M220.1183 119.8936
L219.8326 119.8936
" />
<path d="M219.8326 119.8936
L219.6808 119.9650
" />
<path d="M220.2165 120.8222
L220.0647 120.8936
" />
<path d="M220.0647 120.8936
L219.7076 120.8936
" />
<path d="M219.7076 120.8936
L219.5736 120.8222
" />
<path d="M219.5736 120.8222
L219.5201 120.6793
" />
<path d="M219.5201 120.6793
L219.5379 120.5364
" />
<path d="M219.5379 120.5364
L219.6272 120.3936
" />
<path d="M219.6272 120.3936
L219.7790 120.3222
" />
<path d="M219.7790 120.3222
L220.1361 120.3222
" />
<path d="M220.1361 120.3222
L220.2879 120.2507
" />
<path d="M220.8593 120.8222
L220.9933 120.8936
" />
<path d="M220.9933 120.8936
L221.2790 120.8936
" />
<path d="M221.2790 120.8936
L221.4308 120.8222
" />
<path d="M221.4308 120.8222
L221.5201 120.6793
" />
<path d="M221.5201 120.6793
L221.5290 120.6079
" />
<path d="M221.5290 120.6079
L221.4754 120.4650
" />
<path d="M221.4754 120.4650
L221.3415 120.3936
" />
<path d="M221.3415 120.3936
L221.1272 120.3936
" />
<path d="M221.1272 120.3936
L220.9933 120.3222
" />
<path d="M220.9933 120.3222
L220.9397 120.1793
" />
<path d="M220.9397 120.1793
L220.9486 120.1079
" />
<path d="M220.9486 120.1079
L221.0379 119.9650
" />
<path d="M221.0379 119.9650
L221.1897 119.8936
" />
<path d="M221.1897 119.8936
L221.4040 119.8936
" />
<path d="M221.4040 119.8936
L221.5379 119.9650
" />
<path d="M222.0468 119.8936
L222.6183 119.8936
" />
<path d="M222.3236 119.3936
L222.1629 120.6793
" />
<path d="M222.1629 120.6793
L222.2165 120.8222
" />
<path d="M222.2165 120.8222
L222.3504 120.8936
" />
<path d="M222.3504 120.8936
L222.4933 120.8936
" />
<path d="M223.5736 120.8222
L223.4218 120.8936
" />
<path d="M223.4218 120.8936
L223.1361 120.8936
" />
<path d="M223.1361 120.8936
L223.0022 120.8222
" />
<path d="M223.0022 120.8222
L222.9486 120.6793
" />
<path d="M222.9486 120.6793
L223.0201 120.1079
" />
<path d="M223.0201 120.1079
L223.1093 119.9650
" />
<path d="M223.1093 119.9650
L223.2611 119.8936
" />
<path d="M223.2611 119.8936
L223.5468 119.8936
" />
<path d="M223.5468 119.8936
L223.6808 119.9650
" />
<path d="M223.6808 119.9650
L223.7343 120.1079
" />
<path d="M223.7343 120.1079
L223.7165 120.2507
" />
<path d="M223.7165 120.2507
L222.9843 120.3936
" />
<path d="M224.2790 120.8936
L224.4040 119.8936
" />
<path d="M224.3683 120.1793
L224.4576 120.0364
" />
<path d="M224.4576 120.0364
L224.5379 119.9650
" />
<path d="M224.5379 119.9650
L224.6897 119.8936
" />
<path d="M224.6897 119.8936
L224.8326 119.8936
" />
<path d="M226.4754 119.3222
L224.9486 121.2507
" />
<path d="M226.7790 120.8936
L226.9665 119.3936
" />
<path d="M227.4218 120.8936
L227.5201 120.1079
" />
<path d="M227.5201 120.1079
L227.4665 119.9650
" />
<path d="M227.4665 119.9650
L227.3326 119.8936
" />
<path d="M227.3326 119.8936
L227.1183 119.8936
" />
<path d="M227.1183 119.8936
L226.9665 119.9650
" />
<path d="M226.9665 119.9650
L226.8861 120.0364
" />
<path d="M228.7790 120.8936
L228.8772 120.1079
" />
<path d="M228.8772 120.1079
L228.8236 119.9650
" />
<path d="M228.8236 119.9650
L228.6897 119.8936
" />
<path d="M228.6897 119.8936
L228.4040 119.8936
" />
<path d="M228.4040 119.8936
L228.2522 119.9650
" />
<path d="M228.7879 120.8222
L228.6361 120.8936
" />
<path d="M228.6361 120.8936
L228.2790 120.8936
" />
<path d="M228.2790 120.8936
L228.1451 120.8222
" />
<path d="M228.1451 120.8222
L228.0915 120.6793
" />
<path d="M228.0915 120.6793
L228.1093 120.5364
" />
<path d="M228.1093 120.5364
L228.1986 120.3936
" />
<path d="M228.1986 120.3936
L228.3504 120.3222
" />
<path d="M228.3504 120.3222
L228.7076 120.3222
" />
<path d="M228.7076 120.3222
L228.8593 120.2507
" />
<path d="M229.4040 119.8936
L229.9754 119.8936
" />
<path d="M229.6808 119.3936
L229.5201 120.6793
" />
<path d="M229.5201 120.6793
L229.5736 120.8222
" />
<path d="M229.5736 120.8222
L229.7076 120.8936
" />
<path d="M229.7076 120.8936
L229.8504 120.8936
" />
<path d="M230.4218 120.3222
L231.5647 120.3222
" />
<path d="M232.2076 120.8936
L232.3951 119.3936
" />
<path d="M232.3236 119.9650
L232.4754 119.8936
" />
<path d="M232.4754 119.8936
L232.7611 119.8936
" />
<path d="M232.7611 119.8936
L232.8951 119.9650
" />
<path d="M232.8951 119.9650
L232.9576 120.0364
" />
<path d="M232.9576 120.0364
L233.0111 120.1793
" />
<path d="M233.0111 120.1793
L232.9576 120.6079
" />
<path d="M232.9576 120.6079
L232.8683 120.7507
" />
<path d="M232.8683 120.7507
L232.7879 120.8222
" />
<path d="M232.7879 120.8222
L232.6361 120.8936
" />
<path d="M232.6361 120.8936
L232.3504 120.8936
" />
<path d="M232.3504 120.8936
L232.2165 120.8222
" />
<path d="M233.7790 120.8936
L233.6451 120.8222
" />
<path d="M233.6451 120.8222
L233.5826 120.7507
" />
<path d="M233.5826 120.7507
L233.5290 120.6079
" />
<path d="M233.5290 120.6079
L233.5826 120.1793
" />
<path d="M233.5826 120.1793
L233.6718 120.0364
" />
<path d="M233.6718 120.0364
L233.7522 119.9650
" />
<path d="M233.7522 119.9650
L233.9040 119.8936
" />
<path d="M233.9040 119.8936
L234.1183 119.8936
" />
<path d="M234.1183 119.8936
L234.2522 119.9650
" />
<path d="M234.2522 119.9650
L234.3147 120.0364
" />
<path d="M234.3147 120.0364
L234.3683 120.1793
" />
<path d="M234.3683 120.1793
L234.3147 120.6079
" />
<path d="M234.3147 120.6079
L234.2254 120.7507
" />
<path d="M234.2254 120.7507
L234.1451 120.8222
" />
<path d="M234.1451 120.8222
L233.9933 120.8936
" />
<path d="M233.9933 120.8936
L233.7790 120.8936
" />
<path d="M235.5647 120.8936
L235.6629 120.1079
" />
<path d="M235.6629 120.1079
L235.6093 119.9650
" />
<path d="M235.6093 119.9650
L235.4754 119.8936
" />
<path d="M235.4754 119.8936
L235.1897 119.8936
" />
<path d="M235.1897 119.8936
L235.0379 119.9650
" />
<path d="M235.5736 120.8222
L235.4218 120.8936
" />
<path d="M235.4218 120.8936
L235.0647 120.8936
" />
<path d="M235.0647 120.8936
L234.9308 120.8222
" />
<path d="M234.9308 120.8222
L234.8772 120.6793
" />
<path d="M234.8772 120.6793
L234.8951 120.5364
" />
<path d="M234.8951 120.5364
L234.9843 120.3936
" />
<path d="M234.9843 120.3936
L235.1361 120.3222
" />
<path d="M235.1361 120.3222
L235.4933 120.3222
" />
<path d="M235.4933 120.3222
L235.6451 120.2507
" />
<path d="M236.2790 120.8936
L236.4040 119.8936
" />
<path d="M236.3683 120.1793
L236.4576 120.0364
" />
<path d="M236.4576 120.0364
L236.5379 119.9650
" />
<path d="M236.5379 119.9650
L236.6897 119.8936
" />
<path d="M236.6897 119.8936
L236.8326 119.8936
" />
<path d="M237.8504 120.8936
L238.0379 119.3936
" />
<path d="M237.8593 120.8222
L237.7076 120.8936
" />
<path d="M237.7076 120.8936
L237.4218 120.8936
" />
<path d="M237.4218 120.8936
L237.2879 120.8222
" />
<path d="M237.2879 120.8222
L237.2254 120.7507
" />
<path d="M237.2254 120.7507
L237.1718 120.6079
" />
<path d="M237.1718 120.6079
L237.2254 120.1793
" />
<path d="M237.2254 120.1793
L237.3147 120.0364
" />
<path d="M237.3147 120.0364
L237.3951 119.9650
" />
<path d="M237.3951 119.9650
L237.5468 119.8936
" />
<path d="M237.5468 119.8936
L237.8326 119.8936
" />
<path d="M237.8326 119.8936
L237.9665 119.9650
" />
<path d="M238.6361 120.3222
L239.7790 120.3222
" />
<path d="M240.4218 120.8936
L240.5468 119.8936
" />
<path d="M240.5290 120.0364
L240.6093 119.9650
" />
<path d="M240.6093 119.9650
L240.7611 119.8936
" />
<path d="M240.7611 119.8936
L240.9754 119.8936
" />
<path d="M240.9754 119.8936
L241.1093 119.9650
" />
<path d="M241.1093 119.9650
L241.1629 120.1079
" />
<path d="M241.1629 120.1079
L241.0647 120.8936
" />
<path d="M241.1629 120.1079
L241.2522 119.9650
" />
<path d="M241.2522 119.9650
L241.4040 119.8936
" />
<path d="M241.4040 119.8936
L241.6183 119.8936
" />
<path d="M241.6183 119.8936
L241.7522 119.9650
" />
<path d="M241.7522 119.9650
L241.8058 120.1079
" />
<path d="M241.8058 120.1079
L241.7076 120.8936
" />
<path d="M243.0022 120.8222
L242.8504 120.8936
" />
<path d="M242.8504 120.8936
L242.5647 120.8936
" />
<path d="M242.5647 120.8936
L242.4308 120.8222
" />
<path d="M242.4308 120.8222
L242.3772 120.6793
" />
<path d="M242.3772 120.6793
L242.4486 120.1079
" />
<path d="M242.4486 120.1079
L242.5379 119.9650
" />
<path d="M242.5379 119.9650
L242.6897 119.8936
" />
<path d="M242.6897 119.8936
L242.9754 119.8936
" />
<path d="M242.9754 119.8936
L243.1093 119.9650
" />
<path d="M243.1093 119.9650
L243.1629 120.1079
" />
<path d="M243.1629 120.1079
L243.1451 120.2507
" />
<path d="M243.1451 120.2507
L242.4129 120.3936
" />
<path d="M244.3593 120.8222
L244.2076 120.8936
" />
<path d="M244.2076 120.8936
L243.9218 120.8936
" />
<path d="M243.9218 120.8936
L243.7879 120.8222
" />
<path d="M243.7879 120.8222
L243.7254 120.7507
" />
<path d="M243.7254 120.7507
L243.6718 120.6079
" />
<path d="M243.6718 120.6079
L243.7254 120.1793
" />
<path d="M243.7254 120.1793
L243.8147 120.0364
" />
<path d="M243.8147 120.0364
L243.8951 119.9650
" />
<path d="M243.8951 119.9650
L244.0468 119.8936
" />
<path d="M244.0468 119.8936
L244.3326 119.8936
" />
<path d="M244.3326 119.8936
L244.4665 119.9650
" />
<path d="M244.9933 120.8936
L245.1808 119.3936
" />
<path d="M245.6361 120.8936
L245.7343 120.1079
" />
<path d="M245.7343 120.1079
L245.6808 119.9650
" />
<path d="M245.6808 119.9650
L245.5468 119.8936
" />
<path d="M245.5468 119.8936
L245.3326 119.8936
" />
<path d="M245.3326 119.8936
L245.1808 119.9650
" />
<path d="M245.1808 119.9650
L245.1004 120.0364
" />
<path d="M246.9933 120.8936
L247.0915 120.1079
" />
<path d="M247.0915 120.1079
L247.0379 119.9650
" />
<path d="M247.0379 119.9650
L246.9040 119.8936
" />
<path d="M246.9040 119.8936
L246.6183 119.8936
" />
<path d="M246.6183 119.8936
L246.4665 119.9650
" />
<path d="M247.0022 120.8222
L246.8504 120.8936
" />
<path d="M246.8504 120.8936
L246.4933 120.8936
" />
<path d="M246.4933 120.8936
L246.3593 120.8222
" />
<path d="M246.3593 120.8222
L246.3058 120.6793
" />
<path d="M246.3058 120.6793
L246.3236 120.5364
" />
<path d="M246.3236 120.5364
L246.4129 120.3936
" />
<path d="M246.4129 120.3936
L246.5647 120.3222
" />
<path d="M246.5647 120.3222
L246.9218 120.3222
" />
<path d="M246.9218 120.3222
L247.0736 120.2507
" />
<path d="M247.8326 119.8936
L247.7076 120.8936
" />
<path d="M247.8147 120.0364
L247.8951 119.9650
" />
<path d="M247.8951 119.9650
L248.0468 119.8936
" />
<path d="M248.0468 119.8936
L248.2611 119.8936
" />
<path d="M248.2611 119.8936
L248.3951 119.9650
" />
<path d="M248.3951 119.9650
L248.4486 120.1079
" />
<path d="M248.4486 120.1079
L248.3504 120.8936
" />
<path d="M249.0647 120.8936
L249.1897 119.8936
" />
<path d="M249.2522 119.3936
L249.1718 119.4650
" />
<path d="M249.1718 119.4650
L249.2343 119.5364
" />
<path d="M249.2343 119.5364
L249.3147 119.4650
" />
<path d="M249.3147 119.4650
L249.2522 119.3936
" />
<path d="M249.2522 119.3936
L249.2343 119.5364
" />
<path d="M250.4308 120.8222
L250.2790 120.8936
" />
<path d="M250.2790 120.8936
L249.9933 120.8936
" />
<path d="M249.9933 120.8936
L249.8593 120.8222
" />
<path d="M249.8593 120.8222
L249.7968 120.7507
" />
<path d="M249.7968 120.7507
L249.7433 120.6079
" />
<path d="M249.7433 120.6079
L249.7968 120.1793
" />
<path d="M249.7968 120.1793
L249.8861 120.0364
" />
<path d="M249.8861 120.0364
L249.9665 119.9650
" />
<path d="M249.9665 119.9650
L250.1183 119.8936
" />
<path d="M250.1183 119.8936
L250.4040 119.8936
" />
<path d="M250.4040 119.8936
L250.5379 119.9650
" />
<path d="M251.7076 120.8936
L251.8058 120.1079
" />
<path d="M251.8058 120.1079
L251.7522 119.9650
" />
<path d="M251.7522 119.9650
L251.6183 119.8936
" />
<path d="M251.6183 119.8936
L251.3326 119.8936
" />
<path d="M251.3326 119.8936
L251.1808 119.9650
" />
<path d="M251.7165 120.8222
L251.5647 120.8936
" />
<path d="M251.5647 120.8936
L251.2076 120.8936
" />
<path d="M251.2076 120.8936
L251.0736 120.8222
" />
<path d="M251.0736 120.8222
L251.0201 120.6793
" />
<path d="M251.0201 120.6793
L251.0379 120.5364
" />
<path d="M251.0379 120.5364
L251.1272 120.3936
" />
<path d="M251.1272 120.3936
L251.2790 120.3222
" />
<path d="M251.2790 120.3222
L251.6361 120.3222
" />
<path d="M251.6361 120.3222
L251.7879 120.2507
" />
<path d="M252.6361 120.8936
L252.5022 120.8222
" />
<path d="M252.5022 120.8222
L252.4486 120.6793
" />
<path d="M252.4486 120.6793
L252.6093 119.3936
" />
<path d="M253.2254 120.7507
L253.2879 120.8222
" />
<path d="M253.2879 120.8222
L253.2076 120.8936
" />
<path d="M253.2076 120.8936
L253.1451 120.8222
" />
<path d="M253.1451 120.8222
L253.2254 120.7507
" />
<path d="M253.2254 120.7507
L253.2076 120.8936
" />
<path d="M254.0468 119.8936
L253.8593 121.3936
" />
<path d="M254.0379 119.9650
L254.1897 119.8936
" />
<path d="M254.1897 119.8936
L254.4754 119.8936
" />
<path d="M254.4754 119.8936
L254.6093 119.9650
" />
<path d="M254.6093 119.9650
L254.6718 120.0364
" />
<path d="M254.6718 120.0364
L254.7254 120.1793
" />
<path d="M254.7254 120.1793
L254.6718 120.6079
" />
<path d="M254.6718 120.6079
L254.5826 120.7507
" />
<path d="M254.5826 120.7507
L254.5022 120.8222
" />
<path d="M254.5022 120.8222
L254.3504 120.8936
" />
<path d="M254.3504 120.8936
L254.0647 120.8936
" />
<path d="M254.0647 120.8936
L253.9308 120.8222
" />
<path d="M255.9218 120.8936
L256.1093 119.3936
" />
<path d="M255.9308 120.8222
L255.7790 120.8936
" />
<path d="M255.7790 120.8936
L255.4933 120.8936
" />
<path d="M255.4933 120.8936
L255.3593 120.8222
" />
<path d="M255.3593 120.8222
L255.2968 120.7507
" />
<path d="M255.2968 120.7507
L255.2433 120.6079
" />
<path d="M255.2433 120.6079
L255.2968 120.1793
" />
<path d="M255.2968 120.1793
L255.3861 120.0364
" />
<path d="M255.3861 120.0364
L255.4665 119.9650
" />
<path d="M255.4665 119.9650
L255.6183 119.8936
" />
<path d="M255.6183 119.8936
L255.9040 119.8936
" />
<path d="M255.9040 119.8936
L256.0379 119.9650
" />
<path d="M256.5468 119.8936
L257.1183 119.8936
" />
<path d="M256.6361 120.8936
L256.7968 119.6079
" />
<path d="M256.7968 119.6079
L256.8861 119.4650
" />
<path d="M256.8861 119.4650
L257.0379 119.3936
" />
<path d="M257.0379 119.3936
L257.1808 119.3936
" />
</g></g> 
</svg>
