  0
SECTION
  2
HEADER
  9
$ANGBASE
  50
0.0
  9
$ANGDIR
  70
1
  9
$MEASUREMENT
  70
1
  0
ENDSEC
  0
SECTION
  2
TABLES
  0
TABLE
  2
LTYPE
  70
4
  0
LTYPE
  5
40F
  2
CONTINUOUS
  70
0
  3
Solid line
  72
65
  73
0
  40
0.0
  0
LTYPE
  5
410
  2
DASHDOT
 70
0
  3
Dash Dot ____ _ ____ _
 72
65
 73
4
 40
2.0
 49
1.25
 49
-0.25
 49
0.25
 49
-0.25
  0
LTYPE
  5
411
  2
DASHED
 70
0
  3
Dashed __ __ __ __ __
 72
65
 73
2
 40
0.75
 49
0.5
 49
-0.25
  0
LTYPE
  5
43B
  2
DOTTED
 70
0
  3
Dotted .  .  .  .
 72
65
 73
2
 40
0.2
 49
0.0
 49
-0.2
  0
ENDTAB
  0
TABLE
  2
STYLE
  70
4
  0
STYLE
  2
KICAD
  70
0
  40
0
  41
1
  42
1
  50
0
  71
0
  3
isocp.shx
  0
STYLE
  2
KICADB
  70
0
  40
0
  41
1
  42
1
  50
0
  71
0
  3
isocp.shx
  0
STYLE
  2
KICADI
  70
0
  40
0
  41
1
  42
1
  50
15
  71
0
  3
isocp.shx
  0
STYLE
  2
KICADBI
  70
0
  40
0
  41
1
  42
1
  50
15
  71
0
  3
isocp.shx
  0
ENDTAB
  0
TABLE
  2
LAYER
  70
1
  0
LAYER
  2
BLACK
  70
0
  62
7
  6
CONTINUOUS
  0
ENDTAB
  0
ENDSEC
  0
SECTION
  2
ENTITIES
0
ARC
8
BLACK
10
51.5
20
-105.5
40
3.
50
-180.00000000
51
-90.00000000
0
ARC
8
BLACK
10
110.5
20
-105.5
40
3.
50
-90.00000000
51
-0.00000000
0
ARC
8
BLACK
10
49.5
20
-71.
40
1.
50
-180.00000000
51
-90.00000000
0
ARC
8
BLACK
10
52.5
20
-73.
40
1.
50
0.00000000
51
90.00000000
0
ARC
8
BLACK
10
52.5
20
-88.
40
1.
50
-90.00000000
51
-0.00000000
0
ARC
8
BLACK
10
49.5
20
-90.
40
1.
50
90.00000000
51
180.00000000
0
ARC
8
BLACK
10
51.5
20
-55.5
40
3.
50
90.00000000
51
180.00000000
0
LINE
8
BLACK
6
CONTINUOUS
10
51.5
20
-52.5
11
110.5
21
-52.5
0
ARC
8
BLACK
10
110.5
20
-55.5
40
3.
50
0.00000000
51
90.00000000
0
LINE
8
BLACK
6
CONTINUOUS
10
72.4399999999999977
20
-108.5
11
78.5999999999999943
21
-108.5
0
LINE
8
BLACK
6
CONTINUOUS
10
48.5
20
-55.5
11
48.5
21
-71.
0
LINE
8
BLACK
6
CONTINUOUS
10
53.5
20
-73.
11
53.5
21
-88.
0
LINE
8
BLACK
6
CONTINUOUS
10
49.5
20
-72.
11
52.5
21
-72.
0
LINE
8
BLACK
6
CONTINUOUS
10
48.5
20
-90.
11
48.5
21
-105.5
0
LINE
8
BLACK
6
CONTINUOUS
10
51.5
20
-108.5
11
59.4399999999999977
21
-108.5
0
LINE
8
BLACK
6
CONTINUOUS
10
91.5999999999999943
20
-108.5
11
110.5
21
-108.5
0
LINE
8
BLACK
6
CONTINUOUS
10
113.5
20
-55.5
11
113.5
21
-105.5
0
LINE
8
BLACK
6
CONTINUOUS
10
49.5
20
-89.
11
52.5
21
-89.
0
LINE
8
BLACK
6
CONTINUOUS
10
63.7399999999999949
20
-107.5
11
63.7399999999999949
21
-108.5
0
LINE
8
BLACK
6
CONTINUOUS
10
63.7399999999999949
20
-108.5
11
59.4399999999999977
21
-108.5
0
LINE
8
BLACK
6
CONTINUOUS
10
67.7399999999999949
20
-107.0999999999999943
11
64.1400000000000006
21
-107.0999999999999943
0
LINE
8
BLACK
6
CONTINUOUS
10
68.1400000000000006
20
-107.5
11
68.1400000000000006
21
-108.5
0
LINE
8
BLACK
6
CONTINUOUS
10
68.1400000000000006
20
-108.5
11
72.4399999999999977
21
-108.5
0
ARC
8
BLACK
10
64.1400019999999955
20
-107.500001999999995
40
0.400002000005
50
90.00028648
51
179.99971352
0
ARC
8
BLACK
10
67.7399999999999949
20
-107.5
40
0.4
50
0.00000000
51
90.00000000
0
LINE
8
BLACK
6
CONTINUOUS
10
82.8999999999999915
20
-107.5
11
82.8999999999999915
21
-108.5
0
LINE
8
BLACK
6
CONTINUOUS
10
82.8999999999999915
20
-108.5
11
78.5999999999999943
21
-108.5
0
LINE
8
BLACK
6
CONTINUOUS
10
86.8999999999999915
20
-107.0999999999999943
11
83.2999999999999972
21
-107.0999999999999943
0
LINE
8
BLACK
6
CONTINUOUS
10
87.2999999999999972
20
-107.5
11
87.2999999999999972
21
-108.5
0
LINE
8
BLACK
6
CONTINUOUS
10
87.2999999999999972
20
-108.5
11
91.5999999999999943
21
-108.5
0
ARC
8
BLACK
10
83.3000019999999921
20
-107.500001999999995
40
0.400002000005
50
90.00028648
51
179.99971352
0
ARC
8
BLACK
10
86.8999999999999915
20
-107.5
40
0.4
50
0.00000000
51
90.00000000
  0
ENDSEC
  0
EOF
