G04 #@! TF.GenerationSoftware,KiCad,Pcbnew,8.0.4+1*
G04 #@! TF.CreationDate,2024-10-15T20:13:52+00:00*
G04 #@! TF.ProjectId,stencil,7374656e-6369-46c2-9e6b-696361645f70,0.0.1*
G04 #@! TF.SameCoordinates,Original*
G04 #@! TF.FileFunction,Paste,Top*
G04 #@! TF.FilePolarity,Positive*
%FSLAX46Y46*%
G04 Gerber Fmt 4.6, Leading zero omitted, Abs format (unit mm)*
G04 Created by KiCad (PCBNEW 8.0.4+1) date 2024-10-15 20:13:52*
%MOMM*%
%LPD*%
G01*
G04 APERTURE LIST*
G04 Aperture macros list*
%AMRoundRect*
0 Rectangle with rounded corners*
0 $1 Rounding radius*
0 $2 $3 $4 $5 $6 $7 $8 $9 X,Y pos of 4 corners*
0 Add a 4 corners polygon primitive as box body*
4,1,4,$2,$3,$4,$5,$6,$7,$8,$9,$2,$3,0*
0 Add four circle primitives for the rounded corners*
1,1,$1+$1,$2,$3*
1,1,$1+$1,$4,$5*
1,1,$1+$1,$6,$7*
1,1,$1+$1,$8,$9*
0 Add four rect primitives between the rounded corners*
20,1,$1+$1,$2,$3,$4,$5,0*
20,1,$1+$1,$4,$5,$6,$7,0*
20,1,$1+$1,$6,$7,$8,$9,0*
20,1,$1+$1,$8,$9,$2,$3,0*%
%AMFreePoly0*
4,1,25,0.216970,0.362682,0.238454,0.345370,0.345370,0.238454,0.380221,0.174629,0.383170,0.147196,0.383170,-0.147196,0.362682,-0.216970,0.345370,-0.238454,0.238454,-0.345370,0.174629,-0.380221,0.147196,-0.383170,-0.147196,-0.383170,-0.216970,-0.362682,-0.238454,-0.345370,-0.345370,-0.238454,-0.380221,-0.174629,-0.383170,-0.147196,-0.383170,0.147196,-0.362682,0.216970,-0.345370,0.238454,
-0.238454,0.345370,-0.174629,0.380221,-0.147196,0.383170,0.147196,0.383170,0.216970,0.362682,0.216970,0.362682,$1*%
G04 Aperture macros list end*
%ADD10C,0.500000*%
%ADD11C,1.000000*%
%ADD12C,1.050000*%
%ADD13RoundRect,0.250000X-0.262500X-0.450000X0.262500X-0.450000X0.262500X0.450000X-0.262500X0.450000X0*%
%ADD14RoundRect,0.250000X0.450000X-0.262500X0.450000X0.262500X-0.450000X0.262500X-0.450000X-0.262500X0*%
%ADD15RoundRect,0.250000X-0.475000X0.250000X-0.475000X-0.250000X0.475000X-0.250000X0.475000X0.250000X0*%
%ADD16R,0.850000X0.650000*%
%ADD17RoundRect,0.150000X-0.150000X0.512500X-0.150000X-0.512500X0.150000X-0.512500X0.150000X0.512500X0*%
%ADD18RoundRect,0.250000X-0.450000X0.262500X-0.450000X-0.262500X0.450000X-0.262500X0.450000X0.262500X0*%
%ADD19RoundRect,0.250000X0.475000X-0.250000X0.475000X0.250000X-0.475000X0.250000X-0.475000X-0.250000X0*%
%ADD20RoundRect,0.250000X-0.250000X-0.475000X0.250000X-0.475000X0.250000X0.475000X-0.250000X0.475000X0*%
%ADD21RoundRect,0.243750X-0.456250X0.243750X-0.456250X-0.243750X0.456250X-0.243750X0.456250X0.243750X0*%
%ADD22RoundRect,0.250000X0.262500X0.450000X-0.262500X0.450000X-0.262500X-0.450000X0.262500X-0.450000X0*%
%ADD23RoundRect,0.250000X0.250000X0.475000X-0.250000X0.475000X-0.250000X-0.475000X0.250000X-0.475000X0*%
%ADD24RoundRect,0.243750X-0.243750X-0.456250X0.243750X-0.456250X0.243750X0.456250X-0.243750X0.456250X0*%
%ADD25FreePoly0,90.000000*%
%ADD26RoundRect,0.062500X0.062500X-0.375000X0.062500X0.375000X-0.062500X0.375000X-0.062500X-0.375000X0*%
%ADD27RoundRect,0.062500X0.375000X-0.062500X0.375000X0.062500X-0.375000X0.062500X-0.375000X-0.062500X0*%
%ADD28RoundRect,0.075000X0.662500X0.075000X-0.662500X0.075000X-0.662500X-0.075000X0.662500X-0.075000X0*%
%ADD29RoundRect,0.150000X0.512500X0.150000X-0.512500X0.150000X-0.512500X-0.150000X0.512500X-0.150000X0*%
G04 APERTURE END LIST*
D10*
X-79000000Y16071432D02*
G75*
G02*
X-79500000Y16571432I1J500001D01*
G01*
X-18277780Y115000000D02*
G75*
G02*
X-17777800Y114500000I-20J-500000D01*
G01*
X-79000000Y78214287D02*
G75*
G02*
X-79500000Y78714287I1J500001D01*
G01*
X-79000000Y-21214281D02*
G75*
G02*
X-79500000Y-20714281I1J500001D01*
G01*
D11*
X-21375000Y-55750000D02*
G75*
G02*
X-22375000Y-55750000I-500000J0D01*
G01*
X-22375000Y-55750000D02*
G75*
G02*
X-21375000Y-55750000I500000J0D01*
G01*
D10*
X-66055556Y-59000000D02*
X-55611112Y-59000000D01*
X-79500000Y51857145D02*
G75*
G02*
X-79000000Y52357145I500001J-1D01*
G01*
X144000000Y-9785710D02*
G75*
G02*
X144499990Y-10285710I0J-499990D01*
G01*
X-79500000Y64285716D02*
G75*
G02*
X-79000000Y64785716I500001J-1D01*
G01*
X-29222224Y114500000D02*
G75*
G02*
X-28722224Y115000024I500024J0D01*
G01*
X144500000Y51857145D02*
X144500000Y41428574D01*
X144500000Y14571432D02*
X144500000Y4142861D01*
D11*
X141750000Y28000000D02*
G75*
G02*
X140750000Y28000000I-500000J0D01*
G01*
X140750000Y28000000D02*
G75*
G02*
X141750000Y28000000I500000J0D01*
G01*
D10*
X144500000Y27000003D02*
X144500000Y16571432D01*
D12*
X-75725000Y-55750000D02*
G75*
G02*
X-76775000Y-55750000I-525000J0D01*
G01*
X-76775000Y-55750000D02*
G75*
G02*
X-75725000Y-55750000I525000J0D01*
G01*
D10*
X144000000Y-47071423D02*
G75*
G02*
X144499977Y-47571423I0J-499977D01*
G01*
X144500000Y-35142852D02*
X144500000Y-45571423D01*
X-53611112Y-59000000D02*
X-43166668Y-59000000D01*
X106666660Y-58500000D02*
G75*
G02*
X106166660Y-58999960I-499960J0D01*
G01*
D12*
X141775000Y-55750000D02*
G75*
G02*
X140725000Y-55750000I-525000J0D01*
G01*
X140725000Y-55750000D02*
G75*
G02*
X141775000Y-55750000I525000J0D01*
G01*
D10*
X70833328Y115000000D02*
X81277772Y115000000D01*
X57888884Y114500000D02*
G75*
G02*
X58388884Y115000016I500016J0D01*
G01*
X83277772Y-59000000D02*
X93722216Y-59000000D01*
X-79000000Y53357145D02*
G75*
G02*
X-79500000Y53857145I1J500001D01*
G01*
X-79000000Y65785716D02*
G75*
G02*
X-79500000Y66285716I1J500001D01*
G01*
D11*
X87375000Y-55750000D02*
G75*
G02*
X86375000Y-55750000I-500000J0D01*
G01*
X86375000Y-55750000D02*
G75*
G02*
X87375000Y-55750000I500000J0D01*
G01*
D10*
X-42666668Y-58500000D02*
G75*
G02*
X-43166668Y-59000032I-500032J0D01*
G01*
D11*
X-75750000Y-13875000D02*
G75*
G02*
X-76750000Y-13875000I-500000J0D01*
G01*
X-76750000Y-13875000D02*
G75*
G02*
X-75750000Y-13875000I500000J0D01*
G01*
D10*
X-79500000Y-22714281D02*
X-79500000Y-33142852D01*
D11*
X33000000Y-55750000D02*
G75*
G02*
X32000000Y-55750000I-500000J0D01*
G01*
X32000000Y-55750000D02*
G75*
G02*
X33000000Y-55750000I500000J0D01*
G01*
D10*
X-66055556Y-59000000D02*
G75*
G02*
X-66555556Y-58500000I1J500001D01*
G01*
X144000000Y102071429D02*
G75*
G02*
X144500029Y101571429I0J-500029D01*
G01*
X19555552Y-58500000D02*
G75*
G02*
X19055552Y-58999952I-499952J0D01*
G01*
X-79500000Y-35142852D02*
X-79500000Y-45571423D01*
X-79500000Y-10285710D02*
X-79500000Y-20714281D01*
X-43166668Y115000000D02*
G75*
G02*
X-42666700Y114500000I-32J-500000D01*
G01*
X144500000Y-58000000D02*
G75*
G02*
X143500000Y-59000000I-1000000J0D01*
G01*
X-79500000Y14571432D02*
X-79500000Y4142861D01*
X-66055556Y115000000D02*
X-55611112Y115000000D01*
X21055552Y-59000000D02*
G75*
G02*
X20555600Y-58500000I48J500000D01*
G01*
X133055548Y115000000D02*
X143499992Y115000000D01*
X132555548Y114500000D02*
G75*
G02*
X133055548Y114999952I499952J0D01*
G01*
X33499996Y-59000000D02*
G75*
G02*
X33000000Y-58500000I4J500000D01*
G01*
X-53611112Y-59000000D02*
G75*
G02*
X-54111112Y-58500000I1J500001D01*
G01*
D11*
X141750000Y69875000D02*
G75*
G02*
X140750000Y69875000I-500000J0D01*
G01*
X140750000Y69875000D02*
G75*
G02*
X141750000Y69875000I500000J0D01*
G01*
X-75750000Y69875000D02*
G75*
G02*
X-76750000Y69875000I-500000J0D01*
G01*
X-76750000Y69875000D02*
G75*
G02*
X-75750000Y69875000I500000J0D01*
G01*
D10*
X31999996Y-58500000D02*
G75*
G02*
X31499996Y-58999996I-499996J0D01*
G01*
X-79500000Y-47571423D02*
G75*
G02*
X-79000000Y-47071423I500001J-1D01*
G01*
X45944440Y-59000000D02*
G75*
G02*
X45444400Y-58500000I-40J500000D01*
G01*
X8611108Y-59000000D02*
G75*
G02*
X8111100Y-58500000I-8J500000D01*
G01*
X144500000Y-8285710D02*
G75*
G02*
X144000000Y-8785700I-500000J10D01*
G01*
X144000000Y15071432D02*
G75*
G02*
X144500032Y14571432I0J-500032D01*
G01*
X-79500000Y-10285710D02*
G75*
G02*
X-79000000Y-9785710I500001J-1D01*
G01*
X7111108Y-58500000D02*
G75*
G02*
X6611108Y-59000008I-500008J0D01*
G01*
X144500000Y-20714281D02*
G75*
G02*
X144000000Y-21214300I-500000J-19D01*
G01*
X-79000000Y40928574D02*
G75*
G02*
X-79500000Y41428574I1J500001D01*
G01*
X81277772Y115000000D02*
G75*
G02*
X81777800Y114500000I28J-500000D01*
G01*
X-30722224Y115000000D02*
G75*
G02*
X-30222200Y114500000I24J-500000D01*
G01*
X-3833336Y-59000000D02*
X6611108Y-59000000D01*
X-28722224Y-59000000D02*
X-18277780Y-59000000D01*
X-79500000Y101571429D02*
G75*
G02*
X-79000000Y102071429I500001J-1D01*
G01*
X-79500000Y39428574D02*
X-79500000Y29000003D01*
X58388884Y115000000D02*
X68833328Y115000000D01*
X144500000Y114000000D02*
X144500000Y103571429D01*
X95722216Y-59000000D02*
X106166660Y-59000000D01*
X144500000Y101571429D02*
X144500000Y91142858D01*
X94222216Y-58500000D02*
G75*
G02*
X93722216Y-59000016I-500016J0D01*
G01*
X-66555556Y114500000D02*
G75*
G02*
X-66055556Y115000000I500001J-1D01*
G01*
X82777772Y114500000D02*
G75*
G02*
X83277772Y115000028I500028J0D01*
G01*
X70833328Y-59000000D02*
G75*
G02*
X70333300Y-58500000I-28J500000D01*
G01*
X58388884Y-59000000D02*
G75*
G02*
X57888900Y-58500000I16J500000D01*
G01*
X-28722224Y-59000000D02*
G75*
G02*
X-29222200Y-58500000I24J500000D01*
G01*
X-79000000Y28500003D02*
G75*
G02*
X-79500000Y29000003I1J500001D01*
G01*
X144500000Y103571429D02*
G75*
G02*
X144000000Y103071400I-500000J-29D01*
G01*
X-4333336Y114500000D02*
G75*
G02*
X-3833336Y115000036I500036J0D01*
G01*
X-79500000Y64285716D02*
X-79500000Y53857145D01*
X118611104Y115000000D02*
G75*
G02*
X119111100Y114500000I-4J-500000D01*
G01*
X21055552Y-59000000D02*
X31499996Y-59000000D01*
X-16277780Y115000000D02*
X-5833336Y115000000D01*
X95222216Y114500000D02*
G75*
G02*
X95722216Y114999984I499984J0D01*
G01*
X-16277780Y-59000000D02*
G75*
G02*
X-16777800Y-58500000I-20J500000D01*
G01*
D11*
X33000000Y111750000D02*
G75*
G02*
X32000000Y111750000I-500000J0D01*
G01*
X32000000Y111750000D02*
G75*
G02*
X33000000Y111750000I500000J0D01*
G01*
D10*
X81777772Y-58500000D02*
G75*
G02*
X81277772Y-58999972I-499972J0D01*
G01*
X68833328Y115000000D02*
G75*
G02*
X69333300Y114500000I-28J-500000D01*
G01*
X-79500000Y-22714281D02*
G75*
G02*
X-79000000Y-22214281I500001J-1D01*
G01*
X144500000Y78714287D02*
G75*
G02*
X144000000Y78214300I-500000J13D01*
G01*
X58388884Y-59000000D02*
X68833328Y-59000000D01*
X-41166668Y-59000000D02*
G75*
G02*
X-41666700Y-58500000I-32J500000D01*
G01*
X144500000Y64285716D02*
X144500000Y53857145D01*
X144500000Y2142861D02*
X144500000Y-8285710D01*
X144000000Y-22214281D02*
G75*
G02*
X144500019Y-22714281I0J-500019D01*
G01*
X-5833336Y115000000D02*
G75*
G02*
X-5333300Y114500000I36J-500000D01*
G01*
X144500000Y89142858D02*
X144500000Y78714287D01*
X144000000Y77214287D02*
G75*
G02*
X144499987Y76714287I0J-499987D01*
G01*
X-41166668Y-59000000D02*
X-30722224Y-59000000D01*
X33499996Y115000000D02*
X43944440Y115000000D01*
X44444440Y-58500000D02*
G75*
G02*
X43944440Y-59000040I-500040J0D01*
G01*
X83277772Y-59000000D02*
G75*
G02*
X82777800Y-58500000I28J500000D01*
G01*
X-53611112Y115000000D02*
X-43166668Y115000000D01*
X-79500000Y89142858D02*
X-79500000Y78714287D01*
X8111108Y114500000D02*
G75*
G02*
X8611108Y114999992I499992J0D01*
G01*
X43944440Y115000000D02*
G75*
G02*
X44444400Y114500000I-40J-500000D01*
G01*
X-78500000Y115000000D02*
X-68055556Y115000000D01*
X-79500000Y39428574D02*
G75*
G02*
X-79000000Y39928574I500001J-1D01*
G01*
X-28722224Y115000000D02*
X-18277780Y115000000D01*
X144000000Y-34642852D02*
G75*
G02*
X144500048Y-35142852I0J-500048D01*
G01*
X144500000Y76714287D02*
X144500000Y66285716D01*
X144500000Y-33142852D02*
G75*
G02*
X144000000Y-33642900I-500000J-48D01*
G01*
X-79500000Y76714287D02*
G75*
G02*
X-79000000Y77214287I500001J-1D01*
G01*
X70833328Y-59000000D02*
X81277772Y-59000000D01*
X8611108Y115000000D02*
X19055552Y115000000D01*
X144000000Y39928574D02*
G75*
G02*
X144499974Y39428574I0J-499974D01*
G01*
X-79500000Y-35142852D02*
G75*
G02*
X-79000000Y-34642852I500001J-1D01*
G01*
X-79500000Y2142861D02*
G75*
G02*
X-79000000Y2642861I500001J-1D01*
G01*
X-79500000Y101571429D02*
X-79500000Y91142858D01*
X-79000000Y-33642852D02*
G75*
G02*
X-79500000Y-33142852I1J500001D01*
G01*
X120611104Y115000000D02*
X131055548Y115000000D01*
X83277772Y115000000D02*
X93722216Y115000000D01*
X144500000Y4142861D02*
G75*
G02*
X144000000Y3642900I-500000J39D01*
G01*
X45944440Y-59000000D02*
X56388884Y-59000000D01*
D12*
X-75725000Y111750000D02*
G75*
G02*
X-76775000Y111750000I-525000J0D01*
G01*
X-76775000Y111750000D02*
G75*
G02*
X-75725000Y111750000I525000J0D01*
G01*
X141775000Y111750000D02*
G75*
G02*
X140725000Y111750000I-525000J0D01*
G01*
X140725000Y111750000D02*
G75*
G02*
X141775000Y111750000I525000J0D01*
G01*
D10*
X144000000Y52357145D02*
G75*
G02*
X144500045Y51857145I0J-500045D01*
G01*
X-78500000Y-59000000D02*
X-68055556Y-59000000D01*
X93722216Y115000000D02*
G75*
G02*
X94222200Y114500000I-16J-500000D01*
G01*
X-41666668Y114500000D02*
G75*
G02*
X-41166668Y114999968I499968J0D01*
G01*
X-30222224Y-58500000D02*
G75*
G02*
X-30722224Y-58999976I-499976J0D01*
G01*
X144500000Y-22714281D02*
X144500000Y-33142852D01*
X144000000Y64785716D02*
G75*
G02*
X144500016Y64285716I0J-500016D01*
G01*
X133055548Y-59000000D02*
X143499992Y-59000000D01*
X-16277780Y-59000000D02*
X-5833336Y-59000000D01*
X-79000000Y-46071423D02*
G75*
G02*
X-79500000Y-45571423I1J500001D01*
G01*
X-79500000Y-47571423D02*
X-79500000Y-57999994D01*
X-79500000Y114000000D02*
X-79500000Y103571429D01*
X6611108Y115000000D02*
G75*
G02*
X7111100Y114500000I-8J-500000D01*
G01*
X45944440Y115000000D02*
X56388884Y115000000D01*
X144000000Y2642861D02*
G75*
G02*
X144499961Y2142861I0J-499961D01*
G01*
X-5333336Y-58500000D02*
G75*
G02*
X-5833336Y-58999964I-499964J0D01*
G01*
D11*
X141750000Y-13875000D02*
G75*
G02*
X140750000Y-13875000I-500000J0D01*
G01*
X140750000Y-13875000D02*
G75*
G02*
X141750000Y-13875000I500000J0D01*
G01*
D10*
X-68055556Y115000000D02*
G75*
G02*
X-67555556Y114500000I-1J-500001D01*
G01*
X45444440Y114500000D02*
G75*
G02*
X45944440Y114999960I499960J0D01*
G01*
X-78500000Y-59000000D02*
G75*
G02*
X-79500000Y-58000000I-1J999999D01*
G01*
X108166660Y-59000000D02*
X118611104Y-59000000D01*
X32999996Y114500000D02*
G75*
G02*
X33499996Y115000004I500004J0D01*
G01*
X144500000Y-10285710D02*
X144500000Y-20714281D01*
X31499996Y115000000D02*
G75*
G02*
X32000000Y114500000I4J-500000D01*
G01*
X131555548Y-58500000D02*
G75*
G02*
X131055548Y-59000048I-500048J0D01*
G01*
X144500000Y91142858D02*
G75*
G02*
X144000000Y90642900I-500000J42D01*
G01*
D11*
X-21375000Y111750000D02*
G75*
G02*
X-22375000Y111750000I-500000J0D01*
G01*
X-22375000Y111750000D02*
G75*
G02*
X-21375000Y111750000I500000J0D01*
G01*
D10*
X144500000Y66285716D02*
G75*
G02*
X144000000Y65785700I-500000J-16D01*
G01*
X-79500000Y114000000D02*
G75*
G02*
X-78500000Y115000000I999999J1D01*
G01*
X144500000Y39428574D02*
X144500000Y29000003D01*
X144000000Y89642858D02*
G75*
G02*
X144499958Y89142858I0J-499958D01*
G01*
X56388884Y115000000D02*
G75*
G02*
X56888900Y114500000I16J-500000D01*
G01*
D11*
X-75750000Y28000000D02*
G75*
G02*
X-76750000Y28000000I-500000J0D01*
G01*
X-76750000Y28000000D02*
G75*
G02*
X-75750000Y28000000I500000J0D01*
G01*
D10*
X-79500000Y2142861D02*
X-79500000Y-8285710D01*
X-79500000Y27000003D02*
X-79500000Y16571432D01*
X144500000Y16571432D02*
G75*
G02*
X144000000Y16071400I-500000J-32D01*
G01*
D11*
X87375000Y111750000D02*
G75*
G02*
X86375000Y111750000I-500000J0D01*
G01*
X86375000Y111750000D02*
G75*
G02*
X87375000Y111750000I500000J0D01*
G01*
D10*
X144500000Y53857145D02*
G75*
G02*
X144000000Y53357100I-500000J-45D01*
G01*
X-67555556Y-58500000D02*
G75*
G02*
X-68055556Y-59000000I-500001J1D01*
G01*
X-79500000Y89142858D02*
G75*
G02*
X-79000000Y89642858I500001J-1D01*
G01*
X144500000Y-45571423D02*
G75*
G02*
X144000000Y-46071400I-500000J23D01*
G01*
X-79500000Y14571432D02*
G75*
G02*
X-79000000Y15071432I500001J-1D01*
G01*
X108166660Y115000000D02*
X118611104Y115000000D01*
X120611104Y-59000000D02*
G75*
G02*
X120111100Y-58500000I-4J500000D01*
G01*
X20555552Y114500000D02*
G75*
G02*
X21055552Y115000048I500048J0D01*
G01*
X144500000Y-47571423D02*
X144500000Y-57999994D01*
X56888884Y-58500000D02*
G75*
G02*
X56388884Y-58999984I-499984J0D01*
G01*
X108166660Y-59000000D02*
G75*
G02*
X107666700Y-58500000I40J500000D01*
G01*
X120611104Y-59000000D02*
X131055548Y-59000000D01*
X-3833336Y-59000000D02*
G75*
G02*
X-4333300Y-58500000I36J500000D01*
G01*
X144500000Y29000003D02*
G75*
G02*
X144000000Y28500000I-500000J-3D01*
G01*
X-55611112Y115000000D02*
G75*
G02*
X-55111112Y114500000I-1J-500001D01*
G01*
X-17777780Y-58500000D02*
G75*
G02*
X-18277780Y-59000020I-500020J0D01*
G01*
X119111104Y-58500000D02*
G75*
G02*
X118611104Y-59000004I-500004J0D01*
G01*
X19055552Y115000000D02*
G75*
G02*
X19555600Y114500000I48J-500000D01*
G01*
X-79000000Y90642858D02*
G75*
G02*
X-79500000Y91142858I1J500001D01*
G01*
X120111104Y114500000D02*
G75*
G02*
X120611104Y114999996I499996J0D01*
G01*
X-3833336Y115000000D02*
X6611108Y115000000D01*
X106166660Y115000000D02*
G75*
G02*
X106666700Y114500000I40J-500000D01*
G01*
X-79500000Y76714287D02*
X-79500000Y66285716D01*
X-79000000Y3642861D02*
G75*
G02*
X-79500000Y4142861I1J500001D01*
G01*
X144000000Y27500003D02*
G75*
G02*
X144500003Y27000003I0J-500003D01*
G01*
X133055548Y-59000000D02*
G75*
G02*
X132555500Y-58500000I-48J500000D01*
G01*
X33499996Y-59000000D02*
X43944440Y-59000000D01*
X95722216Y-59000000D02*
G75*
G02*
X95222200Y-58500000I-16J500000D01*
G01*
X-79500000Y27000003D02*
G75*
G02*
X-79000000Y27500003I500001J-1D01*
G01*
X95722216Y115000000D02*
X106166660Y115000000D01*
X-41166668Y115000000D02*
X-30722224Y115000000D01*
X-79000000Y103071429D02*
G75*
G02*
X-79500000Y103571429I1J500001D01*
G01*
X-55111112Y-58500000D02*
G75*
G02*
X-55611112Y-59000000I-500001J1D01*
G01*
X-79000000Y-8785710D02*
G75*
G02*
X-79500000Y-8285710I1J500001D01*
G01*
X8611108Y-59000000D02*
X19055552Y-59000000D01*
X144500000Y41428574D02*
G75*
G02*
X144000000Y40928600I-500000J26D01*
G01*
X-54111112Y114500000D02*
G75*
G02*
X-53611112Y115000000I500001J-1D01*
G01*
X143500000Y115000000D02*
G75*
G02*
X144500000Y114000000I0J-1000000D01*
G01*
X70333328Y114500000D02*
G75*
G02*
X70833328Y114999972I499972J0D01*
G01*
X69333328Y-58500000D02*
G75*
G02*
X68833328Y-59000028I-500028J0D01*
G01*
X131055548Y115000000D02*
G75*
G02*
X131555500Y114500000I-48J-500000D01*
G01*
X-16777780Y114500000D02*
G75*
G02*
X-16277780Y114999980I499980J0D01*
G01*
X21055552Y115000000D02*
X31499996Y115000000D01*
X107666660Y114500000D02*
G75*
G02*
X108166660Y115000040I500040J0D01*
G01*
X-79500000Y51857145D02*
X-79500000Y41428574D01*
D13*
G04 #@! TO.C,R7*
X36812500Y44925000D03*
X38637500Y44925000D03*
G04 #@! TD*
D14*
G04 #@! TO.C,R25*
X35650000Y33707500D03*
X35650000Y35532500D03*
G04 #@! TD*
D15*
G04 #@! TO.C,C21*
X54000000Y11720000D03*
X54000000Y9820000D03*
G04 #@! TD*
D16*
G04 #@! TO.C,X1*
X34025000Y33625000D03*
X34025000Y35275000D03*
X32475000Y35275000D03*
X32475000Y33625000D03*
G04 #@! TD*
D17*
G04 #@! TO.C,U2*
X19850000Y45787500D03*
X18900000Y45787500D03*
X17950000Y45787500D03*
X17950000Y43512500D03*
X19850000Y43512500D03*
G04 #@! TD*
D18*
G04 #@! TO.C,R16*
X54025000Y15107500D03*
X54025000Y13282500D03*
G04 #@! TD*
D15*
G04 #@! TO.C,C3*
X11600000Y17020000D03*
X11600000Y15120000D03*
G04 #@! TD*
D19*
G04 #@! TO.C,C16*
X17800000Y32250000D03*
X17800000Y34150000D03*
G04 #@! TD*
D20*
G04 #@! TO.C,C32*
X32225000Y31960000D03*
X34125000Y31960000D03*
G04 #@! TD*
D13*
G04 #@! TO.C,R5*
X40212500Y46400000D03*
X42037500Y46400000D03*
G04 #@! TD*
G04 #@! TO.C,R10*
X33437500Y44925000D03*
X35262500Y44925000D03*
G04 #@! TD*
D16*
G04 #@! TO.C,X2*
X40250000Y33575000D03*
X40250000Y35225000D03*
X38700000Y35225000D03*
X38700000Y33575000D03*
G04 #@! TD*
D21*
G04 #@! TO.C,D2*
X46010000Y25137500D03*
X46010000Y23262500D03*
G04 #@! TD*
D19*
G04 #@! TO.C,C14*
X22225000Y22400000D03*
X22225000Y24300000D03*
G04 #@! TD*
D20*
G04 #@! TO.C,C28*
X38920000Y15790000D03*
X40820000Y15790000D03*
G04 #@! TD*
G04 #@! TO.C,C11*
X21300000Y30800000D03*
X23200000Y30800000D03*
G04 #@! TD*
D15*
G04 #@! TO.C,C4*
X22975000Y17040000D03*
X22975000Y15140000D03*
G04 #@! TD*
D22*
G04 #@! TO.C,R11*
X24582500Y13440000D03*
X22757500Y13440000D03*
G04 #@! TD*
D15*
G04 #@! TO.C,C7*
X24950000Y17040000D03*
X24950000Y15140000D03*
G04 #@! TD*
D19*
G04 #@! TO.C,C24*
X45975000Y8850000D03*
X45975000Y10750000D03*
G04 #@! TD*
D23*
G04 #@! TO.C,C6*
X19875000Y41475000D03*
X17975000Y41475000D03*
G04 #@! TD*
D14*
G04 #@! TO.C,R19*
X53975000Y17510000D03*
X53975000Y19335000D03*
G04 #@! TD*
D20*
G04 #@! TO.C,C23*
X39970000Y13780000D03*
X41870000Y13780000D03*
G04 #@! TD*
D18*
G04 #@! TO.C,R12*
X22975000Y20382500D03*
X22975000Y18557500D03*
G04 #@! TD*
D20*
G04 #@! TO.C,C9*
X24550000Y26975000D03*
X26450000Y26975000D03*
G04 #@! TD*
D22*
G04 #@! TO.C,R13*
X27952500Y13440000D03*
X26127500Y13440000D03*
G04 #@! TD*
D19*
G04 #@! TO.C,C26*
X53980000Y20857500D03*
X53980000Y22757500D03*
G04 #@! TD*
D13*
G04 #@! TO.C,R1*
X9067500Y30675000D03*
X10892500Y30675000D03*
G04 #@! TD*
D23*
G04 #@! TO.C,C5*
X19850000Y47680000D03*
X17950000Y47680000D03*
G04 #@! TD*
D15*
G04 #@! TO.C,C13*
X22200000Y27800000D03*
X22200000Y25900000D03*
G04 #@! TD*
D14*
G04 #@! TO.C,R15*
X55290000Y45947500D03*
X55290000Y47772500D03*
G04 #@! TD*
D20*
G04 #@! TO.C,C15*
X21300000Y32775000D03*
X23200000Y32775000D03*
G04 #@! TD*
D23*
G04 #@! TO.C,C30*
X51650000Y22025000D03*
X49750000Y22025000D03*
G04 #@! TD*
D19*
G04 #@! TO.C,C25*
X55940000Y20872500D03*
X55940000Y22772500D03*
G04 #@! TD*
D22*
G04 #@! TO.C,R23*
X40387500Y31950000D03*
X38562500Y31950000D03*
G04 #@! TD*
D23*
G04 #@! TO.C,C31*
X47975000Y12540000D03*
X46075000Y12540000D03*
G04 #@! TD*
D24*
G04 #@! TO.C,D1*
X9067500Y28750000D03*
X10942500Y28750000D03*
G04 #@! TD*
D25*
G04 #@! TO.C,U6*
X44883333Y15856333D03*
X45750000Y15856333D03*
X46616667Y15856333D03*
X44883333Y16723000D03*
X45750000Y16723000D03*
X46616667Y16723000D03*
X44883333Y17589667D03*
X45750000Y17589667D03*
X46616667Y17589667D03*
D26*
X44000000Y14285500D03*
X44500000Y14285500D03*
X45000000Y14285500D03*
X45500000Y14285500D03*
X46000000Y14285500D03*
X46500000Y14285500D03*
X47000000Y14285500D03*
X47500000Y14285500D03*
D27*
X48187500Y14973000D03*
X48187500Y15473000D03*
X48187500Y15973000D03*
X48187500Y16473000D03*
X48187500Y16973000D03*
X48187500Y17473000D03*
X48187500Y17973000D03*
X48187500Y18473000D03*
D26*
X47500000Y19160500D03*
X47000000Y19160500D03*
X46500000Y19160500D03*
X46000000Y19160500D03*
X45500000Y19160500D03*
X45000000Y19160500D03*
X44500000Y19160500D03*
X44000000Y19160500D03*
D27*
X43312500Y18473000D03*
X43312500Y17973000D03*
X43312500Y17473000D03*
X43312500Y16973000D03*
X43312500Y16473000D03*
X43312500Y15973000D03*
X43312500Y15473000D03*
X43312500Y14973000D03*
G04 #@! TD*
D17*
G04 #@! TO.C,U5*
X51750000Y26512500D03*
X50800000Y26512500D03*
X49850000Y26512500D03*
X49850000Y24237500D03*
X51750000Y24237500D03*
G04 #@! TD*
D23*
G04 #@! TO.C,C8*
X27350000Y33100000D03*
X25450000Y33100000D03*
G04 #@! TD*
D13*
G04 #@! TO.C,R21*
X34167500Y22780000D03*
X35992500Y22780000D03*
G04 #@! TD*
D18*
G04 #@! TO.C,R8*
X11600000Y20402500D03*
X11600000Y18577500D03*
G04 #@! TD*
G04 #@! TO.C,R14*
X24950000Y20382500D03*
X24950000Y18557500D03*
G04 #@! TD*
D20*
G04 #@! TO.C,C12*
X49775000Y18050000D03*
X51675000Y18050000D03*
G04 #@! TD*
D15*
G04 #@! TO.C,C22*
X56000000Y11720000D03*
X56000000Y9820000D03*
G04 #@! TD*
D19*
G04 #@! TO.C,C27*
X48270000Y8910000D03*
X48270000Y10810000D03*
G04 #@! TD*
D13*
G04 #@! TO.C,R22*
X34167500Y24730000D03*
X35992500Y24730000D03*
G04 #@! TD*
D14*
G04 #@! TO.C,R18*
X55940000Y17510000D03*
X55940000Y19335000D03*
G04 #@! TD*
D20*
G04 #@! TO.C,C29*
X49775000Y20050000D03*
X51675000Y20050000D03*
G04 #@! TD*
D28*
G04 #@! TO.C,U4*
X19462500Y23750000D03*
X19462500Y24250000D03*
X19462500Y24750000D03*
X19462500Y25250000D03*
X19462500Y25750000D03*
X19462500Y26250000D03*
X19462500Y26750000D03*
X19462500Y27250000D03*
X19462500Y27750000D03*
X19462500Y28250000D03*
X19462500Y28750000D03*
X19462500Y29250000D03*
X19462500Y29750000D03*
X19462500Y30250000D03*
X19462500Y30750000D03*
X13737500Y30750000D03*
X13737500Y30250000D03*
X13737500Y29750000D03*
X13737500Y29250000D03*
X13737500Y28750000D03*
X13737500Y28250000D03*
X13737500Y27750000D03*
X13737500Y27250000D03*
X13737500Y26750000D03*
X13737500Y26250000D03*
X13737500Y25750000D03*
X13737500Y25250000D03*
X13737500Y24750000D03*
X13737500Y24250000D03*
X13737500Y23750000D03*
G04 #@! TD*
D17*
G04 #@! TO.C,U3*
X27300000Y31187500D03*
X26350000Y31187500D03*
X25400000Y31187500D03*
X25400000Y28912500D03*
X27300000Y28912500D03*
G04 #@! TD*
D14*
G04 #@! TO.C,R26*
X32750000Y36717500D03*
X32750000Y38542500D03*
G04 #@! TD*
D19*
G04 #@! TO.C,C1*
X34350000Y46675000D03*
X34350000Y48575000D03*
G04 #@! TD*
D18*
G04 #@! TO.C,R3*
X9600000Y20402500D03*
X9600000Y18577500D03*
G04 #@! TD*
D14*
G04 #@! TO.C,R27*
X38950000Y36667500D03*
X38950000Y38492500D03*
G04 #@! TD*
D19*
G04 #@! TO.C,C20*
X44000000Y8850000D03*
X44000000Y10750000D03*
G04 #@! TD*
D18*
G04 #@! TO.C,R17*
X55975000Y15107500D03*
X55975000Y13282500D03*
G04 #@! TD*
D14*
G04 #@! TO.C,R24*
X44060000Y23317500D03*
X44060000Y25142500D03*
G04 #@! TD*
D20*
G04 #@! TO.C,C10*
X49850000Y28500000D03*
X51750000Y28500000D03*
G04 #@! TD*
D22*
G04 #@! TO.C,R20*
X42637500Y20800000D03*
X40812500Y20800000D03*
G04 #@! TD*
D13*
G04 #@! TO.C,R9*
X9957500Y13410000D03*
X11782500Y13410000D03*
G04 #@! TD*
D20*
G04 #@! TO.C,C18*
X25550000Y23000000D03*
X27450000Y23000000D03*
G04 #@! TD*
D13*
G04 #@! TO.C,R6*
X40212500Y48325000D03*
X42037500Y48325000D03*
G04 #@! TD*
D14*
G04 #@! TO.C,R2*
X51920000Y45957500D03*
X51920000Y47782500D03*
G04 #@! TD*
D20*
G04 #@! TO.C,C19*
X24550000Y24975000D03*
X26450000Y24975000D03*
G04 #@! TD*
D15*
G04 #@! TO.C,C2*
X9600000Y17020000D03*
X9600000Y15120000D03*
G04 #@! TD*
D13*
G04 #@! TO.C,R4*
X6587500Y13410000D03*
X8412500Y13410000D03*
G04 #@! TD*
D29*
G04 #@! TO.C,U1*
X38527500Y46630000D03*
X38527500Y47580000D03*
X38527500Y48530000D03*
X36252500Y48530000D03*
X36252500Y46630000D03*
G04 #@! TD*
D19*
G04 #@! TO.C,C17*
X15800000Y32250000D03*
X15800000Y34150000D03*
G04 #@! TD*
M02*
