<?xml version="1.0" standalone="no"?>
 <!DOCTYPE svg PUBLIC "-//W3C//DTD SVG 1.1//EN" 
 "http://www.w3.org/Graphics/SVG/1.1/DTD/svg11.dtd"> 
<svg
  xmlns:svg="http://www.w3.org/2000/svg"
  xmlns="http://www.w3.org/2000/svg"
  xmlns:xlink="http://www.w3.org/1999/xlink"
  version="1.1"
  width="297.0022mm" height="210.0072mm" viewBox="0.0000 0.0000 297.0022 210.0072">
<title>SVG Image created as pedalboard-soundcard-Edge_Cuts.svg date 2023/12/23 19:34:01 </title>
  <desc>Image generated by PCBNEW </desc>
<g style="fill:#000000; fill-opacity:1.0000;stroke:#000000; stroke-opacity:1.0000;
stroke-linecap:round; stroke-linejoin:round;"
 transform="translate(0 0) scale(1 1)">
</g>
<g style="fill:#000000; fill-opacity:0.0; 
stroke:#000000; stroke-width:0.0000; stroke-opacity:1; 
stroke-linecap:round; stroke-linejoin:round;">
</g>
<g style="fill:#000000; fill-opacity:0.0; 
stroke:#000000; stroke-width:0.1000; stroke-opacity:1; 
stroke-linecap:round; stroke-linejoin:round;">
<path d="M245.5022 108.5000 A3.0000 3.0000 0.0 0 0 248.5022 105.5000" />
<path d="M183.5022 105.5000 A3.0000 3.0000 0.0 0 0 186.5022 108.5000" />
<path d="M247.5022 72.0000 A1.0000 1.0000 0.0 0 0 248.5022 71.0000" />
<path d="M244.5022 72.0000 A1.0000 1.0000 0.0 0 0 243.5022 73.0000" />
<path d="M243.5022 88.0000 A1.0000 1.0000 0.0 0 0 244.5022 89.0000" />
<path d="M248.5022 90.0000 A1.0000 1.0000 0.0 0 0 247.5022 89.0000" />
<path d="M248.5022 55.5000 A3.0000 3.0000 0.0 0 0 245.5022 52.5000" />
<path d="M245.5022 52.5000
L186.5022 52.5000
" />
<path d="M186.5022 52.5000 A3.0000 3.0000 0.0 0 0 183.5022 55.5000" />
<path d="M248.5022 55.5000
L248.5022 71.0000
" />
<path d="M243.5022 73.0000
L243.5022 88.0000
" />
<path d="M247.5022 72.0000
L244.5022 72.0000
" />
<path d="M248.5022 90.0000
L248.5022 105.5000
" />
<path d="M245.5022 108.5000
L186.5022 108.5000
" />
<path d="M183.5022 55.5000
L183.5022 105.5000
" />
<path d="M247.5022 89.0000
L244.5022 89.0000
" />
<g >
</g>
<g >
</g>
<g >
</g>
<g >
</g>
<g >
</g>
<g >
</g>
<g >
</g>
<g >
</g>
<g >
</g>
<g >
</g>
<g >
</g>
<g >
</g>
<g >
</g>
<g >
</g>
<g >
</g>
<g >
</g>
<g >
</g>
<g >
</g>
<g >
</g>
<g >
</g>
<g >
</g>
<g >
</g>
<g >
</g>
<g >
</g>
<g >
</g>
<g >
</g>
<g >
</g>
<g >
</g>
<g >
</g>
<g >
</g>
<g >
</g>
<g >
</g>
<g >
</g>
<g >
</g>
<g >
</g>
<g >
</g>
<g >
</g>
<g >
</g>
<g >
</g>
<g >
</g>
<g >
</g>
<g >
</g>
<g >
</g>
<g >
</g>
<g >
</g>
<g >
</g>
<g >
</g>
<g >
</g>
<g >
</g>
<g >
</g>
<g >
</g>
<g >
</g>
<g >
</g>
<g >
</g>
<g >
</g>
<g >
</g>
<g >
</g>
<g >
</g>
<g >
</g>
<g >
</g>
<g >
</g>
<g >
</g>
<g >
</g>
<g >
</g>
<g >
</g>
<g >
</g>
<g >
</g>
<g >
</g>
<g >
</g>
<g >
</g>
<g >
</g>
<g >
</g>
<g >
</g>
<g >
</g>
<g >
</g>
<g >
</g>
<g >
</g>
<g >
</g>
<g >
</g>
</g> 
</svg>
