<?xml version="1.0" standalone="no"?>
 <!DOCTYPE svg PUBLIC "-//W3C//DTD SVG 1.1//EN" 
 "http://www.w3.org/Graphics/SVG/1.1/DTD/svg11.dtd"> 
<svg
  xmlns:svg="http://www.w3.org/2000/svg"
  xmlns="http://www.w3.org/2000/svg"
  xmlns:xlink="http://www.w3.org/1999/xlink"
  version="1.1"
  width="297.0022mm" height="210.0072mm" viewBox="0.0000 0.0000 297.0022 210.0072">
<title>SVG Image created as pedalboard-soundcard-B_Fab.svg date 2024/12/15 20:53:19 </title>
  <desc>Image generated by PCBNEW </desc>
<g style="fill:#000000; fill-opacity:1.0000;stroke:#000000; stroke-opacity:1.0000;
stroke-linecap:round; stroke-linejoin:round;"
 transform="translate(0 0) scale(1 1)">
</g>
<g style="fill:none; 
stroke:#000000; stroke-width:0.1500; stroke-opacity:1; 
stroke-linecap:round; stroke-linejoin:round;">
<g transform="rotate(90.000000 225.8122 92.3100)">
<text x="225.8122" y="92.8100"
textLength="17.1548" font-size="1.3333" lengthAdjust="spacingAndGlyphs"
text-anchor="middle" opacity="0" stroke-opacity="0">Conn_02x03_Odd_Even</text>
</g>
<g class="stroked-text"><desc>Conn_02x03_Odd_Even</desc>
<path d="M225.4526 84.6671
L225.4050 84.6195
" />
<path d="M225.4050 84.6195
L225.3574 84.4767
" />
<path d="M225.3574 84.4767
L225.3574 84.3814
" />
<path d="M225.3574 84.3814
L225.4050 84.2386
" />
<path d="M225.4050 84.2386
L225.5002 84.1433
" />
<path d="M225.5002 84.1433
L225.5955 84.0957
" />
<path d="M225.5955 84.0957
L225.7860 84.0481
" />
<path d="M225.7860 84.0481
L225.9288 84.0481
" />
<path d="M225.9288 84.0481
L226.1193 84.0957
" />
<path d="M226.1193 84.0957
L226.2145 84.1433
" />
<path d="M226.2145 84.1433
L226.3098 84.2386
" />
<path d="M226.3098 84.2386
L226.3574 84.3814
" />
<path d="M226.3574 84.3814
L226.3574 84.4767
" />
<path d="M226.3574 84.4767
L226.3098 84.6195
" />
<path d="M226.3098 84.6195
L226.2621 84.6671
" />
<path d="M225.3574 85.2386
L225.4050 85.1433
" />
<path d="M225.4050 85.1433
L225.4526 85.0957
" />
<path d="M225.4526 85.0957
L225.5479 85.0481
" />
<path d="M225.5479 85.0481
L225.8336 85.0481
" />
<path d="M225.8336 85.0481
L225.9288 85.0957
" />
<path d="M225.9288 85.0957
L225.9764 85.1433
" />
<path d="M225.9764 85.1433
L226.0240 85.2386
" />
<path d="M226.0240 85.2386
L226.0240 85.3814
" />
<path d="M226.0240 85.3814
L225.9764 85.4767
" />
<path d="M225.9764 85.4767
L225.9288 85.5243
" />
<path d="M225.9288 85.5243
L225.8336 85.5719
" />
<path d="M225.8336 85.5719
L225.5479 85.5719
" />
<path d="M225.5479 85.5719
L225.4526 85.5243
" />
<path d="M225.4526 85.5243
L225.4050 85.4767
" />
<path d="M225.4050 85.4767
L225.3574 85.3814
" />
<path d="M225.3574 85.3814
L225.3574 85.2386
" />
<path d="M226.0240 86.0005
L225.3574 86.0005
" />
<path d="M225.9288 86.0005
L225.9764 86.0481
" />
<path d="M225.9764 86.0481
L226.0240 86.1433
" />
<path d="M226.0240 86.1433
L226.0240 86.2862
" />
<path d="M226.0240 86.2862
L225.9764 86.3814
" />
<path d="M225.9764 86.3814
L225.8812 86.4290
" />
<path d="M225.8812 86.4290
L225.3574 86.4290
" />
<path d="M226.0240 86.9052
L225.3574 86.9052
" />
<path d="M225.9288 86.9052
L225.9764 86.9529
" />
<path d="M225.9764 86.9529
L226.0240 87.0481
" />
<path d="M226.0240 87.0481
L226.0240 87.1910
" />
<path d="M226.0240 87.1910
L225.9764 87.2862
" />
<path d="M225.9764 87.2862
L225.8812 87.3338
" />
<path d="M225.8812 87.3338
L225.3574 87.3338
" />
<path d="M225.2621 87.5719
L225.2621 88.3338
" />
<path d="M226.3574 88.7624
L226.3574 88.8576
" />
<path d="M226.3574 88.8576
L226.3098 88.9529
" />
<path d="M226.3098 88.9529
L226.2621 89.0005
" />
<path d="M226.2621 89.0005
L226.1669 89.0481
" />
<path d="M226.1669 89.0481
L225.9764 89.0957
" />
<path d="M225.9764 89.0957
L225.7383 89.0957
" />
<path d="M225.7383 89.0957
L225.5479 89.0481
" />
<path d="M225.5479 89.0481
L225.4526 89.0005
" />
<path d="M225.4526 89.0005
L225.4050 88.9529
" />
<path d="M225.4050 88.9529
L225.3574 88.8576
" />
<path d="M225.3574 88.8576
L225.3574 88.7624
" />
<path d="M225.3574 88.7624
L225.4050 88.6671
" />
<path d="M225.4050 88.6671
L225.4526 88.6195
" />
<path d="M225.4526 88.6195
L225.5479 88.5719
" />
<path d="M225.5479 88.5719
L225.7383 88.5243
" />
<path d="M225.7383 88.5243
L225.9764 88.5243
" />
<path d="M225.9764 88.5243
L226.1669 88.5719
" />
<path d="M226.1669 88.5719
L226.2621 88.6195
" />
<path d="M226.2621 88.6195
L226.3098 88.6671
" />
<path d="M226.3098 88.6671
L226.3574 88.7624
" />
<path d="M226.2621 89.4767
L226.3098 89.5243
" />
<path d="M226.3098 89.5243
L226.3574 89.6195
" />
<path d="M226.3574 89.6195
L226.3574 89.8576
" />
<path d="M226.3574 89.8576
L226.3098 89.9529
" />
<path d="M226.3098 89.9529
L226.2621 90.0005
" />
<path d="M226.2621 90.0005
L226.1669 90.0481
" />
<path d="M226.1669 90.0481
L226.0717 90.0481
" />
<path d="M226.0717 90.0481
L225.9288 90.0005
" />
<path d="M225.9288 90.0005
L225.3574 89.4290
" />
<path d="M225.3574 89.4290
L225.3574 90.0481
" />
<path d="M225.3574 90.3814
L226.0240 90.9052
" />
<path d="M226.0240 90.3814
L225.3574 90.9052
" />
<path d="M226.3574 91.4767
L226.3574 91.5719
" />
<path d="M226.3574 91.5719
L226.3098 91.6671
" />
<path d="M226.3098 91.6671
L226.2621 91.7148
" />
<path d="M226.2621 91.7148
L226.1669 91.7624
" />
<path d="M226.1669 91.7624
L225.9764 91.8100
" />
<path d="M225.9764 91.8100
L225.7383 91.8100
" />
<path d="M225.7383 91.8100
L225.5479 91.7624
" />
<path d="M225.5479 91.7624
L225.4526 91.7148
" />
<path d="M225.4526 91.7148
L225.4050 91.6671
" />
<path d="M225.4050 91.6671
L225.3574 91.5719
" />
<path d="M225.3574 91.5719
L225.3574 91.4767
" />
<path d="M225.3574 91.4767
L225.4050 91.3814
" />
<path d="M225.4050 91.3814
L225.4526 91.3338
" />
<path d="M225.4526 91.3338
L225.5479 91.2862
" />
<path d="M225.5479 91.2862
L225.7383 91.2386
" />
<path d="M225.7383 91.2386
L225.9764 91.2386
" />
<path d="M225.9764 91.2386
L226.1669 91.2862
" />
<path d="M226.1669 91.2862
L226.2621 91.3338
" />
<path d="M226.2621 91.3338
L226.3098 91.3814
" />
<path d="M226.3098 91.3814
L226.3574 91.4767
" />
<path d="M226.3574 92.1433
L226.3574 92.7624
" />
<path d="M226.3574 92.7624
L225.9764 92.4290
" />
<path d="M225.9764 92.4290
L225.9764 92.5719
" />
<path d="M225.9764 92.5719
L225.9288 92.6671
" />
<path d="M225.9288 92.6671
L225.8812 92.7148
" />
<path d="M225.8812 92.7148
L225.7860 92.7624
" />
<path d="M225.7860 92.7624
L225.5479 92.7624
" />
<path d="M225.5479 92.7624
L225.4526 92.7148
" />
<path d="M225.4526 92.7148
L225.4050 92.6671
" />
<path d="M225.4050 92.6671
L225.3574 92.5719
" />
<path d="M225.3574 92.5719
L225.3574 92.2862
" />
<path d="M225.3574 92.2862
L225.4050 92.1910
" />
<path d="M225.4050 92.1910
L225.4526 92.1433
" />
<path d="M225.2621 92.9529
L225.2621 93.7148
" />
<path d="M226.3574 94.1433
L226.3574 94.3338
" />
<path d="M226.3574 94.3338
L226.3098 94.4290
" />
<path d="M226.3098 94.4290
L226.2145 94.5243
" />
<path d="M226.2145 94.5243
L226.0240 94.5719
" />
<path d="M226.0240 94.5719
L225.6907 94.5719
" />
<path d="M225.6907 94.5719
L225.5002 94.5243
" />
<path d="M225.5002 94.5243
L225.4050 94.4290
" />
<path d="M225.4050 94.4290
L225.3574 94.3338
" />
<path d="M225.3574 94.3338
L225.3574 94.1433
" />
<path d="M225.3574 94.1433
L225.4050 94.0481
" />
<path d="M225.4050 94.0481
L225.5002 93.9529
" />
<path d="M225.5002 93.9529
L225.6907 93.9052
" />
<path d="M225.6907 93.9052
L226.0240 93.9052
" />
<path d="M226.0240 93.9052
L226.2145 93.9529
" />
<path d="M226.2145 93.9529
L226.3098 94.0481
" />
<path d="M226.3098 94.0481
L226.3574 94.1433
" />
<path d="M225.3574 95.4290
L226.3574 95.4290
" />
<path d="M225.4050 95.4290
L225.3574 95.3338
" />
<path d="M225.3574 95.3338
L225.3574 95.1433
" />
<path d="M225.3574 95.1433
L225.4050 95.0481
" />
<path d="M225.4050 95.0481
L225.4526 95.0005
" />
<path d="M225.4526 95.0005
L225.5479 94.9529
" />
<path d="M225.5479 94.9529
L225.8336 94.9529
" />
<path d="M225.8336 94.9529
L225.9288 95.0005
" />
<path d="M225.9288 95.0005
L225.9764 95.0481
" />
<path d="M225.9764 95.0481
L226.0240 95.1433
" />
<path d="M226.0240 95.1433
L226.0240 95.3338
" />
<path d="M226.0240 95.3338
L225.9764 95.4290
" />
<path d="M225.3574 96.3338
L226.3574 96.3338
" />
<path d="M225.4050 96.3338
L225.3574 96.2386
" />
<path d="M225.3574 96.2386
L225.3574 96.0481
" />
<path d="M225.3574 96.0481
L225.4050 95.9529
" />
<path d="M225.4050 95.9529
L225.4526 95.9052
" />
<path d="M225.4526 95.9052
L225.5479 95.8576
" />
<path d="M225.5479 95.8576
L225.8336 95.8576
" />
<path d="M225.8336 95.8576
L225.9288 95.9052
" />
<path d="M225.9288 95.9052
L225.9764 95.9529
" />
<path d="M225.9764 95.9529
L226.0240 96.0481
" />
<path d="M226.0240 96.0481
L226.0240 96.2386
" />
<path d="M226.0240 96.2386
L225.9764 96.3338
" />
<path d="M225.2621 96.5719
L225.2621 97.3338
" />
<path d="M225.8812 97.5719
L225.8812 97.9052
" />
<path d="M225.3574 98.0481
L225.3574 97.5719
" />
<path d="M225.3574 97.5719
L226.3574 97.5719
" />
<path d="M226.3574 97.5719
L226.3574 98.0481
" />
<path d="M226.0240 98.3814
L225.3574 98.6195
" />
<path d="M225.3574 98.6195
L226.0240 98.8576
" />
<path d="M225.4050 99.6195
L225.3574 99.5243
" />
<path d="M225.3574 99.5243
L225.3574 99.3338
" />
<path d="M225.3574 99.3338
L225.4050 99.2386
" />
<path d="M225.4050 99.2386
L225.5002 99.1910
" />
<path d="M225.5002 99.1910
L225.8812 99.1910
" />
<path d="M225.8812 99.1910
L225.9764 99.2386
" />
<path d="M225.9764 99.2386
L226.0240 99.3338
" />
<path d="M226.0240 99.3338
L226.0240 99.5243
" />
<path d="M226.0240 99.5243
L225.9764 99.6195
" />
<path d="M225.9764 99.6195
L225.8812 99.6671
" />
<path d="M225.8812 99.6671
L225.7860 99.6671
" />
<path d="M225.7860 99.6671
L225.6907 99.1910
" />
<path d="M226.0240 100.0957
L225.3574 100.0957
" />
<path d="M225.9288 100.0957
L225.9764 100.1433
" />
<path d="M225.9764 100.1433
L226.0240 100.2386
" />
<path d="M226.0240 100.2386
L226.0240 100.3814
" />
<path d="M226.0240 100.3814
L225.9764 100.4767
" />
<path d="M225.9764 100.4767
L225.8812 100.5243
" />
<path d="M225.8812 100.5243
L225.3574 100.5243
" />
</g><text x="231.1222" y="92.8100"
textLength="1.9643" font-size="1.3333" lengthAdjust="spacingAndGlyphs"
text-anchor="middle" opacity="0" stroke-opacity="0">J3</text>
<g class="stroked-text"><desc>J3</desc>
<path d="M230.7889 91.7648
L230.7889 92.4791
" />
<path d="M230.7889 92.4791
L230.7412 92.6220
" />
<path d="M230.7412 92.6220
L230.6460 92.7172
" />
<path d="M230.6460 92.7172
L230.5032 92.7648
" />
<path d="M230.5032 92.7648
L230.4079 92.7648
" />
<path d="M231.1698 91.7648
L231.7889 91.7648
" />
<path d="M231.7889 91.7648
L231.4555 92.1458
" />
<path d="M231.4555 92.1458
L231.5984 92.1458
" />
<path d="M231.5984 92.1458
L231.6936 92.1934
" />
<path d="M231.6936 92.1934
L231.7412 92.2410
" />
<path d="M231.7412 92.2410
L231.7889 92.3362
" />
<path d="M231.7889 92.3362
L231.7889 92.5743
" />
<path d="M231.7889 92.5743
L231.7412 92.6696
" />
<path d="M231.7412 92.6696
L231.6936 92.7172
" />
<path d="M231.6936 92.7172
L231.5984 92.7648
" />
<path d="M231.5984 92.7648
L231.3127 92.7648
" />
<path d="M231.3127 92.7648
L231.2174 92.7172
" />
<path d="M231.2174 92.7172
L231.1698 92.6696
" />
</g><text x="188.0822" y="97.7500"
textLength="17.1548" font-size="1.3333" lengthAdjust="spacingAndGlyphs"
text-anchor="middle" opacity="0" stroke-opacity="0">Conn_02x03_Odd_Even</text>
<g class="stroked-text"><desc>Conn_02x03_Odd_Even</desc>
<path d="M180.4393 97.6096
L180.3917 97.6572
" />
<path d="M180.3917 97.6572
L180.2489 97.7048
" />
<path d="M180.2489 97.7048
L180.1536 97.7048
" />
<path d="M180.1536 97.7048
L180.0108 97.6572
" />
<path d="M180.0108 97.6572
L179.9155 97.5620
" />
<path d="M179.9155 97.5620
L179.8679 97.4667
" />
<path d="M179.8679 97.4667
L179.8203 97.2762
" />
<path d="M179.8203 97.2762
L179.8203 97.1334
" />
<path d="M179.8203 97.1334
L179.8679 96.9429
" />
<path d="M179.8679 96.9429
L179.9155 96.8477
" />
<path d="M179.9155 96.8477
L180.0108 96.7524
" />
<path d="M180.0108 96.7524
L180.1536 96.7048
" />
<path d="M180.1536 96.7048
L180.2489 96.7048
" />
<path d="M180.2489 96.7048
L180.3917 96.7524
" />
<path d="M180.3917 96.7524
L180.4393 96.8001
" />
<path d="M181.0108 97.7048
L180.9155 97.6572
" />
<path d="M180.9155 97.6572
L180.8679 97.6096
" />
<path d="M180.8679 97.6096
L180.8203 97.5143
" />
<path d="M180.8203 97.5143
L180.8203 97.2286
" />
<path d="M180.8203 97.2286
L180.8679 97.1334
" />
<path d="M180.8679 97.1334
L180.9155 97.0858
" />
<path d="M180.9155 97.0858
L181.0108 97.0382
" />
<path d="M181.0108 97.0382
L181.1536 97.0382
" />
<path d="M181.1536 97.0382
L181.2489 97.0858
" />
<path d="M181.2489 97.0858
L181.2965 97.1334
" />
<path d="M181.2965 97.1334
L181.3441 97.2286
" />
<path d="M181.3441 97.2286
L181.3441 97.5143
" />
<path d="M181.3441 97.5143
L181.2965 97.6096
" />
<path d="M181.2965 97.6096
L181.2489 97.6572
" />
<path d="M181.2489 97.6572
L181.1536 97.7048
" />
<path d="M181.1536 97.7048
L181.0108 97.7048
" />
<path d="M181.7727 97.0382
L181.7727 97.7048
" />
<path d="M181.7727 97.1334
L181.8203 97.0858
" />
<path d="M181.8203 97.0858
L181.9155 97.0382
" />
<path d="M181.9155 97.0382
L182.0584 97.0382
" />
<path d="M182.0584 97.0382
L182.1536 97.0858
" />
<path d="M182.1536 97.0858
L182.2012 97.1810
" />
<path d="M182.2012 97.1810
L182.2012 97.7048
" />
<path d="M182.6774 97.0382
L182.6774 97.7048
" />
<path d="M182.6774 97.1334
L182.7251 97.0858
" />
<path d="M182.7251 97.0858
L182.8203 97.0382
" />
<path d="M182.8203 97.0382
L182.9632 97.0382
" />
<path d="M182.9632 97.0382
L183.0584 97.0858
" />
<path d="M183.0584 97.0858
L183.1060 97.1810
" />
<path d="M183.1060 97.1810
L183.1060 97.7048
" />
<path d="M183.3441 97.8001
L184.1060 97.8001
" />
<path d="M184.5346 96.7048
L184.6298 96.7048
" />
<path d="M184.6298 96.7048
L184.7251 96.7524
" />
<path d="M184.7251 96.7524
L184.7727 96.8001
" />
<path d="M184.7727 96.8001
L184.8203 96.8953
" />
<path d="M184.8203 96.8953
L184.8679 97.0858
" />
<path d="M184.8679 97.0858
L184.8679 97.3239
" />
<path d="M184.8679 97.3239
L184.8203 97.5143
" />
<path d="M184.8203 97.5143
L184.7727 97.6096
" />
<path d="M184.7727 97.6096
L184.7251 97.6572
" />
<path d="M184.7251 97.6572
L184.6298 97.7048
" />
<path d="M184.6298 97.7048
L184.5346 97.7048
" />
<path d="M184.5346 97.7048
L184.4393 97.6572
" />
<path d="M184.4393 97.6572
L184.3917 97.6096
" />
<path d="M184.3917 97.6096
L184.3441 97.5143
" />
<path d="M184.3441 97.5143
L184.2965 97.3239
" />
<path d="M184.2965 97.3239
L184.2965 97.0858
" />
<path d="M184.2965 97.0858
L184.3441 96.8953
" />
<path d="M184.3441 96.8953
L184.3917 96.8001
" />
<path d="M184.3917 96.8001
L184.4393 96.7524
" />
<path d="M184.4393 96.7524
L184.5346 96.7048
" />
<path d="M185.2489 96.8001
L185.2965 96.7524
" />
<path d="M185.2965 96.7524
L185.3917 96.7048
" />
<path d="M185.3917 96.7048
L185.6298 96.7048
" />
<path d="M185.6298 96.7048
L185.7251 96.7524
" />
<path d="M185.7251 96.7524
L185.7727 96.8001
" />
<path d="M185.7727 96.8001
L185.8203 96.8953
" />
<path d="M185.8203 96.8953
L185.8203 96.9905
" />
<path d="M185.8203 96.9905
L185.7727 97.1334
" />
<path d="M185.7727 97.1334
L185.2012 97.7048
" />
<path d="M185.2012 97.7048
L185.8203 97.7048
" />
<path d="M186.1536 97.7048
L186.6774 97.0382
" />
<path d="M186.1536 97.0382
L186.6774 97.7048
" />
<path d="M187.2489 96.7048
L187.3441 96.7048
" />
<path d="M187.3441 96.7048
L187.4393 96.7524
" />
<path d="M187.4393 96.7524
L187.4870 96.8001
" />
<path d="M187.4870 96.8001
L187.5346 96.8953
" />
<path d="M187.5346 96.8953
L187.5822 97.0858
" />
<path d="M187.5822 97.0858
L187.5822 97.3239
" />
<path d="M187.5822 97.3239
L187.5346 97.5143
" />
<path d="M187.5346 97.5143
L187.4870 97.6096
" />
<path d="M187.4870 97.6096
L187.4393 97.6572
" />
<path d="M187.4393 97.6572
L187.3441 97.7048
" />
<path d="M187.3441 97.7048
L187.2489 97.7048
" />
<path d="M187.2489 97.7048
L187.1536 97.6572
" />
<path d="M187.1536 97.6572
L187.1060 97.6096
" />
<path d="M187.1060 97.6096
L187.0584 97.5143
" />
<path d="M187.0584 97.5143
L187.0108 97.3239
" />
<path d="M187.0108 97.3239
L187.0108 97.0858
" />
<path d="M187.0108 97.0858
L187.0584 96.8953
" />
<path d="M187.0584 96.8953
L187.1060 96.8001
" />
<path d="M187.1060 96.8001
L187.1536 96.7524
" />
<path d="M187.1536 96.7524
L187.2489 96.7048
" />
<path d="M187.9155 96.7048
L188.5346 96.7048
" />
<path d="M188.5346 96.7048
L188.2012 97.0858
" />
<path d="M188.2012 97.0858
L188.3441 97.0858
" />
<path d="M188.3441 97.0858
L188.4393 97.1334
" />
<path d="M188.4393 97.1334
L188.4870 97.1810
" />
<path d="M188.4870 97.1810
L188.5346 97.2762
" />
<path d="M188.5346 97.2762
L188.5346 97.5143
" />
<path d="M188.5346 97.5143
L188.4870 97.6096
" />
<path d="M188.4870 97.6096
L188.4393 97.6572
" />
<path d="M188.4393 97.6572
L188.3441 97.7048
" />
<path d="M188.3441 97.7048
L188.0584 97.7048
" />
<path d="M188.0584 97.7048
L187.9632 97.6572
" />
<path d="M187.9632 97.6572
L187.9155 97.6096
" />
<path d="M188.7251 97.8001
L189.4870 97.8001
" />
<path d="M189.9155 96.7048
L190.1060 96.7048
" />
<path d="M190.1060 96.7048
L190.2012 96.7524
" />
<path d="M190.2012 96.7524
L190.2965 96.8477
" />
<path d="M190.2965 96.8477
L190.3441 97.0382
" />
<path d="M190.3441 97.0382
L190.3441 97.3715
" />
<path d="M190.3441 97.3715
L190.2965 97.5620
" />
<path d="M190.2965 97.5620
L190.2012 97.6572
" />
<path d="M190.2012 97.6572
L190.1060 97.7048
" />
<path d="M190.1060 97.7048
L189.9155 97.7048
" />
<path d="M189.9155 97.7048
L189.8203 97.6572
" />
<path d="M189.8203 97.6572
L189.7251 97.5620
" />
<path d="M189.7251 97.5620
L189.6774 97.3715
" />
<path d="M189.6774 97.3715
L189.6774 97.0382
" />
<path d="M189.6774 97.0382
L189.7251 96.8477
" />
<path d="M189.7251 96.8477
L189.8203 96.7524
" />
<path d="M189.8203 96.7524
L189.9155 96.7048
" />
<path d="M191.2012 97.7048
L191.2012 96.7048
" />
<path d="M191.2012 97.6572
L191.1060 97.7048
" />
<path d="M191.1060 97.7048
L190.9155 97.7048
" />
<path d="M190.9155 97.7048
L190.8203 97.6572
" />
<path d="M190.8203 97.6572
L190.7727 97.6096
" />
<path d="M190.7727 97.6096
L190.7251 97.5143
" />
<path d="M190.7251 97.5143
L190.7251 97.2286
" />
<path d="M190.7251 97.2286
L190.7727 97.1334
" />
<path d="M190.7727 97.1334
L190.8203 97.0858
" />
<path d="M190.8203 97.0858
L190.9155 97.0382
" />
<path d="M190.9155 97.0382
L191.1060 97.0382
" />
<path d="M191.1060 97.0382
L191.2012 97.0858
" />
<path d="M192.1060 97.7048
L192.1060 96.7048
" />
<path d="M192.1060 97.6572
L192.0108 97.7048
" />
<path d="M192.0108 97.7048
L191.8203 97.7048
" />
<path d="M191.8203 97.7048
L191.7251 97.6572
" />
<path d="M191.7251 97.6572
L191.6774 97.6096
" />
<path d="M191.6774 97.6096
L191.6298 97.5143
" />
<path d="M191.6298 97.5143
L191.6298 97.2286
" />
<path d="M191.6298 97.2286
L191.6774 97.1334
" />
<path d="M191.6774 97.1334
L191.7251 97.0858
" />
<path d="M191.7251 97.0858
L191.8203 97.0382
" />
<path d="M191.8203 97.0382
L192.0108 97.0382
" />
<path d="M192.0108 97.0382
L192.1060 97.0858
" />
<path d="M192.3441 97.8001
L193.1060 97.8001
" />
<path d="M193.3441 97.1810
L193.6774 97.1810
" />
<path d="M193.8203 97.7048
L193.3441 97.7048
" />
<path d="M193.3441 97.7048
L193.3441 96.7048
" />
<path d="M193.3441 96.7048
L193.8203 96.7048
" />
<path d="M194.1536 97.0382
L194.3917 97.7048
" />
<path d="M194.3917 97.7048
L194.6298 97.0382
" />
<path d="M195.3917 97.6572
L195.2965 97.7048
" />
<path d="M195.2965 97.7048
L195.1060 97.7048
" />
<path d="M195.1060 97.7048
L195.0108 97.6572
" />
<path d="M195.0108 97.6572
L194.9632 97.5620
" />
<path d="M194.9632 97.5620
L194.9632 97.1810
" />
<path d="M194.9632 97.1810
L195.0108 97.0858
" />
<path d="M195.0108 97.0858
L195.1060 97.0382
" />
<path d="M195.1060 97.0382
L195.2965 97.0382
" />
<path d="M195.2965 97.0382
L195.3917 97.0858
" />
<path d="M195.3917 97.0858
L195.4393 97.1810
" />
<path d="M195.4393 97.1810
L195.4393 97.2762
" />
<path d="M195.4393 97.2762
L194.9632 97.3715
" />
<path d="M195.8679 97.0382
L195.8679 97.7048
" />
<path d="M195.8679 97.1334
L195.9155 97.0858
" />
<path d="M195.9155 97.0858
L196.0108 97.0382
" />
<path d="M196.0108 97.0382
L196.1536 97.0382
" />
<path d="M196.1536 97.0382
L196.2489 97.0858
" />
<path d="M196.2489 97.0858
L196.2965 97.1810
" />
<path d="M196.2965 97.1810
L196.2965 97.7048
" />
</g><g transform="rotate(90.000000 188.0822 91.9400)">
<text x="188.0822" y="92.4400"
textLength="1.9643" font-size="1.3333" lengthAdjust="spacingAndGlyphs"
text-anchor="middle" opacity="0" stroke-opacity="0">J2</text>
</g>
<g class="stroked-text"><desc>J2</desc>
<path d="M188.6274 91.6067
L187.9131 91.6067
" />
<path d="M187.9131 91.6067
L187.7702 91.5590
" />
<path d="M187.7702 91.5590
L187.6750 91.4638
" />
<path d="M187.6750 91.4638
L187.6274 91.3210
" />
<path d="M187.6274 91.3210
L187.6274 91.2257
" />
<path d="M188.5321 92.0352
L188.5798 92.0829
" />
<path d="M188.5798 92.0829
L188.6274 92.1781
" />
<path d="M188.6274 92.1781
L188.6274 92.4162
" />
<path d="M188.6274 92.4162
L188.5798 92.5114
" />
<path d="M188.5798 92.5114
L188.5321 92.5590
" />
<path d="M188.5321 92.5590
L188.4369 92.6067
" />
<path d="M188.4369 92.6067
L188.3417 92.6067
" />
<path d="M188.3417 92.6067
L188.1988 92.5590
" />
<path d="M188.1988 92.5590
L187.6274 91.9876
" />
<path d="M187.6274 91.9876
L187.6274 92.6067
" />
</g><circle cx="187.0022" cy="56.0000" r="1.3750" /> 
<circle cx="187.0022" cy="56.0000" r="3.1000" /> 
<circle cx="245.0022" cy="56.0000" r="1.3750" /> 
<circle cx="245.0022" cy="56.0000" r="3.1000" /> 
<circle cx="245.0022" cy="105.0000" r="1.3750" /> 
<circle cx="245.0022" cy="105.0000" r="3.1000" /> 
<circle cx="187.0022" cy="105.0000" r="1.3750" /> 
<circle cx="187.0022" cy="105.0000" r="3.1000" /> 
</g>
<g style="fill:none; 
stroke:#000000; stroke-width:0.1000; stroke-opacity:1; 
stroke-linecap:round; stroke-linejoin:round;">
<path d="M234.9322 89.7700
L227.3122 89.7700
" />
<path d="M234.9322 93.8500
L234.9322 89.7700
" />
<path d="M233.9322 94.8500
L234.9322 93.8500
" />
<path d="M227.3122 89.7700
L227.3122 94.8500
" />
<path d="M227.3122 94.8500
L233.9322 94.8500
" />
<path d="M190.6222 89.1300
L189.6222 88.1300
" />
<path d="M190.6222 95.7500
L190.6222 89.1300
" />
<path d="M189.6222 88.1300
L185.5422 88.1300
" />
<path d="M185.5422 88.1300
L185.5422 95.7500
" />
<path d="M185.5422 95.7500
L190.6222 95.7500
" />
</g> 
</svg>
