<?xml version="1.0" standalone="no"?>
 <!DOCTYPE svg PUBLIC "-//W3C//DTD SVG 1.1//EN" 
 "http://www.w3.org/Graphics/SVG/1.1/DTD/svg11.dtd"> 
<svg
  xmlns:svg="http://www.w3.org/2000/svg"
  xmlns="http://www.w3.org/2000/svg"
  xmlns:xlink="http://www.w3.org/1999/xlink"
  version="1.1"
  width="297.0022mm" height="210.0072mm" viewBox="0.0000 0.0000 297.0022 210.0072">
<title>SVG Image created as pedalboard-soundcard-F_Courtyard0.svg date 2025/04/21 13:18:38 </title>
  <desc>Image generated by PCBNEW </desc>
<g style="fill:#000000; fill-opacity:1.0000;stroke:#000000; stroke-opacity:1.0000;
stroke-linecap:round; stroke-linejoin:round;"
 transform="translate(0 0) scale(1 1)">
</g>
<g style="fill:none; 
stroke:#000000; stroke-width:0.1500; stroke-opacity:1; 
stroke-linecap:round; stroke-linejoin:round;">
<circle cx="110.0000" cy="56.0000" r="3.1000" /> 
<circle cx="52.0000" cy="56.0000" r="3.1000" /> 
<circle cx="52.0000" cy="105.0000" r="3.1000" /> 
<circle cx="110.0000" cy="105.0000" r="3.1000" /> 
</g>
<g style="fill:none; 
stroke:#000000; stroke-width:0.0500; stroke-opacity:1; 
stroke-linecap:round; stroke-linejoin:round;">
<path d="M55.1200 52.9700
L106.9200 52.9700
" />
<path d="M55.1200 59.0200
L55.1200 52.9700
" />
<path d="M55.1200 59.0200
L106.9200 59.0200
" />
<path d="M106.9200 59.0200
L106.9200 52.9700
" />
<path d="M102.6500 99.4500
L102.6500 101.9500
" />
<path d="M102.6500 99.4500
L105.9500 99.4500
" />
<path d="M105.9500 101.9500
L102.6500 101.9500
" />
<path d="M105.9500 101.9500
L105.9500 99.4500
" />
<path d="M84.5450 62.6250
L87.9050 62.6250
" />
<path d="M84.5450 64.5250
L84.5450 62.6250
" />
<path d="M87.9050 62.6250
L87.9050 64.5250
" />
<path d="M87.9050 64.5250
L84.5450 64.5250
" />
<path d="M83.2000 72.2000
L85.1000 72.2000
" />
<path d="M83.2000 75.5600
L83.2000 72.2000
" />
<path d="M85.1000 72.2000
L85.1000 75.5600
" />
<path d="M85.1000 75.5600
L83.2000 75.5600
" />
<path d="M101.5200 96.0300
L103.4800 96.0300
" />
<path d="M101.5200 99.4300
L101.5200 96.0300
" />
<path d="M103.4800 96.0300
L103.4800 99.4300
" />
<path d="M103.4800 99.4300
L101.5200 99.4300
" />
<path d="M80.3000 72.5500
L80.3000 75.5500
" />
<path d="M80.3000 75.5500
L83.2000 75.5500
" />
<path d="M83.2000 72.5500
L80.3000 72.5500
" />
<path d="M83.2000 75.5500
L83.2000 72.5500
" />
<circle cx="57.0000" cy="105.0000" r="1.0000" /> 
<path style="fill:none; 
stroke:#000000; stroke-width:0.0500; stroke-opacity:1; 
stroke-linecap:round; stroke-linejoin:round;fill:none"
d="M 69.1000,61.8000
65.7000,61.8000
65.7000,65.9000
69.1000,65.9000
Z" /> 
<path d="M101.5750 92.6250
L103.4750 92.6250
" />
<path d="M101.5750 95.9850
L101.5750 92.6250
" />
<path d="M103.4750 92.6250
L103.4750 95.9850
" />
<path d="M103.4750 95.9850
L101.5750 95.9850
" />
<path d="M59.1200 90.7300
L61.0800 90.7300
" />
<path d="M59.1200 94.1300
L59.1200 90.7300
" />
<path d="M61.0800 90.7300
L61.0800 94.1300
" />
<path d="M61.0800 94.1300
L59.1200 94.1300
" />
<path d="M65.3200 73.6000
L67.2800 73.6000
" />
<path d="M65.3200 77.0000
L65.3200 73.6000
" />
<path d="M67.2800 73.6000
L67.2800 77.0000
" />
<path d="M67.2800 77.0000
L65.3200 77.0000
" />
<path d="M79.9750 75.5600
L83.3750 75.5600
" />
<path d="M79.9750 77.5200
L79.9750 75.5600
" />
<path d="M83.3750 75.5600
L83.3750 77.5200
" />
<path d="M83.3750 77.5200
L79.9750 77.5200
" />
<path d="M87.9450 61.1500
L91.3050 61.1500
" />
<path d="M87.9450 63.0500
L87.9450 61.1500
" />
<path d="M91.3050 61.1500
L91.3050 63.0500
" />
<path d="M91.3050 63.0500
L87.9450 63.0500
" />
<path d="M81.1700 62.6250
L84.5300 62.6250
" />
<path d="M81.1700 64.5250
L81.1700 62.6250
" />
<path d="M84.5300 62.6250
L84.5300 64.5250
" />
<path d="M84.5300 64.5250
L81.1700 64.5250
" />
<path d="M86.5250 72.6000
L86.5250 75.6000
" />
<path d="M86.5250 75.6000
L89.4250 75.6000
" />
<path d="M89.4250 72.6000
L86.5250 72.6000
" />
<path d="M89.4250 75.6000
L89.4250 72.6000
" />
<path d="M93.5600 82.6200
L95.4600 82.6200
" />
<path d="M93.5600 85.9800
L93.5600 82.6200
" />
<path d="M95.4600 82.6200
L95.4600 85.9800
" />
<path d="M95.4600 85.9800
L93.5600 85.9800
" />
<path d="M69.7450 83.4500
L71.7050 83.4500
" />
<path d="M69.7450 86.8500
L69.7450 83.4500
" />
<path d="M71.7050 83.4500
L71.7050 86.8500
" />
<path d="M71.7050 86.8500
L69.7450 86.8500
" />
<path d="M86.6700 91.7300
L90.0700 91.7300
" />
<path d="M86.6700 93.6900
L86.6700 91.7300
" />
<path d="M90.0700 91.7300
L90.0700 93.6900
" />
<path d="M90.0700 93.6900
L86.6700 93.6900
" />
<path d="M69.0500 76.7200
L72.4500 76.7200
" />
<path d="M69.0500 78.6800
L69.0500 76.7200
" />
<path d="M72.4500 76.7200
L72.4500 78.6800
" />
<path d="M72.4500 78.6800
L69.0500 78.6800
" />
<path d="M70.4950 90.7100
L72.4550 90.7100
" />
<path d="M70.4950 94.1100
L70.4950 90.7100
" />
<path d="M72.4550 90.7100
L72.4550 94.1100
" />
<path d="M72.4550 94.1100
L70.4950 94.1100
" />
<path d="M70.4900 94.1100
L73.8500 94.1100
" />
<path d="M70.4900 96.0100
L70.4900 94.1100
" />
<path d="M73.8500 94.1100
L73.8500 96.0100
" />
<path d="M73.8500 96.0100
L70.4900 96.0100
" />
<path d="M72.4700 90.7100
L74.4300 90.7100
" />
<path d="M72.4700 94.1100
L72.4700 90.7100
" />
<path d="M74.4300 90.7100
L74.4300 94.1100
" />
<path d="M74.4300 94.1100
L72.4700 94.1100
" />
<circle cx="52.0000" cy="61.0000" r="1.0000" /> 
<path d="M93.4950 97.0000
L95.4550 97.0000
" />
<path d="M93.4950 100.4000
L93.4950 97.0000
" />
<path d="M95.4550 97.0000
L95.4550 100.4000
" />
<path d="M95.4550 100.4000
L93.4950 100.4000
" />
<circle cx="110.0000" cy="61.0000" r="1.0000" /> 
<path d="M65.7250 66.0450
L69.1250 66.0450
" />
<path d="M65.7250 68.0050
L65.7250 66.0450
" />
<path d="M69.1250 66.0450
L69.1250 68.0050
" />
<path d="M69.1250 68.0050
L65.7250 68.0050
" />
<path d="M101.5250 88.3975
L103.4250 88.3975
" />
<path d="M101.5250 91.7575
L101.5250 88.3975
" />
<path d="M103.4250 88.3975
L103.4250 91.7575
" />
<path d="M103.4250 91.7575
L101.5250 91.7575
" />
<path d="M87.7200 93.7400
L91.1200 93.7400
" />
<path d="M87.7200 95.7000
L87.7200 93.7400
" />
<path d="M91.1200 93.7400
L91.1200 95.7000
" />
<path d="M91.1200 95.7000
L87.7200 95.7000
" />
<path d="M70.5250 87.3500
L72.4250 87.3500
" />
<path d="M70.5250 90.7100
L70.5250 87.3500
" />
<path d="M72.4250 87.3500
L72.4250 90.7100
" />
<path d="M72.4250 90.7100
L70.5250 90.7100
" />
<path d="M72.3000 80.5450
L75.7000 80.5450
" />
<path d="M72.3000 82.5050
L72.3000 80.5450
" />
<path d="M75.7000 80.5450
L75.7000 82.5050
" />
<path d="M75.7000 82.5050
L72.3000 82.5050
" />
<path d="M59.6900 96.0500
L59.6900 108.7500
" />
<path d="M59.6900 108.7500
L62.6900 108.7500
" />
<path d="M62.6900 108.7500
L62.6900 110.5500
" />
<path d="M62.6900 110.5500
L69.1900 110.5500
" />
<path d="M69.1900 108.7500
L72.1900 108.7500
" />
<path d="M69.1900 110.5500
L69.1900 108.7500
" />
<path d="M72.1900 96.0500
L59.6900 96.0500
" />
<path d="M72.1900 108.5000
L72.1900 96.0500
" />
<path d="M72.1900 108.7500
L72.1900 108.5000
" />
<path d="M73.8600 94.1100
L77.2200 94.1100
" />
<path d="M73.8600 96.0100
L73.8600 94.1100
" />
<path d="M77.2200 94.1100
L77.2200 96.0100
" />
<path d="M77.2200 96.0100
L73.8600 96.0100
" />
<path d="M101.5000 84.9925
L103.4600 84.9925
" />
<path d="M101.5000 88.3925
L101.5000 84.9925
" />
<path d="M103.4600 84.9925
L103.4600 88.3925
" />
<path d="M103.4600 88.3925
L101.5000 88.3925
" />
<path d="M56.8000 76.8750
L60.1600 76.8750
" />
<path d="M56.8000 78.7750
L56.8000 76.8750
" />
<path d="M60.1600 76.8750
L60.1600 78.7750
" />
<path d="M60.1600 78.7750
L56.8000 78.7750
" />
<path d="M65.7000 59.8400
L69.1000 59.8400
" />
<path d="M65.7000 61.8000
L65.7000 59.8400
" />
<path d="M69.1000 59.8400
L69.1000 61.8000
" />
<path d="M69.1000 61.8000
L65.7000 61.8000
" />
<path d="M69.7200 79.9500
L71.6800 79.9500
" />
<path d="M69.7200 83.3500
L69.7200 79.9500
" />
<path d="M71.6800 79.9500
L71.6800 83.3500
" />
<path d="M71.6800 83.3500
L69.7200 83.3500
" />
<path d="M102.8400 59.9600
L104.7400 59.9600
" />
<path d="M102.8400 63.3200
L102.8400 59.9600
" />
<path d="M104.7400 59.9600
L104.7400 63.3200
" />
<path d="M104.7400 63.3200
L102.8400 63.3200
" />
<path d="M69.0500 74.7450
L72.4500 74.7450
" />
<path d="M69.0500 76.7050
L69.0500 74.7450
" />
<path d="M72.4500 74.7450
L72.4500 76.7050
" />
<path d="M72.4500 76.7050
L69.0500 76.7050
" />
<path d="M97.5000 85.4950
L100.9000 85.4950
" />
<path d="M97.5000 87.4550
L97.5000 85.4950
" />
<path d="M100.9000 85.4950
L100.9000 87.4550
" />
<path d="M100.9000 87.4550
L97.5000 87.4550
" />
<path d="M103.4600 84.9775
L105.4200 84.9775
" />
<path d="M103.4600 88.3775
L103.4600 84.9775
" />
<path d="M105.4200 84.9775
L105.4200 88.3775
" />
<path d="M105.4200 88.3775
L103.4600 88.3775
" />
<path d="M86.2950 75.6000
L89.6550 75.6000
" />
<path d="M86.2950 77.5000
L86.2950 75.6000
" />
<path d="M89.6550 75.6000
L89.6550 77.5000
" />
<path d="M89.6550 77.5000
L86.2950 77.5000
" />
<path d="M93.8250 94.9800
L97.2250 94.9800
" />
<path d="M93.8250 96.9400
L93.8250 94.9800
" />
<path d="M97.2250 94.9800
L97.2250 96.9400
" />
<path d="M97.2250 96.9400
L93.8250 96.9400
" />
<path d="M56.8250 78.8000
L60.1850 78.8000
" />
<path d="M56.8250 80.7000
L56.8250 78.8000
" />
<path d="M60.1850 78.8000
L60.1850 80.7000
" />
<path d="M60.1850 80.7000
L56.8250 80.7000
" />
<path d="M91.1300 88.6570
L91.1300 94.8970
" />
<path d="M91.1300 94.8970
L97.3700 94.8970
" />
<path d="M97.3700 88.6570
L91.1300 88.6570
" />
<path d="M97.3700 94.8970
L97.3700 88.6570
" />
<path style="fill:none; 
stroke:#000000; stroke-width:0.0500; stroke-opacity:1; 
stroke-linecap:round; stroke-linejoin:round;fill:none"
d="M 101.0000,81.0750
97.6000,81.0750
97.6000,85.1750
101.0000,85.1750
Z" /> 
<path d="M73.2000 74.4200
L76.6000 74.4200
" />
<path d="M73.2000 76.3800
L73.2000 74.4200
" />
<path d="M76.6000 74.4200
L76.6000 76.3800
" />
<path d="M76.6000 76.3800
L73.2000 76.3800
" />
<path d="M81.9000 84.7700
L85.2600 84.7700
" />
<path d="M81.9000 86.6700
L81.9000 84.7700
" />
<path d="M85.2600 84.7700
L85.2600 86.6700
" />
<path d="M85.2600 86.6700
L81.9000 86.6700
" />
<path d="M102.4500 82.4500
L102.4500 84.9500
" />
<path d="M102.4500 82.4500
L105.7500 82.4500
" />
<path d="M105.7500 84.9500
L102.4500 84.9500
" />
<path d="M105.7500 84.9500
L105.7500 82.4500
" />
<path d="M59.1500 87.3300
L61.0500 87.3300
" />
<path d="M59.1500 90.6900
L59.1500 87.3300
" />
<path d="M61.0500 87.3300
L61.0500 90.6900
" />
<path d="M61.0500 90.6900
L59.1500 90.6900
" />
<path d="M72.5000 87.3500
L74.4000 87.3500
" />
<path d="M72.5000 90.7100
L72.5000 87.3500
" />
<path d="M74.4000 87.3500
L74.4000 90.7100
" />
<path d="M74.4000 90.7100
L72.5000 90.7100
" />
<path d="M62.2900 85.4000
L65.6900 85.4000
" />
<path d="M62.2900 87.3600
L62.2900 85.4000
" />
<path d="M65.6900 85.4000
L65.6900 87.3600
" />
<path d="M65.6900 87.3600
L62.2900 87.3600
" />
<path d="M97.5250 89.4700
L100.9250 89.4700
" />
<path d="M97.5250 91.4300
L97.5250 89.4700
" />
<path d="M100.9250 89.4700
L100.9250 91.4300
" />
<path d="M100.9250 91.4300
L97.5250 91.4300
" />
<path d="M103.5200 96.0300
L105.4800 96.0300
" />
<path d="M103.5200 99.4300
L103.5200 96.0300
" />
<path d="M105.4800 96.0300
L105.4800 99.4300
" />
<path d="M105.4800 99.4300
L103.5200 99.4300
" />
<path d="M95.7900 96.9400
L97.7500 96.9400
" />
<path d="M95.7900 100.3400
L95.7900 96.9400
" />
<path d="M97.7500 96.9400
L97.7500 100.3400
" />
<path d="M97.7500 100.3400
L95.7900 100.3400
" />
<path d="M81.9000 82.8200
L85.2600 82.8200
" />
<path d="M81.9000 84.7200
L81.9000 82.8200
" />
<path d="M85.2600 82.8200
L85.2600 84.7200
" />
<path d="M85.2600 84.7200
L81.9000 84.7200
" />
<circle cx="105.0000" cy="105.0000" r="1.0000" /> 
<path d="M103.4900 88.3975
L105.3900 88.3975
" />
<path d="M103.4900 91.7575
L103.4900 88.3975
" />
<path d="M105.3900 88.3975
L105.3900 91.7575
" />
<path d="M105.3900 91.7575
L103.4900 91.7575
" />
<path d="M97.5250 87.4700
L100.9250 87.4700
" />
<path d="M97.5250 89.4300
L97.5250 87.4700
" />
<path d="M100.9250 87.4700
L100.9250 89.4300
" />
<path d="M100.9250 89.4300
L97.5250 89.4300
" />
<path d="M78.8500 96.0500
L78.8500 108.7500
" />
<path d="M78.8500 108.7500
L81.8500 108.7500
" />
<path d="M81.8500 108.7500
L81.8500 110.5500
" />
<path d="M81.8500 110.5500
L88.3500 110.5500
" />
<path d="M88.3500 108.7500
L91.3500 108.7500
" />
<path d="M88.3500 110.5500
L88.3500 108.7500
" />
<path d="M91.3500 96.0500
L78.8500 96.0500
" />
<path d="M91.3500 108.5000
L91.3500 96.0500
" />
<path d="M91.3500 108.7500
L91.3500 108.5000
" />
<path style="fill:none; 
stroke:#000000; stroke-width:0.0500; stroke-opacity:1; 
stroke-linecap:round; stroke-linejoin:round;fill:none"
d="M 68.9500,85.4000
61.2500,85.4000
61.2500,77.1000
68.9500,77.1000
Z" /> 
<path style="fill:none; 
stroke:#000000; stroke-width:0.0500; stroke-opacity:1; 
stroke-linecap:round; stroke-linejoin:round;fill:none"
d="M 76.5500,76.4000
73.1500,76.4000
73.1500,80.5000
76.5500,80.5000
Z" /> 
<path d="M80.3000 69.1900
L82.2000 69.1900
" />
<path d="M80.3000 72.5500
L80.3000 69.1900
" />
<path d="M82.2000 69.1900
L82.2000 72.5500
" />
<path d="M82.2000 72.5500
L80.3000 72.5500
" />
<path d="M81.8700 59.1750
L83.8300 59.1750
" />
<path d="M81.8700 62.5750
L81.8700 59.1750
" />
<path d="M83.8300 59.1750
L83.8300 62.5750
" />
<path d="M83.8300 62.5750
L81.8700 62.5750
" />
<path d="M66.3400 85.4100
L69.7400 85.4100
" />
<path d="M66.3400 87.3700
L66.3400 85.4100
" />
<path d="M69.7400 85.4100
L69.7400 87.3700
" />
<path d="M69.7400 87.3700
L66.3400 87.3700
" />
<path d="M57.1500 87.3300
L59.0500 87.3300
" />
<path d="M57.1500 90.6900
L57.1500 87.3300
" />
<path d="M59.0500 87.3300
L59.0500 90.6900
" />
<path d="M59.0500 90.6900
L57.1500 90.6900
" />
<path d="M86.5000 69.2400
L88.4000 69.2400
" />
<path d="M86.5000 72.6000
L86.5000 69.2400
" />
<path d="M88.4000 69.2400
L88.4000 72.6000
" />
<path d="M88.4000 72.6000
L86.5000 72.6000
" />
<path d="M91.5200 97.0000
L93.4800 97.0000
" />
<path d="M91.5200 100.4000
L91.5200 97.0000
" />
<path d="M93.4800 97.0000
L93.4800 100.4000
" />
<path d="M93.4800 100.4000
L91.5200 100.4000
" />
<path d="M103.5250 92.6250
L105.4250 92.6250
" />
<path d="M103.5250 95.9850
L103.5250 92.6250
" />
<path d="M105.4250 92.6250
L105.4250 95.9850
" />
<path d="M105.4250 95.9850
L103.5250 95.9850
" />
<path d="M91.6100 82.5900
L93.5100 82.5900
" />
<path d="M91.6100 85.9500
L91.6100 82.5900
" />
<path d="M93.5100 82.5900
L93.5100 85.9500
" />
<path d="M93.5100 85.9500
L91.6100 85.9500
" />
<path d="M97.6000 79.0200
L101.0000 79.0200
" />
<path d="M97.6000 80.9800
L97.6000 79.0200
" />
<path d="M101.0000 79.0200
L101.0000 80.9800
" />
<path d="M101.0000 80.9800
L97.6000 80.9800
" />
<path d="M88.5450 86.7500
L91.9050 86.7500
" />
<path d="M88.5450 88.6500
L88.5450 86.7500
" />
<path d="M91.9050 86.7500
L91.9050 88.6500
" />
<path d="M91.9050 88.6500
L88.5450 88.6500
" />
<path d="M57.6900 94.1400
L61.0500 94.1400
" />
<path d="M57.6900 96.0400
L57.6900 94.1400
" />
<path d="M61.0500 94.1400
L61.0500 96.0400
" />
<path d="M61.0500 96.0400
L57.6900 96.0400
" />
<path d="M73.3000 84.5200
L76.7000 84.5200
" />
<path d="M73.3000 86.4800
L73.3000 84.5200
" />
<path d="M76.7000 84.5200
L76.7000 86.4800
" />
<path d="M76.7000 86.4800
L73.3000 86.4800
" />
<path d="M87.9450 59.2250
L91.3050 59.2250
" />
<path d="M87.9450 61.1250
L87.9450 59.2250
" />
<path d="M91.3050 59.2250
L91.3050 61.1250
" />
<path d="M91.3050 61.1250
L87.9450 61.1250
" />
<path d="M99.4700 59.9500
L101.3700 59.9500
" />
<path d="M99.4700 63.3100
L99.4700 59.9500
" />
<path d="M101.3700 59.9500
L101.3700 63.3100
" />
<path d="M101.3700 63.3100
L99.4700 63.3100
" />
<path d="M72.3000 82.5450
L75.7000 82.5450
" />
<path d="M72.3000 84.5050
L72.3000 82.5450
" />
<path d="M75.7000 82.5450
L75.7000 84.5050
" />
<path d="M75.7000 84.5050
L72.3000 84.5050
" />
<path d="M57.1200 90.7300
L59.0800 90.7300
" />
<path d="M57.1200 94.1300
L57.1200 90.7300
" />
<path d="M59.0800 90.7300
L59.0800 94.1300
" />
<path d="M59.0800 94.1300
L57.1200 94.1300
" />
<path d="M54.3200 94.1400
L57.6800 94.1400
" />
<path d="M54.3200 96.0400
L54.3200 94.1400
" />
<path d="M57.6800 94.1400
L57.6800 96.0400
" />
<path d="M57.6800 96.0400
L54.3200 96.0400
" />
<path style="fill:none; 
stroke:#000000; stroke-width:0.0500; stroke-opacity:1; 
stroke-linecap:round; stroke-linejoin:round;fill:none"
d="M 87.9400,62.6200
83.8400,62.6200
83.8400,59.2200
87.9400,59.2200
Z" /> 
<path d="M63.3200 73.6000
L65.2800 73.6000
" />
<path d="M63.3200 77.0000
L63.3200 73.6000
" />
<path d="M65.2800 73.6000
L65.2800 77.0000
" />
<path d="M65.2800 77.0000
L63.3200 77.0000
" />
</g> 
</svg>
