<?xml version="1.0" standalone="no"?>
 <!DOCTYPE svg PUBLIC "-//W3C//DTD SVG 1.1//EN" 
 "http://www.w3.org/Graphics/SVG/1.1/DTD/svg11.dtd"> 
<svg
  xmlns:svg="http://www.w3.org/2000/svg"
  xmlns="http://www.w3.org/2000/svg"
  xmlns:xlink="http://www.w3.org/1999/xlink"
  version="1.1"
  width="297.0022mm" height="210.0072mm" viewBox="0.0000 0.0000 297.0022 210.0072">
<title>SVG Image created as pedalboard-soundcard-User_Drawings.svg date 2023/12/23 19:20:07 </title>
  <desc>Image generated by PCBNEW </desc>
<g style="fill:#000000; fill-opacity:1.0000;stroke:#000000; stroke-opacity:1.0000;
stroke-linecap:round; stroke-linejoin:round;"
 transform="translate(0 0) scale(1 1)">
</g>
<g style="fill:#000000; fill-opacity:0.0; 
stroke:#000000; stroke-width:0.0000; stroke-opacity:1; 
stroke-linecap:round; stroke-linejoin:round;">
</g>
<g style="fill:#000000; fill-opacity:0.0; 
stroke:#000000; stroke-width:0.1500; stroke-opacity:1; 
stroke-linecap:round; stroke-linejoin:round;">
<g transform="rotate(-90.000000 254.1522 98.7500)">
<text x="254.1522" y="99.5000"
textLength="14.5786" font-size="2.0000" lengthAdjust="spacingAndGlyphs"
text-anchor="middle" opacity="0">19.5000 mm</text>
</g>
<g class="stroked-text"><desc>19.5000 mm</desc>
<path d="M253.4661 104.8214
L253.4661 105.6786
" />
<path d="M253.4661 105.2500
L254.9661 105.2500
" />
<path d="M254.9661 105.2500
L254.7518 105.3929
" />
<path d="M254.7518 105.3929
L254.6089 105.5357
" />
<path d="M254.6089 105.5357
L254.5375 105.6786
" />
<path d="M253.4661 104.1071
L253.4661 103.8214
" />
<path d="M253.4661 103.8214
L253.5375 103.6786
" />
<path d="M253.5375 103.6786
L253.6089 103.6071
" />
<path d="M253.6089 103.6071
L253.8232 103.4643
" />
<path d="M253.8232 103.4643
L254.1089 103.3929
" />
<path d="M254.1089 103.3929
L254.6804 103.3929
" />
<path d="M254.6804 103.3929
L254.8232 103.4643
" />
<path d="M254.8232 103.4643
L254.8946 103.5357
" />
<path d="M254.8946 103.5357
L254.9661 103.6786
" />
<path d="M254.9661 103.6786
L254.9661 103.9643
" />
<path d="M254.9661 103.9643
L254.8946 104.1071
" />
<path d="M254.8946 104.1071
L254.8232 104.1786
" />
<path d="M254.8232 104.1786
L254.6804 104.2500
" />
<path d="M254.6804 104.2500
L254.3232 104.2500
" />
<path d="M254.3232 104.2500
L254.1804 104.1786
" />
<path d="M254.1804 104.1786
L254.1089 104.1071
" />
<path d="M254.1089 104.1071
L254.0375 103.9643
" />
<path d="M254.0375 103.9643
L254.0375 103.6786
" />
<path d="M254.0375 103.6786
L254.1089 103.5357
" />
<path d="M254.1089 103.5357
L254.1804 103.4643
" />
<path d="M254.1804 103.4643
L254.3232 103.3929
" />
<path d="M253.6089 102.7500
L253.5375 102.6786
" />
<path d="M253.5375 102.6786
L253.4661 102.7500
" />
<path d="M253.4661 102.7500
L253.5375 102.8214
" />
<path d="M253.5375 102.8214
L253.6089 102.7500
" />
<path d="M253.6089 102.7500
L253.4661 102.7500
" />
<path d="M254.9661 101.3214
L254.9661 102.0357
" />
<path d="M254.9661 102.0357
L254.2518 102.1071
" />
<path d="M254.2518 102.1071
L254.3232 102.0357
" />
<path d="M254.3232 102.0357
L254.3946 101.8929
" />
<path d="M254.3946 101.8929
L254.3946 101.5357
" />
<path d="M254.3946 101.5357
L254.3232 101.3929
" />
<path d="M254.3232 101.3929
L254.2518 101.3214
" />
<path d="M254.2518 101.3214
L254.1089 101.2500
" />
<path d="M254.1089 101.2500
L253.7518 101.2500
" />
<path d="M253.7518 101.2500
L253.6089 101.3214
" />
<path d="M253.6089 101.3214
L253.5375 101.3929
" />
<path d="M253.5375 101.3929
L253.4661 101.5357
" />
<path d="M253.4661 101.5357
L253.4661 101.8929
" />
<path d="M253.4661 101.8929
L253.5375 102.0357
" />
<path d="M253.5375 102.0357
L253.6089 102.1071
" />
<path d="M254.9661 100.3214
L254.9661 100.1786
" />
<path d="M254.9661 100.1786
L254.8946 100.0357
" />
<path d="M254.8946 100.0357
L254.8232 99.9643
" />
<path d="M254.8232 99.9643
L254.6804 99.8929
" />
<path d="M254.6804 99.8929
L254.3946 99.8214
" />
<path d="M254.3946 99.8214
L254.0375 99.8214
" />
<path d="M254.0375 99.8214
L253.7518 99.8929
" />
<path d="M253.7518 99.8929
L253.6089 99.9643
" />
<path d="M253.6089 99.9643
L253.5375 100.0357
" />
<path d="M253.5375 100.0357
L253.4661 100.1786
" />
<path d="M253.4661 100.1786
L253.4661 100.3214
" />
<path d="M253.4661 100.3214
L253.5375 100.4643
" />
<path d="M253.5375 100.4643
L253.6089 100.5357
" />
<path d="M253.6089 100.5357
L253.7518 100.6071
" />
<path d="M253.7518 100.6071
L254.0375 100.6786
" />
<path d="M254.0375 100.6786
L254.3946 100.6786
" />
<path d="M254.3946 100.6786
L254.6804 100.6071
" />
<path d="M254.6804 100.6071
L254.8232 100.5357
" />
<path d="M254.8232 100.5357
L254.8946 100.4643
" />
<path d="M254.8946 100.4643
L254.9661 100.3214
" />
<path d="M254.9661 98.8929
L254.9661 98.7500
" />
<path d="M254.9661 98.7500
L254.8946 98.6071
" />
<path d="M254.8946 98.6071
L254.8232 98.5357
" />
<path d="M254.8232 98.5357
L254.6804 98.4643
" />
<path d="M254.6804 98.4643
L254.3946 98.3929
" />
<path d="M254.3946 98.3929
L254.0375 98.3929
" />
<path d="M254.0375 98.3929
L253.7518 98.4643
" />
<path d="M253.7518 98.4643
L253.6089 98.5357
" />
<path d="M253.6089 98.5357
L253.5375 98.6071
" />
<path d="M253.5375 98.6071
L253.4661 98.7500
" />
<path d="M253.4661 98.7500
L253.4661 98.8929
" />
<path d="M253.4661 98.8929
L253.5375 99.0357
" />
<path d="M253.5375 99.0357
L253.6089 99.1071
" />
<path d="M253.6089 99.1071
L253.7518 99.1786
" />
<path d="M253.7518 99.1786
L254.0375 99.2500
" />
<path d="M254.0375 99.2500
L254.3946 99.2500
" />
<path d="M254.3946 99.2500
L254.6804 99.1786
" />
<path d="M254.6804 99.1786
L254.8232 99.1071
" />
<path d="M254.8232 99.1071
L254.8946 99.0357
" />
<path d="M254.8946 99.0357
L254.9661 98.8929
" />
<path d="M254.9661 97.4643
L254.9661 97.3214
" />
<path d="M254.9661 97.3214
L254.8946 97.1786
" />
<path d="M254.8946 97.1786
L254.8232 97.1071
" />
<path d="M254.8232 97.1071
L254.6804 97.0357
" />
<path d="M254.6804 97.0357
L254.3946 96.9643
" />
<path d="M254.3946 96.9643
L254.0375 96.9643
" />
<path d="M254.0375 96.9643
L253.7518 97.0357
" />
<path d="M253.7518 97.0357
L253.6089 97.1071
" />
<path d="M253.6089 97.1071
L253.5375 97.1786
" />
<path d="M253.5375 97.1786
L253.4661 97.3214
" />
<path d="M253.4661 97.3214
L253.4661 97.4643
" />
<path d="M253.4661 97.4643
L253.5375 97.6071
" />
<path d="M253.5375 97.6071
L253.6089 97.6786
" />
<path d="M253.6089 97.6786
L253.7518 97.7500
" />
<path d="M253.7518 97.7500
L254.0375 97.8214
" />
<path d="M254.0375 97.8214
L254.3946 97.8214
" />
<path d="M254.3946 97.8214
L254.6804 97.7500
" />
<path d="M254.6804 97.7500
L254.8232 97.6786
" />
<path d="M254.8232 97.6786
L254.8946 97.6071
" />
<path d="M254.8946 97.6071
L254.9661 97.4643
" />
<path d="M253.4661 95.1786
L254.4661 95.1786
" />
<path d="M254.3232 95.1786
L254.3946 95.1071
" />
<path d="M254.3946 95.1071
L254.4661 94.9643
" />
<path d="M254.4661 94.9643
L254.4661 94.7500
" />
<path d="M254.4661 94.7500
L254.3946 94.6071
" />
<path d="M254.3946 94.6071
L254.2518 94.5357
" />
<path d="M254.2518 94.5357
L253.4661 94.5357
" />
<path d="M254.2518 94.5357
L254.3946 94.4643
" />
<path d="M254.3946 94.4643
L254.4661 94.3214
" />
<path d="M254.4661 94.3214
L254.4661 94.1071
" />
<path d="M254.4661 94.1071
L254.3946 93.9643
" />
<path d="M254.3946 93.9643
L254.2518 93.8929
" />
<path d="M254.2518 93.8929
L253.4661 93.8929
" />
<path d="M253.4661 93.1786
L254.4661 93.1786
" />
<path d="M254.3232 93.1786
L254.3946 93.1071
" />
<path d="M254.3946 93.1071
L254.4661 92.9643
" />
<path d="M254.4661 92.9643
L254.4661 92.7500
" />
<path d="M254.4661 92.7500
L254.3946 92.6071
" />
<path d="M254.3946 92.6071
L254.2518 92.5357
" />
<path d="M254.2518 92.5357
L253.4661 92.5357
" />
<path d="M254.2518 92.5357
L254.3946 92.4643
" />
<path d="M254.3946 92.4643
L254.4661 92.3214
" />
<path d="M254.4661 92.3214
L254.4661 92.1071
" />
<path d="M254.4661 92.1071
L254.3946 91.9643
" />
<path d="M254.3946 91.9643
L254.2518 91.8929
" />
<path d="M254.2518 91.8929
L253.4661 91.8929
" />
</g><path d="M249.5022 108.5000
L253.0886 108.5000
" />
<path d="M249.5022 89.0000
L253.0886 89.0000
" />
<path d="M252.5022 108.5000
L252.5022 89.0000
" />
<path d="M252.5022 108.5000
L252.5022 89.0000
" />
<path d="M252.5022 108.5000
L253.0886 107.3735
" />
<path d="M252.5022 108.5000
L251.9158 107.3735
" />
<path d="M252.5022 89.0000
L251.9158 90.1265
" />
<path d="M252.5022 89.0000
L253.0886 90.1265
" />
<g transform="rotate(-90.000000 240.1522 106.7500)">
<text x="240.1522" y="107.5000"
textLength="13.1500" font-size="2.0000" lengthAdjust="spacingAndGlyphs"
text-anchor="middle" opacity="0">3.5000 mm</text>
</g>
<g class="stroked-text"><desc>3.5000 mm</desc>
<path d="M240.9661 113.0357
L240.9661 112.1071
" />
<path d="M240.9661 112.1071
L240.3946 112.6071
" />
<path d="M240.3946 112.6071
L240.3946 112.3929
" />
<path d="M240.3946 112.3929
L240.3232 112.2500
" />
<path d="M240.3232 112.2500
L240.2518 112.1786
" />
<path d="M240.2518 112.1786
L240.1089 112.1071
" />
<path d="M240.1089 112.1071
L239.7518 112.1071
" />
<path d="M239.7518 112.1071
L239.6089 112.1786
" />
<path d="M239.6089 112.1786
L239.5375 112.2500
" />
<path d="M239.5375 112.2500
L239.4661 112.3929
" />
<path d="M239.4661 112.3929
L239.4661 112.8214
" />
<path d="M239.4661 112.8214
L239.5375 112.9643
" />
<path d="M239.5375 112.9643
L239.6089 113.0357
" />
<path d="M239.6089 111.4643
L239.5375 111.3929
" />
<path d="M239.5375 111.3929
L239.4661 111.4643
" />
<path d="M239.4661 111.4643
L239.5375 111.5357
" />
<path d="M239.5375 111.5357
L239.6089 111.4643
" />
<path d="M239.6089 111.4643
L239.4661 111.4643
" />
<path d="M240.9661 110.0357
L240.9661 110.7500
" />
<path d="M240.9661 110.7500
L240.2518 110.8214
" />
<path d="M240.2518 110.8214
L240.3232 110.7500
" />
<path d="M240.3232 110.7500
L240.3946 110.6071
" />
<path d="M240.3946 110.6071
L240.3946 110.2500
" />
<path d="M240.3946 110.2500
L240.3232 110.1071
" />
<path d="M240.3232 110.1071
L240.2518 110.0357
" />
<path d="M240.2518 110.0357
L240.1089 109.9643
" />
<path d="M240.1089 109.9643
L239.7518 109.9643
" />
<path d="M239.7518 109.9643
L239.6089 110.0357
" />
<path d="M239.6089 110.0357
L239.5375 110.1071
" />
<path d="M239.5375 110.1071
L239.4661 110.2500
" />
<path d="M239.4661 110.2500
L239.4661 110.6071
" />
<path d="M239.4661 110.6071
L239.5375 110.7500
" />
<path d="M239.5375 110.7500
L239.6089 110.8214
" />
<path d="M240.9661 109.0357
L240.9661 108.8929
" />
<path d="M240.9661 108.8929
L240.8946 108.7500
" />
<path d="M240.8946 108.7500
L240.8232 108.6786
" />
<path d="M240.8232 108.6786
L240.6804 108.6071
" />
<path d="M240.6804 108.6071
L240.3946 108.5357
" />
<path d="M240.3946 108.5357
L240.0375 108.5357
" />
<path d="M240.0375 108.5357
L239.7518 108.6071
" />
<path d="M239.7518 108.6071
L239.6089 108.6786
" />
<path d="M239.6089 108.6786
L239.5375 108.7500
" />
<path d="M239.5375 108.7500
L239.4661 108.8929
" />
<path d="M239.4661 108.8929
L239.4661 109.0357
" />
<path d="M239.4661 109.0357
L239.5375 109.1786
" />
<path d="M239.5375 109.1786
L239.6089 109.2500
" />
<path d="M239.6089 109.2500
L239.7518 109.3214
" />
<path d="M239.7518 109.3214
L240.0375 109.3929
" />
<path d="M240.0375 109.3929
L240.3946 109.3929
" />
<path d="M240.3946 109.3929
L240.6804 109.3214
" />
<path d="M240.6804 109.3214
L240.8232 109.2500
" />
<path d="M240.8232 109.2500
L240.8946 109.1786
" />
<path d="M240.8946 109.1786
L240.9661 109.0357
" />
<path d="M240.9661 107.6071
L240.9661 107.4643
" />
<path d="M240.9661 107.4643
L240.8946 107.3214
" />
<path d="M240.8946 107.3214
L240.8232 107.2500
" />
<path d="M240.8232 107.2500
L240.6804 107.1786
" />
<path d="M240.6804 107.1786
L240.3946 107.1071
" />
<path d="M240.3946 107.1071
L240.0375 107.1071
" />
<path d="M240.0375 107.1071
L239.7518 107.1786
" />
<path d="M239.7518 107.1786
L239.6089 107.2500
" />
<path d="M239.6089 107.2500
L239.5375 107.3214
" />
<path d="M239.5375 107.3214
L239.4661 107.4643
" />
<path d="M239.4661 107.4643
L239.4661 107.6071
" />
<path d="M239.4661 107.6071
L239.5375 107.7500
" />
<path d="M239.5375 107.7500
L239.6089 107.8214
" />
<path d="M239.6089 107.8214
L239.7518 107.8929
" />
<path d="M239.7518 107.8929
L240.0375 107.9643
" />
<path d="M240.0375 107.9643
L240.3946 107.9643
" />
<path d="M240.3946 107.9643
L240.6804 107.8929
" />
<path d="M240.6804 107.8929
L240.8232 107.8214
" />
<path d="M240.8232 107.8214
L240.8946 107.7500
" />
<path d="M240.8946 107.7500
L240.9661 107.6071
" />
<path d="M240.9661 106.1786
L240.9661 106.0357
" />
<path d="M240.9661 106.0357
L240.8946 105.8929
" />
<path d="M240.8946 105.8929
L240.8232 105.8214
" />
<path d="M240.8232 105.8214
L240.6804 105.7500
" />
<path d="M240.6804 105.7500
L240.3946 105.6786
" />
<path d="M240.3946 105.6786
L240.0375 105.6786
" />
<path d="M240.0375 105.6786
L239.7518 105.7500
" />
<path d="M239.7518 105.7500
L239.6089 105.8214
" />
<path d="M239.6089 105.8214
L239.5375 105.8929
" />
<path d="M239.5375 105.8929
L239.4661 106.0357
" />
<path d="M239.4661 106.0357
L239.4661 106.1786
" />
<path d="M239.4661 106.1786
L239.5375 106.3214
" />
<path d="M239.5375 106.3214
L239.6089 106.3929
" />
<path d="M239.6089 106.3929
L239.7518 106.4643
" />
<path d="M239.7518 106.4643
L240.0375 106.5357
" />
<path d="M240.0375 106.5357
L240.3946 106.5357
" />
<path d="M240.3946 106.5357
L240.6804 106.4643
" />
<path d="M240.6804 106.4643
L240.8232 106.3929
" />
<path d="M240.8232 106.3929
L240.8946 106.3214
" />
<path d="M240.8946 106.3214
L240.9661 106.1786
" />
<path d="M239.4661 103.8929
L240.4661 103.8929
" />
<path d="M240.3232 103.8929
L240.3946 103.8214
" />
<path d="M240.3946 103.8214
L240.4661 103.6786
" />
<path d="M240.4661 103.6786
L240.4661 103.4643
" />
<path d="M240.4661 103.4643
L240.3946 103.3214
" />
<path d="M240.3946 103.3214
L240.2518 103.2500
" />
<path d="M240.2518 103.2500
L239.4661 103.2500
" />
<path d="M240.2518 103.2500
L240.3946 103.1786
" />
<path d="M240.3946 103.1786
L240.4661 103.0357
" />
<path d="M240.4661 103.0357
L240.4661 102.8214
" />
<path d="M240.4661 102.8214
L240.3946 102.6786
" />
<path d="M240.3946 102.6786
L240.2518 102.6071
" />
<path d="M240.2518 102.6071
L239.4661 102.6071
" />
<path d="M239.4661 101.8929
L240.4661 101.8929
" />
<path d="M240.3232 101.8929
L240.3946 101.8214
" />
<path d="M240.3946 101.8214
L240.4661 101.6786
" />
<path d="M240.4661 101.6786
L240.4661 101.4643
" />
<path d="M240.4661 101.4643
L240.3946 101.3214
" />
<path d="M240.3946 101.3214
L240.2518 101.2500
" />
<path d="M240.2518 101.2500
L239.4661 101.2500
" />
<path d="M240.2518 101.2500
L240.3946 101.1786
" />
<path d="M240.3946 101.1786
L240.4661 101.0357
" />
<path d="M240.4661 101.0357
L240.4661 100.8214
" />
<path d="M240.4661 100.8214
L240.3946 100.6786
" />
<path d="M240.3946 100.6786
L240.2518 100.6071
" />
<path d="M240.2518 100.6071
L239.4661 100.6071
" />
</g><path d="M241.5022 108.5000
L237.9158 108.5000
" />
<path d="M241.5022 105.0000
L237.9158 105.0000
" />
<path d="M238.5022 108.5000
L238.5022 105.0000
" />
<path d="M238.5022 108.5000
L238.5022 105.0000
" />
<path d="M238.5022 108.5000
L239.0886 107.3735
" />
<path d="M238.5022 108.5000
L237.9158 107.3735
" />
<path d="M238.5022 105.0000
L237.9158 106.1265
" />
<path d="M238.5022 105.0000
L239.0886 106.1265
" />
<text x="246.0022" y="69.1000"
textLength="13.1500" font-size="2.0000" lengthAdjust="spacingAndGlyphs"
text-anchor="middle" opacity="0">5.0000 mm</text>
<g class="stroked-text"><desc>5.0000 mm</desc>
<path d="M251.4308 67.5361
L252.1451 67.5361
" />
<path d="M252.1451 67.5361
L252.2165 68.2504
" />
<path d="M252.2165 68.2504
L252.1451 68.1790
" />
<path d="M252.1451 68.1790
L252.0022 68.1076
" />
<path d="M252.0022 68.1076
L251.6451 68.1076
" />
<path d="M251.6451 68.1076
L251.5022 68.1790
" />
<path d="M251.5022 68.1790
L251.4308 68.2504
" />
<path d="M251.4308 68.2504
L251.3593 68.3933
" />
<path d="M251.3593 68.3933
L251.3593 68.7504
" />
<path d="M251.3593 68.7504
L251.4308 68.8933
" />
<path d="M251.4308 68.8933
L251.5022 68.9647
" />
<path d="M251.5022 68.9647
L251.6451 69.0361
" />
<path d="M251.6451 69.0361
L252.0022 69.0361
" />
<path d="M252.0022 69.0361
L252.1451 68.9647
" />
<path d="M252.1451 68.9647
L252.2165 68.8933
" />
<path d="M250.7165 68.8933
L250.6451 68.9647
" />
<path d="M250.6451 68.9647
L250.7165 69.0361
" />
<path d="M250.7165 69.0361
L250.7879 68.9647
" />
<path d="M250.7879 68.9647
L250.7165 68.8933
" />
<path d="M250.7165 68.8933
L250.7165 69.0361
" />
<path d="M249.7165 67.5361
L249.5736 67.5361
" />
<path d="M249.5736 67.5361
L249.4308 67.6076
" />
<path d="M249.4308 67.6076
L249.3593 67.6790
" />
<path d="M249.3593 67.6790
L249.2879 67.8218
" />
<path d="M249.2879 67.8218
L249.2165 68.1076
" />
<path d="M249.2165 68.1076
L249.2165 68.4647
" />
<path d="M249.2165 68.4647
L249.2879 68.7504
" />
<path d="M249.2879 68.7504
L249.3593 68.8933
" />
<path d="M249.3593 68.8933
L249.4308 68.9647
" />
<path d="M249.4308 68.9647
L249.5736 69.0361
" />
<path d="M249.5736 69.0361
L249.7165 69.0361
" />
<path d="M249.7165 69.0361
L249.8593 68.9647
" />
<path d="M249.8593 68.9647
L249.9308 68.8933
" />
<path d="M249.9308 68.8933
L250.0022 68.7504
" />
<path d="M250.0022 68.7504
L250.0736 68.4647
" />
<path d="M250.0736 68.4647
L250.0736 68.1076
" />
<path d="M250.0736 68.1076
L250.0022 67.8218
" />
<path d="M250.0022 67.8218
L249.9308 67.6790
" />
<path d="M249.9308 67.6790
L249.8593 67.6076
" />
<path d="M249.8593 67.6076
L249.7165 67.5361
" />
<path d="M248.2879 67.5361
L248.1451 67.5361
" />
<path d="M248.1451 67.5361
L248.0022 67.6076
" />
<path d="M248.0022 67.6076
L247.9308 67.6790
" />
<path d="M247.9308 67.6790
L247.8593 67.8218
" />
<path d="M247.8593 67.8218
L247.7879 68.1076
" />
<path d="M247.7879 68.1076
L247.7879 68.4647
" />
<path d="M247.7879 68.4647
L247.8593 68.7504
" />
<path d="M247.8593 68.7504
L247.9308 68.8933
" />
<path d="M247.9308 68.8933
L248.0022 68.9647
" />
<path d="M248.0022 68.9647
L248.1451 69.0361
" />
<path d="M248.1451 69.0361
L248.2879 69.0361
" />
<path d="M248.2879 69.0361
L248.4308 68.9647
" />
<path d="M248.4308 68.9647
L248.5022 68.8933
" />
<path d="M248.5022 68.8933
L248.5736 68.7504
" />
<path d="M248.5736 68.7504
L248.6451 68.4647
" />
<path d="M248.6451 68.4647
L248.6451 68.1076
" />
<path d="M248.6451 68.1076
L248.5736 67.8218
" />
<path d="M248.5736 67.8218
L248.5022 67.6790
" />
<path d="M248.5022 67.6790
L248.4308 67.6076
" />
<path d="M248.4308 67.6076
L248.2879 67.5361
" />
<path d="M246.8593 67.5361
L246.7165 67.5361
" />
<path d="M246.7165 67.5361
L246.5736 67.6076
" />
<path d="M246.5736 67.6076
L246.5022 67.6790
" />
<path d="M246.5022 67.6790
L246.4308 67.8218
" />
<path d="M246.4308 67.8218
L246.3593 68.1076
" />
<path d="M246.3593 68.1076
L246.3593 68.4647
" />
<path d="M246.3593 68.4647
L246.4308 68.7504
" />
<path d="M246.4308 68.7504
L246.5022 68.8933
" />
<path d="M246.5022 68.8933
L246.5736 68.9647
" />
<path d="M246.5736 68.9647
L246.7165 69.0361
" />
<path d="M246.7165 69.0361
L246.8593 69.0361
" />
<path d="M246.8593 69.0361
L247.0022 68.9647
" />
<path d="M247.0022 68.9647
L247.0736 68.8933
" />
<path d="M247.0736 68.8933
L247.1451 68.7504
" />
<path d="M247.1451 68.7504
L247.2165 68.4647
" />
<path d="M247.2165 68.4647
L247.2165 68.1076
" />
<path d="M247.2165 68.1076
L247.1451 67.8218
" />
<path d="M247.1451 67.8218
L247.0736 67.6790
" />
<path d="M247.0736 67.6790
L247.0022 67.6076
" />
<path d="M247.0022 67.6076
L246.8593 67.5361
" />
<path d="M245.4308 67.5361
L245.2879 67.5361
" />
<path d="M245.2879 67.5361
L245.1451 67.6076
" />
<path d="M245.1451 67.6076
L245.0736 67.6790
" />
<path d="M245.0736 67.6790
L245.0022 67.8218
" />
<path d="M245.0022 67.8218
L244.9308 68.1076
" />
<path d="M244.9308 68.1076
L244.9308 68.4647
" />
<path d="M244.9308 68.4647
L245.0022 68.7504
" />
<path d="M245.0022 68.7504
L245.0736 68.8933
" />
<path d="M245.0736 68.8933
L245.1451 68.9647
" />
<path d="M245.1451 68.9647
L245.2879 69.0361
" />
<path d="M245.2879 69.0361
L245.4308 69.0361
" />
<path d="M245.4308 69.0361
L245.5736 68.9647
" />
<path d="M245.5736 68.9647
L245.6451 68.8933
" />
<path d="M245.6451 68.8933
L245.7165 68.7504
" />
<path d="M245.7165 68.7504
L245.7879 68.4647
" />
<path d="M245.7879 68.4647
L245.7879 68.1076
" />
<path d="M245.7879 68.1076
L245.7165 67.8218
" />
<path d="M245.7165 67.8218
L245.6451 67.6790
" />
<path d="M245.6451 67.6790
L245.5736 67.6076
" />
<path d="M245.5736 67.6076
L245.4308 67.5361
" />
<path d="M243.1451 69.0361
L243.1451 68.0361
" />
<path d="M243.1451 68.1790
L243.0736 68.1076
" />
<path d="M243.0736 68.1076
L242.9308 68.0361
" />
<path d="M242.9308 68.0361
L242.7165 68.0361
" />
<path d="M242.7165 68.0361
L242.5736 68.1076
" />
<path d="M242.5736 68.1076
L242.5022 68.2504
" />
<path d="M242.5022 68.2504
L242.5022 69.0361
" />
<path d="M242.5022 68.2504
L242.4308 68.1076
" />
<path d="M242.4308 68.1076
L242.2879 68.0361
" />
<path d="M242.2879 68.0361
L242.0736 68.0361
" />
<path d="M242.0736 68.0361
L241.9308 68.1076
" />
<path d="M241.9308 68.1076
L241.8593 68.2504
" />
<path d="M241.8593 68.2504
L241.8593 69.0361
" />
<path d="M241.1451 69.0361
L241.1451 68.0361
" />
<path d="M241.1451 68.1790
L241.0736 68.1076
" />
<path d="M241.0736 68.1076
L240.9308 68.0361
" />
<path d="M240.9308 68.0361
L240.7165 68.0361
" />
<path d="M240.7165 68.0361
L240.5736 68.1076
" />
<path d="M240.5736 68.1076
L240.5022 68.2504
" />
<path d="M240.5022 68.2504
L240.5022 69.0361
" />
<path d="M240.5022 68.2504
L240.4308 68.1076
" />
<path d="M240.4308 68.1076
L240.2879 68.0361
" />
<path d="M240.2879 68.0361
L240.0736 68.0361
" />
<path d="M240.0736 68.0361
L239.9308 68.1076
" />
<path d="M239.9308 68.1076
L239.8593 68.2504
" />
<path d="M239.8593 68.2504
L239.8593 69.0361
" />
</g><path d="M243.5022 72.0000
L243.5022 69.4136
" />
<path d="M248.5022 72.0000
L248.5022 69.4136
" />
<path d="M243.5022 70.0000
L248.5022 70.0000
" />
<path d="M243.5022 70.0000
L248.5022 70.0000
" />
<path d="M243.5022 70.0000
L244.6287 70.5864
" />
<path d="M243.5022 70.0000
L244.6287 69.4136
" />
<path d="M248.5022 70.0000
L247.3757 69.4136
" />
<path d="M248.5022 70.0000
L247.3757 70.5864
" />
<text x="216.0022" y="43.1000"
textLength="14.5786" font-size="2.0000" lengthAdjust="spacingAndGlyphs"
text-anchor="middle" opacity="0">65.0000 mm</text>
<g class="stroked-text"><desc>65.0000 mm</desc>
<path d="M222.2165 41.5361
L222.5022 41.5361
" />
<path d="M222.5022 41.5361
L222.6451 41.6076
" />
<path d="M222.6451 41.6076
L222.7165 41.6790
" />
<path d="M222.7165 41.6790
L222.8593 41.8933
" />
<path d="M222.8593 41.8933
L222.9308 42.1790
" />
<path d="M222.9308 42.1790
L222.9308 42.7504
" />
<path d="M222.9308 42.7504
L222.8593 42.8933
" />
<path d="M222.8593 42.8933
L222.7879 42.9647
" />
<path d="M222.7879 42.9647
L222.6451 43.0361
" />
<path d="M222.6451 43.0361
L222.3593 43.0361
" />
<path d="M222.3593 43.0361
L222.2165 42.9647
" />
<path d="M222.2165 42.9647
L222.1451 42.8933
" />
<path d="M222.1451 42.8933
L222.0736 42.7504
" />
<path d="M222.0736 42.7504
L222.0736 42.3933
" />
<path d="M222.0736 42.3933
L222.1451 42.2504
" />
<path d="M222.1451 42.2504
L222.2165 42.1790
" />
<path d="M222.2165 42.1790
L222.3593 42.1076
" />
<path d="M222.3593 42.1076
L222.6451 42.1076
" />
<path d="M222.6451 42.1076
L222.7879 42.1790
" />
<path d="M222.7879 42.1790
L222.8593 42.2504
" />
<path d="M222.8593 42.2504
L222.9308 42.3933
" />
<path d="M220.7165 41.5361
L221.4308 41.5361
" />
<path d="M221.4308 41.5361
L221.5022 42.2504
" />
<path d="M221.5022 42.2504
L221.4308 42.1790
" />
<path d="M221.4308 42.1790
L221.2879 42.1076
" />
<path d="M221.2879 42.1076
L220.9308 42.1076
" />
<path d="M220.9308 42.1076
L220.7879 42.1790
" />
<path d="M220.7879 42.1790
L220.7165 42.2504
" />
<path d="M220.7165 42.2504
L220.6451 42.3933
" />
<path d="M220.6451 42.3933
L220.6451 42.7504
" />
<path d="M220.6451 42.7504
L220.7165 42.8933
" />
<path d="M220.7165 42.8933
L220.7879 42.9647
" />
<path d="M220.7879 42.9647
L220.9308 43.0361
" />
<path d="M220.9308 43.0361
L221.2879 43.0361
" />
<path d="M221.2879 43.0361
L221.4308 42.9647
" />
<path d="M221.4308 42.9647
L221.5022 42.8933
" />
<path d="M220.0022 42.8933
L219.9308 42.9647
" />
<path d="M219.9308 42.9647
L220.0022 43.0361
" />
<path d="M220.0022 43.0361
L220.0736 42.9647
" />
<path d="M220.0736 42.9647
L220.0022 42.8933
" />
<path d="M220.0022 42.8933
L220.0022 43.0361
" />
<path d="M219.0022 41.5361
L218.8593 41.5361
" />
<path d="M218.8593 41.5361
L218.7165 41.6076
" />
<path d="M218.7165 41.6076
L218.6451 41.6790
" />
<path d="M218.6451 41.6790
L218.5736 41.8218
" />
<path d="M218.5736 41.8218
L218.5022 42.1076
" />
<path d="M218.5022 42.1076
L218.5022 42.4647
" />
<path d="M218.5022 42.4647
L218.5736 42.7504
" />
<path d="M218.5736 42.7504
L218.6451 42.8933
" />
<path d="M218.6451 42.8933
L218.7165 42.9647
" />
<path d="M218.7165 42.9647
L218.8593 43.0361
" />
<path d="M218.8593 43.0361
L219.0022 43.0361
" />
<path d="M219.0022 43.0361
L219.1451 42.9647
" />
<path d="M219.1451 42.9647
L219.2165 42.8933
" />
<path d="M219.2165 42.8933
L219.2879 42.7504
" />
<path d="M219.2879 42.7504
L219.3593 42.4647
" />
<path d="M219.3593 42.4647
L219.3593 42.1076
" />
<path d="M219.3593 42.1076
L219.2879 41.8218
" />
<path d="M219.2879 41.8218
L219.2165 41.6790
" />
<path d="M219.2165 41.6790
L219.1451 41.6076
" />
<path d="M219.1451 41.6076
L219.0022 41.5361
" />
<path d="M217.5736 41.5361
L217.4308 41.5361
" />
<path d="M217.4308 41.5361
L217.2879 41.6076
" />
<path d="M217.2879 41.6076
L217.2165 41.6790
" />
<path d="M217.2165 41.6790
L217.1451 41.8218
" />
<path d="M217.1451 41.8218
L217.0736 42.1076
" />
<path d="M217.0736 42.1076
L217.0736 42.4647
" />
<path d="M217.0736 42.4647
L217.1451 42.7504
" />
<path d="M217.1451 42.7504
L217.2165 42.8933
" />
<path d="M217.2165 42.8933
L217.2879 42.9647
" />
<path d="M217.2879 42.9647
L217.4308 43.0361
" />
<path d="M217.4308 43.0361
L217.5736 43.0361
" />
<path d="M217.5736 43.0361
L217.7165 42.9647
" />
<path d="M217.7165 42.9647
L217.7879 42.8933
" />
<path d="M217.7879 42.8933
L217.8593 42.7504
" />
<path d="M217.8593 42.7504
L217.9308 42.4647
" />
<path d="M217.9308 42.4647
L217.9308 42.1076
" />
<path d="M217.9308 42.1076
L217.8593 41.8218
" />
<path d="M217.8593 41.8218
L217.7879 41.6790
" />
<path d="M217.7879 41.6790
L217.7165 41.6076
" />
<path d="M217.7165 41.6076
L217.5736 41.5361
" />
<path d="M216.1451 41.5361
L216.0022 41.5361
" />
<path d="M216.0022 41.5361
L215.8593 41.6076
" />
<path d="M215.8593 41.6076
L215.7879 41.6790
" />
<path d="M215.7879 41.6790
L215.7165 41.8218
" />
<path d="M215.7165 41.8218
L215.6451 42.1076
" />
<path d="M215.6451 42.1076
L215.6451 42.4647
" />
<path d="M215.6451 42.4647
L215.7165 42.7504
" />
<path d="M215.7165 42.7504
L215.7879 42.8933
" />
<path d="M215.7879 42.8933
L215.8593 42.9647
" />
<path d="M215.8593 42.9647
L216.0022 43.0361
" />
<path d="M216.0022 43.0361
L216.1451 43.0361
" />
<path d="M216.1451 43.0361
L216.2879 42.9647
" />
<path d="M216.2879 42.9647
L216.3593 42.8933
" />
<path d="M216.3593 42.8933
L216.4308 42.7504
" />
<path d="M216.4308 42.7504
L216.5022 42.4647
" />
<path d="M216.5022 42.4647
L216.5022 42.1076
" />
<path d="M216.5022 42.1076
L216.4308 41.8218
" />
<path d="M216.4308 41.8218
L216.3593 41.6790
" />
<path d="M216.3593 41.6790
L216.2879 41.6076
" />
<path d="M216.2879 41.6076
L216.1451 41.5361
" />
<path d="M214.7165 41.5361
L214.5736 41.5361
" />
<path d="M214.5736 41.5361
L214.4308 41.6076
" />
<path d="M214.4308 41.6076
L214.3593 41.6790
" />
<path d="M214.3593 41.6790
L214.2879 41.8218
" />
<path d="M214.2879 41.8218
L214.2165 42.1076
" />
<path d="M214.2165 42.1076
L214.2165 42.4647
" />
<path d="M214.2165 42.4647
L214.2879 42.7504
" />
<path d="M214.2879 42.7504
L214.3593 42.8933
" />
<path d="M214.3593 42.8933
L214.4308 42.9647
" />
<path d="M214.4308 42.9647
L214.5736 43.0361
" />
<path d="M214.5736 43.0361
L214.7165 43.0361
" />
<path d="M214.7165 43.0361
L214.8593 42.9647
" />
<path d="M214.8593 42.9647
L214.9308 42.8933
" />
<path d="M214.9308 42.8933
L215.0022 42.7504
" />
<path d="M215.0022 42.7504
L215.0736 42.4647
" />
<path d="M215.0736 42.4647
L215.0736 42.1076
" />
<path d="M215.0736 42.1076
L215.0022 41.8218
" />
<path d="M215.0022 41.8218
L214.9308 41.6790
" />
<path d="M214.9308 41.6790
L214.8593 41.6076
" />
<path d="M214.8593 41.6076
L214.7165 41.5361
" />
<path d="M212.4308 43.0361
L212.4308 42.0361
" />
<path d="M212.4308 42.1790
L212.3593 42.1076
" />
<path d="M212.3593 42.1076
L212.2165 42.0361
" />
<path d="M212.2165 42.0361
L212.0022 42.0361
" />
<path d="M212.0022 42.0361
L211.8593 42.1076
" />
<path d="M211.8593 42.1076
L211.7879 42.2504
" />
<path d="M211.7879 42.2504
L211.7879 43.0361
" />
<path d="M211.7879 42.2504
L211.7165 42.1076
" />
<path d="M211.7165 42.1076
L211.5736 42.0361
" />
<path d="M211.5736 42.0361
L211.3593 42.0361
" />
<path d="M211.3593 42.0361
L211.2165 42.1076
" />
<path d="M211.2165 42.1076
L211.1451 42.2504
" />
<path d="M211.1451 42.2504
L211.1451 43.0361
" />
<path d="M210.4308 43.0361
L210.4308 42.0361
" />
<path d="M210.4308 42.1790
L210.3593 42.1076
" />
<path d="M210.3593 42.1076
L210.2165 42.0361
" />
<path d="M210.2165 42.0361
L210.0022 42.0361
" />
<path d="M210.0022 42.0361
L209.8593 42.1076
" />
<path d="M209.8593 42.1076
L209.7879 42.2504
" />
<path d="M209.7879 42.2504
L209.7879 43.0361
" />
<path d="M209.7879 42.2504
L209.7165 42.1076
" />
<path d="M209.7165 42.1076
L209.5736 42.0361
" />
<path d="M209.5736 42.0361
L209.3593 42.0361
" />
<path d="M209.3593 42.0361
L209.2165 42.1076
" />
<path d="M209.2165 42.1076
L209.1451 42.2504
" />
<path d="M209.1451 42.2504
L209.1451 43.0361
" />
</g><path d="M183.5022 51.0000
L183.5022 43.4136
" />
<path d="M248.5022 51.0000
L248.5022 43.4136
" />
<path d="M183.5022 44.0000
L248.5022 44.0000
" />
<path d="M183.5022 44.0000
L248.5022 44.0000
" />
<path d="M183.5022 44.0000
L184.6287 44.5864
" />
<path d="M183.5022 44.0000
L184.6287 43.4136
" />
<path d="M248.5022 44.0000
L247.3757 43.4136
" />
<path d="M248.5022 44.0000
L247.3757 44.5864
" />
<text x="230.5022" y="61.6000"
textLength="14.5786" font-size="2.0000" lengthAdjust="spacingAndGlyphs"
text-anchor="middle" opacity="0">29.0000 mm</text>
<g class="stroked-text"><desc>29.0000 mm</desc>
<path d="M237.4308 60.1790
L237.3593 60.1076
" />
<path d="M237.3593 60.1076
L237.2165 60.0361
" />
<path d="M237.2165 60.0361
L236.8593 60.0361
" />
<path d="M236.8593 60.0361
L236.7165 60.1076
" />
<path d="M236.7165 60.1076
L236.6451 60.1790
" />
<path d="M236.6451 60.1790
L236.5736 60.3218
" />
<path d="M236.5736 60.3218
L236.5736 60.4647
" />
<path d="M236.5736 60.4647
L236.6451 60.6790
" />
<path d="M236.6451 60.6790
L237.5022 61.5361
" />
<path d="M237.5022 61.5361
L236.5736 61.5361
" />
<path d="M235.8593 61.5361
L235.5736 61.5361
" />
<path d="M235.5736 61.5361
L235.4308 61.4647
" />
<path d="M235.4308 61.4647
L235.3593 61.3933
" />
<path d="M235.3593 61.3933
L235.2165 61.1790
" />
<path d="M235.2165 61.1790
L235.1451 60.8933
" />
<path d="M235.1451 60.8933
L235.1451 60.3218
" />
<path d="M235.1451 60.3218
L235.2165 60.1790
" />
<path d="M235.2165 60.1790
L235.2879 60.1076
" />
<path d="M235.2879 60.1076
L235.4308 60.0361
" />
<path d="M235.4308 60.0361
L235.7165 60.0361
" />
<path d="M235.7165 60.0361
L235.8593 60.1076
" />
<path d="M235.8593 60.1076
L235.9308 60.1790
" />
<path d="M235.9308 60.1790
L236.0022 60.3218
" />
<path d="M236.0022 60.3218
L236.0022 60.6790
" />
<path d="M236.0022 60.6790
L235.9308 60.8218
" />
<path d="M235.9308 60.8218
L235.8593 60.8933
" />
<path d="M235.8593 60.8933
L235.7165 60.9647
" />
<path d="M235.7165 60.9647
L235.4308 60.9647
" />
<path d="M235.4308 60.9647
L235.2879 60.8933
" />
<path d="M235.2879 60.8933
L235.2165 60.8218
" />
<path d="M235.2165 60.8218
L235.1451 60.6790
" />
<path d="M234.5022 61.3933
L234.4308 61.4647
" />
<path d="M234.4308 61.4647
L234.5022 61.5361
" />
<path d="M234.5022 61.5361
L234.5736 61.4647
" />
<path d="M234.5736 61.4647
L234.5022 61.3933
" />
<path d="M234.5022 61.3933
L234.5022 61.5361
" />
<path d="M233.5022 60.0361
L233.3593 60.0361
" />
<path d="M233.3593 60.0361
L233.2165 60.1076
" />
<path d="M233.2165 60.1076
L233.1451 60.1790
" />
<path d="M233.1451 60.1790
L233.0736 60.3218
" />
<path d="M233.0736 60.3218
L233.0022 60.6076
" />
<path d="M233.0022 60.6076
L233.0022 60.9647
" />
<path d="M233.0022 60.9647
L233.0736 61.2504
" />
<path d="M233.0736 61.2504
L233.1451 61.3933
" />
<path d="M233.1451 61.3933
L233.2165 61.4647
" />
<path d="M233.2165 61.4647
L233.3593 61.5361
" />
<path d="M233.3593 61.5361
L233.5022 61.5361
" />
<path d="M233.5022 61.5361
L233.6451 61.4647
" />
<path d="M233.6451 61.4647
L233.7165 61.3933
" />
<path d="M233.7165 61.3933
L233.7879 61.2504
" />
<path d="M233.7879 61.2504
L233.8593 60.9647
" />
<path d="M233.8593 60.9647
L233.8593 60.6076
" />
<path d="M233.8593 60.6076
L233.7879 60.3218
" />
<path d="M233.7879 60.3218
L233.7165 60.1790
" />
<path d="M233.7165 60.1790
L233.6451 60.1076
" />
<path d="M233.6451 60.1076
L233.5022 60.0361
" />
<path d="M232.0736 60.0361
L231.9308 60.0361
" />
<path d="M231.9308 60.0361
L231.7879 60.1076
" />
<path d="M231.7879 60.1076
L231.7165 60.1790
" />
<path d="M231.7165 60.1790
L231.6451 60.3218
" />
<path d="M231.6451 60.3218
L231.5736 60.6076
" />
<path d="M231.5736 60.6076
L231.5736 60.9647
" />
<path d="M231.5736 60.9647
L231.6451 61.2504
" />
<path d="M231.6451 61.2504
L231.7165 61.3933
" />
<path d="M231.7165 61.3933
L231.7879 61.4647
" />
<path d="M231.7879 61.4647
L231.9308 61.5361
" />
<path d="M231.9308 61.5361
L232.0736 61.5361
" />
<path d="M232.0736 61.5361
L232.2165 61.4647
" />
<path d="M232.2165 61.4647
L232.2879 61.3933
" />
<path d="M232.2879 61.3933
L232.3593 61.2504
" />
<path d="M232.3593 61.2504
L232.4308 60.9647
" />
<path d="M232.4308 60.9647
L232.4308 60.6076
" />
<path d="M232.4308 60.6076
L232.3593 60.3218
" />
<path d="M232.3593 60.3218
L232.2879 60.1790
" />
<path d="M232.2879 60.1790
L232.2165 60.1076
" />
<path d="M232.2165 60.1076
L232.0736 60.0361
" />
<path d="M230.6451 60.0361
L230.5022 60.0361
" />
<path d="M230.5022 60.0361
L230.3593 60.1076
" />
<path d="M230.3593 60.1076
L230.2879 60.1790
" />
<path d="M230.2879 60.1790
L230.2165 60.3218
" />
<path d="M230.2165 60.3218
L230.1451 60.6076
" />
<path d="M230.1451 60.6076
L230.1451 60.9647
" />
<path d="M230.1451 60.9647
L230.2165 61.2504
" />
<path d="M230.2165 61.2504
L230.2879 61.3933
" />
<path d="M230.2879 61.3933
L230.3593 61.4647
" />
<path d="M230.3593 61.4647
L230.5022 61.5361
" />
<path d="M230.5022 61.5361
L230.6451 61.5361
" />
<path d="M230.6451 61.5361
L230.7879 61.4647
" />
<path d="M230.7879 61.4647
L230.8593 61.3933
" />
<path d="M230.8593 61.3933
L230.9308 61.2504
" />
<path d="M230.9308 61.2504
L231.0022 60.9647
" />
<path d="M231.0022 60.9647
L231.0022 60.6076
" />
<path d="M231.0022 60.6076
L230.9308 60.3218
" />
<path d="M230.9308 60.3218
L230.8593 60.1790
" />
<path d="M230.8593 60.1790
L230.7879 60.1076
" />
<path d="M230.7879 60.1076
L230.6451 60.0361
" />
<path d="M229.2165 60.0361
L229.0736 60.0361
" />
<path d="M229.0736 60.0361
L228.9308 60.1076
" />
<path d="M228.9308 60.1076
L228.8593 60.1790
" />
<path d="M228.8593 60.1790
L228.7879 60.3218
" />
<path d="M228.7879 60.3218
L228.7165 60.6076
" />
<path d="M228.7165 60.6076
L228.7165 60.9647
" />
<path d="M228.7165 60.9647
L228.7879 61.2504
" />
<path d="M228.7879 61.2504
L228.8593 61.3933
" />
<path d="M228.8593 61.3933
L228.9308 61.4647
" />
<path d="M228.9308 61.4647
L229.0736 61.5361
" />
<path d="M229.0736 61.5361
L229.2165 61.5361
" />
<path d="M229.2165 61.5361
L229.3593 61.4647
" />
<path d="M229.3593 61.4647
L229.4308 61.3933
" />
<path d="M229.4308 61.3933
L229.5022 61.2504
" />
<path d="M229.5022 61.2504
L229.5736 60.9647
" />
<path d="M229.5736 60.9647
L229.5736 60.6076
" />
<path d="M229.5736 60.6076
L229.5022 60.3218
" />
<path d="M229.5022 60.3218
L229.4308 60.1790
" />
<path d="M229.4308 60.1790
L229.3593 60.1076
" />
<path d="M229.3593 60.1076
L229.2165 60.0361
" />
<path d="M226.9308 61.5361
L226.9308 60.5361
" />
<path d="M226.9308 60.6790
L226.8593 60.6076
" />
<path d="M226.8593 60.6076
L226.7165 60.5361
" />
<path d="M226.7165 60.5361
L226.5022 60.5361
" />
<path d="M226.5022 60.5361
L226.3593 60.6076
" />
<path d="M226.3593 60.6076
L226.2879 60.7504
" />
<path d="M226.2879 60.7504
L226.2879 61.5361
" />
<path d="M226.2879 60.7504
L226.2165 60.6076
" />
<path d="M226.2165 60.6076
L226.0736 60.5361
" />
<path d="M226.0736 60.5361
L225.8593 60.5361
" />
<path d="M225.8593 60.5361
L225.7165 60.6076
" />
<path d="M225.7165 60.6076
L225.6451 60.7504
" />
<path d="M225.6451 60.7504
L225.6451 61.5361
" />
<path d="M224.9308 61.5361
L224.9308 60.5361
" />
<path d="M224.9308 60.6790
L224.8593 60.6076
" />
<path d="M224.8593 60.6076
L224.7165 60.5361
" />
<path d="M224.7165 60.5361
L224.5022 60.5361
" />
<path d="M224.5022 60.5361
L224.3593 60.6076
" />
<path d="M224.3593 60.6076
L224.2879 60.7504
" />
<path d="M224.2879 60.7504
L224.2879 61.5361
" />
<path d="M224.2879 60.7504
L224.2165 60.6076
" />
<path d="M224.2165 60.6076
L224.0736 60.5361
" />
<path d="M224.0736 60.5361
L223.8593 60.5361
" />
<path d="M223.8593 60.5361
L223.7165 60.6076
" />
<path d="M223.7165 60.6076
L223.6451 60.7504
" />
<path d="M223.6451 60.7504
L223.6451 61.5361
" />
</g><path d="M216.0022 60.0000
L216.0022 63.0864
" />
<path d="M245.0022 60.0000
L245.0022 63.0864
" />
<path d="M216.0022 62.5000
L245.0022 62.5000
" />
<path d="M216.0022 62.5000
L245.0022 62.5000
" />
<path d="M216.0022 62.5000
L217.1287 63.0864
" />
<path d="M216.0022 62.5000
L217.1287 61.9136
" />
<path d="M245.0022 62.5000
L243.8757 61.9136
" />
<path d="M245.0022 62.5000
L243.8757 63.0864
" />
<text x="216.0022" y="47.6000"
textLength="14.5786" font-size="2.0000" lengthAdjust="spacingAndGlyphs"
text-anchor="middle" opacity="0">58.0000 mm</text>
<g class="stroked-text"><desc>58.0000 mm</desc>
<path d="M222.1451 46.0361
L222.8593 46.0361
" />
<path d="M222.8593 46.0361
L222.9308 46.7504
" />
<path d="M222.9308 46.7504
L222.8593 46.6790
" />
<path d="M222.8593 46.6790
L222.7165 46.6076
" />
<path d="M222.7165 46.6076
L222.3593 46.6076
" />
<path d="M222.3593 46.6076
L222.2165 46.6790
" />
<path d="M222.2165 46.6790
L222.1451 46.7504
" />
<path d="M222.1451 46.7504
L222.0736 46.8933
" />
<path d="M222.0736 46.8933
L222.0736 47.2504
" />
<path d="M222.0736 47.2504
L222.1451 47.3933
" />
<path d="M222.1451 47.3933
L222.2165 47.4647
" />
<path d="M222.2165 47.4647
L222.3593 47.5361
" />
<path d="M222.3593 47.5361
L222.7165 47.5361
" />
<path d="M222.7165 47.5361
L222.8593 47.4647
" />
<path d="M222.8593 47.4647
L222.9308 47.3933
" />
<path d="M221.2165 46.6790
L221.3593 46.6076
" />
<path d="M221.3593 46.6076
L221.4308 46.5361
" />
<path d="M221.4308 46.5361
L221.5022 46.3933
" />
<path d="M221.5022 46.3933
L221.5022 46.3218
" />
<path d="M221.5022 46.3218
L221.4308 46.1790
" />
<path d="M221.4308 46.1790
L221.3593 46.1076
" />
<path d="M221.3593 46.1076
L221.2165 46.0361
" />
<path d="M221.2165 46.0361
L220.9308 46.0361
" />
<path d="M220.9308 46.0361
L220.7879 46.1076
" />
<path d="M220.7879 46.1076
L220.7165 46.1790
" />
<path d="M220.7165 46.1790
L220.6451 46.3218
" />
<path d="M220.6451 46.3218
L220.6451 46.3933
" />
<path d="M220.6451 46.3933
L220.7165 46.5361
" />
<path d="M220.7165 46.5361
L220.7879 46.6076
" />
<path d="M220.7879 46.6076
L220.9308 46.6790
" />
<path d="M220.9308 46.6790
L221.2165 46.6790
" />
<path d="M221.2165 46.6790
L221.3593 46.7504
" />
<path d="M221.3593 46.7504
L221.4308 46.8218
" />
<path d="M221.4308 46.8218
L221.5022 46.9647
" />
<path d="M221.5022 46.9647
L221.5022 47.2504
" />
<path d="M221.5022 47.2504
L221.4308 47.3933
" />
<path d="M221.4308 47.3933
L221.3593 47.4647
" />
<path d="M221.3593 47.4647
L221.2165 47.5361
" />
<path d="M221.2165 47.5361
L220.9308 47.5361
" />
<path d="M220.9308 47.5361
L220.7879 47.4647
" />
<path d="M220.7879 47.4647
L220.7165 47.3933
" />
<path d="M220.7165 47.3933
L220.6451 47.2504
" />
<path d="M220.6451 47.2504
L220.6451 46.9647
" />
<path d="M220.6451 46.9647
L220.7165 46.8218
" />
<path d="M220.7165 46.8218
L220.7879 46.7504
" />
<path d="M220.7879 46.7504
L220.9308 46.6790
" />
<path d="M220.0022 47.3933
L219.9308 47.4647
" />
<path d="M219.9308 47.4647
L220.0022 47.5361
" />
<path d="M220.0022 47.5361
L220.0736 47.4647
" />
<path d="M220.0736 47.4647
L220.0022 47.3933
" />
<path d="M220.0022 47.3933
L220.0022 47.5361
" />
<path d="M219.0022 46.0361
L218.8593 46.0361
" />
<path d="M218.8593 46.0361
L218.7165 46.1076
" />
<path d="M218.7165 46.1076
L218.6451 46.1790
" />
<path d="M218.6451 46.1790
L218.5736 46.3218
" />
<path d="M218.5736 46.3218
L218.5022 46.6076
" />
<path d="M218.5022 46.6076
L218.5022 46.9647
" />
<path d="M218.5022 46.9647
L218.5736 47.2504
" />
<path d="M218.5736 47.2504
L218.6451 47.3933
" />
<path d="M218.6451 47.3933
L218.7165 47.4647
" />
<path d="M218.7165 47.4647
L218.8593 47.5361
" />
<path d="M218.8593 47.5361
L219.0022 47.5361
" />
<path d="M219.0022 47.5361
L219.1451 47.4647
" />
<path d="M219.1451 47.4647
L219.2165 47.3933
" />
<path d="M219.2165 47.3933
L219.2879 47.2504
" />
<path d="M219.2879 47.2504
L219.3593 46.9647
" />
<path d="M219.3593 46.9647
L219.3593 46.6076
" />
<path d="M219.3593 46.6076
L219.2879 46.3218
" />
<path d="M219.2879 46.3218
L219.2165 46.1790
" />
<path d="M219.2165 46.1790
L219.1451 46.1076
" />
<path d="M219.1451 46.1076
L219.0022 46.0361
" />
<path d="M217.5736 46.0361
L217.4308 46.0361
" />
<path d="M217.4308 46.0361
L217.2879 46.1076
" />
<path d="M217.2879 46.1076
L217.2165 46.1790
" />
<path d="M217.2165 46.1790
L217.1451 46.3218
" />
<path d="M217.1451 46.3218
L217.0736 46.6076
" />
<path d="M217.0736 46.6076
L217.0736 46.9647
" />
<path d="M217.0736 46.9647
L217.1451 47.2504
" />
<path d="M217.1451 47.2504
L217.2165 47.3933
" />
<path d="M217.2165 47.3933
L217.2879 47.4647
" />
<path d="M217.2879 47.4647
L217.4308 47.5361
" />
<path d="M217.4308 47.5361
L217.5736 47.5361
" />
<path d="M217.5736 47.5361
L217.7165 47.4647
" />
<path d="M217.7165 47.4647
L217.7879 47.3933
" />
<path d="M217.7879 47.3933
L217.8593 47.2504
" />
<path d="M217.8593 47.2504
L217.9308 46.9647
" />
<path d="M217.9308 46.9647
L217.9308 46.6076
" />
<path d="M217.9308 46.6076
L217.8593 46.3218
" />
<path d="M217.8593 46.3218
L217.7879 46.1790
" />
<path d="M217.7879 46.1790
L217.7165 46.1076
" />
<path d="M217.7165 46.1076
L217.5736 46.0361
" />
<path d="M216.1451 46.0361
L216.0022 46.0361
" />
<path d="M216.0022 46.0361
L215.8593 46.1076
" />
<path d="M215.8593 46.1076
L215.7879 46.1790
" />
<path d="M215.7879 46.1790
L215.7165 46.3218
" />
<path d="M215.7165 46.3218
L215.6451 46.6076
" />
<path d="M215.6451 46.6076
L215.6451 46.9647
" />
<path d="M215.6451 46.9647
L215.7165 47.2504
" />
<path d="M215.7165 47.2504
L215.7879 47.3933
" />
<path d="M215.7879 47.3933
L215.8593 47.4647
" />
<path d="M215.8593 47.4647
L216.0022 47.5361
" />
<path d="M216.0022 47.5361
L216.1451 47.5361
" />
<path d="M216.1451 47.5361
L216.2879 47.4647
" />
<path d="M216.2879 47.4647
L216.3593 47.3933
" />
<path d="M216.3593 47.3933
L216.4308 47.2504
" />
<path d="M216.4308 47.2504
L216.5022 46.9647
" />
<path d="M216.5022 46.9647
L216.5022 46.6076
" />
<path d="M216.5022 46.6076
L216.4308 46.3218
" />
<path d="M216.4308 46.3218
L216.3593 46.1790
" />
<path d="M216.3593 46.1790
L216.2879 46.1076
" />
<path d="M216.2879 46.1076
L216.1451 46.0361
" />
<path d="M214.7165 46.0361
L214.5736 46.0361
" />
<path d="M214.5736 46.0361
L214.4308 46.1076
" />
<path d="M214.4308 46.1076
L214.3593 46.1790
" />
<path d="M214.3593 46.1790
L214.2879 46.3218
" />
<path d="M214.2879 46.3218
L214.2165 46.6076
" />
<path d="M214.2165 46.6076
L214.2165 46.9647
" />
<path d="M214.2165 46.9647
L214.2879 47.2504
" />
<path d="M214.2879 47.2504
L214.3593 47.3933
" />
<path d="M214.3593 47.3933
L214.4308 47.4647
" />
<path d="M214.4308 47.4647
L214.5736 47.5361
" />
<path d="M214.5736 47.5361
L214.7165 47.5361
" />
<path d="M214.7165 47.5361
L214.8593 47.4647
" />
<path d="M214.8593 47.4647
L214.9308 47.3933
" />
<path d="M214.9308 47.3933
L215.0022 47.2504
" />
<path d="M215.0022 47.2504
L215.0736 46.9647
" />
<path d="M215.0736 46.9647
L215.0736 46.6076
" />
<path d="M215.0736 46.6076
L215.0022 46.3218
" />
<path d="M215.0022 46.3218
L214.9308 46.1790
" />
<path d="M214.9308 46.1790
L214.8593 46.1076
" />
<path d="M214.8593 46.1076
L214.7165 46.0361
" />
<path d="M212.4308 47.5361
L212.4308 46.5361
" />
<path d="M212.4308 46.6790
L212.3593 46.6076
" />
<path d="M212.3593 46.6076
L212.2165 46.5361
" />
<path d="M212.2165 46.5361
L212.0022 46.5361
" />
<path d="M212.0022 46.5361
L211.8593 46.6076
" />
<path d="M211.8593 46.6076
L211.7879 46.7504
" />
<path d="M211.7879 46.7504
L211.7879 47.5361
" />
<path d="M211.7879 46.7504
L211.7165 46.6076
" />
<path d="M211.7165 46.6076
L211.5736 46.5361
" />
<path d="M211.5736 46.5361
L211.3593 46.5361
" />
<path d="M211.3593 46.5361
L211.2165 46.6076
" />
<path d="M211.2165 46.6076
L211.1451 46.7504
" />
<path d="M211.1451 46.7504
L211.1451 47.5361
" />
<path d="M210.4308 47.5361
L210.4308 46.5361
" />
<path d="M210.4308 46.6790
L210.3593 46.6076
" />
<path d="M210.3593 46.6076
L210.2165 46.5361
" />
<path d="M210.2165 46.5361
L210.0022 46.5361
" />
<path d="M210.0022 46.5361
L209.8593 46.6076
" />
<path d="M209.8593 46.6076
L209.7879 46.7504
" />
<path d="M209.7879 46.7504
L209.7879 47.5361
" />
<path d="M209.7879 46.7504
L209.7165 46.6076
" />
<path d="M209.7165 46.6076
L209.5736 46.5361
" />
<path d="M209.5736 46.5361
L209.3593 46.5361
" />
<path d="M209.3593 46.5361
L209.2165 46.6076
" />
<path d="M209.2165 46.6076
L209.1451 46.7504
" />
<path d="M209.1451 46.7504
L209.1451 47.5361
" />
</g><path d="M187.0022 51.0000
L187.0022 47.9136
" />
<path d="M245.0022 51.0000
L245.0022 47.9136
" />
<path d="M187.0022 48.5000
L245.0022 48.5000
" />
<path d="M187.0022 48.5000
L245.0022 48.5000
" />
<path d="M187.0022 48.5000
L188.1287 49.0864
" />
<path d="M187.0022 48.5000
L188.1287 47.9136
" />
<path d="M245.0022 48.5000
L243.8757 47.9136
" />
<path d="M245.0022 48.5000
L243.8757 49.0864
" />
<g transform="rotate(-90.000000 242.1522 80.5000)">
<text x="242.1522" y="81.2500"
textLength="14.5786" font-size="2.0000" lengthAdjust="spacingAndGlyphs"
text-anchor="middle" opacity="0">17.0000 mm</text>
</g>
<g class="stroked-text"><desc>17.0000 mm</desc>
<path d="M241.4661 86.5714
L241.4661 87.4286
" />
<path d="M241.4661 87.0000
L242.9661 87.0000
" />
<path d="M242.9661 87.0000
L242.7518 87.1429
" />
<path d="M242.7518 87.1429
L242.6089 87.2857
" />
<path d="M242.6089 87.2857
L242.5375 87.4286
" />
<path d="M242.9661 86.0714
L242.9661 85.0714
" />
<path d="M242.9661 85.0714
L241.4661 85.7143
" />
<path d="M241.6089 84.5000
L241.5375 84.4286
" />
<path d="M241.5375 84.4286
L241.4661 84.5000
" />
<path d="M241.4661 84.5000
L241.5375 84.5714
" />
<path d="M241.5375 84.5714
L241.6089 84.5000
" />
<path d="M241.6089 84.5000
L241.4661 84.5000
" />
<path d="M242.9661 83.5000
L242.9661 83.3571
" />
<path d="M242.9661 83.3571
L242.8946 83.2143
" />
<path d="M242.8946 83.2143
L242.8232 83.1429
" />
<path d="M242.8232 83.1429
L242.6804 83.0714
" />
<path d="M242.6804 83.0714
L242.3946 83.0000
" />
<path d="M242.3946 83.0000
L242.0375 83.0000
" />
<path d="M242.0375 83.0000
L241.7518 83.0714
" />
<path d="M241.7518 83.0714
L241.6089 83.1429
" />
<path d="M241.6089 83.1429
L241.5375 83.2143
" />
<path d="M241.5375 83.2143
L241.4661 83.3571
" />
<path d="M241.4661 83.3571
L241.4661 83.5000
" />
<path d="M241.4661 83.5000
L241.5375 83.6429
" />
<path d="M241.5375 83.6429
L241.6089 83.7143
" />
<path d="M241.6089 83.7143
L241.7518 83.7857
" />
<path d="M241.7518 83.7857
L242.0375 83.8571
" />
<path d="M242.0375 83.8571
L242.3946 83.8571
" />
<path d="M242.3946 83.8571
L242.6804 83.7857
" />
<path d="M242.6804 83.7857
L242.8232 83.7143
" />
<path d="M242.8232 83.7143
L242.8946 83.6429
" />
<path d="M242.8946 83.6429
L242.9661 83.5000
" />
<path d="M242.9661 82.0714
L242.9661 81.9286
" />
<path d="M242.9661 81.9286
L242.8946 81.7857
" />
<path d="M242.8946 81.7857
L242.8232 81.7143
" />
<path d="M242.8232 81.7143
L242.6804 81.6429
" />
<path d="M242.6804 81.6429
L242.3946 81.5714
" />
<path d="M242.3946 81.5714
L242.0375 81.5714
" />
<path d="M242.0375 81.5714
L241.7518 81.6429
" />
<path d="M241.7518 81.6429
L241.6089 81.7143
" />
<path d="M241.6089 81.7143
L241.5375 81.7857
" />
<path d="M241.5375 81.7857
L241.4661 81.9286
" />
<path d="M241.4661 81.9286
L241.4661 82.0714
" />
<path d="M241.4661 82.0714
L241.5375 82.2143
" />
<path d="M241.5375 82.2143
L241.6089 82.2857
" />
<path d="M241.6089 82.2857
L241.7518 82.3571
" />
<path d="M241.7518 82.3571
L242.0375 82.4286
" />
<path d="M242.0375 82.4286
L242.3946 82.4286
" />
<path d="M242.3946 82.4286
L242.6804 82.3571
" />
<path d="M242.6804 82.3571
L242.8232 82.2857
" />
<path d="M242.8232 82.2857
L242.8946 82.2143
" />
<path d="M242.8946 82.2143
L242.9661 82.0714
" />
<path d="M242.9661 80.6429
L242.9661 80.5000
" />
<path d="M242.9661 80.5000
L242.8946 80.3571
" />
<path d="M242.8946 80.3571
L242.8232 80.2857
" />
<path d="M242.8232 80.2857
L242.6804 80.2143
" />
<path d="M242.6804 80.2143
L242.3946 80.1429
" />
<path d="M242.3946 80.1429
L242.0375 80.1429
" />
<path d="M242.0375 80.1429
L241.7518 80.2143
" />
<path d="M241.7518 80.2143
L241.6089 80.2857
" />
<path d="M241.6089 80.2857
L241.5375 80.3571
" />
<path d="M241.5375 80.3571
L241.4661 80.5000
" />
<path d="M241.4661 80.5000
L241.4661 80.6429
" />
<path d="M241.4661 80.6429
L241.5375 80.7857
" />
<path d="M241.5375 80.7857
L241.6089 80.8571
" />
<path d="M241.6089 80.8571
L241.7518 80.9286
" />
<path d="M241.7518 80.9286
L242.0375 81.0000
" />
<path d="M242.0375 81.0000
L242.3946 81.0000
" />
<path d="M242.3946 81.0000
L242.6804 80.9286
" />
<path d="M242.6804 80.9286
L242.8232 80.8571
" />
<path d="M242.8232 80.8571
L242.8946 80.7857
" />
<path d="M242.8946 80.7857
L242.9661 80.6429
" />
<path d="M242.9661 79.2143
L242.9661 79.0714
" />
<path d="M242.9661 79.0714
L242.8946 78.9286
" />
<path d="M242.8946 78.9286
L242.8232 78.8571
" />
<path d="M242.8232 78.8571
L242.6804 78.7857
" />
<path d="M242.6804 78.7857
L242.3946 78.7143
" />
<path d="M242.3946 78.7143
L242.0375 78.7143
" />
<path d="M242.0375 78.7143
L241.7518 78.7857
" />
<path d="M241.7518 78.7857
L241.6089 78.8571
" />
<path d="M241.6089 78.8571
L241.5375 78.9286
" />
<path d="M241.5375 78.9286
L241.4661 79.0714
" />
<path d="M241.4661 79.0714
L241.4661 79.2143
" />
<path d="M241.4661 79.2143
L241.5375 79.3571
" />
<path d="M241.5375 79.3571
L241.6089 79.4286
" />
<path d="M241.6089 79.4286
L241.7518 79.5000
" />
<path d="M241.7518 79.5000
L242.0375 79.5714
" />
<path d="M242.0375 79.5714
L242.3946 79.5714
" />
<path d="M242.3946 79.5714
L242.6804 79.5000
" />
<path d="M242.6804 79.5000
L242.8232 79.4286
" />
<path d="M242.8232 79.4286
L242.8946 79.3571
" />
<path d="M242.8946 79.3571
L242.9661 79.2143
" />
<path d="M241.4661 76.9286
L242.4661 76.9286
" />
<path d="M242.3232 76.9286
L242.3946 76.8571
" />
<path d="M242.3946 76.8571
L242.4661 76.7143
" />
<path d="M242.4661 76.7143
L242.4661 76.5000
" />
<path d="M242.4661 76.5000
L242.3946 76.3571
" />
<path d="M242.3946 76.3571
L242.2518 76.2857
" />
<path d="M242.2518 76.2857
L241.4661 76.2857
" />
<path d="M242.2518 76.2857
L242.3946 76.2143
" />
<path d="M242.3946 76.2143
L242.4661 76.0714
" />
<path d="M242.4661 76.0714
L242.4661 75.8571
" />
<path d="M242.4661 75.8571
L242.3946 75.7143
" />
<path d="M242.3946 75.7143
L242.2518 75.6429
" />
<path d="M242.2518 75.6429
L241.4661 75.6429
" />
<path d="M241.4661 74.9286
L242.4661 74.9286
" />
<path d="M242.3232 74.9286
L242.3946 74.8571
" />
<path d="M242.3946 74.8571
L242.4661 74.7143
" />
<path d="M242.4661 74.7143
L242.4661 74.5000
" />
<path d="M242.4661 74.5000
L242.3946 74.3571
" />
<path d="M242.3946 74.3571
L242.2518 74.2857
" />
<path d="M242.2518 74.2857
L241.4661 74.2857
" />
<path d="M242.2518 74.2857
L242.3946 74.2143
" />
<path d="M242.3946 74.2143
L242.4661 74.0714
" />
<path d="M242.4661 74.0714
L242.4661 73.8571
" />
<path d="M242.4661 73.8571
L242.3946 73.7143
" />
<path d="M242.3946 73.7143
L242.2518 73.6429
" />
<path d="M242.2518 73.6429
L241.4661 73.6429
" />
</g><path d="M242.5022 89.0000
L239.9158 89.0000
" />
<path d="M242.5022 72.0000
L239.9158 72.0000
" />
<path d="M240.5022 89.0000
L240.5022 72.0000
" />
<path d="M240.5022 89.0000
L240.5022 72.0000
" />
<path d="M240.5022 89.0000
L241.0886 87.8735
" />
<path d="M240.5022 89.0000
L239.9158 87.8735
" />
<path d="M240.5022 72.0000
L239.9158 73.1265
" />
<path d="M240.5022 72.0000
L241.0886 73.1265
" />
<g transform="rotate(-90.000000 176.1522 80.5000)">
<text x="176.1522" y="81.2500"
textLength="14.5786" font-size="2.0000" lengthAdjust="spacingAndGlyphs"
text-anchor="middle" opacity="0">56.0000 mm</text>
</g>
<g class="stroked-text"><desc>56.0000 mm</desc>
<path d="M176.9661 86.6429
L176.9661 87.3571
" />
<path d="M176.9661 87.3571
L176.2518 87.4286
" />
<path d="M176.2518 87.4286
L176.3232 87.3571
" />
<path d="M176.3232 87.3571
L176.3946 87.2143
" />
<path d="M176.3946 87.2143
L176.3946 86.8571
" />
<path d="M176.3946 86.8571
L176.3232 86.7143
" />
<path d="M176.3232 86.7143
L176.2518 86.6429
" />
<path d="M176.2518 86.6429
L176.1089 86.5714
" />
<path d="M176.1089 86.5714
L175.7518 86.5714
" />
<path d="M175.7518 86.5714
L175.6089 86.6429
" />
<path d="M175.6089 86.6429
L175.5375 86.7143
" />
<path d="M175.5375 86.7143
L175.4661 86.8571
" />
<path d="M175.4661 86.8571
L175.4661 87.2143
" />
<path d="M175.4661 87.2143
L175.5375 87.3571
" />
<path d="M175.5375 87.3571
L175.6089 87.4286
" />
<path d="M176.9661 85.2857
L176.9661 85.5714
" />
<path d="M176.9661 85.5714
L176.8946 85.7143
" />
<path d="M176.8946 85.7143
L176.8232 85.7857
" />
<path d="M176.8232 85.7857
L176.6089 85.9286
" />
<path d="M176.6089 85.9286
L176.3232 86.0000
" />
<path d="M176.3232 86.0000
L175.7518 86.0000
" />
<path d="M175.7518 86.0000
L175.6089 85.9286
" />
<path d="M175.6089 85.9286
L175.5375 85.8571
" />
<path d="M175.5375 85.8571
L175.4661 85.7143
" />
<path d="M175.4661 85.7143
L175.4661 85.4286
" />
<path d="M175.4661 85.4286
L175.5375 85.2857
" />
<path d="M175.5375 85.2857
L175.6089 85.2143
" />
<path d="M175.6089 85.2143
L175.7518 85.1429
" />
<path d="M175.7518 85.1429
L176.1089 85.1429
" />
<path d="M176.1089 85.1429
L176.2518 85.2143
" />
<path d="M176.2518 85.2143
L176.3232 85.2857
" />
<path d="M176.3232 85.2857
L176.3946 85.4286
" />
<path d="M176.3946 85.4286
L176.3946 85.7143
" />
<path d="M176.3946 85.7143
L176.3232 85.8571
" />
<path d="M176.3232 85.8571
L176.2518 85.9286
" />
<path d="M176.2518 85.9286
L176.1089 86.0000
" />
<path d="M175.6089 84.5000
L175.5375 84.4286
" />
<path d="M175.5375 84.4286
L175.4661 84.5000
" />
<path d="M175.4661 84.5000
L175.5375 84.5714
" />
<path d="M175.5375 84.5714
L175.6089 84.5000
" />
<path d="M175.6089 84.5000
L175.4661 84.5000
" />
<path d="M176.9661 83.5000
L176.9661 83.3571
" />
<path d="M176.9661 83.3571
L176.8946 83.2143
" />
<path d="M176.8946 83.2143
L176.8232 83.1429
" />
<path d="M176.8232 83.1429
L176.6804 83.0714
" />
<path d="M176.6804 83.0714
L176.3946 83.0000
" />
<path d="M176.3946 83.0000
L176.0375 83.0000
" />
<path d="M176.0375 83.0000
L175.7518 83.0714
" />
<path d="M175.7518 83.0714
L175.6089 83.1429
" />
<path d="M175.6089 83.1429
L175.5375 83.2143
" />
<path d="M175.5375 83.2143
L175.4661 83.3571
" />
<path d="M175.4661 83.3571
L175.4661 83.5000
" />
<path d="M175.4661 83.5000
L175.5375 83.6429
" />
<path d="M175.5375 83.6429
L175.6089 83.7143
" />
<path d="M175.6089 83.7143
L175.7518 83.7857
" />
<path d="M175.7518 83.7857
L176.0375 83.8571
" />
<path d="M176.0375 83.8571
L176.3946 83.8571
" />
<path d="M176.3946 83.8571
L176.6804 83.7857
" />
<path d="M176.6804 83.7857
L176.8232 83.7143
" />
<path d="M176.8232 83.7143
L176.8946 83.6429
" />
<path d="M176.8946 83.6429
L176.9661 83.5000
" />
<path d="M176.9661 82.0714
L176.9661 81.9286
" />
<path d="M176.9661 81.9286
L176.8946 81.7857
" />
<path d="M176.8946 81.7857
L176.8232 81.7143
" />
<path d="M176.8232 81.7143
L176.6804 81.6429
" />
<path d="M176.6804 81.6429
L176.3946 81.5714
" />
<path d="M176.3946 81.5714
L176.0375 81.5714
" />
<path d="M176.0375 81.5714
L175.7518 81.6429
" />
<path d="M175.7518 81.6429
L175.6089 81.7143
" />
<path d="M175.6089 81.7143
L175.5375 81.7857
" />
<path d="M175.5375 81.7857
L175.4661 81.9286
" />
<path d="M175.4661 81.9286
L175.4661 82.0714
" />
<path d="M175.4661 82.0714
L175.5375 82.2143
" />
<path d="M175.5375 82.2143
L175.6089 82.2857
" />
<path d="M175.6089 82.2857
L175.7518 82.3571
" />
<path d="M175.7518 82.3571
L176.0375 82.4286
" />
<path d="M176.0375 82.4286
L176.3946 82.4286
" />
<path d="M176.3946 82.4286
L176.6804 82.3571
" />
<path d="M176.6804 82.3571
L176.8232 82.2857
" />
<path d="M176.8232 82.2857
L176.8946 82.2143
" />
<path d="M176.8946 82.2143
L176.9661 82.0714
" />
<path d="M176.9661 80.6429
L176.9661 80.5000
" />
<path d="M176.9661 80.5000
L176.8946 80.3571
" />
<path d="M176.8946 80.3571
L176.8232 80.2857
" />
<path d="M176.8232 80.2857
L176.6804 80.2143
" />
<path d="M176.6804 80.2143
L176.3946 80.1429
" />
<path d="M176.3946 80.1429
L176.0375 80.1429
" />
<path d="M176.0375 80.1429
L175.7518 80.2143
" />
<path d="M175.7518 80.2143
L175.6089 80.2857
" />
<path d="M175.6089 80.2857
L175.5375 80.3571
" />
<path d="M175.5375 80.3571
L175.4661 80.5000
" />
<path d="M175.4661 80.5000
L175.4661 80.6429
" />
<path d="M175.4661 80.6429
L175.5375 80.7857
" />
<path d="M175.5375 80.7857
L175.6089 80.8571
" />
<path d="M175.6089 80.8571
L175.7518 80.9286
" />
<path d="M175.7518 80.9286
L176.0375 81.0000
" />
<path d="M176.0375 81.0000
L176.3946 81.0000
" />
<path d="M176.3946 81.0000
L176.6804 80.9286
" />
<path d="M176.6804 80.9286
L176.8232 80.8571
" />
<path d="M176.8232 80.8571
L176.8946 80.7857
" />
<path d="M176.8946 80.7857
L176.9661 80.6429
" />
<path d="M176.9661 79.2143
L176.9661 79.0714
" />
<path d="M176.9661 79.0714
L176.8946 78.9286
" />
<path d="M176.8946 78.9286
L176.8232 78.8571
" />
<path d="M176.8232 78.8571
L176.6804 78.7857
" />
<path d="M176.6804 78.7857
L176.3946 78.7143
" />
<path d="M176.3946 78.7143
L176.0375 78.7143
" />
<path d="M176.0375 78.7143
L175.7518 78.7857
" />
<path d="M175.7518 78.7857
L175.6089 78.8571
" />
<path d="M175.6089 78.8571
L175.5375 78.9286
" />
<path d="M175.5375 78.9286
L175.4661 79.0714
" />
<path d="M175.4661 79.0714
L175.4661 79.2143
" />
<path d="M175.4661 79.2143
L175.5375 79.3571
" />
<path d="M175.5375 79.3571
L175.6089 79.4286
" />
<path d="M175.6089 79.4286
L175.7518 79.5000
" />
<path d="M175.7518 79.5000
L176.0375 79.5714
" />
<path d="M176.0375 79.5714
L176.3946 79.5714
" />
<path d="M176.3946 79.5714
L176.6804 79.5000
" />
<path d="M176.6804 79.5000
L176.8232 79.4286
" />
<path d="M176.8232 79.4286
L176.8946 79.3571
" />
<path d="M176.8946 79.3571
L176.9661 79.2143
" />
<path d="M175.4661 76.9286
L176.4661 76.9286
" />
<path d="M176.3232 76.9286
L176.3946 76.8571
" />
<path d="M176.3946 76.8571
L176.4661 76.7143
" />
<path d="M176.4661 76.7143
L176.4661 76.5000
" />
<path d="M176.4661 76.5000
L176.3946 76.3571
" />
<path d="M176.3946 76.3571
L176.2518 76.2857
" />
<path d="M176.2518 76.2857
L175.4661 76.2857
" />
<path d="M176.2518 76.2857
L176.3946 76.2143
" />
<path d="M176.3946 76.2143
L176.4661 76.0714
" />
<path d="M176.4661 76.0714
L176.4661 75.8571
" />
<path d="M176.4661 75.8571
L176.3946 75.7143
" />
<path d="M176.3946 75.7143
L176.2518 75.6429
" />
<path d="M176.2518 75.6429
L175.4661 75.6429
" />
<path d="M175.4661 74.9286
L176.4661 74.9286
" />
<path d="M176.3232 74.9286
L176.3946 74.8571
" />
<path d="M176.3946 74.8571
L176.4661 74.7143
" />
<path d="M176.4661 74.7143
L176.4661 74.5000
" />
<path d="M176.4661 74.5000
L176.3946 74.3571
" />
<path d="M176.3946 74.3571
L176.2518 74.2857
" />
<path d="M176.2518 74.2857
L175.4661 74.2857
" />
<path d="M176.2518 74.2857
L176.3946 74.2143
" />
<path d="M176.3946 74.2143
L176.4661 74.0714
" />
<path d="M176.4661 74.0714
L176.4661 73.8571
" />
<path d="M176.4661 73.8571
L176.3946 73.7143
" />
<path d="M176.3946 73.7143
L176.2518 73.6429
" />
<path d="M176.2518 73.6429
L175.4661 73.6429
" />
</g><path d="M182.5022 108.5000
L173.9158 108.5000
" />
<path d="M182.5022 52.5000
L173.9158 52.5000
" />
<path d="M174.5022 108.5000
L174.5022 52.5000
" />
<path d="M174.5022 108.5000
L174.5022 52.5000
" />
<path d="M174.5022 108.5000
L175.0886 107.3735
" />
<path d="M174.5022 108.5000
L173.9158 107.3735
" />
<path d="M174.5022 52.5000
L173.9158 53.6265
" />
<path d="M174.5022 52.5000
L175.0886 53.6265
" />
<g transform="rotate(-90.000000 181.1522 80.5000)">
<text x="181.1522" y="81.2500"
textLength="14.5786" font-size="2.0000" lengthAdjust="spacingAndGlyphs"
text-anchor="middle" opacity="0">49.0000 mm</text>
</g>
<g class="stroked-text"><desc>49.0000 mm</desc>
<path d="M181.4661 86.7143
L180.4661 86.7143
" />
<path d="M182.0375 87.0714
L180.9661 87.4286
" />
<path d="M180.9661 87.4286
L180.9661 86.5000
" />
<path d="M180.4661 85.8571
L180.4661 85.5714
" />
<path d="M180.4661 85.5714
L180.5375 85.4286
" />
<path d="M180.5375 85.4286
L180.6089 85.3571
" />
<path d="M180.6089 85.3571
L180.8232 85.2143
" />
<path d="M180.8232 85.2143
L181.1089 85.1429
" />
<path d="M181.1089 85.1429
L181.6804 85.1429
" />
<path d="M181.6804 85.1429
L181.8232 85.2143
" />
<path d="M181.8232 85.2143
L181.8946 85.2857
" />
<path d="M181.8946 85.2857
L181.9661 85.4286
" />
<path d="M181.9661 85.4286
L181.9661 85.7143
" />
<path d="M181.9661 85.7143
L181.8946 85.8571
" />
<path d="M181.8946 85.8571
L181.8232 85.9286
" />
<path d="M181.8232 85.9286
L181.6804 86.0000
" />
<path d="M181.6804 86.0000
L181.3232 86.0000
" />
<path d="M181.3232 86.0000
L181.1804 85.9286
" />
<path d="M181.1804 85.9286
L181.1089 85.8571
" />
<path d="M181.1089 85.8571
L181.0375 85.7143
" />
<path d="M181.0375 85.7143
L181.0375 85.4286
" />
<path d="M181.0375 85.4286
L181.1089 85.2857
" />
<path d="M181.1089 85.2857
L181.1804 85.2143
" />
<path d="M181.1804 85.2143
L181.3232 85.1429
" />
<path d="M180.6089 84.5000
L180.5375 84.4286
" />
<path d="M180.5375 84.4286
L180.4661 84.5000
" />
<path d="M180.4661 84.5000
L180.5375 84.5714
" />
<path d="M180.5375 84.5714
L180.6089 84.5000
" />
<path d="M180.6089 84.5000
L180.4661 84.5000
" />
<path d="M181.9661 83.5000
L181.9661 83.3571
" />
<path d="M181.9661 83.3571
L181.8946 83.2143
" />
<path d="M181.8946 83.2143
L181.8232 83.1429
" />
<path d="M181.8232 83.1429
L181.6804 83.0714
" />
<path d="M181.6804 83.0714
L181.3946 83.0000
" />
<path d="M181.3946 83.0000
L181.0375 83.0000
" />
<path d="M181.0375 83.0000
L180.7518 83.0714
" />
<path d="M180.7518 83.0714
L180.6089 83.1429
" />
<path d="M180.6089 83.1429
L180.5375 83.2143
" />
<path d="M180.5375 83.2143
L180.4661 83.3571
" />
<path d="M180.4661 83.3571
L180.4661 83.5000
" />
<path d="M180.4661 83.5000
L180.5375 83.6429
" />
<path d="M180.5375 83.6429
L180.6089 83.7143
" />
<path d="M180.6089 83.7143
L180.7518 83.7857
" />
<path d="M180.7518 83.7857
L181.0375 83.8571
" />
<path d="M181.0375 83.8571
L181.3946 83.8571
" />
<path d="M181.3946 83.8571
L181.6804 83.7857
" />
<path d="M181.6804 83.7857
L181.8232 83.7143
" />
<path d="M181.8232 83.7143
L181.8946 83.6429
" />
<path d="M181.8946 83.6429
L181.9661 83.5000
" />
<path d="M181.9661 82.0714
L181.9661 81.9286
" />
<path d="M181.9661 81.9286
L181.8946 81.7857
" />
<path d="M181.8946 81.7857
L181.8232 81.7143
" />
<path d="M181.8232 81.7143
L181.6804 81.6429
" />
<path d="M181.6804 81.6429
L181.3946 81.5714
" />
<path d="M181.3946 81.5714
L181.0375 81.5714
" />
<path d="M181.0375 81.5714
L180.7518 81.6429
" />
<path d="M180.7518 81.6429
L180.6089 81.7143
" />
<path d="M180.6089 81.7143
L180.5375 81.7857
" />
<path d="M180.5375 81.7857
L180.4661 81.9286
" />
<path d="M180.4661 81.9286
L180.4661 82.0714
" />
<path d="M180.4661 82.0714
L180.5375 82.2143
" />
<path d="M180.5375 82.2143
L180.6089 82.2857
" />
<path d="M180.6089 82.2857
L180.7518 82.3571
" />
<path d="M180.7518 82.3571
L181.0375 82.4286
" />
<path d="M181.0375 82.4286
L181.3946 82.4286
" />
<path d="M181.3946 82.4286
L181.6804 82.3571
" />
<path d="M181.6804 82.3571
L181.8232 82.2857
" />
<path d="M181.8232 82.2857
L181.8946 82.2143
" />
<path d="M181.8946 82.2143
L181.9661 82.0714
" />
<path d="M181.9661 80.6429
L181.9661 80.5000
" />
<path d="M181.9661 80.5000
L181.8946 80.3571
" />
<path d="M181.8946 80.3571
L181.8232 80.2857
" />
<path d="M181.8232 80.2857
L181.6804 80.2143
" />
<path d="M181.6804 80.2143
L181.3946 80.1429
" />
<path d="M181.3946 80.1429
L181.0375 80.1429
" />
<path d="M181.0375 80.1429
L180.7518 80.2143
" />
<path d="M180.7518 80.2143
L180.6089 80.2857
" />
<path d="M180.6089 80.2857
L180.5375 80.3571
" />
<path d="M180.5375 80.3571
L180.4661 80.5000
" />
<path d="M180.4661 80.5000
L180.4661 80.6429
" />
<path d="M180.4661 80.6429
L180.5375 80.7857
" />
<path d="M180.5375 80.7857
L180.6089 80.8571
" />
<path d="M180.6089 80.8571
L180.7518 80.9286
" />
<path d="M180.7518 80.9286
L181.0375 81.0000
" />
<path d="M181.0375 81.0000
L181.3946 81.0000
" />
<path d="M181.3946 81.0000
L181.6804 80.9286
" />
<path d="M181.6804 80.9286
L181.8232 80.8571
" />
<path d="M181.8232 80.8571
L181.8946 80.7857
" />
<path d="M181.8946 80.7857
L181.9661 80.6429
" />
<path d="M181.9661 79.2143
L181.9661 79.0714
" />
<path d="M181.9661 79.0714
L181.8946 78.9286
" />
<path d="M181.8946 78.9286
L181.8232 78.8571
" />
<path d="M181.8232 78.8571
L181.6804 78.7857
" />
<path d="M181.6804 78.7857
L181.3946 78.7143
" />
<path d="M181.3946 78.7143
L181.0375 78.7143
" />
<path d="M181.0375 78.7143
L180.7518 78.7857
" />
<path d="M180.7518 78.7857
L180.6089 78.8571
" />
<path d="M180.6089 78.8571
L180.5375 78.9286
" />
<path d="M180.5375 78.9286
L180.4661 79.0714
" />
<path d="M180.4661 79.0714
L180.4661 79.2143
" />
<path d="M180.4661 79.2143
L180.5375 79.3571
" />
<path d="M180.5375 79.3571
L180.6089 79.4286
" />
<path d="M180.6089 79.4286
L180.7518 79.5000
" />
<path d="M180.7518 79.5000
L181.0375 79.5714
" />
<path d="M181.0375 79.5714
L181.3946 79.5714
" />
<path d="M181.3946 79.5714
L181.6804 79.5000
" />
<path d="M181.6804 79.5000
L181.8232 79.4286
" />
<path d="M181.8232 79.4286
L181.8946 79.3571
" />
<path d="M181.8946 79.3571
L181.9661 79.2143
" />
<path d="M180.4661 76.9286
L181.4661 76.9286
" />
<path d="M181.3232 76.9286
L181.3946 76.8571
" />
<path d="M181.3946 76.8571
L181.4661 76.7143
" />
<path d="M181.4661 76.7143
L181.4661 76.5000
" />
<path d="M181.4661 76.5000
L181.3946 76.3571
" />
<path d="M181.3946 76.3571
L181.2518 76.2857
" />
<path d="M181.2518 76.2857
L180.4661 76.2857
" />
<path d="M181.2518 76.2857
L181.3946 76.2143
" />
<path d="M181.3946 76.2143
L181.4661 76.0714
" />
<path d="M181.4661 76.0714
L181.4661 75.8571
" />
<path d="M181.4661 75.8571
L181.3946 75.7143
" />
<path d="M181.3946 75.7143
L181.2518 75.6429
" />
<path d="M181.2518 75.6429
L180.4661 75.6429
" />
<path d="M180.4661 74.9286
L181.4661 74.9286
" />
<path d="M181.3232 74.9286
L181.3946 74.8571
" />
<path d="M181.3946 74.8571
L181.4661 74.7143
" />
<path d="M181.4661 74.7143
L181.4661 74.5000
" />
<path d="M181.4661 74.5000
L181.3946 74.3571
" />
<path d="M181.3946 74.3571
L181.2518 74.2857
" />
<path d="M181.2518 74.2857
L180.4661 74.2857
" />
<path d="M181.2518 74.2857
L181.3946 74.2143
" />
<path d="M181.3946 74.2143
L181.4661 74.0714
" />
<path d="M181.4661 74.0714
L181.4661 73.8571
" />
<path d="M181.4661 73.8571
L181.3946 73.7143
" />
<path d="M181.3946 73.7143
L181.2518 73.6429
" />
<path d="M181.2518 73.6429
L180.4661 73.6429
" />
</g><path d="M182.5022 105.0000
L178.9158 105.0000
" />
<path d="M182.5022 56.0000
L178.9158 56.0000
" />
<path d="M179.5022 105.0000
L179.5022 56.0000
" />
<path d="M179.5022 105.0000
L179.5022 56.0000
" />
<path d="M179.5022 105.0000
L180.0886 103.8735
" />
<path d="M179.5022 105.0000
L178.9158 103.8735
" />
<path d="M179.5022 56.0000
L178.9158 57.1265
" />
<path d="M179.5022 56.0000
L180.0886 57.1265
" />
<text x="246.7522" y="111.1000"
textLength="13.1500" font-size="2.0000" lengthAdjust="spacingAndGlyphs"
text-anchor="middle" opacity="0">3.5000 mm</text>
<g class="stroked-text"><desc>3.5000 mm</desc>
<path d="M253.0379 109.5361
L252.1093 109.5361
" />
<path d="M252.1093 109.5361
L252.6093 110.1076
" />
<path d="M252.6093 110.1076
L252.3951 110.1076
" />
<path d="M252.3951 110.1076
L252.2522 110.1790
" />
<path d="M252.2522 110.1790
L252.1808 110.2504
" />
<path d="M252.1808 110.2504
L252.1093 110.3933
" />
<path d="M252.1093 110.3933
L252.1093 110.7504
" />
<path d="M252.1093 110.7504
L252.1808 110.8933
" />
<path d="M252.1808 110.8933
L252.2522 110.9647
" />
<path d="M252.2522 110.9647
L252.3951 111.0361
" />
<path d="M252.3951 111.0361
L252.8236 111.0361
" />
<path d="M252.8236 111.0361
L252.9665 110.9647
" />
<path d="M252.9665 110.9647
L253.0379 110.8933
" />
<path d="M251.4665 110.8933
L251.3951 110.9647
" />
<path d="M251.3951 110.9647
L251.4665 111.0361
" />
<path d="M251.4665 111.0361
L251.5379 110.9647
" />
<path d="M251.5379 110.9647
L251.4665 110.8933
" />
<path d="M251.4665 110.8933
L251.4665 111.0361
" />
<path d="M250.0379 109.5361
L250.7522 109.5361
" />
<path d="M250.7522 109.5361
L250.8236 110.2504
" />
<path d="M250.8236 110.2504
L250.7522 110.1790
" />
<path d="M250.7522 110.1790
L250.6093 110.1076
" />
<path d="M250.6093 110.1076
L250.2522 110.1076
" />
<path d="M250.2522 110.1076
L250.1093 110.1790
" />
<path d="M250.1093 110.1790
L250.0379 110.2504
" />
<path d="M250.0379 110.2504
L249.9665 110.3933
" />
<path d="M249.9665 110.3933
L249.9665 110.7504
" />
<path d="M249.9665 110.7504
L250.0379 110.8933
" />
<path d="M250.0379 110.8933
L250.1093 110.9647
" />
<path d="M250.1093 110.9647
L250.2522 111.0361
" />
<path d="M250.2522 111.0361
L250.6093 111.0361
" />
<path d="M250.6093 111.0361
L250.7522 110.9647
" />
<path d="M250.7522 110.9647
L250.8236 110.8933
" />
<path d="M249.0379 109.5361
L248.8951 109.5361
" />
<path d="M248.8951 109.5361
L248.7522 109.6076
" />
<path d="M248.7522 109.6076
L248.6808 109.6790
" />
<path d="M248.6808 109.6790
L248.6093 109.8218
" />
<path d="M248.6093 109.8218
L248.5379 110.1076
" />
<path d="M248.5379 110.1076
L248.5379 110.4647
" />
<path d="M248.5379 110.4647
L248.6093 110.7504
" />
<path d="M248.6093 110.7504
L248.6808 110.8933
" />
<path d="M248.6808 110.8933
L248.7522 110.9647
" />
<path d="M248.7522 110.9647
L248.8951 111.0361
" />
<path d="M248.8951 111.0361
L249.0379 111.0361
" />
<path d="M249.0379 111.0361
L249.1808 110.9647
" />
<path d="M249.1808 110.9647
L249.2522 110.8933
" />
<path d="M249.2522 110.8933
L249.3236 110.7504
" />
<path d="M249.3236 110.7504
L249.3951 110.4647
" />
<path d="M249.3951 110.4647
L249.3951 110.1076
" />
<path d="M249.3951 110.1076
L249.3236 109.8218
" />
<path d="M249.3236 109.8218
L249.2522 109.6790
" />
<path d="M249.2522 109.6790
L249.1808 109.6076
" />
<path d="M249.1808 109.6076
L249.0379 109.5361
" />
<path d="M247.6093 109.5361
L247.4665 109.5361
" />
<path d="M247.4665 109.5361
L247.3236 109.6076
" />
<path d="M247.3236 109.6076
L247.2522 109.6790
" />
<path d="M247.2522 109.6790
L247.1808 109.8218
" />
<path d="M247.1808 109.8218
L247.1093 110.1076
" />
<path d="M247.1093 110.1076
L247.1093 110.4647
" />
<path d="M247.1093 110.4647
L247.1808 110.7504
" />
<path d="M247.1808 110.7504
L247.2522 110.8933
" />
<path d="M247.2522 110.8933
L247.3236 110.9647
" />
<path d="M247.3236 110.9647
L247.4665 111.0361
" />
<path d="M247.4665 111.0361
L247.6093 111.0361
" />
<path d="M247.6093 111.0361
L247.7522 110.9647
" />
<path d="M247.7522 110.9647
L247.8236 110.8933
" />
<path d="M247.8236 110.8933
L247.8951 110.7504
" />
<path d="M247.8951 110.7504
L247.9665 110.4647
" />
<path d="M247.9665 110.4647
L247.9665 110.1076
" />
<path d="M247.9665 110.1076
L247.8951 109.8218
" />
<path d="M247.8951 109.8218
L247.8236 109.6790
" />
<path d="M247.8236 109.6790
L247.7522 109.6076
" />
<path d="M247.7522 109.6076
L247.6093 109.5361
" />
<path d="M246.1808 109.5361
L246.0379 109.5361
" />
<path d="M246.0379 109.5361
L245.8951 109.6076
" />
<path d="M245.8951 109.6076
L245.8236 109.6790
" />
<path d="M245.8236 109.6790
L245.7522 109.8218
" />
<path d="M245.7522 109.8218
L245.6808 110.1076
" />
<path d="M245.6808 110.1076
L245.6808 110.4647
" />
<path d="M245.6808 110.4647
L245.7522 110.7504
" />
<path d="M245.7522 110.7504
L245.8236 110.8933
" />
<path d="M245.8236 110.8933
L245.8951 110.9647
" />
<path d="M245.8951 110.9647
L246.0379 111.0361
" />
<path d="M246.0379 111.0361
L246.1808 111.0361
" />
<path d="M246.1808 111.0361
L246.3236 110.9647
" />
<path d="M246.3236 110.9647
L246.3951 110.8933
" />
<path d="M246.3951 110.8933
L246.4665 110.7504
" />
<path d="M246.4665 110.7504
L246.5379 110.4647
" />
<path d="M246.5379 110.4647
L246.5379 110.1076
" />
<path d="M246.5379 110.1076
L246.4665 109.8218
" />
<path d="M246.4665 109.8218
L246.3951 109.6790
" />
<path d="M246.3951 109.6790
L246.3236 109.6076
" />
<path d="M246.3236 109.6076
L246.1808 109.5361
" />
<path d="M243.8951 111.0361
L243.8951 110.0361
" />
<path d="M243.8951 110.1790
L243.8236 110.1076
" />
<path d="M243.8236 110.1076
L243.6808 110.0361
" />
<path d="M243.6808 110.0361
L243.4665 110.0361
" />
<path d="M243.4665 110.0361
L243.3236 110.1076
" />
<path d="M243.3236 110.1076
L243.2522 110.2504
" />
<path d="M243.2522 110.2504
L243.2522 111.0361
" />
<path d="M243.2522 110.2504
L243.1808 110.1076
" />
<path d="M243.1808 110.1076
L243.0379 110.0361
" />
<path d="M243.0379 110.0361
L242.8236 110.0361
" />
<path d="M242.8236 110.0361
L242.6808 110.1076
" />
<path d="M242.6808 110.1076
L242.6093 110.2504
" />
<path d="M242.6093 110.2504
L242.6093 111.0361
" />
<path d="M241.8951 111.0361
L241.8951 110.0361
" />
<path d="M241.8951 110.1790
L241.8236 110.1076
" />
<path d="M241.8236 110.1076
L241.6808 110.0361
" />
<path d="M241.6808 110.0361
L241.4665 110.0361
" />
<path d="M241.4665 110.0361
L241.3236 110.1076
" />
<path d="M241.3236 110.1076
L241.2522 110.2504
" />
<path d="M241.2522 110.2504
L241.2522 111.0361
" />
<path d="M241.2522 110.2504
L241.1808 110.1076
" />
<path d="M241.1808 110.1076
L241.0379 110.0361
" />
<path d="M241.0379 110.0361
L240.8236 110.0361
" />
<path d="M240.8236 110.0361
L240.6808 110.1076
" />
<path d="M240.6808 110.1076
L240.6093 110.2504
" />
<path d="M240.6093 110.2504
L240.6093 111.0361
" />
</g><path d="M245.0022 109.5000
L245.0022 112.5864
" />
<path d="M248.5022 109.5000
L248.5022 112.5864
" />
<path d="M245.0022 112.0000
L248.5022 112.0000
" />
<path d="M245.0022 112.0000
L248.5022 112.0000
" />
<path d="M245.0022 112.0000
L246.1287 112.5864
" />
<path d="M245.0022 112.0000
L246.1287 111.4136
" />
<path d="M248.5022 112.0000
L247.3757 111.4136
" />
<path d="M248.5022 112.0000
L247.3757 112.5864
" />
<g >
</g>
<g >
</g>
<g >
</g>
<g >
</g>
<g >
</g>
<g >
</g>
<g >
</g>
<g >
</g>
<g >
</g>
<g >
</g>
<g >
</g>
<g >
</g>
<g >
</g>
<g >
</g>
<g >
</g>
<g >
</g>
<g >
</g>
<g >
</g>
<g >
</g>
<g >
</g>
<g >
</g>
<g >
</g>
<g >
</g>
<g >
</g>
<g >
</g>
<g >
</g>
<g >
</g>
<g >
</g>
<g >
</g>
<g >
</g>
<g >
</g>
<g >
</g>
<g >
</g>
<g >
</g>
<g >
</g>
<g >
</g>
<g >
</g>
<g >
</g>
<g >
</g>
<g >
</g>
<g >
</g>
<g >
</g>
<g >
</g>
<g >
</g>
<g >
</g>
<g >
</g>
<g >
</g>
<g >
</g>
<g >
</g>
<g >
</g>
<g >
</g>
<g >
</g>
<g >
</g>
<g >
</g>
<g >
</g>
<g >
</g>
<g >
</g>
<g >
</g>
<g >
</g>
<g >
</g>
<g >
</g>
<g >
</g>
<g >
</g>
<g >
</g>
<g >
</g>
<g >
</g>
<g >
</g>
<g >
</g>
<g >
</g>
<g >
</g>
<g >
</g>
<g >
</g>
<g >
</g>
<g >
</g>
<g >
</g>
<g >
</g>
<g >
</g>
<g >
</g>
<g >
</g>
</g> 
</svg>
