<?xml version="1.0" standalone="no"?>
 <!DOCTYPE svg PUBLIC "-//W3C//DTD SVG 1.1//EN" 
 "http://www.w3.org/Graphics/SVG/1.1/DTD/svg11.dtd"> 
<svg
  xmlns:svg="http://www.w3.org/2000/svg"
  xmlns="http://www.w3.org/2000/svg"
  xmlns:xlink="http://www.w3.org/1999/xlink"
  version="1.1"
  width="297.0022mm" height="210.0072mm" viewBox="0.0000 0.0000 297.0022 210.0072">
<title>SVG Image created as pedalboard-soundcard-B_Silkscreen.svg date 2024/01/07 22:49:24 </title>
  <desc>Image generated by PCBNEW </desc>
<g style="fill:#000000; fill-opacity:1.0000;stroke:#000000; stroke-opacity:1.0000;
stroke-linecap:round; stroke-linejoin:round;"
 transform="translate(0 0) scale(1 1)">
</g>
<g style="fill:#000000; fill-opacity:0.0; 
stroke:#000000; stroke-width:0.0000; stroke-opacity:1; 
stroke-linecap:round; stroke-linejoin:round;">
</g>
<g style="fill:#000000; fill-opacity:0.0; 
stroke:#000000; stroke-width:0.1500; stroke-opacity:1; 
stroke-linecap:round; stroke-linejoin:round;">
<text x="227.8322" y="96.2800"
transform="scale(-1 1) translate(-455.664400 0)"
textLength="1.9643" font-size="1.3333" lengthAdjust="spacingAndGlyphs"
text-anchor="middle" opacity="0">J3</text>
<g class="stroked-text"><desc>J3</desc>
<path d="M227.4989 95.2348
L227.4989 95.9491
" />
<path d="M227.4989 95.9491
L227.4512 96.0920
" />
<path d="M227.4512 96.0920
L227.3560 96.1872
" />
<path d="M227.3560 96.1872
L227.2132 96.2348
" />
<path d="M227.2132 96.2348
L227.1179 96.2348
" />
<path d="M227.8798 95.2348
L228.4989 95.2348
" />
<path d="M228.4989 95.2348
L228.1655 95.6158
" />
<path d="M228.1655 95.6158
L228.3084 95.6158
" />
<path d="M228.3084 95.6158
L228.4036 95.6634
" />
<path d="M228.4036 95.6634
L228.4512 95.7110
" />
<path d="M228.4512 95.7110
L228.4989 95.8062
" />
<path d="M228.4989 95.8062
L228.4989 96.0443
" />
<path d="M228.4989 96.0443
L228.4512 96.1396
" />
<path d="M228.4512 96.1396
L228.4036 96.1872
" />
<path d="M228.4036 96.1872
L228.3084 96.2348
" />
<path d="M228.3084 96.2348
L228.0227 96.2348
" />
<path d="M228.0227 96.2348
L227.9274 96.1872
" />
<path d="M227.9274 96.1872
L227.8798 96.1396
" />
</g><text x="186.3822" y="97.4700"
transform="scale(-1 1) translate(-372.764400 0)"
textLength="1.9643" font-size="1.3333" lengthAdjust="spacingAndGlyphs"
text-anchor="middle" opacity="0">J2</text>
<g class="stroked-text"><desc>J2</desc>
<path d="M186.0489 96.4248
L186.0489 97.1391
" />
<path d="M186.0489 97.1391
L186.0012 97.2820
" />
<path d="M186.0012 97.2820
L185.9060 97.3772
" />
<path d="M185.9060 97.3772
L185.7632 97.4248
" />
<path d="M185.7632 97.4248
L185.6679 97.4248
" />
<path d="M186.4774 96.5201
L186.5251 96.4724
" />
<path d="M186.5251 96.4724
L186.6203 96.4248
" />
<path d="M186.6203 96.4248
L186.8584 96.4248
" />
<path d="M186.8584 96.4248
L186.9536 96.4724
" />
<path d="M186.9536 96.4724
L187.0012 96.5201
" />
<path d="M187.0012 96.5201
L187.0489 96.6153
" />
<path d="M187.0489 96.6153
L187.0489 96.7105
" />
<path d="M187.0489 96.7105
L187.0012 96.8534
" />
<path d="M187.0012 96.8534
L186.4298 97.4248
" />
<path d="M186.4298 97.4248
L187.0489 97.4248
" />
</g></g>
<g style="fill:#000000; fill-opacity:0.0; 
stroke:#000000; stroke-width:0.1200; stroke-opacity:1; 
stroke-linecap:round; stroke-linejoin:round;">
<path d="M227.2522 89.7100
L227.2522 94.9100
" />
<path d="M234.9922 89.7100
L227.2522 89.7100
" />
<path d="M234.9922 89.7100
L234.9922 92.3100
" />
<path d="M232.3922 92.3100
L232.3922 94.9100
" />
<path d="M234.9922 92.3100
L232.3922 92.3100
" />
<path d="M234.9922 93.5800
L234.9922 94.9100
" />
<path d="M232.3922 94.9100
L227.2522 94.9100
" />
<path d="M234.9922 94.9100
L233.6622 94.9100
" />
<path d="M185.4822 95.8100
L190.6822 95.8100
" />
<path d="M185.4822 88.0700
L185.4822 95.8100
" />
<path d="M185.4822 88.0700
L188.0822 88.0700
" />
<path d="M188.0822 90.6700
L190.6822 90.6700
" />
<path d="M188.0822 88.0700
L188.0822 90.6700
" />
<path d="M189.3522 88.0700
L190.6822 88.0700
" />
<path d="M190.6822 90.6700
L190.6822 95.8100
" />
<path d="M190.6822 88.0700
L190.6822 89.4000
" />
<g >
</g>
<g >
</g>
<g >
</g>
<g >
</g>
<g >
</g>
<g >
</g>
<g >
</g>
<g >
</g>
<g >
</g>
<g >
</g>
<g >
</g>
<g >
</g>
<g >
</g>
<g >
</g>
<g >
</g>
<g >
</g>
<g >
</g>
<g >
</g>
<g >
</g>
<g >
</g>
<g >
</g>
<g >
</g>
<g >
</g>
<g >
</g>
<g >
</g>
<g >
</g>
<g >
</g>
<g >
</g>
<g >
</g>
<g >
</g>
<g >
</g>
<g >
</g>
<g >
</g>
<g >
</g>
<g >
</g>
<g >
</g>
<g >
</g>
<g >
</g>
<g >
</g>
<g >
</g>
<g >
</g>
<g >
</g>
<g >
</g>
<g >
</g>
<g >
</g>
<g >
</g>
<g >
</g>
<g >
</g>
<g >
</g>
<g >
</g>
<g >
</g>
<g >
</g>
<g >
</g>
<g >
</g>
<g >
</g>
<g >
</g>
<g >
</g>
<g >
</g>
<g >
</g>
<g >
</g>
<g >
</g>
<g >
</g>
<g >
</g>
<g >
</g>
<g >
</g>
<g >
</g>
<g >
</g>
<g >
</g>
<g >
</g>
<g >
</g>
<g >
</g>
<g >
</g>
<g >
</g>
<g >
</g>
<g >
</g>
<g >
</g>
<g >
</g>
<g >
</g>
<g >
</g>
<g >
</g>
<g >
</g>
<g >
</g>
<g >
</g>
<g >
</g>
<g >
</g>
<g >
</g>
</g> 
</svg>
