<?xml version="1.0" standalone="no"?>
 <!DOCTYPE svg PUBLIC "-//W3C//DTD SVG 1.1//EN" 
 "http://www.w3.org/Graphics/SVG/1.1/DTD/svg11.dtd"> 
<svg
  xmlns:svg="http://www.w3.org/2000/svg"
  xmlns="http://www.w3.org/2000/svg"
  xmlns:xlink="http://www.w3.org/1999/xlink"
  version="1.1"
  width="6.71cm" height="5.811cm" viewBox="47.45 51.45 67.1 58.11">
<title>SVG Image created as pedalboard-soundcard-B_SilkS.svg date 2024/01/07 17:34:31 </title>
  <desc>Image generated by PCBNEW </desc>
<g style="fill:#000000; fill-opacity:1.000000;stroke:#000000; stroke-opacity:1.000000;
stroke-linecap:round; stroke-linejoin:round;"
 transform="translate(0 0) scale(1 1)">
</g>
<g style="fill:#000000; fill-opacity:0.0; 
stroke:#000000; stroke-width:0.000000; stroke-opacity:1; 
stroke-linecap:round; stroke-linejoin:round;">
</g>
<g style="fill:#000000; fill-opacity:0.0; 
stroke:#000000; stroke-width:0.150000; stroke-opacity:1; 
stroke-linecap:round; stroke-linejoin:round;">
<text x="69.170000" y="96.280000"
transform="scale(-1 1) translate(-138.340000 0)"
textLength="1.964286" font-size="1.333333" lengthAdjust="spacingAndGlyphs"
text-anchor="middle" opacity="0">J3</text>
<g class="stroked-text"><desc>J3</desc>
<path d="M69.503333 95.234819
L69.503333 95.949104
" />
<path d="M69.503333 95.949104
L69.550952 96.091961
" />
<path d="M69.550952 96.091961
L69.646190 96.187200
" />
<path d="M69.646190 96.187200
L69.789047 96.234819
" />
<path d="M69.789047 96.234819
L69.884285 96.234819
" />
<path d="M69.122380 95.234819
L68.503333 95.234819
" />
<path d="M68.503333 95.234819
L68.836666 95.615771
" />
<path d="M68.836666 95.615771
L68.693809 95.615771
" />
<path d="M68.693809 95.615771
L68.598571 95.663390
" />
<path d="M68.598571 95.663390
L68.550952 95.711009
" />
<path d="M68.550952 95.711009
L68.503333 95.806247
" />
<path d="M68.503333 95.806247
L68.503333 96.044342
" />
<path d="M68.503333 96.044342
L68.550952 96.139580
" />
<path d="M68.550952 96.139580
L68.598571 96.187200
" />
<path d="M68.598571 96.187200
L68.693809 96.234819
" />
<path d="M68.693809 96.234819
L68.979523 96.234819
" />
<path d="M68.979523 96.234819
L69.074761 96.187200
" />
<path d="M69.074761 96.187200
L69.122380 96.139580
" />
</g><text x="110.620000" y="97.470000"
transform="scale(-1 1) translate(-221.240000 0)"
textLength="1.964286" font-size="1.333333" lengthAdjust="spacingAndGlyphs"
text-anchor="middle" opacity="0">J2</text>
<g class="stroked-text"><desc>J2</desc>
<path d="M110.953333 96.424819
L110.953333 97.139104
" />
<path d="M110.953333 97.139104
L111.000952 97.281961
" />
<path d="M111.000952 97.281961
L111.096190 97.377200
" />
<path d="M111.096190 97.377200
L111.239047 97.424819
" />
<path d="M111.239047 97.424819
L111.334285 97.424819
" />
<path d="M110.524761 96.520057
L110.477142 96.472438
" />
<path d="M110.477142 96.472438
L110.381904 96.424819
" />
<path d="M110.381904 96.424819
L110.143809 96.424819
" />
<path d="M110.143809 96.424819
L110.048571 96.472438
" />
<path d="M110.048571 96.472438
L110.000952 96.520057
" />
<path d="M110.000952 96.520057
L109.953333 96.615295
" />
<path d="M109.953333 96.615295
L109.953333 96.710533
" />
<path d="M109.953333 96.710533
L110.000952 96.853390
" />
<path d="M110.000952 96.853390
L110.572380 97.424819
" />
<path d="M110.572380 97.424819
L109.953333 97.424819
" />
</g></g>
<g style="fill:#000000; fill-opacity:0.0; 
stroke:#000000; stroke-width:0.120000; stroke-opacity:1; 
stroke-linecap:round; stroke-linejoin:round;">
<path d="M69.750000 89.710000
L69.750000 94.910000
" />
<path d="M62.010000 89.710000
L69.750000 89.710000
" />
<path d="M62.010000 89.710000
L62.010000 92.310000
" />
<path d="M64.610000 92.310000
L64.610000 94.910000
" />
<path d="M62.010000 92.310000
L64.610000 92.310000
" />
<path d="M62.010000 93.580000
L62.010000 94.910000
" />
<path d="M64.610000 94.910000
L69.750000 94.910000
" />
<path d="M62.010000 94.910000
L63.340000 94.910000
" />
<path d="M111.520000 95.810000
L106.320000 95.810000
" />
<path d="M111.520000 88.070000
L111.520000 95.810000
" />
<path d="M111.520000 88.070000
L108.920000 88.070000
" />
<path d="M108.920000 90.670000
L106.320000 90.670000
" />
<path d="M108.920000 88.070000
L108.920000 90.670000
" />
<path d="M107.650000 88.070000
L106.320000 88.070000
" />
<path d="M106.320000 90.670000
L106.320000 95.810000
" />
<path d="M106.320000 88.070000
L106.320000 89.400000
" />
<g >
</g>
<g >
</g>
<g >
</g>
<g >
</g>
<g >
</g>
<g >
</g>
<g >
</g>
<g >
</g>
<g >
</g>
<g >
</g>
<g >
</g>
<g >
</g>
<g >
</g>
<g >
</g>
<g >
</g>
<g >
</g>
<g >
</g>
<g >
</g>
<g >
</g>
<g >
</g>
<g >
</g>
<g >
</g>
<g >
</g>
<g >
</g>
<g >
</g>
<g >
</g>
<g >
</g>
<g >
</g>
<g >
</g>
<g >
</g>
<g >
</g>
<g >
</g>
<g >
</g>
<g >
</g>
<g >
</g>
<g >
</g>
<g >
</g>
<g >
</g>
<g >
</g>
<g >
</g>
<g >
</g>
<g >
</g>
<g >
</g>
<g >
</g>
<g >
</g>
<g >
</g>
<g >
</g>
<g >
</g>
<g >
</g>
<g >
</g>
<g >
</g>
<g >
</g>
<g >
</g>
<g >
</g>
<g >
</g>
<g >
</g>
<g >
</g>
<g >
</g>
<g >
</g>
<g >
</g>
<g >
</g>
<g >
</g>
<g >
</g>
<g >
</g>
<g >
</g>
<g >
</g>
<g >
</g>
<g >
</g>
<g >
</g>
<g >
</g>
<g >
</g>
<g >
</g>
<g >
</g>
<g >
</g>
<g >
</g>
<g >
</g>
<g >
</g>
<g >
</g>
<g >
</g>
<g >
</g>
<g >
</g>
<g >
</g>
<g >
</g>
<g >
</g>
<g >
</g>
<g >
</g>
</g> 
</svg>
