<?xml version="1.0" standalone="no"?>
 <!DOCTYPE svg PUBLIC "-//W3C//DTD SVG 1.1//EN" 
 "http://www.w3.org/Graphics/SVG/1.1/DTD/svg11.dtd"> 
<svg
  xmlns:svg="http://www.w3.org/2000/svg"
  xmlns="http://www.w3.org/2000/svg"
  xmlns:xlink="http://www.w3.org/1999/xlink"
  version="1.1"
  width="6.71cm" height="5.811cm" viewBox="47.45 51.45 67.1 58.11">
<title>SVG Image created as pedalboard-soundcard-B_SilkS.svg date 2024/12/15 22:43:11 </title>
  <desc>Image generated by PCBNEW </desc>
<g style="fill:#000000; fill-opacity:1.000000;stroke:#000000; stroke-opacity:1.000000;
stroke-linecap:round; stroke-linejoin:round;"
 transform="translate(0 0) scale(1 1)">
</g>
<g style="fill:none; 
stroke:#000000; stroke-width:0.150000; stroke-opacity:1; 
stroke-linecap:round; stroke-linejoin:round;">
<text x="111.720000" y="66.764090"
transform="scale(-1 1) translate(-223.440000 0)"
textLength="17.509054" font-size="1.066666" lengthAdjust="spacingAndGlyphs"
text-anchor="start" opacity="0" stroke-opacity="0">Open Pedalboard Soundcard</text>
<g class="stroked-text"><desc>Open Pedalboard Soundcard</desc>
<path d="M111.278458 65.858385
L111.126077 65.858385
" />
<path d="M111.126077 65.858385
L111.049887 65.896480
" />
<path d="M111.049887 65.896480
L110.973696 65.972670
" />
<path d="M110.973696 65.972670
L110.935601 66.125051
" />
<path d="M110.935601 66.125051
L110.935601 66.391718
" />
<path d="M110.935601 66.391718
L110.973696 66.544099
" />
<path d="M110.973696 66.544099
L111.049887 66.620290
" />
<path d="M111.049887 66.620290
L111.126077 66.658385
" />
<path d="M111.126077 66.658385
L111.278458 66.658385
" />
<path d="M111.278458 66.658385
L111.354649 66.620290
" />
<path d="M111.354649 66.620290
L111.430839 66.544099
" />
<path d="M111.430839 66.544099
L111.468935 66.391718
" />
<path d="M111.468935 66.391718
L111.468935 66.125051
" />
<path d="M111.468935 66.125051
L111.430839 65.972670
" />
<path d="M111.430839 65.972670
L111.354649 65.896480
" />
<path d="M111.354649 65.896480
L111.278458 65.858385
" />
<path d="M110.592744 66.125051
L110.592744 66.925051
" />
<path d="M110.592744 66.163147
L110.516554 66.125051
" />
<path d="M110.516554 66.125051
L110.364173 66.125051
" />
<path d="M110.364173 66.125051
L110.287982 66.163147
" />
<path d="M110.287982 66.163147
L110.249887 66.201242
" />
<path d="M110.249887 66.201242
L110.211792 66.277432
" />
<path d="M110.211792 66.277432
L110.211792 66.506004
" />
<path d="M110.211792 66.506004
L110.249887 66.582194
" />
<path d="M110.249887 66.582194
L110.287982 66.620290
" />
<path d="M110.287982 66.620290
L110.364173 66.658385
" />
<path d="M110.364173 66.658385
L110.516554 66.658385
" />
<path d="M110.516554 66.658385
L110.592744 66.620290
" />
<path d="M109.564172 66.620290
L109.640363 66.658385
" />
<path d="M109.640363 66.658385
L109.792744 66.658385
" />
<path d="M109.792744 66.658385
L109.868934 66.620290
" />
<path d="M109.868934 66.620290
L109.907030 66.544099
" />
<path d="M109.907030 66.544099
L109.907030 66.239337
" />
<path d="M109.907030 66.239337
L109.868934 66.163147
" />
<path d="M109.868934 66.163147
L109.792744 66.125051
" />
<path d="M109.792744 66.125051
L109.640363 66.125051
" />
<path d="M109.640363 66.125051
L109.564172 66.163147
" />
<path d="M109.564172 66.163147
L109.526077 66.239337
" />
<path d="M109.526077 66.239337
L109.526077 66.315528
" />
<path d="M109.526077 66.315528
L109.907030 66.391718
" />
<path d="M109.183220 66.125051
L109.183220 66.658385
" />
<path d="M109.183220 66.201242
L109.145125 66.163147
" />
<path d="M109.145125 66.163147
L109.068935 66.125051
" />
<path d="M109.068935 66.125051
L108.954649 66.125051
" />
<path d="M108.954649 66.125051
L108.878458 66.163147
" />
<path d="M108.878458 66.163147
L108.840363 66.239337
" />
<path d="M108.840363 66.239337
L108.840363 66.658385
" />
<path d="M107.849886 66.658385
L107.849886 65.858385
" />
<path d="M107.849886 65.858385
L107.545124 65.858385
" />
<path d="M107.545124 65.858385
L107.468934 65.896480
" />
<path d="M107.468934 65.896480
L107.430839 65.934575
" />
<path d="M107.430839 65.934575
L107.392743 66.010766
" />
<path d="M107.392743 66.010766
L107.392743 66.125051
" />
<path d="M107.392743 66.125051
L107.430839 66.201242
" />
<path d="M107.430839 66.201242
L107.468934 66.239337
" />
<path d="M107.468934 66.239337
L107.545124 66.277432
" />
<path d="M107.545124 66.277432
L107.849886 66.277432
" />
<path d="M106.745124 66.620290
L106.821315 66.658385
" />
<path d="M106.821315 66.658385
L106.973696 66.658385
" />
<path d="M106.973696 66.658385
L107.049886 66.620290
" />
<path d="M107.049886 66.620290
L107.087982 66.544099
" />
<path d="M107.087982 66.544099
L107.087982 66.239337
" />
<path d="M107.087982 66.239337
L107.049886 66.163147
" />
<path d="M107.049886 66.163147
L106.973696 66.125051
" />
<path d="M106.973696 66.125051
L106.821315 66.125051
" />
<path d="M106.821315 66.125051
L106.745124 66.163147
" />
<path d="M106.745124 66.163147
L106.707029 66.239337
" />
<path d="M106.707029 66.239337
L106.707029 66.315528
" />
<path d="M106.707029 66.315528
L107.087982 66.391718
" />
<path d="M106.021315 66.658385
L106.021315 65.858385
" />
<path d="M106.021315 66.620290
L106.097506 66.658385
" />
<path d="M106.097506 66.658385
L106.249887 66.658385
" />
<path d="M106.249887 66.658385
L106.326077 66.620290
" />
<path d="M106.326077 66.620290
L106.364172 66.582194
" />
<path d="M106.364172 66.582194
L106.402268 66.506004
" />
<path d="M106.402268 66.506004
L106.402268 66.277432
" />
<path d="M106.402268 66.277432
L106.364172 66.201242
" />
<path d="M106.364172 66.201242
L106.326077 66.163147
" />
<path d="M106.326077 66.163147
L106.249887 66.125051
" />
<path d="M106.249887 66.125051
L106.097506 66.125051
" />
<path d="M106.097506 66.125051
L106.021315 66.163147
" />
<path d="M105.297505 66.658385
L105.297505 66.239337
" />
<path d="M105.297505 66.239337
L105.335600 66.163147
" />
<path d="M105.335600 66.163147
L105.411791 66.125051
" />
<path d="M105.411791 66.125051
L105.564172 66.125051
" />
<path d="M105.564172 66.125051
L105.640362 66.163147
" />
<path d="M105.297505 66.620290
L105.373696 66.658385
" />
<path d="M105.373696 66.658385
L105.564172 66.658385
" />
<path d="M105.564172 66.658385
L105.640362 66.620290
" />
<path d="M105.640362 66.620290
L105.678458 66.544099
" />
<path d="M105.678458 66.544099
L105.678458 66.467909
" />
<path d="M105.678458 66.467909
L105.640362 66.391718
" />
<path d="M105.640362 66.391718
L105.564172 66.353623
" />
<path d="M105.564172 66.353623
L105.373696 66.353623
" />
<path d="M105.373696 66.353623
L105.297505 66.315528
" />
<path d="M104.802267 66.658385
L104.878457 66.620290
" />
<path d="M104.878457 66.620290
L104.916552 66.544099
" />
<path d="M104.916552 66.544099
L104.916552 65.858385
" />
<path d="M104.497504 66.658385
L104.497504 65.858385
" />
<path d="M104.497504 66.163147
L104.421314 66.125051
" />
<path d="M104.421314 66.125051
L104.268933 66.125051
" />
<path d="M104.268933 66.125051
L104.192742 66.163147
" />
<path d="M104.192742 66.163147
L104.154647 66.201242
" />
<path d="M104.154647 66.201242
L104.116552 66.277432
" />
<path d="M104.116552 66.277432
L104.116552 66.506004
" />
<path d="M104.116552 66.506004
L104.154647 66.582194
" />
<path d="M104.154647 66.582194
L104.192742 66.620290
" />
<path d="M104.192742 66.620290
L104.268933 66.658385
" />
<path d="M104.268933 66.658385
L104.421314 66.658385
" />
<path d="M104.421314 66.658385
L104.497504 66.620290
" />
<path d="M103.659409 66.658385
L103.735599 66.620290
" />
<path d="M103.735599 66.620290
L103.773694 66.582194
" />
<path d="M103.773694 66.582194
L103.811790 66.506004
" />
<path d="M103.811790 66.506004
L103.811790 66.277432
" />
<path d="M103.811790 66.277432
L103.773694 66.201242
" />
<path d="M103.773694 66.201242
L103.735599 66.163147
" />
<path d="M103.735599 66.163147
L103.659409 66.125051
" />
<path d="M103.659409 66.125051
L103.545123 66.125051
" />
<path d="M103.545123 66.125051
L103.468932 66.163147
" />
<path d="M103.468932 66.163147
L103.430837 66.201242
" />
<path d="M103.430837 66.201242
L103.392742 66.277432
" />
<path d="M103.392742 66.277432
L103.392742 66.506004
" />
<path d="M103.392742 66.506004
L103.430837 66.582194
" />
<path d="M103.430837 66.582194
L103.468932 66.620290
" />
<path d="M103.468932 66.620290
L103.545123 66.658385
" />
<path d="M103.545123 66.658385
L103.659409 66.658385
" />
<path d="M102.707027 66.658385
L102.707027 66.239337
" />
<path d="M102.707027 66.239337
L102.745122 66.163147
" />
<path d="M102.745122 66.163147
L102.821313 66.125051
" />
<path d="M102.821313 66.125051
L102.973694 66.125051
" />
<path d="M102.973694 66.125051
L103.049884 66.163147
" />
<path d="M102.707027 66.620290
L102.783218 66.658385
" />
<path d="M102.783218 66.658385
L102.973694 66.658385
" />
<path d="M102.973694 66.658385
L103.049884 66.620290
" />
<path d="M103.049884 66.620290
L103.087980 66.544099
" />
<path d="M103.087980 66.544099
L103.087980 66.467909
" />
<path d="M103.087980 66.467909
L103.049884 66.391718
" />
<path d="M103.049884 66.391718
L102.973694 66.353623
" />
<path d="M102.973694 66.353623
L102.783218 66.353623
" />
<path d="M102.783218 66.353623
L102.707027 66.315528
" />
<path d="M102.326074 66.658385
L102.326074 66.125051
" />
<path d="M102.326074 66.277432
L102.287979 66.201242
" />
<path d="M102.287979 66.201242
L102.249884 66.163147
" />
<path d="M102.249884 66.163147
L102.173693 66.125051
" />
<path d="M102.173693 66.125051
L102.097503 66.125051
" />
<path d="M101.487979 66.658385
L101.487979 65.858385
" />
<path d="M101.487979 66.620290
L101.564170 66.658385
" />
<path d="M101.564170 66.658385
L101.716551 66.658385
" />
<path d="M101.716551 66.658385
L101.792741 66.620290
" />
<path d="M101.792741 66.620290
L101.830836 66.582194
" />
<path d="M101.830836 66.582194
L101.868932 66.506004
" />
<path d="M101.868932 66.506004
L101.868932 66.277432
" />
<path d="M101.868932 66.277432
L101.830836 66.201242
" />
<path d="M101.830836 66.201242
L101.792741 66.163147
" />
<path d="M101.792741 66.163147
L101.716551 66.125051
" />
<path d="M101.716551 66.125051
L101.564170 66.125051
" />
<path d="M101.564170 66.125051
L101.487979 66.163147
" />
<path d="M100.535598 66.620290
L100.421312 66.658385
" />
<path d="M100.421312 66.658385
L100.230836 66.658385
" />
<path d="M100.230836 66.658385
L100.154645 66.620290
" />
<path d="M100.154645 66.620290
L100.116550 66.582194
" />
<path d="M100.116550 66.582194
L100.078455 66.506004
" />
<path d="M100.078455 66.506004
L100.078455 66.429813
" />
<path d="M100.078455 66.429813
L100.116550 66.353623
" />
<path d="M100.116550 66.353623
L100.154645 66.315528
" />
<path d="M100.154645 66.315528
L100.230836 66.277432
" />
<path d="M100.230836 66.277432
L100.383217 66.239337
" />
<path d="M100.383217 66.239337
L100.459407 66.201242
" />
<path d="M100.459407 66.201242
L100.497502 66.163147
" />
<path d="M100.497502 66.163147
L100.535598 66.086956
" />
<path d="M100.535598 66.086956
L100.535598 66.010766
" />
<path d="M100.535598 66.010766
L100.497502 65.934575
" />
<path d="M100.497502 65.934575
L100.459407 65.896480
" />
<path d="M100.459407 65.896480
L100.383217 65.858385
" />
<path d="M100.383217 65.858385
L100.192740 65.858385
" />
<path d="M100.192740 65.858385
L100.078455 65.896480
" />
<path d="M99.621312 66.658385
L99.697502 66.620290
" />
<path d="M99.697502 66.620290
L99.735597 66.582194
" />
<path d="M99.735597 66.582194
L99.773693 66.506004
" />
<path d="M99.773693 66.506004
L99.773693 66.277432
" />
<path d="M99.773693 66.277432
L99.735597 66.201242
" />
<path d="M99.735597 66.201242
L99.697502 66.163147
" />
<path d="M99.697502 66.163147
L99.621312 66.125051
" />
<path d="M99.621312 66.125051
L99.507026 66.125051
" />
<path d="M99.507026 66.125051
L99.430835 66.163147
" />
<path d="M99.430835 66.163147
L99.392740 66.201242
" />
<path d="M99.392740 66.201242
L99.354645 66.277432
" />
<path d="M99.354645 66.277432
L99.354645 66.506004
" />
<path d="M99.354645 66.506004
L99.392740 66.582194
" />
<path d="M99.392740 66.582194
L99.430835 66.620290
" />
<path d="M99.430835 66.620290
L99.507026 66.658385
" />
<path d="M99.507026 66.658385
L99.621312 66.658385
" />
<path d="M98.668930 66.125051
L98.668930 66.658385
" />
<path d="M99.011787 66.125051
L99.011787 66.544099
" />
<path d="M99.011787 66.544099
L98.973692 66.620290
" />
<path d="M98.973692 66.620290
L98.897502 66.658385
" />
<path d="M98.897502 66.658385
L98.783216 66.658385
" />
<path d="M98.783216 66.658385
L98.707025 66.620290
" />
<path d="M98.707025 66.620290
L98.668930 66.582194
" />
<path d="M98.287977 66.125051
L98.287977 66.658385
" />
<path d="M98.287977 66.201242
L98.249882 66.163147
" />
<path d="M98.249882 66.163147
L98.173692 66.125051
" />
<path d="M98.173692 66.125051
L98.059406 66.125051
" />
<path d="M98.059406 66.125051
L97.983215 66.163147
" />
<path d="M97.983215 66.163147
L97.945120 66.239337
" />
<path d="M97.945120 66.239337
L97.945120 66.658385
" />
<path d="M97.221310 66.658385
L97.221310 65.858385
" />
<path d="M97.221310 66.620290
L97.297501 66.658385
" />
<path d="M97.297501 66.658385
L97.449882 66.658385
" />
<path d="M97.449882 66.658385
L97.526072 66.620290
" />
<path d="M97.526072 66.620290
L97.564167 66.582194
" />
<path d="M97.564167 66.582194
L97.602263 66.506004
" />
<path d="M97.602263 66.506004
L97.602263 66.277432
" />
<path d="M97.602263 66.277432
L97.564167 66.201242
" />
<path d="M97.564167 66.201242
L97.526072 66.163147
" />
<path d="M97.526072 66.163147
L97.449882 66.125051
" />
<path d="M97.449882 66.125051
L97.297501 66.125051
" />
<path d="M97.297501 66.125051
L97.221310 66.163147
" />
<path d="M96.497500 66.620290
L96.573691 66.658385
" />
<path d="M96.573691 66.658385
L96.726072 66.658385
" />
<path d="M96.726072 66.658385
L96.802262 66.620290
" />
<path d="M96.802262 66.620290
L96.840357 66.582194
" />
<path d="M96.840357 66.582194
L96.878453 66.506004
" />
<path d="M96.878453 66.506004
L96.878453 66.277432
" />
<path d="M96.878453 66.277432
L96.840357 66.201242
" />
<path d="M96.840357 66.201242
L96.802262 66.163147
" />
<path d="M96.802262 66.163147
L96.726072 66.125051
" />
<path d="M96.726072 66.125051
L96.573691 66.125051
" />
<path d="M96.573691 66.125051
L96.497500 66.163147
" />
<path d="M95.811786 66.658385
L95.811786 66.239337
" />
<path d="M95.811786 66.239337
L95.849881 66.163147
" />
<path d="M95.849881 66.163147
L95.926072 66.125051
" />
<path d="M95.926072 66.125051
L96.078453 66.125051
" />
<path d="M96.078453 66.125051
L96.154643 66.163147
" />
<path d="M95.811786 66.620290
L95.887977 66.658385
" />
<path d="M95.887977 66.658385
L96.078453 66.658385
" />
<path d="M96.078453 66.658385
L96.154643 66.620290
" />
<path d="M96.154643 66.620290
L96.192739 66.544099
" />
<path d="M96.192739 66.544099
L96.192739 66.467909
" />
<path d="M96.192739 66.467909
L96.154643 66.391718
" />
<path d="M96.154643 66.391718
L96.078453 66.353623
" />
<path d="M96.078453 66.353623
L95.887977 66.353623
" />
<path d="M95.887977 66.353623
L95.811786 66.315528
" />
<path d="M95.430833 66.658385
L95.430833 66.125051
" />
<path d="M95.430833 66.277432
L95.392738 66.201242
" />
<path d="M95.392738 66.201242
L95.354643 66.163147
" />
<path d="M95.354643 66.163147
L95.278452 66.125051
" />
<path d="M95.278452 66.125051
L95.202262 66.125051
" />
<path d="M94.592738 66.658385
L94.592738 65.858385
" />
<path d="M94.592738 66.620290
L94.668929 66.658385
" />
<path d="M94.668929 66.658385
L94.821310 66.658385
" />
<path d="M94.821310 66.658385
L94.897500 66.620290
" />
<path d="M94.897500 66.620290
L94.935595 66.582194
" />
<path d="M94.935595 66.582194
L94.973691 66.506004
" />
<path d="M94.973691 66.506004
L94.973691 66.277432
" />
<path d="M94.973691 66.277432
L94.935595 66.201242
" />
<path d="M94.935595 66.201242
L94.897500 66.163147
" />
<path d="M94.897500 66.163147
L94.821310 66.125051
" />
<path d="M94.821310 66.125051
L94.668929 66.125051
" />
<path d="M94.668929 66.125051
L94.592738 66.163147
" />
</g><text x="111.720000" y="68.052045"
transform="scale(-1 1) translate(-223.440000 0)"
textLength="14.385243" font-size="1.066666" lengthAdjust="spacingAndGlyphs"
text-anchor="start" opacity="0" stroke-opacity="0">github.com/pedalboard</text>
<g class="stroked-text"><desc>github.com/pedalboard</desc>
<path d="M111.087982 67.413006
L111.087982 68.060625
" />
<path d="M111.087982 68.060625
L111.126077 68.136816
" />
<path d="M111.126077 68.136816
L111.164173 68.174911
" />
<path d="M111.164173 68.174911
L111.240363 68.213006
" />
<path d="M111.240363 68.213006
L111.354649 68.213006
" />
<path d="M111.354649 68.213006
L111.430839 68.174911
" />
<path d="M111.087982 67.908245
L111.164173 67.946340
" />
<path d="M111.164173 67.946340
L111.316554 67.946340
" />
<path d="M111.316554 67.946340
L111.392744 67.908245
" />
<path d="M111.392744 67.908245
L111.430839 67.870149
" />
<path d="M111.430839 67.870149
L111.468935 67.793959
" />
<path d="M111.468935 67.793959
L111.468935 67.565387
" />
<path d="M111.468935 67.565387
L111.430839 67.489197
" />
<path d="M111.430839 67.489197
L111.392744 67.451102
" />
<path d="M111.392744 67.451102
L111.316554 67.413006
" />
<path d="M111.316554 67.413006
L111.164173 67.413006
" />
<path d="M111.164173 67.413006
L111.087982 67.451102
" />
<path d="M110.707029 67.946340
L110.707029 67.413006
" />
<path d="M110.707029 67.146340
L110.745125 67.184435
" />
<path d="M110.745125 67.184435
L110.707029 67.222530
" />
<path d="M110.707029 67.222530
L110.668934 67.184435
" />
<path d="M110.668934 67.184435
L110.707029 67.146340
" />
<path d="M110.707029 67.146340
L110.707029 67.222530
" />
<path d="M110.440363 67.413006
L110.135601 67.413006
" />
<path d="M110.326077 67.146340
L110.326077 67.832054
" />
<path d="M110.326077 67.832054
L110.287982 67.908245
" />
<path d="M110.287982 67.908245
L110.211792 67.946340
" />
<path d="M110.211792 67.946340
L110.135601 67.946340
" />
<path d="M109.868934 67.946340
L109.868934 67.146340
" />
<path d="M109.526077 67.946340
L109.526077 67.527292
" />
<path d="M109.526077 67.527292
L109.564172 67.451102
" />
<path d="M109.564172 67.451102
L109.640363 67.413006
" />
<path d="M109.640363 67.413006
L109.754649 67.413006
" />
<path d="M109.754649 67.413006
L109.830839 67.451102
" />
<path d="M109.830839 67.451102
L109.868934 67.489197
" />
<path d="M108.802267 67.413006
L108.802267 67.946340
" />
<path d="M109.145124 67.413006
L109.145124 67.832054
" />
<path d="M109.145124 67.832054
L109.107029 67.908245
" />
<path d="M109.107029 67.908245
L109.030839 67.946340
" />
<path d="M109.030839 67.946340
L108.916553 67.946340
" />
<path d="M108.916553 67.946340
L108.840362 67.908245
" />
<path d="M108.840362 67.908245
L108.802267 67.870149
" />
<path d="M108.421314 67.946340
L108.421314 67.146340
" />
<path d="M108.421314 67.451102
L108.345124 67.413006
" />
<path d="M108.345124 67.413006
L108.192743 67.413006
" />
<path d="M108.192743 67.413006
L108.116552 67.451102
" />
<path d="M108.116552 67.451102
L108.078457 67.489197
" />
<path d="M108.078457 67.489197
L108.040362 67.565387
" />
<path d="M108.040362 67.565387
L108.040362 67.793959
" />
<path d="M108.040362 67.793959
L108.078457 67.870149
" />
<path d="M108.078457 67.870149
L108.116552 67.908245
" />
<path d="M108.116552 67.908245
L108.192743 67.946340
" />
<path d="M108.192743 67.946340
L108.345124 67.946340
" />
<path d="M108.345124 67.946340
L108.421314 67.908245
" />
<path d="M107.697504 67.870149
L107.659409 67.908245
" />
<path d="M107.659409 67.908245
L107.697504 67.946340
" />
<path d="M107.697504 67.946340
L107.735600 67.908245
" />
<path d="M107.735600 67.908245
L107.697504 67.870149
" />
<path d="M107.697504 67.870149
L107.697504 67.946340
" />
<path d="M106.973695 67.908245
L107.049886 67.946340
" />
<path d="M107.049886 67.946340
L107.202267 67.946340
" />
<path d="M107.202267 67.946340
L107.278457 67.908245
" />
<path d="M107.278457 67.908245
L107.316552 67.870149
" />
<path d="M107.316552 67.870149
L107.354648 67.793959
" />
<path d="M107.354648 67.793959
L107.354648 67.565387
" />
<path d="M107.354648 67.565387
L107.316552 67.489197
" />
<path d="M107.316552 67.489197
L107.278457 67.451102
" />
<path d="M107.278457 67.451102
L107.202267 67.413006
" />
<path d="M107.202267 67.413006
L107.049886 67.413006
" />
<path d="M107.049886 67.413006
L106.973695 67.451102
" />
<path d="M106.516553 67.946340
L106.592743 67.908245
" />
<path d="M106.592743 67.908245
L106.630838 67.870149
" />
<path d="M106.630838 67.870149
L106.668934 67.793959
" />
<path d="M106.668934 67.793959
L106.668934 67.565387
" />
<path d="M106.668934 67.565387
L106.630838 67.489197
" />
<path d="M106.630838 67.489197
L106.592743 67.451102
" />
<path d="M106.592743 67.451102
L106.516553 67.413006
" />
<path d="M106.516553 67.413006
L106.402267 67.413006
" />
<path d="M106.402267 67.413006
L106.326076 67.451102
" />
<path d="M106.326076 67.451102
L106.287981 67.489197
" />
<path d="M106.287981 67.489197
L106.249886 67.565387
" />
<path d="M106.249886 67.565387
L106.249886 67.793959
" />
<path d="M106.249886 67.793959
L106.287981 67.870149
" />
<path d="M106.287981 67.870149
L106.326076 67.908245
" />
<path d="M106.326076 67.908245
L106.402267 67.946340
" />
<path d="M106.402267 67.946340
L106.516553 67.946340
" />
<path d="M105.907028 67.946340
L105.907028 67.413006
" />
<path d="M105.907028 67.489197
L105.868933 67.451102
" />
<path d="M105.868933 67.451102
L105.792743 67.413006
" />
<path d="M105.792743 67.413006
L105.678457 67.413006
" />
<path d="M105.678457 67.413006
L105.602266 67.451102
" />
<path d="M105.602266 67.451102
L105.564171 67.527292
" />
<path d="M105.564171 67.527292
L105.564171 67.946340
" />
<path d="M105.564171 67.527292
L105.526076 67.451102
" />
<path d="M105.526076 67.451102
L105.449885 67.413006
" />
<path d="M105.449885 67.413006
L105.335600 67.413006
" />
<path d="M105.335600 67.413006
L105.259409 67.451102
" />
<path d="M105.259409 67.451102
L105.221314 67.527292
" />
<path d="M105.221314 67.527292
L105.221314 67.946340
" />
<path d="M104.268933 67.108245
L104.954647 68.136816
" />
<path d="M104.002266 67.413006
L104.002266 68.213006
" />
<path d="M104.002266 67.451102
L103.926076 67.413006
" />
<path d="M103.926076 67.413006
L103.773695 67.413006
" />
<path d="M103.773695 67.413006
L103.697504 67.451102
" />
<path d="M103.697504 67.451102
L103.659409 67.489197
" />
<path d="M103.659409 67.489197
L103.621314 67.565387
" />
<path d="M103.621314 67.565387
L103.621314 67.793959
" />
<path d="M103.621314 67.793959
L103.659409 67.870149
" />
<path d="M103.659409 67.870149
L103.697504 67.908245
" />
<path d="M103.697504 67.908245
L103.773695 67.946340
" />
<path d="M103.773695 67.946340
L103.926076 67.946340
" />
<path d="M103.926076 67.946340
L104.002266 67.908245
" />
<path d="M102.973694 67.908245
L103.049885 67.946340
" />
<path d="M103.049885 67.946340
L103.202266 67.946340
" />
<path d="M103.202266 67.946340
L103.278456 67.908245
" />
<path d="M103.278456 67.908245
L103.316552 67.832054
" />
<path d="M103.316552 67.832054
L103.316552 67.527292
" />
<path d="M103.316552 67.527292
L103.278456 67.451102
" />
<path d="M103.278456 67.451102
L103.202266 67.413006
" />
<path d="M103.202266 67.413006
L103.049885 67.413006
" />
<path d="M103.049885 67.413006
L102.973694 67.451102
" />
<path d="M102.973694 67.451102
L102.935599 67.527292
" />
<path d="M102.935599 67.527292
L102.935599 67.603483
" />
<path d="M102.935599 67.603483
L103.316552 67.679673
" />
<path d="M102.249885 67.946340
L102.249885 67.146340
" />
<path d="M102.249885 67.908245
L102.326076 67.946340
" />
<path d="M102.326076 67.946340
L102.478457 67.946340
" />
<path d="M102.478457 67.946340
L102.554647 67.908245
" />
<path d="M102.554647 67.908245
L102.592742 67.870149
" />
<path d="M102.592742 67.870149
L102.630838 67.793959
" />
<path d="M102.630838 67.793959
L102.630838 67.565387
" />
<path d="M102.630838 67.565387
L102.592742 67.489197
" />
<path d="M102.592742 67.489197
L102.554647 67.451102
" />
<path d="M102.554647 67.451102
L102.478457 67.413006
" />
<path d="M102.478457 67.413006
L102.326076 67.413006
" />
<path d="M102.326076 67.413006
L102.249885 67.451102
" />
<path d="M101.526075 67.946340
L101.526075 67.527292
" />
<path d="M101.526075 67.527292
L101.564170 67.451102
" />
<path d="M101.564170 67.451102
L101.640361 67.413006
" />
<path d="M101.640361 67.413006
L101.792742 67.413006
" />
<path d="M101.792742 67.413006
L101.868932 67.451102
" />
<path d="M101.526075 67.908245
L101.602266 67.946340
" />
<path d="M101.602266 67.946340
L101.792742 67.946340
" />
<path d="M101.792742 67.946340
L101.868932 67.908245
" />
<path d="M101.868932 67.908245
L101.907028 67.832054
" />
<path d="M101.907028 67.832054
L101.907028 67.755864
" />
<path d="M101.907028 67.755864
L101.868932 67.679673
" />
<path d="M101.868932 67.679673
L101.792742 67.641578
" />
<path d="M101.792742 67.641578
L101.602266 67.641578
" />
<path d="M101.602266 67.641578
L101.526075 67.603483
" />
<path d="M101.030837 67.946340
L101.107027 67.908245
" />
<path d="M101.107027 67.908245
L101.145122 67.832054
" />
<path d="M101.145122 67.832054
L101.145122 67.146340
" />
<path d="M100.726074 67.946340
L100.726074 67.146340
" />
<path d="M100.726074 67.451102
L100.649884 67.413006
" />
<path d="M100.649884 67.413006
L100.497503 67.413006
" />
<path d="M100.497503 67.413006
L100.421312 67.451102
" />
<path d="M100.421312 67.451102
L100.383217 67.489197
" />
<path d="M100.383217 67.489197
L100.345122 67.565387
" />
<path d="M100.345122 67.565387
L100.345122 67.793959
" />
<path d="M100.345122 67.793959
L100.383217 67.870149
" />
<path d="M100.383217 67.870149
L100.421312 67.908245
" />
<path d="M100.421312 67.908245
L100.497503 67.946340
" />
<path d="M100.497503 67.946340
L100.649884 67.946340
" />
<path d="M100.649884 67.946340
L100.726074 67.908245
" />
<path d="M99.887979 67.946340
L99.964169 67.908245
" />
<path d="M99.964169 67.908245
L100.002264 67.870149
" />
<path d="M100.002264 67.870149
L100.040360 67.793959
" />
<path d="M100.040360 67.793959
L100.040360 67.565387
" />
<path d="M100.040360 67.565387
L100.002264 67.489197
" />
<path d="M100.002264 67.489197
L99.964169 67.451102
" />
<path d="M99.964169 67.451102
L99.887979 67.413006
" />
<path d="M99.887979 67.413006
L99.773693 67.413006
" />
<path d="M99.773693 67.413006
L99.697502 67.451102
" />
<path d="M99.697502 67.451102
L99.659407 67.489197
" />
<path d="M99.659407 67.489197
L99.621312 67.565387
" />
<path d="M99.621312 67.565387
L99.621312 67.793959
" />
<path d="M99.621312 67.793959
L99.659407 67.870149
" />
<path d="M99.659407 67.870149
L99.697502 67.908245
" />
<path d="M99.697502 67.908245
L99.773693 67.946340
" />
<path d="M99.773693 67.946340
L99.887979 67.946340
" />
<path d="M98.935597 67.946340
L98.935597 67.527292
" />
<path d="M98.935597 67.527292
L98.973692 67.451102
" />
<path d="M98.973692 67.451102
L99.049883 67.413006
" />
<path d="M99.049883 67.413006
L99.202264 67.413006
" />
<path d="M99.202264 67.413006
L99.278454 67.451102
" />
<path d="M98.935597 67.908245
L99.011788 67.946340
" />
<path d="M99.011788 67.946340
L99.202264 67.946340
" />
<path d="M99.202264 67.946340
L99.278454 67.908245
" />
<path d="M99.278454 67.908245
L99.316550 67.832054
" />
<path d="M99.316550 67.832054
L99.316550 67.755864
" />
<path d="M99.316550 67.755864
L99.278454 67.679673
" />
<path d="M99.278454 67.679673
L99.202264 67.641578
" />
<path d="M99.202264 67.641578
L99.011788 67.641578
" />
<path d="M99.011788 67.641578
L98.935597 67.603483
" />
<path d="M98.554644 67.946340
L98.554644 67.413006
" />
<path d="M98.554644 67.565387
L98.516549 67.489197
" />
<path d="M98.516549 67.489197
L98.478454 67.451102
" />
<path d="M98.478454 67.451102
L98.402263 67.413006
" />
<path d="M98.402263 67.413006
L98.326073 67.413006
" />
<path d="M97.716549 67.946340
L97.716549 67.146340
" />
<path d="M97.716549 67.908245
L97.792740 67.946340
" />
<path d="M97.792740 67.946340
L97.945121 67.946340
" />
<path d="M97.945121 67.946340
L98.021311 67.908245
" />
<path d="M98.021311 67.908245
L98.059406 67.870149
" />
<path d="M98.059406 67.870149
L98.097502 67.793959
" />
<path d="M98.097502 67.793959
L98.097502 67.565387
" />
<path d="M98.097502 67.565387
L98.059406 67.489197
" />
<path d="M98.059406 67.489197
L98.021311 67.451102
" />
<path d="M98.021311 67.451102
L97.945121 67.413006
" />
<path d="M97.945121 67.413006
L97.792740 67.413006
" />
<path d="M97.792740 67.413006
L97.716549 67.451102
" />
</g><text x="111.720000" y="69.340000"
transform="scale(-1 1) translate(-223.440000 0)"
textLength="14.613811" font-size="1.066666" lengthAdjust="spacingAndGlyphs"
text-anchor="start" opacity="0" stroke-opacity="0">PCB: 1.0.1-RC ff64d00</text>
<g class="stroked-text"><desc>PCB: 1.0.1-RC ff64d00</desc>
<path d="M111.430839 69.234295
L111.430839 68.434295
" />
<path d="M111.430839 68.434295
L111.126077 68.434295
" />
<path d="M111.126077 68.434295
L111.049887 68.472390
" />
<path d="M111.049887 68.472390
L111.011792 68.510485
" />
<path d="M111.011792 68.510485
L110.973696 68.586676
" />
<path d="M110.973696 68.586676
L110.973696 68.700961
" />
<path d="M110.973696 68.700961
L111.011792 68.777152
" />
<path d="M111.011792 68.777152
L111.049887 68.815247
" />
<path d="M111.049887 68.815247
L111.126077 68.853342
" />
<path d="M111.126077 68.853342
L111.430839 68.853342
" />
<path d="M110.173696 69.158104
L110.211792 69.196200
" />
<path d="M110.211792 69.196200
L110.326077 69.234295
" />
<path d="M110.326077 69.234295
L110.402268 69.234295
" />
<path d="M110.402268 69.234295
L110.516554 69.196200
" />
<path d="M110.516554 69.196200
L110.592744 69.120009
" />
<path d="M110.592744 69.120009
L110.630839 69.043819
" />
<path d="M110.630839 69.043819
L110.668935 68.891438
" />
<path d="M110.668935 68.891438
L110.668935 68.777152
" />
<path d="M110.668935 68.777152
L110.630839 68.624771
" />
<path d="M110.630839 68.624771
L110.592744 68.548580
" />
<path d="M110.592744 68.548580
L110.516554 68.472390
" />
<path d="M110.516554 68.472390
L110.402268 68.434295
" />
<path d="M110.402268 68.434295
L110.326077 68.434295
" />
<path d="M110.326077 68.434295
L110.211792 68.472390
" />
<path d="M110.211792 68.472390
L110.173696 68.510485
" />
<path d="M109.564173 68.815247
L109.449887 68.853342
" />
<path d="M109.449887 68.853342
L109.411792 68.891438
" />
<path d="M109.411792 68.891438
L109.373696 68.967628
" />
<path d="M109.373696 68.967628
L109.373696 69.081914
" />
<path d="M109.373696 69.081914
L109.411792 69.158104
" />
<path d="M109.411792 69.158104
L109.449887 69.196200
" />
<path d="M109.449887 69.196200
L109.526077 69.234295
" />
<path d="M109.526077 69.234295
L109.830839 69.234295
" />
<path d="M109.830839 69.234295
L109.830839 68.434295
" />
<path d="M109.830839 68.434295
L109.564173 68.434295
" />
<path d="M109.564173 68.434295
L109.487982 68.472390
" />
<path d="M109.487982 68.472390
L109.449887 68.510485
" />
<path d="M109.449887 68.510485
L109.411792 68.586676
" />
<path d="M109.411792 68.586676
L109.411792 68.662866
" />
<path d="M109.411792 68.662866
L109.449887 68.739057
" />
<path d="M109.449887 68.739057
L109.487982 68.777152
" />
<path d="M109.487982 68.777152
L109.564173 68.815247
" />
<path d="M109.564173 68.815247
L109.830839 68.815247
" />
<path d="M109.030839 69.158104
L108.992744 69.196200
" />
<path d="M108.992744 69.196200
L109.030839 69.234295
" />
<path d="M109.030839 69.234295
L109.068935 69.196200
" />
<path d="M109.068935 69.196200
L109.030839 69.158104
" />
<path d="M109.030839 69.158104
L109.030839 69.234295
" />
<path d="M109.030839 68.739057
L108.992744 68.777152
" />
<path d="M108.992744 68.777152
L109.030839 68.815247
" />
<path d="M109.030839 68.815247
L109.068935 68.777152
" />
<path d="M109.068935 68.777152
L109.030839 68.739057
" />
<path d="M109.030839 68.739057
L109.030839 68.815247
" />
<path d="M107.621316 69.234295
L108.078459 69.234295
" />
<path d="M107.849887 69.234295
L107.849887 68.434295
" />
<path d="M107.849887 68.434295
L107.926078 68.548580
" />
<path d="M107.926078 68.548580
L108.002268 68.624771
" />
<path d="M108.002268 68.624771
L108.078459 68.662866
" />
<path d="M107.278458 69.158104
L107.240363 69.196200
" />
<path d="M107.240363 69.196200
L107.278458 69.234295
" />
<path d="M107.278458 69.234295
L107.316554 69.196200
" />
<path d="M107.316554 69.196200
L107.278458 69.158104
" />
<path d="M107.278458 69.158104
L107.278458 69.234295
" />
<path d="M106.745125 68.434295
L106.668935 68.434295
" />
<path d="M106.668935 68.434295
L106.592744 68.472390
" />
<path d="M106.592744 68.472390
L106.554649 68.510485
" />
<path d="M106.554649 68.510485
L106.516554 68.586676
" />
<path d="M106.516554 68.586676
L106.478459 68.739057
" />
<path d="M106.478459 68.739057
L106.478459 68.929533
" />
<path d="M106.478459 68.929533
L106.516554 69.081914
" />
<path d="M106.516554 69.081914
L106.554649 69.158104
" />
<path d="M106.554649 69.158104
L106.592744 69.196200
" />
<path d="M106.592744 69.196200
L106.668935 69.234295
" />
<path d="M106.668935 69.234295
L106.745125 69.234295
" />
<path d="M106.745125 69.234295
L106.821316 69.196200
" />
<path d="M106.821316 69.196200
L106.859411 69.158104
" />
<path d="M106.859411 69.158104
L106.897506 69.081914
" />
<path d="M106.897506 69.081914
L106.935602 68.929533
" />
<path d="M106.935602 68.929533
L106.935602 68.739057
" />
<path d="M106.935602 68.739057
L106.897506 68.586676
" />
<path d="M106.897506 68.586676
L106.859411 68.510485
" />
<path d="M106.859411 68.510485
L106.821316 68.472390
" />
<path d="M106.821316 68.472390
L106.745125 68.434295
" />
<path d="M106.135601 69.158104
L106.097506 69.196200
" />
<path d="M106.097506 69.196200
L106.135601 69.234295
" />
<path d="M106.135601 69.234295
L106.173697 69.196200
" />
<path d="M106.173697 69.196200
L106.135601 69.158104
" />
<path d="M106.135601 69.158104
L106.135601 69.234295
" />
<path d="M105.335602 69.234295
L105.792745 69.234295
" />
<path d="M105.564173 69.234295
L105.564173 68.434295
" />
<path d="M105.564173 68.434295
L105.640364 68.548580
" />
<path d="M105.640364 68.548580
L105.716554 68.624771
" />
<path d="M105.716554 68.624771
L105.792745 68.662866
" />
<path d="M104.992744 68.929533
L104.383221 68.929533
" />
<path d="M103.545125 69.234295
L103.811792 68.853342
" />
<path d="M104.002268 69.234295
L104.002268 68.434295
" />
<path d="M104.002268 68.434295
L103.697506 68.434295
" />
<path d="M103.697506 68.434295
L103.621316 68.472390
" />
<path d="M103.621316 68.472390
L103.583221 68.510485
" />
<path d="M103.583221 68.510485
L103.545125 68.586676
" />
<path d="M103.545125 68.586676
L103.545125 68.700961
" />
<path d="M103.545125 68.700961
L103.583221 68.777152
" />
<path d="M103.583221 68.777152
L103.621316 68.815247
" />
<path d="M103.621316 68.815247
L103.697506 68.853342
" />
<path d="M103.697506 68.853342
L104.002268 68.853342
" />
<path d="M102.745125 69.158104
L102.783221 69.196200
" />
<path d="M102.783221 69.196200
L102.897506 69.234295
" />
<path d="M102.897506 69.234295
L102.973697 69.234295
" />
<path d="M102.973697 69.234295
L103.087983 69.196200
" />
<path d="M103.087983 69.196200
L103.164173 69.120009
" />
<path d="M103.164173 69.120009
L103.202268 69.043819
" />
<path d="M103.202268 69.043819
L103.240364 68.891438
" />
<path d="M103.240364 68.891438
L103.240364 68.777152
" />
<path d="M103.240364 68.777152
L103.202268 68.624771
" />
<path d="M103.202268 68.624771
L103.164173 68.548580
" />
<path d="M103.164173 68.548580
L103.087983 68.472390
" />
<path d="M103.087983 68.472390
L102.973697 68.434295
" />
<path d="M102.973697 68.434295
L102.897506 68.434295
" />
<path d="M102.897506 68.434295
L102.783221 68.472390
" />
<path d="M102.783221 68.472390
L102.745125 68.510485
" />
<path d="M101.907030 68.700961
L101.602268 68.700961
" />
<path d="M101.792744 69.234295
L101.792744 68.548580
" />
<path d="M101.792744 68.548580
L101.754649 68.472390
" />
<path d="M101.754649 68.472390
L101.678459 68.434295
" />
<path d="M101.678459 68.434295
L101.602268 68.434295
" />
<path d="M101.449887 68.700961
L101.145125 68.700961
" />
<path d="M101.335601 69.234295
L101.335601 68.548580
" />
<path d="M101.335601 68.548580
L101.297506 68.472390
" />
<path d="M101.297506 68.472390
L101.221316 68.434295
" />
<path d="M101.221316 68.434295
L101.145125 68.434295
" />
<path d="M100.535601 68.434295
L100.687982 68.434295
" />
<path d="M100.687982 68.434295
L100.764173 68.472390
" />
<path d="M100.764173 68.472390
L100.802268 68.510485
" />
<path d="M100.802268 68.510485
L100.878458 68.624771
" />
<path d="M100.878458 68.624771
L100.916554 68.777152
" />
<path d="M100.916554 68.777152
L100.916554 69.081914
" />
<path d="M100.916554 69.081914
L100.878458 69.158104
" />
<path d="M100.878458 69.158104
L100.840363 69.196200
" />
<path d="M100.840363 69.196200
L100.764173 69.234295
" />
<path d="M100.764173 69.234295
L100.611792 69.234295
" />
<path d="M100.611792 69.234295
L100.535601 69.196200
" />
<path d="M100.535601 69.196200
L100.497506 69.158104
" />
<path d="M100.497506 69.158104
L100.459411 69.081914
" />
<path d="M100.459411 69.081914
L100.459411 68.891438
" />
<path d="M100.459411 68.891438
L100.497506 68.815247
" />
<path d="M100.497506 68.815247
L100.535601 68.777152
" />
<path d="M100.535601 68.777152
L100.611792 68.739057
" />
<path d="M100.611792 68.739057
L100.764173 68.739057
" />
<path d="M100.764173 68.739057
L100.840363 68.777152
" />
<path d="M100.840363 68.777152
L100.878458 68.815247
" />
<path d="M100.878458 68.815247
L100.916554 68.891438
" />
<path d="M99.773696 68.700961
L99.773696 69.234295
" />
<path d="M99.964172 68.396200
L100.154649 68.967628
" />
<path d="M100.154649 68.967628
L99.659410 68.967628
" />
<path d="M99.011791 69.234295
L99.011791 68.434295
" />
<path d="M99.011791 69.196200
L99.087982 69.234295
" />
<path d="M99.087982 69.234295
L99.240363 69.234295
" />
<path d="M99.240363 69.234295
L99.316553 69.196200
" />
<path d="M99.316553 69.196200
L99.354648 69.158104
" />
<path d="M99.354648 69.158104
L99.392744 69.081914
" />
<path d="M99.392744 69.081914
L99.392744 68.853342
" />
<path d="M99.392744 68.853342
L99.354648 68.777152
" />
<path d="M99.354648 68.777152
L99.316553 68.739057
" />
<path d="M99.316553 68.739057
L99.240363 68.700961
" />
<path d="M99.240363 68.700961
L99.087982 68.700961
" />
<path d="M99.087982 68.700961
L99.011791 68.739057
" />
<path d="M98.478457 68.434295
L98.402267 68.434295
" />
<path d="M98.402267 68.434295
L98.326076 68.472390
" />
<path d="M98.326076 68.472390
L98.287981 68.510485
" />
<path d="M98.287981 68.510485
L98.249886 68.586676
" />
<path d="M98.249886 68.586676
L98.211791 68.739057
" />
<path d="M98.211791 68.739057
L98.211791 68.929533
" />
<path d="M98.211791 68.929533
L98.249886 69.081914
" />
<path d="M98.249886 69.081914
L98.287981 69.158104
" />
<path d="M98.287981 69.158104
L98.326076 69.196200
" />
<path d="M98.326076 69.196200
L98.402267 69.234295
" />
<path d="M98.402267 69.234295
L98.478457 69.234295
" />
<path d="M98.478457 69.234295
L98.554648 69.196200
" />
<path d="M98.554648 69.196200
L98.592743 69.158104
" />
<path d="M98.592743 69.158104
L98.630838 69.081914
" />
<path d="M98.630838 69.081914
L98.668934 68.929533
" />
<path d="M98.668934 68.929533
L98.668934 68.739057
" />
<path d="M98.668934 68.739057
L98.630838 68.586676
" />
<path d="M98.630838 68.586676
L98.592743 68.510485
" />
<path d="M98.592743 68.510485
L98.554648 68.472390
" />
<path d="M98.554648 68.472390
L98.478457 68.434295
" />
<path d="M97.716552 68.434295
L97.640362 68.434295
" />
<path d="M97.640362 68.434295
L97.564171 68.472390
" />
<path d="M97.564171 68.472390
L97.526076 68.510485
" />
<path d="M97.526076 68.510485
L97.487981 68.586676
" />
<path d="M97.487981 68.586676
L97.449886 68.739057
" />
<path d="M97.449886 68.739057
L97.449886 68.929533
" />
<path d="M97.449886 68.929533
L97.487981 69.081914
" />
<path d="M97.487981 69.081914
L97.526076 69.158104
" />
<path d="M97.526076 69.158104
L97.564171 69.196200
" />
<path d="M97.564171 69.196200
L97.640362 69.234295
" />
<path d="M97.640362 69.234295
L97.716552 69.234295
" />
<path d="M97.716552 69.234295
L97.792743 69.196200
" />
<path d="M97.792743 69.196200
L97.830838 69.158104
" />
<path d="M97.830838 69.158104
L97.868933 69.081914
" />
<path d="M97.868933 69.081914
L97.907029 68.929533
" />
<path d="M97.907029 68.929533
L97.907029 68.739057
" />
<path d="M97.907029 68.739057
L97.868933 68.586676
" />
<path d="M97.868933 68.586676
L97.830838 68.510485
" />
<path d="M97.830838 68.510485
L97.792743 68.472390
" />
<path d="M97.792743 68.472390
L97.716552 68.434295
" />
</g><text x="69.170000" y="96.280000"
transform="scale(-1 1) translate(-138.340000 0)"
textLength="1.964286" font-size="1.333333" lengthAdjust="spacingAndGlyphs"
text-anchor="middle" opacity="0" stroke-opacity="0">J3</text>
<g class="stroked-text"><desc>J3</desc>
<path d="M69.503333 95.234819
L69.503333 95.949104
" />
<path d="M69.503333 95.949104
L69.550952 96.091961
" />
<path d="M69.550952 96.091961
L69.646190 96.187200
" />
<path d="M69.646190 96.187200
L69.789047 96.234819
" />
<path d="M69.789047 96.234819
L69.884285 96.234819
" />
<path d="M69.122380 95.234819
L68.503333 95.234819
" />
<path d="M68.503333 95.234819
L68.836666 95.615771
" />
<path d="M68.836666 95.615771
L68.693809 95.615771
" />
<path d="M68.693809 95.615771
L68.598571 95.663390
" />
<path d="M68.598571 95.663390
L68.550952 95.711009
" />
<path d="M68.550952 95.711009
L68.503333 95.806247
" />
<path d="M68.503333 95.806247
L68.503333 96.044342
" />
<path d="M68.503333 96.044342
L68.550952 96.139580
" />
<path d="M68.550952 96.139580
L68.598571 96.187200
" />
<path d="M68.598571 96.187200
L68.693809 96.234819
" />
<path d="M68.693809 96.234819
L68.979523 96.234819
" />
<path d="M68.979523 96.234819
L69.074761 96.187200
" />
<path d="M69.074761 96.187200
L69.122380 96.139580
" />
</g><text x="110.620000" y="97.470000"
transform="scale(-1 1) translate(-221.240000 0)"
textLength="1.964286" font-size="1.333333" lengthAdjust="spacingAndGlyphs"
text-anchor="middle" opacity="0" stroke-opacity="0">J2</text>
<g class="stroked-text"><desc>J2</desc>
<path d="M110.953333 96.424819
L110.953333 97.139104
" />
<path d="M110.953333 97.139104
L111.000952 97.281961
" />
<path d="M111.000952 97.281961
L111.096190 97.377200
" />
<path d="M111.096190 97.377200
L111.239047 97.424819
" />
<path d="M111.239047 97.424819
L111.334285 97.424819
" />
<path d="M110.524761 96.520057
L110.477142 96.472438
" />
<path d="M110.477142 96.472438
L110.381904 96.424819
" />
<path d="M110.381904 96.424819
L110.143809 96.424819
" />
<path d="M110.143809 96.424819
L110.048571 96.472438
" />
<path d="M110.048571 96.472438
L110.000952 96.520057
" />
<path d="M110.000952 96.520057
L109.953333 96.615295
" />
<path d="M109.953333 96.615295
L109.953333 96.710533
" />
<path d="M109.953333 96.710533
L110.000952 96.853390
" />
<path d="M110.000952 96.853390
L110.572380 97.424819
" />
<path d="M110.572380 97.424819
L109.953333 97.424819
" />
</g></g>
<g style="fill:none; 
stroke:#000000; stroke-width:0.120000; stroke-opacity:1; 
stroke-linecap:round; stroke-linejoin:round;">
<path d="M62.010000 92.310000
L62.010000 89.710000
" />
<path d="M62.010000 94.910000
L62.010000 93.580000
" />
<path d="M63.340000 94.910000
L62.010000 94.910000
" />
<path d="M64.610000 92.310000
L62.010000 92.310000
" />
<path d="M64.610000 94.910000
L64.610000 92.310000
" />
<path d="M69.750000 89.710000
L62.010000 89.710000
" />
<path d="M69.750000 94.910000
L64.610000 94.910000
" />
<path d="M69.750000 94.910000
L69.750000 89.710000
" />
<path d="M106.320000 88.070000
L107.650000 88.070000
" />
<path d="M106.320000 89.400000
L106.320000 88.070000
" />
<path d="M106.320000 90.670000
L108.920000 90.670000
" />
<path d="M106.320000 95.810000
L106.320000 90.670000
" />
<path d="M106.320000 95.810000
L111.520000 95.810000
" />
<path d="M108.920000 88.070000
L111.520000 88.070000
" />
<path d="M108.920000 90.670000
L108.920000 88.070000
" />
<path d="M111.520000 95.810000
L111.520000 88.070000
" />
</g> 
</svg>
