<?xml version="1.0" standalone="no"?>
 <!DOCTYPE svg PUBLIC "-//W3C//DTD SVG 1.1//EN" 
 "http://www.w3.org/Graphics/SVG/1.1/DTD/svg11.dtd"> 
<svg
  xmlns:svg="http://www.w3.org/2000/svg"
  xmlns="http://www.w3.org/2000/svg"
  xmlns:xlink="http://www.w3.org/1999/xlink"
  version="1.1"
  width="6.71cm" height="5.811cm" viewBox="47.45 51.45 67.1 58.11">
<title>SVG Image created as pedalboard-soundcard-B_SilkS.svg date 2024/12/15 13:21:52 </title>
  <desc>Image generated by PCBNEW </desc>
<g style="fill:#000000; fill-opacity:1.000000;stroke:#000000; stroke-opacity:1.000000;
stroke-linecap:round; stroke-linejoin:round;"
 transform="translate(0 0) scale(1 1)">
</g>
<g style="fill:none; 
stroke:#000000; stroke-width:0.150000; stroke-opacity:1; 
stroke-linecap:round; stroke-linejoin:round;">
<text x="112.550000" y="66.320112"
transform="scale(-1 1) translate(-225.100000 0)"
textLength="21.773813" font-size="1.333333" lengthAdjust="spacingAndGlyphs"
text-anchor="start" opacity="0" stroke-opacity="0">Open Pedalboard Soundcard</text>
<g class="stroked-text"><desc>Open Pedalboard Soundcard</desc>
<path d="M112.022744 65.189931
L111.832268 65.189931
" />
<path d="M111.832268 65.189931
L111.737030 65.237550
" />
<path d="M111.737030 65.237550
L111.641792 65.332788
" />
<path d="M111.641792 65.332788
L111.594173 65.523264
" />
<path d="M111.594173 65.523264
L111.594173 65.856597
" />
<path d="M111.594173 65.856597
L111.641792 66.047073
" />
<path d="M111.641792 66.047073
L111.737030 66.142312
" />
<path d="M111.737030 66.142312
L111.832268 66.189931
" />
<path d="M111.832268 66.189931
L112.022744 66.189931
" />
<path d="M112.022744 66.189931
L112.117982 66.142312
" />
<path d="M112.117982 66.142312
L112.213220 66.047073
" />
<path d="M112.213220 66.047073
L112.260839 65.856597
" />
<path d="M112.260839 65.856597
L112.260839 65.523264
" />
<path d="M112.260839 65.523264
L112.213220 65.332788
" />
<path d="M112.213220 65.332788
L112.117982 65.237550
" />
<path d="M112.117982 65.237550
L112.022744 65.189931
" />
<path d="M111.165601 65.523264
L111.165601 66.523264
" />
<path d="M111.165601 65.570883
L111.070363 65.523264
" />
<path d="M111.070363 65.523264
L110.879887 65.523264
" />
<path d="M110.879887 65.523264
L110.784649 65.570883
" />
<path d="M110.784649 65.570883
L110.737030 65.618502
" />
<path d="M110.737030 65.618502
L110.689411 65.713740
" />
<path d="M110.689411 65.713740
L110.689411 65.999454
" />
<path d="M110.689411 65.999454
L110.737030 66.094692
" />
<path d="M110.737030 66.094692
L110.784649 66.142312
" />
<path d="M110.784649 66.142312
L110.879887 66.189931
" />
<path d="M110.879887 66.189931
L111.070363 66.189931
" />
<path d="M111.070363 66.189931
L111.165601 66.142312
" />
<path d="M109.879887 66.142312
L109.975125 66.189931
" />
<path d="M109.975125 66.189931
L110.165601 66.189931
" />
<path d="M110.165601 66.189931
L110.260839 66.142312
" />
<path d="M110.260839 66.142312
L110.308458 66.047073
" />
<path d="M110.308458 66.047073
L110.308458 65.666121
" />
<path d="M110.308458 65.666121
L110.260839 65.570883
" />
<path d="M110.260839 65.570883
L110.165601 65.523264
" />
<path d="M110.165601 65.523264
L109.975125 65.523264
" />
<path d="M109.975125 65.523264
L109.879887 65.570883
" />
<path d="M109.879887 65.570883
L109.832268 65.666121
" />
<path d="M109.832268 65.666121
L109.832268 65.761359
" />
<path d="M109.832268 65.761359
L110.308458 65.856597
" />
<path d="M109.403696 65.523264
L109.403696 66.189931
" />
<path d="M109.403696 65.618502
L109.356077 65.570883
" />
<path d="M109.356077 65.570883
L109.260839 65.523264
" />
<path d="M109.260839 65.523264
L109.117982 65.523264
" />
<path d="M109.117982 65.523264
L109.022744 65.570883
" />
<path d="M109.022744 65.570883
L108.975125 65.666121
" />
<path d="M108.975125 65.666121
L108.975125 66.189931
" />
<path d="M107.737029 66.189931
L107.737029 65.189931
" />
<path d="M107.737029 65.189931
L107.356077 65.189931
" />
<path d="M107.356077 65.189931
L107.260839 65.237550
" />
<path d="M107.260839 65.237550
L107.213220 65.285169
" />
<path d="M107.213220 65.285169
L107.165601 65.380407
" />
<path d="M107.165601 65.380407
L107.165601 65.523264
" />
<path d="M107.165601 65.523264
L107.213220 65.618502
" />
<path d="M107.213220 65.618502
L107.260839 65.666121
" />
<path d="M107.260839 65.666121
L107.356077 65.713740
" />
<path d="M107.356077 65.713740
L107.737029 65.713740
" />
<path d="M106.356077 66.142312
L106.451315 66.189931
" />
<path d="M106.451315 66.189931
L106.641791 66.189931
" />
<path d="M106.641791 66.189931
L106.737029 66.142312
" />
<path d="M106.737029 66.142312
L106.784648 66.047073
" />
<path d="M106.784648 66.047073
L106.784648 65.666121
" />
<path d="M106.784648 65.666121
L106.737029 65.570883
" />
<path d="M106.737029 65.570883
L106.641791 65.523264
" />
<path d="M106.641791 65.523264
L106.451315 65.523264
" />
<path d="M106.451315 65.523264
L106.356077 65.570883
" />
<path d="M106.356077 65.570883
L106.308458 65.666121
" />
<path d="M106.308458 65.666121
L106.308458 65.761359
" />
<path d="M106.308458 65.761359
L106.784648 65.856597
" />
<path d="M105.451315 66.189931
L105.451315 65.189931
" />
<path d="M105.451315 66.142312
L105.546553 66.189931
" />
<path d="M105.546553 66.189931
L105.737029 66.189931
" />
<path d="M105.737029 66.189931
L105.832267 66.142312
" />
<path d="M105.832267 66.142312
L105.879886 66.094692
" />
<path d="M105.879886 66.094692
L105.927505 65.999454
" />
<path d="M105.927505 65.999454
L105.927505 65.713740
" />
<path d="M105.927505 65.713740
L105.879886 65.618502
" />
<path d="M105.879886 65.618502
L105.832267 65.570883
" />
<path d="M105.832267 65.570883
L105.737029 65.523264
" />
<path d="M105.737029 65.523264
L105.546553 65.523264
" />
<path d="M105.546553 65.523264
L105.451315 65.570883
" />
<path d="M104.546553 66.189931
L104.546553 65.666121
" />
<path d="M104.546553 65.666121
L104.594172 65.570883
" />
<path d="M104.594172 65.570883
L104.689410 65.523264
" />
<path d="M104.689410 65.523264
L104.879886 65.523264
" />
<path d="M104.879886 65.523264
L104.975124 65.570883
" />
<path d="M104.546553 66.142312
L104.641791 66.189931
" />
<path d="M104.641791 66.189931
L104.879886 66.189931
" />
<path d="M104.879886 66.189931
L104.975124 66.142312
" />
<path d="M104.975124 66.142312
L105.022743 66.047073
" />
<path d="M105.022743 66.047073
L105.022743 65.951835
" />
<path d="M105.022743 65.951835
L104.975124 65.856597
" />
<path d="M104.975124 65.856597
L104.879886 65.808978
" />
<path d="M104.879886 65.808978
L104.641791 65.808978
" />
<path d="M104.641791 65.808978
L104.546553 65.761359
" />
<path d="M103.927505 66.189931
L104.022743 66.142312
" />
<path d="M104.022743 66.142312
L104.070362 66.047073
" />
<path d="M104.070362 66.047073
L104.070362 65.189931
" />
<path d="M103.546552 66.189931
L103.546552 65.189931
" />
<path d="M103.546552 65.570883
L103.451314 65.523264
" />
<path d="M103.451314 65.523264
L103.260838 65.523264
" />
<path d="M103.260838 65.523264
L103.165600 65.570883
" />
<path d="M103.165600 65.570883
L103.117981 65.618502
" />
<path d="M103.117981 65.618502
L103.070362 65.713740
" />
<path d="M103.070362 65.713740
L103.070362 65.999454
" />
<path d="M103.070362 65.999454
L103.117981 66.094692
" />
<path d="M103.117981 66.094692
L103.165600 66.142312
" />
<path d="M103.165600 66.142312
L103.260838 66.189931
" />
<path d="M103.260838 66.189931
L103.451314 66.189931
" />
<path d="M103.451314 66.189931
L103.546552 66.142312
" />
<path d="M102.498933 66.189931
L102.594171 66.142312
" />
<path d="M102.594171 66.142312
L102.641790 66.094692
" />
<path d="M102.641790 66.094692
L102.689409 65.999454
" />
<path d="M102.689409 65.999454
L102.689409 65.713740
" />
<path d="M102.689409 65.713740
L102.641790 65.618502
" />
<path d="M102.641790 65.618502
L102.594171 65.570883
" />
<path d="M102.594171 65.570883
L102.498933 65.523264
" />
<path d="M102.498933 65.523264
L102.356076 65.523264
" />
<path d="M102.356076 65.523264
L102.260838 65.570883
" />
<path d="M102.260838 65.570883
L102.213219 65.618502
" />
<path d="M102.213219 65.618502
L102.165600 65.713740
" />
<path d="M102.165600 65.713740
L102.165600 65.999454
" />
<path d="M102.165600 65.999454
L102.213219 66.094692
" />
<path d="M102.213219 66.094692
L102.260838 66.142312
" />
<path d="M102.260838 66.142312
L102.356076 66.189931
" />
<path d="M102.356076 66.189931
L102.498933 66.189931
" />
<path d="M101.308457 66.189931
L101.308457 65.666121
" />
<path d="M101.308457 65.666121
L101.356076 65.570883
" />
<path d="M101.356076 65.570883
L101.451314 65.523264
" />
<path d="M101.451314 65.523264
L101.641790 65.523264
" />
<path d="M101.641790 65.523264
L101.737028 65.570883
" />
<path d="M101.308457 66.142312
L101.403695 66.189931
" />
<path d="M101.403695 66.189931
L101.641790 66.189931
" />
<path d="M101.641790 66.189931
L101.737028 66.142312
" />
<path d="M101.737028 66.142312
L101.784647 66.047073
" />
<path d="M101.784647 66.047073
L101.784647 65.951835
" />
<path d="M101.784647 65.951835
L101.737028 65.856597
" />
<path d="M101.737028 65.856597
L101.641790 65.808978
" />
<path d="M101.641790 65.808978
L101.403695 65.808978
" />
<path d="M101.403695 65.808978
L101.308457 65.761359
" />
<path d="M100.832266 66.189931
L100.832266 65.523264
" />
<path d="M100.832266 65.713740
L100.784647 65.618502
" />
<path d="M100.784647 65.618502
L100.737028 65.570883
" />
<path d="M100.737028 65.570883
L100.641790 65.523264
" />
<path d="M100.641790 65.523264
L100.546552 65.523264
" />
<path d="M99.784647 66.189931
L99.784647 65.189931
" />
<path d="M99.784647 66.142312
L99.879885 66.189931
" />
<path d="M99.879885 66.189931
L100.070361 66.189931
" />
<path d="M100.070361 66.189931
L100.165599 66.142312
" />
<path d="M100.165599 66.142312
L100.213218 66.094692
" />
<path d="M100.213218 66.094692
L100.260837 65.999454
" />
<path d="M100.260837 65.999454
L100.260837 65.713740
" />
<path d="M100.260837 65.713740
L100.213218 65.618502
" />
<path d="M100.213218 65.618502
L100.165599 65.570883
" />
<path d="M100.165599 65.570883
L100.070361 65.523264
" />
<path d="M100.070361 65.523264
L99.879885 65.523264
" />
<path d="M99.879885 65.523264
L99.784647 65.570883
" />
<path d="M98.594170 66.142312
L98.451313 66.189931
" />
<path d="M98.451313 66.189931
L98.213218 66.189931
" />
<path d="M98.213218 66.189931
L98.117980 66.142312
" />
<path d="M98.117980 66.142312
L98.070361 66.094692
" />
<path d="M98.070361 66.094692
L98.022742 65.999454
" />
<path d="M98.022742 65.999454
L98.022742 65.904216
" />
<path d="M98.022742 65.904216
L98.070361 65.808978
" />
<path d="M98.070361 65.808978
L98.117980 65.761359
" />
<path d="M98.117980 65.761359
L98.213218 65.713740
" />
<path d="M98.213218 65.713740
L98.403694 65.666121
" />
<path d="M98.403694 65.666121
L98.498932 65.618502
" />
<path d="M98.498932 65.618502
L98.546551 65.570883
" />
<path d="M98.546551 65.570883
L98.594170 65.475645
" />
<path d="M98.594170 65.475645
L98.594170 65.380407
" />
<path d="M98.594170 65.380407
L98.546551 65.285169
" />
<path d="M98.546551 65.285169
L98.498932 65.237550
" />
<path d="M98.498932 65.237550
L98.403694 65.189931
" />
<path d="M98.403694 65.189931
L98.165599 65.189931
" />
<path d="M98.165599 65.189931
L98.022742 65.237550
" />
<path d="M97.451313 66.189931
L97.546551 66.142312
" />
<path d="M97.546551 66.142312
L97.594170 66.094692
" />
<path d="M97.594170 66.094692
L97.641789 65.999454
" />
<path d="M97.641789 65.999454
L97.641789 65.713740
" />
<path d="M97.641789 65.713740
L97.594170 65.618502
" />
<path d="M97.594170 65.618502
L97.546551 65.570883
" />
<path d="M97.546551 65.570883
L97.451313 65.523264
" />
<path d="M97.451313 65.523264
L97.308456 65.523264
" />
<path d="M97.308456 65.523264
L97.213218 65.570883
" />
<path d="M97.213218 65.570883
L97.165599 65.618502
" />
<path d="M97.165599 65.618502
L97.117980 65.713740
" />
<path d="M97.117980 65.713740
L97.117980 65.999454
" />
<path d="M97.117980 65.999454
L97.165599 66.094692
" />
<path d="M97.165599 66.094692
L97.213218 66.142312
" />
<path d="M97.213218 66.142312
L97.308456 66.189931
" />
<path d="M97.308456 66.189931
L97.451313 66.189931
" />
<path d="M96.260837 65.523264
L96.260837 66.189931
" />
<path d="M96.689408 65.523264
L96.689408 66.047073
" />
<path d="M96.689408 66.047073
L96.641789 66.142312
" />
<path d="M96.641789 66.142312
L96.546551 66.189931
" />
<path d="M96.546551 66.189931
L96.403694 66.189931
" />
<path d="M96.403694 66.189931
L96.308456 66.142312
" />
<path d="M96.308456 66.142312
L96.260837 66.094692
" />
<path d="M95.784646 65.523264
L95.784646 66.189931
" />
<path d="M95.784646 65.618502
L95.737027 65.570883
" />
<path d="M95.737027 65.570883
L95.641789 65.523264
" />
<path d="M95.641789 65.523264
L95.498932 65.523264
" />
<path d="M95.498932 65.523264
L95.403694 65.570883
" />
<path d="M95.403694 65.570883
L95.356075 65.666121
" />
<path d="M95.356075 65.666121
L95.356075 66.189931
" />
<path d="M94.451313 66.189931
L94.451313 65.189931
" />
<path d="M94.451313 66.142312
L94.546551 66.189931
" />
<path d="M94.546551 66.189931
L94.737027 66.189931
" />
<path d="M94.737027 66.189931
L94.832265 66.142312
" />
<path d="M94.832265 66.142312
L94.879884 66.094692
" />
<path d="M94.879884 66.094692
L94.927503 65.999454
" />
<path d="M94.927503 65.999454
L94.927503 65.713740
" />
<path d="M94.927503 65.713740
L94.879884 65.618502
" />
<path d="M94.879884 65.618502
L94.832265 65.570883
" />
<path d="M94.832265 65.570883
L94.737027 65.523264
" />
<path d="M94.737027 65.523264
L94.546551 65.523264
" />
<path d="M94.546551 65.523264
L94.451313 65.570883
" />
<path d="M93.546551 66.142312
L93.641789 66.189931
" />
<path d="M93.641789 66.189931
L93.832265 66.189931
" />
<path d="M93.832265 66.189931
L93.927503 66.142312
" />
<path d="M93.927503 66.142312
L93.975122 66.094692
" />
<path d="M93.975122 66.094692
L94.022741 65.999454
" />
<path d="M94.022741 65.999454
L94.022741 65.713740
" />
<path d="M94.022741 65.713740
L93.975122 65.618502
" />
<path d="M93.975122 65.618502
L93.927503 65.570883
" />
<path d="M93.927503 65.570883
L93.832265 65.523264
" />
<path d="M93.832265 65.523264
L93.641789 65.523264
" />
<path d="M93.641789 65.523264
L93.546551 65.570883
" />
<path d="M92.689408 66.189931
L92.689408 65.666121
" />
<path d="M92.689408 65.666121
L92.737027 65.570883
" />
<path d="M92.737027 65.570883
L92.832265 65.523264
" />
<path d="M92.832265 65.523264
L93.022741 65.523264
" />
<path d="M93.022741 65.523264
L93.117979 65.570883
" />
<path d="M92.689408 66.142312
L92.784646 66.189931
" />
<path d="M92.784646 66.189931
L93.022741 66.189931
" />
<path d="M93.022741 66.189931
L93.117979 66.142312
" />
<path d="M93.117979 66.142312
L93.165598 66.047073
" />
<path d="M93.165598 66.047073
L93.165598 65.951835
" />
<path d="M93.165598 65.951835
L93.117979 65.856597
" />
<path d="M93.117979 65.856597
L93.022741 65.808978
" />
<path d="M93.022741 65.808978
L92.784646 65.808978
" />
<path d="M92.784646 65.808978
L92.689408 65.761359
" />
<path d="M92.213217 66.189931
L92.213217 65.523264
" />
<path d="M92.213217 65.713740
L92.165598 65.618502
" />
<path d="M92.165598 65.618502
L92.117979 65.570883
" />
<path d="M92.117979 65.570883
L92.022741 65.523264
" />
<path d="M92.022741 65.523264
L91.927503 65.523264
" />
<path d="M91.165598 66.189931
L91.165598 65.189931
" />
<path d="M91.165598 66.142312
L91.260836 66.189931
" />
<path d="M91.260836 66.189931
L91.451312 66.189931
" />
<path d="M91.451312 66.189931
L91.546550 66.142312
" />
<path d="M91.546550 66.142312
L91.594169 66.094692
" />
<path d="M91.594169 66.094692
L91.641788 65.999454
" />
<path d="M91.641788 65.999454
L91.641788 65.713740
" />
<path d="M91.641788 65.713740
L91.594169 65.618502
" />
<path d="M91.594169 65.618502
L91.546550 65.570883
" />
<path d="M91.546550 65.570883
L91.451312 65.523264
" />
<path d="M91.451312 65.523264
L91.260836 65.523264
" />
<path d="M91.260836 65.523264
L91.165598 65.570883
" />
</g><text x="112.550000" y="67.930056"
transform="scale(-1 1) translate(-225.100000 0)"
textLength="17.869049" font-size="1.333333" lengthAdjust="spacingAndGlyphs"
text-anchor="start" opacity="0" stroke-opacity="0">github.com/pedalboard</text>
<g class="stroked-text"><desc>github.com/pedalboard</desc>
<path d="M111.784649 67.133208
L111.784649 67.942732
" />
<path d="M111.784649 67.942732
L111.832268 68.037970
" />
<path d="M111.832268 68.037970
L111.879887 68.085589
" />
<path d="M111.879887 68.085589
L111.975125 68.133208
" />
<path d="M111.975125 68.133208
L112.117982 68.133208
" />
<path d="M112.117982 68.133208
L112.213220 68.085589
" />
<path d="M111.784649 67.752256
L111.879887 67.799875
" />
<path d="M111.879887 67.799875
L112.070363 67.799875
" />
<path d="M112.070363 67.799875
L112.165601 67.752256
" />
<path d="M112.165601 67.752256
L112.213220 67.704636
" />
<path d="M112.213220 67.704636
L112.260839 67.609398
" />
<path d="M112.260839 67.609398
L112.260839 67.323684
" />
<path d="M112.260839 67.323684
L112.213220 67.228446
" />
<path d="M112.213220 67.228446
L112.165601 67.180827
" />
<path d="M112.165601 67.180827
L112.070363 67.133208
" />
<path d="M112.070363 67.133208
L111.879887 67.133208
" />
<path d="M111.879887 67.133208
L111.784649 67.180827
" />
<path d="M111.308458 67.799875
L111.308458 67.133208
" />
<path d="M111.308458 66.799875
L111.356077 66.847494
" />
<path d="M111.356077 66.847494
L111.308458 66.895113
" />
<path d="M111.308458 66.895113
L111.260839 66.847494
" />
<path d="M111.260839 66.847494
L111.308458 66.799875
" />
<path d="M111.308458 66.799875
L111.308458 66.895113
" />
<path d="M110.975125 67.133208
L110.594173 67.133208
" />
<path d="M110.832268 66.799875
L110.832268 67.657017
" />
<path d="M110.832268 67.657017
L110.784649 67.752256
" />
<path d="M110.784649 67.752256
L110.689411 67.799875
" />
<path d="M110.689411 67.799875
L110.594173 67.799875
" />
<path d="M110.260839 67.799875
L110.260839 66.799875
" />
<path d="M109.832268 67.799875
L109.832268 67.276065
" />
<path d="M109.832268 67.276065
L109.879887 67.180827
" />
<path d="M109.879887 67.180827
L109.975125 67.133208
" />
<path d="M109.975125 67.133208
L110.117982 67.133208
" />
<path d="M110.117982 67.133208
L110.213220 67.180827
" />
<path d="M110.213220 67.180827
L110.260839 67.228446
" />
<path d="M108.927506 67.133208
L108.927506 67.799875
" />
<path d="M109.356077 67.133208
L109.356077 67.657017
" />
<path d="M109.356077 67.657017
L109.308458 67.752256
" />
<path d="M109.308458 67.752256
L109.213220 67.799875
" />
<path d="M109.213220 67.799875
L109.070363 67.799875
" />
<path d="M109.070363 67.799875
L108.975125 67.752256
" />
<path d="M108.975125 67.752256
L108.927506 67.704636
" />
<path d="M108.451315 67.799875
L108.451315 66.799875
" />
<path d="M108.451315 67.180827
L108.356077 67.133208
" />
<path d="M108.356077 67.133208
L108.165601 67.133208
" />
<path d="M108.165601 67.133208
L108.070363 67.180827
" />
<path d="M108.070363 67.180827
L108.022744 67.228446
" />
<path d="M108.022744 67.228446
L107.975125 67.323684
" />
<path d="M107.975125 67.323684
L107.975125 67.609398
" />
<path d="M107.975125 67.609398
L108.022744 67.704636
" />
<path d="M108.022744 67.704636
L108.070363 67.752256
" />
<path d="M108.070363 67.752256
L108.165601 67.799875
" />
<path d="M108.165601 67.799875
L108.356077 67.799875
" />
<path d="M108.356077 67.799875
L108.451315 67.752256
" />
<path d="M107.546553 67.704636
L107.498934 67.752256
" />
<path d="M107.498934 67.752256
L107.546553 67.799875
" />
<path d="M107.546553 67.799875
L107.594172 67.752256
" />
<path d="M107.594172 67.752256
L107.546553 67.704636
" />
<path d="M107.546553 67.704636
L107.546553 67.799875
" />
<path d="M106.641792 67.752256
L106.737030 67.799875
" />
<path d="M106.737030 67.799875
L106.927506 67.799875
" />
<path d="M106.927506 67.799875
L107.022744 67.752256
" />
<path d="M107.022744 67.752256
L107.070363 67.704636
" />
<path d="M107.070363 67.704636
L107.117982 67.609398
" />
<path d="M107.117982 67.609398
L107.117982 67.323684
" />
<path d="M107.117982 67.323684
L107.070363 67.228446
" />
<path d="M107.070363 67.228446
L107.022744 67.180827
" />
<path d="M107.022744 67.180827
L106.927506 67.133208
" />
<path d="M106.927506 67.133208
L106.737030 67.133208
" />
<path d="M106.737030 67.133208
L106.641792 67.180827
" />
<path d="M106.070363 67.799875
L106.165601 67.752256
" />
<path d="M106.165601 67.752256
L106.213220 67.704636
" />
<path d="M106.213220 67.704636
L106.260839 67.609398
" />
<path d="M106.260839 67.609398
L106.260839 67.323684
" />
<path d="M106.260839 67.323684
L106.213220 67.228446
" />
<path d="M106.213220 67.228446
L106.165601 67.180827
" />
<path d="M106.165601 67.180827
L106.070363 67.133208
" />
<path d="M106.070363 67.133208
L105.927506 67.133208
" />
<path d="M105.927506 67.133208
L105.832268 67.180827
" />
<path d="M105.832268 67.180827
L105.784649 67.228446
" />
<path d="M105.784649 67.228446
L105.737030 67.323684
" />
<path d="M105.737030 67.323684
L105.737030 67.609398
" />
<path d="M105.737030 67.609398
L105.784649 67.704636
" />
<path d="M105.784649 67.704636
L105.832268 67.752256
" />
<path d="M105.832268 67.752256
L105.927506 67.799875
" />
<path d="M105.927506 67.799875
L106.070363 67.799875
" />
<path d="M105.308458 67.799875
L105.308458 67.133208
" />
<path d="M105.308458 67.228446
L105.260839 67.180827
" />
<path d="M105.260839 67.180827
L105.165601 67.133208
" />
<path d="M105.165601 67.133208
L105.022744 67.133208
" />
<path d="M105.022744 67.133208
L104.927506 67.180827
" />
<path d="M104.927506 67.180827
L104.879887 67.276065
" />
<path d="M104.879887 67.276065
L104.879887 67.799875
" />
<path d="M104.879887 67.276065
L104.832268 67.180827
" />
<path d="M104.832268 67.180827
L104.737030 67.133208
" />
<path d="M104.737030 67.133208
L104.594173 67.133208
" />
<path d="M104.594173 67.133208
L104.498934 67.180827
" />
<path d="M104.498934 67.180827
L104.451315 67.276065
" />
<path d="M104.451315 67.276065
L104.451315 67.799875
" />
<path d="M103.260840 66.752256
L104.117982 68.037970
" />
<path d="M102.927506 67.133208
L102.927506 68.133208
" />
<path d="M102.927506 67.180827
L102.832268 67.133208
" />
<path d="M102.832268 67.133208
L102.641792 67.133208
" />
<path d="M102.641792 67.133208
L102.546554 67.180827
" />
<path d="M102.546554 67.180827
L102.498935 67.228446
" />
<path d="M102.498935 67.228446
L102.451316 67.323684
" />
<path d="M102.451316 67.323684
L102.451316 67.609398
" />
<path d="M102.451316 67.609398
L102.498935 67.704636
" />
<path d="M102.498935 67.704636
L102.546554 67.752256
" />
<path d="M102.546554 67.752256
L102.641792 67.799875
" />
<path d="M102.641792 67.799875
L102.832268 67.799875
" />
<path d="M102.832268 67.799875
L102.927506 67.752256
" />
<path d="M101.641792 67.752256
L101.737030 67.799875
" />
<path d="M101.737030 67.799875
L101.927506 67.799875
" />
<path d="M101.927506 67.799875
L102.022744 67.752256
" />
<path d="M102.022744 67.752256
L102.070363 67.657017
" />
<path d="M102.070363 67.657017
L102.070363 67.276065
" />
<path d="M102.070363 67.276065
L102.022744 67.180827
" />
<path d="M102.022744 67.180827
L101.927506 67.133208
" />
<path d="M101.927506 67.133208
L101.737030 67.133208
" />
<path d="M101.737030 67.133208
L101.641792 67.180827
" />
<path d="M101.641792 67.180827
L101.594173 67.276065
" />
<path d="M101.594173 67.276065
L101.594173 67.371303
" />
<path d="M101.594173 67.371303
L102.070363 67.466541
" />
<path d="M100.737030 67.799875
L100.737030 66.799875
" />
<path d="M100.737030 67.752256
L100.832268 67.799875
" />
<path d="M100.832268 67.799875
L101.022744 67.799875
" />
<path d="M101.022744 67.799875
L101.117982 67.752256
" />
<path d="M101.117982 67.752256
L101.165601 67.704636
" />
<path d="M101.165601 67.704636
L101.213220 67.609398
" />
<path d="M101.213220 67.609398
L101.213220 67.323684
" />
<path d="M101.213220 67.323684
L101.165601 67.228446
" />
<path d="M101.165601 67.228446
L101.117982 67.180827
" />
<path d="M101.117982 67.180827
L101.022744 67.133208
" />
<path d="M101.022744 67.133208
L100.832268 67.133208
" />
<path d="M100.832268 67.133208
L100.737030 67.180827
" />
<path d="M99.832268 67.799875
L99.832268 67.276065
" />
<path d="M99.832268 67.276065
L99.879887 67.180827
" />
<path d="M99.879887 67.180827
L99.975125 67.133208
" />
<path d="M99.975125 67.133208
L100.165601 67.133208
" />
<path d="M100.165601 67.133208
L100.260839 67.180827
" />
<path d="M99.832268 67.752256
L99.927506 67.799875
" />
<path d="M99.927506 67.799875
L100.165601 67.799875
" />
<path d="M100.165601 67.799875
L100.260839 67.752256
" />
<path d="M100.260839 67.752256
L100.308458 67.657017
" />
<path d="M100.308458 67.657017
L100.308458 67.561779
" />
<path d="M100.308458 67.561779
L100.260839 67.466541
" />
<path d="M100.260839 67.466541
L100.165601 67.418922
" />
<path d="M100.165601 67.418922
L99.927506 67.418922
" />
<path d="M99.927506 67.418922
L99.832268 67.371303
" />
<path d="M99.213220 67.799875
L99.308458 67.752256
" />
<path d="M99.308458 67.752256
L99.356077 67.657017
" />
<path d="M99.356077 67.657017
L99.356077 66.799875
" />
<path d="M98.832267 67.799875
L98.832267 66.799875
" />
<path d="M98.832267 67.180827
L98.737029 67.133208
" />
<path d="M98.737029 67.133208
L98.546553 67.133208
" />
<path d="M98.546553 67.133208
L98.451315 67.180827
" />
<path d="M98.451315 67.180827
L98.403696 67.228446
" />
<path d="M98.403696 67.228446
L98.356077 67.323684
" />
<path d="M98.356077 67.323684
L98.356077 67.609398
" />
<path d="M98.356077 67.609398
L98.403696 67.704636
" />
<path d="M98.403696 67.704636
L98.451315 67.752256
" />
<path d="M98.451315 67.752256
L98.546553 67.799875
" />
<path d="M98.546553 67.799875
L98.737029 67.799875
" />
<path d="M98.737029 67.799875
L98.832267 67.752256
" />
<path d="M97.784648 67.799875
L97.879886 67.752256
" />
<path d="M97.879886 67.752256
L97.927505 67.704636
" />
<path d="M97.927505 67.704636
L97.975124 67.609398
" />
<path d="M97.975124 67.609398
L97.975124 67.323684
" />
<path d="M97.975124 67.323684
L97.927505 67.228446
" />
<path d="M97.927505 67.228446
L97.879886 67.180827
" />
<path d="M97.879886 67.180827
L97.784648 67.133208
" />
<path d="M97.784648 67.133208
L97.641791 67.133208
" />
<path d="M97.641791 67.133208
L97.546553 67.180827
" />
<path d="M97.546553 67.180827
L97.498934 67.228446
" />
<path d="M97.498934 67.228446
L97.451315 67.323684
" />
<path d="M97.451315 67.323684
L97.451315 67.609398
" />
<path d="M97.451315 67.609398
L97.498934 67.704636
" />
<path d="M97.498934 67.704636
L97.546553 67.752256
" />
<path d="M97.546553 67.752256
L97.641791 67.799875
" />
<path d="M97.641791 67.799875
L97.784648 67.799875
" />
<path d="M96.594172 67.799875
L96.594172 67.276065
" />
<path d="M96.594172 67.276065
L96.641791 67.180827
" />
<path d="M96.641791 67.180827
L96.737029 67.133208
" />
<path d="M96.737029 67.133208
L96.927505 67.133208
" />
<path d="M96.927505 67.133208
L97.022743 67.180827
" />
<path d="M96.594172 67.752256
L96.689410 67.799875
" />
<path d="M96.689410 67.799875
L96.927505 67.799875
" />
<path d="M96.927505 67.799875
L97.022743 67.752256
" />
<path d="M97.022743 67.752256
L97.070362 67.657017
" />
<path d="M97.070362 67.657017
L97.070362 67.561779
" />
<path d="M97.070362 67.561779
L97.022743 67.466541
" />
<path d="M97.022743 67.466541
L96.927505 67.418922
" />
<path d="M96.927505 67.418922
L96.689410 67.418922
" />
<path d="M96.689410 67.418922
L96.594172 67.371303
" />
<path d="M96.117981 67.799875
L96.117981 67.133208
" />
<path d="M96.117981 67.323684
L96.070362 67.228446
" />
<path d="M96.070362 67.228446
L96.022743 67.180827
" />
<path d="M96.022743 67.180827
L95.927505 67.133208
" />
<path d="M95.927505 67.133208
L95.832267 67.133208
" />
<path d="M95.070362 67.799875
L95.070362 66.799875
" />
<path d="M95.070362 67.752256
L95.165600 67.799875
" />
<path d="M95.165600 67.799875
L95.356076 67.799875
" />
<path d="M95.356076 67.799875
L95.451314 67.752256
" />
<path d="M95.451314 67.752256
L95.498933 67.704636
" />
<path d="M95.498933 67.704636
L95.546552 67.609398
" />
<path d="M95.546552 67.609398
L95.546552 67.323684
" />
<path d="M95.546552 67.323684
L95.498933 67.228446
" />
<path d="M95.498933 67.228446
L95.451314 67.180827
" />
<path d="M95.451314 67.180827
L95.356076 67.133208
" />
<path d="M95.356076 67.133208
L95.165600 67.133208
" />
<path d="M95.165600 67.133208
L95.070362 67.180827
" />
</g><text x="112.550000" y="69.540000"
transform="scale(-1 1) translate(-225.100000 0)"
textLength="17.821429" font-size="1.333333" lengthAdjust="spacingAndGlyphs"
text-anchor="start" opacity="0" stroke-opacity="0">PCB: 1.0.1-RC f453ff3</text>
<g class="stroked-text"><desc>PCB: 1.0.1-RC f453ff3</desc>
<path d="M112.213220 69.409819
L112.213220 68.409819
" />
<path d="M112.213220 68.409819
L111.832268 68.409819
" />
<path d="M111.832268 68.409819
L111.737030 68.457438
" />
<path d="M111.737030 68.457438
L111.689411 68.505057
" />
<path d="M111.689411 68.505057
L111.641792 68.600295
" />
<path d="M111.641792 68.600295
L111.641792 68.743152
" />
<path d="M111.641792 68.743152
L111.689411 68.838390
" />
<path d="M111.689411 68.838390
L111.737030 68.886009
" />
<path d="M111.737030 68.886009
L111.832268 68.933628
" />
<path d="M111.832268 68.933628
L112.213220 68.933628
" />
<path d="M110.641792 69.314580
L110.689411 69.362200
" />
<path d="M110.689411 69.362200
L110.832268 69.409819
" />
<path d="M110.832268 69.409819
L110.927506 69.409819
" />
<path d="M110.927506 69.409819
L111.070363 69.362200
" />
<path d="M111.070363 69.362200
L111.165601 69.266961
" />
<path d="M111.165601 69.266961
L111.213220 69.171723
" />
<path d="M111.213220 69.171723
L111.260839 68.981247
" />
<path d="M111.260839 68.981247
L111.260839 68.838390
" />
<path d="M111.260839 68.838390
L111.213220 68.647914
" />
<path d="M111.213220 68.647914
L111.165601 68.552676
" />
<path d="M111.165601 68.552676
L111.070363 68.457438
" />
<path d="M111.070363 68.457438
L110.927506 68.409819
" />
<path d="M110.927506 68.409819
L110.832268 68.409819
" />
<path d="M110.832268 68.409819
L110.689411 68.457438
" />
<path d="M110.689411 68.457438
L110.641792 68.505057
" />
<path d="M109.879887 68.886009
L109.737030 68.933628
" />
<path d="M109.737030 68.933628
L109.689411 68.981247
" />
<path d="M109.689411 68.981247
L109.641792 69.076485
" />
<path d="M109.641792 69.076485
L109.641792 69.219342
" />
<path d="M109.641792 69.219342
L109.689411 69.314580
" />
<path d="M109.689411 69.314580
L109.737030 69.362200
" />
<path d="M109.737030 69.362200
L109.832268 69.409819
" />
<path d="M109.832268 69.409819
L110.213220 69.409819
" />
<path d="M110.213220 69.409819
L110.213220 68.409819
" />
<path d="M110.213220 68.409819
L109.879887 68.409819
" />
<path d="M109.879887 68.409819
L109.784649 68.457438
" />
<path d="M109.784649 68.457438
L109.737030 68.505057
" />
<path d="M109.737030 68.505057
L109.689411 68.600295
" />
<path d="M109.689411 68.600295
L109.689411 68.695533
" />
<path d="M109.689411 68.695533
L109.737030 68.790771
" />
<path d="M109.737030 68.790771
L109.784649 68.838390
" />
<path d="M109.784649 68.838390
L109.879887 68.886009
" />
<path d="M109.879887 68.886009
L110.213220 68.886009
" />
<path d="M109.213220 69.314580
L109.165601 69.362200
" />
<path d="M109.165601 69.362200
L109.213220 69.409819
" />
<path d="M109.213220 69.409819
L109.260839 69.362200
" />
<path d="M109.260839 69.362200
L109.213220 69.314580
" />
<path d="M109.213220 69.314580
L109.213220 69.409819
" />
<path d="M109.213220 68.790771
L109.165601 68.838390
" />
<path d="M109.165601 68.838390
L109.213220 68.886009
" />
<path d="M109.213220 68.886009
L109.260839 68.838390
" />
<path d="M109.260839 68.838390
L109.213220 68.790771
" />
<path d="M109.213220 68.790771
L109.213220 68.886009
" />
<path d="M107.451316 69.409819
L108.022744 69.409819
" />
<path d="M107.737030 69.409819
L107.737030 68.409819
" />
<path d="M107.737030 68.409819
L107.832268 68.552676
" />
<path d="M107.832268 68.552676
L107.927506 68.647914
" />
<path d="M107.927506 68.647914
L108.022744 68.695533
" />
<path d="M107.022744 69.314580
L106.975125 69.362200
" />
<path d="M106.975125 69.362200
L107.022744 69.409819
" />
<path d="M107.022744 69.409819
L107.070363 69.362200
" />
<path d="M107.070363 69.362200
L107.022744 69.314580
" />
<path d="M107.022744 69.314580
L107.022744 69.409819
" />
<path d="M106.356078 68.409819
L106.260840 68.409819
" />
<path d="M106.260840 68.409819
L106.165602 68.457438
" />
<path d="M106.165602 68.457438
L106.117983 68.505057
" />
<path d="M106.117983 68.505057
L106.070364 68.600295
" />
<path d="M106.070364 68.600295
L106.022745 68.790771
" />
<path d="M106.022745 68.790771
L106.022745 69.028866
" />
<path d="M106.022745 69.028866
L106.070364 69.219342
" />
<path d="M106.070364 69.219342
L106.117983 69.314580
" />
<path d="M106.117983 69.314580
L106.165602 69.362200
" />
<path d="M106.165602 69.362200
L106.260840 69.409819
" />
<path d="M106.260840 69.409819
L106.356078 69.409819
" />
<path d="M106.356078 69.409819
L106.451316 69.362200
" />
<path d="M106.451316 69.362200
L106.498935 69.314580
" />
<path d="M106.498935 69.314580
L106.546554 69.219342
" />
<path d="M106.546554 69.219342
L106.594173 69.028866
" />
<path d="M106.594173 69.028866
L106.594173 68.790771
" />
<path d="M106.594173 68.790771
L106.546554 68.600295
" />
<path d="M106.546554 68.600295
L106.498935 68.505057
" />
<path d="M106.498935 68.505057
L106.451316 68.457438
" />
<path d="M106.451316 68.457438
L106.356078 68.409819
" />
<path d="M105.594173 69.314580
L105.546554 69.362200
" />
<path d="M105.546554 69.362200
L105.594173 69.409819
" />
<path d="M105.594173 69.409819
L105.641792 69.362200
" />
<path d="M105.641792 69.362200
L105.594173 69.314580
" />
<path d="M105.594173 69.314580
L105.594173 69.409819
" />
<path d="M104.594174 69.409819
L105.165602 69.409819
" />
<path d="M104.879888 69.409819
L104.879888 68.409819
" />
<path d="M104.879888 68.409819
L104.975126 68.552676
" />
<path d="M104.975126 68.552676
L105.070364 68.647914
" />
<path d="M105.070364 68.647914
L105.165602 68.695533
" />
<path d="M104.165602 69.028866
L103.403698 69.028866
" />
<path d="M102.356079 69.409819
L102.689412 68.933628
" />
<path d="M102.927507 69.409819
L102.927507 68.409819
" />
<path d="M102.927507 68.409819
L102.546555 68.409819
" />
<path d="M102.546555 68.409819
L102.451317 68.457438
" />
<path d="M102.451317 68.457438
L102.403698 68.505057
" />
<path d="M102.403698 68.505057
L102.356079 68.600295
" />
<path d="M102.356079 68.600295
L102.356079 68.743152
" />
<path d="M102.356079 68.743152
L102.403698 68.838390
" />
<path d="M102.403698 68.838390
L102.451317 68.886009
" />
<path d="M102.451317 68.886009
L102.546555 68.933628
" />
<path d="M102.546555 68.933628
L102.927507 68.933628
" />
<path d="M101.356079 69.314580
L101.403698 69.362200
" />
<path d="M101.403698 69.362200
L101.546555 69.409819
" />
<path d="M101.546555 69.409819
L101.641793 69.409819
" />
<path d="M101.641793 69.409819
L101.784650 69.362200
" />
<path d="M101.784650 69.362200
L101.879888 69.266961
" />
<path d="M101.879888 69.266961
L101.927507 69.171723
" />
<path d="M101.927507 69.171723
L101.975126 68.981247
" />
<path d="M101.975126 68.981247
L101.975126 68.838390
" />
<path d="M101.975126 68.838390
L101.927507 68.647914
" />
<path d="M101.927507 68.647914
L101.879888 68.552676
" />
<path d="M101.879888 68.552676
L101.784650 68.457438
" />
<path d="M101.784650 68.457438
L101.641793 68.409819
" />
<path d="M101.641793 68.409819
L101.546555 68.409819
" />
<path d="M101.546555 68.409819
L101.403698 68.457438
" />
<path d="M101.403698 68.457438
L101.356079 68.505057
" />
<path d="M100.308459 68.743152
L99.927507 68.743152
" />
<path d="M100.165602 69.409819
L100.165602 68.552676
" />
<path d="M100.165602 68.552676
L100.117983 68.457438
" />
<path d="M100.117983 68.457438
L100.022745 68.409819
" />
<path d="M100.022745 68.409819
L99.927507 68.409819
" />
<path d="M99.165602 68.743152
L99.165602 69.409819
" />
<path d="M99.403697 68.362200
L99.641792 69.076485
" />
<path d="M99.641792 69.076485
L99.022745 69.076485
" />
<path d="M98.165602 68.409819
L98.641792 68.409819
" />
<path d="M98.641792 68.409819
L98.689411 68.886009
" />
<path d="M98.689411 68.886009
L98.641792 68.838390
" />
<path d="M98.641792 68.838390
L98.546554 68.790771
" />
<path d="M98.546554 68.790771
L98.308459 68.790771
" />
<path d="M98.308459 68.790771
L98.213221 68.838390
" />
<path d="M98.213221 68.838390
L98.165602 68.886009
" />
<path d="M98.165602 68.886009
L98.117983 68.981247
" />
<path d="M98.117983 68.981247
L98.117983 69.219342
" />
<path d="M98.117983 69.219342
L98.165602 69.314580
" />
<path d="M98.165602 69.314580
L98.213221 69.362200
" />
<path d="M98.213221 69.362200
L98.308459 69.409819
" />
<path d="M98.308459 69.409819
L98.546554 69.409819
" />
<path d="M98.546554 69.409819
L98.641792 69.362200
" />
<path d="M98.641792 69.362200
L98.689411 69.314580
" />
<path d="M97.784649 68.409819
L97.165602 68.409819
" />
<path d="M97.165602 68.409819
L97.498935 68.790771
" />
<path d="M97.498935 68.790771
L97.356078 68.790771
" />
<path d="M97.356078 68.790771
L97.260840 68.838390
" />
<path d="M97.260840 68.838390
L97.213221 68.886009
" />
<path d="M97.213221 68.886009
L97.165602 68.981247
" />
<path d="M97.165602 68.981247
L97.165602 69.219342
" />
<path d="M97.165602 69.219342
L97.213221 69.314580
" />
<path d="M97.213221 69.314580
L97.260840 69.362200
" />
<path d="M97.260840 69.362200
L97.356078 69.409819
" />
<path d="M97.356078 69.409819
L97.641792 69.409819
" />
<path d="M97.641792 69.409819
L97.737030 69.362200
" />
<path d="M97.737030 69.362200
L97.784649 69.314580
" />
<path d="M96.879887 68.743152
L96.498935 68.743152
" />
<path d="M96.737030 69.409819
L96.737030 68.552676
" />
<path d="M96.737030 68.552676
L96.689411 68.457438
" />
<path d="M96.689411 68.457438
L96.594173 68.409819
" />
<path d="M96.594173 68.409819
L96.498935 68.409819
" />
<path d="M96.308458 68.743152
L95.927506 68.743152
" />
<path d="M96.165601 69.409819
L96.165601 68.552676
" />
<path d="M96.165601 68.552676
L96.117982 68.457438
" />
<path d="M96.117982 68.457438
L96.022744 68.409819
" />
<path d="M96.022744 68.409819
L95.927506 68.409819
" />
<path d="M95.689410 68.409819
L95.070363 68.409819
" />
<path d="M95.070363 68.409819
L95.403696 68.790771
" />
<path d="M95.403696 68.790771
L95.260839 68.790771
" />
<path d="M95.260839 68.790771
L95.165601 68.838390
" />
<path d="M95.165601 68.838390
L95.117982 68.886009
" />
<path d="M95.117982 68.886009
L95.070363 68.981247
" />
<path d="M95.070363 68.981247
L95.070363 69.219342
" />
<path d="M95.070363 69.219342
L95.117982 69.314580
" />
<path d="M95.117982 69.314580
L95.165601 69.362200
" />
<path d="M95.165601 69.362200
L95.260839 69.409819
" />
<path d="M95.260839 69.409819
L95.546553 69.409819
" />
<path d="M95.546553 69.409819
L95.641791 69.362200
" />
<path d="M95.641791 69.362200
L95.689410 69.314580
" />
</g><text x="69.170000" y="96.280000"
transform="scale(-1 1) translate(-138.340000 0)"
textLength="1.964286" font-size="1.333333" lengthAdjust="spacingAndGlyphs"
text-anchor="middle" opacity="0" stroke-opacity="0">J3</text>
<g class="stroked-text"><desc>J3</desc>
<path d="M69.503333 95.234819
L69.503333 95.949104
" />
<path d="M69.503333 95.949104
L69.550952 96.091961
" />
<path d="M69.550952 96.091961
L69.646190 96.187200
" />
<path d="M69.646190 96.187200
L69.789047 96.234819
" />
<path d="M69.789047 96.234819
L69.884285 96.234819
" />
<path d="M69.122380 95.234819
L68.503333 95.234819
" />
<path d="M68.503333 95.234819
L68.836666 95.615771
" />
<path d="M68.836666 95.615771
L68.693809 95.615771
" />
<path d="M68.693809 95.615771
L68.598571 95.663390
" />
<path d="M68.598571 95.663390
L68.550952 95.711009
" />
<path d="M68.550952 95.711009
L68.503333 95.806247
" />
<path d="M68.503333 95.806247
L68.503333 96.044342
" />
<path d="M68.503333 96.044342
L68.550952 96.139580
" />
<path d="M68.550952 96.139580
L68.598571 96.187200
" />
<path d="M68.598571 96.187200
L68.693809 96.234819
" />
<path d="M68.693809 96.234819
L68.979523 96.234819
" />
<path d="M68.979523 96.234819
L69.074761 96.187200
" />
<path d="M69.074761 96.187200
L69.122380 96.139580
" />
</g><text x="110.620000" y="97.470000"
transform="scale(-1 1) translate(-221.240000 0)"
textLength="1.964286" font-size="1.333333" lengthAdjust="spacingAndGlyphs"
text-anchor="middle" opacity="0" stroke-opacity="0">J2</text>
<g class="stroked-text"><desc>J2</desc>
<path d="M110.953333 96.424819
L110.953333 97.139104
" />
<path d="M110.953333 97.139104
L111.000952 97.281961
" />
<path d="M111.000952 97.281961
L111.096190 97.377200
" />
<path d="M111.096190 97.377200
L111.239047 97.424819
" />
<path d="M111.239047 97.424819
L111.334285 97.424819
" />
<path d="M110.524761 96.520057
L110.477142 96.472438
" />
<path d="M110.477142 96.472438
L110.381904 96.424819
" />
<path d="M110.381904 96.424819
L110.143809 96.424819
" />
<path d="M110.143809 96.424819
L110.048571 96.472438
" />
<path d="M110.048571 96.472438
L110.000952 96.520057
" />
<path d="M110.000952 96.520057
L109.953333 96.615295
" />
<path d="M109.953333 96.615295
L109.953333 96.710533
" />
<path d="M109.953333 96.710533
L110.000952 96.853390
" />
<path d="M110.000952 96.853390
L110.572380 97.424819
" />
<path d="M110.572380 97.424819
L109.953333 97.424819
" />
</g></g>
<g style="fill:none; 
stroke:#000000; stroke-width:0.120000; stroke-opacity:1; 
stroke-linecap:round; stroke-linejoin:round;">
<path d="M62.010000 92.310000
L62.010000 89.710000
" />
<path d="M62.010000 94.910000
L62.010000 93.580000
" />
<path d="M63.340000 94.910000
L62.010000 94.910000
" />
<path d="M64.610000 92.310000
L62.010000 92.310000
" />
<path d="M64.610000 94.910000
L64.610000 92.310000
" />
<path d="M69.750000 89.710000
L62.010000 89.710000
" />
<path d="M69.750000 94.910000
L64.610000 94.910000
" />
<path d="M69.750000 94.910000
L69.750000 89.710000
" />
<path d="M106.320000 88.070000
L107.650000 88.070000
" />
<path d="M106.320000 89.400000
L106.320000 88.070000
" />
<path d="M106.320000 90.670000
L108.920000 90.670000
" />
<path d="M106.320000 95.810000
L106.320000 90.670000
" />
<path d="M106.320000 95.810000
L111.520000 95.810000
" />
<path d="M108.920000 88.070000
L111.520000 88.070000
" />
<path d="M108.920000 90.670000
L108.920000 88.070000
" />
<path d="M111.520000 95.810000
L111.520000 88.070000
" />
</g> 
</svg>
